<?xml version="1.0" encoding="UTF-8"?>
<svg id="Layer_1" data-name="Layer 1" xmlns="http://www.w3.org/2000/svg" viewBox="0 0 385.8 134.69">
  <defs>
    <style>
      .cls-1 {
        fill: #fff;
      }
    </style>
  </defs>
  <path d="M100.85,9.39l.68.03c.94-1.8.51-.1,1.77.53l1.11-.53c.12.7,2.08.8,2.9.84,1.18.06,1.77-1.02,2.31.91.56.41.91-.26,1.24-.17.71.21,1.73,1.71,3.01,1.6l.29-.59c1.12.12,1.48,1.02,1.94,1.37.16.12,2.29.57,3.45,1.31,1.76,1.12,4.36,2.63,5.87,3.74,1.27.93.95,1.7,1.46,2.7.25.49.75.53.86.72.31.51.13,1.85,1.51,1.65l-.29,1.14c1.86-.29,1.8,2.15,3.17,2.02l-.26.81c.97.19.95,1.71,1.56,2.35.39.42,2.38.09,1.8,1.38l-.79.47c.62,1.07.42,1.63,1.71,2.01-1.31,1.43.45,1.57.74,2.15.2.39-.24.95-.12,1.51.24,1.06,1.79,1.44.37,2.49-.08.61.65,1.29.62,1.9-.07,1.18-.19,1.49.12,2.83.06.27.79.04.56.61l-.86.57,1.1,1.38c.25,1.17-1.04,1.55-1.1,1.65-.09.16.45.38.44.88,0,.81-.64.81-.81,1.2-.36.82.35,2.25-1.06,1.94l.05,1.97.51.32c-.54-.03-.66.84-1.17,1.5-.25.32-1.3,1.07-1.34,1.15-.05.09-.31,1.8-.42,1.91-.19.2-.79.13-1.03.4-.19.22-.38,1.41-.66,1.79l.6.33c.17,2.12-1.8,1.46-2.6,3.12l.86.14-.29,1.15-1.43-.29,1.15.86-1.72,2.15c.62.28.94.95,1.36,1.29.5.4,2.76,1.56,2.97,1.84.45.58.11,1.54.58,2.3.49.79,2.81,2.42,3.34,3.13.32.44.08,1.16.17,1.29.86,1.21.93,1.81,1.43,2.57.08.13,2.04,1.45,2.2,1.98.14.48-.47.99-.12,1.82.22.51.95,1.4,1.58,1.17l-.57.43c1.65,1.07.58,1.67.63,2.25.02.29.4.63.46.98.22,1.21-.29,2.36,1.5,2.38l-.57.71.57-.14c.15.53-.48.88-.48,1.29,0,.3.44.72.48,1.18.06.63-.28,1.22-.27,1.94.02,1.02.65,1.78,1.12,2.63-1.12.31-2.47,4.51-.9,4.23.54.98.34,1.05-.54,1.52l.5,1.44-1.23.71.39,2.17c-1.51.64-.9,1.61-1.16,2.26-.37.95-1.65,2.05-2.22,2.62s-1.24,2.48-1.88,3.28-1.3.29-.71,2.03l-1.43-.29.17,1.16c-.31.39-1.4.24-1.89.71-.44.42-.4,1.31-.62,1.53-.04.04-.45-.2-.69.02-.75.66.04,1.14-1.86.72-.29,2.22-2.22,1.85-3.42,2.92-.61.54-.63,2.54-1.88.42-.28.62-1.25.43-1.53.64-.06.05-.34,1.25-.84,1.35-1.02.2-2.07-.55-1.81.88-1.16-.55-3.19-.89-3.16.86h-.28c.29-.54-1.54-.94-1.7-.81l-.31.53-.29-.57c-.03.89-1.08,1.14-1.29.28-.92,1.31-2.33-.08-2.44,0-.06.05-.22,1.23-.96,1.08-1.26.01-1.6-1.47-3.05-.76l-.02,1.12c-1.51-.47-3.23-.34-4.57-1.31-.47-.34-.45-1.27-1.56-1-.29.07-.24,1.16-1.44.88-.19-.04-.14-.51-.36-.56-.25-.07-.74.27-1.33-.06-.71-.4-.68-1.35-1.19-1.71-.75-.53-1.34.24-1.44-1.09-.07-.91,1.75-1.73.45-2.17.95-1.2-.76-2.55-.84-2.89-.1-.45.63-.92-.34-1.15.51-.54.53-1.21,1.44-1.01-.49-.58.06-1.75-.06-2.13-.15-.47-.84-.11-.84-1.17s.61-.67.83-1.18c.06-.14.11-2.93.09-3.14-.05-.61-.88-.27-.31-1l-.86-.29c.69-.03.68-1.03,1.43-1.44-1.41-.09.61-1.65-1.41-1.86.11-.81.17-1.05,1.13-1.02l-.25-.72c1.64-1.05-1.42-1.71.54-2.87-.82-.08-.48-1.32-.29-1.98.24-.83,1.11-1-.29-1.33l.57-.71c-1.63-.78-.15-1.24-.09-1.72.06-.56-.77-1.97-.78-2.3,0-.09.88-.25.53-1.42-1.74-.81.09-1.58.07-2.59,0-.08-.88-.44-.87-1.19l.56-.13-.6-.71c.36-.89,1.41-4.32.86-5l-.82-.18c.66-1.09.8-3.17-.58-3.73,1.47-1.27.11-2.43.86-3.88h-.85c-.47-.51.77-3.35.77-3.82s-.44-1.19-.47-1.82c-.05-1.17.76-2.36-.61-2.83l1.14-1.86-.86-.45.57-1.27-.86-.44c-.3-.95.73-.71.86-1.29l-.86-.45c.15-.77.77-1.38.98-2.12.26-.91-.7-1.23.18-2.17l-.84-.61c-.34-.97.56-1.55.5-1.93-.05-.34-.74-.76-.73-1.2,0-.41.59-.76.64-1.14.08-.58,0-3.45-.73-3.45.85-1.49,1.12-4.18.12-5.73l.16-4.18-.87-.15c.53-.31,1.67-2.2.62-2.29.48-1.04.91-3.56-.32-3.89l.58-.43c-1.11-1.26-.11-1.61-.05-2.34.03-.38-.46-.64-.47-.82,0-.22.74-.54.81-1.16.11-1.02-1.52-1.9.28-2.57,0-.28-.44-.09-.64-.22-1.36-.92.47-.53-.23-1.36,2.23-.06-.19-.86-.23-1.29l.81-1.15c-1.31-.4-1.46-2.72,0-2.44-.59-.77.1-1.18.15-1.75.18-2.26-1.14-5.33-.3-7.72.36-1.03,1.5-1.32.44-2.58,1.48.51,4.42-.01,4.92,1.69ZM105.64,15.82c-.57-.33-1,.45-1.51.49s-1.08-.49-1.5-.51c-.89-.06-.88,2.01-.09,2.11-.67.9-1.59,2.86-.57,3.74-1.27.33-.22,1.8-.37,2.54-.05.28-.47.48-.51.9,0,.12.44.06.62.57.44,1.29-.83,1.46-.44,2.77.18.6.61.5.64.68.11.61-.59,2.21.34,2.29-.78,1.15-1.1,5.99-.79,7.25.14.58.65.96.69,1.38.06.65-.74.57-.79,1.15-.09,1.08.11,1.87.88,2.59l-1.16.61v2.54s.88.16.88.16c.18.62-.76,1.2-.77,1.58,0,.27.37.54.36.86,0,.19-.36.41-.36.57,0,.26.68.78.76,1.46.09.83-.53,1.63-.48,1.99.07.57,1.46,1.2.03,2.58l.63,1.74-.75.42.59.44c-.85,1.45.45,4.07.14,5.45-.08.36-.55.55-.6.84-.13.67-.27,2.24-.12,2.83.05.19.41.14.55.42.31.6-.54,1.05,1.39,1.14,1.1.06,3.34-.69,4.17-.53.26.05.25.62.68.82.76.36,1.84.31,2.55.93l.71-.87c1.32,1.22,2.97.78,4.6.57v-1.44c1.18.51,1.24-.25,1.94-.49.55-.2,1.77-.4,2.17-.64.37-.22.11-.67.21-.86.04-.09,1.21.38,1.85-.29l.16-1.14,1.4-.04c-.29-1.33.94-1.5.6-2.55l.87-.19.3-1.95-.6-.31c1.55-.76,1.15-2.63,3.04-3.01l-.16-2.02c1.22.14,2.04-2.39,2.47-3.46.3-.75.14-.59.59-1.49.49-.97-.13-1.49-.11-1.81.01-.2,1.67-1.9.77-3.12l.59-.19c-.11-.51-.74-.23-.8-1.06-.04-.5.27-.97.21-1.37-.08-.62-.71-1.57-.56-2.26.06-.27.64-.08.59-.6-.09-.93-.96-1.31-1.31-2.03-.38-.81.45-.73.45-.87,0-.09-.4-1.76-.45-1.84-.21-.32-1.24-.91-1.49-1.26-.07-.1-.59-1.63-.66-1.92l-.43.57c-.71-1.14-2.5-1.94-1.58-3.44h-1.15s.58-1.44.58-1.44l-1.16.16-.28-1.32c-1.81.78-1.09-1.16-1.4-1.59-.48-.66-1.9-.85-2.06-1.1-.3-.47-.18-1.06-.33-1.27-.05-.07-.65-.55-.98-.92-.17-.19-1.19-1.23-1.26-1.28-.47-.31-1.93.64-1.73-.45l-.57.57c.13-1.44-.22-.54-.86-.68-1.51-.34-1.04-1.75-2.49-2.16l-.57.57-1.85-.14-.27-1.03c-1.14.4-1.89-.45-3,.29l-1.07-1.65ZM121.45,74.43c-.91-.28-1.21.32-1.27,1.08-1.45.66-2.77-.14-4.15.12-.71.13-1.3.71-1.88.74s-1.66-.65-1.99-.53c-.16.06-.13.53-.29.55-.64.07-3.43-1.17-4.02-1.2-.52-.02-.38.48-.56.54-.44.16-2.92-.33-3.02-.22l-.15.86-1.15-1.15c-.39.05-1.19.99-1.25,1.37-.1.62.42.81.49,1.35.08.65-.59,2.61-.48,2.88.09.22.91.47.81,1.29l-.86.15c1.48.83.1,2.29,1.14,3.16-.85.01-.91,1.75-.73,2.29.33,1.02.59,1.63.58,2.97-.01,1.5-.66,1.69-.7,2.92l1.44.14c.36,1.08-1.18.8-1.15,1.15,1.96.8-.19,1.37.38,2.39.07.13.61-.13.48.33l-.56.13.88,4.34c-.83,1.11-.42,1.86-.63,3.13-.23,1.39-1.41,1.97.53,3.46-1.74,1.83-.72,1.08-.31,2.35.31.97-.71,1.84-.78,2.57-.18,1.9.52,3.93.72,5.61.1.87-.86,4.16-.14,4.72,1.06-.38,1.59.83,1.8.93.32.15,1.18-.23,1.79.86,1.44-1.22,1.27-.66,2.59.35.86-2,.86-1.06,1.98-1.23,1.86-.29,1.33.05,2.66.09.72.02,1.35-.87,2.41-.29v-.86c.8.02,1.33.31,1.15,1.15l3.45-.58c-1.24-1.15.61-1.76,1-.57l.96-.62-.24-.53c1.25-.09,2.7-.8,3.61-1.42.24-.17.29-.67.49-.8.34-.22,1.35-.13,1.61-.4.06-.06-.34-.84.46-1.44.4-.3.81-.02,1.03-.13s3.48-3.06,3.59-3.3c.21-.45-.16-.84.11-1.29.42-.7,2.41-.59,1.54-1.86l-.65-.28c.96-.22.78-1.36,2.01-.58l.03-2.69,1.33-.89c-.82-1.23.37-1.9.36-2.02,0-.28-.96-.22-.87-.86.12-.89,1.1-.87,1.16-1.19.09-.54-.48-1.69-.5-2.33-.02-.69.48-2.87.45-3.04-.02-.12-.51-2.06-.57-2.16-.1-.17-.76-.18-.99-.77-.35-.89.96-3.88-.93-4.21l.82-1.97c-1.5-.1-1.36-1-1.74-1.82-.53-1.14-.49-.15-.56-1.75,0-.06-.82-.86-.83-.93-.1-.54.26-1.36-.18-2.1s-3.47-1.06-3.87-2.75l.58-.28-.58-1.3c-1.18.68-.72-.61-1.96-.61l-.05-1.4c-1.36.57-.99-.69-1.34-.88-.08-.04-1.58-.28-1.7-.27-.62.05-.25.81-1.12.57l-.58-1.15-.86.58-.19-.5Z"/>
  <path d="M38.16,4.83l.42-.58c1.02.26.63,1.03.72,1.15.02.03.44-.23.67-.19.97.18,2.75,1.36,3.07-.38l.57.86.57-.57c-.13.8.54.59,1.15.57.05.41-.36.89-.31,1.24.01.08,1.12,1.13,1.19,1.18,1.32.91,2.69.03,2.87,1.88l.56-.28c.13.5.13,1.57.37,1.93s2.1,1.96,2.31,2.45c.44.98.28,2.34.48,3.38h1.43s-.88,1.84-.88,1.84c.02.17.44.19.57.39,1.17,1.74,1.08,2.87,1.94,4.67.28.59,1.2.79.96,1.84l-.6.32c1.04,1.2.18,1.5.13,2.29-.08,1.05.93,1.75,1.89,1.3-.43,1.3-1.2,2.47-.63,3.92.27.7.78.13,1.01.75-.79,3.04.78,2.35,1.3,3.14.03.05-.18.8-.09,1.26.18,1,.69,4.01,1.01,4.81.1.25.35.25.57.21l-.59.46c.38,1.25.45,2.61.72,3.87.11.51.55.92.64,1.34.2.88-.5,1.49.41,2.23l-.88,1.44,1.64,1.14-1.07,1.73,1.14.57c-1,.85.16,1.78-1.14,2.72,1.58.41.63,2.93.71,3.88,0,.09.43,1.74.48,1.82.1.17.83.28,1.1.34-.01.58-1.12,1.46-1.11,1.56.03.61.66,1.43.8,2.05.25,1.17-.25,2.65-.15,3s1.57,3.09,1.57,3.28c.01.53-.52,1.73-.52,2.36,0,.84,1.12,1.37-.3,1.97v.58s.57.15.57.15c-.72.77-.65,1.71.31,2.15-1.01,1.14-.12,1.36-.07,2.07s-.59,2.59.62,2.67l-.57.85c1.16-.08.29,1.16.37,1.82.07.49.8,2.75.93,3.14.26.79.74,1.34-.17,1.52-.1.42.33.72.4,1.01.17.72.7,2.29.75,3.03,0,.12-.51.1-.56.31s.43,2.59.55,2.77c.21.3.79.36.88.66.19.61-1.17,1.39,0,2.28-1.06.26-.28,1-.54,1.83l1.12.47c.23.78-1.37,1.21-.55,2.82.16.32.76.69.77.91.02.41-1.12,1.57-.49,3.38.09.25.55.21.57.4.06.45-.37,1.23-.32,1.97.05.68.31,2.19.42,3.03.22,1.6,1.13,1.51,1.28,1.87.11.27-.5,1.35-.52,1.73-.02.33.01,2.17.05,2.51.06.57.58,1.18.37,1.93h1.01s-.41,4.6-.41,4.6c-.81.36-1.35.83-2.18,1.21-.92.42-1.75-.04-2.15,1.08-1.11-.95,0-2.25-1.86-3.01l.57-.72-.86.29c-.43-1.6,1.13-1.59-1.13-2.33l.57-3.27-.87-.15c.5-1.43-.24-2.61-.48-3.92-.14-.78-.3-1.03-.32-1.1-.08-.45.05-1.21-.07-1.73l1.15.43c.52-1.14-.55-1.78-.6-2.14-.19-1.51.99-2.33-.84-2.46l.73-.84-.46-1.57.6-.34c.05-.86-.97-2.11-1.03-2.56-.12-.92,1.16-2.3-.42-2.46l.86-1.43h-1.44c.73-.86.24-1.51.26-2.44.01-.58.25-1.21.22-1.69-.1-1.48-1.8-1.06-.46-3.19l-.57-.28c.35-.77.56-1.2-.31-1.45,1.37-1.47-.73-1.89-.71-3.16.02-.9.61-1.42.66-1.79s-.42-.6-.43-.81c0-.28.66-.49.48-1l-1.43.28.58-.43-.6-.3.74-1.88c0-.94-2.22-1.78-.15-2.69-.84-.34-.25-2.57-.34-2.68-.1-.13-1.35-.54-.81-1.2.12-.14,1.12.38.86-.57l-1.14-.31.56-1.42-.57.14c0-.33.05-.74-.13-1.01-.88-1.36-7.24-.45-8.64.59l-.43-.14c-.29-1.08-1.07-.7-2-.73v1.15s-2.27-1.14-2.27-1.14l-1.03,1.42-.43-.86c-1.77,1.81-2.84-.07-4.17-.16-.1,0-1.43.56-1.84.6-.37.03-.58-.33-.74-.32-.46.04-1.16.74-2.16.17l.57.57c-1.06-.11-3.1.85-2.88-.86h-2.01s.14,1.15.14,1.15l-.27-.54c-.84.56-1.58-.27-2.35-.34-.51-.04-.24.7-1.11.51-.14-.03-.13-.37-.21-.4-.15-.07-.46.21-.49.18-.09-.1.07-.66-.48-1.11-1.18-.97-3.86-.8-1.85.27l-.53.33c.43.96-.45,1.33-.57,1.88s.39,1.43.1,2.25c-.39,1.08-.92,2.89-.91,4.01,0,.19.44.46.42.81-.04.79-1.08,1.02-1.12,1.25-.16,1,2.01,2.71.02,2.4l.3.99-.61.31c1.07,1.25-.15,1.78-.17,2.3,0,.17.41.41.35.72-.14.67-.87.75-.97.9-.08.12.23,2.81.19,2.95-.09.37-.72.37-.8.48s.57,1.94-.33,2.69l1.15.44c.04.41-.41.23-.67.63-.65.99-1.16,1.95.38,2.24l-1.44,1.59c.9,1.25-.12,3.02-.4,4.5-.1.53.16,1.05.12,1.08-.09.06-.57-.1-.79.05-.5.35-.17,2.08-.28,2.77-.16,1.03-.32,1.67-.46,2.75s-.89.48.36,1.76l-1.15.43.87,1.03c.02.95-.82,1.34-.85,1.46-.06.23.3,1.54.19,1.75-.04.07-.92.61-1.06,1.08l.57.56-.86.44.58.99c-1.47.28-.98,1.39-1.43,1.74-.51.4-2.52.65-3.03,1.85-.5,0-2.23-3.19-2.31-3.72-.05-.32.31-.51.32-.73s-.41-.41-.31-.71c.23-.69,1.31-1.3.46-2.47l.55-.12c.12-.48-.41-.15-.52-.42-.08-.18.79-3.17.94-3.76.09-.34.54-.49.6-.84.12-.62-.22-3.03-.05-3.47.23-.58.83-.58.94-.77.04-.07.52-1.41.55-1.51.3-1.3-1.07-1.29-.89-2.19.03-.73.91-.42,1.2-.95s-.15-2.05-.1-2.57c.03-.28.47-2.4.53-2.58.28-.79.46.35.62-1.6.06-.77.58-1.35-.38-1.6l1.15-1.01-.54-.31c.51-.76-.05-1.44-.01-2.11.04-.73.77-1.58.76-1.75,0-.26-.6-.52-.49-.7.05-.08.96-.3.82-1.41l-.82-.46,1.16-2.01c-.96-.24-.25-.48-.35-1.09-.14-.84-1.12-1.09.6-1.68-1.05-1.35.45-2.57.5-2.97.07-.56-.79-2.95-.62-3.34l1.58-1.56-1.15-.28c.64-.49,1.6-2.76,1.43-3.41-.06-.23-1.07-.1-.28-1.13.24-.31.73-.02.58-.63l-.56-.54c1.2-1.26.7-2.61,1.41-3.77l-.85-.57c.26-.55,1.17-1.1,1.1-1.74-.04-.38-.91-.23-.82-.7l.86-.44c-1.69-.9.27-2.25.68-3.01.11-.2.19-1.5.5-1.88-1.61-1.12,1.19-4.46,1.13-5.43-.01-.17-.54-.14-.59-.35-.04-.15.07-2.97.12-3.12.18-.48.84-.82,1.11-1.38.22-.46.3-2.03.52-2.56.32-.76,1.98-.9-.31-1.8.79-.73,1.32-1.09,1.14-2.28-.06-.36-.44-.68-.46-.88-.03-.46.9-1.48.99-2.08.1-.68-.3-1.16-.18-1.85.17-.96,1.2-1.54,1.32-1.85.59-1.59-.19-5.07,1.21-6.56l-.57-.28,1.39-.89c-.48-.84.53-1.77-.53-1.99.13-.67,1.13-2.2,1.24-2.51.19-.53-.06-2.72.03-2.82.27-.34,1.04-.02,1.4-1.13.17-.51-.13-1.28-.02-1.54.21-.49,1-.6,1.02-.89s-.51-.75-.35-1.31c.28-1.03,1.32-1.02,1.49-1.21.43-.48-.22-2.36,1.21-1.95.13-.48-.55-.13-.6-.45-.16-1.05,2.8-2.89,1.75-4.57l.86-.15-.57-.71c1.25-.86,1.88-1.92,2.77-3,.55-.67,1.66-.8.96-1.75l.82-.04.05-.83.29.57ZM42.98,12.95c-.25-.36-1.65-.26-1.38-1.52-.63.47-.95.77-1.72.29-.31,1.2.15,1.59-.86,2.45l.57.42c-1.1.09-1.16,1.2-1.72,1.88-.78.96-1.73,1.11-1.9,2.87l.74,1c-1.5.58-2.1,2.54-1.84,4.04-1.74.37-.73.68-.88,1.57-.13.77-.65,1.38-.72,2.59-.03.53.28,1.91.24,2.01-.09.21-.56.24-.78.63-.38.66.02,2.33-1.46,2.11-.33.36.91,2.1-.3,2.69-.18.09-.56-.14-.57-.11-.06.08.24,1.62.13,2.04s-.54.67-.66,1.26c-.17.85,1.04,1.98-.04,3.01l.57.29c-1.05.21-1.24,2-1.97,2.78.63.76,1.05.98.54,2.23-.39.95-.94.87-1.06,1.09-.84,1.44-.09,4.38-.5,6.26-.06.28-.55.76-.46.86l.57.29-.53.13-.02,1.2-.88.11c.22,1.48.07,2.26-.6,3.58l.6.3-1.41.76c.04,1.78.41,3.98-.32,5.56l.57.27-.55,1.48.56.26-.86,1.29.72.3.28-.58.72.87c.92-1,1.98.11,3.02.16,1.11.05,1.61-1.18,2.58.7.6-1.43,1.56-.41,2.25-.38s1.38-.16,2.03-.15c.69,0,1.69.79,1.62-.32.85.75,1.55.76,2.44,0l.43.85h.42c.26-.95.44-.24,1.08-.34.42-.07,1.62-.2,1.76-.24.22-.06.19-.57.33-.58.69-.05,1.16,1.17,2.21.59.33-.18.33-.63.65-.74,1.64-.58,3.24.32,4.62.2.58-.05.96-.49,1.15-.5.26-.02,1.43.92,2.59.77.62-.08,1.07-1.65,2.29.56.21,0,1.07-2.19.97-2.65s-.61-.83-.72-1.27c-.29-1.15-.05-3.35-.67-4.51-.25-.47-1.21.46-.64-1.53.45-1.57,1.76-2.19.35-3.69,1.73-.94.32-1.18.05-1.76-.67-1.46-.69-3.44-.35-4.98h-1.44c.63-1.42.92-2.47.86-4.02l-1.15.28v-1.11s1.15-.46,1.15-.46c-.82-.6-1.01-1.74-1.32-2.73-.37-1.17-.66-2.59-1.13-4.01-.18-.56-.77-1.25-.84-1.7-.08-.5.28-1.05.1-1.58-.13-.39-.78-.37-.85-.67-.12-.55.4-2.04.2-2.55-.15-.38-.71-.32-.77-.61-.03-.15-.11-2.39-.18-3.06-.03-.31.18-1.41.16-1.48-.15-.38-1.34-.95-1.38-1.03-.05-.1.94-1.23-.05-1.96l-1.11.25.86-2.29c-1.29.16-.93-1.16-2-1.6,1.05-1.72-.19-1.26-.31-1.76-.25-1.08.02-1.74-.87-2.78s-1.96-1.17-2.04-3.02c-1.58.15-.88-.4-1.17-.81Z"/>
  <path d="M186.22,8.78c.07.06,1.36-.09,1.85.02,1.19.26,2.29,1.18,2.98,1.38.53.16.97-.21,1.43-.03.77.29,3.57,2.84,4.3,3.47.49.42,1.21.43,1.61.99l1.59,4.87,1.42-.28-.03,2.1,1.74.51c.06.36.12,1.92.17,2.01,1.07,1.76,1.33,2.31,1.99,4.59.25.86,1.19,1.14.45,2.57l.86-.29c.49,1.32-.46,2.92,1.15,3.59l-.86.86,1.43.87v.57c-.94.13-.6,1.6-.23,2.25.23.41.71.43.77.51s-.33.78-.26,1.22c.03.2.48.16.54.32.18.49-.85,1.53-.84,2,0,.21.56.22.74.45.21.27-.1,1.02.15,1.5.13.25.6.21.57.36-.05.26-.64.91-.77,1.5-.05.25.06,3.96.21,4.1l1.09.05c.56.9.04,1.7-.81,2.11.79.92,1.16,1.69.56,2.86,1.15,2.31,1.29,7.21.81,10.01-.52,3.05-.28,2.13.05,4.96.12,1.02-1.29,2.54,0,2.86-1.88,1.78.44,3.55-.88,5.46l.59.29-.58.14v.57s.59.18.59.18l-.9,2.83.61.3c-.81,1.23.09,2.51-.87,3.74.63.18.97.84.74,1.44-.14.35-.59.3-.74.65-.32.73.04,2.1-.13,2.93s-.9,1.83-.92,2.15c-.02.55.7,1.78.73,2.32,0,.14-.42.09-.49.27-.21.55,1.48,1.81-.65,1.87.29.52.31,1.64-.02,2.13-.36.53-2.5.49-.55,1.74l-1.72,2.02.87.62c.29,1.03-.57.96-.59,1.15-.28,2.15-.59,1.5-1.69,3.16-.39.59.13,1.62-1.46,1.53l.57.57-1.72.87.57.71c-1.72.97-2.1,3.06-3.17,4.53-.75,1.03-2.32,1.44-3.31,2.21-.55.43-.86.59-.94.65-.63.47-.24,1.26-2.07.52l.29.57-.88.15c-.02.85-.72,1.41-.99.43-.18.43-.94.64-1.11.83-.37.43-.01.95-.35,1.21-.72.55-2.06-.12-2.13-.03l-.16.88c-.7.1-1.97-.06-2.57.05-.14.03-.12.81-1.12.52-.55-.16.55-.34-1.18-.3-1.38.03-2.82-.21-3.91-.2-.63,0-1.92.58-2.69.49-.82-.1-.78-.93-2.16,0-.05-1.03-.44-1.14-1.32-1.42l-.13.56-.43-.57-.86.86c-.5-1-1.52-.66-2.15-1.01-.57-.32-.81-1.78-1.15-2.03-.24-.17-.62.15-.81.08-.21-.07-.82-1.23-.91-1.52l-.87.18c.3-1.43-1.2-1.55-1.55-2.29-.09-.19.12-.54-.05-.85-.12-.23-1.03-1.1-1.28-.59v-1.15c-1.37.62-1.42-.52-.58-1.43h-1.15c.52-1.36-.28-2.42-1.45-3.04l.88-1.56h-1.72s.29-2.01.29-2.01h-.86c-.09-.75.31-1.43.31-2.16,0-.23-.31-2.29-.39-2.39-.6-.74-.89-1.55-1.24-2.64-.18-.56.17-1.14-.17-1.79-.38-.74-1.05-.74-1.1-.81-.06-.08.83-1.62.28-1.99-.09-.06-.62.62-1.04-.14-.46-.84.88-.83.75-1.43l-.29-.3c-1.98.06.85-2.31-1.16-2.92-.22-.84.43-1.28.47-1.68.05-.53-.95-2.17-.47-2.98l-1.43-.32c-.11-.85.84-1.47.83-1.56-.03-.69-.9-1.7-.85-2.29.02-.16.46-.16.57-.39.6-1.22-.23-1.47-.28-2.25-.04-.65,1.34-2.64-.57-2.42.69-1.01-.34-3.06-.19-3.74.12-.53.65-.73.68-1,.02-.22.11-4.03.08-4.3-.06-.5-.61-.79-.58-1.42.02-.45.46-.84.51-1.21.06-.56-.43-1.22-.37-1.69.04-.32.57-.71.69-1.22.09-.4-.06-3.66-.24-3.8l-1.14.15,1.72-4.03c-1.08-.41-1.3-1.55-.87-2.54.12-.28,1.08.05,1.14-1.21,0-.08-.88-.03-.55-1.36.06-.24.62-.23.75-.75.21-.91-.78-1.87.68-2.04l-.86-.29c.26-1.28,1.08-1.34.33-2.72,2.85-1.12.53-3.65,2.54-5.18l-.57-.43c2.08,0,1.41-2.53,1.87-3.44.24-.47.88-.59,1.01-1.33.15-.85-.47-.63-.52-.84-.39-1.52,1.39-1.58,1.69-2.07.4-.64-.37-1.16.56-1.4l-.3-.69h1.15c-.3-.49.36-2.14.63-2.68.22-.43.77-.43.82-.68.08-.38-.31-.94-.17-1.26.36-.82,1.84-.23.72-1.99l1.72-.29-.57-.57.83-.13c-.45-1.67,1.49-2.2,1.18-3.89l1.43.29-.29-1.15,1.12-.03c-.07-1.26.75-1.36,1.28-1.98.13-.15-.1-.58.33-.83.72-.42,1.94-.28,2.69-.95-.5-2.03,2.04-.24,2.03-2.67.41-.37,1.32-.12,1.6-.22,1.03-.37,2.77-1.27,4.03-1.36,1.53-.11,3.5,1.33,5.16-.58.24.03.32.66.48.79ZM186.73,14.9c-.62-.33-1.58.51-1.86.49-.3-.02-.57-.8-1.14-.79-1,.01-1.87,1.74-2.97,1.09-.21-.12-.3-1.35-1.21-.36-.28.31-.18.85-.49,1.01-.43.23-1.27-.12-1.68.23-.49.44-.37,1.25-1.17,1.73-.45.27-3.12,1.02-3.28,1.18l.3.86c-1.41-.19-1.03.99-1.41,1.56-.19.28-.66.1-.82.22-.32.24-.07.84-.13.96-.09.19-.47.11-.5.15-.08.13.93,1.07.14,1.71l-1.3.3c.51.94-.54.66-1,1.15-1.09,1.17-.69,3.79-2.45,3.72l.86.71-.28.72-.86-.29c-.28.28-.44,2.22-.6,2.65-.09.24-.46.25-.55.46-.38.95.07,1.95-1.46,2.25l-.25,1.67.83.58c-1.09,1.51-1.73,2.67-1.71,4.6-1.21-.09-.51.59-.88,1.11-.29.41-1,.58-1.11.95-.27.98.73,2.71.73,3.12,0,.85-1.34,1.63-1.34,1.74,0,2.1.39,4.51-.29,6.51-.08.22-.54.22-.53.35l.29.98,1.11.32c-.98.09-1.62,2.18-1.44,2.97.04.17.92.21.58,1.2l-.87.14c0,1.12,1.06-.02,1.02,1.59-.04,1.25-.35,2.92-.71,4.32,1.3.34-.03,1.11.02,1.65.04.48.75.84.69,1.36l-.74.7c.99.23.25.39.31,1.11.11,1.21.92,2.27-.56,2.9.95,1.08.05,1.87.03,2.65,0,.28.54,1.23.68,1.8.21.91-.25,1.92.7,2.17-1.49,1.57.41,1.58.43,2.71,0,.39-.33.65-.35.97-.08,2.16-.33,3.07,1.07,4.87.33.42.78-.07.28,1.08h1.15s-.53.31-.53.31c.55.8-.24,1.56-.22,2.14.02.47.63.83.69,1.19.19,1.19-.76,2.09.07,4.5.17.49,1.49,2.93,1.6,3.35.12.47-.11,1,.02,1.38.23.68,1.95.77,1.24,2.08h1.16s.12,3.18.12,3.18l1.48.55c-.49,1.39.24.98.49,1.52.33.72.4,2.23.55,2.46.35.56,2.12.29,2.4.92l-.44,1.15c1.92-.54,1.37.31,1.92.88.36.38,2.26.98,2.77.85.29-.07.33-.51.48-.73l.44-.14c.79,1.91,2.61.37,4.03,1.73l.57-.59c1.7,1.41,1.34.53,2.66.08.25-.08.64.14.79.08.54-.19.71-.79,1.58-.57l.29-.73-.57-.29c.86-.11,1.54-.6,2.15.28l.15-.85c.49,0,.98.03,1.45-.13.15-.05,2.69-1.52,2.8-1.64.05-.05-.21-.74.11-1.05s.99-.02,1.37-.2c.95-.47,2.08-1.92,1.46-3.01,1.25.39,1.33-.62,2.3-.58l-.55-1.69c.74-.18,1.25-.41,1.63-1.1.96-1.74.66-2.64.98-3.97.04-.17.51-.12.53-.31.04-.4-.38-.89-.27-1.35.1-.4.71-.66.91-1.06.3-.61,1.04-3.5,1.23-3.75.36-.46.98.1.37-1.49-.12-.3-.67-.21-.44-.96,1.76-.67.75-1.06.94-2.39.12-.78.75-1.42.83-2.02.09-.69-.69-1.13-.69-1.33,0-.22.7-.52.74-.86.01-.11-.74-1.58-.69-2.02.06-.53,1.05-.61,1.07-.88.01-.23-.29-.68-.28-1.13.04-1.9.09-4.25.34-5.96.06-.45.26-.85.5-1.22l-1.43-.43,1.05-2.78c-.28-1.48.91-3.21.34-4.8-.14-.4-.73-.35-.82-.66-.09-.32.9-2.86,1.14-3.4l-1.14-.43c.27-.77.83-1.98.85-2.77.01-.57-.45-1.02-.5-1.75-.18-2.57.36-3.49-.16-6.47-.42-2.34-.47-4.88-.73-7.29-.2-1.86-.33-3.72-.61-5.57l-1.15.29c-.27-1.54.84-1.32.55-3-.21-1.19-1.18-1.76-1.36-2.38-.27-.93-.09-2.55-.42-3.61-.37-1.17-.65-1.06-.91-2.61-.42-2.51-.73-1.75-1.82-3.55-.16-.27-.11-.8-.29-1.16-.39-.78-1.32-.96-.67-2.06-1.82-.27-1.61-1.29-2.26-2.18-.53-.72-1.52-2.21-2.31-1.59.54-1.72-.61-2.93-2.3-2.58l.28-.86c-.7.43-1.22-.21-1.63-.23-.44-.02-.78.68-1.37.25l-.18-.86Z"/>
  <path d="M236.17,11.43l.72-.85.72,1.43,1.14-.57c.6,1.17.03,1.79.32,3.28.34,1.69.69,3.53.42,5.34-.08.56-.63.99-.63,1.59,0,.46.46.92.38,1.38-.04.25-.45.51-.48.91-.08.87.82,1.06.82,1.14-.08,1.39-1.05.96-1.12,1.02-.42.4.91,1.6.86,2.15l-.87.15c-.29.87.44.76.54,1.05.32.87-.11,2.28-.11,3.13,0,.79.94,1.45-.43,2.28l.58.29-.58.86.58.32c.32,1.08-.61.85-.58,1.36.06,1.07.74,1.59.77,1.69.05.16-.1.47-.06.8.11.81.87,1.53-1,1.15.54,1.55.95,4.01.78,5.65-.07.61-1.33,2.61-1.23,3.68.05.57.94,3.15.9,3.74-.06.79-1.3,1.76.41,1.59-.21.81-.29,1.51-1.15,1.86v.42s.55.13.55.13c-1.01,1.24.33,2.32.35,2.6.05.98-.41,1.18-.89,1.87l1.15.44-.17.72-.99.14.6.33c.12.59-.71,1.79.55,1.83l-.52.32c.64,1.19-1.84,1.78.25,2.13.38,1.35-.74,1.27-.75,1.99,0,.65.65,2.44.64,2.6-.01.41-1.05.66.01.77l.11.35c-.13.71.12,1.62-.03,2.27-.03.11-1.52.85,0,1.48-.97,1.33-1.74,3.14.28,3.74-.87.74-1.76,2.76,0,2.44l-.85,2.16,1.14.45-.82,2.82.75.44-.21,1.61.57-.29c.51,1.09-.91,2.16.59,2.73l-.58,1.29h.87c.08.69-.84,1.2-.84,1.28.01.15.29,1.75.34,1.83.1.14.52.11.67.47.37.9-.84,1.66-.75,2.02.06.22.69.25.92.85.33.88-.59,1.62-.36,2.54.09.37,1.06.23.89,1.2l-.87.72.54.14-.24.69,1.09.75c-1.28,1.09.72,2.17.36,3.57l.83.03c-.84,1.44.3,1.68.56,2.24.87,1.84.97,1.55,1.76,2.77.27.42.17.94.36,1.22.47.69,2.93,2.29,3.75,2.12.33-.07-.02-.72.46-.59l.16.87c1.48-.5,2.6.78,3.81,1.37,1.41.68,4.02.23,5.97,1.19l.3-.58c1.46.92,2.59-.49,2.9-.56.5-.11,1.29.42,2.02.1.43-.19,1.57-1.22,2.17-1.61,1.11-.73,2.14-.38,2.26-2.19l1.12-.04-.29-.57h1.72c.12-.48-.4-.2-.5-.34-.35-.48.49-1.62,1.36-.81-.37-1.17.47-1.1.68-1.44.09-.15-.06-.42,0-.5.34-.41,1.68-1.09,1.32-1.51l-.57-.28.52-.14c-.53-.91.45-.85.86-1.5.8-1.29.73-2.74,1.47-4.02.06-.61-1.03-.56-1.05-1.43,0-.38.35-.65.39-.96.12-.88.1-1.98.3-2.9.13-.6.61-1.21.69-1.87l-.86-.83c2.09-1.31,1.03-3.09,1.24-4.85.09-.73.71-1.43.77-1.77.02-.14-.46-.09-.56-.35-.05-.11-.27-1.84-.25-1.94.04-.19.48-.14.6-.5.19-.57.82-2.53.68-2.96-.15-.45-.81-.31-.76-.56.14-.66,2.35-1.83.86-2.3l.86-1.16-.59-.3c.67-1.04-.05-1.71-.17-2.62-.03-.23.23-.64.2-.67-.19-.13-.96.28-.86-.29.18,0,.39.06.5-.14.75-1.44,1.25-3.02,1.15-4.66-.02-.38-.48-.71-.45-1.05.03-.4.58-.76.67-1.21s.38-3.56.35-3.75c-.02-.12-1.35-1.07-1.28-1.99l1.1-.88c-.3-.84-.59-1.64-.59-2.55,0-1.8.82-4.8.74-6.32-.04-.92-1.39-1.44-.19-2.3l-.28-.29c-.69.27-.68-.19-.85-.83l1.14-.46-.86-1,.57-.28-.88-1.15.9-.9c-.75-1.62.29-2.9.23-4.53-.03-.73-.62-1.44-.26-2.17h-.87s.87-2.45.87-2.45l-.86-.58c1.23-1.16.52-1.42.41-2.42-.05-.42.68-1.05.44-2.13-.05-.21-.48-.16-.52-.33-.03-.16.02-3.01.07-3.16.48-1.51,2.21-1.87.45-3.87,2.1-.62.5-1.91.36-2.78-.11-.67.72-.74-.64-1.41-.2-.82.8-.94.84-1,.08-.14-.41-.58-.44-.97-.05-.67.45-1.59.46-2.31l-.86-.43c1.24-.05.75-1.94.97-2.68.29-.99,1.56-1.85,1.33-3.07.54-.21,1.01.46,1.3.46.17,0,.4-.35.56-.34.09,0,1.76.44,1.83.5.13.12.02.76.32.99l1.09.26v2.11s-.79.05-.79.05c.39.93.34,2.52.19,3.55-.06.4-.48.86-.47.91.02.24.73.34.8.47.06.11-.31.51-.1.82.13.19.52.16.67.43.09.16.09,1.51.35,1.86-.57.02-1.02-.22-.87.58l.86.28-.53.14.24,1.01-.86-.28.86,2.15-1.15.15c-.04.79.81,1.91-.29,2.15,1.08.72.13,1.15.05,1.8-.13,1.02-.02.87-.34,1.94-.02.07.9.27.5,1.11-.19.4-.61.36-.74.53-.05.07-.09,1.68-.07,1.8.15,1.14,1.28,1.75.02,3.02l1.15.44c-.01.91-.84.91-.84,2.04,0,.75.51,1.12.53,1.67.04,1.24-.09,3.1-.12,4.44-.01.63.74,1.07-.13,1.61l1.43.43c-.04,1.28-1.7,1.18-1.73,1.29-.18.93,1.37.37,1.44.43-.24,1.56-.13,3.31-1.43,4.45l1.41,1.03c.05.1-.81,1.81-.83,2.14-.06,1.08.89,1.81-.03,2.86l.59.28-1.15,1.45.85.57c-1.11,1.12.42,2.96.21,3.89-.06.25-1.27,2.38-1.05,2.58l1.14.28-.5.14-.94,2.58c1.55.07.79,1.5-.28,1.31,1.65.9.36,2.19.6,3.55.03.19.43.2.44.25.03.14-.28,2.21-.33,2.56-.13.8-1.88,2.71-.42,3.27-.08.44-1.09,2.21-1.12,2.34-.02.12.59,1.59.45,2.27l-1.35.42c-.04.67.61.78.57,1.54-.02.47-.39.97-.45,1.47-.09.72.48,1.43-.41,2.01l1.14.57c-1.26.86-.36,1.43-.37,1.73s-1.64,1.58-1.36,2.81c.09.39,1.85.75.58,1.93l.57.14c-.84.74-.2,2.01-.47,2.66-.31.77-.37-.01-.74,1.64-.07.32-.6.33-.81.68-.59,1,.69,2.83-.86,2.94.5.58.24,1.42,1.15,1.44v.28c-.41-.08-.9.51-.97.85-.27,1.32.8,1.39-1.55,2.08-.08.87.13.58.51,1.1l-1.88.57c.14.96-1.64,3.39-2.55,4.06-.69.51-1.6-.12-1.6,1.41l-1.14-.57-.59,1.59c-.72.02-1.69.16-2.28.58-.47.34-.63,1-.87,1.14s-.66-.21-.82-.11c-.14.09-.18.73-.63.97-.64.33-2.61.48-3.28.98-.27.21-.1.64-.24.8-.6.73-2.94-.34-3.81-.36-.15,0-2.73.18-2.88.21-.11.02-.17.92-1.66.46-.34-.11-.55-.53-.78-.6-.72-.24-2.38-.24-2.3-1.05l-.29.57-.29-.57-1.36.39c-.48-.18-.51-.82-.93-1.08-.59-.37-2.49.33-2.32-.74-.48-.13-.19.43-.32.52-.92.65-1-.83-1.19-1.02-.55-.56-4.25-1.26-3.95-2.95l-1.14.86c-.17-.8-.73-1.29-.32-2.14l-.83-.16c.4-1.2-.38-1.3-.55-1.66-.46-.92.13-1.49-1.17-.93.07-.37-.06-1.46-.18-1.73-.07-.16-.5-.1-.72-.71-.34-.97.42-1.77-.55-2.03l.3-.99-.86-.15.24-1.12c-1.3-.68-1.29-2.32-1.11-3.62l-.57.29c.14-.54-.39-1.08-.44-1.43-.06-.4.48-.69.45-1.28-.03-.63-.62-.97-.73-1.46-.09-.4.22-1.62.12-1.96-.87-2.91-1.25-5.39-1.27-8.68,0-.32.39-.65.37-1.08-.08-1.64-1.9-2.13-.5-3.78-1.24-.47.62-2.14-1.73-1.87-.13-.46.43-.21.48-.33.09-.19.05-1.16.38-1.53l-.87-.15.58-.43-.58-.29,1.15-.73-.2-.57-.94-.43c1.32-1.08.68-2.19,1.44-3.46v-.26c-.39-.04-1.04-2.37-1.05-2.89,0-.89.56-2.26,1.04-3.01h-.87s.3-.7.3-.7c-1.3-.4.05-2.46,0-3.45-.01-.21-.68.04-.6-.87.06-.67.89-2.02.83-2.55-.05-.41-1.12-2.68-1.38-3.21.81-.19,1.54-3.34,1.42-4.01-.07-.39-.26-.64-.56-.88l.86-.71-1.15-.14c.93-1.46,1.78-3.51.35-4.89l.81-1.15c-1.41-1.14-.04-2.64-.08-3.69-.04-.86-1.18-.51-.5-1.91h-.87c.3-.62.62-1.61,1.44-1.15v-1.15s-1.14-.28-1.14-.28c.42.15,1.44-1.7,1.45-1.89.06-.75-1.32-3.35-.8-4.09.08-.12.47-.03.49-.06.07-.09-1.21-1.15,0-2l-1.14-.43,1.14-2.3-.86-.57c.91-.27.68-1.45.89-2.26l-1.17-.48c.57-.69.36-1.75.58-2.36.11-.32,1.63-.95.28-1.51l.6-1.42-.6-.31c.63-.32,1-3.44.86-3.59l-1.15.29-.29-.73c.4-.19,1.51-1.78,1.58-2.11.14-.62-.39-1.55.44-2.34-2.14-.03-.19-1.03.03-1.36.17-.26-.02-.67.16-.94.51-.78,1.73-.6.97-2.01l1.01.26.14,1.47Z"/>
  <path d="M357.92,12.47c.12-.07-.03-.49.49-.45.66.04,2.5.79,2.63.78.25-.02.49-.55.86-.67,1.05-.33,3.69.32,5.09.12.25-.04.5-.43.72-.47.13-.02,2.07.64,2.38.81l.29-.57c.15.77,1.28,1.41,1.99,1.75l-.57,4.54c-.95-.12-2.15.22-2.99.18-.27-.02-.61-.5-1.14-.46-.64.04-.58.67-.93.91-.56.38-.77-.13-1.07-.15-.8-.05-1.74.64-1.89-.73-.68.69-1.07.32-1.81.38-.3.02-.64.38-.91.37-.36,0-1.73-.86-2.44-.76l-.15,1.15-1.73-1.15-.3.59c-1.04-.52-1.62-.35-2.29.56l-.3-.6c-.79.26-1.37.68-2.2.29-.3-.14-.18-.83-1.2-.56-.2.05-.18.57-.34.59-.64.07-1.24-.82-2.28-.61-.24.05.28,1.07-1.47,1.13-1.47.05-2.67-1.64-3.42-.26-1.58-1.48-2.41-.3-4.12-.07-1.01.14-2.03-.45-2.83.45-1.23,1.37.03,1.58.09,2.06.05.41-.59,1.97-.41,2.6.06.2.5.02.54.57.07.91-.5.65-.58.91-.51,1.71.91,5.51.79,6.22-.04.24-.48.51-.53.93-.08.65.72.89-.28,1.13l.86.87-.14.44c-1.41.21-.25,1.86-.27,2.43s-.63,1.71-.46,2.52c.04.19,1.31.85,1.34,1.5.01.32-.49.9-.56,1.35-.1.6-.04,2.19-.25,2.68-.07.16-.94.13-.5.7.02.03.41-.08.56.22.27.58-.07,1.74.58,2.37-2-.6-1.21,5-.9,5.34.39.41,1.17.32,1.19.56l-1.44,1.15,1.15.72-.57.29c.51.59.67,1.55.45,2.31-.18.63-.8.46-.77.98.04.82.68,1.14.77,1.56.11.52-.74,1.02.13,1.89-.72-.06-1.18,2.93-1.09,3.17.62,1.61.17.98.24,2.54.03.69.81,2.73.78,3.15-.03.47-.45.91-.46,1.48-.03,1.2.9,2.17-.33,3.47l.57.42-.57.29.86.15c-1.38,1.1-.41,1.81-.09,2.93.12.43-.63.86.35,1.07,0,1.28-1.1,1.63-1.11,1.74-.01.13.8,1.1.77,1.45-.02.28-.85.77-.95,1.27-.06.3.33.51.32.73s-.35.41-.32.74c.06.54.68.53.69.69.03.65-.62,2.13.34,2.3l-1.15,1.73.86.58c.08.33-1.26,1.65-.58,2.81.23.4.93-.06.27,1.47l.62.34-.61,1.68.88.59v.58c-.53-.02-.87,3.08-.8,3.45.03.13.74.05.21,1.64-.08.25-.48.21-.54.41-.11.38.98,3.09.05,3.99l1.04.45.04.94-.86.17c-.29.87.43.76.54,1.05.56,1.51-.56,2.41-.73,3.65-.02.17.11,2.66.22,2.74.45.32,1.09-.19,1.12,1.18l-1.37.43c.29.77.41.89-.38,1.17-.09,1.2,1.18,1.88,1.18,2,0,.11-.68,2.04-.74,2.14-.32.56-1.85,1.92-2.43.87.11.82.34,1.43-.43,2.01-.47-1.33-1.81-2.03-3.01-1.14l.27-2.75-.56-.26c.55-.57,1.24-2.16.27-2.34.12-2.24.22-4.43.01-6.6-.1-1.06,1.02-2.07-.57-1.85.18-.76.5-1.65-.57-1.73l1.72-2.72c-1.78-.77-.6-1.6-.59-2.29,0-.43-.75-2.18-.73-2.58.02-.44,1.08-2.27,1.04-2.88l-.87-.15c.23-.87.58-1.85.73-2.72.13-.79.39-2.31-.73-1.88l.58-1.29-.6-.3c-.05-.64.53-1.09.56-1.69.03-.68-.56-1.7-.51-2.33.15-1.97,1.21-3.57.24-5.95-.11-.28-.58-.21-.55-.35.05-.23.55-.59.58-1.18.04-.69-.69-1.69-.59-2.52l1.16-.49c-.29-.79-.87-2.24-.83-3.03.03-.53.48-.88.5-1.41.02-.61-.49-1.54-.23-2.3l-.89-.3.52-.27c-.3-1.35.91-2.66.63-3.99-.06-.27-.84-.05-.54-.86.14-.39.73-.64.78-.95.07-.38-.39-.71-.41-1.11-.02-.29.7-2.45.45-2.73l-1.15.29c-.64-1.78.69-1.29.86-1.44.11-.1-.51-1.82-.52-2.24-.06-1.86.88-4.26.95-5.94.02-.49-.48-2.88-.37-2.99l.52-.18-.52-.19c.62-1.15-.37-1.44-.39-1.82-.05-.94.81-1.48.57-2.24-.15-.48-1.1-1.89-1.69-1.79l.58-.29-.58-.29,1.41-1.05-.52-2.1.86-.62c-.69-.8-.21-2-.33-2.52-.05-.22-.48-.18-.5-.32-.07-.41.28-2.06.23-2.16l-.85-.14c.5-1.11,1.51-3.01.86-4.23-.15-.28-1.56-.86-.49-1.6.63-.44.79.46.77-1.49-2.35-.31-.46-1.29-.34-1.59.05-.12.01-2.27-.02-2.64-.07-.7-.6-1.49-.52-2.55.04-.53,1.18-.52.33-1.74l.55-.55c-1.13-.67-.59-1.75-1.88-1.84-.12,0-.1.44-.35.52-.22.07-3.24.53-3.43.53-.8,0-1.7-1.43-2.39.64h-.28c-.07-.99-2.86-1.72-3.02-.57-.93-1.07-1.48-.07-2.29-.04-.59.03-3.7-.22-4.53-.31-.5-.05-1.09-.54-1.5-.53-.11,0-.5.91-1.75,1.19-2.01.44-1.74-.65-2.43-.8-.53-.12-2.68.91-3.49.94-.72-1.11-2.14-.74-2.85-1.17-.4-.25-.41-.98-.72-1.28-.54-.52-1.29-.15-1.29-1.44h1.16c-.43-1.16.56-1.22,1.11-1.62.24-.17.29-.58.38-.64.41-.25,2.26.85,2.24-1.2.5.01,1.33,1.06,1.57,1.07.26.01.68-.51,1.15-.49.33.01,1.26.66,1.86.56l-.57-1.15c.49.07,1.02-.21,1.47-.14,1.24.21,2.7,2.23,3.27.42l2.16.86v-1.44c.14-.18,1.39,1.03,1.65,1.1.75.21,1.3-.27,1.93-.23,1.44.08,2.89.34,4.58-.03.8-.17,1.71-1.1,2.68-.63.47.22,1.28,1.66,1.65.37l1.15.59.29-.6,1,.58c.7-1.96,1.54-.45,2.47-.29.11.02,2.12.01,2.26-.01.67-.11.92-.77,1.16-.79s.69.52,1.14.53c.16,0,.12-.43.3-.51,2.08-.83,1.42.52,3.33.92.25.05,3.36-.12,3.52-.18.41-.15.4-.71.51-.77.15-.09,3.35.25,3.56.29.2.04.03.73.86.52.12-.03.13-.5.28-.54.35-.1,2.63.33,3.42-.35l.46.6.44-1.15c.6-.14.63.88,1.14,1.03.56.17,3.82.01,4.36-.29Z"/>
  <path class="cls-1" d="M186.73,14.9l.18.86c.59.43.92-.27,1.37-.25.4.02.92.66,1.63.23l-.28.86c1.69-.35,2.84.87,2.3,2.58.79-.62,1.77.87,2.31,1.59.65.88.44,1.9,2.26,2.18-.65,1.1.28,1.28.67,2.06.18.36.13.89.29,1.16,1.09,1.8,1.4,1.05,1.82,3.55.26,1.55.55,1.43.91,2.61.33,1.06.15,2.67.42,3.61.18.62,1.15,1.19,1.36,2.38.29,1.68-.82,1.45-.55,3l1.15-.29c.27,1.85.41,3.71.61,5.57.26,2.42.32,4.95.73,7.29.53,2.97-.02,3.9.16,6.47.05.73.51,1.18.5,1.75-.02.79-.59,1.99-.85,2.77l1.14.43c-.24.54-1.23,3.08-1.14,3.4.09.3.67.26.82.66.56,1.58-.62,3.32-.34,4.8l-1.05,2.78,1.43.43c-.24.37-.44.77-.5,1.22-.24,1.71-.3,4.06-.34,5.96,0,.45.29.9.28,1.13-.01.27-1.01.35-1.07.88-.05.43.7,1.91.69,2.02-.04.34-.73.64-.74.86,0,.2.78.64.69,1.33-.08.6-.72,1.24-.83,2.02-.2,1.32.82,1.72-.94,2.39-.23.75.32.66.44.96.61,1.59-.01,1.02-.37,1.49-.19.25-.93,3.14-1.23,3.75-.2.4-.81.66-.91,1.06-.11.46.31.95.27,1.35-.02.19-.49.14-.53.31-.32,1.33-.02,2.22-.98,3.97-.38.69-.89.92-1.63,1.1l.55,1.69c-.97-.04-1.05.97-2.3.58.63,1.08-.51,2.54-1.46,3.01-.38.18-1.05-.12-1.37.2s-.06,1-.11,1.05c-.11.12-2.65,1.59-2.8,1.64-.47.16-.97.13-1.45.13l-.15.85c-.62-.88-1.29-.39-2.15-.28l.57.29-.29.73c-.86-.22-1.04.38-1.58.57-.15.05-.54-.17-.79-.08-1.32.44-.96,1.33-2.66-.08l-.57.59c-1.43-1.35-3.25.18-4.03-1.73l-.44.14c-.15.22-.19.65-.48.73-.51.13-2.4-.47-2.77-.85-.55-.57,0-1.42-1.92-.88l.44-1.15c-.27-.63-2.04-.36-2.4-.92-.14-.23-.22-1.74-.55-2.46-.25-.54-.98-.13-.49-1.52l-1.48-.55-.12-3.18h-1.16c.71-1.31-1.01-1.4-1.24-2.08-.13-.37.1-.9-.02-1.38-.11-.41-1.44-2.86-1.6-3.35-.83-2.4.12-3.31-.07-4.5-.06-.37-.67-.72-.69-1.19-.02-.57.78-1.33.22-2.14l.53-.31h-1.15c.5-1.15.05-.66-.28-1.08-1.41-1.8-1.15-2.72-1.07-4.87.01-.32.35-.58.35-.97-.02-1.12-1.92-1.13-.43-2.71-.95-.25-.49-1.26-.7-2.17-.13-.56-.68-1.52-.68-1.8.02-.78.93-1.57-.03-2.65,1.49-.63.67-1.69.56-2.9-.07-.72.68-.88-.31-1.11l.74-.7c.06-.52-.65-.87-.69-1.36-.05-.54,1.28-1.31-.02-1.65.35-1.4.67-3.07.71-4.32.05-1.61-1.02-.47-1.02-1.59l.87-.14c.34-.99-.54-1.03-.58-1.2-.18-.78.45-2.88,1.44-2.97l-1.11-.32-.29-.98c0-.13.46-.13.53-.35.68-2,.29-4.41.29-6.51,0-.11,1.34-.9,1.34-1.74,0-.41-1.01-2.15-.73-3.12.1-.37.81-.53,1.11-.95.37-.52-.32-1.21.88-1.11-.02-1.92.63-3.08,1.71-4.6l-.83-.58.25-1.67c1.53-.3,1.07-1.3,1.46-2.25.08-.21.46-.22.55-.46.16-.43.32-2.37.6-2.65l.86.29.28-.72-.86-.71c1.76.07,1.37-2.56,2.45-3.72.46-.49,1.51-.21,1-1.15l1.3-.3c.79-.65-.22-1.59-.14-1.71.03-.04.41.04.5-.15.06-.13-.19-.72.13-.96.16-.12.63.05.82-.22.39-.56,0-1.75,1.41-1.56l-.3-.86c.16-.17,2.83-.92,3.28-1.18.8-.47.68-1.29,1.17-1.73.4-.36,1.25,0,1.68-.23.31-.17.21-.71.49-1.01.9-1,1,.23,1.21.36,1.11.65,1.98-1.07,2.97-1.09.57,0,.84.77,1.14.79.28.02,1.24-.82,1.86-.49Z"/>
</svg>