<?xml version="1.0" encoding="UTF-8"?><svg id="Layer_2" xmlns="http://www.w3.org/2000/svg" viewBox="0 0 289.48 107.99"><defs><style>.cls-1{fill:#fff;}</style></defs><g id="aburi_nigiri"><path d="M25.7,53.21l.3-.25c.2.17.62.2.78.31.3.21.14.6.86.3l-.09.22.2.07c-.1.55-.13.5-.59.74l.47.24c-.01.5-.52.73-.59,1.23-.06.42.15.73.12,1.07-.05.47-.39.71,0,1.33-.92.35.12,1.19-.72,1.41l.36.3v.24c-.45.1-.11.34-.16.59-.06.34-.31.79-.33,1.12,0,.16.39.21.16.62-.13.23-.36.06-.28.39l.36.18c-.03.43-.56.59-.48.67l.36.18c0,.07-.39.5-.43.66-.13.52-.31,1.95-.18,2.49.06.23.22.17.23.24.07.58-.45,1.71-.34,2.42l.37.06c.08.06-.42.55-.44.66-.05.35.28.75.29.96,0,.34-.32.3-.34.32-.04.06.23.24.25.43.03.28-.22.48-.24.73-.02.28.22.63.18.85-.02.12-.19.22-.19.24,0,.1.29.12.34.24.08.18-.26.59-.3.75-.05.21-.22,1.08-.23,1.24-.01.31.32.64.3.92-.02.35-.08.63-.1,1.09-.03.59-.28,1.68-.43,2.36-.25,1.08-.69.78-1.05,1.26-.11.15.07.36-.1.49-.04.03-.66.28-.69.29-.21.02-.29-.29-.52-.22l-.07.37c-.72.15-1.64-.55-2.24,0-.21-.25-.29-.89-.4-1.06-.12-.2-.73-.22-.45-.76l-.48.24c-.21-.4.05-.73-.03-1.11-.12-.55-.62-.59-.68-1.37-.02-.37.34-.46-.27-.73l.36-.36c-.16-.07-.28-.64-.31-.67-.14-.13-.34-.08-.43-.2-.16-.22.29-.83-.47-.77.32-.62.43-1.59-.11-2.1-.14-.13-.35-.03-.38-.15-.12-.42.26-1,.24-1.33,0-.04-.14-.67-.15-.7-.08-.26-.63-.77-.71-.97-.09-.24-.16-.72-.21-1-.16-.87-.3-2.21-.64-3.24-.06-.19-.34-.2-.41-.32-.05-.08-.26-.78-.18-.85h-.36c.1-.5-.07-1.03-.11-1.52-.01-.16.11-.36.09-.47-.03-.13-.26-.14-.34-.28-.14-.26-.1-.7-.13-.99h-.35c.22-.31.2-.5.12-.86l-.24.12c-.09-.42-.29-.65-.13-1.09l-.36.12-.14-1.32-.34-.02c.05-.5-.18-1.11-.12-1.69l-.36.12-.12-.97-.22.1-.32-.46c-.33.42-.87.53-1.06,1.01-.09.24-.25,1.01-.23,1.24.03.24.27.16.26.23-.07.39-.53.36-.67.54-.15.19,0,1.18-.31,1.16.5.44-.21,1.32-.2,1.58,0,.11.25.22.2.3-.01.02-.3-.06-.33.32.02.6.66.32.32,1.04-.24.5-.14,1.07-.48,1.37.18.27.28.74.21,1.05-.08.38-.73,1.05-.21,1.12-.33.45.16.97-.26,1.58.54.4-.08.76-.1.87-.07.31.02,1.08-.09,1.34-.07.16-.27.14-.28.23-.03.27.26.7.24.96-.01.19-.23.31-.23.48,0,.23.49.47-.12.73l.25.14c-.18.36.03.78,0,1.07-.03.17-.2.29-.21.41-.05.36-.07.8.31.93l-.46,1.34.36.19-.24.12c.57.68-.38,1.03-.58,1.66s.37.51.21.75c-.02.03-.33.03-.42.37-.07.25.08.48,0,.6-.18.29-.64.12-.31.97-.56-.24-.84.09-1.11.6l-.47-.11c.34-.48-.55-.8-.97-.85l.49-1.87c-.07-.24-.45.07-.37-.25s.37-.38.45-.62c.13-.41-.3-1.31.04-1.79l-.25-.19c.59,0,.34-1.15.38-1.26.07-.17.27-.16.32-.22.03-.04.04-.94.03-.99-.02-.1-.34-.07-.25-.26.55-.63.19-.54.16-.95-.04-.51.27-1.45.19-1.85-.02-.08-.31-.01-.22-.36.02-.07.34,0,.24-.24l-.36-.3c.44.03.5-.86.12-.91l.36-.91-.24-.06c.32-.14.56-1.11.49-1.44-.02-.1-.38.03-.11-.59.25-.57.08-.26.12-.86.02-.35.45-1.51.44-1.59-.02-.16-.4-.26-.32-.58.08-.29.68-.25.48-.81l-.48-.06c-.02-.43.35-.59.36-.63.04-.21-.11-.57-.06-.82s.4-.24-.06-.36l.67-1.14c.06-.42-.35-.31-.29-.54.08-.34.38-.38.44-.47.19-.31-.06-1.19.52-1.49l-.36-.24c.1-.25.53-.26.61-.38.26-.37.4-1.93.84-2.17.11-.06.3.05.37,0,.12-.09.12-.37.23-.5.03-.03.64-.51.68-.52.13-.03.31.12.46.11.07,0,.08-.18.17-.24.46-.25.49.15.69.18.11.02.31-.1.47-.07.2.04.99.25,1.1.36.38.37.11.83.68.65-.05.48.79,1.02.84,1.25.1.47-.11,1.23.73,1-.05.21-.1.62-.04.82.08.26.53.36.6.43.42.41.14,1.16.21,1.69.01.11.16.24.19.4.1.59-.09,1.45.72,1.52.06.19-.2.62-.2.66,0,.11.23.19.27.29.09.2-.27.44.19.56l-.13.41.36-.24c.31.39-.15.92-.12.97.01.02.24-.06.31.24.05.22-.04.41-.02.62.06.46.08,1.03.55.72-.28.66.02,1.03.45,1.51l-.33.31v.23c.43.03.17.82.43,1.21s.92.21.56,1.04l.21.1-.22.78.32.19c-.22.34.06.57.09.79.05.39-.18,1.32.4,1.24-.08.41.24.6.29.75.16.53-.03,1,.1,1.53l.24-.12c-.05.67.07,1.22.26,1.84.03.09.21.09.23.18.05.26.05.92.16,1.17.04.09.55.57.55.61,0,.43-.34.89.5.91.04-.25.07-.51.36-.49l-.24-.18.37-.73c-.49-.09-.07-1,.08-1.36.06-.14.22-.14.27-.25.37-.75-.18-.85-.21-1.2-.02-.21.24-.4.2-.57-.02-.1-.2-.2-.26-.33-.09-.19-.25-.86-.18-1.11.07-.23.35-.43.4-.58.04-.13-.14-.22-.13-.37.04-.39.42-.35-.14-.65l.22-.85-.24-.12.12-.36-.25-.13c.15-.38.18-.53.6-.61-.3-.25-.15-.93-.27-1.13-.04-.07-.33-.11-.34-.21,0-.17,1.03-.72.12-1.21l.73-.74c.12-.5-.38-.51-.38-.59,0-.23.42-.62.47-.99.01-.12.04-.94.03-1.05-.08-1.04-.13-3.27.26-4.21.04-.09.19-.09.21-.18.16-.53-.22-.69-.23-.73-.02-.1.14-1.09.18-1.31.04-.25.4-.25-.05-.35.14-.24.1-.52.19-.77.04-.11.39-.21.27-.55-.05-.15-.42.06,0-.56h-.37s.52-2.15.52-2.15c.22-.28.98-.12.94-.51l.12.24Z"/><path d="M33.18,8.96s0-.32.44-.21c.08.02.06.34.38.18.37-.18.56-.66.67.18.17-.17.57-.28.79-.19s.94,1.2,1.27.31h.12c.16.65.78.64,1.15.86.19.12.86.83,1.07.92.24.1.74.03.94.22.18.16.07.42.14.53.06.1.38.01.47.09.18.15,0,.45.48.17.32.69.58,1.38.86,2.09.44,1.12,1,2.12.98,3.19,0,.03.46.44.46.48-.03.28-.44.76-.46.87-.02.15.18.26.19.34,0,.11-.24.27-.27.42-.02.07.06.97-.03,1.28-.06.21-.25.18-.25.25,0,.09.1.22.08.33-.07.34-.95.94-1.29,1.18l.3.48-.67.24.11.22c-.32,0-.55.44-.67.5-.3.16-.81.19-1.11.44-.37.31-.48.96-.52,1-.12.1-.58.13-.7.32.07.16.89.44,1.09.49.53.14,1.33.16,1.86.54.27.19.09.56.68.23-.09.49.45.47.49.85l.12-.24c.35.15.44.4.24.72.39.1,1.14.53,1.09.97l.24-.12-.11.47c.49.08.41.45.59.81l.36-.07c.13.09.03,1.08.16,1.31.03.06.28.07.32.22.05.17-.15.41-.09.68.11.5,1.19,1.47.22,1.79.11.24.31.47.25.76-.01.05-.46.18-.23.85.09.27.56,0,.15.67-.2.33-.28.38-.37.89-.07.36.1.83-.28,1.24l.03.17.22.13c-.5-.11-.4.35-.6.64-.09.13-.31.17-.4.36s.03.4.02.43c-.03.05-.68.38-.83.38l.24.36c-.42.2-.96.38-1.35.62-.19.12-.38.47-.51.55-.78.49-1.86.39-2.55.85-.6.39-1.3.44-2.01.53v.49s-.47-.02-.47-.02l-.07-.35-.61.37c-.13-.43-.76-.09-1.15-.25l-.06.36c-.56-.6-1.43-.72-2.15-1-.29-.11-.44-.47-.93-.34v-.35c-.31.21-.54.68-.74,1.03-.07.11,0,.27-.02.28-.42.44-1.39-.21-1.89-.24.13-.79-.73-1.61-.26-2.22l-.24-.11c.14-.3.06-.52.48-.43l-.06-.24-.42.12.48-1.45c-.79.09-.09-.6-.05-.85.02-.14-.15-.23-.14-.31,0-.14.27-.21.2-.42l-.24.12c-.17-.16.46-1.69.36-2.23-.06-.36-.48-.45,0-.92l-.36-.06c.04-.23.46-.42.49-.51.08-.3-.08-.68-.06-.95.01-.14.26-.32.18-.54-.84.07.1-.28,0-.78-.15-.74-.04-.49-.04-1.11s.04-.7.12-1.33c.05-.38-.11-.8.16-1.25l-.48-.19.36-.91-.24.12c-.1-.67.71-.62.4-1.42-.06-.16-.26-.13-.26-.21-.07-.69.36-1.13.36-1.58,0-.4-.29-.59-.27-.97,0-.22.24-.16.26-.26.03-.15.09-1.17.11-1.45.03-.39-.22-.83-.21-.93.03-.21.28-.36.31-.53.06-.35-.55-.79.15-1.19.06-.26-.24-.1-.26-.36-.02-.35.16-.68.13-1.03l-.36.12.05-.49.44-.18-.13-.9-.24.12c-.02-.33.29-.47.35-.8.01-.06.02-1.26,0-1.32-.08-.19-.58-.11-.27-.89.08-.2.43-.02.15-.65-.06-.14-.34-.08-.23-.5.02-.08.22-.07.24-.16.11-.45-.16-.62-.21-.93-.07-.42.32-.57.06-.94s.04-.56.39-.35v-.52c.05-.08.53-.26.67-.28.53-.07,2.02.45,2.34.28ZM35.16,11.78c-.07-.87-.99-.49-1.63-.52-.53-.03-.97-.38-1.52.06.26.4-.04.77-.03,1.14,0,.04.14.29.18.66.05.44.23.53-.06,1.03l.37.42c-.44-.07-.03.28-.12.65-.02.09-.21.06-.22.14-.05.39.1,1.76.22,2.15.03.1.23.1.23.15-.02.4-.47.57-.47.61s.37.39.35.73c-.01.22-.3.45-.32.74-.02.32.24.73-.03,1.08l.24.23c-.52.94-.43,1.37-.4,2.33.01.41-.06.97-.05,1.3,0,.15.21.34.21.61,0,.36-.27.51-.33.79-.12.56.44,1.46-.16,2.13.11,1.03.02,2.02-.25,3.02l.48.12c-.16.29-.05.51-.48.43l.25,1.38c-.66.33-.1.33-.14.59-.02.1-.21.21-.22.38-.01.19.17.38.18.54.01.12-.21.52-.19.73.89.04-.04.53-.11.63-.02.03.12.52.05.78-.15.55-.47.75-.1,1.48.08.16.28.15.28.21-.08.54-.31,1.28-.32,1.84,0,.27.17.61.33.83.22.07.41-.59.51-.64.46-.27.89.4,1.07.52.12.07.78.08.82.1.38.19.25.87,1.24.45v.36c.33-.21.61.05.98-.05.25-.07.23-.29.25-.3.07-.02.27.13.5.08.27-.06.72-.41.46-.71.31-.09.77.18,1.01.13.13-.03.12-.33.27-.36.13-.03.38.17.59.1.16-.05.17-.31.21-.34.11-.06.92.3,1.02-.25.83.34.65-.35.89-.66.08-.11.29-.08.42-.21.63-.62,1.13-1.25,1.25-2.1.02-.14-.07-.36-.07-.38.03-.11.28.03.23-.18l-.23-.06.08-.28-.21-.07c.13-.36.08-.43.48-.49v-.18s-.25-.08-.25-.08v-.33c.57-.27-.02-1.42-.07-1.71-.04-.21.18-.58.18-.74,0-.06-.19-.04-.22-.11-.02-.05.14-.38,0-.58-.11-.15-.34-.16-.43-.32-.07-.13.07-.53,0-.62-.12-.13-.4-.11-.49-.23-.11-.17.01-.54-.17-.68l-.37.07c-.1-.13,0-.56,0-.59-.15-.19-1.3-.56-1.56-.7-.11-.06-.35-.44-.53-.57-1.25-.87-4.03-.6-5.59-.82-.3-.04-.5-.3-.85-.13l-.2-.46-.48.24c.09-.38-.27-1.01.03-1.3.08-.08.28-.08.36-.15.23-.21.33-.56.7-.48l-.12-.24c.63-.13,1.05.24,1.7-.13l-.12-.24c.06-.08,1.15-.18,1.38-.35.15-.12-.07-.5.44-.38l-.24-.24c.28-.29.79-.12.82-.14.47-.27.81-1,1.05-1.2.27-.24,1.14-.28.8-.84.68.19.44-.41.76-.69.13-.12.38-.11.44-.17.04-.05.17-.94.29-1.23.08-.19.48-.28.34-.81l-.36-.12c1.14-.58-.04-.9-.11-1.18-.09-.34-.06-.89-.16-1.27-.06-.25-.31-.42-.34-.64-.03-.25.15-.51.11-.7-.04-.18-.73-.49-.59-1.05l-.22.1c-.17-.25-.87-1.06-1.08-1.2-.22-.15-1.05-.03-.88-.59l-.78.24-.18-.55-.96.06Z"/><path d="M140.37,11.06v.48s.48-.24.48-.24c.16.18-.03.7,0,.73.04.03.4-.08.55.12.1.13.09.55.19.76.02.04.45.6.47.66.05.14-.04.37.07.52l.43-.12c-.17.4.2.5.22.55.06.16-.23.57-.23.72,0,.07.2.07.24.16.15.38.13.78.33,1.21.17.36.55,1.26.6,1.8.03.31-.3.57.16.73.11.51-.47.55-.49.84,0,.03.38.12.24.42l.36-.12-.36.79.22.07-.1.27c.37.19.25.99-.25,1.11.29.24.19,1.36.28,1.48.61.79.09.88.26,1.48.09.31.61.51.07.9.4.09.05.34.24.66h-.37c.29.39.17.5,0,.9.29.23.45.27.48.67l-.36.06c.57.46.34.92.39,1.47.08.83-.07,1.15-.03,1.78.02.32.32,1.4.31,1.59-.02.3-.53.46-.19,1.06.12.21.43-.08,0,.45l.48-.12c.23.53-.34.71-.36.81-.03.1,0,1.05.03,1.19.01.07.18.05.2.15.09.39.2.88,0,1.24h.48c-.37.43-.78,1.22.12,1.09-.19.39-.12.76-.16,1.12,0,.09-.15.19-.16.28-.01.29.4.81.38.96-.03.22-.3.56-.26.86.02.13.22.21.26.35.08.29.13.66.19.97l-.44.19.07.72-1.21.37.12.24c-.81.28-.64-.8-1.21-.24-.05-.28-.32-.52-.6-.5-.04-.21.19-.61.18-.72-.03-.27-.44-.17-.19-.47h-.37c-.07-.41.47-.59.49-.69.09-.39-.1-1.35-.11-1.8,0-.27.08-.52.11-.78h-.37c.41-.58.03-.62.03-.66-.02-.12-.12-.94-.12-.98.03-.14.32-.12.33-.24.03-.28-.22-1.03-.12-1.38l-.36.12c-.09-.65.84-1.16-.24-1.33.27-.44-.2-.88.24-1.27-.57-.29-.13-.66-.07-.97.18-.88-.24-1.54-.6-2.24-.37.36-.88.02-.97.73-.07-.32-.21-.14-.3-.2-.15-.1-.42-.42-.61-.52.06.42-.41.12-.68.36l-.05.49-1.27-.44-.22.07c-.16.49-1.05-.13-1.49-.13-.23,0-.16.24-.23.24-.24-.01-1.49-.31-1.65-.23.3.52-.29.77-.7.99l.03.59.43.12c-.1.2-.1.51-.17.69-.01.03-.35.47-.38.54-.09.19-.35.69-.28.8l.59.32-.67.54c.13.65-.11,1.3-.25,1.94-.03.13-.06.56-.08.59-.05.04-.15.02-.21.02v.12c.39-.05.4.55.25.77-.08.12-.63.15,0,.38-.29.58-.62,1.35-.25,1.95,0,.06-.2.03-.22.11-.03.12-.04,1.07.22.97l-.24.3.35.05-.13.42c-.52-.11-.85.65-.95,1.11-.32-.18-.87,0-1.04-.03-.13-.02-.13-.25-.19-.3-.24-.18-1.11.42-.58-.93l-.25-.19.23-.05c-.36-.41.63-1.45-.23-1.28-.18-.27.68-.31,0-.54l.25-.49-.25-.12.24-.55.36.12c-.41-.49.08-1.08-.49-1.28l.13-.65c.37.18.49-.53.45-.82-.04-.22-.22-.44-.21-.58,0-.07.2-.04.22-.12.02-.1-.09-.38.02-.59.08-.15.6.02.39-.66l.22-.14c-.33.05-.24-.32-.33-.56l.33-.23-.36-.37.13-.96.35-.06-.24-.12c.42-.29-.04-.55,0-.6l.61-.12-.32-.66.44-.54-.36-.06c.51-.12,0-.17.05-.43.07-.4.53-.56.61-.85.07-.26.28-.74.28-.78,0-.09-.17-.23-.17-.36,0-.06.2-1.02.22-1.08.06-.16.44-.2.45-.75,0-.06-.2-.04-.22-.14-.1-.46-.1-.87.03-1.31.02-.07.2-.06.21-.13,0-.17-.11-.76-.36-.66v-.12c.38.04-.01-.44.6-.37l-.36-.24c.32.04.24-.57.48-.79l-.48-.42c.69-.12.56-.49.85-.91l-.22-.07.1-.35c-.91.07.11-.74.24-.95s.12-.62.17-.72c.13-.25.86-.62.45-1.19l.23-.11c-.46-.08-.4-.75,0-.79l-.24-.24c.53,0,.35-.91.44-1.09s.38-.31.51-.57c.21-.43.24-.79.51-1.34.11-.23.02-.65.24-.91.16-.19.4-.14.48-.22.03-.02-.06-.55.17-.69.09-.06.28,0,.42-.06.23-.12.24-.61.52-.57l-.24-.48c.25-.15.77-.06.94-.15.25-.14.49-.29.78-.46.16-.09.19-.37.45-.43.19-.05,1.09.67,1.46.31ZM139.28,14.2c-.04-.06-.96.37-1.04.49s.06.27.04.34c-.02.05-.65.44-.7.69l.24.11-.18.44h-.42s0,.48,0,.48l.36.06c-.07.26-.7.4-.72.43-.04.05.36,1.16-.37.96l.24.17c-.02.4-.47.51-.56.79-.06.18,0,1.09.32.98v.12c-.34-.06-.19.28-.31.48-.06.1-.24.09-.33.28-.07.14-.22,1.11.16.94v.12c-.15,0-.27.07-.34.2-.15.27-.36,1.08-.46,1.39-.11.36-.4.63-.29,1.08.11.12.57-.32.48.06-.14.59-.82,1.05-.72,1.75l.36.07c.01.56-.37.53-.54.78-.07.1.02.45,0,.61-.03.32-.51.8.27.87l.02.34c.56.1.34-.5.67-.49s.38.48.5.5l.71-.26.12.25c.41-.8,1.46.26,1.83-.37.38.24.96-.09,1.08.37.14-.33.52-.06.67-.17l.12-.44.52.12.14-.24.12.24c.38-.32-.03-.51-.03-.54-.12-.58.35-.69.34-.73,0-.04-.12-.65-.13-.71-.02-.1-.23-.07-.23-.13,0-.2.26-.47.18-.81-.05-.24-.31-.23-.31-.3-.01-.43.94-1.84-.12-1.87.1-.2.07-.53.36-.48l-.22-.13c.18-.59-.06-.35-.24-.79l.34-.75c-.65-.12-.36-.18-.44-.69.77-.36-.3-.64.1-1.31l-.24-.12c.37-.52-.09-.68-.11-.74-.04-.11.09-.65.34-.55v-.12c-.46-.02-.3-.39-.25-.72l-.6-.14c.05-.61.43-1.44-.24-1.76.49-.38-.03-.47-.49-.43v-.73Z"/><path d="M153.43,12.53c.05.07.11,1.59-.33,1.43l.36.31c-.11.47-.2,2.57,0,2.87.07.11.27.06.25.14-.4.31-.04.54-.04.72,0,.1-.37.62-.32.67h.6c.07.4-.03.51-.37.67.42.46.02.57.05.9.02.35.29.74.3.79.03.16-.15.56.02.79-.24,0-.43-.1-.36.24l.49.06-.25.12.23.23-.6.86.22.12c-.04.31-.33,2.38.08,2.36l.36-.34.3.23c-.35-.66.29-.59.37-.67.15-.15.48-.63.6-.84.06-.1.17-.16.25-.24l-.24-.12c.11-.31.69-.41.79-.55.07-.09-.07-.29.04-.43.11-.15.44-.24.57-.42l-.18-.3,1.31-.8c-.18-.64,0-.36.13-.55.32-.48.53-.48.62-.6.13-.17-.02-.69.35-1.04.16-.15.8-.36.92-.57.06-.1-.1-.33-.06-.37.03-.03.24.04.33-.03.12-.1.47-1.41.75-1.71.13-.14.29-.04.37-.08.03-.01-.1-.4,0-.62.07-.15.25-.14.31-.27.12-.24-.14-.85.19-1.15l.47.11c-.32-.77.48-1.91,1.33-1.21l.06-.24c.3.32.47.69.92.8l-.13.89.36.06c-.33.19-.47,1.43-.52,1.49-.09.12-.38.12-.54.48-.23.52-.26.97-.19,1.44s-.91.92-1.11,1.12c-.08.08.05.66-.18.92-.09.1-.39.15-.55.3-.15.14-.21.39-.35.5-.16.12-.42.1-.43.11-.02.02.17.23.07.47-.15.35-.45.66-.79.8l.24.42c-.49-.04-.58.31-.82.49-.22.17-.99.45-.4.66-.18.19-.51.12-.69.34-.25.31-.09.82-.76.7l-.07,1.21c-.28.19-.6.29-.91.11-.13.17-.12.79-.14.82-.05.07-.28.08-.4.27-.07.11-.23.81-.19.84.38-.04.69.07.73.49l.48-.24c.05.23.16.55.31.73.09.11.87.17.66.6l.18-.24c.19.33.88.56.91.91.01.18-.14.37-.13.47,0,.05.56.25.37.68l.36-.24.14.71.34.02-.12.24c.66-.32.51.48.63.7.03.05.28.1.4.27.18.26.34.66.43.97l.24-.24.25,1.21.49-.06.24.79.36-.12c.16.19.11.68.15.78.12.32.13-.09.25.6,0,.05.41.83.45.88.2.25.41,0,.49.05.04.02-.22.53.48.49l-.24.24.2.02.07.44c.73.03.3.89.44,1.42.16.59.61,1.11.62,1.8,0,.08.65,1.28.68,1.4.07.31-.13.39.17.73l.36-.24c.13.32-.19.65-.18.86,0,.32.48.4.19.87-.07.11-.3.01-.25.2l.35.06c.06.53-.48.76-.95.92l.12.23c-.22.07-.28-.18-.44-.21-.21-.03-.52.13-.81-.03-.06-.03-.15-.36-.33-.52-.11-.1-.29-.07-.33-.11-.18-.22.09-.99-.52-.83.04-.32.15-.92.07-1.22-.07-.24-.27-.22-.35-.39-.18-.37.25-1.72-.69-1.06.28-.59-.33-1.01.12-1.45-.12,0-.7-.53-.73-.58-.09-.17,0-.43-.07-.62-.15-.38-.6-.44-.17-.86-.79.12-.49-.13-.64-.32-.3-.37-.32-.6-.35-.63-.06-.07-.32-.05-.44-.17-.42-.4-.02-.7-.09-.93s-.34-.32-.39-.41c-.22-.36-.51-.67-.65-.9-.09-.15-.04-.51-.23-.68-.23-.21-.5.11-.37-.69-.43-.1-.25.15-.48.24.02-.49-.59-.6-.12-1.03-.35-.09-.2-.38-.36-.62-.12-.18-.35-.04-.36-.06-.07-.09-.03-.43-.16-.57-.11-.11-.4-.08-.54-.19-.1-.07-.41-.39-.53-.51-.15-.14-.03-.4-.36-.3l-.12.24c-.17-.53-.31-1.62-.97-.97l-.13-.97-.54-.13-.12.25-.49-.34-.27.28c.44.39-.03,1.18-.03,1.56,0,.29.24.71.22.99-.02.43-.61,1.05.26,1.2-.38.35-.21.78-.27,1.06-.05.23-.29.41-.28.76.01.38.47.78.5,1.27.02.32-.17.43-.17.65.01.34.41.82.34,1.23l-.37.06.24.24c-.58.1-.11.99-.35,1.39l.59.19-.36.97h.43c.24.73-.32.91-.55,1.52l.25.12c-.23.25-.1.58-.13.71-.01.05-.51.14-.12.38.18.11.5-.05.49.18-.17-.03-.62.68-.61.78l.37.31h-.73s.12.36.12.36l-.44.12.07.49c-.38-.14-.61-.06-.79-.48l-.36.33-.43-.22.36-.48c-.14,0-.29-.05-.35-.2-.14-.39-.17-1.15-.32-1.62-.11-.34-.69-.68.06-.85l-.06-.25-.3-.13.36-1.14-.36.06c.06-.57.75-1.2,0-1.51l.36-.49-.25-.12.26-.73c-.03-.29-.28-.24-.35-.33-.03-.04.19-.25-.15-.28l.48-.61-.36-.24.37-.42-.49-.24c.63-.1.52-.6.33-1.07l-.34-.02.36-.97h-.37s.14-1.28.14-1.28l-.25-.29c.76-.21.28-1.06.07-1.54-.01-.03-.18-.03-.19-.11-.02-.17-.06-1.54,0-1.64.09-.15.3-.15.35-.3.06-.18-.09-.52,0-.75l-.48-.14c.43-.36.53-1.26.38-1.76-.07-.22-.27-.19-.26-.24.03-.12.33-.37.32-.49,0-.07-.18-.23-.2-.48-.04-.59.57-1.34-.12-1.58.41-.34.37-1.01.33-1.54-.06-.84.06-1.45,0-2.2-.01-.16-.21-.32-.21-.5s.25-.31.22-.46c-.02-.13-.26-.29-.3-.44-.03-.13.31-.4-.05-.73l.24-.12-.36-.19.24-.66h-.37s.24-.43.24-.43l-.24-.11c.46-.63-.14-1.36-.14-1.96,0-.24.26-.15.26-.23-.49-.63-.55-1.78-.36-2.53.04-.16.52-.12-.11-.75l.64-.62c1.46-.11,1.51.37,2.2,1.41.11.17.34.21.39.27ZM154.07,26.32c-.29-.05-.52.06-.48.36l.48-.36Z"/><path d="M77.92,52.38s.05.22.14.29c.11.08.31-.03.45.02s.14.27.23.28c.25.05,1.03-.07,1.25-.24,0,.14.45.64.49.66.29.16,1.14.05,1.19.09.06.04.09.32.26.41.14.07.34-.08.49-.01.29.14.54,1.11,1.21.43-.12.66,1.01.77,1.1.89.17.23.09.63.42.8l.06-.24c.24-.16.66.39.7.56.03.12-.12.27-.07.38.02.05.65.66.83.39-.27.6.42.59.74.9.21.21.21.43.35.62.09.13.36.14.38.26.03.17-.11.38-.1.57.07.74.39.71.69,1.23s-.15.42-.2.6-.07.78.2.73c-.44.3-.12.62-.12.97,0,.69-.64,1.01-.84,1.49s-.19,1.16-.56,1.59c-.23.27-.65.35-.86.53-.16.14-.27.5-.44.65-.15.14-.88.48-1.03.67l.07.16-.34.06.24.36c-.31.21-.67,0-.89.04-.15.02-.63.41-.88.45v.9c.07.28.88.8,1.12,1.1.2.25.43.89.58,1.05.31.33.63.08.8.17.18.09.2.36.26.41.03.02.17-.1.2-.08.08.06,1.23,1.36,1.29,1.44.17.26.19.63.34.81.21.25.75.25.8.29.16.15-.13,1.05.74.96-.29.95.18.71.63,1.17l.21-.08c.18.19.01.65.03.7.02.04.47.36.53.74.03.18-.34.42.07.85l.34-.11c.11.07.37.89.46,1.05.07.13.19.13.24.2.14.19-.12.42.53.32l-.52.93c-.39.21-.93.25-1.14.65-.24.04-1.48-.82-1.63-1.03-.34-.47-.36-.55-.78-1.04-.5-.59-.28-.72-.45-1.25-.05-.14-1.11-1.29-1.31-1.59-.19-.28-.05-.62-.49-.74-.13-.04-.31.06-.34.04-.05-.03-.58-.79-.5-.95l-.34.11c-.47-.59-.54-1.29-1.43-1.43l.07-.49h-.72s-.3-.86-.3-.86c-.16-.18-.41,0-.56-.05-.26-.1-.67-1.01-.36-1.26-.69.14-.69-.72-1.15-1.09l-.42.24c-.06-.58-.56-.16-.91-.14-.17.01-.37-.13-.59-.11-.44.05-.4,1.34-.56,1.65l.23.23c-.75.52-.2.92-.24,1.64l.24-.12c.23.51-.24.76-.25.81-.03.17.1.37.06.54-.04.16-.28.34-.28.41,0,.07.27.21.32.39.03.11.12.81.13.95,0,.06-.2.03-.22.14-.08.27-.18,1.4-.12,1.65.02.11.38-.04.08.65-.03.07-.22-.02-.2.09l.49.18-.22.13.05.35c-.63.34-.99.49-1.22,1.21l-.18-.06c-.12-.41-.37-.31-.61-.47-.43-.28-.83-.81-1.32-.57.08-.34,0-.68.11-1.04.07-.2.2-.13.26-.36.17-.64-.14-1.58.24-2.06l-.35-.24.23-1.09-.25-.14v-.94s.49-.2.49-.2c-.16-.25-.28-.72-.23-1.02.06-.33.52-.6-.01-.74l.23-.07c-.25-.41.05-.63.09-1s-.21-.68-.2-.87c.01-.31.75-.98-.25-.67.43-.53.21-.91.27-1.38.12-.95.23-.98,0-1.83-.05-.19.26-1.2.23-1.44,0-.08-.19-.08-.24-.17-.22-.41.28-1.21.33-1.56,0-.06-.25-1-.46-.94l.22-.08-.08-.41.21-.11c.15-.83-.15-2.06-.1-2.92.01-.2.24-.31.23-.58,0-.24-.23-.48-.23-.74,0-.39.58-1.18-.14-1.03l.24-.12-.25-.18c.34-.57.11-.61.07-.97-.11-.99.53-.93.53-1.08,0-.03-.15-.14-.17-.24-.12-.56.23-.98.36-1.52.2-.28.39.1.5.1.09,0,.2-.23.3-.26.16-.05,1.15-.34,1.2-.3ZM79.24,55.67c-.38-.28-1-.05-1.3.27l.48.06c.05.27-.37.7-.37.78,0,.29.02,1.14.13,1.32.06.11.27.05.24.14-.08.44-.52,1.17-.54,1.57-.01.23-.04,1.29,0,1.46.04.26.4.8.4.85,0,.1-.26.2-.29.36-.05.29.28.82.27.97,0,.12-.28.63-.19.91h.48c-.17.4-.02.74-.49.92.61.86-.37,1.68.2,2.6.15.02.79-.2.87-.28.1-.11.02-.36.23-.44.2-.07.48.03.69-.01.1-.02.1-.23.14-.24.36-.09.3.25.37.25.21,0,.66-.38,1.02-.26v-.35c.61.25.91-.57,1.31-.86.61-.44,1.74-.68,1.75-1.68l.34-.02c-.17-.39.25-.36.38-.56.51-.76.3-1.06.25-1.8-.02-.24.14-.45.08-.69-.07-.29-.55-.66-.34-1.18l-.6.12c-.13-.32-.04-.44.12-.72-.26,0-.36-.31-.51-.44-.03-.03-.18.03-.34-.09s-.22-.39-.36-.49c-.12-.09-.79-.41-.94-.58-.11-.13-.02-.44-.23-.59-.33-.23-.48.11-.65.08s-.52-.38-.73-.49c-.33-.17-.67.02-.91-.55-.4-.16-.13.51-.73,0-.1-.09-.13-.27-.21-.32Z"/><path d="M72,9.72c.3.06.19-.07.3-.24.22.21.52.21.78.31.28.11.58.16.61.18s.06.34.19.48c.24.23.91.61,1.27.48-.23.6.64.99,1.05,1.25.08.05.1.26.24.31.24.07.74-.32.41.5l.48-.12v.6c.71-.02.44.54.56.86.04.1.2.2.26.33.17.4.2,1.21.75.88l.13.54-.25.13c.08.56.59,1.13.38,1.58l.23.11-.46,1.34.46.24c-.8.62-.76,1.46-1.41,2.23-.07.09-.25.12-.27.15-.14.24.49.59-.62.59l.24.36c-.45-.02-.39.43-.52.57-.19.22-.55.04-.7.1-.41.17-.75.85-1.06,1.04l.1.22c-.28-.11-1.02.42-1.14.61-.04.07.05.23.04.23-.09.07-.97,0-.84.31.2.49,1.06.43,1.3.7.15.17.68,1.16.8,1.27.83.75.99,1.48,1.66,2.27.16.19.48.31.55.43.14.22-.25.88.54.85l-.12.24h.36c-.07.37.06.5-.36.67.22.37.56.4.36.91l.34.02c.07.47.31.93.54,1.35.08.16.28.18.31.27s-.11.51-.07.7c.05.25.29.55.38.84.08.26.27.78.3.9.06.23-.26.48.14.69.14.07.25-.21.34.39l-.34.18v.23c.41,0,.26.51.37.76.07.15.28.13.34.29.05.13.08,1.22.15,1.54.07.36.41.38-.01.8h.37c-.04.25-.16.68-.12.9.05.34.62.72-.11.68.1.17-.28.82-.4.88l-1.29-.06c-.01-.62-.69-.95-.81-1.43-.16-.65.11-1.6.01-2.25,0-.07-.46-.88-.5-1.09-.09-.49.22-1.47-.66-1.52l.23-.72h-.49s.12-1.21.12-1.21h-.49s-.37-2.21-.37-2.21c-.11-.19-.72-.87-.76-.96-.18-.44.13-.68-.57-.58-.04-.18.21-.63.21-.67,0-.06-.62-.77-.67-1-.03-.17.14-.48.1-.52-.03-.02-.25.05-.33-.02-.08-.07-.03-.32-.15-.41-.09-.07-.27.08-.42-.05-.31-.27-.42-1.03-.57-1.19-.02-.02-.38-.02-.62-.18-.12-.08-.5-.49-.61-.54-.16-.07-.69-.04-.93-.22-.16-.12-.1-.45-.32-.53h-.41s.24.23.24.23h-.84c.1-.48-.26-.31-.43-.48-.27-.26-.4-.79-.78-.86v-.17c.42-.34.49-.61.12-1.03l1.2-.13c0-.91,1.16-.17,1.41-.84.19.22,1.27-.4,1.45-.6.15-.17.16-.39.24-.48.13-.14.37-.11.48-.25.07-.09.03-.3.08-.34.09-.07.36.04.45-.03.04-.03.03-.31.19-.48.14-.14.88-.52,1.01-.74.03-.05-.1-.19-.08-.21.03-.04.36-.04.45-.16.21-.26-.14-1.16.63-.82-.14-.56.21-.64.49-1.03l-.24-.12c.13-.14.31-.31.33-.5.01-.12-.38-1.04-.47-1.28-.06-.16-.47-.96-.48-1.02-.02-.18.15-.35.05-.61-.01-.04-.39-.5-.46-.6-.75-1.05-1.11-.79-1.88-1.44-.2-.17-.17-.41-.28-.5-.15-.13-.6-.07-.58-.52l-.41.23c-.14-.03-.88-.69-1.05-.78-.06-.03-1.02-.21-1.2-.25-.32-.07-.62.23-.92-.29-.09.35-.37.2-.62.36-.33.21.08.66.09.91.02.47-.26,1.1-.13,1.64l.24-.12c.06.49-.05.55-.48.67.42.5.32,1.17.12,1.76h.28c.27.04.04.76-.4.62l.25.78-.25.36.33.36-.47,1.1.36.35-.43,1.11c-.06.29.04,1.06.02,1.26-.04.4-.18.93-.3,1.32l.48.06c-.23.57-.64,1.2-.46,1.82.02.07.22.05.22.12,0,.23-.27.41-.33.63-.15.55.15,1.55.08,2.16-.05.46-.66,1.28.11,1.33.02.34-.42.57-.45.74-.15.86-.33,2.61-.33,3.49,0,.66.61,1.06.06,1.64h.48s-.26.84-.26.84l-.34.02c-.09.5.19,1.1.21,1.5.06,1.21-.29,3.1.26,4-.34.35-.23.83-.25,1.27-.48.06-1.07.24-1.39.61l-.06-.48-.22.09-.75-.91c.05-.56-.19-1.12-.18-1.67,0-.24-.01-.6.29-.55l-.24-.18c.28-.45.18-1.19.19-1.75,0-.15.12-.26.11-.38-.02-.4-.66-.57.06-1.2l-.36-.18c.32-.21.15-.49.24-.78h-.36c.23-.3.02-.55.03-.79.01-.33.26-.72.46-.85l-.48-.36c.68-.56.26-1.05.48-1.8l-.48-.2c.21-.3.24-.69.36-1,.04-.1.27-.03.3-.56s-.3-.53-.3-.57c0-.1.24-.93.28-1.16.05-.26-.18-.5.2-.47-.46-.46-.02-.57.09-1,.11-.46-.16-.72-.21-1,0-.06.25,0,.26-.23,0-.21-.1-.41-.11-.61-.02-.32.31-.32-.24-.59.09-.33.06-.51.46-.43.12-.37-.38-.63-.36-.66.16-.42.18-.44.29-.88,0-.04.35-.21.16-.61-.21-.45-.3.07-.14-.81.09-.48.18-.45.18-.49,0-.19-.24-.27-.22-.46.02-.36.39-.85.45-1.02.32-.88-.34-.97-.35-1.06.23-.21.45-.68.44-.97,0-.34-.33-.29.17-.85-.56-.44-.07-1.45-.12-1.8-.01-.08-.23-.06-.25-.16-.07-.31.32-1.71.31-2.16,0-.3-.25-.27-.28-.36-.05-.17-.02-.76.21-.85l-.25-.14.04-.92c.14-.7,1.22-.6,1.18-1.3.49.46,1.08.04,1.54.03.05,0,.87.11.91.12.42.12,1.09.84,1.7.68.26-.07.43-.52.58.14Z"/><path d="M17.81,8.39l.02.33,1.13.38c.09.49.48.94.64,1.31s-.19.45.51.7c-.42.5.03.67.11,1.09.15.82.09,1.79.27,2.63.09.4.57.46.56.77,0,.2-.25.33-.23.58,0,.04.3.09.32.43.02.26-.14.34-.14.43,0,.15.22.33.07.54h.49s-.24.12-.24.12l.25.3c.03.4-.24.29-.26.38-.06.44.37.56.37.6,0,.21-.23.47-.02.77l-.23.13h.49c-.16.36.2,1.08-.22,1.11l-.02.16c.62.41.16.56.15.95,0,.93.35,2.15.45,3.04,0,.07.63.1-.12.49l.3.8h.3c.18.47-.34.45-.24.77.01.05.18.05.2.09.03.05-.06.13-.04.19.02.03.2.03.2.08-.01.13-.3.47-.31.61-.02.27.32.53.31.73,0,.16-.2.28-.21.4-.01.09-.01.73,0,.79.08.41.41.41.44.47.02.04-.11.48-.08.73.04.44.34.49.34.52,0,.18-.23.35-.23.59-.02.57.38,1.6.42,2.12,0,.16-.17.26-.16.41.02.59.63.94.59,1.6-.02.29-.38.18-.38.48,0,.15.16.3.17.42.07.65.28.79.31.94.15.7.04,1.88.25,2.62.1.33.09.09.14.72.02.24.23.57.22.63-.03.13-.37.24-.49.37-.1.11-.01.4-.29.56-.33.19-.66-.04-.56.48-.75-.09-.59-.32-.85-.76-.37-.64-.16-.31-.26-.96-.04-.26-.52-.73.02-.7v-.12c-.39.04.01-.2-.34-.3.23-.29-.5-.62.1-.85-.09-.07-.18-.16-.21-.27-.31-1.23-.5-2.59-.57-3.77-.02-.32-.15-.77-.15-.81,0-.08.19-.18.21-.36,0-.08-.22-.04-.25-.14-.08-.35-.02-1.05-.06-1.43-.12-1.22-.43-2.47-.62-3.66-.04-.23.11-.59-.06-.88-.38.07-.8-.14-1.13-.13-.21,0-.4.17-.61.18-.47.02-.76-.41-.98.19l-.48-.25-.13.25-.47-.14-.12.24c-.67-.28-1.46-.43-2.17-.23-.11.03-.09.24-.15.24-.17,0-.32-.2-.58-.21-.36-.02-1.01.28-1.12.28-.12,0-.35-.3-.68-.26-.26.03-.52.32-.82.32.06.61.26.87-.01,1.5l-.36-.06.36.3c-.12.28-.68.86-.7,1.11-.02.19.18.34.18.46-.01.21-.26,1.07-.26,1.29,0,.34.31.38.31.42.02.41-.35.39-.37.42-.05.07.3.23.23.51-.04.15-.24.28-.29.45-.37,1.25-.52,2.56-.84,3.89-.03.11-.11.22-.19.3l.35.07c.17.4-.18.48-.19.51-.24.61-.63,2.68-.97,3-.18.18-.81.14-.3.66l-.3.19-.36-.24-.24.36-1.28-1.03v-.3s.36,0,.36,0c.12-.27-.16-.7-.12-.88.02-.12.27-.09.33-.25.07-.18.02-.97.06-1.08.07-.22.77-.25.11-.5.28-.26.2-.51.13-.84l.35-.08c.09-.28-.06-.44.26-.54l-.37-.58c-.05-.69.83-1.39.36-1.89.68-.07.45-1.2.51-1.76.03-.27.08-.67.11-1.09.03-.37.56-1.5.1-1.58.04-.31.29-.56.37-.84.11-.36-.33.12-.25-.24.06-.26.21-.52.37-.73l-.24-.12c.23-.4.53-.84.68-1.28.06-.19-.06-.4,0-.49s.26-.06.3-.19c.07-.24-.11-.7-.36-.83l.6-.61-.25-.24c.19-.37.25-.79.38-1.18.23-.69.07-.81.14-1.54.03-.37.13-1.05.19-1.42.04-.21.12-.43.26-.6l-.24-.12c.35-.25.4-.7.49-1.09h-.36c.18-.44.42-.93.57-1.37.12-.35.22-1.02.33-1.36.08-.24.37-.4.41-.57.05-.19-.16-.63-.05-.83.09-.18.38-.21.4-.35.02-.1-.12-.31-.09-.48.02-.09.25-.07.25-.15.03-.78.02-.23.36-.73.15-.23-.03-.55.25-.71l-.24-.24.6-.32-.08-.21c.39-.17.57-.8.21-1.11.62-.03.38-.59.51-.82.04-.08.53-.26.64-.52.08-.18-.04-.34,0-.48.12-.38.77-.49.53-1.09.72.27.56-.1.81-.25.08-.05,1.04-.45,1.1-.46.37-.06.9.21,1.36-.02ZM17.38,11.38c-.22-.32-.18-.62-.78-.56l.12.36c-.06.04-.93-.12-.79.24l.12.24-.55.12c.1.2-.04.77-.12,1-.05.14-.47.28-.54.7-.03.15.14.26.14.42.02.89-1.11,1.24-.81,2.18l-.36.07.36.48c-.13.04-.69.47-.71.51-.04.06.11.29.06.47-.05.2-.31.34-.36.48-.15.43-.24,1-.38,1.46-.24.77-.07.32-.09.89,0,.14-.31.55-.32.75-.02.34.32.97-.13,1.09l.16.06c.28.29-.08.52-.4.49.17.16,0,.56.02.59.04.08.49.08.35.5h-.35c0,.48-.39,1-.47,1.51-.05.3-.03,1.28.28,1.4l.13-.25c.29.11,1.28.07,1.55,0,.1-.03.03-.24.25-.25.37,0,.67.3.86.32.18.02.42-.13.63-.14.31-.01.77.19.88-.17l-.24-.12c.66-.29,1.57.42,2.12.36.27-.03.37-.33.5-.35.17-.03.26.34.8.1.1-.04.09-.22.15-.22.22,0,.73.35.64-.3-.03-.2-.26-.34-.28-.5-.08-.6.01-1.37-.06-1.93-.15-1.25-.34-1.79-.26-2.92,0-.06,0-.82-.02-.86-.06-.16-.27-.14-.31-.19-.06-.08.19-1.61-.39-1.75l.24-.59-.58-.49c.34-.3.12-.65.22-1.03l-.37-.06c.15-.43-.05-.82-.06-1.21,0-.18.17-.4.16-.49s-.36-.23-.49-.45c-.29-.49-.11-1.08-.56-1.5.34-.59.14-.29.03-.45Z"/><path d="M119.86,9.39s.02.19.11.21c.71.17,2.21-.38,2.22.49.72-.33.63.65,1.45.49-.23.37-.23.86.06,1.21.21.25.62-.03.67.24-.38-.06-.08.27-.3.49-.2.19-.57.05-.55.6-.54-.16-1.1.12-1.51-.36l-.11.24c-.67-.09-1.01-.81-1.7-.82-.27,0-1.74.21-1.97.31-.15.06-.36.44-.54.56-.55.36-1.11.27-1.17,1l-.62.05.24.47-.96.62.24.3c-.54.24-.34.41-.44.67-.04.11-.23.18-.25.3-.02.14.21.4.2.61,0,.16-.19.28-.19.36,0,.09.19.21.2.36,0,.2-.3.4-.35.63-.1.5.32.87.49,1.28.15.37.23,1.12.59,1.35.13.09.35.06.47.14.19.13.32.36.53.45.2.08.4-.03.43-.01.17.11.54,1.12,1.23.94l-.06-.24h.18s.02.21.02.21c.45-.12.96.46,1.41.61.15.05.82.02,1,.11.21.1.42.52.6.58.2.07.54-.16.79.3l.3-.23c.2.77.92.38,1.43.7.2.12.24.32.36.39.27.17,1.09.47,1.08.79,0,.09-.22.23-.2.36.04.21.73.34.82.45.02.02-.07.28.01.39.08.12.56.02.5.56l.24-.24c.12.32.1.75.23,1.04.26.59.77,1.29,1.12,1.9.09.15.24.25.35.38l-.37.37c.19.24.23.71.33.9.04.07.26.08.3.2.09.33-.22.79-.19,1.06.03.31.04,1.1.06,1.19s.21.07.24.16c.1.32-.29,2.32-.44,2.71-.1.25-.35.57-.52.79l.23.35c-.1.26-.43.43-.56.6-.12.16-.4.72-.45.78-.15.19-.56.11-.32.63-.54-.07-.6.33-.86.54-.2.16-.46-.11-.25.36l-.32.21.1.22c-.64-.06-.69.36-.96.54-.08.05-.28,0-.48.13-.26.18-.46.48-.5.79l-.48-.12c.27.41-.41.43-.6.55-.1.06-.1.29-.2.31-.13.02-.35-.12-.65-.08-.54.07-.99.95-1.26.33l-.55.11.24.48c-.56.14-.7-.41-1.03-.37-.25.02-.38.19-.53.22-.44.08-.82-.21-.87.52l-.18-.23c-.44.36-2.12-.36-2.24-.25-.06.05.14.44-.19.36-.33-.32-.79-.45-1.14-.68-.07-.05-.1-.18-.18-.25-.13-.1-.42.07-.32-.4-.91.35-.76-.41-1.09-.88-.39-.56-1.22-1.02-1.6-1.62-.38.01-.51-.25-.82.08-.13-.43-.3-.5,0-.91l-.2-.16c-.35.23-.76-.5-.76-.82,0-.06.21-.04.23-.13.03-.12,0-1.11.07-1.38.06-.24.94-1.77,1.26-1.64.28.12.4.66.52.76.09.07.32.04.4.14.07.1.29,1.15.18,1.34l.48-.24c-.03.3.17.79-.24.73v.12c.12.02.32.05.4.12.21.18,1.24,1.27,1.32,1.32.1.06.32-.07.48-.04s.94.66,1,.78c.05.1-.05.26.01.36.02.03.56.44.63.47.05.03,1.01.26,1.07.26.05,0,.07-.33.5-.37.37-.03.96.31,1.08-.12.13.27.59.29.76.1.03-.03-.15-.24.1-.32.3-.1,1.2-.07,1.39-.2.19-.14-.07-.75.84-.31v-.35s.48-.02.48-.02v-.35s.73.12.73.12l.14-.71c.54.09.45-.23.79-.48.26-.19.57-.33.89-.38l-.12-.23c.65-.04.5-.48.73-.88.08-.14.29-.16.34-.3.07-.2-.11-.71-.08-.75.08-.1.46-.18.56-.29.02-.02-.07-.13-.06-.15.09-.13.43-.49.33-.67l-.34-.06c.09-.35.05-.71.13-1.06.06-.27.45-.65.3-1.11-.06-.19-.33-.19-.4-.31-.05-.08.06-.23.05-.29-.02-.1-.2-.07-.23-.16-.02-.08.16-1.16.04-1.62-.04-.13-.49-1.16-.55-1.19l-.22.1c-.06-1-.33-.62-.85-.91-.3-.17-1.11-1.18-.61-1.51-.26-.16-.8-.05-.73-.36l-.19.25c-.54,0-.38-.51-.57-.71-.11-.13-1.84-.42-1.79-.99l-.18.24c-.23-.24-.6-.35-.91-.44-.35-.09-1.57-.25-1.86-.41-.14-.08-.02-.3-.15-.38-.02-.02-.41-.16-.45-.18-.4-.16-.78-.44-.82.07h-.16c-.57-.18-.46-.61-.61-.81-.12-.15-.47-.26-.44-.52l-.36.24v-.24s-.24,0-.24,0l-.12.24c0-.29-.29-.41-.41-.6-.16-.25-.25-.84-.38-1.1-.08-.16-.34-.16-.46-.39-.18-.33-.2-.76.04-1.06h-.61s.21-.72.22-.81c.06-.87-.45-1.59-.45-2.01,0-.36.17-.91.48-1.11l-.25-.24c.41-.35.09-1,.17-1.21.12-.3.71-.17.76-.86.01-.2-.13-.43-.08-.65.55.06.56-.51,1.09-.37-.32-.55.52-.66.59-.93.04-.15-.12-.39-.11-.4s.28-.03.4-.12c.53-.4,1.63-1.19,2.21-1.47.22-.11.44,0,.59-.11.14-.1.18-.35.28-.37.19-.03,1.22.04,1.43,0,.04-.01.23-.46.52-.31Z"/><path d="M50.06,9.12l-.12.36c1-.19.14.37.14.42,0,.38.37,1.34.44,1.8-.09.44-.2,1.14-.17,1.58.02.29.3.51.3.72,0,.29-.3.32-.31.34-.02.04.08.77-.03.95h.49c-.33.46-.1,1.18-.25,1.61-.04.11-.25.08-.24.15.05.28.5.38.5.61,0,.46-.37.37-.38.5,0,.07.1.21.1.35,0,.94-.08,1.88-.09,2.9,0,.43-.4.74.24.98l-.44.36c-.05.36.33.47.33.5,0,.19-.33.67-.37,1.08-.04.58.3,1.25.31,1.57,0,.18-.39,1.31-.41,1.69-.03.69.37,1.09.09,1.79-.03.09-.23.09-.23.16,0,.29.23,1.01.21,1.35-.01.22-.31,1.06-.17,1.31.08.16.32.14.34.25.05.27-.28.46-.32.65-.03.13.15.22.13.38-.07.57-.4,1,.06,1.6.09.11.23.08.24.09.02.04-.36.47-.32.88.07.59.55.83.33,1.24l.23.1c-.32.82.1,1.88.25,2.74l.36-.12c-.2.69.22.69.38.93.13.21-.18.61.42.76l.23-.24.18.24.05-.24c.5.33.93.48,1.58.36.41-.08.37-.44.55-.55.14-.08.34.09.48.01.03-.02.52-.52.54-.55.11-.21.02-.51.08-.59.03-.03.61-.18.71-.26.13-.12-.39-.09-.23-.29.07-.38.74-.41.89-1.04.04-.17-.07-.34-.03-.52.05-.23.29-.38.31-.53.05-.29-.36-.46.27-.41-.22-.43.21-.77.29-1.07.03-.1.18-.87.18-.92,0-.36-.52-.55.13-.67l-.36-.24c.42-.67.59-1.54.59-2.35,0-.46-.45-1.23.14-1.47l-.24-.11c.14-.31.05-.51.48-.43l-.25-.19c-.04-.27.27-.52.26-.71,0-.06-.21-.05-.24-.14-.23-.75.14-1.86.2-2.56.08-.87-.05-2-.04-2.81,0-.53.03-1.09.07-1.62l-.36-.26.36-.42-.36-.18.24-.37c-.45-.11-.04-.53,0-.85.02-.17-.11-.37-.09-.57.04-.42.57-1.1.28-1.55-.14-.21-.5.01-.17-.75.04-.09.19-.08.22-.17.04-.16,0-.76.13-1.01h-.37c.46-.51-.12-1.02,0-1.61.02-.08.3-.08.37-.63.09-.75-.3-1-.19-1.68.08-.51.28-.51.42-.71.12-.18-.38-.68.81-.51.44.06.9.16.93.64h.47s0,.79,0,.79l-.24.2h.36c.04.25-.36.54-.36.57-.11.61.13,1.24.11,1.68-.02.34-.69.68-.11.84-.34.44-.15.98-.16,1.49l.41.15c-.13.47-.68.43-.47,1.01.11.3.57.01.09.98l.25.13c-.46.29-.31.76-.49,1.21l.25.07c.06.2-.25.06-.25.19,0,.23.31.68.32,1.03.02.4-.42.42.06.54.06.34-.59.66-.36,1.14h.35c-.37.43,0,.94-.02,1.15-.03.83-.08,1.23-.05,2.06.02.39-.32,1.09-.28,1.24.08.34.42.12.35.7-.04.34-.35.65-.37.86,0,.03.34.04.29.56-.03.36-.34.38-.42.7h.36c-.08.22.02.63-.01.8-.06.27-.27.33-.32.5-.08.31-.39,1.29-.03,1.3-.14.29-.36.61-.41.93-.05.36.27.99-.2.95.65.52-.69,1.02.24,1.15.02.41-.54.64-.59.87s.18.34.18.53c0,.28-.22.48-.27.68-.03.13.11.32.07.45-.04.16-.8.17-.6.97l.25.2c-.89.18-.55.26-.7.68-.07.18-.22.18-.24.21-.05.11.1.24-.02.39-.15.2-.94.7-1.19.94-.09.09-.29.59-.56.77-.21.14-.98.15-.69.76-.7.21-1.31-.19-1.87.37-.14.14-.29.58-.39.6-.28.06-.49-.17-.74-.22-.15-.03-.33.06-.49,0-.18-.06-.26-.47-.86-.18-.3-.77-.51-.04-.68-.1-.45-.16-.52-1.03-.78-1.28-.15-.15-.39-.13-.46-.21-.06-.06.01-.25-.1-.34-.75-.62-.78-.76-1.02-1.72-.02-.1-.22-.07-.24-.17-.05-.22.11-.52.1-.74,0-.24-.2-.39-.12-.62h-.35s.25-.67.25-.67c-.75-.35-.28-.79-.25-1.4l-.45-.18c.09-.4.1-.93.09-1.33-.04-1.2-.15-2.98-.07-4.12.03-.45.36-.63.12-1.25-.05-.14-.23-.13-.25-.2-.11-.32,0-.98.21-1.27l-.36-.18.37-.6-.26-.13c.12-.58.65-.92.12-1.43l.49-.98-.36-.06c-.1-.31.17-.57.2-.81.12-.85.11-1.79.19-2.63.02-.16.21-.34.21-.38,0-.1-.34-.13-.37-.26-.04-.19.09-.41.06-.59-.03-.24-.25-.45-.06-.81.08-.15.28-.02.24-.21l-.36-.18.36-.55h-.48c.14-.25.41-.54.43-.84.02-.25-.27-1.5-.26-1.64.08-.69.22-1.17.15-1.97-.07-.87-.02-.32.14-.98.05-.21-.07-.39-.06-.55.04-.38.27-.81,0-1.16-.18-.24-.41.03-.18-.66l-.35-.25c.19-1.41,1.06-1.76,2.41-1.52Z"/><path d="M174.3,11.41l.29-.34c.67.34.85.76,1.72.56.06-.01.01-.32.59-.21s.44.21,1.21.24c.04,0,.37.31.74.41.55.15.79-.05,1.21.19l.12-.48,1.58.93c.53-.53.51.57.77.96-.17.28-1.02,1.68-1.25,1.7-.05,0-.14-.13-.24-.14-.13-.01-.28.09-.4.04-.04-.02-.04-.2-.12-.22-.27-.11-.88-.09-.88-.48l-.42.36c-.62-1.04-.76-.54-1.52-.55-.3,0-.84-.05-1.15-.08-.06,0-.11-.32-.38-.32-.18,0-.85.25-1.18.22-.09,0-.01-.24-.25-.26-.38-.03-.3.21-.36.22-.18.04-.83-.02-.91.03.56.53-.26,1.41.49,1.76l-.25.54.24.06-.25.14c.27.48-.05.86-.05,1.15,0,.57.45.18.43.54-.29.76-.28,1.5-.38,2.29-.07.6-.36,1.93-.23,2.53.02.09.21.07.24.16.11.37-.05.7-.35.89.28-.04.25.24.35.43-.7.2.08,1.05-.48,1.02v.12c.36-.06.13.17.16.21.3.35.71.15.56.76l.24-.48.73.43c.37-.27.85-.06,1.12-.11.32-.05.65-.48,1.17-.21l.06-.36,1.09.36.24-.48c.49.08.45.6.91.36-.1.47.39.86.33,1.3-.03.23-.18.38-.21.59-.04.27.36.67-.31.66l-.12-.25c-.3.35-.87.11-.79.73-.51-.22-.82-.26-1.37-.2-1.09.12-1.52.02-2.71.28-.29.06-.72-.26-.84.16l-.29-.13c0,.38.15.49.48.54l-.48.85c.37.1,0,.27.37.36-.07.39-.44.27-.49.31-.1.09.24,1.18.24,1.27,0,.3-.4,1-.11,1.45l-.37.12.48.12c-.16.38-.17.52-.61.61-.01.24.33.68.32.84-.03.34-.46,1.11.18,1.35l-.24,1.12.47.13c-.66.66-.02.89-.04,1.39-.01.28-.27.39-.28.7-.02.32.05.86.45.7l-.24.72h.37c-.33.46.12.79,0,1.21h.36s-.12.49-.12.49c.66-.36.67.56,1.35.67.57.09.72-.49,1.37-.57.86-.11.69,0,1.51-.33.32-.12.82-.31,1.11-.13l.02-.47c.6-.08.36-.29.42-.38.24-.32.59-.06.17-.67.58-.21.15-.77.49-1.27.17.24.64.36.77.48.11.1.04.26.11.34.11.12.58.26.75.27l.3.81.49-.07-.05.49-.44.12c.78,1.19-.83,1.16-.48,2.18l-.97-.12.24.6c-.43.24-.76-.11-1.03-.11-.24,0-.58.34-.91.24-.02.24.23.45-.06.59l-.54-.22c-.04.35-.64.3-.94.52-.11.08-.15.33-.28.39-.08.04-1.48-.73-1.34.17l-1.66-.59c-.22-.05-.21.25-.3.32-.26.22-.8-.64-1.01-.83-.08-.07-.19,0-.27-.05-.18-.09-.39-.34-.76-.31l.12-.6c-.54.28-1.18-.68-1.21-1.16-.01-.18.12-.35.12-.47,0-.07-.82-.62-.24-1.1l-.25-.12c.39-.57-.15-.73-.22-.99-.08-.3.46-1.37-.03-1.85l-.23.12c-.08-.55.94-.67.24-.9.51-.51-.12-.82-.12-.87-.04-.32.4-1.27.1-1.47-.14-.09-.47.1-.31-.54.07-.28.44-.26-.03-.39.57-.49.12-.64.12-.97,0-.04.4-.04.25-.59-.03-.1-.26-.07-.24-.14.06-.18.27-.47.22-.73-.02-.08-.19-.06-.19-.12-.04-.42,0-.92.46-1.09-.25,0-.39-.71-.35-.84.05-.19.38-.1.35-.31l-.48-.12.21-.7.28-.21c-.32-.25-.4-1.18-.48-1.31-.06-.1-.24-.08-.24-.09-.03-.05.56-1.02,0-1.02.1-.27.79-.26.91-.9.09-.47-.61-.29-.29-1,.06-.14.26-.12.29-.32.05-.37-.06-1.04.01-1.48.05-.34.47-1.3.51-1.5.03-.16-.2-.45-.21-.62-.04-.42.32-.98-.24-1.19.12-.37.07-.43.47-.49l-.36-.06.37-.66-.26-.14c.15-.84-.21-1.38.25-2.18l-.24-.11c.41-.62.04-1.38.03-1.98s.16-1.49.11-2.02c-.02-.24-.23-.45-.22-.49,0-.09.36-.35.46-.48.09-.12.09-.32.15-.39.2-.23.8-.27.82-.63.34.03.47.49.67.57.17.07.94.03,1.25.26Z"/><path d="M52.95,52.99l.14.22v-.24c.48.04.51.55.65.69.19.19.74.45.94.7.21.27-.1.94.72.79-.1.52-.44.39-.72.56-.09.05-.09.22-.22.29-.46.22-.84-.02-1.17,0-.21.02-.37.2-.61.22-.22.02-.84-.15-1.07-.1-.09.02-.09.21-.18.23-.34.09-.77.09-1.09.22-.15.06-.45.53-.76.69-.23.12-.9.31-.94.34-.09.09-.43.9-.51,1-.26.31-.82.52-1.02.9-.26.49.34.65.29.73-.27-.05-.2.22-.33.37-.1.12-.48.35-.49.38-.03.09.18.31.05.47-.14.17-.63.13-.67.79-.03.41.35.43-.24.73.02.22.11.44.36.42v.12c-.5.12-.57.54-.73.88-.05.09-.23.09-.24.18-.05.3.24.77,0,1.13.75-.1.21.66-.24.61l.12.48.36-.06c-.09.48-1.01,1.46-.12,1.4.21.44-.36.6-.36.67,0,.05.11.86.13.94.02.1.25.09.24.14-.05.47-.86.86-.12,1.09l-.24.37c.51.14.11.63.12,1.03l.24-.12c.11.81-.28,1.12.09,2.04.22.54.57.5.7.75.26.5.45,1.2.58,1.73.04.16.16.62.22.72.11.19.49.27.64.62.1.25-.05.55.08.63.21.03.52.15.7.15.17,0,.28-.18.34-.18.1,0,.22.28.38.31.19.03.45-.29.41.15h.24s-.12-.36-.12-.36l1.21.24-.12-.36c.33-.06.46-.12.73.12v-.49c.42.23.68-.07,1.09-.12l-.12-.35c.99-.09.65-.81.74-.95.36-.5.19-.27.41-.75.08-.18.36-.31.4-.58.05-.32-.25-.88-.17-1.19s.34-.44.45-.72c.12-.3.36-1.25.42-1.57.05-.28.43-.45-.07-.62l.14-.47-.25-.13c.23-.28.15-.65.61-.55-.25-.53.15-1.02.12-1.57-.69.27-.69.2-1.33-.12l-.3.36c-.29,0-.73-.45-.85-.45-.1,0-.4.3-.63.3-.17,0-.26-.18-.37-.2-.23-.04-.36.34-1.1-.12-.16-.1-1.05-1.04-1.07-1.18-.08-.47.59-.68.81-.88.14-.13.14-.46.39-.56.41-.17,1.38.05,1.84-.06.15.48.58-.05.91.35l.07-.37c.71-.16,1.57.35,2.19.37.46.02.72-.68,1.2.24h.24s.12-.24.12-.24l.41.26c.15.25-.27.53-.22.59.01.02.19-.03.22.06.1.27-.21.55.45.67l.06.18c-.48.34-.36.96-.61,1.47l.25.23c-.31.22-.26.57-.24.91l.49.06c-.1.15-.57.47-.57.61,0,.1.17.23.17.36-.01.32-.56,1.16-.57,1.23-.01.15.12.32.12.47,0,.2-.32.59-.29,1.02.02.34.54.68-.3.73.34.36.15.46-.11.8l.35.41-.85.61.36.36c-.53.04-.23.34-.28.46-.02.05-.55.67-.57.72-.11.42-.21,1.19-.12,1.61-.05.06-.97.11-1.19.2-.26.11-1,.9-1.33.98-.25.06-.5.03-.76.03l-.02.46-1.32.07-.12.44-1.52-.57-.35.44c-.4-.08-1.36-.75-1.64-.79-.25-.04-.3.45-.51-.15l-.21.09c-.19-1.02-1.55-1.08-1.48-2.28h-.47c.16-.51-.25-.49-.34-.7-.07-.17-.02-.43-.11-.62-.16-.38-.4-.72-.53-1.11-.25-.21-.28.52-.42.12-.27-.72.33-.73.3-.79-.27-.19-.27-.48-.24-.79l-.24.12c0-.41.03-.8-.08-1.2-.09-.35-.63-.44-.29-.98l-.48.12v-.54s.36-.07.36-.07c.06-.21-.24-.06-.25-.18-.03-.27.24-.41.25-.6,0-.28-.4-.58,0-1.03h-.37c.38-.43.1-.9.14-1.25.02-.16.2-.31.22-.52.03-.39-.34-.77-.33-1.07s.33-.33.32-.37c-.03-.35-.35-.54.01-.98l-.49-.12c.57-.46.35-.92.49-1.43.01-.05.35-.9.39-.97.1-.19.33-.2.34-.29.09-.5-.93-1.74.35-1.87-.28-.52.3-.73.43-1.2.07-.28,0-.84.16-1.17.26-.57.83-.86,1.18-1.37l-.19-.3c.48-.17.24-.38.26-.4.08-.12.6-.2.72-.35.14-.17-.01-.59.01-.62.04-.05.21-.07.27-.15.25-.35.16-.63.8-.6-.49-.57.12-.83.73-.73.04-.2-.45-.04-.18-.37.21-.26.76-.21,1.08-.38s.47-.65.64-.7c.19-.06.41.1.57.07.31-.05.72-.32.99-.31.24,0,.98.31,1.34.19.16-.05.34-.62.77-.42Z"/><path d="M100.37,55.64l-.36.72.43.11c.16.22-.1.83.29,1.04-.17.06-.58.68-.58.82,0,.22.01.87.04,1.08.04.38.43.74.43,1.13,0,.34-.33.78-.31,1.26.01.41.48.74.06,1.04l.36.18c-.52.84.15,1.93-.37,2.72.41.23,0,1.18.61,1.58-.48.18-.26.76-.36,1.15l.36-.12.11.41-.46.38c.45.26.03.72.04.85.2,1.53-.03,2.8.17,4.39.04.31-.29.47.15.58l-.37.6.36.12c-.37.66-.05,1.37-.37,2.06.01.28.26.31.49.31.17.45-.48.45-.49.78l.49.06-.24.18.24.12c-.09.43-.5.57-.48.61.18.45.08.25.13.71.07.72.16.44.48.57.02,0-.14.44-.15.46-.08.07-.31,0-.33.02-.09.08.22.46.23.66.02.43-.24.47-.32.61-.11.21.14.4-.52.61l.24.42-.41.11c-.23-.51-.36-.2-.55-.29-.3-.15-1.2-1.01-1.2-1.33,0-.4.4-.88-.25-.8l.04-.24-.29-.12c-.07-.08.37-.5.41-.6.28-.75-.1-1.41-.17-2.12-.05-.55.23-.89-.14-1.21l.25-.55c-.37.06-.05-.31-.31-.55.5-.73.18-1.7.39-2.55l-.45-.37.37-.85-.35-.23c.37-.42.12-.9.16-1.28.11-1.04-.11-1.3-.05-2.12.03-.37.5-.64.03-.68l.43-.65c-.4-.45-.57-.95-.55-1.58,0-.16.17-.26.16-.43,0-.26-.26-.78-.18-1.12l-.37-.08.23-1.76c-.35-.37.25-2.22.07-2.48-.05-.08-.27-.08-.31-.2-.12-.43.2-.89.02-1.31l.23-.12c-.4-.41,0-1.4-.04-1.69-.01-.14-.29-.23-.3-.36,0-.08.17-.27.18-.46.02-.26-.13-.75-.08-.98.06-.33.39-.71.36-1.1-.03-.34-.36-.19-.37-.42.62-.45,2.26.19,2.51.82s-.22,1.53.52,1.48Z"/><path d="M87.28,10.33c.12.29-.35.5-.36.56-.01.1-.02,1.3.02,1.36.04.05.22.06.27.14.19.28-.22.85-.26,1.09s.07.77.04,1.12c-.04.32-.26.67-.27.89-.01.2.49,1.31.41,1.57-.26.84-.12.81-.16,1.62,0,.16-.18.29-.18.44,0,.23.35.43.35.73,0,.25-.27.4-.24.67h.48c-.37.4-.83,1.86,0,1.82l-.48.6h.23s-.12.42-.12.42l.26.24c.01.51-.36.5-.38.73-.12.99.12,2.38.11,3.4,0,.85-.25,1.96-.16,2.74.07.59.64,1.41.49,1.95-.05.18-.29.35-.28.51,0,.14.22.32.2.6-.03.44-.68,1.02.12,1.34-.62.49.09.76.11,1.08.03.46-.34.57-.34.61.02.27.35.75.34.98,0,.2-.19.34-.2.58-.02.55.4,1.61.4,2.21,0,.18-.16.36-.15.58.03.52.12,1.11.3,1.61l-.34.18.24.3c-.1.21-1.16.53-1.41.51-.98-.1-.54-.61-.8-1.02-.17-.26-.54.01.03-.7l-.48-.06.21-.89c0-.27-.77-.62.02-.98-.19-.72-.65-1.82-.6-2.55.02-.31.29-.71.25-1.09-.03-.26-.21-.43-.21-.48,0-.16.45-.29,0-.32l.2-1.14-.23-.11c.44-.46.03-.69,0-.99-.02-.18.07-.34.06-.48-.06-.63-.2-1.3-.27-1.94l.32-.22c-.09-.14-.07-.32-.12-.46-.08-.2-.38.07.02-.63l-.35-.24c0-.34.41-.49.41-.79,0-.26-.27-.3-.3-.45-.03-.16.36-.43.27-.88-.05-.29-.31-.24-.3-.44l.35-.98-.34-.24.25-.65-.49-.06c.32-.08.14-.44.49-.61l-.24-.11c.39-.8.32-1.3.18-2.11-.04-.27.23-.45-.2-.57.41-.56.05-.84.06-1.21,0-.18.23-.42.25-.65.03-.29-.2-.57-.06-.86l-.37-.06.02-.41h.35c-.16-.17,0-.69-.03-.72-.14-.19-.43-.16-.34-.74h.34c.33-.54-.22-.95-.22-1.15,0-.24.41-1.23.21-1.61-.03-.05-.3,0-.21-.33.03-.11.3.02.24-.18h-.36c.13-.22.04-.56.12-.75.07-.16.35-.18.36-.27,0-.06-.23-1.03-.36-.97l.25-.48-.22-.11.13-.89c.48,0,.48-.5.86-.66.2-.08.4.03.43.01.03-.02.39-.77.47-.06.03.3.24.82.46,1.05.11.12.27.13.42.12Z"/><path d="M66.02,53.75s.02.14.14.19c.1.04.31-.03.38.02.12.09-.11.77.38.72l-.36.24.37.54-.25.36.24.23c-.43.41-.36,1.12-.23,1.68,0,.02.09.12.16.3.02.05.33-.06.06.41-.06.1-.21.11-.23.18-.06.34.18.95,0,1.37l.24-.12c.23.5-.24.76-.25.81-.03.16.09.34.07.47-.03.22-.44.41-.18.77h.47s-.25.2-.25.2l.23.48-.59.37c.11.31,0,.66.02.96.01.16.17.28.18.36,0,.12-.17.26-.17.36,0,.12.51.46.45.72-.05.21-.58.14-.41.69.05.16.24.3.25.41.03.29-.37,1.49-.44,1.83-.08.41.22,1.02.12,1.42-.03.11-.39.03-.19.33.13.19.42.16.43.36l-.59.42.35,1.4h-.36c.32.59-.2,1.02-.18,1.57,0,.17.15.25.16.33.02.16-.18.28-.2.47-.05.33.32.79-.13,1.09l.48.19-.12.23h.37s-.58.67-.58.67c-.08.46.2,1.14.18,1.48-.03.71-.1.36.03,1.2.07.42-.36,1.06.24,1.32l-.48.73.24.12c-.13.46-.5.34-.72.5-.11.08-.41.54-.44.54-.36-.01-.45-.42-1.02.11l-.14-.59c-.47.05-.6-.38-1.07-.45.18-.56.14-1.25.25-1.8.05-.26.37-.42.13-.74l.22-.06c0-.25-.5-.03-.47-.41.02-.31.4-.39.44-.46.1-.15.1-1.39-.02-1.65,0-.02-.38-.04-.19-.26.01-.02.22.03.24-.08.08-.33-.2-1.1,0-1.49h-.37c.18-.18,0-.53.03-.59.02-.05.75-.44.09-.68l.36-.91-.36-.06c.28-.6.75-.67.36-1.45l.25-.07-.25-.3c.14-.29.58-.74.47-1.09-.04-.13-.38-.11-.34-.36-.01-.22.26-.54.25-.73,0-.05-.59-.26,0-.86l-.23-.11c.2-.57.35-1.04.3-1.65-.02-.16-.21-.4-.18-.53s.33-.14.36-.27c.04-.19-.08-.41-.07-.59.08-1.08-.11-1.48-.18-2.42-.03-.37.21-.82.24-1.1,0-.04-.39-.03-.24-.58.04-.13.31.01.25-.26-.6-.17.01-.63-.02-.83-.05-.31-.69-.66.02-1.11l-.24-.24.36-1.09-.36.06c-.04-.31.19-.52.24-.8.05-.32-.27-.67.24-.83l-.48-.24c.06-.4.45-.27.48-.3.06-.06-.17-.35-.1-.46.02-.04.51-.5.59-.27l.26-.59c.38.24.61.09,1.03.28Z"/><path d="M36,53.58l-.12.36c.88.01.66,1.33.85,1.85.06.16.33.16.36.28.01.05-.25.79-.28,1-.06.43-.27,1.59.05,1.67l-.37,1.2.36-.06c.22.54-.35.67-.38.91-.04.39.19.68.2.97.01.27-.24.59-.06.91l.36-.12-.12.65.24.08c.05.2-.17.08-.21.14s.05.22-.03.38c-.04.08-.25.07-.25.16-.02.19.15.46.14.71-.03.46-.49.42,0,.84l-.24.99.24.12-.25.9.49.06c.01.12-.05.38-.11.47-.13.18-.5-.11-.37.43l.48-.12c.14.53-.36.75-.37.8-.03.5,0,1.11-.04,1.66-.03.28-.26,1.09-.27,1.36,0,.17.27.66.09,1l.59.27c-.68,1-.27,2.01-.23,3.08.01.41-.32,1.1.11,1.03l-.24.36h.49c.05.31-.06.46-.36.49l.36.24c-.64.66.02.89.02,1.51,0,.29-.33,1.45-.74,1.39l.24.48c-.08.08-1.29,0-1.45-.06-.5-.17-.93-.98-1.33-1.33.07-.19.18-.41.17-.61,0-.11-.28-.91-.27-.97.02-.19.51-.33.45-.72,0-.06-.24-.06-.25-.14-.06-.3.19-.58.2-.83,0-.31-.28-.94-.15-1.37l-.41-.21c-.05-.53.37-.72.35-1.33s-.56-1.03-.1-1.58l-.24-.06.24-.12v-.24c-.6-.19-.19-1.31-.37-1.82h.37s-.24-.3-.24-.3l.36-.37-.06-.18c-.43-.12-.18-.24-.22-.33-.01-.03-.19-.02-.19-.08,0-.54.53-.75.55-.85.01-.05-.07-1-.09-1.08-.03-.1-.23-.08-.23-.15-.02-.24.21-1,.23-1.34.04-.86-.16-1.95-.18-2.78,0-.18.12-1.1.08-1.14l-.36-.06c.06-.58.76-.45.6-.95-.13-.4-.27-1.06-.32-1.59-.02-.26-.14-1.16.2-1.03v-.12c-.77-.17.25-.69.25-.91,0-.17-.32-.37-.13-.67l-.48.06c.08-.43.45-.92.52-1.3.04-.24-.11-.54.01-.71.07-.09.29-.08.39-.16.56-.49.58-1.4,1.5-1.04Z"/><path class="cls-1" d="M154.07,26.32l-.48.36c-.03-.31.19-.41.48-.36Z"/><path class="cls-1" d="M79.24,55.67c.08.06.11.24.21.32.59.52.32-.16.73,0,.24.57.58.37.91.55.2.11.56.46.73.49s.33-.31.65-.08c.21.15.13.46.23.59.15.18.83.5.94.58.14.1.21.37.36.49s.31.07.34.09c.15.13.25.43.51.44-.16.28-.24.4-.12.72l.6-.12c-.21.52.28.9.34,1.18.06.24-.1.45-.08.69.05.74.25,1.04-.25,1.8-.13.2-.55.17-.38.56l-.34.02c0,1-1.14,1.24-1.75,1.68-.4.29-.69,1.1-1.29.86v.35c-.38-.12-.83.27-1.04.26-.07,0,0-.34-.37-.25-.05.01-.05.22-.14.24-.21.05-.5-.05-.69.01-.21.07-.13.33-.23.44-.08.09-.72.31-.87.28-.57-.92.42-1.74-.2-2.6.48-.18.32-.51.49-.91h-.48c-.09-.28.19-.79.19-.91,0-.16-.32-.68-.27-.97.03-.15.29-.25.29-.36,0-.05-.36-.59-.4-.85-.03-.17,0-1.23,0-1.46.02-.39.46-1.13.54-1.57.03-.09-.18-.03-.24-.14-.11-.18-.13-1.03-.13-1.32,0-.08.42-.51.37-.78l-.48-.06c.3-.32.92-.54,1.3-.27Z"/></g></svg>