<?xml version="1.0" encoding="UTF-8"?><svg id="Layer_2" xmlns="http://www.w3.org/2000/svg" viewBox="0 0 289.48 107.99"><g id="akara"><path d="M99.46,9.17h.2c.05.66.93.89,1.49,1.12.7.29,2.69.62,3.17.9.14.08,2.28,1.85,2.42,2.03.71.91.8,1.97,1.22,2.76.16.3,1.24,1.49,1.25,1.59.05.47-.19,1.69-.15,2.26.05.66.45,1.82.36,2.53,0,.06-.61.46-.71.99s.38.88-.33,1.23c-.51,2.08-2.03,3.62-3.34,5.23l.38.73,1.03-.1c.31,1.21,1.22,1.2,1.88,1.73.32.26.45.69.69,1.01.34.47.82.27.63,1.37l.79.37.05,1.55.62.14c.04.13-.06,2.6.41,2.21l.21-.42c.4.65.42,1.55.65,2.16.06.16.39.17.5.63.2.87-.4,1.05-.42,1.55-.01.33.39,1.26.45,1.79.11.87-.36,2.68.95,2.55-.83.91-.07,1.31,0,2.02.11,1.32-.13,1.17.31,2.63.13.45-.51.74.55.64-.15.54-.29,1.26-.24,1.81.04.41.46.28.45.41-.03.95-1.83,1.87-2.44,2.43-.09-.65-1.36-1.1-1.39-1.19-.16-.6.11-1.81.02-2.26-.03-.16-.4-.12-.43-.29-.44-2.13-.52-4.72-.86-6.96l-.39-.18c.25-2.2-.52-5.2-1.18-7.33-.22-.7-.95-1.13-.96-1.2-.03-.17.17-.43.1-.71-.26-.91-1.49-1.7-2.01-2.2-.3-.3-1.22-1.5-1.31-1.55-.5-.29-3.62-.5-4.23-.25-.22.09-.21.46-.55.51-.3.04-.67-.18-.96-.09-.31.1-.29.6-.47.63-.47.08-1.32-1.09-1.79-.43-.04.05.03,1.16.06,1.22.27.55,1.03,4.19.98,4.82-.07.88-.42,1.5-.21,2.74.08.47.49.87.46,1.26-.04.45-.57.64-.6.85-.06.39.58.57.59.67.05.53-.47,1.47-.42,2.08.04.55.52,1.68.56,2.4.09,1.54-.05,3.33.05,4.81.04.62.52,1.01.44,1.68-.04.32-.76,1.79-1.07,1.93-.36.16-1.82-.16-2.06-.37-.28-.23-.37-1.31-.49-1.7-.06-.17-.4-.16-.41-.29-.04-1.01.51-2.81.36-3.98-.06-.47-.46-.85-.48-1.09-.02-.28.29-.59.24-.98s-.54-.39-.55-.51c-.04-.46.42-.71.43-1.04.01-.41-.64-1.29-.61-1.92.02-.41.52-1.1.36-1.85-.09-.4-.49-.66-.53-.92-.2-1.26.58-4.74.14-5.84-.07-.18-.36-.16-.4-.32-.21-.85,1.01-2.12-.43-2.4.25-.46.46-.82.45-1.38-.01-.37-1.19-.58.19-1.26l-.85-.32.64-1.59c-.57-.08-.58-1.27-.5-1.77.1-.6.42-.29.5-.66l-.64-.33c.56-.91.26-1.26.07-2.14-.04-.19.15-.44.13-.58-.02-.16-.47-.13-.53-.53-.03-.2.24-1.27.2-1.82-.07-1.05-.6-2.38-.52-3.38.06-.88.77-1.25.29-2.39-.1-.24-.45-.23-.49-.4-.27-1.31.11-2.62.09-3.91-.02-.91-.8-1.71.34-2.6.31-.24.62-.2.89-.34.17-.09.17-.39.31-.41.49-.08,1.86.36,2.29.34.52-.02.93-.43,1.68-.33.81.1,2.27,1.57,2.46.21ZM104.02,15.61c-1.13-.91-1.28-.77-2.44-1.26-1.3-.55-3.64-1.81-4.99-1.78-.47.01-1.14.64-1.8.41l.65,2.01c-1.08.83.04,3.28.17,4.44.05.43-.13,1.53-.07,2.12.03.3.36.66.41,1.14.09.87-.51.92-.52.99-.15.63.38.46.43.67.13.59-.04,2.65-.02,3.35.02.87.3,1.57.02,2.44.61.14,1.13-.62,1.2-.63,1.01-.22,2.6-.11,3.61-.59.86-.41.77-1.13.9-1.21.45-.27,1.51-.28,1.93-.89.13-.19.09-.55.22-.74.94-1.43,2.4-3.59,2.24-5.32-.02-.19-.32-.42-.35-.69-.07-.5.12-1.57,0-2.2-1.23.22-.3-.87-.57-1.44-.13-.28-.68-.54-1.01-.8Z"/><path d="M132.66,8.6c.11.05.15.37.27.44.18.1.44-.15.74.11.42.36.88,2.12,1.24,2.8.19.35.52.38.53.41.03.09-.18,1.61-.17,1.97.01.49.35.89,0,1.39l.63-.21v2.96s.64-.21.64-.21l-.42,1.27.38.1c.21.96-.25,3.03.48,3.4-.47.7-.18,1.78.2,2.54l-.43.21c.11.32.84.83.85.89.07.4-.18.83-.11,1.15.19.82,1.33,1.86.52,2.83l.45.24c-.61.9.4,1.4.42,1.5.08.43-.19.85-.15,1.2.06.53.44,1.2.53,1.78.23,1.57.19,2.58.28,4.19.03.51.94.97-.02,1.26.58.18.29,2.78.43,2.85h.63c.27.58-.42.68-.43.75-.06.49,1.06,1.4.87,2.51l-.43.23c.51,1.85,1.57,3.9,1.86,5.77.06.36-.2.69-.17,1.01s.42.57.42.86c0,.32-1.01,1.55-.49,2.33l-.25.24-1.78.06-1.28-3.26-.64-.22c.14-1.51-.56-2.9-.55-4.43,0-1.13-.69-.61-.74-.86-.12-.63.43-1.07.42-1.48s-.71-2.14-.77-2.58c-.04-.29.18-.61.15-.91h-.64c.65-1.46.37-3.22-.42-4.57-.73.1-1.62.31-2.37.22-1.31-.16-2.2-.45-3.7-.14-1.58.33-2.68.43-4.17.41-.43,0-1-.24-1.42-.37.04.61-.53,1.09-.6,1.64-.15,1.16-.11,1.29-.41,2.53-.15.62.26,1.62-.47,1.54l.4.53c-1.28.76-.04,1.64-.19,2.1-.07.22-.49.24-.63.5-.06.1-.53,2.08-.55,2.28-.09,1.04.11.64-.21,2-.51,2.16.01,3.05-1.5,4.96-.13.16-.09.46-.3.65-.75.68-2.33.67-2.68-.44-.03-.1,0-1.99.02-2.09.07-.4.71-.4.84-.78.03-.09.35-1.66.35-1.75,0-.28-.35-.45-.33-.75s.44-.36.52-.57c.25-.6.07-1.13.13-1.63.16-1.4.53-4.06.84-5.43.07-.3.49-.53.53-.93.03-.35-.22-.72-.23-1.07,0-.38.4-.27.44-.44.05-.21-.26-.78-.17-1,.13-.3.5-.28.58-.37.09-.12-.21-.55-.15-.87.19-1.01,1.17-2.19,1.21-3.24,0-.08-1.11-.49.02-1.04-.82-.53.21-1.84.35-2.58.29-1.53.47-3.29.81-4.83.22-.98.23-1.53.38-2.3.07-.35.84-.65-.05-.86.07-.59.58-1.14.73-1.6.5-1.53.76-3.1,1.39-4.71.32-.83,1.26-3.9,1.37-4.8.03-.26-.29-.38-.19-.81.13-.54,2.89-4,3.4-4.27s.67-.03.98-.1c.78-.16.89-.63,1.99-.06ZM131.45,12.77c-1.4.09-.86.48-1.2,1.22-.18.38-.88.65-1.05,1.52-.1.53.15.97.1,1.16-.05.22-.46.25-.54.39-.11.19-1.13,3.86-1.14,4.07-.03.75.24,1.77-.09,2.64-.55,1.43-1.58,3.62-1.7,5.19-.03.41.32,1.01.22,1.41-.09.36-.52.57-.61.82-.11.31-.5,2.31-.55,2.66-.05.39-.33,2.65.31,2.63l.32-.63c.48.21,1.49.6,1.99.37.31-.14.28-.49.36-.56.07-.05,1.32.35,1.75.32.67-.05,1.82-.72,1.93-.74.16-.02,1.33.23,1.38.17v-.64c.36-.04.69.62.79.64.34.06.75.01,1.32.12,1.08.2.45-1.05-.19-1.28.88-.99.06-.9,0-1.09-.1-.33.13-1.53-.05-2.06-.07-.22-.74-.52-.92-1.51-.09-.51.16-1.86.07-2.12-.98-2.76-.46-7.01-1.29-10.31-.21-.85-.97-2.14-1.17-2.87-.11-.39.15-1.06-.04-1.53Z"/><path d="M22.24,8.19c2.09,1.21,2.35,1.47,3.16,3.73.32.89.61,1.74.93,2.48.24.56.58,1.17.23,1.74h.63s0,2.43,0,2.43l.65.12c-.07.51-.34,1.01-.21,1.55.05.22,1.19,2.24,1.23,2.37.03.11-.25,1.59-.12,2.28.11.6,1.3,1,.15,1.52.75.64.18,1.28.22,1.9.05.79.81,1.39.81,1.48,0,.44-.35,1.41-.3,1.93.04.39.45.57.49,1.13.03.38-.32.82-.3.97s.93,1.14,1.22,1.27c-.03.3-.36.5-.42.85-.17,1-.15,3.02.04,3.96.21,1.06.7,3.07.8,4.09.08.76-.79,1.42.43,1.9-.28.44-.45,1.36-.43,1.88,0,.16.59.03.43.65-.02.08-.34.09-.37.15-.25.48.43,1.28.51,1.78s-.07,1.74,0,2.37c.05.52.49,1.52.44,1.8-.05.32-.56.66-.67.98s.26.87-.34,1.18l-2.52-.66c.49-.83-.21-.7-.24-.86-.08-.49.34-1.93.23-2.51-.1-.54-.61-.44-.66-.68-.22-1.03.25-2.51.23-3.55-.03-1.12-.92-3.36-1.07-4.68v-.2c.45,0,.43-.98.43-1.47,0-.14-.47-.13-.55-.53-.09-.45.22-.66.23-1.09.03-1-.5-1.07-.5-1.13.01-.39.29-1.17.4-1.6l-1.91-.21.21.42c-.53.21-1.09-.36-1.42-.38-.26-.02-.45.3-.6.31-.2,0-.62-.5-1.06-.46-.38.03-1.43.7-1.93.76l-.41-.44c-.72-.05-2.64,1.04-2.98,1.07-.5.04-.79-.36-1.08-.39s-.75.09-1.45.04c-.13,0-1.2.43-1.27.55-.13.19-.04.53-.12.68-.11.2-.37.17-.4.32-.18.8-.2.83-.41,1.5-.25.81-.28,2.07-.48,2.66-.12.35-.71.39-.75.66-.05.3.34.99-.08,1.49l.44.22c-.07.59-.81.48-.86.66-.12.41.03,1.31-.03,1.68-.02.14-.33.09-.35.21-.12.76.29,2.06-.46,2.76l.42.11v.31s-.83.34-.83.34c-.03.96.11,2.61-.86,3.06.29.22.54-.04.42.53-1.28-.1-.96,1.19-2.56.76-.44-.12-.76-1.26-.77-1.66-.01-2.21,1.31-4.69,1.32-6.07,0-.33-.35-.49-.3-.91.08-.67.74-.97.86-1.31.26-.79-.28-1.57.27-2.57.15-.27.52-.27.56-.45.07-.36-.04-.81.11-1.55.09-.46-.3-.91.72-1.06l-.42-.53c1.03-.39.75-1.88,1.1-2.72.17-.41.9-.24.55-1.52-.04-.14-.39-.05-.38-.2.02-.26.52-.53.56-.61.31-.62.23-1.14.36-1.66.88-3.77,2.28-11.41,3.75-14.51.46-.98.11-1.15.22-1.81.03-.19.79-.56.81-.61.04-.14-.24-.43-.15-.57.08-.12.51-.15.82-.81.48-1.06.92-2.83,1.38-3.89.28-.64.92-1.11.98-1.98l2.73-1.92c.26-.13.39.08.56.18ZM22.33,12.55l-1.06.53.42.63c-.2.29-.82.44-.95.74-.34.78-.66,2.12-1.07,2.96-.25.52-.85.48-.61,1.51-.18.23-.68.07-.77.34-.1.31-.53,1.97-.53,2.17,0,.32.34.52.3.72-.05.24-.49.39-.53.65-.05.31.21.83.08,1.44-.21,1.04-.77.53-.8.58-.13.2.22.7.21.93,0,.11-.34.07-.45.43-.59,2.02-.66,4.51-1.16,6.57-.19.78-.92,1.22-.51,2.22.44-.02.95.09,1.38.03.39-.05.28-.39.45-.43.27-.06,2.23-.16,2.71-.18.57-.02,2.18.25,2.52.16.25-.07.17-.62.66-.63.33,0,.75.45,1.29.45.61,0,1.5-.77,2.43-.23.07-.05.19-1.71.17-1.8-.01-.08-.55-.48-.55-1.34,0-1.33.11-1.15-.19-2.68-.06-.29.16-.67.14-.82-.03-.21-.52-.18-.62-.48-.13-.38.24-1,.22-1.46-.02-.4-.44-.29-.46-.44-.04-.34.31-.75.22-1.14l-.42.22c.13-.77-.19-1.49-.22-2.21-.03-.78.19-1.19-.1-2.01-.47-1.34-.59-1.31-.73-2.63-.02-.15-.43-.11-.45-.26-.03-.2.31-1.69.22-1.77h-.63c.62-1.46-.74-1.62-.64-2.76Z"/><path d="M77.94,10.77c.04.07.24.08.31.25.14.33-.05.93.34,1.33h.74c-.24,1.35.61,2.58.64,3.79h.63c-.45,1.03.21,1.37.32,1.91.19.87.24,2.87.49,3.52.12.31.46.3.46.41,0,.33-.37.9-.21,1.36l.63-.21-.18,1.75c.16.4.44.58.82.36-.16,1.02-.29,2.24.05,3.24.14.43,1.71,1.04.38,1.42v.21c.89-.07.2,1.06.28,1.56.03.17.29.39.34.68.38,2.13,1.13,4.3,1.29,6.44h.64c-.68.99-.13,1.07.1,1.72.14.4.33.7.33.75.05.32-.3.76-.22,1.14h.64c-.44,1.05-.12,2.35.23,3.44.06.17.38.17.41.31.08.4-.2.84-.1,1.13.08.24.65.53.69.98.03.33-.31.58-.31.81,0,.31.47.6.53.89.18.87-.2,1.63.4,2.97.15.33.69.19.48.79-.11.33-.5.09-.64.24-.23.25-.29.98-.4,1.04l-.86-.12c-.1.1.24.79-.32.64-.42-.07-1.52-1.52-1.68-1.92-.05-.13-.46-1.5-.47-1.58-.02-.25.35-.53.34-.63,0-.16-.57-.25-.7-.58-.18-.48.29-.86.23-1.28-.08-.56-.75-1.66-.92-2.26-.44-1.49-.16-3.21-.86-4.83-.12-.27-.48-.25-.5-.4-.05-.46.42-.96.38-1.42-.04-.52-.67-1.89-1.1-2.27-.91-.81-1.1-.37-1.92-.44-.31-.03-.53-.35-.81-.35-.49,0-.99.65-1.74.62-.39-.02-.28-.41-.46-.45-.88-.2-2.86.39-3.88-.21l.21.63c-.17.13-1.39-.26-1.59-.17-.19.08-.17.42-.42.54-.19.09-1.09-.47-1.42.58-.23.72.32.97.26,1.47-.02.13-.39.1-.43.27-.13.53.14,1.34,0,1.84-.06.2-.41.12-.42.14-.07.1.32.36.38.57.28,1.12-.86,2.82-1.15,4.01-.13.53-.69,4.39-.64,4.73.06.37.43.6.35,1.16-.06.45-.74.84-.82,1.55-.06.5.41,1.57-.1,1.91-.94.63-.22.17-.62.84-.07.12-.41.14-.49.25-.18.26.48.95-.21.86l-.32-.84-.32.43c-.58.09-1.59-1.45-1.58-1.81,0-.25.38-.58.44-1.05.24-1.91.2-2.82.64-4.88.14-.64-.21-1.27.4-1.7l-.42-.21c1.2-.91.16-1.69.48-2.61l.58-.04c-.26-.71-.65-1.46-.09-2.11.17-.19.5-.2.52-.22.06-.09-.33-.46-.35-.73-.04-.48.56-.44.58-.84.06-.81-.43-1.15-.33-2.12.22-2.13,1.04-4.38,1.09-6.32,0-.33-.21-1.05-.16-1.26.07-.26.52-.19.58-.45.14-.7-.36-2.37.27-3.2l-.63-.21c.24-.3.11-.83.63-.75l-.44-.33c-.18-.97,1.67-1.4.46-1.58v-.3c1.05-.45.38-.65.47-1.24.1-.64.34-1.71.48-2.51.07-.4.84-.44.52-1.23l-.42.42c.05-.43.31-1.25.49-1.65.04-.08.41-.11.52-.4.34-.89-.11-2.03.08-2.68.1-.34.54-.5.69-.8.44-.88.73-2.45,1.11-3.16.13-.24.69-.04.37-.86.96-.02,1.56-1.47,1.96-1.7.55-.31,1.39-.05,1.86-.78,1.09.59,1.51.67,2.11,1.77ZM76.44,17.16c-.13-.47.02-1.23-.1-1.73-.16-.67-.69-1.43-.62-2.24-.44.05-.3.62-.48.79-.12.12-.47.05-.67.27-.29.32-1.09,2.52-1.14,2.9-.04.29.42.53.38.78-.06.33-.72.38-.88.86-.13.39.06.91-.04,1.39-.1.51-.52,1.08-.55,1.38-.03.4.32.84.19,1.23-.09.29-.6.27-.64.48-.06.32.24.73.18,1-.05.24-.42.39-.47.54-.2.72-.27,1.84-.4,2.59-.19,1.09-.83,2.52-.19,3.45-1.2.8-.48.61-.58,1.68-.07.72-.33,1.51-.43,2.23.53,0,.81-.46,1.38-.44.4.01.63.31.84.34,1.36.16,3.46-.95,4.67-.35l.19-.38,2.99.37c.54-.48.71-.97.48-1.72-.2-.63-.62-1.14-.73-2.12-.18-1.72-.15-1.3-.67-2.84-.16-.48.14-1.65-.35-2.82-.17-.41-.54-.45-.53-.5.03-.21.39-.67.41-.87,0-.08-.33-.07-.41-.26-.12-.31,0-.78-.11-1.01-.28-.66-.7-.59-.77-1.69-.1-1.6-.59-1.96-.96-3.33Z"/><path d="M42.89,11.09l.63,1.14c-1.1.33.15,1.73.19,1.94.02.11-.56,1.17-.42,2.11.06.43.49.27.44.4-.18.53-.74,1.03-.62,1.9l.62.11c-.49,2.79-.77,6.16-.44,9.01.04.35.63.37.44.94.14.14.84-.37.98-.5.52-.5.98-1.72,1.47-2.24.77-.81.46-.19,1.22-1.43.28-.46,1.23-.79,1.33-.9.17-.21-.19-.6-.03-.85.36-.6,2.15-1.21.96-2.33l1.06-.22-.18-.39c.92-.21.4-.69.51-1.12.28-1.11,1.25-1.05,1.35-1.38.06-.2-.16-.53-.11-.79.2-1.14.72-.83,1.15-1.24.21-.2.04-.62.17-.8.78-1.09,2.65-1.93,2.44-3.57l.73-.23-.11-.43,1.17.43.21-.43c.03.45,1.35,1.69,1.38,1.8.22.77-.37.4-.57.58-.74.65,0,1.6-.48,2.35-.16.25-1.34.64-1.73,1.3-.17.29,0,.64-.33,1.11-1.16,1.62-2.53,3.42-3.45,5.09-.15.27-.1.67-.24.94-.3.55-1.17.46-.63,1.32l-.33.31-.51-.19c.26,1.35-.4,1-.85,1.38-.32.27-.12.76-.25.91-.09.1-.46.02-.69.26-.2.21-.63,1.09-.83,1.39-.31.48-.67.25-.7,1.34-.04,1.26.83,1.43,1.21,2.08.18.31.39,1.53.62,1.86.37.54,1.39,1.29,1.79,2.02.14.26.53,1.1.33,1.26h.62c-.33,1.36.49,1.24.86,1.85.31.5.54.97.85,1.47.35.56.04,1.35,1.06.91-.52,1.05.49,1.44.93,2.13.52.82,2.24,3.58,2.51,4.27.22.56.06,1.05.2,1.49s.74.48.97.93.14,1.44.36,1.76c.14.2.56.15.67.27,1.25,1.29.16,2.07.06,3.52l-1.97.22c-.73-.47-.7-1.43-1.02-1.97-.34-.6-1.23-1.21-1.41-1.57-.32-.64-.66-2.23-1.01-3.01-.24-.55-.9-1.93-1.18-2.38-.21-.35-1.6-1.38-1.64-1.48-.1-.24.21-.58.19-.88,0-.11-1.22-1.17-1.47-1.59-.67-1.1-1.38-2.32-2.03-3.44-.26-.44.2-.98-.72-.85.42-1.39-.8-1.73-1.04-2.15-.2-.34-.1-.4-.47-.95-.33-.49.03-.88-1.06-.69.42-.93-.47-1.13-.74-2.12-.14.55-.66.38-.95.76-.26.34.05.88,0,.93-.17.14-1.05-.05-1.07,1.16-.01.64-.13,1.23-.13,1.49,0,.18.44.45.47.84.04.36-.02,2.06-.54,1.81.84.68-.55,1.66.62,2.21l-.63,1.28.43.21v.43s-.41.19-.41.19c.09.2.2.43.2.65-.02,2.9-.03,5.64.19,8.5.05.62-.55.86.44,1.24-1.4,1.07.39,2.13-1.2,3.25-.85.6-1.51,0-1.58.65l-.3.02-.54-1.89h-.63c-.08-.44.39-.56.43-.97.06-.69-.22-2.16-.15-2.99.03-.33.33-.53.35-.81.05-.62-.52-.71-.57-.85-.3-.81.57-1.65.58-2.55l-.63-.11c.25-.85.07-1.67.1-2.44.01-.37.72-.85-.32-1.26.65-.61.12-1.83.26-2.49.08-.39.61-1.03.58-1.52,0-.07-.59-.22-.57-1.12.11-4.67.06-9.49.36-14.13l-.43-.22c.97-.74-.09-2.19-.01-2.74.02-.13.4-.1.44-.27.06-.26.04-4.93.01-5.23,0-.08-1.15-.57,0-1.08-.47-1.08-.81-2.81-.21-3.92l-.63-.1c.72-1,.29-2.19.33-3.29l2.53-1.42c.76.05,2.13,3.59.75,3.78Z"/><path d="M42.25,74.38c.25.25.42.02.41-.32-.05-3.58-.55-7.27.06-10.86l1.01-.16.34.54-.2,14.73-.89.51c-.75-.01-1.97-3.5-2.25-4.3-.56-1.55-.91-3.16-1.43-4.72-.2-.6-.66-.86-.44-1.56-.37-.05-.2.48-.21.74-.05,1.27-.19,2.56-.23,3.81-.05,1.72.39,3.52-.2,5.19l-1.03-.56v-14.67s1.23-.44,1.23-.44c1.78,3.8,2.3,8.12,3.83,12.07Z"/><path d="M18.16,64.36c.21.24.53.18.72.65.75,1.82-.17,3.64-1.64,4.71,2.54.27,3.81,3.07,3.38,5.39-.1.56-1.72,2.54-2.21,2.87-.19.12-1.85,1.01-1.96,1.04-.12.04-1.29.18-1.41.17-.18-.02-1.3-.59-1.19-.89.33-.86,1.4-.54,1.84-.69.94-.34,3.05-1.59,3.36-2.58.42-1.34-.13-3.48-1.59-3.94-.72-.23-2.44-.07-2.88-.95-.73-1.46,1.52-1.45,2.22-2.01,2.08-1.68-.23-4.25-2.33-4.02l-.3,13.05c.09.55-.74,1.03-1.14.8-.35-.2-.37-1.37-.39-1.77-.11-3.76.67-8.48.28-12.07-.04-.39-.37-.64-.36-1.05,2.26-1.26,4-.48,5.59,1.29Z"/><path d="M64.22,63.22c.39.5.53,1.68.72,2.32.11.38.14-.16.24.9s-.05,3.38,1.23,3.29c-.78,1.63-.62,3.8-.41,5.6.09.74,1.33,3.14-.13,3.3-.27.03-.81-.11-.96-.36-.26-.42-.71-4.63-.82-5.51-.04-.29.06-.55.14-.82-.68-.83-1.78-.17-2.6.11-.49,1.23-.47,4.66-1.13,5.6-.15.22-.8.12-1.08.34-.14-1.54-.08-3.02.12-4.54.3-2.35.9-6.3,1.48-8.58.36-1.42,1.93-3.28,3.21-1.64ZM63.22,64.86c-.45-.41-.69,1.2-.73,1.37s.13.48.05.79c-.11.45-1.37,2.94-.49,3.08l1.46-.19.33-.32-.62-4.73Z"/><path d="M71.7,71.21l1.24-1.87,2.34-5.4c.36-.38,1.38-.08,1.46.42-.64,2.77-2.21,5.16-3.35,7.81.97,1.21,1.67,2.55,2.47,3.86.32.52,1.19.76.47,1.83-.68,1.02-1.25-.53-1.58-.92-.75-.88-.86-1.15-1.38-1.95-.41-.63-.59-.59-.96-.88-.26-.2-.2-.69-.71-.57-.12.98-.27,1.97-.31,2.96-.01.26.23.41.22.53,0,.34-.49.68-.12,1.17l-1.45-.03c-.29-.63-.28-1.32-.25-1.99.12-2.92.45-6.12.17-9.04-.08-.86-.15-.92-.14-1.96,0-.75-.49-2.03.72-2.03,1.65,0,.77,1.73.78,2.46,0,.37.26.69.28,1.06.08,1.49.24,3.1.11,4.55Z"/><path d="M32.66,63.21c.11.12.56,1.33.63,1.59.7,2.51.75,5.23,1.13,7.74.16,1.04,1.04,3.73.8,4.45-.2.61-1.02.28-1.42.11.26-1.56-.8-2.91-.67-4.42l-3.06-.19c-.15.03-.78,2.02-.9,2.45-.1.34-.18.6-.26.87-.22.74-.06,1.86-.87,2.27-.66.34-1.05-.49-.96-.97.05-.25.39-.55.44-.82.65-3.31,1.69-8.92,2.84-11.98.37-1,1.23-2.26,2.29-1.1ZM32.7,71.2l.22-1.13-1.26-4.79c-.85,1.85-.8,3.97-1.27,5.93h2.31Z"/><path d="M80.81,65.28l-.42,4.24c1.22.02,3.03-.94,3.41.74-.12.93-2.78.67-3.43,1.09-.57,1.49.16,2.96-.39,4.41l.5.32c3.29-2.54,2.69,1.63.03,1.69-3.08.07-1.98-4.77-1.91-6.65.03-.83.05-.72.18-1.61.17-1.2-.15-4.95.99-5.58.79-.44,1.88-.1,2.64-.09.56,0,2.26-.58,1.97.76-.25,1.12-2.66.78-3.55.7Z"/><path d="M54.4,65.14c-1.05.67-2.2,3.11-2.36,4.32-.18,1.28.34,2.76.26,3.97.82,1.31,2.01,2.86,3.68,3.02,1.04.1,2.19-.64,2.18,1.17-.12.56-2.31.6-2.77.49-1.96-.48-3.43-1.82-4.28-3.58-.57-1.18-.84-2.87-.82-4.28,0-.5.52-3.02.71-3.54.33-.93,2.82-3.24,3.82-3.61.62-.22,1.24-.06,1.75-.53l.94,1.09c-.11.63-2.44,1.06-3.09,1.48Z"/><path d="M87.34,61.09c.39.45.4,1.16.61,1.6,2.2,4.61,2.59,10.69,1.01,15.72-.09.29-.92,2.39-1.01,2.49-.11.12-.7.22-.9.39l-.48-.17c-.44-.45,1.01-4.19,1.19-5.2.92-5.14.45-7.99-1.25-12.8-.06-.17-.37-.16-.4-.31-.09-.39.01-1.26.31-1.55l.92-.17Z"/><path d="M26.31,62.57c.1.06.27.55.42.7-.51,1.28-2.48.17-2.96,1.22-.34.74.23,4.07-.36,5.11.2.77,3.42-.85,3.15,1.17l-3.14.68c-.14,1.78-.44,3.77.19,5.48l1.98-.44c1.24,1.77-2.6,2.32-3.2,1.45-.22-.33-.51-2.36-.56-2.89-.29-2.98.31-6.62.47-9.69.04-.78-.39-2.15.46-2.72.17-.12,3.36-.19,3.56-.07Z"/><path d="M8.85,77.73c.06.16.66.01-.1,1.09-1.64-.41-2.34-2.62-2.5-4.13-.39-3.5.21-7.65,1.91-10.76.18-.33,1.78-2.54,1.92-2.63.52-.31,1.13.31,1.44.7-2.4,2.22-3.56,5.78-3.9,8.97-.28,2.63.25,4.37,1.23,6.76Z"/></g></svg>