<?xml version="1.0" encoding="UTF-8"?>
<svg id="Layer_1" data-name="Layer 1" xmlns="http://www.w3.org/2000/svg" viewBox="0 0 485.24 200.23">
  <defs>
    <style>
      .cls-1 {
        fill: #fff;
      }
    </style>
  </defs>
  <path class="cls-1" d="M449.2,13.02c.11.06.18.56.57.71.95.35,2.65-.39,3.91.91.73.76-.65,1.35,2,.88.51.39.21,1.29.44,1.87.16.4,1.99,1.5,2.46,2.56.64,1.46-.73.81-.44,1.58l2.46.54c-1.16,2.28-.56,3.75-.38,6.13l1.08.21.03,2.43,1.38.03c-.32.93-.44,1.54-1.41,1.93,1.46,1.23.17,4.14,2.82,3.7-.47.84-.89,3.09-.71,3.98.06.28.67.21.72.48.47,2.3-.15,4.32.67,7.08.53,1.78.11,2.35.09,3.79-.01.84,2.43.28,2.01,1.87l-1.37.57.77,1.89,1,.05-.29.65.63.05-.74.56.36,1.05-.59.2c-.08,1.93-.19,5.25,1.27,6.8l-.3,2.66,1.05-.7c1.14,1.2.26,2.15.39,3.32.23,2.09.71,4.29,1.2,6.15.1.36-.28.98-.17,1.1l1.05-.35c.78.57-1.13,4.9.7,4.94l-.7.7.7.18-.74,1.42c1,.91.52,1.7.39,2.99l.7-.36c.64,1.38-.61,2.17-.65,2.29-.03.1,0,1.97.02,2.07.17.57,1.12.59,1.29,1.15.03.11,0,2.21-.04,2.32-.15.62-.98,1.02-.9,1.79.08.85,1.12,2.36.67,3.74l1.03.22c.19,1.43-.71,2.6-.76,3.51,0,.16,1.07,1.23.93,2.82-.1,1.19-.44,1.89-.1,3.07.16.56.66,1.06.57,1.81l1.11.21c-1.5,1.91.68,3.58,0,5.63h1.05c.39,1.09-1,2.52-.91,3.35.04.36.65.8.77,1.39.18.87.23,2.44.15,3.36h1.06c-.7,1.6,1.02,2.14-.7,3.52,1.16.14,1.54,1.44,1.05,2.47,2.29-.15.74,1.63.69,2.29,0,.14,1.38.61.72,2.3h1.41c.03.45-.04.91-.24,1.32-.29.6-2.89,2.5-3.13,2.91-.19.32.16.69.08.98-.02.08-.86-.06-.23.77-1.02-.14-2.36-.07-2.47-1.41l-.87,1.06c-1.26-.59-.46-2.33-.53-2.44-.07-.1-1.16-.13-1.57-.74-.75-1.11.3-2.51-1.27-3.01.37-1.09,1.15-2.32.38-3.43-.21-.3-.68-.22-.7-.25-.12-.21,1.86-3.32-1.42-3.52.31-.68-.04-1.85,1.05-1.76.02-.68-1.32-.98-1.4-1.08-.05-.07.54-1.16.6-1.66.13-1.03-.47-2.12.09-3.25l-1.05.35c-.73-1.16,0-2.17,0-2.97,0-.22-.93-.2-.93-1.08s.81-.87.84-.94c.07-.17-.43-1.17.08-1.7h-1.76c.44-.7.03-1.92,1.05-1.77v-.34c-1.82-.08-.21-2.04-.41-2.65-.07-.19-.56-.13-.62-.4-.23-1.17.5-2.27.54-2.78s-1.08-2.18-1.21-2.9c-.33-1.92.15-4.59-1.13-6.63l.74-.71c-.81-1.59-.24-4.06-.74-5.52-.11-.33-.73-.23-.69-.42.11-.54,1.17-1.57.7-2.65l-1.05.35c.04-.44-.21-.88-.22-1.3-.04-1.19,1.32-1.97.91-2.56-.56-.83-2.1.18-2.45.2-1.18.07-3.01-.08-4.23-.22l.18.7-2.09-.73-.38.75-2.46-1.08-.34.71-2.81-.72-.22,1.03c-.91-.58-.98.78-1.2.75-.8-.13-1.31-1-.89-1.76l-1.53.64-1.12-1-1.4.97c-.87.03-.83-.93-.89-.96-.22-.13-.52.56-.88.59-.12,0-2.14-.26-2.36-.31-.47-.1-2.52-1.09-2.7-.96-.14.1-.1.87-.92,1.25-.11.05-2.36.03-2.48-.02-.5-.18-.76-.91-1.34-.85-1.15.11-2.68.27-3.88.41-.46.05-1.18.93-1.99.59l-.35-1.06-.21,1.09c-1.19.68-1.37-.52-1.83-.72-.69-.3-1.93-.14-2.7-.21-.29-.03-.62-.46-1.01-.43-1.12.08-1.33,1.05-1.35,2l-1,.04c.42.75.8,1.37.74,2.29-.1,1.54-2.01,2.01-.06,2.79-.97,1.11-.54,2.7-.72,3.54-.32,1.48-1.72,3.35-1.35,4.88.08.34.9-.03.5,1.1-.78,2.24-2.65,3.84-.88,6.32l-1.76,1.15c-.41,1.62,1.1,1.41.72,2.94h-1.42c.69,1.09-.54,2.12-.57,2.65-.03.44.86,1.18.55,2.06-1.48.64-.54,1.19-.84,1.63-.16.25-.71.2-.85.53-.04.08.28,1.46.21,1.77-2.24.85.56,2.51,0,3.61-.06.12-.87-.05-.61.96.04.14.54.09.63.35.39,1.15-.56,1.28-.73,1.68-.27.64.75,1.16-.94.97l.7.52c-.33,1.13-3.63,3.91-1.41,4.41v.34c-2.79.32-1.02,2.29-1.66,3.43-.53.93-1.34.64-1.51,1.05-.33.8-.14,2.33-1.05,3.11l.71.34c-1.4.6-.87,1.58-2.11,2.12l.7.52c-1.77,1.01-2.65-.62-4.23,0l.36-.7c-1.26-.13-5.1-.78-2.12-2.12l-.7-.35.59-.41c-.03-.87.41-1.24-.59-1.52.43-1.15,1.68-.46,1.76-.53.1-.09.58-2.5.58-2.64-.03-.48-.66-.96-.56-1.39.05-.21,1.79-1.37,2.01-1.8.05-.09.43-2,.39-2.1-.13-.34-.99-.43-1-.71,0-.08.54-.37.57-.71s-.49-.69-.41-1.26c.13-1,1.01-.46,1.26-.91.59-1.08-.2-2.56-.02-3.39.06-.26.56-.23.68-.53.26-.65,0-2.01.08-2.11.27-.38,1.58-.35,1.37-1.65l-.74-.39c.37-.67.38-2.38.62-2.87.61-1.24.36-1.15.64-1.87.16-.41,1.39-1.17,1.57-1.93l-1.06-.7c0-1.81,1.87-2.58,1.78-4.2-.01-.21-.67-.19-.72-.41-.32-1.39.8-1.33.96-1.65s.89-2.59.81-2.71c-.11-.16-1.46-.03-1.41-.7l2.46-1.77-1.41-1.4.64-.38c-.38-.5.05-1.47-.04-1.68-.04-.09-1.12-.49-.3-1.58.33-.44,1.28-.22,1.79-1.83.31-.96-1.15-.34-1.4-.52.74-.8,0-2.31,1.05-2.11l-.7-.51.73-1.75-.73-.54c1-.02,2.59-2.85,2.11-3.53l-.7.36c.02-1.07.14-2.02,1.4-1.77l-.7-.56c-.04-.96.65-1.96.72-2.79.05-.6-.45-2.18-.36-2.26.22-.2,1.07-.02,1.41-.64.48-.87.17-2.19.36-3.02.03-.14,1.47-.71.43-1.3l-.79-.17,1.76-2.47-.71-.34,2.12-1.77v-.7s-.71-.52-.71-.52c1.35-.06.92-1.96,1.32-3.08.36-1,1.33-1.8,1.84-2.74l-1.05-.52.63-.17c-.49-.96.56-1.52.85-2.4.2-.6-.01-1.65.26-2.13s.94-.13,1.08-.23c.04-.03-.28-.54-.23-.82.18-1.04.91-3.05,1.28-3.66.31-.51,1.13-1.62,1.25-1.88.39-.87-.28-1.51.05-2.36.12-.31,2.16-2.91,2.2-3.13.08-.47-.88-.85-.34-1.64l1.41-.62v-1.92c.6-1.01,1.35-.48,1.4-.54.43-.54.05-2.77.3-3.4.45-1.16,1.97-1.61,2.36-2.23.32-.5.21-1.21.44-1.67.19-.38,1.36-1.48,1.46-1.73.38-.9-.6-1.41,1.47-1.17-.28-.63.36-1.94.7-2.56.3-.55,2.04-2.43,2.31-3.07.17-.41-1.17-.98.15-2.32.53-.53,2.61-.35,3.42-.95.37-.28.49-1.16.93-1.54.83-.71,3.02-.8,4.11-1.18l-.35-.69c1.79-.48,2.54-2.47,4.8-1.31ZM449.9,21.14c-.84-.54-1.84-.4-2.68.08-.25.15-.29.67-.45.78-.22.16-1.12-.36-1.61.13-.43.43-.04,1.26-.09,1.31-.19.16-1.62.25-1.73.4-.06.08.61.68-.71,1.52-.67.42-1.48-.34-1.74,1.48,2.24,1.64-1.67,2.54-2.48,3.54-.56.7.42,3.87-2.13,2.96l.72,2.23c-1,.76-1.69,1.73-1.72,2.9-.63.74-1.82.07-1.47,1.39.05.19,1.06.01.71.88-1.06-.8-3.69,2.42-3.81,3.08-.1.57.31,1.02.3,1.29-.02.32-.86.26-1.03.78-.2.59.2,1.4.08,2.18-.02.16-1.05,2.78-1.18,3.03-.04.08-1.87-.21,0,.74-1.75.63-1.37,3.01-1.57,3.34-.24.37-1.42.77-1.6,1.6.66.13,1.02,1.19,1.02,1.78,0,.09-.94.39-.66,1.38-.91-.44-1.21.64,0,.54l-.65.39.28.64-1.39.38.7,1.04c-.89.01-1.53,1.12-1.43,1.91.03.21,1.11.13.72,1.08-.42,1.03-1.69.11-1.76.18.12,1.48-.58,2.23-1.4,3.35l1.39,1.41-1.4.53.7.35c-.6.39-.34,1.33-.4,1.37-.19.13-.77-.13-1.04.24-.26.35-.2,1.33-.66,1.74l.7.51-1.06.71c1.64.15,4.13,1.87,3.53-1.05,1.08-.16,1.84,1.06,1.96,1.07.8.07,1.62-1.06,3.12.01l.38-.74.35.71c.5-1.34,2.43.57,2.99,0,.17-.18-.33-1.17.36-1.05l.89,1.06.32-.68,1.57.38.04.99c.89.02,1.29-.78,2.27-.7.48.04,2.67.92,3.25.97.52.04.79-.59,1.29-.57.59.03,1.64.94,2.18,1.29,1.16-1.8,2.64.37,4.37.02l.39-1.38c1.72,1.38,2.2.4,3.33.38,1.83-.03,3.66.17,5.65.11.38-.01.77.51,1.34.49.75-.03,2.12-1.1,3.09-1.19.45-.58-.19-3.18-1.45-2.6l1-1.24-1.7-.88.7-.88c-1.01-.09-.71-2.01.35-1.94v-.7s-.7.36-.7.36c-.54-.78.25-1.56.22-1.93-.04-.46-1.01-.98-.22-1.95h-1.76s.7-3.52.7-3.52l-1.4.35c.43-.93-.36-2.06.67-2.27l-.36-1.03c2.18-.99-.32-1.93-.33-3.57,0-1.52.88-1.48.97-1.65.06-.13-.17-1.61.09-2.05l-1.06-.18.35-1.22h-1.41s1.06-1.94,1.06-1.94c-1.42-.29-.08-1.56-.4-2.41-.18-.49-.77-.47-.91-.65-.11-.14.14-1.62.05-2.08-.22-1.1-1.49-1.51-.15-2.77-.64,0-.87-.32-1.11-.87-.69-1.55-.05-4.6-.67-6.62-.04-.14-1.01-1.45-1.04-1.56-.23-.93.46-2.86-1.06-2.94l.7-.52c-1.8-.83-1.91-3.01-1.43-4.71-.93-.01-1.47-1.07-1.86-1.32Z"/>
  <path class="cls-1" d="M310.19,10.8l2.89,2.57c1.69.75,1.26-.56,1.5-.46l1.22.75-.34,1.01c1.3-.41,2.68.29,3.84.92,1.85,1.01,2.75,2.3,4.53,2.93,1.58.56,3.11.26,2.72,2.49l.38.33c.51.06,1.17-.89,1.29.27l.63-.25c-.54,1.89,1.52,1.88,2.02,2.54.33.43-.8,1.86,1.7,2.03.27.75.18,1.61.45,2.36.05.15.75,1.76.82,1.84s1.48-.09,1.38,1.26l-.75.37c.87.96.21,2.08.39,2.78s.87.14,1.06.41c1.07,1.53.86,4.03,2.08,4.89-1.21,1.68-1,3.41.34,4.57-.82,2.72-.7,5.58-1.19,8.27-.07.4.13.71.16,1.08h-1.41s.71.93.71.93l-.35,1.71-.7-.17c-.07,1.04,1.09.57.6,1.93-.03.09-.71,1.52-.77,1.6-.33.46-1.19.24-1.6.52-.47.32-.39,1.21-.71,1.68-.26.38-1.21.85-1.37,1.24-.8,1.96.91,4.51-2.15,4.3l.36,1.4-1.04.03v.86s-1.08.18-1.08.18l.61.41.08.99-4.05,2.12.89,1.24c-.29.48-1.47.8-1.66.98-.18.16-.04.67-.34.97-1.15,1.14-2.39.22-2.58.34l.36.7c-1.98-.21-1.82,1.48-2.25,1.78s-1.21.31-1.26.36c-.16.18.3,1.11.11,1.65-.17.49-1.49.96-1.53,1.85,1.77-.5,1.7.64,2.19,1,.18.13,2.41-.57,1.68,1.11l2.1-.34c.12.44.14.94.47,1.3,1.3,1.47,3.56,2.98,4.52,4.66l.97-.27c-.13.51.38,1.01.75.64.13-.13-.28-.84.35-.7.01,1.02,1.32,1.11,1.94,1.76l.52-.7c-.03.26.07.53.27.69,1.57,1.29,3.87,2.63,4.86,4.22.19.31-.3.9-.18,1.07l.63-.28c.09.8.91.81,1.12.99.4.34-1.36.31-.7,1.05.31.35,1.64.17,2.11,0,.05.03-.22.46-.12.69.71,1.58,1.29,3.15,2.19,4.54.11.16.02.51.06.74l1.22-.02.53,2.14,1.4-.35c.28.41-.05,1.99.02,2.08.13.16.95.13,1.31.48.3.28.76,1.74,1.04,2.29.84,1.63,1.62,3.08,2.06,4.69.13.47.43.89.55,1.36,2.26-.86,1.6,2.22,1.82,2.76.34.82,2.94,1.1,2.38,2.69l-.72.55c.81-.21,2.76,1.81,2.97,2.48.36,1.17,0,2.11.18,2.93.12.5,1.09.22,1.44.85s.03,1.53.17,2.19.81,1.63.8,2.37c-.02.92-1.36.98.08,1.33-.44,1.02-.63.93-1.71.93l-.59,2.07c-1.11-.16-2.02-1.12-3.17-.36l-.17-1.05-1.05.7-.76-2.08-.98-.05c-.17-1.19.55-2.58.06-3.76-.21-.5-1.34-1.1-1.39-1.22-.08-.18.24-.58-.06-1.17-.4-.78-1.33-1.17-1.41-1.31-.15-.27.59-.93-.22-1.31l-1.24.34.66-.38-.31-2.44h-1.42c.63-.93-.45-.86-.62-1.12-.28-.46.03-1.47-.15-2.15-.2-.75-1.02-1.16-.68-1.98l-.98-.05-.03-1.39-.63.27c-.29-.93-1.74-1.6-2.15-2.25-.43-.7-.09-1.31-.31-1.79-.31-.65-2.12-4.39-2.28-4.59-.33-.41-1.78-.58-1.96-.87s.07-.91-.14-1.25c-.09-.15-1.76-2.28-2.09-2.67-.56-.68-1.8-1.12-1.97-1.38-.29-.46-.08-1.47-.52-1.96-.34-.37-.98-.07-1.17-.14-.4-.15.34-1.25-1.22.07l-.36-2.46c-2.18.82-2.59-1.83-2.79-1.94-.81-.45-2.82-1.24-3.47-1.66-.31-.2-.33-1.26-.44-1.33s-1.31.76-1.92-1.06l-.35.72c-.38.14-2.13-1.01-2.21-1.15-.24-.43.02-1.18-.08-1.34-.09-.13-2.32,1.03-1.76-1.41l-1.76.35-.07-1.33-2.39-.8.33-.67-2.28-1.43c-.51,1.63-2.35.05-3.34-.22-.56-.15-1.37.18-1.78,0s-1.46-1.74-2.1-.31c-.36.8.86.25.7.87-.43-.35-1.28,1.74-1.31,1.98-.16,1.2,1.21,2.13.59,3.38-.15.29-.63.26-.63.43,0,.57.53,1.4.09,2.32l1.26.35c.21.2-1.08,3.82-1.06,4.36,0,.24.57.22.71.45.93,1.54-.43,1.93-.54,2.74-.08.58-.06,5.66.02,6.35.05.44,1.11,2.81,1.09,3.17-.04.87-1.59,1.77.49,1.59-.27.41-.11,1.2-.32,1.5-.77,1.09-1.49.16-.62,2.61l-1.12.97c1.06.86.29,3.48.36,3.66.04.1,1.07.27,1.18,1.62.1,1.21-.75,2.81-.75,3.18,0,.29.38,1.12.38,2.47,0,.52,1.07,1.13-.52,1.76v.52s1.05.53,1.05.53c-1.14,1,.01,2.28-.19,3.39-.14.79-1.27,2.01-1.41,2.76-.07.41.7,1.04.18,1.77l-1.58-.7-.53,1.4-2.13-.18-.69-1.58-1.4.36c-.62-.77-.26-2.54-.4-2.94-.13-.36-1.54-.77-.8-1.65.26-.31.81-.3.85-.35.14-.18-.66-.87-.63-1.23.02-.24.7-.59.89-1.32.29-1.1,0-3.22-1.31-3.6,1.2-1,.69-1.31.87-2.11.23-1.03.91-1.98.53-3.36-1.59.59-1.13-1.21,0-1.59-1.56-.4-.52-1.97-.81-2.76-.18-.5-.82-.82-.87-1.11-.07-.43,1.56-1.4,1.35-2.78l-1.43-.57c.74-.81.49-1.77.73-2.56.09-.31.55-.26.6-.43.74-2.4-3.52-3.34-.27-4.23-1.15-1.9.61-4.98-1.42-5.98.37.02,1.96-2.48,1.77-2.64l-1.76.35c-.71-1.68.89-2.35.99-2.64.49-1.5-1.27-1.83-1.34-1.94-.09-.13.88-.88.35-1.4h1.41c-1.16-1.31.19-2.71-.08-4.06-.05-.23-.53-.15-.58-.34s.47-1.4.3-1.59l-1.05.35,1.41-6.17c-1.01-.33,0-.89-1.4-1.4,1.21-.65.59-1.72,1.39-2.47l-1.75-.53c.54-.81.67-1.33.35-2.28l1.41-.19-1.06-.35c1.13-1.37.19-2.26.15-3.35-.02-.47.71-2.42.79-3.21.05-.54-.34-1.14-.25-1.66.05-.29,1-.1.72-.74-.42-.96-1.52-.05-1.76-.18-.13-1.54,1.06-1.73,1.36-2.16.05-.06-.36-.97-.33-1.52.07-1.31,1.07-1.66-.6-2.46l.31-1.22,1.37-.04c-.46-.84.35-1.32-.71-1.58l.7-1.94h-1.05s.72-2.64.72-2.64l-.72-.53c1.69.13-.54-3.75-.36-3.88h1.41c-.93-.93-.17-2.68-1.76-2.83-.23-.31.83-.59.96-.76.45-.58-.76-2.96.46-2.92l-.27-.89h-.8s.08-1.36.08-1.36l.63-.22c-1.84-.54.3-1.62.3-1.74,0-.65-.38-2.07-.44-2.97-.03-.47.26-1.65.13-1.8-.06-.07-1.47.13-1.39-.89.02-.3.98-.38,1.07-.77.26-1.17-.34-4.43-.24-5.74.03-.42.64-.84.58-1.22l-1.77-.54c-.19-.19.49-2.25.75-2.61.35-.5.97-.53,1.01-.57.22-.3-.58-1.06-.67-1.59-.53-3.14,1.33-2.85,2.28-5.08,1.47.91,1.43-.71,2.02-.95,1.09-.44,2.48-.77,3.66-1.3.12-.05.14-.54.36-.58,1.66-.31,3.32,1.55,3.8,1.63.59.09,1.79-.38,2.83-.2.94.16,1.2,1.44,1.6-.36ZM304.25,18.82c-.17-.11-.19-.77-.57-.88l-2.3.25-.06,2.66-.62.31.33,1.26.7-.36c.21.73-.45,1.66-.37,2.25.03.24.6.17.66.39.16.63-.76,2.64-.62,3.12.08.28.71.11.73.75.03.72-.36,1.39-.42,2.09l.72.23c-1,1.15-.53,2.34.72,2.98-.99.43-1.07,2.24-1.41,3.32l1.4.57c.11.94-1.03,1.08-1.08,1.74-.07.91.5,1.97.03,2.99,2.54-.19-.37,1.79-.38,1.96,0,.49.66,1.04.69,1.72.04,1.04-.97,3.05-.99,4.28-.02,1.4,1.29,2.25-.38,3.48l1.4,1.06-1.05,1.06.72.7-.72,1.41c.02.27,3.24.93.38,2.33l.34,1.16c-1.74.79-.24,1.15-.12,1.36.14.25-.29,1.16.45,1.66l-1.4.89,1.39,1.05c-1.2.99-.73,2.38-.87,3.52-.05.4-.54.77-.55,1.41-.01.6.45,3.66.58,4.41.17.97.18,1.57.35,2.64.05.33.5.65.5.71,0,.12-1.57.98-1.39,1.93h1.41c-.73-.93.7-.47,0-1.39,1.48.34.83-1.02,1.76-1.59.83-.5,1.76-.51,2.45.16l.15-.68c1.7,1.1,1.77-1.16,3.73-.73l-.7-.7.65-.04-.3-.66c2.42.42,2.6-.67,3.91-1.89.44-.42,1.17-.49,1.55-.93.81-.94-.09-2.01,1.97-1.92.08-1.2,1.09-1.11,1.09-2.58l1.69-.07-.35-1.41h2.11c-.98-2.24,1.23-1.52,1.61-2.1.23-.36.03-1.06.22-1.35.2-.31,1.25-.31,1.34-.44.16-.23-.29-1.08-.25-1.52.12-1.37,1.64-1.19,2.01-1.81.18-.82-1.12-.28-.7-1.4.33-.88,1.36-.12,1.4-.18-.49-1.63-.03-2.98.36-4.58l1.05.35c.04-.82-.4-1.93.7-1.77.15-.54-.44-.21-.73-.59-.23-.3-.05-1.1-.33-1.52l1.35-.06.42-.83c-1.52-.36.1-2.09-1.42-2.45l1.37-2.27-.65-.04c1.64-1.26-.57-2.98-.6-3.69-.02-.39.65-.83.53-1.67-.02-.16-.66-1.89-.74-1.95-.18-.16-.76.02-.89-.12-.19-.2,0-.91-.26-1.35-.15-.25-.68-.27-.78-.44-.25-.4-.07-1.81-.37-2.6-.16-.4-2.09-2.98-2.54-3.44-.33-.34-.31-.22-1.03-1.1-.9-1.1-2.08-1.72-3.46-2.01-.23-1.78-.19-.93-.83-1.37-.3-.21-.34-.57-.48-.59-.51-.06-1.34.5-2.12-.06-1.35-.96-1.32-3.68-4.04-2.48v-1.06c-1.46.58-2.64-.12-3.35-1.4-1.2,1.58-1.12.75-2.19.48-.32-.08-2.39-.48-2.51-.56Z"/>
  <path class="cls-1" d="M62.29,13.51c.86.76,1.39-.53,2.31.17-.43,2.25,1.93,2.47,2.45,3.17.04.05.11.37.39.91.51.96.03,1.77,1.78,1.85-.17,1.49-.82,1.48.68,2.3l-.32,1.21,1.41.53c.42,1.07-1.24.76-.69,1.58.03.05.52-.04.58.07.27.56-.29,2.22,1.51,1.35.21,1.01.94,1.95-.33,2.26.86,1.38.09,3.62,2.46,2.66l-1.33,3c1.07,1.08.35,2.01,2.39,1.94l-.98,2.23c0,.87.89.92.91.98.08.22-.37.74-.27,1.14.12.47,1.03.46,1.07.77.15,1.31-2.49,1.23-.03,2.44-1.17.7-.09,1.1-.09,1.41s-.75.63-.9,1.13c-.23.73.09,2.23.32,3,1.37,4.63,1.38,5.09,1.03,10.34-.05.83.29,1.88.3,2.75l1.45.21c-.02,1.21-1.16,2.97,0,3.7l-.67.32c.72,1.01-.3,2.51,1.03,2.84l-.64,2.44.96.24c.37,1.71.33,2.1-1.03,3.14.54-.37,1.04,1.63,1.06,1.98.05,1.05-1.8,3.05,1.4,2.96-.08,1.02-1.32,1.57-1.33,2.71,0,.45.48.74.5.99.05.74-1.5,1.32.48,2.11l-1.4,1.06c.71.41.43,1.17.69,1.68.5,1.01,1.15.51.97,2.81-.24,3.01,0,2.24.45,5.05.21,1.28-.87,3.81.3,4.17-.62.91.22,1.68.25,2.47.02.68-.48,1.36-.5,1.79,0,.16,1.59.68,1.71,2.46.04.55-.4,1.77-.28,2.06.24.57,1.43.45.99,1.45-.23.52-1.21.33-1.05.88.72-.07.96.6,1.08,1.22l-.77.71c0,.71.81,1.5.66,2.19-.11.49-.68,1.06-.62,1.16.04.06.64-.29.93.94.32,1.32-.45,2.84-.58,3.83-.02.19.54.11.63.33.5,1.31,2.05,5.91,2.19,7.43.07.76-.24,1.33-.1,2.88.19,2.09.36,2.48,1.88,4.13-1.59,1.35-.49,3.37-.79,4.52-.16.62-1.26,1.13-1.26,1.48,0,.3.86.6.62,1.23-.81-.2-2.05.37-2.73.12-.41-.15-.38-.75-.68-.82-1.16-.26-1.42.64-1.72-1.1l-1.91-.5c1.6-2.03.06-2.13-.29-3.25-.23-.73.38-1.83.2-2.32-.52-1.35-.5-1.72-.81-2.72-.23-.74-1.86-2.13-1.4-2.81l.9-.52c-1.66-.83-1.12-3.51-1.24-4.95-.1-1.22-.84-2.31-.17-3.68l-1.08-.18c.34-.72-.09-2.27.01-2.75.06-.28.68-.21.72-.48.09-.58-.55-1.11.34-1.87-2.38.06-1.68-4.38-1.06-5.99l-1.74-.38c.44-1.27-.62-2.02,1.05-2.63-.03-.37-.44-.65-.48-.88-.24-1.27-1.02-2.51-.27-4.07l-.69-.34.35-1.17-1.03-.57,1.31-1.76c-.72-.59-.43-1.49-.63-2.05-.19-.5-1.23.15,0-1.52l-.69-.66c1.33-1.36.2-1.94-.43-3.12-.16-.3.06-.77-.02-.87-.75-.99-3.85-1.84-4.3-.07l-1.72-1.02-1.11,1.01c-.13.01-.71-2.48-1.39-.74-.24-.1-.52-.28-.76-.27-2.01.09-.88-.27-1.44-.4s-2.19.54-2.92.39l-.19,1.02-1.7-1-2.18,1.72c-.81-.17-1.1-2.12-2.19-.27-.1.17.68.86-.64.82-.64-.02-1.11-.5-1.41-.54-.13-.02-.74,1.54-2.1,0l-.18,1.05c-.33.17-2.11-.15-2.56-.36-.39-.18-.03-.98-.96-.69v1.41c-.14.18-3.59-.45-4-.37-.26.05-.2.59-.4.66-.76.28-3.43-1.86-4.4-.12l.71.35-.74.38c.79,1.13-.56,2.2-1.72,2.26.4,1.43,1.32,3.81-.75,4.07l-.56,2.09,1.65,1.57c-1.05.04-.5,2.27-2.46,1.41-.17.87.13.59.7.86-.97,1.42-1.95,2.99-1.78,4.91.02.25,1.1.16.72,1.09l-1.76.53c.88,1.73-.19,1.69-.28,1.93-.22.6.97,2.99-.77,3l.64.39-1.33,5.22,1.04.02-.62.4.2,1.29c-1.3.33-1.26,1.29-1.66,2.37l1.01.68c-.95,1.09-2.28.58-1.83,2.48l-.63.17c1.08.93-.1,2.15-.24,3.26-.16,1.26.59,2.35-.31,3.41-.33.39-1,.21-.86.71l1.05.53c-1.03,1.53-3.74,2.02-1.76,4.4-1.49.14-2.64,2.03-4.43,1.67-.38-.07-.37-.76-.55-.89-.07-.05-1.28.33-1.66-.13-.05-.75-.2-1.51-.26-2.26-.26-3.11.95-6.19,1.82-9.11.24-.81,1.57-3.13,1.18-3.69-.17-.24-1.44-.08-1.38-.73,2.01-.38,1.35-1.48,1.64-2.47.14-.5.74-1.05.76-1.65.01-.54-.73-.94-.65-1.68.02-.17,1.08-1.71,1.26-2.83.13-.83-.89-2.09.87-2.31-1.31-2.04-.05-1.86.26-2.55.23-.52.03-1.16.26-1.68.52-1.15,1.73-2.11,1.6-3.51l-1.41-.17c.12-.77.76-1.09,1.01-1.53,1.33-2.36.55-2.02.93-4.11.07-.39.64-.71.52-.88-.04-.06-1.1.04-.55-.9.25-.43.69-.44.92-.77.2-.29.27-.74.54-1.14.17-.25.73-.31.79-.41.05-.08.03-1.77,0-1.87-.11-.43-2.45-1.01.03-2.01-.91-1.88,1.14-2.43,1.12-4.38,0-.66-.73-.5-.73-.66.04-.76.88-1.27.95-1.44.25-.68.27-1.77.65-2.61.23-.5.96-.75,1.14-1.33.24-.82-.02-1.87.09-2.73l-1.08-.2c.56-.84.41-2.1.73-2.89.12-.3,1.61-1.84,1.88-2.38.05-.1.28-1.61.34-1.87.1-.4.55-.73.55-.78,0-.21-1.41-.64-1.29-1.41.26-.6.99-.88,1.32-1.4,1.06-1.74.91-4.25,1.41-6.28.03-.13,1.77-1.13-.71-1.3.99-1.38-.37-2.88,2.11-2.11l-.31-1.59.66-.33-.96-2.14,2.37-3.17c-1.65-.74.32-3.23.7-4.59l-.69-.51c1.34-.05.87-2.24,1.14-3.26.14-.54.75-.93.91-1.59.21-.86-.46-1.97-.06-2.8.32-.67,1.39-.91,1.74-2.22.24-.89-.66-1.55.49-1.41l-.18-.7-1.22-.35c1.27-.41,1.85-1.45,2.08-2.68l-.67-.32,1.74-.91v-1.01s-1.39-.72-1.39-.72c.64-.62,3.06-1.46,3.35-1.75.11-.1.25-2.69.18-2.96s-.74-.21-.71-.4c.26-1.62,1.61-.89,1.71-.94s.93-2.04.95-2.23c.02-.26-.55-.53-.39-.88.35-.78,1.73-.49,2.3-1.27.53-.71-.09-1.59.16-1.91.34-.44,1.61-.28,1.95-1.6l-.69-.85,3.87-1.95-1.06-1.58c1.54.57,1.77-1.33,2.64.7l.89-.35-.35-1.05c.66.51,1.44-.26,1.58-.25.37.03.56.7,1.05.8s2.16-.28,2.67,0c.46.25.5.85.79,1.1ZM58.95,20.41c-.58-.27-1.93.62-2.29,1.03-.69.79-.29.49-1.42,1.43-.46.38-1.24,2.66-1.86,3.25l1.05.87-1.06.18c1.71.48-.76,1.62-1.6,1.57l-.16,2.13-.7-.36c-.13.91-.01.91.7,1.23-.44.94-.83,1.12-1.77,1.42l.24.89,1.18.17c-.09,1.06-1.64,1.11-1.75,1.25-.03.04.33.58.18,1.04-.38,1.21-1.49,3.31-1.77,4.53-.22.96.82,2.84-1.59,2.16l.56,1.07c-.22.97-2.06,1.45-1.54,2.28.18.29.58.13.62.18.5.79-.66.64-.7.91-.05.32.51,1.06.03,1.7l-1.09.21.69,2.8c-3.51.64-.43,3.82-2.1,5.65l1.41.18c-1.58,1.8-.96,4.77-3.17,5.99l1.05,1.22c-1.45.18-1.54,1.59-2.09,2.65l1.39.53c-.63.89-.49,2.01-.8,2.9-.33.96-1.72,1.42-.61,3.08-1.85-.05-2.28,2.16-1.6,3.54.31.62,1.23.43,1.24,1.04-1.69-.31-3.73,4.69-3.17,5.29l1.26-.33.3.66c4.44.35,7.77-.87,12-1.58.34-.06.76-.57,1.06-.51l.71,1.06c.66-1.93,1.87-.52,3.04-.89.75-.24.69-.95,1.32-1.06,1.07-.18,1.13.88,1.28.9,1.28.16.85-1,1.76-1.1,1.79-.21,1.89.97,2.83,1.11.62.1.43-.58.79-.7,2.72-.9,4.88.85,5.54.59.27-.11.21-.52.42-.61,1.16-.48,2.02-1.13,3.28-.71.71-1.83-1.9-3.11-.36-4.92-1.7-.48-1.71-2.83-.35-3.88-2.41-.5-.71-1.83-.71-2.65,0-.57-.8-.97-.71-1.74.05-.42.74-2.49,1.07-2.85-1.32-.36-.35-2.04-1.08-3.15,1.79-.69.18-.91.13-1-.24-.51-.14-1.09-.35-1.59-.18-.44-.79-.4-.83-.65-.17-1,.66-1.38.72-2.23-1.45-.19-1.83-1.54-.36-1.77v-.7s-1.05,0-1.05,0c-.44-.46,1.07-3.03,1.08-3.68,0-.24-.61-.19-.73-.42-.46-.88-.37-1.93-1.37-2.81l1.03-1.03c-.35-.62-.21-1.41-.38-2-.09-.31-.65-.25-.64-.41.02-.43.54-1.13.33-1.74l-.72-.57c1.14.04.97-1.75,1.08-2.63-2.42-.35-.89-2.28-1.06-3.48-.04-.27-.67-.24-.83-.66-.31-.77-.14-1.66-.4-2.41-.24-.7-1.09-1.17-1.19-1.64-.14-.61.46-1.12.05-2.12-.37-.87-1.39-1.03-1.51-1.42-.16-.52-.15-3.01-.36-3.26l-1.41.35.7-2.46-1.4.7-.03-1.39c-1.09.23-1.37-.58-1.45-.62Z"/>
  <path class="cls-1" d="M201.44,13.84c1.99,1.31,1.72-.86,2.71-.41,1.77,1.04,1.01,3.11,2.81,3.89-1.72.34-1.38,1.83-2.12,3.35l-1.01-.34-.56,1.03c-.86-.9-3.01-.87-2.65.71l-2.59-.73-.78,1.08-1.69-.63c-1.44,1.35-1.29.59-2.54.66-.53.03-.87.69-1.32.62-.28-.04-.56-.57-1.06-.57-.29,0-1.8.6-2.03.81l.03.88c-.79.1-1.88-.2-2.6.06-.44.15-.45.77-.66.9-.42.26-1.09-.03-1.5.44-.29.33-.24,1.11-.5,1.52-.35.54-2.8,2.2-2.49.6h-.34c.35,1.61-1.03.98-1.67,1.5-1.27,1.02.43,3.44-2.56,2.54l-.32.87.67.2c-.6,1.39-2.01.46-2.11.53-.05.04-.11.94-.32,1.21-.27.35-.93.11-1.05.24-.31.36.54,1.75-1.44,1.75l-.05,2.05-1.92.38c-.03.73.16,1.47-.17,2.19-.08.17-2.32,2.5-2.61,2.78s-.96.22-1.15.42c-.6.6-.31,3.03-1.13,3.92-.23.25-.97-.15-1.55.92-.27.49.21,1.52-.93,1.42l1.41.87c-.45.8-.72,1.33-1.76,1.24l1.05,1.05-2.81,1.77v.69c1.9.5.42,1.2.2,1.79-.27.71-1.07,3.41.14,3.15v.34s-1.76.71-1.76.71l.7.35-.71,1.76-1.05-.35c.77,1.09.8,3,0,4.06l.72.69-1.07,1.78c2.23.59-.79,5.66-.35,6.51l1.4.17c-1.93,1.37-.72,2.27-.81,3.18-.04.38-.87.63-.92,1.37-.11,1.46,1.37,2.26-.38,3.55.94.22,1.25,1.57,1.07,2.4-.06.29-.74.2-.73.41.02.55.65.81.69,1.38.05.7-.63,1.69-.65,2.16,0,.15.5.13.55.23.07.16-.17.38-.1.54.04.1.57.09.58.29.05.58-.8,2.25-.66,2.77.11.43.87.4.97.73.4,1.26-.38,4.19-.31,4.9.05.6.8,1.24.92,1.94s-.27,1.35-.13,2.2c.36,2.31,1.3,4.34,1.7,6.61.65-.33.96.03,1.38.54l-1.4,1.23c.25-.03,1.31.71,1.34.78.2.51-1.01,2.57,1.12.98l.71,4.23.84-.34c1.22.86.72,1.48.93,2.56.02.09.88.69,1.19,1.33.97,2.05,1.62,4.02,3.15,5.85.95,1.13,2.91.72,2.35,2.58,1.69-.76,1.31.16,2.16.85,1.11.9.7.64,1.55,1.59,1.18,1.33,1.95,1.18,3.5,1.8l.53-.72c-.24.51.84,2.69,1.1,2.78.53.18.88-.53,1.2-.53.2,0,.5.4.76.42,1.21.1,1.82-.47,2.06,1.21.89.33.38-1.82,1.91-.5.24.21.32.72.44.8.13.08,2.58.23,2.93.23,1.45,0,2.53-1.14,3.56-1.24,1.15-.1,1.63.81,2.4.73.2-.02.2-.58.47-.7.49-.21,1.11-.19,1.6-.45,1.01-.53,1.26-1.75,2.72-.98.17-.33-.6-2.99.7-2.82.09-.63-.71-.02-.74-.86-.03-.99,1-2.9.68-3.89-.07-.21-.56-.21-.75-.6-.71-1.54.25-1.09.53-1.81.47-1.21-.16-2.39.54-3.58l-1.25-1.05,1.38-3.15-.7-.34c.37-1,.29-1.71,1.4-2.16l-.08-.81-.98-.6c.33-1.08,1.28-2.65-.19-2.96l-.18-.53c.48-.63.46-1.42.71-2.04.12-.3.98-.45.99-1.95,0-1.38-1.21-1.62.43-2.72l-.73-.39c.73-1.41-.11-2.09-.22-2.83s.53-2.03.24-2.94l-.7.36c.29-.63-.71-1.83-.7-1.94.02-.26.8-.38.95-.62.24-.37.48-2.11.8-2.73l-1.05.35.35-1.05c-.19-.15-3.96.37-4.72.34-.29-.01-3.92-.44-4.25-.52-.48-.11-.65-.71-1.24-.53l.35.69c-1.92,1.2-3.02-1.86-4.08.38-.63-.12-1.27-.35-1.21-1.08h-.34c.24.89-1.1.64-1.82.62-1.6-.05-3.49-.14-5.01-.28-.23-.02-.11-1.04-1.39-.69-.45.12-.94,2.1-2.69-.18l1.35-1.4c-.89-.89-.94-1.46-.65-2.64l-1.06-.17c.92-2.31,3.32-1.38,4.09-3.68l4.03.5-.02.89.7-.27.19-.81c2.16-.4,1.37,1.73,3.77.7.53-.23.08-1.33,1.85.38.26-1.14,2.77-.72,2.29.71,1.03-.7,2-1.48,3.36-1.27.39.06.56.66,1.03.76,1.75.38,4.02-.59,5.29-.58.85,0,1.38.64,1.82.67.5.04.8-.63,1.29-.59.52.03,1.02.81,1.55.93.48.11,1.01-.27,1.52-.13.87.23.96,1.14,1.39,1.41.23.15.68-.18.7-.14.1.19-.11.8.02,1.14.14.37.75.3.91.94.08.3.07,2.61.02,2.96-.11.71-1.19,3.1-1.25,3.92-.06.72.61,1.89.62,2.51,0,.14-.46.07-.63.44-.1.2.02.63-.15,1.03-.04.09-1.25.3.12,1.31.22.17,1.35-.52.7,1.61l-1.41-.35v2.11s1.41,0,1.41,0l.34,1.95c-1.14.21.03,1.12-1.05,1.75l.69.68c-.13.82-1,.87-1.05,1.08-.25,1.1,1.46.03,1.41.87-.74-.12-.94.76-.98,1.33-.12,1.45.67,1.45-.77,2.72l1.06.18-.38,1.9c1.29.47.43,2.07-.69,2.5l1.06.35c-.45.8-.72,1.34-1.76,1.24l1.41.71-1.28,2.28c-.12.92,1.44.8.9,1.57-.09.12-1.02-.25-.68.72h1.06s-.64.4-.64.4l.22.59-1.31.99c1.17,1.37.11,3.16.39,4.43s1.83,2.28,1.1,4.07c-.25.6-.9.21-.81.78l.7.18-2.79,1.97.33.66c-1.55-.21-1.41,1.69-2.82,1.78l.7.87c-1.14,1.37-1.42.45-2.29.17-.16-.05-.08.52-.44.69-.68.33-2.44,1.27-2.72,1.37-.52.17-1.41-.72-2.12,1.12l-1.4-.97c-.79.03-1.55,1.21-1.65,1.27-.15.09-2.62-1.47-2.92.37l-2.48-1.04-.34.72c-.93-.54-2.22-.84-3.28-.97-.85-.11-5.7-.64-6.1-.97-.3-.24.01-.77-.3-1.04-.15-.13-2.15-.65-2.44-.49-.15.09-.42,1.22-.76.99-.6-1.1-1.9-3.55-3.17-2.81l-.05-.99c-2.1-.11-1.83-.47-2.47-2.15l-1.21.3-.32-.68c-1.63,1.71-1.21-1-1.4-1.75-.48-1.92-1.1-1.11-2.16-1.75-.28-.17-2.15-1.53-2.23-1.64-.56-.77-.04-1.58-.21-1.94-.36-.77-2.4-.76-1.02-2.79-.68-1.01-1.33-.43-2.31-.35l-.36-2.47-1.41.35c-.16-.1.72-2.05.72-2.27,0-.1-1.04-.46-.75-1.57l-1.74-.03c.53-1.02.48-3.19-1.06-2.82.35-1.46.71-3.19-1.4-3.17.29-1.46.78-2.41.25-3.94-.26-.74-1.12-1.36-1.24-1.94-.31-1.48-.17-3.75-1.48-4.48.45-.32.71-2.07.63-2.48-.02-.12-1.13-.75-.89-2.07.13-.69,1.31-.75-.07-1.07l.33-1.26-1.41.35.7-5.28-1.41.35c.43-.84.04-1.63,1.06-1.94l-.02-.51-.72-.22.35-1.18-.67-.2c1.79-1.18.75-4.44,1.33-6.36l-1.32-.68,1.67-2.46c-.09-.96-1.15-.86-1.32-1.76-.39-2.02.7-1.88.75-2.46.09-1.19-.71-2.53-.57-3.42.1-.67.84-.46.91-1.16.15-1.36-.69-2.34-.6-3,.1-.71.9-2.42,1.63-2.65l-1.41-.35c.3-1.67,1.15-1.23,1.72-1.63.3-.21-.99-6.23,1.45-6.47l-.7-.7c.27-.57,1.36-.85,1.58-1.24.28-.5.05-1.16.2-1.48.1-.22,1.25-1.42,1.28-1.52.28-1.09-.48-1.82-.48-2.11,0-.31.78-.64.58-1.22l-.7-.35c1.12-.02,2.18-1.01,1.75-2.11h1.41c-.66-1.31.24-2.06.5-3.14.09-.39-.14-.8.05-1.4.69-2.12,1.94-1.8,2.62-2.72.38-.52,1.02-2.9,1.4-3.4.68-.89,2.08-.58.72-2.01.91.06,1.65-1.68,2.12-1.95.28-.16,1.52-.17,2.35-.98.98-.95,1.85-3.19,2.4-3.76s1.46-.22,1.93-.89l-.7-.52c1.74,0,1.82-.57,2.16-2.07,1.86.26,1.09-.64,1.7-1.28.27-.28.83-.3,1.17-.53.55-.37-.13-.9,1.67-.49.84-.61.27-2.2.35-2.3.12-.15,2.9-.88,3.6-1.17.47-.19.83-.82,1.19-.89.79-.15,3.2,1.19,2.25-1.13h1.76c.01-.37-.16-.86.23-1.09.2-.11,3.97-.34,4.53-.36.8-.03,1.72.42,2.08.39.32-.02.32-1.07,1.17-1.36.46-.15,1.57.26,2.2.15.83-.15,1.5-1.09,2.46-.56l.02-1.06c1.04,0,1.5,1.04,1.87,1.29Z"/>
  <path class="cls-1" d="M235.78,11.26c.25.17.33.97,1.11,1.15.41.09,1.84-.68,1.96-1.26l1.06,1.41c.86-1.96,1.86-.49,2.8-.4,1.41.13,3.38-1.11,3.57.08.43.05.96-.38,1.4-.36,1.05.04.73,1.55,2.09-.72.79,1.38,1.97.21,2.47,1.76l.21-.67,1.38.31.35-1.41c-.18,1.06.82.4,1.58.54s1.5.51,2.3.52l-.36.7c.79.05,1.5-.43,2.3-.39.88.05,2.8.61,3.81.65.56.02,1.3-.35,1.8-.25,1.38.27,1.36,2.16,2.52,0,1.13.43,2.09.11,3.14.13,1.37.03,1.13.09,2.52-.05,1.23-.12,1.96.91,2.76-1.16l5.13,2.67-.75,2.07.73.36c-1.46,1.15-.94,2.73-1.94,4.05-1.09.18-.91-.13-.88-1.06l-2.05.07-.58.98c-.46-.95-5.48-1.12-6.01-.92-.5.19-.26.91-1.03.96-1.16.08-3.2-.98-3.53-.97-.26,0-.62.57-1.06.58-.88.03-1.06-1.51-1.4,0-.82-.84-1.99-1.02-3.11-.91-1.71.17-.36.82-.59,1.26l-2.62-.37-.2.72c-1.75-1.81-2.18-.47-3.34-.37-1.04.09-1.21-.96-1.48-1.03-.33-.08-2.09-.23-2.41-.2-1.4.13-.76,2.12-2.83.55-.34-.26-.39-.83-.57-.97-.07-.05-1.31.08-1.69-.45l-.53,1.4c-.88-1.1-2.82-1.54-2.65.36l-.87-.7c-.25,1-1.04.48-1.94.71v-1.41s-1.6.7-1.6.7l-.34-.7-.39.74c-2.21-.89-4.99-.81-3.94,2.27.07.2.56.18.73.61.24.61.07,3.35-.16,3.9-.28.67-1.03.34-1,.93l1.06.54-.65,1.35c.66,1.16,1.3,1.14.58,2.64l-.99.23c1.28.93.38,3.03,1.76,3.52-1.23.31-.61,1.22-.79,1.77-.06.19-.62.15-.65.37-.1.77.7,1.38.7,2.09,0,.59-1.15,2.32-1.06,3.13.02.15,1.12.08.73,1.8-.2.91-2.23,1.24-.36,2.11l-1.06.54,1.44,1.25c.09.95-1.08,1.27-1.07,1.36.03.26.44.71.49,1.21.17,1.98.28,1.21.62,2.3.46,1.43-.02,2.22-.77,3.02l1.76.71c.15.57-.48.24-.58.41-.12.21.37,1.02-.82,1l.69.5c-.16.86-1.07,1.41-1.08,1.77-.03,1.17.73,2.82.7,3.91-.05,1.32-.77,2.37.35,4.2l-.67.37.38,1.03-1.06.36c.22.58.95.16,1,.23.2.26.3,1.63.41,1.71.17.12.86-.34,1.24-.31.86.06,1.95.6,3.15.57.97-.03,2.43-.56,3.26-.52.87.05,3.4.88,4.51.83,1.35-.05,2.05-1.88,2.8.1,1.31-1.19,2.13-.08,3.11-.07s3.78-.41,4.67-.75c.48-.18.36-.73.7-.84.41-.13,2.82.09,2.81.99l.76-1.08,2.05.74.4-.72c1.39-.41,1.17.66,1.54.9.15.1,2.99.49,2.2,1.49,1.06.76,1.16,1.5,2.73,1.14.05.04-.39.9-.55,1.04-.54.5-5.21,3.64-5.67,3.78-.15.04-2.91.44-3.06.4-.51-.1-1.32-1.57-2.97-.57-.65.4-.42,1.93-2-.38-2.75,2.3-6.43-1.26-8.12,1.7l-1.94-1.41v1.06c-2.13-.63-4.24-.39-6.34-.71l-.23,1.08h-6.47c.92,1.28,1.84,2.24.36,3.68l1.05.36c-.39,1.31.12,2.58-1.41,3.16l1.05-.18c-.29,1.09.15,2.63-.7,3.35,1.52.48.07,1.68.04,1.81-.04.14.15.47.08.82-.11.55-1.16.85.24,1.23-1.29,1.13-.58,3.22-.33,4.92.07.46.54.84.56,1.08.04.51-.9,1.07-.92,1.75s.9,2.04.45,3.27c-.17.45-.81.41-.84.65-.11.95.92,1.55.95,2.42.03.76-1.19,2.7-.93,3l1.05-.35c.08.89.09,1.71-.7,2.29l.7.33-1.06,4.42,1.41.53c-.15.5-1.31.83-1.36.92-.03.05.29.72.28,1.15-.09,2.51.77,2.69.92,4.43.08.92-.17,2.05.35,3.16.37.79,1.21,1.49,1.23,2.5l1.38-.69c1.3,2.29,4.02,4.34,6.2,2.16l.88,1.7c.46-.67,1.48-.33,1.75-.53s.27-.84.51-.85c.75-.02,3.85.62,4.61,1.01l1.4-1.41c.49,1.82,2.06-.19,2.3,1.76,1.78-1.75,2.71-.42,4.34-.47,1.25-.04,4.5-1.13,6.04-1.14.67,0,1.44.61,2.46.58s2.86-.93,3.73-.89c1.03.05,2.93.96,3.68.8.19-.04.35-1.03,1.41-.96.68.05,1.42.95,2.18.96.68,0,2.23-.07,3.12-.09.47-.01,1.47-.55,2.1-.46.21.03.17.43.26.47.25.12.55-.07.8.14.4.33.86,1.22,1.36,1.66.6.52,1.03-.33.91,1.86-1.66-.24-1.63,2.15-2.16,2.45-.17.1-2.28-.07-3.48.93-.25.21-.95,3.32-1.75-.18l-1.28.97c-1.73-.92-3.54-.11-5.26-.58l-.32.67-1.23-.7v1.41c-1.88-.35-1.19-1.71-3.25-1.02-.31.1-.28.56-.46.61-.45.13-2.31-.36-2.76-.3-.1.01-.63,1.24-1.63.54-.58-.41-.45-1.94-2.08,0l.67.71c.05.27-.34.23-.52.17-1.17-.37-5.5-2.03-6.36-1.96-.61.05-.95.71-1.4.77-.6.08-2.27-1.46-2.82.5-.79-.03-1.17-1.42-2.63-.16-.3.26-.34.82-.38.85-.23.16-2.32-1.15-2.61-1.24-.84-.24-2.78-.3-3.83-.52-.27-.06-.27-.69-.41-.71h-.71s-.54,1.06-.54,1.06c-.14.1-.85-.59-1.3-.65-1.33-.18-1.09.99-2.4-1.11l-.17.7c-1.09-.11-2.8-.41-2.47-1.76l-.52.7c-.13-1.01-1.78-1.31-1.88-1.46-.21-.32-.06-1.83-.42-2.4l-1.04.2c-.9-1.17-.58-2.57-2.12-3.21l.72-1.39c-.28-.16-1.49-1.55-1.54-1.67-.5-1.33.36-2.24-1.63-2.42.27-2.17,2.39-3.2,1.22-5.62l-1.24.02,1.41-2.81c-1.49.29-1.39-1.13-1.43-2.29l1.07-.7-2.06-2.45c-.02-1.11.89-1.68.92-1.78.28-1.09.07-2.92.37-3.91.16-.51,1.25-1.27.78-2.61-2.52.51-1.25-1.95.35-1.58l-1.04-.56.67-2.4-1.39-.56c.65-.44.6-1.18.84-1.82.05-.12.49-.12.55-.36.02-.08-.02-1.62-.04-1.7-.06-.17-.51-.1-.76-.94s-.09-4.78.48-5.22l.69.35c-.28-.96.15-4.47-.05-5.12-.09-.31-.68,0-.65-.34l.71-.35-.71-.35c.43-1,.65-1.02,1.76-.89-.35-.71-1.28-2-1.36-2.73s.52-1.03.55-1.38c.08-1.09.22-4.24-1.3-3.65.02-1.83,1.57-1.51.67-3.24-.19-.37-.93-.43-.89-1.16.05-.79,1.13-1.72,1.15-2.12.03-.49-.83-1.23-.8-1.75.03-.69,2.31-3.4-.49-3.35.74-.92.07-1.67.05-2.3,0-.11,1.18-.84,1.22-1.76.01-.33-.44-.69-.42-1.04.04-.69,1-1.23-.15-2.28l1.05-.53c-2.09-1.44.99-4.8-1.76-4.76.6-1.19,1.43-1.73,1.42-3.16l-1.42-.18c-.01-1.15,1.23-1.44,1.36-1.76.06-.15.07-2.92.04-3.14-.08-.6-.58-1.07-.63-1.5-.07-.72,1.69-3.25-.77-2.75-.37-2.63,2.67-2.6,1.43-4.96l.68-.32c-.9-.75-1.66-.39-1.75-1.77l1.05-.17c.26-.97-.6-.65-1.05-1.23l1.32-1.76-.64-1.41c1.79-.32-.36-3.28-.31-3.48.07-.33.73-.6.86-.93.16-.41.71-2.51.77-2.98.22-1.6-.41-3.19-.27-4.61.07-.75.88-.41.74-.68l-.7-2.29.71.18.05-.84c.96-.76,1.9.15,2.23.15.25,0,.62-.46.98-.46,1.74-.01,3.3.19,4.99.6.67-.24.14-1.02.19-1.05.06-.03,1.28.07,1.33.11Z"/>
  <path class="cls-1" d="M107.6,10.83l.06.99c2.95-.03,2.04,1.29,2.51,2.96.26.95,1.06,1.21.8,2.53-.09.45-.69.64-.52,1.24l.7-.18c.25.82-.36,1.83-.32,2.48.06,1.04,1.8,1.88-.39,2.8l1.05.7-1.64,1.73.95,2.84-.7-.17c.08,1.41-.55,2.78,1.06,3.35l-.71.18.7.51c-.14.42-.94,1.55-.93,1.77.03.6,1.29.94-.48,2.11,1.7.52.06,1.67-.01,2.49-.05.51.78,1.92.66,2.81-.04.25-.34-.36-.38,1.29-.03,1.11-.83,1.07.79,1.86-1.22,1.08-.41,2.48-.52,3.54s-.67,2.39-.53,3.69c2.13-.81-.41,1.71-.46,1.85-.36.93-.61,4.42.81,4.66-.72.58-1.52,2.31-1.34,3.17.07.34,1.14.36.99,1.03.04.8-.92,1.77-.93,2.15-.01.53,1.03,1.32.22,2.28l1.41.35c-1.09-.01-.83,1.4-1.29,2.38-.31.65-1.11.19-.74,2.04.04.19.61.12.59.32-.86,1.35.21,1.11.37,1.51.68,1.76-.43,2.45-.53,3.59-.15,1.68-.18.85-.45,2.03-.15.63.65,1.42-.39,2.07l.68.68c-.27.29-.63.61-.79.98-.98,2.28,1.38,1.99,1.14,2.9l-1.4,1.42c2.24,1.03.83,2.22.74,3.92-.06,1.26.24,2.78.2,4.09-.06,1.74-.94,4.1.1,5.38-1.48.68-.67.73-.86,1.58s-.4,1.76-.54,2.64l.71-.17c-.52,1.22.67,1.47.67,1.56-.03.9-.75,2.57-.85,3.69-.04.47.42,2.8.38,3.22-.09.88-1.04,1.53-1.13,2.62-.06.81.14,4.22,1.29,4.05-.12.68-.82.2-1.06,1.22-.07.31.03.72,0,1.06l1.07.18-.7.35c1.43,1.08-1.47,3.01,1.06,2.83-.13.8-.66,1.73.32,1.9l-.33,1.26c.4.05,1.05-.14,1.36.05.15.09,1.49,2.52,1.81,2.94l4.43,1.92c.24-1.12,1-.14,1.89-.68,0,1.7.5,1.01,1.19,1.2,1.23.34.62.9,1.83-.84l1.06,1.05.7-1.06,2.8,1.08.39-.75c2.39,1.86,5.47-2.03,7.38.38-.13-1.02,4.79-1.09,5.11-.9.54,1.47,1.7,3.27,1.4,4.77l1.06.35c-.75.03-.9.74-1.5,1.16-.07.05-1.17.64-1.34.73-1.17.61-1.78,1.21-3.14.58.41,3.28-4,.73-5.83.69-.82-.01-1.79.51-2.4.38-.26-.05-.21-.73-.43-.73-.83-.03-3.35.71-3.85.71-.55,0-1.02-.84-1.76-.72-.24.04.04,1.16-1.03.37l-.21.71c-.6.16-.14-.64-.55-.7-1.49-.2-1.65.7-1.75.71-1.42.1-2.33-2.32-4.5-1.78-.14.03-.32,1.44-1.42.02-.23-.29.29-1.28-1.1-1.07-.13.02-1.02,2.16-1.6-.52l.72-.53c-1.08-.06-2.84-.38-3.68-1.08-1.48-1.23-1.83-3.87-2.86-5.24-.52-.68-1.8-.73-1.57-2.14l-1.4.7c.29-1.16-.41-1.76,1.06-2.29l-1.39-1.78,1.03-.68-.51-1.94h-1.24s.45-2.99.45-2.99c.81-.28.28-.56.38-.8.04-.1.57-.1.6-.28.11-.82-1.12-1.52-.69-2.76l1.02-.58c-.68-1.02-1.45-1.55-.35-2.64-2-.61,1.1-3-.66-3.51l1-4.27c-.54-1.13.77-4.43-1.04-3.66.01-.58-.15-1.25.17-1.78.24-.39,1.21-.08.88-1.04l-1.06-.17c1.7-1.39.66-2.76,1.75-4.24l-1.05-.17-.36-2.11,1.41-.18c-.3-1.23-1.46-.54-1.43-1.4l1.08-2.83-.7-.33c1.25-1.44-.47-2.5.71-3.88l-.71-.53c.92.19,1.57-2.39,1.34-2.78-.09-.14-.86-.17-.95-.59-.05-.24-.24-4.45-.23-4.77.03-.66.98-2.96.84-3.31-.21-.53-2.32-.93.41-1.77.04-.49-.5-1.06-.55-1.56-.08-.68.34-3.55.11-4.43-.06-.24-.83-.22-.84-1.06s.75-.75.9-1.15c.89-2.35.31-3.55.49-5.2.04-.34,1.67-1.6.57-3.12-.3-.42-.95-.56-.98-.62-.07-.13.32-.69.23-1.1-.11-.51-.67-1.03-.67-1.47,0-.14,1.16-.29,1.25-1.91.04-.67-.41-1.2-.38-1.63.03-.51.62-.96.57-1.74-.04-.55-.59-1.06-.59-1.43,0-.82,1.49-1.14.22-2.47l.73-.72-.37-1.91h1.06c-.28-1.71-2.43-3.44-.36-4.76-.39-.99-1.7-.45-1.75-.53-.44-.64.64-.66.86-1.36.28-.89-.69-1.73-.17-2.63.23-.4.75-.1.97-.3.46-.42.8-4.99-.61-5.03.81-.79,1.21-1.6,1.05-2.79-.03-.22-1.07-.06-.34-1.62l-1.06-.35c.86.19.58-.77.8-.97.2-.18.71-.03.87-.16.53-.46.01-2.4.09-3.1h-1.41c-.09-1.99,2.08-3.11,3.51-4.08.46-.31.31-1.32,1.75-.82Z"/>
  <path class="cls-1" d="M372.12,7.03l.41.59.53-.7c1.25,1.45,2.53,3.06,2.33,5.13-.08.85-.81.22-.74.85,1.88.32.45,1.74.37,2.67s.8,2.17-.37,2.44l1.05.18-.36,2.82-.69-.36c-.1,1.23,1.16.17.32,1.9,1.5.52.5,2.75-.68,3.21l1.41.18c0,.97-.83,1.49-1.01,2.27-.25,1.07.67,2.23.66,2.84-.01.7-.9.99-.94,1.39-.05.46.72,1.41.62,2.09-.06.39-.89-.03-.73.56l.7.18c-.9.28-1.8,1.97-.7,2.46.54.24,1.44-.08,1.4.53l-.69.22c-.28,1.09.03,3.08-.1,4.1-.18,1.53-1.59,5.53-.27,6.47.39,1.45-.82,1.18-.98,1.74-.18.59.08,2.91-.43,3.84l.7-.17-.7,2.47h1.41c-.25,1.82-.86,1.13-1.38,1.44-.42.26.9,1.57.92,1.94.05.88-.71,1.99-.61,2.73.03.22.52.23.56.31.1.19-.13.4.15.76.18.24,1.02-.02.7.9-.77-.16-1.27,1.41-1.37,2.03-.09.59.52.35.65.72.7,2.05-.55,2.38-.91,3.83-.1.42.12,5.66.2,6.31.04.37.79.89.66,2.45-.1,1.26-.81,1.13-.9,1.39-.06.18-.11,3.65-.04,3.83.19.49.79.46.93.65.07.1-.23.38-.15.55.04.09.6.1.59.25-.04,1-1.41.86-1.42,1.07.01.89.92,2.08.94,2.81.02,1.29-.61,4-.47,5.24.08.79,1.11,1.72,1.16,2.51.1,1.57-2.61,2.84.15,2.99-1.31,1.35-.18,2.86-.17,3.9,0,.67-.57,2.38-.46,2.96.02.13,1.51,1.12,1.55,2.12,0,.22-.43.6-.42.87.03.73.43,1.49.4,1.94-.07,1.15-.98,3.69-.82,4.94.03.21.49.19.6.45.27.64.15,4.02.07,4.86-.01.13,1.35.5.93,2.17-.4,1.58-1.13.64-.81,3.09.05.37-.28.89-.12,1.17.1.18.98.29,1.19.74.16.34-.27,1.09-.2,1.6.1.74.43,1.16.57,1.77.12.55-.74,1.09.52,1.4l-1.06,1.76c.85.43,2.02,1.58.71,2.11-.27.11-.71-.17-.82-.11-.07.03-1.24.8-1.3.85-.42.35.04.84,0,.86-.47.29-2.26-.41-3.01-.39-.48.01-.97,1.62-2.09.41-.2-.22-.54-2.99-.63-3.12-.14-.18-.7-.17-.89-.64-.15-.37.16-2.89.49-3.33l-1.28-1.55,1.35-1.76c-1.29-1.18-.62-2.35-.75-3.48-.04-.32-.4-.59-.4-1.16-.01-1.25.15-2.34,1.23-3.11l-.87.17c-.85-.54-1.11-1.63-.88-2.58.07-.3.66-.06.71-.76.08-1.03-.57-1.74-.66-2.47-.13-1.11.75-1.79.26-3.5-.45-1.58-1.74-.71-1.1-2.25l-.64-.23c.18-.75,1.25-1.92,1.32-2.52.25-2.44-.86-4.58-.94-6.69-.06-1.76.96-1.4-.97-2.77.28-1.69,1.58-1.21,1.21-3.19-.03-.16-.79-.1-.44-1.23h-.89c.04-2.01,1.39-3.57,1.07-5.8l-1.08-.19.71-7.38-1.06-.19,1.05-1.41c-1.07-.11-1.14-2.15-.8-2.9.25-.53.88-.37,1-1.47.21-1.84-.84-2.17-.84-2.3-.04-1.16.96-1.73.99-1.84.08-.31-.43-1.74.04-2.35l-1.43-.59c.54-.5.34-1.36.47-1.68.04-.08.52-.14.58-.32.19-.56.67-2.31.66-2.78,0-.11-1.03-.27-.98-1.38.04-.9,1.13-3.16,1.21-3.87.04-.38-.47-7.34-.59-7.71-.19-.55-1-.48-.99-.73.01-.39.87-1.37.9-1.79.01-.28-.12-.53-.05-1.38.16-2,.16-4.66-.51-6.52l1.4-.58c-.35-.89.19-1.81,0-2.69-.02-.1-1.3-1.38-1.33-1.5-.05-.17.33-1.12-.06-1.55l1.4-.38c-1.07-1.3,1.35-2.2-.36-2.63l.71-1.94h-1.41c.13-.7.16-1.87,1.05-1.77-1.72-1.05-.75-2.05.35-3.34-.51-.85-.99-.13-1.75-.18l.31-1.55,1.1-.21c.13-.71-.65-.93-.71-1.59-.08-.81.66-1.57.54-2.33-.13-.88-2.08-.59.87-2.6l-1.04-.56c1.08-1.16.09-4.81.67-5.7.38-.58,1.48-.92,1.5-2.3l3.04.04Z"/>
  <path class="cls-1" d="M209.72,199.13l.24-.63.88.71c-1.67.67-3.47,2-4.57-.17.53-1.27,3.26.27,3.45.09Z"/>
  <polygon class="cls-1" points="212.25 196.75 212.25 197.8 210.84 197.8 210.84 196.75 212.25 196.75"/>
</svg>