<?xml version="1.0" encoding="UTF-8"?>
<svg id="Layer_1" data-name="Layer 1" xmlns="http://www.w3.org/2000/svg" viewBox="0 0 219.03 748.96">
  <path d="M174.46,18.65c-1.92,1.55-7.37,3.07-9.77,5.25-1.2,1.09-4.23,7.49-5.26,8.56-1.34,1.4-5.81,2.69-7.13,5.1-1.23,2.25-1,5.64-2.61,7.37-1.49,1.6-3.7-.02-4.38.46-1.43,1.01-.79,4.12-1.78,5.57-.86,1.27-5.44,2.3-7.54,4.12-4.02,3.5-3.73,7.05-4.12,11.85-1.64-1.19-6.45.22-7.26,1.4-.5.74,1.19,2.84.94,3.99-.34,1.6-4.94,2.81-6.31,6-1.06,2.48.16,4.47-.37,5.82-.67,1.72-5.44,9.04-7.87,7.33l.02,2.43c2.92-.2,2.63,1,2.44,3.69-1.68-.1-3.33-.18-4.89.67-.65.35-10.15,9.74-10.52,10.37-.18.3-.85,3.69-1.69,5.84-1.73,4.4-2.53,12.96-8.7,12.64l.72,3.68c-7.32,1.76-7.3,12.67-10.5,19.05-1.02,2.03-3.67,3.35-3.75,3.83-.37,2.15,1.55,5.13-.09,7.61l-4.8.12,1.31,4.12c-4.55,1.94-3.41,8.48-5.27,12.2-4.34,8.64-8.12,17.18-12.46,26.58-3.61,7.81-2.06,16.44-3.47,23.59-.33,1.66-2.86,4.2-2.44,6.95l-3.52.8c.99,7.01-1.53,13.76-2.28,21.01-.43,4.19,3.36,3.72-4.89,6.72-.7,2.85,3.51,8.37,3.45,8.86-.35,2.81-2.09,3.79-4.8,3.29l2.44,1.82c-2.87,2.08-1.02,4.88-1.55,7.02-1.2,4.86-4.7,10.5-6.29,14.44-1.88,4.63-.5,22.71-.68,28.83-.09,3.19-1.54,6.02-1.27,9.21l3.49.14.18,4.78-4.92.61,4.31,1.76.64,3.17-2.37,1.13c3.92,4.77-4.86,8.39,1.12,9.88l-2.47,5.53,4.86,1.32c-1.14,1.66-.21,4.35-.8,5.77-.68,1.64-2.79,1.36-2.81,2.24-.05,2.1.2,7.27,2.29,7.22l-1.01,2.94,3.59,2c-8,5.16.95,10.13,1.2,11.11.86,3.37-4.86,8.11-4.87,8.63,0,1.07,1.1,2.48,1.13,3.77.21,10.4,3.47,20.67,7.51,30.54l.03,1.12c-4.79,1.12.05,4.3-2.54,8.01l3.68.03-1.22,9.79,4.92.02-4.31,9.97,7.36,15.63c-1.64,5.6,1.24,9.53,1.87,14.89l2.4-1.23,2.4,10.49,5.01.56c-.35,1.77-1.31,8.05-.96,9.19.84,2.71,12.66,29.58,14.42,32.01.83,1.14,3.07,1.34,3.85,2.61.85,1.39.13,9.92,2.65,12.31.8.76,3.24.38,4.1,1.49.78,1.01-.66,2.63-.33,3.45.99,2.46,6.96,6.23,7.6,7.68.6,1.37-.47,2.98-.17,4.03,1.59,5.53,5.35,4.26,6.37,5.67,1.51,2.1-1.02,5.43.42,7.78.88,1.43,3.86,2.06,5.15,3.93,2.99,4.32,4.93,11.67,10.15,17.37,2.36,2.58,4.31,4.91,8.14,4.14-2.79,4.03,3.47,11.78,6.4,14.33.35.3,1.8-.51,2.18-.2,2.07,1.7.14,6.33,1.24,9.18l5.53-.09c1.94,2.13.77,4.75,1.75,6.88,1.98,4.32,6.41,5.71,7.57,7.58,1.01,1.63-.25,5.22.99,6.95.87,1.22,3.02.32,3.9,1.49,2.28,3.02.36,7.87-1.63,10.62-5.86,8.1-9.62,1.21-17.47.98-1.96-2.66-1.23-8.4-2.41-9.96-1.31-1.74-4.54-.56-5.41-1.41-.47-.47.12-2.41-.46-3.07-.74-.83-3.17-.29-4.56-2.25-1.28-1.81-.8-5.22-1.91-6.69-1.1-1.46-4.1-1.2-4.98-2.37-.47-.62,1.22-4.44-.44-6.7-.82-1.12-2.68-.44-3.41-1.04s-3.37-6.27-4.79-8.18c-3.03-4.09-7.81-5.22-6-11.16l-4.32.02c1.54-4.91-2.72-5.27-3.67-7.08-1.02-1.92-.64-5.01-2-7.57-.66-1.25-4.6-3.4-5.76-5.36-1.54-2.62-2.39-10.92-6.97-8.22-.42-.42-1.4-9.42-2.65-11.5-1.43-2.38-4.01-1.56-4.85-2.78-1.16-1.67-.57-5.63-1.38-6.4-.51-.48-2.47.11-3.08-.43-.55-.48-4.19-11-5.62-13.48-1.25-2.17-3.58-2.81-3.9-3.39-.68-1.23,1.47-6.44.59-8.65l-3.67,1.23c-1.71-3.71-.85-15.66-4.31-17.18l-1.82,2.44c-2.91-2.51-1.2-8.05-1.44-8.42-.26-.4-2.43-.28-3.26-2.2-.89-2.05-.11-5.38-.78-7.22-2.26-6.21-6.7-15.85-10.06-21.43-.48-.8-2.44-.94-2.71-1.42-.78-1.37.91-3.11.74-4.16-.08-.51-5.4-6.17-5.78-7.48-1.19-4.17,4.5-17.49-4.95-20.67-1.54-2.94,6.31-.81,3.67-4.29-.23-.3-4.4,4.26-1.37-5.53-.51-.25-3.92-5.8-4.2-6.66-1.13-3.5,2.37-8.33-1.87-9.36,4.52-6.46-2.18-12.36-2.23-18.27-.02-2.39,1.55-4.62,2.33-6.78l-3.68-.03c2.17-8.77-2.99-16.14-2.32-25.07.12-1.66,2.67-4.83,1.93-6.26s-2.7-1.38-3.1-2.41c-.71-1.82,1.49-8.03,1.67-9.81.08-.75-1.38-1.78-1.38-2.45,0-2,2.57-3.26,1.95-5.52l-4.89,1.22c-2.1-4.51,2.54-6.4,2.59-7.92.17-5.67.89-15.76.76-20.66-.08-3.18-3.33-9.56-2.87-12.57.17-1.12,5.53-8.42,5.7-10.97-6.07-1.53,1.56-8.59-3.74-9.84l.05-1.8c5.03-.95.57-11.58,6-15.56l-.48-1.69c-7.63-2.94,2.83-7.61,3.96-12.87l-3.35-3.65c12.08-5.26-.71-19.34,9.82-24.58l-2.26-3.65,5.94-3.08-3.71-5.5,3.67-2.45-3.61-1.95c2.54-2.03,2.38-9.08,2.65-9.51,1.32-2.07,8.22-6.52,10.18-11.35,1.22-3.02.13-9.03.53-11.31.23-1.27,2.94-1.39,3.84-2.57,2.96-3.89,9.17-17.94,10.53-22.79.69-2.45-2.7-4.27-.78-7.39l4.9,1.23c.4-.37-1.19-6.03-1.01-6.76s2.22-.44,2.24-1.31c.03-.94-1.25-2.34-1.03-3.49.42-2.1,6.13-4.13,6.78-4.77.5-.49.35-1.88.91-2.77.36-.57,1.9-.65,1.93-1.29.06-1.43-1.72-3.51-1.21-5.36l4.39-1.2-.74-3.74,3.81-.74-.11-7.84c7.37,1.26,5.53-13.77,12.26-11.05l-.09-4.36,3.77-.55c-3.7-6.37,3.78-7.16,4.66-8.84.75-1.42.99-3.7,2.6-6.86,1.37-2.7,4.33-10.58,5.7-12.43,2.71-3.65,8.76-6.36,10.3-11.88l-2.27-3.43c1.95-4.41,5.48-5.25,9.6-7.04l-1.12-4.73c5.61-.3,8.21-7.11,11.11-11.37.89-1.31,3.42-.32,1.18-3.35,1.53-.47,6.91-.32,7.78-1.09,1.23-1.08.75-2.87,1.47-3.78s6.71-4.87,8.42-7.49c1.18-1.82,1.69-3.96,1.99-6.07,3.97,2.47,5.03.44,7.76-2.49,1.29-1.39,5.39-7.75,7.66-9.69,5.11-4.38,10.33-5.41,16.85-3.5,7.09,2.07,2.5,14.09-1.99,17.74Z"/>
  <path d="M194.86,676.41c.09.4,3.04,3.06,2.9,7.09-.07,2.02-2.23,3.68-1.93,4.15.08.13,1.49-.04,1.88.59,1.19,1.98-.37,4.05,4.14,3.22-.34,3.48-.02,12.24,1.02,15.42,1.63,4.99,10.79,16.21,12.88,21.67,1.15,3-1.21,8.21,3.27,11.38-2.42.81-4.04,4.33-5.23,5.18-.27.19-5.11,2.66-5.43,2.74-4.73,1.15-14.34,2.58-16.95-2.4h-1.79s-2.83,3.49-2.83,3.49c-1.6-.38-3.02-1.02-4.44-1.85-1.98-1.15-4.07-6.83-6.17-5.21-.37.29.66,2.53-1.78,2.35-7.29-.54-10.26-6.11-16.71-6.13-.28,10.16-6.45-2.27-7.67-2.87-5.52-2.69-10.03.18-16.02-3.33-4.4-2.57-10.47-3.69-15.04-5.74-10.25-4.61-6.75.22-14.15-9.45-.7-.92-3.54-1.67-3.54-2.56,0-.43,1.95-1.48,1.96-2.44.01-1.11-3.19-2.81-1.47-4.35,2.48-.56,16.34-7.62,17.22-7.31,1.56.55,1.43,2.44.63,3.66,2.81,1.51,6.78-2.74,7.95-2.45,1.05.26,1.32,2.79,2.19,3.36,4.22,2.75,13.18,1.99,18.15,2.06l1.21,4.42c3.99-1.43,8.13.68,12.24,1.23-.6-9.26,6.95.95,9.78,1.71,1.6.43,3.46-.73,5.23-.26,1.51.4,8.05,3.81,8.31,3.45,1.26-6.36-5.83-5.23-3.68-12.27l-3.52-.78,1.08-9.02-3.69-.02c2.35-7.41-1.08-5.59-2.86-8.92-.85-1.58.35-9.77-2.18-12.6l2.65-2.42c-3.86-6.39-1.71-11.29,1.93-16.41l14,.38c1.76,5.67,1.83,6.67,7.3,8.69-2.46,2.19-1.54,9.42-.85,12.58Z"/>
</svg>