<?xml version="1.0" encoding="UTF-8"?><svg id="Layer_2" xmlns="http://www.w3.org/2000/svg" viewBox="0 0 289.48 107.99"><g id="asun"><path d="M106.15,25.97l.07-.26h.33s.13.48.13.48l.39-.07c.02.31.28.5.38.76.16.43-.26.67.57.57-.26.7.36.88.63,1.43.1.22.38.9.43,1.07.15.44-.16.98.54.7-.13.21.03.42,0,.58-.02.14-.4,0-.27.35l.67-.13c-.41.88.29,1.01.52,1.41.2.36.33.96.61,1.47.23.41.05.32.1.44.02.05.64.29.25.95l.24-.09.09.19.2-.1-.12.74c.35.14.41.37.25.72l.8.27-.13.59c.13.32.44.02.53.07.03.01-.09.18-.05.26.08.17.22.29.29.5.14.43-.22.55.36.56.07.13.02.33.08.44.16.31.39.67.58,1.05.16.32-.14.84.74.52v.93s.4-.13.4-.13c.3.34-.16,1.02-.13,1.06.06.09.45,0,.13.67.57-.15.76.86.4,1.2.48-.07.31.42.8.13l.14.73-.27.21h.53c-.33.52.11.69.11.73,0,.08-.12.23-.08.37.24.88.83.89,1.03,1.41.16.44.04,1.75.3,2.01.07.07.54-.02.66.21l.12.81.4-.07c.03.26,0,.57.1.8.15.39.55.36.3.66l.41.08c.19.28-.12.48-.08.73.01.09.43,1.01.5,1.1.24.31.53.19.75.59.23.43-.09.55-.05.71.08.34.42.36.46.41.02.03-.15.31-.09.55.1.41.78.94.83,1.07.07.2-.07.4-.05.54.04.21,1,1.36,1.19,1.65.12.19.01.41.03.43.07.07.35.06.48.18s.97,1.56.83,1.7h.39c.21.84.83,1.75,1.24,2.58.13.26.32,1.02.4,1.13.02.02.33-.04.58.15v.27c.69-.15.12-.81.13-1.13,0-.29.69-1.2.48-1.4-.07-.06-.45.13-.4-.13.1,0,.16.03.23-.07s.3-.41.31-.43c.14-.25.2-.5.24-.77-.12-.32-.43-.02-.51-.07-.04-.57.21-.49.36-.69.03-.04,0-.83.3-.98l-.4-.13c-.05-.35.47-.65.49-.8.03-.23-.38-.83-.37-1.06,0-.1.45,0,.28-.34l-.4-.06c.25-.38.12-.84.35-1.24.13-.22.3-.16.31-.17.03-.06-.21-.31-.24-.49-.1-.67.13-1.29.43-1.84.24-.44-.02-1.13.11-1.76.07-.35.4-.61.43-1.09.04-.61-.4-.36-.46-.42-.24-.25.43-.94.47-1.19.03-.2-.16-.34-.15-.48.01-.2.3-.55.08-.93l.27.07-.27-.34.14-.26-.4-.07c.08-.23.38-.32.41-.6.04-.47-.54-.72.26-1.33l-.53-.2c.66-.72-.12-1.42.53-2.2l-.4-.07v-.27c.4.05.14-.25.24-.48.08-.19.25-.2.28-.3.14-.43.54-1.58-.12-1.63l.28-.21c-.1-.4-.21-1.03.26-1.19l-.27-.07v-.2c.14-.14.28-.25.37-.44.16-.37.36-2.33.21-2.66-.09-.19-.32-.16-.31-.23.52-.43.36-1.04.54-1.67h-.54c0-.78.36-.55.61-.79.02-.02.05-.58.04-.61-.04-.11-.45.07-.03-.59.07-.11.32-.12.33-.23.02-.15-.14-.35-.13-.52.02-.44.79-.91-.28-1.19l.48-.54c-.09-.15-.23-.81-.19-.93.03-.08.34-.09.31-.54,0-.19-.21-.55-.19-.58.03-.05.59-.34.66-.62l-.4-.07c-.08-.61.24-.49.38-.74.16-.29.26-.63.44-.9.16-.25.61-.25.38-.62l1.47.21c.38.44.38.71,1,.99l-.08,3.4.54.27c-.07.23-.54.58-.51.78.06.4.77.48-.02.83l.28.39c-.51.87-.5,1.37-.61,2.28-.02.18-.18.31-.21.4s.21.03.24.13c.21.74-.35.86-.37.96-.17.65.14,2-.34,2.71-.09.13-.3.12-.32.14-.03.04.2.31.22.48.05.38-.01,1.04-.1,1.43l.27.21c-.55.01-.24.67-.37,1.01-.08.2-.28.19-.29.27,0,.1.12.24.1.37-.03.2-.94.98-.25,1.21l-.13.73h-.39c.5.47-.1,1.13-.11,1.67,0,.22.16.49.12.74.11-.06.33-.27.26.06-.1.45-.84.96,0,.87.07.36-.49.75-.5.86,0,.1.18.25.18.4,0,.24-.25.63-.29.94-.06.48.39,1.02-.07,1.6l.26.13v.69s-.25.12-.25.12c.61.59.21.85.18,1.23-.06.73-.22,1.21-.27,1.73-.04.36.21.95.09,1.43-.03.1-.23.08-.26.18-.06.21.27.96.27,1.17,0,.08-.2.06-.23.15-.11.27-.43,1.44-.29,1.65l.65.21c-.09.38-.55.76-.6.99-.05.25.29.61-.2.55l.39.2-.26,1.32-.41.09.15.59-.28.08.27.22c.14.54-.45.94-.41.98l.4.07c.04.51-.4.61-.46.73-.34.62.17,2.21-.47,2.88l.26.12c-.11.15-.08.36-.14.51-.53,1.29-.56,1.88-1.47,2.97-.09.11-.29,1.59-.65.2-.34.12-.57.27-.53.67l-.53-.35v-.52c-.64.19-.49-.36-.71-.56-.17-.16-.86-.23-1.05-.53s0-.56-.08-.81-.81-.47-.58-1.1l-.66.13c-.11-.16,0-.75-.03-.78-.04-.06-.29-.06-.35-.24-.09-.25.06-.88-.04-.97l-.36-.03-.31-.91-.52.12.09-.24c-.36-.22-.38-1.1-.54-1.52-.29-.77-.94-1.15-.89-1.98l-.26.14c.16-.61-.7-.7-.78-.83-.07-.1.02-.33-.06-.47-.09-.15-.63-.44-.69-.57-.1-.21.36-.48-.33-.42.25-.75-.27-.57-.41-.74-.45-.51-.08-1.61-.79-1.25.12-.3-.22-.4-.23-.43-.05-.19.04-1.03-.07-1.15-.05-.06-.33,0-.45-.15-.11-.14-.17-.78-.36-.91-.03-.02-.18.1-.21.08-.11-.09-.14-.41-.43-.37l.26-.33c-1.08-.58-.5-.92-.66-1.58-.02-.09-.21-.09-.23-.12-.1-.22-.08-.23-.26-.55-.38-.68-.02-1.29-.98-1.29l.24-.15.02-.31c-.4-.33-.64-.3-.4-.87h-.53s0-.8,0-.8l-.67.14v-.8s-.66,0-.66,0c-.05-.58.38-1.03-.4-1.21l.13-.38c-.81.29-.53-.46-.61-.81-.04-.18-.42-.57-.51-.81-.1-.26-.25-1.17-.36-1.31-.02-.02-.31.18-.58-.15-.33-.41-.35-.84-.49-1.23-.04-.11-.21-.1-.22-.12-.02-.05.13-.64-.18-.9l-.39.12v-.93s-.4.13-.4.13c-.04-.26.06-.61,0-.84-.04-.14-.32-.13-.38-.31-.14-.41.25-.83-.42-.72.27-.7-.42-.65-.59-1.22-.11-.39.06-.5.05-.69,0-.05-.52-.29-.27-.88l-.4.13.14-.27h-.4s.27-.6.27-.6l-.34-.46-.34.59.4.65-.66.69.4.27c-.06.36-.4.54-.42.93,0,.24.22.18.25.26.08.24.22.97.17,1.18-.03.1-.27.09-.27.16,0,.35.3.58-.14,1.06l.07.2c.65.24.41,1.01.07,1.46h.4c-.31.21-.12,1.01-.16,1.05-.07.06-.29-.07-.24.15l.53.07c-.48.11.05.72-.67.6-.11.37.45.44.51.6.08.18-.31.6-.38.81-.17.52.26.6-.13.99l.53.13c-.11-.02-.63.57-.65.62-.18.51.24,1.4.18,1.8-.03.24-.31.23-.34.34-.1.47.05,1.69-.1,2.01-.08.18-1.02.87-.04.84-.31.39-.26.91-.13,1.37.04.13.28.05.26.28-.02.26-.29.61-.28.81,0,.08.22.06.24.14.19.6-.03,1.51-.5,1.87.24.3.25.48.67.54l-.27.13c.62.25-.07.5-.11.83s.12.57.12.89l-.27.14c.4.44.02.82.02,1.05,0,.19.45.46.38,1.22-.05.47-.3.75-.38,1.11-.07.32.1.7.06,1-.1.74-.56,1.48-.21,2.35l.52.08c-.27.4-.18,1.08-.8,1.14l.4.13c-.12.69-.27.41-.52.54-.04.02.02.72.26.84-.02.71-.47.38-.67.48-.06.03.1,1.02-.4,1.13l.27.26-.15.32-.6-.11c-.06.48-.74.14-.85.26-.08.08.12.44-.14.39l-.07-.24-.2.11v-.67c-.84.02-.55-.29-.72-.64-.04-.09-.34-.04-.34-.61,0-.36.41-.5-.25-.5-.36-.53.35-1.07.31-1.51-.02-.19-.35-.49-.34-.81.01-.25.32-.33.26-.59l-.4.13c-.08-.24.21-.31.22-.47,0-.11-.16-.26-.16-.39.03-.46.36-1.36-.06-1.48.51-.71.75-1.54.13-2.27l.25-.12c-.31-.38.24-.96-.25-1.08.43-.26.04-.52.05-.8.05-.88.24-1.9.61-2.67-.56-.15-.09-.74-.07-1.11.02-.26-.16-.5-.15-.75.03-.76.46-2.23-.02-2.8-.11-.4.28-1.99.22-2.14-.05-.12-.25,0-.24-.13.73-.27.26-.71.28-1.19.02-.4.37-1.32.25-1.73-.03-.1-.24-.08-.26-.17-.04-.23.14-.76.08-1.11-.03-.2-.28-.38-.21-.59.05-.15.32-.16.38-.24.07-.1,0-.96.02-1.08.02-.1.24-.08.26-.18.09-.31-.22-1.03-.22-1.29-.01-.54.4-2.06.36-2.28-.02-.11-.24.03-.27-.4-.06-.76.17-1.48.28-2.22l-.4.13.1-.24-.24-.09c.08-.45.51-.31.54-.34.05-.04-.06-1.22-.4-1.07v-.13c.42.08.1-.31.21-.68.09-.3.46-.75.45-.99-.01-.19-.22-.31-.24-.43-.03-.15.43-.64.23-.97h-.39c-.07-.06.54-.84.53-1.01s-.21-.29-.22-.4c0-.05-.01-.86,0-.94.02-.45.14-.94.22-1.38-.19.07-.35.12-.4-.13.49-.09.29-1.17.53-1.6h-.4s.16-1.44.16-1.44c.44-.32.56-.7,1.06-1.03.35-.23.7.04.65-.6l1.33.39Z"/><path d="M26.15,22.29c.81.59,1.86.14,2.46.81.06.07.23.61.47.74l.52-.27c.39.19.04.64.13.8.03.05.72.48.91.6.13.09,1.21,1.05,1.27,1.22.1.26.8,1.98.83,2.11.06.31-.11.64-.07.88.07.34.46.54.55.68.05.07-.06.28.03.41.1.14.34.02.28.22-.21-.15-.38.59-.38.73,0,.6.63,1.54.52,2.21h.54c-.25.66.08,1.24.14,1.8.05.49-.36,1.31.38,1.59l-.26,1.27.53-.13c.08.09-.1,1.17-.09,1.42.01.27.34,1.23.33,1.42-.01.21-.22.44-.22.69,0,.36.45,1.31.51,1.75s-.22,1.12-.11,1.43c.07.2.34.19.37.23.05.07-.17,1.36-.25,1.59l.27-.07c.06.46-.35,1.4.4,1.27-.18.48-.69,1.25,0,1.53l-.4.74c1.02.23,1.82-.25,2.84.13.12.39.55.68.72.98.2.36-.16.56.71.63.14.47-.4.31-.13.66-.55-.13-.32.3-.48.42-.08.06-.9.06-1.09.29-.08.1,0,.33-.03.36-.07.08-.67-.26-.88-.27-.3,0-.44.25-.64.26-.46.02-.47-.4-.87.35l.4.06c.2.69-.23.62-.26.67-.03.04.23.28.26.47.07.4-.12.76-.09,1.05,0,.08.34,1.38.37,1.45.08.19.36.05.13.77l.2-.27c.23.09.31,1.67-.21,1.68.03.32.33.84.35,1.11.02.49-.23,1.17-.04,1.94.04.17.63.29.1,1.06l.4.4c-.02.42-.44.45-.39.67.02.09.34.04.34.46,0,.3-.53.53.2.68-.19.34-.33.49-.37.9-.03.36-.07,1.61.5,1.37.12.35-.31.64-.34.86-.15,1.06.83,2.67.08,3.88l.25.19c-.53.18-.95.55-1.14,1.07-.4-.38-1.03-.07-1.36-.23s.02-.54-.57-.04c.06-.29-.35-.36-.38-.42-.05-.09.33-.34-.16-.46l.15-.66c-.49-.39-.08-.64-.07-.93,0-.66-.28-1.34-.44-1.87-.21-.68.29-1.4-.16-1.59l.14-.4-.28-.08.27-.13c-.54-.5.09-.77.13-.89.08-.29-.34-1.1-.34-1.31,0-.1.26-.44.18-.67-.03-.07-.2-.06-.21-.08-.05-.15.33-.43-.16-.38-.06-.06.41-.37.27-.53-.26-.29-.22.34-.4.27l-.1-.74.5-.2c.05-.4-.39-.68-.39-.72.02-.31.34-.97.26-1.32l-.54-.23.53-.6c-.18-.23-.39-.32-.66-.2l.4-1.27-.26-.12c.34-1.24,0-2.56-.01-3.81l-.26.14c-.07-.1.35-.75,0-1.01-.37-.28-.42.16-.47.17-.65.22-.78-.43-.87-.37-.2.83-1.3.5-1.8.61-.25.05-2.41.79-2.52.87-.17.11-.22.5-.55.36-.14-.06.06-.39-.63-.09-.1.05-.11.25-.18.26-.17,0-.39-.18-.64-.14-.1.02-.03.27-.28.29-.86.06-1.61-.09-2.37.2-.51.2-.54.03-.96.04-.09,0-.06.23-.14.25-.03.01-.42-.08-.68,0-.11.03-.73.53-.79.53-.22,0-.26-.42-.96.09-.19.14.16.34-.51-.05l-.14.41c-.45.26-.65-.01-.92,0-.08,0-.06.23-.17.27-.27.07-.68-.03-.97.15.11.65.01,1.32-.27,1.93l.27.13c-.08.22-.54.52-.54.55-.02.22.18.45.12.75-.04.23-.33.44-.33.57,0,.38.07.93-.12,1.39-.12.29-.77.56.08.54.08.39-.36.66-.37.7-.06.16.02.48-.12.77-.05.09-.28.1-.32.23-.12.49.25,1.36,0,2.2-.19.61-.32,1.39-.49,1.93-.1.32-.87,1.08-.17,1.11v.13c-.72.1-.51.66-.64,1.03-.17.49-.51.85-.43,1.51l.4.07c-.08.32-.58.5-.65.69-.06.17.1.45.06.64-.24,1.03-1.22.67-1.63,1.32-.2.31.18.47-.64.2-.09.01-.07.23-.1.25-.38.26-1.66-1.18-2.11-.77-.2-.27.1-.54.09-.6,0-.11-.59-.56-.36-1h-.54s0-.66,0-.66l.4-.07c.03-.66-.53-.87-.53-.93,0-.45.88-1.19.39-1.81.76,0,.72-.46,1.07-.97.09-.13.29-.17.39-.32.39-.6.43-2.19.66-2.79.16-.41.47-.39.54-.57.39-.92-.02-2.81.4-3.31.14-.17.39-.17.41-.19.03-.05-.54-.53.27-.86l-.53-.67.8-.67c.09-.35-.29-.13-.4-.2l.12-.47-.25-.19c.88-.04.66-1.58.84-1.71.08-.05.28,0,.33-.05.03-.03.26-.79.27-.88.06-.34-.43-.87.06-1.2.22-.16.56.22.22-.55l-.66-.02.38-1-.25-.19c.27-.19,1.03-.76,1.21-1,.04-.05.49-1.04.51-1.1.08-.3-.23-.55-.18-.85.04-.25.35-.5.43-.76.17-.53.45-2.03.52-2.58.05-.42.36-.38-.21-.92.59-.11.49-1.01.93-1.4l-.53-.07c.14-.27.12-.75.52-.55l.28-1.13-.4-.46.53-.47-.26-.33c.25.07.63-.82.66-1.01.05-.26.08-1.31.08-1.59,0-.19-.22-.3-.16-.61.05-.26.92-.94.99-1.29.06-.27-.19-.56.15-.77l-.66-.33c.4-.2,1.46-1.05.53-1.2l.26-.21c-.06-.32-.17-.85.14-1.05.29-.18.55.14.29-.55.56-.3.38-1.35.66-1.97.12-.27.51-.11.69-.63.1-.28-.05-.61,0-.73.07-.22.39-.1.36-.33l-.39-.2c.34-.47.22-1.2.93-1.01.06-.25-.29-.89-.27-.93,0-.01.18.03.27-.1.18-.26.48-.87.03-.86l-.03-.18c.09-.24.95-.67,1.15-.91.13-.16.15-.49.31-.67.09-.1.67-.34.82-.55s-.04-.66.46-.87l.46.27.14-.79.6.11.19-.19-.13-.33c.42-.02.95.18,1.36,0,.3-.14.07-.58.59-.2ZM29.69,30.76c-.03-.07.13-.28.11-.44-.05-.27-.38-1.65-.46-1.87-.04-.12-.47-.81-.55-.87-.26-.23-.45-.01-.71-.09-.45-.13-1.19-.83-1.11.2l-.92.29.4.26c-.44.43-1.24.5-1.61.91-.24.27-.17.57-.29.86s-.52.36-.24.77h-.67s.27.53.27.53l-.53.34.53.33c-.33-.07-.22.28-.3.37-.07.07-.25.01-.37.13-.18.16-.15.53-.17.55-.11.13-.54.23-.6.32-.08.14-.02.69-.12,1.02-.09.3-.57.98-.57,1.04-.09.63.37,1.4-.67,1.85l.26.33c-.4-.01-.91.46-.8.85.05.17.56-.01,0,.79-.08.11-.29.07-.27.17l.27.13c-.36.27-.21.3,0,.6-.87.23-.27.46-.29.71s-.51.72-.63.97v.18c.81.2.05.48.01.57-.02.05-.15.69-.25,1.01-.15.47-.23,1.2-.4,1.6-.08.18-.3.16-.31.25-.02.21.18.45.12.75-.01.08-.34.88-.41,1.1-.02.07-.2.05-.22.15-.03.12.09.44-.02.63l.27.22c-.41.03-.75,1.23-.63,1.54.03.07.22.05.24.15.05.27-.53,1.58-.64,1.85-.04.11.03.42-.17.6.58-.15.5.44,1.11.27.14-.04-.03-.37.46-.16l.11-.24.3.1.09-.24c.54.28,1.23.38,1.28-.39l.23.09.09-.24c.5.56,1.18-.08,1.33-.11.65-.11.89.15,1.64-.15.4-.16,1.74-.21,2.33-.41.1-.04.1-.24.16-.24.27,0,.92.29,1.19.25.09-.01.07-.23.18-.26.3-.1,1.06-.14,1.37,0v-.4c.56.17,3.25.35,3.55,0,.04-.98-.1-1.89-.22-2.87-.02-.18-.22-.34-.22-.41,0-.12.27-.24.23-.33-.01-.03-.37.03-.38-.36l.35-.77-.5-.67c.87-.34.08-.75.05-1.07-.02-.2.26-.52.22-.78-.01-.09-.25-.07-.27-.17-.11-.46.04-1.3-.03-1.8s-.41-.99-.37-1.58l-.26.13c-.27-.49.35-1.02.36-1.13.01-.15-.37-.73-.45-.96-.04-.11.12-.31.03-.44-.06-.09-.29-.1-.33-.15-.03-.04.22-.52.19-.72s-.36-.39-.35-.8c0-.33.28-.5.28-.53,0-.1-.31-.15-.37-.22-.04-.05.08-.51.05-.68-.22-1.11-.6-2.19-.99-3.18Z"/><path d="M75.72,25.7s-.02-.19.07-.23c.62-.27,1.13.5,1.67.71-.02.2-.38.36-.39.42-.03.13.15.41.09.62-.07.24-.35.42-.36.7,0,.33.39.19.42.53.06.63-.44,1.31-.48,1.86-.02.2.17.38.15.54-.02.2-.48.32.01.35l-.1.24h.4c.09.05-.32.85-.34.93-.04.17.46,1.11-.19,1.27l.53.27c-.32.15-.61.55-.54.92,0,.04.34.1.28.68l-.4.07.4.33-.4,1.13.53.07-.65.66c.4.47-.04,1.04,0,1.31.02.14.19.27.2.43s-.26.46-.17.77.45.6.45.69-.28.94-.5.95l.14.45.26-.13c-.12.8-.47,1.55.14,2.2l-.4.35c.04.15.13.29.12.46-.03,1.29-.34,2.32.41,3.45.11.16.38.21.38.27,0,.25-.55.76-.39,1.14l.4-.13c.13.17-.49,2.17.27,2.14-.1.22-.44.77-.38,1,.02.07.2.05.21.13.04.28-.12.8-.07,1.03s.45.66.45.84c0,.24-.5.68-.2,1.12h.52c-.12.37-.46.93-.37,1.31.08.32.36.25.38.39.05.27-.25.78-.08,1.18.09.22.42.39.44.53.02.17-.39.53-.34.78.03.13.21.26.27.4.16.37.32.49.35.56.04.1-.13.62-.1.79l.19.17.34-.09c-.2.83-.08,1.45.15,2.25l.77.17c.03.38.17.74-.25.85.17.25.43.15.67.07-.1.28.12,1.32.26,1.52.07.1,1.1.55,1.29.74.17.18.13.45.28.54.07.04.72.2.85.21.3.02.42-.25.86-.08.34.13.43.58.8.55.04,0,.08-.46.67-.28l.07.41.27-.4.53.27.34-.51.29.23.25-.12c-.25-.61,1.12-1.15,1.25-1.36.07-.11-.29-.4.29-.57v-.2s-.27,0-.27,0l.22-.16c-.02-.51.58-.56.85-1.1.25-.5.28-1.62.35-1.77.12-.27.19-.25.38-.69.09-.21.41-.4.3-.65-.01-.03-.4-.08-.13-.52.14-.23.37-.28.4-.33.02-.04-.08-.15-.05-.21.08-.16.39-.5.46-.79.18-.75-.18-.67-.22-.77-.05-.16.55-1.27.63-1.62.2-.86-.06-1.84.55-2.66l-.25-.12.24-.99-.39-.21c.36-.43.55-1.57.54-2.14,0-.27-.27-.11-.29-.39-.04-.7.42-1.2.42-1.33,0-.18-.27-.34-.25-.51.01-.16.23-.33.29-.49.17-.48.6-1.85-.17-1.8l.53-.93-.41-.14c-.2-.62,1-1.59-.13-1.66l.03-.6c.1-.17.4-.51.48-.62.18-.28-.11-1.8-.5-2.04-.04-.12.19-.04.22-.09.06-.11.06-1.78.02-1.91-.02-.07-.25-.05-.24-.12.09-.83.64-1.71.4-2.79-.02-.1-.27-.09-.28-.16,0-.17.28-1.04.54-1.06l-.25-.08c.15-.42.17-.92.11-1.36,0-.03-.37-.4-.37-.42s-.01-.56,0-.58c.12-.14.44-.03.38-.49,0-.06-.7-.42.13-.8v-.2s-.23-.03-.23-.03l.1-.24h-.4c.16-.17,0-.55.02-.6.03-.08.23-.04.25-.16.1-.51.18-1.82.06-2.32-.03-.13-.23-.34-.19-.39.2-.17.76.02.8,0,.06-.04.07-.87.67-1.01.21-.05.45.07.7.05.19-.02.47-.23.58-.22.13.02.2.33.33.43.21.16.64-.16.69.73l.52.02c.01.43-.54.81-.63.96-.02.04.08.14.05.21-.02.04-.18.03-.19.1-.06.36.2.73.21.96,0,.19-.27.39-.26.78,0,.25.28.12.3.39.04.58-.3.97-.34,1.38-.06.59.16,1.41-.08,2.09l.41.07-.14.32c.68.36-.17.66-.25.77s.07.36.05.53c-.16,1.03-.02.39.07.74.07.28-.14.76-.08.85l.34.19-.24.08c-.08.08.1,2.1-.29,2.32l.4.07-.39,2.19c.31.89.44,1.84.12,2.74l.27-.2c-.18.64-.53,1.32.4,1.33l-.4.53.27.13-.4,1.01h.54c.04.46-.34.63-.43.86-.18.47.03,1.23-.04,1.56s-.54.41-.07.85c-.19,0-.38.73-.39.94-.06.59.23,1.65-.27,1.86l.27.4-.4.2c.42.42.02,1-.13,1.46.79-.11.32.66-.13.67.56.82-.4.92-.33,1.72.02.25.27.44.21.72l-.41.29c.36.12.43.43.37.8-.01.09-.21.05-.23.15-.07.29.25.71-.54.72.22.45-.16.87-.27,1.32l.4.07-.27.6-.4-.13c-.09.26.25.49.21.67-.06.29-.65.9-.79,1.19-.05.11.03.28-.02.4-.15.42-.56.43-.07.93-.67.04-.42.67-.66,1.02l-.4.05-.13.61.25.06v.26s-.26,0-.26,0v.26s.26.13.26.13c-.43,0-.49.46-.73.67-.38.33-1.61.67-1.28,1.32-.38.03-.54.49-.8.61-.12.06-.31-.04-.39.01-.03.02-.49.45-.51.48-.1.17.14.47.11.51-.09.13-1.14.07-1.48.2-.3.12-.27.48-.59.34-.19-.08-.11-.43-.33-.4l-.02.38c-1.16.43-2.11-.42-3.12-.91l-.2.4c-.08.07-.83-.25-.94-.34-.14-.12,0-.3,0-.32-.06-.07-1.39-.33-1.69-.58-.13-.11-.25-.71-.57-.84l-.4.15-.6-1.14-.47.4c-.15-.26,0-.66-.12-.87-.33-.6-.76-.32-.8-.34-.29-.2-.24-1.29-.32-1.62-.09-.38-.67-1.56-1.17-1.17-.08-.34.14-.69.13-.99,0-.12-.28-1.47-.33-1.53-.11-.15-.38-.18-.44-.37-.11-.33.14-.86-.02-1.25l-.4.14-.11-.5.38-.43c-1.03.08-.07-1.24-.93-1.07.12-.34,0-.6.4-.73l-.4-.4.26-.4c-.56-.18-.79-1.43-.26-1.6l-.4-.2.26-.26c-.75-.09-.07-1.37-.2-1.75s-.16-.04-.27-.66c-.06-.38-.23-.6-.06-1.05h-.53s.25-.14.25-.14c-.4-.52.4-1.06.42-1.15.16-.67-.34-1.01-.28-1.58,0-.08.33-.51.42-.53-.52-.24-.24-.65-.29-.8-.02-.07-.2-.04-.24-.17-.3-.91.22-.74.26-.93.17-.65-.42-.85-.42-1.03,0-.3.2-.59.23-.92.04-.36-.03-.59.01-1.07.03-.32-.25-.44.17-.56v-.2s-.24-.02-.24-.02c-.14-.54.23-.82.24-.87.2-.9-.19-2.49-.27-3.45-.03-.42-.04-.85.12-1.25l-.25-.08c.39-.1.16-.23.24-.55.05-.18.24-.45.24-.52,0-.27-.57-.88.05-1.4l-.4.13c.01-.17-.14-.33-.13-.48,0-.24.18-.3.4-.33-.11-.14-.36-1.03-.35-1.13.02-.2.48-.52.35-.87-.91.06-.08-.51-.02-.86.14-.75-.67-.66-.24-1.46l-.28-.21.5-.29c-.04-.23-.16-.45-.11-.69.03-.12.4-.02.27-.35l-.53-.14c.06-.37,1.1-1.42.13-1.33l.14-.53.53.13v-.53s.4.13.4.13l-.27-.67c.27.12.78.02,1.07-.09.13-.04.22-.27.33-.29.14-.02.38.29.46.23Z"/><path d="M58.25,25.32l.58.38c.5-.57.98-.27,1.47.13.56-.92.65.03.82.15.07.05,1.35.64,1.53.71.71.3,1.68.01,1.59,1.28l.48-.12c.08.37.23.09.33.2.35.37.1.61.16.89.21.96.83-.08.89.82l-.39.21v.25s.27.1.27.1l-.28,1.19.28.26c-.35.29-.69.64-1.14.35l-.12.24-.34-.12v.39c-1.04.25-.92-1.27-1.13-1.59-.14-.2-.47-.18-.57-.3s-.05-.41-.2-.6c-.03-.04-.79-.68-.85-.69-.15-.02-.29.21-.38.21-.07,0-.64-.45-.88-.43v-.33c-.42.1-.77.25-1.19,0v.4c-.99-.41-2.37-.18-3.34.23-.51.22-.31.39-.49.58-.12.12-.45.17-.54.29-.03.04.12.22-.12.36-.26.16-.46,0-.72.01l-.02.79c-.19.21-.86.14-.9.17-.03.02-.53.56-.56.6-.11.16-.01.38-.04.42-.07.09-.47.21-.63.37-.04.04-.57.72-.59.76-.18.45.5.53-.27,1.26-.12.11-.46-.06-.47.65l.25.11c-.14.21-.08.52-.4.48v.13c.43-.02.08.56.67.4l-.4.47.27.12c-.19.24-.32,1.09-.24,1.34.03.11.75.92.86,1.11.44.74.25,1.23,1.14,1.54.22.08.71.06.76.11.07.05.05.62.29.85.28.27.74.17.93.29.24.14.48.67.61.85.1.13.26,0,.3.04.18.16.15.57.63.5.42-.79.79.44.97.52.57.26,1.33-.46,1.43.4l.33-.4c-.05.33.26.28.44.4.09.06.1.23.12.24.05.02.75-.12.77-.09.04.07-.04.27.04.36.15.18,1.38.91,1.7,1.17.08.07.14.22.14.33l.26-.26c0,.13.4.63.43.64.21.11.72-.12,1.35.56.27.29,0,.13.36.35.58.37.17.57.33.84.31.52,1.22,1,1.54,1.44.21.29.24.86.43,1.05.12.12.45.06.61.2s.27.8.3,1.04c.64-.25.42.5.46.73s.33.51.2.87l.53-.13c-.14.23-.05,1.54.02,1.58.08.06.31,0,.45.15.18.2.25.83.35,1.1.04.12.26.11.25.16-.07.65-.15.79-.16,1.57s-.47,1.11.56,1.5c-.22.21-.41.49-.41.81,0,.26.29.19.28.25-.15,1.12-.06,1.89-.16,2.91-.12,1.16-1.04,2.02-.8,3.15l-.89.71.11.36c-.57.09-.79,1.09-1.1,1.44-.18.2-1.62.9-1.68,1l.11.64c-.31.01-.88.1-1.13.26-.11.07.06.24-.06.34-.11.09-1.87,1.08-1.98,1.11-.5.14-.57-.18-.79-.21-.12-.02-.52.33-.84.11l.14.26-.94-.13.13.4c-.59-.03-.98-.85-1.21,0l-.39-.12v.4s-1.13-.41-1.13-.41l-.14.28h-.2c-.08-.65-1.36-.03-1.65-.03-.39,0-.33-.35-.36-.37-.06-.04-.26.24-.47.27-.36.05-.85-.26-1.26,0v-.4s-.39.12-.39.12c-.11-.42-.94-.53-1.38-.66s-.7-.11-1.13-.23-.49-.49-.85-.62c-.2-.07-.49.03-.63-.11-.34-.35-.18-.5-.88-.93-.66-.41-1.45-1.06-2.05-1.62-.38-.35-1.04-2.16-1.38-2.83-.09-.18,0-.43-.26-.47l-.13.27-.25-.62.24-.24-.11-.94-.41-.07.27-.53c-.73,0-.69-.79-.53-1.34l-.4-.07c.18-.09.72-.86.75-.99s-.31-.55-.14-.82c.23-.24.92-.15,1.14-.33.24-.19-.08-.66.8-.47l-.13.4,1.08.34s.24.79.3.93c.04.09.24.06.24.14,0,.19-.22.36-.24.54-.04.32.28.75.1,1.11h.4s-.13.54-.13.54h.53s-.07,1.48-.07,1.48l.32.02c.17.25.09.62.2.87.26.61,1.1,1.33,1.66,1.6.45.22.34.88.45.96.02.01.16-.11.19-.09.1.06.05.17.14.2.32.1,1.05.1,1.32.18.25.08.11.52.48.38l.13-.26c.07.24.19.59.44.71.23.11,1.64.47,1.92.5.2.02.22-.4.53-.22.25.14.09.45.46.35l-.13-.53c.73.37,1.34.06,2.07.13.31.03.89.35,1.18.27.15-.04.12-.32.3-.38.16-.05.86.12,1.23.04.65-.15.89-.65,1.63-.18-.04-.59.39-.5.57-.66.67-.62,1.38-.9,1.91-1.46.59-.63,1.56-2.23,1.6-3.15,0-.09-.18-.2-.17-.27,0-.1.98-.94.23-1.2.41-.43-.07-1.48.02-2,.15-.91.07-.5,0-1.35-.04-.45.21-.88.25-1.19,0-.07-.23-.04-.3-.23-.1-.24.04-.87-.04-1.04-.18-.42-.71-.9-.96-1.22-.08-.1.31-1.09-.42-.92.21-.75-.68-1.22-.91-1.49-.15-.17-1.02-1.96-1.27-2.2-.14-.14-.77-.16-.78-.69l-.32.11-.09-.21-.23.09c-.03-1.02-1.07-.83-1.41-1.59l-.2.27-.03-.24c-.62.22-.6-.25-.81-.4-.11-.07-1.04.1-1.23.05-.25-.06-.82-.44-1.07-.61-.51.93-1.01-.52-1.34-.47-.09.01-.2.17-.26.17-.1,0-.55-.57-.99-.38v-.39s-.6.13-.6.13c-.33-.11-.07-.49-.09-.52-.02-.02-.37-.1-.52-.22-.5-.4-1.34-1.23-1.97-1.37-.16-.04-.34.11-.41.08-.24-.08-.66-.97-.71-1.01-.11-.09-.46.02-.58-.15-.14-.2.02-.6-.08-.79-.05-.08-.43-.12-.49-.38-.07-.32.33-.8-.55-.85l.1-.24c-.52-.16-.16-.65-.28-1.11-.1-.36-.5-.11-.21-.65h-.4c.28-1.65-.24-3.31-.27-4.98l.28-.15c-.66-.27.42-1.09.41-1.73l-.28-.2c.42.04.4-.94.56-1.17.09-.12,1.07-.22.25-.57v-.19c.68-.29,0-.93,1-1.13l-.08-.41h.39c-.13-.22.46-.93.62-1.06.24-.2.57-.18.7-.3.19-.19.46-1.02.56-1.1.07-.05.29,0,.44-.07.08-.04.08-.24.19-.27.25-.06.58.03.84,0l-.13-.53.24.1c.04-.38.52-.05.88-.1.18-.02.31-.19.44-.21.27-.04.67.04.97-.05l-.13-.26c.34-.2,1.2.02,1.39-.02s.25-.46.4-.48c.22-.04.69.49,1.06.36l.23-.38Z"/></g></svg>