<?xml version="1.0" encoding="UTF-8"?><svg id="Layer_2" xmlns="http://www.w3.org/2000/svg" viewBox="0 0 289.48 107.99"><defs><style>.cls-1{fill:#fff;}</style></defs><g id="baklawa"><path d="M18.42,15.58l.28-.05.22.52.08-.45.45.3-.07-.45,1.04.15-.07-.3c.27-.2,1.36.9,1.91.56.13-.08.03-.49.55-.42.19.68.71.09,1.04.06.3-.02.35.43.81.48.39.04.71-.14.96-.1.06.01.23.59.84,0l.23.44.74-.54c.5-.02.32.46.39.52.09.09,1.04-.08,1.26.32.09-.4.53-.38.9-.3s.32.35.4.4c.22.11.81.07.84.1.06.05.11.72.39-.04.12.22.9.31.94.35.15.13.26.6.36.68.07.05.35-.09.53-.03.25.08.4.27.57.33.46.17.03-.74.42-.57.48.2.55.71.62.75.34.15.9-.03.93,0,.04.04.48.89.46,1.03.31-.24.36-.28.74-.15l-.13.27c.31.06.52.41.76.51.37.15.55-.04.68,0,.17.04.88,1.24.95,1.28.33.22,1.17.45,1.57.96.15.2.14.48.28.69.31.45.78.66.66,1.21l.46-.09c.03.48.47.58.62.87.4.77.72,1.89.93,2.73.03.11-.11.31-.07.37l.29-.15c-.07.43.52,1.33.54,1.57.02.23-.27.75-.09,1.3.06.19.43.21.44.33.01.09-.54.45-.52,1.11.01.26.16.38.18.55.02.2-.13.4-.11.56,0,.06.59.14.23.69-.07.11-.48.12-.33.51.04.09.22.07.25.18.11.46-.43,1.22-.4,1.44.02.18.23.35.23.47,0,.25-.55.42-.66.55-.04.05-.44,1.03-.46,1.09-.15.49.24,1.3-.63,1.27l.12.27c-.92.18-.21.9-.46,1.34-.63.18-.85.76-1.47.55,0,.5-.39.48-.53.68-.14.21.45.68-.81.51.04.54-.7,1.25-.74.53l-.44.44,1.34.45.08-.45c.64,1.05.66.53,1.32.59.09,0,.1.22.13.24.55.23.91.02,1.41.18.73.24.57.69.65.78.04.05,1.14-.18.74.45h.59s.15.68.15.68c.09.24.44.04.45.06.06.1-.25.38,0,.52l.75-.08v.67c.69-.24.76.58,1.05.75.15.09.33-.07.42-.04.05.02.65.65.69.71.35.5.25,1.05.46,1.48.29.61.65.62,1.08,1.75.16.43.74.72.34,1.32l.89.45c-.15.64-.06.86.08,1.41.17.66.22.42.33.67.09.22-.1.93-.08,1.06.03.16.32.16.37.23.09.13-.3,1.64.48,1.32-.14.19-.07.77-.18.87-.08.07-.33-.01-.41.03-.11.07.17.66.44.66-.66.68.23.98.16,1.48-.01.08-.25.07-.27.1-.03.07.11.33.05.58-.07.29-.35.29-.36.31-.03.08.13.28.09.46-.06.26-.64.73.03.71l-.45.67c.8.34.04.84.02.89-.05.15.03.96.42.82l-.27.17.12.27c-1.18.05-.91,2.54-2.39,1.94.26.42-.22.38-.37.6-.09.12.06.34-.06.52-.45.67-1.51,1.14-2.05,1.77-.07.08-.02.31-.07.36-.1.08-.36-.02-.46.04-.19.1-.18.46-.72.29l.08.45c-.51.43-1.11.03-1.13.89-.73-.27-.72.19-1.2.51-.64.43-1.57.86-2.33.95-.26.03-.48-.14-.69-.13-.1,0-.59.56-.25.75l-1.19-.15v.34c-.34.34-.68.02-.82-.34-.4.28-.38.46-.23.89-.4-.16-.69.22-.82-.31l-.59.3c-.13-.01-.24-.44-.37-.52-.09-.05-1.76-.13-1.71.38l-.52-.3-.23.45c-.32.08-.33-.42-.37-.45-.16-.11-.45.3-.67.3-.18,0-.31-.22-.45-.24-.08-.01-.93.3-.9.55-.41.02-.55-.46-.6-.46-.22,0-.5.26-.73.24-.35-.03-1.23-.33-1.64-.32-.5.01-1.28.53-2.01.23l.3.44c-.39-.2-1.26.24-1.57.09s-.28-.4-.42-.5c-.69-.49-1.46-.29-2.09-.39-.38-.06-.61-.56-.77.04l-.38-.74c-.39.06-.46.35-.89.15l.15-.44-.82-.29-.3.59-.51-.39.14-.5c-.39-.17-.63.46-.67.45-.22-.06-.54-.43-.82-.53-.26-.1-.51.33-.67-.5-.06-.32.29-.56-.21-.68.17-.41.32-.78-.16-.9l.29-.3-.28-.28c.35-.63.19-1.27.22-1.89,0-.12.22-.3.21-.51-.01-.23-.29-.99-.57-1.05,0-.61.56-1.08.58-1.63.03-.66-.41-.23-.46-.45-.14-.68.45-.61.45-.75l-.45-.31c.52-.74.27-.67.21-1.26-.04-.4.24-.39-.21-.81l.31-.52-.45-.23c.85-.92.1-1.19.06-1.64-.02-.17.19-.39.18-.6,0-.18-.2-.29-.14-.64.07-.41.31-.21.35-.47h-.6c.24-.5.27-.86.75-1.19-.83-.13-.17-.95-.14-1.42s-.27-.71-.16-1.11l-.6-.08c.88-.41-.16-1.56.6-2.09-.5-.11-.2-.43-.3-.71-.05-.14-.24-.1-.27-.18-.11-.32.2-.77.58-.75.22-.79-.25-.92-.3-1.07-.1-.33-.1-1.53-.1-1.9,0-.32.6-.73.53-.82-.65.07-.07-.96-.18-1.27-.03-.08-.23-.06-.24-.09-.06-.18.37-.37-.18-.5l.45-.67-.57-.17c-.08-.35.38-.63.35-.94-.08-.86-.45-1.22.22-2.15-.67-.15-1.21-1.02-.15-1.06.06-.24-.21-.1-.25-.17-.04-.06.05-.27-.04-.47-.07-.16-.47-.02-.13-.83.93-.01.15-.59-.33-.69,1.03-.48.08-1.01.6-1.56l-.6-.07c.17-.77.85-1.14.3-1.95l.3-.14-.23-.37-.22.3c-.29-.75.36-.96.43-1.12.05-.11-.29-1.09-.29-1.35l.31-.36-.26-.02.26-.8-.59-.3c.09-.26.53-.59.58-.78.1-.42-.36-.59.17-.71-.82-.31-.29-.8-.34-1.32-.03-.32-.38-.56-.36-1.09.01-.33.19-.79.24-1.18.07-.62-.31-.55.46-1.1-.88-.2.04-1.65-.21-2.4l-.54-.22c-.07-.39.26-.63.25-.74s-.24-.23-.22-.42c.03-.22.46-.35-.03-.77l.31-.15-.17-.43.31-.23-.45-.08.14-.36-.29-.08.3-.15-.3-.15c.07-.32.5-.47.55-.56.26-.46-.05-.69.54-1.47.09-.12.1-.33.18-.42.64-.67,1.42-.01,1.41-.9l.16.27ZM21.8,18.93c-.76-.06-2.51.17-2.64,1.07s.54.92.58,1.08c.19.74-.54.64-.52,1.37,0,.3.2.46.22.7.09,1-.32,1.72-.11,2.67.02.07.19.06.21.15.17.65-.1,1.04.05,1.71l.3-.07c-.32.39-.23,1.15-.33,1.45-.07.22-.34.33-.36.48-.04.24.28.73.25,1.03l-.31.16c.73.61-.08,1.21.14,2.08,1.03.17.08.59.06,1.05-.01.52.56,1.44.56,1.64,0,.55-.31.34-.43.61-.16.35.54,1.98-.17,2.52l.73.59c-.83.83-.07,1.06-.03,1.34.04.25-.36.38-.38.45-.12.43.32,1.22.28,1.47-.02.14-.36.12-.44.34-.07.19-.08,1.83.43,1.47l.15.15c-.06.56-.77.72-.44,1.29.12.22.48.23.43.7l-.58.24c.38.13-.07,1.69.17,1.85.17.11.46-.17.49.39.04.59-.32.7-.33.75-.03.12-.06.77-.05.9.02.29.32.22.31.29-.03.22-.43.64-.44.9s.24.53.23.75c-.01.24-.32.42-.34.59-.03.33.52,1.2.24,1.71h.44c.11.73-.45,1.09-.45,1.71,0,.5.25-.05.45.15-.14.37,0,.59-.45.76l.46.66c-.66-.03-.12,1.01-.15,1.41-.02.32-.57.74.15,1.04l-.44.75.3.22c-.91.19.17,1.52.14,2.18-.02.4-.21.59-.22.81-.01.46.34.83.36,1.1.02.29-.35,1.66-.28,1.72h.45s-.29.83-.29.83l.28.13c-.26.66-.65,1.28-.44,2.07.03.13.48.22.45.63l-.45.07c.19.4.4.76.15,1.19.14.14,1.02-.01,1.24.05.89.26,1.4.89,2.58.98.44.03.9-.2,1.34,0l.14-.28.52.3v-.45c.06-.08,1.36.55,1.53.56.27.01,1.2-.2,1.52-.29.09-.03.02-.27.29-.27.36,0,.98.17.98.61.55-.58.97.01,1.41.02.37,0,1.02-.41,1.2-.74l1.34.57.08-.6.84.57c1.16-.43,2.52-.64,3.78-.57-.37-.58.48-.8.45-.3l.23-.31.51.16v-.6c.33-.12.75.13.98.13.08,0,.98-1.08,1.41-.57l.03-.42.42-.03c-.31-.22.61-1.01.82-.99.12.01.25.24.42.22.09-.01.73-.48.78-.57l-.23-.74c.71-.28.91.3.97.3.57-.03.7-1.13.23-1.49h1.04c-.09-.57.22-.8.49-1.2.34-.5.25-.25.56-.55.1-.09.62-1.1.65-1.25.15-.57-.21-1-.21-1.26,0-.19.21-.32.23-.45.03-.28-.28-.67-.09-1.03l-.3-.17c.86-.33-.06-.68.3-1.42h-.45c.29-.46.4-.6,0-1.04h.3s0-.3,0-.3c-.63.04-.04-.49-.05-.82-.02-.52-.92-.98-.54-1.56h-.45s.32-.62.31-.81c0-.08-.24-.06-.29-.2-.12-.34-.23-1-.31-1.38l-.44.45c-.4-.64-.12-.73-.06-1.12.04-.3-.93-1.01-1.28-.98l.1-.26-.26-.12.16-.36c-1.16.25-.34-.99-.82-1.49-.17-.18-.5-.23-.73-.31l-.23.31c.03-.48-.95-.85-1.01-.92-.08-.1-.15-1.32-.55-.42l-.25-.42-.27.12c-.04-.51-.21-.62-.69-.72l-.29.42c-.12-.11-.22-.27-.37-.34-1.17-.52-2.55-.93-3.81-1.13l-.13.29c-.68-.43-1.83-.16-2.68-.31l-.08.45c-.65-.14-1.22-.05-1.85-.01-.15,0-.34-.15-.45-.14-.14,0-.17.52-.48.57-.16.03-.38-.13-.57-.11-.41.04-.96.62-1.63.14l-.32.45-.89-.45-.08.45c-.52-.22-1.08-.47-1.64-.3l.15.3c-.23-.07-.81,0-.97-.07-.34-.13-.33-.49-.52-.61s-.43.04-.61,0c-.52-.11-.86-1.43-.94-1.91-.03-.18-.42-.42.07-.62.21-.09.71.1,1.01-.25l-.13-.27.89.15-.15-.59c.47-.17.91.27,1.26.28.48.02,1.05-.51,1.57-.13l.16-.6c.13-.09,1.55.47,1.87.46s.13-.46.51-.16v-.45c.26-.07.06.28.24.31.06,0,1.13-.05,1.25-.07.4-.07.9-.36,1.34-.39l-.3-.29c.31,0,.97-.02,1.19-.23.17-.16.1-.41.17-.5.04-.06,1.21-.19,1.39-.04.31-.7.48-.16.83-.34.08-.04.63-.72.84-.83l.35.15-.15-.74h.89c-.13-.61.36-.39.62-.66l-.02-.37c.76.13.59-.3.81-.54.13-.15.46-.33.53-.48.16-.34,0-.86.04-.89.09-.11.57-.22.67-.36.04-.05-.12-.24.04-.34.12-.07.37-.04.43-.1.16-.17-.08-1.4.47-1.32l-.44-.22.18-.65.41-.03c.09-.26-.23-.36-.25-.52-.02-.24.48-1.01.51-1.23.03-.19-.37-1.65-.48-1.95-.01-.03-.25-.03-.25-.11,0-.24.34-.89.13-1.38l-.55-.55c.37-.62-.07-.46-.22-.69-.21-.3-.17-.83-.69-.59.09-.64.21-1.32-.29-1.83-.24-.24-.99-.6-1.19-.79-.16-.15-.12-.37-.27-.52-.18-.2-.58-.16-.61-.19-.19-.16-.51-.87-.33-1.14h-1.19s.16-.65.16-.65c-.39-.44-.96-.26-1.46-.47-.56-.23-1.99-.93-2.28-1.42-.56.48-1.02.13-1.64,0l-.07.45c-.58-.28-.9-1.29-1.65-.91l-.07-.28c-.25-.07-.07.29-.24.31-.37.05-1.47-.65-1.55.13l-.74-.89c.12.47-1.38.24-1.42-.15l-.52.3-.23-.44c-.28.25-.98.34-1.35.31-.3-.02-.15-.57-.9-.01l-.1-.25Z"/><path d="M180.65,15.89l.41.03c-.16.43.02,1.54.6,1.34-.05.31-.25.85-.23,1.12.02.34.32.61.33.75,0,.15-.22.32-.21.44,0,.13.36.28.42.6.08.49-.39.83.27.98.04.05-.11,1.1-.1,1.25,0,.09.22.06.24.14.08.31-.2.68-.21.9,0,.17.26.4.09.66h.44c.04.38-.47.62-.46.97,0,.09.25.07.27.15.09.38-.23.99.48.83l-.45,1.79h.45c.07.24-.22.11-.25.18-.04.09.03.41-.05.57l.45.08-.45,1.12h.45s-.15.3-.15.3l.45.08-.29.14.14.53h-.45s.01.95.01.95l.73.54c-.11-.02-.23,0-.29.11-.33.57.08,2.36.74,2.64-.32.34,0,.8-.43.89l.16.96.59.26-.31.95.59.22-.44.75c-.13.38.38.16.45.22-.29.49.14.89.14,1.27,0,.27-.36,1.05-.38,1.41-.02.53.26,1.08.1,1.63l.74.17c-.16.24-.01.59-.16.8-.11.17-.36.21-.4.27-.11.17.39,1.24.36,1.54-.01.13-.32.31-.25.37l.6-.15c-.19.22,0,.56-.02.67,0,.03-.36.15-.25.5l.57.17c-.3.29-.19.6-.3.93-.03.08-.39.17-.25.48.49,1.09.21.65.12,1.65,0,.05.41.27.43.74.02.53-.75,1.26.3,1.26l-.3.82.45.08c.06.25-.22.08-.27.21-.21.52.17,1.13.23,1.56.03.26-.03.99-.01,1.43,0,.12-.17.28-.17.53,0,.68.38.15.63.66l-.41,1.71h.6c-.09.35-.45,1.27-.44,1.57,0,.21.39.67.52.96.38.9.31,1.45.52,2.29.03.11.27.07.27.16,0,.23-.32.52.17.68.04-.5.95-.54.15-.81.11-.42.58-1.08.67-1.43.04-.18-.17-.27-.15-.45.03-.32.47-.35.51-.52s-.2-.47-.1-.85c.08-.3.62-.82.67-1.1.04-.22-.16-.93-.1-1.15.04-.17.36.01.29-.24l-.28-.06c.07-.39.26-.74.38-1.09.17-.54.13-.38.36-.86.5-1.04-.12-.8-.16-1.19-.07-.66.16-.82.34-1.32.22-.6.11-.19.26-.4.04-.05-.44-.47-.29-.74l.3.07c-.1-.55-.28-.62.3-.89-.39-.03-.4-.75,0-.67v-.14c-.42.19-.22-.64-.11-.72.09-.06.3,0,.38-.06.17-.12.04-.44.07-.5.05-.11.25-.05.27-.07.05-.08-.2-.2-.23-.37-.02-.12.1-.29.09-.42-.01-.12-.23-.11-.3-.21-.21-.31.18-1.33.75-.94-.32-.59.23-.83.27-.93.06-.13-.12-.28-.09-.39.02-.05.79-.52.11-.7.58-.44.06-1.09.14-1.47.03-.13.29-.13.39-.32.11-.21.07-.72.15-.82.08-.11.37-.12.38-.24.04-.3-.28-.63-.61-.51.29-.56,1.4-1.29.3-1.64v-.14c.44.06.16-.21.27-.4.32-.56.32-.77,1.07-.65l-.15-.59,2.24-.07c.29.16.5,1.3.77,1.75.22.35.56.09.27.7l.3-.15c.25.7-.17.95-.24,1.57l.54.46c-.16.52-.22,1.33-.13,1.9,0,.05.51.54.56.64.25.46-.07,1.1.62.95-.14.29.02.78-.45.74l.38.43-.22.59c.42.28.31.32.88.17.06.05-.48,1.29-.51,1.47s-.05.85-.07,1.14c0,.07.25.04.28.17.19.79.4.74.44.88.04.13-.14.83-.09,1.21.06.51.43,1.04.25,1.68h.6c.06.04-.29,1.26-.28,1.42,0,.33.35.62.41.93.1.54-.41.93.47.93-.49.65-.13,1.47-.15,2.23l.27-.13c.11.34.4.53.53.85s.09,1.05.16,1.29c.26.92.6,2.03,1.09,2.79.04.06-.24.24.19.33-.63.87-.07,1.35.15,2.17.24-.08.39-.42.48-.64.26-.68.31-.88-.16-1.38l.72-.59-.59-.3c.09-.47.54-.58.59-1.06.05-.51-.2-1.16-.16-1.63.03-.28.3-.19.36-.54.08-.47-.32-1.02.1-1.62h-.52c-.13-.75-.14-.87.53-1.14l.14-1.99-.6-.15c.42.06.3-.28.3-.6l.44-.07c-.66-.77.02-1.66.45-2.39-.65-.21-.16-.72-.74-1.04l.59-.74-.45-.15c.02-.61.45-.57.45-.97l-.3.07c-.06-.42.35-.82.39-1.11.03-.19-.14-.49-.1-.64s.53-.19.42-.62c-.51-.22-.57-1.07.03-1.12v-.29s-.29-.08-.29-.08c.68-.45.2-.55.2-.75,0-.22.56-.3-.19-.54-.08-.11.48-1.51.43-1.83-.03-.18-.51-.15-.45-.47l.45-.52h-.6c-.27-1.13.76-1.24.85-2.2.05-.49-.07-.94-.55-1.16l.45-.37-.3-.29c.38-.04.63-.44.15-.52l.3-.52-.6-.15c-.04-.37.5-.68.52-.87.05-.33-.21-.74-.16-1.14.1-.72.69-1.48.37-2.2-.05-.12-.27-.11-.27-.18,0-.38.25-.95.73-.83-.28-.65-.04-1.32-.18-1.91l-.42-.1.45-.45-.3-.14c.05-.81.69-.66.73-.69.07-.06.19-1.73.16-1.82-.09-.35-.12.17-.14-.76,0-.1-.25-.07-.28-.16-.16-.43.63-1.17.87-1.49l-.59-.3c.1-.25.66-.46.71-.6.21-.5-.4-.67-.41-.76,0-.04.11-.81.14-.85.1-.14.3-.09.31-.11.05-.1-.24-.22-.25-.37,0-.13.43-.38-.05-.75.43-.16.24-1.06.6-1.49l-.3-.14.6-.67-.44-.23c.34-.43.56-.53.3-1.12.57,0,1.32-.21,1.34-.9.6-.02.58.55.69.6.21.09.71.11.95,0l.15,1.48h.44c-.28.7-.99.63-.59,1.53.09.2.5,0,.14.6-.06.1-.26.09-.29.21-.03.13.04,1.24,0,1.44-.03.15-.29.03-.31.17v.22c.59.01.42,1.39-.3,1.2-.03.42.23.8.6.97-.37.21-.28.8-.43,1.03-.11.17-.43.05-.46.09s.19.6.12.93c-.18.89-.76,1.36-.55,2.57.01.08.22.07.23.1.05.23-.13.54.2.86l-.45.3.46.08c.04.19-.06,1-.15,1.17-.11.19-.41.06-.45.1-.08.07.16.6.15.81-.02.26-.25.47-.29.77-.04.33.05,1.59.44,1.63l-.27.1c.2.33-.14.24-.17.38-.1.46-.27,1.5.29,1.61-.77.57-.07,1.13-.21,1.87l-.68.14c.5.45-.04.73.03,1.23.05.37.53,1.52.51,1.82-.02.31-.35.66-.52.91-.09.28.41.11.23.7-.1.34-.49.33.04.46-.15.28-.22.74-.12,1.04s.63.01.26.87c-.29.68-.13.37-.18,1.12-.04.61-.46,1.38-.49,1.82-.01.2.22.36.23.68,0,.47-.33,1.27.15,1.34-.19.33-.31.57-.75.53.07.57.5.38.6.45.03.02-.11.79-.12.83-.07.21-.26.18-.34.44-.15.47.17.68.04,1.05-.07.22-.62.39-.21.66l.33.07c-.21.25-.2.57-.31.86-.07.19-.41-.09-.12.74.05.13.23.12.25.19.02.08-.08.91-.12,1.01-.08.19-.35.02-.29.26l.45.15c-.44-.11-.28.75-.33.97-.02.1-.26.06-.27.16-.03.24.24.57.15.86-.07.2-.42.19-.45.34-.05.28.31.83.27,1.15-.03.24-.31.42-.37.74-.05.24.17.8.21,1.1.03.26-.32.55.2.5v.15c-.07,0-.19,0-.23.05-.51.54.54.3-.21.92.98.46-.28,1.25-.29,1.34,0,.05.46.69.42.87-.03.15-.68.96-.56,1.52l.29.13c-.3.32-.31,1.01-.45,1.3-.19.39-.99.33.15.79-.51,1.18-1.44,1.75-1.34,3.21l-.74-.15.45.59c-.6.41-.86.05-1.49,0l-.08.6c-.06-.41-.71-.27-.94-.47-.03-.03.08-.21.04-.28-.08-.14-.33,0-.44-.13-.32-.37-.23-1.2-1.12-1.2l.3-.74h-.6c.25-.63-.3-.78-.3-.83-.03-.3.25-.45.27-.71.04-.63-.4-.93-.55-1.38-.19-.6-.05-1.28-.15-1.75-.04-.19-.69-.21-.61-.77.01-.07.88-.48-.13-1.07l-.16-2.29-.3.15c-.04-.3.06-.67,0-.94-.03-.11-.28-.1-.3-.2-.05-.27.22-.59.08-.8-.19-.34-.71.09-.82,0l.11-.27c-.58-.2.18-1.29.17-1.75,0-.05-.56-.29-.29-.79l-.58-.25c.46-.86.09-.7-.06-1.25-.08-.3,0-.75.06-1.06l-.74.15c.19-.6.13-1.2.11-1.82,0-.17-.22-.35-.23-.51-.02-.18.31-.68.12-1.28-.05-.16-.27-.15-.35-.26-.12-.17.13-.43-.55-.52l.28-.09-.13-.58.6-.15-.59-.07c.72-.94.2-.9-.02-1.64-.09-.3.05-.57-.06-.81-.17-.39-.68-.5-.38-1.2-.51-.09-.26.71-.89.3-.05.81-.52,2.14-.45,2.9.03.43.4.71.12,1.1l-.41.03.44.52c-1.06.46-.22,1.03-.36,1.49-.06.18-.49,1.04-.67.97l.45.15c-.64.82.2,1.08-.3,1.98-.06.11-.27.1-.34.29-.21.56.05,1.7-.7,1.76.18.36.32.62.74.67-.17.35-.45.67-.63,1.01-.16.3.02.77-.41.7l.27.22c-.14.54.06,1.18-.72,1.12l.29.21c-.07.37-.41.56-.43.64-.25.85-.3,2.22-.58,3.12-.2.67-1.05,1.09-1.07,1.91,0,.24.24.85.14.96-.03.03-.29-.04-.4.04-.14.1-.81,1.28-.19,1.23-.01.25-1.39,1.04-1.59,1.08-.29.05-.87-.21-1.21-.22-.25,0-.51.52-.86-.2-.33-.68-.62-1.96-.67-2.92-.01-.21.08-.33.14-.5h-.75c-.09-.05.15-1.8.11-2.04-.06-.38-.65-1.59-.66-1.77-.02-.38.6-.35-.17-.73.21-.57.24-1.37.08-1.95-.02-.07-.44-.1-.12-.82l-.59.3c-.27-.61.39-1.06.39-1.42,0-.05-.09-.82-.1-.87-.03-.14-.26-.11-.31-.21-.29-.62-.16-1.07-.21-1.76s.03-2.49-.08-2.95c-.03-.11-.47-.17-.43-.62.02-.29.47-.67.29-1.12l-.59.15c.23-.81.5-.93.28-1.83-.03-.11-.22-.12-.24-.15-.04-.09.23-.25-.33-.48l.43-.97-.3-.08.3-.22-.3-.07c.23-.15.44-.83.4-1.05-.02-.14-.45-.26-.62-.65-.18-.43.73-2.55-.23-2.77.57-.43.6-1.34-.15-1.57l.07-.3.38-.15c-.5-.47.03-1.33-.04-1.72-.03-.15-.31-.16-.36-.24-.59-1.09-.29-1.68-.64-2.73.62-.16,0-.85.03-1.17.02-.21.31-.43.28-.75,0-.09-.36-.1-.39-.37s.23-.42.2-.66c-.07-.46-.64-1.7-.68-2.14-.03-.29.54-.73-.02-.86l.14-.53h-.6c-.22-.63.34-.6.43-.84.22-.58-.44-.63-.53-.84-.04-.1.12-.7.04-.94-.07-.19-.34-.33-.35-.44,0-.07.5-.99.41-1.32-.04-.15-.3-.13-.39-.31-.4-.77.11-1.31.1-1.65,0-.05-.48-.04-.31-.73.04-.17.36,0,.3-.24l-.3-.07c.69-.52-.05-1.1-.12-1.68-.06-.45.34-1.14-.16-1.29l.13-.68-.3.15c-.38-.61.14-1.43.08-1.81-.03-.21-.69-.62-.8-1.25-.06-.33.23-.9.21-1.19-.02-.26-.32-.43-.36-.63-.07-.37.4-.59-.18-.71l.19-.08.11-.37-.45-.08.37-.59.67.3.15-.6c1.15.37,1.76-.89,2.12,1.02ZM194.63,48.84c.27.04.44,0,.59-.22l-.22-.22h-.22s-.15.44-.15.44Z"/><path d="M229.04,17.66c.33.23.25.85.34,1,.07.12.89.35.72.93l.6-.15-.11.27.26.1-.3.45c.27.11.35.2.3.52l.45-.15v.6s.27-.13.27-.13c.54.51-.11.81.03,1.23.08.25.47.14.44.39l-.3.3h.74c-.36.55.1.77.11.82.05.21,0,.5.1.82.08.24.61,1.28.6,1.41-.01.21-.4.92-.36.97.02.03.21-.02.25.03.05.06-.11.26-.04.42.23.5.87.91.9,1.78.01.35-.54,1,.23,1.28l-.31,1.11h.45s-.15.6-.15.6h.45c-.24.39.06.65.16,1.03l.28-.14c.12.49-.39,1.11-.31,1.54.03.16.56.24.6.49.03.16-.23.31-.24.43-.02.21.91,1.11.1,1.12l.56.47c-.39.52.28,1.17.27,1.39,0,.1-.19.25-.2.42-.02.55,0,1.43.55,1.66l-.44.6c.38.21.22.6.31.86.05.14.28.11.28.17-.02.3-.35.73-.29,1.19.02.12.14.91.17.95.05.07.33.05.4.26.06.18-.17.96-.06,1.11l.69.15c-.14.43,0,.8-.6.82l.3,1.12.44-.3c.02.52.08,1.05.12,1.57.01.15-.12.32-.11.43,0,.06.76.4.3.98.91-.13.77.34,1.05.63.39.41.42.46.69.86.14.22.51-.03.21.59l.6.15-1.94,1.86c.47.23.1.83.18,1.05.03.08.24.05.26.16.03.16-.18,1.06-.14,1.09.51,0,.5.11.59.53l-.59.07.3.15c.05.53-.24,1.25.44,1.36l-.29,1.03.74.22-.44.52c.81.09.15,1.05.15,1.12,0,.13.4.15.45.33.12.52-.18,1.67.44,1.68l-.3.29.46.08c.12.48-.17,1.06-.15,1.47.02.36.31.77.37,1.13.04.2-.1.43-.08.45.05.03.31-.06.41.03.17.16.24.64-.11.66v.5s.3-.15.3-.15l.14.81-.43.31.75,1.05-.45.37.3.44-.3.15.83.14c.18.19-.96,2.03.51,1.8l-.31.81c.69.23.84,1.51.16,1.79l.39.53-.83.59.31.23-.18.49c-.77-.08-.42-.74-1.39-.12-.09-.49-.86-.23-1.27-.16-.13-.19.01-.55-.01-.65-.03-.12-.27-.09-.29-.2-.04-.17.06-1.49,0-1.53-.04-.03-.29.05-.41-.03-.18-.12-.23-1.46.11-1.61-.3,0-.64-1.39-.69-1.74-.07-.46.4-1.06-.5-1.18-.18-.67.69-.88-.14-1.19l.3-.52-.6.15c.11-.32.21-1.37.15-1.68-.02-.11-.25-.09-.29-.22-.2-.69.05-1.22,0-1.58-.02-.15-.68-.2-.44-.67l.42-.24c-.51-.41-.25-.94-.14-1.47l-.26-.13.11-.26h-.45c.31-.49-.08-.59-.1-.68-.17-.58-.53-1.13.4-.97.06-.86-.83-.83-.88-1.72l.29-.16c-.27-.53.33-1.38-.46-1.4l-.15.3c-.6-.84,0-2.51-.3-3.17-.04-.09-.26-.07-.29-.2-.05-.2-.09-.88-.01-1.09-.29.08-.48.14-.67-.15l-.11.42c-.56.39-1.21-.53-1.46.25l.3.22c-.67.14-.91-.15-1.41-.44l-.08.6c-.81-.1-1.24-.53-2.12-.4-.68.1-.54.4-.78.51-.19.09-1.02-.36-1.21.35l-.96-.45c.02.72-.67.6-1.25.75-.21-.58-.54-.39-.24.14l-1.34-.29v.45c-.91-.87-1.48.25-2.39-.3v.45c-.49.11-.96-.41-1.27-.45-.28-.04-.17.26-.31.29-.07.02-.25-.12-.36-.06-.5.27-.42,1.7-.88,2.11l.43.35-.6.6.29.37c0,.1-.73.38-.82.81-.04.17.18.33.18.53-.03.86-.33,1.34-.51,1.97-.09.29.05.72-.06.91s-.71.02-.12.7l-.3.14c.56.43.47,1.51-.3,1.42.36.44.1.85.16,1.25.04.31.42.85.16,1.19-.14.18-.41.05-.47.09-.05.03.39.91-.45.75-.04.29.33.08.45.15.28.16-.58.79-.6.84-.1.36.37.84.39,1.02.03.22-.34.36-.44.69-.13.4.04,1.3.04,1.76l-.41.03-.62,2.06c-1.04-.14-1.94-.07-2.95-.56-.5-.24-.34-1.09.26-.93v-.15c-.61-.19-.43-.93.15-1.27l-.3-.15c.62-.52.29-1.34.59-1.95.12-.25.44-.39.45-.47.17-.79-.07-2.25.14-3.1.09-.38.42-.7.43-.74.01-.22-.59-.66.04-1.05l-.3-.15.58-.39c-.18-.37.03-.83-.42-.94l.73-1.2c-.72-.19-.51-1.27.15-1.41.06-.3-.48-.04-.44-.22.17-.93.48-.57.6-.77.22-.37.37-.94,0-1.24.21-.01.4-.12.52-.3.03-.04.16-.91.16-.96,0-.34-.24-.9-.16-1.2.09-.35.39-.47.39-.82l-.59-.22c.39-.38.2-.71.13-1.18l.31-.09-.59-.44c.27.04.31-.24.46-.36.19-.14.41-.18.54-.46.23-.5.33-.51.48-.79.27-.51.41-2.05.15-2.6-.06-.14-.32-.1-.3-.19.1-.31.51-1.11.75-1.34l-.3-.29.6-1.5-.44-.15.6-.75c-.83-.28.12-.48.15-.52.06-.09-.24-.22-.25-.37,0-.13.19-.31.2-.47.02-.54-.11-1.07.05-1.6l-.3-.09.74-.82c-.32-.02-.32-.4-.19-.63.22-.39.58-.23.48-.63h-.3s.26-.17.26-.17c-.07-.35.37-.56.18-1.17-1.12.08-.4-.29-.24-.76.11-.3.09-.71.23-.93.08-.14.38-.15.44-.35.09-.3-.14-.64.02-.94l-.45-.15c.48.1.11-.51.34-.72.06-.06.28.01.37-.07.09-.08-.02-.49.34-.41,0-.37-.65-.12-.58-.51s.39-.51.73-.53l-.44-.37.59-.38c-.51-.84.23-1.56.6-2.31l-.3-.15c.64-.38.06-.81.74-1.04l-.3-.15.45-.9-.3-.07.3-.52-.3-.15.87-.77.03-.27-.31-.15.02-.28.57-.41-.15-.63c.49-.3.69-.37.52-1l.53-.15c-.14-1.33.47-2.87,1.94-3.13l-.45-.37c.41-.31.9-.47,1.31-.77.44-.32,1.39-1.45,1.89-1.48.26-.01.87.5,1.26.39.11-.08-.12-.88.29-.59ZM228.45,22.42l-1.34-.3.12.27c-.58.33-.79,1.56-1.46,1.82l.44.29c-.44-.06-.14.23-.31.5-.2.31-.67.59-.79.84-.09.2-.02.84-.16,1.2-.2.51-.78.56-.23,1.12l-.38.36.23.45-.89.31c.46.85-.97,1.45,0,2-1.02.62-.85.97-1.08,1.9-.05.2-.34.29-.26.55l.59-.15c.03.77-.85.76-.15,1.49-.63,0-.28,1.14-.4,1.46-.06.17-.31.16-.34.28-.04.14.13.55.07.72-.12.35-.44,1.11-.46,1.56-.01.25.39.47-.07.83l.3.15c-.43.34-.79,1.24-.59,1.75.06.15.4.07.19.56-.06.14-.28.24-.31.39-.08.43.36.84-.48,1.33.15.24.44-.35.45.15.02.87-.53.82-.6,1.19l.3.07-.3.52.3.15-.43.45.28.37c-.31-.03-.34-.02-.3.3l.3.07c-.77.64.06,1-.44,1.65l-.45-.09-.15.81.6.46-.74.37c.38.44-.09.95.18,1.62l.16.06c.79.34,1.85-.36,2.42.1l.22-.22-.07-.37c.4-.1.29.18.49.29.16.08.56-.14.48.31l.24-.31.86.17.17-.32.81.31.15-.6.89.45-.15-.59c.82-.37,2.03.41,2.8-.04.08-.05.09-.32.28-.39.13-.05,1.49-.03,2.09-.15.4-.08.75.19.88-.31.66.78.93.02,1.56.14v-.59c.33.04.53.28.75-.08-.38-.87-1.38-2.2-.74-3.05l-.6-.15c.26-.44.58-.66.44-1.24-.04-.17-.42-.19-.44-.32,0-.04.27-.28.26-.57s-.31-.69-.34-.98c-.04-.38.32-.62-.02-1.32-.18-.36-.61-.29-.64-.34-.01-.02.13-.23.12-.36-.02-.2-.15-.46-.13-.58,0-.05.84-.48.21-.72l.1-.27h-.45c.29-.44-.28-1.23-.26-1.42.02-.18.37-.24.35-.53-.04-.44-.71-.92-.77-1.33-.03-.21.22-.31.24-.53,0-.05-.47-.02-.3-.72.03-.14.43-.02.3-.39-.95-.16-.4-.23-.44-.65,0-.04-.55-.54-.57-.63-.08-.26.22-.84.21-.89-.02-.23-.5-.55-.54-.91s.08-.99,0-1.32l-.29-.15.13-.68h-.44c.1-.39-.1-.72.44-.75-.86-.64-.14-1.07-.17-1.39-.05-.54-1.04-1.07-.57-1.73-.75.14-.54-.75-.3-1.19h-.74c-.05-.2.19-.66.14-.8-.03-.11-.25-.08-.28-.19-.06-.22.17-.92-.45-.95l.29-.59Z"/><path d="M73.1,16.47s0,.23.08.37c.06.12.35-.05.09.5l.29-.15c.34.38-.12.94-.08,1.04.09.2.69,1.08.97.9l-.08.89.53.14-.41.97.56.45v.29s-.31.15-.31.15v.37s.3-.3.3-.3c.3.35-.15,1.16-.13,1.25.04.21.55.4.72.64.19.27,0,.65.16.94l-.44.08c-.44.36.24.8.28.93.14.41.12,1.07.18,1.51h.43c-.58,1.2.71,1.92.44,2.99h.45c-.29.65-1.09,1.23,0,1.64l-.27.16c-.08.09.23,1.62.2,1.91-.12,1.2.28,2.55.17,3.59-.07.62-.69,1.99.5,1.79l-.3,1.64h.44c.02.69-.58.79.11,1.11l-.25.67c.56.04.49.66,0,.82.53.62.11.72.06,1.12-.08.76,0,2.09.2,2.79.06.21.03.42.03.63h.6s-.17.73-.17.73l-.43.09.6.23c.06.25-.2.09-.26.17-.04.05.25.24-.19.35.42.48.04.95.16,1.47.03.12.45,0,.15.69h.45s-.45.97-.45.97l.6.23c.05.23-.18.08-.29.26-.33.6.09.44.13.58.18.61-.38.72-.37,1.02,0,.12.32,1.11.37,1.18.18.24.69-.18.3.56-.1.19-.45.18-.28.72l.29-.15c.38.74-.23,1.91.15,2.58.05.09.27.08.29.21.05.26-.03.57,0,.86.06.44.46.53,0,.97l.45.23-.44.59.44.23-.3.29h.45c-.11.39.11.69-.44.76v.2c.1.15.25.27.32.43.49,1.07.32.89.28,2.11-.02.76.04.71-.13,1.34-.1.38.29.7.27,1.04-.02.26-.4.77-.15,1.28l.59-.15c.03.43.09.86-.45.9.61.54-.37,1.77.6,1.94l-.53.59.38.9c-.75-.12-.64.77-.77.87-.09.07-.35,0-.46.06-.27.16-.31.54-.79.52-.38-.7-1.03-1.11-1.71-1.52v-.3s.29-.08.29-.08v-.29s-.29-.07-.29-.07c.59-.81.42-1.49.13-2.34-.04-.13-.27-.12-.28-.22-.04-.29.11-1.05.15-1.39h-.45c.23-.46.37-1.05.15-1.53-.04-.09-.27-.08-.29-.2-.06-.31.08-.8.44-.88l-.45-.08c.38-.9-.15-2.07-.07-2.91.06-.6.62-.57-.37-1.21l.29-.51h-.45c.39-.59-.4-.85.15-1.34l-.31-.22c.01-.38.59-.83.02-1.19-.09-.06-.29.08-.3.06-.14-.22.32-1.14.38-1.48s-.16-.84.07-1.27c0-.06-1.05-.05,0-.75-.1-.16-.4-.19-.43-.24-.04-.06.17-1.18.13-1.47l-.75-.25c.08-.22,0-.55.05-.73,0-.04.38-.13.23-.59-.03-.09-.69-.3.04-.59-.39-.29-.1-1.03-.6-.97l.3-.15c.06-.25-.23-.06-.3-.25-.02-.06-.14-1.22-.13-1.31.01-.08.23-.05.26-.17.03-.11-.1-.46.01-.65h-.6s.15.29.15.29c-.29-.04-.85.37-1.1.3-.16-.04-.13-.36-.34-.43-.4-.14-1.4.35-1.48-.17-.45.06-1.08.6-1.18,0h-.38s.07.3.07.3c-.45-.21-.89-.1-1.33-.16-.2-.02-.35-.23-.48-.25-.27-.04-.88.36-1.31.11l-.15.45c-.4-.31-.94-.04-1.03-.44-.75.31-1.44-.19-2.19.36v.36c-.35.23-.84-.08-1.04-.07-.32.02-.99.31-1.15.37-.31.1-.74.07-1.08.31.59.55-.02.78-.12,1.3-.03.18.1.4.07.54-.09.39-.23,1.12-.55,1.21v.22c.93.15-.17,1.44-.26,1.9-.11.54.39,2.16-.48,1.98l.29.21c-.17.38-.07.63-.59.53l.09.3.51.29c-.46-.04,0,.55-.74.45l.3.22c-.29.41-.91,1.48-.45,1.79-.75.22.01.9.02,1.04,0,.16-.09.75-.16.88-.06.11-.62.25-.85,1.1-.11.43.35.57-.35.86l.3.15-.45.75.31.29c-.03.36-.48.46-.56.77-.05.18.12.81.05,1.02-.07.19-.32.3-.37.48-.06.23.15.48.13.7,0,.08-.24.08-.33.31-.12.3.01.89-.01.95-.02.04-.49.24-.56.71l.31.43c.01.51-.57,1.14-.66,1.45-.1.37.05.99-.03,1.17-.14.28-.67.66-.8,1.12l.3.22c-.41-.07-.53.51-.62.57-.07.04-1.53.2-1.65.18-.06,0-.63-.72-.76-.84-.36-.33-.76-.13-.67-.93l.57-.17-.14-.53.27-.13c-.04-.23-.17-.85-.13-1.02.03-.11.23-.1.25-.14.04-.07-.11-.23-.1-.25.04-.06.46-.03.6-.26.2-.31,0-.68.08-.91s.36-.2.44-.4c.1-.28.22-1.02-.09-1.2.36-.12.19-.2.29-.51l-.44-.08c.13-.19.31-.44.37-.66.08-.33-.37-.53.38-.46-.05-.2-.19-.6-.15-.79.01-.05.42-.27.53-.7.13-.54-.09-.86-.02-1.21.06-.29.78-.61.76-1.62,0-.5-.55-.15.32-.83-.61-.9.15-1.55.37-2.21.04-.12.28-1.31.28-1.38,0-.35-.1-.49-.46-.52v-.14c.37.12.73-1.08.72-1.25-.02-.2-.24-.36-.27-.47,0-.04.51-.46.54-.56.08-.26-.09-1.08-.07-1.13,0-.02.24-.01.32-.21.07-.18.36-.99.35-1.09-.04-.37-.97-.38.29-1.11.14-.28-.21-.47-.17-.76.03-.28.64-.56.65-.6.03-.09-.15-.35-.1-.61.07-.38.57-1.28.66-1.82.06-.35.16-1.02-.23-1.04.37-.29.38-.64.54-.95.19-.37.89-.95.21-1.13l.6-.75-.3-.3c.55-.34.34-1.01.71-1.49l-.56-.37.29-.52.46-.08c-.28-.81.05-.5.2-.74.17-.27.48-.97.38-1.25-.08-.22-.53-.17-.39-.61.03-.08.18-.07.2-.11.1-.18.2-.3.26-.42.44-.8.97-2.09.4-2.9.74-.21,1.08-1.12.86-1.79-.03-.08-.42-.08-.27-.21.02-.02.24-.03.36-.16.74-.87-.17-.77.26-1.53.29-.51.56-.21.58-.24.05-.09-.11-.42-.07-.61.05-.25.36-.49.34-.78-.02-.19-.31-.47-.27-.54,0-.01.19.02.24-.05.12-.15.12-.32.2-.44.07-.11.3-.1.31-.2.03-.33-.25-.78-.07-1.27.11-.3.34-.26.36-.37.05-.3-.41-.9.3-.95l-.3-.22.44-.75-.44-.37.88-.32-.14-.57c.55.06.56-.28.75-.68l-.3-.14c.49-.13.58-.92.56-1.38-.01-.25-.29-.4-.27-.7,0-.08.26-.11.36-.27.18-.31.56-1.07.78-1.3.16-.18.43-.1.52-.26.26-.48.5-1.38.14-1.83l.6-.15c.08-.38-.1-.23-.3-.37.22-.05.58-.63.63-.65.14-.06.32.12.47.09.21-.03.31-.33.47-.43.25-.15.44.19.53-.58h.88s-.15-.3-.15-.3c.47.13,1.36-.15,1.72-.09.2.03.32.36.52.46.17.09.99.06,1.02.1ZM70.8,20.43c-.19-.45-.06-.7-.81-.39l-.04.71-.41.02v.3s.3.15.3.15c-.52,0-.42.53-.61.81-.56.79-.53.68-.9,1.62-.09.23-.29.43-.35.63-.17.55.33.78-.37,1.05l.44.22c-.43-.04-.09.55-.72.63l.09.25-.27.17c.83.12.04.77,0,.86-.18.48.09.69-.6,1.04.04.63-.84,2.54-.53,3.02.09.14.42.1.38.22l-.39.54-.65-.16c.04.35.13,1.13.09,1.42-.03.2-1.01,1.16-.25,1.47-.03.87-.69.63-.73,1.06,0,.09.47-.01.3.37-.87-.18-.22.65-.35.97-.15.36-.73.35-.54,1.12l.6.15c-.44-.02-.09.06-.32.34-.11.14-.45.19-.54.51-.15.52.22.71.22.86,0,.1-.41.55-.51.78-.11.26-.59,1.49-.61,1.63-.04.24.33.39.27.49-.51.08-.36,1.14-.75,1.58l.45.37c-.31.43-.53.64-.3,1.19.53-.67,1.38.06,1.85,0,.12-.02.13-.29.24-.38.13-.09,1.46-.27,1.72-.53l.96.45v-.45c.37.14.68-.01.82.45l.45-.6.08.45c.25.07.07-.28.23-.31.37-.07.6.25.74.25.31.01.7-.01,1.16,0,.28.01,1.26-.11,1.36-.07.25.11.35.55.47.55.02,0,.16-.21.42-.24.56-.07,1.05.16,1.59.25l-.3-.36.3-.6-.45-.07c-.07-.24.22-.1.25-.17.28-.6,0-.96-.07-1.43-.03-.23.13-.42.12-.55,0-.1-.28-.07-.31-.18-.08-.37.26-.76.25-1.02,0-.2-.28-.44-.24-.51.02-.03.36.11.38-.53s-.35-1.16-.24-1.72l-.3.15c.15-.84-.71-1.96.13-2.6l-.15-.97h-.43s.3-2.76.3-2.76l-.3.22.15-1.49h-.45c.19-.54,0-1.01,0-1.56-.01-.67.47-1.57-.6-1.81l.31-1.4-.6.15.44-.82c-.75-.35-.44-.73-.45-1.41h-.44c.01-.18.12-.33.1-.51-.06-.49-.46-1.52-.53-2.09l-.46-.24c.7,0,.11-.7.04-1-.03-.14.11-.3.1-.4,0-.11-.21-.09-.22-.13Z"/><path d="M89.76,16.21c.05.78-.38,1.33-.56,2.04-.05.19.09.41.04.64-.07.3-.42.58-.47.89-.13.7.75,1.27-.06,1.94h.45c.06.04-.26,1.28-.27,1.41-.07.57.09,1.36.06,1.64-.04.49-.77,1.8-.08,2.38-.48.72-.05,1.19-.17,1.87h.45c-.25.27,0,.75-.08.91-.09.2-.49.22-.53.39-.02.11-.12,1.05-.12,1.17,0,.07.22.06.27.18.2.49-.2.86-.14,1.38l.6.07c-.2.23-.46.5-.55.79-.26.76.28,1.27-.34,1.9l.59.24-.12.51.28.14c-.3.55-.76,1.32-.82,1.94-.05.49.27.91.3,1.19.03.34-.24.79-.23,1.03,0,.1.24.07.27.16.07.17-.36,1.99.17,2.39-.7.27-.6,1.99-.43,2.65.03.12.21.12.23.15.05.1-.08.3.14.4.26.13.44-.8.57-.99.08-.12.31-.14.4-.27l-.45-.22c.11,0,.22-.03.29-.11.55-.63.97-.99,1.49-1.61.12-.15.41-.19.44-.23.07-.1-.18-.41-.13-.63.05-.18.4-.2.49-.43.1-.26-.07-.52-.05-.55.04-.05.8-.16.87-.7l-.43-.5.67-.45c.06-.03.12.61.37.3.13-.17-.33-.55-.23-.75.06-.13.33-.25.44-.44.08-.15-.02-.4.17-.59.2-.21.57-.24.64-.34.14-.19.38-1.43.5-1.59.01-.02.31.16.43-.1l-.44-.37c.42.1.13-.3.28-.38l.6-.07v-.74s.59-.01.59-.01c.22-.13,0-1.06.05-1.25,0-.04.44-.2.29-.66h.43c-.31-.34.39-.58.59-.87.22-.31.36-.7.55-1.04.07-.12.65-.44.34-.77-.08-.08-.49.13-.44-.16.39-.19,1.44-1.08,1.59-1.39.13-.27.08-.61.21-.88.02-.05.39-.45.4-.48.06-.31-.05-1.02.07-1.24.08-.14.66-.25.81-.38.16-.14,1.16-1.48,1.21-1.7.04-.18-.13-.41-.09-.47.02-.04.26-.06.33-.16.33-.53.63-.66.91-1.36.13-.33-.24-.53.68-.73l-.59-.22c.2-.77,1.07-.82,1.38-1.6s-.25-1.18,1-1.16c-.31-.55.8-.55,1.01-.78.11-.12.03-.46.28-.55.46-.16,1.14.6,1.7-.45.4.82.52,1.71.55,2.61l-.56.32c-.23.31.14.52.14.57,0,.16-1.4.72-.88,1.4l-.74.16.45.44c-.32-.04-.34.29-.52.46-.13.12-.4.09-.49.18-.15.16-.01.67-.64.56l.07.29.37.07c-.53.75-1.46,1.14-1.48,2.1l-.61.07-.13.88.28.16c-.22,0-.65.49-.75.67-.19.32.19.63-.67.81l.09.46-.45-.15-.04.72-.41.03.11.27-.26.1.45.67c-.19.04-.77.08-.88.17-.02.01.11.22,0,.36s-.38.16-.47.32c-.38.61-.17,1.32-.2,1.39-.09.21-.87.83-.9.89-.05.1-.32,1.23-.39,1.4-.08.2-.7.87-.94,1.24-.08.13-.54-.04.05.64-.58-.03-.46.53-.49.57-.15.19-.77.26-.85.7l.52.08.07.29c-.68.22-.29,1.28-1.47,1.06-.29.33.15.62.12.79-.01.08-.84.67-.76,1.11l-.27-.13c-.07.07-.29,1.31-.34,1.45-.02.04-.18.03-.22.11-.15.36.04.8-.76.84l-.02.58.27-.11c.16.4.65.35.33.86.3-.11,1.3.29,1.46.47.02.02-.07.38.03.6.07.15.32.14.38.4.28,1.38,1.1,1.4,1.64,2.29.13.22.09.98.4,1.25.22.18.82.32.85.36.02.03-.23.37-.11.71.03.09,1.22.96,1.17,1.37l.43-.14c.08.49.3,1.09.65,1.44.09.09.35.06.47.19.05.05.09,1.01.52,1.28l.6-.23.23,1.2c.77-.05.93.74,1.42.59-.43,1.46.7,1.38.99,1.78.1.14-.1.37-.06.43s.83.6.93.77c.12.18-.09.49-.03.57.08.11.31.11.5.46s.19.69.28,1.07l.38-.02c-.36.75.56,1.22.89,1.75.09.16.07.52.19.6.35.25,1.02-.18.57,1.07l.68.15-.08.45.3-.15c.07.41.15.57-.15.89.4.14.55.06.89-.15.15.63,0,1.22.54,1.65l.65-.3-.13.43c.43.05.41.49.44.84l-.31.36c.85-.03.53.86,1.12.75l.15-.3c.43.16.51,1.29.68,1.67.02.05.53.88.58.95.25.35.61.14.67,1.08.04.65-.21.6-.31.81-.16.32-.18.38-.5.78-.12.16.05.49-.56.64-.45.11-.6-.27-1.01-.29-.22-.01-.25.41-.64.28-.22-.74-.66-1.38-.98-2.07-.23-.52-.35-1.31-.79-1.92s-1.47-.96-1.4-1.93h-.58s.08-.32.08-.32l-.53-.15.15-.29-.54-.14.07-.69c-.36-.12-.2-.53-.51-.82-.23-.21-.47.35-.37-.74l-.45.08c-.25-.14-.3-.9-.51-1.14-.18-.2-.96.29-.53-.86-1.24-.27-.98-1.84-1.38-2.65-.07-.15-.93-1.1-1.19-1.49-.18-.27-.62-.13-.25-.94-1.18.13-.79-.81-1.04-1.26-.07-.12-.27.09-.46-.14-.18-.22-.23-.7-.78-1.22-.21-.2-.79-.84-1.02-1.01-.25-.18-.58-.15-.8-.4s-.21-.67-.38-.93c-.1-.16-.63-.48-.69-.59s.07-.54-.09-.69c-.07-.06-.31.02-.38-.05-.06-.06-.2-.97-.37-1.13s-.63-.08-.82-.23c-.27-.21-.37-1.12-.41-1.16-.27-.27-.59.09-.52-.74l-.44.3c.09-.42-.51-.36-.58-.47-.11-.17.03-.77-.02-1.02l-.44.15c-.17-.26-.12-1.41-.16-1.47-.07-.11-1.07-.22-.89-.91-.47.2-.96.08-.9.75l-.29-.15c-.1.6-.14.75.3,1.19-.92-.33-.71.56-.88.83-.24.37-1.22.9-1.47,1.15-.4.4.01.98-.98.84l-.22.41.27.8h-.45s.28.21.28.21c-.33.38.01.98-.06,1.3-.04.19-.3.34-.33.52-.07.42.37,1.22.11,1.69h.6c.05.04-.5.97-.53,1.17-.02.16.1,1.09.14,1.29.03.13-.1.33-.06.37l.6-.15c.06.64-.33,1.32-.39,1.88-.03.28-.05,2.03.02,2.15.12.19.36-.04.39.51s-.22.77-.27,1.18c-.04.28.19,1.55.12,1.94-.02.11-.28.08-.3.19-.11.78.38.72.44.89.06.23-.34.7-.27.88.03.08.25.05.28.17.04.19.02.95-.3.8v.15c.73.13.49.45.53.92.01.11.17.25.17.35-.01.19-.48.38-.52.61-.05.27.28.78-.04,1.17l.31.15c-.56.56-.09.71.06,1.12.04.11-.06.25-.02.41.01.05.39.09.1.77l-.58.02v.73c-.32-.15-.92.03-1.11,0-.11-.02-.08-.29-.17-.3-.43-.03-1.02.22-1.26.6-.37-.37.21-1.09.14-1.18-.03-.04-.23-.03-.29-.1-.16-.19-.35-.99-.27-1.29.09-.33.69-.6-.18-.57.06-.56.65-.68.44-1.39-.15-.51-.08-.3-.16-.89-.04-.28-.42-.51-.42-.77,0-.33.61-.69.29-1.3-.13-.25-.43-.04-.14-.86h-.45c.15-.71.59-2.03.45-2.73-.02-.12-.25-.08-.27-.17-.01-.06-.04-.83-.02-.88.06-.21.43-.19.45-.34,0-.05-.16-.94-.19-1.03-.03-.1-.3-.03-.27-.14.03-.12.35-.57.28-.75-.06-.13-.29-.11-.38-.29s.21-.61.19-.75c-.01-.13-.21-.25-.22-.44,0-.4.18-.86-.03-1.33l.31-.24c-.95-.11.05-1.11-.6-1.27l.3-.52c-.42-.04-.38-.25-.43-.58l.58-.17-.16-1.18h-.44s.45-1.35.45-1.35c-1.2.02.33-.92-.26-1.27,1.02-.94-.18-.92-.2-1.06-.07-.49.41-1.13.42-1.5s-.54-.65.03-1.02c-.52-.16-.17-.67,0-1.04l-.29-.15c.17-.21,0-.63.03-.76.06-.19.36-.15.41-.32.07-.27-.18-.83-.17-1.14l.31-.17-.3-.17c.23-.43-.05-.79-.06-1.18-.06-1.32.16-2.68.17-4,0-.57-.07-.64,0-1.39.08-.96-.39-1.03-.49-1.54-.12-.55.73-1.78.7-2.46l-.45-.08c.13-.42.42-1.63.38-2.02-.02-.26-.3-.41-.33-.59-.05-.29.37-.37.45-.56.23-.57-.12-.9-.17-1.37-.04-.36.34-.93-.18-1.05.29-.41.66-3.39.58-3.73s-.39-.58-.48-1.1c-.18-1.13.17-1.14.42-1.88.09-.26.12-2.14-.37-2.23l.3-.15-.3-.15c.17-.31.2-.45.6-.38l-.38-1.19c-.04-.55.61-1,.92-1.38.03-.04-.04-.2,0-.25,1.14-1.27,1.4-.8,2.66.11l.67-.42Z"/><path d="M165.71,16.65c0,.29-.02.59.11.86.23.48.76.09.19,1.07.55-.18.73.9.84,1.34.1.39-.27.54.21.68l-.16.96h.6c-.2.33.1,1.08.08,1.2-.08.48-.6.5.38.83.2.69-.43.61-.29,1,.08.22.4.31.43.62.04.34-.25.69-.3,1.02l.75.54c-.43.02-.65,1.29,0,1.41l-.44.9c.75.21.24.98.32,1.49.16,1.04.37,1.88.34,2.98,0,.22.44.66-.07,1.04l.26.09c-.23.55.06,1.01.63.72l-.44,1.34.59-.3c.22.62-.38,1.24-.38,1.72,0,.42.49.44.51.59,0,.1-.3.81-.25,1.05.02.09.26.06.26.13-.01.54-.61,1.63.02,1.81l-.09.67.83.14c.06.24-.2.1-.25.17-.12.17.21.66-.5.65.49.64.12.55.03.93-.17.73.67,1.42.66,1.6l-.39.67.74.37-.44.45.31.16c-.03.47-.34,1.19-.31,1.62.03.37.49.58,0,.9l.22.22.52-.14c-.11.18-.04.51-.14.64-.12.17-.43,0-.31.4l.73.46c-.3.64-.75.5-.44,1.33l.59-.15c-.14.38.02.68-.45.82.99.52.43,1.01.44,1.94,0,.36.19,1.8.45,1.94l.46-.08-.11.27.26.1c-.43.41-.46.7-.6,1.27l.59.15c-.37-.05-.16.14-.3.36-.06.09-.42.02-.3.46.02.06.28.06.31.17.09.42-.44,1.74.59,1.69-.42.72-.46,1-.22,1.78.13.43.3,1.21.81,1.05l-.27.21c.11.37-.12.74-.12,1.08-.02.92.45.57.54.65s-1.01,2.11.3,1.64l-.15,1.93h.44c-.27.64.29,1.34.31,1.86.02.6-1.12,1.18.29,1.42l-.44.82.59.37c-.29-.06-.34.31-.44.37-.14.07-.33-.1-.42-.05-.07.05-.06.33-.28.4-.17.06-.4-.02-.54.03-.09.04-.21.45-.71.2-.1-.05-1.39-1.2-1.44-1.28-.15-.25.29-1.23-.5-1.01.33-.51-.12-.61-.14-.71-.21-.99-.14-1.56-.08-2.49.05-.74-.36-.84-.36-.89.01-.23.25-.69.26-.91,0-.06-.24-.05-.27-.17-.09-.34-.51-1.5-.52-1.6-.02-.52.02-1.17.36-1.57h-.75c.13-.4.19-.65.6-.82-.49-.13-.36-.71-.3-1.12h-.45c.16-.51.02-1.05.08-1.56.02-.16.22-.35.23-.61.02-.55-.51-.81-.16-1.41-1.31-.02.18-1.12-.6-1.42l.6-.67-.75-.16c-.05-.05.18-1.21.15-1.39,0-.06-.47-.54-.53-1.07,0-.08.2-.18.14-.48-.08-.39-.47-.73-.51-1.02-.08-.64.17-.26-.13-.92-.28-.6.16-1.01-.24-1.51-.72-.88-1.25,0-1.48,0-.51.02-1.05-.34-1.57-.26s-1.01.57-1.76.28c-.26.83-.78.16-1.15.11-.08,0-.05.23-.14.26-1.04.32-1.52.11-2.39.17-.49.04-.78.49-1.27.16l.15.45-1.27.3c.04.51-.17,1.72-.46,2.09-.09.12-.33.14-.35.17-.06.08.67,1.66-.31,1.77v.14c.72-.08-.22,1.44-.15,1.49l.45.07c-.15.5-.38.7-.89.82l.45.15c.1.74-.67.64-.32,1.28l-.28.14.3.52-.46.1c-.2.38.12.63.12.93,0,.33-.11.74-.12,1.14,0,.43.37.75-.29.82l.3.22c-.71.85-.08,1.96-.45,2.91l.45.15c-1.37.3-.5,1.47-.66,1.87s-.7.44-.09.59c-.36.75-.94,1.2-.15,1.86l-.6.15.3.44c-.6-.01-.34.43.15.3l-.28.16.13.58-.53.14.09.6c-.66,0-1.23.76-1.84.57-.3-.09-1.39-1.47-1.41-1.87,0-.22.67-1.49.71-2.08l-.3-.28c.99-.93.55-2.32.45-3.5l.45-.15-.59-.15c.52.07.1-.27.15-.6h.6c-.1-.41-.19-1.02,0-1.39.05-.09.25-.09.28-.18.06-.23-.41-1.04.17-1.34l-.46-.31.61-1.11h-.6s.3-.6.3-.6l-.3-.15c.47.01.07-.79.89-.45-.33-.6-.3-.71.15-1.19l-.45-.37.46-.31c-.21-.25-.13-.69-.19-.88-.03-.1-.28,0-.27-.28.03-.54,1.16-1.11.9-1.87l-.45-.08.03-.5c.49.05.4-.18.56-.55l-.27-.14c.2-.47-.1-1.84.32-2.14.11-.08.37,0,.41-.03.07-.05-.02-1.48,0-1.7.05-.35.36-1.06.59-1.35l-.44-.3c.56-.33.32-.77.49-1.29.08-.26.51-1.03.51-1.09,0-.12-.4-.44-.41-.9,0-.06.47-.64.46-.81l-.59-.15c.45.07.13-.26.3-.51.14-.2.41-.23.43-.26.02-.03-.21-.48-.24-.68-.18-1.41.37-2.09.84-3.32h-.45s.6-1.79.6-1.79l-.59-.08c0-.78.71-.37.74-.97-1.35.14-.05-.81.09-1.08.28-.55-.05-.99,0-1.15.05-.2.46-1.04.67-1.13l-.6-.82.71-.53c.13-.48-.4-.36-.4-.71,0-.19.48-.69.73-.69l-.45-.37c.59-.69.45-1.02.5-1.77.01-.17.2-.33.2-.47,0-.22-.36-.49-.23-.88.06-.18.35-.19.4-.28.09-.15-.02-.37.08-.52.12-.17.42.2-.02-.53.24-.46,1.27-3.13,1.02-3.38l-.6-.15c.42.1.12-.27.29-.37l.44-.09c-.04-.68-.29-1.43.61-1.63l-.44-.37c.04-.56.98-.79,1.02-.84.1-.12-.06-.5.05-.7.15-.26.73.02-.03-.92.28-.1,1.7-.75,1.76-.93.05-.15-.14-.35-.11-.4.3-.47.77-.04.96-.02.93.08,1.83-.4,2.9.08.25.11.36.62.75.37ZM163.17,20.08l.15-.51c-.3-.44-.47-.15-.74.14l.3.15c-.91.3-.67.79-.66,1.57-1.07.23-.21.71-.63,1.45-.16.29-.61.06-.63.87l.28.21c-.68-.16-.52.84-.89,1.28.59.14.11.15.02.48-.05.21.06.75.05,1.07-.01.48-.02.93-.06,1.44,0,.04.41.07.21.44-.18.33-.4.29-.49.4-.04.05.08.29-.03.46-.06.1-.31.09-.31.19,0,.14.15.37.16.59.02.33.15,1.11.15,1.17-.05.61-.88,2.11-.9,2.56,0,.06.39.57.31,1.15-.02.12-.25.11-.31.21-.57.96-.68,3.03-.95,4.12-.03.14-.14.24-.24.32l.59.37-.74.45v.29s.28.07.28.07c-.36.66.1,1.61-.43,2.1l.3.17v.5s-.3-.15-.3-.15l-.15.59.6-.07-.28.09c.22.67-.38,1.49-.46,2.16-.06.49.11,1.08.07,1.62-.04.46-.36.25.08.82.33-.12.43-.44.3-.74l.89.3-.15-.44c.26.04.58-.19.8-.16.1.01.08.26.19.3.11.03.59-.1.8.01v-.74s1.41.45,1.41.45l.08-.45.37.28c.32-.47.79-.44,1.3-.27.16.05.01.31.47.3.57-.02.95-.18,1.06-.76l2.01.45c-.16-.73-.93-.83,0-1.57l-.44-.74.42-.25c-.16-.31.07-.86.03-1.06-.04-.17-1.27-.56,0-.92-.61-.51-.63-1.66-.7-2.42-.02-.16.1-.43.08-.47-.08-.13-.88-.17-.13-.84-.74-.23-.22-.88-.31-1.18-.06-.21-.45-.2-.43-.31.05-.27.53-.86.39-1.21-.08-.2-.47-.21-.39-.81h.45s0-.89,0-.89c-1.23-.23-.3-.63-.29-.69.02-.27,0-1.34-.31-1.35.29-.66,0-.41-.13-.62-.64-1.02.07-.93,0-1.45l-.31-.15.45-.67h-.59s.3-1.39.3-1.39c-.71-.43-.18-1.11-.18-1.7,0-.08-.18-1.51-.2-1.61-.14-.51-.64-.48-.5-1.02l-.45-.1.25-.17c-.07-.68.57-.47.19-1.32l-.45.15c-.25-.45.14-.73.16-.97,0-.04-.41-.12-.43-.64-.01-.37.33-.5.13-.84l-.46-.09Z"/><path d="M119.66,17.21c.09.07.26.03.37.03l-.55,1.11.54.22c-.02.26-.24.06-.34.44-.17.58.15.97.16,1.27,0,.24-.37.82-.07,1.25l.53.02-.55,1.33c.4-.07.2.7.28,1.08.01.07.35.39.37.43.04.13-.13.25-.08.4.02.04.2.02.23.1.06.16-.13.73-.39.74.65,1.08.13,2.61.18,3.87l.17.21.33-.14-.52,1.61.37.24c-.25.38-.49,1.48-.4,1.91.02.12.27.1.27.16,0,.14-.29.79-.26.83l.54.17c-.41.63.02,1.1.02,1.39,0,.05-.59.33-.42.82h.55s-.25.22-.25.22l.38,2.21c-1.1.84-.14,2.49-.18,3.44-.01.22-.27.41-.33.71-.08.42.57,1.57-.02,1.6v.21s.4.3.4.3v.29s-.42.31-.42.31c.54.61.02,1.44.07,1.92.04.37.31.66.23,1.35-.04.31-.32.15-.29.42s.39,1.2.36,1.49c-.01.15-.23.35-.26.56-.18,1.21.22.75.41,1.19.01.03.12.61.12.64,0,.3-.32,1-.3,1.25.03.31.27.61.3.89.02.18-.17.29-.15.46.03.28.33.21.36.51.06.61-.22,1.24-.42,1.8l.27.15-.28,1.85h.68c-.29.57.02,1.35-.69,1.42v.73s.39.1.39.1c.03.03.11.67.11.8-.01.42-.05.59-.49.52v.22c.67.75.33,1.47.44,2.24,0,.07.19.07.2.1.19,1.04-.09.76-.21,1.27-.05.2.17,1.1.18,1.47,0,.34-.48,1.05.21,1.11-.34.42-.27.96.27.59l-.12.8-.43.39c.17.07.56.09.66.17.03.02-.13.33.09.42l.07-.45c.63.18,1.08-.11,1.64.45l.55-.59.07.45.2-.3c-.17.38,1.25.47,1.43.43.45-.1.66-.57,1.31-.29v-.45c.49.14,1.79.56,1.92-.15l.2.3.41-.3c.1.09.22.2.34.23.24.06,1.09.34,1.15.33.29-.01,1.15-.4,1.4-.42.31-.02.78.35,1.15.3v-.6c.36.31,1.44.46,1.78.22.09-.07.1-.29.16-.33.04-.03.7.09.87-.04l.07.45h.82s-.14-.44-.14-.44c.07-.11,1.24-.16,1.34-.11.03.02.04.3.29.34.18.03.75-.13.78-.38l.33.15c.12-.53-.16-.31-.27-.59.38-.17.4.24.48.26.22.06.84-.07,1.09-.12l.07.45c.38.08.27-.15.27-.45.31.31.72.01.9.04.14.02.14.3.22.36.2.17,1.98-.14,2.37-.35.09.01.57.37.63.45.04.05.48,1.13.48,1.19.02.26-.24.63-.09.95-.7.19-1.26.49-.94,1.36-.69-.03-.59-.61-.69-.74-.04-.04-.49.11-.64.11-.23,0-.46-.14-.63-.12-.1,0-.1.35-.35.39-.23.03-.39-.21-.62-.21-.79,0-1.77.86-2.06-.02-.84.45-1.85.85-2.74.31l-.12.28c-.61-.53-1.17.44-1.27.46-.34.09-.8-.35-1.04-.29-.22.06-.42.54-.57.54-.04,0-.41-.27-.65-.32-.53-.11-1.19-.2-1.54.32-.26.04-.37-.42-.42-.42-.22,0-.51.39-.85.42-.38.04-.66-.28-.93-.26-.34.02-.88.73-1.23-.16l-.68.54-.82-.49c-.87.7-2.14.05-3.01.17-.21.03-.5.35-.84.38-.23.02-.17-.22-.3-.29-.65-.34-.69.22-1.19.23-.42,0-.76-.49-1.23-.39l-.14.45c-.57-.12-.43-.8-.5-.87-.1-.12-1.3-.39-1.54-.18-.35-.1-.2-.93-.77-.73.24-.44.39-1.22.39-1.72,0-.17-.19-.3-.19-.52,0-.49.4-1.18.35-1.77h-.55c0-.42.47-.66.48-.96.03-.74-.32-.43-.48-.53-.09-.05.3-.81.41-.88l-.55-.15c.4-1.18.43-2.33.27-3.56l-.54.3.41-1.71-.41-.07c-.04-.3.4-.66.41-.7.08-.37-.23-.74-.26-1.01-.12-1.29.7-2.22.1-3.53-.1-.22-.37-.23-.37-.31l.39-.91-.26-.36.27-.07c-.33-.37-.49-1.08-.41-1.56l-.27.15c.07-.41-.02-.82.41-.97l-.55-.23c-.06-.24.19-.1.23-.17.06-.12-.19-.46.45-.43l-.12-.64-.43-.09c.28-.93.19-1.82.28-2.74l-.28-.23c.24.15.39-.68.39-.86-.03-.6-.51-1.07-.25-1.86.06-.19.32,0,.27-.25h-.55c.27-.74.97-2.17-.14-2.3.41-.17.42-.53.41-.97l-.27.15v-.37c.24-.08.58-1.06.53-1.3-.03-.14-.31-.34-.25-.41.04-.05.33.12.27-.15l-.4-.07c.12-.39.05-.8.05-1.19,0-.31.24-1.22-.2-1.33.58-.77-.02-2.28,0-2.98,0-.21.23-.34.23-.56,0-.16-.3-1.16-.39-1.33-.08-.16-.26-.1-.26-.11-.05-.08.31-.38.34-.57.06-.31-.55-1.57.06-1.5v-.14c-.61-.07.05-.52.08-.89.08-.94-.41-.37-.49-.45.16-1.04.59-1.83.14-2.82l.41-.22-.39-.24c.07-.4.28-1.14-.16-1.24.45-.45.28-1.46-.41-1.12-.06-.39.39-.8.4-1.11.02-.46-.57-.95-.29-1.49-.75-.42.77-1.41-.25-1.78l.41-.37c.15-.37-.23-.26-.25-.37-.05-.19.24-.66.22-.87-.02-.25-.34-.61-.25-.99l-.54-.08c.34.03.13-.46.35-.52.26-.08.52.07.68.29l.2-.22-.26-.08.13-.37c.73-.01,1.45-.32,2.05.3.23.24.5,1.02.58,1.08Z"/><path d="M286.82,107.1v.88s-.59.01-.59.01c.02-.14.3-1.11.59-.89Z"/><polygon points="286.07 106.21 286.07 106.65 285.78 106.65 285.63 106.21 286.07 106.21"/><path class="cls-1" d="M201.52,52.11l.15-.44h.22s.22.22.22.22c-.16.23-.32.26-.59.22Z"/></g></svg>