<?xml version="1.0" encoding="UTF-8"?><svg id="Layer_2" xmlns="http://www.w3.org/2000/svg" viewBox="0 0 289.48 107.99"><g id="bariis_iyo_hilib"><path d="M17.5,6.58c.88-.5,3.16-.3,4.36-.28,1.02.01,1.55.07,2.35.18.35.72.51.25,1.21.46.12.03,1.96,1.18,2.04,1.26.19.17.46.96.78,1.24.88.78.75.25,1.57,1.56.98,1.57,1.18,2.68,1.41,4.49.03.26.28.4.3.55.01.08-.44,1.11-.51,1.45-.07.3-.23,1.64-.28,1.71-.13.18-.43.03-.54.2-.1.14-.07.46-.18.63-.24.36-1.78,2.29-2.18,2.55-.53.34-1.39.15-1.68.94,1.03,0,2.05.67,2.71,1.43.13.15.1.47.21.56.19.16.64-.23.46.71l.42-.34c.33.15.23.91.41,1.23.27.46,1.73,1.69,1.96,2.16.12.24-.02.62.05.94.29,1.51.18,2.38.22,3.86,0,.44-.47.69.16.85l-1.18,1.69.51.17c-.14.31-.74.52-.86.71-.46.8-.6,1.34-1.47,2.08-1.04.89-1.68.71-2.51,1.86-.52.72-1.33.33-1.4.37-.06.04-.04.33-.26.42-.18.07-1.03,0-1.45.14-.53.17-1.09.93-1.68.59v.51c-.73-.38-2.04-.08-2.92.03-.77.1-.88,0-1.32.04-.48.03-1.15.49-1.77.45-.44-.03-.9-.42-1.58-.43-.98-.02-1.13-.23-1.63-.26-.3-.02-.58.18-.96.14-.66-.08-1.39-.88-2.16-.82.24-.4-.13-.64-.15-.91-.03-.43.49-.84-.2-1.03.53-.6.03-.84,0-1.37-.02-.59.26-1.4.27-1.83.02-.74-.49-1.37.07-2.03l-.36-.19c.55-1.27-.3-3.16-.17-4.35.01-.12.35-.04.37-.35.01-.2-.03-.98-.06-1.19-.01-.1-.28-.06-.3-.18-.18-1.21.31-2.91.35-4.03.02-.63-.36-1.25-.34-1.7s.71-.94-.01-.93c.63-.77-.05-1.65.03-2.62.02-.3.27-.57.26-.67-.01-.16-.39-.31-.43-.53-.04-.18.27-.79.31-1.16.08-.83-.28-1.47-.26-2.03.02-.48.63-1.01-.07-1.17.56-1.41-.08-4.01.18-5.42.08-.45.68-.65-.02-.84.5-.54.07-1.13.92-1.62.53-.3.87-.06,1.33-.16.12-.03.1-.29.23-.32.57-.17,5.07.82,5.42.62ZM12.79,8.54s-.78.08-.99.04l.34.34-.34.59c.69-.03.13.33.09.6-.16,1.01.23.93.26,1.04.22,1.19-.07,2.16-.19,3.19-.01.13.29,1.03.27,1.65-.02.91.22.99.25,1.72.03.58,0,2.09-.07,2.67-.09.69-.91,1.92.23,2.31-.68.58-.34.73-.37,1.26-.21,2.97.2,5.83-.27,8.78,0,.06,0,.49,0,.51.29.81.35,2.98.48,4.22.07.72-.51,2.97.15,3.37.11.06.36-.05.51,0,1.35.5,2.9.35,4.48.32.6-.01.71.1,1.18.11.9.03,1.12-.53,1.19-.51.14.03.38.38.66.31.2-.04.31-.38.53-.41,1.43-.24,2.17-.2,3.59-.87.43-.2,3.38-1.93,3.6-2.16.15-.15,0-.36.03-.39.14-.15.72-.12.79-.22.08-.11-.03-.4.03-.51.47-.86.2-1.16.37-1.55.14-.34.74-.22.46-1.34-.11-.44-.22.35-.09-.77.15-1.32-.04-3.7-1.31-4.45-.12-.07-.39.02-.47-.05-.15-.14-.11-.42-.21-.53-.22-.23-1.4-1.48-1.5-1.53-.07-.04-.28.12-.36.08-2.25-1.06-4.37-.72-6.77-.63l-.19.35c-.9-.65-2.45.35-2.75-1.31-.26-1.46.85-1.65,2.07-1.74.38-.03.7.2,1.13.15.52-.06.86-.51,1.12-.63,1.67-.73,4.06-.8,5.52-2.04.37-.32,1.94-2.12,2.06-2.41.11-.25,0-.55.14-.8.07-.12.35-.12.47-.38.23-.49-.2-1.92-.33-2.43-.22-.86-.1-.33-.4-.86-.35-.61-.59-2.29-1.5-1.9-.15-.36-.16-1.02-.4-1.3s-2.41-1.37-2.83-1.48c-.22-.05-.42.26-.76.18s-.55-.41-.83-.42c-1.2-.07-3.07.41-4.25.5-.31.02-.2-.31-.35-.35-.54-.12-1.17.32-1.66.31-.43,0-.77-.34-1.08-.39-.77-.11-1.01.13-1.74-.21Z"/><path d="M69.86,51.13c.13.14.23.27.34.43l.08-.51,3.37.18v.49c.77-.51,1.14.17,1.49.32.26.11.83.07,1.01.22.22.19.01.81.71.64-.16.41.33,1.2,1.02,1.01.1.36-.21.79-.18,1.08,0,.05.53.3.35.78l.5-.34c.21.5-.26,1.14.33,1.26l-.34,2.71.52.17c-.15.42-.73.63-.86,1-.11.3.06.55-.07.77-.22.38-1.13.49-.5,1.36-.24.36-.91.46-1.13.75-.15.19.04.48-.05.6-.13.16-.7.36-.93.8-.08.15-.17.28-.19.45.02.2,1.41.6,1.69.68.17.04.43-.11.49-.06s.09.4.21.55c.6.77,1.55,1.14,2.49,1.32.08.05.18,1.38.39,1.63.02.02.41-.17.48.12-.42,1.27.29,1.36.81,1.98.19.23.04.44.08.55.05.13.49-.05.11.62-.08.14-.33.15-.33.23,0,.3.47.74.18,1.26h.51c.07.42-.42.85-.47,1.14s.18.57.12.78-.46.21-.51.39c-.07.31.18.65.05,1.01-.08.25-.42.54-.55.81-.45.92-.49,1.63-1.52,2.2l.34.42c-.6-.13-1.54.24-1.53.93,0,.18.42-.04.35.25l-2.7.68.17.67c-.43.26-.83-.14-1.07-.12-.18.01-1.01.36-1.22.37-.71.07-1.89-.38-2.19.43l-1.03-.51-.33.35c-.57-.63-.9-.91-.91-1.83.43-.09,1.17-.92,1.47-1.02.73-.26,1.97-.06,2.63-.18.07-.01.9-.57,1.05-.64.09-.04.85.35.42-.54,1.1.38,1.32-.48,2.21-.59v-.42s.49-.02.49-.02v-1s.67-.01.67-.01c-.16-.54.42-1.14.46-1.46.05-.37-.22-.86-.08-1.46.07-.3.41-.57.42-.71.01-.19-.33-.47-.42-.72-.09-.27.04-.66-.08-.85-.05-.09-.47-.16-.47-.29,0-.05.33-.2.26-.42-.03-.07-.75-1.28-.81-1.32-.32-.22-.6.34-.3-.6-.24-.48-.79-.31-1.21-.45-.12-.04-.11-.3-.25-.33-1.45-.28-2.48.21-3.89-.51-.31-.16-1.61.02-1.65.51-.46-.2-.73-.66-1.12-.91-.29-.19-.98-.32-1-.37-.41-.73.33-1.45-.16-2.27,1.01.27,1.42-.66,1.98-1.01,1.24-.78,1.28-.2,2.3-1.48.37-.46.81-.32.93-.41.09-.07,1.31-1.83,1.35-1.95.24-.81.12-.9.54-1.52.34-.49-.59-1.24.51-1.65l-.84-.26.49-1.07-1.88-1.76c-.74.22-1.53-.22-2.33-.22l.17-.33-3.63-.08-.51-.25c-.18.13-.21.18-.23.4-.01.12-.04,1.12-.03,1.18.02.14.48.04.35.53-.02.09-.46.01-.34.33l.5.09-.15.94.32.14-.51.69.3.1c-.23.38.14.58.17.77.04.25-.38.43-.29.78.06.21.42.36.44.54s-.24.49-.23.82c0,.42.4,1.05.39,1.38-.02.45-.52,1.4-.44,2.01.05.36.48.63.52,1.04l-.35.33c.58.72.1.68.01,1.19-.17.93.28,1.22.43,1.93.14.63-.13,1.32-.11,1.94.02.49.4,1.56.35,2.02-.01.11-.56.12-.46,1.06.04.33.19,1.31.46,1.31-.69.83.05,1.83.11,2.67.04.54-.23.73-.24,1.01-.02.87.64,2.05.28,2.86-.08.18-.56.34-.51.8h-2.35c.36-.54-.12-1.21-.11-1.43,0-.17.38-.29.28-.59l-.51-.08.52-1.18c-.58-.14-.14-.48-.2-.68-.03-.09-.31-.08-.32-.17-.03-.34.28-.53.29-.67.02-.24-.39-.5-.42-.7-.03-.22.49-.57.3-1.13l-.49-.28c1.09-1.05-.16-1.18-.17-1.26-.05-.31.26-.53.32-.84.09-.49-.38-1.12.36-1.77-.96,0-.23-2.44-.34-2.54l-.51-.09c.46-.14.83-1,.17-.93l.31-.19c.24-.56-.45-1.04-.45-1.27s.26-.41.31-.67c.09-.6.17-1.96.06-2.57-.05-.28-.38-.53-.39-.79-.02-.55,1.09-1.04,0-1.27.66-.83-.44-1.39,0-2.36l.51.08-.17-1.6-.34.17c.2-.66-.13-1.44.34-1.95l-.35-.18c.27-.48.04-.91.07-1.32.03-.45.42-1.44.43-1.53.05-.39-.31-1.22.29-1.61.42-.12.57.38.83.43.13.02,1.68.06,1.87.05.1,0,0-.3.32-.33.41-.04.81.07,1.19.19l.09-.51c.23-.05.14.12.25.25Z"/><path d="M61.46,7.94l.03-.29c.4.1.27.63.5.95.04.05.71.27,1,.67.11.15.47,1.11.58,1.2.12.1.36-.04.46.16.45.94.42,2.6.68,3.48.04.14.31.11.33.24.24,1.4.26,3.92-.34,5.21l.35.18c.02.58-1.02,1.54-1.34,2.05-.18.3-.22.75-.38.97-.26.36-.67.21-.93.42-.3.24-.15.69-.28.82-.06.07-.32.05-.44.14-.23.18-.21.53-.7.4l.17.34-.65.03-.2.56c.2.31.47.08.76.24s.66.61.88.67c.25.06.52-.18.85-.02.43.2.34.68.65.89.25.17.68.12.91.27.28.19.4.89.68,1.19.66.7,1.31,1.24,1.92,2.09,1.2,1.67,1.12,2.14,1.64,4.11.02.08.65.9.7,1.03.16.41-.03.88,0,.92.03.05.38.1.52.4.19.4.05.83.16,1.2.08.27.44.42.6.75.61,1.31.36,2.07-.58,3.09-.28.07-1-.08-1.14-.34-.06-.11.07-.36,0-.51-.15-.28-.58-.3-.72-.62-.09-.22.08-1-.13-1.42-.13-.25-.55-.26-.6-.45-.06-.28.08-.65-.02-.96-.09-.27-.48-.3-.57-.44-.07-.11.17-.85.08-1.24-.01-.07-.38-.79-.51-1.17-.05-.14-.33-.13-.34-.23-.02-.19.2-.5.17-.55-.03-.05-.47-.1-.57-.34-.06-.14.1-.4.04-.56-.26-.7-.58-1.3-1.04-1.84-1.27-1.51-2.52-3.01-4.84-3.78-.2-.07-.34.25-.56.23-.39-.02-.96-1-1.21-.14-.45-.54-1.1-.44-1.61-.62-.43-.15-.6-.7-1.18-.39.45,1.43-.02,2.72,0,4.14,0,.33.25.54.25.67,0,1.34-.39,2.84.09,4.21l-.35.18c.5.14.52.49,0,.67.72.44-.15,1.05.52,1.19-.67.98-.02,2.28-.06,3,0,.09-.49,1.5-.55,1.62-.41.86-2.02-.55-2.12-1.43-.08-.7.13-1.78.12-2.51-.02-1.3-.26-2.5-.29-3.74-.02-.56.41-2.07-.16-2.2v-.34c.4-.13.59-.57.52-.99-.02-.14-.38-.04-.36-.36.02-.4.37-.63.37-1.02,0-.41-.33-.69-.35-1.02-.03-.39.27-.83.16-1.32-.03-.15-.48-.05-.34-.54.02-.06.35-.08.35-.18.02-.34-.42-1.17-.43-1.68-.02-1.63.35-3.84.2-5.38-.17-1.66-.2-3.43-.3-5.26-.03-.48.42-.72-.15-.84v-.34c.41.07.4-1.77.34-2-.04-.14-.35-.09-.35-.2.02-.24.27-.37.28-.51.01-.14-.22-.38-.23-.65-.01-.41.27-1.12.26-1.18-.08-.43-.62-.82-.08-1.59.67-.96,2.01-.3,2.93-.29,1.66.02,2.9-.5,4.65.27.3.13.95.89,1.29.59ZM60.44,10.04s-1.04-.5-1.11-.52c-.32-.07-1.19-.02-1.6-.07s-.74-.33-1.23-.31c-.07,0-1.19.71-1.23.81-.07.17-.33,1.12-.37,1.33-.12.65-.04,1.71.09,2.35.12.57.1.88.1,1.55,0,1.57.22,3.51.08,4.96-.02.25-.31.48-.29.93.01.32.36.24.37.34.02.32-.26.5-.27.67-.03.58.27,1.58.24,2.04-.02.33-.49.56-.15,1.09l3.35-1.46c.26-.88,1.58-.97,2.07-1.66.55-.77,1.28-1.99,1.64-2.74.25-.52.72-.98.72-1.64-.77-.24-.05-.85-.01-1.21,0-.07-.31-.06-.34-.19-.08-.36.17-.71.16-1-.09-1.62-1.3-3.39-2.08-4.64-.13-.21-.04-.51-.13-.63Z"/><path d="M11.76,48.9c.11.12.76,2.64.71,2.9-.02.13-.33.1-.32.17.53,1.13-.01,2.73.17,3.89.05.32.35.63.34.85,0,.09-.28.06-.31.17-.08.3.04,2.9.06,3.49.06,1.46.3,2.7.25,4.11,0,.23-.11.39-.18.59h2.7s-.08-.51-.08-.51c.45-.06.76.78,1.24.47.24-.16.05-.87.87-.13l.26-.51.34.5c.46-.58,1.17-.35,1.74-.46.33-.06.63-.28.99-.32.87-.11,1.94.08,2.98-.01.53-.05.99.17,1.49.05.17-.78.9-1.4.83-2.23-.03-.33-.31-.2-.34-.35-.17-.84.35-.92.34-.98-.43-1.56.18-1.36.15-2.55-.05-1.78-.27-3.12-.13-4.89.05-.6-.25-1.91-.13-2.51.06-.29.65-1.36.9-1.45.39-.13.96.39,1.12.7s.34,1.35.4,1.76c.36,2.2-.15,3.86.36,5.88.1.39-.14,1.77-.11,1.86.03.09.3.06.32.19.07.45-.34,1.12-.34,1.33.01.7.32.58.09,1.92-.06.37.34.62-.26.78.64.59.24,1.19.18,1.7-.08.72-.33,1.29.32,1.52-.05.47-.33.64-.36,1.17-.05.86.58,2.17.53,2.7-.03.26-.31.44-.34.7-.05.34.23,1.15.13,1.51-.02.08-.72.49.18,1l-.14,1.17-.34.28c.69-.05.05.2.04.56-.02.53.1,1.44.81,1.3-.22.44-.55.82-.59,1.34-.03.45.57,2.14.55,2.26-.03.18-.28.4-.33.69-.05.33.03,1.21,0,1.26-.14.2-1.14.67-.81,1.38h-.51s0-.5,0-.5h-.73s-.28.33-.28.33c-.17-.21-.01-.78-.04-.82-.06-.08-.47-.15-.47-.28,0-.03.25-.19.29-.36.08-.37-.35-.92-.63-1.16l.5-.42-.5-.42c.63-.41.94-2.74-.17-2.45-.21-.54.63-1.31.5-1.75-.04-.13-.31-.09-.31-.18,0-1.17.09-1.76.22-2.88.08-.74-.4-1.6.11-1.7-.49-1.48.05-3.13-.53-4.63-.43-.17-.76.36-.92.36-.32-.01-.85-.4-1.19-.32-.1.02-.06.25-.16.27-.67.07-1.35-.1-2.01-.12l-.14.47c-.81.32-1.51-.56-2.5-.14l.08.34c-.43-.12-1.43-.39-1.84-.35-.1,0-.05.53-.68.35-.12-.03-.09-.35-.19-.35-.39.03-.39.57-.93,0l-.1.35-1.08-.18c.45.77-.78.15-.69-.34-.02-.02-.41.16-.45.21-.14.16-.17,1.4-.17,1.76,0,.27.25.49.25.78,0,.57-.66,1.27.21,1.55-.76.52-.25.59-.24.84,0,.17-.21.42-.22.75-.02.36.28.67.28.94s-.42.88-.29,1.19c.05.11.31.04.31.17,0,.09-.44,1.02-.35,1.09h.51s0,.26,0,.26c-1.11,1.43.45,2.82-.34,4.31l.51.08c-.25.77-.92.86-1.11,1.62-1.06.18-1.25-1.01-1.93-.86-.03-.37-.07-.55.33-.51l-.36-.41.36-2.79-.51-.09c.71-.62.72-2.46.51-3.35-.04-.19-.5-.23-.51-.37.91-.66-.06-1.03.5-1.6l-.34-.09c.45-.6.22-1.16.22-1.85,0-.54.32-.49-.22-1.01.1-.42.53-1.13.52-1.52,0-.1-.25-.08-.29-.19-.33-.89.11-1.26.12-2.03.02-.85-.46-2.77.17-3.2-.69-1.26,0-2.77-.05-3.98-.01-.3-.29-1.89-.26-2.06.08-.47.72-.91-.03-1.64l.3-.08c.08-.61-.19-1.33-.15-1.87.07-1.11.19-2.79.44-3.88.06-.26.49-.38.26-.76.11-.07.54.11.63.21Z"/><path d="M44.71,7.86c.18.34.26,1.08.44,1.51.13.31.42.47.55.8.16.43.48,2.63.59,2.71l.33-.17-.15,1.45.32.17c.84,3.06,1,5.97,1.2,9.11.1,1.56.47,3.01.59,4.55.08,1.07.28,3.07.61,4.03.08.24.47.23.5.38.05.31-.3.62-.29.82.01.22.54.99.27,1.52l.34-.09-.26.86c.67.57.26.56.28,1.1.04,1.14.3,2.06.48,3.21s.14,2.18-.34,3.28c-.7-.05-1.16-.1-1.54-.72-.06-.1-.58-1.48-.58-1.58-.03-.59.33-1.14-.06-1.81-.52-.9-.1-.8-.18-1.71-.09-1.02-.63-2.7-.78-3.78-.03-.23-.1-1.34-.14-1.4-.07-.11-.41-.1-.44-.27-.03-.19.2-.54.19-.82-.02-.56-.36-1.09-.06-1.7-.31-.09-.83-.75-.89-.75-.23,0-.79.26-1.17.3-.54.06-1.02-.28-1.15-.27-.39.05-1.16,1.09-2.04.47l-.2.35c-.44-.37-3.96.09-3.96.42l.35.66c-.69.26-.39,1-.56,1.66-.1.41-.23.68-.34,1.18-.33,1.39-.6,2.59-1.05,3.93-.19.55.26.41.25.5-.01.14-.68,2.15-.81,2.57-.46,1.51-.85.95-1.81,1.74l-1.26-.93c.54-.33.04-.54.04-.68,0-.14.34-.29.43-.55.07-.2-.08-.64.02-.97.08-.28.29-.24.39-.49.12-.33,0-.98.07-1.12.14-.26.59-.25.69-.66s-.14-.67-.12-.92c.01-.15.56-.02.35-.44l-.34-.08c.15-.2.49-.38.59-.6.15-.33.64-2.81.56-3.13-.01-.05-.89-.5.19-.43.19-.94.01-1.76.53-2.62l-.35-.32c.64-2.01.71-4.21,1.27-6.34.08-.31.57-1.38.59-1.47.16-.65-.62-1.71.68-1.75-.51-.47,0-1.3.13-1.98.04-.2-.1-.43-.06-.61.12-.56.92-1.66.27-1.71.71-1.09.93-2.34,1.39-3.51.11-.29.35-1.08.39-1.13.06-.1.85-.64.89-.71s-.12-.32,0-.59c.03-.07.77-1.18.82-1.24.33-.33,1.11-.49,1.49-.83.07.02,1.23.7,1.29.75.04.04.6.76.63.81ZM43.14,10.8c-.13-.35-.11-.75-.49-.96-.06,0-.71.9-.75.97-.07.16.02.48-.09.72-.22.46-.28-.09-.6,1.08-.27.95-.77,2.32-.96,3.27-.12.61.24,1.5-.55,1.56.57.51-.24,1.26-.33,1.95-.05.4.13.79.1,1.01-.02.15-.34.32-.43.68-.17.64-.06,1.99-.23,2.49-.13.38-.78,1.35-.8,1.88l.36.18c.05.54-.95,1.05-.06,1.4,1.27-.21,2.86-.23,4.08-.59.37-.11.4-.4.46-.4.72-.01,1.85.31,2.7.15.79-.15.15-1.33.1-1.95-.04-.51.08-1.32-.03-1.8-.03-.13-.32-.11-.34-.22-.08-.42.25-.7.26-.98.03-.55-.23-2.46-.33-3.13-.12-.87-.94-1.75-.61-2.53l-.52-.09c-.09-.45.2-1.15.16-1.34-.05-.2-.45-.2-.49-.38-.08-.33.13-.73.1-.99-.03-.23-.41-.53-.51-.83-.15-.46.07-.76.05-1.02,0-.09-.22-.07-.24-.13Z"/><path d="M146,6.46v.51c.56.18.46-.36.83-.44.93-.2,1.01.64,1.54,1.05-.43.91-.16,1.11-.04,1.87.07.4-.42.75.35.91-.57.82.75,1.02-.15,1.41.06.32.69.8.69.85-.02.25-.31.38-.31.64-.01.83.61,1.25.76,1.76.2.66.21,1.41.04,2.07h.51c.06.46,0,.43-.34.59.22.21.61,1.64.62,1.86s-.34.44-.37.67c-.07.5.4,1.07.39,1.33,0,.23-.25.49-.27.75-.03.42.18.9-.04,1.4l.51.08c-.47.47-.14.99-.2,1.48-.04.33-.33.68-.32,1.07,0,.32.34.23.34.32-.02.34-.1,1-.16,1.36-.27,1.81-1.02,3.46-1.31,5.3-.31,1.94-1.3,4.24-2.28,5.98-.21.37-.16,1.01-.62.98l.32.42c0,.25-1.13.71-1.27.93-.11.19.11.47.09.5-.23.34-1.91.26-2.35.08-.97-.4-.9-.83-1.43-1.36-.22-.22-.77-.43-.91-.61-.23-.3-.19-.83-.38-1.24-.2-.45-.66-.51-.78-.75-.14-.28.11-.62-.06-.89-.92-1.43-1.57-4.23-1.79-6.05-.05-.42.22-.8.21-.91-.02-.17-.41-.32-.47-.68-.07-.47.27-.74.28-1s-.27-.53-.23-.82c.04-.36.59-.61-.04-1.04l.51-.34c0-.15-.23.05-.36-.33s-.1-1.47-.07-1.87c.03-.37.59-2.21.56-2.33-.03-.17-.38-.35-.31-.45.56.03.47-.32,0-.42.77-.68.27-1.59.43-2.3.1-.47.73-2.04.69-2.43-.01-.14-.32-.32-.28-.5.03-.14.4-.18.51-.39.16-.3-.04-.69.04-.92.09-.28.45-.46.56-.79.16-.46.3-1.75.48-2.13.1-.22.43-.24.58-.53.2-.4-.03-.91.11-1.21s.77-.64.95-.94c.16-.26.01-.49.08-.6.26-.42,2.37-1.91,2.93-1.95.25-.01.71.39,1.19.09ZM145.83,8.83l-1.17.02c.09.47-.29.48-.41.67-1.73,2.63-2.5,5.24-3.25,8.43-.21.88-.46,1.45-.65,2.18s-.02,1.98-.28,2.78l.35.19v.25c-.7-.01-.1.43-.07.76s-.29.8-.28,1.17l.35.18c-.86.72-.14,1.86-.19,2.71-.01.19-.8,1.38.02.92.23.44-.32.54-.32.58.03.84.34,2.09.53,2.84.44,1.75.38,2.45,1.32,4.09.51.9.71,1.37,1.3,2.16.3.4.61,1.53,1.1.58.18-.35.32-1.58.37-1.65.12-.16.44-.11.57-.2.17-.13.08-.6.2-.85.3-.63.72-1.59.97-2.24.4-1.03.98-2.04.72-3.18l.35-.28-.34-.09c.42-.34.77-.76.67-1.34-.27-1.54.28-2.23.34-3.57.02-.5-.43-1.68-.32-2.34.12-.76.7-1.16-.02-2.04.61-.18.2-.3.19-.7,0-.18.05-.34.13-.5l-.33-.18.16-.67c-.8-.2.37-1.1-.5-1.35.26-.53.43-1.79.08-2.26-.1-.13-.39-.15-.42-.29-.05-.27.21-.62.16-.81-.05-.2-.42-.21-.47-.29-.07-.1.15-.37.12-.54-.04-.22-.39-.34-.43-.55-.03-.17.14-.56.1-.95-.06-.56-.4-.63-.43-.72-.1-.29.19-1.18.12-1.27l-.5.17.17-1.86Z"/><path d="M137.96,5.88c.05.07.23.05.26.19.17.78-.44,1.3-.63,1.86s-.23,1.16-.48,1.72c-.42.94-.42.53-.65,1.55-.1.44-.49.82-.57,1.3-.04.22.14.48.1.63-.02.07-.76.6-.81,1.2-.02.25.16.49.15.68,0,.09-.59,1.43-.66,1.55-.31.61-1.03,2.35-1.27,3.09-.45,1.4-.86,2.94-1.55,4.38-.11.22-.43.36-.5.5-.08.18.25.3.19.5-.1.29-.67.73-.73,1.14-.02.11-.04,1.97-.03,2.15.12,2.01.33,4.31.34,6.42s-.41,4.32-.14,6.21c.02.16.29.33.29.38,0,.23-1.4.83-1.74.74-.7-.53-.63-1.25-.79-1.89-.04-.14-.33-.11-.34-.22-.05-.35.31-.74.31-1.02,0-.22-.24-.38-.25-.5-.03-1.08.09-2.7.14-3.87.02-.4.61-.64-.21-1.02.16-.59.74-2.21-.16-2.27.76-1.18,0-.66,0-.76.12-.58.33-1.28.32-1.86,0-.23-.26-.39-.26-.5,0-.16.39-.29.28-.59l-.48-.02c.21-1.01-.93-1.05-1.04-1.17-.08-.09.15-.46.08-.68-.07-.19-.55-.43-.68-.84-.24-.72-.21-1.98-.59-2.93-.11-.28-.83-1.31-.84-1.39-.03-.29.23-.53.07-1.04s-.55-.53-.78-.92c-.34-.58-.3-1.41-.74-2.11-.66-1.04-.29-.56-.6-1.61-.06-.21-.36-.35-.43-.58-.21-.68-.24-1.5-.43-2.11-.13-.43-.61-.69-.62-.76-.09-.44.11-1.05-.03-1.46-.1-.28-.57-.32-.63-.55-.04-.17.19-.51.15-.82-.03-.27-.32-.37-.28-.77,0-.08.35-1.13.39-1.18.5-.66.91-.23,1.49-.08.11.03.36-.14.41-.08.03.03-.03.27.07.43.04.07.26.07.28.18.11.79.04.66.29,1.54.64,2.2.98,4.25,1.87,6.41.15.38.54.74.64,1.06.42,1.31.91,2.76,1.6,4.09.1.19.4.2.47.41.15.42-.08,1.05.03,1.47.03.13.32.1.34.23.04.27,0,1.07,0,1.4h.42c.08-.43.43-.27.58-.35.02-.01-.09-.27-.04-.45.22-.71.93-1.34.99-1.73.05-.32-.12-.55-.1-.74.01-.12.33-.09.35-.22.04-.24-.17-.54-.09-.74.07-.16.42-.33.55-.62.68-1.49,1.81-4.65,2.22-6.23.08-.32,0-1.03.05-1.15.21-.5.13.06.33-.82.05-.22.42-.41.53-.68.76-1.95.54-2.34,1.98-4.08.16-.19.2-.68.41-.72.47-.09.93.4,1.18.73Z"/><path d="M92.21,6.68c.74.43.38.1,1.12.13,1.08.05,1.35.62,2.1,1.19l-.31,1.66c-.52-.28-1.5.09-1.9-.03-.32-.09-.64-.75-1.31-.48l.17.34c-1.88-.61-2.45,1.62-3.04,2.96l.34.16c-.95.66-.15,2.43-.84,3.21l.33.33c-.76.71-.03.74,0,.89.05.21-.07.5.04.69.05.1.69.28.88.55.29.41.27,1.16.94,1.58.12.07.37-.05.49.03.93.57,1.81,1.14,2.68,1.58,2.57,1.3,3.43,2.14,5,4.52.1.15.72.56.75.61.05.11-.01.83.2,1.19.13.21.42.06.49.12.08.08-.02.75.06,1.05.11.4.58,1.17.62,1.72.11,1.52.24,3.36.49,5.07.11.79-.24.94-.36,1.47-.16.68-.22,2.15-.96,2.34l.34.17c-.06.44-.58.36-.76.5-1.28,1-.82,1.47-2.92,2-.9.23-1.84.41-2.78.72-.13.05-.08.36-.38.35-.15,0-2.66-.87-2.78-.96-.22-.16-1.18-1.36-1.27-1.61-.16-.45-.06-1.04.36-1.3.5-.3,2.03.22,2.35.71.16.24-.11.45.31.45.69,0,2.99-.49,3.68-.72.34-.11.8-.61,1.39-.62.12-.49.4-.94.61-1.4.37-.79.84-2.09.62-3.06-.05-.23-.38-.34-.4-.52-.07-.55-.05-1.82-.13-2.6-.09-.88-.52-3.5-1.21-4.24-.17-.18-.44-.12-.59-.29-.26-.29-.24-1.06-.49-1.32-.23-.24-1.06-.33-1.4-.58-.28-.21-.34-.58-.85-.89s-1.53-.53-1.9-.8c-.96-.7-1.87-1.56-3-2.21-1.55-.89-1.98-2.02-2.67-3.92-.07-.18-.45-.08-.33-.55.02-.07.33-.07.35-.19.05-.31-.19-.72-.16-1.13.04-.68.25-1.4.5-1.97l-.51-.08.66-.92c-.64-.05-.03-1,.07-1.4.05-.18-.03-.39.01-.52.37-1.16.78-1.83,1.74-2.54.23-.17,1.52-1.22,1.61-1.26.17-.07.55.19.88.14.36-.05.64-.54,1.07-.29Z"/><path d="M42.34,51.1c.54.59-.15,1.56.72,1.64-.78,1.04.59,1.67-.17,2.87h.51c-.59,1.21-.26,2.91-.09,4.2.04.29-.14.63-.08.93.03.15.37.05.36.36-.02.41-.41.67-.37,1.01.01.09.33.08.35.2.1.51-.47,1.02-.17,1.62.07.14.33.14.32.21-.04.31-.52.87-.32,1.34l.49.1c-.01.43-.19.84-.24,1.27-.14,1.22-.4,2.99-.24,4.35.04.32.3.64.32,1.06.02.72-.51,2.27-.33,3.03.05.22.46.19.49.37.02.1-.13.36-.11.56.05.48.36.99-.23,1.11l.3.11-.3,1.49c.67.38.75-.18,1.18-.28.33-.07.82.36,1.61.12.32-.1.27-.28.39-.33.94-.39,1,.22,1.47.16.09-.01.07-.33.16-.32.97.02,2.33.13,3.23-.09.13-.03.37.12.41.07v-.5c.47.07.55.1.79.51.76.19.6-.73,1.15-.5.33.13.35.7.54.99.07.11.61.38.57.6-.02.14-.38.19-.46.28-.05.06.1.43-.08.62-.1.11-2.23.73-2.52.96v.59c-.51-.26-1.21-.21-1.77-.08-.47.1-.94.56-1.26.34-.11-.07-.09-.32-.25-.39-.36-.16-2.31.98-2.52-.01-.68.02-1.8.51-2.39.5-.09,0-1.58-.3-1.65-.34-.19-.11-.05-.4-.21-.53-.14-.1-.53-.1-.57-.16-.09-.12.17-.66.17-.92-.04-1.1-.3-2.53-.69-3.56l.34-.32c-.3-.53.06-1.13-.16-1.65-.08-.2-.45-.07-.33-.55.02-.08.34-.01.36-.33.02-.36-.09-.92-.12-1.35-.18-3.26.54-7.53-.39-10.47-.04-.45.24-1.13.28-1.41.21-1.71.1-3.51-.07-5.19-.08-.82-.02-2.47.2-3.29.16-.6.74-1.67,1.39-.96Z"/><path d="M81.15,17.23c.11.25.28.8.25,1.31s-.24.95-.31,1.43h.51c-.53.57-.16.93-.17,1.45,0,.58-.15,1.44,0,1.99.11.44.26-.37.09.71-.12.74-.25,1.96-.09,2.67.08.32.1,0,.16.87.04.51.32.94.34,1.19.04.51-.44.87-.43,1.17,0,.27.27,1.01.27,1.51,0,.32-.24.69-.18,1,.02.12.32.09.35.23.13.6-.2,2.03-.18,2.49,0,.11.48.02.35.52-.02.07-.29.07-.32.17-.05.17.17,1.42.65,1.28-1.05,1.07.18,1.83.18,1.95,0,.18-.18.4-.17.66s.15.51.13.8c-.04.58-.54,1.04-.47,1.65-.42.08-.28-.07-.41-.34l-.86.19c-.21-.3-.46-.59-.61-.92-.1-.2-.61-1.81-.62-1.92-.02-.2.23-.33.23-.57,0-.41-.36-1.04-.4-1.47-.14-1.44-.33-4.36-.21-5.7.04-.5.73-1.14-.33-1.09-.07-.34.31-.43.33-.75.01-.23-.17-.55-.17-.86,0-.54.46-.87-.15-1.01.37-.44.44-2.06.22-2.59-.12-.28-.49-.08-.39-.45l.5-.34c-.51-.77-.33-2.25-.17-3.13h-.51c-.09-.31.29-.53.28-.76,0-.2-.29-.39-.25-.64.03-.18.3-.32.31-.7.02-.5-.34-1.33-.35-1.88-.01-.48.25-.94.17-1.43l-.34.08c.48-.76,0-.92-.02-1.53-.02-.44.25-.65.28-.94.07-.92-.28-1.81-.21-2.6.04-.41.29-.88.28-1.19-.02-.38-.6-.9-.58-1.27.1-1.67,2.81-1.46,2.8.09,0,1.29.05,2.58.09,3.89.03.92-.16,4.09.14,4.77Z"/><path d="M72.42,7.19s.06.17.13.22c.12.09.35.05.39.1.33.4.16,1.46.24,1.87s.45.68.49,1.23-.3,1.17-.18,1.66c.03.13.33.11.35.22.03.22-.18.64-.18.98-.05,2.65.14,5.41.07,7.95-.05,1.71.64,4.02.52,5.67-.06.84-.05,1.81-.02,2.77,0,.25.27.45.25.65-.02.24-.26.4-.31.54-.02.05.49.08.42.91-.11,1.27-.2,3.14-.03,4.46.07.59.52,1.74.55,2.29.01.33-.27.52-.23.9.03.28.31.59.3.89,0,.07-.37,1.22-.4,1.27-.17.25-1.35.24-1.62.08-.08-.05-.78-1.44-.8-1.55-.05-.32.3-.66.28-.99,0-.21-.23-.38-.26-.54-.21-1.34-.35-2.86-.5-4.19-.01-.11.3-.61.2-.98-.07-.27-.37-.45-.41-.73-.06-.46.37-1.89.3-2.51-.04-.42-.35-.79-.34-1.02.01-.51.77-.38-.17-.84.65-.74.1-1.04.07-1.6-.14-2.19-.39-3.61-.07-5.84.25-1.71-.27-3.98-.33-5.74-.02-.62.46-1.94-.15-2.17.49-.66-.16-1.23-.19-1.71-.02-.26.28-1.44.29-1.81.02-.66-.46-.83-.47-1.05,0-.06.54-.84.62-.91.27-.26.8-.6,1.19-.48Z"/><path d="M115.57,6.81c-.08.78.64.9.45,1.73-.23,1-.26.73-.26,1.9,0,.53-.45.87.16,1.01-.82,1.06-.34,2.64-.42,4.07-.04.69-.06.36-.19.91-.06.24.24.47.25.77.01.35-.27.8-.3,1.21-.06.81.28,1.83.29,2.67.03,3.46-.41,6.86-.39,10.31.02,2.81.99,6.99.08,9.64-.16.47-.45,1.02-1.01.75v.5s-.51,0-.51,0c.3-.46-.25-.44-.41-.69-.11-.16-.48-3.14-.43-3.43.21-1.28.3-1.26.12-2.68s-.13-2.62-.11-4.11c.05-3.28-.05-6.13.1-9.31.11-2.29.19-5.16.07-7.4-.02-.36-.32-.56-.32-.82,0-.37.44-.43.47-.57.05-.23.11-1.14.07-1.38-.07-.39-.38-.37-.38-.43,0-.54.44-1.97.65-2.55l-.34-.31c.42-1.6.58-2.13,2.36-1.78Z"/><path d="M57,52.87s.24.03.27.16c.07.33-.14,1.12-.17,1.49l.51.09c-1.01.61-.22,2-.07,2.98.19,1.27-.17,1.02.47,2.25.33.64-.78.58.12.94-.05.22-.2.45-.19.67.02.89-.17,2.77,0,3.52.03.13.32.1.32.18-.02.63-.43,1.49-.45,2.17-.02.54.42,1.11.42,1.59,0,.53-.6.62.05.83v.33s-.34.33-.34.33c.48.27.14.7.28,1.06.15.39.7-.03.06.71.43-.14.47.64.21.68l-.38.08c.49.55.22,1.2.18,1.84l.68.37c-.09.71-.79,2.35.33,2.28-.23.27,0,.74-.07.92-.07.19-.3.3-.38.54-.2.56.29.61.29.65.03.31-.23.46-.26.67-.05.26.15.38-.07.85-.45.98-1.69.98-2.61.93-.43-.27-.02-.61,0-.79.06-.85-.43-2.49-.38-3.53,0-.2.16-.35.27-.5l-.67-.08c-.07-.07.44-.8.45-.93,0-.26-.05-.55-.04-1.01.03-1.18-.25-1.25-.37-2.06-.08-.53.15-2.87.08-3.01-.12-.23-.52-.18-.47-.5-.06-.48.28-.38.34-.55.4-1.21-.43-2.26-.32-2.64.22-.79.1-.37.07-1.2-.03-1.17.18-2.44.06-3.67-.06-.69-.57-.52.2-1.23-.96-.34-.19-1.09-.21-1.35-.01-.18-.43-.35-.43-.5,0-.1.35-.31.31-.67-.02-.25-.32-.45-.35-.7-.04-.37.3-.66.28-.83-.01-.13-.27-.26-.29-.51,0-.1.32-.06.35-.2.09-.38-.19-.78-.17-1.15,0-.15.33-2.41.37-2.54.03-.1.24-.06.29-.21.16-.46-.21-.78.94-.55.76.15.42,1.24.49,1.82Z"/><path d="M35.29,50.55c.05.1-.05.39,0,.54s.3.13.33.25c.08.32-.04.73,0,1.07l.34-.17c-.36.97.04,1.9.12,2.81.15,1.82.1,2.93-.11,4.72,0,.08.27.05.3.16.07.26.06.87-.3.85l.5.36c-.35.78.56,1.41-.16,2.09.74-.04.06.96.08,1.44s.54.74.26,1.14c-.08.12-.34.12-.33.2.02.16.27.41.28.71.01.42.05,1.34.04,1.68-.01.22-.25.37-.26.5-.02.21.49.77.61,1.01-.56.15-.77,1.19-.16,1.36-.08.34-.3.61-.29.98,0,.55.39.62.41.71.08.32-.53,1.98-.42,2.2.13.26.61.16.46.66l-.51.35c.46.52.27,1.32.44,1.72.09.21.39.2.41.32.07.68-.8,1.68-.18,2.34l-.68.69c.73.18.18.76-.34.42v.51c-.45.06-.43.01-.59-.34l-.42.34c0-.3-1-1.22-1.02-1.3-.05-.23.1-.72.09-1.05,0-.27-.2-1.29-.19-1.44.02-.32.75-.62-.22-1.01.12-.31.48-.8.46-1.12-.03-.34-.26-.52-.28-.74-.03-.62.57-1.04-.19-1.78h.51c-.51-.86.06-2.02.02-2.79-.02-.36-.3-.55-.31-.81-.03-.71.36-1.78.13-2.71-.05-.19-.44-.18-.47-.36-.08-.55.08-1.86.46-2.38l-.35-.17.2-.65-.34-.17c.39-2.24.09-4.51.15-6.77.04-1.42.11-1.22-.1-2.73-.08-.58.54-3.71.87-3.77.22.28.73.14.75.17Z"/></g></svg>