<?xml version="1.0" encoding="UTF-8"?><svg id="Layer_2" xmlns="http://www.w3.org/2000/svg" viewBox="0 0 289.48 107.99"><g id="baghrir"><path d="M13.85,22.37l.08.2c.76-.45,1.59.02,2.34.1.68.07,1.8-.48,2.46-.27.54.17.67.22,1.26.24.38.02.82-.08,1.21.06l.07-.36c.48.11.99,0,1.48.04.27.02.65.24.87.21.09-.01.03-.24.25-.26.31-.02.58.13.85.13.74,0,1.98-.24,2.63-.09.26.06.35.46.53-.04h.23c.18,0,.27.41.87.33.34-.05.64-.52.77.16l.18-.24c.64.75,1.38.91,2.18,1.33l.12-.24.45.48.34-.11c-.06.79.67.86.73,1.46l.36-.12c-.02.18.29.73.41.86.2.21.61.32.65.38.07.1.06.5.18.73.19.39,1.02,1.3,1.04,1.38.17.52-.09,1.25-.06,1.56.01.14.37.33.41.62.08.64-.09,1.46-.1,2.06,0,.22.21.16.23.23.09.36-.15.77-.15.97,0,.41.44,1.51-.31,1.4.23.57-.24,1.37-.36,2.01l.24.18-.22.02c.12.48-.29.67-.2,1.19h-.43c-.06.5-.03.92-.47,1.27l.22.3c-.66-.02-.51.37-.64.67-.03.07-.16.03-.2.14-.02.05.1.22.06.29-.12.2-.74.06-.89.69-.13.56.25.86-.63.89l.24.18-.73.67h1.14c.31.68.71.31.98.38.15.04.15.29.21.32.06.03.36-.25.54.28l.4-.13c.18.59.8.99,1.29,1.33.45.32,1.44.5,1.55,1.18.33.24,1.25.58.93,1l.36-.12c-.05.51.33.43.44.53.33.33.39.73.78.32.13.34-.03.76.08,1.06.05.14.23.15.28.24.18.31.14.94.72.65,0,.12.08.22.1.33.08.75.35,1.27.48,2.19.02.14-.09.34-.07.37.06.1.7.37.1.68.77.43.24.94.4,1.45.03.11.42.3.43.32.02.07-.13.32-.1.52.04.34.36,1.28.25,1.44-.06.09-.24.08-.24.16,0,.35.07.64.23.83l-.48.86.22.12c-.07.49-.11,1.01-.47,1.22v.18s.36.18.36.18c0,.08-.89.98-.98,1.2-.19.47.06.77-.6.81l.12.6c-.71-.13-.59.39-.85.67s-.94.74-1.14,1.03c-.05.07.04.22.03.23-.08.06-.63.05-.81.28,0,.83-1.1,1.19-1.79,1.67l.07.37c-.62-.12-.99.47-1.57.62l.11.47h-.41s-.14-.24-.14-.24c-.51.09-.87.67-1.01.72-.81.27-2.51.62-3.35.61-1.22-.02-2.4,0-3.67.17-.42.06-.92.34-1.36.2v.37c-.48-.21-1.08-.13-1.52-.19-1.07-.14-2.01-.4-3.06-.62-.48-.1-2.14-.13-2.54,0-.03.01-.03.21-.11.22l-.41-.13.12-.36c-.27.1-.53-.02-.78,0-.16.01-.3.2-.38.2-.14,0-.47-.45-.73-.44-.14,0-.24.16-.37.18-.21.04-.36-.25-.48.18l-1.64-.37.24.36c-.42.1-.56.49-.66.85-.2-.19-.57-.15-.55-.48l-.18.24c-.41-.23-.78-.54-1.02-.95s-.12-.92-.62-.63c-.05-.55.25-.48.35-.63.05-.07-.09-.25-.07-.38.02-.12.2-.22.2-.26,0-.15-.73-.54-.96-.3-.11-.18,0-.47-.04-.58,0-.02-.2-.02-.21-.1-.02-.16.14-.38.13-.59,0-.19-.2-.36-.2-.49,0-.35.73-.52-.04-.85-.06-.25.31-.25.35-.32.04-.07-.06-1.3-.08-1.5-.06-.65-.1-.34-.15-.5-.14-.55.42-.98.49-1.32.01-.07-.23.01-.26-.24-.04-.51.46-1.73-.35-1.64.08-.31.38-.71.36-1.02-.02-.27-.29-.49-.31-.73-.02-.19.09-.45.06-.72-.02-.3-.39-.48,0-.74l-.36-.06c.17-.53.04-1.06.05-1.58.01-.85.08-3.04-.07-3.82-.01-.07-.19-.05-.21-.14-.14-.57.24-.55.25-.59,0-.15-.17-.37-.19-.6-.03-.47.01-1.07.18-1.52h-.36s.07-.54.13-.64c.06-.12.61-.16-.01-.4.13-.5.55-1.08-.12-1.33.5-.61.12-1.19.12-1.81,0-.2.13-.4.12-.61-.03-2.09-.26-4.26-.2-6.41,0-.13.16-.26.16-.38,0-.14-.29-.49-.26-.86.02-.33.36-.99.37-1.38.04-1.01-.47-2.2-.2-3.36l-.23-.11c.5-.45.16-.74.17-1.09.02-.9-.05-1.17-.15-2.07-.03-.31.22-.61.2-.71-.03-.15-.32-.27-.32-.38,0-.1.24-.34.29-.55.09-.42-.12-2.5-.24-2.99,0-.04-.15-.04-.17-.1-.13-.37.41-.51.45-.57.05-.08-.16-.26,0-.4.42-.32.76-.15.94-.22.07-.02.54-.56.72-.56l.4.22v-.37c.56.05.33.57.48.67.26.18.98.28,1.31.21ZM26.13,25l-.19.36c-.23.07-.42-.25-.6-.24s-.29.25-.57.23c-.48-.04-1.14-.75-1.55.14l-.66-.37c-.4.79-.55.15-.63.14-.15-.03-.62.02-.59.24-.39-.51-.58-.08-.92.06-.19.08-.4-.19-.36.18l-.3-.24-.19.36-.72-.24v.36c-.27.05-.33-.23-.54-.31s-.69.11-.97.08c-.6-.06-1.24-.22-1.81-.2-.26,0-.85.39-1.23.08l-.05.23c-.2.05-.06-.17-.17-.22-.81-.33-.58.53-.61.59-.17.3-.63.06-.51,1,.1.74.47.71.32,1.72-.03.19-.2.31-.22.49-.02.19.19.48.02.74l.57.18c.05.41-.41.73-.46.93-.01.04-.03.73-.03.83,0,.21.17.13.24.27s-.1.37.25.44l-.61.67c.68.13.17.39.17.55,0,.26.34.74.68.55-.21.31-.05.7-.14,1.01-.05.17-.28.26-.31.4-.04.19.16.54.16.77,0,.29-.47.91.42.74.24.51-.36.75-.37.8-.05.29.32.5.35.74,0,.06-.32.97-.34,1.21-.03.41.15,1.04,0,1.5h.61c-.11.18-.08.41-.17.57-.05.1-.45.31-.45.35.02.16.21.28.21.36,0,.1-.25.22-.19.45.03.12.22.23.23.4,0,.21-.31.3-.24.55l.24-.12c.12.09-.25,2.08-.37,2.36,0,.06.24.05.25.14.03.19-.16,1.38-.1,1.55l.18.18.29-.1c.19.62-.25.61-.35.75-.02.03.15.57-.14.77l.32.48c-.24.48-.18,1.03-.23,1.55-.01.14-.17.28-.17.39,0,.3.66.46.43.9h-.35c.41.97.07,2.08.49,3.04l-.36.18c.33.24.25.51.12.84l.18.18.42-.12s-.29.61-.31.72c-.02.16.19.25.14.37-.06.13-.33.22-.4.44s.19.73-.04,1.01h.61s-.36,1.33-.36,1.33c.94-.02.02.59,0,.79-.09.58.2.54.22.61.1.32-.05.67-.33.85.37.07.14.62.17.95.04.41.25.77.07,1.21l.25.13c-.39.39-.08,1.11-.14,1.43-.03.15-.24.25-.22.51.04.54.53.33.74.38.29.07.62.26.93.26.25,0,.43-.24.69-.21.17.02.29.21.39.23.13.02.35-.25.7-.23s.52.32.85.38l.25-.36c.16.1.46.56.61.57.06,0,.16-.16.31-.15.9.08,2.13.22,2.95.45,1.03.29.81.22,1.84.1.4-.05,1.03.2,1.57.13.23-.03.16-.24.25-.25.49-.1.91.35,1.32-.48.66.52,1.29.14,2.05.12.26,0,.89.17,1.08.11.09-.03.08-.23.14-.24.18-.02.82.16,1.3.08.19-.03.35-.28.69-.07v-.36s.61.12.61.12l-.12-.36c.34-.08.88.04,1.18-.09.15-.07,1.31-.65,1.37-.7.17-.15.05-.4.2-.56.13-.14.79-.48,1.01-.48l-.24-.36c.81-.06.55-.32.77-.73.12-.21.3-.36.4-.56.04-.09-.05-.41.05-.51.02-.02.27.13.35-.08l-.24-.12.22-.12-.08-.17c.43.02,1.36-1.2,1.51-1.53s.85-3.07.89-3.42c.02-.22-.04-1.37-.35-1.25l.25-.19c-.02-.49-.34-1.07-.42-1.49-.07-.39.07-.87.03-1.03s-.29-.25-.32-.4.17-.37.04-.53h-.43c.24-.45-.03-.56-.09-.82-.05-.2.01-.49-.06-.61-.04-.07-.92-.67-.97-.97-.43.27-.31-.6-.4-.75-.1-.18-1.19-1.04-1.4-1.14-.07-.03-.17.01-.24.05v-.49c-.93.43-.67-.03-.93-.25-.16-.14-.79-.46-1.02-.48l.12-.24c-.45.19-.87-.44-1.05-.47-.22-.04-.77.47-1.08-.26h-.23c-.57,1.16-.87-.26-1.1-.36-.59-.25.03.39-.36.37-.42-.18-1.21-.62-1.61-.71s-.68.25-.94-.14l-.18.36-.19-.25c-.69.28-1.64-.05-2.28.01-.38.04-.71.4-1.11.13l-.13.24c-.55-.05-2.03-.64-1.99.24-.79-.4-1.23-.96-2-.12-.36-.82-.89-.17-1.21-.17-.44.01-.28-.09-.96.03-.37.06-.83-.29-1.25-.18-.32-.48-1.57-2.31-.7-2.65.06-.03,1.26-.17,1.35-.16.44.02.2.05.73,0,.68-.07,1.02.07,1.6.08.79,0,1.59-.09,2.38.04l.07-.37h.52s.2.24.2.24c-.04-.3.55-.44.8-.48.56-.08,1.31.03,1.8-.02s.86-.26,1.22-.33c.28-.05.76.05,1.07-.03.08-.02.26-.41.53-.45s.44.25.83.1c.29-.11.4-.36.62-.48.21-.12.45-.1.65-.21.16-.09.63-.7.85-.84l-.24-.12c.42-.33.7-.36.92-.91.16-.39,0-.61.11-.84.02-.05.51-.7.6-.81.09-.12.55-.44.56-.5.05-.23-.15-.7-.12-.8.03-.09.2-.08.21-.11.04-.12-.06-.23-.02-.33.07-.15.51-.66.51-.79l-.33-.47.48-.5c-.67-.41-.13-1.36-.18-1.94-.04-.43-.04-.58-.05-.96,0-.07-.21-.05-.24-.15-.12-.4.11-.9.24-1.19l-.49-.86.24-.12c-.08-.19-.32-.05-.42-.18-.24-.28-.03-.63-.67-.49l.24-.18c-.38-.08-.29-.68-.24-1.03-.75.22-.71-.58-1.35-.9-.72-.36-1.26-.1-1.74-1.02-.57.39-1.49-.17-1.94-.63l-.12.25c-.27,0-.28-.41-.66,0l-.48-.48Z"/><path d="M185.78,24.38l.47-.11.06.49.42-.48c0,.2.46.61.61.67.13.06.22-.17.37-.14.28.06.34.39.38.41.03.02.72.01.64-.21l.54.13.02.34c.6-.22,1.44.94,2.1.72.06-.02.1-.51.6,0,.72.75.93.66,1.72,1.22.17.12.4.65.69.83.05.03.42-.1.71.35.24.39-.21.14.42.51.13.08.18.27.39.34.23.08.58-.11.52.27l.12-.24.13.22.22-.1c.04.43.44.61.67.97.21.34.42,1.06.54,1.26.07.11.57.03.5.56l.3-.24.08.21.22-.09c.08.44-.21,1.15.11,1.5.1.11.27.05.34.11.44.41.18,1.68.28,2.2.05.26.3.42.33.62.03.29-.04,1.01-.21,1.26h.37c.03.5-.28.68-.42.98-.09.19-.64,1.76-.63,1.87,0,.11.22.21.18.46-.03.22-.77,1.23-.89,1.65-.06.2.07.48.01.66-.03.1-.92,1.7-.99,1.78-.16.18-.42.07-.52.15-.05.04-.6,1.02-.39,1.19h-.6s0,.37,0,.37l-.24-.12c-.04.05.22.56-.16.7-.17.06-.34-.07-.54,0-.13.03-.35.42-.48.52-.21.15-.67.12-.76.49l.36.3c-.53.37-1.09.02-1.09.91.21.06.26-.15.42-.18.1-.02.86.05.89.09.09.09.05.31.17.43.14.13.89.32,1.11.52l.25-.37c.31.21.27.69.46.93s.97.72,1.04.79c.09.09.2.65.26.83l.48-.12v.6s.48-.36.48-.36c.24.34-.02.71,0,.9,0,.09.22.1.3.2.18.23-.12.54.55.23l.13.48c.84-.27.88.77,1.37,1.17.07.06.25.03.28.07.09.11,0,.39.27.79.23.33-.02.6.73.28.22.35-.16.83.24.97l.12-.24c.09.25.11.68.24.88.11.18.5.24.58.36.11.17.02.49.09.64.38.9.92,1.85,1.25,2.69.05.13.24.26.25.36.03.2-.53.5-.01.54l-.09.33c.83.35.11.63.11.68.04.26.27.83.61.67l-.18.97.79.36c-.41.59-.04.83,0,1.27.04.32-.13.69-.03.98.06.19.26.18.27.25.02.22-.18.51-.13.82.04.26.29.3.33.59,0,.05-.05.71-.07.74l-.57.19.06.36c-.27.08-.45.17-.75.1-.08-.02-1.4-.65-1.47-.7-.17-.13.05-.48-.45-.37l.24-.24-.24-.12c.41-.01.53-.71,0-.49.33-.57-.21-.78-.3-1.2-.09-.47.3-.52.3-.56-.07-.35-.72-1.05-.78-1.51-.03-.23-.03-1.12-.09-1.2l-.22-.09c.22-.56.18-.96-.48-.9-.05-.21.19-.08.23-.13.02-.03-.22-.51.01-.72l-.48.12c0-.79-.14-1.36-.38-2.08-.03-.1-.19-.09-.22-.19-.08-.25-.01-.8-.13-1.04-.06-.14-.25-.04-.33-.11-.06-.05-.27-.69-.61-.72.22-1.09-1.46-1.48-1.84-2.11-.12-.21-.04-.32-.01-.53l-.6.36c-.31-.3-.07-1.06-.14-1.19-.14-.24-.56-.12-.58-.15-.04-.08.03-.31-.07-.48-.17-.3-.8-.5-1.14-.5v-.84c-.6.16-.63-.42-.87-.84l-.34.1c-.13-.46-.82-.58-1.23-.48l.12-.24c-.36.05-.44-.31-.66-.39-.64-.23-1.37.46-1.47-.35-.31-.05-.69.21-.97.19-.22-.01-.53-.29-.75-.29-.18,0-.3.22-.46.22s-.3-.24-.46-.22c-.29.02-1.02.29-1.49.33s-.87-.37-1.2.37c-.09-.35-.23-.13-.46-.24-.07-.03-.08-.2-.12-.22-.16-.09-.69.25-.57-.39h-.24s-.06.24-.06.24l-.3-.13.12-.72-.24.12c.23-.57-.25-.74-.25-.79,0-.66,1.19-.98,1.7-1.03l-.24-.18c.07-.17,1.35-.29,1.62-.29.36,0,1.14.23,1.47.18.24-.04.39-.64.95-.32l.38-.6h.24s.12.24.12.24l.3-.68c.12-.1.64.08.94-.09.52-.29,1.11-1.38,1.49-1.6.11-.06.31.11.49,0,.26-.16.26-.61.29-.65.14-.18.67-.46.93-.39l-.07-.49c.14-.23.49-.12.53-.15.24-.18.41-.92.75-1.12l-.24-.24c.09-.4.54-.38.61-.51.15-.28-.02-.7.12-1.04.02-.06.17-.08.2-.12.07-.1-.03-.47.53-.46-.11-.8.03-2.12.36-2.85l-.23-.11c.13-.28.11-.68.08-.98-.16-1.62-.37-1.75-.98-3.1-.17-.38.18-.69-.44-.53-.07-.52-.57-.55-.67-.67-.05-.07.12-.39-.12-.49l-.12.36c-.55-.19-.32-.44-.43-.76-.05-.14-.46-.21-.37-.57l-.48.07-.12-.43c-.5.33-.58-.36-.75-.46-.21-.12-.74-.09-.82-.63l-.12.24c-.39-.12-.54-.3-.48-.73l-.18.24c-.77-.52-1.56-1.51-2.61-1.09.03-.59-.41-.57-.85-.73l-.06.36c-.23-.04-.39-.41-.45-.45-.04-.02-.72-.27-.76-.27-.2-.01-.42.19-.63.2-.36.02-.82-.34-.95.16l-.73-.49c-.09.38-.91.47-.97.12-.28.13-.02.41-.06.48-.02.03-.41-.15-.55.12-.09-.37-.54-.13-.91-.31-.43.9-.83,1.88-.17,2.74-.04.27-.18.26-.43.24l.37,1.04-.25.35.36.19c.04.06-.46,1.12-.46,1.24.01.19.28.43.32.74s-.17.73-.18.95c-.03.87-.17,2.29-.05,3.06.06.38.39.43.01.78l.25.18c0,.38-.43.6-.01.86l-.25.24c.05.46.63.38.61.49-.44.13.05.56-.61.61.11.3-.02.66.03.93.07.37.67.87-.03,1.13.37.06.38.63.33.95-.17.98-.16,1.44-.23,2.42-.01.2-.3.39-.08.69h.47c-.18.19-.11.43-.15.56-.12.4-.07.36-.13.84-.06.58-.42,1.78.04,2.07-.22.61-.27.92.12,1.45l-.07.18c-.41.11-.48.53-.06.66-.24.24-.24,1.05-.25,1.46,0,.34.26.89-.12.97l.12.12c.45-.17.48.82-.12.67-.11.32.19.2.23.3.06.17-.61,1.37.38,1.03l-.1.65c-.78.16-.24.44.23.44l-.48,1.52.48.06c.05.19-.18.07-.24.21-.2.46-.46,1.27.24,1.31l-.25,1.09-.24-.06c.23.58.69,1.57,0,2,.2-.04.37.72.36.85-.02.32-.63.78.26.97.11.48-.16.52-.37.85l.26.24c-.24.58-.61,1.36.35,1.28.1.07-.64,1.04-.43,1.21l.3-.24-.36,1.53.24.11-.44.68c-1.03.14-1.81-.62-2.59-1.16-.02-.1.3-.49.24-.71-.03-.09-.21-.07-.24-.16-.15-.5.32-.44.36-.59s-.22-.37-.21-.48c.01-.13.34-.23.32-.46-.01-.17-.27-.43-.32-.66-.08-.36.26-.71-.15-.82l.25-.48-.26-.13c.35-.59-.13-.7-.2-.97-.02-.08-.03-1.55-.02-1.69.02-.21.26-.36.23-.42,0-.01-.16.03-.24-.08-.4-.56.25-.64.25-.71-.01-.13-.15-.24-.2-.39s.2-.23-.17-.34c.33-.36.23-1.19.2-1.7-.01-.28-.39-.48.04-.85-.31-.04-.35-.81-.32-1.09.05-.53.66-.82-.16-1.21l.24-.37-.24-.24c.46-.33.69-.86,0-.97l.46-.97-.43-.33v-.28s.46-.24.46-.24c-.79-.1-.37-1.09-.31-1.62.04-.31-.22-.66.19-.93l-.37-.35.37-.98c-.61-.25.3-1.55-.49-1.82.28-.03.6-.91.49-1.03h-.36c.34-.55.12-.74.04-1.19l.45-.39h-.49s.49-1.53.49-1.53l-.25-.24c-.03-.23.2-.38.23-.6.1-.69,0-2.88-.17-3.54-.06-.21.3-.33-.29-.28.09-.2.06-.42.13-.63.03-.09.22-.09.22-.15,0-.25-.36-1.04-.34-1.09.03-.13.27-.14.33-.21.13-.16,0-.88-.45-.71l.36-.72c-.95-.16-.26-.4-.25-.44.02-.07-.06-.37,0-.59.06-.24.2-.41.24-.62.24-1.16-.31-2.54.14-3.75l-.24-.11c.44-.59-.08-.94-.09-1.34s.46-1.03.29-1.72c-.12-.46-.59-.24-.38-.76.05-.11.25-.21.25-.3s-.34-.29-.1-.59c.27-.34.42.2.61.29l.08-.37c.59-.02.6-.69,1.37-.24v-.36c.48.18.85-.16,1.14-.48.19.09.81.24.98.21.06-.01.16-.39.47-.32.17.04.54.49.99.47l.06-.37c.52.38,1.19-.49,1.39.12l.24-.36.07.23Z"/><path d="M143.51,23.5c.35.23.79.34.99-.07.44.28,1.01.21,1.21.61.66-.61.67.36,1.32,0l.21.46c.37-.14.86.26,1.02.26s.27-.2.37-.2c.1,0,.21.2.24.2.14,0,.11-.4.3-.36.11.42.61.42.37.97l.73-.24c-.13.6.21.45.6.73.05-.29.08-.37.38-.32.1.02,1.07.86,1.17,1.05.38.11.95.69,1.24.79.15.05.26-.21.42-.19.2.03.14.45.22.57.13.22.85.35.99.64.11.21.02.44.1.58.03.06.24.09.32.22.18.3.4,1.23.86,1.02v.85s.24-.12.24-.12c-.12.41.45.71.48.8.04.16-.13.37-.06.65.1.43.67.99.68,1.06.05.2-.02.96.04,1.29.04.22.24.34.28.52.1.46.06,1.48.05,1.98h.36c.04.29-.16.53-.19.81-.06.53.15.92.05,1.56,0,.04-.32.02-.12.51.05.13.3.35.27.4-.01.02-.17-.01-.2.03-.07.09.13.65-.28.58-.05.2.15.08.21.14.19.18-.68,1.09-.76,1.32-.06.17.07.35,0,.48-.08.16-.41.24-.54.44-.17.25-.45,1.39-.68,1.63-.18.18-.44.07-.52.14-.05.05.01.24-.05.3-.06.07-.26.03-.39.16-.15.16-.32.61-.32.83h-.48c.31.87-.27.55-.45.64-.04.02-.05.29-.36.31-.5.04-.19-.18-.63.13-.06.04-.22,0-.26.02-.01,0,.11.16.08.21-.24.44-.54.11-.8.21-.14.05-1.46.97-1.34,1.15.3-.01.43.34.61.42.19.09.49.03.61.12.17.12.09.6.23.83.25.44.69.08,1.15,1.17.32.76.43.81.9,1.54.26.4.12,1.08.86.77l.14.59h.47c.05.06-.04.71,0,.91.03.12.37-.02.12.44l.36.06-.12.54c.31-.04.9.52.85.79l-.37.24.6-.06c-.04.54.2,1.36.85,1.09l-.12.48c.12,0,.29-.05.37.08.34.6-.38,1.22.69,1.4.06.19-.08.52-.07.65,0,.07.21.04.22.13s-.11.2-.05.4c.09.33.42.53.43.57.02.24-.21.36-.2.54.01.15.68.59.43,1.08l.24-.12c-.2.76,0,.49.17.74.3.47.45.7.76,1.13.19.26.23.81.64.68l-.24.18c.32.13.55.66.12.73l.12.31.36-.12-.04,1.86c-.46.51.31.83.03,1.4h-.72s.12.49.12.49c-.16.14-.91-.29-1.08-.43-.31-.25-.31-.59-.61-.54l-.12.24-.14-.71-.35-.02.24-.17c-.21-.5-.46-.44-.24-1.04l-.24.12c.39-.74-.23-.95-.25-1.05-.05-.23.13-.52.1-.69s-.51-.47-.46-.8l-.48.12c.12-.25.16-.52.13-.79-.03-.23-.24-.16-.25-.26-.03-.23.04-.86,0-1.05-.02-.09-.21-.07-.24-.16-.06-.2.26-.62-.37-.53l.1-.22-.78-.66c-.1-.24.16-.56.15-.71-.03-.23-.28-.23-.29-.25-.04-.1.18-.32.08-.45-.04-.05-.23-.05-.29-.14-.21-.33.23-.6-.67-.49.31-.79-.21-.65-.48-1.05-.23-.35.2-1.32-.86-.89.46-.74-.08-1.03-.24-1.7l-.48.12c-.11-.75-.17-1.21-.84-1.65l-.38-1.14-.34.11c-.38-.41-.47-.7-.66-1.21-.04-.1.09-.48-.22-.16l-.23.29c-.02-.31-.5-1.53-.72-1.64-.11-.06-.28.1-.46.04-.13-.04-.41-.73-.41-.92-.39-.04-.9-.31-1.24-.52-.19-.12-.38-.42-.53-.46-.16-.04-.98.43-1.36.24v.35s-.54-.27-.68-.3c-.26-.06-.73.19-.66-.19l-.18.24-.13-.25c-.47-.11-.39.21-.66.37-.18-.43-.46-.79,0-1.15l-.23-.12c.06-.22.12-.51.26-.7.09-.12.7-.65.79-.69.36-.15.61.01.8-.01.23-.03-.15-.18.74-.06.06,0,1.04-.02,1.09-.04.19-.06,1.03-.73,1.17-.84.02-.02.36.07.56,0,.54-.17.95-.62,1.6-.4l-.12-.48.21.09c.54-.49,1.29-.75,2-1.06.13-.06.31-.5.81-.24l.02-.47c.67-.08.59-1.16,1.11-1.56.24-.19,1.19-.27.45-.7.83-.42.27-1.23.97-1.58v-.18s-.23-.05-.23-.05c.19-.2,0-.51.02-.62s.42-.1.3-.6c-.02-.1-.33.04-.09-.42l-.24.06c.3-.51-.03-.97.36-1.39-.64-.07-.25-.57-.28-.9-.03-.27-.64-1.43-.65-1.72,0-.14.2-.31.21-.48,0-.06-.59-.17-.25-.73l-.24.06.12-.49h-.37s.12-.61.12-.61l-.46-.03c-.11-.32-.26-1.17-.63-1.25-.13-.03-.32.06-.35.04-.05-.03-.68-1-.7-1.06-.13-.49.39-.36-.56-.77-.1-.04-.27.03-.31,0-.1-.08-.21-.51-.29-.56-.11-.07-.36.09-.55.03-.16-.06-.18-.29-.35-.38-.35-.19-1.15-.12-1.37-.22-.29-.13-.64-.68-.88-.8-.26-.14-1.45-.15-1.79-.28-.16-.07-.25-.39-.54-.42-.26-.02-.45.22-.67.19-.26-.03-.48-.29-.72-.37-.49-.17-.84-.15-1.33-.18l.12.36c-.38.23-.5-.06-.69-.1-.05-.01-.77.05-1.06.04-.8-.02-.74.39-.86.42-.16.04-.82-.69-1.44-.47-.06.02-.52.95-.54,1.05-.01.05-.1,1.01-.1,1.08,0,.36.17.79.07,1.19l.37.13c-.49.85-.53,1.74-.24,2.73l.24-.12c0,.06,0,.12,0,.19-.02.29-.25.46-.26.73,0,.23.22.16.24.24.1.33-.29,1.24-.33,1.57-.08.66.31,1.67.22,2.42,0,.06-.76.52.24.69.06.47-.5.54-.54.83-.02.14.14.29.15.5,0,.33-.13,1.8-.07,1.98.04.13.5.18,0,.8l.61.06c-.35.23-.42.82-.7,1.19.14.59.32,1.38.29,1.97-.01.22-.22.36-.2.59,0,.04.35.08.25.59-.02.11-.25.03-.24.25.03.7.76.88,0,1.65l.49.06c-.73.5-.29,1.25-.3,1.94,0,.09-.16.2-.17.35,0,.46.17,1.03-.02,1.52l.49.13c.04.28-.35.5-.35.54,0,.22.22.68.23.98.05.99-.25,2.68-.32,3.77-.02.4-.1.94-.06,1.32.05.43.38.66.25,1.02l.36.07c-.42.24-.42.91-.49,1.39l.36.12c-.45-.07-.01.31-.13.65-.06.17-.47.16-.3.53.01.03.2.03.2.09,0,.32-.53.62.11,1.09l-.25.13v1.63s.37-.12.37-.12c.19.71-.2.67-.35.87-.05.07.11.32.09.5-.12.9-.05.65.09,1.5.07.42-.18.9.18.96.02.32-.91,1.04-1.22,1.03l.12.24c-.31-.04-.71.06-1.01,0-.05-.01-.54-.59-.7-.67-.14-.07-.62.24-.38-.49.08-.25.35-.08.27-.41h-.36c-.04-.7.57-1.08.49-1.76-.03-.23-.19-.16-.23-.28-.18-.53-.46-.8.1-1.07.15-.44-.41-.62-.35-.84.46-.22.43-.44.48-.9-.55-.03-.75-.49-.11-.56.13-.72-.6-.77-.12-1.45l-.25-.12.37-.3-.37-.06c.15-.41,0-1.07.13-1.43.04-.11.24-.08.24-.15,0-.18-.25-.31-.26-.6-.02-.33.18-.46.21-.67.04-.27-.17-.6-.17-.81.01-.94.34-1,0-2.16-.14-.49.45-1.1.21-1.64l-.48.12c-.13-.46.48-1.01.49-1.14.05-.45.1-1.42-.37-1.58l.25-.14.12-.89-.34-.02c-.15-.36-.15-.9.33-.89-.21-.36-.54-.73-.36-1.15l.36.12c.09-.31-.28-.28-.34-.43-.11-.27.71-.59.1-1.09l.24-.12-.24-.48.36-.25-.48-.06c.02-.26-.04-.55,0-.8.06-.54.78-1.38,0-1.27.12-.22-.04-.46-.01-.66.06-.44.31-1.05.34-1.56.01-.18-.16-.42-.15-.63.02-.25.29-.94.29-1.21,0-.42-.32-.58-.41-.85-.13-.38.22-.83.19-1.34-.03-.48-.38-.58-.01-1.02l-.48-.12.23-.13-.11-.66.37-.06c.05-.2-.2-.06-.23-.18-.03-.1.19-.77.17-.97-.02-.18-.3-.35-.17-.71l.35-.2-.47-.42.34-.85-.36-.12c.21-.58.49-.76.45-1.45s-.55-1.51.03-2h-.37c-.09-.08.26-.61.25-.78,0-.07-.18-.07-.19-.1-.27-.66.28-1.56.04-2.25l-.34-.08c.17-.22.1-.52.21-.76.03-.07.76-.88.76-.95,0-.23-.28-.73.36-.44.32.5.47-.2.9-.09.1.03.02.26.24.25.3-.02.53-.27.75-.31.5-.1,1.54.17,1.81-.3l1.1.5c.33-.43,1.03-.18.91-.74.34.13.7-.04.6.48l.12-.61c.18-.05.08.14.16.19Z"/><path d="M130.11,23.68l.02.59.48-.12c-.09.37.27.4.39.7l.22-.09c.03.59-.07,1.17-.07,1.75,0,.74.05,1.55.08,2.31.01.39-.33.62.24.98-.57.37-.16.47-.16.73,0,.18-.27.33-.2.55h.36c-.15.39.17,1.06-.03,1.3-.16.18-.72.29-.05.4.48.08-.28.52-.28.56-.03.21.28,1.05.62.95l-.25.13.12.48c-.37.1-.14.22-.17.43-.15.81-.04.24.06.55.04.13-.07.66-.12.83l.24.19c-.35-.04-.14.15-.21.32-.19.45-.59.62.09.95-.23.31-.39.37-.36.79l.49.06c-.39.23-.67,1.23-.41,1.63.09.14.41.17.36.56-.02.15-.3.48-.37.79-.05.21.06.52.05.55-.22.66-.12.67-.12,1.44,0,.2-.17.45-.11.68h.48s0,.61,0,.61h-.61s.37.55.37.55l-.25.66h.48c-.05.17-.22.23-.25.43-.12,1.14-.34,3.48-.21,4.82.03.32.44.74.41,1-.03.31-1.03,1.04-.08,1.45-.27.29-.6,1.07-.12,1.21l-.24.42.36.18c-.46.5-.38,1.04-.48,1.64h.36c.08.35-.3.68-.32.79-.05.32.52.95-.05,1.1.4.49.08.49.04.76-.07.47-.01.92-.03,1.36l.24-.12-.24,1.58.36-.12c.21.47-.24.64-.24.68,0,.18.2.44,0,.71l.24.12c-.15.3-.42,1.7-.36,1.93.04.15.41.13.37.38l-.37.49c.52.16-.06.66-.12.98-.07.35.12,1.28.36,1.57l-.07.18c-.33.03-.35.7-.37,1.03,0,.12.35.28-.12.51-.47-.37-.82.27-1.34-.21l-.12.24c-.24-.57-1.11-.51-.88-1.24.11-.34.42-.34.21-.85-.04-.09-.2-.1-.2-.12-.02-.04-.05-.83-.04-.87.02-.12.39,0,.25-.32h-.61c.28-.27.22-.58.32-.85.04-.12.29-.21.29-.42,0-.23-.35-.33-.36-.6s.49-.9.36-1.04c-.24-.24-.43.34-.48.24-.33-.62.47-1.3.37-1.74-.02-.09-.25-.08-.25-.13.01-.1.19-.31.21-.52.05-.46-.21-1.02.27-1.42l-.25-.12v-.24c.75-.35-.13-.91-.12-.97,0-.24.48-.6.01-.72l.11-.37-.37-.06.6-.6c-.77-.16.34-.97-.47-1.11l.35-1.56-.48-.06c.48-.31.19-.63.24-.96.04-.25.32-.41.25-.73-.02-.08-.21-.07-.22-.1-.19-.37.43-.71.44-.75,0-.04-.19-.69-.23-.82-.04-.12-.32-.06-.16-.57.05-.14.26-.28.25-.43,0-.21-.34-.61-.08-1.03l-.36-.06.48-.61-.49-.25.25-.72-.24-.06c-.09-.38.47-.69.06-.97-.17-.03-.35.27-.53.3-.89.19-2.53.08-3.35-.3l-.24.25-.67-.25v.49c-.28-.06-.63.09-.87.06s-.08-.27-.52-.3c-.59-.04-.91.43-1.1.44-.24.02-.76-.45-1.09-.46-.22,0-.15.23-.25.25-.17.03-1.66-.22-2.06-.22l-.1.22-.56-.11.12.24-.73-.24-.19.35c-.3.07-1-.4-1.24-.45s-.68.14-1-.03c.31.53-.33.08-.48.06-.24-.03-.49.1-.73-.06l-.2.61-.58-.11-.07-.38c-.46.19-.93.02-1.39.05-.28.02-.58.35-1.03.07.12.46-.96,1.52.12,1.09.1.49-.15.92-.48,1.27.41.19.53.59,0,.61l.23.07c-.21.46.07.31.12.44.12.32.28,1.27-.23,1.25l.33.42c.01.28-.36.33-.41.48-.21.76.75,1.26-.05,1.58l.48.48-.48.31c-.1.34.27.15.25.42-.02.33-.36.55-.24.9l.47.19-.47.48.43,1.1c-.56.67-.35.84-.31,1.57,0,.17-.14.36-.13.48,0,.07.2.05.22.13.04.16,0,.73-.1.91h.37s-.24,1.03-.24,1.03c0,.17.27-.24.25.12-.03.56-.33.53-.34.56-.02.06.11.22.07.37-.03.13-.18.24-.22.41-.07.32.15.25.23.39.27.48-.06.35-.08.44-.02.08-.16,1.6-.15,1.69s.2.07.22.13c.04.11-.13.64-.1.67h.27c.41.42-.4.47-.4.55l.48.19c-.02.86-.79,1.2-1.39,1.69-.24.19-.08.52-.69.33-.31-.09-.55-.51-.94-.46.29-.42-.26-1.23.24-1.39-.75-.74-.07-2.56-.15-3.25-.02-.17-.22-.33-.22-.62,0-.48.43-1.37-.12-1.58l.36-.36-.48-.06.47-2.12-.35-.19.38-.79-.26-.25.13-.35-.25-.19.24-.06c-.52-.38-.07-.63-.03-.89.04-.22-.07-.43-.01-.6.05-.15.27-.13.29-.23,0-.03-.01-.6-.03-.63-.04-.05-.23-.06-.28-.14-.17-.25.14-1.87.18-2.25.07-.8-.52-1.93-.18-2.72.11-.26.5-.45.29-.97l-.35-.07c.34-.64-.03-1.26.37-1.88l-.61.06c-.1-.5.42-.6.48-.76.23-.59-.24-1.07.12-1.42l-.6-.24.14-.41.47-.02c-.2-.24,0-.64-.02-.79-.01-.08-.33-.01-.1-.3h-.49c.72-.76.43-1.16.5-2.01.02-.2.2-.31.22-.48.02-.32-.36-.64-.37-.98,0-.22.21-.15.23-.24.15-.65-.34-.95-.35-1.34l.37-.36c-.33-.41-.13-1.18-.18-1.7-.02-.19-.2-.36-.2-.61s.21-.4.21-.48-.18-.19-.18-.34c0-.13.72-1.15.1-.81.06-.7-.36-1.96.24-2.37v-.18s-.23-.06-.23-.06c-.15-.78.27-1.68.3-2.31.01-.36-.44-.74-.31-1.31.02-.09.21-.08.22-.14.03-.09-.2-.58.02-.79h-.37s.14-.59.14-.59l.34-.02c.03-.36-.21-.7-.23-1.04-.01-.2.11-.4.1-.6-.02-.43-.16-1.67-.03-1.97.01-.03.4-.47.43-.49.1-.06.51.12.64.07.08-.03,0-.3.36-.22.05.01.04.19.12.21.45.17.57.32.69.38.1.04.56-.23.58.08.01.18-.38.3-.37.48.02.38.33.49.34.61.02.23-.44.94-.22,1.57l.37.14c0,.35-.24.65-.3.96-.12.61-.03,1.56-.05,2.19-.02.39-.06.77-.13,1.15l.24-.06c.14.26-.2.64-.2.73s.2.18.17.34c-.01.09-.17.18-.18.26,0,.12.52.58-.04.55v.12c.63.01,0,.7,0,.91,0,.06.18.05.24.16.13.24-.27,1.15-.25,1.66.02.55.52,1.17.01,1.33l.49.12c.06.36-.37,1.12-.36,1.33,0,.19.24.34.24.36,0,.1-.33.12-.36.26-.02.08.1.27.08.4-.05.33-.46.64.17.91-.07.07-.2.16-.21.26-.18,1.18-.07,2.53.17,3.76.03.15-.16.34.04.47.55-.27.92.38,1.16.39.32.01.65-.25,1.01-.09l.18-.6c.31-.02.92.56.97.58.23.07.55-.27.61.15.08-.62,1.57-.05,1.64-.12v-.49c.3.09.69.02.79.36l.18-.48c.21-.01.06.44.36.24.03-.02-.1-.36.5-.16.33.11.51.36.84.41-.1-.47.17-.29.32-.4.09-.06-.03-.25.16-.2l.44.61c.45-.37.73-.11,1.09-.13,1.01-.06,1.98-.58,2.9-.12.18-.65,1.3.13,1.57.13.04,0-.04-.26.58-.21.54.04,1.1,0,1.73.02.2,0,.66.33,1.01.03l.02-.34.73.12-.06.48c.39-.14.49-.51.06-.67.49-.36.56-1.36.24-1.7l.25-.42-.24-.06.36-.49-.48-.18c-.02-.26.48-.5.49-.56.02-.12-.2-.74-.26-.92-.03-.09-.2-.08-.23-.18-.1-.38.42-.83.43-1.07.01-.22-.22-.5-.27-.75-.1-.57.33-1.05.2-1.67l-.37-.07.49-1.21h-.48s.36-1.4.36-1.4l-.24-.06c-.15-.33.25-.19.24-.3l-.24-.12c.09-.42.48-.57.48-.61,0-.14-.3-.49-.33-.64-.01-.07-.11-1.36-.1-1.43.02-.14.26-.22.28-.36.04-.25-.35-.96-.21-1.33l.37-.19-.48-.12c.76-.63-.65-2.19.49-2.3l-.14-.84-.35-.19c.66-.28.35-1.01.43-1.16.26-.49,1.28-.22.78-1.09l.59.14Z"/><path d="M58.32,23.6s.05.18.13.19c.26.03.62-.22.85-.22.18,0,.28.19.46.2.13,0,.34-.15.41-.1.13.09.15.74.74.35l.14.48.57.03c.12.24.03.75.2.94.26.29.77.03.42.85.71-.07.48,1.11.67,1.7.15.49.62.87.74,1.32.16.61-.35.5-.19.73,0,.01.17-.03.24.09.28.49.07,1.49.13,1.65s.29.16.33.22c.03.04-.03.92-.09,1.07l.48-.12c.16.57-.14,1.02,0,1.63l.37.07-.23.17.42,1.1c.05.39-.32.41-.32.6,0,.44.59,1.56.5,1.93-.03.11-.45.02-.12.48.06.08.25.08.25.15,0,.18-.23.37-.25.6-.05.64.68,1.07.11,1.81l.26.13-.13.42h.36c.01.27-.14.52-.14.79,0,.22.2.17.23.24.13.38-.37.78.27.67l-.05.48-.43.12v.24s.25.08.25.08l.05,1.26h.43c-.07.33.01.72-.01,1.02-.01.16-.16.26-.17.44-.03.52.46.57.52.93s-.16.84.22,1.31l-.32.42h.49c.15.39-.55.83-.02.87l-.22.59.48.18c-.1.11-.34.35-.33.49.02.2.46.25-.03.35l.11.43.36-.06c-.09.39-.08.52-.47.72,0,.25.46.71.47.76.09.37-.08.9.03,1.28.09.31.51.39.56.51.09.23-.22.68-.22.85s.22.3.24.49c.07.62-.08,1.2.06,1.88.05.25.42.41.18.89l.25.14c-.44.44-.12,1.28.48,1.16-.31.85-.22,2.1,0,2.98l.49.05c.04.38-.43.61-.43.86,0,.32.36.42.47.72.07.19,0,.59.09.88.03.12.34.06.11.34,1.02-.09.02,1.24.12,1.33h.48s-.24.18-.24.18c.43.39-.13.97.36,1.09-.51.55.1,1.11-.11,1.81l-.37.07.12.36c-.36,0-1.02.52-1.34.31-.08-.05-.07-.23-.18-.28s-.73-.07-.9-.03c-.3-.63-.08-1.28-.13-1.93h-.36c.39-.86-.38-1.98-.35-2.74.01-.3.3-.48.29-.79-.03-.65-.54-.85-.55-.92-.03-.15.1-.35.06-.54-.07-.4-.61-.92-.18-1.5l-.18-.16-.3.11c-.11-.49.11-.44.36-.73-.55-.03-.28-.54-.39-.89-.05-.17-.3-.27-.32-.4-.03-.16.32-.57.09-.88h-.47c.17-.37.32-.68.16-1.08-.06-.15-.27-.14-.27-.2.01-.19.26-.69.21-.85-.04-.14-.28-.15-.32-.21-.02-.03.09-.2.03-.33s-.27-.29-.27-.43c0-.12.44-.53.3-.96l-.34-.07c-.23-.85.23-2.11-.26-2.84-.1-.15-.32-.18-.34-.21s.1-.25.1-.39c0-.16-.14-.36-.12-.48,0-.06.49-.15.33-.75-.04-.15-.26-.15-.28-.2-.21-.56,0-1.47-.46-2.04l-.13.38h-.41s0,.35,0,.35c-.51-.23-1.27-.4-1.82-.29-.31.07-.69.65-1.03-.08l-.31.61c-.86-.52-1.53-.08-2.41.01l-.07.47c-.08-.24-.62-.46-.86-.49-.25-.03-.14.25-.41.33-.48.14-1.48-.35-2.05-.06l-.02.34c-.76-.42-.57-.15-.94.12-.12.09-.46.21-.49.26-.1.17.02.52-.03.74-.02.09-.21.07-.23.16-.07.25-.07,1.29.35,1.31l-.24.42.36.06c-.16.33-.39,1.08-.72,1.16v.23s.24.18.24.18c-.4.39-.3.46-.39.95s-.2.65-.32,1.03c-.07.22.09.46.06.64-.09.52-.58.83-.43,1.37.01.05.44.23.24.69h-.48c-.15.49.01,1.05-.13,1.51-.1.31-.18.52-.27.82-.1.33-.28.69-.33,1.07l.48.18-.72.85.6.24c-.17.19-.11.51-.23.71-.07.12-.32.13-.35.27-.06.25.45.91-.26.78l.36.18c-.49.35-.2.95-.39,1.31-.09.18-.32.18-.35.29-.05.22.18.62.04.85s-.36.26-.38.3c-.04.06-.27,1.21-.31,1.42-.03.13.08.32.06.42-.03.13-.23.11-.29.21-.02.03-.08.49-.38.48-.13,0-.11-.4-.3-.36l-.06.36c-.85-.13-1.25-1.28-2-1.09-.22-.44.45-.82.47-.87.06-.17-.28-.28.14-.42-.12-.64-.23-.65.31-1.07l-.19-.54c.48-.03.22-.32.32-.58.06-.16.52-.22.21-.52l-.41-.06.24-.49.25.06c-.22-.42.47-.85-.12-1.03.51-.66.4-1.89.67-2.42.11-.21.34-.46.36-.66.03-.36-.23-.83-.12-1.12s.3-.23.39-.43c.08-.17.05-.5.15-.7l-.24.06c-.04-.46-.2-.83.35-.99-.13-.44.24-.85.42-1.32.09-.24.05-1.28.1-1.52.02-.07.18-.04.21-.14.02-.09-.09-.37.01-.53l.24.12c.03-.26-.2-.35-.18-.62.02-.38.45-.9.43-1.25,0-.08-.2-.08-.25-.16-.34-.57.58-1.04.03-1.14l-.02-.16c.74-.43.3-.43.38-.82.03-.12.22-.21.23-.39,0-.09-.18-.05-.2-.09-.09-.18.15-.3-.29-.28.07-.48.17-.58.61-.73-.08-.22-.35-.05-.36-.06-.04-.07.2-1.01-.49-.85v-.12c.34.03.1-.61.73-.37l.02-.94.58-.57-.24-.12c.35-.2.22-.81.6-.79-.46-.41,0-.57,0-.91,0-.14-.16-.27-.18-.37-.08-.6.13-.72.43-1.21l-.37-.42c.95-.21.45-.92.52-1.38.03-.21.51-.67.52-.99,0-.12-.23-.45-.15-.61.07-.14.25-.14.33-.26.02-.03.19-.66.19-.7-.02-.3-.58-.6-.08-1.23.1-.13.34-.15.36-.18s-.19-.47-.11-.76c.03-.1.23-.07.24-.08.03-.05-.34-.54-.18-1.15.06-.22.4-.32-.06-.3v-.12c.33.05.14-.17.2-.24.07-.09.27-.09.3-.2.03-.14-.14-.45-.07-.71.06-.24.52-.98.5-1.21-.01-.16-.19-.29-.17-.47s.54-1.09.56-1.37c.02-.22-.24-.39-.2-.57.03-.13.25-.23.29-.38.14-.51.09-1.48.2-1.92.04-.17.4-.39.52-.69.17-.4.22-1.44.41-1.73.13-.18.46-.2.57-.57.08-.29-.07-.51-.04-.59.06-.19.78-.32.95-.45.04-.04.46-.6.66-.78.39-.37.55-.26.55-.97.04-.03.24.13.31.17ZM59.48,27.17c-.09-.1.09-.57-.2-.71l-.91.49c.26.55-.49.42-.38,1.07h-.35c.49.67-.06.53-.25.83-.03.05-.22,1.04-.21,1.09.07.34.38.15.34.46-.11.28-.51.25-.59.32-.07.06.13,1.26-.32,1.19l.07.42-.25.13.48.67c-.06,0-.18-.01-.2.02-.15.25-.52,1.15-.59,1.43-.07.3-.02.71-.07,1.03l.37.12-.61.43.23.3-.34.36.48.24-.14.41-.47.02c0,.29-.03.58.05.86.07.24.31.24.31.28-.04.36-.45.62-.58.88s-.25.71-.34,1c-.06.2.2.4-.17.37l.23.3c-.69.47.09,1.03-.72,1.36l.25.94c-.84.36-.21,1.84-.27,2.07,0,.04-.33.19-.41.49-.05.18.08.61-.06.84l.37.12c-.4.29-.2.7-.32,1-.08.19-.26.1-.29.21-.04.19.35.38.46.4.49.1.53-.44.84-.44l1.07.34.12-.25c.39.53.92-.02,1.39-.13l-.12-.35c.48.02,1.31.75,1.46,0,.04-.03.3.23.52.21.97-.06,2.57-.56,3.41-.46.28.04.64.45.77.04.15-.44-.7-.78-.1-1.37-.36.08-.48-.58-.3-.59.14,0,.24.13.31-.14l-.48-.06c.34-.41-.11-.85-.12-1.23-.01-.3.21-.48.24-.73.04-.37-.21-.67,0-1.02h-.49c.15-.23,0-.53.07-.73.06-.18.4-.18.17-.52-.06-.08-.21-.09-.22-.1-.07-.18.12,0-.14-.43-.38-.62.55-.7,0-1.31-.46.2-.11-.4-.06-.79.01-.09.03-.76.01-.79-.1-.26-.4-.25-.43-.38-.05-.2.04-1.13.12-1.38h-.37c.16-.42.41-.59.36-1.09l-.48.12c.08-.14.02-.55.07-.61.08-.1.27-.09.29-.12.05-.06-.42-.97-.43-1.39,0-.08.17-.19.16-.24-.01-.2-.42-.28-.44-.32-.02-.03.18-.3.05-.59-.1-.23-.53-.33-.56-.45-.11-.5.46-1.3.13-1.86l-.36.12c-.14-.19-.02-.64-.07-.73-.05-.09-.58-.4-.61-.66-.03-.2.23-.51.11-.76-.15-.32-.45-.23-.5-.29Z"/><path d="M94,23.78l.07-.35h.42s0,.49,0,.49l1.01-.34c.54.33.69,1.06,1.41,1.08.06.76-.99,1.06-.6,1.81-.5-.06-.52.1-.85-.36v.49s-.79-.36-.79-.36l-.13.25c-.38-.09-1.49-.29-1.51.24l-.3-.24-.19.36c-.68-.48-.87-.21-1.52-.13-.28.03-.56-.02-.83.02-.32.05-.51.33-.91.12l.1.41c-.32.52-.63.07-1.07.07l.06.24-1.39.12v.47s-.73.13-.73.13l.12.24-.61.06c-.31.13-.1.41-.12.42-.11.06-.65-.05-.89.23s.21.59-.55.51l-.08.36-.78.11c.34.3.17.84-.3.6l.06.24-.36-.12.24.36c-.24-.02-.26.23-.44.33-.05.03-.22-.06-.29-.02-.22.12-.3.78-.47.97s-.45.15-.49.18c-.03.03.08.49-.13.78-.22.31-.67.48-.73.55-.23.27.3.18.24.36-.41.03-.04.52-.72.37-.11.28.09.44-.25.54-.1.35.37-.11.24.24-.23.59-.52.3-.61.36l-.11.14c.19.42-.13.57-.19.84-.07.31.19.82-.42.91l.24.24c-.5,0-.2.56-.33.82-.08.17-.34.21-.4.46-.06.3.27.07.24.29-.06-.01-.16,0-.19.04-.78,1.07-.61,1.54-.84,2.76-.05.24-.37.67-.27.9.05.12.45,0-.15.6.85.11.02.58-.06.89-.05.19.06.68.04.93-.04.47-.16,1.08-.21,1.58-.02.2-.13.97-.08,1.09.11.26.36.24.42.36.07.16-.19.65-.46.42v1.33s.24-.12.24-.12c.25.47-.29,1.08-.34,1.42-.02.14.28.38.1.64.16-.04.25-.25.25.06-.01.52-.49,1.06-.16,1.55l-.09,1.18h.49c.06.06-.26,1.05-.22,1.27,0,.04.49.3.42.67-.08.39-.69.47.28.85l-.33.54.57.67c-.22-.11-.4.64-.37.77.02.11.32.13.43.32.25.43.03,1.3.79,1.09-.33,1.2.28,2.01,1.33,2.43l-.12.35c.64.06.39.76.59,1.03.12.17.78-.08.63.68.33-.17.36.07.36.37l.24-.12c.03.9.91.87,1.55,1.17.46.22.11.17.81.35.5.13.88.49,1.01.54.53.19,1.23.13,1.73.36l-.12-.24c.4-.24.54.09.8.12.19.02.37-.07.55-.06.16.01.38.21.52.17s.14-.44.53-.33l.14.46c.36-.27.72-.15,1.14-.15l.07-.34c.81.28,1.38-.42,1.94-.65.47-.19,1.04-.23,1.55-.43.32-.13.67-.24.99-.38-.03-.25-.58-.19-.24-.42.49-.34,1.65-.06,1.99-1.04.16-.45-.05-1.08-.13-1.53-.03-.2.27-.44-.16-.41.38-.55-.24-.94.48-1.51l-.24-.24.36-.37-.06-.18c-.28-.02-.35-.41-.3-.64.02-.1.2-.1.23-.18.18-.45.19-.98-.11-1.36.41,0,.51-1.47,0-1.46v-.12c.33.11.4-.73.36-.89-.03-.11-.31-.05-.25-.26l.37-.61-.39-.4-.22.1c.03-.37.14-.96.61-.85-.22-.26-.25-1.84-.12-2.09.06-.11.26-.08.24-.15-.07-.33-.65-.53,0-1.09l-.25-.13-.72.07v.28c-.31.37-.46-.26-.56-.28-.35-.07-.7.47-1.2-.11l-.06.24c-.24-.05-.49.19-.67.19-.42.02-1.2-1.01-1.16-.07-.03.05-.84-.21-.93-.21-.34-.02-.5.07-1.09.02-.48-.04-1,.08-1.43.07-.33-.01-1.24-.56-1.16.25l-.18-.25c-.42.21-.95.37-.67-.24l-1.34-.17-.12-.44-.48.24c.29-.89-.74-.83-.52-1.54.15-.32,1.24-.75,1.61-.64v-.49c.28,0,.47.45.57.49.54.16.54-.24.57-.24.26.03.8.37.98.6l.29-.31.67.18.25-.48c.28.63,1.06.07,1.57.49l.06-.37.84.36.18-.36.48.25.12-.25c.26-.03.39.21.51.23.17.02.27-.23.44-.2.31.05.14.35.75-.15l.36.37.28-.02c.04-.44.64-.38.96-.26.16.06.14.4.58.25.06-.02.14-.37.54-.2v.36c.6-.54.52-.23,1.04-.18.2.02.97-.09,1.02-.05.02.02-.01.21.05.31.15.21.58.65.81.41.06.47-.23.7-.31,1.03-.06.23.33.89-.05,1.33l.37.06-.36.55.24.12-.36.91.24.06-.36.61.48.3c-.63.1-.32.66-.37.91-.27,1.26-.39,2.57-.36,3.89,0,.29.08,1.39.12,1.56.03.1.27.07.24.14-.07.24-.44.49-.48.86-.04.33.14.6.12.84-.03.34-.62.5.12.61.06.37-.36.59-.36.63-.07.51.16,1.07.12,1.42-.04.38-.49.62-.24,1.16l.48.06c-.2.37-.11.63-.6.43.3.47.05.91.2,1.44.08.28.31.23.27.41-.04.25-.3.5-.33.66-.03.19.14.42.08.49-.03.04-.22.05-.28.14-.14.21-.04.61-.4.71-.08.02-1.55-.25-1.62-.29-.18-.11-.29-.6-.73-.54.01-.23.53-.82.18-.95-.65-.02-.51.36-.67.52-.22.23-.84.28-.61.67-.58-.21-.84.39-1.12.58-.35.23-1.21.16-1.57.28-.15.05-.87.92-.82,0h-.24c.1.44-1.15.09-1.33.26v.35c-.07.08-.85-.19-.92-.19-.18,0-.66.3-.96.31-.42,0-1.05-.5-1.55-.57-.44-.06-.73.04-1.12.06-.29.02-.48-.31-.6.14-.27-.07-.43-.47-.5-.48-.15-.02-.48.17-.74.03-.16-.08-.15-.28-.23-.29-.23-.02-.48.24-.77.07-.23-.12-.15-.41-.72-.6-.85-.29-1.19-.44-1.98-1.12-.06-.05-.45.13-.34-.53-1.18.34-.66-1.56-1.45-1.33.12-.63-.25-.48-.44-.65s-.9-.73-.95-.81c-.2-.33-.03-.67-.13-.95-.11-.29-.54-.53-.55-.58-.06-.32.31-.46-.11-.6.14-.5.11-.92-.49-.78l.12-.73-.61.12.24-.79c-.34-.1-.12-.18-.17-.27-.03-.06-.31.07-.08-.39l-.22.1-.23-.41.33-.42c-.43.05-.05-.34-.15-.57-.02-.06-.46-.29-.46-.36-.01-.28.3-.34-.13-.48l.12-.36c-.33-.05-.29-.82-.23-1.06.03-.14.36-.16.36-.27,0-.06-.28-.32-.31-.48-.05-.39-.02-.41-.13-.87-.05-.19.25-.48-.29-.53l.49-.56c-.1-.2-.11-.59-.17-.74,0-.02-.26-.06-.3-.36-.06-.39.22-.49.23-.81.03-.69-.81-1.13.12-1.35.13-.46-.26-.84-.26-1.07,0-.11.49-.1.37-.49l-.47-.2.23-.71-.24-.12c.26.02.24,0,.15-.22.62-.18.15-.56.15-.81,0-.15.23-.4.17-.72-.04-.24-.24-.46-.23-.62,0-.21.25-.31.33-.5.1-.27-.08-.93.16-1.25l-.48-.06c.17-.2.16-.47.25-.7.32-.79.32-1.4.63-2.22.02-.06.17-.05.2-.15.24-.9-.33-1.33.25-2.49.06-.12.39-.02.14-.39l.23-.13-.09-.27c.25-.14.37-.95.47-1.27.06-.18.31-.19.4-.33.51-.75.25-1.07,1.15-1.89.58-.53.3-1,.43-1.26.1-.2.53-.3.61-.48.05-.11-.1-.33-.06-.37s.23.08.36-.09c.32-.39.03-.71.05-.76l.55-.25-.1-.22c.65-.11.55-.55.78-.86s.68-.68.87-1.02c.06-.1-.18-.51.38-.63.24-.05.67.24.52-.29l.72-.2v-.42c.67.14.79-.76,1.08-.9.13-.06.63.09.82-.1.27-.28.09-.81.94-.33.23-.79.98-.56,1.64-.85l-.12-.36.43-.09.29.34c-.07-1.45.44-.58.9-.6.97-.49,2.13-.42,3.19-.57l.16-.4c.27.14.54-.08.78-.07.37,0,.78.5,1.26.29Z"/><path d="M168.44,25.48l.72.13c-.46.9.6,1.43.13,2.37l.35.06-.48.56c.05.48.26,1.37.25,1.81-.01.34-.39.51-.11.89l.46.08-.11.37-.49.06c.16.57-.09,1.03-.12,1.51-.05.73.52,2.22.44,2.93-.04.33-.28.55-.2.95.04.21.43.52.35.73-.03.07-.21.04-.22.13-.05.56-.13.74-.22,1.24-.06.34.13.83.1,1.04-.02.09-.25.07-.25.15-.02.31.27,1.07.13,1.51l.48-.12-.11.47.23.07-.24.06v.24s.23.06.23.06c.01.04-.22.77-.26.83-.1.17-.34.21-.33.26.14.73-.02,1.33.12,1.93.02.09.24.08.25.15.05.33-.31.55-.34.74-.03.2.27.82.33,1.08l-.24.13c.07.4.15.89.08,1.3-.05.31-.56.62.29.69-.59.68-.17,1.01-.12,1.69h-.36c-.03.42.5,1.39.29,1.7-.05.08-.26.08-.29.2-.06.23.03.68.05.95.09,1.15.21,2.46.33,3.62.07.64.25,1.15,0,1.83.02.1.82.15.1.3l.22.18-.34,2,.37.06-.11.73c.64.27.16.73.14,1.1-.03.97.73,1.76.52,2.6-.11.42-.62.33.05.66l-.19.3c.45.19.27.42.55.54-.36.27-.59,1.17-.12,1.33-.19.54-.86.44-.48,1.03-.35.04-.56.09-.49.49-.68-.18-1.15-.48-1.66-.96l-.52.23c-.15-.3.19-.66.2-.79,0-.1-.2-.41-.21-.72-.02-.46.22-.8.25-1.1,0-.06-.24,0-.25-.23-.01-.28.16-.57.15-.85-.02-.34-.34-.61-.37-.98-.04-.46.38-1.08-.37-1.08.18-.3.04-.61.08-.89.11-.67.7-1.2-.45-1.11.2-.73.52-1.31.23-2.09-.08-.21-.77-.41.13-.7v-.23s-.24-.06-.24-.06l.24-.42c-.31-.02-.43-.24-.37-.54.02-.11.38,0,.25-.31l-.49-.06c.37-.07.11-.27.23-.46.08-.13.27-.09.34-.32.07-.27-.18-.88-.08-1.22h-.49c.06-.32.45-.54.55-.78.12-.3.02-1.88-.68-1.52.16-.36-.07-.82.09-1.18.06-.14.21-.14.27-.25.34-.68-.13-.46-.22-.7-.2-.55.19-.35.32-.44.25-.18.14-1.54-.32-1.62l.35-.9-.49-.19c.23-.3.39-.46.49-.85l-.23-.23.11-.31h-.37c.61-.73.56-1.44.47-2.35l-.35-.07.24-.67-.24-.12c.43-.32.38-1.11.3-1.58-.02-.13-.22-.24-.18-.3.01-.02.2.03.23-.06.04-.13-.05-.18.14-.61.01-.03-.36-.14-.35-.62l.23-.05v-.24s-.23,0-.23,0v-.18c.27.02.37-.83.33-.97-.02-.06-.28-.09-.28-.42,0-.18.17-.28.18-.44.05-.49-.32-.53-.34-.6-.05-.17.31-.78.23-1.21l-.37-.13.22-.12c-.07-.29.1-.86.39-.98l-.12-.36-.49-.06c.39-.35.1-1.2.17-1.39.12-.32.64-.5-.05-.85l.49-.51c-.03-.54-.56-.82-.13-1.32l-.25-.12c.36-.45.04-.77.37-1.21l-.37-.06c.03-.3.27-.61.24-.92-.02-.24-.22-.15-.24-.25-.05-.23.05-.92.36-.95l-.36-.24c.34-.29.19-.8.25-1.21.04-.23.27-.37.11-.67.41.24.44-.24.96-.26l.02-.47c.27.14.78.34.61.72Z"/></g></svg>