<?xml version="1.0" encoding="UTF-8"?><svg id="Layer_2" xmlns="http://www.w3.org/2000/svg" viewBox="0 0 289.48 107.99"><g id="black_bean_soup"><path d="M23.76,9.89c.69.25,1.12-.02,1.81.08.57.08,1.49.41,2.2.49.42.05.58-.35.85.3l.38-.26.35.66c.48.13.3-.35.72-.27.11.16.62.8.73.86.71.38.62.27,1.33.79.84.62,1.91.99,2.11,2.19l.39-.13.19,1.07h.47s-.12.6-.12.6l.26.14c.06.31-.28,3.18-.49,3.49-.12.18-.35.2-.45.35-.3.43,0,.7-.66,1.27-.69.61-1.83,1.14-2.59,1.73-.19.15-.48.61-.59.68-.04.02-.48.17-.76.32-.83.43-1.94.56-2.71.96-.15.08-.32.19-.36.36l2.05.2c.53.39,1.37.33,1.83.62.38.24.02.61.81.1l.2.53c.55-.38.79.34,1.12.66.73.71,1.16.87,2.01,1.37.39.23.97,1.53,1.47,1.56l.03.37.4-.13c.12.16.01.61.03.64.05.07.32.07.36.23.06.24-.14.1.08.5.32.58.5.39.58.49.11.14-.12.53-.11.72.02.32.55.84.12,1.38h.4s-.12.47-.12.47l.26.12c-.31,2.36-.68,3.76-2.2,5.67-.14.18-.18.55-.35.71-.14.12-.42.11-.47.19-.07.1.03.34-.05.47-.02.03-.51.5-.54.52-.35.26-1.19.12-.92.54-.3.38-.54.28-.76.38-.25.1-.43.48-.92.31l.13.53c-.27.05-.56-.09-.81-.06-.44.05-.92.16-.71.59-.15.27-.47-.07-.58.01-.44.34-.31.4-1.07.57-1.06.23-1.53.35-2.74.26-.37-.03-.77.34-.91-.18-.29.33-1.02.26-1.46.27-.55,0-1.4.18-2.08.1-.52-.06-.5-.5-.84.14-.36-.15-1.11-.02-1.12-.51l-.21.27c-.78-.34-1.55-.07-2.38-.14-.14-.01-1.33-.29-1.38-.34-.21-.18,0-.71-.53-.39l-.08.58c-.18.05-1.2-.07-1.4-.13-.1-.03-.1-.16-.16-.2-.1-.06-.27-.04-.31-.08-.17-.2-.41-1.64-.39-1.99.09-1.56.15-3.05.1-4.55-.04-1.31.24-3.08.13-4.21-.03-.27-.32-.36-.35-.52-.07-.38.32-.84.33-1.06,0-.24-.2-.43-.2-.66,0-.28.5-1.21-.04-1.31.55-1.28-.23-2.85.38-3.98-.56-.13.18-1.2-.4-1.32.15-.23.26-.53.27-.8.01-.52-.15-1.16-.25-1.45-.09-.27.68-1.28-.02-1.45.41-.32.13-.65.15-.94.28-3.05.03-6.31.5-9.4.05-.35-.08-.92.15-1.37.47.01.74.33,1.26.28.27-.03.42-.21.63-.24.85-.12,1.75-.13,2.44-.42.45-.19.82.02,1.28,0l.14-.41c.32-.05.62.13.93.14.87.03,2.41-.24,3.2.05ZM24.16,12.12c-.11-.06-2.09-.14-2.4-.17s-.56-.26-.87-.26v.4c-.25-.04-.54-.22-.78-.23-.51-.01-.7.35-1.07-.04.04.5-.43.1-.83.15-.36.04-.37.38-.43.38-.31,0-.55-.48-1.05-.41-.49.05-.11.54-.47.74l.27.13v.27c-.59.14,0,.38-.02.64-.05.52-.02.37-.02.79,0,.35-.28.84-.24,1.22l.14.26.26-.06.1.74c-.62.24-.15.84-.17,1.44,0,.13-.34,1.12-.31,1.19.52.15.06.38,0,.69-.06.36.25.61-.15.96l.53.07-.27.6-.4-.13c.53.8-.1.86-.14,1.02-.1.43.1,1.52.13,1.97.02.37-.33.72.14,1.04l-.39.33c.95,0,.13.57.13.62-.14.98.4,2.36-.12,3.42l.26.14v.25s-.26.32-.26.32l.23.02c.25.42-.21.52-.22.59-.11.6.29.61.35.84-.39.61-.17,1.05-.26,1.62-.06.37-.48.72-.21,1.15h.52c.03.29-.53.58-.54.62-.01.16.23.46.24.67.01.26-.26.44-.23.7.77,0,.64.71,0,.67.58,1.07.02,1.86.3,2.97.02.08.25.02.25.25,0,.33-.38.86-.24,1.1.02.04.19.02.24.1.03.23-.19.41-.25.66-.11.48.24.5.25.55.02.21-.19.47-.14.71.41.16.73-.24,1-.26.16-.02.3.11.4.12.04,0-.01-.38.62-.12.07.03.1.21.13.22.06.02.73.2.76.18.03-.02.03-.38.17-.5.53-.45,1.71.61,1.69-.43.93.89,2.08.37,3.11-.07l1.98.34-.06-.4c.2-.16,1.49.34,1.91.24.18-.05.24-.53.84-.61.45-.06.68.19,1.09.24v-.4c.26-.07.36.28.57.25.14-.02.46-.38.72-.47.42-.16,1.04,0,1.08-.04.02-.02,0-.33.19-.54.23-.24.54-.13.61-.19.04-.03.16-.54.45-.73.66-.45.58-.2,1.17-.88.11-.12.31-.15.42-.31.22-.32.85-2.29.95-2.75.13-.58.4-1.65-.23-1.94.62-.61-.11-.8-.27-1.09-.59-1.1-.4-1.5-1.6-2.35-.28-.2-.77-.02-.79-.73l-.39.07c-.13-.7-.54-.56-.91-.82-.47-.34-.97-1.06-1.53-.71l-.2-.27c-.12.7-.39.13-.83-.03-.33-.12-.79-.11-1.05-.24-.79-.39-.88-.99-2.19-1.16-.52-.06-1.86.17-2.2.11-.1-.02-.04-.27-.28-.28-.37-.02-.72.22-1.07.03l-.12.25c-.39-.49-.84-.1-1.18-.13-.09,0-.08-.26-.25-.32s-.45.08-.48.04c-.07-.08,0-.5-.42-.6.18-.8.56-1.12,1.37-1.21.31-.03.71.14.93.1.1-.02.07-.25.17-.26.55-.08.79.3,1.54-.14,1.06-.63,2.24-1.02,3.27-1.65.11-.07.3.1.38.05.06-.04.09-.35.29-.45.28-.14.65.01.94-.13.17-.08.19-.35.3-.43.36-.24,1.15-.43,1.51-.62.23-.12,1.23-1.35,1.58-1.65.38-.33.79-.61.96-1.17.08-.27-.08-.48-.06-.64.02-.17.35-.26.35-.52,0-.16-.2-.31-.22-.46-.02-.3.14-.54.03-.94-.07-.24-.27-.22-.31-.29-.08-.14.02-.38-.06-.47-.04-.05-.68-.24-.7-.28-.1-.18-.04-.44-.2-.61-.2-.21-.59-.12-.76-.23-.1-.07-.21-.42-.52-.61-.26-.16-.63-.05-.87-.17s-.26-.36-.45-.48c-.65-.42-1.4-.65-2.17-.68l-.06.26c-.47-.43-1.77-.82-2.38-.8-.08,0-.09.26-.14.27h-.27s-.05-.21-.1-.24Z"/><path d="M186.41,15.39l.26-.26c.19.68-.29.87.66.93l-.39.33.26.73.53-.13c-.3.78.06.74.3,1.23.34.7.41,1.03.57,1.7.05.22.64,1.85.72,1.91.09.07.27.06.4.06-.29.53.31,1.03.47,1.58.08.26.04,1.01.15,1.29.06.17.42.28.49.56.05.23-.08.43.04.77.06.16.48.37.53.47.32.68.34,2,1.37,2.08l-.09.23c.45.11-.17.79.09,1.22l.53-.26c.07.44.25.66-.26.86.3.1.34.61.44.7.08.07.3-.04.36.12s.06.53,0,.7h.39s-.13.67-.13.67l.66-.26s-.17.88-.13,1.09c.03.14.8.46.78,1.1l-.25.06v.26c.38-.03.84.32.8.72-.02.19-.24.32-.24.52,0,.29.34.34.37.44.04.19-.03.41.03.61.11.34.78.93.51,1.27l.63.3c-.09.42-.23,1.18.42,1.03-.38-.5.22-.67.25-.88.02-.15-.21-.28-.21-.38,0-.09.2-.21.21-.39.02-.36-.21-.16.05-.47.34-.41-.33,0-.57-.46.17-.18.47-.55.48-.79.03-.88-.02-1.77-.05-2.67-.01-.25.38-.31.03-.7-.1-.12-.31-.13-.32-.14-.03-.05.58-.98,0-.98.63-.47.13-.65.13-.93,0-.18.24-.32.26-.53.02-.14-.17-.96-.13-.98h.4c-.37-.43-.05-.8-.05-1.02.01-.66-.05-.61-.22-.93-.11-.21.02-1.27.09-1.46.07-.21.3-.15.31-.17.03-.05-.6-.6.14-.86-.6-.64.44-1.12-.51-1.54.16-.56-.11-.82.26-1.35.11-.15.33-.17.37-.3.09-.27-.08-1.22-.5-1.29l.11-1.05.27-.21h-.25c.18-.39.08-1.31.51-1.33l-.27-.21c-.15-.57.35-.74.39-.93.02-.13-.17-.26-.18-.38-.07-.9.48-1.44.06-2.24.18-.3.39-.06.66-.07v-.79s.66.4.66.4l.07-.53.95.57c.17.32.3.49.69.51-.06.52.37.91.02,1.44l.4.07c-.2.53-.72.33-.77.93l.51.19-.27.84.27.14c-.47.47-.14,1.52-.28,1.86-.05.12-.32.07-.37.39-.13.71.15,1.22.14,1.59,0,.05-.52.24-.27.86.7-.31.61,1.29,0,1.07.08.56.01,1.23.06,1.78.02.19.2.35.2.53,0,.24-.3.33-.35.59-.05.24.26.66.19,1.02-.04.18-.25.39-.23.43.01.02.19-.01.21.03.08.13-.14.63-.35.7l.53.13-.66,1.46.27.12c-.24.42-.35,1.36-.26,1.83.03.15.51.3.52.49l-.25.06c.24.41,0,.65-.41.75,0,.32.25.47.25.83,0,.42-.4,1.23-.39,1.46,0,.07.22.06.26.18.21.54-.1,1.46-.26,2.01h.4c-.34.81-.47,1.47-.53,2.31l.4.07v1.52c-.88.15-.1.37-.02.69.07.28-.25.69-.26,1.04,0,.17.71.48-.12,1.05l.02.19.24.02c-.31.19-.13.61-.15.64-.07.13-.59.19-.64.23-.2.17-.18.45-.3.54-.26.21-.65-.01-.49.83-.43.08-.75-.23-1.05-.48-.27-.23.03-.39-.67-.18.11-.42-.24-.64-.34-.92-.06-.16.09-.38.07-.39-.03-.04-.38-.04-.5-.17-.05-.06-.24-.62-.39-.86-.44-.69-.49-.76-.77-1.61-.06-.19-.05-.4-.05-.59l-.4-.08.26-.2-.41-.98-.51-.02.13-.4-.26.13c-.23-.45.13-.92.14-1.12,0-.06-.83-.6-.4-1l-.46.13c-.02-.22-.31-.43-.31-.46-.13-.61.54-1.89-.67-1.8-.1-.39-.19-.69.25-.84-.08-.13-.65-.77-.66-.82-.09-.51.05-.6-.36-1.2-.25-.36-.56-.16-.3-.69l-.53-.07c-.05-.27.24-.41.21-.6-.01-.06-.58-1.11-.63-1.15-.09-.08-.28,0-.35-.04-.08-.04-.12-1.56-.78-1.6l.1-.89c-.1-.02-.33.04-.38-.01-.23-.25.23-2.13-.94-1.71l.12-1c-.45-.13-.2-.77-.3-1.15-.13-.49-.68-1.05-.48-1.68l-.64.15c.04.36-.01.75.05,1.11.02.13.24.27.19.33-.04.04-.32-.1-.26.13l.66.13c-.39-.05-.13.21-.26.43-.07.13-.46.45-.53.69l.4.07c-.17.2.01.46,0,.58-.01.1-.24.06-.24.14,0,.35.28.83-.27,1.06l.39.54-.24.09c.06.31-.33.49-.16,1.04l.66-.13-.66,1.26.48.73c-.07.28-.55.56-.57.72s.35.78.31.99c-.05.22-.37.47-.35.79h.39c0,.37,0,.86-.39.99l.51.52c-.48.65-.02,1.11-.37,1.74l.26.12c-.52.19-.23.44-.53.8l.53.07c-.14.19-.03.47-.09.63-.08.21-.32.21-.38.3-.18.3.29.49-.19.6v.2c.93.22.36.66.32,1,0,.08.21.19.1.53-.06.2-.28.2-.28.25.01.15.18.36.18.58,0,.68-.18,1.12.21,1.8l-.55.56c-.1.5.49.55.41.77-.42.27-.36.65-.52,1.07l.25.12c-.28.36-.69.54-1.05.81-.17.12-.1.47-.52.29l-.92-1.13c-.12-.53-.03-1.64-.16-2.06-.07-.22-1.04.04,0-1.08l-.38-.08c.11-.27-.19-.53-.08-.79.15-.35.34-.3.42-.41.02-.03-.08-.14-.06-.21.02-.04.22-.03.22-.09-.02-.29-.51-.82-.26-1.26h-.4c.12-.35.34-.7.36-1.07.02-.32-.13-.7-.11-.83.01-.09.44-.19.41-.55l-.39.07c-.2-.47.09-.71.27-1.12-.81-.4-.13-.71.07-1.06.03-.05.31-1.01.31-1.06.02-.39-.46-.83-.48-1.22-.02-.33.6-.82-.17-.7-.01-.39.34-.71.4-1,.06-.35-.31-1.44.13-1.38-.4-.37-.06-.52-.05-.88,0-.18-.07-.88-.11-1.04-.03-.1-.25-.06-.23-.13.07-.34.44-.14.35-.9-.03-.27-.41-.31.05-.75-.69-.04.23-1.05.23-1.13,0-.12-.4-.27.04-.53-.45-.17-.41-.45-.26-.86l-.4-.07.24-.13-.05-.34.35-.2-.27-.53.26.07c.12-.35-.2-.22-.24-.33-.06-.16.09-.72.1-.93.01-.19-.12-.38-.11-.54,0-.29.28-.43.25-.72l-.4-.07c.25-.3.14-.7.66-.6l-.66-.13.53-.73-.39-.33.39-.48-.26-.38c.65-.36.05-1.2.12-1.85.05-.47.14-.74.17-1.31.02-.41.37-.79-.03-1.06l.39-.07-.13-.4c.06-.05.98.16,1.13.26.23.14.86,1.64.99,1.99Z"/><path d="M132.39,11.65l.09-.23c.49.49.84.21,1.19.28.26.05.7.33.98.32.26,0,.41-.2.59-.17.56.08,4.23,1.78,4.84,2.17.26.17.76.77.83.81.06.03.26-.15.45.01.16.15.14.41.22.51.06.06,1.16.93,1.33,1.06.11.08.32.02.35.04.04.04-.18.51.13.85.09.1.2-.05.24-.01.57.56.31,1.09.52,1.51.1.21.31.2.39.36.12.25-.12.78-.08,1.06.03.22.28.38.28.67,0,.4-.32.45-.39.69-.12.4.27.56-.63.82.17.37-.37.98-.72.67.18.72-.63.8-.83,1.23-.07.15.04.34.03.35-.08.09-.52.02-.66.07-.32.13-.55.45-.93.47l.26.39c-.59-.11-.92.1-1.4.32-.06.03-.09.2-.21.25-.24.09-.63.05-.77.15-.16.11-.1.44-.13.47-.04.04-.52-.13-.79-.07-.11.02-1.47.5-1.19.74l.85.14.14-.27c.3.52,1.23.52,1.44.67.3.21.05.5.6.26l.14.26.07-.39c.62.15.94.55,1.39.84.1.06.32,0,.45.09.21.16.15.43.35.39l.02-.24c.56-.12.47.66,1.19.43l.12.47.39-.13.06.54h.33c-.21.78.78.48.8,1.31l.26-.13.27,1.59.39-.13-.13.79h.4s-.4.86-.4.86c1.11.49.01,2.05.15,2.64.02.08.25.06.24.12-.02.24-.4.61-.49.84-.61,1.5-.57,1.49-1.68,2.55-.88.85-1.15,1.75-2.19,2.7-.2.18-.14.54-.53.33l.13.4c-.42.01-.98-.06-1.36.16-.49.28-.97,1.21-1.94,1.04l-.09.38c-.28.11-.66-.17-.89-.1-.16.04-.24.26-.36.32-.15.07-.32-.07-.37-.04-.05.03-.05.28-.24.35-.12.04-1.74.41-1.85.41-.54.02-1.44-.5-1.24.53l-.8-.05-.13-.47c-.05-.05-1,1.04-.79-.13l-.78.12c.07-.38-.54-.67-.55-.74-.02-.11.09-.31.09-.48-.02-.94-.06-.67.6-1.39.37-.03,1.28.22,1.56.04.1-.06.09-.33.2-.34.15-.01.42.21.65.21.05,0,.95-.12.99-.15.21-.12.28-.41.6-.46.3-.04.55.12.86.07.65-.09.48-.53.53-.6.04-.05,1.1.23,1.32,0l-.11-.24,1.38-.54.06-.41.33.11c.16-.43.73-.17.98-.58-.7-.8.76-.67.8-.74.05-.09-.06-.29.09-.4.12-.09.63.03.79-.25.13-.22-.14-.52.4-1.05.13-.13.33-.1.45-.23.32-.33-.14-.32-.14-.37.01-.37.44-.3.51-.35.04-.02.07-.74.13-.87.08-.18.67-.86.56-.97l-.4-.07c-.11-.52.23-.46.25-.53.02-.05.03-.96.03-1.06,0-.17-.61-.52-.41-.99-.21.23-.62-.18-.39-.39h-.4c.24-.56-.39-1.72-1.05-1.32l-.27-.6-.6.21-.2-.53-.53.13c.01-.81-1.04-.59-1.59-.73-.42-.1-.66-.18-1.13-.27-.54-.11-1.02-.49-1.65-.19.31.8-.69-.24-.75-.26-.07-.02-1.24,0-1.42,0-.09,0-.08.21-.17.27-.43.26-.51-.1-.86-.17-.8-.16-1.85.42-2.4.31-.14-.03-.12-.27-.22-.34-.14-.1-.43.15-.48-.13.08-.36-.09-.71-.06-1.07.02-.2.46-.28.28-.72.18-.01.36.1.54.06s1.94-.64,2.02-.71c.13-.09.08-.28.08-.41h.26s.13.26.13.26c0-.48,1.02-.34,1.37-.45.83-.25,1.67-.65,2.4-.94.66-.26,1.82-.89,2.35-1.04.25-.07.44.06.7-.07.37-.18.41-.64.86-.55l-.13-.26c.43.13.47-.17.79-.27l-.26-.26c.64-.07.97-.29,1.44-.69l-.12-.37c.78.02.7-.36.94-.82.05-.1.2-.09.24-.21.1-.3.2-1.25.15-1.55-.06-.32-.34-.27-.45-.5s.04-.58-.21-.92c-.21-.29-.82-.56-.87-.61-.64-.61-.77-1.07-1.67-1.52-.12-.06-.33.04-.39,0-.17-.13-.08-.51-.51-.68s-.16.44-.59.06c-.4-.35-.24-.84-1.27-.65l.13-.26c-.28,0-.84.02-1.08-.03-1.14-.23-1.58-.81-3.1-.88-.31-.01-.9-.06-.91.25-.47-.59-.79-.18-1.14-.2-.74-.04-.99,0-1.65,0-.13,0-.74-.31-.93-.29-.16.02-.26.31-.39.32-.06,0-.16-.19-.33-.17-.06,0-.6.23-.66.27-.28.18.23.34.26.67.12,1.04-.21,2.39-.2,3.49,0,.23.02,1.24.08,1.37.05.12.25.1.26.18,0,.06-.12,1.08-.13,1.15-.02.1-.26.07-.27.17,0,.04.03.78.04.87.08.61.69.56.09,1.35l.28.14-.13.39.26.12c-.74.56-.17,1.17-.18,1.46,0,.24-.49.58.18,1.06l-.39.2c.41.51.02,1.01,0,1.58h.4s-.26.26-.26.26h.4c-.61.86.1,1.54-.53,2.45l.4.07-.38,1.1c.5.41.69,1.04.11,1.48l.25.26c.02.44-.3.86-.37,1.2-.07.33.22.79.21.91-.02.16-.26.28-.29.53-.09.7.68.29.47.8-.07.16-.66.21-.38.85h.28c.41.35-.25.51-.28.55-.08.15.05,2.96.05,3.36,0,.57-.13.77-.15,1.19,0,.16.26.58.2.77-.03.11-.27.04-.28.28-.01.35.23.53.22.74-.01.31-.26,1.03-.35,1.37l.28.14c-.24.74-.74.02-.99.72-.77-.28-1.21-.89-1.66-1.52.26-.26.52-.42.5-.82l-.37-.37.39-.34v-.26s-.39-.2-.39-.2c-.02-.13.2-.28.2-.39.11-1.41.12-2.79.16-4.2.01-.38-.31-1.09.16-1.03l-.4-.27c.74-.53-.08-1.21-.14-1.79-.02-.24.22-.16.24-.25.18-.77-.03-1.96,0-2.79,0-.16-.09-.49-.09-.52.03-.12.38-.16.38-.26,0-.03-.2-.15-.22-.28-.12-.84.17-2.2.05-2.87s-.73-1.14.05-1.8l-.4-.2.4-.33c.05-.25-.2-.39-.23-.61-.14-1.14.13-2.55.03-3.61-.02-.21-.23-.37-.21-.59,0-.04.46-.35.4-.74h-.4c-.13-.25.3-.61.26-.66-.02-.02-.33.06-.36-.35-.03-.44.36-.46.36-.5-.02-.13-.22-.32-.21-.54,0-.14.17-.29.18-.43.09-1.08.06-2.2.08-3.13,0-.21.51-.55-.05-.93l.38-.26c-.07-.27-.28-.94-.22-1.18.04-.17.3-.17.38-.3.2-.31.02-.65.61-.67.43-.01.72.62.77.62.24-.32.64-.23.97-.35.57-.2.65-.18,1.29-.34.3-.07.77-.25,1.31-.24.19,0,1.32.2,1.4.14l-.13-.26,1.03.22Z"/><path d="M111.67,12.64c-.08.07-.08.3-.17.42-.26.33-.46.03-.32.74l-.6.06v.47s-.52.02-.52.02l-.41.71.4.13c-.34.26-.58.55-.86.86-.19.21-.5,0-.2.59l-.13.14c-.39-.14-.54.55-.75.84-.29.4-.7.78-.91,1.07-.52.7-.78,1.31-1.25,1.92-.97,1.24-1.82,2.45-2.52,3.81-.13.26-.17.47-.19.5-.03.06-.75.38-.94.79-.09.19.1.37.05.5-.03.07-1.02.83-1.17,1.05-.16.24-.18.61-.34.82-.31.41-.88.73-1.14,1.38-.08.19-.1.45-.12.66l.46.23.15-.28.22.03c.37.15.65.43.99.61.21.11.51.04.53.06.19.14.56,1.19,1.15,1.57.25.16.44-.03.46-.01.02.02.02.31.13.48.12.17.8.1.67.84l.24-.09c.03.33.31.15.55.09v.53s.4-.26.4-.26l-.13.4h.39s0,.33,0,.33c.84.04.5.33.64.56.09.15.23.14.29.27.08.17.01.49.17.66.2.21.88.14,1.16.03-.1.32.17.35.22.43.33.5.72,1.52,1.06,2.04.19.29.58.28.44.83l.53-.13c.03.56.51.83,0,1.32.07,0,.19,0,.22.05.24.39-.12.28.68.38-.05.37.25.52.27.59.1.31.38,1.65.34,1.96-.08.58-.26,1.1-.78,1.4-.6.33-.62-.13-.69-.14-.13-.02-.32.13-.45.07-.17-.08-.2-.38-.28-.44-.03-.02-.32-.18-.47-.26-.48-.27-.76-.03-.82-.68l.25-.14-.4-.09c-.03-.15-.33-1.19-.38-1.28-.1-.16-.38-.12-.55-.31-.49-.54-.24-1.79-1.18-1.63l.13-.53h-.53c.23-.79-.12-.63-.46-1.06l-.33.26c-.15-.32-.07-.77-.2-1.05-.15-.34-1.11-.66-.99-1.19l-.78-.02c.06-.67-.25-1.1-.94-.78-.2-.22,0-.75-.02-.78-.02-.03-.42-.16-.55-.28-.33-.3-.47-.93-1.02-.4,0-.13-.05-.23-.14-.32-.81-.75-2.32-1.35-3.4-1.64-.24-.06-.48.29-.43-.16h-.26c.06.43.1.97.09,1.4-.01.26-.19.63-.17.78.02.14.28.25.33.42.08.3-.43,1.01.15.97l-.26.13.26.19c-.17.48-.47,1.4.13,1.59l-.38,1.21.27.12c-.51.64-.09,1.16-.12,1.72-.02.33-.24.95-.32,1.25-.04.16-.14.52-.06.63.04.06.32-.03.23.23-.44.33-.55.72-1.14.98l-1.3-.64c-.13-.41-.15-.87-.37-1.25-.11-.18-.3-.21-.37-.32-.35-.55.17-.47.24-.58.03-.04-.01-.95-.02-1-.05-.27-.28-.48-.3-.7-.03-.26.5-.39-.19-.54l.26-.26-.26-.08c-.04-.22.22-1.19.35-1.38.08-.12.34-.09.31-.19-.02-.11-.25-.27-.26-.54-.02-.41.43-.66-.26-.59v-.57s.53-.34.53-.34c-.42.14-.56-.32-.44-.63.08-.21.47-.18.18-.82l-.53.13c-.08-.1.52-1.43.54-1.78.02-.31-.19-1.78-.28-2.1-.03-.11-.27-.09-.27-.16,0-.18.36-.79.4-1.05l-.39-.06v-.2c.39.05.42-1.32.39-1.44-.05-.16-.11.09-.2-.55-.04-.33-.24-.45.09-.91.24-.34.77-.28.25-.68l.26-.12c-.11-.69-.75-1.65,0-2.06l-.39-.21c-.08-.24.24-.53.26-.79.04-.52-.66-1.13.4-1.25l-.4-.13.27-1.78-.27-.14c.38-.33.56-1.11-.13-.99v-.2s.27-.13.27-.13l-.27-.13.5-.66c-.36-.35-.32-1.11.3-1-.1-.5-.54-1.26-.27-1.74.11-.19.34-.16.45-.49.1-.29.02-1.69.14-1.87.07-.1.29-.14.33-.21.1-.14.06-.29.09-.32.34-.4.79-.1,1.23-.26.11.1.22.92.28,1.09.04.13.26.1.26.17,0,.18-.21.66-.2,1.1,0,.41.31.85.33.9.13.47-.26.66-.27.9l.27.2-.4.27.4-.06c.19.3-.08.5-.09.76-.01.42.14.61.18.96.05.37-.31.67.18.79-.39.49-.56,1.14-.28,1.73l-.26.12c.18.68.15,2.75.07,3.58-.03.28-.26.5-.22.93.03.26.3.17.28.25-.03.12-.36.41-.35.53,0,.09.21.24.23.41.03.27-.22.41-.22.52,0,.07.23.32.23.66,0,.38-.21.58-.24.82-.05.46.19.83.19,1.11,0,.25-.5,1.85-.03,1.84l.33-.39-.4-.13c.44.03.42-.62.56-.76.29-.27.67-.3,1.2-.96.99-1.23,2.31-2.91,3.13-4.47.1-.2.4-1.01.46-1.09.12-.17.41-.13.6-.13v-.79s.53.26.53.26c.08-.58.49-.88.27-1.44,1.01-.1,1.01-1.75,2.11-1.73l-.21-.4c.33-.23.5-.57.74-.86.1-.13.31-.15.37-.22.02-.03.03-.47.16-.56.17-.13.52-.13.67-.4l-.27-.13c.17-.3.27-.5.66-.47v-.33s-.26-.2-.26-.2c.69.02.56-.22.79-.56.2-.28.61-.81.77-1.13.13-.26.02-.6.3-.87s.6-.25.86-.48c.16-.14.15-.66.53-.8l-.21-.4.53-.13.07.4c.22-.02.64-.82.8-.53.04.07.36.84.38.91.13.5-.25.81.47,1.15.02.08-.26.52-.34.59-.13.12-.27,0-.3.03Z"/><path d="M69.88,11.51c.14.1.3.07.47.26s.85,1.75.87,2.04c.13,1.71.68,3.56.97,5.38.05.33-.1,1.25-.05,1.56.02.16.29.24.31.39.02.17-.47.85.03.92l-.12.47h.4c-.15.26-.39.47-.36.81.03.38.36.4-.03.78l.4.2c-.35.58-.2,1.37-.19,2.07,0,.38-.09.86-.08.96,0,.08.21.06.24.13.08.2-.12.81-.12,1.07s.26.12.29.38c.09.65-.19,1.09-.23,1.62-.03.38.13.84.15,1.16.03.51-.23,1.14.33,1.33.02.11-.55.41-.38.91.03.1.21.08.23.11.08.17-.15.02.16.46.22.32-.17.44-.14.76,0,.07.24.06.27.16.1.39-.1.81-.08,1.15.03.6.42,1.12-.05,1.8h.4c-.45.61.13.83.14.88.07.73,0,2.11-.02,2.89-.01.66.11,2.01-.05,2.6-.07.27-.54.36-.47.78-.58-.43-1.46-.84-1.65.13-.16-.2-.47-.39-.58-.61-.16-.31-.21-.85-.33-1.08-.03-.05-.53-.02.05-.49l-.26-.07c.68-.73-.65-1.06,0-1.79l-.26-.06.28-.21c-.31-.45-.13-1.46-.32-1.73-.05-.07-.21-.03-.22-.04-.05-.09.22-.21.22-.33,0-.05-.23-.32-.24-.66-.02-.53.3-1.17.25-1.67-.03-.26-.21-.41-.22-.59-.05-.64.48-2.01-.4-1.91l.13-.53c-.26-.11-1.08-.21-1.19.07l.26.2c-.54.1-1.25-.29-1.76-.11-.22.08-.35.56-.68.64-.1.02-.03-.2-.13-.24-.22-.08-.65-.07-.66.24-.77-.79-1.28-.22-2.01-.04-.44.1-.34-.4-.7.64l.26.19c-.35-.06-.15.18-.21.27-.07.1-.29.1-.32.22-.06.24.14.54.1.75-.03.17-.31.34-.33.57-.04.34.18.48.04,1.22-.07.35-.77,3.84-.72,4.05.03.11.3-.06.17.39-.12.41-.17.86-.26,1.14-.17.55-.98,1.42-.46,1.97h-.79s-.07.4-.07.4l-1.18-.52c.12-.5-.38-1.17-.34-1.65,0-.05.35-.35.33-.89s-.32-.66-.32-.7c.02-.48.6-1,.7-1.56.03-.21.17-1.03.17-1.09,0-.08-.2-.23-.21-.4-.02-.31.03-.74.13-1.04l-.27-.2.53-.14c.12-.34-.38-.33-.41-.48-.04-.27.3-.65.37-.94.24-.96-.07-1.79-.05-2.61,0-.24.39-.52.46-.83.06-.26-.01-1.16.05-1.56.02-.1.37,0,.24-.32l-.53-.2.78-1.21-.25-.24c.51-.45-.15-1.25.67-1.33l-.11-1.76c.55-.18.09-.92.63-1.28l-.27-.25c.22-.41.16-.98.36-1.37.1-.19.29-.15.37-.42.1-.33-.08-.82-.01-1.07.1-.35.45-.37.54-.53.03-.05.3-.82.39-1.05.35-.86-.06-.79-.08-.88-.08-.36.42-1.05.8-1.11l-.39-.46.53-.33-.26-.33c.52-.31.63-.69.92-1.19l-.26-.2c.51-.05.5-.61.65-.83.3-.44,1.31-1.65,1.51-2.11.24-.56-.04-1.13.88-1.3l-.13-.38c.44.15.65-.3.89-.37.2-.06.44.01.63-.03.43-.1.46-.42,1.04-.1.15.08.17.25.27.32ZM68.91,13.54c-.53-.04-.48.3-.66.59-.21.33-.49.26-.27.86h-.4s.12.78.12.78c-.8.05-1.27.95-.65,1.4-.12.34-.58.52-.72.73-.15.23-.46,1.28-.53,1.51-.22.71-.44,1.42-.58,2.14-.08.37-.13,1.73-.22,1.9-.12.22-.58.31-.71.86-.08.36.42.08.39.25-.05.3-.31.43-.36.53-.05.1-.27.51-.29.56-.27.65.25,1.5-.54,1.81-.02.12.18.03.23.09.32.49-.4,2.19-.47,2.83-.16,1.52.44.63,1.43.97v-.4c.69.42,1.49-.06,2.25.13l-.13-.39c.27-.13.62.22.73.22.09,0,.23-.2.41-.22.21-.02.44.1.6.07.05-.01.9-.5.91-.55.03-.11-.02-.3.03-.47.22-.76.07-.29-.05-.96-.08-.49.04-.84-.01-1.28-.09-.88-.11-1.35-.13-2.15-.01-.69-.17-2.01-.07-2.63.02-.15.27-.27.22-.35,0-.01-.18.03-.27-.09-.38-.54.92-3.03-.26-3.35v-.13c.61.03.05-.45.05-.6,0-.1.28-.39.31-.68.04-.5-.39-1.1-.1-1.69-.75-.34-.06-.55-.05-.94.01-.31-.58-.99-.21-1.39Z"/><path d="M172.01,12.04c.08.05.28-.12.36.12v.52c.16.16.42-.08.52-.04.05.02.71.73.74.77.1.17.03.43.1.5.05.06.29-.03.38.1.5.67.3,1.72.86,2.42.27.34.86.28.32.87l.26.12-.12.47.39-.13c.26.51-.02.95.06,1.46.08.56.88,1.13.88,1.78-.01.08-.23.07-.25.1-.14.19.67,1.13.5,1.43l-.39.14c.83-.05.38.89.5,1.54.07.33.3.62.29.98l.26-.13c.15.21-.45,1.27.03,1.7.08.07.28,0,.36.03.04.02-.03.92-.05.99-.06.18-.26.24-.32.52-.12.56.45.97.45,1.25,0,.25-.26.28-.2.54l.66.07c-.17.11-.19.5-.29.57-.13.08-.41-.08-.36.16l.65.35-.25.52c.57.04.2,1.33.27,1.38h.4c.17.37-.4.87-.4.97.06.9.56,1.64.61,2.43.02.29-.3.32.31.31.14.53-.26.69-.27.74-.03.22.19.57.2.82.02.57-.38,1.97.47,1.87l-.27,1.12.4.08c.14.51-.36,1.32-.12,1.74.1.18.4.16.4.43,0,.25-.34.37-.38.55-.05.24.35,1.53.22,1.95-.06.19-.33.21-.44.35-.04.06.05.23.04.25-.09.07-.42.04-.57.14s-.12.99-.81.14l-.12.26c-.3,0-1.72-1.24-.99-1.39-.02-.35-.42-.91-.38-1.22s.23-.45.25-.63c.03-.3-.24-.5-.25-.78,0-.24.2-.58.11-.87l-.4.13.26-2.25h-.53s.39-.91.39-.91c-.89-.29.02-.54,0-.61-.14-.54-.49-.32-.51-.35-.06-.07-.28-1.62-.27-1.77.01-.2.23-.29.23-.61,0-.36-.09-.78-.5-.64l.27-.66c-.34.03-.64.03-.86-.27l.07.4c-.25-.19-.54.1-.59.09-.13-.01-.23-.25-.39-.3-.47-.13-1.13-.09-1.6.06-.56.18-.57.68-1.32.4l-.07.4-.86-.66-.27.4c-.29-.14-.77-.21-1.04-.02-.2.14.14.79-.74.14l-.13.26c.07-.3-.42-.27-.66-.39-.11.41-.14.85.39.86-.07.29-.47.72-.51.95-.1.72-.02,1.96-.22,2.68-.15.56-.63.55-.19,1.26l-.27.39.26.34h-.25s0,.19,0,.19c.62.44-.74.77-.01,1.33l-.53.2c-.18.41.39.51.39.59,0,.28-.32.47-.35.54-.09.22-.35.91-.39,1.09-.07.28.06.67.03.96l-1.14.19c-.31-.25-.27-.62-.39-.9-.03-.07-.21-.06-.26-.2-.31-.81.11-.84.13-.91s.14-.98.14-1.03c0-.07-.22-.08-.23-.1-.22-.84.43-.69.48-.98.03-.16-.27-.31-.24-.49.02-.1.2-.21.21-.32.04-.28-.23-.53.16-.76l-.27-.13c.49-.46.29-1.09.33-1.69.02-.39.19-.91.19-1.23,0-.37-.26-.67-.25-.92,0-.18.57-.76.39-1.25h-.3c-.38-.33.19-.45.26-.57.09-.13.19-1.72.14-1.79s-.3-.09-.36-.22c.11-.37.49-.26.39-.59h-.26c.71-.42.14-1.38.28-1.77.09-.26.52-.12.38-.48-.72-.07-.12-.99-.12-1.25,0-.08-.21-.06-.24-.13-.13-.33.8-1.5.1-1.72l.41-1.17-.4-.28.53-.47-.27-.2.27-.53-.39-.26.66-.93c-.94-.15-.03-.56.1-.82.24-.48-.07-.7-.06-.77.01-.13.24-.21.29-.34.38-1.01.73-2.11.48-3.24.41-.24.3-.91.77-1.32.08-.23-.19-.17-.22-.22-.17-.3-.02-.71.35-.5.12-.39-.31-.16-.26-.45s.61-.51.8-1.06c.13-.38-.15-.98.52-.87l-.53-.26c.29.02.28,0,.14-.25l.92-.61-.26-.13c.25-.3.64-.5,1.03-.56.41-.07,1.58.29,1.62-.3h.13c0,.06-.01.2.03.22ZM171.85,15.79c-.24-.2-1.07.13-1.16.29-.12.21-.11.74.23.64.01.2-.28.16-.47.4-.2.26-.05.86-.46,1.12l.4.07c-.11.41-.08.95-.46,1.2-.15.1-.32-.02-.32,0-.04.07.01.29-.04.42-.17.37-.46.59-.36,1.07.02.09.2.1.25.2.3.55-.32.68-.44,1.08-.05.17.1.36-.01.53-.06.09-.26.08-.31.2-.04.08-.13,1.17-.11,1.32.02.21.24.41.22.52-.03.13-.5.19-.5.56,0,.17.18.27.17.45,0,.31-.3.73-.21,1.09.03.11.29.07.27.15-.09.29-.59,1.04-.61,1.46-.01.2.35.42.35.66,0,.21-.29.41-.35.68-.14.58.29,1.59-.31,2.03l.46.27.13-.26c.11.18.6.31.77.27.23-.06.05-.58.65-.25.1.05.1.21.21.24.49.16.9-.09,1.35,0l.14-.52c.48.39.56.04,1.06,0l.13.4.19-.51c.38.1,1.24.44,1.33-.03l.72.27-.13-.39.66-.13-.38-.72.37-.27-.66-.2.26-.26-.27-.08.28-1.77h-.4c-.06-.22.2-.08.24-.19.14-.49-.33-1.1-.11-1.58l-.25-.14.12-.47h-.4c.12-.44-.09-.48.38-.74l-.12-.59-.26.13c-.27-.39.15-.88.13-.92-.02-.03-.41.08-.26-.45.04-.14.32-.15.4-.29-.98-.62-.56-.97-.72-1.66-.07-.3-.5-.78-.54-1.05-.02-.1.08-.97,0-1.2-.1-.27-.62-.45-.32-1.05l-.53.13v-.44s.26-.21.26-.21l-.24-.02.11-.24c-.62,0-.54-.52-.92-.87l.39-.33Z"/><path d="M42.15,50.48c.79.35,1.09-.01,1.95.23.27-.66.8.12.34.52l.51.02.15.9.4-.13v.92c.77-.13.86,1.22,1.08,1.43.02.02.18-.06.24-.02.45.25.16.7.29.95.03.05.74.59.86.72l-.36.97.26.12-.12.47.52.21-.12,1.77.53-.26c.09.5-.1.71-.39,1.06.68.04.05.78.52.85-.28.52.25.93.01,1.53l.26-.13c.11.42.35.57-.25.53-.09.94-.15,1.9.02,2.84.01.06.22.05.24.15.06.42-.34.98-.19,1.39.14.38.49.12.22.74-.18.41-.51.28-.02.76-.1.47-.4,1.6-.38,2.01.01.27.34.46.32.63,0,.12-.28.25-.23.33.02.03.48.02.14.57-.11.18-.73.89-.78,1.11-.05.21.14.52.13.77,0,.24-.26.17-.28.28-.03.16.15.42.02.63l-.39.09c.15.58-.48.67-.66.99-.1.17-.64,1.14-.66,1.21-.05.25.25.35-.19.65-.04.03-.16-.06-.19-.04-.43.37-.47.97-.74,1.44-.04.07-.3.47-.32.49-.35.42-.44.33-.97.4l.12.25c-.39.3-.77.12-1.08.18-.29.05-.63.49-1.11.11l-.07.22-.3-.1c-.53.76-1.09-.02-1.5-.11-.25-.06-.6.09-.9-.14-.13-.1-.15-.39-.28-.42-.4-.07-1,.41-.7-.65l-.19.1-.1-.18c-.39.18-.15-.12-.36-.39-.12-.15-.3-.34-.45-.54-.6-.75-.84-.61-1.25-1.87-.02-.06-.1-.81-.2-.93-.55-.7-.15-.3-.26-.87-.03-.16-.31-.26-.35-.44-.07-.29-.01-1.43-.15-1.66-.05-.08-.24-.07-.27-.19-.05-.23.17-.71.02-1.04s-.58-.36-.49-.92c.03-.17.28-.23.2-.46l-.26.07.13-1.12-.4-.08c-.13-.64.31-.49.27-.99h-.66c-.06-.24.23-.09.26-.13.04-.06-.17-.21-.2-.33-.13-.56.48-.55.47-.67,0-.18-.21-.36-.25-.55-.06-.34.34-.53-.29-.76l.66-1.06-.27-.15c0-.24.19-.86.11-1.05-.06-.13-.46.08,0-.63l-.24-.29.52-.4c-.53-.09-.29-1.12.13-1.13l-.26-.19c.19-.22.17-.52.27-.77.06-.15.44-.02.12-.55l.28-.15c-.15-.36-.01-1.12.07-1.52.06-.28.5-.38.53-.78.02-.35-.26-.46-.21-.8l.52-.21c-.02-.17-.13-.34-.11-.52.07-.59.99-1.25,1.03-1.88.01-.18-.25-.29-.19-.44.24-.57,1.87-.73,1.4-1.59.37,0,1.03-.13,1.35-.27.15-.07.15-.26.33-.36.4-.21,1.24-.16.96-.83.54.24,1.38-.15,1.82.04ZM42.64,53.15c-.24-.43-.4-.56-.79-.87l-.07.39-.79-.12.13.52c-.34.06-.65.27-.91.48-.37.3-1.18,1.32-1.51,1.72-.1.12-.29.14-.36.25l.4.33-.53.33.4.07-.4.46.26.2c-.28-.04-.26.15-.28.38l-.52.02c.05.38.25,1.15.2,1.48-.05.28-.83.57-.59,1.17l.53.07c-.12.31-.49.53-.61.79-.06.13.08.61.06.66-.03.08-.22.08-.25.16-.26.7-.63,2.16-.59,2.88.02.31.26.49.28.66,0,.1-.28.85-.28.93,0,.04.09.74.1.78.08.27.5-.06.45.42-.03.25-.33.38-.32.64.02.54.45,1.75.53,2.38.05.38-.06.87,0,1.18.11.5.95.6.25,1.35.11.37.49.17.51.2.03.05-.08.21-.06.33.09.56-.05.34-.07.66-.02.26.17.57.13.86.25-.12.51-.03.65.22l-.26.57c.47-.1.21,1.01.4,1.19l.39-.26v.92s.52-.12.52-.12l.17.63c.23.01.39,0,.38.27h.26s-.07-.39-.07-.39c.53.2,1.75.71,2.14.23.03-.04-.09-.24.03-.3.44.1.9-.77,1.05-1.1.09-.19.15-.77.18-.8.03-.02.52-.19.63-.29l-.26-.26c.35.07.21-.27.28-.37.02-.03.29.13.38-.09l-.39-.26,1.06-1.19-.39-.26.65-.34-.02-.63-.23-.15c.52-.04.47-.48.28-.87l.38-.39c-.53-.12-.07-1.02-.16-1.45-.01-.05-.2-.05-.27-.48-.12-.7.29-1.18.17-1.9-.06-.33-.42-.5-.12-1l-.4-.07c.4-.09.12-.29.3-.57l.38-.09c-.21-.34.1-1.08.09-1.19-.01-.15-.37-.26-.36-.53,0-.16.2-.29.21-.4.02-.17-.18-.36-.16-.53.01-.15.29-.22.21-.46l-.4.13c-.33-.5.22-.7.23-.86,0-.07-.54-.78-.58-1.26-.02-.26.13-.56.08-.85-.04-.21-.27-.37-.26-.54s.25-.31.21-.47c-.04-.15-.33-.84-.47-.85l.26-.6h-.53c.02-.45-.4-1.54-.66-1.89-.11-.15-.3-.06-.36-.12-.11-.1-.07-.54-.37-.78-.18-.14-.37.22-.44-.45-.04-.37.14-.11-.1-.52Z"/><path d="M57.12,51.1l.14.53.39-.13.14.45-.27.14.51.41-.1.84h.39c-.03.22-.49.43-.49.6,0,.07.17.17.17.26,0,.09-.16.19-.15.26.02.27.24,1.11.28,1.46.03.27-.29.65.2.6l-.26.26c.83.22-.13.73-.11,1.27,0,.06.2.06.24.16.1.26.14,1.02-.26.96l.26.13c-.4.28-.08,1.36.4,1.19.03.4-.58.71-.6.91-.02.15.14.24.15.34,0,.22-.28.27.11.81.09.12.44-.06-.05.38.47.11-.03.63.27.99h-.4s0,.53,0,.53l.4-.13.12.6-.26.14c.04.3.01.87.4.84v.13c-.36-.06-.16.52-.53.79l.27.08-.14,1.3.27-.07c.13.35-.23.22-.26.35-.18.79.28.48.48.7-.04.6-.02.92.19,1.5.05.12.4,0,.13.66-.03.07-.39.22-.27.62h.53s-.4.66-.4.66l.25.06c-.42.6.23.67.28.83.13.51.06,1.8.79,1.76,0,.4-.06.75-.53.66l.53.92.26-.13c-.04.66.46.96,1.06.79l-.11.24,2.14.55c.23-.37.63-.33.97-.7.03-.03-.09-.18-.06-.21.14-.17.72-.22.51-.68h.39s0-.41,0-.41l-.26-.06c.18-.26.56-.34.7-.64.03-.07-.14-.91-.01-1.32.06-.2.3-.32.4-.53.26-.55.09-.99.18-1.69l-.34-.38.66-.4-.66-.53.24-.06c-.22-.38.08-.96.55-.87-.55-.65.09-1.1.1-1.25.01-.17-.32-1.34-.36-1.59-.01-.07,1-.77.26-1.2l.11-.25-.38-.4.4-.53-.41-.28c.3-.51.17-.68.17-1.15,0-.32.23-.45-.15-.55.01-.42.55-1.54.62-2.02.04-.3-.64-1,.16-1.29-.16-.33-.51,0-.66-.07.16-.22-.12-.41-.11-.57.03-.3.52-.79.49-1.47-.03-.62-.5-.75-.5-.8,0-.6.44-.42.52-.47.06-.04-.26-1.27-.23-1.51.05-.44.73-.55.26-.94l.63-.4-.66-.26.33-.46.6.53-.13-.38c.81-.48,1.32-.38,1.8.42.01.02.17.3.18.32.06.29.18,2.02.11,2.21-.08.21-.41.19-.37.28,1.25.75.36.79.26,1.09-.25.78.22,1.45.22,1.95,0,.26-.25.42-.3.66-.13.76.16,1.79.08,2.58h.4s-.14.33-.14.33l.27.14-.63.93c.02.14.35.25.36.52.01.38-.53.56,0,.66-.69.45-.11,1.23-.15,1.69-.06.57-.66.8.02,1.63-.52.42-.42,1.21-.38,1.85.02.39-.29.62.12.99l-.4.2c.45.15.41.73-.13.6.05.28.14.85.1,1.1-.05.35-.86.76-.23.96l-.27.8c.51.1-.14.66.39.78-.08.23-.47.45-.53.56-.32.54-.43,1.21-.6,1.78-.44,1.42-.57,1.31-1.52,2.3-.1.11-.19.82-.78.73l.13.26-.91.15v.52s-.21-.27-.21-.27l-.14.28c-.27-.14-1.31-.34-1.56-.27-.1.03-.07.25-.17.26-.68.11-1.14-.32-1.7-.54l-.33.28c.01-.1-.01-.2-.1-.26-.56-.4-1.11-.49-1.63-1.01-.12-.12-.2-.51-.29-.56-.07-.04-.26.09-.37.05-.34-.14-.28-1.68-1.19-1.39.39-.8.06-1.23-.29-1.97l-.64.12c-.04-.27.25-1.27.23-1.36-.02-.11-.2-.25-.23-.43-.08-.46.03-1.31-.67-1.25l.4-.73c-.47-.17-.31-.45-.27-.86l-.39.13c-.05-.77.6-1.26.2-2.06-.08-.15-.26-.16-.33-.3-.36-.7.22-.6.27-.78.16-.63-.5-1.34-.51-1.43,0-.13.26-.35.3-.53.02-.08.06-.8.04-.84-.05-.07-.6-.18-.35-.53.04-.06.3.08.24-.15l-.28-.08c.39-.81-.44-.81-.09-1.67.1-.25.42-.36.36-.69-.17-.34-.45.03-.66-.13l.24-.08c-.21-.46.12-.46.42-.71l-.24-.08.11-.3c-.24.04-.27-.59-.24-.67.02-.06.41-.18.39-.52,0-.05-.49-.11-.28-.91.05-.17.38-.14.4-.35-.06,0-.2.01-.22-.03-.08-.13-.06-.58-.07-.61-.01-.03-.17-.02-.19-.05-.18-.3.3-1.17.49-1.49-.56-.15-.06-1.22-.05-1.58.01-.4-.26-1.92-.17-2.23.14-.46.54-1.11.63-1.66l1.16-.15Z"/><path d="M21.49,49.96c.13.08.47.58.59-.04h.19c.25.85,1.36.67,2.07.95.53.21.88.36.91,1.02l.39-.13c-.09.46.25.66.42,1.04l.24-.11c-.18.51.4.83.41.88.04.28-.46.76.25.84l-.24.51.25.09c-.17.54-.56,1.19-1.18,1.11-.02-.3-.4-.88-.67-.66l-.15-.32.27-.19c-.43-.1-.56-.92-.87-1.32-.15-.19-.88-.42-1.11-.28l-.14-.65-.46.23c-.4-.53-.73-.4-1.31-.51-.46-.08-1.11-.27-1.59-.26-.05,0-.25.5-.86.28v.52s-.79-.12-.79-.12c-.19.7-.38.38-.73.39-.09,0-.09.22-.18.25-.3.1-.78.13-1.02.26-.08.05.04.21-.12.41-.37.44-.97.31-.88,1.06l.4.07c-.11.45-.51.38-.64.48-.01.01.07.2.01.34-.26.66-.12.47-.16,1.16-.06.83-.27,1.53,0,2.52.06.23.3.46.36.73.05.22-.08.49-.07.52.03.06,1.02.59,1.1.9.84-.34.87.51,1.08.57s.42-.19.71-.07.32.6.66.68c.25.07.48-.05.6-.02.2.04.31.26.52.28.88.08,1.43-.07,2.34.33.43.19.71,1.02,1.1.13l.46.27-.26.52c.35.12.23-.18.29-.23.03-.02.5.06.64-.04l-.14.26h.39c-.17,1.07,1.39.26,1.21,1.46.28-.14.58.17.53-.26h.13c.13.44.52.31.27.93l.26-.13.27.92.26-.13c.1.57.37,1.92,1.06,1.19l-.13.66.4-.13-.26.86.39.07c.12.35-.01.92.04,1.22.1.57.4,1.52.57,1.99s.27.47-.2.7c.06.16,1.15.18.12.81l.36.91c0,.34-.41.41-.45.53-.05.13.1.65.07.71-.01.02-.21.03-.24.12-.09.22-.21.67.14.57v.13c-.32.1-.36.4-.79.27l.1.24-.63.56.4.27c-.18,1.16-1.38.6-1.39,1.59-.45.02-.28.07-.46.46l-.67-.08.13.53h-.39s0,.34,0,.34c-.93.1-1.68.22-2.53.52v.33s-.84-.27-.84-.27c-.21.56-1.11.53-1-.12-.3.27-.69.01-.87.04-.16.02-.07.33-.39.37-.46.06-.39-.39-.53-.41-.04,0-.43.32-.66.33-.46.03-.76-.38-1.13-.42-.27-.03-.47.27-.85.22-.46-.06-.88-.8-1.4-.8l.13-.39s-.22.12-.35.13c-.8.04-.25-1.15-1.07-.68l-.3-.18.26-.59c-.27-.29-.76-.1-.79-.13-.1-.1-.03-1.09-.12-1.4-.07-.23-.26-.2-.26-.25-.01-.93.6-1.41,1.49-1.51.29.14.81,1.38.88,1.43.03.02.2-.1.3-.08.62.15-.3.92.75.89l.07-.4.45.28-.12.38c.48-.16,1.11-.01,1.51.27.08.06.17.67.4,0,.35.12.5.19.67.52l.07-.4c.17-.18,1.39,1.08,1.59-.13l.59.4c.31-.73.77-.01.82,0,.68.17,2.14-1.05,2.82-1.06-.41-.62.46-.93.58-1.18.06-.11-.07-.31,0-.4.17-.23.95-.17.73-.92l-.39-.07c.46-.71.2-1.65.53-2.45h-.53c-.08-.42.38-.68.38-.72-.02-.42-.27-1.39-.78-1.27.17-.32.33-.73.13-1.08-.08-.14-.28-.15-.36-.33-.65-1.36-.57-1.14-1.62-2.08-.38-.34-.67-1.14-.85-.47-.68-.17-.43-.87-.46-.92-.06-.07-1.47-.27-1.8-.39-.26-.09-.4-.37-.66-.41-.44-.07-.76.25-1.19-.26l-.26.39c-.34-.28-1.13-1.38-1.47-.66-.47.12-.41-.2-.55-.25-.72-.3-1.07-.5-1.76-.86-.42-.22-.99-.09-.92-.74l-.39.14c.08-.91-.95-1.28-1.2-1.91-.1-.24.03-.46-.07-.7-.11-.26-.62-.17-.05-.96l-.5-.19c-.06-.81,1.04-1.49-.17-1.66.53-.53.59-1.05.92-1.65l-.39-.2v-.19c.6-.16.36-.97.52-1.29.08-.15.32-.15.37-.31.04-.14-.12-.5-.06-.66.11-.24.84-.4.22-.92l1.6-1.18-.02-.47,1.85-.27-.26-.26,2.5-.91.08.25.15-.27c.8.24,1.79-.41,2.38-.07Z"/><path d="M83.78,52.36c.13.12.3.19.42.32l.14-.27.3.11.02-.24.99.4.13-.27h.27s.2.53.2.53l.2-.4c.36.35.92.33,1.31.54.3.17,1.21,1.16,1.41.38h.13c.27.29.13.72.2.92.15.4.82.61.73,1.07l.46-.26c.22.16.2.51.39.68.17.15.4-.03.54.1.27.29.04.59.13.8.12.26.47.4.35.92l.35.03c-.16.4.52,1.03.52,1.1s-.21.19-.2.37c0,.22.3.59.24.88l.53-.13c.09.39-.39.71-.4.75-.05.28.07,1.26,0,1.54-.03.12-.25.05-.27.15v.2s.53.26.53.26c-.46.06-.28.61-.79.27v.4s.39-.07.39-.07c-.17.69-.69.91-1.06,1.46l.53.13c-.19.5-.83.48-.99,1-.12.38.37.57-.32.53.11.24-.09.44.26.39v.13c-.55.11-.66.8-1.32.66l.13.39c-.72-.17-.78.57-1.32.53l.13.4-1.72.4.26.53c-.63.18-1.11-.05-1.72-.13v.53c-.04.05-.86-.37-1-.39-.5-.08-.78.26-1.03.23-.17-.02-.36-.25-.54-.25-.12,0-.11.54-.53.4-.16-.05-.38-.75-.48-.95-.08-.15-.34-.05-.12-.37-.61-.14-.4.56-.9.68l.11,1.37c-.66.68.14,1.48.3,2.04.08.28-.25.48.22.59l-.53.66.51.52c-.13.35-.07.55-.52.47.29.23.13.68.17.77.01.03.41.19.44.49.05.25-.3.33-.31.35-.02.05.09.84-.03,1.04l.26-.13c-.11.18,0,.5-.03.6-.02.09-.2.06-.22.15-.09.34.31,1.09.22,1.43-.07.28-.8.25-.26.66-.33.46-.51,1.27-1.03,1.59-.27.17-.6-.34-.72.46l-.45-.34.11-.45-.57-.16c-.06-.16-.39-1.9-.37-2,.04-.14.31-.04.27-.15l-.66-.33.25-.14c-.32-.56.71-1.64.02-1.91.26-.07.51-.97.5-1.16-.02-.44-.58-.7-.1-1.28h-.4c-.2-.4.34-.71.36-.86,0-.05-.36-.86-.41-.99-.07-.21.2-.34-.22-.46.24-.34.41-1.31.26-1.68-.27-.66-.1-.32-.14-.96-.03-.47-.55-1.1.42-1.33.06-.54-.58-1.84-.37-2.25.17-.33.63.04.01-.79.4-.63.76-.86-.04-1.32l.66-.4c-.76-.58-.1-1.45-.12-1.84,0-.08-.22-.06-.25-.14-.04-.09-.04-1.87-.03-1.99.02-.24.24-.17.27-.28.13-.42-.34-.56-.37-.64-.03-.07,0-1.33.04-1.39.06-.09.23-.12.34-.13-.72-.61-.08-1.06-.06-1.52,0-.14-.17-.27-.14-.47.02-.18.39-1.14.34-1.18l-.4-.07,1.26-1.38c.73.36,1.34-.26,2.04-.01v-.53c.31-.02.61.07.92.09.36.03.62-.36.54.31l.26-.53c.2-.05.09.13.18.21ZM83.6,55.32l-.26.53c-.61-.23-1.18-.43-1.85-.4v.53c.56-.26.56.18.44.63-.17.62-.71.96-.18,1.61l-.25.07.27.6.27-.06c-.42.98-.4,1.76-.54,2.76l.27.14c-.32.32-.27.61-.13.99l.26-.13c.3.54-.34.74-.4,1.13-.05.37.25.82.22,1.06-.03.21-.42.26-.28.86.12.5.41.47.44.6.12.49-.77,1.16-.51,1.78l.53.07-.4.46c.14.12.99-.49,1.04-.55.02-.03-.11-.19-.09-.22.15-.21.67-.09.38-.82l.53.05.26.47.14-.66.6.25.46-.38-.07.27c.37-.22.47,0,.79.13l-.2-.4h1.62c.23-.06.66-.91.79-1.02.15-.13.95-.34,1.02-.45.05-.08-.13-.27-.1-.36.03-.07.52-1.12.57-1.22.04-.08.43-.21.46-.46l-.27-.13c.42-.19.49-.47.54-.91l-.27-.21c.46-.08.56-1.15.27-1.53l.27-.13c-.12-.36-.05-.69-.53-.59l.13-1.05-.47.02c-.03-.44-.58-.65-.66-.81-.08-.15.08-.36.07-.39-.04-.06-.87-.56-1.02-.67-.26-.19-1.5-1.15-1.59-1.19-.38-.14-.94.13-1.02-.27l-.33.14.13.39-1.24-.12-.09-.41Z"/><path d="M42.27,12.98s-.21.02-.21.08c.02.48.28,1.26.65,1.6l-.28.14c.22.73-.17,1.43,0,2.23l.41.07c-.2.39-.44.87-.22,1.3.05.1.42.02.37.62-.02.28-.24.21-.41.4l.4.13c-.57.56-.1.85-.13,1.18-.02.18-.23.33-.26.55-.12.75-.05,1.6-.28,2.37l.53.07v.52s-.4.08-.4.08c.11.29-.03.75.4.72l-.26.39.26.13-.27.08.13.26-.39.07.4.27-.26.39.4.13c-.73.18-.44,1.12-.47,1.66-.02.42-.58.94.46.79l-.14.58h-.52s.39.47.39.47c-.13.19-.29.73-.23.93.02.07.22.04.22.12.01.28-.25,1.15-.18,1.33.07.2.33.29.31.5,0,.17-.2.38-.21.58s.21.56.19.92c-.04.56-.02.78-.02,1.3,0,.36-.28.87-.07,1.17.09.12.26.08.27.09.06.1-.49.66-.66.72.75.47-.05.93.13,1.65h.53c-.23.41-.19.79-.66.99.38.34.27.57.5.95l-.37,1.23c.4-.09.71.32,1.12.33.48,0,1.04-.22,1.59-.05l.09-.38,1.09-.29c.43.59,1.08.2,1.67.52l-.13-.53,1.59.13-.13-.26c.54-.12.74.45,1.27.39.34-.04.06-.26.32-.26l.08.28c.38-.2.69-.05,1.03-.06.09,0,.19-.14.28-.15.51-.04.92.36,1.2-.33l1.38.53.07-.53c.18.03.51.53.55.53.19.01.38-.16.61-.11.45.08,1,.93,1.01,1.36,0,.2-.33,1.41-.47,1.5-.64.4-2.72.17-3.58.2-.39.01-.68.37-1.04-.04l-.26.28c-.71-.46-.75-.09-1.2-.02s-1.07-.09-1.43,0c-.14.04.03.5-.55,0-.22.5-1.46.12-1.98.12-1.98,0-4,.06-5.96.12-.07,0-.03-.2-.16-.24-.19-.06-.38.03-.64-.13-.06-.04-.81-1.06-.82-1.13,0-.11.17-.29.23-.4l-.27-.14c.02-.32.2-.63.24-.94.12-.97-.19-2.17-.05-2.99.06-.32.47-.21-.19-.56.24-.37.5-1.28.4-1.69-.05-.24-.12.22-.13-.55-.01-.91-.08-2.17-.02-3.04.02-.25.29-.19.29-.26,0-.19-.21-.36-.24-.54-.09-.79.26-2.03.03-2.9.36-1.95-.06-4.17.09-6.19.03-.36.24-.7.23-1.06-.03-.84-.09-.69,0-1.61.16-1.44-.03-3.28.01-4.75.04-1.37.07-2.89.19-4.17.13-1.37.32-1.7,1.71-2.1.19.05.94,2.14.83,2.34Z"/><path d="M159.92,12.77s.01.21.11.24c.52.12.84-.24,1.15-.23.33.01.35.33.37.34.07.03.22-.1.31-.08,1.08.29.87.82.99,1.82-.38-.1-.7.23-1.01.27-.16.02-1.34.02-1.41,0-.15-.08-.09-.38-.5-.26v.4c-.44-.27-.84.08-.99.08-.06,0-1.03-.18-1.17-.21-.12-.03.05-.41-.65-.12-.12.05-.1.26-.17.26-.17,0-.27-.19-.42-.22-1.16-.27-2.69.07-3.82-.05-.23-.02-.48.14-.72.13-.05.22.18.08.24.15.02.02-.08.3-.03.49.08.26.3.59.32.77.08.6-.43,2.35-.13,2.87.14.24.52.06,0,.82.31.1.47.46.41.78-.04.16-.33,0-.27.22l.25.06-.12.26.27.15c-.19.42-.49,1.01-.54,1.46-.01.12.44.33.24.77-.09.2-.31.18-.35.23s.26.86-.02,1.17h.4c.08.42-.12.41-.4.6l.4.26-.54.54c.17.46.54.89.41,1.42-.03.1-.26.08-.27.17-.09.72.69.68,1.2.58l-.13-.26h1.65s.07-.4.07-.4c.5-.07.7.39,1.19.13l-.13-.26c.8-.16,1.47,0,2.25.13l-.13.26.34-.12c.12.39.32.22.64.25.36.47-.22.58-.33.76-.08.12.01.32-.07.43-.32.47-1.2.52-.85,1.19-.59.12-1.86-.05-2,.65-.56-.44-.73.28-.98.24-.14-.02-.92-.85-1.05-.25l-.93-.25-.07.4c-.32.03-.47-.15-.6-.4l-.4.27c.21.49.11.47-.06.93h.53s-.79,1.39-.79,1.39l.4.28-.28.9.28.21-.26.07.39.26c0,.32-.38.52-.38.55-.02.21.23.39-.14.71l.26.07-.26.33h.53s-.27.2-.27.2l.27.13c-.11.45-.65.45-.67.54-.03.24.24.75.23,1.02-.02.47-.47.71.16.94.01.36-.4.5-.39.54.02.25.41.43.14.86l.26-.13.14.59-.28.14c.13.38.4.58.14.99l.53-.13-.13.38c.5.26.73.44,1.32.28l-.13-.26h.66s-.12-.25-.12-.25c.12-.19,1.16-.49,1.31-.62s.1-.39.15-.44c.22-.21,1.66.32,1.85.57.15.21-.08.86.26,1.19-.49.13-.1.38-.27.76-.23.51-1.6.6-1.19,1.42-.44-.2-.7.19-1.07.33-.66.24-1.47.03-2.26.14-.21.03-.21.25-.35.32-.75.38-.46-.17-1-.42-.25-.12-.87.07-.99-.12-.07-.1-.02-.36-.15-.58-.15-.24-.63-.44-.65-.48-.03-.05.13-.25.05-.38-.1-.17-1.36-.54-.49-1.11l-.11-.66-.4-.08.14-.32c-.41-.07-.17-.93-.04-1.24.08-.21.5-.09.13-.79-.1-.18-.34.21.05-.57l-.4-.06c.18-.38.06-.47.53-.53l-.53-.07c-.09-.69.65-.62.4-1.45l-.53.07c.17-.62.46-.7.46-1.46,0-.2-.16-.38-.14-.61.03-.24.28-.45.29-.71,0-.21-.18-.4-.17-.53.01-.34.99-1.63.08-1.98l.27-.2-.26-.06.53-1h-.4c-.13-.63.94-2.01.59-2.52-.06-.08-.26-.09-.31-.16-.16-.22.52-2.04.63-2.42l-.39-.26c.56-.52.3-.58.19-1.25-.06-.32.26-.47-.2-.61.38-.45.06-1.18.14-1.55.02-.11,1.1-.88.13-.96.14-.46.03-1.44.53-1.53-.34-.68.06-1.67.01-2.43-.02-.34-.28-.71-.26-.93.02-.24.3-1.1.35-1.42.15-.97-.16-1.86,1.09-2.27.33-.11.84.17,1-.34.49.43.56.07.87.07s.67.2.98.2l.13-.35c.3-.1.69.16.8.17.19,0,.42-.28.77-.21.1.02.02.25.28.28.42.06.96-.06,1.4-.01l-.13-.39c.48-.09.79.28,1.23.36.36.06.95-.23.99-.2Z"/><path d="M88.46,10.67s.02.19.1.2c.12.03.52-.16.76.01.04.03.62.69.64.74.14.22,0,.34.03.44,0,.02.2.02.22.12.29,1.32-.94.63-1.53.69-.69.07-.18.22-1.08.04-.21-.04-.63.37-.96.1l-.02.37c-.25.05-.79.11-.96.28-.25.23.19.47-.48.34-.03.83-1.15.41-.92,1.26l-.27-.07c-.08.46-.14.5-.65.46l.26.13c-.12.54-.63.24-.66.26-.02.02,0,.31-.13.47-.17.23-.51.21-.68.42-.24.29-.11.69-.19.83-.1.18-.35.2-.47.37-1.17,1.7-1.68,4.05-2.04,6.05-.1.56.06,1.15-.35,1.72l.27.13c-.08.62-1.15,1.53-.4,1.86-.78.78-.4,1.96-.44,2.91-.02.37-.32.69-.08,1.18l-.27.14.12.86h.4s-.28.55-.27.72c0,.06.56.46.14,1.06.63.53.21,1.77.25,2.52,0,.17.63.83.66.88.06.13-.14.34-.09.55.02.08.59,1.4.68,1.57.19.35.73.37.23.9.54-.12.34.26.52.47.1.11.28.15.36.24.22.25.29.57.58.81.63.52.74.09.99.11.12,0,.31.32.48.42.47.28,1.89.08,2.5.2l.02-.37c.2-.14.75,0,.88-.06.07-.03.98-.85,1.09-.96.42-.42.44-1.27,1.26-.6.21.17.25.55.55.64.27.08.64-.04.91.15l.06-.16c-.02-.19.17-.03.2.04.02.05.02,1.02,0,1.06-.1.17-.69.4-.82.56-.17.22-.1.54-.38.75-.38.27-2.4,1.18-2.82,1.27-.48.1-1.57-.25-1.8.46-.98-.64-2.28-.32-3.45-.86-.32-.14-1.97-1.37-2.17-1.6-.27-.33-.67-1.39-.88-1.63-.3-.33-1.17-.36-.71-1.26l-.26-.13.12-.34-.4.13c-.05-.05-.11-.96-.15-1.1-.01-.05-.41-.36-.25-.75l-.39.13c-.12-.35.23-.61.25-.85.05-.67-.44-.93-.54-1.51l-.37-.02c.08-.26.26-.62.26-.88s-.2-.39-.2-.59c0-.27.24-.72.27-1.04.06-.58-.04-1.14-.08-1.71l-.38-.08.4-1.72-.27-.12c.24-.17.12-.56.16-.67.03-.09.22-.04.24-.06.05-.07-.27-.24-.26-.46,0-.13.31-1,.32-1.2.03-.38-.15-.77-.14-.92,0-.24.45-.61.45-.95,0-.16-.17-.27-.18-.37-.06-.69.58-2.45.74-3.15.02-.11.27-.07.27-.15,0-.21-.27-.32-.25-.51.02-.16.22-.32.29-.48.04-.11-.05-.29.02-.39.32-.45.24.06.38-.71.05-.31.49-.21-.18-.55.77-.44.32-.46.41-.77.05-.19.38-.22.46-.35.04-.06.17-.83.45-1.26.53-.83,1.28-1.76,1.99-2.64.19-.24,1.01-1.44,1.09-1.5.28-.21,1.03-.49,1.24-.68.17-.15.06-.39.18-.46.06-.04.85-.44.9-.46.2-.07.58-.02.83-.14l-.13-.26c.15-.11,1.13-.07,1.36-.13.15-.04.14-.34.31-.39.09-.03,1.79-.01,1.87.03Z"/></g></svg>