<?xml version="1.0" encoding="UTF-8"?>
<svg id="Layer_1" data-name="Layer 1" xmlns="http://www.w3.org/2000/svg" viewBox="0 0 574.9 164.97">
  <defs>
    <style>
      .cls-1 {
        fill: #fff;
      }
    </style>
  </defs>
  <path d="M477.69.74c.29.26,0,1.55.79,2.22,1.38,1.19,3.76.74,3.38,4.43l2.69-.67-1.36,1,1.4.71c-.71,1.4-.1,3.81-2.02,3.72,2.05,2.28.57,4.52.33,7.09-.17,1.86,1.22,4.26-1.05,4.71l2.71,1.34-4.05,4.07,1.31.6c-2.43,3.43,3.03,6.1-1.97,7.17l.03,1.31,1.31.36c-1.09.83-2.09,4.16-2.03,5.36.02.43,1.76.36,1.76,2.09,0,1.9-1.67,1.62-1.74,1.72-.24.41,1.17,1.47,1.09,2.33-.12,1.26-2.55.98.9,2.69-1.67,1.95-2.4,3.17-.67,5.45l-1.38.72c.33,1.71.67,3.36.48,5.12-.47,4.45-4.59,8,.19,10.41l-1.31,3.29c3.03,1.29,2.16,4.33-.69,5.45,2.26.5-.16,1.45,2.02,2-3.03,3.35-.45,6.66-.76,9.5-.14,1.29-1.59,5.88-1,7.45.36.97,1.79,1.53,1.79,2.71,0,1.26-1.66,1.81-1.79,2.67-.47,2.95,1.28,9.09-.21,12.26l1.33.69-.71,10.67,1.34.76c-3.07.91-1.79,7.07.67,8.12l-1.21.45.43,2.28c-2,.53-.52,1.05-.74,2.53-.14.9-1.69,1.6-.34,3.1l1.86.45c-2.38,2.41-2.62,5.19-4.07,8.1l2.03,1.69c-1.05.33-4.93,1.76-5.74,1.76-1.03,0-3.19-2.88-4.07.28-1.26-.72-2-3.22-3.05-3.76s-2.43,1.67-2.64-2.03c-.24-4.28-.45-2.16-1.28-4.81s.62-9.43.59-12.73c-.03-2.47-.98-4.86-.67-7.38l-2.07-.4,2.72-5.09c-3.05-1.07-.34-6-.12-7.55.12-.83-1.09-1.5-1.17-2.53-.17-2.22,1.88-6.05,1.78-7.88-.09-1.57-1.19-2.78-1.16-3.67s1.09-1.52,1.21-2.16c.17-.93-1.71-5.6-1.79-5.95-.24-1,2.21-4.62,1.24-6.43-1.57.1-2.41,1.31-4.05,1.74-3.57.95-9.71.47-13.23.6-1.97.09-4.26,1.14-6.72.31l-.36,2.07c-3.22-2.83-7.09-.62-10.81-2.03,1.12,2.79-1.29,3.45-1.28,3.67.03.91.43,4.64.59,5.33.28,1.16,3.36.28.69,3.85l1.34.67c-1.9-.31-.69,1.05-1.28,1.72-.91,1.05-2.64.5-2.1,2.66l3.35,3.36c-1.59,3,.14,5.86-2.64,8.48,1.4-.14,1.5.81,1.34,2.05l2.02-.67c.97,2.47-2.67,4.16-2.74,4.52-.33,1.53,1.26,3.76,1.16,5.62-.07,1.34-.26,3.64-.4,4.98-.05.53-1.34.09-1.45,1.43-.38,5.07,1.59,3.43,2.78,4.41.17.16-1.1,3.24-1.24,4.48-.36,3.14,1.09,3,1.14,3.28.4,1.71-.57,7.41-1.9,8.85-1.19,1.29-2.76.66-3.28,1.12-.33.29-.31,2.48-1.16,2.55-1.88.14-1.55-2.35-1.72-2.67-.05-.1-1.17.53-2.17,0-1.71-.91-3.97-5.54-4.52-5.79l-2.74.34c.78-3,3.72-4.16,1.64-7.41-.34-.55-1.41-.59-1.53-.78-.19-.26.36-4.41-.26-6.36-.12-.4-1.24-.26-1.24-.67,0-1.14,2.41-5.91,2.1-8.02-.07-.47-1.21-.31-1.28-.72-.09-.5.79-4.14.55-4.43l-1.34.33c.69-.97-.28-2.98.1-3.57.24-.38,1.85-.57,1.91-1.14.09-.69-4.66-3.88-.69-4.43-2.71-2.53,3.21-9.16-.69-11.16,1.52-3.09,1.03-3.31,0-6.4l-1.33.67c.1-3.36,1.5-6.78,1.09-10.16-.17-1.45-1.26-2.69-1.47-4.02-.78-4.95,2.26-8.04,1.53-14.4-.4-3.53-.07-3.29-.05-6.36,0-1.97-.34-4.33-.43-6.33l-1.34.34c3.48-4.28.36-7.83,2.67-12.21l-1.31-.95c3.35-.07-.1-4.62,0-6.78l-1.34.69,1.34-5.41-2.72-.34c1.43-.36,1.52-2.31,1.78-3.72.84-4.69.19-10.48,1.66-15.85-1.59.16-1.59-5.64-1.28-6.66.24-.78,1.22-1.22,1.48-1.83.47-1.14-.81-2.28,1.62-3.22.5-.19,4.81-1.22,5.24-1.22,1.59,0,3.1,1.53,4.19,1.6.95.07,1.98-1.67,3.53-.47v8.36l2.17.78c1.66,3.5-1.55,6.17-1.88,9.47-.17,1.67-.26,8.41,2.48,7.04l-2.69,5.78c-.52,1.74,1.69.66,2,.98.45,2.14-2,3.98-1.98,5.76,0,1.09,1.72,4.88,1.78,6.64.09,2.72-2.52,8.26.19,9.55-2.69,2.36.1,6.9-.22,8.48-.24,1.14-1.33,1.57-1.53,2.36-.24.93.24,3.21-.28,4.4h2.71c.21.71-3,1-.33,2.02,1.72.66.53-2,1.34-2.03,5.69,3.26,12.97,1.34,19.28,1.36l.33-2.03,3.4,2.71.69-1.4c1.97.48,4.57,1.91,6.64,1.45.81-.19.62-1.67,1.12-2.26,2.4-2.72,2.9-2.86,4.05-6.95-2.28-.52-.66-3.64-1.43-5.67l-1.97-.4,1.97-.4c-.43-4.16,1.14-10,.81-13.83-.1-1.21-1.12-.93-1.28-1.33-.66-1.71,1.79-2.33,1.88-2.79s-.62-2.26-.48-3.43c.22-1.66,1.66-3.1,1.09-4.88l-2.64-1.1c-.38-1.64,1.97-2.45,1.95-2.62-.41-4.69.5-2.36.76-3.55.43-2.03-1.31-4.67-1.31-5.97,0-.76.91-1.5.97-2.4.36-5.6-.62-3.88,1.93-8.73.4-.76.12-3.07.48-3.35.45-.36,1.97.45,2.72-.47.93-1.12,1.55-3.67.6-4.98l1.69,1.36.34-2.05,5.29.81.09-.07Z"/>
  <path d="M123.92,5.48c.19.12.34,1.19.81,1.55,2.12,1.57,13.64-.45,17.21,2.4l.34-2.02c3.48-.29,2.76,2.69,6.47,2.07,1.19-.19.79-1,1.53-1.34.9-.41,2.02.52,2.47-1.41l6.81,3.41,1.02-.36c.64-1.97,1.38-1.9,3.36-1.71v2.71c1.22.4,1.59-1,2.36-1.1.69-.09,3.05,2.66,4.98,1.88.12,3.38.67,3.64,3.47,4.97l-.78,1.62c-2.88-.79-3.35,2.33-4.86,3.21-1.17.67-2.67.55-3.81,1.29-1.02.66-1.21,2.26-1.83,2.4-1.79.38-6.85-1.93-8.54-1.9-2.79.05-4.93,2.31-7.59-1.53l-2.69,2.69c-3.19-3.07-7.47.97-10.5-2.02l-.34,2.02c-4.16-2.9-8.36-2.98-12.52-.33-.26.33-1.67,4.29-1.79,4.9-.19.9-1,8.76-.86,9.19.16.48,1.09.4,1.24.97.97,3.38-.93,9.73-2.64,12.67l2.69,1.02c-.52,1.72-1.85,3.19-2.07,5.04-.34,2.93,1.41,4.28-.71,6.07l.86,4.31c4.6,1.85,9.31-.64,13.79-1.74,2.02,4.64,8.55-2.14,11.98-.16,1.93,1.12,5.55,2.14,8.47,3.35.88.36,3.5.07,3.53.4.21,2.55-.59,6.29-2.26,8.23-.9,1.03-2.36,1.03-3.5,1.57-.57.28-1.02,1.38-1.66,1.66-3.5,1.47-10.66.52-15.74,2.47-.98.38.12,2.5-3.53-.05-1.9,3.91-2.95,1.76-5.79,2.29-2.47.47-4.6,2.9-8.1,1.76v4.74l1.34.33c-3.24,3.16,1.76,7.19-2.02,10.85,2.21.36,1.41,3.59,2.17,4.26.41.38,1.57-.03,1.88.12.55.29-1.95,4.57-2.03,5.1-.22,1.43.4,2.9.47,4.31.05.98.34,6.81.66,7.48.6,1.31,3.43,3.22,3.5,3.47.1.29-.62,1.62-.45,2.79.26,1.78,1.67,1.79,1.78,2,.47.97-1.43,3.28,2.83,2.86,1.03,2.83,2.47,5.97,5.41,7.38.76.36,3.22-.12,4,.5.09.07-.79,1.36.41,1.85.62.24,2.86-1.05,3.38-1.02.74.07,1.19,1.48,2.36,1.1l.09-2.62c1.09-.16,2.22.05,3.28-.43,2.43-1.14,10.98-6.76,11.83-9.1.59-1.6-1.85-2.07,3.1-2.72l-.69-2.02c.86-.55,2.52.07,2.95-.05.55-.16.36-1.21.74-1.21,1.17,0,2.85.62,4.43.22,1.34,1.26,2.1,3.05,3.09,4.38.36.5,1.4.57,1.57.81.36.47-.72,1.93-.64,2.86.03.43,1.81.33,1.05,1.78h1.69c.19.31-1.26,4.48-1.47,4.62-1.03.67-2.28-1.07-3.47,2.14-.4,1.03-.16,1.69.21,2.67h-4.05l1.34,2.71c-1.29,1.48-4.95.43-5.36.72-.33.22-.29,2.17-.86,2.53s-1.91-.05-2.6.43c-.76.53-.47,2.07-.72,2.31-.5.45-2.52-.17-3.5.07-1.14.29-3.35,3.95-3.59,4.12-1.34,1.02-3.16.09-4.36.36-1.29.31-1.88,1.95-2.52,2.24-1.19.53-2.59.38-3.71.78-.59.21-.53,1.31-.9,1.34-.71.07-5.95-1.83-7.22-1.86-2.41-.05-2.72,1.16-4.21,1.81-1.95-3.36-1.9-2.66-4.66-4.14-1.83-.98-2.85-3.4-4.83.07-2.02-.95-1.52-3.85-2.31-4.98-.9-1.26-5.16-1.59-4.05-5.45l-2-.45c-.33-2.67-.67-4.31.59-6.71l-2.09-.41.05-3.66-2.02.67-.67-6.41-1.34.34,1.34-2.02c-2.98-.24-1.31-1.86-1.6-2.93-1.22-4.52-4.05-15.43-4.22-19.76-.03-.66,1.07-1.91,1.12-3.35.14-3.93-.34-7.88-.05-11.78l-2.67-.76c-.28-1.14.93-.43,1.21-.74.1-.12-.41-1.21-.17-1.97.97-3.14,3.1-6.52,1.79-9.88-.43-1.12-1.62-.76-1.5-1.88.43-3.95,2.97-6.76,2.71-12.23s-1.28-3.09.41-8.45c.66-2.05-1.41-4.85.95-6.43l-1.36-.64c1.26-2.67,2.85-3.26.16-5.43l1.86-2.72-2.02-1.03c2.17-2.71,1.91-4.43,1.78-7.67-.05-1.38-1.9-2.4.26-4.17l-1.36-.66c1.1-1.29,2.83-5.16,2.71-6.83-.1-1.5-1.6-.48-1.34-1.95l2.71-2.72-1.22-.41c1.43-3.36-.62-1.09-.79-1.28-.74-.86.34-1.71,1.34-1.38-3.95-5.04,4.69-5.59,6.47-8.76,1.41.69,8.29,2.22,9.09,1.71s1.26-3.47,3.29-2.28l-.02.09Z"/>
  <path d="M185.46,4.19c.48.6-.57,2.26,1.12,1.85l1.69-2.69c.21,2.03,3.02,1.69,1.36,4.03l5.41.69c-2.1,4.12-.16,3.72.48,5.85.34,1.16-.12,4.22.52,6.35.53,1.78,4.17,5.98,4.16,7.09,0,.5-1.16,1.36-1.17,2.71,0,.24.64,4.05.72,4.6.14.78,1.74.64,2,1.55.21.74.34,5.95-.6,6.72,2.95.98,1.17,5.26,1.47,8.1.24,2.29,2.47,4.31.53,7.07,2-.88,5,4.76,2.71,5.76l2.02.34-1.24.72-.07,4.28,1.07.97,1.57-.52.71,4.02h-1.52l-.5,1.36,2.57,1.09c.17,1.31-.67,6.62-.38,7.29.72,1.59,3.14,1.31,3,5.41-.05,1.64-1.66,2.33-.22,4.26.53.72,2.1-.67-.22,2.22,2.26-.12,1.47,3.36,2.05,4.98l-1.38,1.1c2.72.26,2.05,2.93,2.55,4.54s1.72,3.17,1.5,5.62c3.16,1.33,5.98-5.62,4.81-7.04l-2.1-1.07c3.9-.72-1.97-6.72,4.72-4.74.34-1.29-1.17-2.14-1.24-3.14,0-.19.88-3.48.97-3.64.69-1.12,3.48-1.55-.4-3.71v-1l4.05-2.05-1.34-3c5.36-1.9,2.53-4.36,3.38-8.04.09-.36,1.97-.48.72-3.78l2.64-.78-.53-1.59c2.52-1.31,1.22-1.79,1.71-2.95,1.38-3.33,1.88-6,3.1-9.1,1-2.57,2.19-1.07.5-5.24l2.64-.76c-.45-4.76.62-9.24,3.45-13.12l-1.33-1.29c1.16-1.83,2.64-3.36,2.21-5.67l1.16-.78-1.34-.34c2.76-1.33,1.88-3.38,2.21-4.28.07-.17,2.03-1.17,2.47-2.57.38-1.26-1.16-.74-1.31-1.4-.79-3.35,2.16-4.64,3.83-6.48.22-.24-.67-1.33,1.14-2.05,1.28-.52,1.64.69,2.53.55,1.5-.22,3.45-1.31,5.07-1.55.24,1.98,4.59,5.72,4.76,6.26s-.19,6-.43,6.6c-.62,1.64-2.81-.17-.66,4.22l-2.62,1.12c0,1.98.24,1.91,1.93,2.95.02.29-2.9,4.03-3.17,4.86-.33.97.79,2.59,0,4.07s-2.33,1.59-3.24,3.57c-1.47,3.17.48,3.98.07,6.09-.48,2.48-3.19,8.81-4.29,11.48-1.41,3.48-2.12,6.16-3.29,10.17-.16.55.48,1.59.26,1.88-.86,1.16-3.86,3.43-4.29,5.52-.16.74.81,1.33.76,1.72-.22,1.71-1.53,3.97-1.09,5.95.17.78,2.03.93,2.05,1.48.03,1.14-4.45,3.26-5.26,5.57-1.22,3.45,3.16,1.52.83,4.86-1.29,1.85-2.69,2.09-4.41,3.19l.74,7.69h-2.03c.4,1.69,1.48,3.21-.67,3.72l2.02,1.34c-1.07,1.45-3.76,4.98-3.31,6.72.24.95,2.55.93,1.95,1.72-3.03.95-7.66,5.48-3.38,7.78-.41,2.35-3.17,2.26-3.35,2.43-.22.24.71,4.81.33,6.07s-1.38,1.16-1.67,1.85c-.79,1.9-.4,4.74-1.24,6.74-.38.91-1.64,1.6-1.83,2.17-.33.88.62,2.24.29,2.69-.14.21-1.62.21-2.21.67-.81.62-.5,1.41-2.16,2.07-3.12,1.26-9.71-.21-11.14-3.24-.91-1.91-.52-5.86-3.41-6.24l1.34-1.33c-1.78.24-.84-.76-1.14-1.33-3.43-6.35-3.52-14.36-4.22-21.31-.53-5.31-4.98-9.76-5.14-11.83-.07-.84.88-1.41.86-1.74-.16-1.88-4.12-8.55-2.47-11.42l-1.33-.71.66-3.33-2.74-1.16c-.43-3.74,3.22-2.53,1.28-6.22-.33-.6-1.38-.47-1.29-.83.1-.45,1.07-1.12,1.17-2.12.17-1.67-.31-4.48-2.52-3.66.21-1.85,1.55-3.71,1.26-5.57-.41-2.53-3.72-8.62-4.48-11.81-.41-1.78.17-3.66-.17-5.14-.12-.52-1.29-.43-1.38-.9-.22-1.29.95-2.91.67-3.88-.36-1.21-2.33-.55-2.91-1.93-.1-.22-.6-3.95-.78-4.9-.1-.53.53-1.4.33-1.69-.12-.17-2.45.71-3.38-1.69-.12-.6.97-.16,1.17-.47.24-.4-.03-8.26-.21-9.41-.28-1.91-1.95-3.19-.97-5.33h-2.02c1.43-4.38-.5-4.72-1.98-7.33-.66-1.17-.67-2.64-1.02-3.35-.1-.19-3.17-.6.91-2.26l-.55-1.62c1.97-.57.5-1.28.88-2.36,1.03-2.85,4.81-3.81,6.12-6.74.36.57,1.29.47,1.59.84l.03-.05ZM219.4,116.94c.81-1.95.74-3.16-1.34-4.05.05,1.1-.09,3.81,1.34,4.05Z"/>
  <path d="M527.62,8.35c.24.14.26.69.31,1l.95.07,2.71-2.71c1.17,3.43,3.59,1.17,5.98,1.59s6.66,3.95,6.54-.91c2.26,1.81,4.93,3.29,6.41,0,2.12,1.45,2.62,3.66,5.43,2.09l.66-2.78c1.67,4.14,5.88,1.6,7.97,2.12s4.05,6.04,7.24,6l-2.69,1,4.05,1.03-1.34,1c.93,3.12,6.79,5.93-.67,4.41,1.17,2.29-.9,4.64-3.4,4.74l.69,1.33-1.93-.57c-.34,2.05-1.83,1.69-3.48,1.24l.67-2.69c-1.98.98-4.6,0-6.29.22-.79.1-1.55,1.33-2.76,1.17-.47-.05-.69-1.48-1.47-2-3.05-2.07-3.59.95-4.69,1.09-.47.05-5.81-2.48-6.76-2.47-1.03,0-1.95,1-3.28,1.1-3.52.24-7.55-1.81-11.26-1.14,1.1,1.29.14,2.85.29,3.72.14.81,1.31,1.24,1.6,2.14.64,2-1.33,5.4-1.59,8s-.6,2.53-.95,4.76c-.38,2.41.88,4.67-.03,7.05h2.03l-1.36,1.02,1.36.67c-2.07,1.91-2.66,4.24-2.38,7.05.1.98,1,1.66,1,1.76-.02.24-3.03,1.88-2.67,3.71l2.71,1.02-4.05,4.4,1.29.07c-1.4,2.76,2.07,3.53,4.38,3.97l2.43-2.67,2.38,3.38c1.41-3.64,6.22-.22,8.79-.67l.34-2.03c1.03-.24.52.97,1.14,1.34,4.24,2.64,9.31-1.29,13.38-.34,2.81.66,8.91,4.95,9.09,8.14-5.41,1.91-.47,7.81-5.64,8.43l.28,1.33-3.38-1.34v2.71c-4.67-1.9-8.97-2.74-13.98-3.12-.84-.07-1.69.45-2.55.38-1.45-.1-1.64-1.88-3.53-.4-.4.31-.6,3.09-1.91-.28-2.62,1.22-7.54,1.83-10.14.03l-.33,2-3.38-.67c-.47,2.16.67,1.98,2.02,3.03l-2.03,2.74v1.24l1.36.71c-1.33,2.17-1.03,5.57-1.59,8.02-1.02,4.55.03,1.16.28,3.48.22,2.1-1.4,3.81-1.41,4.74,0,.4,2.16.38,1.74,2.47-.24,1.22-1.43,1.24-1.52,1.43-.43.79,1.47,2.9-.86,2.55v1c3,.34,1.12,8.62,1.41,9.02s1.86.33,2.28,2.05c.33,1.31-.67,4.93,0,6.16.09.17,2.66,2.6,2.85,2.66,1.29.38,4.6-.67,5.85-.48,1.85.28,3.29,3.38,3.26.69,2.88,1.17,4.95-2.12,8.02-3.21,1.29-.45,2.55-.07,3.6-.34.62-.16.1-1.88,2.79-1.33,2.19.45,5.6,4.91,5.55,7.22s-3.03,9.07-5.19,10c-1.34.59-2.88.21-4.12.64s-1.14,1.29-1.45,1.48c-.36.24-1.36-.57-1.78.57l.59,1.71c-2.55-.86-6.36-1.21-8.9-.29-1.64.6-1.31,1.86-2.57,2.12-1.79.36-3.62-.6-2.05-2.5-2.53,0-5-.71-7.43-1.1-.79-.12-1.88.52-2.88.28-2.78-.67-5.16-2.05-4.57-5.28l-4.05.69c-.6-1.02-.45-4.21-.79-4.62-.29-.34-2.28-.12-2.97-1.47s.26-2.43.12-3.64c-.19-1.59-1.78-2.9-1.83-3.43-.19-2.19.91-4.85.76-6.04-.05-.43-1.1-.33-1.34-.93-.59-1.53-.16-4.76-.26-6.6-.09-1.43-1.86-2.28.22-4.05l-1.31-.6c.64-1.17.72-2.5.98-3.78.28-1.38-1.02-1.79,1-2.36l-2.57-2.03c1.22-3.29-.1-7.59,1.9-10.14-3.78-1.33.52-6.07.67-7.43.16-1.29-1.05-4.47-.53-5.91.78-2.17,2.33-3.22,1.9-6.81-.07-.53-1.33-.16-1.45-1.43-.29-3.31,2.78-6.35.07-9.16,4.97-.88.83-5.74.67-8.79h2.71c.29-1.12-1.24-.33-1.4-1.09-.43-2.12,2.91-5.29-1.29-7.35.4-2.1,3.26-3.85,3.35-4.16.19-.71-.9-3.9-2-3.98l2.71-3.4c.22-.59-1.17-.07-1.36-.76-.09-.29-.02-6.24,1.34-5.02v-1.33l-1.33-.33,2.05-2.1-.74-3.26,1.4-1.09-1.33-.31c1.22-1.33.71-3.22,1.31-4.62.21-.48,1.36-.41,1.33-.78-.07-.9-.88-3.12-1.12-4.53-.26-1.6,1.34-2.95-.86-2.62l1.34-.67v-1.34c-1.33.57-1.47-1.62-1.19-2.29.5-1.24,1.81-.78,2.33-1.31.62-.62,3.33-3.66,3.66-4.17.57-.9-.12-1.64-.05-1.69,1.33-.78,4.19.95,5.36,1.05,1.28.12,1.43-1.78,2.78-.03.17,2.4.95,1.74,2.43,2.66l-.05.1Z"/>
  <path d="M386.47,9.41s-.14.62.28,1.05c2.64,2.74,1.79,2.03,3.35,4.79,1.19,2.1,2.31.84,2.43.93.19.14.53,2.83,1.36,3.74.91,1.02,3.74,1.09,3.41,2.66-.9,1.59-2.91.62-3.9,1.17-1.19.67-1.67,3.83-1.88,3.93-2.69,1.57-5.43-1.33-5.74,2-2.19-1.64-4.74-1.29-5.74-4.07h-1.69l.67,2.72c-1.59-.78-4.03-.34-4.07-2.71l-1.36.33c.24,2.71-5.17.78-5.36,1.03-.12.17.14,1.17-.24,1.76-2.03,3.03-7.28,3.97-8.4,5.17-.41.45-.71,2.26-1.57,3.35-1.19,1.52-3.53,2.29-3.86,2.66-.12.12.38.88.12,1.26-.33.48-1.33.52-1.48.78-.26.41,1.76,3.12-2.86,2.6,2.19,3.72-3.03,5.19-3.9,6.93-.38.78.57,4.31.41,4.9-.1.4-.93.24-1.1.66-.12.26.33,1.22-.09,1.9s-1.62.83-2.1,1.47c-1.97,2.6-2.5,9.07-2.72,12.19-.1,1.38-.72,2.6-.72,3.98l1.4,1.09c-5.43,2.19-4.05,5.64-5.16,10.52l2.45,1.98c-1.9,1.85-1.91,4.16-1.81,6.69.03.81,1,1.64.97,2.12-.05.69-1.64,1.31-1.79,2.12-.12.67.98,1.33.98,2.31,0,2.14-2.64,3.91,1.67,4.02-.62.98-.43,2.28-.91,3.19-.09.16-3.31.88.09,1.62-.47,1.43-.59,2.86-.22,4.35.05.24,1.98,4.17,2.16,4.35,3.02,3.03,6.71,1.83,4.41,7.36,1.4.09,1.5,1.59,2.22,2.17.95.78,7.5,3.4,7.79,3.72.76.79.62,1.98,1.36,2.67,1.09,1.02,4.38.41,5.24,1.14.69.57.34,2.38,1.28,2.6,1.88.43,5.16.86,7.38,1.28.78.14,1.85-.6,2.57-.47.91.17,1.97,2.17,2.43,1.86.16-.1.86-2.05,2.71-2.36l-2.02-2.36c3.79.36,10.76-3.12,13.52-1.02,1.17.9,1.74,2.74,3.43,3.48-1.5,2.52-.03,4.76-.03,6.6,0,.41-5.5,4.9-4.79,6.47l-5.36-.67.62,1.97c-2.22,2.07-3.26.07-4.21.19-2.02.26-6.43,3.38-7.78,3.86-4.66,1.67-4.5-1.03-6.6-1.33-1.64-.22-3.72,1.53-4.71.03l-.34-2.02-3.36,1.34-.66-2.43c-.88.12-6-1.71-6.9-2.35-1.74-1.26-3.97-4.64-6.98-5.07-.86-.12-2.02.78-2.93.26-.81-.45-3.93-6.81-5.04-7.81-1.47-1.33-2.81.12-2.53-3.57l-2.02,1.34c.48-2.69-2.64-4.62-3.24-5.88-1.34-2.78,1.16-5.69-4.19-7.29l1.36-.67c-4.19-2.07.59-3.36,0-6.41l-2.02.67c.21-2.81-1.14-5.95-1.31-8.57-.5-7.79,2.72-14,.6-22.09-.16-.57-1.34-.5-1.33-.78.05-.59,1.28-2.19,1.33-2.78.02-.21-2-.03-1.34-2.59.14-.53,1.36-.09,1.38-1.4.05-2.22-1.43-5.19-1.38-6.76,0-.4,2.22-6.83,2.57-7.6.88-2.07,2.83-1.6,1.09-4.26,4.62-2.41,2.14-3.05,2.4-5.64.05-.52,4.26-5.67,4.55-6.26.22-.45-.5-2.09.9-2.64l-1.38-.66.03-1.36,3.28-1.12.1-3.57,2.03-.4-2.02-1.67c1.1-1.97,4.76-.95,5.9-2.5.19-.26,1.16-4.76,2.38-5.78,2.16-1.76,3.4.72,4.05-5.43l3.21-.16c1.03-1.59-2.9-1.4-.67-2.38,1.97-.86,4.02,2,4-2.71,1.24-1.16,3.72-.28,5-1.64.62-.66.21-1.6.93-2.07.98-.64,3.85-1.43,4.95-.67l-.47-1.71.9-.95c2.74.1,7.31,1.17,7.05-2.76.17-.28,5.31,1.22,5.59,1.21,1.16-.1,3.02-1.76,4.31-1.76,1.02,0,2.71,2.28,5.86,1.71.76-.14,1.38-1.34,1.78-1.14h.07Z"/>
  <path d="M80.73,10.1v-1.55c.41-2.62,5.24,3.62,5.66,4,.86.81,4.33,2.67,4.47,3.35-.72,3.33-2.43,3.5-4.69,5.41l1.33,2.29h-3.36v-2.03c-1.53,1.09-5.97,2.14-6.48-.03l-2.29.72,1.34,2.02c-1.53.88-3.05.09-4.28.22-.66.07-1.31,1.12-2.16,1.14-.95,0-1.67-1.36-3.31-1.34-3.31.03-1.34,2.07-3.47,3.22-2.38-2.07-4.47.79-7.07-.52l-.72,4.05c-1.52-.67-3.83-.52-5.22.29-.79.45-4.14,4.29-4.91,4.78-1.79,1.09-3.09-.71-5.62,2.38-.36.45.07,1.48-.74,2.05-2.05,1.45-2.79,1.98-4.24,4.55-.52.91-1.52,3.95-1.71,4.07-.66.45-2.55-.22-3.22,1.14l1.02,3.07c-1.36.34-1.91,1.95-2.64,2.5-1.4,1.03-1.81-1.14-1.72,3.19l-2.1.4c1.29,2.43-1.28,2.95-1.74,4.69-.31,1.17.72,2.86.38,3.36-.12.16-1.71.36-2.33.79-1.26.84.19,2.22-1.71,1.98l2.02,2.69c-1.93-.24-.71,1.34-1.47,2.86-.88,1.76-2.85,4.57-3.38,6.21-.74,2.28,1.02,3.66.81,5.45-.12,1.1-1.4,1.71-1.4,2.72,0,.26,1.95.07,1.21,2.71-.1.36-.97.24-1.03.66-.21,1.14,1.69,6.69,1.62,7.43-.12,1.19-2.66,2.53.21,3.35l.07,6.48,1.33-.67c1.71,2.03-.53,4.78-.38,5.45.28,1.21,2.14,2.38,2.62,3.53.9,2.16.31,1.62,1.62,4.05.9,1.67.36,3.4,2.9,4.12.83.22,1.81-.41,2.05-.24.05.03-.52,1.02-.31,1.36.64,1.03,2.38.93,2.86,1.45.12.12-.29.93-.09,1.22.97,1.34,2.55,2.02,2.28,4.07,2.45-1.28,4.47.91,5.41,3.38l.74-1.28c2.98.07,2.28,1.91,3.36,2.93.41.38,2.69,1.14,3.29,2.16,3.47-1.95,4.31.64,7.26.71,2.05.05,3.14-1.57,4.07-1.69s1.38,1.26,2.93,1,2.97-1.76,4.38-2.33l2.38,1.6c1.98-.83,3.14-2.74,5.38-1.74v-2.03l2.03.69v-2.03c2.76,1.24,3.47.67,5.85.24,1.22-.22,2.67,1.4,2.97-1.59h.66c-.29,1.93,1.81,1.24,3.24,1.86,2.72,1.16.36,3.02.45,3.86.09.93,1.55,2.85,1.64,4.12l-3.29,2.67,1.34,1.69c-2.38-.52-4.47,2.91-5.9,3.26-.74.17-4.36-.05-5.6.12l.67,2.02c-3.67-1.31-2.81,2.69-6.78.69l.69,1.34c-4.21-.81-8.59,1.36-12.5-.72l-.66,1.34-2.02-.67-.71,1.41c-2.1-.19-3.52-2.33-3.93-2.55-.21-.1-3.78-.31-4.55-.83l-.69,2.71-2.36-2.02-.66,1.36c-3.64-3.9-7.95-4.33-12.19-6.76l-.67,2.02-3.4-3.38-.67,1.34c-2.14-1.48-1.64-2.53-1.02-4.72l-1.26.6c-1.31-2.69-1.81-6.04-5.5-4.66-.03-2.57-2.09-5.97-4.74-4.07.78-3.53-1.38-5.6-2.05-8.79l-2.02,1.34c-.78-2.17-.9-2.95.67-4.72l-1.97-.05c.79-2.16-1.43-2.9-1.45-3.09-.14-1.17.98-2.29.45-4.35-.34-1.34-2.48-2.02-3.21-3.66-.09-.21-1.1-4-1.14-4.22-.21-1.26,1.66-1.72,1.71-2.57.05-.62-1.36-1.86-.48-3.03l-2.71.67c-.72-3.4,1.12-6.69,1.66-10.04.19-1.26-.55-2.69-.19-4.35.5-2.22,2.81-2.38,1.45-5.74-.4-.97-2.33-.97-1.93-2.95,2.31-2.05,1.28-5.12,3.74-7.71l-2.69-1.34c1.03-3.31,3.72-1.33,4.38-3.02.31-.79-.55-2.02-.36-2.98.1-.5,1.38-.4,1.4-.83.09-2.55-.26-5.24,1.29-8.05.29-.53,1.14.41,1.71-.33,1.36-1.78,3.03-5.9,1.71-8.14,5.35.71,3.98-5.38,5.05-6.81.47-.62,1.83-.36,2.24-.83.31-.33,0-1.38.29-1.69,1.29-1.26,5.33-3.59,7.09-5.71.36-.45-.33-3.35,3.59-2.57l-1.34-2.36c1.97-.33,1.95-2.79,2.1-2.93.43-.36,1.69.16,2.45-.28.33-.17.43-1.12.91-1.43.84-.55,2.02-.66,2.74-1.41.55-.59-.14-1.64-.07-1.69.64-.41,4.16-.19,5.21-.9.48-.33.55-1.57,1.55-2.16,1.09-.64,2.81-.5,3.97-1.12l.09-3.29c1.45.4,4-.38,5.54-.88,2.03-.64,2.33-2.76,4.59-.48l.45-1.36c3.14,1.29,4.45-1.34,4.72-1.38,1.43-.14,4.78-.05,6.21-.86.16-.09.14-1.16.48-1.17,3.74,2.79,6.59,1.1,10.47,2.07l.09.02Z"/>
  <path d="M287.85,5.9c.93.53,5.71-.57,7.29.16l1.4,7.62c2.38.98.64,1.64.64,3.52,0,3.36,1.93,2.88,2.03,3.05.19.29-1.5,1.83-1.76,2.67-1.28,4.16-1.31,11-1.5,15.42-.07,1.55-.34,4.4,1.22,4.55-3.88,2.95-.71,5.6-.74,8.71,0,2.35-1.41,4.6-2.02,6.79l2.07,1.4-1.34,2.36,2.03.03-2.69,7.76,1.98,1.07-2,4.35,1.4.67c-.53,1.67-1.59,2.81-1.47,4.76.07,1.22,1.17.88,1.28,1.33,1.19,5.04.19,23-.28,28.42-.05.53,2.43,8.4,2.4,10.16-.02,1.31-1.52,2.52-1.34,4.03s1.69,1.38,1.97,2.03c.55,1.33-1.76,6.43-1.74,8.74.02,3.36,1.21,4.85,2.22,7.5-1.24,2.12-2.67,5.76-3.35,8.36-.88,3.36,1.16,5-3.69,5.59l-.09,2.62c-2.76.62-4.07-2.5-6.36-3.47s-5.26-.26-5.6-3.07c-.1-.84.55-1.74.45-2.57-.16-1.19-2.45-5.76-2.52-6.1-.69-3.81,3.03-4.86.5-7.47l1.34-.33v-1.34l-2.02.67c.59-1.64-.16-3.45.31-5.1.22-.78,1.21-1.17,1.47-2.33.88-3.76-2-7.54.24-11.5l-1.97-.38c.34-2.02-.02-3.47,1.97-4.69l-1.24-.66c.64-1.55.22-3.17.31-4.76.1-2.29.86-4.52,1.02-6.74.14-1.91-.72-3.85-.07-5.78l-2.03.33c-.47-1.69,1.81-3.83,1.88-4.05.14-.48.93-9.54.81-10.04-.07-.28-2.35-2.47-2.5-4.97-.07-1.24,1.4-3.55,1.5-5,.14-1.97-.95-3.52-.93-5.69.03-3.36,1.45-4.52.57-8.66-.12-.57-1.09-.47-1.21-.81-.26-.79,1.53-2.72-.79-2.38v-.66c2.55-.38,1.03-6.09,4.05-7.79l-2.02.34c1.28-3.41-1.86-6.76,1.34-9.14l-1.34-1c3.1-.24,1.29-3.47,1.53-5.35.47-3.59.31-5.38.5-8.5.12-1.95,2.86-3.29-.02-4.07l4.47-8.47c.48-1.5-.84-2.9,1.29-4.03.52.02.78,1.67,1.14,1.88v-.02Z"/>
  <path class="cls-1" d="M219.4,116.94c-1.43-.24-1.29-2.95-1.34-4.05,2.09.91,2.16,2.1,1.34,4.05Z"/>
</svg>