<?xml version="1.0" encoding="UTF-8"?><svg id="Layer_2" xmlns="http://www.w3.org/2000/svg" viewBox="0 0 289.48 107.99"><defs><style>.cls-1{fill:#fff;}</style></defs><g id="chakhchoukha"><path d="M155.83,30.75h.49s-.52,1.13-.52,1.13l.52.35-.52,1.54.47.12.13.31c-.11.43-.45,1.04-.42,1.48.03.47.83.63.32,1.01l-.51.09c1.32,1.21-.13,1.98.35,3.43h.68c-.13.48,0,1.48-.05,1.82-.03.2-.41.17-.47.37-.22.81.42,2.19-.17,2.97l.86.09-.86.86.69.09-.62,1.64.44.43-.34.76c.74.34.85,1.75,0,2.07.65.34.86.77.68,1.52-.04.16-.47.05-.34.54.02.07.26.07.29.13.36.66-.37,2.09-.29,2.19l.69-.17-.52,3.44h.52s-.34.34-.34.34l.51.17c-.27.06-.49-.2-.44.19.18,1.18-.3,2.4-.07,3.59h.51c-.42.95-.9,1.73.34,2.16-.34.46-.47,1.48-.48,2.07,0,.51.53.78-.03,1.28l.34.09c-.37.33-.86.73-1.28.97-.23.12-.4-.04-.56.03-.04.02-.26.46-.66.45l-.42-.5.08.51c-.7.23-1.19-.09-.6-.68l-.67-.02-.14-.42.47-.68-.7-.35c-.19-.7.52-.74.53-.87,0-.07-.1-1.15-.12-1.29-.04-.23-.42-.8-.39-.84.02-.03.52-.1.51-.52h-.5s.06-.35.06-.35l-.42-.25c.72-.55-.23-1.35.52-1.55-.73-.69.58-.94-.51-1.38.35-.37.64-1.03.46-1.52-.1-.27-.35-.33-.44-.71-.14-.57.5-.9.47-1.18-.04-.5-.37-2.36-.64-2.6.59-.68-.19-2.32-.2-2.58-.02-.85.5-2.21-.34-2.76.32-.19.58-1.23.43-1.48-.17-.26-.87-.06-.08-1.02l-.52-.43c.13-.46.78-1.03.71-1.53,0-.07-.68-.38-.36-1.14-.33.44-1.9-.62-1.37.17-.74.08-1.63-.1-2.34-.01-.29.04-.27.59-1.16.35-.36-.1.11-.12-.87-.18-.41-.03-.89-.35-1.31-.07-.13.08-.12.42-.28.44-.48.07-1.19-.6-1.36.51l-1.44-.03v-.5s-.7.26-.7.26l.51.25c-.23-.15-.8,1.21-.8,1.29,0,.3.95,1.19-.05,1.72.08.16.43.19.48.29.04.06,0,1.31-.02,1.4-.06.22-.31.32-.38.54-.15.45.26,1.17-.08,1.63l.69.09-.69,2.15h.52s-.34,1.03-.34,1.03l.86-.17c.15,1.04-1.47,1.08-.19,1.81.06.4-.39.93-.42,1.2,0,.07.01.95,0,1.29-.05,1.06.28,1.4.38,2.23.05.44-.33.9-.29,1.26.01.1.25.11.33.25.44.78-.33.53-.33.96l.17.8.34-.17c.2.5.05.76-.34,1.12l.34.17-.35.77.52.17c-.54.44-1.07.49-1.67.76-.04.02-.05.26-.16.27-.17.02-1.16-.14-1.32-.21-.28-.12-.25-.65-.8-.48l.34-.34c-.65-.17-.45-.89-1.37-.52l.17-.74.69-.12-.86-.17.32-.19-.15-.67h.51c-.13-.38.1-.47-.34-.6l.33-.17v-2.14s-.84-.01-.84-.01c-.17-.44.29-.29.31-.42.11-.87-.47-1.95.55-2.41-1.26-.38-.59-1.11-.34-1.89.15-.49-.54.14-.34-.34.06-.16.56-.74.51-.78l-.69-.09c.38-.21.93-1.12.82-1.55-.02-.1-.24-.08-.26-.17-.15-.65.9-1.44-.56-1.89-.09-.53.06-.44.52-.43-.02-1.02-1.11-1.85,0-2.66l-.33-.16.34-2.39-.7-.29.17-.86c-.77.03-1.85-.43-2.41-.96-.11-.11-.29-1.05-.69-.94.32-.28.39-.68.57-.97.07-.11.32-.14.38-.23.13-.2-.12-.5-.09-.51.1-.08.79,0,.95-.04.09-.03.07-.31.17-.32.43,0,.7.62,1.46,0,.11-.6-.29-.06-.51-.42.04-.33.6-1.02.62-1.21.02-.16-.18-.52-.21-.78-.05-.45.42-.55-.41-.52-.19-.5.72-2.01.68-2.13-.07-.28-.67.07-.4-1.08.09-.38.49-1.08.5-1.34s-.35-.93-.24-1.21c.25-.66.03-.17,0-.89,0-.28.24-.48.24-.66,0-.27-.39-.58-.38-.86.01-.47.57-1.29.6-1.4.01-.07-.16-1.21-.18-1.3-.08-.35-.68-.43.2-.65.19-.41-.34-.32-.35-.43-.04-.47.45-.92.49-1.02.1-.29.34-1.29-.09-1.15l-.03-.22c.56-.6.7-1.75,1.78-1.45.05.01.74.72.76.77.07.26.06,1.43.04,1.79l.34-.17c.11.16-.21,1.8-.19,2.16.02.33.37.24.37.35.03.4-.47.62-.17,1.32.07.15.33.14.33.23,0,.18-.2.4-.17.67.04.33.45,1.16.44,1.55s-.79,1.23-.77,2.07c0,.06.7.29.32.93l.52.09-.86.61c.66.53.05,1.12.19,1.59.07.23.38.32.47.72.09.37-.26.8-.28,1.06-.03.46.79,1.26.44,2.22-.05.13-.46-.03-.31.42,1-.36,2.22-.3,3.27-.17v-.69c.57.24,1.23-.15,1.7-.06.51.1.35.49.76.55.54-.01.7-.48.76-.49.5-.09.77.4,1.16.36.08,0,.67-.92,1.4-.18.22-.67,1.49.07,1.88-.84l.43.15c.1-.11-.36-2.56.34-2.84-.91-.4-.22-.78-.18-1.21.08-.8.06-2.39-.28-3.13-.11-.23-.4-.21-.39-.29.04-.38.6-1.01.63-1.24.04-.27-.26-.69.03-1.02l-.33-.16.35-.17c-.8-.55-.31-.63-.26-1.13.1-1.02-.09-1.62-.17-2.49-.09-.96.49-2.3.44-3.32.68-.27,1.43-.64,1.84.28.1.23.86,2.45.87,2.58.03.41-.26.64-.25.81,0,.13.26.28.27.51.01.3-.25.59-.13,1.01.07.26.46.37.48.71.03.47-.47,1.33-.14,1.98Z"/><path d="M266.1,20.27l-.17.69.35-.52c.46-.31,1.14,2.25,1.24,2.37.11.12.38.11.53.21.21.14,0,.57.64.17l.19.76-.36.45.51-.17-.07.35c.64.21.24.35.31.76.09.55.27,1.08.29,1.64l.86-.17c-.1.42-.04.97-.51,1.12l.53.37-.2.82.36.2-.18.59h.52s-.17.69-.17.69l.51-.17c.37.75-.67.96-.3,1.79.11.25.47.22.49.39.16,1.1-.26,1.75.46,2.67.07.09-.12,1.01-.1,1.09.2.68.27,1.1.24,1.88-.02.5-.22,1.22-.1,1.7.06.22.61.2.52.55-.62.28-.39,1.18-.14,1.69.13.26.48.26.49.39,0,.12-.17.34-.16.52.03.75.39,1.08-.53,1.53.55.16.27.74,0,1.12h.69c.1.98-.75,1.29-.49,2.39l.66.2c-.09.5-.43,1.53.17,1.63-.6.22-.53.9-.86,1.38l.51.09-.34.17.32.43-.49.52.34.19c-.2.51.31,1.02-.34,1.18.32.3.28.56.17.95l.34-.08-.07.77-.62.17c.4.52-.27,1,.36,1.12l-.35.69.68.43-.32.08.14.51c-.81.38-.39,1.05-1.02,1.57l.66.28c.29.7-.74,1.01-.8,1.27-.02.07-.04,1.28-.02,1.35.07.21.31.25.49.3-.35.4-.12.9-.2,1.23-.06.22-.29.41-.39.65-.07.17.13.48-.07.6-.62.4-1.5.07-2.14-.06-.09-.07-.72-1.78-.86-2.09-.26-.56-.88-.79-.6-1.61.11-.33.67-.15.49-.62l-.34-.17c.39.09.3-.47.52-.77l-.52-.09c-.06-.43.53-.73.52-.77-.01-.45-1.29-1.63.34-2.15l-.34-.25.32-.7-.49-.26.51-1.28-.32-.17.31-1.57-.33-.16c.36-.33.57-1.37.29-1.76-.1-.14-.51-.14-.47-.46-.04-.75.54-.81.67-.98.06-.08-.57-.85.01-1.1l-.78-.28-.33.36-.45-.67-1.19.41v.43c-.61-.05-.94-.06-1.28-.62-.47-.08-.48.09-.69.45-.64-.63-.81-.67-1.72-.69l.09.34h-.52s.09.51.09.51c-.63-.05-1.14-.51-1.75-.61-.75-.12-1.68.31-2.21-.24l-.26.43.35.19v.47c-.64.22-.17.58-.27.99-.11.46-.46,1.23-.76,1.61,1.01.3-.03,1.13.69,1.37-1.11.88-.33,2.39-1.21,3.27l.51.34c-.82.49.02,1.71-.19,2.22-.14.33-.52.19-.63.31-.05.05-.5,1.22-.52,1.3-.14.52.25,1.03.15,1.48-.05.2-.43,0-.35.28l.34.09c-.79.59-.85,1.76-1.11,2.67l-1.02.19c0-.48-.39-.99-.44-1.33-.11-.66.5-1.87-.19-2.05v-.16c.49-.67.32-.87,0-1.55l.52-.09c.12-.37-.32-.63-.31-.91,0-.25.3-.52.23-.82-.05-.21-.36-.41-.38-.58-.02-.22.43-.68.47-1.04l-.35-.42c.61.11.07-.48.26-.7.13-.15.41-.15.43-.17.04-.05-.66-.67,0-1.2l-.68-.08c.48-.55.31-1.26.68-1.72l-.68-.34.68-1.39-.31-.16c-.1-.62.55-1.1.64-1.42.07-.26-.11-.53-.05-.75.21-.83,1.02-2.06.08-2.65.89-.71.48-1.95,1.03-2.75l-.69.09c-.09-.47-.17-.66.17-1.03l-.34-.17c.49.1.15-.29.33-.42.39-.28.6.02.79-.77s-.18-1.41.25-2.16l-.34.09c-.11-.93.71-1.6.85-2.51l-.32-.31c.51-.45.38-1.48.59-1.83.09-.14.39-.2.5-.36.61-.83.47-1.07-.07-1.88l.86-.18c.08-.5-.74-.31-.17-.95l.69.09-.48-.95.81-.7c-.53-.72.06-1.53.53-2.13l-.51-.09.2-.58.65-.03c-.05-.87.85-1.19.88-2.13l-.36-.18c.18-.74.88-.52,1.01-.64.07-.07-.02-.34.07-.43.09-.1.4-.07.57-.22.23-.2.09-.57.18-.69.66-.88,1.83-1.08,2.81-1.47.38-.15.43-.68,1.21-.25ZM265.45,27.29c-.28-.46.75-1.53-1.12-1.1-1.14.27-.64.37-.66.88-.04.95-1.26,1.47-1.28,1.79l.27.61-.69.26.1.35.49.15c.49.35-.48,1.11-.93.88l.13.32-.3.03c.68.63-.39,1.75-.6,2.5-.01.04-.08.82-.07.86.04.16.4-.04.32.25-.42.02-.62-.15-.39.31l-.62.66.49.57c-.67.16-.68.61-.68,1.21l.34-.17c.27.78-.54.88-.65,1.07-.05.08-.41,1.8-.38,1.91.04.15.48.03.35.72l-.52.09c-.06.06.18,1.36.13,1.63-.01.07-.47.8-.54,1.15-.06.3.04.54.06.83l.43-.35.69.35.26-.68,1.1.51.28-.68c.53.16,1.01.64,1.6.52.13-.03.14-.27.24-.34.76-.47.6.3.85.35.56.1,1.33-.42,1.69-.45.47-.03,1.04.43,1.35.4.28-.03.56-.45.97-.13v-.5s.69-.02.69-.02l-.33-.18c.39-.74-.31-.4-.36-.93-.05-.54.43-.95.51-1.4.07-.38-.09-2.88-.85-2.48-.1-.05.48-2.04.46-2.15-.02-.17-.33-.27-.38-.51-.14-.65.05-1.8-.15-2.49-.35-1.21-.52-.93-.64-2.33-.06-.73-.78-.79-.15-1.54-.6-.11.04-.44-.43-.75l-.61.16c-.03-.47.26-1.11.07-1.57s-.49-.43-.55-.53Z"/><path d="M174.73,23.53l.09-.34c.49.21.5.32.43.86,1.05-.49,1.6,1.52,1.89,2.23l.68-.34.33.75-.5.62.6.52.43-.34c0,.32.16.62.18.95.02.46-.25.87.3,1.2.1.64-.27.68-.4,1.03-.04.11.11,2.17.16,2.28.02.03.5.42.63.38v.17c-.18-.02-.32.04-.4.21-.47.96.43.5.56.93-.06.9-.62,1.79-.33,2.69.07.23.55.18.52.55l-.69,1.21.69.26-.35,1.37h.39c.35.05.13,1.17-.56.69.13.81-.68,2.51.69,2.58l-.2,1.01-.49.03c.85.54.44,1.25.17,2.06l.52.09-.86,2.57.69.27c.11.4-.32.65-.34.95-.04.53-.05,1.43.18,1.88,0,.09-.3.07-.32.17-.11.45.42,1.86.14,2.5l.51.09c-.21.34-.18.76-.68.78.6.66-.04.96-.1,1.53-.02.2.2.34.2.44-.01.2-.39.45-.27.78l.34-.09c.06.65-.53,1.1-.73,1.69-.21.63,0,1.56-.65,2.09l.34.16c-.22.47-.22.82-.85.8.16.68-.05,1.4-.87,1.19.13.47-.16.99.52,1.03v.17c-1.26.05-1.56,1.4-2.58,1.55l.17.51c-.38.17-.84-.18-.9.3l-.31-.12.17.51c-.95.62-1.56-.5-1.65-.51-.35-.04-.79.26-1.39.04-.62-.23-1.64-1.16-2.42-1.57-.24-.13-.48-.25-.69-.36-.13-.06-.42.04-.54-.03-.14-.08-.03-.58-.07-.64-.07-.09-.36-.15-.55-.39-.66-.86-.85-2.6-1.69-3.36-.09-.08-.41.21-.46-.5h-.36c-.38-.62.14-1.2.02-1.68-.04-.18-.45-.18-.51-.4-.06-.19.16-.64.15-.99-.02-.68-.47-.81-.5-.91-.08-.3.37-1.15.32-1.34-.05-.2-.46-.19-.51-.39-.24-1.02-.09-2.99-.58-3.8-.04-.06-.26-.02-.27-.04-.06-.09.23-.26.27-.43.05-.21-.09-.45-.07-.52.02-.06.56-.26.49-.69-.12-.32-.5-.07-.52-.09-.07-.12.19-.92.17-1.1-.02-.13-.28-.09-.32-.19-.03-.09,0-1.36.32-1.38l-.33-.16.16-1.13c-.82.57-.48-.71-.33-1.07s1.07-.57-.02-1.09c.21-.52.84-1.53.65-2.06-.04-.11-.32-.02-.32-.33,0-.67.41-1.97.37-2.75l-.36-.18.85-1.56-.32-.14.33-1.3-.51-.08.86-.78c.11-.16-.39-.58-.27-.94.31-.85,1.1-.56.75-2.07-.03-.11-.33.02-.29-.31.07-.6.52-.38.65-.47.05-.04.11-.87.54-1.1l-.51-.42c.71-.05.4-.97,1.03-1.29l-.34-.34.96-.59-.1-.87.69.17v-.86s1.01-.2,1.01-.2c-.21-.58.15-.49.37-.84l-.51-.09c.15-.37.69-.35.83-.46.06-.05-.09-.96,1.06-.66l-.17-.51c.44.22,1.08-.1,1.29-.1.15,0,.26.27.62.21s.21-.59,1.03-.35l.18-.61c.69-.02.89.67,1.41.89.26.11.67-.08.98.3ZM172.84,26.63c-.81-.12-2.28-.06-2.93.44-.06.04-.43,1.08-.56,1.33-.3.57-.57.94-.75,1.54-.29.96-.71,2.04-.91,3.15-.07.41-.02,1.67-.09,1.87-.12.34-.52.64-.58.91-.09.39.21,1,.08,1.48s-.64,1-.7,1.47.32.93.22,1.27c-.16.6-.95,1.95-.8,2.79.06.36.36.6.41.93.02.17-.35,1.65-.27,1.73h.52c.01.39-.05.88-.51.86v.17s.26-.06.31.08c.09.23-.15,2.1-.08,2.56.82,1.22.42,3.18.63,4.29.02.1.74.34.38.96l.31.02-.33.18.17.58-.36.18c.89.84.2,1.24.17,1.72,0,.05.54.22.53.85l-.35.27c.48-.07.2.24.33.6.42,1.16.2.97.26,1.83.07.96,1.02,1.57,1.71,2.16.1.08.32.03.46.17.23.24.28.8.36.9.02.02.35-.12.54,0,.25.15.24.69.72.7.39.01,1.57-.85,1.47-1.37l.68.17c.07-.67.07-1.19.86-1.21l-.15-.43c.31-.19.38-1.01.55-1.41.02-.04.28-.04.3-.15.06-.42-.54-1.09.16-1.53-.78-.23-.05-.6-.04-.99,0-.63-.59-1,.39-1.58l-.86-.51.35-1.46h.68c.03-.42-.19-.62-.52-.78l.35-.77c-1.07-.21,0-.73,0-.79,0-.27-.28-.56,0-.93h-.52c.4-.62-.17-.73-.18-.78-.03-.22.77-2,.84-2.43l-.77-1.61c1.11-.83.29-1.13.29-1.63,0-.37.86-1.61-.35-1.72l.69-.71c.16-.59-.61-.43-.51-.84l.69-.35c-.74-.16.17-.52-.53-.7.46-.8-.18-.71-.18-1.01l.36-.69-.35-.17.53-.53c-.22-.2-.19-1.03-.23-1.07-.06-.08-.32-.09-.39-.2-.24-.38.49-3.4.12-4.41-.1-.28-.4-.25-.38-.32.1-.42.8-1.13-.34-1.12l.19-.59-.37-.2.18-.76h-.52c.28-.62-.11-.59-.35-.94-.12-.18-.13-.53-.2-.57-.19-.15-1.31-.05-.83-.89Z"/><path d="M95.41,23.02c-.4.88.15,1.38.3,2.03.02.1.13,1.93.14,2.08,0,.3-.45.76-.26,1.22h.69c-.15.28-.1.75-.51.69l.34.6-.52.36c.34.67-.13,1.42.7,1.71-.49.81-.13,1.91-.36,2.9l.7.36-.86.43.69.6c-.45.24-.5.85-.69,1.46l.86-.17c-.04.5-.09.96-.51,1.29l.34.17c-.46.5-.18,2.25,0,2.9.06.21.36.04.35.2-.43.2-.78,1.11,0,1.12l-.52,1.03.75-.31.46.48h.34s0-.34,0-.34l.51.34.17-.34.08.32c.44-.28.6-.04.96.19l-.17-.51c.62-.23,1.42.71,1.62.01.83.69,2.28-.18,2.77-.19.27,0,.69.52,1.12.34l-.17-.69c.36.19.91-.01,1.25.17.2.11.01.48.47.34l-.17-.86c.43-.19.29.26.42.31.07.02,1.3.21,1.37.21.06,0,.36-.57.96-.35-.15-.37-.19-.85-.69-.86v-.17c.21.13.63-.76.66-.94.09-.46-.07-1.1-.67-.96-.06-.05.47-.96.49-1.15.02-.22-.27-.4-.31-.66-.05-.38.26-1.11.26-1.37s-.41-.65-.1-1.12h-.69c.77-1.01.49-.77.38-1.68-.04-.37-.19-1.13-.2-1.33-.02-.47.47-.87.51-1.38.03-.31.02-3.35,0-3.59,0-.06-.73-.24-.26-.97.31-.48.37-.01.35-1.12-.02-.84,0-.51.13-1.32.07-.4-.1-.91.17-1.29.21-.29,1.29-.46,1.32-.4.12.27-.23.67.47.93l-.12.96.51-.17-.17,2.06h.52c-.51.92-.1,1.85-.34,2.82l.25.22.43-.12c.16.47-.31.72-.31.77-.16,1.19.38,2.15.42,3.19.03.82-.41,1.32-.09,2.27.05.16.5.12.33.72-.04.12-.31.08-.32.19-.02.29-.14.98-.14,1.03,0,.22.7,1.54.61,1.89-.07.27-.54.15-.5.44l.49.25c-.09.36-.4,1.01-.33,1.35.05.22,1.04.28.04.88l.16.78h.68s-.68,1.3-.68,1.3l.5.1c.27.67-.47.64-.34,1.11.03.11.55-.06.16.67.49.16.34.54.01.88l.35.17c-.85.19.01,1.71-.04,2.03-.06.37-1.16,1.25.38.8.02.92-.79,1.6-.5,2.44.05.14.28.13.31.25.11.39-.32,1.4.36,1.52l-.69.95.34-.09c.14.28-.02,1.4.03,1.55.04.1.3.04.31.19.03.46-.25.37.49.83-.18.51-.17,1.08-.84,1.13-.08.1.46.62.49.8.04.28-.42.41-.32.74l.69-.34c-.09.25-.06.93-.16,1.09-.13.24-.7-.09-.48.54.07.2.57,1.16.61,1.41.06.38-.31,1.83.01,2.73.11.3.37.29.37.34,0,.08-.51,1.26-.58,1.41-.04.08-.45-.02-.27.39.9.05-.09.52-.41.48-.85-.11-.82.08-1.59.06-.44-.01-.72-.24-1.12-.29l-.11-.89c-.67-.32-.08-.8-.22-1.49l-.53-.09.52-.95c-.73-.16-.27-.98-.86-.95v-.17c.11,0,.23.03.3-.09.13-.22.35-1.96.21-2.15l-.34.17.34-2.39-.68-.27c.91-.63-.1-1.18.52-1.81l-.34-.09c.3-.17.56-.93.48-1.21-.03-.1-.26-.07-.27-.11-.07-.19.39-.43-.19-.57.52-.73.04-1.21.02-1.38-.05-.35.06-.93.13-1.29h-.69s.52-.77.52-.77l-.36-.19.1-.77c-.06-.1-.37-.09-.41-.25-.02-.07-.04-1.39.01-1.44.08-.08.38.1.31-.19h-.52s.7-1.62.7-1.62l-.95-.6c-.57,1.17-1.82.6-2.84.33v.69c-.69-.25-1.57-.83-2.15-.34-.3-.94-1.76.15-2.06.16-.27,0-.56-.3-.88-.34-.6-.07-1.03.28-1.71-.19l-.83.51-.8-.48.07.34c-.77,0-.37.37-.5.68-.07.16-.37.29-.39.44,0,.11.26.37.27.68.02.46-.29,1.25-.27,1.52.02.46.61,1.17.58,1.58-.02.36-1.03,1.38.24.94-.16.49.23.96-.51,1.04.05.44.47.56.17,1.02.23.05.53-.44.52.09-.01.57-.04,1.4-.7,1.38-.04.55.51.84.52.89.06.32-.08,1.71.02,2,.09.25.48.23.51.39.07.42-.49,1.45-.49,1.53,0,.21.7.45.58.94-.07.32-.38.43-.41.62-.07.34.31,1.04-.19,1.53.34.29.61.2.5.77h-.69s.17.69.17.69l-.95-.34-.17.35c-.42.06-.77-.61-1.29-.18l-.52-1.38-.26.34c-.34-.27-.4-.72-.41-1.12-.02-.51.45-.84-.2-1.03.18-.58.4-1.63.2-2.22-.13-.4-.46-.33-.52-.54-.16-.49.54-.99-.19-1.19.08-.3.27-.68.19-1-.05-.21-.71.06,0-.54l-.35-.17.33-.17c-.51-1.41.24-2.99.19-4.47l-.52.08c-.17-.64.43-.77.52-1.37h-.51c.2-.3-.13-.6-.11-.77.03-.24.49-1.4.44-1.47-.01-.02-.27.04-.31-.08-.29-.81.03-1.38.07-1.9.02-.22-.37-.56-.39-.86-.03-.42,1.03-.64.11-1.03.48-.33.11-1.03.22-1.35.09-.24.42-.42.42-.54,0-.04-.32-.51-.37-.81-.14-.84.04-1.89.03-2.6,0-.58-.57-1.02.22-1.58.06-.16-.28-.02-.31-.16-.07-.31.43-2.4.31-2.5l-.52-.09.45-1.03-.45-.51.53-.85-.52-.35c.04-.35.59-.56.64-.63.04-.07.06-1.5.03-1.58-.05-.16-.58-.05.01-.97l-.52-.26.51-.7-.35-.34c.68-1.01.41-2.37.7-3.4.04-.15.31-.12.34-.24.1-.5-.28-1.45.17-2.12l1.72.35Z"/><path d="M26.58,22.85l-.34.17.51.26c-.51.49.11,1.66.17,2.25s-.46,2.17.52,1.97c-.42.58-.33,1.33-.3,2,0,.22.24.37.26.52s-.38,1.05-.31,1.51.57.3.55.69c-.03.54-.34,1.29-.28,2.07.02.31.67.64-.09.86v.25s.35.09.35.09c-.59.67-.03.99-.08,1.63-.08,1.06-1.17,2.05.26,2.87.11.61-.55.72-.55,1,.01.51.44.86.46,1.21.03.41-.29.76-.12,1.38.08.3.3.26.33.34.07.23-.34.72-.31.85.05.24.81.17.69.6l.18-.32c.69.32.81-.4,1.45.15l-.09-.34.93.18.38-.51c.3-.09,1.27.44,1.73.45.06,0,1.09-.12,1.15-.13.13-.04.1-.32.22-.34.27-.05.54.17.81.13.11-.02,1.97-.75,2.06-.81.19-.12.08-.34.17-.46.11-.14.38-.15.45-.34.2-.58-.83-1.75.19-2.04-.95-.57-.13-1.38-.17-1.54-.04-.18-.73-.13-.43-.95.23-.63.82-.92.42-1.76-.06-.13-.33-.14-.34-.25-.06-.49.7-1.36,0-1.52l.48-.84-.48-.54.69-.69c-.88-.83-.5-.76-.51-1.72,0-1.77.44-3.05.61-4.75.09-.93-.02-.6-.1-1.28,0-.07.3-.05.34-.19.1-.4.13-1.49.73-1.72.45-.17,1.51.12,1.64.5.21.63-.75,1.22.55,1.59-.63.42-.18.93-.2,1.38-.06,1.16-.29.85.2,1.94.21.47-.1,1.6-.34,2.1h.52c-.11.38-.33.95-.34,1.32,0,.66.11.55.03,1.4-.03.27-.08,1.31-.05,1.5.07.58.73.34.7.52-.48.11-.18.31-.33.52-.1.14-.73.3-.5.67.12.19.45.21.47.35s-.79,1.39.35,1.12l-.69,2.06.68.09-.7.86.05,1.21c.65.15-.2.8-.13,1.31.05.36.5.36.58.6.05.15.02,1.83-.02,1.92-.02.04-.25.06-.29.16-.3.75-.92,2.33.34,2.2l-.31.11c.24.42-.13.28-.22.44-.11.21.01.45-.05.53-.04.06-.26.01-.28.04-.04.06.5.88.17,1.37l.51-.17c.32.76-.46,1.51-.48,2.01,0,.29-.03.95-.03,1.18,0,1.2.37,2.32.27,3.58-.04.42-.02.76-.45.89l.51.09c-.31.8.34,1.04.33,1.11-.02.27-.3.77-.33,1.23-.06.9-.06,1.82-.12,2.7-.03.41.47.89-.22,1.07.55.38.26,1,.35,1.54.07.41.48.65.16,1.3l.69.09c-.2.05-.4.43-.46.44-.56.04-.7-.01-1.4.28-.22.09-.23.75-.99.07-.05-.04-.65-.99-.67-1.05-.26-.67.23-1.34-.61-1.63v-.34c.87-.24-.28-.9-.32-1.05-.08-.26.24-.73.16-1.15-.02-.1-.74-.46-.34-1.37.1-.22.4-.02.34-.3l-.52-.09.36-.19c.09-.41-.34-.88.16-1.18l-.51-.26c.26-.25.16-.64.23-.82.01-.03.41-.1.39-.47-.04-.81-1.21-1.18-.11-1.72l-.86-.26c.16-.34-.02-.9.52-.86l-.34-.25c.92-.82.87-1.49.57-2.64-.06-.23-.34-.52-.34-.64,0-.27.71-.37-.41-.68.48-.09.18-.35.33-.52s.52-.21.55-.36c.11-.62-.94-.93-.18-1.69-.68-.24-.5-1.31-1.38-.86l.18.6c-.55.21-1.06-.69-1.13-.7-.16-.01-1.17.53-1.65.58-.51.05-.98-.2-1.38-.14-.3.04-.3.36-.4.39-.63.16-1.45.04-2.03.08s-1.09.57-1.84-.04c.13.56-.73,2,0,1.89v.17c-.65.01-.61,2.28.17,2.24l-.51,1.12.52.17c0,.46.13.71-.36.85.64.83.18,2-.01,2.91l.7.36-.86.43.51.62c-.3.44-.59.94-.49,1.5.02.13.25.1.28.2.19.73.44,1.71.57,2.41.06.33-.34.12-.36.5-.02.33.08,1.11.09,1.56s.51.51-.25,1.03l.48.66c0,.43-.49.49-.58.63-.13.2.11.48.09.51-.31.5-2.6-.29-2.97-.67-.04-.04-.59-.89-.59-.95-.05-.36.71-.46.47-.95h-.52c.11-.36.39-.94.35-1.3-.04-.4-.42-.34-.49-.51-.16-.38.62-1.26.02-1.32l.12-.31h-.52s0-.17,0-.17c.17.1.82-.97.84-1.11,0-.11-.07-.79-.1-.95-.07-.35-.5-1.13-.53-1.33-.03-.22.29-.39.3-.65.02-.34-.41-.73-.16-1.12h-.52s.2-.85.2-.85l.49-.02c.07-.28-.22-.08-.31-.25-.09-.18.06-.49.31-.52-.89-.36-.3-.78-.22-1.35.05-.34-.3-.73.21-1.06-1.12-.61-.5-.75-.43-1.38.05-.48-.16-1.03.1-1.53l-.35-.18c.33-.52.98-1.05,0-.96l-.09-.69-.61-.07c.07-.38-.34-.5-.35-.53-.02-.28.19-.45.26-.69.03-.11-.13-.37-.08-.41.28-.26.26.37.74-.78.05-.11.3-.05.31-.34.02-.56-.38-.92-.38-1.39,0-.32.3-.23.34-.34.02-.07-.32-1.04-.36-1.08-.29-.24-.85.21.05-.98l-.34-.16.51-1.22-.52-.09.53-1.98-.36-.34c.58-.53-.02-1.65.32-2.41-.6-.18.16-.51-.5-1.01.08-.74.93-1.05.58-2-.06-.15-.36-.29-.36-.42,0-.09.24-1.32.29-1.73.11-.86.43-4.86.17-5.45-.07-.16-.35-.13-.34-.21.02-.1.27-.41.34-.7.11-.51.07-.95.22-1.41.68-.56,2.58-.13,2.37.13Z"/><path d="M229.2,22.93c.73.48.45.33.77,1,.06.13.28.13.29.16.04.1-.14.34-.09.53.13.5.3.96.32,1.49l.5.11-.52.84c.5.54.16,1.4.29,1.78.07.2.35.2.37.3.1.35-.34,1.92-.31,2.23.02.24.34.46.19.77l.5.02c-.72.76-.31,1.08-.34,1.8-.03.68-.61,1.38.34,1.73-.91.75-.4,1.3-.4,2.09,0,.35-.55.86.4,1.09-.26.37-.37.85-.43,1.28-.02.13-.08,1.13-.08,1.19,0,.05.59.23.34.79.44.1.7-.39,1.11-.36.32.03.44.42.78.35v-.52s1.1.16,1.1.16c.35-.12.23-1.48,1.05-.16.18-.35.63-.2.84-.35.2-.14.23-.41.32-.47.05-.03,1.04-.07,1.21-.1.28-.05.44-.31.9-.3.32.01.25.37.34.38.14,0,1.67-.7,2.1-.81,1.24-.33,1.78.2,1.93-1.6l-.47-.03c-.45-.95.31-1.8.64-2.64l-.86-.26c-.06-.43.65-.89.66-.95,0-.05,0-.98,0-1.03-.02-.1-.26-.06-.27-.17-.06-.45-.02-.95.3-1.29l-.36-.25c.4-1.04.39-1.6-.17-2.58.82-.29.23-.99.53-1.64l-.52-.09c.07-.53.69-.83.7-.89.04-.22-.13-.53-.12-.8.03-.56.3-1.09-.06-1.66.91-.35,2.16.07,2.47,1.03.03.09.37,1.79.38,1.88.02.21-.22.35-.22.44,0,.14.56.61.64.86l-.34.09.35.42c.04.56-.32.39-.35.55-.22.92.57,2.6.69,3.42.07.46-.23.73-.28,1.1-.07.56.35,1.01.38,1.3s-.62,1.43.24,1.46l-.34.26c.47.27.12.64.18,1.01.07.42.34.75.3,1.19-.06.69-1.02.32.03.89-.3.27-.59.49-.51.94h.86c-.42.92-1.08,1.53-.85,2.66.08.42.47.51.51.87.06.59-.46,1.34-.25,2.34.09.41.68.52.07.93.71.11-.26.99.51.95l-.7.81v1.59c.17.1.91-.2.87.17-.5-.06-.18.25-.33.57-.05.11-.33.1-.36.24-.06.34.08.97.52.92v.17c-.63-.04-.34,1.03-.42,1.47-.05.3-.36.5-.38.69-.02.18.43,1.26.47,1.54l-.36.18.2.41.83.03c.08.28-.26.12-.29.2-.04.1.06.27-.01.43-.16.36-.65.85-.52,1.35.03.09.2.05.29.22.1.2-.15.65.36.55v.17s-.51.34-.51.34l.86-.17c-.01.65-.33,1.2-.3,1.84.03.7.3,1.38.22,2.1-.07.61-.61.52.42,1.13-.44.57-.68.51-1.2.09-.07.08.32.7-.22.92-.68.28-1.07-.58-1.83-.03l-.11.66c0-.54-.4-.53-.51-.7-.11-.16-.59-2.07-.59-2.33,0-.51.25-1.02.15-1.5-.03-.13-.28-.12-.3-.2-.2-.86.75-2.22-.21-2.75l.34-.52-.69-.26.17-.43-.51-.09.34-.17-.34-.18c.01-.62.64-.47.68-.51.13-.13-.29-1.01-.27-1.29.03-.41.69-.77-.24-.94l.35-.26c-.31-.93-.96-1.82-.36-2.76l-.33-.24h.34c-.56-.67-.19-1.46.18-2.16l-.35-.33.52-.95h-.52s.32-.25.32-.25c-.39-.61.14-.81.15-.86.14-.7-.23-1.26-.25-1.55-.01-.17.25-.37.24-.51,0-.16-.45-.33-.48-.69-.05-.5.46-.66.48-.85,0-.07-.19-.21-.21-.34-.05-.42.36-.51-.35-.78l.09.51c-.85-.2-1.51.87-2.24.17v.69c-.7-.65-1.29.09-1.64.11-.18,0-.42-.29-.68-.29-.09,0-.1.42-.42.45-.23.02-.38-.22-.58-.22-.98,0-2.3.1-3.2.39-.37.12-.89.9-1.12.1l-1.61.54c-.29.52.15.85-.02,1.43-.12.4-.47.12-.36.6,1.18-.4.48.67.17,1.12.23.35.36.22.68.08v1.02s-.52.1-.52.1c.69.37.5,2,.52,2.76,0,.55.42.45-.3.84l.15.6.67.02c-.45.46-.1,1.12-.86,1.12l.52.09-.51,1.29.85.51c-.47.43-.31,1.19-1.03,1.21l.52.09c-.36.97-.25,1.55-.23,2.49,0,.33-.17.75-.12,1.01.02.13.35.1.36.22.03.24-.2.55-.18.84.02.32.11,1.26.17,1.52.05.21.42,0,.35.28l-.32.08c.52,1.29-1.15,3.23-2.49,2.79-.08-.03-.75-.46-.78-.5-.06-.1.11-.32.05-.48-.24-.57-.35-.66-.6-1.42-.05-.15-.34-.13-.33-.2.02-.16.3-.45.3-.73,0-.31-.19-1.4-.11-1.82.04-.18.38-.38.32-.46l-.69-.34c.51-.03.61-.68.86-1.03h-.52s.35-.26.35-.26c.12-.49-.28-.39-.31-.52-.11-.45.4-1.32.3-1.46h-.6s-.08-.34-.08-.34l.84-.6c-.04-.6-.78-.64-.58-1.83.06-.33.55-.49.25-1.01l-.51.17c.11-.73-.41-1.36.34-1.81l-.35-.19c.16-.74.46-1.66.31-2.43-.17-.87-.95-1.31.22-2.2l-.85-.52c.14-.71.63-.21.86-.6l-.68-.45c.64-.72.25-.69.26-1.01.01-.51.2-1.2.08-1.7-.03-.13-.35-.12-.34-.19.02-.17.36-.57.35-.85,0-.1-.41-.11-.45-.43-.05-.42.52-1.26-.25-2l.34-.18c-.21-.99.38-1.91,0-2.99l-.86.09c.27-.13.28-.65.39-.74.12-.1.43,0,.47-.04.15-.14-.74-2.09.17-2.06.08-.3-.29-.11-.34-.17-.05-.05.6-.98.33-1.37h-.5c.37-.66-.33-1.48.35-1.99l-.35-.19.36-1.01-.35-.09.32-.25c-.52-.84.38-1.14.38-1.22,0-.24-.3-.47-.3-.68,0-.17.25-.4.25-.68,0-.58.11-1.87-.48-2.07.09-.49.55-.38.64-.47.14-.13.08-.52.2-.71.17-.27.78-.14.72-.62.08-.05.32.17.43.24Z"/><path d="M72.46,22.91c.45.45.79,1.77.89,2.43.03.23-.14.7-.09,1.07s.31,1.34.81,1.08c.16.49-.39.66-.48.98-.08.26.21.7-.2.99l.6.26.26-.35c.39.88-.56,1.96-.47,2.52.09.6.15.41.13,1.16,0,.11.41.12.44.43.02.28-.37.99-.2,1.73.09.38.56,1.06.56,1.12,0,.11-.59,1.03-.46,1.52.03.12.29.1.3.14.08.18-.42.43.21.57-.12.1-.26.23-.3.39-.05.2-.2.87-.2,1,0,.08.26.07.27.1.3,1.42.08,1.19-.03,2.54-.04.52.38.9.39.95.04.28-.12,1.02-.31,1.29.2.22.74-.62.77-.69.13-.34.04-.92.12-1,.06-.06.38,0,.57-.2.04-.04.57-.91.58-.97.05-.26-.29-.51-.28-.66,0-.06.66-.8.75-.98.06-.13.22-.4.23-.42.16-.56-.19-1.46.87-1.43l-.15-.83c.31-.12,1.08-.63,1.23-.89.09-.15.1-.53.23-.81.09-.2.37-.21.4-.34.07-.35-.09-.83.02-1.15.11-.3.48-.2.62-.33.1-.09,1.21-2.17,1.23-2.3.04-.32-.62-.42.04-.82.57-.34.54.19.4-.96l.76-.19c.17-.44.16-.65-.14-1,1.03-.14.81-.76,1.14-1.36s.98-.67.59-1.3l.67-.35-.34-.52c.42-.29.98-.83.68-1.29l.48-.03c.21-.32-.07-.62.33-.79,1.68-.74,1,1.7.96,2.5-.01.22.27.37.23.57-.07.36-.79,1.53-.91,2.18-.09.48.47.85-.54.93.28.65-.48.54-.23.99l-.31.2.32.02c-.04.87-.53.57-.66.68-.04.03.15.55-.01.89-.12.25-.71.86-.91,1.34-.15.37.15,1.13-.62,1.22l.33.59c-.66.13-.35.75-.55.91-.47.36-.82-.01-.66,1.23h-.5c.48.67-1.09.89,0,1.47-.19.47-1.04.93-1.12,1.11-.09.21.3.45-.24.61l.14.41c-.55.17-.72.33-.5.88h-.52c.52.63.25.9-.52.94l-.16.2.17.66-.35.1.34.6c-.12.23-.52.22-.69.36-.15.11,0,.28-.07.38-.03.05-.22.04-.24.13-.1.45.72.76-.19.97-.08.11.22.54.13.88-.12.49-1.12.77-1.01,1.07.27.72,1.05.12,1.35.29.19.11.23,1.03,1.06.49.03,1.21,1.27.7,1.64,1.55.19.42-.1.8-.08.84.08.12,1.02.44,1.23.55.82.45.55.53.93,1.19.3.53.65.08,1.02.32.57.37.6.97.43,1.57.7-.36,1.19,1.49,1.47,1.55l.6-.35c.09.54.25.76-.17,1.2.8-.09.74.56,1.03.9.12.14.77.76.81.87.26.71-.37.93.92.81l-.33.41c.67.78.75,1.97,1.18,2.78.35.65,1.03.8.7,1.62l.41-.15.45.76-.33.15c.28.76.24,2,1.36,1.82v.17c-.28-.21-.49.94-.5,1.13,0,.07.29.04.33.19.05.19-.05.46,0,.62s.28.12.31.21c.06.17-.37,1.01-.49,1.21l.34.16-.83.63.15.31c-.82-.04-.7.18-1.04.41-1.17.82-.72-1.03-1.54-1.53-.26-.15-.67.45-.62-.66.01-.32.27-.68.18-.98s-.64-.74-.81-1.08c-.38-.76-.76-2.18-1.06-2.91-.11-.27-.29-.51-.28-.82l-.51.34c.1-.43-.13-.83.34-.94l-.71-1.44-.84-.02.15-1.01-.65-.21c.23-.8-.11-1.17-.74-1.64-.06-.05-.32.02-.5-.11-.87-.66-.69-1.59-1.44-2.04-.35-.21-.58.04-.6.02-.09-.1.05-.98-.26-1.03l-.6.34c-.09-.49-.61-1.19-.96-1.54-.17-.17-.86-.42-1.05-.73-.06-.11.11-.41-.14-.65-.32-.31-.67-.67-1-.98-.4-.38-1.61-.94-2.17-1-.22-.02-.22,0-.35.18.23.54-.12,1.2.67,1.2-.12.34-.02.59-.51.61l.34.34-.35.11c-.23,1.5.5,2.86.18,4.35h.51c.07.4-.46.61-.46.95,0,.25.46.96.39,1.39-.04.21-.41.31-.44.67-.06.66,1.64,1.16,0,1.47l.32.25-.7,3.17c-1.1.02-2.97-.64-2.38-2.04h-.52s.52-.86.52-.86h-.52s.34-.43.34-.43l-.26-.26-.43.17.34-1.89-.86-.19c-.04-.82.77-.9.68-1.7h-.86c-.07-.29.28-.09.32-.25.01-.04-.13-.33-.08-.52.1-.34.33-.67.38-.9.16-.78-.4-1.74-.38-2.55,0-.44.33-.94.1-1.67-.04-.14-.65-.35-.48-.73.05-.12.35-.05.31-.17-.1-.32-.45-.93-.49-1.04-.08-.23.33-.82.32-1.02,0-.09-.46.03-.37-.7.04-.33.34-.23.36-.37.04-.21.1-1.17.14-1.55.03-.29-.36-.5-.41-.73-.06-.26.26-.47.23-.76s-.41-.67-.41-1.06c0-.54.51-1.5.28-2.23l-.53-.1.12-.31-.26-.11-.03-1.29h.51c.1-.38-.3-.83-.28-1.12.03-.54.55-.37.2-1.64-.32-1.16-.06-.46-.09-1.27-.01-.3-.44-.82-.52-1.04-.05-.14.42-.09.49-.35.03-.12-.12-.42-.1-.63.01-.22.17-.96.13-.99-.05-.05-.64.2-.67-.61,0-.07.27-.04.32-.2.18-.6.35-1.77.16-2.35-.1-.28-.7-.15-.41-1.13.13-.46.92-1.2.09-1.46.52-.42.08-.65.09-.96.02-.47.33-.88.35-1.11.03-.4-.39-1.51-.33-1.94.15-1,.98-2.61,2.07-1.52Z"/><path d="M58.28,22.14c.11.07.37-.17.58,0,.21.18.23.58.42.8.15.19.46.24.6.44.3.41.2,1.07.39,1.5.14.32.63.05.23.72h.52c-.58.85-.1,1.09.19,1.88l.32-.16c.42.42.15,2.03.22,2.21.04.09,1.71,1.3.3,1.23-.09,1.15.98,1.94.69,2.92h.52c.18.66-.67.9-.51,1.44.04.14.32.1.32.19-.04,1.44.05.85.33,1.95.13.53-.48,1.33-.2,2.29.2.69.56.29.58.33.17.29-.43,1.25.17,1.62.11.07.34-.09.35-.08.2.31-.31.95-.3,1.26.03.62.7.9.13,1.66.99.1.16.99.42,1.38.23.36,1.31.48.1,1.12l.34.19-.15,2.54.67.29c-.24.33-.02.85-.08,1.11-.12.51-1.02.93.24,1.13l-.14.59.32.25-.32.08c.41.89-.42,2.73.14,3.46.12.15.44.18.5.28.02.03-.06.62.12.82-.79.68-.22.43-.15.55.05.08-.24.25.2.39l-.11.4.32.13c-.19.82-.42,2.22-.32,3.06.12,1.01.76,1.89.59,2.88-.05.29-.37.32-.5.55-.14.25-.18.79-.21.82-.21.23-.94.36-1.2.68-.26-1.07-1.74-.88-1.29-2.06l-.33.16c-.22-.55-.55-1.16.16-1.45l-.63-.68.28-.87c-.76-.23-.32-1.02-.4-1.7-.01-.1-.17-.91-.19-.98-.15-.45-.88-.37-.09-1.11l-.51-.26.51-.17c.01-.4-.55.11-.51-.43.03-.51.33-.6.68-.86-.05-.27-.64-.59-.65-.63-.03-.09.24-.67.14-1.06-.03-.13-.61-.11-.17-.97l-.51.17c-.2-.55.46-1.2.18-1.6-.1-.15-.38-.09-.35-.2.07-.23.52-.54.48-.83-.05-.36-.53-.74-.59-.86-.33-.71.08-1.02.03-1.34-.05-.29-.43-.79-.46-1.18l-3.06.34-.02.67c-.85.34-1.55-.55-2.16-.53-.47.02-.83.55-1.52.17-.51,1.25-1.4-.48-1.92.7l-.68-.36c-.59.48-.17.77-.17.95,0,.7-.55,1.98-.63,2.59-.09.73.32.57.36.71.05.19-.98,2.62-.64,3.29.02.05.87.44-.05.56l.34.25-.53,1.2.34.1v.25s-.49.28-.49.28c.34.54.03.98,0,1.46-.01.25.15.49.14.68-.04.57-.85,1.2-.15,2.05l-.52.27.35.6-.35.26.34.09c-.8.52-.94,3.23-2.11,2.98-1.42-.31-.53-1.64-.4-2.52.07-.48.2-1.21.24-1.48.11-.86-.22-2.27-.48-3.11l.34-.25h-.34c.57-.81.67-1.71,0-2.49l.69-1.55-.51-.17c.54-.43.2-.99.25-1.38.03-.22.21-.4.24-.68.04-.33-.46-.55.19-.7l-.52-.17c.82-.67.11-.99.17-1.54.02-.2.17-.86.23-1.19.05-.3.69-.51-.05-.71l.52-1.55c-1.12-.07-.08-1.2.17-1.73l-.35-.17c.51-.52.88-1.19,0-1.55l.34-.26-.34-.09c.84-.75.43-1.78,1.2-2.58l-.49-.33c-.07-.38.42-.61.43-.65.02-.05.17-.86.17-.91,0-.22-.3-.38-.22-.79.07-.32.44-.34.43-.41-.02-.21-.32-.69-.29-.88.03-.18.43-.16.48-.37.15-.6-.02-1.54.17-2.18l-.35-.28c.6.02.9-1.38.35-1.45.39-.35.1-1.12.19-1.36.09-.26.48-.23.51-.39.1-.57-.74-1.35.5-1.87l-.51-.76.86-.61c-.97-.74.14-.78.31-.98.32-.39.15-1.41.25-1.72.11-.36.83-.91.92-1.32.08-.36-.72-.39.41-1.3.39-.31.76-.38,1.08-.6.54-.37.89-1.08,1.67-.87v-.5c.52-.04.92.32,1.36.42.17.04.44-.12.6-.06.24.09.23.4.32.47ZM56.67,24.76c-1.04-.17-.87.63-1.53.85.74.73-.23.58-.43,1.02-.13.27.61,1.42-.43,1.56l.51.51c-.91.14-.47,1.25-.7,1.93-.03.09-.61.68-.67.91l.34.08c0,.48.18.82-.34.95l.22.09c.4.41-.12.74-.57.69l.16.61-.33.16.35.51-.52.26c-.07.29.22.1.31.2.04.04-.11.21-.08.28s.42,0,.29.64l-.53.18c.15.6-.11,1.19-.14,1.73-.04.66.18,2.26.13,2.73-.17,1.3-.81,2.83-.95,4.16-.04.37-.01,1.24.38,1.43l-.09-.51c1,.2,2.06.08,2.98-.34.11-.05.09-.34.22-.35.2-.02.45.16.67.15,1.04-.05,1.31-1.44,2.41-.32l.28-.66c.62.05,1.28-.47,1.61.32l.4-.95-.83-.25s.17-.28.15-.43c-.05-.54-.25-1.38-.28-1.93-.03-.45.21-.96-.08-1.39l-.48-.03c-.1-.38.43-.69.45-.94,0-.05-.13-.96-.14-1.03-.02-.1-.27-.07-.3-.21-.11-.53-.27-1.35.34-1.51v-.25c-.09,0-.24,0-.29-.06-.22-.28-.06-2.31-.1-2.92-.02-.37-.51-.47.04-.98l-.48-.03c.09-.45-.33-.7-.33-.74-.06-.39.1-1.06.04-1.32-.12-.51-.8-.69-.08-1.52h-.52s.15-.76.15-.76l-.67-.27.17-.51-.51.17c.05-.73.22-1.21-.19-1.88Z"/><path d="M219.62,23.05c.08.92.03,1.51-.23,2.43-.31,1.1-.82,2.02-1.18,3.17,0,.03-.33.06-.37.35-.11.78.48,1.52-.55,2.39-.26.28-1.05,1.56-1.09,1.85-.08.53.55.04.52.43-.52-.07-.09.33-.44.5l-.49-.14-.23.23v1.76c-1.19.44-1.25,2.97-1.45,3.27-.1.15-.77.53-.91.91-.09.24.09.46,0,.67-.08.19-.44.37-.58.63-.16.31-.93,2.2-.89,2.38l.51.09v.34c-.69.02-.49.53-.57.65-.06.1-.51.61-.57.76s.26.29-.4.56l.68.26-.34.51c.96-.15.75.88.88,1.01.05.05,1.06.18,1.35.46.19.19.13.5.21.56.05.05.9.22,1.25.55.12.11.11.43.27.6.18.18.59.18.66.29.18.29-.17.65.72,1.07.15.07.36-.1.47-.04.07.04.98.83,1.22,1.02.03.02-.12.42.08.78.46.8,2.11,1.09,1.66,2.29l.86-.34v.75s-.34.2-.34.2c.23.83,1.35.99,1.04,1.79l1.2.53-.34.34c.83-.03.67,2.07.86,2.24l.69-.17c.42.78-.1,1.99.68,2.31l-.32.7.5.42c-.56.31-1.16.94-1.67,1.38-.3.26-.75-.05-.56.86-.74-.12-.87-.51-1.03-1.2l-.26.34c-.78-.41-.41-.9-.55-1.33-.02-.07-.44-1-.53-1.19-.12-.26-1.06-1.41-1.05-1.51,0-.2.25-.5.14-.78-.87-.02-.86-.26-1.01-1.02l.32-.19h-.52s.17-.86.17-.86h-.51c.23-.54-.42-.63-.75-1.07-.38-.52-.4-1.25-.74-1.67-.45-.55-1.62-.75-1.63-1.9l-.18.34c-.68-.17-.71-.59-.51-1.2l-.69-.09c-.35-1.06-1.34.68-1.56-.94-.49.39-1.31-.41-1.44-.85-.04-.15.11-.34.04-.49-.15-.32-1.43-1.14-1.86-.9.12.44-.04.84.14,1.31.1.27.39.24.38.32-.03.12-.27.29-.31.56-.06.39,0,1.74.65,1.43l-.52,1.89h.69c.07.29-.25.09-.31.25-.18.44.28,2.51.14,3.08-.04.18-.42.06-.35.2.46.28.76.43.51,1.03l.34-.08c.15.68-.45.63-.69,1.03.68-.19,1.33.6.52.69l.34.51c-.57-.07.06.41-.51.35l.29.43-.3.6.69.26c-.04.49-.67.4-.69.52-.06.34.07,1,.52.94l-.34.17c.49.38.22,1.82-.34,1.89l.33.43-2.15,1.29c-.12-.56-.38-.13-.69-.32-.57-.35-.94-2.44-.94-3.06,0-.39.3-.58.3-.66,0-.14-.38-.29-.41-.5-.05-.38.47-1.04-.41-1.13.23-.51.82-2.13,0-2.23l.34-.34-.51-.17c.63.09.08-.28.2-.49.03-.05.25-.01.29-.11.02-.04.05-.91.02-.95-.02-.03-.35.2-.68-.18-.16-.43.41-.41.49-.53.07-.11-.14-.39-.12-.57.05-.56.24-1.54,0-2.08-.16-.35-.47-.38-.51-.51-.09-.28.38-1.22.31-1.29l-.52-.09c-.14-.84.5-1.12.5-1.19,0-1.47-1.07-3.45-.16-4.67l-.33-.33c.51-.45.19-1.48.23-2.04.02-.28.45-1.55.12-1.74l-.52-.09.53-.94-.37-.18c.68-.76-.52-1.98.36-2.39-.34-.57-.67-2.61.17-2.68l-.32-.25c.15-.76.07-1.65.18-2.42.08-.6.49-.33-.21-1.2l.35-.34c-.63-.55.1-.87.15-1.42.03-.37-.24-.49-.27-.67-.07-.49.59-1.45-.4-1.26-.02-.46.66-.65.69-.69.05-.06-.28-.41-.31-.63-.05-.39.15-1.5.15-2.03,0-.67-.23-2.01-.17-2.56,0-.07.92-.55.69-1.13l.6.34.17-.34c.47.77,1.15,1.28.8,2.32l.49.08-.18,1.97.53.09c.06.06-.36,1.3-.34,1.62,0,.09.56.15.34.62l-.52.09.6,3.34c-.44.65.15,1.38.19,1.82.04.5-.89,1.43.42,1.47.02.5-.65,1.25-.65,1.59,0,.31.25,1.53.64,1.57-.16.54-.68,1.34-.25,1.82.18,0,1.39-.86,1.46-1,.17-.35-.07-1.12.51-1.5l-.35-.17.03-.32c.15-.46.63-.35.8-.48.07-.06.17-1.4.54-1.75.2-.19.5-.09.53-.11.03-.03-.18-.6-.14-.91.05-.45.45-.44.54-.68.12-.32-.02-.81.24-1.29.18-.32.62-.44.81-.92.25-.63.28-.83.6-1.5.19-.4.28-1.11.45-1.41.2-.32.5-.27.6-.35.22-.18-.53-.09-.34-.43l.91-.66-.22-.63.69-.18-.51-.51c.62.02.44-1.22,1.2-.86-.08-.77.78-2.75,1.26-3.22.09-.09.48,0,.55-.39l1.1.72ZM207.94,42.45c.33.07.46-.22.68-.43l-.25-.25-.43.68Z"/><path d="M197.9,25.55c-.07.1-.35,0-.29.14l.69.95-.52.09c.67.17.09.21.05.65-.05.52.15.98.15,1.42,0,.32-.33.16-.38.5-.17,1.24.49,1.19.5,1.59-.16.48-.65.65-.49,1.26l.52.09c-.4.09-.5.66-.49,1.04.01.55.71,1.52-.04,1.72.68.73-.07,1.6,0,2.23.06.5.66.6,0,1.38l.51.34c-.31.78-.55,2.27-.33,3.07.06.21.37.04.35.2l-.31.11.11.29-.48.37h.69s-.29,2.02-.29,2.02c-.92.61,0,.68-.05.98-.05.36-.45.51-.47.68-.03.28.31,1.75.29,2.23-.01.27-.25.46-.25.8,0,.7.63,1.19.27,1.93-.06.12-.36.11-.36.22,0,.31.66,1.49.53,2.05l-.52.09c.31.72-.51,2.07.18,2.32l-.53,1.46.69.09c-.03.54-.46.68-.65,1.08-.11.25-.49,2.37-.38,2.44l.52.08c-.09.74-.88.67-.87,1.37,0,.23.19.51.16.69-.04.19-.64.3-.64.72l.5.49c-1.06.58-1.08.88-1.38,1.98l.52.17c-.41-.05-.17.17-.44.49-.38.43-1.11.78-1.12,1.38l-2.64.36c-.63-.38-1.54-.55-1.82-1.36l-.34.51-.43-.17.07-.79-.24-.24-.41.15c-.07-.05-.35-1.31-.55-1.6s-.66-.41-.77-.62c-.12-.24.16-.56.09-.66-.18-.26-.77-.65-1.05-1.28-.27-.6-.59-2.41-.66-2.52-.02-.03-.28.29-.54-.22-.53-1.04.16-2.66-.24-3.23-.08-.12-.39-.12-.43-.28-.1-.41.31-.81.29-1-.02-.28-.52-.67-.11-1.29l-.63-.26c.16-.24-.05-.75-.03-.86.02-.09.23-.07.26-.18.49-1.37-.41-.7-.16-1.61l-.31-.11.52-.6-.68-.52.51-.77c-.91-.37-.34-.76-.41-1.36-.03-.24-.41-.96-.44-1.23,0-.07.25-.07.31-.22.2-.45.46-1.62.24-2.05-.11-.22-.4-.22-.41-.31-.03-.48.56-2.32.53-3.26-.02-.58-.42-1.05-.37-1.72.02-.26.87-.62.02-1.45l.34-.09-.32-.34c.64-.6,1.1-1.27-.02-1.55.71-.15-.02-.89.69-1.03l-.69-.52.7-.54-.53-1.09h.34s-.34-.26-.34-.26c.58-.52.38-.98.52-1.63h-.52c.74-.66.28-1.28.38-1.77.04-.22.35-.42.44-.86.07-.38-.19-.9-.13-1.21.02-.13.3-.09.32-.19.08-.43-.34-1.09-.32-1.37,0-.11.29-.1.35-.22.87-1.58.87-1.87,2.43-.46-.27.75.06,1.3-.37,2.03l.53.36-.17.43-.34-.17c0,.95-.02,1.3.84,1.8-.12.46-.25.65-.67.87l.35.19c-.24.61.1.87.16,1.44l-.52.08c.43.38.17.8.17,1.29h.49s.03.77.03.77l-.53.09c.31.56.21.91-.17,1.37l.33.07c-.55.71.11,1.09.15,1.22.15.51-.83,2.74.56,2.67-.21.33-.23.89-.69.86v.34s.51.43.51.43c-.9.35-.34.73-.41,1.21-.03.21-.39.33-.4.51,0,.08.23.23.22.34-.02.49-.44,1.25.42,1.47l-.34.51h.52c-.12.38,0,.67-.52.69.57.5,0,.61.03.91.01.18.26.37.28.58.01.09-.5,1.65-.31,1.77.43.29.24-.41.51-.34.15.81.02,1.67-.34,2.4l.5.02.02.59-.52.17c.1.37.6.92.64,1.23.09.74-.01,1.95.08,2.68.06.43.44.9.31,1.42l.34-.09c.1.31-.26.4-.28.6,0,.06.2,1.19.22,1.25.03.08.55.62.57.69.43,1.46.32.92,1.04,2.06.66,1.05.25,2.17.44,2.45.08.11.34.13.38.21.02.03-.2.32.26.57.21.11,1.16.27,1.33.16.59-.4.32-1.29.46-1.76s.53-.89.64-1.33c.1-.4-.1-1.38-.05-1.44.05-.06.34-.07.41-.18.2-.31-.06-1.29-.06-1.47,0-.52.21-1.04.02-1.56l.47-.34c-.41-.58-.32-1.31-.18-1.97h-.52s.52-.95.52-.95l-.34-.09v-.34c.7.02.11-1.26.52-1.8l-.35-.18c.64-.49,0-1.24,0-1.55,0-.27.33-.43.34-.69.01-.4-.6-1.25,0-1.98l-.52-.09c-.08-.41.16-.56.52-.6l-.34-.25c.61-.77-.06-1.64.34-2.5l-.52-.09c.92-.77.2-2.03.33-2.73.02-.12.33-.09.35-.22.06-.45-.03-1.43-.17-1.86l.36-.19c.05-.82-.73-1.97,0-2.57l-.34-.17.34-.52-.51-.26.34-.68-.52-.26c.12-.67,1.02-.14.61-.96l-.61-.16c-.07-.28.24-.12.28-.2.04-.08-.04-.22,0-.31.09-.17.35-.32.36-.43.01-.13-.57-.76-.48-1.38.06-.41.3-.59.34-.87.17-.95-.14-1.79.18-2.74.17-.5-.51.15-.35-.35.19-.59.57-.49.66-.63s-.26-.91-.23-1.01c.1-.39.7-.52.1-.94l.51-.26-.34-.68,1.88-.36v-.5c.68.33.74,1.1.98,1.71.14.36.64.54.18,1.16Z"/><path d="M129.97,22.88l.02.48h.51s-.34-.68-.34-.68c.81-.21,1.11.35,1.6.57.27.12.49-.04.6,0,.04.02.31.47.65.45l-.09.5c.24.17,1.03.28,1.15.41.25.26.1,1.01,1.08.64-.5.64.1,1.45-.33,2.11s-1.73.52-2.25.03c-.2-.19-.11-.55-.28-.6-.44-.13-1.03.25-1.19.53-.31-.23-.88-.77-1.24-.83-.07-.01-1.28.15-1.34.18-.13.05-.36.57-.79.73-.22.08-.84,0-1.16.16-.09.04-.09.35-.28.39-.26.05-.52-.32-.85.24-.1.17-.77,1.45-.84,1.51-.09.08-.39-.01-.44.05-.06.07-.02.57-.12.84-.26.67-1.3.9-.93,2.07h-.68c.05.58-.32.77-.49,1.16-.13.29.17.82-.38.73l.32.25-.49,1.3.34.08c-.32.16-.39.77-.56.9-.35.28-.83.15-.64,1.13.01.06.6.34.26.97-.25.48-.75.25-.96.35-.06.03-.03,1.21.35,1.11l-.86,1.2.51.51c-.03.2-1.02,1.62-.17,1.12l-.08.88-.61.24.67.45-.67.75.51.51-.32.71-.52-.1.17,3.61h.69s0,.86,0,.86h-.69c.28,1.04,1.27.96,0,1.98.68.22.43,1.1.63,1.76.07.22.36.18.39.32.04.2,0,.97-.33.75v.17c.12,0,.29.02.36.12.21.31.29,1.37.41,1.78.1.35.91,1.2.91,1.28,0,.11-.42.39-.29.59.01.02.23,0,.27.06.16.25.51.63.53.67.03.05-.14.88.24,1.15l.67-.16-.34.25.2.41.82.04.03.66,1.09.37.44-.53c-.04.5.51.4.86.61.13.08.15.41.28.43.31.04.52-.29.68-.3.13,0,1,.32,1.38.25l.17-.49c.5-.1.83.61,1.03.52l.37-.53c.41.03.96.31,1.35.27.5-.05.54-.75,1.02-.61.59.88,1.09,1.51,1.06,2.63,0,.11-.12,1.02-.14,1.07-.06.15-.72.3-.49.95-.04.08-1.62-.19-1.81-.19-.49,0-.69.59-1.2.01l-.17.35c-.99-.27-3.41-.52-4.49-.44-.17.01-.31.32-.42.27-.03-.02-.22-.56-.38-.63-.08-.04-.28.09-.46.02-.29-.13-1.26-.71-1.33-.72-.21-.04-.48.15-.93.06-1.15-.23-.61-1.77-1.88-1.31-.18-.14-.17-1.15-.24-1.33-.2-.53-.78-.82-1.08-1.06-.11-.09-1.19-2.34-1.24-2.51-.04-.14.11-.51.03-.78-.18-.56-.25-.8-.36-1.48-.02-.16.17-.37.12-.4l-.5.16-.34-.62.49-.75h-.52s.17-.69.17-.69h-.69s.16-.62.16-.62l-.33-.07c-.08-.28.27-.1.31-.25.12-.39-.35-1.04.38-1.38l-.86-.78c.58-.49-.11-1.04.52-1.46l-.36-.33c-.07-.4.47-1.22.33-1.55-.05-.13-1.25-.78.03-.78l-.51-1.12.51-.09-.51-.43c.71-.55.02-1.16.08-1.89.06-.69.42-1.09.54-1.58.08-.36-.1-1.2-.04-1.34.14-.36.6-.36.64-.55.06-.27-.13-.59-.1-.83.04-.39.69-.41-.25-.85l.69-.86-.35-.17v-.34c.99-.32.52-1.49.72-2.04.09-.26.42-.27.56-.46.16-.22.11-1.06.23-1.32.2-.43.58-.46.74-.7.34-.5,1.01-1.77.85-2.35-.05-.18-.28-.07-.34-.11l1.2-1.64c-1.12-.65.41-.77.65-.98s-.15-.75.38-.65l-.51-.35c-.13-.19,1.16-1.27,1.37-1.51.41-.47.15-.9.87-.55l-.17-.34c.61-.13.72.07,1.13-.39.33-.37.23-.31.75-.74.42-.34.5-.93,1.39-.76l-.17-.34c1.18.56,2.1-.79,3.1-.34v-.52s1.19.37,1.19.37Z"/><path d="M18.73,22.27c.79.53,1.57,1.06,1.62,2.1-.64.71-.67.34-1.32.48-.35.07-.33.34-.63.43-.44.14-1.54.15-2.16.26-.16.03-.76-.22-.59.24.06.16.4.16.09.43-.44.39-.57,0-.77,0-.7-.04-.19.35-.34.6-.02.04-.58.58-.61.6-.14.08-1.16.38-1.32.48-.62.43-.7,1.43-.76,1.48-.11.08-.44-.05-.63.05-.26.15-.36,1.17-1.02,1.64-.2.15-.58.13-.84.37-.43.4-.23.88-.3,1.01-.15.24-1.33,1.07-1.44,1.28-.16.31-.17,1.36-.49,1.84-.26.39-.6.26-.74.38-.03.02.08.23.03.31-.28.48-.65.36-.06,1.03l-.3.03.08.23-.47.09.35.27c.05.83-.61.73-.72.87-.05.07-.43,1.47-.49,1.7-.01.05.52.23.34.77h-.52s.17.59.17.59c-.54.21-.37.51-.44.62-.14.21-.53.2-.4.92.02.12.27.1.32.24.22.63.04,1.44-.67,1.59.6.89-.11,2.17-.18,3.17l.52.09c-.15.28-.1.75-.52.69.55.48.05.64.06.94s.47.86.11,1.46c.62-.09.57.1.5.67l-.5.1c.59.6-.22,2.56,1.03,2.5l-.16.44.33.16c-.56.77-.52,1.35-.17,2.21.5,1.23.81,2.77,1.49,3.9.29.48,1.12,1.3,1.37,1.78.11.21.01.49.08.6.11.17,1.4-.05,1.18.89l.51-.34c0,.96.87.31.69,1.37l.34-.34.03.31c.57-.24.62.23.96.34.41.13,1.13-.25,1.59.03v-.52s1.44.36,1.44.36c.41-.9.66-.32,1.22-.36.47-.03.77-.75,1.28-.53v-.5c1.13.21.75.59.97,1.02.35.7.87.84.16,1.9-.31.46-1.07.38-.48.95l-.29.35-.61-.27-.37.53-.75-.19-.17.61-.86-.09.17.51c-.78.02-1.37-.44-2.15-.52-.48-.05.14.6-.34.34-.6-.32-.88-.16-.92-.19-.08-.05-.06-.32-.27-.43-.28-.15-1,.09-1.35.06-.75-.07-.85-1.08-1.83-.48l-.37-1.17c-.27-.05-.6.06-.85-.09-.16-.1-.74-1.3-.88-1.43-.03-.03-.39.18-.74-.39-.23-.37-.2-.75-.36-1.02-.15-.26-.5-.28-.61-.46-.47-.79-.59-1.53-1.11-2.29-.16-.24.25-.63-.77-.94l.51-.6c-1.03-.12-.02-2.26-1.2-2.07.42-.44.26-.66.17-1.2l-.51.17c-.47-.98.65-1.98-.34-2.67l.02-.24.32-.02-.32-.43.49-.6h-.69s.35-1.2.35-1.2H.25c.27-.41.05-.78.11-1.17.04-.23.33-.48.34-.64.01-.26-.43-.61-.41-1s.39-.68.42-.92c.01-.09-.01-1.33-.02-1.53-.03-.46-.65-.59.21-1.03.14-.39-.31-.47-.3-.5.09-.7.61-1.29.07-2.18.66-.41,0-.9.61-.84.08-.29-.33-.08-.36-.27-.1-.73.52-1.15.54-1.22.06-.32-.18-.6-.18-.82,0-.05.52-.26.62-.79s-.17-1.16.24-1.77c.13-.19.37-.07.46-.16.07-.07.55-1.6.62-1.85.1-.32.28-1.45.32-1.52.07-.11.47-.09.63-.24.22-.21-.14-.74.55-.91l-.34-.17c.34-.32.43-.88.69-1.21.45-.59,1.77-.94,1.03-1.71l.3-.12-.13-.31c.88.08.98-.66,1.55-1.12l-.34-.25,1.37-.52-.34-.43c.49-.13.12-.35.43-.6l.59.17c.06-.26.34-.94.51-1.09.23-.2.54-.07.71-.19.29-.21-.11-.87,1.03-.61v-.78c.39-.15.85-.09,1.24-.27.17-.08.59-.74.9-.78.22-.03.52.19.84.08.28-.09.31-.58.57-.65.44-.12.74.58,1.02-.55.53.17,1.38-.02,1.87.18.4.16.37.37.5.46Z"/><path class="cls-1" d="M207.94,42.45l.43-.68.25.25c-.22.21-.36.5-.68.43Z"/></g></svg>