<?xml version="1.0" encoding="UTF-8"?><svg id="Layer_2" xmlns="http://www.w3.org/2000/svg" viewBox="0 0 289.48 107.99"><g id="chakchouka"><path d="M34.62,20.88l-.36.18.54.27c-.54.52.11,1.76.18,2.39s-.49,2.31.55,2.09c-.45.61-.36,1.41-.32,2.13.01.23.26.4.28.55s-.4,1.11-.33,1.61.6.32.58.73c-.03.58-.36,1.37-.3,2.2.02.33.71.67-.09.91v.27s.37.1.37.1c-.63.71-.03,1.05-.08,1.73-.08,1.13-1.24,2.18.27,3.04.11.64-.59.76-.58,1.06.01.54.46.91.49,1.28.03.44-.31.81-.12,1.47.09.32.32.28.35.37.08.25-.37.76-.33.91.06.26.86.18.74.64l.19-.34c.73.34.86-.43,1.54.16l-.09-.37.99.19.4-.54c.31-.1,1.35.47,1.84.48.06,0,1.16-.12,1.22-.14.14-.04.11-.34.24-.36.28-.05.58.18.86.14.12-.02,2.09-.79,2.19-.86.2-.13.08-.36.18-.48.11-.15.41-.16.48-.36.21-.62-.89-1.86.2-2.17-1.01-.61-.14-1.47-.18-1.64-.05-.19-.78-.13-.46-1.01.24-.66.87-.98.44-1.87-.07-.14-.35-.15-.36-.26-.06-.52.74-1.44,0-1.61l.51-.89-.51-.57.73-.73c-.93-.88-.53-.81-.54-1.82,0-1.88.47-3.23.65-5.04.1-.99-.02-.63-.11-1.36,0-.08.32-.05.36-.21.11-.43.14-1.58.78-1.83.48-.18,1.61.12,1.74.53.22.67-.79,1.3.59,1.69-.67.45-.19.99-.21,1.46-.07,1.23-.3.91.21,2.06.22.5-.11,1.69-.36,2.23h.55c-.12.4-.35,1-.36,1.4,0,.7.12.58.03,1.48-.03.29-.08,1.39-.06,1.59.08.62.78.36.74.55-.51.11-.19.33-.35.56-.1.15-.77.31-.53.72.12.2.48.22.49.37s-.84,1.48.38,1.19l-.73,2.19.72.09-.75.91.06,1.28c.69.16-.21.85-.14,1.39.05.38.53.38.62.64.05.16.02,1.95-.02,2.04-.02.04-.27.06-.31.17-.32.79-.98,2.47.36,2.33l-.33.12c.25.44-.14.29-.23.47-.12.22.01.48-.06.57-.05.06-.28.01-.3.04-.04.06.53.94.18,1.46l.54-.18c.34.8-.49,1.61-.51,2.13-.01.31-.03,1.01-.03,1.25.01,1.27.4,2.47.28,3.8-.04.44-.02.8-.48.94l.55.09c-.33.85.36,1.11.35,1.17-.02.29-.32.82-.35,1.3-.06.96-.07,1.94-.13,2.87-.03.44.5.94-.23,1.14.59.41.28,1.06.37,1.64.07.43.51.69.17,1.38l.73.09c-.21.05-.43.46-.49.46-.59.04-.74-.01-1.48.3-.24.1-.24.79-1.05.07-.05-.04-.69-1.05-.71-1.11-.28-.71.24-1.42-.65-1.73v-.37c.93-.26-.29-.95-.34-1.12-.08-.28.25-.78.17-1.22-.02-.11-.79-.49-.36-1.45.1-.24.43-.02.36-.32l-.55-.09.38-.21c.09-.43-.36-.93.17-1.25l-.54-.28c.27-.27.17-.68.25-.87.01-.04.43-.1.41-.5-.04-.85-1.28-1.26-.11-1.83l-.91-.28c.17-.36-.03-.96.55-.91l-.36-.27c.98-.87.92-1.58.61-2.8-.06-.25-.36-.55-.36-.68.01-.29.76-.39-.43-.73.51-.1.19-.38.35-.56s.55-.22.58-.38c.12-.65-1-.98-.2-1.8-.72-.26-.53-1.39-1.47-.91l.19.63c-.59.23-1.13-.74-1.2-.74-.18-.01-1.24.56-1.75.62-.54.06-1.04-.21-1.46-.15-.32.05-.32.39-.42.41-.67.17-1.54.04-2.16.08s-1.16.61-1.95-.04c.14.59-.77,2.12,0,2.01v.18c-.69.01-.65,2.42.18,2.38l-.55,1.19.56.18c0,.49.13.76-.38.9.68.88.19,2.13-.01,3.09l.74.38-.91.46.54.66c-.31.47-.63,1-.52,1.6.02.14.27.11.3.21.2.78.47,1.82.61,2.56.07.35-.36.13-.38.53-.02.35.08,1.18.1,1.66s.54.54-.27,1.09l.51.7c0,.46-.52.52-.62.67-.13.22.11.51.09.54-.33.53-2.76-.31-3.15-.71-.04-.05-.62-.95-.63-1.01-.06-.38.75-.48.5-1.01h-.55c.12-.38.41-1,.38-1.37-.04-.42-.45-.36-.52-.54-.17-.4.66-1.34.02-1.4l.13-.33h-.55s0-.18,0-.18c.18.11.87-1.03.89-1.18.01-.11-.07-.84-.11-1.01-.08-.38-.53-1.2-.56-1.41-.03-.24.31-.42.32-.69.02-.36-.43-.77-.17-1.19h-.55s.21-.9.21-.9l.52-.02c.07-.3-.24-.09-.33-.27-.1-.19.06-.53.33-.55-.94-.39-.32-.83-.23-1.43.05-.36-.32-.78.22-1.13-1.19-.64-.53-.8-.46-1.47.06-.51-.17-1.09.1-1.62l-.37-.19c.35-.55,1.04-1.11,0-1.02l-.09-.73-.65-.07c.07-.41-.36-.53-.37-.56-.03-.29.21-.48.28-.73.03-.12-.14-.39-.08-.44.29-.27.27.39.78-.82.05-.12.32-.05.33-.37.03-.6-.4-.98-.41-1.47,0-.34.32-.24.36-.36.03-.08-.34-1.11-.39-1.15-.31-.26-.91.22.05-1.04l-.36-.17.54-1.29-.55-.09.57-2.1-.38-.36c.62-.56-.02-1.75.34-2.56-.64-.19.17-.54-.53-1.08.08-.79.99-1.11.62-2.12-.06-.16-.38-.31-.39-.45,0-.1.26-1.4.31-1.84.12-.91.46-5.16.18-5.78-.07-.17-.37-.14-.36-.22.02-.11.29-.43.36-.75.12-.54.07-1,.23-1.5.72-.59,2.74-.13,2.52.14Z"/><path d="M83.33,20.94c.48.48.84,1.88.95,2.58.04.24-.15.74-.1,1.14s.33,1.42.86,1.15c.17.52-.41.7-.51,1.04-.08.28.22.74-.21,1.05l.63.28.27-.37c.42.93-.59,2.08-.5,2.68.1.63.15.43.14,1.23,0,.11.44.13.47.46.03.29-.39,1.05-.21,1.84.1.4.59,1.12.6,1.19,0,.12-.63,1.09-.49,1.62.03.13.31.11.32.14.08.19-.45.45.22.61-.13.11-.28.24-.32.41-.05.21-.21.92-.21,1.06,0,.09.28.07.29.11.32,1.51.08,1.26-.03,2.69-.04.56.41.95.42,1.01.05.3-.13,1.08-.33,1.37.21.23.79-.66.81-.73.14-.36.05-.98.13-1.07.06-.06.41,0,.61-.21.04-.04.61-.97.62-1.03.05-.28-.31-.54-.3-.71,0-.07.71-.85.8-1.04.07-.14.23-.42.24-.45.17-.6-.2-1.55.92-1.52l-.15-.88c.33-.13,1.15-.67,1.31-.94.09-.16.11-.57.24-.87.1-.21.39-.22.42-.36.08-.37-.1-.89.02-1.22.11-.32.51-.21.66-.35.1-.09,1.29-2.31,1.31-2.44.05-.34-.66-.44.04-.87.6-.37.57.2.42-1.02l.8-.21c.19-.47.17-.69-.15-1.06,1.1-.15.86-.81,1.21-1.45s1.04-.71.63-1.38l.72-.37-.36-.55c.45-.31,1.04-.88.73-1.37l.51-.03c.23-.34-.08-.66.35-.84,1.78-.78,1.06,1.81,1.02,2.65-.01.24.28.39.24.61-.08.38-.84,1.62-.97,2.31-.1.51.5.91-.58.99.3.69-.51.58-.24,1.05l-.33.21.34.02c-.04.93-.56.61-.7.72-.04.03.15.59-.01.94-.12.26-.76.91-.97,1.42-.16.4.16,1.2-.66,1.29l.35.63c-.7.14-.37.79-.59.96-.49.38-.87-.02-.71,1.31h-.53c.51.71-1.16.95,0,1.56-.2.5-1.1.99-1.18,1.18-.1.22.31.48-.25.64l.15.44c-.59.18-.76.35-.54.94h-.55c.55.67.26.96-.55,1l-.17.21.18.7-.37.1.36.63c-.12.24-.55.24-.74.38-.16.12-.01.3-.07.4-.03.05-.23.04-.25.13-.11.47.76.8-.2,1.03-.08.11.23.57.14.94-.13.52-1.19.81-1.07,1.13.29.76,1.12.13,1.43.31.2.11.25,1.09,1.12.52.03,1.29,1.34.74,1.75,1.65.2.44-.11.85-.08.89.09.13,1.09.46,1.3.58.87.48.59.57.99,1.26.32.56.69.08,1.08.34.61.39.64,1.03.45,1.66.74-.38,1.26,1.58,1.56,1.64l.63-.37c.1.58.27.81-.18,1.28.85-.1.79.59,1.09.96.12.15.82.81.86.92.28.75-.4.99.97.86l-.35.43c.72.83.79,2.09,1.26,2.95.37.69,1.09.85.74,1.72l.44-.16.47.8-.35.16c.29.81.26,2.12,1.45,1.93v.18c-.3-.22-.52,1-.53,1.2,0,.08.31.04.35.21.05.2-.06.49,0,.66s.3.13.33.22c.07.19-.39,1.07-.52,1.28l.37.18-.89.67.16.33c-.88-.04-.75.19-1.11.44-1.24.87-.76-1.1-1.64-1.63-.27-.16-.71.48-.66-.7.01-.34.29-.72.2-1.04s-.68-.78-.86-1.15c-.4-.81-.81-2.32-1.12-3.09-.11-.28-.31-.54-.29-.87l-.54.36c.1-.46-.14-.88.36-1l-.75-1.53-.89-.02.16-1.07-.69-.22c.24-.85-.11-1.24-.79-1.74-.07-.05-.34.02-.53-.12-.92-.7-.74-1.69-1.52-2.16-.37-.22-.62.04-.64.02-.1-.11.05-1.04-.28-1.1l-.63.37c-.09-.52-.65-1.26-1.02-1.63-.18-.18-.91-.45-1.11-.78-.07-.11.11-.43-.15-.69-.34-.33-.71-.71-1.06-1.04-.43-.4-1.71-1-2.31-1.06-.23-.02-.23,0-.37.19.25.57-.13,1.28.72,1.28-.13.36-.02.62-.54.64l.36.36-.37.12c-.24,1.59.53,3.04.19,4.62h.54c.07.42-.48.65-.48,1.01,0,.27.49,1.02.41,1.47-.04.23-.43.33-.47.72-.07.7,1.74,1.23,0,1.56l.34.27-.74,3.36c-1.17.02-3.15-.68-2.52-2.17h-.55s.55-.91.55-.91h-.55s.36-.46.36-.46l-.27-.27-.45.18.36-2.01-.91-.2c-.04-.87.81-.95.72-1.81h-.91c-.08-.31.3-.1.34-.27.01-.04-.14-.35-.08-.55.1-.36.35-.71.4-.95.17-.83-.42-1.85-.4-2.7.01-.47.35-1,.1-1.78-.05-.15-.69-.37-.51-.78.05-.12.37-.05.33-.18-.1-.34-.47-.98-.52-1.1-.09-.24.35-.87.34-1.09,0-.09-.49.03-.39-.74.04-.35.36-.25.39-.39.04-.22.1-1.24.15-1.64.03-.3-.38-.53-.44-.78-.06-.28.27-.5.25-.8s-.43-.71-.43-1.13c0-.57.54-1.59.3-2.36l-.56-.1.12-.33-.27-.12-.03-1.37h.55c.11-.41-.31-.88-.3-1.19.03-.58.58-.39.21-1.74-.34-1.23-.06-.49-.09-1.35-.01-.32-.47-.87-.55-1.11-.05-.15.45-.09.52-.38.03-.13-.12-.45-.11-.67.01-.24.18-1.02.14-1.05-.06-.05-.68.22-.71-.65,0-.07.28-.05.33-.21.19-.63.37-1.88.17-2.49-.1-.3-.74-.16-.44-1.2.14-.49.97-1.27.1-1.55.56-.45.08-.7.09-1.02.02-.5.35-.94.37-1.18.04-.42-.42-1.61-.35-2.06.16-1.06,1.04-2.77,2.2-1.62Z"/><path d="M198.78,22.59c.78.42.14,1.06.14,1.48,0,.3.43,1.27.45,1.63.02.22-.18.49-.16.74.08.88.33,1.77.18,2.65l.73-.18c.07.59-.59.69-.56.99s.34.59.37.93c.04.52-.5.75.36,1.08,0,.52-.65.78-.72.97-.24.65-.31,1.91.73,1.32-.22.36-.02.96-.54.92.56.49-.16.99.55,1.2l-.56,1.62.55.27c-1.1.25-.42.89-.44,1.37-.01.22-.48.62-.05,1.14.39.47,1.11-.12,1.22-.44.05-.14-.17-.9-.14-.94.06-.08.41-.11.53-.29.25-.38.57-1.23.85-1.71s.73-.37.64-1.29l.51-.03-.19-.73.83-.17c-.23-1.19,1.02-1.54,1.3-2.08.14-.28.08-.7.23-.93.09-.14.38-.07.55-.24.87-.86.64-.99.98-1.83.05-.12.68-.49.4-1.16l.64-.18c-.13-.59-.12-1.09.06-1.67.22-.72.94-1.41,1.1-1.83.13-.35-.04-.83,0-.97.08-.24.41-.21.47-.29.08-.11-.17-.37-.14-.49.09-.31,1.83-1.29,2.25-1.29.25,0,.56.18.74.35.7.64,1.11,1.84.45,2.66l.37.19-.15.42.33.11-1.28,2.01.54.45c-.48-.11-.3.44-.39.52-.15.14-.75-.19-.89.49l.73.18c-.17.75-.78,1.38-1.27,2.01l.37.18-.56.57c.46.83-.3.73-.65,1.04-.52.46-1.07,1.32-1.71,1.6.06.45.45.59.16,1.07l-.71.02.34.45-.61.61-.45-.34.18.73c-.74.06-1.17.77-1.45,1.4l.35.43c-.72.07.06.86-1.09.37.24,1.2-.9,1.59-1.46,2.37.55-.03.45.52.68.74.07.07,1.34.88,1.52.99.2.12.46-.1.64.08.24.24.09.64.18.76.11.15.41.03.56.16.24.19.11.5.18.57.22.22,1.11.81,1.37,1.17.47.67.76,1.86,1.11,2.63l.89.03c-.28.44.77,3.36.92,3.47.09.06.38-.15.49-.15.93.05-.02.96.04,1.32.02.15.41.12.53.41.15.37.13,1.09.41,1.52l.72-.18c.07.04-.36,1.05-.36,1.18,0,.1.64,1.71.71,1.81.04.05,1.26.24.22.67l-.03.34c.23.03.55.15.65.37.29.61.49,2.2.91,3.09.2.42,1.13,1.3,1.09,1.74-.01.17-.3.34-.27.53.03.17.35.31.44.49.37.8-.33.6,1.01.73-.57.71-.49,1.16-.46,2.01l.19.18c1.76-.46.59.37.53.83-.02.2.41,1.21.84.82-.14,1-1.2.87-.8,2.01-.88.5-1.58.67-2.56.34s-.33-.75-.55-1.36c-.08-.22-.36-.34-.42-.57-.04-.14.14-.39.13-.42-.07-.1-.68.03-.83-.55-.06-.25.03-1.86-.1-1.99-.11-.11-.48-.07-.65-.26-.44-.48-.6-1.66-.72-2.28-.08-.44-.11-.89-.24-1.32l-.55.19v-1.09s-.73.36-.73.36c.14-1.1.38-2.18-.14-3.25-.2-.41-.94-.47-.62-1.29l-.71-.3.37-.82-.74-.08c-.21-.15-.1-.53-.19-.69-.11-.2-.75-1.27-.78-1.45-.07-.39.18-.96.03-1.22l-.88-.22c-.15-.36.18-1.5.09-1.65-.1-.17-.94-.6-.82-1.27l-.73.36-.02-1.62-.91-.32c-.36-.54.07-1.06-.02-1.3-.14-.37-.89-.46-1.24-.22.33-.96-.01-.82-.37-1.37-.52-.78-.61-.57-.86-.87-.12-.15,0-.54-.34-.66-.28-.1-.87-.08-1.07.16.22.6-.44.37-.84.65-.16.12,0,.36-.04.41-.12.16-.6.24-.8.47-.63.73-.24,1.66-.31,2.38-.13,1.32-.11,2.62-.2,3.86-.03.51-.56.79-.07,1.61.25.42.84.16.33,1.09-.7,1.29-.27,1.35-.2,2.58.04.68-.68.81.57.92-.47.12-.21.27-.36.54-.82,1.56-.28.76-.27,2.02,0,.17-.22.36-.2.65.02.43.63.65.46,1.49-.05.24-.53.19-.55.49l.54.28c-.45.69-1.19.95-.73,1.92-.85.21-1.62-.45-2.46.19-.51-.19-.01-.74-.11-.89-.05-.06-.36-.09-.51-.32-.21-.31-.05-.88-.56-.81.88-.8.3-.8.21-1.4s-.2-.84-.21-.89c-.05-.32.22-1.76.12-2.18-.03-.11-1.01-.67-.12-.81v-.36s-.36.09-.36.09l.53-2.02-.35-.08c.76-.76-.13-1.05-.19-1.55-.06-.56.43-1.22.52-1.69s-.14-1.23.22-1.87h-.73c.71-.95-.55-2.1.11-3.09.23-.34.9-.24.12-1.2.76-.49,1.1-2.61-.22-2.28l.37-.27-.37-.18.91-.91-.35-.17.18-.73-.39-.21c.17-.83.87-1.52.91-2.39.03-.55-.16-2.14-.72-2.35.48-.13.21-.64.73-.92v-.26c-.14,0-.29-.03-.37-.14-.16-.23.12-3.05.56-3.43-.12-.06-.51-.5-.52-.55-.07-.53.34-.99.4-1.35.07-.43.18-1.32.19-1.74.02-.65-.43-1.22.1-1.74l-.54-.28c1.12-.57.49-1.07.52-2.01.01-.34.31-.24.34-.36.1-.39-.21-2.26-.06-2.64.35-.88,1.39-.65,2.04-.3Z"/><path d="M232.56,22.97c.28.2,2.27,2.13,2.36,2.29.32.61-.08,1.86.82,1.65.12.3-.21.78-.15.99s.4.22.47.32c.03.04-.04.66.12,1,.06.12.6.43.61.46.08.23-.06,1.53-.05,1.61.04.22.37.46.28.8l-.54.38c.03.36.68,1.04.7,1.1.12.39-.58,2.55.58,2.28l-.51.96c.32.41.38.88.46,1.38.1.62.12,2.59.27,3.01.09.25.41.25.53.43.57.89-.79,2.09-.34,2.85.16.26.41.2.54.59.23.67-.24,1.58-.2,2.28l.73-.18c-.15.34.04.7-.13,1.05-.15.3-.52.36-.57.5-.04.13,0,1.17.04,1.38.09.52.42.55.44.63.14.49-.76,1.74.22,2.01l-.56.91.9.95c.07.29-.41.77-.24,1.35.11.39.45.35.44.42-.04.27-.41.62-.36,1.1.05.45.87,1.02,0,1.29.71.44.35.85.37,1.55l.73-.18c.08.05-.31,1.6-.31,1.76,0,.59.49,1.27.13,2.07l.73.09-2.86,2.1h-.49c-.29-.38-.83-.44-1.11-1.07-.31-.71-.17-1.46-.13-2.13,0-.08-.28-.07-.33-.22-.39-1.39-.29-2.62-.52-4.02-.09-.54.5-.66-.4-1.05l.37-.18c-.74-.17.05-1.02-.91-.82l.32-.2c-.28-.44.88-1.83-.32-1.25-.48-1.4.27-2.62.36-4l-.72-.21v-1.08s-1.02.73-1.02.73l-.1-.35-.6.18c-.15-.6-1.35-.72-1.48-.2-.52-.59-1.35-.29-1.64.37-.75-1.05-1.58-.37-2.12-.45-.36-.06-.35-.47-.46-.47-.54-.01-1.56.9-2,.91s-1.56-1.13-1.24-.21c-.57.07-.12.36-.17.65s-1.45,1.79.04,1.76v.27c-1.11.9-.59,2.17-.9,3.3l.35.16c-.23.74-1.02,1-.76,1.89-1.42.78.06.79-.14,1.4-.03.09-.65.3-.56.82l.55.1c-.4.31-.56.51-.45,1.02l-.65.17c.1.26.24.47.16.78-.03.11-1.17,1.71-1.26,1.77-.37.24-.38-.3-.4-.31-.07-.04-.24.11-.28.07-.78-.63-.46-1.17-.63-1.86-.03-.12-.44,0-.33-.54.02-.07.34-.06.46-.45.28-.88-.38-2.29.27-3.2l-.55-.18c.05-.37.67-.99.68-1.1.01-.14-.24-.4-.24-.64-.01-.38.24-.77.22-1-.11-1.1-.39-.29-.03-1.72.16-.63.22-1.31.48-1.92l-.73-.3c.17-.49-.07-2.05.22-2.33.09-.09.4.06.52-.15s.75-3.25-.19-2.62c.05-.58.25-.69.73-1l-.55-.09c-.2-.58.36-.46.39-.81s-.05-.69-.2-1.01l.71-.21.18-1.17c-.91-.66-.5-.91-.29-1.6.14-.47-.27-.89.69-.86-.75-1.04.64-1.04.71-1.57.03-.22-.31-.37-.31-.67,0-.7.87-1.76.88-1.87,0-.26-.29-.83-.3-1.27,0-.05.16-.96.19-.99.17-.21.55-.11.8-.49.21-.32.4-.94-.15-.79v-.18c.64.03.35-.78.54-1.2.31-.67.62-.36.73-.45.04-.03-.08-.47.17-.82.39-.52,1.24-.76.74-1.55,1.08.03.41-.77,1.1-1.01l-.36-.09v-.27c.46-.69.7-1.06,1.37-1.56.19-.14.57-.16.61-.21.2-.23-.31-1.7,1.12-1.44l-.36-.36c.4-.04.72-.31,1.08-.45.13-.05.35.09.44.07.14-.04.11-.32.24-.35.94-.23,1.68.51,2.36.99ZM230.63,26.36l-.38.11c-.3.37-.04,1.08-.53.99l.54.54c-.69.48-1.7,1.18-1.96,1.97-.06.19.12.45.04.6-.07.11-.35.1-.42.26-.06.13.2.95.15,1-.86-.08-.88.96-1.46,1.37l.36.18c-.46.23-.56.45-.73.93l.32.11-.11.49c.85.12-.51.83-.66,1.32-.08.25.08.48-.01.71-.23.61-1.53,2.67-1.37,3.36.01.06.56.2.33,1.08-.09.33-.36.53-.42.78-.12.46.17,1.23-.44,1.64v.27c1.41,0-.11.8-.27,1.26-.05.16-.07,1.43.18,1.48.65-.06,1.12-.43,1.21-1.07l.89-.03.18.55.19-.73c.81.86,1.87.18,2.83.21.25,0,.45.32.65.26s.42-.38.63-.4c.34-.04.81.41,1.1.41.17,0,.35-.23.54-.22.28,0,.92.64,1.1-.08l.55.36c.6-.68.59-1.12.3-1.92l.34-.36c-.99-.7-.19-1.04-.18-1.11,0-.16-.17-.42-.15-.67.05-.56.21-1.11.16-1.68l-.56-.1c-.08-.07.38-1.36-.37-1.28l.34-.26c-.26-.44.16-2.17-.45-2.26l-.44.15.56-1.73-.38-.2.2-.53-.38-.21.19-.8h-.54c.04-.85.42-2.04-.56-2.38l.36-.27-.37-.09c.22-.57-.11-1.02-.15-1.55-.02-.26.21-.58.16-.88-.02-.11-.27-.08-.36-.27-.06-.12.05-.42-.04-.55-.12-.19-.93-.01-.7-.76Z"/><path d="M68.27,20.12c.11.08.4-.18.61,0,.23.2.25.62.44.85.16.2.48.26.63.46.31.43.21,1.14.41,1.59.15.34.67.05.24.77h.55c-.61.9-.11,1.16.2,2l.34-.17c.45.44.16,2.15.23,2.34.04.1,1.82,1.38.32,1.31-.09,1.22,1.04,2.06.73,3.1h.55c.19.7-.71.95-.54,1.53.04.14.34.11.34.2-.04,1.53.06.9.35,2.07.14.57-.51,1.41-.22,2.44.21.73.6.31.62.35.19.3-.46,1.33.18,1.72.12.07.36-.1.37-.08.21.33-.33,1-.32,1.34.03.65.74.96.14,1.76,1.05.11.17,1.05.44,1.47.25.38,1.39.51.1,1.19l.36.2-.16,2.69.71.31c-.25.35-.02.9-.08,1.18-.13.54-1.08.98.26,1.2l-.15.63.34.27-.34.09c.43.95-.45,2.9.15,3.68.12.16.47.19.53.29.02.04-.06.65.13.87-.84.72-.24.46-.16.58.06.09-.25.27.21.42l-.12.42.34.14c-.21.87-.45,2.35-.34,3.24.13,1.07.81,2.01.63,3.06-.05.31-.4.34-.53.58-.14.27-.2.84-.23.87-.22.25-1,.38-1.27.72-.27-1.13-1.85-.93-1.37-2.19l-.35.17c-.23-.59-.58-1.23.17-1.54l-.67-.73.3-.92c-.81-.25-.34-1.09-.43-1.8-.01-.11-.18-.97-.2-1.04-.16-.48-.93-.4-.1-1.18l-.55-.27.55-.18c.01-.43-.58.12-.55-.45.04-.54.35-.64.73-.91-.05-.29-.68-.62-.69-.67-.03-.09.26-.71.15-1.13-.03-.14-.65-.12-.18-1.03l-.55.18c-.21-.58.49-1.27.19-1.7-.11-.16-.41-.1-.37-.22.07-.24.55-.58.51-.88-.06-.38-.57-.78-.63-.91-.35-.76.08-1.08.03-1.42-.05-.31-.46-.84-.48-1.25l-3.25.37-.02.71c-.9.36-1.64-.59-2.29-.57-.5.02-.88.58-1.61.18-.54,1.32-1.49-.51-2.04.75l-.72-.38c-.62.51-.18.81-.18,1.01,0,.74-.59,2.1-.67,2.74-.1.77.34.6.38.75.06.2-1.04,2.78-.68,3.49.02.05.92.47-.05.59l.36.27-.56,1.27.37.11v.26s-.52.3-.52.3c.37.58.03,1.04,0,1.55-.02.26.16.52.15.72-.05.6-.91,1.28-.16,2.18l-.55.28.37.63-.37.27.36.09c-.85.56-1,3.43-2.24,3.16-1.51-.33-.56-1.75-.43-2.68.08-.51.22-1.28.26-1.57.12-.92-.23-2.41-.51-3.3l.36-.26h-.36c.61-.86.71-1.82,0-2.64l.73-1.65-.55-.18c.58-.45.21-1.05.27-1.47.03-.24.22-.42.26-.72.05-.35-.49-.59.21-.74l-.55-.18c.87-.71.11-1.06.18-1.63.02-.21.18-.92.24-1.26.06-.32.73-.54-.05-.75l.56-1.64c-1.19-.07-.08-1.28.18-1.84l-.37-.18c.54-.55.93-1.26,0-1.65l.36-.27-.36-.09c.9-.8.45-1.89,1.28-2.74l-.52-.35c-.07-.41.45-.65.46-.69.02-.05.18-.91.18-.96,0-.23-.32-.4-.23-.83.07-.34.47-.36.46-.43-.02-.23-.34-.73-.31-.94.03-.19.45-.17.51-.39.16-.64-.02-1.64.18-2.31l-.37-.29c.64.02.95-1.47.37-1.54.41-.37.11-1.19.2-1.45.1-.27.51-.24.54-.42.1-.61-.79-1.44.53-1.98l-.55-.81.91-.65c-1.03-.79.14-.83.32-1.05.34-.41.16-1.5.26-1.83.12-.38.88-.97.98-1.4.09-.39-.76-.41.44-1.38.41-.33.8-.4,1.15-.64.57-.4.94-1.14,1.77-.93v-.53c.56-.04.97.34,1.44.45.18.04.47-.12.64-.06.25.09.24.43.34.5ZM66.57,22.9c-1.11-.18-.92.67-1.62.9.79.77-.24.61-.46,1.08-.13.29.65,1.51-.45,1.66l.55.54c-.97.15-.5,1.33-.75,2.05-.03.1-.65.72-.71.97l.36.09c0,.51.2.87-.37,1.01l.24.09c.43.44-.12.79-.6.73l.17.65-.35.17.37.55-.55.28c-.07.31.23.11.32.21.04.04-.12.22-.08.29s.45,0,.31.68l-.56.19c.16.64-.11,1.26-.15,1.84-.04.7.2,2.4.13,2.9-.18,1.39-.86,3.01-1.01,4.41-.04.39-.01,1.32.4,1.52l-.09-.55c1.07.21,2.18.08,3.16-.36.11-.05.1-.37.24-.38.21-.02.48.17.71.16,1.1-.05,1.39-1.52,2.56-.34l.3-.7c.66.05,1.36-.5,1.71.34l.42-1.01-.88-.27c-.05-.04.18-.3.16-.46-.05-.57-.27-1.46-.3-2.05-.03-.48.22-1.02-.09-1.48l-.51-.03c-.11-.4.46-.73.48-1,0-.06-.14-1.02-.15-1.1-.02-.11-.28-.07-.31-.22-.12-.57-.28-1.43.36-1.61v-.27c-.09,0-.26,0-.31-.06-.23-.3-.06-2.45-.1-3.1-.02-.39-.54-.5.04-1.04l-.51-.03c.09-.48-.35-.74-.35-.79-.07-.41.11-1.12.04-1.4-.13-.54-.85-.73-.09-1.62h-.55s.16-.81.16-.81l-.71-.29.18-.54-.55.18c.06-.78.23-1.28-.2-1.99Z"/><path d="M140.36,22.19c.02.52.86.35,1.04.69.07.13-.14.49-.07.78.19.77.32.28.33,1.49,0,.1.27.03.38.38.16.53-.1,2.21.02,2.7.05.23.38.4.52.59.09.41-.55.27-.56.72-.03.77.37.37.74.74-.48.3-.14.67-.17,1.08-.02.3-.23.69-.2.9s.66.19.56.57l-.55.28c.56.55.05.9.08,1.18.02.25.31.83.3,1.17l.71.02c-.19.32-.18.72-.31,1.05-.09.24-.4.21-.4.3.04.83.72,1.01.72,1.28,0,.22-.29.4-.32.58-.14.75.62,2.21-.05,2.98.81.4,1.16.23,1.9.24.22,0,.33.52.84-.06l.53.85c-.33.67-.49,1.7-.37,2.42l-1.99.48-.28,1.93.65.17c.08.47-.51.74-.5,1.15,0,.23.57,1.54,1.05,1.22l-.37.29c.32.63-.15,1.45-.16,2,0,.09.3.06.34.19.06.22-.23,1.47-.18,1.53l.73-.18.14.65-.69.27c-.11.42.49.77.52,1.03.03.24-.32.43-.34.7-.01.3.35.59.35.91,0,.52-.86.95.17,1.2l-.18.6c1,.28.22,1.38.29,1.77.06.36.42.35.43.38.06.18-.48.61.21.52l-.36.18c.89.67-.1,1.91.03,2.47.03.13.52-.06.15.63h.55s-.36.18-.36.18c-.1.86-1.14,1.05-.92,2.19l-.65-.17-.18.36-2.09-.19.15-.33c-.05-.08-.4-.06-.49-.33-.48-1.38.26-2.36-.22-3.76-.06-.17-.97-.73.01-1.14-.59-.36-.07-.54-.07-.73,0-.27-.75-.94.07-1.47l-.56-.39.36-1.08c-1.12-.57-.19-1.9-.44-2.9-.11-.42-.37-.88-.53-1.38-.09-.28-.38-.56-.4-.83-.03-.4.43-.43.47-.58.13-.47-.43-.85-.52-1.24-.06-.26.3-1.19.16-1.37l-.54.18.36-1.19-.35-.16.17-.84h-.73c.76-1.3-.79-1.14-.55-2.19-.4.18-.83.31-1.23.49-.21.09-.23.35-.26.37-.24.11-1.26-.1-1.53-.11-.09,0-.98.57-1.5.67s-2.71-.28-2.51.58l-.18.16c-.51-.04-1.6-.28-1.83.21-.06.13-.12,2.67-.07,2.8.07.21.33.29.53.3l-.37.3c-.1.97.39,1.44.75,2.18l-.39.37c.48.86-.19.74-.19,1.07,0,.64.39.49.56.79.47.82-.38,1.38-.37,1.77,0,.05.54.05.33.73-.03.1-.29.07-.31.2-.09.56.62,1.28.03,1.19.31.48-.12.75-.15.98-.06.51.59.93.6,1.09.05.6-1.05,1.93-.49,3.06.1.21.43.03.36.31l-.99.19-.28-.37c-.16.89-1.16.29-1.56-.18-.65-.74-.89-1.84-1.36-2.66l.38-.18c-.59-.85-.11-1.52-.19-2.46l-.91.18c-.07-.1.13-1.16.22-1.34.17-.36.6-.18.51-.58l-.73-.09c.55-.76.34-1.32.41-2.05.03-.32.28-.61.31-.79,0-.05-.64-.6-.67-.73-.27-1.08.2-2.5.5-3.56h-.55c.27-.93.77-1.35-.36-1.92,1.04-.86.71-2.31.73-3.55h-.55s.13-.34.13-.34l-.31-.12.38-1.09-.38-.29c.49.02.56-.5.55-.91h-.73c-.1-.5.49-.95.51-1,.08-.3.15-1.5-.33-1.46.94-1.16.05-3.06.25-4.54.07-.55,1.13-2.2-.24-1.76l.38-1.18c-.65-.07-.16-1.57,0-2.15.03-.13.3-.14.33-.23.05-.19-.34-.7-.17-.99l-.53-.02.73-1c.12-.48-.43-.19-.55-.28.22-.39.04-.95.19-1.32.1-.24.77-.1-.2-.81-.13-.7.42-.77.63-1.17.33-.64.63-2.25,1.36-2.26.83-.02.56.48.64.59.43.56.85.67.68,1.68h.53c-.26.38-.1.83-.19,1.16-.04.15-.36.13-.37.23-.01.21.27.82.33,1.14.05.27-.12.63-.05.78.12.27.65.31.65.45,0,.25-.32.51-.31.72,0,.18.26.44.29.75.05.57-.25,1.02-.25,1.37,0,.75.66,2.12-.28,2.18.73.7-.19,1.33.72,1.94l-.36.61.73-.36-.16,1.17-.58.21c0,.53.08,1.07.21,1.58.04.14.29.13.33.26.12.37-.24,1.32-.53,1.62l.37.2c-.16.42-.2,1.2.36,1.17l-.36.29.03,1.32.93.55c.44-.24,1.07-.5,1.54-.63.53-.15,2.1-.72,2.37-.76.22-.03,1.44.35,1.97.24.42-.09.77-.43,1.17-.55.36-.1,1.18.03,1.66-.29-.25-.57-.1-1.18-.19-1.72-.22-1.32-.18-1.76-.17-3.11.02-1.92-.06-3.81.17-5.65.06-.5-.08-1.19-.54-1.46l.73-.37c-.8-.45-.3-1.87-.29-2.81.01-.71.04-.93.09-1.58.06-.83-.59-1.5.02-2.09l-.36-.09,1.43-.97Z"/><path d="M159.69,21.85c.23.17.46.85.66.98.85.56,1.25-.09,2.25,1.04.16.18.66.78.8.98,1.42,1.9.43,2.39,1.01,3.68.19.42.83.74.63,1.47l.36-.36.14,1.02-.5.35c.6.24.37,1.1.4,1.16.06.09.4.07.47.32.23.81-.2,1.84-.09,2.33.16.72,1.24,1.66.51,2.25l.37.52-.39,1.01c1.17-.06.55.97.62,1.7.08.85.27,2.06.39,2.95.03.21.27.41.29.74.02.4-.48.22-.57.73-.02.1.18,1.52.22,1.61.12.3.47.17.53.58.1.71-.3.62-.33.73-.23.65.3.67.3.72-.05,1.19.03.5.18.92.13.35-.16,1.31-.52,1.55l.55-.18c-.02.25.06.56,0,.79-.05.22-.45,0-.37.3l.73.09c-.48.14-.2.2-.36.55l-.56.09c.72.81.12,1.18.05,1.78-.07.5.24,1,.23,1.23,0,.19-.31.94-.24,1.28.01.06.69.29.28.97-.06.1-.39-.09-.32.21l.54.28c-.43.5-.59.66-.54,1.37l.55-.18-.26.75-.47-.02-.35,2.64.53.46c-.37.15-.97.63-1.19.93s-.47,1.57-.72,2.01l-.46-.02.28.73c-.45.37-1.18.87-1.5,1.33-.12.18-.02.51-.24.77-.09.1-2.21,1.35-2.38,1.43-.24.1-.6.08-.85.27-.75-.15-1.91-.71-2.57-.84-.25-.05-.53.15-.68.12-.25-.06-.34-.71-.64-.99-.37-.35-1.21-.48-1.57-.99l-.45.36c.09-.49-.37-.29-.51-.39-.04-.03-.03-.63-.16-.89-.18-.34-.71-.54-.61-1.1l-.35.18c-.01-.73-.78-.67-.56-1.46l-.36.18c-.23-.37.05-1.13-.02-1.35s-.4-.23-.47-.35c-.32-.5-.16-1.4-.05-1.96-.39.05-.63.35-.91-.09l.38-.92-.36-.35.16-.47-.73.18.33-.2-.08-.54.66-.27c-.37-.79-.53-.6-1.28-.46l.53-1.8-.53-.29.36-.09-.37-.27.33-.11.04-.71h-.55c.59-.54-.04-1.86.03-2.1.11-.36.32-.36.14-1.25-.02-.08-.56-.21-.13-1.01l.52-.13.13-1.31-.68-1.05.54-.28c-1.3-.86.69-1.83-.38-3.18.45-.01.45-1.25.03-1.27l.17-1.01.54-.1-.73-.09c-.05-.1.26-2,.35-2.11.2-.25.93-.26.45-.81l-.61-.09c.25-.6,1.1-1.15.37-1.64.14-.3.62-.16.73-.41.44-1.04-.43-.81-.37-1.23l.92-1.65-.35-.17c.01-.35.29-1.43.28-1.66,0-.25-.35-.54-.3-.63,0-.01.2.02.29-.07.69-.76,1.25-1.27,1.54-2.31h-.55s.36-.36.36-.36l-.55-.09c.17-.77.67-.7.92-.95.34-.33.45-1.12.71-1.44.16-.19.52-.24.54-.28.02-.03-.18-.44-.14-.76,0-.06.6-1.01.64-1.05.44-.45.88-.87,1.34-1.36.86-.93.99-.72,2.13-.97.53-.12.84-.61,1.46-.16ZM160.99,28.76c-.2-.31-.71-.5-.93-1.31-.13-.49.15-1.1-.22-1.63s-1.13-.24-1.09-1.28c-.87.27-.47,1.36-1.37,1.46v.36s.36.1.36.1c-.71.47-.66.86-.88,1.49-.06.19-.32.36-.37.56-.11.41.13.7.1.88s-.39.16-.5.4c-.31.68.46,1.38-1.1,1.5l.35.19-.17.43.37.11-.73.82.52.31.02,1.12c-.26.21-1.02.88-1.06,1.15-.05.25.28.47.25.81-.04.55-.59,1.93-.66,2.61l.56.56c-1.42.63-.01,1.65-.73,2.46l.73.18c-.57-.13-.14.53-.4.7l-.51.03c-.1.33.28.44.33.68.07.29-.17.57-.14.86.07.6.56,1.03-.01,1.66l.37.17c-.5.54-.84,1.34-.83,2.09,0,.26.23.41.24.65.06,1.26.25,3.14.14,4.2-.03.25-.38.79-.28,1.19l.55.09-.03.62-.53.11.74.74c-.14.35-.46,1.05-.38,1.42.01.05.15.32.25.76s.35.87.3,1.37l.73-.18-.54,1.08c.67-.07.17.77.44,1.12.14.19.56.06.65.29.2.47.46,1.53,0,1.88l1.29.83c-.05.47,1.11,2.08,1.54,2.04.16-.01.33-.38.45-.31.04.02.06.52.64.46.5-.05.84-.14,1.47-.18.86-.06.37-.63.54-1,.18-.41.88-.64.98-.78.03-.04-.14-.24-.11-.29.07-.1.34-.08.53-.48.28-.6-.21-1.11.26-1.74.1-.13.38-.16.43-.22.05-.07-.32-1.16.38-1.52l-.55-.18c.35-.28.26-.72.38-1.05.06-.16.29-.14.31-.23.07-.22-.31-.94-.28-1.25.04-.42.5-1.03.5-1.67,0-.88-.64-1.28.19-2.2.08-.37-.47-.37-.54-.48-.06-.1-.1-1.9-.02-2.24.06-.23.19-.42.37-.56-.85-.42-.37-.34-.28-.8s-.09-.98.28-1.46c-1.39-.32-.2-1.89-.2-2.86l-.29-.11.13-.33h-.73c.55-.76-.06-1.54-.1-2.09-.04-.66.21-1.86.2-2.31-.06-1.67-1.13-3.05-1-4.62.03-.37.35-.76.31-1.08-.06-.44-.62-.66-.63-.71-.14-.31.42-2.14-.6-1.79l.37-1.09-.73-.19c.47-.92.18-1.02-.1-1.83-.07-.19.09-.45.06-.51Z"/><path d="M173.57,23.51c.05.03.05.17.1.24l.33-.14c.19.74,0,1.37-.01,2.1-.03,1.9-.02,3.95.33,5.86.03.16-.08.36-.13.52l.55.1-.36.36.38.12c0,.52-.06.89-.56,1.07.51.08.84,1.46.65,1.74-.09.13-.44.11-.47.3-.02.1.07,1.9.1,2.08.07.39.47.89.45,1.18-.02.38-.62.58-.18,1.24.12.18.46.19.53.43.2.69-.32,1.99-.34,2.55-.02.64.48,1.79.01,2.55l.36.18c-.03,1.74.7,3.15.58,4.95-.02.27.41.55.14.97l.73-.18c.09.37-.29,1.07-.29,1.19-.01.26.47,1.43.3,1.91,1.44-.39.53,1.1.55,2.01l.33-.15c.06.57.53.34.55.37.05.05,0,.28.1.44.05.08.23.08.26.16.09.3-.26,1-.24,1.19.05.7.68,1.03.46,1.63l.56-.1c.25.79.67,1.3,1.36,1.75.35-.46.37-.99.55-1.45.06-.16.38-.28.41-.48.04-.23-.23-.57-.13-.87.07-.23.44-.24.49-.33.12-.2.06-1.68,0-2.03-.1-.55-.38-.33-.5-.67,1.07-.34.32-1.83.34-2.66,0-.33.33-.24.35-.36.04-.2-.11-.91-.03-1.34.12-.6.61-1.07.43-1.74-.04-.14-.37-.12-.36-.2.19-1.54.4-2.3.46-4.02.02-.58.58-.89-.28-1.65l.36-.27h-.55c.14-.47-.13-.87.55-.92v-.27c-1-.36.2-1.44-.13-2.05-.14-.26-.45-.22-.42-.32.06-.2.46-.51.48-.73.04-.53-.53-.66.26-1.46-1.46-.63.15-1.77-.73-2.64.48.04.99-2.08.91-2.43-.04-.16-.57-.19-.5-.74l.69-.67-.36-.27.55-.82-.55-.09.72-.72-.5-1.08c.82-.8.35-1.66.69-2.67l-.55-.09c.16-1.04,1.43-.4.18-1.37.87-.17,1.52-.83,1.65-1.64h.54c0,.91.9.75,1.64.92l.19,1.82.36-.18-.75,3.02.38.45-.53.29c.32.58-.05,1.07-.01,1.61.03.59.58,1.14,0,1.86l.36.17c-.32.29-.6,1.05-.52,1.46.31,1.65-.17,3.47-.21,5.3-.02.76.46,1.24-.19,2.01l.55.45c.08.3-.32.08-.37.3-.04.16-.03.91.02.97h.53c-.04.47-.59.65-.75.88-.09.13-.16,1.83-.13,1.96.03.11.45.14.47.58.01.24-.4.73-.32,1.04.04.14.29.11.33.21.18.5-1.17,1.96.21,2.37-1.24,1.3-.72,3.13-.61,4.72.03.42-.29,1.54.24,1.39l-.33.2.15.33c-.83-.03-1.08.96-.79,1.61.1.23.43.22.42.3-.04.38-.53.96-.66,1.32-.11.32.11.93-.43,1.25l.54.54c-.7.26-1.09.59-1.64,1.1,1.03.54,1.01,1-.2.9l-.19.64c-.88-.34-1.19.74-1.99.55l.18.91h-.9s-.19-.54-.19-.54l-.27.54-.73-.36-.37.55c-.62-.57-.93-1.29-1.88-.96-.83-1.12-1.7-1.92-1.69-3.41l-.9.17.16-.46c-.73-.13-.1-1.02-.24-1.19l-.76-.34c.38-.94-.33-1.14-.42-1.38-.04-.1.41-1.25.08-2.01-.11-.24-.36-.2-.43-.3-.04-.05.14-.24.1-.29-.19-.27-.4-.07-.68-.88-.41-1.18.74-1.72-.56-2.37l.4-1.08-.4-.38.2-.8-.73.18c-.05-.57-.29-1.09.18-1.55l-.37-.18.37-.18c-.15-.64-.66-.41-.73-.46s.46-1.54.47-1.73c0-.3-.26-.69-.29-1.1-.07-.9.28-1.53-.72-2.18.52-.32.27-.83.37-1.25.04-.18.43-.06.37-.39-.06-.35-.52-.71-.37-1.2l-.55.18.14-.33-.32-.12.75-1.09-.35-.19c.42-.72.09-.95.06-1.5s.41-.93.09-1.52c-1.06.61-.4-1.09.16-1.12l-.45-1.35c-.03-.43.8-.51.61-1.46l-.23-.25-.45.16c-.3-.74.29-1.24.36-1.91.02-.23.01-1.47-.37-1.2v-.18c.49.06.19-.22.37-.55l-.73-.09c.06-.48.77-1.23.83-1.54s-.51-.99.26-1.57c-.77-.21.28-1.24.02-1.89l1.28-.49c.5.17.93.47,1.38.73Z"/><path d="M26.28,20.26c.84.56,1.67,1.13,1.72,2.23-.68.76-.71.37-1.4.51-.38.08-.35.36-.66.46-.47.15-1.63.16-2.3.27-.17.03-.81-.24-.63.26.06.16.42.16.09.46-.47.42-.6,0-.82,0-.75-.04-.2.37-.37.64-.02.04-.61.62-.65.64-.15.08-1.23.4-1.4.51-.66.46-.74,1.51-.81,1.57-.11.09-.47-.05-.66.06-.28.16-.38,1.24-1.08,1.74-.22.16-.61.14-.89.4-.46.43-.24.94-.32,1.07-.16.25-1.41,1.14-1.52,1.36-.17.33-.18,1.45-.53,1.96-.28.42-.63.28-.78.4-.03.03.09.24.03.33-.3.51-.7.38-.07,1.1l-.32.03.09.24-.5.1.38.28c.06.89-.65.77-.76.92-.06.08-.46,1.57-.53,1.81-.01.05.55.25.36.81h-.55s.18.62.18.62c-.57.23-.39.54-.47.66-.15.23-.57.21-.42.98.02.13.28.11.34.26.23.67.04,1.53-.72,1.69.63.95-.12,2.31-.19,3.37l.56.09c-.16.29-.11.79-.55.73.58.51.06.68.06,1s.5.91.12,1.55c.66-.09.61.11.53.72l-.53.11c.63.64-.23,2.71,1.1,2.65l-.17.46.35.17c-.59.81-.55,1.43-.18,2.34.53,1.3.86,2.94,1.59,4.14.31.51,1.19,1.38,1.46,1.89.12.22.01.52.09.64.12.18,1.49-.05,1.26.94l.54-.36c0,1.02.93.33.73,1.46l.36-.36.03.33c.6-.25.66.25,1.02.36.44.14,1.2-.27,1.69.03v-.55s1.53.38,1.53.38c.43-.95.7-.34,1.3-.38.49-.04.82-.8,1.36-.56v-.53c1.2.22.8.63,1.03,1.08.38.74.93.89.17,2.02-.33.49-1.14.4-.5,1.01l-.31.38-.64-.28-.39.56-.79-.2-.18.65-.91-.1.18.55c-.83.02-1.46-.47-2.28-.55-.5-.05.15.64-.36.37-.64-.34-.93-.17-.98-.2-.08-.06-.07-.34-.29-.46-.3-.16-1.06.1-1.44.06-.8-.07-.91-1.15-1.94-.51l-.4-1.25c-.29-.05-.64.06-.91-.1-.17-.1-.79-1.38-.94-1.52-.03-.03-.41.19-.79-.41-.25-.39-.21-.79-.38-1.08-.16-.28-.53-.3-.65-.49-.49-.84-.63-1.62-1.18-2.43-.17-.25.27-.66-.82-1l.54-.64c-1.1-.12-.02-2.39-1.28-2.2.44-.47.28-.7.18-1.28l-.55.19c-.5-1.04.69-2.11-.37-2.83l.02-.26.34-.02-.34-.45.52-.64h-.73s.37-1.28.37-1.28h-.73c.28-.43.05-.83.12-1.25.04-.24.35-.51.36-.68.02-.27-.46-.65-.44-1.06s.41-.72.45-.97c.01-.1-.01-1.41-.03-1.62-.03-.49-.69-.62.22-1.09.15-.42-.33-.5-.32-.53.1-.75.65-1.37.08-2.31.7-.43,0-.95.65-.9.08-.31-.35-.08-.38-.29-.1-.78.56-1.22.57-1.29.06-.34-.19-.63-.19-.87,0-.06.55-.28.66-.84s-.18-1.23.26-1.88c.13-.2.39-.07.49-.17.08-.07.58-1.7.66-1.96.1-.34.29-1.54.34-1.61.07-.12.5-.09.67-.25.23-.22-.15-.79.58-.97l-.37-.18c.36-.34.46-.93.73-1.29.48-.63,1.88-.99,1.09-1.82l.32-.13-.13-.33c.93.09,1.04-.7,1.64-1.19l-.36-.27,1.46-.55-.36-.45c.52-.13.12-.37.46-.64l.63.18c.07-.28.36-1,.54-1.16.24-.21.57-.07.75-.2.31-.22-.12-.92,1.09-.65v-.82c.42-.16.91-.1,1.32-.28.18-.08.63-.78.96-.83.23-.03.55.2.89.09.3-.1.33-.62.61-.69.46-.13.79.62,1.09-.58.57.18,1.47-.02,1.99.19.42.17.39.39.53.48Z"/><path d="M116.62,21.63l.02.53c.69-.65,1.78,0,2.49.42.25.14.38.84,1.16.67v2.19s-1.54.2-1.54.2c-.09-.01-.23-.96-.57-.01l-.53-.35-.57.5-.55-.33-.19.37-.44-.19c-.19,1.76-.93,1.1-1.61,1.5-.26.15-1.8,2.17-1.85,2.45-.04.22.81,1.05-.39.98l.15.33c-.98.25-.51,1.26-.82,2-.17.41-.75-.05-.06.76-.8-.05-.63.5-.78.67s-.44.19-.59.43c-.2.34.11,1.08.09,1.35,0,.06-.58.32-.66.78-.08.43.1,1.16-.11,1.75-.09.26-.38.38-.46.64-.34,1.07.23,1.48-.09,2.28-.16.38-.64.94-.86,1.33l.54.38-.17.98h.55c.05.43-.53.76-.52.81,0,.17.21.41.17.72-.02.14-.52.03-.38.57.02.07.34.07.37.21.24,1.15-.68,2.21-.69,2.34,0,.05.37.63.42,1,.06.46-.4,1.01.26.92l-.36.18.36.18c.31.78-.36.98-.37,1.04-.08.37.15.73.14,1.08,0,.66-.36,1.13.36,1.43-.23.91-.51,1.17.4,1.67l-.02.43-.33.2c.59-.03.41.87.73,1.28l-.55.09c.94.32.66,1.72.86,2.24.11.28.97.64.6,1.32l.73-.54.54,1.57c.54,0,.94-.23,1.38.26l.19-.38c.87.48.73-.17,1.07-.19.51-.02,1.01.29,1.64.2.7-.1.77-.82,1.38-.18-.22-.88,1.32-1.85,2.11-1.84s1.22,1.15,1.66,1.74c-.36.41-.44,1.51-.65,1.8-.12.17-.47.15-.67.29-.23.17-.11.45-.19.56-.72.91-2.65.45-2.44,1.83-.64-.44-2.51-.6-3.2-.39-.33.1-.29.39-.38.4-.4.03-1.61-.67-2.19-.21l-.17-.34-.37.55c-.42-.16-.6-1.04-.66-1.08-.05-.04-.61.24-1.13-.19-.3-.25-.7-1.53-1.22-1.1.06-.56-.07-1.3-.7-1.49l.15-.52-.55.18c.24-.67-.3-.72-.37-.86-.14-.28-.12-.59-.23-.83-.22-.47-1.03-.99-.14-1.32l-.72-.29-.03-1.99-.52-.02c-.3-.64.36-.76.36-.82.04-.52-.58-.58-.58-.9,0-.37.18-.8.38-1.11l-.35-.16c.37-1.08-.18-1.79-.5-2.76l.81-3.66-.71-.55c.02-.25.33-.42.37-.73s.03-1.53-.36-1.44c.74-.83.38-1.77.55-2.74.07-.38.47-.85.51-1.3l-.88-.36c.33-.35.33-.76.91-.64l-.55-.45.33-.11c-.13-.62.29-1.47.77-1.9l-.54-.54,1.27-1.39-.54-.62c.07-.38.64-.59.69-.67.04-.07-.15-.31-.05-.51.11-.24.54-.39.62-.69.1-.38-.22-.76-.14-1.03.06-.2.41-.24.47-.35.26-.47.86-2.62.95-2.75.14-.19.49-.11.66-.29.1-.11.71-2.16.99-2.1l-.16-1.01c1.58.3,1.47-1.68,2.03-2.15.07-.06.46.31.5-.51.66.01,1.04.03,1.65-.28l-.18-.72.65.16c.24-.66.81-.44,1.36-.35l.02-.52h.7Z"/></g></svg>