<?xml version="1.0" encoding="UTF-8"?><svg id="Layer_2" xmlns="http://www.w3.org/2000/svg" viewBox="0 0 289.48 107.99"><defs><style>.cls-1{fill:#fff;}</style></defs><g id="chawanmushi"><path d="M192.57,13.23l-.18.73.57.11c.12,1.2.25.8,1.07,1.27-.42.67-.21,1.23-.26,1.82-.03.35-.77.67.44.84v.7s-.54.28-.54.28l.73.36c-.56.67-1.14,3.27.18,2.83l-.22,1.44-.51.02c.31,1.28.16,2.58.18,3.83l.91-.18c.03.53-.63,1.15-.7,1.4-.1.37.3.78.28,1.22,0,.28-.51,1.2-.49,1.29.04.17.45.21.51.31.12.21-.02.52.04.75.04.16.37.13.36.21-.08.68-.48,1.78-.36,2.54.02.13.37.1.37.21.02.44-.6,1.46.54,1.36.11.06-.68,1.84-.66,2.09.13,1.14.33,2.98.71,3.89.04.09.6-.1-.06.68l.35.16c-.18.46-.33,1.35.2,1.47l-.36,1.01.55.09-.37,2.45.71.21c.02.85-1.35.91.2,1.25l-.17.46.3.11-.14.41c.65.2.1,1.2.08,1.66-.01.28.45.33-.27,1.1v.18c.53.22.4,1.54.47,2.19.12,1.19,0,1.91.24,2.73.1.33-.49,1.72-.48,1.97.02.43.45,1.03.13,1.58h.55c-.02.52-.88,1.03-.73,1.28.21-.02.91.62.92.68.19.85-1.29,1.43-.36,1.79l-.2.52c.67.27.37.98.54,1.66.2.84,1.07,2.93.34,3.49-.08.06-.47-.17-.51.24l1.28.55-1,.37-.37-.55-.38.38-1.05-.19-.3.72c-1.34-.38-.73-1.79-1.1-2.59-.11-.24-.52-.28-.53-.41,0-.07.29-.31.3-.55.01-.48-.28-1.59-.4-1.97-.18-.56-.05-1.05-.11-1.29-.04-.15-1.21-1.03-1.25-1.68,0-.08.28-.06.32-.17.06-.17-.05-.56.23-.82l-.73.18c.42-1.07.73-2.14.55-3.28h-.73c.15-.56.11-1.18.27-1.74.07-.22.39-.37.4-.53.02-.2-.25-.51-.27-.77-.02-.32.3-.55.31-.88,0-.39-.32-1.18-.32-1.81,0-.53.33-1.68.28-2-.12-.69-.15-.41-.2-1.29,0-.19-.37-.6-.39-1-.02-.36.42-.58.41-.83,0-.22-.61-.68-.64-.95s.47-.43.12-1.03c-.21-.36-.7-.22-.51-.92.04-.13.3-.11.33-.21.11-.33-1.27-3.16-.33-3.92l-.36-.18.35-.08c-.55-.57-.02-1.14-.03-1.44-.02-.44-.52-1.14-.34-1.76h-.53s.37-1.1.37-1.1l-.73.18c.07-1.09.49-2.49.33-3.56-.01-.09-.58-1.17-.61-1.46-.11-1.01,1.32-2.84-.45-3.31.05-.78.56-1.13.73-1.89l-.54-.28c.13-.12.27-.27.29-.45.07-.55-.14-1.89-.21-2.54-.08-.78-.69-2.13.28-2.48-1.03-.71-.11-1.79-.19-2.55-.03-.33-.51-.72-.36-1.19-.78-.09-.09.5-.07.82.02.46-.61,1.03-.63,1.09-.04.13.03,1.03-.26,1.34-.81,0-.81.98-.14,1.31l-.46.17c.36,1.09-.51,1.27-.78,1.79s.22,1.24-.4,1.15l.73.36c-.37-.09-.28.17-.29.18-.84.88-1.05,1.63-1.16,3l.35.19c-.02.96-1.84.69-.72,1.29l-.64.73c-.23.49.22.46.25.55.25.89-.66,1.33-.9,1.68-.06.08-.52,1.29-.71,1.63-.35.65.03.92-.03,1.23-.04.21-.67.31-.68.77-.01.59.69.22.71.61-1.47.04-1.07,1.08-1.45,1.7-.16.26-1.17.51-.19.95l-.38.82-.54-.36.18.55c-.66-.02-1.13.89-1.87.7-.19-.05-.37-.29-.57-.38-.37-.16-1.19-.45-1.53-.64-.69-.36-.67-.66-.96-1.2-.1-.19-.57-.3-.45-1.05h-.64c-.27-.37-.02-.79-.04-1,0-.12-.28-.06-.31-.17-.04-.19.2-.86-.03-1.19l-.44.19-.14-.32-.33.13.16-.65c-1.04-.55-.13-.93-.16-1.72l-.71-.02c-.27-.17.21-2.47-.94-2.17l.18-1.09c-1.66.24.04-2.75-2.01-2.19.09-.44.05-1.04-.37-1.22v-2.06s-.91,0-.91,0l-.18,2.37.36-.18.18.8c-.32.09-.7.86-.69,1.12.01.24,1.2.4.32,1.09-.19.14-1.35.31,0,.47.2.83-.75,1.77-.52,2.46.04.12.31.07.33.1.06.08-.79,1.4.18,1.71l-.9,1.47c.74.29,0,1.52.03,2.18.02.34.29.75.27.92-.02.2-.5.35-.51.91,0,.18,1.13,1.02-.14,1.01-.26.91.35,1.61-.38,2.27,1.36.63-.74,1.36,0,2.55l-.55.1.38.28-.35,1.09.34.17c-.16.21-.41,1.07-.33,1.26.11.27.52.25.53.4.02.6-.9.95-.91,1.08,0,.09.28.34.3.57.04.42-.44.68.23.92.21.72-.38.6-.48.88-.17.46.27,2.12.28,2.55,0,.17-.4,2.18-.44,2.3-.11.29-1.01.81-.11,1.17l.03,2.11-.56.1c.05.33-.06.74.01,1.05.03.14.36.12.37.24.04.33-.33.92-.19,1.34h.73c.04.55-.65.87-.69.94-.03.06-.05,1.29.33,1.2-.07.29.01,1.67-.02,1.76-.08.28-1.29.45.01,1.38l-1.09.37c-.21.51.54.24.36.63-.21.47-.61.08-.8.09-.13,0-.09.35-.22.38-.52.09-1.42-.73-2.08-.38.28-.79-.71-1.32,0-2.1l-.35-.16c.33-.68.29-.98-.38-1.29l.37-.18-.35-.17c.49-.66-.39-1.99.36-2.22-.73-.99,1.06-1.44-.19-1.99,1.24-.74-.07-1.2.73-2.1h-.55c-.16-1.08.89-.65.86-1.59-.02-.69-.88-.8-.13-1.51l-.36-.09c.21-.33.64-1.51.65-1.82,0-.15-.28-.31-.25-.51.06-.45.91-.89-.08-1.04-.68-.1.32-.74.36-.78.29-.33.11-2.37-.68-2.22l.91-1.09c-.8-.38-.36-.39-.43-.82-.04-.23-.23-.49-.22-.63.06-.85,1.61-1.95.47-2.38.72-.56.88-1.25-.18-1.46l.55-.92-.37-.17c.51-.53.28-1.64,1.1-1.74-.5-.63-.38-1.6,0-2.28l-.36-.17.36-.45c-.59.05.04-.33-.54-.46.9-.5.34-1.22.46-1.76.08-.39.65-.62.64-.98,0-.12-.32-.06-.36-.21-.05-.16.11-.77.18-.98l-.55-.09c.14-.86.84-.76.91-.82.05-.04-.4-.73.18-1.09l-.35-.27.54-.74-.54-.28c-.1-.14,1.7-2.69.37-3,.61-.62.23-1.21.27-1.57.08-.8.51-1.71-.09-2.36l.36-.18-.36-.09c.95-.67.12-1.98.54-2.68.13-.22.46-.23.53-.44.1-.3-.11-1.86-.35-1.98.93-1.26.22-2.92.97-4.6.02-.05.65-.72.7-.73.33-.1,1.61.43,1.43-.23h.18s1.27,2.29,1.27,2.29l.56-.1c-.42.64.22,1.12.31,1.38.23.63.21,1.12.36,1.68.27,1.03,1.62,1.58.62,2.77.67.08.5.69.91.82-.46.21-.07,1.65.09,1.91.12.18.46.18.59.5.38.89.1,1.72.61,2.82.23.51.68.56.71.61.35.55.12,1.31.17,1.36.05.04.37-.06.5.04.05.03.49,1.01.5,1.07.06.25-.26.37-.28.63,0,.09.99,1.06,1.07,1.5.12.64-.2.27.2,1.11s.2,2.35,1.3,2.58c-.12-.5.48-.72.5-.76.11-.22-.33-1.43.51-.91l.19-.15c-.08-.7.65-1.41-.28-1.73.59-.33.34-1.19,1.09-1l-.36-.63c1.18-.66.62-.89.74-1.64.04-.26.26-.42.3-.71.06-.47-.23-.85-.25-1.15-.08-1.16.98.04,1.19-1.07l-.69-.45.36-.18-.36-.54c.62-.12.67-1.34.86-1.83.2-.52,1.05-.97.97-1.71-.03-.31-.46-.53-.36-.89.06-.21.36-.33.45-.5.1-.2-.1-.45-.06-.51.06-.1.78-.32.85-.42.03-.04-.17-.72-.06-1.07.17-.52.74-1.22.99-1.75l-.36-.35c.26-.53.47-.73,1.1-.64-.27-.46.19-.93.52-1.37l-.34-.45c.4.02.64-.32.93-.45.19-.09.41.07.49.03.1-.04.7-.97.89-1.02.06-.02.96.19.97-.31,0-.18-.35-.69.1-.8.35-.08.41.46.64.61.34.23,1.39.52,1.83.67Z"/><path d="M155.85,13.67s.04.18.09.2c.11.06.43-.1.5.19.06.26-.13.54-.1.72.03.2.37.33.44.57.26.88-.22,2.43-.51,3.25l.37.18-.55.73.37.36-.37.54.55.46c-.15-.02-.28-.02-.36.14-.06.12-.31,1.82-.37,2.17s.12.67.09.89c-.03.26-.52.67-.57.99-.04.24.42.55.1.92h.55c.01.39-.66.71-.69.82-.02.08-.02,1.56,0,1.64.04.1.28.09.37.32.25.56.44,1.08-.24,1.32l.55.55-.37.18c-.16.5.32.42.36.57.02.06-.04.89-.06.99-.11.37-.47.35-.48.47-.04.38.31.77.34,1.11.05.55-.5,1.05.22,1.23l-.54,1.11c.85.26.35,1.58.38,2.19.01.24.27.43.29.68.06.54-.05,1.64.08,2.03s.78.04.32.87c-.08.14-.31.15-.34.28-.11.49.27,1.2.18,1.69l.73-.18c.48.94-.54.92-.56,1.01-.01.07,0,1.36.01,1.43.03.14.29.11.32.21.19.6-.54,1.1.39,1.48l-.17,3.35h.73c-.26.36.03.93-.12,1.23s-.53.33-.55.49c-.07.42.4,1.09.46,1.47.09.53-.51,1.62.21,1.56-.46.48-.39,1.92-.25,2.57s1.04,1.91.25,1.81l.36.26-.55,1.1.53.1c.45.71-.46,1.88-.47,2.09,0,.13.75,1.44.86,1.73l-.91.09.87.36c-.25.38-.12,1.21-.27,1.51-.14.28-.43.28-.58.54-.08.14-.37,1.44-.43,1.49-.07.05-.35,0-.44.09-.86.87-.93.73-2.18,1.15-.08,0-.82-.4-.88-.47-.17-.19-.08-.48-.14-.53-.13-.11-.54.06-.68-.05-.08-.06-.78-1.57-.57-1.8h-.73c.44-.94-.1-1.31-.41-2.07-.15-.37.34-.57-.51-.49.38-.2-.34-.78-.36-.85-.07-.34.07-.73,0-1.03-.02-.07-.59-.82-.66-1.08-.33-1.15-1.24-1.75-1.4-2.38-.13-.51.45-.83-.2-1.36-.12-.1-.39-.02-.47-.06-.04-.02.28-.75-.36-.74l.52-.53v-.36c-.69-.02-.53-.95-.54-1.46l-.36.36-.37-2.37-.54.19c-.37-.53.17-.88.14-1.15-.02-.19-.41-.44-.14-.85l-.36.18-.22-2.07c-.05-.11-.75-.53-.88-.3-.16-.22.39-1.24.37-1.54,0-.11-.34-.08-.37-.23-.31-1.39-.9-2.83-1.27-4.36-.31-1.3-.48-2.3-1.35-3.67-.08-.13-.41-.16-.47-.36-.14-.47.71-1.33-.38-1.17.07-.43.07-1.1,0-1.51-.03-.15-.3-.13-.32-.21-.13-.69.16-2.58-.95-2.47l.36-.91c-.79-.16-.5.43-.91.82l.72.36c-.64,1.35-.53,3.06-.53,4.55,0,.39-.4.84,0,1.11l.54.09c-.26.46-.56.83-.49,1.39.1.87.08,1.13.12,1.96.02.48.1,1.58.55,1.66-1,.57-.35,2.18-.91,2.92l.37.36-.37,1.01.73.1c.13.52-.3.73-.33.94,0,.06.04.75.04,1.05,0,.42.32.84.31,1.09,0,.14-.61.01-.38.46l.56-.09.32.72c-1.06.49.22,1.32-.51,1.83,1.29.98.49,2.21.41,3.36-.04.57.99,1.83-.05,2.03v.18c1.08.33-.74,3.07,1.09,3.11l-.37.73h.55c.1.77-.98.77-.72,1.54l.9.29-.92,2.27.73.37-.72.82c.28-.11.67.69.7.88.07.4-.3.53-.3.83,0,.33.48,1.01.45,1.31-.02.17-.68.74-.66.91.02.22.6.16.54.45-.69.63-1.07-.27-1.13.29-.37-.05-.46.05-.52.43-.06.05-.68-.41-.9-.46-.39-.09-.71.34-.77-.21l-.33.13.18-.73c-1.54.42-.63-.49-.59-1.11.02-.37.01-2.52-.05-2.74-.14-.46-.66-.54-.63-.62.86-.69.56-2.9.22-3.85-.11-.29-.41-.28-.4-.35.03-.28.53-.49.55-.59.03-.18.06-1.42-.01-1.55-.43-.83-.1-.35-.2-1.11-.19-1.4-.59-2.56-.78-4.06-.09-.66.46-1.36-.46-1.18.09-.67.23-.82.91-.99-.28-.71-.61-1.35-.36-2.1l-.54-.09.36-.64-.54-.11c-.19-.41.29-1.49.29-1.63,0-.05-.12-.6-.15-.91,0-.1-.23-.05-.32-.23-.11-.21.17-.69-.38-.59.07-.32.33-.05.42-.57.06-.32-.08-.71.09-1.05l-.34-.2h.37s-.36-.26-.36-.26l.54-.74-.55-.57.18-1.72h-.55s.91-1,.91-1l-.7-.72c.32-.47.12-1.24.2-1.65.02-.11.28-.07.31-.22.18-.91.09-1.22-.07-2.04-.12-.62-.3-1.42-.2-2.22.13-1.12.91-1.31-.44-2.08.64-.64.38-1.28.46-2.01.18-1.72.2-3.45-.23-4.93-.05-.16-.06-3.09,0-3.24.1-.29.48-.4.48-.74-.09-.45-.24-.56-.7-.49.27-.63-.02-1.08.73-1.37l-.55-.09c-.04-.5.35-.81.46-1.27.15-.58-.02-1.62-.1-2.11-.13-.8.39-.63.54-.95.31-.64.1-1.99.41-2.74,2.1-.84,1.46,2.34,1.89,3.41.15.37.56.64.71.94s.05.72.19.91.55.07.65.3c.12.27.03.83.13,1.15.12.39.74,1.46.75,1.55.15,1.58.52.94.71,1.43.1.25-.18,1,.23,1.32l.73-.28c-.34,1.02.06,1.65.25,2.54.07.32-.09.82.11,1.17.09.17.68,0,.84.85.1.54-.15.82.1,1.5.15.44.83,3.02,1.01,3.24.1.12.41.13.45.3.12.48-.42.9-.38.97.01.02.22-.06.35.15.11.18.86,1.68.87,1.78,0,.16-.24.36-.24.54,0,.29.43.56.43.73,0,.12-.3.27-.32.54,0,.05.65.18.37.82l.45-.13.26.22c-.3.77-.02,1.42.22,2.13.04.13.3.13.34.28.11.39-.09.97.29,1.33.2.19.6.12.65.28.14.5-.26.81-.3,1.09-.03.2.49.93.54,1.16.15.64-.44,1.48.83,1.3-.02.42.2,1-.36.91v.18c.74-.2,1.07,1.01.35,1.2l.38,1.53h.54c.07.27-.22,1.3-.13,1.43.07.09.35.12.48.32.15.24.13.68.24.78.1.09.37,0,.47.05.04.02.21.76.21.8,0,.26-.32.39-.27.63.15.74,1.18,1.55,1.29,2s-.49,1.19.62,1.1l.33-2.29-.33-.26.38-.1c.03-.33-.27-.56-.32-.87-.09-.49.23-.77.23-.95,0-1.1-.43-2.22-.6-3.33-.07-.42.38-.54-.23-.68l.73-.92c-.59-.15-.16-.44-.21-.91-.11-1-.18-2.3-.37-3.29-.12-.63-.89-1.28.03-1.36l-.38-.28c.36-.47,0-2.43-.72-2.09-.02-.51.55-.47.69-1.06.03-.11.05-1.08.03-1.21-.04-.3-.31-.48-.35-.76-.07-.47.23-1.53.1-2.1-.08-.35-.57-.36-.56-.88.01-.4.54-.67-.09-1.21l.38-.19-.22-1.43-.49-.15c-.49-.64.23-1.09.34-1.52.01-.05-.59-.09-.31-.88.09-.25.4-.4.42-.57.07-.51-.71-1.12.25-1.65-.39-.12-.46-.4-.45-.8,0-.7.65-.56-.27-1.02.52-.53.82-1.79-.18-1.92v-.18c.33.17.41-.43.35-.61-.05-.15-.35-.13-.35-.2.02-.39.82-1.01,1-1.82.25-1.15-.28-1.04-.28-1.1,0-.3.43-.48.38-.9-.03-.27-.39-.5-.36-.72.05-.28.84-.68.7-1.65-.04-.26-.31-.48-.31-.57,0-.06.62-.72.69-1.1l-.37-.17c.14-.52,1.79-2.43,2.01-1.38h.27c.29-.13.03-.72.96-.46ZM153.88,59.37h-.36s0,.91,0,.91c.41-.11.39-.56.36-.91Z"/><path d="M78.33,14.5v.55s.91-.18.91-.18l.09.75.46-.02c.11.66.04,1.47.09,2.1.01.15.22.3.24.54.06.87-.59,2.62.59,2.74.14.73-.53.8-.55,1.37.93-.17.9,1.71.73,2.37l.55-.18c.05.77-.45,1.57-.38,2.28.03.28.59,2.7.67,2.83s.35.11.42.27c.06.13-.43,1.32-.43,1.71,0,.5.53.88.09,1.47,1.4-.1.31,1.55.37,1.64.02.03.28-.04.33.09.15.38-.52,1.38-.14,1.92l.27-.54c.53.67.41,1.38-.27,1.82l.67.26c.06.67.15,1.34.14,2.02,0,.5-.73,1.64.47,1.55-.24.26-.57,1.8-.32,1.97l.5.03-.15.34.33.2-.32.02c.26.4-.22.73-.2.95.02.17.35.41.44.67.11.3-.34.63.26.55v.18c-.52-.11-.26.59-.34.98l.28.27.43-.15c.54.87-.52,1.17-.55,1.55,0,.07.78.38,0,1.18l.73-.18c.27.93-.33.87-.36.92-.06.1.27.28.31.48.04.25-.19,1.45-.13,1.52l.91-.18-.34,1.8.52.29c-.49.56-.44,1.38.38,1.47.3,1.05-.49,1.63-.51,1.81-.04.53.65,1.02.65,1.09,0,.16-.2.41-.17.73.09,1.08.71,1.16.74,1.29.03.12-.38.59-.39,1.09,0,.12.41,2.28.46,2.39.07.16.81.68.93.98.12,0,.69-1.64.09-1.54.25-.21.35-.68.54-.88.26-.28.64.06.83-.94.12-.63-.21-.85-.26-1.44.09-.31.87-.28.82-1.49-.04-.92.03-1.47.03-2.39,0-.48-.45-.31.06-1.21.05-.09.45-.67.47-.72.04-.14-.05-.32.08-.5l-.73-.09.17-.55.56-.1c-.38-.45,0-.86,0-1.17,0-.11-.34-.08-.37-.23-.11-.48.25-1.86.73-1.89l-.38-.29c-.14-.76.84-.71.41-1.26.53-.14.09-.74.31-1.28.13-.32.79-.56.5-1-.12-.17-.53-.07-.46-.35.59-.36.52-.45,1.28-.19l-.19-.36c.31,0,.74,0,1-.19.37-.27.1-1.07,1.18-.61.68.29,1.27,1.72,1.54,2.44.08.21-.08.54.05.87s.67.39.88.79c.27.5.18,1.09-.27,1.45h.55s-.37,1.64-.37,1.64l.84.18c.27.45-.26,1.03-.24,1.34.01.27.57.84.31,1.22h.73c.1.47-.19.93-.17,1.36.02.6.45.62.49.74.15.41.17,1.91.22,2.46.09.05,1.23-.39,1.29-.49.36-.69-.4-1.99,0-2.87l-.56-.1.37-.27c-.36-.03-.44-.57-.37-.88.02-.11.48-.07.26-.86l.66-.17c-.2-.64-.75-.42-.35-1.17l-.39-.2.37-.18-.37-1.46.28.06.09-.33-.36-.18c.25.14.77-.86.73-.91-.02-.03-.35,0-.5-.27-.13-.24.16-2.2.13-2.64l-.55-.1.38-.21c-.18-.82-.09-1.12.36-1.8l-.37-.36.36-.46-.36-.09c.62-.5.14-1.31.5-2.01l-.69-.36c.52-.13.22-.38.38-.81h.72c-.34-.63-.45-1.26-.21-1.93-.68-.16.23-.56-.52-.72.61-.56.04-1.9.08-2.3.03-.34.47-.35.47-.46-.02-.65-.15-1.26-.18-1.82-.03-.5.46-1.64-.54-1.35-.22-.59.7-1.11.72-1.2.06-.23-.31-.5-.29-.72.01-.16.31-.26.23-.65-.06-.32-.75-.45-.3-1.26h-.55c.15-.52.24-.77.73-1.01l-.55-.09.16-.98.57-.11c-.24-.37,0-.9-.06-1.15-.06-.27-.46-.57-.45-.76,0-.1.82-1.14.87-1.84s-.57-.76,0-1.44l-.37-.18c.45-.73.75-.27,1.17-.27.12,0,.02-.34.37-.38.26-.03,1.78.12,1.92.21.02.01-.18.3,0,.44.32.28,2.1.62.38,1.01.09.44.19.92.14,1.37-.06.57-.69,1.88-.71,2.37,0,.14,1.16,1.51.2,2.19l.37.18-.37.55c.74.24.16,1.52.18,1.99,0,.12.29.09.33.19s.19,1.94.18,2.06c-.04.9-.71,1.71-.52,2.68l.53.12.03,1.06h.55s-1.21,1.56-1.21,1.56c.38.62.34,1.06.12,1.73l.73.09c-.31.74-1.03,1.28-.7,2.17.09.25.46.23.51.41.02.06-.02,1.16-.03,1.25,0,.05-.5.34-.32.82.23-.07.4-.37.37.09-.04.65-.5,1-.74,1.55l.55.09c-.71.31-.29,1.45-.55,2.1l.73.09-.91,1.27.91.37c-.79.73-.26,1.61-.56,2.53l.38.29c-.49-.08-.21.25-.29.37-.1.14-.42.13-.44.29-.01.1.16,1.82.2,1.97.06.2.29.08.35.12v.18c-.63,0-.52.67-.73,1.1l.91-.09c-.2,1.11-1.19,1.61-1.26,2.93l.89,1.08-.55.74.55.53-.55.57c-.08.69.56.84.57.91.05.45-.92,1.58-.35,2.42l.52.02-.37.64.37.17-.91,1.1.73.09c-.14.36-.38.8-.38,1.2,0,.34.31.24.35.35.08.22-.34.9-.51,1.1l.7.3v.49s-1.07.21-1.07.21c.44,1-1.45.45-1.47,1.27-1.35-.67-1.12.31-2.01-1.14-.07-.12-.31-.13-.33-.17-.17-.36.5-1.53-1.1-1.63l-.03-1.07-.73.36c-.17-.54.25-1.53.06-1.96-.16-.37-.65-.17-.77-.52-.13-.37.05-.97-.03-1.4-.03-.14-.64-.46-.67-.55-.18-.51-.07-1.35-.36-1.91-.2-.39-.58-.38-.82-1.2-.19-.66-.49-1.72-.35-2.23l-.36-.17c-.06-.41.43-.66.38-1.07,0-.09-1.1-1.06-.92-1.57-.47-.1-.26-.05-.31.22-.15.7-.03,1.3-.23,1.96l.91.18c-.66-.08-.12.28-.17.61,0,.05-.5.26-.42.62-.87.02-.04.32-.68.49.66.81,0,.87-.13,1.31s-.24,1.37-.05,1.79l-.37-.09c-.18.48.33.3.36.48,0,.04-.13.85-.15.9-.15.35-.41.32-.48.46-.6,1.18-.11,1.36-.28,2.05-.03.12-1.03,1.44-1.19,2.11-.18.81-.21,1.32-.45,2.15-.04.14.04,1-.12,1.17-.28.3-1.54.69-1.54,1.27l-1.73-.91-.27.36c.14-.68-.83-1.01-.89-1.11-.03-.04.16-.36.13-.58-.08-.54-.52-.58-.78-.87-.31-.35-.1-.87-.83-.72v-.18c.74.16-.03-1.37-.23-1.59-.16-.18-.54-.12-.65-.27-.03-.05-.37-1.07-.38-1.14-.09-.7.62-2.15.26-2.66-.15-.21-.63-.12-.78-.44-.07-.15.08-1.6.05-1.84-.09-.81-.63-1.86-.28-2.81-1.28,0-.68-1.61-.83-2.35-.09-.41-.42-.41-.44-.52-.1-.6.65-1.09-.36-.98.44-1.04.17-1.53.06-2.47-.03-.27.18-.58.13-.86-.01-.07-.64-.64-.57-1.29.01-.12.31-.09.35-.2.12-.35-.98-2.55-1.04-3.14-.04-.42.29-.55.29-.83,0-.39-.4-.9-.14-1.4h-.55s.13-.33.13-.33l-.31-.12c.77-.71.27-.81.22-1.32-.02-.23.11-.45.08-.67-.04-.31-.43-.57-.11-1.03h-.55c.37-.85-.15-.62-.2-1-.1-.76.35-.62.38-.77.1-.48-.37-1.25-.05-1.8l-.68-.27c-.08-.31.33-.07.38-.3.02-.12-.08-2.33-.11-2.46-.04-.23-.55-.82-.58-1.63,0-.2.08-.35.13-.53h-.55c.85-1.01-.23-2.12-.11-2.84.04-.23.4-.28.39-.64,0-.66-.57-1.5-.59-1.73s.36-.51.29-.62c-.02-.03-.25,0-.27-.05-.13-.29-.19-.66-.45-.96l.56-.55c-.32-.71-.89-1-.18-1.73-.67,0-.93-1.12,0-.92.1-.47-.12-.28-.37-.47l.37-1.35-.72-.2c.19-.26-.03-.61,0-.78.01-.07.56-.49.63-1.11.02-.21-.13-.48-.1-.73.06-.61.46-1.86-.17-2.01.42-.46.89-1.76,1.26-2.17.15-.16.14-.15.38-.11ZM100.23,60.28l-.73-.18c.04.4.12.86.54.73l.19-.54Z"/><path d="M255.15,13.42c-.04.61.58.76.74,1.04.48.84.56,2.38,1.06,3.27l-.33,3.7h.55c-.43.81-.42,1.51-.55,2.37h.55c-.24.79-1.09,1.69,0,2.1l-.37.18c.38.36.46.97-.18,1.01l.35.26c-.61.92.14,1.9-.36,2.84l.73-.18c.08.51-.65.96-.66,1.37,0,.22.39.73.11,1.18l.55.09-.55.73c.51.15.19.29.24.41.03.05.27.06.3.17.28,1.01-.63.25-.54.97h.55s-.73,5.84-.73,5.84l.36-.36.08.35c.79-.52,1.29.39,2.12.2l.09-.36.64.36-.16-.33.81-.4c.73.84,1.58.04,2.4.06.36,0,.55.3,1.01.28.5-.03,1.05-.5,1.33-.5.29,0,1.08.47,1.55.36v-.73c.49.32,1.06.09,1.54.19.38.08.74.48,1.11.47.79-.03.71-1.18,1.37-1.48l-.55-.09c-.24-.6.53-.66.55-.84,0-.05-.08-.95-.1-1-.2-.41-1.22-.34-.09-1.36-.04-.33-.72.08-.55-.36.06-.15.26-.06.35-.24.37-.67.61-1.1-.35-1.32.16-.47.37-.78.91-.73-.91-.72-.15-1.33-.22-1.69-.06-.3-.44-1.19-.5-1.5-.02-.1.28-.06.35-.22.48-1.07-.38-1.16-.35-1.23,1.36-.9.12-2.05-.18-3.1l.54-.27-.55-.09.55-.73c-.39-.02-.35-.58-.28-.91.18-.84.48-1.71.64-2.41.12-.5-.44-1.67.19-1.79l-.73-.27c-.24-1.19,1.17-1.16.71-2.54l-.53-.1c.67-1.31,1.23-2.62,2.97-2.1.29.09.21.69.41.92s.6.15.63.18c.17.18-.23.7-.26.89-.14,1.04.55,2.1.43,2.83-.04.27-.31.44-.31.71,0,.14.44.76.42.94,0,.07-.26,1.35-.29,1.42-.07.15-.37.15-.36.23.03.35.5.45.52.49.08.24-.57.64.4.52l-.55.54.55-.09c-.45,1.21-1,1.82-.47,3.14.02.05.44.15.41.5-.02.28-.35.48-.4.73-.25,1.05,0,2.18-.26,3.18,1.47,0,.13,1.35.08,1.99-.01.21.4,1.2.29,1.71-.04.2-.58-.11-.16,1.08.05.15.44.18.33.75l-.5.58c.27,1.63.31,1.84-.39,3.29-.24.49.6-.14.36.36-1.05,2.13-.6,2.12-.46,4.2.11,1.61.13,2.82.36,4.37.09.63-.21,1.41.29,1.46-1.24.74-.22,1.91-.74,3.1l.74.18c-.5.21-.24.74-.91.73.33.67.4.62,1.09.46-.16.49-.23.79-.73,1,1.02.48-.12,2.47.92,2.92-.55.13-.18.33-.36.69-.06.12-.31.11-.35.22-.01.04.15.68.15.9,0,.69-.6,1.29.37,1.65l-.72,1.29.33.16c-.08.16-.12.32-.11.5.05.64.33.57-.24,1.14.67.95.64,1.32,0,2.29,1.49.07-.52.69.1,1.64.26.4.23.26.51.86.04.09.42.08.2.61-.79.19-.96.98-1.72,1.15-.61.14-.9-.35-1.37.66l-.41-.45.32-.64c-.76.39-.95-.58-1.28-1.15-.08-.13-.36-.13-.37-.24-.02-.3.21-.45.25-.63.15-.61.31-.58.3-.62-.03-.37-.67-1.63-.66-2.01,0-.46.36-1.64.39-2.11s.16-2.31.1-2.59c-.05-.21-.54-.24-.56-.4,0-.09.46-.53.49-.76.06-.41-.45-.69.24-.9l-.2-.98h-.72s.38-.83.38-.83l-.38-.18.73-.92c-.95-.44-1.17-1.79,0-2.01-.84-.71-.07-1.52-.18-2.46l-.36.18c.09-.34-.3-.65-.34-.86-.04-.28,1.05-1.86-.04-1.88l.38-.29c-.16-.79-.14-1.16.17-1.89l-.73.18.37-2.01.36.19c-.38-.81.44-1.37-.54-1.73l.91-1c-.47.14-1.03.02-1.18.55-.15-.18-.32-.34-.56-.37-1.32-.17-3.18.44-4.2.35-.28-.02-.46-.35-.68-.32s-.71.56-1.22.33l.19.36c-.64-.12-1.1.18-1.38-.55l-1,.19v.73c-.64-.62-1.18-.15-1.72-.19-.31-.03-2.02-.63-2.11-.54-.03.62.16,1.33.12,1.94-.02.38-.52,2.12-.5,2.33.03.29.38.51.39.92,0,.43-.45,1.18-.35,1.83.02.11.31.06.33.21.06.28,0,1.06-.37,1.06.78.54-.01,1.02-.02,1.65,0,.34.38.24.39.38.07.6-.5,1.4-.56,1.82-.05.36.18.66.17.92-.05,1.04-.15,1.99.01,3.05l.37.3c-.5-.22-.4.8-.29,1.02s.76.29.31,1.04c-.1.17-.45.02-.38.31h.55s-.73,1.55-.73,1.55l.54.36c-.47.34-.69.85-.54,1.43.04.14.36.12.37.24.05.36-.39,1.48-.38,1.98l.55-.09.02,1.56.34.18c-.57.44-.11.95-.21,1.41-.16.67-.84.46,0,1.48l-.7.76.55.63c-.62.6-1.22-.2-1.64.27-.37.42-.05.6-.09,1.01-.89.02-.84-.99-1.55-.55l-.82-2.2h-.64c-.15-.65,1-1.85.19-1.82.72-.66-.12-1.05-.15-1.12-.07-.21.44-.43-.23-.61.12-.26.41-.81.33-1.09-.01-.06-.57-.22-.19-.96.12-.24.35-.24.42-.36.27-.47.23-2.05-.55-2.06-.04-.05.64-.95.67-1.21.08-.56-.53-1.28-.49-1.33.02-.03.48-.05.54-.46l-.54.09c.15-.28-.05-.79.02-.97.14-.38.6,0,.45-1.09-.02-.18-.28-.34-.26-.55.03-.33.53-.56.15-1.09-.23-.33-.66.08,0-.95-.64-.24-.56-.91.17-.91l-.73-.64c.52-.1,1.21-1.02.18-1.01l.35-.18-.15-.45.36-.11-.73-.09c-.12-.57.64-1.59.66-1.72.03-.19-.16-.46-.12-.71.02-.14.36-.1.38-.24.02-.09,0-1.66,0-1.78-.07-.58-.75-.84.18-1.02.14-.49-.3-.34-.54-.63l.36-.45-.55-.09c.14-.39.5-.81.61-1.17.23-.7.53-2.8.13-3.37-.13-.19-.6-.11-.74-.39.66-.7.27-1.58.91-2.28l-.73-.09.91-1.64-.36-.36.5-.74-.49-.7.53-.57-.73-.09c.39-.6-.17-1.13.37-1.64h-.55c-.17-.58.38-1.18.45-1.56.05-.27.14-1.82.07-1.89-.15-.15-.73-.05-.7-.39.8-.06,1.07-2.68,0-2.38l.33-.2c-.32-.55.28-.69.33-.97.14-.74-1.1-1.13.14-1.74l.07-.45c-.66-.35-.4-1.15-.14-1.74h-.55s.55-1.28.55-1.28l-.73-.09.74-1.09c-1.08-.46.12-1.64.17-2.38.07-.99-.33-2.13-.15-3.23.04-.27.35-.5.35-.77,0-.11-.52-.03-.37-.36.18-.4.59-.1.69-.14.03-.01.04-.28.26-.37s1.08-.41,1.22-.3Z"/><path d="M33.24,17.81c.11.15-.4.91-.32,1.16.04.11.37.02.36.36s-.29.55-.3.84c0,.42.29.99.28,1.44l.37-.09c-.15.65-.48,1.84-.46,2.48.03,1.44,1.11,3.59-.09,4.64l.36.35c-.16.35-.36.83-.28,1.21s.48.32.48.44c-.02.31-.69,1.33-.55,1.91l.73-.18-.51,1.95c.52.73.1.69.02,1.11-.25,1.29.07,2.6.32,3.86h1.27c.04.38-.22.86.36.74l.09-.55.46.36-.18-.55c.43.16.99-.02,1.37.04.09.01.02.3.35.34.48.06,1.06-.07,1.56-.01,0-.4-.15-.79.36-.83.44-.03.45.66.64-.09l.64.36.37-.49.92.31v-.55c.55.02.84.24,1.27-.18l.37.36-.18-.54c.92-.22,1.3.98,1.94-.17.87.35,1.32-.58,1.02-1.4-.1-.28-.41-.28-.41-.35,0-.31.39-.62.49-1,.12-.44-.24-1.25-.22-1.55.12-1.91.47-3.54.09-5.48l-.35-.16.37-.91c-.24-.44-.45-.08-.73-.19.07-.81.95-1.04.93-1.83-.02-.68-.43-.52-.53-.67-.22-.35.24-1,.29-1.39.07-.53.1-1.56.14-2.13s-.5-1.22-.41-1.86c.07-.48.6-.84.14-1.45l.35-.08c-.77-.66.02-1.08,0-1.55-.02-.44-.7-.47.18-1.09-.25-.19-.46.03-.36-.45l.52-.02.33-.88c1.31-.41,2.3,2.99,2.09,3.99h.71s-.36,2.09-.36,2.09l.73.38c-.12.62-.64.39-.73.46-.06.05.12,1.22.56,1.22l-.38,1.24c.28.44.51.14.91.1-.06.95-.88.7-1.02,1.36.6.99.52,2.03.55,3.11.01.44.01.61.05,1.11.04.54-.52.9.42.8-.3,1.02-.85,2.85-.52,3.89.16.52.65.07.7.12-.12.51.16,1.06-.55,1.1v.18c.38-.32.35,1.12.33,1.19s-.57.21-.33.82h.73c-.26.66-.99,2.19-.55,2.8.12.17.36.11.37.13.06.09-.85,1.6-.31,1.97.37.26.42-.36.5.76h-.73s.37.28.37.28l-.37,1h.73c-.82,1-.16,1.87-.21,2.8s-.37,1.83-.52,2.43c-.11.46.13,1.42.66,1.61.21.52-.45.61-.45.73-.05.89.17,3.5.34,4.38.08.42.5.57.53.76.04.21-.28.39-.31.56-.06.27.66,1.21-.04,1.88l.55.19.18-.55c.27.76-.55,1.38-.56,1.9-.01.56.27,3.21.39,3.8.03.15.67.31-.01,1.05l.36.18-.35.08.17.65.55-.09-.03.98-.7.3c.64.13.1.56.19.88.04.14.36.11.37.22.05.65-.92.9-.38,1.89l-.69.27.14.65c-.66.21-.61-.43-.75-.53-.12-.08-.47.25-.88.08s-.83-.82-1.16-1.08c-.29-.23-.62-.13-.65-.15-.45-.43.11-.83.13-1.14.02-.33-.12-1.46-.53-1.47.13-.16.37-.28.45-.46.48-1.06-.45-.9-.43-1.34.02-.52.83-.23.33-1.44-.1-.24-.74-.05,0-.8l-.37-.52.34-.92-.67-.48c-.05-.59.5-.67.53-.71.06-.1-.25-.25-.28-.44-.1-.77.22-2.6.1-3.08-.04-.18-.58,0-.19-.56l-.37-.11.38-.29c-.11-.67-.47-1.22-.2-1.9l-.54.18c.06-.51.51-.81.53-1.38.04-.86-.68-1.2-.73-1.63-.07-.42.17-.59.55-.64.06-.34-.35-.53-.37-.82-.05-.54.62-.52-.06-1.48-.08-.11-.28-.05-.29-.07-.03-.05.43-.52.12-1.04l.41-.31c-.04-.54-.69-.63-.35-1.01h-.55s.33-.21.33-.21c-.27-.45.34-.31.37-.83l.04-.3-.49-.57.48-1.37c-.77.43-2.38-.2-2.56.73l-.26-.36c-.5.46-1.7.17-1.74.91h-.18c.21-.29-.82-.53-1-.53-.83,0-.49.99-1.79.67-.35-.09-.5-.67-.52.01l-.53-.15.09.36c-1.12-.37-.56.84-1.77.34-.16-.07-.14-.29-.27-.33-.6-.18-1.63.29-2.25.35l.36.18c-.21.37-.47.56-.54,1.02-.01.09.01,1.68.03,1.76.07.33.41.56.44.77.03.29-.42,1.21-.3,1.64l.56.19c-.18.34-.02,1.07-.06,1.29-.07.3-.67.12-.49.63l.73.28c-.48.05-1.27,2.05-.19,1.37.07.56-.43,1.05-.46,1.54-.04.71.54,1.42.46,1.99-.05.38-.48.8-.5,1.33,0,.34.6,1.41.61,1.61.02.33-.54.81-.58,1.09-.05.36.24.96-.06,1.45l.89.56-.55,1.36h.73c-.23.24,0,.74-.03.82-.04.11-.38.02-.36.36.03.54.74.9-.16,1.28.53.41.13,1.27.37,1.92l.36-.18v.81s-.55.22-.55.22c-.32.55.38.82-.08,1.17-.14.1-1.81.48-2.02.46-.87-.08-1-1.22-1.2-1.38-.04-.03-.68.15-.89-.01-.08-.29.25-.13.3-.21.02-.04.26-.91.26-.97.06-.66-.5-.5-.56-.72-.08-.31.49-.51.5-.73,0-.15-.27-.38-.28-.59-.06-.83.65-2.05-.77-1.88-.07-.05.47-1.06.47-1.19,0-.3-.02-1.16-.02-1.56-.01-.73-.45-.77-.45-.82-.01-.28.33-.78.17-1.16h-.54c-.05-.05.5-1.05.52-1.24.05-.37-.24-.5-.26-.69-.02-.17.37-1.47.29-1.55l-.73-.09c.51-.09.19-.38.35-.56s.49-.22.55-.29c.13-.18-.16-.57-.15-.8.02-.28.35-.46.35-.72,0-.41-.14-.34-.07-1.18.06-.71-.43-.73-.45-.82-.06-.49.6-2.12-.4-1.74-.17-.72.55-1.63.57-2.1.01-.28-.67-.36-.37-.99h.54c-.53-.67-.06-1.75-.17-2.26-.05-.25-.57-.18-.71-.33-.03-.03.09-.25.04-.34-.07-.11-1.83-1-2.05-1.05-.35-.08-.6.14-.99-.04-.55-.25-.73-1.69-.4-2.18.19-.28,1.77-1.49,1.81-.56.77-.21.42-.7.46-.73.2-.12,1.04.14.92.54.42-.12.39-.57.36-.91l-.54-.09c.02-.36.72-.89.73-.95.08-.42-.21-.82-.15-1.2.09-.64.76-.56-.21-1.22l.73-.37-.32-.2c.08-.41.02-1.01-.38-1.15l.15-1.01-.54-.1c.65-.12.1-.8.22-1.24.07-.24.38-.37.43-.58.26-1.03.15-1.35-.17-2.28-.13-.4.4-.32-.66-.46.33-.08.77-1.16.69-1.46-.03-.13-.37-.02-.34-.35.04-.45.51-.74.56-1.12.07-.54-.68-1.84-.21-2.55l-.35-.16c.41-.44,0-.93.55-1.12-.39-.55.17-.39.2-.55-.09-.32-.1-.73-.21-1.03-.06-.17-.37-.13-.35-.22.04-.17.45-.5.49-.76.05-.28-.11-1.07-.05-1.52.05-.4.46-1.38.46-1.55,0-.29-.29-.52-.3-.73,0-.36.76-.88-.07-1.09.4-.56,1.29-.8.91-1.73l.65.17.17-.35c.55.45,1.2,1.26,1.32,1.96.11.62-.18,2.68.11,3.25.12.23.41.21.46.28Z"/><path d="M123.34,13.85c.36.19.59.18.71.26.57.37.22.92,1.54.75l-.55.73.91.28-.37.63c.94-.47,1.05,1.02.55,1.55l.54.09c.01.28-.21.53-.18.81.02.27.71,1.41.73,1.5.09.41-.08.97.17,1.41l.75.11-.28.74c.13.68.62.31.65.35.1.14-.22,3.02-.15,3.44l.53.48c-.72,1.04.28,1.27-.02,2.28h.54c.1.78-.54,1.09-.16,1.86.11.23.68.2.18.98l.35.08c0,.28-.41.27-.51.39-.07.09.03,2.22.88,1.79l-.55,1.18.55.1c-.28.63.4,1.74-.55,1.82v.18c.7-.1.01,1.26.27,1.65h.83c-.08.78-.68,1.42-.55,2.27.05.36.35.44.44.64.07.15-.09.39.02.55.1.14.43.14.47.31.06.25-.49,1.58-.49,1.97,0,.96.9,2.33.82,3.3-.05.64-.31,1.6-.28,2.39.01.39.41.96.12,1.52l.55-.18c-.2.31.12.5.14.67.04.37-.43.46-.45.69,0,.08.35,1.29.41,1.55.09.41-.11.45.34.94l.12,1.8.55-.18c.09.48-.33,1.23-.32,1.52.03.86.54,1.9,1,2.53.26.36-.2,2.98.97,2.7l-.18,2.73.36-.36c.29.39-.54,1.69-.36,1.82.4.3.35-.41.45-.36l.44.62c-.01.59-.68,1.74-.64,2.11.05.42.4.64.43,1.12.04.51-.19.98-.14,1.32.01.1,1.05.53.19,1.13l.36.18c-.25.7-1.02.27-1.07.3-.09.06,0,.44-.48.53-.08.02-1.57-.06-1.64-.09-.59-.23-.49-.98-1.36-.29l.02-.9c.35-.05.63.14.53-.37h-.73c-.24-.64.28-1.3.3-1.73.01-.27-.38-.72-.12-1.18h-.55s.37-.82.37-.82l-.39-.2c.33-.77.05-1.36-.19-2.12-.03-.08-.48-.29-.3-.6.08-.15.47.02.32-.45l-.73-.19c.15-.99,1.27-1.43-.18-1.91l.54-1.28-.55-.09c.29-.48-.01-1.35.05-1.7.04-.2.38-.37.32-.48-.03-.05-.69-.14-.57-.9l-.68-.03c-.37-.56.22-.76.31-1.21s-.04-2.06-.7-1.69c.32-.42-.1-.77-.1-1-.01-.51.71-1.38-.63-1.19.18-.44.05-1.1.19-1.51.08-.24.43,0,.36-.31l-.36-.09c.48-.68.17-1.61.02-2.36l-.75-.11.18-.91c-.47-.21-.3.36-.48.38-.32.03-.88-.27-1.33,0l-.02.89c-.76-.18-1.37-.96-2.26-.7-.22.06-.25.4-.43.53-.61.42-1.04.13-1.69.25-.92.18-1.48,1.11-2.1.47l-.29.53-.42-.17c-.24.7-1.03.06-1.48.07-1.03.03-.27.73-.3.9-.03.23-.6.66-.67.99-.14.56.3.86.29,1.05-.03.35-1.52,1.06.05,1.82l-.91.83c.58.56.56.92.35,1.69-.04.16-.34.13-.33.21.09,1.42-.62,2.28-.01,3.64-.88.25.29,1.11-.74,1.2l.54.45c-.1.14-.24.29-.28.45-.39,1.64-.87,3.72-1.58,5.35-.37.85.12,2.28-1.74,1.54-.09-.75-.14-1.5-.21-2.26-.05-.5.31-.37-.2-.89.05-.5.8-.75.89-1.13.1-.42-.34-1.17-.31-1.62.02-.33.5-1.46.52-1.82.07-1.01-.74-2.02.13-3.1l-.81-.54c-.11-.46.4-.68.47-.96.03-.1.18-1.8.19-1.98,0-.07-1.12-.79.2-.81-.4-.55.38-1.04.09-1.46-.08-.12-.36-.09-.43-.27-.11-.26.45-1.04.47-1.3.03-.3-.18-.65-.13-1.06.08-.66,1.14-2.18-.18-2.12.28-.29,0-.85.03-.99.01-.05.63-.4.64-.73,0-.21-.36-.49-.43-.88s0-1.88.49-2.04l-.37-.18.38-.21c.05-.36-.13-.7-.13-1.05,0-.63.35-1.21-.43-1.03l.37-.27-.37-.18c1.33-.7.84-1.83,1.09-3.01-1.31.18-.52-.56-.4-1.24.05-.29-.1-.58-.05-.79.1-.44,1.48-1.51.09-1.44.03-.18.25-1.24.29-1.29.2-.23,1.02-.27.07-.63.65-.62.45-1.38.64-2.2.06-.27.38-.48.42-.76.1-.62-.34-1.85.03-2.48.2-.35.53-1.06.68-1.54.19-.59.25-1.24.59-1.79l-.38-.18c-.05-.48.54-.67.54-.71-.01-.19-.21-.43-.18-.74.09-1.01,1.44-3.32,1.27-3.84-.03-.09-.35-.09-.34-.17l.22-.43.7-.03-.18-.54c.98-.1.53-.31.69-.67.26-.59.6-1.58.89-2.07.15-.25.6.05.25-.8l.54-.3v-.35s-.37-.1-.37-.1l1.1-.92-.36-.45c.3-.34,2.48.33,2.64-.55.26.28.61.45.94.62ZM122.13,17.61c-.54.07-1.27.88-1.27,1.37,0,.24.33.42.28.64-.11.56-.66.43-.85.66-.33.39.25.69.19.79,0,.01-.22-.04-.29.07-1,1.46-.8,2.08-1.21,3.48-.07.25-.4.19-.48.38-.05.12.06,2.1-.07,2.55-.02.05-.64.52-.5.91l.55-.09c-.11.29-.03.89-.1,1.11-.16.46-.51.43-.62.67-.22.51.05,2.48-.73,2.59l.37.28-.57,1.99.38.19-.73,1.1.54.28v.27c-1.03.85-.27.77-.21.91.02.06.16,1.22.16,1.28-.01.17-.59.65-.67.92l.54.54-.74.38c.11.67.23,1.04-.17,1.62l.37.18c-.96,1.09.37,1.19.36,1.28-.06.42-.26.79-.73.64v.55s.73,0,.73,0c-.04.91-.67.67-.73.73-.3.29.53.83.52,1.15-.01.36-.85.71-.52,1.03.44.42,1.38-1.14,2.08-.55l.19-.35.47.16-.19-.36c1.11.11,3.66.66,3.84-.91,1.02.73,1.41-.04,1.96-.15.51-.1.68.44,1.23-.23l.74.38.64-1.18c.17-.49-.63-.17-.73-.27v-1.34s.37-.12.37-.12l-.36-.36c.77-.01-.11-1.51.29-2.11-1.17-.68-.14-.97-.33-1.95-.1-.57-.72-.7-.7-.77l.33-.11.04-.8c.55.19.54-.25,0-.37l.37-.27c-.7.27-.96-.47-1.01-1.08-.02-.34.24-.99.64-.93l-.56-.63.57-1.19c-.68-.19-.51.39-.91.54-.01-.45-.16-.92-.02-1.37s1.29-1.49-.16-1.55c-.07-.31.25-.12.32-.2.25-.29-.3-.84-.34-.98-.17-.6.48-1.47-.34-1.55v-.18c.91-.06-.09-1.32-.14-1.58-.16-1.02-.13-2.53-.3-3.63-.03-.22-.55-.48-.38-1h-.83s.17-1.53.17-1.53l-.54-.11c.51-1.18.18-.68,0-1.05-.11-.23-.14-.53-.2-.78Z"/><path d="M234.68,12.37s.03.28.17.31c.46.1.96-.25,1.42-.19.39.05,1.53.94,1.57,0l.64.73c.04-.57,1.07-.66,1.44-.5.25.11,1.2.71,1.51.86.43.21,1.1.34,1.41.74.5.63-.12.89.93.88l.45,1.3.51-.16.61.87.51-.16v2.19s.36-.19.36-.19c-.35.72.22.85.31,1.28.08.39-.51,1.46-.49,1.55.04.18.47.22.53.31.05.09-.25,1.54.19,1.86l-.71.66.37.1-.56.91c.51.15.38.41.38.91l-.56.1.36.54-.33.03.11.31-.33.12.73.18c-.39.57-.22,1-1.09.82.34.63-.18.86-.18,1.46l.36.09c-.21.75-1.12,1.21-1.44,1.67-.55.79.05,1.7-1.29,1.73l-.11,1.08c-.5.12-.91.44-1.35.64s-.88-.18-.73.63c-.38-.04-.26-.52-.41-.68-.21-.21-.96-.06-.83-.82.08-.53.87-1.68.88-1.88,0-.07-.33-.05-.36-.2-.02-.1.45-1.78.53-1.93.1-.18.41-.17.5-.4.06-.16-.16-.97-.12-1.01h.73s-.55-.37-.55-.37c.5-.41.29-1.56.47-2.01.17-.42.97-.43,1-1.19.01-.34-.34-.21-.37-.38-.1-.49.32-1.66.29-1.97-.02-.15-.26-.32-.27-.54-.03-.52.54-.92.5-1.42-.07-.97-1.03-1.46-.7-2.23l-.18-.19c-.6.29-.31-.53-.57-.79-.03-.03-.28.13-.44-.01s-.2-.46-.31-.53c-.23-.14-.74.02-1.13-.24-.21-.14-.25-.46-.31-.51-.13-.09-.5.22-.77.15-.23-.06-.24-.55-.65-.65-.09-.02-1.29,0-1.38.01-.3.05-.45.54-.77.63-.37.1-.77-.22-.93-.13-.07.04-.94.85-1.11,1.04-.81.88-1.27,1.88-2.39,2.5v.26c.57-.03.2.36.35.73h-.54s.14.34.14.34c-.82.29-.64,1.96-.9,2.47-.14.27-.44.27-.49.34-.11.19.15.48.06.7s-.63.48-.75.9c-.14.48.43,1.4-.43,1.47.13.36.38.54.73.36.16.27-.75,1.34-.74,1.73,0,.11.3.08.34.18.1.27-.23,1.54-.06,1.74h.64c.01.52.09,2.18.27,2.56.13.26.55.3.62.4s-.13.35-.06.51c.13.31,1.08,1.03,1.13,1.13.12.23-.02.55.05.73.13.3.76.87.81.14.35.74,1.62,1.02.82,1.82l.37.37c.32.07.12-.27.2-.34.32-.26,1.02.56,1.09.6.42.25,1-.03.91.84l.73-.19v.73c1.03-.45.89.21,1.43.53.11.06,1.06.48,1.12.49.24.04.37-.25.46-.25.24,0,.39.59.58.7.13.08,1.01.4,1.25.49.61.24,1.47.02,1,1.14l.46.19.18-.37,1.37,1.74.55-.2.36,1.01.73-.18c.18.33-.05.94,0,1.15.03.15.36.11.37.23.01.16-.22.38-.1.62.05.1,1.15,1.17,1.4,1.55.28.44.63,1.9.76,2.05.15.17.52.13.65.25.03.03-.07.22-.02.33.09.19.3.38.33.54.06.24-.38,1.36-.28,1.84l.46-.12.25.24.22,1.96c-.64.19-.18.6-.25,1.15-.05.36-.51,1.19-.13,1.42l.55.09-.54.64.73.09-.2.89-.71.02c.04.51.64-.05.53.43-.15.67-.69.94-.79,1.2-.08.21.15.48,0,.73-.13.21-1.7,1.13-.28,1.1l-.55.18.36.36c-.24.08-.93.27-1.05.4-.04.04.09.26.03.33-.29.4-.92.19-1.36.37l.18.36c-1.01-.09-.81.48-1.15.86-.26.3-1.02.42-.68,1.14-.87-.39-1.74.61-2.12.69-.83.18-.84.1-1.75.78-.12.09-.15.32-.17.32-.12.05-.62-.26-.88-.15l.18.54-2.28-.54-.43.46-1.12-.27.18.54c-.32-.19-.71.08-.98-.02s-.22-.5-.41-.53c-.43-.07-1.49.12-1.89.36v-.73c-.81-.13.19.63-.46.55s-.91-.87-1.56-1.01c-.3-.06-.4.34-.54.27-.02-.01.07-.31-.23-.43-.23-.09-.57.05-.69-.04-.19-.14-.57-.78-.9-.44.12-1.7-.74-1.26-1.41-1.69-.26-.17-.38-1.12-.71-1.22l-.8.17.55-1.46-.63.19-.14-.32-.32.13c-.16-.63-.16-1.06.18-1.64l-.73-.19.24-2.65.49-.27-.55-.36.35-.19-.17-.53c.23-.17.94-.19,1.05-.25.21-.12.69-.93,1.32-.74.95.28.72.92.92,1.41.07.17.29.14.31.22.15.66-.18,1.39-.15,1.8.01.13.35.12.44.34.13.32-.06.67.06,1,.04.12.94,1.2,1.09,1.39.11.14.08.42.25.57.42.37,1.04.06,1.28.18.34.18.31.7.54.91.15.14,1.15.12,1.25.16.07.03.43.73.75.77.34.04.68-.37,1.2-.29.4.06.78.7,1.63.54.13-.02.11-.27.16-.29.13-.06.31.28.59-.42,1.48,1.06.94-.3,1-.36.28-.29,3.31.57,2.76-.9.3-.05.56-.28.85-.34.39-.09.66-.15.6.32h.18c-.06-.59.76-.6.88-.77.18-.26-.06-1.05.77-1.06l-.29-.73c.1-.42.62-.54.83-.84.13-.19.03-.43.12-.62.06-.11.34-.12.4-.27.06-.14.12-1.75-.33-1.64l.37-1.01h-.73c.34-.49.71-2.5.32-2.88-.16-.15-.52-.12-.65-.26-.47-.55.5-1.91-.76-2.16.82-.98-.28-1.51-.19-2.54-1.62.42-.84-.43-1.01-.73-.31-.56-.9-.37-1.1-.52-.41-.3-.37-.99-.63-1.4-.05-.09-1.43-1.26-1.52-1.3-.4-.18-.9-.12-1.26-.26-.26-.1-.62-.83-1.42-.53v-.73c-.62.15-1,.5-1.64.18l.18-.73c-.45,0-.7.16-1.16-.01-1.23-.45-2.11-2.08-3.43-2.62-.21-.08-.45.07-.5.05-.08-.05-.28-.68-.49-.87-.31-.27-.69-.22-.94-.43-.13-.11-2.12-2.38-2.22-2.52-.03-.05.18-.35.13-.57-.02-.09-.67-1.67-.74-1.74-.07-.08-.4-.03-.59-.22-.6-.63-.18-.98-.18-1.36,0-.11-.21-.21-.2-.46,0-.12.24-.32.24-.6,0-.47-.51-.49-.63-.75s.45-2.02.3-2.1c-.11-.06-.4.04-.52-.03-.03-.02-.12-.69-.12-.73.09-.58.71-1.3.74-1.8.02-.24-.25-.37-.24-.62.05-.92,1.07-1.29,1.19-1.72.02-.06.21-1,.22-1.05.03-.56-.6-1.17.35-1.38-.51-.95.47-.63.39-1.26l-.36-.18c.26.07.68-.5.71-.66.1-.56-.78-.07-.53-.52.3-.54.86-.34,1.11-.58.48-.46.52-1.61.58-1.68.1-.12.64.14-.05-.48.64-.43.65-.31.99-.93.04-.07.23-.08.24-.11.07-.17-.33-.56.05-.79.27-.16,1.3.45.73-.81l1.83-.46.18-1.19,1.89.19.28-.66.51-.02Z"/><path d="M203.75,15.92c.3.17.67-.21.78.39.06.34-.14.64-.07.96.08.34.53.54.53,1.14,0,.48-.32,1.63-.3,2.19,0,.28.4,1.21.66,1.46l-.36.17c.46.87.31,1.63.92,2.37l-.74.29.2.8-.37.12c.44.46.28.7.18,1.27h.55c.05.43-.63.88-.65,1.08-.04.37.56,1.41.58,1.74.03.53-.37,1.3-.66,1.74l.74.31c.16.79-.37.79-.5,1.05-.03.06.05,1.3.12,1.43.08.14.38.12.37.21-.02.21-.36.55-.35.93.02.53,1.23,1.29-.01,1.18l.36.36c-.18,0-.35.04-.43.23-.03.07-.13,1.41-.12,1.48.01.13.34.1.37.24.11.44-.19.91-.13,1.22.04.25.45.51.47.78.02.25-.32.41-.3.67.04.54.68,1.1.7,1.17.1.41-.39,1.74-.37,2.14,0,.09.53.03.26.68-.16.39-.4.26-.46.61.04.82,1.08.45.19,1.65l.37.18-.48.73c.62.66.29.74.37,1.43.03.23.2.43.23.67.07.7-.41.7-.45.82-.07.23.36.93.35,1.28,0,.4-.38.65-.35.88.03.3.49.57.15,1.03l.73-.18-.16.98-.57.11c.26.63-.09,2,.73,2.19l-.36.27c1.11,1.03,1.27,2.22.76,3.66,0,.09,1.84,1.2.33,1.18.23.86.68,1.48,1.1,2.23.28.5.25.62.46,1.04.03.06.93.94.99.98.6.34,1.54.26,2.2.21.17-.9.88-1.11,1.08-2.01l-.36-.17.2-.63.89-.03c-.57-1.08.59-2.05.65-2.9.02-.26-.28-.41-.28-.65,0-.41,1.18-1.33-.18-1.75l.72-.72-.56-.47.35-.87c0-.52-.74-.25-.34-1.26.08-.21.54-.06.38-1.14-.05-.36-.32-.24-.44-.5-.54-1.21.73-2.91.42-3.47-.06-.1-.29-.13-.31-.17s-.15-.85-.15-.89c.01-.56.21-.94.64-1.25-.7.09-.33-1.56-.58-1.81l-.52-.02c.15-.51.24-.76.73-1l-.66-.91.49-1.27-.37-.1.36-.36-.91-.09.55-.18-.37-.18.91-2.37-.73-.91c.72-.15.06-.88.07-1.09,0-.14.23-.29.25-.42.05-.55-.15-.97.23-1.5h-.55s.53-1.34.53-1.34l-.5-.6c-.11-.49.52-.65.51-.69-.05-.4-.47-.76-.36-1.46.07-.45.56-.57.55-.92,0-.15-.28-.05-.33-.18-.11-.29.48-1.15-.22-1.01l.38-.45c-.58-.95-.18-.99-.06-1.69s.18-1.43.41-2.13l-.74-.39c.17-.46.35-.94.91-.82-.69-.6.42-.83-.36-1.37.42.04.47-1.2,0-1v-.18c.72-.28.63-1.02.56-1.75,0-.09.36,0,.37-.34.02-.56-.47-.79.16-.92.01-.1-.62,0-.35-.71l.71-.29c-.03-.37-.28-.78-.19-1.16.05-.19.7.05,0-.76.45-.11.35-.59.65-.81.38-.27.96.05.82-.73l2.16.37.02.71.36-.19c-.08.84-.35,1.31.53,1.73l-1.07,2.57.35.08c-.94.82,1.12,1.89-.73,1.82l.74.64v.36s-.37.36-.37.36l.36-.09-.02.35c-.55.03-.13.76-.89.56-.14.34.3.65.3.82,0,.11-.23.27-.23.39,0,.38.22.72-.04,1.08l.34.17-.37.64.55.09-.91,1.1c.7.17.25.73.23,1.28-.07,1.53-.19,2.86-.11,4.41.03.66-.43,1.33.44,1.15.01.47-.41.92-.48,1.27-.02.08-.09,1.62-.07,1.7.06.19.64.22.5.75-.47.4-.63.79-.69,1.37h.55s-.55.91-.55.91c.98-.21.52.89-.18.73-.17.46.55.46.56.65.01.21-.27.55-.29.79-.02.21-.02.84-.05,1.25-.08,1.04.77,1.74.14,3.04l.37.19c-.87.83.05,1.21.14,1.46.17.47-.23.99-.25,1.28-.01.27.27.63.22,1-.05.35-.57,1.51-.47,1.89.06.21.53.23.54.39.02.19-.94,2.1,0,2.74-.68.16-.14,1.36-.17,1.8-.01.17-.57-.01-.38.47l.73.09c-.19.46-.69.55-.8,1.03-.23.97.43,1.08.42,1.14-.03.51-.74.77-.63,1.47.04.26.44.56.43.73-.03.48-1.57.28.03,1.27-.12.4-.85.41-.91.47-.02.02.15.27.11.42-.16.7-.65,2.37-1.13,2.87-.15.16-.41-.01-.43.01-.08.1-.06.54-.22.78-.35.53-.98.03.01.83-.2.21-1.05.23-1.1.27-.17.14-.13.46-.24.59-.26.3-.81.32-.99.47-.21.18-.12.65-.34.69-.43.09-.72-.29-1.07-.34-.74-.11-1.55.12-2.01.29-.39.15-1.26-.49-1.8-.16-.13-.03-.96-1.18-.85-1.44l-.9.18-.19-.46.37-.18-.64-.64-.64.36.19-.44-.38-.19v-.37s.36-.35.36-.35l-.65-.83-.61.17v-1.1s-.37.19-.37.19l.18-1.64-.91.18c.16-.68.76-2.7-.37-2.55.49-.76-.44-.96-.54-1.23-.03-.07-.21-1.48-.19-1.55.05-.22.54-.24.55-.4,0-.05-.23-.27-.27-.46s.06-.46,0-.55c-.11-.17-.6-.29-.62-.45,0-.08.33-.36.31-.7-.01-.23-.4-1.43-.67-1.48.19-.89,1.09-3.08-.2-3.39l.35-.26c-.21-.42-.02-.79-.53-.93l.37-.18-.34-.36.33-.82-.36-.09c.1-.42.68-.62.81-.82.43-.67-.35-2.6-.39-3.31-.04-.58.43-1-.23-1.16l.5-.92c-.45-.34-.42-.61-.58-.95-.02-.04-.28-.05-.3-.16-.07-.5.44-.79.48-1.07.03-.22-.13-.55-.1-.91.02-.23.29-.44.3-.56.01-.24-.36-.47-.4-.72-.03-.18.16-.5.1-.64-.01-.03-.42.24-.55-.09l.32-.11c-.23-.63.38-1.66,0-2.31-.06-.11-.48-.15-.5-.31,0-.06.31-1.02.34-1.06.15-.2.52,0,.38-.49l-.54.09c-.02-.54.64-1.12.66-1.46.01-.24-.28-1.42-.33-2.02,0-.12-.27-.07-.3-.17-.12-.33.46-.78.52-1.1.1-.56-.21-1.01-.18-1.45.07-1.03.27-3.12-.01-4.17-.04-.14-.54-.05-.36-.72.03-.11.25-.12.34-.27.43-.75-.09-.52-.17-.71-.03-.08-.26-.82-.26-.87-.01-.66.42-.64.44-.76.03-.21-.19-.81.01-1.16-1.2.09-.09-.53-.07-1.01,0-.15-.23-.58-.25-.96-.04-1.21-.18-2.99,1.61-2.69.86.14.91.85,1.13.98Z"/><path d="M67.44,13.72c.2.24.8.36.96.61.14.24-.06.5,0,.73.13.41,1.3,1.26,1.32,1.38.09.42-.66.74.57.63l-.36.27c.86.41.33.36.36.91.02.23.15,1.66.2,1.72.01.02.28-.15.44,0,.97.83-1.23,1.02.27,1.76l-.36,1.17h.55c-.99,1.22.06,1.9.17,2.84.06.51-.25,1.16-.06,1.88.14.52.82.64.07,1.49l.73-.18-.14.33.32.12c-.21.38-.24.55-.73.46v.36c.58-.09.17.64.27,1.1.21.95,1.1,1.56.48,2.53l.88.68-.15,1.51h.54s-.18,1.46-.18,1.46l.54.02c-.08.52-.03.85-.54,1.18l.38.19-.19.81.73-.18c.03.44-.4.91-.47,1.19-.12.53.39,1.48-.08,2.09l.73-.18c.07.04-.18,1.33-.17,1.54.04.71.84,1.24.17,1.84.73.34-.02,1.64.06,2.41.04.43.59,1.32.6,1.63.05,1.03.05,2.05.12,3.05.02.26.63.49-.05.94l.27.27.46-.18c.29,1.06-.5,2.07-.14,3.07l.51.03c-.61.91.18,2.09-.55,2.91l.38.11c-.16.42-.2.9.16,1.23.27.25.83-.07.38.9-.05.11-.31.09-.36.27-.34,1.12.04,1.67.44,2.62.08.2-.08.44-.04.5.05.08.4.08.49.32.18.51-.2.77-.25,1.08-.04.23.08.68-.02.81-.22.29-.79.33-.81.37-.08.11.44.7-.12.88-.93.29-1.43-.64-2.32-.7l-.12-.56-.91.37c.26-1.23.35-1.92-.19-3.1l-.55.18c.22-.24,0-.72.03-.82s.26-.1.31-.24c.38-1.01.53-1.48-.53-2.14l.55-.55c-.07-.58-.9-.16-.17-1.28l-.38-.18c.28-.57.73-.8.55-1.55-.98.57-.98-1.05-.87-1.69.06-.34.74-.54-.05-.79l.19-.99-.54.18c.17-.55-.27-1.22.55-1.28l-.38-.28.21-.7c-.6-.19-.17-.31-.24-.69-.13-.7-.54-1.01.22-1.51l-.32-.12.13-.32c-1.41-.38-2.9-.31-4.3-.21-.56.04-.71-.47-1.09.39l-1.17-.37-.1.54-2.26-.36-.29.72-1.36-.36c-.09.52.21,1,.15,1.51-.05.4-.66.6-.68,1.33l.35.34c-.51.55-.1,1.07-.22,1.6-.11.48-.63.32.05.96.05.57-.3.44-.33.55-.11.4-.23,1.94-.24,2.39-.01.51.36.85.31,1.17-.07.43-.52.69-.62,1.06s.07,1.22-.05,1.76c-.08.38-.4.48-.35.83h.55s0,.55,0,.55h-.55s.2.65.2.65c-.71.58-.08.84-.23,1.59-.1.5-.82,1.57-1.03,2.09-.25.63.01,1.59-1.19,1.46-.91-.1-1.09-2.37-1.04-3.15.04-.65.16-1.07.19-1.81,0-.12.35-.08.38-.22.07-.39-.33-1.32-.03-1.81l-.34-.17.56-.74c.06-.3-.28-.24-.37-.41-.43-.86.39-1.62.47-2.23.07-.55-.39-1.39.07-2.01l-.55-.1c.23-.39.13-1.56.23-1.8.11-.27.44-.25.48-.31s0-1.18.02-1.54c.02-.46.06-1.75-.37-1.81.56-.77.71-2.4.68-3.24-.02-.61-.64-1.37.23-1.68l-.38-.2c.19-.31.02-.82.07-1.05.08-.33.35-.52.39-.68.15-.6.12-1.42.46-2.08l-.36.09-.19-.73h.73c-.36-.79.23-1.71.32-2.51.03-.26.08-1.56.07-1.79-.02-.34-.39-.26-.38-.35.08-.67,1.15-3.32,1.46-4.02-.78-.2-.1-1.14-.06-1.49.03-.27-.16-.56-.12-.87.02-.15.47-1.68.37-1.75l-.55-.09c.18-.48.91-.94,1.02-1.36.11-.4-.21-.57-.22-.82-.02-.34.35-.69.43-1.06s-.17-1.02-.03-1.43c.17-.49.79-.86.96-1.69.31-1.47.76-2.77,1.01-4.35.12-.75,1.13-3.6,1.69-4.32.16-.21,1.08-.88,1.12-.95.05-.09-.25-.41.04-.61.83-.12,1.13.28,1.74-.44.26.13.2.52.33.67ZM65.99,18.81s-.17-.63-.35-.12c-.22.64-.38,2.5-.66,2.98-.12.21-.29.31-.52.31l.54.45c-.37.29-.53.58-.62,1.04-.14.7.39,1.33-.47,1.43v.36s.46.18.46.18l.07.36c-.66.16-.61,1.22-.84,1.79-.1.24-.38.23-.39.25-.03.07.09,1.05.03,1.45-.15,1.03-.11,1.03-.13,1.89,0,.14-.38.59-.44.96-.11.68.03,1.4-.23,2.05l.55.09c-.99.92-.11,2.07-.55,3.24-.16.43-.24,0-.43,1.05s-.29,1.37-.62,2.32c-.3.86.34.99.33,1.05-.21.72-.1.95-.22,1.41-.14.55-.7.62-.17,1.51-.64.17-.15.17-.04.63.07.31-.17,1.58-.11,1.64,1.08-.02,1.97-.48,2.94-.82l-.02-.46c1.69.47,3.38.51,5.12.29.48-.12.26-.38.48-.66.15-.19.7-.15.44-.71l.53-.02c-.19-.38.06-.85,0-1.15-.03-.13-.29-.1-.36-.26-.67-1.77-.68-3.76-.85-5.71-.02-.26.28-.98-.41-.48-.09.06.08.39-.21.31-.17-.95.45-1.62.18-2.55l-.73.18c-.06-.51-.02-.81.52-.94l.03-.24c-.18-.91-1.12-1.5-.73-2.47h-.55c.32-.94.21-1.22-.19-2.12l.38-.35c-.54-.81-.24-1.65-.25-2.6,0-.19-.22-.38-.22-.5,0-.45.39-1.34.22-2.01l-.68-.37.17-.8-.34-.2.35-.08c-.36-.41,0-.91-.04-1.26-.04-.29-.61-.91-.6-1.13,0-.18.46-.52.11-1.06-.11-.17-.32-.1-.48-.19Z"/><path d="M21.35,13.1c.07.09,0,.35.09.43.1.11.41.1.59.23.37.26.39.73,1,.37.16.2-.74,1.97-.96,2.14-.57.42-1.55,0-2.02.05-.12.01-.1.29-.26.36-.49.2-1.02-.07-1.49.1-.83.3-.76,1.47-2.02.82l-.19,1.26c-.71.02-2.23.48-1.27,1.2l-.33.11.15.53c-.81-.17-.73.69-.96.88s-.71-.22-.32.4l-.73-.18.13.33c-.33,0-.51,1.01-.6,1.13-.17.24-.71.32-.78.67-.05.21.17.52.13.58s-.31.07-.4.2c-.57.88-.97,1.96-1.4,2.96-.1.24-.55.67-.63,1.23-.04.31.71,1.02-.45,1.28l.36.36c-.21,0-.81.77-.92.99-.33.66-.41,1.96-1.09,2.12l.37.54-.71.48-.03.34.38.2c-.11.19-.1.54-.18.69-.2.35-.78-.27-.38.74l-.54.3c.67,1.08.11.91-.1,1.55-.08.25.16.83.1,1.06-.04.14-.33.11-.36.25-.15.64-.31,1.82.54,1.79-.24.69-1.16,2.09-1.09,2.76.04.36.3.22.32.35.14.9-.26,2.01-.24,2.74,0,.2.38.68.29,1.06-.03.12-.48.97-.52,1.49-.02.23,0,1.91.04,2.01.08.29.44.25.67.27l-.35.26c.2.69.67,1.56.63,2.28-.02.38-.34.55-.27,1.18.13,1.11,1.18,1.07,1,2.94-.02.18-.26.33-.28.54,0,.07.35.15.5.42.21.38.34,1.25.6,1.4.13.08.43-.15.65.08.31.32.35,1.6.81,2.09.26.28.14-.07.5.48.5.77.85.35.95.4.23.13.38,1.21.65,1.45.41.35,1.39-.09,1.53.03.77.61.13.49,1.4.92.11.04.09.29.22.32.31.06,1.63-.33,2.31-.19.14.03.1.34.24.36.1.01,1.72-.01,1.8-.04.06-.02.32-.52.81-.6.52-.08.5.6,1.05-.13.05-.06-.13-.27-.1-.3.13-.15,1.66-.57,1.9-.55.33.02.5.35.79.42s.58-.03.96.12c.49.19.63,1.25.53,1.68-.04.19-.35.18-.45.31-.11.14.02.43-.09.6-.34.55-1.23.84-1.65,1.14-.24.17-.91.93-.97.96-.22.11-.75-.18-.93-.14-.2.05-.2.48-.49.63-1.1.59-2.16-.38-2.63-.26-.2.05-.2.42-.38.5-.22.1-1.86-.23-1.74-.69l-.45.54-.64-.54-.09.73-.62-.2.16-.89c-.15-.11-1.31.3-1.71.17-.32-.11-.17-.56-.48-.53l-.36.72c-.16-.24-.51-.97-.64-1.1-.23-.24-.52.02-.74-.15-.67-.52-1.1-2.08-2.27-1.11.07-.23,0-1.5-.37-1.19l-.36.46c-.59-.62-.14-1.37-.21-1.72-.05-.26-1.22-.89-1.26-.96-.14-.25-.17-1.33-.45-1.7-.15-.19-.48-.12-.59-.22-.16-.15-.08-.69-.28-.84-.12-.09-.42,0-.5-.04-.04-.02.18-.7.15-.82s-.32-.07-.31-.16c.01-.18.24-.37.14-.7-.17-.59-1.7-1.7-.92-1.86.06-.65-.25-1.27-.33-1.85-.07-.47.58-.98-.56-.99.42-.53-.11-.87-.15-1.21-.03-.24.52-.72.33-1.16-.43.39-.89-.53-.63-.91.34-.5.58-1.13.55-1.92-.02-.55-.39-1.13-.28-1.74l-.37.09.37-.55-.37-.18.55-1-.73-.27c.25-.63.81-1.1.69-1.83s-.79-.97.03-1.82c-.81-.26.02-.94.02-1.09.02-.63-.58-1.24.16-2.02l-.38-.19c-.04-.71.72-.61.76-.73-.35-.98.16-1.51.29-2.21.06-.35-.14-1.29-.09-1.41.1-.27,1.17-.49.17-.67l-.02-.26c.94-.41,1.09-1.72.55-2.46l1.01-.55-.27-.46c0-.17,1.14-.5.61-1.01l-.62-.09.48-.63.61.17c-.36-.92.17-.69.37-1.06.37-.67-.05-2.44.91-2.59l-.36-.54c.99-.19,0-1.24,1.46-.92-.52-1.05-.21-.53-.07-.77.06-.1-.06-.28.05-.43.13-.17.47-.21.53-.3.23-.4-.35-1.3.75-1.26-.32-.74.77-1.04,1.04-1.49.21-.35.22-1.31.61-1.7s1.34-.18,1.27-1.15l-.53-.38,1-.38.28.37c.03-1.12,1.28-1.59,2.01-2.33.38-.38.3-1.13,1.28-.77l-.17-.53c.73-.46,1.78-.84,2.65-.91.26-.02,1.43.23,1.53.16.02-.01-.24-.41.09-.54l.46.47c.35-.35,1.37.04,1.6.32Z"/><path d="M287.47,17.78c.13-.02.31-.02.36.13.14.41.45,1.91.52,2.39.09.59-.17,2.16-.11,2.45.07.36.66.94.69,1.34.03.34-.52,1.16-.48,1.44.03.24.42.46.42.73,0,.32-.39,1.28-.07,1.7.13.18,1.3.74-.05.76.51.52.19.6,0,1.18l.38.37c-.81.81-.12,1.11-.2,1.99-.06.65-.75,2.01-.24,2.67.12.15.41.15.44.18.04.05-.32,1.14-.54.91l.33.26c-.25.7.1,1.96.02,2.54-.05.35-.32.61-.33.92-.02.59.71,1.84-.02,2.01.39.6.4.86-.18,1.29l.36.17c-.33.64-.67,1.63.36,1.57v.26c-.5.59-.14,1.17-.22,1.6-.05.28-.3.57-.36.94-.14.86.03,1.55-.34,2.38l.73.37-.73.9c.17.16.24.99.28,1.03.15.15,1.02.21.55.89-.13.19-.55.24-.58.45-.15.87.03,3.01.49,3.85l-.37.17c.14.33.54,1.77.52,2.06-.04.46-.46,1.23-.43,1.7.03.37.59.99.82,1.35-.61.11,0,.83-.73.82l.55.36c.07.3-.24.12-.33.21-.05.05.14.46.1.64-.06.32-.33.54-.34.89,0,.06.44.73.57.72-.61.52-.66,1.41-.56,2.2.06.47.66.24.57.91-.01.07-.26.08-.29.14-.08.15.15.51-.44.51l.36.27-2,1.91c.05-.49-.53-.45-.83-.73l-.36.54-.46-.46.36-.45c-.15-.01-.38.04-.49-.05-.55-.43-.91-2.36-.05-2.6-.92-.37-.4-1.84.18-2.46l-.73-.19.36-.18v-.36c-.38.03-.49-.3-.54-.63l.73-.28-.55-.37c.25-.35.4-1.3.37-1.71,0-.12-.36-.09-.38-.22-.19-1.34.23-3.35.22-4.89,0-.52.42-.94-.21-1.1.62-.53.12-.77.09-1.09-.05-.43.39-.72-.28-.93l.21-.7-.38-.1.73-.64v-.36s-.37-.21-.37-.21v-.35c.66-.61.35-1.28-.55-1.37.5-.61.91-.84.53-1.69-.09-.21-.41-.09-.35-.23.62-.53.74-2.44-.19-2.74.61-.14-.05-.37.56-.55-.51-.68-.2-1.58-.22-2.38-.01-.43-.45-.67-.14-1.22.1-.19.47-.09.35-.41l-.54-.55c1.36-.66.47-1.45,1.09-2.37l-.72-.36c.07-.43.48-.67.53-.78.63-1.64.11-3.87-.27-5.51-.25-1.1.42-2.73.15-3.42-.09-.23-.35-.21-.38-.32-.07-.19.12-1.31-.05-1.64l.55-.18c-.24-.24-.11-.62-.19-.87-.02-.05-.48-.71-.5-.77-.17-.44.84-1.72-.22-2,.31-.36.24-.86.37-1.24.05-.15.34-.14.36-.26.03-.24-.42-1.95-.38-2.51.01-.16.37-.13.49-.36.06-.12.24-1.27.35-1.4l1.42-.34c.38.83,1.65.67.85,1.44Z"/><path class="cls-1" d="M153.88,59.37c.03.35.05.8-.36.91v-.91s.36,0,.36,0Z"/><path class="cls-1" d="M100.23,60.28l-.19.54c-.43.13-.51-.33-.54-.73l.73.18Z"/></g></svg>