<?xml version="1.0" encoding="UTF-8"?><svg id="Layer_2" xmlns="http://www.w3.org/2000/svg" viewBox="0 0 289.48 107.99"><defs><style>.cls-1{fill:#fff;}</style></defs><g id="cheesy_beef"><path d="M139.25,3.02c.31.01.65-.14.64-.47.56.51.71,0,1.02,0,.27,0,.39.42.76.16.13-.09.09-.34.19-.32.31.05.49.52.68.63.15.08,1.23.38,1.3.32l.25-.62c.37.19.6.32.56.79l.16-.32c.26-.09.39.25.56.26.15.01.32-.24.57-.19.63.12.58.84.62.89.02.02.34-.17.54-.16.13.01,1.17.29,1.26.34.33.17.19.5.37.63.22.16.77-.21.69.62l.47-.16v.63s.46-.15.46-.15c.36.27.35,1.52.4,1.58.14.16.47.08.57.27.25.46.25,1.75.42,2.39.09.36.31.65.44.98.08.2-.29.56.25.49l-.3.17c.38.67-.09.56-.16.75-.19.5-.17,1.38.46,1.47l-.75.83c.49,1.11-.25,1.32-.84,2.11l.3.3c-.45.39-.05,1.06-.78.89-.06.29.27.1.32.16.06.07-.51,1.1-.95.63.34.75-.26.86-.43,1.15-.02.03-.11.22-.16.31s.11.25.1.27c-.14.19-.88-.09-.77.57l-.74.23.09.47c-.68-.12-.53.52-.74.66-.16.12-.51-.03-.52,0-.04.08.04.32-.04.42-.1.11-.68.05-.6.44.03.18,1.18.41.95-.08h.15c.01.18.1.37.23.49.58.52,1.3.6,2.03.79.13.03.11.28.19.28.1,0,.29-.17.46-.12.19.05.2.36.29.42.07.05.34-.15.42.14-.23.58-.08.78.49.54-.22.35.7,1.33.96,1.5.39.25,1.29.05.31.97v.23c.58.05.5.49.48.96l.63-.16c-.41.97.44,1.56-.32,2.45l.63.26c.11.08-.73,1.62,0,1.1l-.32.72.31.31c-.18.61-.88.48-.88.96,0,.45.38.27.41.55l-.29.08c.28.49-.21.51-.51.8l.32.24c-.35-.11-.69,1.3-.82,1.4-.1.08-.39-.02-.56.07-.35.19-.83,1.2-1.09,1.54-.21.28-.73,0-.07.79-.34.23-.87-.02-1.11.08-.58.23.09.55-.15.8l-2.7,1.52.14.3c-.38-.14-.47.26-.6.3-.38.14-1.01.12-1.38.32-.13.07.11.37-.17.48l-.16-.32c-.36-.1-.25.43-.48.48-.18.04-.49-.31-.79-.31-.2,0-.96.31-.88.62l-.71-.47-.16.33c-.84-.33-1.69-.63-2.53-.17l-.24-.64-.55.32-.8-.62-.07.47c-.49.19-.73-.36-.83-.41-.55-.28-.4-.13-.93-.6-.12-.1-.36-.06-.47-.21-.15-.19.05-.88,0-1.23-.05-.43-.41-.89-.43-1.16-.03-.36.37-.56.42-.8.08-.36-.24-.56-.24-.76s.28-.41.34-.63c.24-.83-.73-2.01-.39-2.51.07-.11.32-.11.33-.2.02-.32-.27-.51-.27-.63,0-.11.24-.24.23-.45,0-.16-.21-1.02-.46-.98-.03-.55.75-1.02.76-1.09.02-.12-.13-.42-.13-.65,0-1.1.1-.34-.27-.96-.16-.27.24-.44.25-.47.04-.31-.12-.71.04-1.03l-.64-.09c.22-.79.53-1.56.81-2.33.05-.14.24-.13.26-.2.14-.42.09-.89-.44-.72.12-.75.9-2.36.39-3.01-.12-.15-.42-.13-.39-.24.07-.28.65-.73.63-1.12s-.8-.58-.16-1.27l-.3-.14.14-.62.48-.11-.31-.23.47-.64c-.81-.53.05-1.52-.64-1.74l.64-.8-.31-.08c.03-.15-.1-.3-.1-.41.08-1.11.5-2.29.71-3.5.07-.39-.3-.88.17-1.26l-.47-.15c.47-.43-.14-1.44.63-1.51v-.3s-.33-.11-.33-.11c.29-.82-.44-.89.44-1.56l-.12-.39-2.74.31c-.37-.64-.87-.48-.65-1.28l-.57-.23c.17-.48.74-.21.78-.24.12-.08.46-1.95,1.44-1.27l.02-.45c.66.13.99-.5,1.37-.63.35-.12,1.84-.12,2.26-.04l-.16-.47.57-.16c.36-.01.39.35.39.63ZM144.77,6.87c-.34-.39-2.75-.46-3.38-.85-.76.37-1.28.13-1.98.66l.32.87c-.67.19-.1.38-.07.64.05.33-1.01.65.21,1.27l-.63,1.03.79.08c-.7.73-.43,1.42-.8,2.22l.32.24c-.66-.06-.12,1.03-.17,1.49-.05.42-.29.8-.33,1.27-.07.73.02,1.45-.13,2.16l.64.25-.79,1.58c.23.38.44.06.79.08l-.14.7c-1.33.37.13.67.14.81.02.36-.47.49-.79.4l.16,1.27c.53-.17,1.32-.09,1.59-.63l-.48-.16.64-.12.16-.2v.32s1.02-.49,1.02-.49l.1.33c.24.07.1-.21.26-.33.15-.11.4.01.49-.04.44-.29.54-1.12,1.47-.74-.1-.26.09-1.2.48-1.04l.32.25.08-.64h.56c-.03-.84.16-.48.46-.72.28-.22.68-.44.51-.85.81.06.28-.23.4-.65.18-.67,1.66-1.42,1.04-2.47l.31-.15c-.52-.66-.03-.58.09-1.03.2-.75-.27-1.49-.09-2.22h-.47c.1-.52.05-1.12.63-1.35-.31-.44-.81-.98-.47-1.51-.75.06-1.03-.58-1.51-.96-.26-.2-.63-.15-.79-.63l-.26.61h-.43c-.12-.19-.1-.59-.22-.73ZM143.48,26.9c-.25-.22-.55-.29-.59-.69-.35.12-.75.18-.79.62-.69-.53-.57.05-1.35.15-.22-.59-1.43.02-1.97-.3-.13.15,0,1-.05,1.17-.06.22-.34.32-.37.49-.05.3.3.9-.05,1.29l.31.14c-.1.22-.65.09-.48.79.11.47.43.25.48.56-.34-.03-.49.33-.48.64l.48.08-.78.79c.22.57.51.61.45,1.27-.02.23-.25.37-.23.58.02.31.43.91.36,1.26-.08.4-.55.15-.43.63h.48s-.46,1.04-.46,1.04l.29.15-.47.8.3.14c-.6,1.48.3,1.75,1.52,2l-.08-.32h.32s.48.79.48.79c.26.07.11-.22.18-.27.36-.26.95.44,1.16.44.41,0,.81-1.05,1.43-.33.26-.09.08-.43.1-.45.4-.33,1.32-.02,1.38-.05.04-.02.48-.72.53-.73.14-.05.94.04,1.36-.24.1-.07.14-.31.28-.43s.92-.73.96-.8c.14-.24-.14-.5-.08-.63,0-.02.37.2.47-.08l-.32-.16c.84-.66,1.49-.51,1.41-1.89l.49-.1c-.53-.57.2-1.49.24-2.14.03-.4-.31-.88-.12-1.33l-.29-.1c.35-.14.37-.14.32-.55l-.63.16c-.21-.48.31-.92.32-1.19,0-.09-.24-.07-.31-.21-.19-.35-.38-.94-.65-1.23-.25-.26-.64-.3-.76-.43-.08-.08-.37-.99-.52-1.07-.4-.22-.19.48-.71.23-.33-.16-.45-.45-.73-.63-.54-.37-1.54.06-2.21-.24v.63c-.24.06-.13-.16-.22-.25Z"/><path d="M25.44,2.17c.19.29,1.09.83,1.15,1.24.03.18.03,1.16.02,1.43-.01.58-.29,1.49-.28,1.9,0,.11.27.1.32.2.46,1,.02.94,0,1.72-.03,1.01.12,2.03.17,3.01.02.5-.46,1.45.48,1.03l-.14.7-.5.1c-.09.29.24.38.28.57s-.14.43-.12.62c.05.8.06,1.61.33,2.36l-.48.41.48.08c-.47,1.28.15,2.53-.48,3.64.56.19.46.94,1.03.98.38.03.91-1.21,1.03-.26h.16c.18-1.25.65-.3.89-.2.12.05.58-.07.78.04l-.08-.32c.54-.36.89.09,1.21.11.24.01.49-.13.77-.12.67.02,1.08.26,1.83-.16l-.08-.31c.27-.04.62.3.8.32.07,0,.07-.22.11-.25.1-.05.21.08.35-.07.1-.11.62-1.18.56-1.26s-.66-.05-.47-.64l.63-.16-.33-.39c.31-1.11-.12-1.65.33-2.71.02-.04-.51-.19-.48-.78,0-.06.53-.14.33-.57h-.64c.35-.54.52-1.19.44-1.83-.01-.08-.23-.07-.26-.15-.09-.37.72-1.46.3-2.03-.12-.17-.4-.03-.33-.27l.32-.1c.17-.58-.31-.47-.34-.77-.06-.85.55-2.85.3-3.65-.02-.07-.22-.07-.27-.2-.32-.95.3-.81.63-1.54.26-.58-.27-1.52.3-1.9.11-.07,1.04-.07,1.24.01.07.03,1.08,1.04,1.11,1.12.05.15-.09.42-.05.61.13.58.24,1.44.43,1.85.12.25.25.62.45.67-.1.21-.23.48-.24.71-.02.43.08,1.14.03,1.66-.01.15-.3,1.11-.24,1.19.03.05.31.06.38.17.29.42-1.01,2.39.23,2.78-.55.44-.25.79-.63,1.27l.79.32c-.42.09-.19.29-.26.39-.25.35-1.23.85.1.8l-.16.79-.63-.16c-.16.44.63.99.64,1.05.03.28-.21.82-.32,1.1l.31.15c-.77.52-.67,1.13-.63,1.98.11.11,1.07-.6.53.6-.15.33-.56-.02-.19,1.02.05.14.25.13.27.2.1.3-.59,1.15-.14,1.6l-.3.07.32.16-.32.4.32.31c-.03.51-.4.51-.47.69-.1.23,0,2.13.02,2.6.03.67.39.99-.03,1.72h.79c-.09.62-1.32,1.4-.48,1.67l-.32.47.63.57c-.58.58.16,1.38-.47,1.98l.31.15-.15.41.64.08c-.56.19-.31.94-.8,1.27l.33.17-.16.47.32.3c0,.51-.44.63-.48.82-.03.17.46.66.3,1.01l.64-.08c.1.36-.59,1-.6,1.11-.02.26.72.72-.2.88l.02.3.31.11-.16.47c.8.25-.14.98-.14,1.45,0,.25.36.46.29.76-.19.31-.36.13-.64.08l.14.38-.24.24c-1.46-.02-3.29-.25-2.6-2.2l-.64-.16c.33-.39.14-1.3.25-1.59.05-.14.34-.25.34-.39,0-.15-.41-.97-.75-.72l.47-.4-.48-.08c.29-.77.62-2.22-.3-2.61.03-.88.77-1.2.77-1.28,0-.04-.34-.23-.3-.45.03-.15.37-.32.3-.42-.02-.02-.23.04-.28-.08-.06-.14.03-.89-.35-1.12l.62-.26c.16-.49-.36-.65-.31-.85.01-.04.47-.22.32-.71h-.48c.32-.59-.25-1.4.33-1.51-.51-.49.11-1.39-.48-1.35l.47-.87-.64-.24.64-.87-.46-.26.23-1.42-1.13-.27-.23.6c-.62-.48-1.52-.57-2.26-.31-.18.06,0,.47-.66.13l-.17.33c-1.13-.64-2.42.34-3.71-.13-.38.42-.13.93-.21,1.28-.08.32-.31.57-.4.97-.17.67.23.71.32.94.31.75-.32,1.05-.36,1.47-.03.36.04,1.18.02,1.75,0,.07.28.05.31.17.05.25-.17.93-.11,1.09.09.23.69.28.42,1.03h-.64s.48.56.48.56c-.1.3-.28.43-.33.78-.19,1.35.35,2.97.09,4.29-.04.21-.31.28-.24.56.37.07.71-.29.95.08l-.28.1.05.46-.58.24.03.54.46.09-.15.49-.41.09-.07.29.47.4c-.7.19-.54.51-.78.8-.47.57-1.36-.14-1.91.38-.66-.66-.48-1.25-.66-2.1-.17-.78-.29-2.1-.46-2.87-.03-.12-.29-.09-.32-.21-.01-.05.01-1.03.02-1.09.02-.08.2-.08.22-.12.12-.25.18-.56.39-.83l-.63-.48c.57-.75.98-.79,0-1.43l.62-.47-.46-1.84-.32.08c-.03-.51.61-.62.71-1.01.02-.08.03-.79,0-.83-.13-.18-.62-.02-.26-.55l-.3-.08.32-.16-.32-.4c.6-.14.29-.53-.16-.48l.48-1.59-.48-.08.48-1.04-.32-.15.33-.62c-.36-.11-.85-.6-1.09-.71-.33-.16-.96-.09-1.3-.42-.17-.16-.12-.55-.48-.64v-.31s.32-.15.32-.15l-.31-.48c.02-.25,1.29-.21,1.55-.43.16-.14.08-.81.91-.74l.23.3.25-.72c.04-.39-.76-.34-.09-1.11l-.47-.08c-.06-.27.22-.1.28-.18.05-.07-.05-1.44-.03-1.71s.2-1.04.2-1.18c0-.32-.36-.62-.38-.83-.04-.33.38-.38.41-.5.22-.98-.45-1.07-.45-1.73,0-.08.24-.05.26-.15.09-.38.36-1.45.36-1.73,0-.1-.36-.1-.41-.39s.3-.54.26-.87c0-.06-.42-.11-.29-.48l.6-.72h-.48s.32-.79.32-.79l-.48-.08c.3-.2.7-1.19.72-1.5,0-.06-.2-1.16-.41-1.04.22-1.05.3-1.72.6-2.75.19-.65-.52-1.67,1.15-1.46l.08-.63c.16.03.04.28.13.42Z"/><path d="M110.3,53.85c.28.22.47.88.59,1.18.04.1.4.11.09.83h.64c.05.63-.53,1.09-.63,1.51-.17.69.15,1.49.1,1.82-.03.2-.26.36-.27.55,0,.08.89.53.01,1.28l.31.31-.32.16v.32s.32.15.32.15c-.35.28-.6,1.19-.47,1.57.07.22.65.19.47.74h-.64c.17.76.14,1.2-.16,1.9h.64s-.32.32-.32.32c1.14.32-.31,1.26-.31,1.35,0,.02.19.17.23.31.13.56.02.97-.07,1.52h.48s-.59,1.03-.59,1.03c.18.42.2.83.75.72.1.53-.61.77-.64.9-.13.51.27,2.06.14,2.67-.07.33-.34.41-.29.71l.48.08c.12.35-.28,1.06-.27,1.26,0,.19.23.36.22.48-.01.14-.32.26-.38.55-.06.28.16,1.34.25,1.68l-.3.38h.64c.09.41-.17.74-.23,1.09-.03.19.1.4.07.55-.01.07-.63.85-.64,1.29,0,.09.34.07.42.39.12.45-.26,1.11.38,1.12-.18.38-.52.66-.95.63l.48.63c-.25.29-.91.13-.95.17-.04.05.05.32-.04.43-.06.07-.3.02-.38.09-.15.13-.18.34-.41.47-.91.5-.94-1.26-1.87-.68.39-1.3-1.06-1.61-1.11-2.7l-.63.32c.27-.9-.8-1.57-.63-2.22h-.48s.15-.31.15-.31l-.62-.18c.17-.37.09-1.04-.11-1.38-.27-.46-.84-.53-.76-1.49-.97-.06-.61-1.12-.71-1.62-.02-.09-.49-.21-.32-.59l-.63.16.33-1.02c-.5-.15-.34-.46-.38-.53-.08-.11-.32-.12-.46-.39-.33-.63-.15-1.65-.62-2.4-.39-.63-.64-.18-.77-.26-.02-.01.1-.2.05-.31-.26-.6-.5-1.8-.56-1.88s-.36-.07-.43-.29.11-.46.08-.62c-.03-.2-.71-.73-.41-1.34l-.95-.16c.19.57-.9,1.83.16,1.59l-.32,1.75.48.08-.79,1.9c.11.45.79-.15.63.32-.09.28-.49.56-.54.71-.12.34.38.75-.25.88l.48.32c-.56.54-.11,1.05-.14,1.66h.46c0,.91-.49,1.34-.77,2.13.17.29.43.62.77.42l-.02.94h-.46c.42.83-.57,2.54.63,2.55v.15c-.16-.16-.64.8-.64.87,0,.07.31.04.38.42s-.18.54-.15.78c.04.3.36.3.37.33.02.06-.1,1.16-.17,1.21-.11.09-.37.03-.5.19-.05.06.03.24-.03.33-.19.27-.5-.09-.22.79-.45.07-.63-.44-.74-.47-.2-.06-1.15-.06-1.09.31l-.55-.34.13-.44c-.54-.08-.59-1.02-.46-1.45l-.47.16c-.42-.64.29-1.35.26-1.83,0-.05-.26-.86-.31-1-.01-.03-.26-.03-.28-.13-.08-.47.62-.87.49-1.41l-.32.08.17-1.01c-.58-.15-.06-.63,0-1.12l-.32-.16.31-1.04-.31.16c-.11-.42-.12-.89.01-1.3.03-.08.35-.31.41-.72.13-.87-.27-1.87.21-2.66.01-.13-.57.18-.64-.48s.48-.75.48-.8c0-.17-.19-.4-.18-.61,0-.04.66-.26.23-.57h-.54c-.04-.37.45-.66.45-.7,0-.9-.78-2.36-.14-3.35l-.31-.14.48-.4-.31-.31c.21.19.43-.51.42-.56-.02-.17-.31-.28-.33-.39-.04-.18-.2-1.29-.19-1.36.02-.18.3-.33.42-.47l-.32-.08.32-.31-.3-.08c0-.35.34-.81.31-1.1,0-.08-1.01-.47.3-.97-.54-.52,0-.86.17-1.42l-.49-.41c.17-.17.75-.16.77-.19.1-.14-.02-.47.29-.59.12-.04.37.08.56.05.32-.04.54-.26.93-.07l-.15.46c.75.13.68,1.34,1.58.81-.22.65.2.71.3.92.44.93.61.71.89,1.15.08.13-.04.35.02.47.57,1.09,1.32,2.16,1.65,3.33l.29-.14c.38.35.41,1.35.65,1.62.19.21.88.1.49,1.05l.47-.16c.24.38.01.94.11,1.23.02.06.47.85.61,1.15.27.59.9.86.08,1.19.57.31.17,1.07.95.72-.6.87.04.97.16,1.75l.31-.16c.2.34.08.87.16,1.15.06.18.33.18.38.27.16.32-.16.76.57.64-.45.64.58,1.37.61,1.45.05.14-.44.83.19,1.15.1.05.3-.07.31-.06.14.25-.13.82.64.95l.32-1.75h-.64s.32-.24.32-.24l-.33-.8c-.07-.31.43-.27.47-.48.03-.14-.17-.48-.14-.77s.32-.61.32-.65c-.02-.13-.37-.17-.44-.27-.03-.04.11-.18.07-.25-.03-.05-.22-.03-.24-.11-.11-.4.76-.84.44-2.02-.03-.13-.25-.12-.28-.2-.14-.42.81-1.1-.18-1.42.14-.39.63-1.44.62-1.75-.02-.37-.57-1.04-.59-1.11-.17-.54,1.27-1.99.13-2.3v-.15c.54.07.32-1.59-.16-1.67l.3-.15c-.06-.4-.18-1.24-.1-1.59.02-.08.28-.02.3-.31.02-.38.14-1.6-.18-1.59.8-.72-.05-1.99.95-2.15l-.31-.7c.61-.13.46-1.1.67-1.33.06-.07.31,0,.4-.06.04-.03.38-.43.62-.65s.35-.87.96-.38ZM97,66.82l-.16-.79h-.16s-.16.79-.16.79h.48Z"/><path d="M43.94,53.78l.1-.29c.11.46.32.1.56.4l-.16.55c.82.05,1.16.91.95,1.59h.79c-.55,1.1-.15,2,.95,2.46-.69.81.08,1.84.24,2.62.07.33.4,1.95.38,2.15-.03.37-.32.82-.3.86,0,.01.24-.02.32.11.14.22.08.52.17.73.02.06.57.66.3.91-.08.08-.53-.15-.47.16.18-.19.55.81.56.87.05.34-.22.93-.23,1.29-.02.76.16,1.91.07,2.69-.03.28-.55.3.05.46-.26.48.18,1.29.65,1.51l-.31.31c.6.01.53,1.2-.16.96.41.48-.09.84-.1,1.03-.01.26.85.97.11,1.1.63,1.04.08,2.55.48,3.62.05.12.3.12.29.19-.02.2-.28.57-.24.81.03.18.35.3.38.49.08.41-.23,1.78-.13,2.18.03.13.34.09.32.18-.05.33-.55.5-.6.59s.35.67-.61.76c-.64.06-1.01-.47-1.73,0l-.17-.16c.31-.82-.72-1.16-.83-1.87-.05-.3.22-.82.12-.99-.02-.03-.47.22-.61-.24-.02-.27.45-.43.46-.5.07-.76-.49-1.01-.57-1.4s.2-.72.18-.96c-.02-.15-.26-.33-.26-.64,0-.13.02-1.35.04-1.41.09-.23.82-.27.3-.95-.1-.13-1.54-.65-.17-.74.07-.37-.38-.78-.41-1.03-.06-.53.54-.37.57-.4.13-.12-.71-1.3-.45-1.72.05-.08.37-.08.43-.28.15-.43-.31-.68-.31-.94,0-.37.87-.84-.47-1.03l.32-.16c-.6-.65-.03-1.73-.01-2.31,0-.07-.27-.05-.3-.17-.04-.14.04-1.08-.04-1.26-.07-.15-.59.07.03-.47l-.4-.39.25-.96h-.64s.3-.17.3-.17c-.41-.54.19-1,.18-1.33,0-.08-.29-.06-.32-.19-.06-.27.09-.57-.09-.85-.09-.15-.56-.18-.39-.84.03-.13.28-.1.31-.21.05-.18-.24-1.27-.39-1.48-.24.45-.32.57-.88.48.32.46-.68,1.29-1.11,1.27l.32.63c-.59.02-1.97,1.41-1.11,1.67v.32s-.64.24-.64.24l.47.39c-.28.41-1.08.25-1.09.82,0,.42.47.23.46.53l-.46.07c.13.73-.95,1.28-1.61,1.36l.48.63h-2.7s0,.48,0,.48c-.26-.48-1.34-.31-1.4-.36-.66-.51-.29-.17-.91-.42-.5-.2-1.24-1.25-1.54-1.56s-.93-.45-1.05-.54c-.02-.02.09-.27.03-.42-.13-.32-.91-2.18-1.01-2.26-.03-.03-.37.22-.63-.27l.32-.84-.94.34c.31.66-.35,1.36.46,1.64-.12.53-.72.51-.79.67-.38.84.65,1.38-.3,1.66l.14.61-.31-.16c-.06.04-.32,1.2-.29,1.35,0,.04.41.19.29.77-.04.2-.39,0-.32.26l.32.16c-.99.35-.06,1.97-.17,2.61-.05.31-.29.45-.38.71-.14.41.12.84.07,1.19-.04.25-.34.46-.31.62.04.24.69.37.25,1.01-.08.11-.4.16-.43.29-.02.09.22.23.06.97-.05.21.29.43-.21.37v.15c.94.19.24,1.14.2,1.53-.09,1.03.11,2.55-.36,3.48l.33.17c.09.41-.29.65-.33.95-.05.39.22.78.16,1.24-.1.68-.8,1.53-.49,2.22l-.62.26.09.47-1.52.24c0-.44-.36-.87-.4-1.18-.02-.18.19-.31.17-.5-.06-.49-.4-1.8-.4-2.13,0-.26.37-.46.32-.55,0-.01-.22.04-.33-.11-.12-.16-.09-1.83-.06-2.13.04-.41.61-.46-.24-.85l.31-.32c-.78-.39.18-1.65.26-2.24.08-.63.07-1.54-.74-1.41,1.01-.65.27-2.19.4-3.12.04-.31.36-.55.35-.82s-.25-.61-.22-.83c.03-.24.52-.35.42-.71l-.64-.08c.04-.7.61-1.15.7-1.85.08-.63-.38-1.6.57-1.58-.08-.64.03-1.13-.45-1.65.58-.34.99-1.24.9-1.91-.03-.28-.29-.38-.23-.72.02-.12.95-1.23,1.03-1.54.12-.47-.26-.69-.22-1.01l.4-.46-.32-.08c.14-.14.16-.35.33-.47.41-.29.47.26.37-.72.14-.2.93-.48.99-.67.04-.1-.09-.29-.03-.44.36-1.05.83-.11,1.14-.04.04.01.86.04.92.04.08,0,.13-.52.56-.32l.15.56c.74-.26.93.95,1.12,1.5l.63-.16c-.09.26.28.6.27.72,0,.14-.32.28-.27.39.04.08,1.24.58,1.28,1.03.04.51-.57.9.62.88l.02.93.78.18-.32.95,1.03.63c.18-.61.82-.44,1.1-.8.26-.33.21-.89.3-1.07.03-.06.56-.96.65-1.09.05-.08.73-.17-.06-.45l.17-.4.63.08c.28-.6,1.2-1.5,1.12-2.21-.02-.18-.4.02-.33-.25.23-.21,1.19-.31,1.24-.35.25-.22.29-1.08.43-1.39.27-.57,1.3-.89.88-1.5.05-.25.51-.19.59-.28.1-.12-.03-.46.18-.69.57-.61,1.96-.02,2.05-.1Z"/><path d="M169.73,51.11v.63c.29.1.4-.26.56-.26.33,0,1.12.57.88,1.06.16,0,.33-.16.48-.08.29.15,1.17,1.69,1.5,1.98l.39-.63c.49.66.34,1.3.81,2.04l.78.02-.15.46.46.27c.02.08-.12.47-.19.51-.15.1-.49-.1-.43.19.27-.02.73.52.74.72.02.4-.66.38.21.79.21.47-.46.47-.47.63,0,.04.28.42.33.64.06.29,0,.48.03.75.04.39.44.42-.21,1.07,1.08.18-.02,1.29.16,1.96.03.12.26.12.27.16.25,1-.04.76-.21,1.37-.14.5.1,2.11.89,1.91l-.45,1.19.29.14c-.69.96.2,1.17.3,1.44.09.23-.28,2.67.5,3.18-.33.14-.37.15-.32.55l.47-.16c-.23.22,0,.73-.03.77-.03.05-.3.05-.4.25-.05.09.19,1.53.59,1.36-.87,1.01.14,1.86.02,3h.46s-.17.39-.17.39l.32.16c0,.39-.47.62-.47.66-.03.58.62,1.24.32,1.81l.63-.16c.23.51-.47.87-.45,1.16.05.55.34.85.76,1.14l-.47.55.33.09-.17.39c.11.09.83-.18.79.16-.72.11-.1.94-1.11.48.29.81-1.69.75-2.12.61-.62-.2-.91-1.72-1.09-2.28-.04-.12-.43.06-.12-.55l-.47.16c-.05-.34.26-.58.28-.9.04-.64-.68-2.14-.68-2.26,0-.2.17-.31.17-.41,0-.31-.41-.53.07-1.03-.25,0-.68.03-.79-.24-.17-.41.28-.38.29-.47.04-.41-.05-.66-.29-.95l.48-.97-.33-.16c.6-1.21-1.09-2.1-.31-3.24-.36.09-.77-.33-1.03-.33-.06,0-.03.49-.61.33-.2-.05-.16-.55-.5-.48l-.08.47c-1.09-.31-2.03,1.18-2.91.96-.12-.03-.1-.32-.2-.33-.52-.03-.81.63-1.44.63-.39,0-1.44-.75-1.17.16l-2.12-.3c-.48.45-.79.93-1.19,1.34-.08.59.6.88.29,1.4-.1.17-.34.06-.43.15-.32.31-.36,1.49.11,1.65.07.26-.76,1.78-.9,2.27-.11.4.3.6-.2.71l.07,1.21-.57.16c.34.84-.08.71-.15.91s.02.55-.15.77l.3.22c-1.01-.13-1.21.95-2.22,1.11l-.17-2.12.32-.18c-.58-.37.19-1.26-.48-1.43.97-.92.4-1.54.37-2.38,0-.07.08-1.2.09-1.27.04-.27.88-.74.79-1.63-.03-.28-.25-.17-.27-.28-.05-.27-.03-2.06.61-1.67l-.32-.24c.42-.45.65-1.48.65-2.08,0-.3-.33-.22-.32-.3.01-.22.41-.85.31-1.04-.72.46-.03-1.07.48-.8-.07-.27-.37-1.11-.26-1.34.1-.2.38-.19.48-.43.18-.42-.16-1.16-.03-1.59.07-.22.36-.33.43-.55s-.1-.48-.04-.68c.07-.25.59-.76.7-1.18l-.63-.23c.45.11.13-.29.31-.4l.5-.18-.02-.92-.31-.18c.48-.25.2-.89.35-1.16.06-.11.53-.11.44-.42l-.47-.4c.61.11-.17-.94.63-.96-.27-.22-.27-.64-.09-.91.04-.06.24-.02.25-.04.04-.06-.68-.82.32-1.19l-.47-.39c.09.01.21.01.26-.06.28-.38.31-.51.49-.85.28-.53,1.14-1.61,1.28-2.07.12-.42-.25-.9.68-1.23.34-.12,1.13.21.82-.37.53-.46,1.3-.86,1.4-1.62l.47.32-.16-.47s.94-.15,1.04-.13c.16.03-.04.36.23.29l.08-.47.71.16ZM169.11,55.39l-.16-.47c.18.89-.54.09-.92.51-.14.16-.11.48-.23.65-.14.21-.37.25-.45.38-.17.27-.26.79-.61,1.1l.46.45c-.21.48-.92.36-.95.8,0,.07.26.05.29.15.19.8-.21.82-.29.99-.2.44-.67,1.44-.77,1.75-.19.6-.18,1.25-.34,1.86.91.18.71.86-.16.72.23.57-.05,1.67-.46,1.97l.3,1.41c-.86.53-.95,1.15-1.11,2.11-.03.22.15.44.15.6,0,.04-.48.6-.63.58.73,1.15,2.21.32,3.11-.15-.36-.99.73.03.96-.65l.36.12.1-.28c.71.76.51.27,1.11.19.71-.1,1.95.14,2.64-.26l.22-.71.79.47c.63-.47.11-.87.11-1.19-.02-1.32-.34-2.05-.41-3.17-.06-.85.12-.6-.13-1.51-.32-1.15.11-1.16.14-1.99.03-.98-.31-2.9-.69-3.83-.16-.39-.68-.74-.68-.79-.02-.44.39-.55-.23-1.01-.16-.12-.42-.11-.51-.2-.18-.16-.18-.68-.76-.91l-.24.32Z"/><path d="M142.21,53.24c.09.04.08.4.53.25l.08-.48.8.79.15-.32c.16.18.45.21.62.34.48.39.43,1.07,1.05.45-.08.74.45.56.85.8.75.45,1.44.56,2.35,1.02.76.38,1.27.45,2.15.7.22.06.21.31.32.34.14.04.65-.17.67-.14.05.06.05.36.17.51.29.37.84.63,1.07.82.37.31.65.99,1.16.89l-.15.46c.77.16.31.51.32.9.01.36.61.79.3,1.34l.63-.16c-.18.47.49.65-.32.8l.33.26c-.15,1.1.04,2.25.49,3.26.05.12.28.14.3.24.07.44-.37.93-.21,1.28l.53.2-.11.28.27.11c-.07.32-.51.45-.59.63-.03.07.09.62.1.8.09,1.19.26,1.85,0,3.33-.05.27-.32.41-.32.64,0,.11.26.05.29.16.1.37-.13,1.3-.46,1.59l.33.94c-.71.15.56,1.28-.64,1.21l.32.24c-.24.22-.68.72-.73,1.03-.04.26.31.37.25.48-.02.04-.5.13-.63.56l.31.31c-.1.22-.52.32-.59.44-.16.26-.5,1.21-.66,1.44-.15.21-.83.08-.65.66.07.21.52.14.47.4-.65.17-.93.71-1.75.64l.16.47c-.72-.03-1.14.21-1.59.72-.14.16-.09.43-.26.57-.24.19-1.16-.07-1.57.12-.33.15-.4.5-.48.51-.32.04-.53-.34-.75-.3-.28.05-1.13.42-1.43.4-.48-.02-1.29-.82-1.85-.12l-.65-1.26-.36.14c-.11-.39-.52-.27-.57-.32-.03-.02.29-.47-.09-.63l-.79.28c-.45-.74-.52-.39-.86-.53-.62-.25-1.14-1.52-.8-2.13l-.64-.16c.52-.58.09-.73.07-1.03,0-.05.1-.78.12-.95.04-.37.46-.76.15-1.23-.1-.16-.43-.19-.45-.34-.03-.18.34-1.08.25-1.44-.03-.1-.29-.07-.29-.16-.01-.23.3-.58.28-.79-.03-.24-.69-.89-.71-.95-.04-.1,0-1.38.45-1.19v-.31s-.29-.08-.29-.08c.05-.61.57-1.47.38-2.06-.08-.24-.39-.33-.38-.61,0-.36.43-.44.43-.49,0-.51-.24-.87-.76-.9.05-.71,1.17-.99-.17-1.25l.48-.56-.32-.31c.7-.44.65-1.58-.32-1.35-.11-.06.39-1.02.41-1.1.05-.25-.2-.41-.19-.57.01-.17.36-.27.27-.56h-.48c.85-.82-.06-1.04.03-1.99.05-.59.02-.47.02-.96,0-.4.41-1.08-.2-1.02v-.15c.47.12.4-.7.23-.96-.08-.12-.38-.11-.41-.26s.16-.39.13-.59c-.03-.21-.24-.38-.25-.65-.03-.61.4-.91.42-.96.08-.35-.11-1.19.19-1.43.52.18.98-.43,1.36-.47.26-.03.61.13.96.09.42-.05.67-.41,1.18-.17v-.64c.19.08.39.13.58.23ZM150.64,61.15c-.3-.13-.54.11-1.07-.44-.77-.79-.11-.94-1.55-1.46-.53-.19-1.83-.6-2.31-.85-.26-.14-.44-.52-.7-.59-.37-.11-.89.13-1.01.05s-.16-.36-.31-.47c-.09-.07-.44-.01-.67-.12-.28-.14-.67-.53-.88-.58-.55-.13-.69.68-1.16.86,0,.33.42.6.46.81.05.34-.78,1.59.51,1.64.04.05-.35.69-.4.88-.15.6.29,2.03.34,2.7.03.35.03.7-.1,1.03l.63-.16c-.3.49,0,1.31-.06,1.67-.03.19-.35.29-.37.47-.01.09.32.68.21.96-.09.23-.41.12-.44.47-.01.16.31,3.08.38,3.22.08.16.87.58.43,1.22l.32-.08-.64,2.3c.75.44.36.2.28.56-.05.2-.21.79-.17.91l.69.76-.63.24h.63c.13.18-.41.93-.41,1.19,0,.22.21.45.22.66.01.31-.45.7-.03,1l.7-.16-.3.17.14.62h-.64c.59.69-.02,1.31.32,2.06l.56-.48.63.33c.67-.83,2.78-.05,3.62-.48.1-.05.08-.29.22-.31.47-.1,1.38-.01,1.72-.63.09-.16-.21-.55.07-.72l.96-.47c-1.12-.46.31-.69.45-1.14.08-.26-.16-.75.34-1.08l-.32-.15c.09-.51.67-.85.76-1.15.11-.34.01-.81.1-1.16.12-.5.56-.96.41-1.58l-.64-.08c.19-.35.6-.9.63-1.29.03-.29.17-1.34.17-1.41,0-.07-.4-.24-.25-1.11.03-.17.29-.31.24-.39-.01-.02-.24.04-.28-.08-.02-.05-.19-.9-.18-.95.05-.23.52-.07.48-.64-.04-.53-.41-.68-.54-1.04-.14-.39.04-1.1-.36-1.51l.41-.55c-.08,0-.24.01-.27-.03-.1-.16-.2-1.41-.38-1.77-.21-.42-.55-.55-.59-.62-.1-.19.04-.84-.4-1.03Z"/><path d="M114,7.47c.07.26-.22.11-.26.19-.14.25.08.6-.53.53.38.41.07,1.04.08,1.11.08.47.76,1.28.1,1.42.5.48-.18,1.57-.17,1.76.01.41.66-.04.79.16l-.29.1.07.47-.57.15c.25.3.5.89.28,1.24-.05.09-.34-.08-.28.18l.64.24-.61,1.59.3.17-.17.46c.39.15.37.29.31.72l-.46.09.18.7.45.1c.15.72-.49.67-.48.8.43.72.15,1.69.18,2.52l.45.11c.41.8-.46,1.31-.55,1.89-.02.13.46,1.23.41,1.28-.31,0-.57-.13-.48.32l.63.24c-.64.8-.16,1.69-.63,2.46l.62.18c.16.25-.5,1.8.49,1.57-.59.76,0,1.76-.16,2.43-.08.31-.4-.29-.09.73.04.12-.1.3-.07.33.11.06.45-.32.63.08-.58.8-.14,1.62-.63,2.39l.31.23c-.9.3-.19.49-.16.59.15.53-.09,1.32.48,1.55-.15.48-.68,1.75-.29,2.12.04.04.37-.24.45.27.1.62-.31.29-.56.55l-.05.41.28.15c-.47.82-.17.99.49,1.44-.74.4-2.21,2.36-2.78,1.19l-.56.47c-.02-.55-.69-.31-.87-.93-.02-.08-.04-.91-.03-1.05.04-.6.68-.91-.37-1.03.19-.29.43-.27.54-.72.15-.6-.26-1.08-.07-1.66h-.47c0-.53.23-.46.47-.79h-.48s.65-1.82.65-1.82l-.64-.64.47-.48c-.47-.33-.19-.74-.16-1.19l-.32.16.17-.55-.31-.15c.56-.86-.3-1.55.24-2.24l-.42-.55.32-.16h-.48s.32-.56.32-.56l-.31-.14.3-1.36-.47.16.63-1.67-.47-.39c.88-.3.21-.51.19-.55-.32-1.12.21-2.55.12-3.48-.02-.21-.27-1.2-.35-1.45-.02-.08-.44-.05-.28-.61.03-.11.32-.1.33-.19.04-.31-.25-.55-.26-.78-.02-.44.54-.63-.07-.81-.16-.69.51-.68.48-.78l-.31-.15.29-.96c-.71-.36-.44-.68-.3-1.36h-.63s.32.24.32.24l-.49,1.1.33.24c-.32.26-.88.33-1.13.54-.43.37-.32,1.18-1.41,1.05l.15.3-1.74.49.16.31h-1.11s-.24.64-.24.64c-.64-.61-.95-.75-1.83-.31v-.47c-.73.21-1.19-1.48-1.67-.33-.48-.11-.42-.56-.64-.78-.56-.56-1.16-.63-1.79-.95-.11-.06-.37.04-.48-.03-.07-.04-.27-1.3-.38-1.54l-.92-.34c.16-.28.13-.88,0-1.16-.09-.2-.94-.12-.64-1.06l-.63.16c.1-.45.36-1,.15-1.46-.1-.22-.37-.21-.49-.36-.24-.31.22-.53-.3-.64.81-.96-.13-2.84.03-3.81.04-.26.49-.94.44-1.02s-.55-.08-.47-.41l.32-.16c-.51-.31-.06-.47-.06-.66.02-1.03.17-1,.4-1.93l.3.05.09-.4.99.04c-.1.58.99,1.41,1,1.5.04.24-.24.66-.17,1.08.06.35.52.58.57,1.02.03.3-.25.48-.26.72,0,.09.25.07.28.17.18.51,0,.91.08,1.38.08.45.49.95.53,1.22s-.34.34-.25.64l.47-.16c-.4.98-.14,2.02.48,2.85l.47-.47.49,1.11.31-.15c-.31.65.06.39.16.58.13.24.47,1.24.52,1.29.36.4,1.64.2,1.72.98l.7-.47.49.64,1.02-.33-.16-.31c.93.19.59-1.25.87-1.59.17-.21.48-.08.68-.19.09-.05.5-1.21.49-1.28-.02-.15-.41-.37-.28-.57.02-.03.22.02.27-.08.03-.07-.11-.39.07-.53.08-.06.31.03.45-.13.35-.39.1-1.16.47-1.56l-.48-.08.47-.72-.32-.14c0-.42.62-.92.65-.99.27-.62.48-1.72.74-2.37.39-.97,1.13-1.89,1.15-2.91.57-.03,1.23-.07,1.79-.17.05,0,.41-.57.92-.08.03.69.32,1.3.43,1.97.09.6-.26,2.21.67,2.09Z"/><path d="M64.57,52.58c.07.1.03.3.03.43.52.04.39-.87.95-.23.19.22.14.53.16.55.02.02.36-.17.56-.17.69-.01,1.37.4,1.98-.15.14.97.8.96,1.35,1.59l.31-.32.4.79.63-.16.16.95c.53-.26.36-.01.77.18l-.29.61h.47c-.14.72.23,1.41.96,1.43-.12.18-.05.55-.15.68-.13.18-.49.03-.31.42.49-.03.17.28.25.48.18.44.29.85.84.81.04.03-.27.79-.24.96.05.32.94.42-.07,1.01.66.5-.22,1.25.48,1.43l-.48.56.63.08c-.15.74-.78.48-.95,1.27l.63.08-.24.65-.32.03-.08.36.63.32c.04.5-1.57,1.98-1.82,2.46-.32.59.29.44.24.55-.51.18-.33.82-.46.96-.19.22-.6.19-.81.49-.12.17-.02.4-.04.46-.04.09-.22.05-.27.19-.14.38.26.65-.48.88-.69.22-1.2.6-1.84.74-.32.07-.53.11-.86.01l-.06.48-1.22.22-.15.56c-.64.26-1.07-1.09-1.55-.42-.15.21.2.57-.57.43l-.17-.3c-.67.5-.93-.16-.99-.18-.39-.08-1.13.3-1.57-.16l-.31.32-.86-1c-.52-.47-.91.59-.33.53l-.31.63.47-.16c-.11.19-.02.62-.06.72-.08.21-.39.18-.43.34-.05.25.19.56.14.88-.04.24-.46,1.02-.6,1.31l.64.08c.11.06-.4,1.12-.41,1.19-.04.39.38.99.25,1.56-.03.12-.28.1-.31.22-.08.32.1.76-.15,1.09l.27.09-.09.42.3.12c-.1.41-.48.87-.49,1.28,0,.33.25.48.26.62s-.22.36-.22.6c0,.42.32.89-.11,1.23-.65.04-1.71,1.1-2.24.88-.4-.1-.03-.87-.07-.89s-.29.05-.43-.04c-.18-.12-.24-.59-.42-.71-.12-.08-.34-.01-.41-.05-.05-.03-.07-1.1.31-1.01-.61-.61.18-1.05.12-1.57-.03-.28-.4-.5-.44-.83-.06-.48.39-.64-.29-.94-.12-.48.59-1.22.61-1.29,0-.04-.02-.74-.04-.77-.12-.23-.46-.19-.43-.31.07-.33.53-.48.63-.68.08-.17.39-2.01.32-2.09l-.47.32c-.29-.7.6-1.23.64-1.51.08-.53-.36-1.11-.49-1.6.01-.38.67-.24.44-.94-.12-.38-.51-1.52.05-1.76l-.18-.76.33-.17-.78-.81c-.1-.42.6-.68.63-.81.09-.38-.25-1.18-.26-1.39,0-.19.18-.98.17-1.2-.01-.85-.45-1.96.24-2.45l-.32-.24c.32-.05.6-.22.63-.56s-.29-1.32-.28-1.39c.05-.32.57-1.06.43-1.6-.03-.1-.47-.23-.43-.51.02-.15.36-.29.42-.5.1-.38-.43-1.37.34-1.88l-.32-.16c.6-.58.33-1.52.55-2.3.11-.16.94-.47,1.2-.56.72-.25,1.38-.22,2.11-.66.05-.03.18.09.24.06s.01-.25.03-.27c.09-.07.23.25.39.26.08,0,1.48-.09,1.56-.1.05-.01.29-.52.9-.16l-.16.31h.48s0-.63,0-.63c.06-.06.54.11.6.2ZM61.57,55.73s-.35.16-.54.15c-.52-.03-.95-.16-1.51,0v1.27s.48,0,.48,0c-.26.54-.05,1.29-.16,1.79-.03.12-.29.1-.31.22-.11.47.32.94-.16,1.24.96.4.02.67,0,.81-.02.12.12.34.1.52-.12,1.01-.3,1.91-.12,2.93l.49.1c-.31.68.03,1.36-.48,1.98l.32.31c-.5.44-.49,1.03.16,1.27-.76.23-.32,1.27-.34,1.92-.02.6-.21,1.12-.13,1.65.76-.03,1.29-.83,2.06-.48l.08-.48c.42.08.64.18.55.63.5.14.26-.49.72-.48.36,0,.27.33.44.44.25.17,2.03-.09,2.36-.18.21-.06,1.28-.62,1.53-.72.14-.05.36,0,.52,0l-.02-1,.94-.3c.3-.29-.12-.63-.06-.77.17-.38,1.21-.95.75-1.68l.29-.07-.11-.32-.36-.23c.16-.32.78-.52.88-.79.05-.13.1-1.41.06-1.56-.03-.12-.28-.1-.31-.22-.13-.57.21-2-.48-2.12l.32-.16c-.67-.54.02-.97-.03-1.32,0-.06-.44-1-.48-1.03-.12-.08-.4,0-.44-.03-.02-.01.17-.26.09-.47-.13-.31-.69-.62-.6-1.24-.45-.13-1.15-.68-1.5-.8s-.81-.03-1.17-.13c-.41-.12-.98-.48-1.5-.53l-.22.31c.02-.55-.94-.36-1.35-.48l.08.48c-.73.07-.63-.31-.81-.46Z"/><path d="M210.84,2.27c.08.08-.04.36.14.44l1.64.71c-.14.51-1.13.4-.32.95-.53.43-.39,1.12-1.22,1.32-.66.15-.99-.29-1.15.59-.65.06-1.23-.11-1.85.23s-.36.83-1.38.48c-.15-.05-.12-.32-.2-.32-.31,0-.68.5-1.19.17l.16.31-.7.16-.33-.47c-.37.61-.6.6-1.26.78l-.55-.56c-.58.19-.59.55-1.2.08-.16.48-.53.33-.92.49-.12.05-.12.27-.15.28-.24.11-.52-.51-.45.34l-1.42-.48c-.3,1.13.19,2.28-.32,3.33l.79.08-.77,1.15c-.13.51.61.74.3,1.2-.19.27-.44,1.03-.41,1.47.02.33.56.62.25,1.19l.32-.16v.56s1.05.19,1.05.19l.23-.44.72.45.24-.44.85.32.16-.33.56.32.17-.63c.99.37,1.08.25,1.98.06.46-.1.76.36.72-.7.49-.01.72.56.96.57.81.02.71-.95,1.58-.41v-.48c.49.1,1.01.06,1.5.18s.95.53,1.16.58c.08.02,1.22-.14,1.16.11-.18.4-.83,1.92-.76,2.23.03.14.31,0,.29.15-.07.19-.91.55-1.14.61-.65.16-1.47-.11-1.64.43h-.32s-.24-.48-.24-.48h-.21c-.46.44-1.13.64-1.75.47l-.09.48c-.26.07-.07-.27-.26-.32-.71-.18-.67.27-.81.31-.33.1-.95.07-1.31,0l-.08.48c-.56.11-1.74-.53-1.82-.48-.02,0,.04.21-.08.27-.23.12-.87.07-1.13.17s-.24.34-.33.35c-.56.1-.84-.63-1.4-.16-.76.64.18,2.32-.88,3.09.45.12.16.25.21.36.02.05.26.04.27.13.03.62-.29,1.81-.3,2.54-.01.66.22,1.73.16,2.37-.06.59-.21.63-.17,1.25,0,.12.28.08.31.2.07.26-.27,1.19-.26,1.41s.26.43.25.48c-.01.13-.38.14-.46.34s.27.9.47.94c.03.39-.43,1.17-.45,1.44-.02.21.26.38.29.61.05.44-.51.95.16,1.11-1.13.67-.41,1.05-.23,1.74.1.39-.62,1.1.23,1.43l-.79.96.32.39c-.28.3-2.77-.29-3.16-.65.82-.79-.44-2.18-.43-2.6,0-.29.59-.68.43-1.11-.07-.47-.64-.15-.48-1.1s-.06-.76-.03-1.44c.03-.43.41-.78.31-1.41-.1-.67-.64-.89-.14-1.36l-.33-.09c.32-1.32.98-2.21.65-3.62-.05-.19-.28-.43-.28-.5,0-.15.41-.33.4-.47,0-.09-.23-.22-.25-.35-.03-.19.21-.33.23-.48.08-.71-.28-1.13-.12-1.77l-.3-.1.3-.09c-.1-.82-.23-1.71.18-2.44l-.64-.24.29-.23.51-2.72-.32-.31.48-.48c-.54-.2-.38-.44-.44-.94.91-.43.06-.86.03-1.44-.02-.36.38-.37.41-.5.04-.17-.24-.83,0-1.16l-.63-.24c1.02-.91.24-1.69.34-2.68.06-.63.75-2.06-.34-2.01-.02-.48.5-.94.48-1.33-.02-.47-.78-1.51-.78-1.6.02-.5.73-.22.77-.25.14-.1.19-.98.26-1.11.51-.83,1.61-.57,2.45-.94l-.16.63c.46.14.86.21,1.35.15.99-.12.57-.01,1.51.09,1.62.18,2.07-.48,3.3-.69,1.14-.2.64.23,1.91-.51.35-.2,1.48.04,1.94-.32l-.16-.31c.71.34,3.19-.74,3.62-.27Z"/><path d="M84.12,55.9c.14.14.11.62.2.74.04.05.79-.06.76.9l.65.08-.31,1.17.78.26c-.05.35-.2,1.76-.14,1.96.08.3.72.24.62.82-.01.07-.25.04-.28.16-.05.14.4,1.34.49,1.46.35.5.68.05-.04,1.05.59.46.41,1.32.31,2l.61.26c.08.51-.34,2.04-.26,2.36s1.26.45-.04,1.27l.48.24-.32.63.47-.32c.33.25.17,1.78-.31,1.75v.15c.88.09-.19,1.16.79.96-.35.85-.59,1.22-.3,2.21l.45.02c0,.43-.14,1.05.02,1.46.05.14.3.12.31.22.04.29-.29.79-.16,1.17l.31-.32c.57.84-.32,1.26-.31,1.34.03.22.39.63.45.96.08.45-.52,1.12-.05,1.66.13.15.38.15.39.17.04.05-.26.39-.29.59-.09.56.12,1.83-.82,1.79l.32.63-1.27.25c-.2-.36-.89-.54-1.07-.76s-.16-.58-.36-.84c-.11-.15-.38-.18-.45-.26-.06-.07.47-1.43.12-1.87l-.63.32.14-.4-.28-.15c.3-.87.57-1.74.44-2.68,0-.05-.4-.26-.52-.58-.1-.24.05-.53-.11-.79h.48c-.25-.26.06-1.21,0-1.27-.03-.03-.66.09-.6-.4.04-.31.7-.29.53-.55-.21-.16-.5-.27-.77-.27-.07,0-1.13.14-1.18.16-.02,0-.05.2-.16.25-.72.3-.8-.16-1.04-.12-.17.03-.35.35-.66.38-.53.06-1.24-.43-1.77-.11l-.14-.28c-.42.25-.67.02-1.03-.17l-.64.63.31.23c-.16.82-.65.6-.72.71-.28.47-.25,1.41-.33,1.89-.06.36-.32.33-.35.42-.04.11.17.63-.19.95l.48.16c-.49.5-.75,1.02-1.03,1.67-.07.15.04.39-.04.59-.2.48-1.15,1.15-.35,1.39-.09.34-.53.49-.6.6-.06.1-.27.55-.35.71-.46.94-.07.85-1.36,1.3l-.16-.32-.16.32-.37-.4.29-.39c-.34.18-.59-1.24-.57-1.36.02-.16.3-.28.36-.47.19-.64-.6-1.35.38-1.91l-.32-.08.32-.71c-1.06-.58-.14-.55-.02-.74.04-.07-.5-.84.49-.78.21-.4-.36-.28-.32-.39.22-.38.73-1.14.85-1.51.26-.8-.11-1.56-.06-1.97.04-.34.47-1.03.48-1.44l-.31.08-.16-.79h.48c-.11-.32-.19-.8-.09-1.12.09-.3.34-.27.4-.43.16-.4-.12-.94.33-1.22l-.47-.15c.13-.78.87-1.15,1.1-1.91l-.63-.39c.38.02.44-.53.65-.86.11-.17.39-.23.43-.29.07-.12-.17-.75-.09-.88.08-.13.55-.28.65-.66.13-.46-.42-.89.41-1.2l-.63-.16,1.18-1.66c.22-.52-.18-1.21-.19-1.36,0-.1,1.02-1.02.6-1.35.53.14.93-.96,1.11-1.43l.46.15.97-1.19v-.31c-1.02-.82.73-.63.79-.72l-.16-.63c.64.2,1.61-.69,1.96-.6.15.04.26.26.42.34.09.05.27-.05.29-.03ZM82.87,60.31c-.09-.08-.38-.03-.35.2l.02.36-.46.07.48.39c-.21.55-.68.69-.62,1.26-.85.15-.73,1.45-1.13,2.08l.32.31-.48.24.32.47c-.57,0-1.65,1.88-1.43,2.21.06.09.66.03.63.33-.41.13-.39.59-.95.72l.47.32c-.21.58-.81.6-1.02.87-.12.15-.49,2.29-.4,2.37.17.15.8.3,1.05.11.08-.06.04-.25.05-.26.05-.03.72.56,1.11.31l-.16-.47c.75-.23,3.49.26,3.77-.58-.19-.68.05-1.4.01-2.04-.06-1.02-.24-.62-.01-1.94.13-.77-.17-.57-.32-.87-.11-.21-.05-.52-.2-.75-.08-.12-.37-.13-.4-.27-.08-.39.55-1.03.03-1.63l.3-.02-.33-.26.17-1.17h-.47c.2-.54.5-1.96,0-2.38Z"/><path d="M123.69,53.65c1.14-.8,2.63-.43,2.7,1.11.22-.27.77.09.8.27.08.49-.5,1.06.63,1.16l-.32.31h.48c-.2.62-.41,1.65-.09,2.24.04.07.56-.11.65.61.02.19-.22.42-.2.82.04.69.38,1.38.27,2.05l.47-.16c-.13.32.26,1.06.26,1.19,0,.19-.24.35-.22.61.05.74.75.77.77.84l.15,2.13-.64.16.47.26c-.03.34-.17,1.12-.12,1.42.01.07.59,1.06.6,1.13.05.27-.01.57,0,.85l.32-.16-.26,2.15.58.24-.32,1.42.48.08c-.38.14-.45.48-.48.87.38-.29.29.25.77.18-.1.62.33,1.29-.61,1.25-.14.13.91,1.2.95,1.35.02.09-.29.05-.32.18-.1.41.08,1.07-.17,1.54l.65.26-.41.96c.11.37.35.49.72.47l-.48.63h.64c-.24.39-.25.81-.43,1.23-.07.17-.3.19-.36.33-.4.84.05,1.61-1.52,1.03l-.31.43c-.79-.34-.62-.85-.86-1.36-.13-.26-.47-.42-.49-.5-.16-.75.55-1.72-.64-1.79-.05-.06.75-.86.62-1.32-.01-.04-.57-.61-.59-.67-.01-.04.13-.25.09-.43-.09-.34-.42-.68-.37-1.17.03-.26.31-.41.25-.71l-.47.16c.2-.63-.42-1.07-.12-1.56l.44-.03c-.46-.33-.2-2.02-.49-2.21-.02-.02-.19.14-.27.1-.05-.03-.13-.41-.51-.28l.32-1.17-.33-.16c.99-1.46.02-.69-.95-1.2-.31.92-.9.49-1.59.31l.16.79c-.41-.19-.77.01-1.15-.02-.22-.02-.38-.29-.64-.26-.34.04-1.3.66-1.46.72-.14.05-.77-.04-.87.04.31.52-.32,1.18-.33,1.66,0,.38.21.73.17,1.1-.04.44-.84,1.08-.16,1.28-.74.48-.17.61-.22,1.03-.05.39-.71,1.8-.67,2.14.03.21.36.35.23.76-.03.09-.91,1.44-.98,1.49-.27.2-1.7.55-1.69.13.33-.18.25-.79.12-1.09-.18-.41-.83-.05.03-.98l-.49-.33c.19-.74.57-.95.28-1.73-.04-.1-.28-.08-.28-.17,0-.19.43-1.21.44-1.55.02-.43-.35-.91-.26-1.44.13-.74.79-1.56.62-2.37-.02-.11-.25-.09-.28-.19-.21-.73.54-1.03.6-1.6.05-.52-.43-.83-.33-1.23.04-.15.35-.13.45-.36.1-.24.12-1.74.33-2.22.14-.33.43-.33.5-.51.25-.66-.31-1.52.32-2.02l-.32-.15c.19-.37.51-1.02,0-1.12.1-.4.79-.81.88-1.03.07-.17-.23-.29-.18-.48.05-.24.43-.51.49-.77.05-.23-.12-.48-.01-.82.07-.22.67-1.06.71-1.21.07-.26.12-1.59.19-1.63l.78-.02-.14-.56.29-.23-.33-.1c-.12-.5,1.17-1.97,1.76-1.97l-.16-.31c.52-.06.79-.16,1.03-.64l.4.48ZM124.52,59.96c-.08-.16.16-1.22.04-1.63-.04-.15-.37-.79-.56-.87-.13.6-.28,1.2-.5,1.77-.05.13-.23.13-.28.25-.16.4.09,1.25-.65,1.31l.63.39c-.21.14-.3.52-.48.64-.08.05-1.45.09-.15.47l-.63.71c.65-.02.36.93-.32.8.51.91-.7,1.56-.47,2.54.16-.08.65-.14.63.16-.88.3-.91.73-1.26,1.51l.79.24-.32.31c.9.28,1.05-.88,2.13-.8l.16.32c.59-.5,1.29-.11,1.74-.14.09,0,.16-.47.5-.43l.55.26c-.49-.8.24-.49.32-1.11l-.63.32c-.3-.61.33-1.03.33-1.18.04-.66-.46-.71-.51-1.27-.06-.72.49-1.63.17-2.46h-.63c.37-.59-.21-.87-.39-1.42-.14-.42,0-.24-.21-.68Z"/><path d="M17.5,53.75c.1.08.29.01.42.16.33.37.44,1.3.61,1.55.13.19.51,0,.49.17-.1.7-.86.83-1.39,1.14s-.97.48-1.42.69c-.53.25-1.1-.08-1.63-.16v.63c-.44.1-1.23-.34-1.5-.32-.32.02-1.34.43-1.79.44-.31.01-.83-.37-1.32-.12l.16.31-.4.16-.25-.62-1.09.32c.23.4.24.99.35,1.34.03.09.27.07.29.17.08.42-.24.59-.28.8-.02.13-.15,1.48-.14,1.56.01.29.39,1.18.4,1.6l-.3.07.45.56-.45.95.32.15c-.5.52-.1,1.29-.43,1.91l.42.3c-.14.33-.44.98-.43,1.31,0,.13.23.99.44.92-.77.52-.25.63-.24,1.04.01.47-.49,1.32-.2,1.55.24.19,2.41,0,2.5-.13l-.16-.63,1.27.47-.08-.32c1.11.46,1.21-.68,1.36-.78.1-.07.38.09.55.07,1.61-.21,1.04-.43,2.77.17.16.05.4-.09.45-.05.06.04.07.28.19.35.43.25.68-.06.95.8l-.32.08v.31s.32.08.32.08l-.02.31c-.51.58-1.23.77-1.94,1.05-.19.07-.08.44-.91.15l.16.47c-.57.34-1-.55-1.19.16-.21-.47-1.16-.18-1.55,0-.46.2-.55.36-1.36.59-.53.15-.72.59-1.46.21v.64c-.57.11-1.29-.37-1.76.08l-.3,2.44.62.25c-.57.68-.74.97-.46,1.86.41,1.3.57,2.26.63,3.68,0,.08.51.34.57.45.11.22.18,1.2.24,1.53l1.94.47c.52-.13.24-.58.28-.6.08-.05.4,0,.61-.1.62-.29,1.09-.82,1.77-1.1.39-.16.89-.12,1.22-.34s.34-.69,1-.53l-.16-.38c.38-.11.26-.43.34-.54.06-.08,1.45-.11.77-1.3.48-.07.84.24,1.27.4.14.05.41-.07.49,0,.18.15.15.68.57.75.01.33.07.4-.26.51.06.55.63.93.64.99.04.24-.2,1.16-.34,1.39-.11.18-.37.21-.43.28-.03.04.24.46-.46.58-.26.04-.37-.38-.68-.29l.02.4c-.83.16-1.37.71-2.23.89v.53s-1.1.27-1.1.27l-.02.45-.54-.17-.13.29-.28-.12.11.4-.2.23-1.02-.15-.26.77c-.49-.02-.98.16-1.47.14-.43-.02-1.18-.4-1.37-.38s-.31.43-.6.4c-.53-.04-.83-.9-1.07-1.15-.39-.41-1.12-.48-1.11-1.21l-.79.16-.16-2.38-.63.16-.07-2.23-.69-.38c.25-.86.31-2.12.11-2.99-.03-.14-.25-.12-.28-.2-.07-.23.4-1.16.37-1.36-.06-.38-.4-.2-.4-.46.6-.01.53-1.29.56-1.84,0-.15-.19-.32-.18-.46.01-.42.8-.88-.03-1.27l.29-.71-.48-.09c-.11-.65.7-1.25.75-1.6.04-.29-.2-.83.05-1.24-.01-.23-.77.14-.64-.32.74-.49.21-.61.21-.95,0-.24.63-1.21.37-1.76-.1-.21-.63-.2-.31-.82.19-.36.51-.09.53-.29.06-.63-.33-.78-.48-1.34h.79s-.63-.72-.63-.72c.6-.25,1-1.07.16-1.19.74-.75.02-.91,0-1.18-.06-.66.3-.29.45-.43.49-.46-.27-2.78-.23-3.38.04-.53.54-.9.58-1.43l-.48-.08c.3-1.08.39-2.22.16-3.33l1.17-.17c.12.33.84.91,1.14.9.1,0,.23-.2.34-.2,1.09-.02,1.17-.26,1.9-.37.44-.06.81.2,1.08.16.11-.01.09-.3.2-.33.37-.09.68.17.91.17.1,0,.09-.26.21-.33.28-.17,1.38-.11,1.63.16l.26-.47,1.74.12.31-.76c.45.07.55.4.78.58Z"/><path d="M165.9,4.5c.07.05-.04.3.11.27l.17-.33c.64.56,1.29.05,1.58.07.66.04,2.71.14,3.22.31.05.02.29.65.83.26.2.63-.24.59-.37.84-.12.23-.16.51-.27.67-.69.99-.79.8-1.77,1.21-.17.07-.06.43-.67.3-.23-.05-.4-.27-.52-.29-.13-.02-1.74.67-2.27.29l.16.47c-.8.14-1.78.1-2.38-.48l-.31.56-.96-.24c.04.28.03.53-.32.48l.48.16c.09.44-.45.84-.47.89-.05.19.09,1,.07,1.31-.03.39-.68,1.64.23,1.13.22.28-.6,2.58-.6,3.13,0,.23.27.38.26.58-.03.48-1.03.75.18,1.29-.28.16-.51.85-.45,1.12.03.12.27.05.29.08.06.08-.22.22-.24.39-.06.44.01,1.18-.07,1.67l.32-.16c.09.36-.19.75-.22,1.03-.06.6.32,1.18-.41,1.43l1.27.56c.04-.65.8-.54,1.19-.68.09-.03.07-.2.16-.23.48-.15.46.36.62.39.51.1,1.05-.51,1.28-.91l.39.47.16-.63c.63.31,1.08.58,1.8.29.22-.09.45-.95.66-1.24.24-.01.51.38.76.52.14.08.38-.04.41-.02.06.06.59,1.56.59,1.65,0,.17-.45,1.55-.57,1.7-.64.85-1.59.5-2.3.75-.95.34-.65.47-1.88.64-.8.11-1.32.27-2.17-.01.67,1.12-2.43.83-2.54.95-.18.53.32.93.33,1.34.01.51-.61,1.2-.62,1.27-.08.56.42,1.29-.03,1.59l.48.16c-.05.33-.29.57-.37.9-.08.36-.28,1.88-.23,2.23.03.22.37.42.29.82-.03.17-.4-.01-.33.25h.64c-.55.99.63,1.23.17,2l.3.07c.07.26-.23.11-.27.18-.4.74,1.4,1.18.9,2.03l.4.13c.29-.13.33-.5.57-.67.26-.19.59.1.35-.37.47-.3.47-.72,1.15-.35l.16-.16c-.13-.68,1.04-.28,1.41-.95.07-.14-.07-.31-.06-.32.19-.11.89.26.8-.32.46.66,1.04.21,1.54.42.23.1.42.6.84.61-.12.5-.56.33-.64.5-.12.28,0,.94-.03.98-.05.07-.29.08-.35.18-.08.12.09.37,0,.49-.12.18-.73.17-1.04.39-.48.34-1.32,1.62-1.87,1.98s-1.65.44-2.29.64c-.12.04-.12.29-.24.31-.5.11-1.08-.38-1.23.14l-.31-.14-.17.32-.86-.34-.03-.6-1.1-.18.12-.23c-.4-.25-.17-1.05-.42-1.61-.12-.27-.72-1.03-.84-1.39-.14-.44-.14-.93-.29-1.37l-.31.16c-.06-.32-.18-.61-.22-.93-.11-.75.39-1.53-.57-1.29-.07-.25.21-.11.26-.19.15-.26.13-.99.05-1.28-.04-.13-.41-.11-.26-.8.12-.54.4-.28.43-.67l-.48-.16c.05-.33.59-1.01.61-1.14.03-.21-.28-.35-.27-.58.01-.2.33-.62.39-1,.09-.54-.22-1.59,0-2.24.11-.31.51.06.2-1.03-.04-.14-.24-.12-.27-.2-.05-.15.14-.63.1-.78-.06-.22-1.16-.44.18-.74-.18-.56.32-1.17.33-1.83,0-.46-.29-.7-.28-1.03,0-.18.33-1.22.28-1.26h-.48c.49-.54-.17-1.7.63-1.91v-.23s-.61-.26-.61-.26c.05-.7.22-1.24.62-1.81v-.29s-.32-.17-.32-.17c.69-.72.07-.83.03-.95-.12-.33.46-.89.46-1.11l-.31-.15.15-.57-.48-.08.76-1.14c.1-.5-.42-.51-.44-.54-.05-.09.28-.37.29-.57.01-.19-.22-.32-.23-.45-.01-.16.34-.65.1-1.03h.64s-.46-1.04-.46-1.04c.45-.14.81-1.35.3-1.44.2-.26,0-.79.03-.93,0-.03.18-.35.26-.5.59-1.22,1.28-1.66,2.47-.69l1.21-.16-.16-.47,1.04.32.41-.46c.35.32,1.49-.12,1.7.03Z"/><path d="M50.28,3.85c.09.07-.04.46.35.28v-.47s.87.31.87.31l.15-.3c.61.31,1.16-.37,1.44.45l.23-.53c.51-.5.77.34.91.37.37.09,1.02.11,1.08-.32.49.59.64.73,1.35.32l.18.78.62.02-.16.54.32.19v.29c-.02.37-1.01.65-.93,1.08.02.1.52.6-.11.74-.33.07-.32-.38-.42-.45-.32-.22-3.11.7-3.79.13l-.08.64-.64-.64h-.31c-.12.68-.98-.17-1.04.64h-.15c.09-.45-.27-.13-.39-.31-.12-.16-.1-.58-.34-.63-.27.06-.7.17-.88.38s-.31,2.27-.29,2.69c.02.49.33,1.91.31,2.38-.01.39-.4.82-.32,1.28l.48.08c-.34.48-.05.98-.09,1.45-.03.36-.34.83-.19,1.33.03.09.3.02.29.31,0,.45-.31.95-.49,1.36l.8.24-.48.4c-.06.32.51.04.47.23-.09.51-.57.69-.61.8-.04.11.3,1.01.25,1.36-.04.33-.32.61-.29.84.02.13.33.13.41.24.2.31.09,1.24-.23,1.51.82.91.75-.18.97-.37.1-.08.44,0,.64-.07.48-.17,1.24-.59,1.67-.7.15-.04.41.16.5.1.07-.05.55-.99.36-1.18-.04-.13.29-.1.36-.07.23.08,1.61,1.77,1.72,2.1.44,1.31-.12.92-.47,1.27-.12.11-.06.41-.15.55-.39.62-.95.46-1,.52-.3.36.39.24.32.47-.61.2-.93.33-1.59.16l-.1.45c-.75-.04-1.73-.19-2.21.5l-.24-.47c.18.72-.5.33-.95.48v1.1s.47.01.47.01l-.48.95h.48c-.05.51-1.18,1.21-.32,1.27l-.33.25c.26.88.13,1.6-.15,2.44h.64c.06.71-1.04,1.96-.16,2.07l-.29.23c-.13.92.52,1.43.13,2.31h.64s-.48.95-.48.95h.48s-.32.48-.32.48l.48-.16c.22.29,0,.77.03.88.02.1.22.07.23.11.03.08-.09.21-.06.24s.56.57.59.59c.6.37.64-.21.74-.23.31-.07.59.1.93-.15.33-.23.66-.84.23-1.12.31-.05.81-.29,1.02-.49.23-.23.21-.49.3-.58.08-.07.31,0,.38-.07.15-.14.25-1.01.44-1.23l1.51,1.43v.31s-.32.08-.32.08l.49.49c-.09.42-.19.62-.64.54l.16,1.26c-.96-.02-.57.91-.82,1.25-.11.15-.52.03-.66.39-.18.47.38.64-.4.6l-.02.94-.41-.14-.15.31c-.66-.64-1.07.15-1.13.16-.23.02-.5-.18-.76-.16-.29.02-.61.36-.79.31-.15-.04-.18-.37-.37-.47-.34-.18-2.23-.5-2.53-.84-.61-1.29-2-2.35-1.65-3.91l-.45-.02-.02-.52.32-.1v-.31s-.27-.03-.27-.03c.23-.4-.16-.27-.27-.44-.05-.08-.01-.68-.25-.88l.46-.26c-.39-.61.12-1.18.12-1.49,0-.16-.21-.34-.22-.51-.03-.47.3-1.3-.51-1.16.28-.51-.12-1.33.48-1.5l-.47-.08.31-1.18-.47-.26c.25-.45.78-1.49.57-1.98-.13-.32-.71-.24-.48-.89.11-.31.93-.72.22-1.02-.33-.14-.57.22-.78-.15.37-.37-.03-.86-.01-1.1,0-.11.28-.13.39-.27.21-.27-.1-.62.73-.46.07-.26-.23-.08-.29-.23-.12-.3.03-.95.29-1.2l-.47.16c-.14-.58.6-1.29.63-1.67,0-.08-.26-.06-.29-.15-.02-.06.07-.43.04-.63-.06-.45-.62-1.24.41-1.2l-.32-.56c.76-.33-.5-1.45.32-2.14h-.48c.57-.71.05-1.69.17-2.28.07-.37.49-.75.46-1.14s-.56-.56-.57-.78c0-.11.16-1.1.42-.88l-.33-.26c.15-.27,0-.92.12-1.12.14-.25.46-.28.48-.43.03-.21-.2-.78-.19-1.13,0-.17.33-1.04.33-1.27,0-.25-.32-.95-.26-1.25l.32-.1c-.5-.51-.11-.51,0-.87.02-.06-.6-.25-.33-1.02l-.44-.02c-.24-.74.16-.68.36-.96.1-.14.06-.38.2-.48.25-.18.7.21.87-.9.83-.16,1.07.56,1.6.8.11.05,1.09.38,1.15.37.1,0,.89-.41,1.15-.22Z"/><path d="M84.96,3.13c.05.03.66.33.7.34.31.07,1.6-.67,1.33.35l.62.02c-.1.43.6.75.97.77.08.08-.44,1.38-.67,1.48-.52.24-1.14-.43-1.24.42l-.62-.31c-.07.71-.5.33-.81.41-.48.13-.94.38-1.42.54l.4.47c-.42.46-.86.13-1.12.3-.11.07-1.81,1.8-1.89,1.93-.4.62.27.89-.88.94,1.08.74-.05,1.49-.48,2.3l.32.15-.64,1.27.8.24c-.1.38-.3.74-.42,1.11-.07.22.3.52-.22.48l.45.55-.3.4h.79c-.33.67-.05,1.53.57,1.89.29.17,1.01.41,1.45.62,1.6.75,3.07,1.12,4.43,2.32.07.06.02.29.1.37.29.29,1.24.59,1.59.84.1.07.14.2.12.31l.47-.32.15.88.48.07c-.13.49.58,1.36.95,1.11.07.72.89.72.49,1.58l.64.25c-.47.64-.11.5.04.91.18.52.46.88.27,1.29l.33.17-.48.96c.55.11.2.61.38.88l.57.15c-.69.59-.18.9-.23,1.28-.08.63-.55,1.07-.38,2.09.08.47.5.38.45.67l-1.28,1.59.32.15c-.2.25-.57.81-.33,1.1.17.21.53-.06.49.25-.96.22-.9.72-1.06,1.52-.03.18.1.44.06.52-.03.06-.63.37-.47.96l-.45.02.12.29-.27.03.31.39-.95.72c.31.34.24.52.16.95-.37-.28-.25.05-.44.14-.66.32-.7.53-.86.62-.21.11-.53-.05-.73.07-.26.15-.15.74-1.14.28l.08.32c-.55-.41-1.22.47-1.29.48-.39.05-.63-.35-1.01-.32v.47c-.52-.21-1.13,0-1.52-.01-.24-.01-.4-.26-.64-.3-.57-.1-1.99.23-2.13-.63l-.23.31c-.69-.23-1.18-.67-1.04-1.43l-.47.16c-.13-.2,0-.89-.03-.93-.07-.1-1.04-.52-.13-.66l-.47-.32c-.04-.26.47-.52.48-.58.03-.24-.17-.56-.09-.69.06-.11.36-.16.46-.31.24-.37.19-1,.97-1.12.31.53.83,1.19,1.27,1.6.12.12.37,0,.48.14.38.46.01.98,1.15,1.09.66.06.7-.43.74-.43.13.01.92.25,1.09.31.14.05.1.33.19.31.18-.04.4-.39.77-.17.29-.66,2.49-1.68,2.43-2.29-.01-.13-.25-.26-.24-.31,0-.15.61-.33.7-.55.08-.19-.3-.54.24-.49l-.47-.55c.73-.32,1.34-2.17,1.19-2.85-.04-.17-.28-.32-.24-.4.03-.05,1.02-.37,0-.64-.06-.25.22-.09.31-.27.15-.31.17-1.02.11-1.37-.03-.17-.31-.34-.26-.42.02-.03.56-.06.48-.4h-.47c.04-.35.5-.98.44-1.25,0-.04-.27-.51-.35-.69-.02-.04-.24-.04-.26-.15-.08-.53.43-.64-.47-1.09l.31-.47c-.57-.26-.64-1.04-1.27-.71.31-.53-.1-.55-.32-.87-.29-.43-.09-.69-.95-.71l.16-.47h-1.27s.14-.29.14-.29c-.71-.34-1.27-.5-1.81-1.13l-.47.31c-.48-.19-.35-.89-.4-.95-.03-.03-.34.1-.49.07-1.43-.29-.8-.76-1.13-.99-.11-.08-.49-.03-.72-.15-1.2-.59-1.12-1.04-1.81-2-.15-.21-.42-.28-.52-.43-.27-.4-1.31-2.37-1.32-2.64-.03-.78.45-.81-.51-1.39.94-.71.36-1.24.38-1.9.03-.84.27-1.88.39-2.73.03-.19-.15-.44-.11-.51.04-.09,1.85-1.27.45-1.29v-.23c.33-.89,1.23-1.32,1.99-1.84l-.08-.94.81-.26-.17-.85c.49.37.56-.51.65-.62.02-.03.4.12.65-.02.19-.11.22-.39.48-.52.41-.2,1.78-.27,2.01-.45.02-.02-.18-.37.11-.45l1.08.17.26-.65c.26-.07.11.22.19.26Z"/><path d="M186.76,5.21c1.09-.35.99.6,1.53,1.25l-.77,1.73c-.3.21-.98-.11-1.19-.05-.06.02-.33.42-.97.43-.35,0-.75-.22-1.06-.15-.16.04-.18.41-.43.56-.39.24-1.06.2-1.5.25-.4.04-.16.05-.08.31l-.32-.47-.31.32c-.21-.86-1.3-.2-1.91-.16l.09.48-.42.26c.11.61.47.93.01,1.48l.63.08c-.18.48-.35.7-.79.95l.31.08v.23s-.48.33-.48.33c.3.76-.26,1.85-.39,2.53-.03.16,0,.93.11,1l.44.1-.5,1.02-.29-.14c.3.47-.12.73-.13,1.01s.97.82-.03,1.29c.18.34.2.47.64.4l-.3.23c.3.53-.12.56-.14.64-.07.22-.27.84-.3.99-.15.79.23.91.66,1.47h.23c0-.07,0-.23.04-.25,1.33-.68,2.2-.32,3.51-.54.11-.02.1-.26.24-.31.62-.23.63-.05,1.34-.38s1.14-.59,1.91-.11.92,1.25.49,2.02c-.1.18-.29.21-.36.32-.49.83-.74,2.06-1.99,1.47l-.16.15c.18.59-.66.56-1.02.16-.01.75-1.99.31-2.23.48l.16.31c-.44.39-2.45-.77-2.82.1-.04.1.04.83.1.91.16.22.54-.06.5.25-.31,0-.79.68-.88.95-.17.52.38,1.39-.23,1.51l.64.34c-.12.58.13,1.04-.49,1.41l.32.16s-.54.06-.33.79c.04.14.63-.03.62.51,0,.42-.62.44.03.6l-.45.76.29.91.31-.16c.15.3.01,1,.14,1.2.05.07,1.08,1.12,1.16,1.15.16.06.34-.12.5-.09.25.05.6.62,1.14.68.24.03.78-.21.56-.56l.31.47c-.13-.57.48-1.62,1.11-1.59.06-.32-.19-.44-.48-.48l.29-.17-.14-.3,1.27-.16-.16-.31c.39-.04.58-.12.71-.48.28.52,1.06.18,1.36.38.51.99.17,2.02.62,2.95l-.48.07c-.02.76-.62.85-.94,1.45l.31.31c-.14.24-.37.1-.55.23-.56.4-.47.86-.7,1.36l-2.13.22-.29.62c-.82.33-.9-.27-1.16-.39s-.83-.12-1.15-.29c-.28-.14-.37-.68-.48-.74-.31-.18-1.14,0-1.54-.3-.08-.06-.78-1.21-1.09-1.39-.12-.07-.53.11-.84-.21-.61-.64-.43-2.27-.95-2.87-.19-.22-.58.02-.24-.53l-.28-.12.12-.35c-.36-.18-.65-1.31-.52-1.65.07-.21.35-.12.38-.43s.03-1.08-.33-1.11l.59-.63c-.22-.38-.37-.61-.12-1.03h-.48c.52-.48.04-1.2.07-1.44.05-.3.36-.29.37-.38.01-.12-.16-.66-.1-.8.05-.11.27-.06.28-.08.04-.07-.21-.25-.26-.42-.19-.64.24-.5.26-.53.05-.08-.67-1.29,0-1.67-.66-.19-.22-.91.16-1.27l-.46-.25.31-.71-.32-.15c.29-.18.53-1.17.46-1.43-.02-.07-1.04-.64.18-.72-.06-.62-.7-.23-.32-1.03l-.32.08.32-.56c-.78-.4.05-.77.17-.99.26-.46.44-1.65.54-2.24.08-.48.03-.96.18-1.46.12-.41.54-.89.23-1.31-.12-.16-.8-.19,0-.51-.56-.92-.15-.69.06-1.02.12-.2.2-1.43-.38-1.28l.32-.55-.32-.15.95-1.27-.63-.39c.52.07.12-.31.24-.66.11-.32.35-.28.38-.4.04-.19-.17-.47.09-.84.33-.46,1.25-.32.87-1.28.54-.2.63.24.72.28.63.23,1,.07,1.27,1l1.03-.32-.16-.31c.31-.27,1.18-.02,1.28-.08s.08-.33.23-.38c.05-.02.73.17.96.15.31-.03.21-.31.31-.31.88.03,1.62.18,2.55-.02.43-.09.58-1.09,1.06-.03Z"/><path d="M69.69,3.5c.47-.46.8-.12,1.17-.15.1,0,.24-.65.66-.34.08.25.72.72.76.85.11.36-.11,1.13-.05,1.44.02.08.53.21.17.66-1-.11-1.08,1.15-1.83.71l-.16.3c-1.11-.09-2.2.06-3.37.12-.49.03-.91-.43-.87.34-.58.27-.94-.16-1.59-.23-1.45-.15-1,.88-.3,1.62v.23s-.47.32-.47.32l.63-.16-.02.78c-1.22,0,.31,1.9-.3,2.71l.48.08c.01.08-.12.99-.16,1.06-.1.17-.32.19-.38.28-.18.29-.08,1.28.54.8-.03.43-.04.88-.48,1.03.36.03.46.68.41.96-.03.2-.85.86-.82,1.58.02.53.75.74.4,1.54-.07.16-.32.09-.32.36-.02.6.21,1.5.18,2.15.42.17.25-.3.42-.33.22-.03.97.07,1.23-.03.34-.13.02-.6.95-.29l.27-.45c.31.12.58.19.9.03.24-.11.12-.81.99-.63.33.07.74.67,1.2.74l-.09.95h.48c.01.86-.99.6-.48,1.43h-.48s0,.72,0,.72c-.38-.07-.88.34-1.07.36s-.31-.24-.53-.21c-.7.09-.96.58-1.34.72-.62.24-1.95,0-1.99.47h-.32s-.32-.31-.32-.31c.13.44.22.45.64.55l-.29.1.06.46-.41.16v.23s.49.33.49.33c-.41.88-.53,1.82-.55,2.77.89.19-.45,1.59.39,1.82l-.34.64c0,.16.5.36.32.92-.1.29-.48.15-.46.42l.47.24-.31.48c.88.24.14,1.25.18,1.7.11,1.09,1.05,1.99.93,3.14l.47-.32.32.88,1.11.23.02-.45.46-.03-.32-.31c.29-.3,1.13-.13,1.23-.19.41-.23.76-1.27.83-1.31.38-.26.94-.02.8-.72l.55.32.32-.48.71,1.21.48-.09c.11.08-.03,1.37-.08,1.43-.25.31-.62-.06-.08.88l-.45.32.16.76c-.04.2-.8.22-.49.74l-.46-.15-.33.56-.63-.09.16.38c-.7.49-1.17-.62-2.06.12l.08.46c-.83.59-2.36-1.15-2.63.47h-.16c.07-.44-.31-.21-.64-.32l.16-.63-.4-.16c-.12,0-.17.63-.55.48-.19-.89-.56-1.41-1.43-.79l-.42-2.51-.53-.19.16-.63h-.48c.07-.37.23-.9.24-1.26,0-.05-.11-1-.13-1.05-.18-.37-1.23-.52-.11-1.11-.3-.2-.25-.54-.38-.82-.03-.06-.28-.05-.26-.13.04-.13.24-.24.25-.48s-.44-1.45-.36-1.59c.14-.26.57-.11.39-.79-.01-.05-.09,0-.18-.44-.15-.69-.34-.78.34-1.46-.55-.61-.55-.93.04-1.59-.25.04-.61-1.26-.61-1.42,0-.46.36-.86.38-1.13s-.6-.67.23-.95l-.48-.32v-.32s.3-.15.3-.15c-.14-.86-.06-2,.11-2.87l-.51-.79c.04-.69.71-.9.69-1.48l-.28-.18.33-.09c-.42-.55-.11-1.3-.21-1.69-.07-.28-.37-.52-.38-.67-.03-.39.59-1.14.67-1.43s-.1-1.61.08-2.06l-.49-.24c.21.14.51-.64.54-.78.09-.39-.05-.92.1-1.34l-.64-.27c.02-.32.46.01.31-.47l-.32-.08c.2-.29.52-.69.57-1.03.07-.42-.21-.63-.22-.91,0-.18.22-.37.24-.67.04-.44-.7-.88-.59-1.82s.57-.54,1.03-.72,1.72-.47,1.8-.53c.71-.56,1.94-.68,2.97-.77.93-.08,1.37.45,2.14-.56l.48.25-.16-.47.81.07.15.57Z"/><path d="M18.83,2.11s.02.19.17.27c.12.06.36,0,.52.09.05.03.32.94.35,1,.06.1.34-.06.27.19-.77-.1-.75.91-1.31,1.16-.12.05-.89.25-1.22.36-.46.16-1.69.4-2.03.75-.23.23-.34.95-.56,1.18-.34.35-.98.17-1.15.35-.2.22-.08.49-.12.56-.43.82-1.37,1.14-1.86,1.91l.47.55-1.11.32c-.16.62.41.48.48.79-.6.05-.87,1.54-1.15,1.87-.12.14-.46.11-.66.35-.43.53-.39,1.79-.44,1.88-.03.05-.31.09-.43.29-.32.49-.37.96-.66,1.41l.63.31c-.25.33-.74.63-.94.98-.03.05-.39,1.09-.4,1.15-.05.26-.11,1.27.23,1.2l-.64.8c-.06.26.25.21.32.36.39.81-.55.9-.58,1.58-.02.35.16.63.12.91-.04.32-.68.8-.48,1.36l.8.08c-.54.13-.35.68-.18,1.12-.53.15.06.84-.78.7-.21.53.59,1.27.61,1.35.21.78-.57.67-.61.71-.25.26.24.6.48.71.05.09-.27.06-.37.27-.19.43.23,2.11.38,2.72.05.22.25.4.27.54.07.38-.25.8.21,1.3l.46-.15v1.43s.78,0,.78,0c.28.7.09,1.73,1.12,1.59-.09.57,1.35,2.33,1.68,1.42.25.67,1.46,1.13,2.07.89.23-.09.27-.68,1.02-.41l.08.64c.66-.75,1.69-.45,2.47-1.04l.07-1.18,2.15,2.02c-.19.68.17,1.46-.49,1.87l.32.15c-.05.22-1.23.98-1.47,1.08-.36.14-1.5-.06-1.79,0-.19.04-.18.37-.24.41-.03.02-.42-.18-.68-.15-.28.03-.63.36-.8.31-.19-.05-.17-.66-1.12-.6-.45.03-.68.34-.95.44-.43-.95-1.17-.55-1.84-.73-.56-.14-.89-.79-1.41-.22l-.88-1.42-.39.47-.99-2.17c-1.01-.1-.65-.64-.95-.96-.11-.11-.42-.12-.59-.28-.75-.73-.36-1.27-.81-2.02-.06-.11-.32-.11-.32-.21-.01-.21.17-.43.17-.6,0-.1-.35-.09-.42-.4-.13-.56.04-1.51-.71-1.86.35-.68-.08-.48-.12-.61-.1-.32.22-.86.62-.8-.3-.55-.17-1.24-.24-1.74-.02-.16-.22-.31-.24-.49-.07-.58.45-.59-.32-.94l.63-.95-.48-.08c.11-.5.55-.98.31-1.46-.06-.13-.28-.12-.28-.19,0-.27.12-.94.45-.96l-.48-.16c.17-.18.1-.46.21-.67s1.5-1.04.26-1.01c-.01-.59.26-1.23.79-1.51l-.48-.08c.1-.36-.04-.99.48-.95l-.32-.47c.95-.33.73-1.69.49-2.47l.46-.08-.47-.39.79-.56v-.23s-.48-.32-.48-.32l.19-.37.61-.03c-.31-.89.4-1.97.69-2.86.05-.15-.08-.36-.02-.43.14-.16.52.19-.04-.51.71-.01.62-.94.78-1.16.15-.21,1.08-.64.17-.75v-.16c.26-.07,1.06-.41,1.28-.56.13-.09.03-.32.09-.39.79-.97.8-1.5,1.23-2.5.14-.34,1.37-.74,1.69-1.08.14-.15.05-.35.15-.47.19-.22.59-.3.72-.56.1-.19.04-.53.1-.61.1-.12.81-.04.98-.16.25-.18.15-.54.38-.82.51-.62,1.71-.22,1.63-1.42.56.26,1.21.15,1.8.1.34-.03,1.56-.03,1.81.1Z"/><path d="M190.36,51.79s.02.19.03.27l.22-.3c.97.47,2.28-.15,3.03.61l.55-.62c.17.3.24.79.38,1.05.2.37.58.21.77.57.14.26.48,1.7.45,1.92-.01.08-.9.53-.88.9-.69-.69-1.73-.72-2.55-1.25l-.41.76c-.34-.05-1.13-.16-1.43-.05-.56.21-.78.83-1.33,1.04-.43.16-.59-.23-1.03-.02l.31.63c-.43-.07-.16.27-.3.4-.4.35-1,.68-1.24,1.22-.03.06-.29,1.05-.32,1.2-.15.71.17,1.8-.36,2.03.31.44.23.68.17,1.19,1.34-.48.8,1.53,1.86,2.24.16.1.45.01.63.11,1.01.54,2.38,1.03,3.17,1.52.28.17.38.69.47.75.31.21.72,0,.86.07.45.25.71,1.3,1.58,1.03l-.16.63.32-.47c.24-.16,1.6,1.57,1.6,1.89l.61-.14.04.93c.03.12.83.5.91.58.19.2.18.54.39.73.14.13.38-.03.39-.01.09.12.03.62.08.83.24,1.23,0,.47-.07.85-.05.28.16.69.18.99l.62.02c-.44.86-.25,1.78-.65,2.62l.33.16c-.31.62-.49,1.26-.61,1.94-.03.19.13.45.1.5-.16.23-.64.16-.29.97-.96-.36-1.17,1.36-1.35,1.43-.51.2-.28-.32-.55-.31l-.23.81h-.56c-.02.64-.47.95-.96.46-.06.39-.15.7-.56.8-.68.15-.52-.3-.78-.43-.06-.03-.91-.04-.8.27l-.68-.21-.28.37c-.42-.56-1.05-.24-1.39-.34-.22-.07-.34-.38-.55-.43s-.42.12-.58.09c-.21-.04-2.38-1.86-2.49-2.1-.41-.87.11-.81.3-1.14.2-.35.09-1.05.77-1.13.06,0,1.09.32,1.16.37.13.09.13.4.25.4.23,0,.43-.3.72-.26.69.09,1.58,1,2.64,1,.29,0,.55-.11.84-.12l-.16-.31c.04-.06.94-.18,1.16-.31.4-.24.17-.98.75-.96l-.32-.23c.14-.51.63-.44.85-.75.19-.26.45-1.73.35-2.03s-.31-.25-.39-.42c-.2-.42-.08-.35-.43-.89-.73-1.11-1.36-1.93-2.23-2.85-.11-.12-.73-1.28-.87-1.36-.04-.02-.62.13-.86.1-.07-.01-.07-.2-.11-.23-.07-.04-.22.1-.25.07-.12-.1-.28-.57-.37-.75l-.46.16c-.04-1.28-1.18-.76-1.26-.81-.05-.03-.07-.39-.33-.53-.1-.05-.33.05-.47-.02-.85-.45-1.92-1.14-2.7-1.19-.08-.33-.35-.89-.66-1.03-.17-.07-.35.08-.44.03s.12-.41-.5-.11c.14-.44-.27-.76-.4-1.27s.25-1.51-.71-1.43l.32-.24c-.75-.41-.06-1.49-.79-1.67l.48-1.26h-.64c-.07-.26.23-.12.27-.19.27-.57.19-1.68,1-2.12v-.31s-.32-.15-.32-.15l.78-1.45-.3-.46c.67-.16.51-.86.62-.96.2-.18.57-.15.76-.29.2-.15.42-.77.69-.97.34-.25,1.26-.61,1.62-.88s.25-.87,1.07-.48l-.32-.79,1.43.31-.32-.79c.17.04,1.04.01,1.08.05Z"/><polygon class="cls-1" points="97 66.82 96.53 66.82 96.69 66.03 96.84 66.03 97 66.82"/></g></svg>