<?xml version="1.0" encoding="UTF-8"?><svg id="Layer_2" xmlns="http://www.w3.org/2000/svg" viewBox="0 0 289.48 107.99"><g id="chicha_morada"><path d="M173.03,21.62s.03.21.07.23c.08.03.64.14.66.17.32.36.23.93.38,1.33.28.76,1.12,1.38.5,2.49,1.15.6.42,1.31.39,1.9-.02.47.89,1.16-.07,1.31v.33s.36.11.36.11l-.32.86c.55.24,1.03,1.28.16,1.15-.23.29.02.69-.02.9-.03.14-.32.1-.35.24-.11.48.29,1.4.28,1.7-.02.36-.57.6-.61.72-.07.25.04,1.74.5,1.63l-.34.52.52-.08c-.11.55.12.8-.52,1.04l.31.11c.09.85.21,1.2-.15,2.1-.06.16-.34.14-.34.23-.01.44.42,1.52.32,2.24-.17,1.2-.27.84-.23,2.19.02.59-.05,1.3-.09,1.9l.7.09-.32.11c.35.64-.32.56-.38.79-.03.11.04,1.88,0,2.21-.02.18-.41,1.46-.34,1.5l.52.09c-.9.69.2,1.17-.53,2.08l.38.35c-.57,1.38-.55,1.98-.26,3.39.1.48-.38.88.59.87-.04.3-.92,1.17-.7,1.39h.7s-.52,1.04-.52,1.04l.69.09-.18.78-.69.09c.12.25.38.63.44.88.11.51-.47.88.43.78l-.35.95c.12.32.51.07.52.09.02.03-.07.63-.11.7-.24.41-.84.03-.78,1.01l-2.68.47-.61-1.15-.52.18v-2s-.35.09-.35.09l.67-1.65c-.86-.46-.2-.67-.17-1.28l-.66-.3.33-1.53-.33-.18c.23-.47.13-1.07.34-1.54.07-.16.36-.11.34-.21-.04-.16-.46-.52-.47-.7-.02-.34,1.14-1.18-.2-1.67l.31-1.12-.34-.16.32-.12.2-.75c-.85-.31.11-1.13.14-1.21.17-.52-.02-1.54-.11-1.91s.61-1.11.15-1.4l-.7-.17.7-.71c-.11-.37-.26-.77-.17-1.17.03-.14.32-.13.4-.33.12-.29.33-1.72.12-1.88l-.69.17.69-1.74-.7-.09.65-1.04c-.13-.51-.4-1.37.05-1.92l-.36-.33c.28-1.28.63-2.54.53-3.82l-.51-.1.35-.52h-.52c.19-.51-.05-1.01.7-.87l-.36-.27c.14-.47.37-1.15.43-1.62.15-1.12-.33-1.56-.09-2.55l-.32-.15c.29-.86.57-1.99.51-2.88l-.26.35-.26-.35-.86.96-.53-.09.34.43c-.14.31-.71.33-.83.46-.03.04-.03.92-.09.98-.17.22-1.01.4-1.15.84l-.03.32c.86.35-.2,1-.47,1.35-.04.05.12.23.09.28-.21.29-.78,0-.14.72l-.52.27.35.17c-.16.65-.75.53-.87.62-.02.02.14.29.1.52-.04.19-.29.65-.27.68.06.07.41-.12.34.18-.51.21-1.15,1.06,0,1.05-.03.4-.49.17-.5.19-.18.2.15.78-.54.93l.52.52c-.98.78-2.4,2.6-3.3.86-1.03.34-.63-1.05-.7-1.11-.05-.05-.4.06-.68-.28-.6-.74-.52-2.51-.63-2.69s-.41-.16-.63-.59c-.18-.38-.24-1.72-.41-2.18-.19-.49-.9-1.17-.93-1.24-.04-.09.24-.6.16-.92-1.31-.27-.45-1.99-1.92-2.36-.15.56-.68.97-.82,1.53-.11.45.17,1.19.09,1.48-.08.33-.87,1.51-1.03,1.94-.21.54.19.81.11,1.15-.07.33-.71,1.18-.76,1.49-.05.29.17.59.12.96-.09.64-.48,1.6-.57,2.14-.1.61.32,1.38-.27,1.91l.35.17c-.59.42-.25,1.14-.35,1.73s-.72,1.76-.8,2.63c-.1,1.07.2,1.05-.22,2.11-.37.96.33,4.01.1,5.21-.09.44-.47.89-.46,1.18,0,.22.27.39.28.52.03.35-.64.55.05.68-.72,1.35-.05,2.79-.42,4.09-.13.45-.69.5-.78,1.14-.08.56.6-.12.52.17-.12.48-.73,1.1-.86,1.75-.08.38.07.83-.01,1.18-.03.13-.33.11-.35.23-.1.52.68,1.02.06,1.47-.16.12-1.25.32-.23.51l-.35.26.35.09v.34s-.31.04-.31.04c.25.72-1.5,2.66-2.12,2.32-.13-.07-.87-1.08-.87-1.22,0-.25.24-.47.3-.73.04-.17-.18-.42-.1-.55.19-.33.53-.14.65-1.18.09-.77.02-.7-.32-1.18l.86-1.41-.32-.16c.04-.55.44-1.6-.2-1.75.7-.42.61-1.87.17-2.44.51-.12.53-.52,0-.35-.14-.57.51-.94.53-1.4.01-.35-.26-.5-.28-.69-.02-.16.37-.83.28-1.18-.03-.14-.36-.12-.35-.19.04-.6,1.19-1.81,0-2.44l.7-.87-.35-.09.35-.43-.34-.16c.1-.76.45-.51.64-.66.42-.33-.19-1.04-.13-1.42,0-.05.16-.15.28-.83.31-1.8.39-3.55.58-5.28.05-.46-.64-1.63.37-1.48l-.52-.26c.35-.51.84-.69.78-1.39-.02-.18-.3-.31-.23-.65.04-.24.49-.85.67-1.09l-.52-.52.52-.43-.69-.26c.26-.26.55-.51.74-.84.41-.67.95-1.91.91-2.65,0-.16-.26-.3-.26-.34,0-.08.7-.23.62-1.05-.03-.3-.16-.36-.28-.6.66.08,1.08-1.57,1.05-1.99,0-.1-.54-.06-.35-.53.87-.29.38-1.13.69-1.7.25-.47,1.01-.69,1.2-.85.05-.04-.22-.6.55-1.11.59-.39,1.71.08,1.64-1.13.62.09.65.85.71.88.24.14.7.18,1,.34.2.1-.07.51.64.18-.45,1.04.61.69.67.73.33.19.67,1.72.89,2.1.1.17.43.17.5.41.07.21-.15.54,0,.8.12.2.52.25.62.46.06.12-.08.41,0,.69.18.57,1.6,1.22.78,2.01l.6.25c.53-.88,1.09-1,.52-2.08,1.23-.42.45-1.12,1.49-1.65l-.35-.17c.33-.28.67-.43.95-.79.52-.7.18-1.54,1.14-1.56l-.35-.86c.61-.14.9-.78,1.56-.35l.02-.5c.8.1.93-.5,1.29-1.06h.35s.17.36.17.36c.74-.3,1-.72,1.88-.64.06,0,.91.15.96.16Z"/><path d="M205.16,22.16c.39.22.73.6,1.25.76.96.3,1.98-.55,1.78.74.78-.39,1.16.84,1.52,1.04.25.14,1.35.34,1.4.39.29.31.12,1.21.23,1.33.06.06.41.02.58.19s.21.59.36.87c.07.12.33.15.37.22.13.23,0,.8.12,1.19s.52.42.68.73c.3.58.14,2.41.17,3.14.01.36.49.49-.05.98h.87s0,.87,0,.87h-.52c.18.74-.5,1.74.52,2.09v.17c-.48-.09-.2.28-.27.36-.17.19-.5.08-.61.29-.36.65-.31,3.14-1.55,3.53.64.57-.11,1.12-.7,1.39l.34.34c-.58.21-.85.7-1.57.52l.18.34h-.77c-.38.42.38.79.69,1.04l.26-.35c.03.56.81.49,1.17.92s-.05.79.75.55l.16.2c-.33.98.41.78.93,1.12.63.4.56,1.23.65,1.91l.69-.18.52,1.48-.52.34.69-.09-.17,1.56h.7s-.18.42-.18.42l.36.18-.7.7c.25.29.59,1.16.65,1.53.1.63-.31,1.74-.25,2.15.1.67.21,1.12.3,1.86.02.12.32.09.35.22.09.37-.2.79-.15,1s.54.22.59.59c.04.31-.2.54-.19.81.02.49.44,1.49.45,1.58.05.43-.48.94-.18,1.46l.69-.18c.37.63-.11,1.2-.16,1.66,0,.07.26.07.33.21.33.67-.11.44.55,1.38.46.66-.25.88-.49,1.15-.08.09-.02.32-.17.47-.4.39-1.6.92-1.88.17l-.35.52c-.05-.51-.83-.39-.93-.55-.07-.11-.28-1.47-.38-1.76-.08-.22-.57-.14-.18-1.06l-.85-.46c.5-.6.06-.98.02-1.67-.02-.39.15-.86.12-1.2,0-.08-.23-.07-.25-.12-.04-.07.1-.21.06-.27-.05-.08-.8-.76-.8-.81,0-.44.62-1.22.61-1.4-.02-.19-.44-.48-.11-.96h-.7c-.06-.36.51-.77.52-.82.01-.06.02-1.09,0-1.15-.05-.22-.17.24-.19-.53,0-.14-.25-.09-.29-.2-.25-.67-.56-1.21.12-1.73l-.69-.26c.39-.53.54-.67.29-1.3-.04-.11-.28-.09-.3-.21-.04-.3.2-.64.16-.83s-.4-.22-.52-.39c-.15-.23-.22-.41-.46-.77-.06-.09.28-1.16-.39-.66v-.53s-.35.18-.35.18c-.14-.27.04-1.23-.03-1.35s-.83-.64-.93-1.08l-.17.35-.61-.44.35-.43c-.48-.27-1.01-.18-1.48-.33-.31-.1-.67-.49-.9-.51-.35-.04-.54.54-.87.64-.41.12-.85-.02-1.26.05v.51s-.62-.34-.62-.34c-.18.61-1.08,1.35-.96.35l-1.74.17.18,1.03.69.28c.08.32-.38.32-.52.57-.07.12-.38,1.22-.36,1.32.02.12.35.09.36.21.05.55.05,1.46.18,2.04.03.14.6,0,.11.75-.07.11-.37.14-.44.34-.18.51.43,1.72.16,2.39l.34.28-.36.11c-.04.56.31,1.03.46,1.54.11.37-.33.56.25.7l-.88,1.38.36.18c-.84.81.21,2.23.13,2.93-.04.33-.57.77-.62,1.28-.07.72.69,1.22-.21,1.52l.52.43c-.56.38-.86-.07-1.13-.1-.2-.02-.45.2-.69.19-.39,0-1.42-.44-1.57-.78-.17-.38.54-.61-.62-1-.12-.53.59-1.53-.16-1.71l.71-.71c-.28-.37-.07-.92-.53-1.03l.51-.95c-.71-.22-.78-1.65-.17-2.18l-.35-.09.31-.19.04-.76-.35.09.32-1.31-.31-.16c.57-.7-.02-1.2-.03-1.76,0-.32.32-.22.36-.36.07-.26-.42-1.2,0-1.62-1.53.11-.31-.73-.19-1.01.04-.1.36-1.94.35-2.04-.02-.29-.52-.78-.35-1.29l-.5-.1.52-.7-.35-.17.7-.78c-.39.13-.51-.63-.46-.88.1-.49,1.13-1.07.56-2.09l-.62-.16.19-.59-.35-.17.15-1.04.53-.1c.1-.49-.17-.33-.52-.35-.08-.71.26-1.22.69-1.73h-.52c-.01-.34.15-.72.52-.7l-.32-.25.15-.53-.52-.09c-.08-.29.27-.09.32-.25.04-.14-.15-.72-.1-1.01.24-1.33.58-.54.02-1.95-.02-.06-.09-1.29-.08-1.36.03-.18.66-.3.53-.47-.09-.11-.45.2-.26-.17.35-.65.06-1.68.06-2.54,0-.05-.75-.5.02-.6v-.17c-.76.05.04-.98,0-1.04-.01-.02-.27.04-.31-.08-.06-.17.1-.8-.2-1.06l.34-.25-.35-.09c.94-.56.37-1.89.55-2.41.11-.31,1.51-1.31,1.8-1.29l.52.66c.3-.12.07-.45.13-.49.31-.22,1.77-1.2,2.06-1.32.48-.19,1.18.07,1.55,0,.55-.09.64-.61,1.32-.21ZM204.49,25.44c-.31-.12-2.24.17-2.59.33s-.57.5-.74.77c-.05.08-.26.09-.28.19-.06.52.38,1.74-.16,2.23l.78.87-.46,1.21.37.2c0,.47-.36,1.13-.34,1.55.03.48,1.44,1.57.15,1.47.4.66-.12.9-.18,1.32-.05.36.25.73,0,1.11l.69-.17c-.12.57.1.89-.7.88v1.03s.7,0,.7,0c-.14.66-.58,1.87-.5,2.49,0,.04.5.54.51.58.05.29-.18.61,0,.92l-.52.09.52.35-.52,1.48,2.43-.17c-.36-.67.31-1.36.54-.54l.24.02c.52-1.17,1.67-.31,1.75-1.76l1.22-.31-.1-1.05c.86.11,1.1-.46,1.39-1.14l-.35-.16c.12-.44.64-.78.66-.83.1-.21-.21-.9.73-1l-.34-.25c.15-.46.25-.65.68-.88l-.69-.26c-.01-.27.33-.19.5-.45.66-.96-.33-1.49.36-2.25l-.52-.09c.45-.83-.39-1.3-.29-2.03.07-.5.5-.56-.08-1.24l-.58-.03c.09-1.14-1.18-1.55-.96-2.43-.74-.1-1.25-.43-1.22-1.23-.34.15-1.11.09-1.44-.04-.24-.09-.61-.76-.68-.79Z"/><path d="M28.94,22.21c.14.1.41.07.55.23.36.43.1,1.6.96,1.39l-.36,1.11.53.36c-.25.19-.45,1.11-.45,1.39,0,.42.36.4.41.52.15.41-.42.99-.31,1.13l.52-.17c-.14.33.03.67-.11,1-.09.22-.42.21-.42.31,0,.35.44.62.48.89.06.34-.24,1.05-.23,1.51.01.79.34,1.97.39,2.64.01.18-.35.5-.43.86-.14.62.21,1.78.28,2.3.03.21-.24.34-.25.49s.45.44-.07.95c1.67.32.12.78.02,1.17-.09.33.22.85-.02,1.27h.51s-.06.36-.06.36c.53.39,1.25.64,1.92.38.38-.15.83-1.19,1.03-.38.28-.23,1.64-.76,1.92-.8.09-.01.85.43,1.12.27l-.17-.69c.88.36,1.03-.43,1.74-.18l.09-.52c.83.33,1.85.24,2.24-.7.12-.28-.06-.51-.04-.78.02-.23.26-.4.24-.62-.04-.59-.59-.65-.63-.81-.09-.4.21-1.14.37-1.52l-.37-.18c.05-.31.18-.63.53-.61l-.33-.25c.37-.78-.28-1.36-.21-2.17h-.5c.24-.36.18-.96.35-1.27.11-.2.48-.24.49-.38.01-.1-.2-.38-.23-.59-.08-.63.25-.7-.61-1.16l.5-.45c-.33-.84.88-1.8-.13-2.5l.33-.43-.52-.09c1.19-.59.39-1.84.81-3,.08-.21.42-.19.4-.65.62,0,1.67.22,2,.79.16.27-.15.84-.05,1.24.12.47.82,1.39.84,1.47.08.44-.26.66-.33,1.02-.16.83.42,3.73.59,4.6.08.4.27,1.14.27,1.49,0,.29-.28.22-.35.38-.37.96.2,1.54.51,2.39l-.52.43.02.33c.75-.02-.02,1.24-.02,1.32,0,.14.43.2.49.29.14.23-.2.89-.14,1.07s.44.19.24,1.17c-.12.57-.78,1.02.08,1.23l-.5,1.88.5.02-.15,1.9h.7c.11.74-.35.69-.46.95-.16.37-.01.96.45,1.05l-.69,1.39c.26.42.49.13.86.09-.28,1.09-.67,1.47-.23,2.61.06.15.35.29.36.43.01.18-.48.67-.13,1.13l.69-.17c.04.82-1.48,2.2,0,2.27.04.52-.57,1.48-.36,1.78.12.18.47.21.52.41.06.22-.15.48-.14.69.01.25.28.4.29.65,0,.43-.38.94-.31,1.58.06.49.31,2.17.42,2.55.09.33.4.3.43.44.14.59-.25,1.11.72,1.56l-.53.76.69.18c-.38.41-.44.85-.95,1.22-.35.25-.63.24-.91.4-.35.2-.13.86-1.18.12l-.26.35-.78-1.01-.61.32c-.3-.52.08-1.27,0-1.63-.03-.15-.57,0-.22-.61l-.32-.12c.38-.59.3-1.75.09-2.37-.12-.34-.4-.31-.43-.44-.08-.41.23-.85.15-1.15-.05-.2-.34-.33-.43-.55-.12-.29.34-.55-.24-.69.96-.87-.15-1.44.52-2.17h-.7c-.16-.7.43-1.06.5-1.34.02-.06-.03-1.21-.05-1.28-.07-.32-.36-.31-.39-.37-.03-.05.1-.18.06-.27-.04-.09-.53,0,.06-.83l-.34-.15.16-.62h-.52c-.11-.55.53-.91.53-.97,0-.14-.16-.34-.16-.53,0-.22.13-.42.13-.51s-.24-.07-.3-.21c-.15-.32-.19-.7-.48-1l.47-.68c-.27-.26-.18-.99-.26-1.14-.17-.29-.56-.32-.6-.37-.09-.14.5-1.09.5-1.29,0-.25-.43-.54-.17-.95-.77-.36-.99.32-1.52.47-.88.26-1.96.02-2.83.39l.18.52-.44-.15-.18.34c-1.01-.27-1.57-.46-2.56,0-.14.06-.04.43-.56.36-.34-.03-.45-.68-.87-.5-.14.06,0,.55-.61.14.01.78-.8.66-.67,1.48.04.27.31.46.29.66-.03.19-.44.64-.27,1.05l.83.28c-.23.53-.28,1.1-.4,1.65-.23,1.01-.29,1.37-.28,2.61s-.05,3.31.51,4.19l-.18.93.87-.35c0,.49.03.98,0,1.48-.02.44-.48,1.04.17.96l-.35.17.29.2c.26.68-.24.86-.27.93-.09.25.49,1.7.42,2.09-.07.44-1.08,1.02-.62,1.47-.49.22-1,.1-1.47.18-.83.14-.39.52-1.53-.19-.21-.13,0-.57-.65-.17-.45-.81.34-.99.32-1.84,0-.06-.5-.13-.48-.68.02-.5.77-.99-.02-1.21.78-.74-.34-.83,0-1.31h-.53s.18-.42.18-.42l-.35-.1c-.07-.29.25-.11.31-.19.04-.05-.34-.58.39-.77l-.11-.45-.59-.17c.22-.41-.05-1.31.06-1.64.08-.22.37-.34.43-.56.14-.49-.54-1.08-.5-1.62l-.52.18c.15-.2.01-.9.03-.95.03-.1.27-.1.3-.22.18-.59.51-1.46-.33-1.26,0-.51.42-.94.36-1.48-.04-.39-.42-.17-.36-.51.06-.37.42-.47.5-.73.14-.5-.32-1.12-.31-1.5,0-.27.42-1.26.34-1.33h-.53s0-.61,0-.61c-.66-.07-2.26.26-1.39-.77-.9-.3-.78-.78-.87-1.56.93.01.73-.45.92-.66.07-.07.27-.04.4-.12.35-.22.15-.4.95-.1l.19-1.99-.53-.18c.5-.33.33-.84.4-1.1.01-.04.29-.04.3-.13.04-.31-.26-.54-.3-.86-.04-.38.18-1.26.11-1.53-.04-.17-.4,0-.36-.56.01-.2.59-.53.49-1.05l-.46-.32c-.02-.48,1.07-1.02.16-.88v-.95s-.52,0-.52,0c-.07-.72,1.11-1.27.35-1.5v-.33c0-.28.58-.28.36-1.03-.05-.18-.65.08-.66-.56l.83-3.63c-.32-.56.3-1.72-.35-1.64.52-.43-.08-.92.08-1.48.09-.34.44-.33.61-.53.15-.17.13-.44.23-.55.04-.04.8-.46.89-.39.16.07.19.35.32.46Z"/><path d="M247.62,24.3c.12-.07-.1-.51.74-.12l-.17.52c.25,0,.5-.02.74.04.76.2,1.19.13,1.35,1l.78-.69c.44.18.35,1.04.48,1.18.08.09.58-.01.57.38l.26-.35c.07.67.94.69,1.33,1.1.37.39.39,1.09.43,1.13.07.07.43-.01.66.12.18.11.66.69.53.94l.69-.17.7,2.78h.79s.1,1.02.1,1.02l.85.2c-.3.61.17,1.67.87,1.56v.17c-.82.08.16,1.31.01,1.9l1.02.21c.18.54-.51,1.29-.47,1.59,0,.04.29.78.32.81.06.06.52-.28.68.09l-.35.26c.93,0-.1,1.15,0,1.47l.51.35-.52,1.48h.52c-.35.55.3.89.32.96.11.39-.45,1.65-.45,1.74,0,.16.42.33.44.51,0,.12-.26.4-.28.7-.02.24.18.71.12.85-.1.24-.4.22-.47.37-.03.07.29,1.02.27,1.42-.02.46-.48,1.28-.49,1.35-.07.94.25,2.38.28,3.24.02.73-.55.72-.56,1.13-.01.34.27.62.22.96s-.43.3-.45.44c-.07.48.29.83-.34,1.36v.26s.52.17.52.17c-.46-.06-.14.2-.44.5-.21.21-1.51,1.14-1.47,1.51.02.21.57.15.52.43-.28.3-1.14.15-1.19.19s-.15.54-.37.78c-.52.57-1.73.68-1.4,1.46h-.52s.34.59.34.59c-.54.34-.77,1.14-1.14,1.48-.27.24-.78.37-1.13.61-.2.14-.27.5-.37.57-.08.06-.91-.11-1.14,0-.32.13-.19.52-.49.75s-.69-.04-.76,0c-.03.02.26.39-.17.59-.14.07-.5-.02-.79.09-.67.25-1.34.66-2.09.84-.66-.52-.83-1.15-1.75-1.33s-.69-.08-1.63-.44c-.18-.07-.48.12-.52.08-.07-.08.16-.76-.7-.7.71-.63-.5-1.22.35-1.47l-.34-.16.35-1.05-.36-.18c.7-.75.08-.77.06-.82-.21-.68.06-1.09.06-1.58,0-.58-.62-1.27.23-1.34v-.35s-.34-.08-.34-.08c.35-.4.54-1.02.33-1.52-.1-.23-.55-.04-.15-.9l-.36-.18.35-.71-.36-.18.2-.67-.36-.27.49-.25c-.36-.59-.21-1.32-.32-1.89-.03-.14-.26-.11-.3-.21-.19-.54.27-.74.6-1.03.13-.62-1.46-1.11-.13-1.49l-.36-.42c.09-.47.07-.88.55-1.07.04-.71-1.25-.59-.18-1.72l-.35-.17.35-.17-.31-.17c-.23-.45.93-.59-.13-.95l.11-.78-.37-.19.35-.09-.35-.17c.48-.73-.09-.74.36-1.61.51-.99.13-.7.18-1.61.01-.23.26-.41.3-.69.12-.71-.51-.83-.63-1.35-.16-.68.49-.85.49-.91-.02-.27-.32-.4-.32-.66,0-.29.37-.66.32-1.07-.03-.25-.29-.42-.32-.56-.03-.17.56-1.21.26-1.75-.03-.05-.24-.04-.25-.07-.08-.18.45-.4-.34-.74l.31-1.22-.49-.35c-.12-.63.85-1.06.6-1.46-.09-.14-.51-.14-.44-.64,1.06-.45-.06-1.17-.04-1.38.07-.66.6-.71.67-.89.08-.2-.45-1.06-.33-1.53.05-.19.46-.18.52-.4.07-.24-.19-.57-.16-.85.04-.49.74-.44-.17-.87.43-.65,1.4-.49,1.83-.64.12-.04,0-.46.34-.31.09.65,2.39,1.5,2.66,1.34ZM246.89,27.03c-.12-.08-.58-.47-.62-.42.37.81-.42,1.98.52,2.35-.33,0-.54,1.13-.52,1.41s.97.67-.18,1.2c.96.31.27,1.18.26,1.56-.02,1.07.33,1.88.27,2.81-.02.34-.16,1.1-.16,1.16.04.51,1.05,1.13.14,2.12l.69.89c-.81.86-.55,1.52-.7,2.56l.36.2-.35.17.52.09-.02.86c-1.23.09-.15.37-.03.61.15.3-.4.9-.41,1.32-.01.54.43,1.33.41,1.47,0,.09-.41.46-.52.81-.17.51.09,1.45.23,1.95l-.36.2c.39.45.14,1.98.24,2.25.14.36,1.27.59-.06,1.3l.52.35c.06.27-.24.09-.34.3-.29.58-.15,1.32.69,1.09.07.28-.24.12-.29.2-.05.08.06.32-.04.54-.19.39-.11-.16-.25.64-.08.48-.49,1.72.24,1.75l-.35.17.17.69.52-.17-.07,1.05-.63.17c.6.8.19,1.78.17,2.69l.35-.09-.35,1.56c.8.09,1.16-.69,1.74-1.04l-.09,1.04,1.13-.78-.34-.43c.47-.05.81-.31,1.13.17.47-.33.06-.32,0-.52-.24-.83.91-.29.95-.34.04-.05.29-.94.46-1.06.18-.12.55-.08.76-.25.17-.14.12-.44.3-.61.15-.15.67-.29.72-.36.04-.07-.35-.89.72-.86v-1.12c1.87-.47.98-1.75,1.6-2.91.15-.29.35-.3.67-.29.06-.05-.29-1.31-.28-1.47.01-.88.74-1.39.8-1.59.02-.07-.09-.34-.06-.55.17-1.18-.12-.55-.13-.98,0-.54.54-1.23.5-1.54-.07-.54-.95-1.63-.8-2.29,0-.04.15-.21.27-.57.13-.39.47-.69.41-1.15l-.68-.3c.05-.58-.19-.85.5-1.11l-.33-.17.25-1.66c-.11-.43-.6-.42-.7-.84-.11-.48.2-1.42.06-1.83-.12-.34-.59-.17-.68-.4-.15-.36-.27-1.21-.17-1.6-1.06-.05-.47-.48-.54-.8-.08-.37-.43-.66-.33-1.12l-.69.35c.03-.17-.13-.34-.14-.48-.06-.76.44-.3.66-.73-.69-.14-.95-.99-1.39-1.48-.28-.32-.77-.47-1.05-.87-.34-.49-.2-1.14-.69-1.65l-.26.34c-.55-.37-1.23-.65-.78-1.39-.93.05-1.09-.52-1.57-.96-.18-.16-.61-.2-.67-.29-.1-.16.05-.52-.06-.64-.05-.06-.95-.43-1.26-.65Z"/><path d="M117.55,23.35c.07.07-.01.33.15.49.28.27,1.25.8,1.62.51-.08.68-.06.81.5,1.14l-.16.59.85.44c-.44.27-.04,1.43.18,1.72.13.17.45.05.51.12.09.1-.04.44.07.63.05.09.33.11.5.46.42.89-.55.63-.54,1.49h.52s-.17.7-.17.7l.52-.17-.54,1.3c.15.45,1,1.03.89,1.39-.06.2-.67.24-.52.43.6.21.88.5.51,1.12l.36.1c.04.31-.34,0-.37.42-.08,1.14,1.37,2.1.02,2.18.4.51.5,1.11.35,1.74h.87s-.69.96-.69.96l.69.09c.11.37-.46.93-.45,1.13,0,.11.21.24.22.37.02.23-.14.47-.09.64.15.56,1.86.86,1.9,1.42.05.59-1.3,1.55-.36,1.91l-1.05.53.03.59.5.1-.52.69c.62.54.01,1.49,1.22,1.31l-.33.19c.38.65.05,1.25,0,1.82,0,.08.33.06.43.4.15.54.19,1.55.27,2.18.11.93.03.74,0,1.59,0,.08.29.05.32.19.17.67-.25,1.48.88,1.27l-.52,1.31.35.09c-.4.33-.18.97.01,1.43.13.31.6,0-.18,1,.02.02.27-.04.31.08.11.31.31,2.13.44,2.32.08.11.44.16.46.29,0,.04-.3.4-.34.72-.06.57.1,2.87-.4,3.16-.17.09-.45-.02-.61.08-.11.07-.13.42-.31.48s-1.36-.56-1.3-.86l-.2.3-.48.04c-.17-.49-.29-.9,0-1.38l-.52.17.17-1.56-.52.35-.17-1.56h.52c.05-.32-.23-.49-.27-.78-.03-.17.14-.43.1-.67,0-.04-.36-.58-.39-.61-.13-.11-.37,0-.47-.05-.11-.05-.06-2.05-.07-2.33-.01-.36-.48-.58.05-1.04l-.69-.26c-.07-.07.46-.83.46-.96,0-.29-1.09-1.19-.29-1.82h-.52c.23-.4-.12-1.05.52-1.05l-1.03-.71c.35-.7.8-2.32-.35-2.25l.35-.17v-.34s-.36-.1-.36-.1l.36-1.29h-.52s.52-.87.52-.87h-.86s-.19-.94-.19-.94l.36-.36c-.23-.47-1.34-.2-1.78-.08-.11.03-.71.89-1.01-.19h-.17c.05.47-.78.7-1.15.68-.42-.03-.6-.69-.62-.02l-.5-.14c.14.31.06.5-.26.65l-1.05-.48-.26.52c-.68-.59-1.33-.63-2.07-.15.34.54-.22.97-.2,1.27,0,.09.27.08.3.13.04.08-.09.19-.05.26.04.08.37-.03.3.48s-.37.31-.7.52l.69.35c-.11.26-.68.68-.69.73-.1.46.16,1.01.12,1.2s-.42.16-.47.36c-.12.41.32,1.62,1.04,1.28v.17c-.46-.04-.25.83-.86,1.16l.46.67c-.37.44-.45,1.13-.64,1.53-.07.14-.89.35,0,.73l-.68.9.51.5c.01.45-.58.44-.73.86-.19.53.2.76.19.88-.01.13-.44.26-.57.45-.22.31-.63.89-.8,1.15-.3.48-.1,1.26-.87,1.09l.17.52-1.35-.04c-.41-.44-.78-1.46-.64-2.06.06-.24.34-.42.36-.6.04-.52-.28-1.2.41-1.91-.48-.1-.45-1.53.35-1.3l-.69-.52c.55.02.13-.73.86-.53.13-.57-.16-.48-.5-.77.43-.49-.1-1.08.5-1.22l-.35-.7.7-.27-.69-.17c-.09-.53.45-.85.48-.9.03-.07-.09-.29-.05-.49.03-.17.27-.38.27-.44,0-.08-1.39-.89,0-.95-.69-.74.62-1.4-.7-1.65.14-.55,1.2-1.79.87-2.23-.19-.25-.66.04,0-.56-.67-.29-.17-1.98.35-2.43-.64.03-.3-2-.13-2.14l.48-.03c-.28-.41-.51-.99.17-1.04-.17-.32-.5-1.78-.46-2.08.06-.39.37-.59.39-.79.02-.17-.16-.43-.02-1.21.06-.37-.38-.88.44-.96l-.37-.43c.09-.93.91-1.73.2-2.61l.87-.26-.52-1.3.7-.09-.52-.61.37-.6.5.17c.25-1.16.26-2.33.87-3.39l-.7-.43c.42-.13.46-.52,1.04-.35l-.35-.26.18-.53.69.09c.12-.64.56-1.15.79-1.74.09-.23-.16-.54.18-.69l.77.17c.23-.93.92-1.53,1.92-1.29v-.79c.59-.12.8.65,1.12.81.09.05.86-.14,1.1.1ZM117.37,30.76l.13-1.36c-.52-.85-1.65-1.3-1.84-2.27-.72.22-.84.66-1.03,1.32.85.2-.25.66-.34.79-.04.06.3.52.24.87-.11.66-.83,1.08-.95,1.34-.12.27-.13.91-.24,1.28-.22.8-.62,1-.12,2.05l-.53.09c.02.39-.16.85.36.78v.17c-.58-.03-.74,1.64,0,1.57v.17c-.61.11-.57,1.41-1.04,1.83.45-.03.34,1.35.27,1.74-.09.53-.68,1.81-.72,2.26-.03.38.47.65-.07,1.12h1.22s0-.87,0-.87c.28-.06.08.24.3.34,1.06.46,1.2-.29,1.38-.33.24-.06,1.03.31,1.52.15.25-.08.24-.49.38-.51.35-.05.59.36.83.34.42-.04,1.04-.88,1.86-.06.66.21.02-1.49.34-1.82l-.52.17.15-.44c-.49-.07-.31-1,.19-.95l-.32-.25.32-1.05-.7-.27.36-.43c.06-1.62-.67-3.23-.54-4.78h-.87c-.07-.3.24-.11.31-.2.04-.05-.1-.26-.07-.37.13-.36.34-.7.42-1.09l-.66-.26.17-.86-.53-.09.31-.11Z"/><path d="M98.09,23.16c-.14.51.38.53.47.75.1.27.06,1.2.12,1.52.1.54.66,1.17.3,1.88h.52s-.32,1.31-.32,1.31l.64.28c.12.68-.19.59-.32.8-.43.74.12.48.17.68.12.49-.17,2.52.04,3.07.1.25.41.4.45.58.06.27-.39.62-.47,1.01-.15.79.49,1.39.47,1.54-.03.17-.51.63-.5.73.02.19.59.06.53.69s-.71,1.11-.71,1.92c0,.19.13,1.37.18,1.54.04.15.38.1.35.2-.31.98-.02.68-.07,1.22-.04.36-.67.84.24,1.22-.37.35-.02.74-.52.88l.18,1.81.69-.17c.07.29-.24.09-.31.25-.34.8.12,3.14.31,4.08h-.52s.01.25.01.25c.56.56.16,2.23,1.03,2.01v.86s-.51.02-.51.02c.18.54-.66.73-.1,1.38.4.46,1.02-.16.25,1.47l.36.26-.3.03-.04.49h.52c-.13.35-.32.71-.4,1.08-.09.42-.24,1.44.23,1.44-.67.82.03.92.18,1.74l-.54.52.52.61c-.74-.18-.23,1.82-.15,1.9.09.08.35,0,.5.02l-.35.26.53.09-.52,1.13.52.43c-.72.11-.67.93-.76,1.45-.07.38-.52.41.07.99-.72.23-2.01-.18-2.44-.82-.1-.14-.76-2.29-.83-2.62-.04-.17.01-1.37-.05-1.41l-.5-.02.35-.61-.86-.52c-.17-.56.52-.54.53-.7.02-.29-.37-.8-.71-.78.88-.8.51-.79.51-1.65,0-.71.5-.97-.5-1.39l.7-.7-.52-.1c.13-.3,0-.58.04-.9.04-.39.22-2.12.1-2.48-.04-.11-.31-.06-.39-.41-.07-.31.14-1.25.05-1.38-.14-.22-.69,0-.3-.71l.68-.02c-.75-1.21-.05-2.48-.35-3.82l-.69.17.15-.79-.33-.08c-.08-.28.24-.12.28-.21.17-.31.45-1.97.24-2.23-.62.48-.85-.25-1.12-.28-.11-.02-1.06.24-1.2.31-.23.13-.26.43-.31.46-.07.04-1.31-.09-1.54-.14l.35.52-1.01.15c-.17-.85-1.44-.12-2.12-.15l.18.52-2.26-.17.06,2.01c1.16.42-.9,1.56.46,1.47.1.83-.53,1.56-.65,2.14-.07.34.52,1.97.41,2.65-.03.2-.37.32-.41.53-.14.64.74,2.36-.04,3.02h.52s-.35,2-.35,2l.33.17c-.36.87.57.89.45,1.85-.04.35-.57.41.09.58-.61.87-.57,2.01-.17,2.96-.66.1-.69.72-.8.8-.61.43-2.05.14-2.56-.35-.2-.2-.75-1.14-.47-1.4l-.52.35c-.37-.53.44-1.9.32-2.17-.07-.16-.42-.15-.49-.37-.05-.16.14-.71.12-1.1-.02-.35-.29-1.01-.48-1.32l.35-.09c-.53-.52,0-1.22.17-1.83l-.34-.16.35-.69c-.81-.33-.22-.64-.52-1.3l.69-.27c-.89-.76-.1-.78-.04-1.56l-.82-.35c-.11-.77,1.36-1.67.25-2.16l.27-1.15-.35-.32c.6-.72.03-1.25.01-1.74-.03-1.07.97-2.01-.98-2.53l-.16.35c-.09-.02-.82-.64-.89-.74-.12-.16-.2-1.14-.59-1,.05-.5.64-.35.67-.38.15-.15.48-.86.9-1.09.37-.2,1.05,0,1.35-.31s.42-1.49.21-1.91c-.08-.16-.38-.12-.35-.22.15-.47.56-.6.52-1.39-.06-1.04-.01-1.18.01-2.09.02-.63-.14-1.33-.01-1.99l-.7-.09c-.03-.16.24-.04.29-.12.13-.24.35-2.03-.11-1.96l.7-.88v-.34c-.6-.19-.54-.97.17-.78.07-.57-.35-1.09-.45-1.57-.07-.3.39-.77-.24-.7l.69-.52-.52-.34c1.18-.25.38-2.36.58-3.05.09-.31.69-.03.29-.77l1.8-.34c.46.15.2,1.49.99,1.64v.35s-.36.17-.36.17v.26s.33.07.33.07c-.16.45-.37,1.78-.11,2.14.09.12.45.19.46.31,0,.06-.35.4-.34.7.01.36.47.53.48.69.01.19-.4.49-.44.72-.06.34.36,1.21.38,1.71.03.62-.2,1.38-.26,2h.52c-.12.23-.02.49-.08.7-.21.68-.37,1.16-.4,1.87-.02.5.06,1.01-.04,1.52l.53.09c-.1.95-.77,1.26-.34,2.3.07.17.36.12.34.21-.05.24-.63.77-.52,1.31.65-.16,1.05.06,1.56-.35l-.35-.52c.12-.1,1.48.76,1.65.02l3.57.15-.17-.52c.31-.03.62-.24.93-.18.11.02.14.57.63.36v-.52s.87.17.87.17c.11-.31-.29-.43-.29-.6,0-.21.53-1.57.43-2.09-.01-.06-.76-.44.21-.87l-.36-.19c-.09-.46.5-.86-.13-1.02-.08-.4.41-.68.45-.89.06-.3-.26-.98-.22-1.38.04-.48.42-1.2.24-1.89l-.49-.1.18-.6-.35-.17c.18-.63.77-.85.78-1.57,0-.6-.65-1.55-.58-1.89.04-.21.4-.35.46-.58.08-.28-.12-.57-.09-.8.07-.5.58-1.11-.06-1.24.47-.25.13-.58.17-.84.01-.06.8-.58.35-1.16l1.38-.15Z"/><path d="M229.92,22.96c.84-.43.82.08.95.13.34.13.86-.06,1.13-.31l.52,1.13.52-.09c0,.4.33.74.43,1.04.13.43-.41.47.36.51.77,1.04.43,1.57.51,2.62.04.51.28,1.54.46,1.97.19.46.75.68.17,1.07l.17.18c.64-.15.87,1-.17.86.16.38.46.79.58,1.16.08.25-.09.54-.03.72.17.51,1.03.37.91,1.87-.07.89-.08,1.59-.05,2.49.01.49.13.95.68.8.07.29-.3.08-.35.28-.1.42.12,1.09,0,1.51-.04.15-.38.09-.35.2.06.19.44.49.47.72.05.37-.26.62,0,1.23.2.45.7.52.84.81.37.75-.41,2.38-.97,2.97,1.01.33-.16,1.07.86.96l-.08.85-.61.18c-.23.61.48.9.52,1.31.02.24.11.98.11,1.04,0,.21-.65.62-.29,1.13l.69-.17-.2.85-.49.02c.46.52.23.91.27,1.42.02.18.18.37.18.58,0,.51-.75,1.26.42,1.48.07.09-.94.81.17.7.1.85-.51.67-.51,1.2.88,0,.14,1.51.43,1.92h.44s-.35,1.56-.35,1.56h.53c-.16.92-1.45,1.79.17,2.09-.28.3-.03.76-.07.96-.07.34-.51.34-.59.47-.1.18,0,.5-.08.7-.5,1.13-1.48,1.02-2.46,1.51-.64-.24-.39-1.01-.51-1.34-.03-.08-.47-1.16-.51-1.22-.06-.1-.39-.1-.46-.32-.22-.68.83-2.13-.21-2.44l.18-.51-.31-.15c-.06-.84.27-.81.67-1.48h-.7c.18-.52.58-.89.36-1.45l-.7-.11.37-1.13-.37-.34.35-.26-.35-.09.53-.7c.05-.32-.31-.24-.41-.48-.22-.53.36-1.12.39-1.62,0-.08-.26-.06-.28-.17-.1-.39.04-.73-.4-.87.48-.55,0-.72.18-1.3l-.35.18c-.07-.65-.08-.85.52-1.13l-.33-.16.16-.8h-.7s.69-.96.69-.96l-.51-.09.16-1.03c-1.19.12-2.85.63-3.92,0l-.16.33-4.62-.16.52.43c-.31.62-.4.81-1.04,1.04.65.65-.35,1,.35,1.74-1.18.55-.43,1.63-.42,2.43,0,.75-.88,1.19-.11,1.74-.62.12-.08,1.09-.17,1.54-.02.13-.33.09-.33.19,0,.85-.35,1.67-.37,2.46,0,.4.27.64.27.84,0,.12-.79,1.62-.93,2.13-.08.29-.2,1.01-.31,1.25-.03.07-.7.92-.78.99-.45.37-.65-.14-.79.42-1.41-.99-.3-2.78-.46-4.09-.04-.35-.44-.56-.32-1.03l.69-.09-.35-.61.33-.1.02-.33c-1.11-.13-.04-1.3-.06-1.65-.02-.24-.34-.54-.3-1.23.07-1.15.58-2.54.53-3.79-.01-.31-.29-.66-.27-.89.02-.22.4-.53.38-.88-.01-.22-.3-.43-.26-.67.04-.21.5-.45.58-.79.11-.47-.38-1.06-.37-1.33,0-.1.61-1.41.64-1.73l-.44-.25c-.06-.72,0-1.05.61-1.49l-.52-.43.52-.26s-.57-.04-.35-.84c.05-.18.51-.04.35-.37l-.35.09.15-.94.72-.11-.54-.46c-.05-.34.74-1.42.66-2.03-.05-.37-.73-.73-.65-.81.57-.51,1.18-.63,1.18-1.65-1.06-.97.09-1.35.56-2.25.34-.64.48-1.17.45-1.89-.03-.63-.04-1.14.14-1.85.09-.36.46-1.03.46-1.3,0-.19-.44.03-.36-.27l1.04-.35-.32-.61.66-.44v-.34s-.34-.17-.34-.17c.42-.11.78-.91,1.03-1.33l-.33-.41c.71-.14.98-1.11,1.41-1.46.45-.37,1.82-1.04,2.42-.98l-.17-.69c.56.18.78.43.7,1.04ZM230.27,27.13l-.68-.16c-.03.48-.68.74-.81,1.03s.08.58.02.88c-.02.09-.66.96-.77,1.5-.13.66.12.21-.21.86-.17.34-.17.75-.52,1.01l.52.17-1.04,2.09.35.17c-.57.29-.18,1.04-.69.96v.17c.97.05-.15.94-.27,1.22-.04.08.09,1.31,0,1.76-.06.31-.34.29-.42.45-.39.83.25,1.54-.36,2.22.99.37-.15,1.09-.18,1.38-.03.23.18,1.32.44,1.3.14-.5.74-.57,1.22-.52.75.08,1.19.97,1.9-.17.46.19.57.67.61.69.07.04.35-.31.62-.35.45-.07.78.2,1.02.18.11,0,.07-.29.18-.32.35-.1,1.05.15,1.38.32l.62-.98-.42-.59-.61.17.29-.2c.24-.75,0-1.29-.05-2-.02-.31.17-.64.11-.98-.01-.09-.83-.46-.4-1.14l-.3-.11c.57-.38-.09-1.23.52-1.14v-.17c-.52.1-.21-.53-.24-.93-.04-.62-.35-.9.06-1.68l-.33.17c-.35-.71-.41-1.13-.19-1.91l-.34.18c-.33-.55.08-.71.13-.99s-.26-.45-.24-.66c0-.12.24-.26.23-.35,0-.2-.47-.4-.55-.6s.15-.57.05-.92c-.2-.73-1.51-.93-.67-2.04Z"/><path d="M273.19,21.45c.07.1,0,.36.07.43.12.12.72,0,.98.25.13.12.11.45.26.6.3.3.96.42,1,.91l.68-.34c-.06.37.4.44.48.56.06.08-.18.62-.1.88.08.23.33.33.39.47.42,1,.76,2.24,1.08,3.47.08.29-.1.57-.06.67.02.04.42.15.31.71h.69c-.44.56-.1,1.67-.17,1.97-.05.21-.51.23-.53.38-.02.17.81.75.83,1.25.01.31-.38.49-.41.83-.04.43.35,1.12.28,1.55-.03.17-.53,0-.36.46l.87.09c-.44.54.08.91-.87.96.23.44.15.94.25,1.4.14.62.57.73.1,1.55h.52c-.22.26.04.68-.04.83-.02.04-.23.05-.31.17-.28.4.14.51.17.83.04.39-.28.83-.17,1.35.01.05.61.53.63.91.02.43-1.03.89.42,1.56v.34c-.52.1-.16.52-.35.96h.52c.09.41-.43.68-.47.98-.04.28.19.76.14,1.2-.04.37-.32.57-.32.83,0,.19.35.78.52.93.04.04.21-.1.26-.07.14.11.19.52.56.48l-.43,1.04c.09.56.5.26.61.34.05.04-.31.99-.7.87l.7.78c-.59.69-.14.88-.1,1.39.07.96-.29,1.47.45,2.26l-.53.44.34.25-.34,1.03.68.29c-.39.61.09,1.64-.52,1.81l.69.45-.44.94.45.52-.7.78c.08.08.67-.18.52.26-.09.28-.79,1.32-1.22,1.13l.18.52c-.35-.04-.77.07-1.1,0-.14-.03-.06-.36-.37-.36-.73-.02-.74.52-1.13-.58-.33.36-.7-.89-.68-1.02.05-.25.68-.5.5-.98h-.52c.43-.59.52-1.85-.13-2.34l.49-.7c-.05-.44-.47-.29-.6-.76-.17-.59.26-1.15.27-1.68,0-.31-.3-.22-.33-.34-.1-.42.49-1.11.14-1.53-.82-.26.72-.96-.53-1.43l.35-.6h-.52c-.13-.51.32-1.02.3-1.46-.02-.51-.45-.44-.47-.47-.04-.06.23-.37.26-.6.14-1.12-.43-2.15-.27-3.21h-.52s.17-.87.17-.87l-1.48.37-.43-.36c.08.5-.39.3-.7.43-.44.18-.87.78-1.05-.08h-.17c.15.65-1.12.09-1.22.17l.17.52c-.96.08-.69-.17-1.04-.43-.08-.06-.58.02-.8,0-.19-.02-.43-.25-.52-.25-.17.01-.4.99-1.12.5l-.19,2.08-.53.1c-.1.57.08,2.67-.03,2.93-.08.2-.28.27-.48.28v.17c1.03.25-.03.76-.09.86-.15.25-.08,1.35-.09,1.65,0,.11-.33.08-.36.21-.08.37.28.97.11,1.64-.14.55-.76,1.13-.79,1.82l.69.26c-.44-.05-.18.19-.42.52-.08.11-.36.1-.5.39-.17.36-.43,1.09.06,1.08v.35c-.68.21-.29.63-.4,1-.12.4-.69.95-.91,1.36-.09.17.08.42.05.48-.1.17-1.12.72-1.42.56-.18-.04-.3-.61-.3-.8,0-1.56.36-2.15.63-3.47.09-.41-.24-1.15-.19-1.57.03-.27.47-.78.52-1.11s-.2-.55-.19-.8c.03-.79.67-2.73.73-3.65.03-.41-.62-1.21-.04-2.13.11-.17.47.23-.04-.62.76-.82.32-.71.24-1.48-.07-.72.61-2.53.95-3.24l-.35-.16c.19-.24.38-.95.31-1.23-.02-.1-.26-.08-.28-.17-.06-.25.51-1.02.32-1.71-.04-.14-.36-.1-.35-.2.03-.19.5-.72.6-.97.27-.72.58-1.85.29-2.57l.5-.28c-.53-.46-.6-2.54.35-2.35l-.16-.44c.55-.09.1-1.24.21-1.57.07-.21.36-.19.44-.29.06-.08-.19-.71.2-.92l-.69-.43c.55.02.12-.72.87-.53l-.35-.52.69-.18c-.68-.63.17-.97-.1-1.75l.62-.25-.69-.43c.53.08.16-.29.34-.57.55-.89,1.54-3.05,1.85-4.12.11-.38-.13-.94-.07-1.13.04-.12.63-.27.34-.92l.32-.03-.35-.26c.57-.26.78-.9,1.23-1.22.29-.21.56-.1.64-.15.42-.27.18-.84,1.08-.45v-.7c.07-.08.58.12.66.23ZM273.4,27.31l-.78-.35c-.33.28-.27.71-.43,1.09-.04.1-.29.08-.34.24-.45,1.52.12,2.2-.79,3.78-.31.54.04.73-.02,1.1-.06.39-.37.38-.38.47-.02.18.18.83.13,1.02-.05.18-.39.15-.48.4-.15.42-.51,1.73-.64,2.24-.16.61.33,1.3-.26,1.82h.52s-.17.87-.17.87h-.7s.09.35.09.35l.44-.17c.35.73-.68,1.29-.79,1.72-.13.49-.05,2.06-.1,2.19-.06.15-.34.12-.45.37-.06.14-.03.87.23.93l1.46-.53-.17-.33c.34-.26.71.13.78.12.18-.01.26-.38.69-.41.54-.03,1.45.62,2.08.42.3-.09.21-.86,1.13-.33l.19-.33c-.19.48.84.3,1,.13l.22-1.35h-.7s.34-5.11.34-5.11l-.26-.26-.6.16c-.15-.63.52-.9.53-.99.03-.13-.17-2.32-.25-2.43-.04-.05-.2-.06-.28-.06-.08-.29.26-.12.32-.19.33-.47-.37-.59-.46-.71-.04-.04.14-.87.11-.93-.04-.1-.32-.08-.33-.18-.06-.48.67-.72.18-1.53-.06-.11-.32-.09-.35-.24-.05-.26.1-.72.16-1.01-.62-.19-.94-.54-.37-1.22l-.32-.35-.51.1.34-.52Z"/><path d="M189.21,23.32c.05.06,0,.34.12.5.11.14.39.15.43.31.13.58-.13,1.2.35,1.99.14.23.61.42.69.76.02.1-.3.05-.34.19-.21.77.35,1.24.36,1.36.02.36-.17.72-.14,1.03.07.79.88,1.4.92,1.96.04.59-.51,1.26.41,1.11-.29.93.09,1.25.5,2.03l-.5.41.37.96c-.66.5.12,1.48.33,1.93.27.58.17,1-.17,1.54l.34.25-.36.1c.64,1.22.67,1.76.53,3.11-.06.54-.49,1.65-.51,1.93,0,.08.29.06.32.16.02.08-.2,1.49-.49,1.39l.51.28-.14.42.33.08-.52.52.69-.09c-.24.91-.99,1.79-.82,2.76.04.25.41.45.41.72,0,.33-.92,1.79-.98,2.46s.35,1.04.33,1.17c-.05.31-.65.38-.69.58-.16.81.54,1.24.53,1.36-.95.5-.46.54-.51,1.21-.07,1.2.26,2.44-.53,3.3l.35.17v.35c-1.31.41-.88,1.48-1.14,2.44-.18.7-.74,1.61-1.31,2.06-.1.08-.4-.07-.52.2l.34.61c-1.23-.22-1.31.95-2.52.17l-.34.37c-.97-.08-1.58-.45-2.46-.69l-.16.33c-.53-.27-.8-.6-.79-1.22l-.43.18.08-.35-.52.17c.04-.37-.31-1.73-.55-1.9-.09-.06-.52.29-.67-.11l.17-.85c-.77-.16-.54-1.56-.61-1.67-.48-.69-.16-.34-.3-.66-.01-.03-.29-.02-.32-.14-.07-.31.13-.62.12-.87-.04-.83-.19-1.65-.11-2.49h-.7s.16-.44.16-.44l-.34-.18.36-1.63-.69.17c0-.81.23-1.03.87-1.48.08-.58-.62.05-.87-.09v-.87s.87,0,.87,0c-.13-.43-.32-.87-.44-1.3-.17-.61-.16-.44-.3-.82-.11-.31.05-2.93.16-3.4.13-.54.58-1.16.57-1.7-.01-.32-.48-.65-.15-1.12l-.52-.09.69-1.05-.35-.26c.45.13.66-1.6.66-1.87,0-.37-.5-.49-.49-.83l.1-.27c.5-.16.49-.36.43-.86l-.52.17.18-.77-.36-.27c.53.08.16-.33.33-.58.13-.19.5,0,.36-.47h-.52c-.21-.44.34-.28.36-.46s-.17-.4-.09-.59c.12-.31.91-.78.81-1.53l.49-.03c-.57-.51-.5-.94-.31-1.65.02-.07.54-1.14.62-1.26.29-.42.66-.3.56-.74l-.35-.17c.47-.05,1.22-.67,1.21-1.13,0-.23-.28-.37-.27-.62.03-.45.92-.44.65-1,1.85-.22.59-.78,1.35-1.67l.51.08.36-.78-.35-.17c.23-.82.58-.63.83-.82.19-.15.03-.5.11-.62.73-1.21,2.24-.9,3.39-.66.17.04.48-.13.52-.07ZM187.47,30.42c.13-.2-.97-1.38-.76-1.89-.22.09-.46.84-.41.96s.34.04.32.17c-.07.53-.78.57-.89.73-.18.25.08.81-.33,1.02l.35.34c-.22.26-.84.49-.96.79-.06.16.01,1.25-.17,1.56-.15.26-.51.28-.57.39-.17.29-.18,1.57-.74,1.96.48.05.29.81.08,1.12-.08.12-.34.15-.39.21-.08.11.04,2.26-.03,2.63-.03.12-.43.6-.47,1.43-.03.65-.08.65.64.77-.1.26-.61.35-.52.77.05.21,1.18.35-.18.97.69.78.11,1.05.03,1.51-.02.13.43.88-.03,1.44l.7.18c-.18.5-.21.94-.87.87v.17c.96.1.19,1.38.21,1.8.04.58.74,1.42-.22,1.77.68.16.21.63.25,1.05.02.18.33.32.27.42-.03.05-.69.26-.69.7l.52-.17c-.09.85-.22,1.64.12,2.43.05.11.31.12.37.26.17.43-.13,1.36-.11,1.75.01.33.33.84.39,1.21s-.08,1.38-.04,1.45c.21.35.65.76.92,1.41.04.11-.08.33-.06.35.18.14.95-.04.86.53.56-.41.93-.99,1.74-.87l-.36-.93c.14-.15.82-.63.84-.72.05-.26-.06-1.2-.49-1.21.46-.29.16-1.18.38-1.44.28-.33.78.17.61-.95-.03-.17-.28-.33-.27-.54.02-.29.4-.53.49-.73.21-.45-.76.02-.69-.43.48-.09.6-.93,1.06-1.31v-.32c-.87-.3.09-1.39.14-1.61.02-.08-.26-1.34-.26-1.54,0-.25.23-.38.28-.53.02-.05-.55-.01-.35-.87.11-.47.56-.39.53-.52-.25.13-.49-.92-.49-1.01.02-.35.81-1.18.66-1.33l-.87.09c.63-.15-.07-.94.87-.79.06-.04-.29-.74-.29-.78.02-.18.35-.32.28-.43-.01-.02-.25.04-.31-.08-.12-.25.25-.8.27-1.02.12-1.45.05-2.9-.42-3.81-.05-.1.24-.27-.22-.38l.5-1.76-.32-.31c.58-.81.12-.56.06-.67-.15-.32-.29-.87-.07-1.17-1.12,0-.76-.99-.18-1.56h-.7s.17-.87.17-.87l-.34.18c-.07-.64-.46-1.2.35-1.48l-.67-.52c-.1-.62.45-.75.48-.8Z"/><path d="M15.39,20.99c1,.73,3.34,1,3.68,1.26.36.29.68,1.16,1,1.53.13.14.43.12.53.21.5.43.24.9.31,1.28.06.3.58.89.58,1.32,0,.65-.69,1.23-1.04,1.75-.19-.52-1.07-.38-1.14-.43-.25-.18-.22-.8-.36-.93-.02-.02-.39.11-.57,0-.15-.11-.08-.37-.17-.47-.26-.28-1.23-1.08-1.5-1.21-.11-.05-2.07-.25-2.34-.26-1.47-.02-1.2.74-1.51.84-.15.05-.7-.3-.85.55-1.59-1.07-1.15.49-1.47,1.05-.22.39-.79.17-1.05.33-.32.21-1.13,1.71-1.14,2.16l.36.28-1.21.36-.37,2.24-.68.02c.68.66-.24,1.19-.55,1.79-.18.34-1,2.34-.84,2.55l.51.07c-.4.55.06,1.66-.86,1.5.18.79.08,1.89-.18,2.65-.07.2-.49.04-.34.47l.69.18c-.32.46-.72.67-.7,1.3l.35-.09c-.1.26,0,.55-.03.79-.04.35-.43,1.47-.43,1.56,0,.25.52,1.06.44,1.38-.03.1-1.03.65-.15.79l-.35.26c-.13.41.58.1.17.61h.53s-.52,1.83-.52,1.83c.26.42.49.13.86.09-.09.66-.57,1.73-.31,2.35.07.17.78.35.49,1.13h.7s-.52,1.47-.52,1.47l.7-.09c.36.48-.22,1.21-.16,1.38.03.09,1.21.83,1.4,1.3.28.68-.49.93,1.02.97v1.04s.32-.13.32-.13l.11.3.43-.52c.06.55.47.82.18,1.39l.85-.16c.07,1,1.33,1.38,2.16,1.21.11-.02.07-.66,1.04-.17.2.1.06.34.21.34.27-.8,1-.3,1.65-.53l-.18-.34c.9.39.72-.01,1.01-.16.47-.23.9-.38,1.42-.45.37-1.68,2.32.1,2.44-1.48l.68.6-.34.69c.94.21.23,1.61.35,2.07.02.06.88.53-.35.63.35.9-.85.53-1.05.61-.29.11-.19.57-.4.79-.57.59-2.42.6-3.24,1.04l.17.52c-1-.49-1.84-.01-2.78-.52l-.26.69c-.48-.19-.37-.29-.53-.7-.7.32-1.49-.12-1.94-.13-.23,0-.4.27-.49.27-.13,0-.49-.51-.72-.64-.26-.15-.54-.01-.55-.04-.05-.06-.65-1.42-.75-1.5-.15-.12-1.4-.45-1.83-.95-.03-.04.05-.26-.04-.4-.49-.71-.46-.85-1.41-.68-.28-.28-.21-.9-.43-1.15-.16-.19-.5-.11-.63-.28-.17-.23.17-.73-.24-.93l-.43.34c.05-.61-.21-1.17-.31-1.69-.07-.37.36-.49-.21-.67l.17-.5-.25-.24-.79.15.32-.19c-.36-.52.17-.78.19-1.11.02-.25-.21-.53-.26-.79-.07-.36-.21-1.23-.43-1.6-.14-.23-.44-.25-.51-.4l.36-.18c-.32-.94-.42-1.9-.18-2.86l-.87.35v-.86s.65-.25.65-.25c-.11-.53-.31-.98-.65-1.25-.11-.63.41-.85.54-1.18.17-.43.12-1.96-.38-2.1l.52-.52c-1.1-.52-.07-.84,0-1.08.09-.29-.08-.75.17-1.09-1.4.03.26-1.47-.16-2.43h.5c-.01-.27-.21-1.28-.17-1.46.02-.07.6-.36.17-1.06l.52-.09-.69-.61.87-2-.52-.17c.42.05.17-.17.44-.5.17-.2.67-.38.77-.81-.5-.11-.19-.48-.33-.92l1.12-.55c.21-.36-.21-.89-.2-1.12.02-.45,1.16-1.13,1.36-1.61l.3.12c.03-.21.15-.4.17-.62.02-.24-.06-.7.06-.9.09-.14.58.2-.05-.55.49-.13.68-.52,1.22-.18v-.7c.94.19.6-.28.92-.64.25-.28,1.01-.29.69-.65l.48-.09-.35-.17.36-.87c.95.44,1.38-.64,2.18-.86l-.1-.52c.7-.33.86-.1,1.38.34-.06-.62.81-.27,1.3-.35.33-.06.51-.34.78-.43.45-.15,1.23,0,1.22-.6h.17c-.01.09,0,.23.07.28Z"/><path d="M74.74,23.03c.07.03,0,.32.49.3.86-.02.77-.7,1.57.28l.96-.3-.17.69c.26-.3,1.64.99,1.69,1.08.06.12-.25.9.05,1.18-1.05.02-2.18.26-3.22.28-.68.01-1.89-.7-1.65.59l-1.05-.1c-.07.76-.6.61-.87.88s0,.77-.69.61l.35.52c-.59.16-.85.6-1.2.97-.14.15-.44.2-.51.28-.04.06.1.77-.03,1.05s-.52.15-.72.43c-.12.16-.1.97-.21,1.3-.35,1.08-.72,2.1-.99,3.19l.35.17-.87.87.35.17-.52,1.13.52.09c-.11.79-.58.54-.72.72-.1.14.04.7-.33.85.4.15.41.24.36.69-.07.59-.58,1.78-.66,2.4-.07.55-.12,1.72.65,1.51.15.48-.65.6-.7.82-.22.87.75,1.54-.11,2.4.63.81.27.37.19,1.04-.15,1.25.23,1.44.33,2.2.16,1.2-.4,2.53.32,3.61l.32-.15-.23,1.35.58.22-.13.25c.51.16.26,1.2.33,1.39.02.06.44.26.57.62.11.29.07.83.1.86.05.05.43-.06.65.05.03.02.53.53.54.57.03.09-.19.46-.07.62.11.13.37.03.44.1.4.36.93,1.36,1.47.41.44.45.92.33,1.4,0l.43.35-.09-.35c.97.65.99-1.03,1.21-1.03,1.09.2,1.47.72,2.31,1.31l.35,2.23c-.68.57-1.99.98-1.88,2.02-.94-.19-1.91-.06-2.87-.07-.12,0-.26.18-.44.16-.5-.06-1.42-.58-2.03-.58-.29,0-.49.37-.57.31-.02-.01-.02-.3-.17-.42-.12-.1-.5.05-.71-.18-.16-.18-.13-.52-.21-.58-.12-.1-.46,0-.67-.12-.06-.03-.12-.64-.77-.97-.25-.13-.49.01-.61-.07-.26-.2-.38-1.06-.57-1.26-.14-.15-1.45-.75-1.17-1.09l.35-.17c-.48-.02-.68-.83-.89-1.25-.25-.5-.72-.67-.14-1.45l-.3-.12.13-.31h-.51c-.09-.64-.02-1.76-.19-2.31-.06-.18-.62-.46-.7-1.26s.35-.58.36-.72c.08-.69-.53-1.77.17-2.5l-.53-.09c-.12-.72.58-.65.53-1.48h-.52c-.03-.35.27-.44.34-.79.04-.22.2-2.64.15-2.77-.11-.25-.62-.19-.39-1.16.08-.36.39-.28.42-.44.09-.44-.12-1.61,0-2.14l-.52-.08.86-1.74-.52-.34c.2-.33.81-.97.69-1.37-.04-.13-.35-.12-.34-.19.03-.44.96-1.29.87-1.94l-.35-.41.36-.11c-.63-.93.7-1.94.79-2.31.13-.57-.34-.99.41-1.06v-.34s-.69-.35-.69-.35c.38.06.38-.21.35-.53l.52.18v-.58c1.01-.41-.65-.58.31-.84l-.13-.31,1.04-.44-.34-.52,1.05-.55c.36-.46-.29-.73-.02-1.15.18-.27.95-.92,1.24-1.26.12-.14-.03-.32.1-.44.33-.3.84-.36,1.26-.36-.12-1.16,1.27-.9,2.1-1.11.68-.18.86-.72,1.39-.43v-.52c.26.13.54.14.81.24Z"/><path d="M55.84,25.05l.35-.18-.16,2.33.26.27.6-.16c-.29.32-.16,1.05-.69,1.04l.7.17-.15.76-.54.45.87-.17c.12.98-.72.92-.87,1.04-.03.02.22.46.25.67.04.27-.1,1.02-.07,1.06.01.02.39-.23.52.09-.4.65-1.28,1.97.17,1.48-.01.34-.18.64-.25.96-.07.28-.17,1.14-.32,1.43-.03.05-.29.04-.3.15-.07.47.61,1.07.18,1.63l.69-.17c.07.09-.09.92-.18,1.08-.15.27-.54.14-.54.74,0,.47.48.89.19,1.48l.7.09c0,.15-.26.06-.35.21-.29.47-.62,1.7,0,1.88l-.52.35c.75.29.52,1.71.17,2.34l.87.09-.32.11.07.51-.63.17c-.12.47.57.51.69.78.29.66-.73.13-.61,1.05.06.5.88.82.1,1.38l.33.16c-.41.62.09,1.29.03,1.93-.01.13-.47.5-.37.95h.53c-.42.51.06,1.23-.03,1.65-.11.59-.86,1.11.2,1.22l-.32.11.11.4c-.86.35-.57,1.79.21,1.49v.35c-.64.01-.72,1.35.18.87.2.18-1.56,2.45,0,1.91l-.52,1.39.87-.17c-.33.39-.22,1.83-.26,1.92-.12.28-.6.29-.79.43-.17.13,0,.36-.03.4-.11.12-.6.14-.75.37-.14.24.65,1.35-1.07.39-.13-.07-1.03-.7-1.06-.76s.14-.32.07-.5c-.22-.55-.76-.8-.27-1.56l-.7-.27c-.02-.35.44-.64.49-.9.11-.61-1.08-.84-.31-1.44-.89-.1-.13-1.59-.04-2.22.05-.35.21-1.27.21-1.49,0-.5-.14-1.46-.69-1.59l.32-.1-.11-.4c.74-.43.7-.91-.2-.99l.34-.95-.3-.12.12-.31h-.52s.16-.62.16-.62l-.34-.16s.31-.58.35-.65c.15-.24.31-.13.52-.14.03-.47-.85.04-.69-.43.12-.34.58-.63.66-.91.23-.79.18-1.89-.31-2.58l.34-.25h-.52c-.04-.76,1.24-1.4,0-1.74l.53-1.29c-1.07-.51-.2-.97-.2-1.04-.02-.41-.35-1.04-.35-1.58,0-.74.1-1.04.08-1.91-.01-.4.38-1.31.25-1.73-.08-.26-.73-.17-.48-1.03.04-.14.35-.12.35-.22.02-.33-.48-.94-.47-1.21,0-.29.5-.57.38-1.11-.13-.59-.78-.55.08-1.32l-.35-.17.53-1.21-.88-.27c-.03-.5.52-.73.6-.86.11-.19-.26-.69.45-.71,0-.47-.82-1.06-.85-1.13-.18-.44.98-2.36.66-3.03l-.5-.1c.04-.34.65-.6.67-.64.08-.14-.22-.43-.08-.66.04-.06,1.03-.77,1.14-.8,1.02-.33,1.84,1.32,1.74,2.19Z"/></g></svg>