<?xml version="1.0" encoding="UTF-8"?>
<svg id="Layer_6" data-name="Layer 6" xmlns="http://www.w3.org/2000/svg" viewBox="0 0 892.48 644.84">
  <path d="M330.39,238.42c10.58,8.59,25.42,24.52,31.49,36.89,2.18,4.44,2.6,9.66,4.13,13.74,1.68,4.42,7.63,10.95,9.37,15.43,6.29,16.37,5.2,34.46,9.73,50.41,1.47,5.18,6.36,14.27,8.81,19.49,6.95,14.71,15.54,27.49,17.29,44.41,10.03,8.74,22.57,13.68,34.11,20.11,9.66-2.86,19.05-4.02,29.13-3.5,3.19.17,7.6,1.77,10.62,1.75,5.18-.04,10.99-2.43,16.83-1.79,6.64.74,17.83,9.61,25.74,10.55,16.96,2.01,35.2.85,50.68-6.64,6.73-3.24,12.61-8.76,18.79-12.19,8.39-4.66,17.61-3.47,23.29-12.98,3.83-6.43.87-11.14,8.44-18.09,4.44-4.07,8.2-5.64,14.2-6.62-2.32,4.15.57,9.07-.15,12.61-.63,3.04-3.65,3.28-4.15,4.78-1.22,3.72-1.12,12.32-2.32,17.13-1.71,6.88-5.72,14.75-10.51,20-2.86,3.13-7.74,4.46-8.55,10.05l-3.5-1.77c-.68,4.11-3.54,5.55-5.79,7.91-6.95,7.34-14.69,15.89-22.51,22.62-2.42,2.06-6.16,3.61-8.59,6.01-.35.35-2.27,2.91.13,2.34l6.64-2.64c-1.25,6.18-8.61,7.65-12.59,10.66-3.6,2.73-6.75,7.32-11.01,10.42-14.88,10.84-24.69,12.91-40.75,19.41-2.77,1.12-3.41,3.21-4.5,3.71-1.62.74-5.6.98-7.82,1.66-32.12,10.03-55.16,23.89-91.61,22.05-5.81-.29-14.79-.88-19.16-2.36-4.96-1.7-10.8-3.21-15.03-4.42-5.57-1.6-6.03-.55-10.32-.96-2.18-.2-3.37-2.23-5.42-2.62-3.43-.66-7.04.83-9.59.57-1.7-.17-4.02-2.1-6.42-2.36-5.94-.63-13.83.5-20.04-2.01-2.08-.85-1.88-2.62-3.06-3.41-2.1-1.4-4.81.39-6.64-.15-9.73-2.86-23.17-13.72-30.83-20.54-1.57-1.4-4.2-5.6-5.66-6.69s-3.95-1.18-4.94-2.21c-.83-.85-.63-2.54-1.05-2.91-.94-.79-5.22.26-5.14-3.72l-3.08,1.59c-2.73-.85-1.12-3.52-1.46-4.06-1.11-1.83-6.51-1.83-6.84-2.1-.28-.24.17-1.64-.66-2.56-1.01-1.09-4.89-2.42-6.25-3.74-1.01-.98-4.06-6.6-4.94-7.45-1.14-1.12-4.28.06-3.3-4.68h-3.12c1.25-4.33-4.33-6.29-5.14-8.15-1.84-4.33,1.07-10.07,2.14-14.33l-1.77-1.73c1.38-5.48,8.61-5.75,6.49-12.08,1.25-1.44,4.61-1.09,5.62-1.95.83-.7,1.22-4.06,3.8-4.83.55-2.18-2.27-7.39-3.32-9.79-5.53-12.52-11.25-24.1-16.26-37.56-3.32-8.87-6.25-19.86-9.9-30.07-2.42-6.73-2.49-9.79-4.17-15.98-.24-.85-2.29-1.01-3.13-3.24-2.36-6.19-.53-10.75-1.31-15.45-.48-2.91-2.62-7.01-3.13-10.82-3.56-25.96,4.92-57.1,24.85-73.71,3.71-3.08,4.81-3.65,9.29-1.75l-10.08,8.92c-7.25,14.6-19.8,32.14-19.17,49.02.06,1.36,1.16,13.85,3.58,11.03,1.22-7.45,2.73-15.49,5.27-22.6,3.83-10.75,8.78-16.28,17.37-23.36,2.08-1.71.92-3.87,6.56-2.69,1.03,11.56-3.74,23.43-2.56,34.85,1,9.73,6.34,20.34,9.38,29.54,1.11,3.36.41,8.57,3.8,10.79.85-2.08-1.29-3.8-1.46-5.01-3.02-23.3-5.97-47.88,2.64-70.32.52-1.35.63-2.84.61-4.26,2.62-.15,5.07.55,7.15,2.16,6.36,4.96,21.57,34.13,25.39,42.7,5.42,12.19,7.54,24.71,12.08,36.95.24.66-1.14,2.05,1.4,1.31l.74-19.93-1.14-3.5c-.53-17.9-4.98-33.19-10.66-49.98-1.64-4.83-.88-11.3-6.64-13.7,5.14-5.73,9.05-1.35,14.18-.04,13.07,3.34,23.93,7.84,36.03,13.2l12.17,10.25c1.2.09,1.07-1.01.42-2.16-.74-1.31-1.86-3.36-2.64-4.46-7.14-10.1-23.51-20.82-33.81-27.27-3.37-2.1-6.67-6.49-11.32-5.92l1.01-4.3c3.41-2.14,20.13,6.27,23.51,9.02l.02.11ZM311.01,256.01c-1.18-.55-2.56.68-3.67.46-.85-.17-8.43-3.65-8.54-1.94,1.88,10.77,8.78,19.78,11.23,30.25,2.91,12.43,3.72,31.03,2.97,44.06-.24,4.02-.63,11.82-1.4,15.36-.22,1.05-.07,1.62-1.29,2.34-2.25,1.12-3.54-2.19-4.33-3.69-3.71-6.9-4.61-16.78-7.61-24.23-6.67-16.5-18.14-38.09-28.25-52.23-.98-1.38-1.83-4.44-3.21-6.12l-1.75.42c1.01,3.5-1.2,6.08-1.68,8.92-1.25,7.34-2.12,17.26-2.23,24.69-.2,12.52,3.04,25.44,4,36.17.29,3.34,3.36,17.53,2.19,19.17l-3.89.66c-1.14-3.12-3.93-5.51-5.2-8.5-3.58-8.35-12.54-36.58-14.03-45.24-1.83-10.62,1.29-23.05,2.25-33.67-5.64,8.48-15.58,14.8-15.47,26.09-3.74,9.22-8.89,28.02-6.58,37.81.17.72,1.57.61,1.71,1.27,2.4,10.8,5.64,20.94,8.61,31.9.7,2.58.79,7.84,1.55,9.94.96,2.67,4.63,5.09,5.29,8.89,1.88,10.79,7.04,21.2,11.04,32.28,1.84,5.09,2.8,10.44,4.92,15.41.61,1.44,2.6,5.24,3.5,6.31,1.33,1.53,3.24.98,3.58,1.6.79,1.49.57,4.11,1.68,6.38.68,1.4,2.32,1.88,2.34,2.21.09,1.51-1.36,2.65-.52,4.7,3.8,9.11,16.72,21.28,24.15,27.49,1.38,1.16,4.59,2.08,5.31,2.86,1.16,1.25.81,4.41,3.28,6.05,1.24.81,3.58-.18,5.73,2.19.9,1.01.98,2.51,1.88,3.43,7.34,7.52,16.19,9.27,25.87,12.19,2.99.9,9.88,5.94,13.64,6.86,7.02,1.71,9.11,5.31,13.72,6.56,7.12,1.92,15.39,4.57,23.36,6.64,10.05,2.62,16.59,2.43,26.68,2.47,6.55.04,15.14-.06,21.94-.11,2.65,0,12.76.72,13.99.41.81-.2.52-1.71.59-1.77.5-.33,1.25,1.29,2.14,1.36,9.13.66,17.57-2.38,26.11-3.65,18.95-2.78,38.09-5.16,56.14-11.98,31.27-11.84,50.18-35.32,74.95-55.11,9.05-7.23,20.13-15.03,24.93-26.38,2.19-5.24,1.68-14.18,3.93-19.95.94-2.42,2.91-3.76,3.45-5.9.18-.77-.09-9.57-.96-9.29-3.87,2.45-8.26,5.6-11.04,9.31-3.8,5.05-3.56,11.26-7.25,16.63-6.47,9.38-16.67,10.14-25.26,15.43-3.93,2.42-6.71,6.49-10.58,8.87-15.1,9.29-44.36,12.28-61.54,7.87-11.89-3.04-16.43-10.56-30.99-9.24-13.11,1.2-25.24-1.46-38.09.85-7.14,1.27-6.97,4.65-15.28.72-4.79-2.25-14.55-8.02-19.17-10.91-2.14-1.35-3.34-4.52-6.32-4.94-3.58,3.52-8.61,4.94-12.76,7.58-1.42.9-11.01,7.93-11.45,8.5-1.05,1.33-2.23,5.57-3.34,7.72-.66,1.25-1.79,3.93-3.1,4.41.22-2.89-.48-6.29.17-9.11.94-4.07,6.07-11.41,9.33-13.92,2.18-1.68,16.13-8.41,16.22-9.33-3.47-4.24-3.48-9.85-5.42-14.92-3.19-8.35-8.59-14.77-11.39-22.22-3.19-8.48-5.99-14.2-9.53-22.31-8.13-18.6-4.42-36.06-11.32-55.02-3.48-9.57-14.07-26.09-22.07-31.91-1.25-.9-2.6-.79-4.02-.85-.31-1.25.42-3.24-.18-4.26-.42-.72-13.61-4.98-15.78-5.9-6.23-2.62-12.78-6.75-17.88-9.11l.02-.02Z"/>
  <path d="M297.92,231.07c-1.05,1.12-19.41-.53-22.03-1.42-12.26-4.07-11.73-20.65-14.25-31.31,6.45,4.76,4.33,22.77,10.14,26.62,2.8,1.86,5.81-1.6,8.04-1.83,1.79-.18,9.46.52,11.23,1.09,2.84.94,6.86,3.45,6.88,6.82v.02Z"/>
  <path d="M260.75,196.57c-5.94-1.14-11.06.87-16.81,1.79,3.32,9.44,4.39,19.65,6.27,29.54.37,1.97,3.85,6.31-.39,7.47-4.28-.83-3.43-8.06-4.35-11.58-.46-1.75-1.62-3.26-1.99-5.09-1.51-7.26-1.12-14.4-3.13-21.55.41-1.68,19.41-6.19,20.41-.59v.02Z"/>
</svg>