<?xml version="1.0" encoding="UTF-8"?><svg id="Layer_2" xmlns="http://www.w3.org/2000/svg" viewBox="0 0 289.48 107.99"><g id="chirashi_don"><path d="M255.71,20.1s.06.23.17.26c.43.15.89-.06,1.08.4-.04.1-.17.22-.18.32-.08,1.3-.66,4.61-.4,5.6.03.12.75.17-.31.81l.48.5-.18.9.31.16c-.18.41-.07.66-.61.56-.07.28.27.1.31.16.03.04-.53.7-.16,1.02l-.46.08c-.12.51.31.22.46.32.13.49-.3.68-.31.72-.09.39.23,1.27-.15,1.77h.47c-.11.21-.05.48-.15.68-.07.14-.44.04-.32.34.09.22.3.16.47.08.04.07-.24,1.36-.3,1.47-.1.19-.41.06-.46.11-.2.2.38,1.09-.17,1.32.12.06.58.59.59.63.12.45-.83,1.19-.59,1.79l.47-.16-.03.76-.44.03.29.23-.29,1.57.47.17-.17.91.33.17c-.41.57-.32,1.14-.38,1.8-.03.37-.33.81-.08,1.29.09.17.4.03.31.35l-.47.39h.63c-.19.33-.12.75-.27,1.06-.17.36-.64.25-.51.73.79.33-.12,1.74.3,2.34.17.24.72-.19.3.85l-.44.03c.15.32.21.67.17,1.02-.04.32-.43.14-.34.62.09.45.54.22.49.79-.03.29-.28.21-.31.33-.08.28.13,1.07.07,1.39-.14.75-.99,1.28-.09,1.8l-.47.08c.96.46-.3.71-.32.8l.13,1.75-1.21,1.83c-.49.22-.99-.02-1.48-.07-.14-.01-.34.14-.47.14-.1,0-.09-.24-.2-.31-.22-.15-.47-.13-.66-.42-.18-.27.05-1.14-.4-1.63h-.55s-.01-1.16-.01-1.16l-.31-.17-.46.25c.45-1.2-.65-2-.55-3.14-1.3-.46.13-1.63-1.17-1.72.02-.39-.02-1.29-.13-1.65-.08-.28-.48-.16-.19-.53h-.47c.3-.9.1-2.44-1.1-2.35l.31-1.25-.47-.09.16-1.48-.44-.02c-.08-.44,0-.82-.48-.99l.14-.56-.46.31c-.41-.47-.17-.69-.24-1.17-.05-.36-.08-1.17-.1-1.25-.04-.17-.56-.12-.52-1.11.05-1.26-.14-1.14-.37-2.23-.09-.46-.05-.71-.22-1.35-.24-.92-.06-.8-.04-1.58,0-.31-1.17-3.38-1.34-3.71-.11-.21-.62-.02-.03-.67l-.59-.55c-.17.24.07,1.75.31,1.56.03-.02-.07-.53.16-.23.06.42-.39.91-.4,1.25-.01.26.21.59.19.79-.05.36-.19.01-.17.92s-.28,1.87.23,2.67l-.08.24c-.89.21-.03,1.13-.12,1.62-.11.58-.96.96-.13,2.06-.38.2-.88,1.59-.15,1.63v.15c-.69.06-.97,1.92-.71,2.36l.55.07-.07.7-.56.23.62.08c-.08.36-.02.84-.07,1.17-.12.77-.31.84-.5,1.24-.25.51.04,1.32.04,1.58,0,.11-.22.29-.25.48-.12.75.49.56.49.93,0,.43-.38.63-.45.97-.03.16-.22,2.63-.18,2.76s.33.05.32.33c-.02.49-.4.73-.17,1.54.04.13.3.11.31.21.07.5-.59,1.27-.32,1.67.63.14-.07.73.02,1.12.06.26.62.13.45.55-.32-.01-.33.34-.6.41-.35.09-.76,0-1.02.09-.23.08-.21.44-.34.46-.08,0-1.36-.44-1.35-.59l-.28.11c-.1-.28.17-.66.16-.85,0-.09-.25-.08-.27-.13-.03-.07.1-.2.07-.24-.05-.08-.29-.08-.39-.26-.07-.14.16-.48.17-.63.04-.67-.11-1.35.11-2.01l-.48-.34c.35-.11.46-1.15.47-1.56.02-.52.1-.6-.47-.56-.13-.47.65-1.05.29-1.37-.03-.02-.28.14-.37-.01-.48-.8.08-.88.38-1.4.42-.73.41-.75-.3-1.2l.78-1.33c-.58.01-.5-.69-.36-1.06.07-.19.29-.16.35-.3.18-.48-.95-1.04-.14-1.38-.41-.33-.44-1.71.31-1.49-.68-1.09.85-2.88-.47-3.6l.79-1.17-.45-.9.76-.82-.62.08c.05-.72-.45-2.22.62-2.2.18-.34-.24-.7-.25-.86-.01-.24.66-.74.24-1.31l-.61-.02c-.07-.44.47-.83.47-.88.02-.18-.15-.39-.12-.58.05-.26.4-.45.27-.94-.03-.12-.32-.09-.32-.18,0-.2.22-.34.26-.54.12-.74-.06-1.35-.02-1.97.02-.48.59-.37-.22-.77.26-.29.36-1.04.32-1.41-.03-.31-.26-.21-.3-.31-.11-.3.36-.62.41-.82.08-.32-.19-1.17.19-1.61l-.47.15c-.03-.71.33-1.23.25-1.95-.07-.64,0-.51-.57-.48.42-.75.52-2.2,1.17-2.74.41-.34,1-.28,1.1-1.1.55-.03.5.45.72.69.2.22,1.34,1.18,1.36,1.28.03.11-.16.48-.13.6.04.16.37.14.45.36.14.4-.11.83-.07,1.08.03.23.41.35.48.53.06.15-.11.52-.04.83.16.74.6,1.42.76,2.16l.47-.16c.11.71-.23.99.16,1.72l.31-.16c.13.32-.05.89.14,1.15.11.15.36.1.49.19.05.04.36.72.15.85h.47s-.16.47-.16.47l.31-.16c-.12.55.2.94-.47,1.17l.46.78.48.08-.16,1.33.31-.08c0,.57-.28,1.64.21,1.99.12.09.35.01.41.05.06.03-.24,1.14-.24,1.32,0,.07.17,1.38.19,1.45.16.49.16.52.66.35l.16.68-.46.33.61.41c-.06.22-.19.42-.15.66,0,.03.48.48.48.51.02.22-.19.46-.14.73.05.24.48.5.36.9h.55s-.31,2.03-.31,2.03l.47-.31c.31.65.19,1.37.36,2.07.21.84.82,1.68,1.01,2.43s-.17,1.97.97,2.32l-.15.69h.63c-.26.55-.08.85.13,1.35.13.32.39.09.26.69.4-.41.29-1.17.09-1.65l.3-.14-.47-.79c-.03-.12.39-.03.47-.47.09-.5-.42-.95-.3-1.55.1-.48.88-1.4.14-1.57.95-.53-.22-.16-.3-.48l.31-.93-.32-.31c.05-.37.56-.5.42-1.23-.09-.46-.5-.37-.37-.94l.59-.33-.26-.41-.68.09.47-.31-.31-.16c.35-.36.57-1.27.59-1.76.02-.64-.69-1.49.19-1.61l-.62-.48c.58-.8-.17-1.87.62-2.41-.9-.35.1-1.28.08-2.03-.03-.84-.79-.84-.4-1.53,1.6-2.79.36-5.36.87-8.17.06-.32.5-.76.39-1.33l-.63-.16c.43.09.31-.76.39-1.1.06-.23.27-.44.31-.7.18-1.02-.48-2.18.62-2.92.18-.12.37.03.38,0,.22-.34-.23-1.17.78-.85.16.05.58.2.75.26Z"/><path d="M188.4,21.36c.06.04.05.18.05.26.52-.55.59-.08.98-.04.25.03.62-.11.85,0,.2.09.17.33.3.36.23.05.92.02.91-.31.25.67.46.31.7.41.28.12.76.45,1.02.46.38.02.61-.98,1.25.22l.31-.31c.34.23.42.53.4.93h.52s.17-.31.17-.31c.71.61,1.29,1.03,2.2,1.41l.31-.47c.47.3.67.51.71,1.1l.47-.16v.47s.63-.09.63-.09l.31,1.03.78-.31c.02.67.28,1.68,1.1,1.41-.13.82.05.97.47,1.56l.39-.31c.35.21.44.88.64,1.09.16.17.45.1.54.27.18.31.01.87.08.99.31.56.42.44.78,1.39.33.88.71,1.36,1.15,2.17.11.21.11.81.32,1.03.15.16.66,0,.47.62-.04.13-.29.1-.29.17,0,.52.44.74.93.71-.38.57.11,1.35.09,1.57-.03.27-.37.29-.4.4-.04.18.05,1.16.46.99l-.3.23c.37.64-.89,1.53-.02,1.88l-.31.39h.63c.06.07-.12.93-.17,1.13-.15.58-.36,1.39-.53,2.16-.03.14-.15.28-.24.38l.31.08-.31.23.47.08-.31.31.27.03c.09.56-.43.7-.64,1.07-.28.49-.09,1.37-.33,1.89-.32.69-.73.91-.83,1.99-.03.34.2.71.13,1.02-.02.11-.96.87-1.19.89l.07.45c-.81.13-.67,1.14-.91,1.52-.2.32-.79.55-.88.7-.13.22.2.58.02.79-.12.15-.47.06-.57.26-.16.3.16.83-.31,1.06-.18.09-.48.04-.59.11-.16.11-.1.74-.34.99-.3.32-1.28.32-1.72.62-.21.14-.23.39-.35.5-.05.04-.27-.11-.36.04s.17.72-.59.99c-.3.1-.53-.08-.78-.04-.14.02-.42.59-.45.6-.21.07-.49-.49-.6.5l-.78-.47-.07.79c-.83.15-1.44,1.43-2.12.31-.11.93-.82-.1-1.04.63l-.3-.14-.07.29c-.26.07-.08-.22-.23-.28-.06-.03-1.26-.2-1.31-.16-.06.05-.1.34-.25.46-.3.24-1.33-.07-1.81-.09-.36-.02-.35.42-.94-.24-.15.58-.65.67-1.01.96-1.02-.36-2.03-.8-2.12-2.05l-.47.16c-.35-.57.09-.8.13-1.17.06-.48-.11-1.71.34-1.87-.68-.8-.07-2.31-.61-2.81l.16-.47-.33-.17c.68-.66.33-1.15.21-1.9-.1-.65-.11-.47-.2-.78-.05-.18-.15-1.72-.06-1.89.1-.2.35-.19.37-.3.05-.35-.22-.99-.15-1.37.06-.34.44-.61.29-1.01l-.61-.24c.49-.74-.11-1.54.62-2.27h-.63c-.18-.13.67-1.71.71-1.86.06-.29-.21-.53-.21-.75,0-.51.1-.41.01-1.24-.04-.39.44-.91-.35-1l.31-.23-.31-.23.47-.31-.45-.07c-.08-.46.13-1.07.12-1.43,0-.23-.26-.41-.25-.7,0-.36.34-.8.11-1.32l.48-.16c-.46-.28-.27-.81-.35-1.1-.02-.09-.23-.06-.25-.15-.05-.21.25-.72.29-.95l-.33-.31c.62-1.07-.51-1.98-.3-3.2h.47c-.23-.27-.31-.69-.28-1.05.04-.39.6-.57-.35-.83,1.17-.85.15-1.5.14-2.26,0-.34.25-.56.27-.79.02-.28-.53-1.34.06-1.41l-.29-.09c.17-.2-.02-.72,0-.75.03-.05.28-.07.36-.17.09-.12-.09-.6-.02-.84.2-.63.75-.59-.06-1.36.38-.26.88.04,1.14-.02.22-.05.36-.4.52-.43.2-.04.37.32.58.29.29-.05.82-.83.98-.89.09-.03,1.77.1,1.89.18ZM189.27,25.17c-.1-.07-.13-.38-.29-.42-.3-.07-.59.61-1.16-.16-.19.82-.33.18-.63.24-.82.15-.22.88-.42,1.29-.2.38-.58-.08-.03.85.08.13.29.14.29.2-.04.35-.51.93-.58,1.3s.24.95-.01,1.38l.29.14-.31.48c.55.09-.03.87.62.86v.15c-.52-.06-.19.25-.24.49-.08.36-.29.68-.22,1.08l.47-.16c.13.15-.58,1.06-.23,1.57.08.11.38.11.4.24.06.54-.83,1.56.15,1.86-.38.32-.15.94-.24,1.19-.05.13-.31.23-.34.38-.07.4.49.4.67.54.35.27.21,1.09-.25,1.18v.31s.32.23.32.23c-.57,0-.36.69-.47,1.1l.31-.16c0,1.05-1.15,2.5.14,3.21-.7,1.03.13,2.25-.46,3.37h.63c.08.53-.56.92-.6,1.03-.06.18.19.66-.01.93l.3.15c-.14.2-.33.39-.39.63-.02.06.02,1.28.08,1.32.14.08.58-.09.55.56-.02.39-.7.72-.52,1.53.06.29.37.51.38.66,0,.11-.3,1.21-.57,1.25l.47.34-.32,1.14c.79-.18.73,1.21.16,1.49.59.2.37.74-.16.94.35.29.49.41.31.86l.28-.12c.23.72,1.29-.1,1.91.12l-.16-.47c.59-.06.76-.07,1.02.47l.79-.62.47.47.24-.62c.26-.07.08.26.23.29.03,0,.35-.12.51-.1,1.92.15.7,0,1.45-.73.06-.06.56-.11.59-.13.11-.07.14-.43.49-.52.85.39.56.03.67-.02.08-.03.2.09.24.06.14-.11.95-.78.99-.83.09-.12.07-.44.16-.51.15-.1.55.06.85-.16.4-.3.05-.64.1-.77.03-.1.83-.52.9-.59.67-.67.51-.49,1.22-1.05.46-.36.61-1.41,1.14-1.52l-.47-.46c.73-.14.51-.98,1.25-.94l-.15-.45c.43-.04.49-.52.47-.89s-.38-.12-.32-.46c.74-.23.59-1.01.72-1.18.27-.35.6-.23.51-1.02-.01-.09-.77-.05.16-.64l.65-3.58-.47-.08c-.07-.26.24-.08.28-.23.09-.29-.31-1.09-.26-1.26.03-.08.22-.05.27-.19.09-.27-.07-.69.32-.9l-.63-.24.63-.7-.78-.47c.58-.4.29-.47.29-1l-.45-.02.31-1.09-.58-.24-.02-1.11c.84-.48-.47-.59-.76-1.44-.15-.45-.39-1.53-.7-1.88-.07-.08-.38-.02-.52-.18-.16-.21-.22-.84-.08-1.1h-.47s.16-.47.16-.47l-.47.15c.13-.16-.3-1.16-.35-1.21-.08-.08-.4-.09-.6-.26-.27-.23-.22-.7-.77-.56.35-.77.01-.3-.16-.41-.23-.14-.8-.8-1-.95-.17-.13-.63-.27-.8-.52l-.08.31-.17-.28c-.6.22-1.06-.44-1.47-.81l-.47.44c-.29-.69-1.08-.53-1.17-1.07h-.3s-.08.31-.08.31c-.62-.5-1.83-.14-1.65-1.25l-.7.47c-.38-.35-.92-.08-1.29-.35Z"/><path d="M68.14,20.64l.03-.27c.47.53.54-.04.98.02.41.05.62.63,1.05.61v-.47s1.1.31,1.1.31l-.16.47,1.95.48.24-.32c-.09.49.37.1.63.38.15.17.12.47.18.53.07.06,1.49.22,1.79.31.61.19,1.4,1.22,1.5,1.25s.28-.17.42-.11c.04.02.5.59.53.65.1.18.13.84.16.87.13.12.44.05.6.29.2.29.25.8.15,1.13l.46.09.63,2.58.62-.16-.31,1.25.62.08c-.13.56-.65.63-.62,1.24.03.51.61.57.46,1.23-.03.14-.31.17-.44.37-.54.85.29.65.27,1.04-.31.66-1.68,1.75-.61,2.21-.18.4-.51.61-.94.71l.31.31c-.66.04-.27.39-.35.58-.01.03-.2.04-.26.17-.18.41-.52,1.08-.33,1.44l-.64.07c-.1.71-.93.58-.53,1.66l-1.51.87.02.99c-.64-.19-.82.33-1.06.46-.27.14-.9.03-.81.4.26.15.43.78.48.84.02.03.25-.1.38,0,.15.13.17.39.26.46.05.04.25-.27.36.19l.55-.25c.52.31.51.9.74,1.3.41.72.76.31.82.35.03.02.05.42.14.54.12.15.41.05.46.11.04.04.08.82.2,1.11.06.14.52.45.67.61.26.29.18.86.89.77l-.16.62.47-.16c-.25.63.49.68-.31,1.02.09.26.42.07.45.11.05.07-.02.28.06.39.09.12.37.14.42.3.06.22-.19.48-.12.66.02.04.43.37.6.58.13.16.12.43.18.51.02.03.52-.04.72.22.07.09.24,2.04.43,2.32.25.36.7-.09.86,0l.31,1.56.47-.16c-.57,1.14.84,1.95.78,3.13l.47-.16v1.25s.31-.16.31-.16l.18,1.08h.45s-.47,1.11-.47,1.11h.63c.04.24-.16.07-.31.28-.19.27.24.51-.79.19.21.37-.11.77-.47.85-.07.02-1.31-.27-1.41-.31-.11-.05-.67-.63-.79-.78-.26-.33.06-.71-.78-.55.39-.86-.54-1.37-.6-1.67-.05-.23.14-.43.13-.58,0-.09-.21-.09-.25-.16-.19-.32.1-.52-.69-.41.37-1-.68-1.56-.47-2.34l-.47.16c-.08-.23.02-.96-.08-1.09-.26-.36-.86-.14-.6-.6l-.28-.12c.42-.71.03-.95-.13-1.69-1.48-.36-.94-.4-1.04-1.53-.15-1.63-.71-.85-1.16-1.48-.15-.22.02-.58-.17-.9-.22-.37-1.08-1.06-1.41-1.59-.15-.24-.01-.42-.13-.63-.25-.44-.93-.6-1.42-.55l.16-.47-.47.31-.19-.9c-.33-.33-1.21-.01-1.37-.11s-.29-.57-.54-.73c-.31-.19-.69-.09-.88-.22-.15-.11-.1-.4-.18-.52-.16-.21-.62.11-.67-.35h-.39s.3,1.5.3,1.5l-.3.14v.32s.3.14.3.14c-.03.47-.47,2.83-.43,2.98.03.11.57.26.59.96,0,.07-.28.05-.3.17-.01.06-.15,1.16-.16,1.23,0,.07.48.02.32.61-.04.15-.48,0-.31.41l.31.08-.47.31c.71.19,1,.8.16,1.02.37.45.9,1.4.18,1.64,0,.32.32.64.3.93-.03.36-.76.89,0,1.11l-.32.18v.52s.63-.16.63-.16c-.09.51.11.8-.47,1.01.05.28.47.43.46.46-.07.59-1.36,1.7-.46,1.81l-.78.71c-.67-.31-1.43-.19-2.11.07-.09-.02-.6-1.43-.64-1.64-.08-.42.06-1.17-.08-1.84-.03-.13-.24-.11-.27-.2-.09-.26.24-.82.59-.55l-.02-.61-.45-.02c.15-.29.18-.53.16-.85-.03-.58-.65-1.42,0-1.57-.57-.05-.72-1.26-.49-1.55.17-.21.53.05.49-.25l-.63-.08c.01-.21.39.11.23-.23-.26-.55-.41-.94.4-.94-.64-1.03.2-1.48-.04-2.32l-.43-.03c.23-.43.47-.65.49-1.18s-1.11-1.05.15-1.57c.05-.38-.43-.67-.43-.92,0-.24.39-.46.4-.77.05-.82-.69-1.63-.3-2.43h-.47c.12-.16.11-.48.2-.59.28-.35,1.25,0-.04-.9l.47-.39-.45-.71.45-.3-.48-.16c.24-.77-.12-1.65.32-2.27h-.47s.48-1.31.48-1.31l-.64-.25c-.06-.24.22-.1.32-.26.1-.15,0-.33.05-.49.01-.03.2-.03.22-.11.03-.11-.35-1.42-.38-1.72,0-.08-.02-1.41,0-1.49.07-.46.58-1.04.41-1.72h-.63c.31-.43.76-1.44.15-1.64l.49-1.42c0-.39-.67-.05-.01-.62-.75-.39.11-1.52.08-2.19s-.58-.15-.55-.62c.02-.34.61-1.01.62-1.58l-.29-.13c.07-.14.16-.31.14-.48-.05-.6-.43-1.22.32-1.27.26-.33-.34-.67-.02-1.07.18-.22.89.08.82-.7l1.36.25ZM70.82,24.61c-.19-.11-.42.29-.63.24-.34-.08-.58-.66-1.01-.56-.29.16-.07.41-.16.61-.06.15-.32.25-.36.42-.07.29.4.8.45,1.23.12,1.03-.04,2.55-.17,3.59l.32.17-.32.55.47-.15c.12.51-.4.82-.47,1.18-.1.52.27,2.1.13,2.5-.31.9-.11.52-.12,1.41,0,.28-.24,1.52-.16,1.64l.78-.15c-.19.65-.09.81-.79,1.02.85.71-.79,2.56.79,2.11.13.75-.74.87-.78,1.03-.04.17.21.48.24.68.02.18-.18.31-.17.4.03.39.34.7.09,1.17l.39.16c.12-.14.44-.64.55-.7.17-.09.4.08.54-.07.15-.17.43-.88.7-1.02.35-.18.73-.07,1.09-.09-.35-.72.79-.43,1.02-.61.56-.44.71-1.52,1.63-1.81l-.3-.54,1.09-.79c-.29.19-.32-.43-.29-.45.23-.25.73,0,.76-.02.03-.03,0-.31.1-.45.13-.2.37-.33.44-.48.12-.25-.05-1.21.41-1.1l-.47-.23c.85-.77.44-.64.48-1.39.03-.4.18-.95.3-1.35l-.47-.08c-.08-.53.57-.67.6-.72.08-.13-.25-1.45-.13-1.7h-.47c.19-.66.55-1.38-.47-1.41l.31-.31-.62.15c-.39-.38-.05-1.04-.08-1.09-.03-.06-.71-1.01-.76-1.05-.21-.17-.67,0-.59-.67-.63.41-.67-.38-.79-.46-.09-.06-1.82.36-1.94-.48l-.39.46c.06-.44-.4-.31-.68-.46-.12-.07-.1-.3-.11-.31Z"/><path d="M47.64,20.55c.34.92,1.39,1.45.96,2.64h.47c-.33.47-.76,1.35-.62,1.94.03.12.25.09.28.18.06.18-.28.61-.28.78,0,.24.33.41.31.77-.02.4-.56.82-.59,1.3-.01.19.39.9.36,1.22-.01.13-.23.29-.23.48-.01.48.13.97-.01,1.48h.47s-.14.69-.14.69l-.5.18c.05.45-.19.92.29,1.08l-.29,2.58.63.08c-.46.11-.16.28-.31.59-.05.1-.28.08-.32.22-.18.75.64,1,.63,1.06l-.31.16c.52.36.14,1.68-.31,1.8.03.39.45.13.47.15.06.1-.28,1.47-.3,1.8s.21.96.15,1.22c-.02.1-.87.26.04.41.57.1-.19.68-.19.72-.02.31-.08.67-.09.86-.01.76.69,1.41-.23,1.78l.31.15c-.38.38-.33,1.06-.28,1.57.03.38.4,1.17.41,1.24.1.99-1.11,2.33.19,3.13-.38.42-.67.78-.73,1.35-.06.47.21,1,.2,1.16-.01.23-.29.46-.24.54.03.04.54.19.47.79h-.47c-.05.3.27.61.25.86s-.35,1.52-.34,1.72c.03.57,1.22,1.82-.07,1.8.03.13.14.26.14.4-.02.46-.04,2.34.05,2.64.02.06.47.29.44.55-.88.06-1.39,1.07-2.3,1.06-.35,0-.56-.65-.75.03-.25-.13-.61-.94-.71-1.01-.13-.1-.38-.05-.45-.1-.11-.08.24-1.22.61-1.31l-.47-.08c-.17-.65.61-.45.47-1.01-.01-.05-.53-.19-.44-.61l.6-.65-.48-.17-.13-.78c.25-.12.37,0,.3-.38h-.47s.42-1.33.42-1.33l-.57-.4c-.1-.14.71-1.18.72-1.48,0-.18-.23-.4-.19-.7.1-.84.09-1.17.02-2.06,0-.12-.16-.26-.23-.37l.78-.47c-.3-.2-.24-.4-.15-.7l-.31.16c.16-.36-.29-.51-.29-.54,0-.21.23-.76.29-1.02l-.47-.08.29-.15c-.39-.53.23-.68.31-.98.15-.56-.45-.7-.44-.74.05-.4.59-1.15.62-1.91.01-.29-.28-.18-.31-.31-.09-.41.18-1.46.3-1.74.26-.6-.18-1.32-.23-1.9-.03-.3.32-.57.08-.95-.42-.15-.3.29-.46.39-.73.47-.32-.91-1.25-.53v.45c-.91-.66-1.29-.26-2.15-.17-.22.02-.43-.09-.6-.07-.4.04-.82.46-1.49.08l.16.31c-.46.03-.9.1-.94-.47h-.31s-.33.61-.33.61c-.55-.34-1.17-.29-1.8-.25l-.25.71-.45.02c.55.39-.11.72.01.93,0,.01.18,0,.24.07.74.97-.17.71-.4,1.05-.03.04.21.4.22.59.04.49.01,1.16-.23,1.59l.63-.15c-.17.34-.11.86-.19,1.18-.02.06-.56.06-.03.85.11.16.39.12.38.24-.22.06-1.17,1.52-.47,1.33l.16-.31.13,1-.6.26c.02.32.2.6.23.91.08.85-.1,1.16.05,1.98.03.17-.09.61.04.86l-.47.16h.63c-.16.24-.12.86-.19,1.02-.05.12-.26.06-.27.08-.03.04.5.55.15.94l-.31-.08.16,1.95.47-.16v.31c-.6-.08-.28,1.03-.36,1.19-.11.22-.48.17-.52.69-.03.42.46.87.24,1.4-.37.31-.88-.17-.92-.14-.02.01-.04.34-.22.48-.45.36-1.09-.29-1.66-.17l.12-.28-1.22-.89.19-.37.44-.1-.63-.08.29-.23-.14-.55h.47s0-.47,0-.47l-.62.16c-.03-.64.09-1.04.77-1.11-.13-.6.16-.66-.61-.77-.07-.26.21-.09.28-.18.06-.07-.11-.42.02-.59l-.47-.09c.41-.12.18-.17.3-.47l.48-.08-.6-1.01c.48-.34.91-1.18.14-1.4-.02-.13.59-1.08.6-1.42,0-.07-.26-.04-.3-.17-.07-.28.04-.67-.14-.97l.29-.17c-.5.02-.4-.91.16-1.02l-.31-.15c.26-.12.33-.98.31-1.24,0-.11-.26-.08-.29-.17-.03-.07.17-.74.05-.87s-.37-.13-.39-.15c-.05-.06.72-.96.33-1.47l-.49-.17c.2-.09,1.06-1.11.92-1.31l-.45-.25.62-.55-.02-.3-.3-.11.17-.91c-.38-.06-.4-.9,0-.95-.7-.52.02-1.2-.01-1.39-.03-.17-.41-.33-.44-.51-.03-.16.23-.35.26-.57.09-.76-.18-1.57.2-2.3h-.63s.47-1.03.47-1.03c-.7-.27.02-1.26.32-1.72l-.45-.46c.07-.43.22-.58.59-.79l-.78-.31c.41-.07.24-.67.28-1.12.03-.31.09-.61.2-.91l-.32-.24.62-.32-.02-.3-.3-.09c.63-.85.21-.96.17-1.57-.04-.56.65-1.59-.16-1.64l.47-.7c.04-.12-.36-.07-.45-.33-.06-.17.07-2.46.61-2.25l-.43-.57.28-.76-.32-.24c.27.05.5-.31.48-.55,0-.1-.5-.02-.32-.39.27-.04.44-.24.71-.31.48-.11,1.65.04,1.85-.02.27-.08.14-.49.41-.46.46.77.32,1.99.6,2.76.08.22.32.22.34.32.13.6-.32,1.08-.62,1.53l.31.08c-.02.32-.46-.01-.31.47l.3.07-.31.94c.77.23-.43,1.51.32,1.73l-.32.47c.55.17.61.97-.15.86l.47.16-.47,1.09.47.08c-.32.59-.5,1.43-.43,2.1.04.41.37.69.28,1.19-.07.4-.47.34-.48.48,0,.05.14.81.17.89.05.14.31.12.31.2.02.53-1.08,1.41,0,2.03-.55.14-.26.7-.31,1.17l.31-.78.16.31.47-.31c-.06.46.27.17.43.26.23.13.15.38.42.37.2,0,.71-.11.91-.18.13-.05.13-.3.22-.31.32-.04,1.12.38,1.82.29.57-.08.62-.42.66-.42.48.03.61.66,1.18.46v-.63s1.48.63,1.48.63l.31-.61c.42.1.58.22.79.6.24-.24.19-.56.34-.89.08-.18.28-.16.32-.28.22-.57-.25-.52-.27-.55-.07-.09.26-.25.27-.39.01-.21-.37-.46-.37-.63-.01-.35.11-.24.01-.94-.05-.36,1.18-.73-.21-1.25.39-.77.7-1.8.64-2.66-.02-.31-.26-.51-.27-.63-.03-.39.9-.77.25-1.4l.33-.16-.59-.93c-.02-.39.41-.37.43-.4.06-.09-.32-.29-.31-.54,0-.18.26-.4.3-.65.13-.65.31-2.04-.61-1.86.26-.44.25-.98.42-1.45.07-.18.31-.16.39-.42.21-.67-.22-1.28-.18-1.34.01-.02.22.02.25-.04.14-.25-.09-.72.69-.44l-.16-.47c.64-.33,1.03.4,1.7.18Z"/><path d="M149.26,21.31c.63.33.59,1.66,1.41,1.56-.11.8-.38.5-.61.64-.21.13.29.52.29.55.1.64-.42,1.22-.77,1.7l.47.08-.17.53.33.17c-.34-.02-.71,1.42-.63,1.49l.47.08c-.59.36.19,1.41-.62,1.49.03.31.55.38.62.57.13.38-.45,1.82-.47,2.31l.32.16-.31.64.32.16c-.43.81.06.91.11,1.03.07.16-.38.39.19.52-.11.48-.75.45-.62.86l.3.08c-.65.23-.33.72-.47,1.33.09.09.82-.18.78.16l-.28.07c.09.87-.84,1.37-.34,2.43l-.47.08c.19.29.13.71.19.94.01.04.43.17.24.78-.03.08-.81.43.19.71-.5.44-.05.64-.03,1.04,0,.18-.03.63-.03.94,0,1.23-.46,2.36-.24,3.65l.63-.07c.01.7-.28.57-.74.93-.08.47.41.9.43,1.27.01.35-.29.5-.3.76-.02.32.31.78.29,1.11-.03.45-.18.45-.14,1.24.02.36-.39.61.31.71.01.36-.53.56-.59.66-.14.24-.04,1.46.43,1.38l-.31.46c1.07-.17-.06,1.21-.15,1.66-.14.73.43.57.47.77.03.17-.26.34-.26.47,0,.2.5.31-.21.78.29,0,.37.54.32.75-.05.19-.37.13-.42.34-.01.05-.07,1.02-.07,1.11.02.58.37.44.45.57.03.05-.09.29-.05.45.09.35.58.29.4.69-.11.24-.53.2-.69.39-.06.07.06.31-.08.4-.5.32-1.57,0-1.81.7-.55-.63-.25-.96-1.33-.78v-1.1s-.62,0-.62,0l.31-.16-.3-.22c.36-.93.93-2.18-.15-2.82l.16-.54.61-.02v-.47s-.47-.08-.47-.08c.11-.78,1.34-.78,0-1.25.34-.19.17-.76.24-.87.25-.38.9-.51.54-1.4l-.78.16c.24-.71.82-1.21.61-2.02h-.46c.31-.38.57-1.32.48-1.78-.04-.23-.99-.18-.01-1.28l-.47-.08.47-.55-.47-.39.62-.55c-.93-.4-.1-.91-.07-1.25,0-.06-.11-1.09-.13-1.15-.01-.03-.24-.04-.32-.23-.35-.84.6-3.1.5-3.22-.04-.06-.27-.05-.36-.17-.1-.15.32-.32-.41-.4.41-.12.17-.17.31-.47l.47-.09v-.77c-.6,0-1.27-.12-1.32.63-.24-.67-1.16.22-1.57-.63l.08.62c-.32.05-.6-.26-.89-.28-.27-.01-.48.25-.76.27-1.07.07-2.38-.4-3.38-.37s-.37.24-.59.45c-.24.23-1.66,1.09-1.65.39-.23.01-.83.78-.87,1.03-.07.44.29.88.27,1.09-.02.19-.59.44-.42.86.66-.15.57.35.18.62-.09.06-.4-.12-.34.16l.32.09-.17.69.47-.16c.05.58.06.98-.63.94-.11.49.42.22.48.7.06.44-.11,1.01-.64.86l.48,1.01-.63.63c.25.34.39.37.78.24l-.07.63-.57.24c-.09.55.52,1.26.48,1.39-.04.14-.38.18-.44.27-.19.31.06,1.97.59,2.08l-.3.09.14.37-.33.18c.04.51.3,2.08.28,2.49-.01.22-.58.38.01.41l-.12.29.63.08c-.17.04-.75,1.03-.75,1.1.01.13.35.29.41.5.11.38-.11.56-.12.76,0,.08.4,0,.18.35l.27.03-.31.16.31.47-.27.03c.22.41-.16.26-.36.51-.29.37-.23.9-1.09.87l.16.31c-.27-.04-.62.2-.84.17-.1-.02-.09-.25-.14-.28-.12-.08-.31.13-.51-.02-.34-.26-.36-.98-1.15-.65-.23-.52-.24-.81.14-1.24h-.47c.14-.45.61-.85.64-1.33.03-.53-.1-1.21-.47-1.4l.46-.71-.47-.24.59-.78c-.59-.51-.04-.82-.04-1.19,0-.79-1.6-2.19-.08-2.34.01-.24-.41-.26-.45-.33-.02-.04.05-.87.07-.94.05-.25.43-.63.38-.83s-.66-.12-.47-.77c.03-.11.31-.1.32-.19.02-.41-.15-.53-.06-1.26.11-.96.01-.87-.15-1.65-.28-1.36.88-1.66.52-3.31-.03-.14-.34-.05-.33-.33.01-.35.35-1.04.64-1.26-.09-.23-.58-.34-.62-.49-.03-.12,0-1.19.31-1.07l-.31-.08v-.22c.89-.78-.07-1.05-.02-1.57.03-.35.39-.31.53-.59.12-.24.15-1.61.11-1.91h-.63c-.12-.42.61-.89.63-1.1,0-.08-.29-.06-.32-.17-.16-.58.32-.56.31-.6-.02-.13-.23-.34-.23-.63,0-.78.39-1.43-.08-2.21l.47-.53-.47-.24.47-.63c-.6-.17.01-.89.02-1.4,0-.95-.53-2.17-.17-3.21h-.47c.29-.5-.13-.87-.15-1.18-.03-.46.3-.88.3-1.33l-.62.31c.02-.22-.05-.48,0-.68.04-.18.38,0,.32-.26l-.47-.39.61-.25.05-.57.73-.23.05-.4.53-.03.08.47c.61-.32.86.22,1.05.31.63.31,1.87.47.67,1.18.35.18.49.65.94.55v.78s-.47.08-.47.08c.11.23.13.78.19.94.04.12.31.03.28.15-.2.7-.06.8-.15,1.23-.01.06-.59.19-.12.54.17.13.52-.12.42.26-.05.25-.57.65-.58.78,0,.12.23.32.23.59,0,.47-.34,1.02-.27,1.58.04.32.36.63.32.94-.01.1-.25.1-.26.13-.09.24.03.6-.37.82l.47-.08c-.02.15.1.29.12.43.08.9-.16,2.06-.13,2.93.01.43.24.68.26.94.04.43-.67,1.34-.05,1.3.31-.02.71-.37,1.01-.41.6-.09,1.39.21,2.05-.37l-.13-.29c.35-.1.74.15,1.03.14.7-.02.84-.11,1.67.06.34.07.38.46.96.11.19-.11-.06-.45.58-.16l-.16-.31.72-.15.61.47.17-.33.54.17-.15-.62c.79.47.96-.21,1.56-.47l-.31-.31.47-.25c.08-.34-.41-.55-.43-.61-.08-.26-.04-1.9.28-2.11l-.31-.08c.39-.44.15-1.13.15-1.73,0-.32.19-.68.17-.93-.03-.33-.4-.45-.42-.62-.03-.27.41-.86.58-1.1l-.33-.17c.06-.36.21-.7.19-1.08,0-.14-.35-.35-.4-.77s.34-.79-.25-.95c0-.41.57-.67.62-.82.18-.56.31-1.8.17-2.38h.63c-.17-.45-.14-.58.16-.94l-.31-.16h.78c-.16-.45-.18-.64.24-.94l1.1.6.23-.6Z"/><path d="M100.14,21.74c.35.42.95-.1,1.14-.09.12.01.2.34.34.45.53.4,1.4.77,1.3,1.55l.6.02c.1.43.03.84.49,1-.49.53-.06,1.58.46,1.87-.5.51-.43.83-.31,1.49l.62-.16-.31.23.31.15-.62,2.11.79.41c-.41.64-.22,1.31-.25,2.03,0,.2-.24.63-.2.77.02.07.24.05.33.42.15.57.18,1.91.11,2.48h.47s-.3.71-.3.71l.46.31c-.77.13-.31,1.41-.38,1.49-.12.14-.45.06-.4.3l.47.08-.16.86h.63c-.3.56.06,1.45-.78,1.49.12.18.35.48.38.69.1.64-.52,1,.56,1.04-.53.38-.83,1.17,0,1.56l-.63,1.1.3.14-.14.4.31-.16c-.04.45.2.84.28,1.21.17.74.03,1.18.02,1.99,0,.18.09.79.16.92.11.2.38.06.47.11.04.02-.12.69-.13.86-.02.46.31.71-.18,1.16h.47c-.14.62-.33,1.34-.28,1.98.08,1.01.17,1.96.22,3.01.03.52-.25,1.35.21,1.51l-.13.36.28.02-.31.62.47-.16c-.15.24.03.49,0,.68-.03.17-.47,0-.32.42l.47-.16c.13.24,0,.72.04.86.03.11.31.02.3.31-.01.31-.26.51-.27.63-.01.19.37.54.26.86h-.63s.31.38.31.38l-.47,1.02-1.09-.47-.16.63c-.15-.12-.51-.11-.59-.2-.17-.19.26-.56-.5-.35-.49-.2-.11-.71-.17-.83-.13-.22-.6-.33-.7-1.12-.05-.4.2-.54.2-.71,0-.15-.7-.92-.73-1.26.54-.07.07-.61.17-.91.04-.12.3-.1.31-.2.04-.22-.42-1.62-.43-1.86,0-.15.36-.26.26-.54l-.47.16-.16-.31c-.07-.26.28-.07.32-.25.1-.43.03-1.26-.47-1.38l.48-1.42c-.24-.33-.62-.84-.64-1.26-.02-.35.25-.55.25-.77,0-.18,0-.76,0-.93-.03-.52-.07-1.61-.71-1.18l.16-1.41-.16.47h-.31c.08-.47-.35-.07-.45-.41l-.02-.69c-.24.17-.92.32-1.18.28-.1-.02-.05-.23-.15-.25-.06-.01-.72-.05-.76-.04-.17.03-.2.47-.34.47-.02,0-.15-.2-.31-.22-.57-.08-1.27.17-1.87.19-.46,0-1.05-.23-1.57-.13l-.09.48-.94-.31.08.32-.56.23c-.05.35.35.79.31.85-.02.02-.21,0-.24.04-.11.25-.22.84-.32,1.06-.18.37-.66.34-.37.94l.31-.16c.16,1.23-1.09,2.02-.82,3.26l-.27.18.31.08c-.17.25-.42.7-.45.98-.03.33.25.46.22.67-.04.31-.45.77-.5,1.17-.06.44-.13,1.12-.16,1.54-.05.54.46,1.23-.52,1.2-.16.41.27.25.32.41.2.76-.41.5-.61.7-.03.18.13.86.1.9-.03.05-.28.07-.35.17-.09.12-.03.59-.1.63-.09.06-.39-.11-.54-.08-.75.16-.8.4-1.69-.08-.42-.23-.57-1.04-.78-1.2-.04-.03-.34.14-.42-.13v-.52c.77-.05.56-.54.93-1.03l-.47-.08c.29-.44.27-1.19.94-1.25l-.45-.33-.02-.37c.71-.31.28-.48.43-.96.5-1.62.49-2.98.93-4.37.09-.27-.33-.79.19-.71l-.31-.47.64-.26c.07-.35-.23-.72-.25-.98,0-.04.11-.82.12-.86.03-.12.64-.45.59-.87h-.46c-.03-.63,0-1.22.61-1.49v-.23s-.29-.08-.29-.08l.29-.86-.31-.16c.63,0,.32-.63.4-.96.05-.22.23-.38.3-.6.09-.28-.3-.43.4-.72-.1-.26-.52.35-.46-.14.09-.7.54-.8.61-1,.11-.3.24-1.43.3-1.86.15-1.05.13-2.91.39-4.13.11-.54.69-.68.1-1.24l.31-.16-.31-.07.78-2.69c-.27-.83-.25-.97-.06-1.78.03-.13-.09-.34-.07-.38.02-.05.59-.57.76-.55l-.29-.17.09-1.04c.16-.38.59-.3.82-.61.41-.54.11-2.36,1.1-2.25l-.13-1.07c1.18-.16.74-1.51,1.27-2.02.12-.12.35-.1.47-.19.15-.11.18-.35.27-.4.13-.08.44.04.73-.03.07-.02,1.07-.49,1.3-.59s.33-.57.63-.31c.14.12.1.4.19.51ZM100.63,28.63c-.08-.73.15-2.79-.57-3.13-.4-.18-1.14.11-1.22.47-.04.19.21.42,0,.73-.12.17-.38.21-.43.29-.09.13.14.54.08.67-.08.16-.89,1.04-.99,1.2-.04.07.03.41-.2.52v.23s.46,0,.46,0c.07,1-.66.67-.87.93-.15.19-.41,1.1-.29,1.38.11.25.4.1.36.35-.53-.08-.09.25-.23.47-.06.1-.31.09-.39.28-.52,1.15-.27,4.47-.66,5.41-.09.21-.33.2-.4.28-.03.03.03.7-.18.86l.14.28.47.08c-.07.81-.73.43-.75,1.21-.01.39.23.6.23.74,0,.16-.36.27-.26.55l.31-.16c.3.22-.4,2.02-.74,2.27l.35.55,1.25-.78.24.47.16-.46c.45,0,.89-.2,1.01.3l.16-.31c.41.61.74.52,1.4.6l.32-.6c.48.02.5.74.55.78.08.06,1.66-.17,1.87-.32l-.31-.31.28-.02c-.16-.37,0-.47.19-.76h-.63c.25-.63,1.15-2.52.02-2.52-.08-.24.25-.78.24-.84,0-.16-.32-.28-.26-.39.02-.04.5.08.39-.77-.05-.36-.37-.94-.33-1.2.03-.18.32-.27.35-.45.01-.08-.15-1.58-.18-1.66-.2-.47-1.02-.8-.54-1.72l-.31.16c-.08-1.11.49-1.67.26-2.73-.02-.09-.21-.08-.22-.16-.06-.3-.05-.82.1-1.11l-.3-.07c.28-.27.38-1.1.31-1.46-.02-.12-.25-.13-.25-.15Z"/><path d="M223.03,20.21c-.09.65.65.49.47,1.14-.03.1-.24.06-.33.34-.12.39.02.79.02,1.18.47-.12,1.67.07,1.83.57.21.65.47.8.8,1.34.23.37-.3.92.75.89l.07.64.23-.12.11.22.28-.11.12.72-.43.3c.37.24.35.67.52.97.05.09.34.11.4.3.08.25-.18,1.99.02,2.25l.39-.14.23.21c-.52.76.59,1.13-.15,1.8,1.22.15.58.58.53,1.02-.01.1.11,1.8.13,1.99.07.55.5,1.22.42,1.78-.03.24-.41.29-.27.61.08.17.53-.07,0,.76l.44.42-.31.47h.46c.18.71-.41.92-.44,1.02-.03.1-.17,1.93-.15,2.03s.24.07.27.15c.13.47-.23.18.29,1.06.04.07-.24.25.2.35l-.46,1.02.31.16c-.6.07-.6.86-.74,1.34l.43.3c-1.36.69.59,2.36-1.25,2.74l.47.16-.31.23.31.15c-.13.58-.65,1.64-.71,2.11-.03.22.24.33.21.52-.1.67-.52,1.76-.8,2.3-.14.26-.53,1.01-.56,1.21-.04.27.2.15.26.28.09.2-.45,1.07-.74,1.02v.15c.63.02.28,1.36-.31,1.49l.31.15c-.15.45-.88.73-1.02,1.03-.19.41.33,1.35-.86.93l.25.48c-.04.13-.08.24-.2.32-.49.34-.51-.18-.51.85-.34.33-.78,0-1.15.07-.13.02-.05.33-.33.33-.6.02-1.34-.31-2.04-.01l-.08-.47c-.94.58-1.25-.31-1.33-.31-.03,0-.16.26-.4.24-.12,0-1.49-.56-1.57-.64-.28-.26.32-.66-.7-.69-.07-.74-.65-2.17-1.48-1.89.11-.89-.63-1.44-1.24-1.98l.3-1.46-.47-.08.3-.92c-.41-.13-.46-.68-.62-.8-.12-.09-.34-.05-.43-.11-.04-.02-.25-.86.07-.63l.21-.75-.46-.26.15-.89c-.98-.46-.52-1.54-1.1-2.22l.31-.08c.07-.26-.25-.08-.29-.23-.01-.04,0-.7,0-.79.07-1.07.22-2.2.16-3.29,0-.15.17-.35.13-.38-1.05.13-.05-.84-.02-1.32.02-.41-.14-.86-.61-.71l.32-.55-.32-.15c.47-1.19.89-2.69.35-3.92.14-.29.3-.36.59-.23-.07-.43-.31-.46-.3-.99s.1-.94.63-.97v-.6s-.32-.25-.32-.25c.08.01.23.01.26-.04.37-.65.51-1.6.72-2.35.17-.6.53-1.52.68-2.14.05-.22-.22-.4-.18-.65s.32-.28.36-.33c.03-.05-.1-.2-.07-.24.14-.19.8-.57.86-.91.03-.19-.16-.43-.09-.72.07-.33.73-1.21.87-1.8.05-.2-.12-.43-.09-.49.02-.04.28-.07.35-.18.89-1.37,1.47-2.13,2.67-3.29.22-.22,1.59-1.32,1.63-1.42.04-.11-.2-.38-.13-.45.48.23.92-.12,1.3-.11.59.02,1.08.59,1.67-.05ZM221.26,25.43c-.33-.19-1.08-.15-1.32.15-.17.21,0,.94-.35,1.41-.1.14-.72.68-.94.74l.47.46c-.44-.1-.13.26-.31.39-.41.29-.66.03-.66,1l-.42.03-.18.61.62.23c-.17.54-.27.62-.78.81l-.13.93.3.14c-.08.32-.94.99-1.15,1.37-.1.18-.05.45-.12.63-.05.14-.31.13-.3.19.05.4.73,1.36-.16,1.5l.47.31c-.77.62-.17,1.07-.19,1.33-.02.24-.49.32-.56.42-.04.05.09.3.07.44-.04.18-.22.32-.22.52,0,.46.66.84-.19.74l.47.16-.14.69c-.97.11-.07.71-.45,1.44l.4.25-.1.26c.64.1.04.16,0,.25-.52,1.29-.51,2.39-.25,3.69.17.85.04.7.1,1.3.05.47.45,1.28.57,1.63.08.22.07.5.18.73-.86.5.06.59.3.73.05.03-.03.95-.3,1l.62.24-.15.55.47.08-.29.17c-.07,1.24.28,2.18.65,3.34.03.09.24.08.26.19.06.33-.17,1.31-.07,1.46.09.14.34.18.46.31.16.17.25.42.4.54.44.32,1.46.44,1.24,1.34h.78s.16-.63.16-.63c.6.13.71.66,1.41.47l-.29-.17.16-.59.59-.03c.15-.36-.05-.87.12-1.2.16-.31.57-.38.65-.62.14-.41-.11-.68-.11-.92,0-.19,1.83-1.52.62-2.21v-.24c.11-.45.65-.64.74-.78.05-.08-.09-.64.04-.94.06-.14.32-.11.31-.2-.01-.22-.28-.33-.25-.55.06-.46.7-1.37.9-1.93.29-.81.56-2.76.45-3.63-.04-.32-.35-.66-.32-.69.02-.02.33.07.39-.29s-.18-.82-.22-1.19l.45-.25c-.53-.49-.1-.58-.08-.86.02-.29.08-1.38.04-1.56,0-.04-.53-.59-.54-.63-.14-.55.28-1.34.26-1.86-.02-.48-.45-1.04-.47-1.55.73-.28.46-1.21-.3-1.2.15-.54.58-1.94,0-2.12.17-.39.28-1.18.02-1.53-.13-.18-.53-.07-.63-.35-.04-.12.12-.87.1-1.19-.08-.96-.19-1.92-.9-2.53-.08-.07-.33.02-.4-.08l-.08-.55.32-.17-1.33-1.49-.23.31c.05-.13-.63-.7-.68-.73Z"/><path d="M117.88,20.44c.08.05,0,.23.3.26.37.03,1.09-.08,1.48-.15l.09.3c.1-.45.46-.21.86-.32v.62c.17.1.65.01.71.04.09.04.07.51.38.28.05-.04.04-.55.39-.47.45.16.24.73.38.86.38.34,1.3.95,1.64,1.34.41.48.21,1.03.26,1.07.06.05.54-.07.77.56l-.31.54h.63c.07.05-1.14,1.43,0,1.33-.1.8-.3,1.72-.78,2.34l.31.15c-.15.58-.85.62-.92.73-.03.04,0,.51-.22.78-.17.21-.5.62-.74.69-.19.06-.28-.19-.42-.21-.2-.03-.31.21-.44.23-.21.02-.73-.51-1.17-.1l-.16-.78-.47.08c.18-.69,1.26-1.83.31-2.19.06-.37,1.02-.7.94-1.55,0-.09-.26-.09-.27-.13-.19-.57.14-1.08.1-1.25-.04-.16-.64-.73-.71-1.06-.9.38-.96-.29-1.51-.42-.1-.02-1.93.12-2.03.15-.47.15-.52.89-1.37.44l.14.29c-.85.08-.4.92-.45.95-.06.04-.32,0-.46.09-.48.32-.8,2.04-1.11,2.65l.62.32c-.21.59-.7.75-.78,1.41,0,.06.6.05.62.47-.78.29-.31,1.13-.77,1.78.7.06.24.69.39.96.09.17.77.56.81.7.19.67-.5.84.42,1.58.17.14.54-.07.4.53l.3-.15.33,1.55c.67-.23.67.06,1.14.35.14.09.37.06.48.11.28.15-.24.75.88.32.08.85.29.45.58.59.37.18.8.33.84.82l.62-.31c.03.24.14.54.47.47l.15-.31c.35.37.23.76.36,1.06.03.07.56.16.27.66.64-.29,1.18.49,1.1,1.1l.38-.16.18.32.36-.15c.27.32.24.85.36,1.13.18.42.97.86,1.13,1.05.2.23.05.71.71.63l-.15.3c.74-.1.75.65.31,1.09h.47c-.28.62-.11,1.1.63.94-.34.83.23,1.6.16,2.49h.62c.06.5-.47.82-.47.87-.02.47.28.07.47.08l-.02.68-.61.26c.45.25.3.82.35.9.09.14.61.11-.19.58.59.64.08,1.09.05,1.49-.05.71-.06.65-.18,1.17-.17.73-.2,1.53-.35,2.27l-.31-.16c.23,1.36-1.34,1.55-1.69,2.06-.03.04-.19.69-.33.84-.2.21-.55.17-.65.33-.23.32.07.83-.43.57-.16.39-.89.15-.5.89l-1.1.16.16.47c-.77-.19-.77.45-1.09.69-.09.07-.77.06-1.06.2-.63.3-1.14.69-1.88.94-.64.21-1.25,0-1.52.67-.32-.18-.68-.43-1.02-.55-.22-.08-.46.06-.63,0-.49-.18-.96-1.02-1.2-1.17-.36-.22-.91-.02-.83-.77l-.16.31-.17-.28-.46.06-.15-.72-.29.13c-.05-.48-.51-.3-.66-.5-.24-.32,0-.56-.1-.84-.07-.19-.31-.33-.41-.51-.25-.5.18-.47.18-.54,0-.18-.17-.25-.02-.66.27-.73,1.07-1.15,1.84-.99.48.1.27.4.44.59.18.19.88.24,1.1.37.29.17.48.47.74.68.37.31.78.05.62.87.84-.26.49-.02.79.21.42.32.53.4,1.08.25l-.16-.31c.55.09.59-.45.63-.47.06-.03.86.45,1.25.15l-.47-.47c.28-.16.87-.08,1.06-.19.09-.05.11-.32.26-.44.49-.4.39-.41.57-.59.11-.11,1.81-.05,1.46-1.13l.7-.16c-.22-.79.61-.75.9-1.12.04-.05.52-1.09.52-1.15.07-.55-.45-.59.31-.93l-.62-.31c.42-.32.17-.78.27-1.13.09-.3.48-.59.48-.88,0-.34-.38-.38-.43-.53-.12-.36.02-.8-.02-1.03-.07-.34-.13-.8-.21-1.27-.09-.53-.49-.82-.51-.89-.16-.4.26-.2-.41-1.09-.27-.35-.41-.7-.88-1,.32-.15.37-.13.31-.55l-.47.09-.47-1.03-.47.16-.02-1.55c-.69.18-1.14-.91-1.59-1.15-.5-.27-1.74-.5-1.96-.64-.14-.09-.19-.42-.63-.53-.25-.06-.59.09-.85-.04s-.49-.85-1.29-.79l-.24.32-.32-.86.32-.24c-.57.26-.35-.32-.39-.32-.45.05-.06.3-.39.31-.14-.66-1.3-1.11-1.56-1.51-.11-.17-.4-1.43-.16-1.62-.77.11-.56-.55-.47-1.1l-.94-.16.3-.22c-.32-.6-.2-1.32-.15-1.96-1.14.03,0-.66,0-.72,0-.23-.28-.62-.32-.94-.06-.58.18-1.03-.18-1.71l.33-.38-.47-.08v-.15c.54-.59-.17-1.37.48-1.57-.28-.62-.49-1.05.11-1.56l-.58-.7c.45.06.17-.32.32-.66.33-.74,1.46-.94,1.26-2.14h.38s-.08-.32-.08-.32c.33.02.58,0,.89-.13.81-.31,1.27-1.77,2.08-.97v-.94c.8.25,1.32-.02,2.02,0l.18-.62c.05-.04.31.16.4.23Z"/><path d="M21.83,19.9l.7.32.15-.32c.39.27.83.68,1.33.47v.47c.22.02.44.03.63-.07.27-.14.19-.54.46-.55l.23,1.09c.36.36.47-.24.71-.31l.34,1.54.76.18c-.19.44-.16.72.16,1.09-.7-.05-1.47.98-1.41,1.56-.43,0-.93.08-1.32-.17-.31-.2-.28-.52-.45-.72-.6-.67-1.4-.1-1.79-.31-.25-.14-.19-.34-.21-.36-.04-.02-.38.22-.62.25-.95.11-1.5-.44-2.57-.25-.85.15-.53.06-1.11.05-.33,0-1.2.69-.86,1.2-.63-.23-1.14.53-1.49,0-.38.23-.06.44-.08.78-.89-.21-.7.25-1.09.56-.5.4-1.1.66-1.51,1.17-.3.37-.07.92-1,.78l.31.23c-.11.44-1.54.8-.47,1.57-.28.37-.51.48-.93.24l-.17.53.45.49c-.14.44-.7.3-.88.42-.11.07-.1.71-.21.94-.16.33-.73.88-.81,1.21s.26,1.1.16,1.34c-.12.3-.42.3-.57.5-.33.44-.44,1.64-.92,2.19l.29.27c-.02.5-.76,1.72-.77,1.88-.02.36.4.8.31,1.4-.05.33-.48.78-.62,1.11l.62.31c-.67.31-.64,2.88-.31,3.21s.25-.4.47-.31c.2,1.01-.15.97-.62,1.64l.78.24c-.22.4-.15.86-.63,1.01.38.19.29.46.38.67.02.04.25.04.24.11-.07.53-.94,1.03.16,1.57l-.48.48.33,1.32.47-.31c.35.5-.09.84-.1,1.02-.01.27.51.55.53.59.21.48-.25.85.82.43.04.36.06.95.24,1.25.15.25.43.26.51.35.05.07-.13.61-.03.76.09.14.91.68,1.01.89.18.34.09.81.18.96.04.07.97.41,1.15.5l.38-.32c-.09.44.26.15.39.3.32.37.28.33.55.58.12.11.48.63.51.64.24.09.82-.11,1.25.07.4.17.37.51.45.56.42.27,1.9-.06,2.25-.07.27,0,.85.49,1.23.42.1-.02.09-.26.14-.28.12-.07.31.12.44.04.15-.09.05-.55.7-.35.11.03-.01.3.28.26.72-.09.23-.56.26-.61.61-.16.86-.55,1.41,0v-.47s.47.16.47.16l-.16-.31c.34-.14.7,0,1.02-.14.69-.32.42-.75.7-1.03.13-.13.72-.28.93-.41l-.15-.45c.46.29.93-.15,1.17-.15.34,0,.61.45,1.02.15-.26.79.65,1.23.36,2.04-.15.4-.56.53-.69.84-.09.23.03.47,0,.53-.06.08-.34.12-.46.26-.12.14.02.37,0,.38-.18.14-1,.15-1.39.57-.15.16-.13.45-.19.51-.2.16-.92-.12-.75.66l.47.15c-.36.1-.6-.09-.7.32h-.31c-.23-.1-.12-.64-.54-.46l-.32.38.31.39c-.6-.14-.9.24-1.17-.47l-.16.32c-.54.06-.26-.51-1.31.09-.11.06-.14.28-.22.33-.27.15-.61-.11-.82.51l-1.27-.61-.15.31-.6-.18-.49.63-1.1-.93-.15.31c-.68-.44-1.43-.24-2.04-.94l-.23.31c-.2-.88-1.01-.51-1.49-.93l-.39.46c.07-.52-.67-.46-.75-.52-.14-.11-.31-.62-.58-.73l-.23.31c.06-.33-.39-.36-.45-.57-.06-.19.21-.45-.02-.61-1.14.21-.63-1.12-1.88-.7.29-.39-.11-.26-.15-.42-.26-1.01-.03-.68-.62-1.58-.26-.4-.01-.9-.93-.84-.2-.27.04-.86-.06-1.03-.03-.06-.4-.58-.53-.8-.38-.61-1.23-.97-.53-1.74-.17,0-.37.07-.48-.1-.28-.47.34-.99-.46-.84.58-.98-.17-1.5-.24-2.33-.02-.29.29-.57.04-1.02-.08-.15-.3-.15-.34-.24-.45-.89.59-1.85.22-2.82l-.62.31c-.36-.81.51-1.23.45-1.96-.02-.24-.27-.38-.29-.61-.02-.37.44-.63-.17-.79l.47-.71h-.47s.14-1.5.14-1.5l-.3-.14c.52-.19.29-.76.34-.83.06-.08.34-.07.42-.29.09-.26-.03-.66.17-.93l-.3-.13c.26-.73.88-1.13,1.05-1.94.2-.96-.6-.78-.58-.89.15-.42.67-.71.85-1.03.1-.19.45-1.7-.06-1.56l.57-.85-.28-.55.78-.16-.47-.62,1.09-.33-.3-1.07c.38.04.24-.38.4-.5.18-.14.52.04.53.02.04-.07-.09-.25-.07-.39s.16-.23.15-.4c0-.19-.26-.44-.21-.67.13-.66.91-.71,1.18-.93.12-.1.83-1.15.68-1.35h.46s-.47-.56-.47-.56c.19-.81,1-.41,1.23-.57.06-.04.42-1.27.52-1.35.17-.14,1.09-.19,1.36-.29,1.06-.4,1.73-1.48,2.53-2.01.35-.23.83-.22,1.23-.26l.02-.61h.78s-.16-.31-.16-.31l3.04-.27.56.42v-.62s1.03.47,1.03.47l.39-.47Z"/><path d="M56.54,21.21s.56.38.6.41c.17.13.19.46.33.49l.68-.09c-.01.86-.61,1.58-.44,2.46.08.41.62.23-.18.66.1.2.24.42.26.65.02.41-.3,1.5-.27,2,0,.04.54.2.27.69-.04.07-.33-.07-.26.18l.32.08c-.37.62-.73,2.2.31,2.03-.11.44-.08.82-.63.7.19.33.35.62.33,1.02-.01.3-.31.15-.35.46-.06.51.42,1.69-.3,1.81l.28.17-.13.29h.47s-.62,1.49-.62,1.49l.46.46c-.63.19-.54.86-.28,1.38.11.23.35.22.4.29.03.04-.14.57.03.74l-.62.17c.51.67-.1,1.12,0,1.62.02.12.32.04.34.33.03.56-.41,1.72.15,1.9-.39,1.16-.16,2.39-.63,3.43.32,0,.37.69.32.9-.04.18-.41.16-.44.33-.08.45.34,1.93.26,2.5-.04.3-.18.47-.3.72h.63c-.21.58-.55.79-.48,1.48l.48.08-.31.23c.53.54.65.86-.16,1.25,0,.05.8.43.59.78-.16.27-1.29.68-.12.72-.31,1.18-.17,2.11,0,3.28l.31-.08c.1.49-.52.77-.59.89-.04.06-.08.92.27.83-.59.5-.19,1.15-.62,1.73l.78.31c-.34.8-2.95.83-3.45.47-.14-.11-.03-.34-.14-.48s-.4-.18-.45-.26c-.22-.36.2-1.06.13-1.43-.02-.12-.26-.09-.29-.18-.07-.18.39-.99.25-1.41-.03-.1-.3-.01-.28-.29.02-.24.15-1.79.18-1.88.08-.24.69-.23.45-.88-.18.08-.79.14-.78-.15l.29-.07c-.28-.43.12-.65.19-1.1.12-.8-.34-.67-.33-.92.03-.52.63-1.09.6-1.4s-.48-.58-.13-1.04l-.63-.08c.55-.32.3-1.02.35-1.15,0-.03.41-.14.43-.42-.12-.05-.59-.59-.6-.63-.02-.06-.14-1.18-.14-1.29-.05-1.12.55-1.28.56-1.36,0-.1-.38-1.18-.38-1.41.01-.39.33-.78.35-1.22.03-.68-.37-.92-.38-.97-.16-.8.51-2.56.4-3.45-.01-.1-.25-.05-.25-.15-.02-.44-.2-.97-.19-1.09,0-.09.31-.08.37-.28.07-.22.32-1.44-.06-1.31-.15-.63.34-.58.48-.8.47-.73-.25-1.15-.39-1.7-.11-.41.51-2.71.49-3.57,0-.06-.08-1.04-.09-1.09-.03-.12-.31-.1-.31-.17,0-.25.4-.81.4-.95s-.38-.46-.09-.86l-.46-.08c.19-.45.09-.55.62-.63-.76-.86-.16-.97-.16-1.55,0-.53-.42-.55-.44-.59-.05-.11-.04-1.68.44-1.62l-.32-.31c.51-1.32.79-2.74,2.62-2.06Z"/><path d="M159.9,22.72l-.16.78.63.07c.33.22.04.85.05,1.18.04.9.27,1.78.18,2.75-.04.39-.54.55.23.7l-.31.16c.89.87.07,1.51.06,2.27,0,.56.53,1.96.53,2.21s-.47.71-.28,1.14l.47-.16c-.14.25.04.68,0,.83-.03.13-.91.5-.15.82l-.16.54h.47c-.21.51-.08,1.09-.19,1.61-.05.22-.35.4-.37.66-.02.35.31.88.09,1.33h.63c-.11.49-.64.75-.85,1.11-.4.69.05,1.28.05,2.1,0,.69-.67,2.27.32,2.12-.29.8-.22,1.91-.78,2.5l.47.08c-.05.35-.32.79-.33,1.1s.49.14.17.54l.47.08-.29.09c.37.65-.68.5-.24,1.08h.53s-.63.86-.63.86c.1.23.55.33.6.47.01.03-.11.68-.14.7-.08.06-.46-.31-.61.07.24.9.6,1.13.52,2.13-.07.83-.37,1.61-.32,2.45l-.36.35c.61,0,.41,1.04-.16,1.18l.3.14-.15.56.31-.16-.28,2.43.58.3c.01.62-.37.42-.56.6-.2.19-.24.6-.68.58l.31.62c-.5.27-.67-.03-1.06-.12-.87-.18-.39-.09-1.08-.5-.19-.11-.5-.04-.61-.15-.35-.35-.61-1.32-.23-1.74h-.63c-.1-.08.57-.76.61-.9.09-.35-.8-1.52.33-1.77l-.62-1.17.31-.23c-.51.03-.48-.82-.28-1.15.12-.21.41-.23.44-.36.04-.24-.24-.82-.24-.92.03-.38.41-.87.39-1.4-.01-.33-.32-.78-.26-1.13.07-.39.39-1.3.41-1.68,0-.12-.09-1.49-.13-1.55-.11-.18-.31-.09-.48-.1l.28-.6-.29-.11c.09-.39.34-.78.41-1.17.24-1.16-.24-2.13-.2-2.58.01-.14.33-.31.41-.5.24-.53.29-1.62-.13-1.84.23-.38.19-.69-.17-.95.72-.25.32-.62.47-1.17l-.47.08c.02-.87.45-.59.63-.7.06-.04-.21-1.24-.24-1.4-.06-.37.3-.72-.38-.79v-.15c.55-.07.93-1.98,0-1.72.51-.5-.18-1.15.48-1.33-.38-.62-.2-.71,0-1.33l-.62-.08.14-.47.64-.07-.32-.39.32-.16-.47-.33c-.1-.34.77-1.24-.32-1.16l.63-2.42-.63-.08c.26-.6.68-1.26.45-1.94-.03-.09-1.23-.96.02-.88.06-.42.01-.4-.31-.55.74-.98,1.81-.87,2.82-1.33Z"/></g></svg>