<?xml version="1.0" encoding="UTF-8"?>
<svg id="Layer_5" data-name="Layer 5" xmlns="http://www.w3.org/2000/svg" viewBox="0 0 841.92 616.1">
  <path d="M490.72,567.34c1.96,3.07,4.66,7.38,6.96,11.03,3.52,5.56,7.68,10.77,11.39,16.17-4.15,1.5-2.1,5.78-2.84,9.06-2,8.78-4.54,12.6-14.32,12.5-5.99-.06-6.64-5.47-8.81-8.74-13.63-20.66-25.96-40.76-39.03-61.8-75.16-121.12-153.74-243.55-229.99-365.44-3.35-3.44-16.51-24.17-15.37-27.54,3.66-1.49,4.2-5.85,7.15-7.92,4.26-3.01,12.76-4.58,17.25-1.44,9.28,6.5,29.43,41.53,36.81,53.21,77.69,122.87,152.66,248.37,230.79,370.94v-.02ZM490.38,608.24c.41.42,6.64,1.29,7.83.57,10.98-6.5,1.39-21.13-3.08-28.61-17.52-29.39-36.63-57.99-53.8-87.68l-144.24-230.01c-3.14,4.66-13.15,3.31-13.99,9.74l-2.64-.15c-1.64,1.71,4.5,11.14,5.72,13.22,4.38,7.41,9.84,14.31,14.37,21.63,52.96,85.34,107.91,170.8,160.93,253.96,4.66,7.33,9.33,13.63,14.29,19.96.79,1,1.79,5.89,2.92,8.02,3,5.65,7.13,9.83,10.25,14.96.77,1.26.68,3.63,1.42,4.38h.02Z"/>
  <path d="M530.01,543.26c1.6,3.27,3.79,7.87,5.66,11.74,2.86,5.92,6.41,11.57,9.48,17.36-4.29,1.01-2.74,5.5-3.85,8.68-2.98,8.5-5.94,12-15.64,10.8-5.95-.74-5.98-6.19-7.76-9.69-11.19-22.07-21.17-43.44-31.76-65.84-60.92-128.87-125.1-259.43-187.02-389.19-2.94-3.8-13.66-25.89-12.14-29.11,3.81-1.07,4.84-5.33,8-7.05,4.57-2.5,13.2-3.11,17.3.53,8.48,7.52,24.52,44.61,30.53,57.04,63.23,130.89,123.48,264.09,187.19,394.74v-.02ZM525.03,583.86c.36.46,6.45,2.03,7.72,1.46,11.65-5.21,3.78-20.83.19-28.78-14.07-31.18-29.81-61.78-43.5-93.22l-117.19-244.9c-3.65,4.28-13.44,1.8-15,8.09l-2.6-.44c-1.83,1.52,3.2,11.58,4.18,13.78,3.51,7.86,8.15,15.34,11.82,23.12,42.92,90.8,87.82,181.95,131.06,270.59,3.8,7.81,7.72,14.6,11.93,21.45.67,1.09,1.11,6.05,1.99,8.3,2.34,5.95,5.96,10.57,8.49,16.03.62,1.34.26,3.69.91,4.51h.02Z"/>
</svg>