<?xml version="1.0" encoding="UTF-8"?><svg id="Layer_2" xmlns="http://www.w3.org/2000/svg" viewBox="0 0 289.48 107.99"><defs><style>.cls-1{fill:#fff;}</style></defs><g id="chupe_de_camarones"><path d="M148.93,47.91c.02.55.13.67.6.96l-.59.96h.45c-.14.54-.21,1.02.15,1.49h-.45c.17.35-.05.59-.3.82l.45.3-.44.59.44.3c-1.19.59.44,1.97-1.04,2.16l.74.29c-.09,0-.22-.04-.27.07-.18.38-.73,1.88-.19,1.92l-.15.59.31.23c-.63-.03-.21.95-.31,1.24s-.68.08-.33.81c.08.17.3.16.33.28.08.3-.39,1.46-.25,1.66.06.09.65.17.39.6-.03.05-.28.06-.35.17-.22.34.33,2.08.07,2.6l.46.08-.45.82.27.14c.05.84-.61,1.59-.42,2.31l.29-.15c.29.56-.19.95-.24,1.3-.05.3.09.67.04.98-.05.28-.75,1.29-.09,1.07l-.3.82.45.08c.01.66-.37,1.05-.44,1.49-.01.09-.02,1.38,0,1.45.03.12.28.09.3.2.02.11-.03,1.09-.28,1,.2.43-.04.8.58.68v.15c-.4-.06-.17.18-.29.37-.13.21-.4.23-.46.61-.19,1.21.57,2.88-.44,4,.48.06.14,1.29,0,1.63-.16.39-.44.36-.57.63-.13.25-.03.65-.14.89-.15.31-.51.48-.6.75-.06.19.01.57-.04.63-.05.05-.64-.01-.85.19-.15.15-.16.82-.4.84-.23-.21-.66-.13-.84-.21-.38-.16-.34-.38-.46-.47-.06-.05-.28.06-.37,0-.33-.23-.6-.5-.49-.93l-.44.15c.04-.41,0-.71-.44-.76l.43-.63c-.07-.43-.9-.59-.43-1.28l-.74.15c.15-.29-.05-.9.03-1.12.03-.07.49-.07.27-.36-.05-.07-.5-.06-.68-.6-.14-.42.24-1.07-.2-1.54-.16-.17-.41-.06-.45-.1-.06-.05.06-1.24,0-1.55-.08-.43-.67-.7-.3-1.41l-.44.3c-.24-.68-.21-.61.29-1.04-.38.04-.19-.4-.44-.82-.15-.25-.27-.45-.58-.54l.27-1.17-.61-.09c-.28-.38.02-.75.02-1.01,0-.04-.42-.17-.41-.64l.41-.64c-.6-.24-.88-.97-.59-1.63l-.59-.23.11-.37.19-.08-.3-.16c.57-1.2-1.11-1.94-.89-3.04l-.29.15-.6-2.68-.29.15c-.09-.83.57-.79.46-1.56-.02-.15-.46-.68-.6-.52.16.43-.43.58-.45.69-.01.08.13.26.1.41-.17.79-.18.83.04,1.73h-.44c.11.4.42,1.12.37,1.51-.06.47-.6.97-.67,1.53-.1.72.23,1.05.25,1.35.02.27-.64.67.2.82-.24.3-.5,1.73,0,1.63v.14c-.4-.06-.17.2-.24.3-.51.7-.18.32-.35,1.09-.05.25-.13.26-.22.92-.02.16-.23.32-.24.6-.01.31.29.2.31.23.03.04-.22.28-.26.49-.05.27.23.56.22.62-.02.18-.41.28-.38.57.02.23.39.56.37.77,0,.15-.42.53-.47.81-.03.17.27.5.18.68-.14.29-.78.46-.37,1.23l.41.02c-.07.2-.19.38-.24.59-.14.73-.19,1.47-.21,2.15-.01.43-.38.6.15.74l-.3.67h.6c.06.25-.21.08-.27.22-.11.26.21,1.13.13,1.48-.77.17-.41.39-.62.73s-.64.45-.89.76c-.31.38.1.58-.87.52l-.17-.59c-.41.14-.58.3-1.04.15l.13-.43c-.53-.15-.91-1.82-.13-1.8-.89-.88.71-1.34-.6-1.7.34-.01.47-.68.42-.89-.02-.09-.28-.07-.27-.14.02-.28.46-.78.52-.98.05-.17-.18-.27-.16-.45.05-.38.43-.59.21-1.17h-.43c.23-.45.58-.8.44-1.34l-.43-.08c.36-.9,1.05-1.7.88-2.74h-.43c.1-1.15,1.21-1.56.61-2.92-.14-.3-.41-.33-.44-.43-.01-.03.04-.7.05-.74.12-.49.75-.9.82-1.49l-.3-.15.3-.22-.59-.22.86-.76c-.38-.61.33-1.64-.42-1.7l.44-.95-.44-.31.45-.74c-.52-.14-.22-.79.29-.82-.21-.26-.3-.61-.24-.94.09-.52.44-.23.39-.69l-.44-.07c.18-.29.16-.67.59-.67l-.3-.44c.53,0,.52-1.46,0-1.56.23-.23.4-.58.74-.37-.25-.84.81-.8-.14-1.26l.6-1.76-.45-.32.88-.54c.14-.43-.44-1.01-.44-1.24,0-.26.33-.38.42-.63.21-.59.35-1.49.57-2.16.18-.57.06-.75-.09-1.3l.36.14.08-.44c1.68.11,1.46,1.8,1.79,3.01.03.13.29.1.3.2.02.22-.21.5-.15.71.08.25.66.13.32.61l.19.21.37-.13c.16.41-.43.62-.38.9.05.31.46.33.52.53.1.35-.28,1.35.61.94l.16.66-.31.16c.7.51.51,1.62.62,2.34.03.18.22.35.24.53.05.36-.08.83.03,1.22l.44-.15c.09.07.28,1.89.41,2.19.16.36.6.55.72.86.11.28-.35,1.38-.23,1.76.14.41,1.16.45.58,1.44l.74-.15c-.23.65-.45,1.08-.15,1.78l.44-.3c.33.59-.23.95-.25,1.11-.03.23.44,1.09.56,1.34l-.3.15c.04.44.86,1.14.88,1.22.07.22-.14.52-.07.65.22.38.88.16.08,1.26.43.1.15.28.19.34.07.09.33.11.45.36.18.38.25,1.42.41,1.9h.59c-.84.83.02.94-.3,1.78.93-.34.77.23.44.81l.45.08c0,.07.01.15,0,.22-.03.62-.61.79.29,1.26.02-.35-.21-1.11-.11-1.41.02-.07.45-.25.49-.74.01-.15-.05-1.05-.08-1.17-.03-.13-.62-.01.15-.77-.65-.25-.58-1.26.15-1.48l-.27-.09.09-.26-.27-.09c.43-.2.78-.79,0-.67.28-.55.79-1.62-.15-1.71.67-.48.49-1.66.59-2.45h-.59c-.05-.51.37-.69.46-.96.19-.57-.06-1.03.14-1.56h-.45c.09-.38-.12-.72.3-.82l-.45-.3.28-.14-.13-.51.59-.24c.17-.37-.29-.39-.28-.43.05-.48.11-.98.17-1.46.03-.22.14-.45.26-.63l-.3-.14c.54-.58.09-.88.05-1.22-.03-.21.12-.46.11-.71-.01-.28-.22-.65-.17-.87.04-.16.39-.14.42-.31.02-.13-.19-1.44-.21-1.8-.01-.28.15-.84.11-1.01-.03-.12-.31-.09-.31-.17,0-.24.3-.36.3-.59,0-.35-.38-.94-.42-1.04-.11-.31.52-1.67.57-1.94.08-.44-.17-.83-.11-1.14.07-.36.51-.52.59-.77.12-.4-.13-.49-.1-.68.04-.25.39-.67.38-.95,0-.05-.44-.08-.35-.81.12-.97,1.38-1.4.94-2.55h2.37ZM134.52,62.02h-.3s-.15.59-.15.59h.3s.15-.59.15-.59Z"/><path d="M68.35,49l.74.86-.11.27h.6c-.03.53.09,1.07.22,1.56.13.45.64.55.07,1.11l.45.08c.12.58-.25.51-.28.59-.03.1.05,1.76.05,2.07,0,.83.24,2.08.23,2.67,0,.05-.57.23-.3.83l.3-.08c.5.52-.23.6-.28.69-.02.03.1.29.09.46-.01.19-.15.43-.12.62.04.22.62.09.61.39-.98.22-.32.96-.33,1.39,0,.26-.36.77-.27,1.18.04.18.44.2.45.33.02.16-.68.68-.17,1.16l-.42,1.14.74.15c-.67.97-.32,1.83-.36,2.81-.03.64-.2,1.51-.22,2.17l.29.13c-.37.39-.45.82-.45,1.34h.6c.1.5-.5.74-.57.84-.04.05.1,1.05.27,1.09l-.45.75c.41.12.25.32.16.67l.46.08c.12.83-.3,1.47-.41,2.26-.07.51-.15,1.31.4,1.44-.59.44-.38,1.65-.36,2.38.03,1.13-.07,3.22.28,4.32.08.24.39.31.39.73,0,.29-.27.85-.61.82.5.43-.12.56.15,1.03-.53.31-.9-.07-1.19-.09-.25-.02-.81.12-.94.07-.22-.08-.17-.47-.62-.42-.32-1.19-1.08-1.8-.53-3.02.06-.14.54,0,.14-.74-.07-.13-.3-.1-.29-.18.06-.27.45-.46.15-.97l-.29.15c.33-.65-.15-1.41-.08-2.01.03-.29.58-.75.38-1.11-.02-.03-.44.21-.56-.22,0-.37.55-.4.54-.71-.02-.44-.3-1.27-.87-1.15l.44-.29h-.45s.45-.67.45-.67c-.62-.17.02-.86.12-1.23.07-.27-.27-.61.18-.85l-.28-.14.43-2.08-.45-.08c-.06-.04.39-1.19.39-1.41-.01-.42-.77-1.2.06-1.26l-.29-.21.3-.67h-.44s.31-1.27.31-1.27l-.32-.29c.92-1.17-.35-2.29.6-3.34h-.59s.24-.18.24-.18c-.08-.34.25-.45.3-.71.14-.74-.49-1.04-.5-1.11,0-.04-.02-.84-.02-.9.04-.49.13-.66.56-.89l-.3-.14c.7-.74-.5-2.03.45-2.38l-.3-.17c.18-.69-.2-1.09.15-1.84l-.59-.07c.2-.47.2-.63.74-.74l-.41-.29c.23-.49-.15-.88.26-1.27h-.45s.3-.3.3-.3c-.65.08.11-1.14-.37-1.34-.52-.21-.24.22-.36.37-.27.34-.76.43-.87.56-.26.33-.82,1.18-1.02,1.63-.28.64.09,1.03-.89,1.14l.07.84-.29.13.3.37c-.08-.01-.19,0-.24.06-.27.38-1.15,1.95-1.18,2.31-.02.23.29.33.18.76-.08.3-.87,1.26-.89,1.6l-.24.03.29.29c-.5-.07-.4.74-.62.87-.12.07-.74-.09-1.09.07-.11.05-.04.27-.15.26s-1.47-.58-1.56-.67c-.29-.31.25-.38.3-.68-.19-.04-.61.08-.72-.02-.05-.05-.57-1.2-.58-1.26-.05-.46.29-.36.41-.64l-.3-.09c.39-.59-.32-.69-.42-1.06-.08-.29.18-.7-.19-1.06l-.27.13c-.23-.45.16-.72.16-1.12,0-.26-.72-.6-.31-.96-1.09.17-.72-2-1.05-2.22-.65-.43-.6.95-.68,1.14-.07.17-.31.16-.34.28-.09.39.09,1.35.07,1.55-.05.38-1.1.55.07,1.1-.61.47-.09,1.46-1.04,1.41l.43.16c.39.38-.73,2.35-.68,2.74.02.19.52.37.3.81-.18.37-.61.29-.06.89-.61-.05-.16.81-.21,1.19-.04.33-.52,1.72-.5,2.01,0,.11.55.61.33,1.28-.1.3-.36.27-.37.38-.04.27.2.55,0,.85-.16.22-.42.22-.44.24-.04.06.53.82-.15,1.26l.44-.07-.3.82.3.15v.3c-.72.22.15.82.14.88,0,.05-.27.96-.3,1.01-.06.14-.75.2,0,.48-.01.3-.6.72-.6.77-.02.16.12.37.1.55-.05.42-.13,1.74-.54,1.74l.28.16-.14.35c.3.07.32.39.19.65-.17.34-.43.13-.49.19-.04.04,0,.97-.05,1.22-.02.14-.21.27-.23.37-.03.19.23.32.24.42,0,.05-.5.57-.6.86-.22.67-.3,1.37-.46,2.03-.12.49-.3.97-.54,1.42.63.16.19.61-.3.37.49,1.5-2.19,2.86-2.09.52.01-.25.28-1.37.35-1.74.07-.41.55-.55-.18-.71v-.29c.72-.08.28-.49.34-.79.03-.17.23-.31.26-.61.04-.43.14-1.26-.31-1.34.55-.81.49-1.64.34-2.5-.11-.61.85-1.45.1-1.81.83-.74.82-1.08.43-2.06l.43-.31c-.24-.54-.19-1.94-.04-2.48.11-.38.48-.38.52-.53.08-.35-.27-1.06-.26-1.16,0-.06.53-.68.49-1.03-.02-.18-.27-.37-.3-.65-.05-.47.23-1.2-.23-1.28.92-.6.23-.74.32-1.15.07-.34.54-.58.56-.66.06-.25-.25-.61-.24-.83,0-.74.58-1.21.55-1.97-.01-.35-.12-1.09-.46-1.19l.59-1.1h-.28s.3-.53.3-.53l-.31-.29c.15-.94,1.68-2.46.6-3.12.08-.49.66-.73.73-.84.04-.05-.42-.86-.14-1.17l.29.15c.15-.58-.3-.47-.44-.6s.54-.32.69-.49c.25-.29.1-.9.49-.84l-.27-.37c.73-.47.51-1.54.89-2.07.26-.36.4-.08.55-.13.04-.01.33-.54.51-.6.32-.1.5.25.63-.25.25.4.55.09.96.22.7.24,1.14,1.21,1.8.97l-.11.27.26.11c-.48,1.01.39.93.76,1.32.09.09.21.74.27.89.28.71.88.96.16,1.56.53,0,.37.48.53.74.11.18.32.28.42.47.18.3.1.84.53.73-.34-.47.26-1.38.67-1.64.19-.12.36.03.37.01.04-.06.24-1.38-.15-1.26.18-.32.71-.28.89-.45.15-.14.1-.41.18-.49.15-.14.86.16.11-.7l.74-.22-.15-.29h.74c-.31-.57.52-.52.68-.74l-.09-.44,1.01-.18c.25-.39.13-.54-.12-.87.56-.12,1.1-.56,1.73-.69.48-.1,1.23.29,1.8.15Z"/><path d="M43.56.82v.43c.96-.2.37,1.03,1.19,1.06l-.02.28c-.77.1.12.87.15,1.15.03.32-.59.49-.03.52-.25.54.2.61.2.65.03.26-.2.42-.23.6-.16,1.05.45,1.86.46,2.84,0,.32-.26,1.13-.22,1.31.02.08.23.06.24.14.05.28.23,1.37.14,1.53-.03.04-.26.04-.26.11,0,.18.22.41.25.66.03.27-.1,1.17-.06,1.27.05.14.55-.08-.03.74l.3.29c-.71.55-.11,1-.14,1.71l.28-.14c.51.81-.04,1.46.01,2.36h.45c.09.08-.56,1.44-.57,1.71-.02.72.39,1.83.36,2.69,0,.2-.23.39-.23.44.01.13.35.15.41.29.17.4-.25,2.88-.12,3.54l.28.17-.13.38h.45s-.45,1.49-.45,1.49c.14-.25.53.12.55.23.18.72-.93,1.76-.04,2.56l.53-.11-.06,1.05-.53.21c.33.19.16.68.23.83.19.37,1.31.52.22,1.11.03.23.48.66.49.71.07.19.35,2.62.34,2.86,0,.2-.24.4-.24.44.01.16.57.19.44.37-.29.29-.92.31-1.1.43-.13.09-.11,1.35-1.12.67-.52-.35-.55-.21-.58-.23-.08-.05-.13-.53-.59-.45-.14-.49-.04-1.11-.1-1.49-.04-.27-.33-.24-.37-.37-.04-.16.21-.72.15-.99-.01-.05-.36-.58-.44-.61.54-.77-.27-1.32-.37-1.74s-.13-.53-.21-.79c-.08-.27.38-.91-.18-.82l.3-.44h-.45c-.08-.36.45-.66.42-.94-.02-.16-.22-.33-.25-.5-.03-.27.14-.54.12-.84-.03-.43-.43-.72-.31-1.12h-.43s0-1.42,0-1.42l.45-.08c.14-.39-.25-.26-.28-.37-.05-.22.33-.48-.17-.59l.3-.45-.26-.1.11-.27h-.45s.16-.66.16-.66l-.31-.23c.44.05.15-.17.2-.27.02-.04.19-.02.21-.11.04-.24.07-1.45.01-1.62s-1.08-.66.17-.83l-.6-.3c.13-.42.77-.96.17-1.11.15-.49.43-.95-.09-1.37l-.97-.04-.15.59c.05-.41-.2-.13-.45-.36-.1-.09-.12-.35-.16-.37s-.62.28-.88-.01v.45s-.53-.14-.53-.14l-.13.28-.53-.14v.58c-.53.12-.58-.04-.82-.43-.39.59-1.3-.08-1.12.74-.58-.15-1.7-.35-2,.3l-.45-.29c-.4.16.05.55-.09.72-.06.08-.35.05-.38.23-.02.1.12.28.08.43s-.56.34-.58.62c0,.08.25.04.27.14.12.48-.23,2.86.03,3.2l.59-.15s-.38.95-.39,1.11c-.01.36.37.56-.07,1.04l.31.16c-.34.72-.13,1.25.16,1.92l-.46.52.6.22c-.65.26-.49,1.56-.44,2.22.01.21.26.36.26.57,0,.58-.67,1.24.63,1.29l-.4,1.26.54.23-.44.95.28.1-.09.4.27.1-.37,1.27-2.55.71c-.38-.43-.7-.85-.22-1.32l-.44.15c-.22-.45-.08-.96-.15-1.39-.02-.11-.24-.1-.26-.17-.05-.23.05-.63-.16-.9l.42-.29c-.47-.35-.27-.95-.37-1.41-.09-.41-.72-1.32-.07-1.56-.47-.44-.04-.97-.03-1.49,0-.26-.06-1.1-.41-.97l.29-.44-.3-.07.3-.37h-.45c-.06-.66.8-.9.5-1.49-.22-.44-.72-.27-.2-.96l-.28-.15c-.07-.32.37-.63.38-.74,0-.1-.35-1.21-.34-1.55,0-.24.22-.32.23-.53,0-.06-.68-.3-.17-1.05l-.24-.09.11-.27-.45-.08.45-.6-.3-.07.3-.52-.3-.15.3-.15c-.43-.28-1.5-1.48-1.5-1.93,0-.6.67-.75.84-1.12.1-.23-.25-.5.22-.44v-.3s-.44.07-.44.07c.39-.3-.03-.75.57-.84-.28-.68.4-1.91-.72-1.91l.6-2.3c.08-.83-.62-1.71-.01-2.45-.33.14-.45-1.02-.45-1.28,0-.41.46-.65.46-1.1l-.45-.08c-.06-.47.52-1.07.57-1.36.02-.15-.32-.61-.19-1.09.15-.57.93-1.08.08-1.55l.6-.89-.31-.15.15-.38.44.15c-.26-.74.05-1.34.52-.45l.59-.59c.19.11.15.19.17.34.05.33.65,1.16.66,1.23.03.31-.27,1.83-.15,1.98l.45-.07c-.21.67-.3,1.35-.28,2.06,0,.32.23.66.24.94,0,.26-.36.84-.22,1.15.1.22.4.2.42.33.08.4-.46.92-.46,1.17,0,.19.24.33.24.45,0,.11-.26.21-.18.37.1.2.81.37.65.81-.03.09-.24.09-.31.26-.3.67.13.52.17.64.06.18-.15.86-.28,1.04.19.11.6,1.66.61,1.93.03.4-.62,1.68.06,1.72.32.02.7-.24,1.12,0-.24-.81,1.27-.82,1.78-.3l.03-.25c.34.17.39-.37.83-.46.58-.13.61.57,1.17-.16l.72.29.31-.61c.57-.16.99.41,1.26.39.5-.04.51-.43.62-.49.18-.1.41,0,.59-.07.51-.18.25-.41.31-.75.02-.12.19-.23.19-.34,0-.08-.14-.2-.17-.33-.13-.59-.08-.17-.29-.49-.27-.41.19-2.38.22-2.97h-.44c0-.29.22-.49.3-.67.18-.41-.48.11-.29-.29s.59-.61.45-1.17c-.03-.11-.31-.1-.3-.16.01-.12.42-.71.3-.82h-.45c.44-.68.36-1.34.6-2.08l-.59-.22c.51-.4.05-.95.45-1.48l-.45-.22c1.22-.48-.2-1.88,1.12-2.53l.81-.44Z"/><path d="M127.38.38l.38.4.52-.41c-.06.86.35.69.6,1.19l.22-.29.74.59.16-.31.57.17.15-.31c.4.41.67.54,1.19.74l.22-.49c.27-.52.9,1.33,1.11.34l.9,1.04.37-.59c.55.58-.17,1.17.82,1.34l.15-.31h.29c.07.19.3.29.38.41.26.38-.09.53.6.4.17.83,1,.89,1.4,1.28.31.3.2.67.29.85.11.22.58.32.64.38.1.11.36.78.49.92.23.23.55.08.57.1.07.07.67,1,.62,1.16l.29-.15c-.08.56.44,1,.59,1.3.13.28.57,1.65.74,1.88.12.17.37.05.46.1.04.03-.02.87-.44.74v.22c.91.35.31,1.17.48,1.89.08.36.52.59.54.64.03.11-.33,1.58-.57,1.71h.74s-.22.76-.22.76h-.37s0,.43,0,.43c1.1-.11-.11,1.07-.22,1.41-.13.39.14.54.22.74.04.1-.23.03-.29.18-.37.93.01,2.1-.18,2.75-.09.32-.66.68-.72,1.24l.45.51c-1.29.46-.69,1.93-1.49,2.75l.29.13c-.18,1.23-.92,2.1-1.4,3.22-.09.22.17.39-.29.67-.13.08-.36.04-.38.06-.05.05.34,1.36-.6.88.16.8-.36.61-.67.9-.36.35-.33,1.23-1.21,1.33l-.13.73c-.69-.34-.56.59-1.41.31l.15.59c-.41,0-.73.39-1.04.51-.17.07-.4-.11-.59,0-.15.09-.68,1.17-.75.19-.25-.43-.32.18-.36.18-.67-.62-1.12.46-1.22.46-.22,0-.51-.26-.73-.24-.15.02-.26.27-.56.21-.27-.05-.57-.44-1.09-.43-.49,0-.61.48-.86.44-.2-.03-1.12-.7-1.44-.8-.23-.07-.61.11-.88-.09.1-.27-.11-.48.28-.43v-.14c-.47.1-.24-.73.13-.81l-.13-.53-.29.15.14-.83.6-.14c-.29-.21-.31-.36-.15-.67l-.44.15c-.11-.14.26-1.19.23-1.41-.02-.18-.32-.36-.35-.61,0-.07.1-1.22.11-1.29.01-.05.52-.44.44-.92l-.44-.08c-.1-.6.36-.65.43-.83.17-.42-.48-.63-.44-1.08l.45-.15h-.45c.07-.81.44-1.67.16-2.47l.29-.13c-.44-.39-.08-.79,0-1.26h-.45c-.08-.52.35-1.26.14-1.67-.06-.12-.28-.12-.29-.21-.05-.41.39-.84.44-1.3.09-.79-.65-1.94-.13-2.68l-.32-.3c.01-.37.39-.6.32-1.02,0-.05-.43-.25-.45-.47,0-.1.23-.06.24-.1.08-.25-.02-.53.33-.79l-.42-.46.29-.5-.31-.09c.34-.78-.08-.75-.13-.91-.28-.88.2-1.51.1-1.89-.02-.08-.21-.05-.23-.14-.03-.19-.19-1.83-.16-1.92.09-.21.39-.18.42-.33.13-.81-.12-2.18-.11-2.92,0-.44.62-1.35-.19-1.45v-.14c.48-.05.59-.56,0-.6v-.14c.42-.1.82-1.16,1-1.6.09-.23-.02-.55.12-.77.07-.12.34-.16.44-.3.16-.25.02-.81.52-.73ZM131.25,4.83s-.79.13-.97.08c-.2-.06-.28-.29-.48-.35-.23-.07-.61.18-.86-.17l-.15.29.21.36-.43.46c.76.41.27.23.18.63-.01.06-.11.87-.11.91,0,.29.38.58.14,1.06l.68.14c-.02.31-.24.47-.32.8-.19.72-.06,1.53-.27,2.25l.44.07c-.23.34-.02.86-.06,1.12-.04.18-.29.25-.31.44-.04.29-.14,2.21-.06,2.29h.58s-.45.9-.45.9h.6c.08.5-.4.72-.42.77-.03.09-.18,1.67-.17,1.82,0,.1.28.07.3.18.06.33-.42,1.05.29,1.1-.56.67.1,2.09.09,2.75-.02,1.39-.61,3.43-.51,4.86.02.25.25.51.25.79,0,.38-.41,1.41-.44,1.8-.02.27.28.17.31.3.05.26-.1.51-.09.73.03.46.48.49-.21,1.1l.3.09c-.03.24-.2.8-.15,1,.03.12.26.08.27.17.02.15-.21.53.05.8.91,0,1.68-.2,2.51.32v-.43c.72.28,1.03-.41,1.12-.44.06-.02.36.16.52.05.21-.14.26-.41.46-.58.27-.23.55.14.45-.81l.57-.17-.29-.37c.17-.38.88-.29,1.01-.41.07-.06-.05-.5.32-.41l-.29-.22.31-.65.57.13-.27-.65c.47-.55.6-.99.57-1.73h.6c-.11-.25-.19-1.02-.12-1.23.11-.32.42-.3.57-.51.17-.23.23-.78.33-1.01.04-.1.23-.06.24-.09.02-.04-.3-.57-.25-.8.01-.08.2-.07.22-.15.13-.44-.05-.63.48-.91l-.13-.56-.45-.16c.14-.57-.01-1.47.89-1.27l-.3-.37.44-.3c-.14-.29-.65.35-.6-.15.04-.45.42-1.04.75-1.34l-.59-.15c.04-.21.41-.56.42-.59.03-.16-.2-.47-.2-.59,0-.21.17-.39.17-.6,0-.15-.2-.3-.17-.53.03-.27.37-.27.39-.38.07-.46-.43-.9.14-1.38l-.3-.07c.51-.49.06-.55-.03-.86-.16-.52-.4-.76-.41-.81-.11-.42.2-.78-.58-.8l-.02-1.17-.29.14c-.12-.4-.64-1.53-.93-1.74-.07-.05-.45.08-.87-.41-.85-.98-.74-1.39-1.96-2.09-.32-.18-.58-.05-.56-.81l-.59.15c-.05-1.04-.71-.92-1.54-1.05l-.24.31-.3-.89Z"/><path d="M98.22,49.88c.07.03-.03.39.34.25l.07-.45c.46.68.93.66,1.63.89l.37-.59c-.08.36.32.25.4.33.13.14.07.49.34.64.31.16.64-.17.95-.07.09.03,1.12.92,1.43,1.08.19.1.59,0,.71.13.05.05.36.99.54,1.25s.84.76,1.12.51c-.01.52-.18.87.17,1.31l.27-.12c.34.47-.07.76-.08.96-.01.15.3.62.35.93.05.29-.11.74-.08,1,0,.09.39.03.12.37l.41.03c.35.73-.09,1.34-.71,1.71l.2,1.48c-.11.3-.49.37-.65.56-.15.17.18.55-.73.52l.45.15c-.11.57-.05.85-.73.75.04.68-.41.81-.32,1.46h-.58c.32.85-.33.73-.65,1.04-.14.14-.06.38-.19.47-.17.11-.53.07-.63.16-.04.03.05.45-.31.78-.12.1-.51,0-.66.39-.08.21.26.4-.23.52.3.35.54.74.88,1.05.18.16.92.6.97.65.18.19.28.63.39.88l.72-.13c.18.54.4,1.27.7,1.75.15.25.66.78.94.48-.16.46.12,1.03.56,1.22l-.11.27h.45c-.42.99.82.75.6,1.63l.59-.3c.25.51.23,1.2.48,1.69.1.2.36.22.38.27.05.08-.28.69.63.72l-.3.67c.48.13.22.42.35.78.02.06.55.35.56.43.02.28-.2.49-.1.95s.59.73.39,1.18h.44c-.58.91.43.97.52,1.64.05.35-.14.63-.08.96.05.3.33.39.42.64.19.55-.14,1.37.78,1.38-.34,1.31-1.53,1.15-2.45,1.78-.1-.37-.99-.46-1.26-.15-.31-.47.03-1.02-.03-1.37-.06-.32-.96-1.5-.71-1.74l.44-.15-.73-.4.3-1c-.57-.29-.49-.41-.31-.98h-.45s.15-.45.15-.45l-.46-.09c-.19-.27,0-.7-.09-.92-.12-.27-.48-.31-.5-.43-.04-.2.14-.44.12-.58-.02-.12-.33-.18-.45-.4-.21-.36-.36-.88-.4-1.3l-.59.15c-.23-.46.06-1.17,0-1.53-.02-.11-1.22-1.38-1.39-1.63-.14-.21-.25-.45-.25-.71-.88.66-.81-.04-1.05-.73l-.28.14c.12-.39-.11-1.2-.31-1.54-.24-.4-.71-.47-.97-.73-.33-.33-1-1.94-1.46-.99-.51-.08-1.28-1.38-1.45-1.44-.22-.08-.46,0-.59-.05s-.18-.42-.56-.29l.43-.84-.28-.27c.08-.37.56-.45.67-.67.53-1.01.32-.46.93-1.07.26-.27,1.28-1.82,1.45-2.2.07-.16-.07-.37-.04-.41.09-.15,1.17-.52,1.27-.65.12-.15.07-.52.22-.67.12-.13.46-.1.53-.21.08-.12-.01-.41.1-.57s.43-.08.54-.24c.09-.13-.01-.43.06-.64.09-.26.61-.28.08-.68.65-.16.58-1.01.77-1.22.11-.12.51-.22.53-.41,0-.11-.27-.36-.27-.6,0-.41.67-.41-.08-.65l.08-.46-.44.15-.16-.8.31-.24c-.56,0-.59-.92-.78-1.15-.15-.18-1.34-.62-1.52-1.23l-.22.44c-.11-.29-.61-.89-.85-1.01-.84-.44-2.34-.68-3.25-1.07l-.29.3-.58-.3c-.8.58-.09,1.41-.02,2.01.05.41-.42,1.78-.37,1.86l.3-.07-.14.5.43.24c-.01.21-.44.43-.45.47-.07.58.11,1.5.08,2.06-.01.27-.51.2.23.61l-.31.72.44.08c.07.24-.22.11-.25.17-.05.1-.02.6-.19.78.86.35.12,1.32.04,1.91-.06.41.2,1.16.21,1.48.02.44-.47.97.34.85l-.3,1.49.75.07c-.4.11-.32.29-.3.67h-.6c.32.36-.02,1.12.44,1.04.05.28-.37,0-.29.36.07.3.4.37.43.48.03.12-.09.58.01.79h-.44c.42.68.02.92,0,1.26,0,.08,1.22.92.31,1.12.5.47-.01.78-.08,1.26-.03.2-.07.71-.06.89.01.52-.1.96.44.82l-.45,1.4.45.08c-.81.89.3,1.56-.3,2.37l.6.08-.44.6.29.07-.29.44.31.22-.45,1.35c.17-.02.38.61.4.76.04.21-.38.48-.27.63.02.03.29,0,.4.22.04.08-.15.64-.11.88.11.57.48.6,0,1.42l.74.3c-.48-.02-.09.62-.74.45l.3.22c-.22.55-.78.22-.87.26-.02,0-.02.23-.12.26-.65.16-1.42-.41-2.13-.29.24-.61-.07-.91-.23-1.44-.04-.14.03-.34-.02-.46-.1-.26-.52-.04-.18-.81.09-.21.37,0,.25-.6-.08-.43-.29-.5-.71-.56l.6-.96c0-.1-.27-.05-.28-.14-.02-.27.09-1.75-.02-1.87h-.6s.45-2,.45-2l-.45-.08.26-.17c-.21-.55.15-.51.18-1.01l-.44-.09c.12-.55.58-1.21.52-1.78-.04-.34-.47-.52-.49-.59-.05-.21.32-1.36.26-1.41l-.44.15c-.17-.75.36-.99.43-1.72l-.29-.15c.44-1.05-.49-1.67.31-2.66l-.15-.15c-.77.15-.44-1.51.31-1.49l-.31-1.85-.44.15.45-2.31c-.77-.3.31-1.21-.15-1.85l-.3.07.45-1.26h-.59c.11-.38.67-2.03.58-2.28-.04-.12-.29-.1-.3-.18-.03-.45.62-1.88.44-2.49-.04-.13-.33-.03-.29-.31,0-.05.27-.83.29-.87.09-.13.29-.1.3-.11.02-.04-.3-.5-.31-.82,0-.29.31-.13.32-.43s-.12-.73-.11-1.07.45-.66-.05-1.01c.87-.29.43-.45.66-.97.12-.26.68-.49.97-.45l.08.45c1.01-.2,2.11-.88,3.15-.4Z"/><path d="M35.85,51c.06.03.35-.22.5.02s-.02.69.29.9l.15-.3c.77.27.27.82.38,1.38.04.19,1.26.77.74,1.45l.29-.15c.04.69.58,1.45.3,2.08l.74.15c-.57.64-.23,1.21-.31,2l.45.09c-.18.29.11.59.09.81-.02.24-.37.58-.34,1.02.06.7,1,.77.55,1.58h.74c.06.25-.21.11-.25.17-.04.06.06.27-.04.46s-.48.3-.44.94c.03.41,1.3,1.61.58,2.59h.45s-.44,1.12-.44,1.12c.22.36.42.11.74.08-.03.7-.19,1.59.01,2.26.04.12.65.7.69.77.13.27-.19,1.12-.55,1.27.55.14.67,1.42.59,1.93l.3-.15v1.39s-.29.24-.29.24c.43-.01.43.74.15,1.04.34-.06.54.05.57.41.05.6-.65.45.17.85l-.3.45.27.14-.12.97.59-.3c-.12.37.11.71-.3.97.73.33-.26,1.84,1.04,1.71.08.37-.43.81-.41,1.09.02.45.73,1,.42,1.59l.59-.15c-.15.68-.9,1.99.15,2.15-.27.8-.69.34-.87.4-.06.02-.84.72-.69.86l-.15.15c-.55.12-.64-.4-.69-.42-.16-.06-.72.38-.9-.45-.36.26-.4-.3-.59-.6l-.27.13.44-1.56-.74-.22.15-.59h-.45c-.09-.4.55-1.03.55-1.11.03-.36-.42-.88-.85-.67v-.74s.45-.15.45-.15c-.63.02.19-1.31-.89-1.19.34-.19.31-1.47.11-1.61-.1-.07-.32,0-.4-.04-.04-.02-.14-.93-.13-.98.09-.42.51-.42-.01-.56.27-.74-.12-1.46-.26-2.16-.04-.22.1-.54.06-.65-.06-.2-.39-.17-.42-.34-.08-.35,0-1.09.45-1.16l-.66-1.11-1.49.74-.14-.3c-.72.13-.41.32-.54.58-.03.06-1.21,0-1.41.04-.09.02-.07.26-.16.27-.34.05-.63-.33-.88-.31l-.17.31h-2.29s0,.73,0,.73c-.25.06-.1-.21-.16-.27-.04-.03-.63.1-.96,0s-.06-.44-.66-.17l.59.67-.44.37.45-.07c.11.64-.61,1.3-.81,1.84-.07.2-.47,1.73-.49,1.89-.07.57.45.66.41.86-.13.65-.57,1.54-.71,2.13s.09,1.9-.07,2.6c-.33,1.48-.94,2.93-1.55,4.16-.05.09-.09.7-.27.7-.92-.27-1.32-1.16-.81-1.99l-.31-.16c.19-.2.33-1.32.27-1.49-.03-.08-.27-.06-.27-.16-.01-.24.29-.8.31-1.19.02-.62-.5-1.25.29-1.11-.5-.84.18-1.69.13-2.46-.02-.25-.32-.41-.29-.73,0-.06.95-.43-.28-.68.14-.2,0-.47.05-.63.14-.5.58-.59.66-.8.13-.36-.28-.92-.24-1.13.02-.14.24-.28.27-.49.06-.4-.4-.73.29-.81l-.22-.6h-.37c.13-.15.18-.8.22-.88.07-.1.29-.11.33-.18.07-.11.42-2.3.41-2.43,0-.45-.53-.76.36-.96.06-.23-.21-.09-.31-.25s-.02-.45-.14-.64l.45-.15-.43-.21,1.02-1.37c.02-.47-.4-.68-.42-.73-.05-.17.53-1.27.61-1.68.05-.23-.04-.99,0-1.03.03-.05.28-.08.38-.28.35-.73.13-1.19.48-1.83l-.45-.3c.67-.08.18-.92.89-1.27l-.3-.29c.7-.3.16-1.26.74-1.27-.52-.5.1-1.01.3-1.56,0-.26-.62.07-.44-.29.22-.46,1.46-.41.74-1.63l.6-.23-.23-.59.67-.31-.29-.73c1.05.01,1.01-1.15,1.78-1.56l-.29-.37h1.04s0-.45,0-.45l.65.16.15-.3c.37.24.9.18,1.26.37.32.17.43.61.48.63ZM34.49,55.18c.53-.54-.12-1.8-.75-1.12-.22.23.04.69-.02.88s-.33.19-.43.34c-.09.13.01.38-.07.49-.12.15-.36.15-.45.36-.18.45.19,1.72-.65,1.94l.59.22c-.43-.08-.12.26-.29.37-.11.07-.35.04-.42.11-.2.21,0,.86-.03,1.06-.02.08-.51.19-.3.7l.44.07c-.64,1.24-1.4,1.9-.76,3.39-.93.7-.42.48-.33,1.1.01.07.02.83,0,.86-.15.32-.85.37-.57,1.08l-.27.17c.4-.15.23.55.14.78-.04.11-.28.12-.3.22-.05.34.29.72,0,1.09l.45.15c-.32-.01-.46.3-.44.6.81.17,1.15-.63,1.78-.3v-.45s.89.15.89.15l-.15-.59c.68-.11,1.16.52,1.63,0,.17.89.32-.06.43-.21.08-.1.27-.08.4-.16.06-.03.06-.21.13-.21.2,0,.6.24.89.13l.08-.46h1.34c-.33-.42-.03-.82-.02-1.12,0-.08-.78-.69-.33-1.34l-.56-.58c-.04-.35.13-.49.45-.52l-.45-.3.45-.81c-1.09-.36-.76-1.26-.47-2.14-.91-.29-.27-.72-.3-.96-.04-.31-.55-.58-.56-.65-.06-.28.27-1.33.22-1.55-.12-.6-.77-.53-.82-.58-.06-.06.45-1.38-.16-1.43l.16-.65-.6-.15Z"/><path d="M55.3,1.41c-.15.41.35.47.38.73.02.18-.18.29-.16.47.03.34.4.72.39,1.11l-.31.29c.37.38.68,1.25.44,1.74-.06.12-.29.13-.29.18.02.18.33.54.39.78.09.39-.21.97-.19,1.16.02.17.35.3.38.46s-.37.51-.35.96.19,1.81.81,1.62l-.6.66c.16.31.2.44.6.38.07.39-.55.94-.54,1.11.02.25.35.46.09.82l.44-.15s-.04.45-.07.52c-.3.78-.38,2.05-.38,2.97,0,.66.92,1.5.15,2.29l.45.08c-.13.68-.03,1.37-.04,2.05,0,.14-.21.31-.21.48,0,.18.33.81.25,1.16-.04.19-.37,0-.3.24h.59s-.17.73-.17.73l-.41.03c-.09.35.27.46.27.5,0,.3-.34,1.25-.27,1.48.06.2.43.19.45.33.03.19-.2.48-.17.7.01.1.28.08.31.19.05.24-.08.57.03.76.04.08.36.1.41.26.08.27-.24.45-.24.59,0,.18.37.57.1.96h.52s-.03.42-.03.42l.24.09c-.33.48.04.81.09,1.28h.37c.14.53-.25,1.25-.04,1.73.17.39.59.44.76.74.11.2.09.5.18.68.11.2.56.33.44.86l.22-.11c.29.53,1.01-.2.82.85l.22-.3.24.44c1.11-.11,1.18-1.52,2.07-1.63l-.45-.37c.62-.32.16-1.36,1.04-1.26-.22-.28-.28-.39-.15-.74l-.45-.07c.32-.3.25-.74.38-1.11.04-.11.23-.2.28-.32.14-.32-.05-.75.54-.96l-.2-.91.64-.34c-.54-.52.08-.62.15-1.18l-.59-.15.27-.16-.12-.27.59-.17v-1.18s-.59,0-.59,0c-.14-.1,1.41-1.43,0-1.19v-.59s.74,0,.74,0c-.49-.56-.2-1.42,0-2.08h-.59c-.06-.25.19-.08.26-.22.06-.13.21-1.19.19-1.32-.02-.12-.31-.04-.32-.31-.02-.5.53-1.17-.28-1.27l.28-.16c-.51-.79.23-1.54.24-2.14,0-.25-.29-1.28-.39-1.6-.04-.12-.64-.31.16-.78v-.22s-.45-.22-.45-.22c.28-.48.5-1.65.29-2.19-.06-.16-.49,0-.08-.66.05-.08.36,0,.24-.34-.68-.14-.66-.88-.15-1.27l-.3-.16.31-1.7h-.6s.6-1.11.6-1.11c-.35-.07-.49-1.39-.39-1.72.07-.22.15-.31.38-.29v-.29s-.27-.07-.27-.07c.04-.54.18-1.32.86-1.28l-.09-.81.17-.22c.68.45,1.17-.17,1.7.3l.15-.3.23.44.52-.44c.32.52-.06.72-.1.99-.03.19.11.46.11.71,0,.53-.2,1.2.44,1.42l-.26.16-.43,2.14.38.09.16,1.02-.59.17.12.66-.27.14.16.51.57.02c.06.25-.24.08-.28.22,0,.04.1.24.08.37-.05.23-.23.45-.21.65.03.33.43.48-.03.99h.43c.3.88-.63.35-.41.94.26.7.68.05.72.1,0,.42-.41.72-.44,1.13-.02.31.17.6.12.84-.04.2-.35.38-.36.63-.02.42.37,1.68.36,2.38s-.73,1.48.63,1.63l-.28.09.14.49c-.84.5-.3,1.97-.38,2.6s-.6.73.36.92l-.6,1.54.31.15c-.93.73-.22,1.36-.3,2.08-.02.21-.24.36-.27.6-.13.96.09,2.06-.47,2.83l.3.22c-.81.13-.45,1.03-.53,1.5-.09.56-.59,1.18-.66,1.77l.45.07c-.18.68-.65.56-.88,1.05l.29.36c-.38-.08-.23.33-.39.46-.1.08-.37.05-.47.17-.21.24.13.7-.31.78.4.54-.45.93-.89,1.15v.49s-.39.23-.39.23l-.09-.27c-.56-.12-.51.76-.87.94-.38.19-.89-.02-1.24.07-.12.03-.08.31-.17.3-.22-.01-.33-.24-.47-.26-.49-.06-1.3.43-1.24-.49l-.44.53-.35-.08c-.26-.19-.31-.84-.61-1.06-.43-.31-1.07-.09-.98-1.18-.4-.06-.41.46-.67.15-.21-.25-.26-.77-.52-1.08-.19-.22-.73-.38-.76-.51-.05-.25.15-.55.04-1.03s-.85-1.49-.85-1.67c0-.31.23-.47.23-.68,0-.09-.23-.06-.26-.16-.23-.58-.36-1.21-.79-1.5l.11-1.93-.41-.29.3-.07c.08-.25-.25-.39-.25-.52,0-.11.29-.29.26-.59,0-.06-.45-.7-.53-1.05-.14-.68,0-1.46.01-2.07,0-1.02-1.37-2.32-.53-3.42l-.27-.09.12-.34-.3-.09c-.02-.24.22-.06.33-.35.06-.18.23-1.67.19-1.87-.11-.5-.49-.76-.49-.81-.01-.51.47-.66.42-1.12l-.74.15.3-.22-.3-.15c1.09-.75-.1-2.04.59-3.19l-.6-.08c.79-.34.4-1.11.47-1.79.04-.39.29-.7.26-1.32-.02-.33-.56-.6.16-.9-.39-.35-.64-1.22.15-1.12v-1.03s-.44,0-.44,0c.12-.43.48-1.8.44-2.17-.06-.56-.51-.54.16-1.03l-.03-.2c-.37-.02-.28-.29-.26-.61h.44s-.3-.23-.3-.23c.33-.38.49-.74.46-1.25.54-.28.82.3,1.32-.02Z"/><path d="M121.25,50.18s.14.43.63.25c.02.67.09,2.29,1.04,1.78,0,.4.01,1.01.16,1.36.07.17.54.42.55.45.07.21-.11.42-.05.57.07.16.41.2.52.4.28.51-.23.96.59,1.3v.29s-.29.15-.29.15l.74.22-.16.5c.53.19.19.65.01,1.05l.45.08c.18.42-.25.89-.27,1.14-.01.18.38.75.41,1.18s-.4.73.15.87l-.13.38.59-.15-.18.72-.41.03.3,1.78.44-.15c.03.33.13.78-.02,1.09-.14.27-.43.15-.42.4h.74c-.41,1-.58,1.74-.44,2.82l.29-.15c.1.56-.12.8-.44,1.19l.45.23v.3c-.73.35.21,1.81-.59,2.23l.45.15c.19.55-.94,1.37-.15,1.41l-.3.37c.55-.02.16,1.51,0,1.76-.11.18-.37.21-.4.27-.05.07-.15,1.58-.14,1.71.05.61.61.63-.49,1.03-.07.39.06,1.45-.02,1.75-.05.19-.31.2-.42.35-.22.32-.46,1.21,0,1.3l-.3.45.3.14c-.18.22-.28.52-.52.68-.2.14-.82-.09-.22.73h-.45s.09.9.09.9l-.53.14.59.15c.07.23-.02.2-.09.3-.09.12-.8.75-.8.82l.44.37c-.18.05-.8.23-.86.33-.16.25.14.79-.63.71l.12.27c-.83.51-1.75.56-2.65.17l-.07.45-.67-.3.15-.44c-.35.02-.81-.17-.75.29h-.14c-.11-.36-.44-.4-.3-.89l-.26.11-.75-.72-.03-1.17-.59.15.15-.44-.44.15c-.22-.25.01-.97-.02-1.02-.31-.44-.48-.19-.69-1.18s-.31-.74-.5-1.29c-.25-.73.06-1.27-.06-1.79-.14-.64-.67-1.09-.24-1.92l-.73-.24c-.06-.24.2-.1.25-.17.05-.07-.08-.44.08-.55l.42-.02c-.26-.28.03-.94-.03-1.12-.03-.09-.74-.1.18-.59l-.07-.22c-.99-.29-.02-1.15-.67-1.41l.59-.97-.59-.08c.58-1,.99-2.05,1.04-3.19h-.45s.45-.82.45-.82l-.3-.16v-.42c.04-.14.48-.06.6-.3.21-.45-.31-.27-.3-.52.11.01.25.03.29-.11.18-.56.36-1.63.14-2.19l.31-.16v-.22s-.31-.09-.31-.09v-.27c.02-.36.51-.51.58-.78.1-.4-.44-.76-.13-1.28.06-.1.3-.09.3-.19,0-.39-.23-1.12.3-1.33l-.29-.71c.53-.43.69-.63.88-1.29l-.44-.23c.73-.53,1.13-.88,1.3-1.82.06-.34-.37-.71.33-.78l-.45-.15.07-.45.53-.14-.28-.8c.51-.34.54-.84.78-1.24.09-.16.56-.14.4-.64l-.3.07c.1-.87-1.21-1.99-.3-2.52l-.44-.37c.46-.39.68-.05.9-.07.29-.03.62-.33.83-.35.28-.02.8.5,1.02.51.24,0,.58-.42,1.07-.19ZM120.55,55.78c-.27-.19-.65.52-.6.8,0,.04.5.15.26.74-.14.34-.53.48-.62.7-.1.23.07.46,0,.59-.12.23-1.04.56-.53,1.26l-.28.15.13.29-.28.07.42.49c-.06.58-.54,1.11-.72,1.52-.2.46.64-.15.44.29-.06.14-.65.74-.59.82.03.04.77.19.26.57-.1.08-.36,0-.41.03-.09.06.27,1.7-.29,2.01l.6.15c-.09.28-.07.7-.44.67v.29s.29.07.29.07c-.05.62-.45.46-.6.62-.62.71-.25,1.72-.34,2.48-.11.96-.42,2.19-.53,3.16-.03.25.1.53-.01.81l.45-.07c-.17.46.27,1.05-.45,1.11-.06.25.2.09.26.17.04.05-.25.25.18.35-.31.6-.53,1.38-.29,2.05.14.38.33,1.22.24,1.8-.04.26-.29.41-.25.69h.45c-.5.71.29,1.5.58,2.31.13.35.08.71.17.99.05.16.47.07.16.48l.28.15.29-.37.52,1.04c.41-.22.35-.89.82-.89l-.29-.21c.18-.38.06-.63.58-.53l-.3-.22c.03-.66.66-.89.87-1.14.03-.04-.1-.53.06-.91.17-.43,1.02-1.15.12-1.45-.04-.24.39-.17.52-.44.2-.4.22-1.21.29-1.62.04-.28.29-.52.25-.84l-.31-.29.43-1.36-.29-.14.3-.15-.3-.15.73-1.11c-.65.05.08-.91.1-1.27.01-.28-.2-1.12-.19-1.52,0-.55.3-1.1.39-1.62.15-.85-.75-1.56-.14-2.22l-.29-.13c.17-.33.02-.63.43-.75-.7-.46-.12-1.3-.19-1.66-.08-.44-.51-.84-.26-1.39l-.44.15.15-1.34h-.45s.13-.38.13-.38c-.73-.2.13-1.38.11-1.63-.03-.41-.62-1.18-.66-1.79-.01-.19.15-.42.13-.57,0-.07-.57-.33-.74-.64-.23-.43.17-.62-.38-.79l.06-.3Z"/><path d="M82.96,50.57l.71-.13c.26.32.29.95.46,1.22.1.16.7.61.96,1.01.57.88.72,1.66,1,2.56.04.12.59.48.28.99h.45s-.12.44-.12.44l.27.02c-.71.61.26,1.3.29,1.43.03.15,0,.8.03,1.03l.43.07c.07.24-.22.1-.25.17-.23.47,0,.88.07,1.28s-.2.36.3.86c-.05.32-1.16.33-.2,1.11l.22-.3c-.1.25,0,.8-.03.96-.02.09-.22.06-.25.18-.07.29-.02,1.3.05,1.58.12.49.52.82.53,1.34l-.3.24c.54-.15.07,1.44.15,1.48h.45c-.23.34-.03.65-.07.97-.02.15-.27.32-.24.59,0,.08.27.06.28.15.06.37-.43,2.52-.27,2.6l.59-.15v.74s-.45,0-.45,0c.59.52.06.75.05.97,0,.07.54.77.55,1.2,0,.32-.25.45-.26.69-.03.5.51,1.18.11,1.74h.44c-.18.83-.26,1.88.07,2.68.12.28.3.26.36.41.28.63-.31,3.43.47,3.98l-.46,2.14-.59-.15-.08.46c-.56-.03-1.18.12-1.63-.31l-.15.3c-.53-.35-.14-.8-.15-.96-.01-.21-.14-.38-.16-.59-.03-.51.4-.84-.43-.98l-.23.31.45-1.11-.45-.23.3-.24-.02-.49-.44-.09c-.05-.46.02-.76.31-1.11-1.05.18.05-1-.15-1.19h-.6c-.06-.46.45-.78.46-.83.02-.38-.4-.51-.42-.58-.06-.18.35-1.64.26-1.71-.36-.26-.21.36-.44.29v-3.46c-.79-.35-.21-.7-.31-1.05-.05-.19-.35-.17-.42-.31-.07-.17.32-.92.42-1.11h-.59c-.07-.24.21-.11.25-.18.03-.06-.06-.27.03-.4-.52-.1-.93-.41-1.46-.15l-.02.58c-.39-.34-1.28-1.13-1.19-.15h-1.04s.15.3.15.3l-3.33-.31c-.05.43-.45.55-.54.71-.37.6.2,1.78-.44,1.83l.28.22-.57,2.24c.7.23.07.86-.03,1.31-.12.51-.11,1.18-.26,1.72l.44.08-.45.6.3.14c-.71.61-.37,1.1-.5,1.72-.08.39-.43.69-.54,1.11s.54-.11.3.3c-.18.3-.63.63-.78,1.02-.14.36.06.67-.05,1-.13.4-.64.79-.65.84-.04.19.06.52-.02.62-.1.12-.59-.1-.5.47-.23.08-.45.18-.71.12-.7-.17.1-.98-.55-1.09.66-.46.42-1.66.49-2.35.01-.13.23-.31.26-.61.1-.84-.3-2.14,0-2.95.05-.14.75-.18-.02-.49.38-.52-.63-1.48.31-1.25.17-.55-.37-.51-.44-.61-.06-.08.56-.89.44-1.38-.03-.11-.31-.1-.31-.18,0-.33,1-2.25,1.05-2.74-.29.13-.42.03-.59-.24.49-.53.24-.6.29-1,.02-.13.42-.03.31-.47-.01-.05-.27-.06-.3-.17-.14-.53.81-1.72.75-2.2-.01-.09-.27-.06-.28-.15-.06-.38.26-1.33.2-1.74-.09-.54-.65.12.01-.91.05-.07-.04-.25.05-.34.2-.2.54-.15.61-.32.22-.51-.19-1.1.3-1.53l-.45-.08c.3-.18.18-.49.29-.71.05-.1.28-.11.31-.18.22-.54-.29-.16-.45-.44.35-.23.15-.72.25-.93.13-.27.41-.29.46-.37.05-.09-.1-.29-.04-.41.1-.2.41-.41.51-.67l-.59-.37c.41.01.36-.6.72-.82l-.27-.37.67-.3-.07-.65.3-.24-.44-.08c.62-.24.26-.94.38-1.12.13-.2.42-.22.52-.41.17-.32-.1-1.21.44-1.59l-.44-.22c.45-.06.32-.58.87-.31.22-.56.45-.7-.13-1.11l.74-.45-.29-.29c.35-.22.41-.84.58-1.03.1-.11.26.04.37-.08.42-.47.24-1.11,1.24-1.32.41-.09.79.29,1-.33.48-.06.58.35.68.74ZM82.63,54.01c-.12-.08-.6-.04-.77.01-.67.21-.7,1.63-.96,2.16-.09.18-.32.18-.34.29-.07.33.12.67.09.87s-.54.41-.39.81l.45.07-.89,1.04.44.15-.58.39.12.56-.28.16.26.03c.14.47-.8,1.17-.81,1.39,0,.16.39.74-.2,1.19l.3.14-.74,2.21c.56.16-.16.96-.25,1.53-.02.15.09.36.08.55-.02.39-.35.81.09,1.13l.17-.31h1.54s-.15-.58-.15-.58c.22.15.58-.07.71.02.08.05.07.35.24.38.04,0,.64.02.76.02.08,0,.04-.23.16-.26.1-.03.46.11.65-.01l-.15-.29,1.19.15-.15-.44c.45.05.98-.23,1.11.3l.52-.3c-.64-.35-.07-1.41-.15-1.48-.09-.08-.45.27-.51-.42-.03-.43.12-.72.36-1.06l-.56-.55.41-.87c-.45-.13-.34-.36-.16-.75l-.29-.13.27-1.47-.71-.24c.33-.64-.22-1.4-.1-1.98.07-.33.45-.61.35-1.06l-.55-.22c.07-.32.2-1.26.16-1.53-.02-.12-.27-.11-.31-.21-.1-.22-.34-1.28-.46-1.36Z"/><path d="M79.49,1.02c.25.15.82.26,1.29.25.1,0,0-.29.3-.31.45-.03.88.19,1.23.27s.96-.24,1.08.49l.29-.44.45.74.44-.44c.13.43.51.6,0,.96l.15.15c.3-.07.43.06.45.37l.23-.3.52.08v.67c1-.31.5.53.61.72.08.14.69.38.87.18l.02.72.87.17c-.49,1.07,1.22,1.11.74,2.08l.45-.08.17.66.42.02-.15.43.58.41c-.38.63.07,1.45.03,2.19l.57.32c-.6.48-.26,1.11-.41,1.83-.1.49-.35.91-.43,1.32-.09.44-.16,1.16.38.95l-.02.41c-.87.17-.39.34-.5.62-.09.22-.54.41-.36.89l.44.15c-.35-.06-.47.14-.68.36-.68.72-1.19,1.83-1.76,2.42-.21.22-.63.37-.69.43-.14.17-.17.61-.33.76-.23.21-.66.1-.82.22-.1.07-.14.5-.4.71-.73.61-2.01,1.01-2.72,1.22-.04.01-.49.47-.56.56l-1.1-.3v.74c-.23.05-.11-.2-.25-.3-.51-.38-.37-.4-.59-.6-.38-.33-.94-.1-1.18-.28-.37-.27.22-.71-.36-.61l-.3,1.33.74.08-.59,1.71.45.07c-.82.82-.75,1.45-.29,2.45l.59-.15c-.28.55-.58,1.06-.6,1.7l.43.09.03.65-.44.09c-.25.63.36.55.43.95.07.37.12.97-.3,1.04l.61.31c.09.32-.16.75-.12,1s.62.68-.04.7v.29s.27.07.27.07l-.43,1.04c.68.18-.01,1.33.6,1.27v.14c-.42-.07-.14.23-.29.37-.31.29-.93.53-1.35.44l-.16.51-1.17-.13.15-.59-1.19-.15c.09-.61.09-1.06.55-1.56-.77-.68-.35-1.14-.25-2.07l-.3-.16.3-.52-.44.15c.25-.39-.25-.74-.3-.97-.01-.07.23-.05.29-.18.25-.55-.31-.96.16-1.45l-.27-.14c.3-.65-.05-1.29-.05-1.79,0-.4.28-.7.28-.75,0-.07-.52-.49-.41-.87.04-.14.4-.04.29-.32-.55-.46-.81-1.02-.15-1.49l-.28-.29.21-.6c-.04-.17-.19-.98-.19-1.04,0-.16.36-.29.37-.44,0-.03-.13-.54-.16-.64-.21-.82-.4-2.43-.48-3.51-.03-.45.43-.89.39-1.19-.01-.08-.26-.07-.27-.1-.06-.15.36-.38-.18-.49,1.07-1.19-.02-2.32.59-3.58l-.26-.09.1-.4c-.4-.07-.32-.23-.43-.54l.44-.15-.45-.07c-.1-.44.37-.81.42-1.15.07-.47-.5-1.16.01-1.81l-.43-.24c.5-.36.08-1.44.59-1.41l-.44-.15.45-.96-.45-.08c.15-.61.84-1.41-.15-1.56l.44-.75-.3-.07.3-.37-.3-.17c-.16-.55.3-.48.47-.86.23-.53-.26-2.3.93-1.86l.17-.31c.37.48.64.04.75.04.14,0,.31.48,1.04.42.38-.03.48-.91,1.08-.56ZM81.73,4.41l-1.16-.03.15.59c-.57-.05-.93-.13-1.41-.45l-.15.3-.45-.3-.37.38c-.1.43.23.33.27.43.08.23-.23,1.65-.22,2.06,0,.35.32,1.14.24,1.63l.6.17c-.44.1-.14.32-.33.65l-.41.02.45.82c-.36.37-.29.63-.46,1.11h.45c-.59.6-.18,1.14-.22,1.56-.04.46-.35,1-.23,1.46.03.11.29.09.3.19.04.28-.35,1.06-.3,1.09.03.02.63-.08.57.38-.04.26-.85.33-.57.96h.6c-.14.43-.59,1.3-.61,1.71-.02.27.29.19.32.32.07.35-.16.96,0,1.39.4.14.24-.27.39-.29.08-.01.23.09.36.06.22-.05.39-.22.67-.23.17,0,.46.55.89.44l.14-.13c-.16-.52.74-.54.97,0,.12-1.03,2.14-1.05,1.64-2.38l1.04.15c-.05-.66.46-.52.61-.69.49-.58,1.96-3.78,2.04-4.47.03-.28-.14-.53-.11-.83.04-.44.17-1,.29-1.43-.72.14-.7-.84-.45-1.34l-.68-.14c.04-.63-.08-1.15-.8-1.2l.15-.44-.29.15c.1-.78-.55-.71-.68-.89-.3-.43.22-.2-.56-.74-.14-.1-.09-.29-.1-.3-.1-.07-.35.42-.59.29l.15-.44-.29.15v-.59s-.45-.01-.45-.01l.15-.59-.66-.16-.15.31c-.44-.11-.63-.67-.7-.72Z"/><path d="M105.93,1.46s.07.21.16.26c.18.09.38,0,.45.04.4.26.45.71.63,1.04.12.22.48-.03.21.83-.3.96-1.3,1.28-2.22,1.07l-.14.27c-.2-.27-1.18-.47-1.5-.44-.29.03-.19.24-.28.27-.29.11-.8-.39-1.05-.42-.29-.04-.56.15-.85.12-.5-.05-.75-.57-.8-.57-.26-.03-.92.2-1.32.22-.51.02-1.11-.41-1.38.16.42.46,0,.58-.02.88-.02.42.13,1.42.13,2.1s-.14,1.3.59,1.48c-.22.71-1.4,2.54-.14,2.6l-.6,1.33.45.07c-.04.42-.48.6-.59.79-.27.5.19.89-.3.99l.61,1.55c.5.24.59-.24.65-.26.02,0,.29.08.45.06.41-.04.56-.36.96.07l.22-.42c.25.11.58.07.53.42l.36-.41.68.11-.22-.44c.48.26,1.73-.14,1.71.44l.44-.3c-.07.5.98.85,1.01,1.11.03.36-.84,1.26-.73,1.83l-1.46.03.15.44c-.78-.24-.71.97-1.27,0h-.29c-.15.54-.86.31-1.27.15l-.08.45c-.47-.07-2.09-.24-2.38.14v.74s.68.22.68.22c-.34.23-.88.9-.3,1.04l-.45.3.59.07-.75,3.34.23-.07.07.44.44-.29c.16.8-.63,1.39-.73,2.02,0,.05.07,1.02.09,1.06.12.25.33.17.34.19.03.06-.54.75-.17,1.24l.61.09-.59.66c.79.59.05,1.14.14,1.62.02.09.25.09.26.12.31.94.44,1.26,1.05,2.08.07.09-.18,1.97.93,1.6l-.14-.28c.61-.16,1.42-.64,1.88-1.08.03-.03-.05-.21,0-.26.49-.48.81-.91,1.54-.9l-.29-.35.16-.36.57-.02-.1-.37c.37-.57.77-.15,1.1-.11.22.03.39-.1.63-.04.23.06,1.1.96,1.13,1.18.1.36-.32.51-.36.64-.23.66-.13,1.92-1.05,1.81l.15.44c-.35-.06-1.28.55-1.46.77-.03.03.11.2.08.23-.33.31-.74.56-1.13.79l.28.58-.87.18-.02.42-.96-.3c-.36.21-.06.42-.08.74l-.82-.45-.15.3h-.3c-.19-.56-.49-.35-.7-.46-.15-.08-.13-.24-.19-.26-.25-.08-1.17.75-.82-.62l-.65.29c-.53-.43-.58-.82-.69-1.48l-.29.15.15-.59c-.8.38-.87-.9-.97-1.49l-.82-.15.45-1.12c-.47-.11-.16-.3-.24-.51-.11-.3-.45-.55-.38-1.02l-.42-.02.45-1.48-.59-.07.59-.97h-.6s0-.5,0-.5l.29-.16-.15-.82c-.91.14-.23-.86.3-.75l-.08-.3-.52.15c.12-.52-.19-.92.59-.89.06-.24-.21-.1-.25-.17-.07-.11.17-.54-.34-.64.06-.36.59-.73.6-.78.01-.05-.02-.87-.04-.97-.03-.17-.25-.25-.27-.48,0-.12.47.02.3-.37l-.59-.07c.21-.42.14-.92.74-.97v-.14c-.22.24-.38-.61-.38-.67.05-.5.78-1.24-.07-1.63l.31-.59c-.75-.21.11-1.46.08-1.93s-.84-1.12.21-1.49c-.72-.09-.33-.52-.9-.74.39-.1.17-.52.6-.75l-.44-.51.89-.74c-.57.16-.07-.97-.15-1.04h-.45c.22-.22.14-.51.19-.67.04-.11.09-.02.19-.51.04-.2.5-.28-.23-.46l.45-.52-.44-.15.3-.3c.05-.13-.23-.03-.27-.14s.24-2.19.28-2.52.54-.76-.01-.89c.78-.76-.8-1.56.44-1.87l-.02-.28-.28-.09v-.3s.6-.45.6-.45c.05-.12-.45,0-.3-.29.21-.41.91.03.67-.53.72-.15.59-1.15,1.56-.73l.09-.46c.41-.12,1.23.17,1.32-.29.63.74,1.43.11,1.78.14.22.02.37.28.6.29.25.01.46-.19.86-.1.48.1,1.57.77,2.15.81s.88-.47,1.78-.05Z"/><path d="M151.46,1.56l-.15-.44.68-.13.39.55.93-.26.24.59c.69-.42,1.18.53,1.35-.29l.56.13.24-.44c.58.49.77-.06,1.41.15l-.15.44c.99-.49.68-.09,1.03.35.1.13.32.08.4.15.44.41.55,1.03,1.25.69l-.15.74-1.04-.14.44.44-.71.32.12.27h-.45s.15.45.15.45c-.58.14-.79-.6-1.03-.44-.03.02.04.24-.07.26-.28.06-.75-.27-.89-.27-.2,0-.36.24-.59.27-.47.05-.82-.33-1.04.32-.23-.24-.57-.39-.37-.74-.63-.11-.52.63-1.17.58l-.24-.58c-.45.57-.79-.02-1.01.02-.25.04-.46.66-.55-.32l-.86.17c-.05.03-.27,1.17-.26,1.23.02.25.41.69.38,1.19-.02.33-.38,1.02-.25,1.47.06.22.36.34.37.47.03.27-.66.65-.56,1.04l.6.23-.3.23.31.96h-.45c-.13.45.32.16.3.5-.06.89-.57.65-.6.76v.52s.3-.15.3-.15l-.15,1.34.44-.15c.11.72-.19,1.23-.59,1.78.32.11.87-.21,1.1-.14.21.06.19.43.32.44.24.02.69-.34,1.09-.02l.54-.73.52.44.23-.59c.5-.15.36.38.67.44l.08-.45.82.3.22-.44.91.73.5-.29c.1.49.43.61,0,1.04l.25.03.04.47c-.45.14-.12.31-.22.53-.28.63-1.85.78-2.23,1.49l-.67-.3c.37.55-.49,0-.3.74l-.17-.25c-.6-.15-1.68-.28-1.91.4-.41-.33-.98-.19-1.48-.29l.15.51c-.53.21-.37.58-.46,1.04-.04.19-.23.38-.23.46,0,.16.4.63.09,1.11l.59-.3-.17,1.02-.57.02c.06.36.34,1.42.31,1.69-.01.1-.25.07-.27.16-.06.26.19.83-.18,1.19l.6.3-.44.6.29.22-.26.02c.23.48-.21.8-.27,1.17,0,.06,0,1.02,0,1.11.02.35.55.76-.21,1.04.19.45.77,1.46.14,1.64l.6,1.34-.29.14.14.53.29-.15-.15.6.3-.07.52.81.07-.59,1.63.15-.15-.44c.62,0,1.25-1.04,1.35-1.63l.29.15v-.44s.6,0,.6,0c-.28-.37.35-.94.64-1.14.13-.09.38,0,.51-.08.17-.1.07-.6.63-.34.27.12.51.82,1.04.9l-.45.22c.26.81.29,1.88-.1,2.63-.16.31-1.36,1.36-1.6,1.83-.17.34.25.9-.58.74l-.24-.3c.03.71-1.49,1.11-2.11,1.35-.13.05-.13.24-.14.24-.08.03-.57-.18-1.05.05-.12.06-.11.3-.19.29-.24-.01-.42-.3-.73-.38-.44-.12-1.07-.11-1.5.05l-.22-.2.15-.66-.74.3c-.17-.23,0-.69-.02-.82-.02-.08-.22-.06-.25-.14-.14-.5.22-.13-.24-.83-.58-.87-.48-1.06-.79-1.89-.06-.17-.47-.26-.48-.57l.58-.5-.74-.3.3-1.09-.3-.16c.15-.35.67-2.1.59-2.36-.04-.11-.28-.09-.3-.19-.02-.19.16-.42.13-.69-.04-.3-.4-.96-.4-1.38,0-.07.21-.05.23-.1.05-.1-.23-.31.2-.27v-.29s-.29-.07-.29-.07l.3-.61-.3-.15c-.04-.58.46-.83.54-1.17.01-.06.07-1.2.04-1.25-.07-.1-.49-.08-.42-.39.7-.41.32-1.05.45-1.61,0-.04.46-.17.26-.62-.05-.11-.27-.03-.27-.15,0-.16.4-.84.3-1.26h-.43c-.09-1.06-.22-1.99.43-2.9l-.3-.14c.25-.13.34-.8.3-1.01-.03-.12-.25-.09-.27-.17-.15-.67.69-1.96-.18-2.38l.44-.6c-1.01-.44-.02-.95,0-1.06.08-.47-.23-1.37,0-1.88.05-.11.29-.09.29-.17-.03-.33-.18-1.69-.14-1.92.01-.08.53-.89.57-1.39.04-.47-.43-.99.18-1.16v-.22s-.45-.22-.45-.22c.31-.2.04-.6.44-.52l-.29-.22c.64-.93.96-2.65,2.45-2.38.35.06.53.27.77.33s.59-.25.94.2Z"/><path d="M24.38,1.27s.18.96.38,1.18c.17.19.76.2.66.52-.04.13-.33.16-.4.25-.03.04-.07.85-.19,1.05-.15.26-.74.71-1.08.68-1.14-.1-.63-.89-.71-1-.14-.21-2.95.15-3.5-.43l-.23.57c-.44-.22-1.74.13-1.73.67,0,.15.34.25.25.52-.51-.33-.17.12-.33.27-.07.07-.31,0-.38.06-.14.13.19.59-.63.41l.59.22-.89.52.14.43c-.31.08-.79.48-.94.76-.11.2.08.81,0,.9-.14.13-.39.1-.49.18-.2.17-.03.78-.48.71l.29.29c-.39-.05-.18.15-.25.29-.27.55-.36.97-.59,1.49-.19.42-1.11,1.18-.05,1.49v.14c-.97.2-.5.84-.62,1.38-.08.36-.43.52-.52.85s.1.99,0,1.45c-.15.66-.65,1.56-.93,2.2l.29.28-.45,1.05c.73.08-.07,1.34,0,1.41l.6.08c-.36.06-.25.39-.34.48-.1.1-.51-.06-.52.43,0,.34.4.63.11,1.09h.45c-.3.43-.49,1.2-.42,1.71,0,.07.21.06.22.1.06.17-.3.51.34.58l-.29,1.18.59-.15-.44.82.58.24c-.08.15-.03.4-.13.51-.16.18-.47.13-.46.36l.56.32-.11,1.01.74-.3c.16.93-.06,1.8.32,2.7.3.72.78.56,1,.74.03.03.28.45.38.59.28.44.4,1.27.45,1.33.17.19.47.08.64.18.29.17.4,1.14,1.08.62.2.63,2.01,1.2,2.08.38l.23.3c.6.14.58-.43,1.02-.62.38-.17.66.04,1.01,0,.99-.14,1.46-1.69,1.3-2.56.52-.37.69.58.98.94.16.2.52.3.67.53.14.21.02.42.07.53.29.54.6.51.47,1.41-.01.09-.21.07-.23.14-.04.17.02.9-.04.97h-.74s.27.37.27.37c-.32.65-.93.46-1.41.64s-1.33.73-1.49.77c-.57.15-1.21-.19-1.6-.15-.36.04-.54.56-1.05,0l-.22.59c-.47-.59-.86.12-1.35-.08-.45-.18-.22-.39-.42-.58-.1-.1-1.2-.11-1.35-.17-.54-.19-.94-1.18-1.45-1.54-.88-.63-.45.24-1.16-1.03-.26-.47-.88-1.31-1.24-1.83-.16-.23-.91-.71-.98-.84-.09-.19.22-.51.19-.8-.06-.47-.71-.9-.89-1.44-.11-.31.03-.85-.1-1.08-.1-.18-.41-.1-.53-.24-.06-.07.05-.76.02-.95-.08-.54-.17-1.27-.27-1.77-.12-.63-.85-.77-.42-1.52l-.44-.07.27-.16-.12-.87h.45c-.26-.31-.1-1.08-.2-1.28-.09-.18-.38-.17-.38-.28-.02-.63.57-.51.59-.61.03-.16-.11-1.59-.17-1.74-.05-.13-.29-.11-.29-.19,0-.15.18-.62.23-.88.03-.16-.07-.47-.05-.49.24-.29,1-.36-.18-.55l.44-.45-.3-.07.75-1.25c-.76-.43.2-1.91.38-2.46.08-.24,0-.9.11-1.16.09-.19.75-.34.1-1.07.72-.04.14-1.36,1.04-.9-.1-.47-.37-.48-.74-.67.04-.12.44-1.02.49-1.07.16-.14,1.45-.58.26-.64l.27-.17-.09-.25.42-.32-.44-.15c.45.08.07-.34.39-.43l.65-.02c-.5-.72,1.29-1.91.3-2.23l.27-.16-.13-.28.82-.14c.19-.32-.34-1.19.81-1.05l-.28-.49.72-.77-.3-.22c.28.05.33-.3.45-.37.17-.09.36.08.51-.07.18-.18.23-.65.36-.8.03-.03.6-.47.64-.49.52-.27,1.98,0,1.45-1.1.48-.33.95.1,1.26.08.41-.03.87-.52.93-.53.46-.09,1.28-.05,1.76-.07.17,0,.3-.17.52-.15,1.14.07,1.12,1.06,1.81,1.31.26.09.63-.1.7-.04Z"/><path d="M161.45,49.4l1.22.29.18-.31c.31-.03.87.39,1.04.4.25,0,.39-.42.81.06.03-1.21.71.14.89.22.24.11.5.07.74.07l-.3.29c.26-.03.45.32.59.37.27.1.71-.32.75-.14.01.79-.67,1.14-.91,1.83l-.27-.13-.02.57-.51.18-.28-.31c-1.6.61-3.64-.13-5.35,0-.3.02-.21.3-.28.3-.39-.02-1.03-.53-1.2-.54-.25,0-.47.4-.74.4-.16,0-.16-.75-.52-.23.42.24.14.68.18.89.02.09.24.09.26.19.03.13.14.78.13.85-.02.09-.31.1-.35.36-.05.33.64,1.07-.06,1.06.52.51.08.63,0,1.19h.45s0,.59,0,.59h-.44c.17.45.11.67-.15,1.05l.44.07c0,.48-.4.48-.52.67-.26.41.17,1.09-.05,1.57l.27.14-.59.23c-.16.39.46.62.44.66-.04.12-.22.22-.23.44-.04.57.33,1.42-.36,1.64.74.44-.74,1.39.3,1.56l-.45.37c.85.5.14,1.13-.11,1.79l.63.37.08-.45c.57.47,1.25-.07,1.56-.09.13,0,.34.19.56.2.32.01.62-.21.77-.2.43.02.53.62.89-.2l.67.59.07-.74.61.29-.09.6.5-.16c.27.65.51.42.98.68.07.29-.06.29-.17.43-.25.32-.5.66-.83,1.03-.07.08-.02.32-.06.37-.1.08-.43-.02-.62.06-.97.39-.93.21-1.79.42-.13.03-.03.5-.61.15l-.22.23.13.36c-1.07-.08-1.33-1.29-2.68-.74l.08.45-.38.14.3.22c-.48.23-.4.33-.44.82l.59-.15-.31.81c.55.15.1,1.11-.14,1.5l.3.29c-.84.6-.36.95-.32,1.53.04.75-.12,1.07.34,1.75-.95,1.22-.1,2.27.08,3.59.02.16-.12.38-.07.55.04.14.53.42.66.59.18.23.07.55.45.82.21.15,1.22.33,1.45.31.05,0,.62-.56.84-.66.25-.11.64-.04.72-.1.11-.09.03-1.03.76-.88l-.14-.29.42-.03.02-.42c.5.01.96.2,1.19.66.28.58-.24,1.71.44,1.87-.66.75-1.34.72-1.34,1.93l-.74-.15c.25.59-.04.89-.52,1.19l-.08-.29h-.29c-.02.59-.64.42-.94.58-.22.11-.04.72-.62.6l-.3-.45-.44.3-.23-.6-.52.3c-.18-.33-.74-.62-1.11-.8-.12-.05-.28.07-.4.02-.09-.04-.46-.57-.94-.41.43-.62-.75-.86-1.15-1.22l.26-.86-.3.07c.15-1.06-1.48-2.18-.45-2.97l-.31-.17.17-3.67c-.69-.35-.3-.39-.31-.76,0-.11-.25-.07-.28-.16-.12-.35.4-1.36.43-1.65.04-.35-.3-.55-.3-.58,0-.12.45-.18.54-.51.12-.42-.32-1.53-.1-2.08l-.59.15c.2-.45-.18-1.17.59-1.04l-.3-.44c.48.04.14-.25.18-.55.03-.21.24-.37.23-.54-.02-.23-.35-.5-.36-.77-.02-.34.3-1.08.68-1.19l-.59-.74.3-.37h-.59c.51.09.07-.28.21-.45.11-.13.43-.09.5-.17.08-.09.37-1.73.32-1.94-.01-.05-.56-.68-.69-.74-.17-.46.33-.81.36-1.1.04-.33-.45-1.08-.14-1.6l.62-.09c-.54-.85.26-1.86.27-2.59.01-.46-.45-1.07-.42-1.12.01-.02.27.08.38-.29.18-.62,0-2.27.11-2.57s.39-.48.47-.78c.14-.5-.12-1.66-.07-2.06.02-.12.31-.03.31-.3,0-.2-.2-.47-.13-.65.03-.07.99-.74,1.12-.76.31-.04.43.23.7.26.18.02,1.55.01,1.64-.01.1-.03.08-.23.26-.31.85-.38,2.2,1.26,2.66-.09Z"/><path d="M177.75,48.97c.06.1.01.29.03.42l.35-.28c.21.29.72.16.84.22.38.2.22.86,1.03.51l-.15.59.89-.15c-.11.49.25.93.74.89-.27.82.4,1.22.4,2.13,0,.7-.41,1.15-.52,1.54-.04.16.12.41.06.5-.09.11-.35.09-.48.19-.39.3-.55.64-1.24.48l-.3-1.04.31-.16c-.35-.44-.14-.72-.16-1.02,0-.1-.25-.07-.29-.2-.12-.43,0-.85-.68-1.08-.48-.16-2.18-.18-2.4.33-.04.09.14.26-.03.49-.26.34-1,.45-1.18.76-.03.05-.42,1.11-.42,1.17,0,.13.31.28.25.37l-.59.15c-.11.4.25.28.44.52l-.59.49-.44,3.44c1.09-.05-.04.82-.02.96.52.48.12,1.17.59,1.34l-.13.53.44-.3c.22.4,0,.82,0,1.1,0,.09.22.08.28.2.22.45.62,1.61.94,1.87.22.18.82.36.85.4.01.02-.15.28-.11.47.15.88.75.95,1.03,1.73l.27-.13.07.61.38.06.29,1.56.44-.15c.13.21.11.94.17,1.02.15.16.17-.14.52.47.2.35.45.33.19.89.32.03.47.05.45-.29.14-.09.58,1.19.6,1.41.01.13.09.98.08,1.04-.03.35-.65.45.36.75l-.45,1.03c.54.27.52.41.4,1-.19.89-.08,1.57-.05,2.57,0,.18.19.35.18.43-.02.18-.33.38-.24.67l.45.07c-.08.49-.68.48-.73.53-.05.05.08.5.04.71-.03.19-1.2,2.37-1.39,2.62s-.51.32-.57.4c-.04.05.11.34.06.49-.31.87-1.15.66-1.63,1.1-.17.16-.06.37-.1.45-.01.02-.3-.13-.48,0-.14.09-.16.34-.25.39-.21.12-.55-.41-.46.37-.02.03-.61-.19-.72-.2-.73-.07-2.69.47-3.05.32-.19-.08-.19-.33-.27-.38-.2-.12-1.1-.41-1.65-.72-.33-.18-.81.04-.69-.65l.45-.07-.59-.59c.5-.87,1.14-1.24,2.01-1.71l.22.59c.73-.28,1.46,0,2.22,0v-.44c.64.44.76-.1.82-.11.24-.07,1.51-.13,1.56-.18l.02-.58c.65.14.38-.56.61-.73.99.02-.34-1.17.56-1.44-.62-.72.27-.84.46-1.32.08-.22.05-1.49-.07-1.68s-.95-.55-.26-.7c-.42-.52-.04-1.35-.13-1.77-.02-.11-.26-.07-.27-.17-.03-.2.09-.86.25-1.05l-.87-.59.29-.37h-.45c.15-.34.18-.87-.15-1.1-.06-.04-.25.06-.27.03-.33-.37-.16-1.16-.24-1.3-.19-.32-.73-.2-.53-.89l-.44.3c-.34-.58-.22-.99-.16-1.62-.27-.12-.75-.1-.96-.3-.16-.16-.58-1.27-.74-1.5-.07-.1-.74.11-.37-.88-1.19.42-.67-1.41-1.31-1.66l.12-.27-.59.3c-.15-.84-.04-1.73-.19-2.56-.06-.33-.37-1.42-.54-1.51l.42-1.18-.58-.53.41-.21c-.06-.23-.17-.49-.12-.73.02-.11.63-.1,0-.91.25-.17.66-.49.66-.82,0-.29-.27-.38-.16-.75s1.03-.67.24-1.11l.3-.59-.3-.14c.17-.38.08-.63.59-.53l-.08-.74.81-.54-.22-.66c.21-.4.69-.2.94-.33.07-.04.13-.29.28-.38.44-.28.7-.44,1.23-.48v-.58c.4.11,1.05.17,1.41-.02.31-.17.08-.38.11-.4.24-.2,1.07.09.88-.61.16.11.65.06.72.18Z"/><path d="M20.33,49.59c.1.06-.03.3.19.24.02-.21-.14-.51.22-.44s1.68,1.42,2.21,1.47c.6,2.32-1.98,1.34-3.25,1.49-.45.05-.79.44-1.25.47l.14.29h-.45s.15.59.15.59c-1.71-.21-2.09,1.72-3.42,2.38l.3.15c-.05.66-.74.51-.86.63-.05.05,0,.24-.08.36-.06.09-.24.05-.24.06-.07.09.43.35.29.59-.37-.26-.78.57-.95.91-.19.36-.76,1.53-.9,1.91-.07.2.07.51-.03.72-.09.19-.34.19-.35.28-.03.23.16.6.14.63-.02.03-.31.08-.44.23-.45.52-.1.66-.14,1.04-.03.28-.94,1.26,0,1.42v.14c-.7.05-.28.55-.39.86-.08.22-.36.21-.45.4-.13.27-.14,2.59-.2,3.12-.06.48-.43,1.07-.29,1.76.02.09.37.12.39.64.03.77-.77,1.55.06,1.92l-.59,1.05.39.56-.41.38c.45.37.11.8.15,1.1,0,.05.44.51.42.88-.01.23-.42.62-.27.99l.59-.15c-.03.42-.15,1.03-.03,1.42.07.22.29.24.41.49.44.95.24.79.87,1.66.15.21.13.54.27.7.15.17.79.28,1.08.48s.46.64.56.7c.56.34,1.77.62,2.38.78.13.04.09.3.18.3s.61-.29.64-.33c.04-.05-.15-.17-.04-.27.16-.14,1.54-.65,1.68-.77.04-.04-.03-.61.54-.58.05,0,.52.96.38-.28.51-.16.48.31.63.4.05.03.22-.06.34.04.4.32.83,1.03.23,1.27l.44.66c-.62.17-.68.98-1.09,1.44-.11.13-.65.6-.76.6s-.23-.24-.44-.25c-.09,0-.05.27-.17.3-.28.07-.65-.07-.99.03-.38.11-.59.76-1.29.41l-.15.45c.04-.49-.65-.26-.6-.74l-.38.46c-.44.05-.57-.51-.73-.6-.37-.2-.08.52-.37.44-.08-.33-1.27-1.35-1.19-.59h-.14c-.1-.15-.5-.87-.54-.9-.19-.13-.53-.07-.76-.18-.09-.05-.58-.56-.72-.67-.3-.24-.85-.15-.51-.76-.66.07-.45-.34-.54-.45s-.29-.13-.36-.25c-.28-.48-.25-1.52-1.33-1.38-.14-.34.22-.64.24-.82.02-.16-.42-1.63-.53-1.78-.15-.23-.59-.33-.61-.47-.01-.08-.11-1.02-.12-1.15-.01-.22.19-1.79.12-1.86h-.44s.45-2.44.45-2.44l-.6-.31c.57-.51.29-1.04.32-1.64,0-.18.19-.32.2-.44.05-.66-.38-.71-.38-.75,0-.05.17-.95.19-1,.11-.35.54-.68.43-1.35l-.61-.32c.27-.28.26-.62.74-.52l-.3-.22c.35-.3.75-.71.15-.89l.44-.45-.4-.44c.08-.36.19-.43.55-.38l-.3-.59h.3s0-.3,0-.3l-.29-.06c.02-.73.7-1.4.74-1.81s-.26-.61-.24-.81c.03-.25.33-.29.35-.32.06-.13-.14-.32.02-.49.79-.92.51-1.17.92-2.18.05-.13.51-.42.58-.64l-.45-.07c-.15-.58.39-.71.54-.93.17-.24.24-.81.26-.86.15-.25.75-.23.9-.44.03-.04.12-.77.08-.9h.6s-.23-.75-.23-.75c.7-.25,1.22-1.33,1.64-1.64.26-.19,1.33-.41,1.39-.47s0-.28.06-.36c.28-.31,2.73-1.71,3.16-1.84.52-.15,1.59.18,1.41-.58.17.09.38.11.55.21Z"/><polygon class="cls-1" points="134.52 62.02 134.37 62.61 134.08 62.61 134.23 62.01 134.52 62.02"/></g></svg>