<?xml version="1.0" encoding="UTF-8"?>
<svg id="Layer_9" data-name="Layer 9" xmlns="http://www.w3.org/2000/svg" viewBox="0 0 841.56 611.91">
  <g>
    <path d="M553.32,185.35c5.96-2.22,8.96-6.39,15.72-5.9,18.65,1.35,39.74,22.95,32.67,42.67,10.05,1.41,18.21,12.3,18.61,22.58.53,13.62-8.74,16.27-19.08,21.5-29.56,14.96-60.94,26.73-90.6,41.53-36.42,58.48-76.73,114.45-111.75,173.89-8.11,13.77-14.85,28.77-23.17,42.33-3.01,4.91-15.4,11.4-20.99,12.97-17.68,4.97-46.93.44-48.88-22.14-9.89-1.95-16.04-5.12-19.72-14.98-4.09-10.96-1.37-16.4,4.64-25.77l81.99-100.71c-19.09,9.14-37.98,18.8-56.43,29.2-15.18,8.56-39.07,26.08-54.82,31.11-13.11,4.19-33.32-9.06-43.1-17.46-18.21-15.63-39.24-37.95-38.32-63.99.75-21.17,21.97-22.8,36.81-28.97,16.26-6.76,31.82-15.2,48.08-22.03,24.49-10.28,49.89-18.25,74.44-28.38,47.93-19.77,95.74-39.82,144.1-58.6,8.93-7.71,15.9-17.7,24.17-26.16,9.82-10.05,16.78-18.29,32.33-13.65,5.07,1.51,11.86,5.56,13.27,10.95ZM526.52,176.9l-4.41.61-29.12,32.21,56.9-22.42c1.3-1.68-5.72-8.02-6.96-7.66l-6.19,8.33,4.82-8.7c-2.74-2.52-9.4-3.58-12.67-2.5-1.11.37-12.33,16.36-15.55,17.7l13.18-17.57ZM332.35,337.92c15.97-6.99,33.25-13.15,49.55-20.26,55.72-24.29,109.66-51.95,165.89-75.07,12.57-5.17,33.88-10.79,44.65-17.55,15.41-9.67,2.86-34.11-10.87-38.92l-31.06,13.59,28.24-15.2c-.87-.88-2.8-1.08-4-1.14-13.04-.67-38.91,11.31-51.93,16.82-19.86,8.41-39.08,18.25-59.09,26.35-60.81,24.62-122.86,46.57-183.99,70.34-27.02,10.5-52.43,24.86-79.55,35.15-.91,1.36,7.67,3.15,8.91,1.85,27.06-13.01,54.72-24.61,82.57-35.78-.9,1.6-4.06,2.83-5.73,3.63-12.39,5.95-25.75,10.19-38.37,15.68s-25.84,11.72-38.42,18.18c18.39,7.58,33.45,29.39,26.22,49.89,7.33-.34,4.96-6.34,7.39-9.75,2.01-2.83,18.18-7.96,22.63-9.76,22.33-9.06,44.23-19.85,66.94-28.05-5.77,2.52-12.24,5.54-18.27,8.26-20.05,9.02-39.66,19.18-59.93,27.7,3.66,2.7,8.12,4.03,11.78,6.96,13.32,10.68,15.05,27.28,6.46,41.55-.41.68-1.77,1.53-.34,2.23,18.38-11.06,37.29-21.47,56.3-31.45,70.44-36.94,142.97-69.09,214.63-103.28,22.3-10.64,45.39-20.64,66.96-32.69,6.27-3.5,7.91-5.92,6.92-13.57-3.98,1.53-7.99,4.19-11.97,5.55-.83.29-2.84,1.27-2.7-.36,2.75-1.45,14.54-5.49,14.49-8.23-.13-5.88-8.76-14.32-14.38-14.89-5.03-.51-9.7,2.82-14.43,4.46-26.99,9.38-54.06,18.81-79.99,30.92-19.9,9.29-38.94,20.8-58.97,29.85-38.22,17.27-77.21,32.78-116.55,46.98ZM508.46,308.69c-.54-.4-9.74,3.87-10.7,5.01-2.46,2.94-5.55,10.66-8.18,14.54-2.11,3.13-5.19,6.28-7.28,9.43-13.59,20.39-25.29,42.03-40.1,61.56-1.27-.55,0-2.21.45-2.98,4.42-7.73,11.79-15.27,16.1-23.38l35.11-57.23-3.31,1.62-12.39,18.74-1.75-.34c1.22-5.34,9.09-11.52,10.63-15.69.42-1.13-.33-1.66-1.38-1.27l-81.12,38.37c-18.11,22.58-34.73,48.65-53.32,70.64-.89,1.05-7.76,8.24-8.29,8.51-.37.19-1.43.3-1.32-.37l9.58-10.71,48.25-63.42c.21-1.23-.15-1.68-1.36-1.24-.93.33-7.4,3.71-7.89,4.21-1.98,2-7.27,9.58-9.76,12.67-.36.45-8.03,11.57-7.06,7.94,1.15-5.31,11.89-14.09,13.18-17.59.41-1.11-.25-1.64-1.36-1.24-10.75,3.83-23.96,26.79-31.6,36.3-17.86,22.23-36.88,43.72-54.76,65.92-1.87,2.32-3.4,5.1-5.33,7.39,3.03-.74,5.26-2.88,8.37-3.76,3.39-.96,15.4-1.42,16.81-2.39s8.2-11.85,10.27-14.32c.91-1.09,6.06-7.46,7.16-6.57l-15.6,22.13c16.18,1.05,29.85,5.15,41.71,16.62,4.78,4.62,8.23,10.47,12.61,15.41,8.47-13.24,15.73-27.56,24.91-40.33.94-1.3,6.37-9.69,7.84-8.49l-31.38,49.68,1.27,7.9c5.08-6.26,8.21-13.92,12.4-20.84,28.65-47.3,57.6-94.29,88.7-139.92,9.75-14.3,20-28.33,29.88-42.53ZM195.18,372.35c-2.29,11.44,15.15,19.22,24.21,18.44,18.85-1.62,18.28-22.25,10.5-35.25-7.37-12.31-32.98-28.81-43.05-12.46-7.63,12.39-3.16,29.22,4.63,40.45.61.88,1.94,2.65,1.62.07-7.57-10.66-13.29-40.7,7.23-39.03,8.21.67,19.93,11.37,23.59,18.61,4.35,8.63,7.43,22.69-6.42,22.23-9.01-.3-16.53-6.74-22.29-13.06ZM192.84,378.69c-.23-2.86-.56-7.77,1.66-9.92,2.73-2.65,19.94-7.08,21.57-9.9.8-1.39.04-1.36-.57-2.24-3.5-5.09-16.69-11.89-22.09-7.08-5.95,5.31-5.12,16.23-3.24,23.23.4,1.47,1.31,5.23,2.66,5.91ZM197.67,369.56c8.45,18.36,39.54,16.44,21.02-7.19l-21.02,7.19ZM200.67,394.34c-.3,1.68,1.02,2.07,1.9,3.02,8.96,9.74,26.46,24.62,38.15,30.45,12.3,6.13,23.53,3.11,30.99-8.59,12.32-19.31-6.42-44.32-27.86-41.23l-.66,6.59c11.89,1.74,22.53,11.04,22.34,23.87-.09,6.27-4.59,13.54-10.43,15.88-16.39,6.58-42.35-20.67-54.43-30ZM240.5,386.34c-.72-.32-12.03,5.78-14.24,6.47-6.76,2.1-12.66,2.49-19.26-.41-2.51-1.1-4.87-4.18-7.51-3.78,8.9,10.87,20.32,19.39,31.91,27.19l23.41-10.81c.48,1.83-.78,2.11-1.87,2.94-4.44,3.37-12.6,6.47-17.76,8.73-.2,2.26,2.35,2.84,3.97,3.52,12.67,5.38,22.45,2.77,23.73-12.03-.99-1.03-14.98,9.64-18.03,8.47l17.76-10.41c.59-6.91-6.33-14.88-12.51-17.05-3-1.05-6.04-.73-8.69-1.37-.74-.18-.75-1.4-.91-1.47ZM365.19,527.42c3.84-5.98,8.07-4.38,7.96-12.98-.17-13.81-12.51-27.28-23.76-33.84-11.64-6.79-40.81-9.78-52.89-3.03-8.74,4.88-10.4,11.91-7.81,21.26,2.3,8.27,8.1,11.23,15.85,13.2l1.08-4.47c-13.54-1.17-17.92-18.84-4.72-24.26,19.41-7.96,67.72,9.28,64.97,35-.58,5.46-9.27,9.88-14.14,10.76-8.64,1.57-30.22-2.6-36.75-9.03-10.33-10.18,1.31-22.75,13.84-13.62,5.73,4.18,6.06,12.69,15.11,11.69.37-.37-2.85-6.77-3.51-7.78-1.16-1.77-8.71-10.2-10.15-11.15-8.55-5.66-24.08,3.78-22.58,13.95,3.3,22.42,42.95,29.68,57.5,14.3ZM321.13,483.63c-3.25.62-8.51-.46-11.36,1.02-2.32,1.21-6.85,8.29-8.73,10.65-3.96-.36,3.17-5.63,3.62-6.86,1.38-3.77-6.78,2.12-7.47,5.02-.56,2.33-.57,8.74,2.84,8.13,1.46-3.16,4.62-7.37,6.97-10.15.75-.89,4.46-5.61,5.49-4.7l-11.48,16.15,6.19,1.51,13.92-20.76ZM317.32,495.38c15.05-3.34,21.13,7.54,28.59,18.16l8.49-13.45c-4.63-6.62-19.75-15.27-27.6-14.94-3.55.15-6.78,7.68-9.48,10.23ZM357.21,502.32c-2.01-.28-1.38.18-1.88,1.22-4.02,8.38-3.81,18.55-16.02,17.41-6.65-.62-5.21-4.97-8.45-8.36-4.3-4.5-17.49-5.56-14.96,3.6,1.84,6.66,19.4,9.44,25.48,9.93,16.88,1.35,25.82-7.71,15.82-23.81Z"/>
    <g>
      <path d="M553.33,185.34c3.05-1.11,5.7-3.09,8.61-4.51,2.92-1.49,6.32-1.73,9.51-1.11,18.31,3.16,36.86,23.18,30.31,42.4,10.79,1.61,18.89,13.28,18.62,24.06.08,11.41-8.66,15.03-17.52,19.28-6.05,3.03-12.12,6.01-18.25,8.86-24.46,11.35-49.9,21.54-73.87,33.46-37.49,60.3-79.31,117.87-114.9,179.36-6.91,12.4-12.89,25.32-20.44,37.38-2.19,2.82-5.25,4.8-8.26,6.67-6.07,3.7-12.73,6.58-19.86,7.22-10.5,1.11-21.77-.21-30.8-6.02-6.02-3.76-10.23-10.62-10.62-17.57-4.36-.89-8.83-2.05-12.48-4.73-6.57-4.76-10.73-16.25-8.65-24.12,1.15-4.37,3.64-8.19,6.02-11.96.11.12,81.97-101.24,82.07-100.6-11.09,5.32-22.11,10.8-33.02,16.51-5.45,2.85-10.87,5.76-16.26,8.73-19.05,10.06-36.13,23.56-55.7,32.67-2.77,1.12-5.75,2.54-8.73,3.01-16.49,1.98-36.71-13.81-48.05-24.59-15.91-14.93-31.44-34.22-31.05-57.15.14-17.85,15.89-22.48,30.11-27.01,11.66-3.94,22.62-9.66,33.75-14.86,33.12-16.46,68.88-26.53,102.84-41,45.48-18.77,91-37.76,136.82-55.53,5.75-4.98,10.65-10.82,15.58-16.58,4.89-5.82,10.13-11.33,15.61-16.59,3.13-2.88,6.6-5.55,10.68-6.93,9.15-3.16,24.77,1.61,27.93,11.27h0ZM553.32,185.36c-3.14-9.7-18.94-14.39-27.91-11.24-4.08,1.38-7.53,4.03-10.66,6.92-5.47,5.26-10.71,10.77-15.59,16.59-4.93,5.77-9.83,11.62-15.59,16.61-45.88,17.84-91.3,36.83-136.79,55.64-33.95,14.51-69.69,24.58-102.82,41.03-11.14,5.21-22.11,10.94-33.78,14.87-14.03,4.47-29.85,9.08-29.95,26.79-.38,22.87,15.1,42.06,30.97,56.97,11.29,10.74,31.44,26.48,47.86,24.54,2.95-.46,5.91-1.87,8.68-2.99,19.56-9.11,36.65-22.59,55.7-32.64,5.39-2.96,10.82-5.87,16.27-8.72,11.02-5.76,22.16-11.29,33.38-16.66-.4.55-81.89,100.49-82.26,100.99-2.36,3.74-4.87,7.59-6.01,11.93-1.68,6.55.65,13.55,4.04,19.17,3.65,5.93,10.56,8.37,17.04,9.61.45,5.3,2.67,10.46,6.51,14.19,9.07,8.74,22.77,10.58,34.86,9.34,7.12-.65,13.76-3.52,19.82-7.22,2.98-1.85,6.05-3.84,8.22-6.64,7.53-12.04,13.5-24.97,20.41-37.38,35.56-61.5,77.32-119.12,114.86-179.39,24.21-12.11,49.43-22.08,73.97-33.48,6.14-2.84,12.21-5.82,18.26-8.84,10.09-4.78,18.58-8.51,17.39-21.7-.92-9.98-8.48-19.81-18.51-21.56,6.57-19.2-12-39.17-30.24-42.34-7.82-1.72-11.55,2.98-18.12,5.6h0Z"/>
      <path d="M526.51,176.9s-4.4.63-4.4.63c.05-.06-14.51,16.15-14.5,16.13,0,0-14.54,16.12-14.54,16.12,0,0-.11-.16-.11-.16l28.47-11.16,28.43-11.26s-.04.03-.04.03c.24-.34.12-.82-.05-1.22-1.01-2.04-2.78-3.62-4.51-5.05-.66-.47-1.49-1.2-2.29-1.23,0,0,.06-.04.06-.04l-6.18,8.33-.19-.13,4.81-8.7s.02.15.02.15c-1.14-1-2.58-1.62-4.04-2.07-2.72-.78-5.71-1.17-8.48-.41-3.36,3.35-5.99,7.5-9.12,11.09-2.03,2.29-3.84,4.96-6.49,6.58,0,0-.27.13-.27.13l.19-.25,13.23-17.51h0ZM526.53,176.89s-13.18,18.01-13.22,17.5c2.59-1.62,4.39-4.29,6.39-6.57,1.95-2.39,3.83-4.83,5.73-7.25,1.14-1.31,2.06-2.9,3.47-3.94,1.31-.39,2.7-.45,4.05-.38,3.09.23,6.35.92,8.77,2.98,0,.09-4.85,8.69-4.87,8.78,0,0-.19-.13-.19-.13.06-.04,6.16-8.36,6.25-8.36,1.81-.09,8.35,6.08,7.05,7.85-.01.02-28.48,11.16-28.5,11.17,0,0-28.43,11.26-28.43,11.26l-.39.16s.28-.31.28-.31c7.27-8.03,21.88-24.15,29.17-32.16,0-.03,4.43-.59,4.44-.6h0Z"/>
      <path d="M332.33,337.93c19.08-8.3,38.68-15.19,57.6-23.83,44.33-19.63,87.76-41.23,132.18-60.65,9.52-4.15,19.06-8.28,28.71-12.12,9.72-3.66,19.69-6.64,29.35-10.47,9.9-4.14,20.51-7.83,19.15-20.86-1.22-10.11-8.45-20.05-17.72-23.77,0,0-31.06,13.6-31.06,13.6,0,0-.09-.18-.09-.18,0,0,28.24-15.21,28.24-15.21,0,0-.03.17-.03.17-.75-.69-1.86-.89-2.89-1.02-2.11-.21-4.23-.02-6.33.21-13.65,2.23-26.41,7.99-39.09,13.29-13.27,5.52-33.27,14.75-46.51,20.87-62.34,27.12-126.8,49-190.14,73.61-15.92,5.94-31.61,12.49-46.93,19.85-15.37,7.22-30.7,14.63-46.59,20.67,0,0,.02-.02.02-.02-.12.16-.04.37.1.51,1.1.91,2.62,1.14,3.98,1.45,1.52.19,3.39.67,4.78-.15,26.9-12.86,55.37-25.08,82.64-35.73-1.08,1.62-3,2.33-4.67,3.15-1.72.79-3.42,1.62-5.15,2.38-10.37,4.64-21.15,8.27-31.62,12.67-13.92,5.95-27.62,12.42-41.09,19.33,9.27,3.41,17.66,11.31,22.77,20.05,5.2,8.88,7.05,19.99,3.49,29.81,0,0-.08-.11-.08-.11,1.14-.09,2.3-.26,3.3-.81,3.35-1.89,1.96-6.5,4.25-9.14.84-.84,1.88-1.39,2.9-1.92,7.26-3.6,15.14-5.7,22.57-8.89,4.27-1.77,8.52-3.58,12.76-5.42,15.14-6.36,36.15-16.49,51.23-21.21,0,0-19.61,8.87-19.61,8.87-6.53,2.96-13.02,6.03-19.49,9.12-12.82,5.94-26.37,13-39.08,17.79,4.22,3.06,9.53,4.52,13.28,8.28,6.96,6.02,10.96,15.34,10.18,24.54-.28,4.55-1.72,9.09-3.71,13.17,0,0-.95,1.72-.95,1.72l-.47.86c-.29.57-.96.94-1.01,1.56.02.26.29.46.57.59,105.57-62.47,221.03-108.55,330.84-163.63,1.81-.96,3.62-1.94,5.41-2.93,2.65-1.49,5.52-2.88,7.3-5.42,1.73-2.6,1.45-5.91,1.1-8.89,0,0,.15.09.15.09-3.87,1.5-7.39,3.81-11.28,5.3-.99.26-3.57,1.79-3.53-.22,3.01-1.6,6.47-2.69,9.54-4.28,1.53-.78,3.1-1.57,4.33-2.75.29-.3.56-.65.61-1.04-.35-5.95-6.62-11.94-11.8-14.26-5.05-2.12-10.1.98-14.71,2.93-2.57,1.1-7.04,2.51-9.76,3.5-32.64,11.29-65.16,23.33-95.53,39.92-48.65,26.36-100.58,45.99-152.42,65.11h0ZM332.36,337.92c51.77-19.18,103.73-38.82,152.34-65.2,12.19-6.51,24.6-12.65,37.34-18.02,19.08-8.14,38.62-15.12,58.19-21.96,0,0,4.89-1.71,4.89-1.71,1.63-.58,3.28-1.09,4.86-1.79,4.61-1.96,9.76-5.09,14.85-2.94,5.36,2.37,11.58,8.46,11.93,14.46-.67,2.99-11.8,6.78-14.46,8.07-.04.33.05.66.34.76.29.09.64.02.96-.06,4.65-1.43,8.71-4.22,13.23-6,0,0,.13-.05.13-.05.38,3.04.68,6.49-1.11,9.17-1.8,2.58-4.72,4-7.38,5.49-1.79,1-3.6,1.97-5.41,2.94-7.24,3.87-14.6,7.5-22,11.07-103.41,49.9-209.79,94.36-308.95,152.57,0,0-.05.03-.05.03,0,0-.06-.03-.06-.03-.29-.15-.65-.36-.7-.79.04-.76.75-1.1,1.05-1.7.25-.46,1.14-2.06,1.42-2.57,1.32-2.65,2.29-5.4,2.99-8.25,0,0,.18-.96.18-.96l.34-1.92c1.39-9.75-2.46-19.89-9.93-26.3-3.75-3.75-9.03-5.19-13.26-8.26,0,0-.16-.12-.16-.12,0,0,.18-.08.18-.08,25.94-11.13,52.24-24.64,78.21-35.94,0,0,.07.19.07.19-8.69,3.15-17.24,6.64-25.74,10.28-8.41,3.64-29.82,13.11-38.17,16.51-6.38,2.73-13.05,4.67-19.42,7.42-2.07.95-4.31,1.78-5.99,3.33-2.27,2.64-.91,7.3-4.3,9.17-1.04.57-2.22.74-3.37.83,0,0-.12,0-.12,0,0,0,.04-.12.04-.12,7.16-20.19-7.54-42.1-26.17-49.8,0,0-.14-.06-.14-.06l.13-.07c6.74-3.46,13.53-6.79,20.38-10.01,6.85-3.21,13.75-6.34,20.72-9.3,13.08-5.48,26.67-9.81,39.3-16.31.79-.49,1.61-1.03,2.1-1.83l.07.07c-27.84,11.17-55.53,22.77-82.57,35.77-.58.49-1.62.46-2.39.45-2.05-.12-4.12-.46-5.97-1.38-.34-.19-.85-.54-.61-.98,23.84-9.09,46.36-21.22,69.82-31.21,63.11-25.24,127.4-47.46,190.39-73,30.98-12.43,62.12-29.22,93.63-40.29,7.01-2.26,14.36-4.66,21.81-4.16,1.09.14,2.28.35,3.13,1.19.04-.04-28.36,15.27-28.38,15.27,0,0-.09-.18-.09-.18.03-.01,31.07-13.59,31.1-13.6,6.57,2.45,11.58,7.99,14.82,14.06,3.17,6.01,4.77,13.79,1.14,19.95-1.75,3.08-4.76,5.07-7.83,6.67-3.06,1.63-6.24,3.01-9.46,4.29-9.66,3.84-19.63,6.8-29.35,10.46-9.65,3.83-19.19,7.96-28.71,12.1-44.43,19.4-87.87,40.98-132.21,60.58-18.91,8.61-38.55,15.55-57.6,23.77h0Z"/>
      <path d="M508.45,308.69c-1.15.08-2.26.7-3.34,1.11-2.42,1.1-4.91,2.16-7.1,3.69-3.55,4.38-5.22,9.99-8.35,14.68-2.69,3.93-6.13,7.28-8.56,11.38-2.62,3.97-5.16,7.98-7.68,12.01-10.09,16.08-19.7,32.7-31.24,47.73-.58-.2-.68-.87-.48-1.37.62-1.43,1.53-2.69,2.33-4.02,3.36-5.2,7.39-9.93,10.92-15.01,8.93-14.24,29.74-48.61,38.84-63.29,0,0,.12.14.12.14l-3.31,1.62.04-.03c-.04.06-12.39,18.75-12.42,18.81,0,0-.07-.01-.07-.01l-1.75-.34s-.11-.02-.11-.02c0,0,.03-.11.03-.11,1.79-6.22,7.85-9.92,10.58-15.59.18-.39.25-.88-.02-1.15-.28-.28-.77-.22-1.16-.08.04-.02-81.13,38.35-81.12,38.34-19.96,24.58-36.53,52.48-58.23,75.81,0,0-2.24,2.27-2.24,2.27-.39.37-.73.76-1.2,1.07-.39.13-.85.22-1.21-.04-.12-.11-.17-.3-.11-.44,0,0,9.59-10.71,9.59-10.71,0,.01,48.25-63.42,48.25-63.42.29-1.55-.61-1.57-1.92-.89-1.95.94-3.86,1.95-5.75,3-.99.49-1.82,1.12-2.47,2.02-3.35,4.22-6.52,8.64-9.77,12.95-.59.74-7.93,11.42-5.87,5.53,1.54-3.49,4.27-6.26,6.76-9.08.91-1.25,8.05-7.83,5.73-8.77-.51-.12-1.02.15-1.5.37l-1.46.68s-1.36.87-1.36.87c-1.78,1.15-3.43,2.69-4.97,4.14,0,0-2.24,2.35-2.24,2.35-8.72,9.64-15.12,21.09-23.43,31.07-13.62,16.81-27.78,33.17-41.59,49.82-5.49,6.7-11.14,13.24-15.99,20.43l-.11-.18c2.17-.52,4.03-1.86,6.05-2.85,3.39-1.79,9.43-1.75,13.22-2.28,1.91-.25,3.93-.3,5.75-.95,1.83-1.65,3.04-3.98,4.52-5.97,3.56-5.1,7.16-11.24,12.25-14.91.26-.14.68-.28,1.01,0,0,0-.07.1-.07.1,0,0-15.6,22.13-15.6,22.13,0,0-.09-.18-.09-.18,16.62.83,32.96,6.4,44.18,19.17,3.64,4.13,6.6,8.79,10.23,12.9,4.52-7.91,10.19-17.06,15.05-25.44,3.8-6.38,7.94-12.54,12.27-18.57.85-.99,4.01-5.89,5.5-4.75,0,0-.06.1-.06.1.02-.08-31.5,49.99-31.36,49.6,0,0,1.27,7.9,1.27,7.9,0,0-.21-.06-.21-.06,4.76-5.89,7.8-12.92,11.58-19.45,2.38-4.14,16.9-27.67,19.66-32.29,22.39-36.52,45.27-72.77,69.39-108.18,7.99-11.43,22.31-31.74,30.43-43.29h0ZM508.47,308.69c-8.2,11.72-22.4,31.87-30.39,43.34-29.58,43.47-57.73,89.05-85.02,134.07-5.57,8.42-9.25,17.97-15.49,25.96,0,0-.17.21-.17.21l-.04-.26-1.28-7.9c-.07.03,31.4-49.77,31.4-49.77,0,0,.03.16.03.16-.48-.3-1.09.28-1.48.57-3.15,2.96-5.29,6.81-7.85,10.27-2.81,4.07-5.44,8.26-8,12.49-5.13,8.51-9.96,17.21-15.33,25.6-5.44-6.24-9.62-13.57-16.27-18.68-10.56-8.97-24.47-12.66-38.08-13.43,0,0-.21-.01-.21-.01,0,0,.12-.17.12-.17.06.12,15.71-22.65,15.62-21.97-.4-.23-1.01.31-1.36.54-2.17,1.76-3.93,3.98-5.72,6.11-3.18,4.14-6.43,9.67-9.7,13.74-.33.47-.93.75-1.48.85-1.65.36-3.33.51-5.01.7-1.64.15-8.27.8-10.01,1.16-3.46.61-6.07,3.28-9.51,4.02,0,0,.17-.25.17-.25,9.97-14.12,21.7-26.96,32.7-40.29,11.02-13.33,22.66-26.2,32.75-40.25,6.26-8.75,12.15-18.05,20.26-25.26.41-.33,1.51-1.2,1.91-1.52.43-.31,1.61-1.01,2.06-1.31,0,0,1.48-.68,1.48-.68.48-.22,1-.51,1.59-.38.66.15.68.93.46,1.44-2.66,4.72-7.18,8.1-10.34,12.47-.99,1.28-1.9,2.63-2.53,4.12-.46,1.41-.77,2.38.72.78,2.45-2.73,4.61-6.14,6.89-9.02,2.63-3.43,5.1-6.99,7.83-10.35,1.3-1.78,3.51-2.5,5.36-3.58,1.27-.47,5.6-3.71,4.94-.41,0,0-48.25,63.42-48.25,63.42,0,0-9.58,10.71-9.58,10.71,0,0,.01-.03.01-.03-.06.26.17.43.43.44.86.12,1.34-.64,1.92-1.16,0,0,2.24-2.27,2.24-2.27,1.48-1.53,2.95-3.06,4.39-4.62,19.28-22.71,35.21-48,53.82-71.24.02-.05,81.1-38.38,81.14-38.42,4.86-.97-2.42,7.08-3.3,8.1-2.25,2.73-4.85,5.49-5.8,8.98,0,0-.08-.13-.08-.13l1.75.34-.11.05s12.4-18.74,12.4-18.74v-.02s.04-.01.04-.01c0,0,3.31-1.62,3.31-1.62l.3-.15c-9.34,15.09-29.97,49.04-39.06,63.54-3.54,5.08-7.56,9.8-10.93,15-.57.86-1.08,1.75-1.61,2.64-.35.63-.91,1.33-.77,2.08.06.23.25.41.48.51,0,0-.07.02-.07.02,5.73-7.58,11.03-15.47,16.13-23.49,7.66-12.02,14.91-24.3,22.76-36.2,2.44-4.1,5.89-7.46,8.57-11.37,2.57-4,4.34-8.45,6.79-12.53.64-1,1.23-2.09,2.32-2.66,2.82-1.64,5.79-3.06,8.87-4.15.29-.06.56-.22.88-.13h0Z"/>
      <path d="M195.18,372.36c-1.55,9.96,9.61,15.9,17.86,17.82,5.35,1.27,11.39.51,15.84-2.84,6.1-4.66,6.79-13.27,5.34-20.29-1.43-7.28-5.17-14.02-10.69-18.99-8.28-7.73-24.45-17.38-34.48-7.76-10.12,11.68-6.26,29.45,1.35,41.46.33.43,2.64,4.48,2.62,2.54,0-.22-.02-.45-.05-.68l.02.05c-1.63-2.34-2.85-4.93-3.87-7.58-3-8.4-5.63-21.29,1-28.52,2.84-2.84,7.14-3.56,10.98-2.98,5.99,1.1,11.02,5.08,15.41,9.1,6.28,5.74,10.71,13.74,11.13,22.34.48,11.33-11.91,10.86-19.34,7.01-5.09-2.55-9.34-6.5-13.12-10.66h0ZM195.17,372.34c3.85,4.16,8.07,8.08,13.17,10.61,7.28,3.78,19.71,4.24,19.13-6.93-.44-8.54-4.9-16.45-11.12-22.16-4.09-3.81-8.76-7.4-14.24-8.86-10.28-2.11-15.77,4.61-15.83,14.42,0,8.42,2.26,17.05,6.88,24.13.06.24.06.5.06.75-.03.23.05.51-.26.72-.31.1-.5-.15-.7-.31-1.93-2.32-3.35-5.03-4.72-7.71-5.56-11.29-7.49-26.67,1.45-36.75,10.08-9.67,26.29-.06,34.64,7.7,5.55,4.98,9.33,11.76,10.79,19.07,3.25,15.21-5.4,26.57-21.41,23.29-8.21-1.93-19.54-7.99-17.84-17.95h0Z"/>
      <path d="M192.83,378.68c-.22-3.24-.73-7.15,1.51-9.85,1.83-1.62,4.3-2.31,6.5-3.26,3.62-1.4,7.31-2.61,10.88-4.12,1.38-.68,5.15-1.96,4.54-3.9-2.19-2.9-5.07-5.22-8.34-6.84-4.38-2.12-10.82-4.57-14.85-.65-5.74,6.23-4.53,15.86-2.65,23.46.55,1.77.89,3.95,2.41,5.16h0ZM192.84,378.7c-1.6-1.16-1.92-3.38-2.51-5.15-1.94-7.27-3.09-16.07,1.6-22.55,3.76-5.37,11.25-2.9,16.06-.41,3.28,1.65,6.13,4.02,8.35,6.92,1.08,2.75-7.97,5.28-9.97,6.23,0,0-5.45,2.04-5.45,2.04-1.81.7-3.63,1.38-5.32,2.32-3.58,2.1-2.84,7.04-2.75,10.61h0Z"/>
      <path d="M197.68,369.56c8.85,18.37,39.29,16.1,20.92-7.12-5.35,2.1-14.95,5.06-20.92,7.12h0ZM197.66,369.55c6.24-2.11,15-5.44,21.13-7.26,18.42,23.27-12.58,26.1-21.13,7.26h0Z"/>
      <path d="M200.67,394.35c-.29,1.3.83,2.08,1.71,2.8,1.35,1.42,2.7,2.83,4.09,4.21,6.71,6.57,13.87,12.68,21.43,18.24,13.05,9.74,28.53,17.98,41.32,2.88,13.84-15.77,3.25-39.5-16.07-44.01-2.91-.78-6.63-.64-9.22-.46,0,0-.65,6.59-.65,6.59,9.31.95,19.45,8.38,21.69,18.23.28,1.01.54,2.66.6,3.72.35,3.77-.69,7.61-2.66,10.82-15.01,24.15-48.42-12.53-62.24-23.02h0ZM200.66,394.32c14.59,11.08,50.52,49.88,63.66,19.57,1.37-3.48,1.34-7.42.43-11.01-2.36-9.9-11.81-16.76-21.58-18.2,0,0-.09-.02-.09-.02,0,0,0-.09,0-.09l.66-6.59c2.96-.64,6.4-.31,9.44.33,19.33,4.52,29.98,28.48,16.15,44.26-12.92,15.23-28.38,7.05-41.53-2.85-7.55-5.59-14.69-11.73-21.38-18.32-1.39-1.38-2.73-2.8-4.08-4.22-.87-.74-2.05-1.53-1.69-2.85h0Z"/>
      <path d="M240.5,386.35c-1.54.25-3.58,1.51-5.03,2.13,0,0-4.93,2.43-4.93,2.43-6.43,3.41-14.3,4.82-21.31,2.43-2.73-.69-4.81-2.61-7.15-4.04-.79-.44-1.69-.71-2.57-.59,0,0,.06-.16.06-.16,8.93,10.86,20.27,19.39,31.86,27.21-.3.06,23.43-10.82,23.35-10.81,0,0,.06-.03.06-.03,0,0,.02.07.02.07.12.48.18,1.02-.06,1.49-.24.47-.68.75-1.09,1.02-2.39,1.74-4.97,3.24-7.65,4.5-3.56,1.72-7.23,3.19-10.84,4.76l.05-.08c-.08.78.27,1.56.92,2.02,2.76,1.57,5.92,2.58,9,3.36,2.71.64,5.61.81,8.34.16,6.44-1.68,8.68-8.05,9.22-14.06,0,0,.03.09.03.09-.06-.06-.31-.01-.49.03-1.38.5-2.62,1.31-3.88,2.03-2.58,1.51-6.1,3.76-8.75,5.06-1.54.66-3.1,1.7-4.87,1.37,0,0-.27-.08-.27-.08l.25-.15,17.78-10.37c.1-2.39-.7-5.49-2.09-7.77-2.79-4.61-7.21-8.79-12.68-9.75-2.19-.42-4.52-.23-6.64-.91-.45-.31-.46-.94-.66-1.36h0ZM240.51,386.33c.27.59.31,1.49,1.15,1.52,2.03.42,4.11.38,6.15.73,5.5.95,9.95,5.12,12.78,9.75,1.34,2.39,2.38,5.22,2.06,7.97,0,0-17.74,10.45-17.74,10.45l-.02-.22c1.58.3,3.24-.73,4.67-1.36,2.63-1.29,6.18-3.54,8.74-5.05,1.28-.74,2.54-1.55,3.94-2.06.22-.03.43-.18.73.03-.21,3.15-1,6.62-2.68,9.36-3.77,6.23-11.24,6.25-17.48,4.2-1.56-.45-3.04-1.12-4.55-1.69-1.46-.51-3.39-1.43-3.17-3.29,0-.06,0-.06.05-.08,6.31-2.76,12.9-5.1,18.5-9.2.41-.26.83-.54,1.05-.97.23-.42.17-.94.06-1.4l.08.04c-.06,0-23.42,10.87-23.46,10.81-11.61-7.81-23.05-16.27-31.95-27.18,0,0-.11-.14-.11-.14l.18-.02c2.94-.25,4.84,2.51,7.26,3.66,4.14,1.96,8.83,2.65,13.36,2,2.7-.42,5.43-.99,7.92-2.15,1.57-.73,5.81-2.8,7.42-3.59,1.48-.62,3.5-1.87,5.06-2.11h0Z"/>
      <path d="M365.18,527.41c1.63-3,5.02-4.42,6.84-7.22,1.54-2.98,1.19-6.58.68-9.79-2.69-13.14-12.96-23.76-24.32-30.24-12.43-6.44-41.23-9.46-53.28-1.63-8.17,4.99-8.76,13.66-5.77,22,2.45,7.11,8.8,9.69,15.14,11.49,0,0,1.08-4.47,1.08-4.47l.06.08c-7.27-.42-13.53-7.17-12.65-14.55,3.23-25.36,73.75-6.3,73.08,23.24,0,0-.08,1.79-.08,1.79-.4,3.7-3.64,6.23-6.58,8.04-4.1,2.53-8.9,3.63-13.69,3.31-9.45-.59-19.06-2.46-27.49-6.94-4.08-2.31-7.65-6.62-7.27-11.54.32-5.06,5.51-8.43,10.32-7.78,4.78.55,9.14,3.5,11.65,7.56,2.67,4.23,5.41,8.01,11.01,7.22,0,0-.07.04-.07.04-.65-2.42-2.01-4.72-3.15-6.97-2.91-4.23-6.63-8.06-10.31-11.63-6.74-4.42-16.07-.2-20.43,5.77-3.41,4.34-2.42,10.1.1,14.62,2.5,4.57,6.62,8.09,11.18,10.55,12.95,6.84,32.91,8.02,43.94-2.94h0ZM365.2,527.43c-10.99,10.99-31.08,9.85-44.02,3.03-4.58-2.45-8.73-5.98-11.26-10.58-2.56-4.6-3.56-10.38-.11-14.81,4.43-6.08,13.87-10.35,20.74-5.85,1.98,1.74,3.69,3.7,5.45,5.63,2.68,2.88,5.2,5.89,6.7,9.57.5,1.12,1.09,2.22,1.39,3.42,0,.1.06.16-.05.34,0,0-.02.03-.02.03-9.13,1.3-9.88-8.57-16.2-12.35-1.98-1.27-4.22-2.21-6.57-2.43-4.69-.63-9.75,2.63-10.06,7.57-.38,4.82,3.15,9.06,7.15,11.32,8.36,4.46,17.98,6.33,27.38,6.92,4.77.32,9.5-.76,13.58-3.27,2.92-1.79,6.1-4.26,6.5-7.89,0,0,.08-1.77.08-1.77.72-29.33-69.56-48.52-72.8-23.23-.86,7.31,5.34,14,12.55,14.4,0,0,.08,0,.08,0l-.02.08s-1.08,4.47-1.08,4.47c0,0-.02.07-.02.07l-.07-.02c-3.22-.83-6.46-1.87-9.26-3.73-2.81-1.83-4.96-4.63-6.09-7.79-3.03-8.41-2.42-17.19,5.82-22.23,12.1-7.91,40.95-4.81,53.46,1.68,11.38,6.52,21.64,17.18,24.31,30.36.5,3.23.85,6.83-.71,9.82-1.83,2.81-5.21,4.21-6.86,7.22h0Z"/>
      <path d="M321.12,483.64c-3.1.54-6.33-.06-9.44.48-3.27.5-4.9,3.79-6.83,6.13-1.25,1.7-2.42,3.45-3.71,5.13l-.04.05c-.35-.05-.7-.09-1.02-.31-1.42-1.29,2.56-4.37,3.39-5.39.57-.62,1.54-1.41,1.18-2.29-.16-.21-.53-.13-.81-.05-2.32.93-4.34,2.73-5.88,4.69-1.63,1.88-1.63,10.07,2.06,9.47.54-1.32,1.59-2.94,2.47-4.26,1.24-1.7,8.23-11.83,10.08-10.62,0,0,.08.07.08.07l-.06.08-11.47,16.16-.07-.19s6.19,1.51,6.19,1.51c-.54.42,14.01-20.72,13.88-20.64h0ZM321.14,483.62c-.06.08-13.83,20.84-13.88,20.91,0,0-.08-.02-.08-.02l-6.19-1.51c-.2-.06-.22.01-.07-.19.03.09,11.63-16.63,11.51-16-.25-.21-.69,0-1.01.21-2.33,1.7-4.01,4.15-5.87,6.33-2.06,2.59-4.01,5.34-5.5,8.28-3.76.65-3.83-7.71-2.17-9.63,1.56-2.01,3.54-3.8,5.92-4.77.29-.07.7-.21.98.1.34.66-.11,1.36-.52,1.83-1.41,1.66-3.4,3.01-4.26,5.04-.24.7.49.95,1.05.99,0,0-.1.04-.1.04,2.59-3.32,4.76-7,7.82-9.95,3.5-2.73,8.31-.88,12.36-1.66h0Z"/>
      <path d="M317.33,495.38c5.95-1.52,12.58-.34,17.24,3.81,4.55,3.97,8.15,9.52,11.3,14.33,2.82-4.32,5.76-9.35,8.46-13.37-2.31-3.09-5.45-5.46-8.63-7.63-4.85-3.12-10.11-5.81-15.79-6.99-.82-.12-2.03-.29-2.87-.27-.96-.04-1.84.45-2.56,1.06-2.91,2.55-4.48,6.3-7.16,9.06h0ZM317.31,495.39c2.66-2.85,4.16-6.56,7.08-9.19.73-.63,1.65-1.16,2.66-1.13.84-.04,2.07.12,2.91.24,5.73,1.13,11,3.89,15.87,7.02,3.2,2.17,6.32,4.58,8.63,7.73-2.68,4.5-5.75,9-8.51,13.52,0,0-.04.06-.04.06l-.04-.06c-1.77-2.49-3.47-5.03-5.31-7.47-5.89-8.15-12.85-13-23.26-10.71h0Z"/>
      <path d="M357.2,502.33c-.46-.02-1.07-.22-1.46.09-.34.88-.39,1.23-.92,2.35-2.59,5.81-3.47,14.61-10.92,16.08-3.83.71-9.11.4-10.6-3.89-.98-2.53-2.41-4.96-4.98-6.12-4.09-2.28-13.15-2.87-12.64,3.82.53,6.59,10.99,8.6,16.26,9.92,7.8,1.5,16.51,2.96,23.84-.89,8.45-4.57,5.71-14.74,1.43-21.36h0ZM357.21,502.31c10.51,16.54.25,25.91-17.28,23.8-6.52-.87-23.88-3.22-24.38-11.43-.49-6.76,8.65-6.21,12.81-3.94,2.59,1.14,4.09,3.63,5.07,6.15,1.66,4.55,7.44,4.47,11.39,3.52,5.19-1.57,6.81-7.29,8.44-11.87.61-1.94,1.55-3.78,2.25-5.67.05-.88,1.08-.64,1.69-.56h0Z"/>
    </g>
  </g>
  <g>
    <polygon points="408.4 282.12 409.07 283.83 349.26 307.95 348.58 306.24 408.4 282.12"/>
    <path d="M408.4,282.11s.69,1.71.69,1.71v.02s-.01,0-.01,0c-19,7.83-40.74,16.42-59.8,24.16,0,0-.06.03-.06.03,0,0-.03-.06-.03-.06l-.68-1.71c14.66-6.2,44.99-18.16,59.89-24.16h0ZM408.39,282.13c-14.76,5.96-45.22,18.51-59.74,24.08,0,0,.67,1.71.67,1.71l-.09-.04c13.94-5.55,31-12.58,44.85-18.11,0,0,14.98-5.97,14.98-5.97,0,.16-.67-1.7-.67-1.67h0Z"/>
  </g>
  <g>
    <polygon points="520.23 228.53 505.86 236.01 486.93 243.18 515.58 229.54 520.23 228.53"/>
    <path d="M520.24,228.52c-4.27,2.24-10.12,5.41-14.35,7.58-5.58,2.07-13.47,5.01-18.94,7.14,0,0-.05-.13-.05-.13,4.77-2.29,16.85-8.09,21.47-10.27,0,0,7.18-3.36,7.19-3.37,0,0,4.68-.96,4.69-.96h0ZM520.22,228.53l-4.63,1.08c.07-.03-7.14,3.45-7.13,3.45-4.55,2.19-16.79,7.96-21.51,10.18,0,0-.05-.13-.05-.13,5.48-2.02,13.39-5.07,18.92-7.2,4.08-2.14,10.2-5.21,14.4-7.38h0Z"/>
  </g>
  <g>
    <path d="M388.98,350.01l-74.53,34.66-44.17,17.55,2.33-1.66c39.39-15.7,77.39-34.5,115.86-52.29l.51,1.73Z"/>
    <path d="M388.99,350.01c-13.89,6.34-64.15,30.25-77.25,35.8-8.21,3.23-33.46,13.3-42.01,16.7,0,0,.5-.35.5-.35.02,0,2.33-1.66,2.34-1.67,34.22-13.54,82.01-36.59,115.88-52.23,0,0,.02,0,.02,0,0,0,0,.02,0,.02l.51,1.74h0ZM388.97,350s-.57-1.79-.5-1.71c-38.38,17.87-76.5,36.75-115.82,52.34,0,0-2.33,1.65-2.33,1.65,0,0-.07-.13-.07-.13,8.36-3.32,33.53-13.28,41.44-16.46,12.77-5.52,63.73-29.55,77.28-35.69h0Z"/>
  </g>
  <g>
    <polygon points="517.4 291.47 518.25 293.47 439.06 327.62 438.22 325.61 517.4 291.47"/>
    <path d="M517.41,291.46s.86,2.01.86,2.01v.02s0,0,0,0c-25.51,11.16-53.58,23.11-79.23,34.23,0,0-.03-.07-.03-.07l-.85-2c19.48-8.7,59.53-25.69,79.26-34.19h0ZM517.4,291.48c-19.59,8.45-59.77,26.07-79.11,34.1,0,0,.84,2,.84,2l-.1-.04c25.69-11.02,53.57-23.2,79.21-34.09.01.11-.84-1.99-.84-1.97h0Z"/>
  </g>
  <g>
    <path d="M541.94,282.51c-.19,1.74-1.9,1.84-3.11,2.42-5.93,2.88-13.82,5.88-20.11,8.5-8.32,3.46-17.12,7.21-25.82,9.52l38.66-16.97,10.38-3.47Z"/>
    <path d="M541.95,282.5c-.05,1.26-1.27,1.82-2.31,2.15-3.04,1.37-6.08,2.82-9.18,4.08-12.06,4.78-25.07,10.84-37.54,14.28-.38-.24,19.31-8.55,19.27-8.66,6.44-2.84,12.89-5.66,19.36-8.44,0,0,10.41-3.42,10.41-3.42h0ZM541.94,282.52s-10.36,3.54-10.34,3.53c-11.16,5.01-27.3,12-38.67,16.97,0,0-.05-.13-.05-.13,12.96-3.46,25.03-9.49,37.51-14.31,3.12-1.23,6.13-2.69,9.21-4,1.03-.31,2.22-.84,2.32-2.05h0Z"/>
  </g>
</svg>