<?xml version="1.0" encoding="UTF-8"?><svg id="Layer_2" xmlns="http://www.w3.org/2000/svg" viewBox="0 0 289.48 107.99"><g id="arroz_con_gandules"><path d="M159.95,11.35l.08.46.53-.15-.13,1.3c.35.3.14.91.16.98.02.05.6.25.43.79l.46-.16.13.54c-.48.21-.42.84-.44,1.29h.77c-.15.29-.19.84-.12,1.15.01.05.56.18.13.78l.29.07c.07.25-.22.11-.26.18-.25.48.26.87.35,1.12.17.46-.55,1.5.52,1.46.07.25-.26.06-.31.25-.14.59-.03.96.62.98l-.39.78c.43.6,1.42,1.73.85,2.43.89.16,0,1.85.93,2.23-.59.71.08.77.12.87.01.03.15.48.17.54.08.28.03.66.17.96l.3-.15c.17.25,0,.69.03.83.06.18.32.16.42.36.14.27.27,1.07.31,1.41l.46-.09.31.47-.61.3c.43.23.55.31.46.84l.61-.15c.21.67.32,1.03,0,1.68.81.04.48.35.63.65.1.2.63.68.66.73.08.15.13.81.25.92.27.26.2.08.26-.15.11-.45.34-1.52.33-1.92-.02-.65-.9-2.22-.62-2.93.06-.16.39-.44.34-.51l-.61-.17c.15-.86,0-1.6.46-2.44l-.77.15.55-1.3c.09-.36-.14-.55-.39-.77.5-.19.78-1.01,0-.84l.3-.22c-.15-.17-.31-.92-.28-1.08.02-.1.25-.04.26-.14.04-.61.23-1.01.3-1.38.1-.52.32-1.62-.43-1.62.58-.56-.14-1.01-.09-1.45.02-.21.36-1.18.39-1.52l-.3-3.2.63-.26c-.53-.73.45-2.16-.46-2.45v-.15s1.77-1.07,1.77-1.07v-.62s1.14.46,1.14.46l-.16.46c.48-.21,1,.47,1.01.85,0,.2-.3.55-.33.82-.03.26.27.5.08.78h.61s-.31.23-.31.23l.31.15c.01.3-.42.65-.53.98-.13.39.24,1.04.17,1.17-.1.19-.58.22-.36.81.02.06.53-.08-.06.72.39.13.36.27.3.68h-.45c.19.57.39,1.26,0,1.78l.31.15-.16.83.46.08c-.41.1-.15.24-.31.45-.06.08-.52.06-.31.39.02.02.24-.04.27.07.01.04.11.77.11.84.01.34-.56.45.22.63l-.46.53.29.15c-.59.74.27,1.39.19,1.82-.03.14-.33.13-.42.32-.02.04-.04.74-.03.78.06.15.36.13.39.29.04.2-.33,1-.25,1.14l.44.25-.46.77.3.14c-.52.75.15,1.01.15,1.07-.07,1.02.03.45.14.78.16.46-.42.71-.42.76.01.31.22.87.27,1.25.05.42-.39.81.48.98l-.3.3c.73-.04.03,1.18.02,1.45,0,.12.15,1.63.19,1.71.11.22.39.2.41.22.06.09-.26.24-.26.38,0,.26.8.81-.2.93.1.36,0,.7.13,1.08.07.21.28.22.3.29.16.74.01,1.75.19,2.53h-.61c.37.33.28,1.14.15,1.58-.04.15-.29.1-.3.11-.05.08.2.23.23.37.17.78-.47.97-.85,1.42-.11.13-.07.46-.25.51-.62.16-1.26-.59-1.81-.78l-.38.46-.43-.88c.38-.6-.81-1.22-.92-1.51-.24-.64.38-.36.28-.82l-.39-.14.08-.47-.46.15c.07-.21.13-.55.05-.76-.26-.67-.98-.44-.36-1.38h-.92s.3-.85.3-.85c-.5-.12-.27-.45-.4-.68-.29-.51-.68-1.01-.78-1.45-.04-.16.04-.74-.04-.85l-.29.15c-.14-.49-.44-.92-.67-1.37-.09-.19-.02-.49-.11-.64-.2-.35-.81-.36-.46-1.19-.44-.31-.04.72-.46.3-.18-.18-.22-1.12,0-1.38l-.46.15c.31-.82-.15-.86-.3-1.19-.21-.46-.04-.76-.11-1.11-.12-.56-.79-.74-.51-1.53h-.62s.16-1.29.16-1.29l-.39-.55-.53.15.14-.54c-.99-.38.22-1.56-.73-1.77l.13-.59c-.44-.1-.21.02-.24.22-.07.41-.21.64.24.77-.54.57-.64,1.09-.77,1.84l.61-.23c.11.58-.38,1.1-.41,1.61-.02.37.18.56.18.85,0,.8-.53,1.11-.64,1.72s.45,1.02-.05,1.49l.61-.15c-.12.52.17.75-.47,1,.72.9-.07,2.2-.01,2.91.03.31.36.15.33.44-.06.65-.56.63-.62.71-.03.04.4.62.22.92l.7.15-.61,1.15c.65.17,0,1.35,0,1.68,0,.19.23.37.26.68.04.37-.54,1.15-.19,1.7.09.14.52.09.3.53-.24.48-.39.36-.84.23.3.63-.7,1.13-1.23.92l-.08.46c-.3-.31-.73-.53-1.15-.31v-1.07s-.46.3-.46.3l.11-.27c-.73-.21.43-1.66-.72-1.41-.12-.2.34-.67.38-.9.06-.34-.34-.85.23-.79l-.31-.24c.27-.3.02-.74.05-.92.01-.07,1.14-.82-.05-.84.13-.29,0-.62.06-.91.18-.79.52-.6.52-1.73,0-.15-.22-.32-.22-.49,0-.18.38-.33.08-.88-.07-.13-.31-.11-.3-.19.04-.2.41-.55.39-.92-.02-.4-1.21-1.4.07-1.46l-.31-.23.32-.61-.31-.15.31-.46c-.21-.37-.38-.07-.62-.16.74-1.02.46-1.58.46-2.68l-.46-.08c.19-.34.32-.58.76-.54-.05-.36-.09-.71-.45-.83l.59-1.24c-.02-.15-.41-.15-.45-.33-.06-.27.25-1.89.47-2.11l-.31-.08.31-.46-.31-.08.46-.61-.76-.38c.57-.01.03-1.07.92-.92-.29-.33-.64-.97-.37-1.38.16-.24,1.05-.46.22-.84.53-.49.34-.96.29-1.6h-.44c-.01-.81.65-1.39.77-2.23l-.3-.14.15-.46-.33-.17c.47-.86.34-1.36.24-2.2-.05-.45.37-1-.31-.68l-.23-.33c.45-.5.15-.7.15-1.06,0-.04.42-.22.34-.67l2.58-.34Z"/><path d="M16.48,7.21l.22-.3c.36.26.76.36,1.11.51.06.02.06.24.15.26.26.05.63-.18.66-.16.05.03.15.84.24,1.06.25.57.77.65.84,1.61.03.44-.52.79.44.87.06.45-.38,1.05-.3,1.42.02.1.26.09.27.12.03.06.33,1.05.33,1.11,0,.19-.2,1.15-.11,1.28.1.14.58.1.43.57-.07.21-.54.15-.46.38.7-.04.33,1.2.48,1.36l.58.27-.14,1.28.43.02c.08.5.09.57-.13,1.06l.46-.15c-.13.5.18.77-.46.99.25.25.33.57.48.87.06.13.73,1.63.75,1.73.07.37-.09.88.02,1.2.07.21.36.19.42.33.05.12-.22.61-.22.76,0,.14.13,1.69.15,1.78.06.29.37.27.4.4.04.2-.14.54-.12.77.07.75.14,2.28,1.02,2.36-.29,1,.65.47.49,1.26-.65.3-.3.46-.37.77-.11.49-.29.75-.1,1.32l.77-.15c.09.05-.84,1.87.31,1.69.05.05-.54.9-.42,1.3.04.14.74.79.78.88.11.29-.14.73-.15,1.08,0,.72.53,1.03.4,1.79l.46-.15v.97s-.3.25-.3.25c.58-.11.04.66.08.92.07.56.56,1.6.63,2.14.05.35-.15,1.51-.08,1.74s.84.28.31,1.11l.29.13-.31.69.61.08c0,.13-.75.44-.83.53-.06.07.07.41-.17.45-.11.02-.3-.12-.45-.1-.3.03-.57.19-.89.1-.05-.01-.85-.51-.89-.54-.37-.38-.06-1.03-.91-.81.59-.8-.03-.91-.12-1.1-.11-.25.4-1.11-.31-1.27l.43-.62c-.69-.26-.4-.62-.49-1.08-.02-.08-.25-.05-.25-.14,0-.43.24-.8-.17-1.31l.46-.08c-.84-.28.06-.72-.61-1.23l.31-.23c-.51.21-.68-.63-.62-.97.02-.09.59-.03.15-.9-.08-.15-.33-.16-.39-.41-.09-.39.11-.71.08-.85-.04-.18-.36-.19-.4-.27-.14-.26-.06-1.12-.08-1.17-.05-.12-.71-.21-.11-1.02l-.3-.15c.26-.79-.29-2.61-1.17-1.46l-.31-.31-.62.32c-.4-.38-.5-.28-1.05-.28l-.09.42-1.06-.02v-.44c-.41-.18-.36.44-.54.46-.08,0-.52-.48-.92-.47-.52,0-.54.52-1.31-.07-.43.35-.67.73-1.21.24l-.31.31.3.45-.3.09c.05.22.14.9.1,1.07-.05.2-.35.14-.4.32-.29,1.14-.31,2.91-.51,4.09-.1.57-.74,1.89-.57,2.6.03.12.31.11.31.17-.02.37-.46.74-.76.93-.13.44.61.09.61.3l-.29.61-.47-.07-.15,1.22.77-.15c-.2.49-.07.99-.77.92l.3.23c-.26.27-.3,1-.76.69l.15.46c-.83.32-1.87,0-2.53.43-.8-.53,0-1.34-.98-1.73.29-.53.93-1.55.91-2.14,0-.06-.76-.28,0-.93l-.46-.38c.68-.06.3-.44.38-.77.1-.44.6-1.22.11-1.3-.11-.3.74-1.24.85-1.56.12-.35-.25-.77-.25-1.04,0-.32.35-.59.44-.93.33-1.15-.14-2.46.33-3.34.15-.28.58-.46.61-.8,0-.06-.31-1.06-.35-1.11-.16-.18-.8.08-.41-.63l.57-.03c-.03-.7.75-1.65.88-2.12.14-.52-.41-.63.5-1.15-.45-.57-.5-.98.33-.85.06-.03-.23-1.23-.23-1.37,0-.17.14-.3.14-.49,0-.87-.32-1.44.54-2.07l-.3-.51c.4.05.23-.57.43-1.03.17-.4.74-.82.75-.88.02-.11-.3-1.39-.57-1.39.13-.13.26-.26.34-.43.3-.65.2-.54.28-1.09.04-.32.29-.55.32-.93.02-.33-.22-1.18-.14-1.38.07-.15.37-.13.39-.29.02-.13-.16-.38-.12-.6.02-.11.29-.08.31-.19.02-.12.11-1.29.1-1.36-.02-.21-.33-.32-.32-.71.02-.69.55-.78.55-.84,0-.19-.21-.37-.25-.52-.11-.51.51-.59.54-.63s-.22-.36-.25-.55c-.08-.53.55-1.59-.05-1.59v-.15c.07,0,.22.01.25-.03.14-.2.79-1.27.98-1.42.36-.28,1.15-.17,1.07-1,.4.14.65.31.61.77ZM17.56,19.92c-.02-.22,0-.44.03-.66.14-.73-.01-1.93-.22-2.76-.16-.63-1.07-.98-.49-1.79l-.39-.31c-.16.13,0,1.27-.03,1.46,0,.05-.14.44-.21.86-.06.4-.33,1.01-.38,1.28-.02.09.28.05.31.17.17.65-.69,1.4-.62,2.12l.46.08-.31.23.46.38-.92.46.61.76c-.13-.11-.73.68-.75.74-.03.08-.31,1.56-.31,1.64,0,.27.31.51.27.74-.04.26-.71,1.07-.73,1.13-.3,1.11-.21,2.32-.4,3.48-.03.18-.26.32-.22.54l2.14.15.08-.61c.75.59,1.3.17,1.99.62l.3-.31c.19.24,1.66.39,1.78.22.46-.63-.31-.7-.28-1.24.05-.99.18-1.18-.03-2.27-.09-.48.23-1.04-.45-1.16l.13-1.58c-1.18-.54-.43-1.83-.77-2.57-.08-.17-.28-.17-.36-.27-.11-.15.11-.54-.56-.46.14-.45.52-.75.31-1.22l-.46.15Z"/><path d="M31.04,9.51s.47.03.66.15c.17.11.13.44.49.48.44.04,1.25-.74,1.84-.71.35.02.72.34.93.34.18,0,.38-.27.59-.23.18.04.32.38.48.4.22.02.78-.55,1.2-.28.29.19.1.59.12.61.08.08.38.06.48.16,1.11,1.02.72.38,1.6.72.28.11.41.7.85.86.36.13.75-.28.9.39l.27-.12.16,1.07.61-.46v.91s.92.4.92.4c-.28.8,0,1.8.91,1.92l-.31.97c.6.27.61.7.69,1.29.04.31-.29.7.24.63.07.25-.21.11-.26.18-.04.06.05.28-.04.48-.24.53-.36.64-.39,1.48-.01.27.38.48-.08.85l.3.08-.31.23.46.38c-1.01.26-.71,1.74-1.23,2.38l.32.15c.01.2-.94,1.43-1.24,1.45l.29.16-.14.45.46.15c-.45.22-.49.5-1.07.16l.15.61c-.7.08-1.08.96-1.64,1.38-.14.1-.46.11-.5.16-.04.06.09.45.03.71-.11.48-.66.6-.63.85l.29.72.44-.15c.03.68.82.6,1.05.8.2.17,1.03,1.32,1.26,1.57s.82.51.87.57c.22.22.07.82.19,1.13.22.59,1.02.57,1.08,1.22l.46-.09c.24.54.19.9-.14,1.38h.46s.16,1.08.16,1.08l.46-.16.16.55-.31.44.74.41.02,2.03.46.09c-.28.8.01,1.03.15,1.61s.07,1.56.77,1.45l-1.04,1.22-2.18.15.14-.53-.45-.31.31-.23h-.92s.15-.61.15-.61l-.46.07c-.04-.38.34-1.09.32-1.36,0-.1-.3-.09-.37-.28-.09-.24.11-.68-.09-.95-.18-.25-.65.14-.35-.37-.28-.04-.66-.41-.34-.65l.52-.22c-.87-.69-1.05-1.49-1.07-2.53l-.61.15c-.14-.98-.25-1.82-1.38-1.99l.31-.23c-.54-.16-.86-.56-.93-1.15l-.28.13-.5-1.2c-.64.32-.91-.3-1.44-.62-.2-.12-.49-.06-.59-.13-.17-.13-.09-.43-.25-.57-.11-.09-.39.05-.57-.03-.57-.22-.17-.62-.2-.65-.08-.07-.59,0-.69-.04-.12-.05-.39-.67-.83-.44v-.45s-.47.16-.47.16c.44.54-.01.83.03,1.12.02.16.3.42.36.71.12.55.17,1.13.24,1.68l.45.09-.25.13-.52.87h.61s-.46.92-.46.92h.77c-.29.21-.33,1.16-.39,1.23-.16.19-.86.22-.09.52.06.43-.24,1.58-.23,1.85s.37.72.27,1.13l.75.18c.06.24-.21.08-.3.26-.47.94.49,2.42,0,3.41l.76.08-.31.69-.76-.15c.33.72-1.6,1.03-2.04.92-.38-.23-.43-1.26-.55-1.43-.18-.25-.67-.16-.32-.72h-.45c-.27-.57.61-1.13.01-1.09l.11-.41c-.32-.06-.44-.32-.44-.64l.61-.16v-.23c-.82-.33-.19-2.28-.34-2.75-.02-.08-.21-.08-.25-.2-.22-.57-.6-1.02.1-1.34.12-.35-.27-.4-.27-.47-.02-.65-.14-.28-.17-.59-.05-.42.03-.92.32-1.24-.59-.17-.2-.42-.17-.77,0-.06-.2-.06-.27-.19-.36-.69.22-.52.29-.75.01-.04-.13-.78-.17-.8l-.6-.02.32-1.06h.45c-.91-.61.41-2.09-.77-1.69l.02-.76.45-.09-.16-1.21.31-.17c-.43-.27-.82-1.69-.31-1.83-.02-.68-.6-.52-.61-.63-.08-.61.33-.78.44-1.1s-.09-1.45-.29-1.76c-.11-.18-.28-.11-.29-.12-.05-.09.23-.22.25-.38s-.15-.35-.16-.52c-.03-1.19.05-2.35-.38-3.48l.25-.09c.08-.05.04-.1.03-.18-.11-.6-.36-.26-.41-.3-.65-.5.1-.98.13-1.71.03-.69-.29-.87-.41-1.38-.16-.66.43-1.86-.37-2.45l.3-.38-.61-.08.31-.23-.3-.1.46-.9-.32-.31.32-1.21-.46-.08c-.05-.96.48-.41.82-.45.07,0,.8-.47,1.17-.56.3-.07.58.09.84-.17.56.15.2.68.23.72ZM35.76,13.37c-.09-.05-.28.09-.43.04-.36-.13-.77-.77-.99.24-.63-.36-.8-.56-1.46-.15.49.48.16.74-.44.63l-.16.53.3.14c-.57.31.28,1.29-.45,1.31.75.72.04,1.26.15,1.9.05.3.34.48.38.68.1.43-.4.7.38,1.02v.31c-.43.01-.39,1.19-.31,1.5.04.17.33.16.39.25.07.13-.09.35-.05.51.06.23.52.51.43.93l-.31.25h.46c-.21.49-.08.99-.77.92.54.62-.08,1.29.46,1.91l.31-.07c.18.55-.38.76-.46,1.15-.08.42.11.94-.12,1.38.2.39.56.2.88.07l-.15.61c.6.16.71-.38.99-.55s.6.38,1,.24c-.22-.8.87-.12.69-.92-.02-.09-.28-.21-.22-.3.41-.04,2.21-.82,2.38-1.06.07-.1-.15-.4-.02-.62.09-.14.45-.24.63-.47.25-.33-.07-.67.38-.61l-.46-.46c.17-.11,1.38-1.07,1.38-1.17,0-.17-.17-.37-.15-.59.02-.32.5-.62.44-.9l-.59-.55.76-.54-.46-.23.31-.7-.31-.14c.74-1.17-1.07-2.08-.46-3.36-.11-.44-.69.3-.74-.62,0-.15.18-.46.13-.54-.61.27-1.17-.1-1.23-.76l-.29.15c-.13-.78-.98-1.35-1.7-.83-.35-.08-.39-.46-.49-.52Z"/><path d="M56.61,8.92c.07.04.2.51.41.59l-.08-.76c.49.04,1,.19.92.77.82-.61.91.02,1.34.32.29.2.96-.16.81.6h.3s.08-.31.08-.31c.49.11.35.54.4.59.1.08.39-.04.56.06.15.08.79.8.92.88.46.26.73.03,1.04.02.08,0,.02.17.15.25.02.01.18-.12.2-.09.53.45.03.92.03.98,0,.03.44.5.47.51.1.04.35-.19.44-.13s.08,1.88,1.07,1.23c.32.41.11.85.16,1.12.02.13.26.09.29.18.07.2-.44.7.48.7l-.1.27.24.09c-.25.71-.13,1.57.33,2.16l-.47.46c.46.55.67,1.74.45,2.41-.04.12-.22.1-.28.22-.03.05.11.25.06.36-.1.21-.47.25-.51.32-.03.05.14.27.06.44-.1.19-.41.23-.5.35-.17.22-.11.68-.23.93-.17.35-.57.07-.34.87-.91.31-.86.97-1.31,1.61-.1.14-.73.67-.84.84-.16.24.09.64-.09.9h-.6s.16.32.16.32h-.46s.15.45.15.45c-.13.2-1.45.62-1.62.76-.21.17-.15.53-.31.64-.24.17-.78-.01-.82.29l.92.16-.16.3c.14,0,.34,0,.46.08.71.47.98,1.24,1.5,1.79l-.12.28c.89-.05,1.54.81,1.23,1.69l.77-.15c-.5,1.03.59,1.22.46,1.98h.46c-.09.25.03,1.08.12,1.32.08.2.62.7.62.75,0,.65-.42.78.64.85.07.4-.07.57-.46.61v.15c.5,0,.49.53.52.57.21.33.86,1.18.96,1.58.12.46-.34.81-.23,1.28l.59.4c-.52.18-.38.55-1.07.38-.16.1.07.71-.38.82-.56-.44-.66-.63-1.38-.16l-.16-.1c-.25-.18-.17-.6-.3-.78-.16-.22-.68-.1-.9-.95-.13-.5.17-.52.17-.66,0-.09-.75-1.3-.84-1.57-.13-.36-.14-.87-.2-1.25h-.76c.05-.43.24-1.21.13-1.59-.09-.29-.57-.37-.75-.78-.14-.3-.11-.66-.22-.86-.18-.31-.69-.12-.85-.36-.21-.32-.17-.81-.3-1.17-.99.38-.86-.62-1.3-1.22l-.45.3c-.42-.67-1.02-.9-1.61-1.32-.41-.29-.41-.2-.67-.37-.2-.12-.67-.75-.87-.6l-.14,2.05.23.24.52-.14c.06.63-.76.78-.77.85-.13.74.64.82.62.92l-.31.15c-.13.42.31.39.3.45-.03.26-.24.56-.24.93,0,.26.19.45.19.61,0,.24-.36,1.16-.36,1.35,0,.38.36.79.37,1.1.01.41-.41.73-.35,1.15.07.47.54.88.4,1.58-.02.09-.44.14-.23.57l.54.23c.09.53-.37,1.22-.42,1.55-.04.28.35,1.31.1,1.8,1.01.15.18.84-.45.54l.15.3-1.76.56c-.56-.08-.46-.56-.55-.68-.02-.02-.37.16-.52-.17-.12-.27-.14-1.09-.17-1.46-.03-.42.39-.59-.36-.54-.15-.58.29-.81.3-.86.11-.45-.38-1.18-.39-1.51-.01-.38.37-.28.4-.6.01-.13-.08-.96-.13-1.09-.09-.23-.33-.24-.32-.28.02-.24.3-.58.25-.9-.05-.34-.62-.72-.26-1.22.11-.15.41-.03.31-.33-.35-.25-.72-.92-.58-1.35.19-.55.64-.31-.03-1.27.89-.34.27-.93.2-1.53-.05-.46.11-1.16.07-1.53,0-.05-.71-.61.02-.69l-.44-.83c.66-.29.31-.74.46-1.37l-.62-.32c.6-.53.29-.57.35-1.07.03-.2.19-.35.2-.48.06-.71-.42-1.85-.38-2.25.02-.18.26-.42.35-.64.21-.55-.47-.31-.22-.68,0-.01.21.04.3-.12.12-.21.01-.68.12-.93l-.74-.33c.49-.39.1-.82.17-1.15.07-.3.32-.39.29-.69l-.76.15.29-.17-.14-.6h.46c-.5-.47-.03-.57,0-1,.04-.61.09-2.17-.46-2.45.53-.58-.21-.79.31-1.3-.91.4-.74-.93,0-.77-.19-.31-.35-.42-.41-.81-.11-.66.5-.42.41-.79-.54-.11-.15-.74-.18-1.08,0-.08-.25-.05-.28-.18-.19-.93.21-1.58.05-2.51-.03-.17-.22-.33-.22-.52,0-.09.49-.02.32-.38l-.61-.23c.31-.34.43-.59.92-.38l-.28-.38c.27-.57,1.31-.98,1.82-.62.14.1.14.44.3.61.79.85,2.98-.34,3.49-.05ZM55.84,12.45c-.12-.06-.91.24-1.24-.05-.26.03-.68,1.44-.1,1.46l-.3.75.61.32-.61.84.77.16-.18.75-.42.03c.04.52-.09.57.44.83.14.55-.41.2-.3.69h.61c-.12.28-.5.24-.45.7.01.15.43.86.61.91-.47.62-.74.82-.52,1.63.06.21.31.39.34.55.05.29-.7,1.26.49,1.28v.15c-.64,0,.06,1-.9.94l-.02.59h.46s-.11.28-.11.28l.26.03-.3.46h.46s-.31.7-.31.7l.3.22c-.46-.07-.02.47-.61.46-.05.29.33.07.44.17.46.43-.47,1.48-.28,1.82l1.22.15v-.62s.31.07.31.07l.24-.38.6.32.33-.93,1.43-.14c-.27-.57.23-.27.37-.46s.79-1.48.87-1.53l.44.15c.06-.25-.14-.57-.07-.77.1-.27,1.68-1.83,2.06-1.99l-.61-.76,1.14-.61.37-1.31-.27-.14c.44-.65-.15-.71-.17-.8-.09-.38.21-.91.17-1.36-.02-.28-.29-.2-.32-.33-.05-.2.06-.56-.02-.65-.05-.05-.31.04-.4-.05-.07-.06-.02-.3-.08-.37-.63-.64-1.17-1.52-1.84-2-.19-.14-.71-.02-.95-.66-.32-.14-.21.5-.38.3-.04-.05-.05-.33-.22-.48s-.6,0-.96-.25c-.13-.09-.84-.8-.9-.8-.92-.03-.59.15-1.48-.27Z"/><path d="M79.9,8.32c.11.1.17.46.34.66s.59.37.62.48c.06.24-.15.85-.47.9l.31.61c-.21.16-.39-.03-.31.38l.47.08c.22.71-.4.66-.31.91l.75.48c-.54.7.01.85.02.92.05.27-.17.54-.1.83.1.38.54.43.66.7s-.03.9-.26,1.13l.46-.15c.36.55-.11,1.22-.1,1.45,0,.14.29.4.33.67.15,1.12.08,2.11.49,3.2.12.31.62.29.05,1.1.91.04.11,1.54.76,1.54v.15c-.78.24-.33,1.08.46.92.26.77-.45,1.03-.56,1.3-.13.33.28,1.59.42,1.95.05.13.27.12.29.23.07.33-.22.81-.09.97l.7.15c-.07.68-.86.9-.44,1.66l.41.1c-.39.6.34.86.33.92-.06.46-.48,1.05-.4,1.69.05.4.47.54.41.76-.86.35-.28,1.38.29,1.83l-.28.63-.47-.09.3,1.93-.31.15c.17.63.42,2.16-.61,1.91.08.19.15.77.06.92-.1.16-.83.81-.89.91-.16.27-.21.9-.26,1.12s-.36.33-.44.49c-.29.56-.28.75-.82,1.24-.36.33-1.21.68-1.44.86-.11.08-.12.92-.44,1.05l-1.04-.33-.16.32-1-.31-.07.3c-.57-.5-1.5-.67-1.84.15-.3-.27-.43-.55-.23-.92l-.83.16c-.11-.47-.67-.35-.79-.62-.1-.23.14-.48.02-.76-.21-.48-1.51-.76-1.01-1.54l-.45.31c.05-.33-.35-.39-.43-.49-.18-.25.3-.99.27-1.04-.01-.02-.21.02-.25-.03-.02-.03,0-.44-.15-.72-.17-.34-.89-.97-.95-1.12-.08-.21.34-.39-.18-.49,0-.4.46-.59.47-.63.02-.41-.45-.53-.46-.62-.07-.46,0-1.53-.09-2.07-.04-.3-.34-.28-.35-.3-.06-.16.43-.66-.33-.76l.61-.83-.61-.08c-.09-.16.01-1.92.07-2,.07-.1,1.05-.4-.08-.45l.16-.53c-.82-.35.28-1,.29-1.08,0-.06-.32-1.01-.6-.85l.61-1c-.6-.19-.32-.89,0-1.3l-.46-.08c.27-.12.17-.62.2-.66.07-.09.33-.07.37-.25.1-.47-.34-1.57-.06-2.05.04-.06.29-.11.4-.28.13-.2.01-.44.05-.49.07-.08.35-.1.41-.27.17-.51-.3-.46-.6-.45.92-.9,1.61-2.05,1.06-3.35.69-.29.29-.51.42-.98.17-.6.62-1.17.86-1.78.12-.3.1-.91.42-1.25l-.31-.15c.82-.9.22-2.5.94-3.5.13-.18.35-.26.5-.42.2-.22.07-.7.71-.6l-.61-.46.54-.46.53.31c.02-.4-.43-.41-.14-.82l.75-.1-.3-.38c.37-.59,1.61-.61,1.27-1.3l.19-.31.61.27c.33-.6,1.27-.66,1.72-.23ZM78.39,16.27c-.04-.05-.29-.06-.36-.17-.17-.26.02-.78-.38-1.01-.7-.04-.83.95-.16,1.01l-.29.22.12.52c-.8.15-1.09.61-1.3,1.35-.29.99-.37,1.32-.76,2.34-.28.72-.29,1.58-.46,2.38-.07.33-.42.66-.38,1.08l.47.53-.76.32.47,1.13-.47.32.3.14c-.18.37-.08.84-.6.86l.29.16-.14.36c.76.36-.4.98-.04,1.6l-.27.1c.08.21.56.8.57.92.01.21-.35.43-.35.61,0,.1.26.21.15.49-.09.22-.35.21-.45.42-.23.52.24.58.24.62-.02.23-.44.36-.47.61-.1.8.21.42.43.57s.2,1.31-.26,1.2v.15c.97.15.02,1.3.18,1.75.11.32.81,0,.64.99-.12.69-.5.53,0,1.35.06.11.34.13.39.3.07.25-.25.79-.14,1.13l.46-.15c-.48,1.18-.06.79.31,1.34.29.42.78,1.4.45,1.88,1.06.01.58.13,1,.62.12.13.73.18.92.29l.07-.29.38.29c.12-.29,1.24-.82,1.27-.93s-.17-.33-.12-.42c.13-.21,1.25-.28,1.01-1.25l-.4-.45.7-.31-.23-.54c1.05-.44.57-.48.68-1.08.06-.31.27-.52.25-.92-.02-.37-.59-.05-.08-.67.09-.11.32-.15.34-.18.02-.05-.19-.53.03-.74h-.46s.46-.85.46-.85c-.91-.38.15-.44-.31-1.21.58-.12.11-.87.06-1.26-.04-.35.15-.85-.06-1.28l-.61.31c-.19-.47.44-.96.45-1.01,0-.04,0-.69,0-.73-.04-.23-.21.11-.21-.93,0-.4-.45-.74-.25-1.15h-.46s.47-1.77.47-1.77c-.44-.18-.2-.72-.78-.94.33-.65-.11-.39-.14-.73-.04-.42.38-.81.31-1.22-.02-.1-.24-.1-.3-.22-.17-.35.04-.63,0-.84-.01-.07-.68-.58-.3-1.18h-.61c.88-.97-.1-1.67.15-2.6h-.46s.3-1.07.3-1.07h-.61s.27-.17.27-.17c-.17-.42.1-.65.34-.98,0-.04-.57-.38-.59-.41-.07-.19.2-.45.11-.56Z"/><path d="M147.84,9.66l-.15.46c.5.22.8-.47.85-.47.38,0,1.74.73,1.84.73.14,0,.29-.32.38-.26.22.23.13.88.17.91.09.05.34-.08.46.11.15.25.07.7,0,.97h.61s-.61,2.3-.61,2.3l.31-.08c-.34.56.32,1.13.39,1.6.04.26-.32.32-.24.62l.46.08c.03.4.05.49-.31.61.59.31.4.23.31.84l.3-.16c-.02.42-.09,1.03-.61,1.08l.31.15c-.57.75-.11.67-.04.84.08.21.18.62.25.87.1.34-.32.5.4.43l-.31.23.31.15-.61.39.31.61-.31.15h.61c.05.31-.26.4-.31.7-.09.55.26.9.27,1.25.01.32-.63,1.18.5,1.05l-.13.75-.48.09c-.13.4.42.41.46.46.03.05-.23.37-.26.56-.15.88.25,2.24.19,3.05,0,.12-.15.22-.24.3l.31.15c-.37.1-.33.57-.47.92l.16.32.62.14-.3.63-.62-.09c.42.45.3.68.15,1.22l.46-.15-.31,1.07h.46c.08.74-.49.65-.55,1.22-.07.72,1.15,1.49-.22,1.69l.3.22-.46,1.31-.3-.15.14.98c-.08.26-.49.19-.57.28-.15.17-.01,1.07-.18,1.38-.21.39-.32.76-.4.89-.18.31-.58.39-.69.57s.02.43-.06.65c-.15.39-.64.24-.07,1-.15.31-.59.16-.74.26-.13.09-.1.5-.21.56-.13.08-.46-.05-.56.04-.07.06-.02.36-.17.52-.2.21-1.83-.22-1.7.38h-.15c.05-.33-.18-.34-.46-.31.26-.25.04-.5-.15-.3-.08.08-.02.64-.31.61-.14-.23-.48-.84-.63-.99-.47-.47-1.52-.4-1.09-1.44-.66-.19.05-.6-.87-.5l-.02-.75-.46.15c.08-1.1-1.03-1.38-.61-2.6h-.62c.33-.71.14-.97.01-1.62-.13-.7.28-.71-.62-1.06l.46-.53h-.61s.46-.69.46-.69c-.14-.52-.43-.3-.61-.4-.12-.07.47-2.16-.47-1.83l.31-.84-.46-.08c-.07-.25.2-.11.25-.18.29-.49-.04-1.39-.71-1.35l.29-.22-.11-.67.28-.1-.46-.08.06-.61.55-.15-.14-.39.29-.14c-.13-.59-.8-.4-.77-.76.04-.44.31-.74.77-.7-.4-.73-.17-.93.15-1.61l-.31-.15.31-.69-.61-.08c.11-.38.6-1.11.68-1.44.15-.7-.2-1.44.4-2.08l-.62-.32c.7-1.27,1.13-2.73.48-4.14.2-.2.86-.85.95-1.03.1-.19.22-1.05-.2-.88v-.15c.46.06.16-.18.2-.27.02-.04.21-.03.24-.14.09-.31-.24-1.04.62-1.13l-.61-.38c.25-.12.24-.55.35-.65.09-.08.32.03.42-.14.19-.33.29-1.48.73-1.15.07-.4.61-.5.73-.74.17-.33-.36-1.05.83-.76l-.26-.54.34-.38.61.46c.17-.44.78-.73.91-.16.59-.2.5-.56,1.16-.3ZM148.3,13.64c-.75.17-1.49-.12-2.15.39-.21.16.04.41-.02.72-.07.36-.55.61-.56.66-.02.09.12.39.1.46-.02.08-.27.09-.29.15-.11.44.25.35.28.46.15.45-.52.62-.63.88-.1.21.05.61-.02.81-.44,1.21-.3,1.09-.55,2.27-.03.12-.31.1-.39.41-.08.28-.23,2.33-.2,2.67s.22.6.28.93c-.05.18-.41.17-.45.34-.02.07.02,1.18-.02,1.49-.05.38-.21.73-.27,1.12-.06.42.38.91-.33.98l.3.24c.04.54-.06,2.64.15,3.02.11.21.81-.12.22.7-.09.12-.33.12-.37.27-.09.36.35,1.49.16,1.88l.44-.14c.62.79-.02.79-.08,1.13-.04.26.29,1.48.42,1.8.05.12.55.63.57.67.03.12-.2.47-.05.68.11.16.45.19.52.42.14.41-.3.85.16,1.49l.76.1c.02.2.06.46.01.65-.03.16-.49.02-.31.41l.59-.14c.27.2.13,1.58.9.86.22-.21.14-1.06.81-.88-.43-.49-.53-1.17-.07-1.68.2-.23.58-.22.7-.41.16-.25-.01-.5.03-.63,0-.02.22-.04.29-.25.15-.47-.16-.72-.13-.94.01-.13.52-.52.4-.89-.07-.21-.42-.27-.26-1.06.09-.43.34-.36.41-.54.08-.2.12-2.49.02-2.69-.09-.17-.31-.1-.47-.1.25-.41-.21-.74.31-.84l-.29-.15.29-.77c-.41-.03-.31-1.16-.22-1.48.08-.27.51-.41.51-.83,0-.18-.77-.15-.42-.86.06-.12.26-.13.28-.23.12-.43-.62-.96-.6-1.5,0-.19.23-.34.24-.49.07-.74-.19-1.5-.36-2.11s.27-.57.27-.62c.02-.29-.39-.72-.44-1.06-.01-.07-.03-1.27-.03-1.37,0-.13.47.01.31-.39l-.46.15c-.29-.47.12-.84.13-1.14.03-.74-.39-1.63.02-2.23l-.61-.16.15-2.6Z"/><path d="M92.17,9.07l.24.41.62-.43.77.46c.09-.46,1.39-.34,1.15.3h1.07c-.01-1.26.41-.26.86-.19s.9.11,1.35.17c1.4.19,2.54.21,3.91.71.77.29,1.9.39,1.84,1.3.65-.44.87.31,1.16.76.22.33.61.36.23,1.17l.29.14c-.43.61-.3,1.73-.47,2.43-.01.06-.57.58-.45,1.02l-.61-.15c.13.36-.41.7-.42.84,0,.11.19.31.21.49.12.9-.5.63-.73.92-.09.1-.04.53-.12.74-.13.32-.9,1.71-.91,1.86-.02.31.57.4-.17.89l.61.31c-.44.3-.55,1.14-1.07,1v.3s.31.07.31.07c-.22.47-.28.89-.92.85l.61.23c-.27.12-.17.63-.19.66-.08.1-.39.12-.5.34-.07.15.07.34.04.43-.02.05-.53.34-.54.37-.09.25.47.82-.33.89.5.46-.01.88-.21,1.39-.27.69-.6.95-.73,1.27-.14.37.16.9-.29,1.24l.31.15c-.97.4-.66,1.61-.93,1.98-.3.42-.89,0-.46.79-.44.1-.1.42-.3.86-.19.41-1.05.74-.45,1.65l-.61.16.3.3c-.56-.09-.05.71-.61.62l.3.38c-.17.43-.74.31-.88.42-.23.18-.17.86-.23.99-.02.05-.54.6-.57.89l.61.3-.28.09.12.28-.61.16.15.44-.58.4c.04.55.47.22.58.54-.47-.04,0,.56-.76.46.02.23.23.24.39.3,1.27.46,2.62.06,3.96.02.9-.02.38-.09.66-.16.61-.15,1.43-.17,1.89.3l.23-.61c.29.62,1.3.28,1.91.46v-.61c.94.45,1.41-.68,2.14-.63v-.45c.25.34.87.16.91.19.04.02.39.58.45.7.15.28-.19.67.34.34l-.3,1.53h.46s-.15.52-.15.52c-.87.1-.13.63-.5.99-.18.18-.7.06-.92.18-.57.32-.41.33-1.23.63-.13.05-.12.3-.2.3-.36,0-1-.77-1.22,0-.94-.82-1.07.15-1.82.16l-.33-.77c-.26.72-.93.2-1.38.22-1.05.05-2.18.01-3.21.09-.47.03-1.79.51-2.14.46-.1-.01-.08-.28-.2-.31-.39-.1-1.96-.34-1.96.15l-.15-.31c-.45-.13-.38.33-.46.31-.42-.25-.59-.25-.39-.77l-.56.29c-.79-.18-.14-.87-.12-1.14.02-.19-.35-.76-.1-1.37.14-.35.38-.35.42-.43.29-.56.4-1.02.04-1.56l.27-.11c.07-.09-.39-.37.35-.28,0-.41-.57.03-.45-.37.24-.76.52-.56.71-.74.12-.11.1-.53.35-.65l-.46-.38c.19-.06.61-.09.73-.19.05-.04.6-1.09.62-1.15.11-.33-.13-.99.06-1.61.06-.2.66-1.77.72-1.85.17-.24.69-.16.78-.64l-.61-.15c.28-.18.31-.7.52-.86.29-.22.82.03.79-.67-.01-.24-.26-.34-.18-.69.06-.24.53-1.02.71-1.27.19-.26.51.09.06-.72l.54-.31-.11-.31-.35-.15c.55.09-.02-.88.61-.46-.11-.49.33-.51.43-.65.07-.09-.16-.86.05-1.23.14-.24.85-.7.87-.76.05-.12-.1-.3-.07-.48.01-.12.19-.23.19-.33.02-.27-.52-.64.22-.92l-.31-.3c.27-.3.55-.43.92-.23-.31-.51.48-1-.15-.92v-.15c.87-.1.22-.82.29-1.29l.78-.47-.46-.15.61-.92c-.81-.45.22-.65.31-.8.18-.31.03-1.52.18-1.84.03-.07.7-.49.73-.61.06-.26-.06-.6,0-.85.03-.15.48-.21.55-.56.04-.16-.19-.25-.16-.46.1-.64.46-.52.63-.65.26-.19.1-.87.19-1.18-.34.03-.96-.41-1.15-.42-.15,0-.3.21-.55.18s-.25-.36-.57-.46c-.27-.08-1.81-.22-2.1-.22-.07,0-.06.21-.19.27-.36.18-1.2-.07-1.34-.45l-.61.46-.85-.31.31.38c-.32.3-.93-.54-.99-.53-.6.1-1.99,1.08-2.23,0l-.53.31-.61-.46-.17.31-.5-.02c.07-.53-.37-.72-.7-.29-.26,0-.51-1.93-.38-2.33.06-.17.3-.15.36-.27.05-.08-.02-.22.02-.26.55-.61.52-.16,1.14-.24.34-.04,1.85-.48,1.98-.4Z"/><path d="M18.93,52.55l.07.93.44.15c.48.27-.26.58-.31.65-.09.17-.31,1.14-.35,1.18l-1-.26c-.27.75-1.48.08-2.07.17-.67.1-.64.58-.79.68-.08.05-.28-.11-.43-.04-.18.08-2.31,1.82-2.41,1.94-.23.3-.25.83-.75,1.19-.3.21-.44-.3-.3.46l-1.6,2.06.31.17c.16.55-.24.5-.31.63-.39.76-1.45,2.58-.94,3.03l-.6,1.68.32.09-.61.54.31.3-.61,1.54.32.15c-.54.74.15,1.14-.32,1.83l.32.16-.32.76.32.16-.31.69c.86.22.14.56.03.88-.22.6.25.47.37.72s-.12.8-.06,1.05c.11.51.91,1.6,1.03,1.92.33.84-.24.37.58,1.3.18.21.03.48.08.54.11.15,1.94,1.56,2.11,1.64.24.11.79-.1.88-.03.31.23.52,1.02,1.03.11l.57.57.96-.27.33.47c.8-.28,1.31-.73,2.22-.7-.17-.65,1.1-.64,1.19-.72.03-.03,0-.24.08-.37s.42,0,.09-.52h1.52c.19-.25-.05-.75.03-.89.05-.08.43-.13.44-.26,0-.02-.18-.16-.22-.3-.22-.81-.36-2.66-.41-3.53-.02-.28.29-.2.32-.33.08-.34-.05-.82.01-1.19l-.47-.08c.34-.39-.11-1.38-.1-1.45.02-.18.28-.31.33-.61.16-.91-.39-1.19-.4-1.38-.05-.91.47-1.03-.82-1.61-.47-.04-.56.45-.63.45-.55,0-1.44-.22-1.99-.17-.29.03-.22.33-.29.32-.13-.02-.4-.25-.66-.28-.32-.04-.68.1-.91.01-.4-.15-.45-.6-.66-.73-.3-.18-.72.08-.77-.6.6-.14.11-.52.23-.7.24-.29.75-.05.98-.18.04-.02.34-.32.6-.5.13-.09.57-.54.61-.55.44-.06.75.51,1.36.48.27-.01.19-.26.34-.31,1-.35.74.12,1.03.24.33.14,1.2-.14,1.62.06l.07-.45.69.45v-.46c.25.14.67.09.62.46l.38-.46c.65.54,1.78-.06,2.6.46l.31-.46c.3.24.44.4.23.76.51-.19,1.13.52,1.08.98,0,.09-.26.07-.36.28-.12.26-.22.88-.27,1.18l-2.29-.15c-.19.56.39,1.01.39,1.45,0,.64-.86,1.2.07,1.53-.76.87-.3.83-.18,1.53s-.19,1.22.18,2.26c.04.12.3.12.29.18-.02.21-.4.63-.42.8-.03.24.25.46.27.74.03.37-.23,1.11-.26,1.53l.58.31c.06.68-.75,1.06-.62,1.65.03.11.24.09.26.18.3,1.08.22,1.9.11,3.01-.03.31-.49.32.09.53.09.31-.67,1.56-1,1.88-.48-.25-1.01-.57-1.46-.13-.27-.76-.72-1.44-.32-2.28l-.44-.25c.51-.34-.05-.8,0-1.3l-.91,1.01c-.07,1-.42.47-.79.6-.5.17-1.37.59-.9,1.14-.25-.02-.48.07-.72.09-1.02.08-4.25-.08-5.15-.28-.47-.1-.62-.54-.88-.65-.39-.17-1.14-.47-1.53-.62-.26-.1-.49.16-.76,0s-.83-1.1-1.07-1.36c-.14-.15-.39-.06-.48-.2-.32-.47-.06-1.62-1.22-1.44.11-.43,0-1.05-.13-1.47-.21-.64-.6-.34-.63-.37-.15-.11-.14-1.44-.24-1.67-.07-.17-.33-.31-.45-.61-.15-.38.23-.62.2-.97s-.44-.74-.41-.93c.05-.3.73-.65-.17-.89.3-.66.78-1.53,0-2.05l.61-.77-.31-.15v-.31c.44-.17.29-1.48.38-1.99.11-.63.39-1.47.55-2.07l-.46-.08c.21-.38.05-.64.61-.54l-.31-.23c.07-.37.48-.86.46-1.23-.01-.23-.27-.39-.28-.46,0-.18.47-.29.58-.5.28-.56.18-1.39.33-1.91.05-.17.56-.41.57-.45.03-.11-.14-.31-.08-.47s.35-.83.41-.94c.18-.28.57-.1.6-.13.04-.04.54-.84.57-.89.11-.24-.29-.41-.17-.62.17-.29,1.09-.41,1.47-.77.11-.1-.56-.23-.3-.61l.76.15c.04-.05-.34-.67.29-1.16.41-.32.74-.28,1.3-.83.35-.35.21-.27.81-.66,1.37-.9.87-.94,2.73-1.17,1.09-.14,1.93-.18,3.1-.05.17.02.34-.09.5-.1Z"/><path d="M60.91,55.49c.07.11-.02.34.03.46.08.2.31.17.38.28.2.33-.15.74.54.61-.04.23-.38.5-.4.69,0,.1.25.21.12.62-.08.25-.35.19-.35.44,0,.33.23.6.25.84.04.43.05,1.5.03,2.04-.03.6.03.43.06.96.02.28-.3.2-.33.33-.11.48.22.75.24,1.04.03.53-.66,1.12.22,1.01v.6s-.45,0-.45,0c.14.45.11,1.04.19,1.46.01.07.25.05.27.17.11.71-.77,1.33.39,1.59l-.23.31.31.08-.46,1.55.47.6c.06.49-.34.3-.33.6,0,.44.27,1.1.27,1.58.01.72-.01,1.17.04,1.96.02.34-.41,1.95-.3,2.06l.46.08c-.51.33-.27,1.01-.33,1.23-.02.09-.23.07-.25.15-.12.59.06,1.42-.33,2.01.25.12.37,0,.3.37-.71-.24-1.25.26-1.91.46-.36-.16-.07-.53-.11-.59-.03-.04-.32-.11-.44-.24-.56-.6-1.34-1.25-1.37-2.08l-.3.15c-.1-.2-.11-.82-.19-.9-.07-.07-.34.05-.43-.12-.45-.8-.25-1.89-1-2.65-.17-.17-.46-.09-.58-.35-.19-.41.05-.68.01-.94-.04-.22-.62-1.06-.77-1.33-.24-.44-.37-1.13-.96-1.21-.09-.11.05-.37,0-.48-.42-1-.66-.98-.86-2.01-.08-.42-.57-.87-.59-1.34l-.46.15c.21-.77-.25-1.4-.38-2.14-.03.2-.5.5-.51.53-.03.3.04,1.02.43,1.07-.73.85-.33,1.67-.34,2.49,0,.21-.22.33-.23.54-.02.43.54,1.65-.02,1.65l-.02.29.41.22c.11.61-.32,1.24-.35,1.55-.02.15.32.66.22.9-.16.36-.22-.11-.31.62s-.29,1.61.47,1.99l-.44.78c-.14.38.38.16.46.23.01.3-.44,1.32-.43,1.43.02.22.37.47.27.78-.06.18-.37.2-.42.27-.14.23.12.93-.26,1-.55-.14-1.3-.21-1.82-.46-.1-.05-.73-.6-.8-.72.05-.42.3-.73.37-1.18.01-.08.03-1.57,0-1.65-.07-.24-.46-.19-.45-.33.13-.28.41-.98.43-1.25.01-.23-.21-1.44-.22-1.81,0-.45.09-.87-.05-1.31l-.31.08c-.22-.58.9-1.39.16-1.46l.3-.15-.31-.38c.64-.77.64-1.32.77-2.22h-.46s.14-1.78.14-1.78l-.28-.13c-.05-.8.37-2.21.3-2.9,0-.08-1.07-.82.14-1.19-.1-.35-.31-.79-.31-1.14,0-.22.83-.58.01-.68l.31-.53c-.39-.1-.33-1.52-.32-1.99.01-.76.06-2.32.82-2.73.47-.26,1.46.62,2.1.36-.34.81.35.93.62,1.34.46.69.63,1.57.9,2.27.18.47,1.43.91.48,1.37.53.14.88.72.89,1.26,0,.24-.27.4-.27.43,0,.1.42.19.51.42.14.37-.19,1.28.71,1.19l-.08,1.07.54.16-.11.86c.79.31.63,1.7.91,2.17.06.11.46.12.56.45.08.28-.09.54-.06.74.11.73.45,1.09.7,1.76l.61-.15v.51s-.3.17-.3.17c.11.24.34.08.42.14.35.27.85,1.2,1.04,1.62.62-.52-.07-.55-.09-.84-.03-.33.12-.69.11-1.02,0-.46-.29-1.92.21-1.83l-.29-.22c.43-1.09-.49-1.99-.28-3.1.07-.39.44-.44.42-.88-.02-.39-.62-.94-.61-1.57,0-.5.43-1.05.32-1.98-.04-.29-.31-.21-.3-.28.1-1.23-.09-2.54.05-3.84.01-.13.14-.22.23-.3l-.31-.15c.31-.29.5-.81.48-1.23-.01-.33-.39-.12-.32-.45.56-.82,1.17-.62,1.88-.85.08-.03.25-.56.55-.11Z"/><path d="M70.91,56.2s.82-.3,1.12.03c-.02-.38.83-.27,1.04-.16.18.09.22.4.47.51.23.1.55-.12.74.02.15.12.08.43.25.56.22.18.93.22,1.26.38,1.01.49,1.19,1.34,1.72,2.02.04.05.86.15,1.16.53.16.2.18.79.39.99s.69.16.73.19c.02.02-.17.27-.06.57.07.18.3.19.41.38.31.56.05.34.57.95s.18.91.24,1.48c.05.53.22,1.01.21,1.51.27-.05.43-.21.61.08-.37.78-.17,1.34-.18,2.12,0,.21-.14.43-.14.65,0,.29.31.13.33.44.03.5-.3.37-.3.45.02.4.25.94.22,1.45-.02.31-.27.58-.24.85,0,.06.96.53-.14.55-.06.28.26.1.31.15.08.09-.42.42-.46.54l.28.3c.14.42-.88,1.27-1.04,1.58s-.19,1.03-.24,1.09c-.1.15-.37.21-.53.41-.28.37-.43,1.97-.89,2.36-.38.33-.21-.12-.45.46-.36.89-.64.56-.84.86s.12.72-.13.89c-.19.13-.8.24-1.12.42-.21.11-.24.41-.37.43-.29.06-.87-.23-1.33-.02l-.11.44c-.7-.29-1.23.64-1.31.65-.4.07-.86-.52-1.27-.56-.21-.02-.32.25-.47.17-.18-.1-.23-.42-.34-.5-.05-.04-.27.1-.52-.19-.37-.45-.12-1.75-.65-2.24,0-.39,1.57-.59,1.92-.42.32.15.33.59.72.59l1.31-.4-.15-.3c.98.29,1.01-.72,1.54-.99.2-.1,1.4.02.45-.46.17-.4,1.59-1.35,1.67-1.48s-.1-.38-.05-.59c.11-.4,1-1.07.98-1.76l-.46-.23c.45.05.09-.62.76-.62.04-.27-.26-.4-.27-.65,0-.53.31-1.6.35-2.18,0-.11-.21-.28-.19-.52.06-1.06.55-1.33.22-2.49s-.17-.69-.17-1.67c0-.46-.42-1.15-.39-1.67l-.46.16c.09-.95-.65-1.06-.93-1.45-.17-.24-.11-.66-.29-.79-.16-.11-.49,0-.6-.1-.06-.05,0-.3-.07-.37-.23-.24-.74-.5-1.04-.74-.39-.3-.18-.63-1.04-.57.03-.84-.31-.66-.83-.91-.12-.06-.13-.25-.14-.26-.11-.04-.4.17-.64.13-.1-.02-.08-.3-.2-.32-.27-.04-.65.13-1.05-.17-.25-.07-.21.32-.32.33-.38.04-1.4-.58-1.42.28l.3.11-.16.46.3.14c-.16.52-.66,1.85-.63,2.31.03.58,1.14.77.02,1.37.8.85.04,1.11,0,1.52-.06.86.51.63.6.7.11.08-1.28,2.17.15,2.14-.12.47-.45.95-.42,1.44.05.85.27,1.72.4,2.49.03.2-.32.39-.29.72.02.2.26.39.31.63.16.78.29,1.4-.01,2.14l.33.45-.28.47.42.46c-.67.43-.23,1.23-.59,1.9l.44.25-1.14,1.09-1.76-.49c-.18-.7-.53-1.19-.54-2.05,0-.62.57-1.37.37-1.88-.3-.75-.1-.48-.15-1.26-.01-.21-.23-.36-.24-.47-.02-.19.34-.41.25-.68h-.46c.02-.14.14-.24.14-.4.01-1.58.13-2.78-.29-4.42l.31-2.84h-.46c.12-.58,1.04-1.15,0-1.31.35-.66.17-1.2.21-1.82.02-.33.16-.87.2-1.24.06-.55-.77-.63-.4-1.49.27-.62.45-.69.43-1.59l-.29-.14.46-1.15-.46-.08c.37-.34.7-.59.61-1.15l.67.17.16-.32c1.08.73,2.01-.41,3.15.25.11.06.12.3.17.34Z"/><path d="M38.09,54.69l-.3.76c.38.06.86,1.38.91,1.78.02.19-.16.46-.13.51s.28.05.36.17c.23.35.1,1.56.85,1.38l-.31.61.46-.15c.08.48.22.68-.15,1.07.49,0,.4.52.62.85l-.31.3c.4.5.31,1.17.51,1.8.27.88.44.78.44,1.73,0,.39.38.61-.18.76l.62.62v.3c-.33,0-.36.56-.27.76.09.22.39.2.43.35.07.27-.28,1.09-.25,1.63.02.33.12.68.1,1.02h.44c-.29.62.1,1.22.09,1.78,0,.27-.39.68-.05,1.12l.42.03c-.51.8-.16,1.48-.04,2.26.06.41-.18.89.19,1.35.13.16.43.19.46.23.05.07-.31,1.26.01,1.67l.61-.15-.14,3.28c-.6.45-1.05.05-1.49-.02-.2-.03-.56.19-.66.11-.03-.02-.06-.35-.16-.5-.32-.45-.56-.92-.82-1.35-.52-.83.19-.45.06-.99-.02-.06-.26-.06-.29-.15-.03-.1-.01-1.19-.1-1.54-.17-.71-.75-1.66-.89-2.09-.15-.46.14-1.67-.54-1.83l.13-.28c-.58.33-.89-.11-1.3-.14-.44-.02-1.23.33-1.72.39-.38.05-.75-.39-.9.21-.99-.54-2.11.38-3.13.62.09.33.15,1,0,1.29-.18.37-.77.86-.96,1.36-.15.39.02,1.18-.03,1.28-.29.58-.75,1.37-1.01,2-.18.43-.65,1-.02,1.17-.37.59-.52.14-.68.15-.45.03-.88.29-1.35.05-.57-.3-.54-1.57-.37-2.14.13-.44.76-.96.1-1.12l.91-2.03-.29-.27c.43-.46.29-1.11.49-1.64.26-.71.99-1.19.6-1.95l.29-.16-.3-.08c.29-.19.17-.63.27-.8.29-.53.92-.22.04-.73l.77-.49.15-.81-.46-.08c.04-.29.6-.54.62-.65.12-.5-.55-1.13.28-1.29l-.15-.5.47-.48c-.86-.06-.43-.76.15-.84l-.29-.38.4-.46-.23-.31.73-.39c-.06-.3-.13-1.69-.07-1.84.11-.3.75-.37.89-.94.1-.39-.2-.64-.17-.94.02-.26.33-.54.4-.83.05-.23-.1-.49-.04-.66.05-.12.96-1.02,1.09-1.27.14-.28.09-.66.29-1.01.11-.2,1.37-2.05,1.48-2.12s.38-.03.57-.12c.15-.07.26-.31.39-.33.17-.02.43.22.65.23s.45-.36.81-.12ZM36.87,59.75c-.17-.12-.95.37-1.03.5-.11.18-.04.5-.15.69s-.3.18-.4.38c-.19.39-.11.83.35.96-.46.32-.67.59-.89,1.1l.43.58c-.25.31-.61.35-.79.76-.16.39.12.47.09.7-.11.87-.89,1.75-.99,2.69-.05.47.26,1.68-.17,1.97-.14.1-.43.05-.45.08-.03.03.3.67-.15.84l1.18.51c.91-.21,1.47-.94,2.42-.28.01-.44,1.04-.31,1,.14.42-.38.98-.1,1.53-.31-.3-.53-.81-1.5-.31-1.99l-.31-.08.45-.45c-.03-.4-.44-.61-.45-.65-.07-.44-.12-3.03-.17-3.19-.03-.09-.26-.05-.29-.18-.05-.24.22-.79.16-1.01-.03-.14-.32-.16-.44-.37-.24-.4.19-.74-.31-.89.34-.45-.16-.35-.18-.48-.08-.39.31-1.42-.15-2.05Z"/><path d="M136.39,10.24c.47.57.97,0,1.02.03l.31,1.14c-.63.15-.44.79-.48.83s-.82.36-.87.5c-.07.19.43.54-.19.37l-.15.38c-.69-.52-.58-.31-1.16-.2-.13.02-.32-.1-.43-.07-.1.03-.5.68-.98.62.1.89-.89.07-1.31.41-.14.12-.09.33-.19.46-.17.21-.49.06-.37.47h.31s-.26.18-.26.18c.19.59-.88.51-1.11.76-.03.03.2.49-.02.81-.19.27-.44.07-.59.32-.34.58-.51,1.74-.84,2.34-.07.14-.66.42-.69.91l.44.43c-.2.55-.84.19-1,.38l-.24,1.14.32.24c-1.03.26-.36.89-.36,1.15,0,.09-.49.72-.56.92l.46.08-.29.16.13.66c-.08.27-.62.23-.82.55-.08.12-.09,1.76-.4,2.07l.62.08c.11.08-1.49,2.16-.31,2.37-.1.31-.69.35-.74.4-.09.1.02.58-.03.82-.04.19-.22.35-.23.47-.02.26.36.78.24,1.15l.3-.38c.38-.18.18.78.12.89-.13.26-.57.33-.4.95.02.08.24.06.27.19.11.42.24,1.09.28,1.34.04.2-.03.91.04,1l.46-.15c.34.53-.29,1.14.29,1.3-.33.13.44,1.2.52,1.27.12.1.43.06.59.25.12.15.52,1.38.61,1.47.02.02.26-.16.44-.08.32.14.69.64.47,1l.75.02c.15.1.13,1.43.87,1.45.09,0,.21-.18.3-.18.19,0,.39.22.63.24.69.07.75-.46,1.25-.73.29-.16,1.1-.43,1.46-.55s.54.22.65-.25c.33.27.32.73.84.61l-.16.46.61.16s-.35.59-.4.77c-.09.28.03.72-.2,1-.12.14-1.03.84-1.21.95-.48.29-1.57.21-.79,1.11-.52.06-.91.15-1.38-.15l-.08.46-.52-.02v-.44c-.52.29-1.09.03-1.48.07-.15.02-.29.3-.37.24-.02-.01-.02-.27-.14-.39-.41-.4-.97-.4-1.24-.53-.05-.02.3-.77-.61-.46v-.62c-.05-.06-.95.43-1.14-.59-.09-.5.41-.6-.53-.81l-.03-.58-.69-.16.09-.46-.6.14-.61-.95.29-.56-.55-.15.02-.62-.17-.14c-.74.24-.55-.09-.83-.51-.51-.77-.36-1.09-.56-1.92-.09-.38-.46-.6-.58-1.08-.14-.52.46-1.25-.39-1.09.22-.68.3-1.2.15-1.91l.47-.08c-.14-.27-.36-.23-.51-.61-.21-.55.57-.82-.11-.99.76-.56.2-.86.3-1.36.01-.06.44-.62.47-.95l-.32-.15c.22-.83.88-1.92.32-2.67l.61-.39-.46-.46.76-.77-.61-.08.31-.54-.29-.14c-.01-.87,1-.81.64-1.47l-.35-.15c.35.05.2-.17.37-.46.06-.11.27-.22.37-.43.28-.55-.05-1.41.64-1.64l-.31-.15c.27-.47.93-.95.31-1.38l.31-.08-.31-.15c.22-1.14,1.3-1.42,1.68-2.53l-.61-.31c.33-.38.68-.7,1.22-.69l-.31-.23c.57-.2.02-.7.78-.45.23-.55.52-1.17,1.22-1.16l-.46-.38c.34-.62,1.23-.8,1.64-1.19.49-.47.61-1.28,1.43-1.71.07-.04.84-.14.91-.17.21-.09.37-.54.75-.34l.02.28.18-.26c.42.16.74-.27,1-.31.22-.03.54.14.88.11.29-.02.77-.4,1.18-.07.13.11,0,.29.04.34Z"/><path d="M96.03,55.31l.38-.11c.65.44.08,1.5.13,1.88.02.18.39.3.4.6,0,.29-.41.63-.31,1h.46s-.32.69-.32.69c.75.68-.21.76-.29,1.22-.13.41.49.12.46.3-.08.43-.2.55-.61.61.39.29.37.59.15,1l.61-.15c.07.41-.4.6-.41.64-.52,1.3.36,2.96.21,4.21-.03.27-.25.43-.27.74-.06.95.5,1.2,0,2.41-.1.24-.67.36.32.66-.26.36-.62,1.07-.67,1.48-.14,1.1-.17,1.77-.49,2.98s-.14.43-.52.93c-.02.03-.31.69-.31.73l.32.16c.08.56-.64.86-.83,1.15-.13.19-.3.75-.47,1.01-.15.23-1.31,1.05-.4,1.13v.15c-.34.15-1.15.7-1.33.97-.15.23-.3,1.08-.38,1.15-.07.06-1.64.48-1.75.48-.53.04-.94-.34-1.49-.17l-2.79-2.58c-.19-.21.15-.64.08-.74-.04-.06-.39-.07-.53-.33-.12-.23-.07-.6-.2-.88-.12-.26-.6-.83-.6-.88-.01-.16.36-.44.11-.87-.15-.27-.61-.17-.33-.71-.78-.15-.02-1.05-.12-1.63l-.46-.08.31-.38-.31-.15c-.06-.3.3-.52.31-.76.01-.32-.51-.73-.45-1.24.03-.31.31-.2.31-.3.01-.19-.23-.46-.25-.67-.06-.62.19-2.09.09-2.85-.05-.39-.45-.84-.42-1.07.02-.18.38-.32.38-.45,0-.09-.32-.28-.28-.6.04-.36.53-.46.16-1.05-.1-.16-.75-.32,0-.64-.78-.73.45-2.09-.61-2.6l.59-.61c-.1-.46-.26-1.09-.28-1.55-.02-.53.18-1.43.15-1.97,0-.08-.44-.07-.23-.47.24-.48.85-.47,1.22-.85.75.09,1.87.12,2.05,1.04.05.27-.19.42-.21.67-.06.66.26,1.77.21,2.17-.03.22-.32.59-.44.81.84.41,0,.71,0,.76,0,.11.29,1.2.35,1.54.02.08.26.05.25.14,0,.41-.33,1.05-.38,1.41-.1.71.28,1.46.2,2.09-.06.43-.7.7.2,1.1-.44.34-.29.88-.31,1.37l.47.08-.45,1.13.6.48c-.17.6-.95.19-.41.95.08.12.38.16.41.28.03.16-.64.74.15.84v.15c-.76.15,0,1.37-.31,1.99h.62c-.44.89.22,1.97.59,2.85.13.32.54,1.37.63,1.51.08.12.26-.05.32,0,.2.19.07.66.81.65.48,0,.37-.4.56-.65.76-1,.91-1.46,1.42-2.45.24-.47.77-.63.8-.68.07-.12.23-.73.22-.86-.03-.46-.57-.39.32-1.06l-.3-.29c.13-.59.78-.35.76-.78,0-.14-.56-.18-.47-.46,0-.47.41-.6.43-.76.02-.2-.29-.47-.16-.81.09-.24.42-.23.48-.44.06-.23-.07-1.08-.04-1.37s.57-.33-.38-.61c.11-.14.37-.27.4-.45.07-.52-.16-2.04-.08-2.45.07-.34.41-.57.42-.8.03-.38-.84-1.31-.12-2.12l-.33-.17.17-.59-.32-.17c.18-.67.65-1.19.31-1.91l-.3.15.15-1.38h-.46s.77-1.76.77-1.76l-.61-.31c.71-.35.28-.92.34-1.13.03-.11.79-.46.85-.52.15-.15.15-.54.2-.58s.91.19,1.14-.31c.37.23.11.43.08.76Z"/><path d="M119.09,55.99c.39.5.06.45.16.7.13.31,1.21.49,1.54.46.46-.04.61-.51,1.07-.02l.31-.46c.14.44,1.45.61,1.86.61.55,0,.49-.18,1.41-.08.21.02.45-.11.67-.04.41.12.55.65.78.85.14.12.68-.11.36.61-.23.53-1.75.9-1.34,1.57-.67.07-.87-.65-1.6-.61-.09,0-.07.29-.19.31-.48.11-2.03-.01-2.58,0-.52,0-1.06.47-1.61.15-.31.99-.36,1.9-.45,2.9l.29.09-.32.17c.15.59.31,1.17.01,1.75l.46.08c-.55.67-.42,1.26-.61,2.07l.92.31.08-.61c.35.26.81.09,1.2.18.36.08.51.44.87.43v-.46s.69.32.69.32l.48-.6,1.37.05,1.01,1.54c-.76,1.24-1.05,1.29-2.43,1.56-.54.11-1.58.44-1.83.47-.21.03-1-.3-1.65-.19-.15.03-.25.23-.46.23-.12,0,0-.51-.38-.31l-.16,1.44.3.16c-.36,2.16-.16,4.55-.24,6.6,0,.17.52.62.25.99h.46s-.3.92-.3.92c.74.18,1.33-.06,1.99.31l-.15-.3,2.45-.31-.15-.29c.9-.42,1.93-.11,2.44-1.16l-.3-.3c.24-.3.4-.44.77-.23v-.46c.62-.08,2.13.39,2.23,1.06,0,.07-.24,1.23-.27,1.29-.02.05-.41.67-.52.85-.5.85-.63.49-1.33.82-.82.39-2.05,1.14-2.83,1.34-.21.05-.45-.01-.66,0l.15.46c-.12.12-1.51.05-1.74,0-.12-.03-.13-.8-.64.15-.29-.46-.49-.19-.78-.17-.09,0-.02-.47-.37-.28l-.23.61c-.54-.31-.15-1.13-.92-1-.25.04-.39.47-.69,0,.51-.57-.79-1.08-.89-1.33-.08-.21.09-.43.04-.59-.21-.6-.5-1.29-.73-1.9-.04-.1-.27-.07-.26-.15.02-.18.31-.47.29-.78-.01-.22-.26-.36-.26-.58,0-.29.35-.68.36-.95.02-.57-.77-1.17-.09-1.76l-.31-.08.46-1.08-.47-.45c.45-.67.09-.78.07-1.07-.01-.19.55-1.45-.05-1.53.77-.6.12-.95.19-1.68.08-.77.44-.99.29-1.86-.08-.45-.48-.56-.09-1.12.09-.13.37-.14.38-.25.04-.3-.31-.51-.3-.73.03-.46.66-.39-.17-.79-.02-.15,1.19-1.06,0-1-.11-.11.84-1.75,0-1.91l.47-1.86c-.41-.08-.14-1.68-.08-1.75.09-.11.3-.15.37-.25.45-.64.55-1.35,1.46-.67l.24-.61c.2-.05.12.1.22.23Z"/><path d="M140.21,57.57c.16.09.45,0,.62.07.6.3.92.76,1.03,1.43.17,1.05-.6,1.1-1.29,1.71-.45-.55-.93-.36-1.54-.35-.11,0-.22-.18-.38-.15-.34.07-1.99.91-2.14,1.23v.22s.31.08.31.08c-.05.3-.51.48-.57.57-.05.08.05.46-.04.63s-.32,0-.52.29c-.33.47-.09,1.11-.26,1.71s-.61.9-.61.96c-.02.16.23,1.06.32,1.19.17.24.45.19.55.29,1.1,1.08,1.68.9,2.84,1.65.18.11.11.28.12.29.05.03.24-.37,1.12,0,.74.32,1.66.77,2.37,1.22.21.13.85.44.91.5.24.21.02.74.58.58.13-.04-.02-.38.23-.31.48.52.13.64.17.99.03.23.47.07.67.39s.12.67.23.99c.17.48.81,1.4.32,1.69.73.34.08,1.97.16,2.74l.45.32c-.15.59-.8.39-1,.85-.1.24.05.46,0,.61-.09.22-.6.45-.81.7-.45.56-.67,1.83-1.49,1.9-.27.02-.16-.16-.29-.31l-.4.23v.53c-.17.15-1.39-.28-1.57-.27-.32.02-.7.36-.95.36-.45,0-1.13-.15-1.53-.18-.23-.02-.5.26-.75.21-.31-.06-.72-1.01-1.32-.58-.41-.83.53-1.22.53-1.99.29-.39,2.77-.45,3.36-.31l.09-.45,1.15.31c.24-.47.34-1.01,1-.61l.62-1.15-.46-.23.27-.08c-.01-.37.42-.65.49-1.08.06-.35-.07-1.46-.18-1.79-.21-.6-1.35-.94-.88-1.64-.29-.08-.71-.15-.96-.3-.31-.18-1.13-1.31-1.41-.46-.24-.12-.59-.48-.83-.53-.39-.09-.92.43-.79-.38l-.15.46c-.05.06-.76-.51-.92-.55-.53-.15-.58.41-.95-.65-.61.12-1,.05-1.22-.61l-.28.13c.04-.83-.4-.36-.69-.61-.26-.23-.38-.61-.24-.92l-.46.31-.08-.77h-.54s.13-.9.13-.9c-1.03-.33-.01-1.27.03-1.78.06-.62-.4-1.33-.09-2.06.12-.28.56-.65.62-.92.04-.2-.27-.3-.19-.62.15-.61.8-.56.85-.62.11-.12-.17-.58.02-.96.04-.07,1.01-1.2,1.11-1.28.28-.25.75-.29,1.12-.7.05-.05-.07-.28.12-.42.54-.41,1.23-.58,1.82-.77.13-.04.11-.28.22-.3.37-.08,1.13.13,1.51.14.07,0,.04-.45.45-.28.15.07.17.37.26.42Z"/><path d="M101.88,56.5c.37-.11,1.33-.15,1.63.06.15.1-.04,1.05.79.89-.15.35-.36.7-.28,1.11.13.67,1.06.41.13,1.42l.3.14c0,.41-.46.58-.45.62.02.15.23.36.25.64.04.63-.24,1.73-.22,2.1.02.31.46,1.23.27,1.52-.07.1-.3.11-.31.21-.02.21.16.49.16.76,0,.25-.15.96-.13,1.07s.39,0,.28.3c-.93.88-.13,2.84-.35,3.96-.04.22-.19.36-.26.56l.46.23-.4.45.09,4.53.46-.15-.29.9c.39.05.46.58.86.61.37.02.45-.23.61-.26.19-.03.34.29.7.26.33-.03.66-.39.84-.41.19-.02.36.27.71.27.11,0,1.13-.18,1.19-.22l-.02-.39c.63.32.98-.22,1.58,0l.79-.9c2.21.89,1.8,1.94,1.15,3.81-.31.06-.61-.15-.93-.08-.07.01-.98.47-1,.56-.42-.13-1.46-.22-1.81-.14-.2.04-.24.41-.39.51-.49.32-2.37-.27-3.02-.35-.7-.08-1.67.07-2.43-.11-1.36-.33-.88-1.49-1.3-2.41-.16-.35-.53-.84-.61-1.43-.07-.46.47-.82-.46-.83.28-.64.03-1.41.61-1.91l-.46-.08c-.06-.04.41-.74.4-.84,0-.18-.3-.6-.26-1.24.03-.53.62-1.49,0-1.7l.63-1.82-.32-.16.31-.82-.45-.24.46-.23c-.33-.3-.12-.66-.16-.82-.03-.12-.29-.1-.29-.16,0-.33.32-.64.6-.78-.72-.27-.08-.96-.14-1.53-.03-.3-.27-.2-.29-.3-.18-1.14.39-1.72.42-2.46,0-.07-.24-.06-.25-.09-.22-.84-.09-2.3-.04-3.25l-.32-.31c.02-.56.44-.54.68-.85.07-.1-.07-.45.25-.46l.03.28Z"/></g></svg>