<?xml version="1.0" encoding="UTF-8"?><svg id="Layer_2" xmlns="http://www.w3.org/2000/svg" viewBox="0 0 289.48 107.99"><g id="arozz_con_pollo"><path d="M177.72,9.1s.16.78.45-.06c.58.2.52.71.74,1.21.05.11.32.1.31.18-.04.73-.57.53-.65.69-.06.14-.46,2.8-.46,2.97,0,.34.4.44.42.62.04.28-.4.42-.42.5-.04.17.1.76.05.99-.08.32-.4.33-.36,1.01.02.35.45.52-.05.96.92.4.28.93.21,1.36-.17,1.1-.15,3.13.27,3.89-.16.66-.21,1.78-.16,2.48.02.24.77.73.02,1.39h.5c-.53.52-.06,1.06-.16,1.54-.03.12-.29.08-.3.18-.08.52.4,1.38.13,1.9h.66c.07.42-.08.61-.49.66l.49.16-.48,1.07.48.24c-.54.68-.16,1.07.17,1.72-.43.04-.55.85-.47,1.15.06.24.45.23.47.26.06.08-.23.31-.25.47-.06.53-.17,1.05-.21,1.45-.04.35.52.95.46,1.45-.07.59-1.33,1.66-.51,2.62-.04.2-1.6.74-1.69.73-.89-.13-1.3-1.64-1.65-2.31-.26-.5-.41-.94-.61-1.32-.19-.35-.92-.26-.49-1.11l-.33.17c-.23-.32.12-.87.08-.98-.07-.24-.5-.57-.63-.83-.67-1.29-1.17-2.68-1.76-4.03-.08-.19-.14-.7-.18-.73-.12-.1-.47.1-.66-.12-.55-.65-.02-1.27-.14-1.76-.04-.17-.41-.15-.48-.38-.59-1.86-1.19-3.25-2.26-4.99-.39-.63-.21-.55-.49-1.14-.24-.51-.7-1.14-1.04-1.6l.32-.55-.28-.04c.02-.93-.84-1.53-1.2-2.35l.49-.24-.55-.14c-.78.43-.11,1.05-.11,1.37,0,.21-.31.54-.39.88-.17.69.18,1.14.17,1.42,0,.11-.5,1.08-.56,1.53-.15,1.12.09,2.44-.05,3.55l.33.34c-.16.46-1.43,1.36-.34,1.25l.17,1.07-.31.07.32.24-.65,1.17.34.32-.52,3.79.17.32.33-.08c.1.33-.28.57-.25.84.04.51.75.95.09,1.39l.24.24.41-.16c.06.36-.49.72-.5.77-.08.52.43,1.01-.32,1.62l.63.49c-.39.42.09,1.03-.63,1.07l.49.24c-.09.34-.93.98-1.27,1.04-.14.02-1.48-.17-1.53-.23-.05-.05-.72-1.14-.73-1.21-.11-.48.8-2.52-.57-2.49v-.49s.49,0,.49,0c-.22-.69.26-1.53-.01-2.17-.08-.19-.45-.09-.32-.54.02-.07.3-.06.33-.19.07-.26-.21-1.73-.24-2.02-.11-1.26.11-1.64.29-2.86.11-.77.45-2.03.53-2.66.06-.51-.51-1.32.07-1.82l-.33-.16c.24-.22.39-1.88.34-2.12-.03-.13-.29-.1-.31-.13l-.03-.22c.81-.54.32-1.92.5-2.78.08-.38.46-.95.49-1.18,0-.07-.29-.06-.33-.18-.2-.68.48-.64.49-.8,0-.04-.31-.37-.32-.67-.05-.88.6-2.45.49-2.93-.03-.12-.27-.09-.29-.19-.09-.38.51-1.35.46-1.4l-.49.16v-.58s.49-.08.49-.08c.18-.47-.28-.47-.32-.6-.09-.37.07-1.92.65-1.87l-.3-.41c.76-.98,1.43-1.2,2.61-1.24-.1.65.58,1.07.99,1.57.14.17.15.46.25.57.19.2.52.14.56.18.12.13-.13.64-.11.87.03.33.46.62.55.92.11.37-.14.73.08,1.19.41.84.75,2.93.86,3.06.09.11.38.12.53.37.28.48-.02,1.24,0,1.31.11.36.67.62.71.7.09.18.16.5.31.83.09.2.24.91.29,1.02.21.47.65.81.67,1.4h.57c.07.97.24,1.8.72,2.65.18.32.53.55.67.8s-.12.66-.07.87c.03.14.38.2.54.49.06.11.87,2.06.91,2.18.08.22-.04.81.15,1.2.21.45.24.42.47,1.01.16.4.46.78.65,1.16.82-.36.37-.68.29-1.11-.04-.21.11-.42.08-.5-.02-.05-.38-.05-.36-.78.02-.8.76-.33.06-1.59-.09-.15-.28-.14-.29-.15-.04-.08.25-.34.23-.65-.04-.8-.6-1.3-.58-1.38.02-.1.27-.29.3-.53.04-.28-.16-.54-.14-.78s.32-.43.32-.66c.02-.59-1.13-1.7,0-1.56.08-.42-.09-.26-.34-.41l.35-.99-.52-.65c.17-.47.47-.94.33-1.46-.03-.13-.33-.11-.33-.2-.03-.39.43-.95.46-1.17.03-.27-.25-.45-.23-.63,0-.14.27-.29.27-.33,0-.16-.54.03-.42-.9.25-1.92.46-4.04.79-5.97.07-.44.48-2.1.89-2.24.38-.02,1,.04,1.33.2Z"/><path d="M31.22,9.08s.03.26.24.35c.23.09.7-.05.99.12.2.11.01.46.45.33v-.5s.5.16.5.16l-.17-.33c.52.27,1.54-.07,1.86.02.23.07.35.42.7.48.41.06,1.14-.21,1.52-.11.02,0,.03.17.17.25.12.07.39,0,.53.1.18.12.1.47.19.55.05.04.95.51,1.13.61.35.18,1.28-.11.48.91.97-.17.88.76,1.39,1.33.27.3,1.57,1.22,1.72,1.5.08.15-.2.46-.14.69s.67.13.48.82c-.03.12-.33.1-.34.2-.03.26.44,1.37.43,1.87,0,.43-.57.41.08.58l-.33.74.66.08c-.97.88-.6.77-.69,1.65,0,.05-.48.51-.52.61-.08.21.03.52-.03.62-.15.23-.72.28-.9.57l.33.32c-.17.57-.6.43-.98.67-.97.62-.45,1.12-.51,1.21-.04.07-1.26.46-1.47.6l-1,.89c.53-.15.6.42.69.47.1.06.34-.14.62-.06.86.25,2.97,1.96,3.46,2.82.11.2.11.35,0,.54,1.03-.32.77,1.03,1.03,1.44.11.18.67.78.78.98.21.36.57.79.33,1.19l.49-.16-.15.42c.6.15.16.51.22.82.07.34.34.66.25,1.07l.66-.17c.29.57-.35.89-.34,1.06s.71,1.91.85,2.27c.05.12.27.14.28.16.04.12-.16.27-.1.43.02.04.52.66.55.69.26.18,1.56.34.4.84v.16c.95.26-.21,1.82-.02,2.62-.72.01-1.12.63-1.84.19-.13-.08-.17-.35-.39-.47-.42-.23-1.55.03-.71-1.01-.76-.05-.42-1.05-1.13-1.18l.15-2.18-.66-.36c.1-.46.18-.99-.05-1.43-.17-.33-.5-.34-.68-.61-.21-.31-.12-1.19-.25-1.57-.16-.46-.75-.94-.81-1.19s.14-.57.06-.71c-.06-.11-.37-.18-.48-.34-.79-1.07-1.76-2.1-2.64-2.95-.5-.49-.13-1.01-1.08-.65v-.49c-.36.11-.8.02-1.16-.11-.31-.12-1.09-.43-1.44-.51-.51-.11-1.09,0-1.6-.21-.45.83-.45,1.79-.25,2.7l-.34.18c.06.37.52,1.56.5,1.65-.04.16-.12-.23-.21.6-.16,1.48.26,1.25.35,1.89.02.16-.43.74-.19,1.33.1.24.56.16.38.76-.33.03-.36.71-.32.99.02.12.26.09.28.18.24.99-.31,1.17-.28,1.97.02.46.59,2.01.59,2.48,0,.11-.27.25-.28.49,0,.04.45.13.29.54-.72.31-1.16.89-1.93,1.02.15-.58-.87-.79-1.29-1.18l.13-.95c-1.07.17.15-.98.15-1.56,0-.47-.56-.89-.61-1.19-.26-1.32.1-3.44-.21-4.69-.03-.13-.29-.12-.29-.2,0-.5.21-1.37.48-1.81l-.5-.33.34-.65c-.33-.76-.02-1.64-.52-2.14l.35-1.01-.32-.31c.5-.96-.48-1.52.16-2.47-.59-.13-.16-.94-.09-1.42s-.28-.94.25-1.06v-.24c-.44.1-.41-.54-.33-.88.03-.13.32-.11.32-.18-.02-.27-.33-.73-.32-1.16,0-.38.23-.66.25-.99,0-.1-.31-.57-.09-.9l-.49.16c.27-.82.28-1.54.25-2.39,0-.26-.45-.39.08-.98,0-.15-.33-.09-.42-.24-.35-.54.68-2.32-.22-2.55l.31-1.08-.5-.08c.31-.73-.34-1.53.5-1.81l-.46-.44c.37-.42-.49-.62,0-.94.14-.09.48.05.6-.05.09-.07-.03-.47.4-.68.14-.07,1.34-.12,1.41-.09ZM37.29,13.55c-.23-.18-1.57-1.16-1.69-1.17-.78.43-2.74-.19-2.7.94l-.66-.33c-.1.37-.19.67-.17,1.06s.24,1.89.34,2.29c.03.13.31.1.31.18-.07,1.73-.33,3.52-.15,5.28.06.54.42.97.43,1.31.01.38-.57,1.17-.58,1.83l.33.16-.18.56c.63-.15,1.42-.02,2.01-.2,1.29-.41,1.41-1.06,2.18-1.62.08-.06.78-.26.86-.36.14-.16-.12-.59.54-.45l-.16-.32c.27,0,.45-.08.66-.25.64-.51,1.62-2.31,1.59-3.1-.01-.32-.27-.68-.24-1,.02-.22.29-.43.28-.68,0-.06-.33-1.14-.36-1.2-.12-.21-.97-.23-.46-1.02l-.66.16c.09-.95-.87-1.56-1.54-2.08Z"/><path d="M18.48,10.65c.02.05.45.49.49.55.12.19.71,1.15.71,1.22-.01.13-.29.3-.26.48.04.25.5.33.6.48.04.05.54.83.55.89.06.32-.17.71-.06,1,.09.26.52.3.55.46.03.15-.25.37-.27.64-.04.5.65,1.99.69,2.48.03.34-.22.74-.08,1.45s.93,2.08.81,2.62c-.04.19-.4.18-.5.36.34.42.35.96.5,1.44.04.11.25.12.28.2.1.32-.14,1.02.37,1.32l-.33.41.49-.16-.33,1.64h.49c-.14.58-.35,1.08-.16,1.69.02.06.88.68,0,.78l.34.27-.18.95c.84.34.25,1.13.51,1.95.04.13.84.51-.01.86.11.55.58.35.66.42.04.03-.35.68-.34.89,0,.11.27.1.34.21.23.38-.03,1.77-.02,2.27.02,1.82.69,3.49.91,5.32.1.83-.2,1.74.26,2.59l-1.24,1.17c-.65.16-.95-.49-1.31-.8-.15-.13-.53.17-.67-.64-.04-.26.08-.45.05-.7-.02-.15-.28-.3-.26-.51.01-.16.23-.39.28-.69.02-.13-.17-1.26-.19-1.63-.03-.44-.45-.44-.44-.5.02-.18.34-.55.33-.82,0-.1-.31-.09-.39-.3-.11-.29-.1-1.51-.17-1.69-.59-1.6-.23-1.49-.47-2.8-.08-.42-.27-1.03-.27-1.66,0-.3.2-1.06.11-1.28-.14-.33-.7-.1-.3-.74l-.48-.26c.56-.82.35-1.15-.09-1.9l-1.39.19v.48c-.74-.34-1.18-.63-2.03-.46-.65.14-.8.83-1.2-.04-.58.2-1.33.12-1.97.09-.2,0-.37-.22-.62-.21-.6.03-1.49.85-2.01.13l-.96,1.96c-.1.76-.28,1.52-.4,2.28-.14.93-.1.29-.33.79-.1.21.12.9.1,1.14-.06.56-.67,1.26-.13,1.72l-.48.26c.07.36.25.74.13,1.12-.1.28-.62.18-.64,1.02-.01.57.39.3.35.64s-.39.44-.47.69c-.09.29.02.66-.07.92-.06.17-.5,1.21-.54,1.27-.08.1-.96.37-1.18.43-.71.18-1.79.48-1.87-.53-.02-.29.18-.17.34-.31l-.49-.99c.05-.18,1.02-.2.96-1.32-.01-.2-.22-.35-.23-.5-.03-.25.61-2.23.75-2.5.3-.56-.13-.61-.09-.88.03-.21.43-.94.53-1.27.12-.39-.03-.84.38-1.11l-.49-.49c.6-.31,1.05-1.25.51-1.81,1.14-.58.49-1,.56-1.64.06-.51.31-1.38.58-1.81-.41-.11-.22-2.15-.1-2.6.16-.64.57-1.22.71-2.02.17-.98-.1-1.66.31-2.68.38-.94.09-.36.13-.91.06-.84.88-1.17.54-1.9l.88-2.06-.34-.16.04-.29c.63-.61.59-1.6,1.01-2.27.26-.41.87-.86,1-1.13.1-.22-.03-.89.14-1.12.1-.13.49-.07.64-.31.17-.26-.08-.57.02-.83.06-.17.69-.39.79-.49.31-.33.2-.89.32-.96.32-.2.7.3,1.24-.42.09-.12.06-.43.1-.47.12-.11.54.1.74.08.22-.03.39-.25.62-.22.17.02.4.3.65.35.38.08.89-.04,1.21.26s.17.62.3.95ZM16.6,12.67l-.5-.1c-.66.75-1.12,1.11-1.31,2.16l-.5-.1c.03,1.25-.8,2-1.28,2.92-.18.36-.68,1.66-.77,2.01-.09.36.23.86.12,1.3-.13.5-.5.47-.61.72-.23.56-.02,1.45-.43,2.02l.37.08c.48.43-.3.57-.43.86-.08.18-.29,1.17-.29,1.37,0,.3.29.2.34.34.14.46-1.07,1.6.29,1.84.39.07.58-.25.78-.24.77.05.78-.02,1.5-.05.8-.03,1.82.32,2.68-.04l.02-.46c1.04,1.06,1.9-.38,2.96.49.36-.82-.07-.59-.28-.85-.07-.08.08-1.45-.05-1.82-.06-.15-.34-.11-.33-.2.02-.23.27-.36.28-.49,0-.17-.36-2.37-.44-2.59s-.85-.27-.33-1c.11-.15.32-.1.33-.11.03-.05-.36-.68-.42-1.14-.14-1.09-.38-2.2-.61-3.34-.07-.36-.61-.63-.29-1.27l-.49.33c.02-.38-.19-.9.33-.83v-.16c-.86-.29-.81-.85-.66-1.64Z"/><path d="M61.35,9.25c.07.05.07.35.3.43.61.22.81-.41.73.83l.63.03c.02.25.16.5.17.74.02.39-.01,1.02.1,1.4.17.57.37,1.33,1.06,1.3-.66.85.08,1.52.16,2.23.12.97-.07,1.43.34,2.57.04.12.3.12.32.23.07.41-.24.61-.29.93-.09.51.54,1.5.28,2.16l.51.19c.06.64.18,1.11-.3,1.63l.44.51c-.59.66-.05.92-.04,1.29,0,.16-.23.35-.23.62,0,.31.3.75.29,1.01,0,.06-.54.22-.51.67.76.2-.19,1.19.67,1.49-.96.77-.37,1.88-.35,2.63.01.45-.41,1.64-.32,2.12.02.12.31.09.34.22,0,.05.02.88,0,.92-.04.18-.36.14-.46.38-.15.32.4,1.62-.05,2.11l.34.17c-.45.41-.59,1.07.16.91v.16c-.48-.07-.16.32-.36.7-.17.34-.62.57-.7.78-.22.55-.26,1.68-.74,2.4-.18.27-1.26.98-1.39,1.22-.07.14.05.34-.03.48-.52.91-.54.47-1.11.68-.14.05-.12.26-.15.27-.5.16-2.3.33-2.84.32-.12,0-2.19-.69-2.29-.77-.32-.24-.23-.68-.64-.87-.24-.11-.46.04-.53.02-.12-.03-.01-.44-.41-.13-.02-.51-.34-1.34-.59-1.8-.17-.31-.59-.46-.69-.79-.07-.23.1-1.18-.06-1.35h-.47s.31-.91.31-.91c-1.04-.41-.23-1.33-.34-1.66-.03-.09-.27-.07-.3-.18-.16-.64.34-.56.34-.64,0-.21-.26-.4-.32-.67-.32-1.36.18-2.02.14-3.11-.02-.55-.41-.56-.45-.67-.14-.4.38-1.06.4-1.34.03-.49-.31-1.02.06-1.54h-.49c.07-.76.99-1.96,0-2.38.25-.49.96-1.95.33-2.14.8-.62.34-1.51.38-1.98.02-.2.43-.36.53-.66.14-.41.06-1.95.18-2.51.14-.69,1.05-2.18,1.14-2.91.18-1.45.38-2.68,1.25-3.93.18-.26.49-.31.68-.64.17-.29-.03-.88,0-.92.11-.17.97-.47,1.08-.57.08-.08-.02-.3.16-.44.48-.37,1.12-.24,1.58-.33.11-.02.32-.69.94-.32v-.64c.07-.09,1.08,0,1.13.03ZM60.23,14.15c.29-.99.09-2.29-.83-.9.83.34-.28.56-.48.83-.37.49-.36,1.5-.84,2.25-.35.54-.16.56-.18.6-.03.05-.33.03-.44.29-.1.23,0,.61-.2.88h.5s0,.33,0,.33c-.53-.06-.15.22-.2.4-.06.21-.36.21-.41.31-.51,1.08-.24,1.57-.41,2.46-.1.53-.62,1.3-.78,1.86l.48.32c-.41.42-.86.39-.65,1.12.05.18.58-.06.06.75-.08.13-.31.12-.38.31-.26.68.16,1.11.13,1.41-.07.63-.19,1.2-.27,1.83-.02.16-.05,1.7-.03,1.79.02.12.33.1.35.21.02.21-.18.47-.15.77.02.18.27.4.26.53,0,.07-.62.73-.6,1.32.78.28.29,1.62.3,2.29,0,.46.02,1.84.67,1.56-.5.8-.16,1.36-.04,2.09.08.49-.25,1.47.7,1.36-.46.68.47.74.87.99.09.06.1.24.17.27.3.17.68-.05.86.55.7-.58.71-.06,1.16,0,.72.1.62-.62.83-.98.26-.45.62-.95.89-1.42-.71-.19-.02-.4.11-.62.05-.07.66-1.28.68-1.36.06-.17-.23-1.04.36-1.31-1.1-.53,0-.66,0-.84.02-.34-.35-1.26-.29-1.82s.53-.43-.21-1.29v-.16c.7-.18.02-.81.3-1.38l-.29-.1c.71-.47.07-.9.06-1.16-.01-.2.35-.44.37-.81.02-.33-.11-1.49-.59-1.41.25-.25.15-.59.22-.78.02-.05.3.01.27-.11-.03-.12-.24-.24-.26-.49-.03-.54.32-.99.44-1.49l-.35-.32c.79-.57.07-1.13.33-1.89h-.49c.06-.3.19-1.16.16-1.38-.01-.07-.64-.97-.66-1.04-.07-.33.22-1.38.17-1.59-.03-.12-.32-.1-.34-.2-.05-.33.29-.61.29-.81,0-.25-.37-.47-.41-.7-.05-.26.15-.47.14-.6,0-.09-.36-.16-.52-.5-.17-.36-.19-2.25-.31-2.4l-.49.16Z"/><path d="M81.27,50.38c.08.11,0,.41.03.45.01.02.25-.14.38-.1.54.16,1.4.29,1.8.45.27.11.6.85,1.28.48.08.45.17.63-.16.99h.82c.06.3.07.78.2,1.04.12.24.42.24.46.39.04.16-.24.57-.08.87.45.86.71,1.34.89,2.41.05.28-.13.77,0,1.12l.5.11-.33.99h.5s-.12.3-.12.3l.28.11c-.62.72-.24.88-.2,1.35.02.28-.29.48-.23.73.09.35.48.4.59.61.15.28,0,.72.04,1.06.09.86.19,1.63.52,2.38.03.06.27.06.27.12-.02.28-.55.88-.58,1.23-.03.3.37.49.37.75,0,.17-.25.4-.27.67-.03.42.3.92.26,1.39-.03.3-.52.9-.66,1.63-.12.61.13,1.99.04,2.37-.04.17-.83.89-1.03,1.44-.16.43-.06,1.54-.1,1.62-.02.04-.6.24-.8.44-.04.04-.62.72-.64.76-.11.18.15.46.06.63-.08.14-1.7,1.41-2.06,1.31l.17.66c-.81-.21-1.2.13-1.81.16v.55c-.52.54-.82-.37-.9-.38-.04,0-.43.31-.83.33-.08,0-1.48-.07-1.56-.09-.44-.13-1.03-.71-1.43-.71-.26,0-.43.34-.62.3-.22-.05-.17-.56-.37-.67-.29-.16-.81,0-.84-.03-.22-.14-.47-1.15-.56-1.24s-.39-.07-.54-.2c-.37-.35-1.19-1.57-.41-1.74-.87-.45-.24-1.56-1.15-1.73l.33-.32c-.55.07-.34-.92-.43-1.34-.32-1.46-1.13-3.19-.23-4.51l-.33-.16.32-.34-.3-.32.32-1.81-.5-.09c-.08-.48.35-.86.42-1.23.06-.28-.12-.76.03-1.03.18-.33.51-.31.63-.69.09-.28.05-1.36.14-1.74.06-.23.48-.8.4-.99-.05-.11-.33-.04-.31-.16.09-.39.66-.55.76-.82.31-.84-.41-2.53.73-2.89l-.31-.18c-.03-.74.71-.74.92-1.02.28-.38-.06-1.11.71-.94-.42-1.12,1.31-1,.66-2.13l.82-.17-.33-.49c.78-.23,1.94-.04,1.81-1.15h.99s-.16-.66-.16-.66l1.15.33.25-.65c.08.15.32.11.38.2ZM83.11,57.74c-.08-.15-.17-1.44-.25-1.64-.06-.14-.99-1.68-1.07-1.74-.11-.07-.83.01-1.05-.25-.36.68-1.33.65-1.64,1.49-.06.17.11.41.06.48-.05.07-.49.09-.65.26s-.34.94-.53,1.28-.79.45-.62,1.16c.04.18.56-.05.1.71-.09.14-.51.37-.54.44-.09.22-.02.46-.1.64-.11.29-.65,1.12-.39,1.46.17.22.62.01.59.32l-.98.51c.16.55.37.75-.03,1.28-.29-.21-.46-.15-.19.19.04.06.37-.08.03.52-.07.13-.29.15-.31.25-.09.45.18.96.1,1.36-.13.64-1.03,1.25-.27,1.97-.62-.04-.19.41-.17.77.05,1.48.46,5.28,1.03,6.53.09.2.36.23.46.4.2.39.29,1.61.35,1.67.05.06.65,0,.87.16s.37,1.51,1.17.18c.39.45.89.55,1.47.5l.25-.6.84-.07-.16-.65s.92-.28,1.13-.43c.29-.21,1.48-2.17,1.5-2.47.03-.34-.3-.5-.25-.72.16-.83,1.13-.8,1.01-2.37-.02-.22-.26-.43-.27-.68,0-.29.34-.59.34-.99s-.35-.59-.36-.97c-.02-.91.22-2.08.26-2.98.01-.29-.3-.67-.09-1.06l-.33-.08.33-.74h-.5c.02-.62.12-.76.33-1.24.02-.04-.59-.54-.62-.66-.07-.24.33-.69.31-.98l-.49-.43.15-.38c-.46-.17-.33-.77-.18-1.18l-.31-.15c.47-.37.33-1.36-.33-1.07Z"/><path d="M33.35,50.44c.09-.06,0-.32.13-.27l2.15,1.31c.18.29-.17.67-.07,1.03.14.55,1.19,1.27.64,2.26l.66-.16-.16,3.62h.66c.19.42-.28.92-.26,1.16.12,1.2.34,2.44.5,3.69.1.78.51,1.5.25,2.38l-.33.16.5.08c-1.05.62-.34,1.82-.41,2.86-.02.32-.31.56-.27,1.09.03.31.34.23.33.31-.04.51-.47,1.44-.49,1.82-.02.48.27.83.25,1.26-.03.74-.64.52-.73.64-.03.04.28.46.27.9-.02.64-.98,1.78-.27,1.98v.33s-.5.25-.5.25l.33.24-.99,1.32.33.16c-.39.19-.55,1.04-.71,1.19-.12.11-.41.04-.61.31-.1.14-.02,1.05-.6,1.2-.2.05-.42-.15-.53-.11-.03.01-.01.27-.13.3-.25.05-3.37.02-3.75-.02-1.08-.13-3.25-1.36-3.63-2.45l-.4.26-.32-.2c-.08-1.31-.59-2.57-.91-3.83l-.09-2.39-.51-.09c.15-.26.09-.71.49-.66v-.16c-.8-.1-.22-.64-.2-.95.03-.42-.18-.78.04-1.19l-.49-.08c.15-.3.37-.7.43-1.02.12-.64-.26-1.93.4-2.28-.32-.61.03-1.38.32-1.97l-.49-.16c.43-.53.17-1.95.82-2.06l-.34-.4.84-1.98-.33-.24c.39.02.24-.52.77-.73l-.28-1.74.66.16c-.45-.75.56-1.44.64-1.76.05-.2-.15-.45-.12-.52.09-.18,1.1-.38.3-1.17.59.17.53-.43.82-.59s.73.24.82-.23l-.49-.16c.43.1.27-.4.35-.47.12-.11.48.05.61-.05.05-.04.28-.86.57-1.08.56-.43,1.08-.1,1.11-1.36.27-.19,1.19,1.15,2.42.27ZM33.05,53.81c-1.32-.41-.92.13-1.28.69-.14.22-.47.16-.63.31-.54.53-.32,1.71-1,1.96l.14.63-.63.19c-.04.31-.21,1.45-.29,1.63-.4.86-.96,1.25-.91,2.55.01.3.29.22.32.32.07.21-.84,2.04-.93,2.34-.21.67.17,1.71.1,2.09-.04.2-.38.33-.43.54-.08.32.27.79,0,1.47-.09.24-.36.24-.37.32,0,.31.45.71.45.98s-.37.48-.41.69c-.04.25.5.96-.02,1.46l.33.15c-.38.6-.29,1.46-.14,2.14.02.08.28.05.3.19.03.19-.22.45-.02.64.22.28.49.05.51.07.11.2-.1.81-.08,1.07.08.98.63,1.19,1.15,1.89l.31-.32c.39.3.87.33,1.29.49.13.05.26.58.87.16.09-.06,1.06-1.04,1.08-1.11.08-.34-.2-.94,0-1.36l.33.17.33-1.48-.49-.08c.04-.24.61-.58.62-.62.08-.18-.08-.37-.04-.54.15-.58.39-1.11.39-1.72h-.49c.21-.96.65-1.64.83-2.56l-.33.08v-1.15s.49,0,.49,0c.11-.11-.6-1.09-.6-1.4,0-.27.4-.61.42-.99s-.21-1.07-.23-1.55c0-.26.25-.5.2-.78-.04-.24-.3-.45-.27-.61.03-.18.41-.33.45-.54s-.48-1.14-.54-1.47c-.03-.15-.12-1.54-.11-1.64.1-.72.85-1.12-.48-1.57,1.06-.96-.23-1.56-.27-2.05-.03-.26.37-1.23.09-1.71Z"/><path d="M98.53,9.48c.09-.06,0-.31.13-.27.55.53,1.81.1,2.44.19.32.05.7.53,1.09.56.24.02.37-.25.59-.26.37,0,.8.82,1.06-.09l.25-.08c.25.2.5.59.79.7.41.16.58-.08.83-.05.05,0,.31.64.92.32l.09-.47c.56.43,1.29.44,1.92.72.05.02.85.54.89.58.25.23.18.54.26.64.03.03.26-.14.38.02.04.06.55,1.02.54,1.08,0,.11-.39.39-.49.62-.24.53-.92,1.72-1.01,1.97-.12.31.03.68-.03.79-.09.15-.47.21-.62.53s.03.65-.04.79c-.08.17-1.02.56-1.23.93-.3.52-.56,1.78-.81,2.11-.42.55-.94,1.15-1.27,1.76-.07.13-.11.66-.33.87l.43.58c-.75-.03-.66.55-.86.78-.13.16-.44.11-.58.24-.1.1-1.15,2.14-1.28,2.44-.15.35-.51,1.43.09,1.31v.16c-.25.16-.84.41-1,.57-.18.18-.97,2.23-1.14,2.59-.06.14-.43.29-.49.55.91.3-.18.91-.28,1.1-.06.12.14.52.08.59-.07.08-.37.08-.44.3s.13.55.04.84c-.07.21-1.14.78-.22,1.11-.19.48-.49.57-.99.58.33.79-.18.82-.29,1.03-.07.12.11.65-.07.99-.19.37-.69.13-.31.76-.4.1-.56.23-.48.67l1.08.14c.49-.84,1.95-.17,2.77-.51.23-.1.21-.42.38-.46.75-.19,2.59.25,3.27.19.31-.03.23-.29.32-.32s1.78-.02,1.93,0c.49.09.71.82,1.48,1.01.42.1.73-.14,1.11.27l.08-.49c.26.09.65.41.87.46.61.13,1.89-.36,1.85.69l.66-.16c-.65.73.74,2.32-.49,1.81l-.25.66c-.58-.38-1.29-.43-1.96-.32-.26.04-.45.32-.67.32-.5,0-2.53-.69-2.95-.66-.1,0-.08.31-.2.34-.39.08-.92-.28-1.3-.26s-1.02.46-1.55.5c-.19.01-.85-.18-1.25-.16-.99.04-2.03.32-2.97.4-.41.03-1.04-.26-1.47-.32l-.08.49c-.53-.08-1.17.06-1.73.15-.27.04-.56.28-.65.28-.08,0-1.34-.51-1.44-.59-.3-.22-.69-.96-1.16-1.2-.06-.33-.04-.83.38-.78l-.33-.24c.11-.29.59-.57.66-.7.12-.23.04-.64.14-.76.12-.16.36-.02.51-.22.2-.27.53-.96,0-.95.46-.28.33-.76.51-1.12.33-.63.95-1.41,1.19-1.96.27-.65.5-1.16.76-1.74.23-.49.11-1.48.2-1.73.09-.27.46-.28.56-.44.12-.19-.08-1.73.71-1.49.05-.45.31-1.33.51-1.72.21-.41.78-.75,1-1.31l-.34-.17c.16-1.17,1.36-.65.75-2.05.13-.3.97-.2,1.19-.7.24-.56.03-1.18.13-1.6.07-.33.91-1.74,1.17-1.97.21-.18.51-.14.56-.18.1-.09.29-2.24.48-2.51.11-.16.42-.09.58-.28.15-.16.16-.58.42-.74l-.33-.24c.41-.03.58-.53.84-.72.42-.31.62.15.39-.93l.75-.32-.17-.49h.5s.16-1.32.16-1.32c-1.79-.35-3.52-.68-5.37-.81-.28-.02-.53.15-.8.14-.52-.03-1.14-.71-1.32.01-.52-.64-.96-.07-1.32-.07-.94,0-1-.14-2.17.01-.44.06-.86-.27-.96.22-.51-.62-1.37-.48-2.06-.74l-.16-.17c.57-.37.11-.58.09-.83-.04-.51.07-.91.26-1.38.39.18.55-.07.88-.15.12-.03.34.15.4.11.06-.04.07-.4.27-.45.19-.05,1.27.29,1.73.24s.51-.42.58-.43c.54-.06,1,.86,1.83.28Z"/><path d="M8.4,49.49c.07.05,1.45-.06,1.7-.06.69,0,1.07-.31,1.95.13.22.11.25.37.42.45.98.43,1.76.24,2.17,1.49l.57-.33c.43.24.08.49.09.72,0,.1.21.1.26.17.08.14.04.36.09.4.12.11.48-.05.61.05.16.12.25,1.5,1.01.96.22.88.7,1.69,1.04,2.55.46,1.14.23,1.26.43,2.11.04.18.42.16.48.37.04.15-.02,1.24-.3,1.31-.06.13.29.02.33.19.27,1.11-.02,2.7,0,3.84h.49c-.07.74-.8.97-1.15,1.4-.26.32-.34.9-.82,1.16l.49.33c-.33.54-.79.23-1.31.41l.32.41c-.26.52-1.08.28-1.44.61-.16.15-.03.5-.12.62-.29.39-.77.22-1.1.33-.15.05-.12.32-.22.33-.24.03-.54-.21-.78-.18-.11.01-.09.3-.21.34s-2.63.12-2.77.09c-.22-.05-1.43-.85-1.56-.75.02.46-.42,1.01-.43,1.39-.02.44.28.68.34,1,.09.5-.28,1.27-.23,1.45.02.09.54.15.33.84l-.51.17c.24.84-.05,1.17.99,1.23l-.59,1.56c-.03.64.71,1.1.76,1.49.06.45-.25.61-.27.82-.01.13.23.49.21.85-.02.5-.58,1.67-1.08,1.78-.19.04-.41-.11-.57-.09-.14.02-.05.34-.35.35-.77.03-1.05-.19-1.33-.83l-.57.15c-.2-.59.23-.61.32-.79.31-.65-.91-1.97.01-2.42-.6-.28-1-1.57-.17-1.81-.7-.59-.12-1.34-.29-1.83-.09-.25-.35-.24-.37-.35-.09-.6.37-1.89.16-2.39-.09-.21-.44-1.4-.42-1.69.02-.27.34-.44.36-.66.04-.3-.3-.87-.27-1.32.04-.55.71-.78,0-.99l.31-2.13-.3-.08.34-.27c-.38-.67.22-1.6.16-2.09-.01-.11-.26-.12-.33-.23-.51-.83-.04-.73-.02-1.29.02-.47-.46-1.45.17-1.39-.58-.53-.09-.69-.06-1.06.02-.29-.34-.85-.4-1.2-.11-.62.54-1.1-.68-.53l-.03-.46c-.44-.03-.47-.05-.49-.49l-.46-.12c.46-.66,0-1.12.07-1.84.06-.79.84-1.21,1.36-1.76.14-.15.07-.52.71-.68l-.25-.41c.28-.4,1-.37,1.26-.73s-.48-.61.72-.72c.43-.04.45.43.82-.36.33-.09.33.4.43.46ZM12.78,53.68c-.2-.28-.89-.14-1.17-.24-.25-.1-.26-.4-.52-.56-.15-.09-1.33-.31-1.56-.31-.57-.02-1.2.57-1.82.59-.1.14,1.03,2.85.74,3.28-.08.12-.41.12-.42.24l.19.39.63.03-.66,1.39c.77.4.29.32.32.83.01.26.09,1.49.16,1.62.12.22.39.06.5.11.17.07-.48.91-.82.9l.33.33-.33.18c.21.48.05,1.14.17,1.6.04.16.36.07.34.36-.02.37-.07.61-.09.99-.01.19-.42.55-.26.91.07.07,1.13-.5,1.4-.51.3-.01.21.31.35.34.65.15,1.63-.24,2.36,0v-.48c.04-.06,1.21.17,1.37.13.23-.05.47-.47.69-.64.16-.12.42-.12.53-.21.45-.39.47-2.37.86-3.01l-.32-.14.34-1.64-.3-.12c.31-.56-.15-.42-.19-.59-.11-.45-.14-1.05-.18-1.52l-.66.16c-.14-.29.33-.86.33-.9-.01-.13-.39-.18-.45-.29-.15-.26.13-.65-.53-.86l.25-.58c-.21-.34-.68-.51-.91-.75-.22-.22-.38-.38-.62-.61-.08-.08-.01-.31-.07-.4Z"/><path d="M78.13,9.43c1.44.37,1.75.11,2.92.27.34.05.44.38.66.43.5.1,1.21-.26,1.73-.09l-.16-.66c.42-.08.62.08.66.49l.18-.3c.54-.22.51.31.76.47s.75.22.89.44c.1.15-.01.4.02.46.04.1.23.07.25.16.09.37-.19.71-.26,1.03-.04.2.14.45.1.51-.03.05-.29.07-.36.18-.2.34-.46,1.03-.61,1.4l.34.17c-.85.44-.14,1.65-1.15,1.57l.18.55c-.73.27-.44.77-.64,1.2-.22.48-.68,1.01-.84,1.33-.14.27-.16.88-.33,1.09-.19.24-.6-.16-.68.85-.02.24.18.66.11.74-.12.14-.43.09-.54.2-.14.13-.46,1.15-.64,1.42-.34.53-1.2,1.42-1.45,1.98-.11.27-.59,1.34-.59,1.42-.02,1.78-2.29,4.9-3.17,6.56-.3.58-.81,1.95-1.07,2.34-.35.52-.67.16-.37,1.03-.91.03-.58.55-.8,1.22l-.51.1.32.41c-.13.39-.6.25-.63.28-.14.14-.68,1.34-.78,1.6-.06.17-.1.32-.07.5.7-.29,1,.3,1.06.3.04,0,.79-.04.83-.05.4-.07.49-.94.97.05.44-.05.84-.31,1.21-.43.17-.05.41.11.54.04.1-.06.1-.38.27-.42.48-.11,1.56.71,1.37-.32.33-.12.68.28.9.27s1.08-.48,1.35-.54c.36-.08.49.33.96-.23l1.17.49c.27-.71.88-.3,1.39-.37.38-.05,1.92-.57,2.03-.57.26.02.59.39.89.43s.56-.16.91-.1c.3.04,1.57.33,1.73.51.36.39-.11,1.02.7,1.03.11.56-.37.79-.6,1.23l.26.5-1.55-.14-.26.63-.74-.68c-.93.48-1.55.1-2.47.18-.56.05-1.14.63-1.48-.16-.26.37-1.85.67-2.32.67-.34,0-.15-.41-.48-.35-.29.05-.48.37-.83.5-.56.21-.96,0-1.31.07-1.14.25-2.26.62-3.42.81-.34.06-.55.66-.79-.22-1.12.9-1.44,0-2.27-.09-.3-.03-.55.2-.76.18-.5-.04-1.29-.3-1.8-.44l-.42.51-.33-.99-.49.17c.19-1.58.62-3,1.27-4.44.08-.19.31-.33.41-.55.12-.26.12-.88.29-1.16.13-.21.39-.06.49-.12.06-.04.18-1.13.3-1.41.14-.33.32-.91.7-.88l-.33-.24c.17-.42.6-.67.83-.99.1-.15.05-.35.16-.49.32-.46,1.44-1.01.33-1.4v-.16c.61-.09.57-.93,1.32-.83l-.49-.49c.29-.33.93-.15.97-.18.08-.06.79-1.5.94-1.75.44-.75.73-1.13,1.1-2.05.19-.49.39-.83.54-1.2.08-.19-.09-.6,0-.75.17-.31,1.12-1.35,1.31-1.81.09-.21-.12-.47-.01-.65s.51-.23.65-.49c.07-.12.23-1.25-.23-1v-.16c.73-.1.5-.64.58-.83.29-.64,1.49-1.93,1.8-2.63.21-.48-.02-1.17.58-1.56l-.33-.24c.63-.15,1.68-1.02,1.16-1.71-.08-.1-.29-.09-.44-.17-.07-.04-.06-.23-.14-.23-.1,0-.3.16-.5.14-1.19-.13-2.04.26-2.81.19-.31-.03-.22-.33-.35-.35-1.34-.19-2.43.64-3.77.18l-.14.3c-.98-.21-.75.14-1.83-.06-.63-.12-2.33-.08-1.39-1l-.33-.16v-.33c.55-.17.49-.92.91-1.25.29-.23,1.04.14,1.08-.64l.9.5c.08,0,.08-.31.19-.34.58-.17.42.17.72.33l.1-.34c1.14.73,1.63-.58,2.71-.15l-.16-.49c.41.14.86.11,1.27.22Z"/><path d="M152.05,8.76s.04.24.24.34c.24.12.7.04.87.28.3.4.2,1-.25,1.24.18.46.71.26.82.34.14.1.18.39.33.49.14.1.41-.07.5,0,.23.15.24.82.36,1.11.21.5.99,1.94,1.08,2.38.21,1.05-.04,2.59.5,3.76.16.34.44.36.49.48.02.06-.11,1.03.02,1.23l-.49.08c.1.11.23.27.26.41.24,1.2.09,2.41.24,3.53.07.5.71,1.11-.18,1.49.14.27.33,1.82.28,2.06-.08.34-.49.46-.44.89.05.47.78.57-.16,1,.3.64.79,1.09.17,1.72.95.13-.1.97-.16,1.12s-.18.94-.19,1.12c0,.12.94.87-.14.74.06,1-1,1.76-.18,2.62-.49-.06-.25.48-.47.77-.17.21-.56.16-.69.34-.23.31.02.89-.13,1.1-.11.15-.41.11-.59.28-.29.27-.66,1.06-1.08,1.37-.12.09-.35,0-.54.09-.11.05-.09.32-.22.33-.39.04-1.14-.38-1.07.47l-.56.03-.1-.47c-.1-.1-.67-.04-.89-.11-1.12-.38-.55-.98-.59-1.05-.02-.04-.7-.46-.75-.47-.12-.03-.37.15-.39.12-.05-.07.08-.43-.04-.63-.26-.42-.2-.06-.47-.9-.05-.17-.36-.14-.42-.44-.06-.28.1-.62.08-.65-.04-.06-.37-.05-.45-.29-.11-.32.11-1.37-.08-1.92-.16-.48-.59-.63-.59-.68.03-.2.32-.48.28-.81-.06-.47-.71-.66-.12-1.49-.75-.56-.1-2.39-.16-3.3-.02-.32-.34-.22-.35-.35-.03-.28.23-.84.25-1.21.03-.54-.16-1.07.06-1.58l-.31-.15c.53-.46.15-1.2.34-1.94.3-1.17.52-2.48.92-3.68.11-.32.04-1.53.14-2.19.12-.77.21-2.47.9-2.58v-1.29s.49-.08.49-.08c.09-.46-.17-.32-.5-.33.32-.66.23-.97.99-1.23l-.49-.16.33-.51.49.1-.32-.58c.71-.19.57-.56.82-.82.43-.47,1.62-1.86,2.27-1.52ZM152.08,13.98c0-.48-.13-.75-.66-.66l-.18.89.33.17c-.06.69-.49.5-.66.69-.14.16-.56,1.79-.48,1.87.08.08.55-.16.49.17-.58-.08-.28.68-.37.91-.02.06-.53.68-.59.85l-.03.3.34.16c-.3.53-.73.6-.89,1.22-.18.76.32,2.24.23,2.86,0,.06-.54.34-.5.61.6-.24.52.41.29.63-.11.1-.41,0-.45.03s.12.38.1.54c-.02.29-.25.91-.23,1.03.03.19.44.16.46.33.01.1-.14.37-.13.6,0,.19.15.56.1.68-.09.22-.36.22-.41.3-.22.33.29,1.71.36,2.19.11.68-.05,2.06,0,2.89.04.67.5.6.42,1.21l-.33.26c.73-.09.76.53.33.98.51-.06.27.48.4.84.02.05.39.81.42.85.07.12.61.77.73.78.65-.06.9-.42,1.25-.9l-.33-.16c.69-.86,1.36-1.95.9-3.06l.87-1.05c-.64-.69-.23-.55-.2-1.23.04-.89.17-1.42.28-2.18.07-.45.34-.8.13-1.28l-.49.17c-.06-.07.1-.73.17-.87.09-.19.38-.03.32-.28h-.66c-.06-.68.47-.8.62-1.02.05-.07.04-1.62.01-1.7-.04-.11-.31-.05-.3-.16,1.03-.86-.08-2.35.48-3.47-.66-.18-.2-.73-.38-1.05-.14-.26-1.15-.6-.25-1.07l-.5-.49c.63-.57.11-.82.05-1.18-.08-.5.39-.67-.54-1.12l.49-.58c-.6.07-.17-.39-.24-.82-.04-.22-.33-.51-.25-.82l-.49.17Z"/><path d="M140.56,9.21c-.25.55.25,1.31.27,1.57.04.61-1.22.51-1.78.79-.41.2-.76.65-1.17.81-.26.1-.55-.04-.81.12-.03.02-.56.51-.58.55-.07.12.13.49-.02.68-.12.16-.4.04-.48.12-.06.06-.34,1.34-.69,1.54l.33.24c-.88.02-.93,1.2-1.31,1.86-.03.05-.36.55-.39.58-.28.35-1,.22-.28,1.02-.57.01-.47.53-.66.88-.37.66-.07.58-.29,1.05-.14.3-.7,1.18-1.03,1.21l.33.41-.33.08.33.49-.66.42.5.08v.66s-.5,0-.5,0c.34.76-.17,1.33-.31,2.07-.18.99,0,2.48.07,3.43.02.33-.32.86-.27,1.13.03.17.58.11.46.71-.06.31-.45.75-.44.8.01.11.36.15.48.38.47.88.48,2.07.84,2.99l.47-.16.51,1.48.33-.25.33.18v1.06c.35.08.47-.24.5-.49l.91.83h.32c.14-.65,1.67-.06,2.06-.33l-.17-.32c.47-.29.96.19,1.06-.31l.49.14.36-.63,1.48-.13c.69.74,1.2,1.95.24,2.66l.33.16c-.24,1.01-.61.58-1.19.79-.89.33-1.41.71-2.5.77-.23.01-.49-.2-.74-.15l-.25.65c-.64-.73-1.95-.56-2.87-.65l-.09.49c-.33-.14-.33-.62-.46-.77-.23-.26-.97-.38-1.19-.54-1.1-.82-1.21-1.78-1.82-2.62-.24-.32-.82-.64-.86-.71-.16-.27-.27-1.1-.37-1.31-.17-.33-.56-.05.01-1.02-.26-.15-.61-.65-.75-.93-.08-.17.06-.33.03-.45-.01-.03-.27-.02-.28-.13-.03-.27.23-.79.08-1.23-.11-.34-.41-.32-.42-.42-.03-.27.2-.7.25-1.02.03-.24-.13-.54-.09-.73.05-.23.73-.09.33-.81-.08-.15-.33-.13-.31-.21.1-.42.71-1.34-.08-1.56l-.09-.25c.96-.81.31-2.17.5-2.93.01-.05.25-.69.32-.85.53-1.3.58-.83.68-2.31.06-.84.3-1.16.56-1.77.39-.91.75-1.78,1.18-2.47.09-.15.44-.71.47-.78.09-.22-.09-.45-.08-.47.03-.05.47-.06.62-.21.18-.19.14-.69.29-.95.13-.23.45-.27.52-.38.45-.75.66-2.86,1.69-2.25-.45-1.06.87-1.27,1.28-1.69.16-.16.15-.57.37-.71s.49.07.67,0,.29-.39.48-.47c.35-.15,1.94.14,2.36.27.34.1.39.59.94.29Z"/><path d="M43.11,50.5v.66c.49-.2.7.35,1.15-.17v.99s.5.08.5.08c.08.42-.25.8-.26,1.15-.02,1.08.34.51-.14,1.88-.22.64.45.99.07,1.66,1.24-.08-.15.8-.17,1.07,0,.1.26.04.3.16.11.4-.2,1.85-.46,2.22.63-.31.93.28.66.87-.05.1-.3.1-.33.23-.15.71-.56,1.88-.5,2.61.02.29.15.19.32.31l-.08.77.59.15c-.94.86-.37.91-.33,1.58.02.33-.27.52-.27.81-.04,1.47.36,4.11.19,5.43-.05.39-.61.66.57.41-.18.47-.2.89-.82.82.81.77.28,1.44.33,2.37.02.4.22.81.18,1.23l1.3.18.1-.5c.43-.06.81.09,1.3-.03,1.22-.3,1.24.02,2.31-.03.58-.02,1.85-.55,2.48-.58.88-.04,1.65.72,2.39,1.09l-.17,1.91c-.34.05-.89.6-.95.61-.29.06-1.23.24-1.45.26-.18.02-1.36-.31-1.4-.25l.16.49c-.59.09-1.15-.46-1.73-.28-.08.02-.05.24-.33.31-.9.22-2.31.21-3.21-.02v.49c-.59-.14-1.45-.07-1.99-.23-.33-.1-.88-.68-1.23-.91-.22-.15-.65-.15-.84-.37-.39-.45.21-.98.22-1.2s-.35-.58-.41-.87c-.07-.36.12-.71.03-.99s-.97-.36.11-.94c-.03-.25-.45-.43-.47-.52-.13-.41.26-1.03.24-1.22-.02-.3-.98-.55-.09-.89l-.32-.09c.56-.91.03-.76-.01-.91-.17-.61.47-.63.5-.97,0-.07-.26-.05-.32-.2-.05-.13-.11-.75-.09-.89.05-.31.36-.3.37-.33.03-.08-.2-.55.04-.79l-.47-.02s-.17-1.16-.16-1.22c.02-.11.25-.09.3-.19.1-.21.25-2.76.17-2.9-.1-.17-.46-.04-.33-.7l.5-.08-.11-.29.28-.12c.21-.63-.47-.29-.51-.5-.09-.94.68-1.12.33-2.09-.05-.13-.32-.13-.32-.23-.02-.52.59-2.07.3-2.5-.07-.1-.75-.23-.44-.67.05-.07.37.1.3-.18l-.33-.08c.08-.36.62-.56.66-.7.27-.97-.39-2.37.33-3.26l-.33-.16.33-.5-.49-.33c.14-.61,1.44-.92.99-1.57l.33.17.02-.47.64-.02Z"/><path d="M59.57,52.64c.26.77-.43,1.93-.34,2.55.07.45.68.18.52,1.33-.05.32-.31.21-.31.31-.06.74-.17,2.26.3,2.66v.31c.02.36-.37.22-.44.57-.02.11.28.92.32.96.12.1.4,0,.45.04.1.07-.52,2-.5,2.39.02.55.63.64.01,1.22l.34.09c-.5.78-.15,1.12-.16,1.81-.02,1.33-.16,4.43.03,5.55.03.16.26.33.28.55.04.37-.29.74-.27.98.02.16.32.4.39.7.07.27-.13.71-.11.78.03.09.25.06.28.16.02.07-.13.94.03,1.15-.02.14-1.1-.04-.09.69.52-.41.88-.09,1.32.22l.51-.51c.74.38,1.45.3,2.26.17.13-.02.1-.26.2-.28.67-.14,1.58.37,1.83-.37,1.11.04,1.42.82,2.2,1.44.11.5-.03.82-.32,1.2l.33.08c-.34.79-.61.39-.83.49-.2.09-.24.45-.36.53-.49.32-1.33.24-1.83.26-.12,0-.23.23-.44.2-.45-.06-1.28-.68-1.8-.34-.14.09-.18.38-.33.48-.05.04-.72.02-.91.26l-.35-.5c-.8.43-1.27.17-1.98.07-.21-.03-.44.11-.73.05-.54-.12-.78-.65-1.48-.27-.1-.39-.03-1.2-.09-1.5-.2-.94-1.07-1.83-.72-2.69l-.32-.16c-.23-.62.5-2.61.49-2.8,0-.1-.28-.07-.3-.17-.03-.13.08-.93-.04-1.07l-.49.16v-.55s.33-.19.33-.19c-.45-.12-.37-.38-.34-.83.06-.92,1.44-3.28.01-3.12.6-.58.45-1.31.66-2.06h-.49s.16-.99.16-.99l-.66.16c.33-.97.53-1.83.5-2.87l-.5-.17.51-1.16c-.46-.34-.14-.53-.21-.7-.02-.05-.27.03-.31-.27-.07-.53-.1-1.63.34-1.99-.77-.19-.05-1.32-.05-1.78,0-.56-.45-.66-.45-.71-.05-.4.37-.66.34-1.05h-.5c.56-.88.08-.76.03-.9-.27-.75.96-1.12,1.09-1.28.26-.32,0-1.43.86-.94v-.5c1.22.27,1.29,1.23,1.64,2.24l.5-.1Z"/></g></svg>