<?xml version="1.0" encoding="UTF-8"?><svg id="Layer_2" xmlns="http://www.w3.org/2000/svg" viewBox="0 0 289.48 107.99"><g id="couscous"><path d="M51.04,18c.16.11,1.07.63,1.14.81.05.15-.18.55.1.82.31.3.98.12,1.19.26.07.05.19.56.39.78.33.36,1.22,1,1.4,1.4.11.24-.14.5-.05.85.02.09.85,1.3.98,1.5.19.29,1.13.53.19.94.74.4-.17,1.12.48,1.21l-.12.32c.74-.13.82.51.37.99.27.41.5.24.9.09.35.45-.74,1.97-.06,2.26l.6,3.33.36-.18c.21.53.05.8-.36,1.17l.36.09-.36.54h.9c-.19.51.06,1.05-.72.9l.72.18-.72,1.62h.9s-.72,1.35-.72,1.35l.9.28c-.49.5-.52,1.39-.9,2.07l.54.09-.36.9.72.27c-.2.39-.22.53-.72.46v.9s.72,0,.72,0c-.72.87.77,3.08-.9,2.88.09.23.27.31.32.59.11.62-.18,2.35-.1,3.1.01.11.27.07.3.17.03.1-.2.57.03.81h-.72c-.12.61.56.62.54.99-.66.35-.3.94-.57,1.42-.2.35-.75.26-.5,1.01l.52.1c-.22.21-.24.53-.42.76-.27.34-.66-.01-.2.77-.4.43-.71.83-1.37.72l.17,1.69c-.77.52-1.01,1.17-1.1,2.07l-.5.03c.16.45-.23,1.1-.91.81l-.43,1c-.21.3-.63-.07-.79.01-.57.3-.38,1.33-2,.72l-.21.7c-.63-.53-1.26-.09-1.85-.21-.35-.07-.6-.49-.95-.51-.25-.02-.54.19-.71.16-.23-.05-.22-.52-.38-.53-.16-.01-.45.23-.68.2-.09-.01-.56-.77-.71-.85-.3-.18-.66.22-.95-.78l-.27.36c-.19-.22-.52-1.02-.57-1.07-.04-.04-.79.19-1.02-.23-.15-.27.1-1.62-.76-1.22l.18-.9h-1.08c.37-1.14-.32-2.23-.91-3.16l.35-.52c-.07-.43-.62-.48-.68-.96-.09-.66.5-.91-.01-1.96-.33-.67-.94-.33-.92-.52.79-.16.1-1.03.31-1.49.19-.4.61-.3.59-.58-.83-.07-.27-1.19-.35-1.68-1.35-.7.79-1.19.27-1.93-.08-.11-.43-.1-.47-.3s.12-.46.1-.69c-.05-.53-.48-1.13.64-1.17l-.54-.27,1.08-1.99-.89-.36.25-.65c1.19.09-.33-1.44.65-1.7-.35.02-.4-.48-.29-.73s.38-.21.43-.29c.02-.03-.12-.52-.06-.79.16-.66.93-2.69.82-3.21-.05-.22-.44,0-.37-.3l.33-.08c-.08-.15-.14-.33-.11-.5.15-.9,1.17-1.94,1.37-2.62.15-.54-.28-1-.07-1.68.22-.72,1-1.11,1.36-1.71l-.54-.36c.53-.39.56-1.31.77-1.66.19-.32.88-.46.49-1.31h.72c-.08-.31-.71-.34-.48-.82.2-.42.7-.12.85-.39s.31-.88-.15-.81l-.03-.24,1.8-1.54-.36-.27c.78-.94,1.99-1.19,2.8-2.07l.36.36.09-.54c.43-.11.39.33.61.48ZM51.59,24.31c-.12-.25-.09-.52-.24-.77-.71-1.13-2.67-.46-2.17.88l-.34.2.15.53-.53.29c.7.66-.09.82-.25,1.25-.19.5-.22.63-.43,1.12-.02.05.11.87.14,1.05h-.73s.16,1.42.16,1.42c-.8.19-.19,1.22-1.06,1.73.54.12.23.52.16.97l-.69.03c-.35.59.16,1.27.1,1.62-.07.41-.59.42-.73.7-.23.45-.06,1.84-.62,2.29l.16.34.36-.09c.04.53.11,1.05-.54,1.09.72.63-.26.87-.37,1.54-.06.35.36.13.38.53,0,.12-.16,1.32-.19,1.4-.1.23-.42.02-.36.31l.54.09-.72,1.26.36.09-.36.27.36.45c-.94.15-.3.65-.23,1.22.1.81-.2.98-.28,1.43-.04.23.31.38.25.6s-.37.35-.38.72c-.02.74,1,1.93-.08,2.15v.27c.55.13.24,1.04.4,1.63.11.4.2.46.38,1.23.04.16.44,1.33.5,1.37l.53-.17c-.03.22-.2.82-.17.97.02.13.29.09.34.25.09.28,0,.78.17,1.02.13.18.44.06.54.12.04.03-.23.66.55.73l-.16.7c.96-.48.85.35,1.27.63.39.26,1.72-.07,2.07.63l.19-.37c.74.49.51-.4,1.34-.17l-.18-.35c1.24,0,.66-1.99,1.99-1.99-.66-1.11.43-1.39.68-1.94.23-.51,0-1.57.09-1.81.01-.03.4-.13.48-.5.1-.44-.41-.1-.35-.44l.32-.03-.1-.3c.99-.26.37-1.62.51-2.08.04-.14.35-.11.35-.22,0-.18-.24-.45-.18-.69s.52-.23.55-.4c.07-.42-.8-1.22.16-1.33l-.73-.81c.6-.76.13-.7.04-1.12-.04-.18.35-.62.3-.87-.02-.1-.26-.07-.29-.18-.23-.83.96-.78.07-2.01-.07-.1-.28-.05-.29-.07-.05-.07.53-.56.36-.9h-.54c-.07-.42.49-.86.52-1.02s-.45-.75-.44-1.24c0-.36.53-.41.47-1.43-.08-1.25-.59-1.63-.81-2.61-.12-.54-.11-1.02.27-1.44h-.54c-.11-.52.53-.97.54-1.03.01-.05-.01-.96-.03-1.01-.11-.31-.62-.36-.66-.57-.02-.15.34-.61.32-.92-.02-.29-.96-1.51-1.01-1.87-.05-.45.34-.65.29-.73-.03-.05-.63.02-.36-.91l-.36.18c.38-.88-.64-1.05-.72-1.54,0-.05.74-.34.54-.81l-.72.18c.13-.5-.23-.66-.29-.78Z"/><path d="M145.26,20.28c.07.08,0,.34.09.44.04.04.93.55.98.56.4.06.75-.11,1.12.03v-.54c1.12-.13.7.83.74.89.08.12,2.13,1.19,2.43,1.45.96.85.23,1.76.43,2.78l.55.11c-.56.95-.46,1.09,0,2.03.06.11.33.11.36.25.1.5-.28,1.41-.2,2.14.04.33.3.25.33.35.09.27-.17,1.07-.11,1.14.06.08.34.07.46.29.11.2-.25.77-.25,1.05,0,.91.98,1.85.13,2.56l.36.27-.32.02c.21.36-.16.65-.14.89.04.62.55.64.6.74.13.23-.31,1.16-.32,1.33-.02.45.36.86,0,1.35l.9.09c-.61.14,0,.7-.72.9l.36.63h-.36s.37.3.37.3c.05.71-.54,2.06-.36,2.65.04.14.34.11.36.23.09.54-.67,1.71-.56,2.49l.55.1c.13,1.33-.37,2.48-.9,3.69.11.35.82-.4.71.16-.18.92-.4.5-.7.65-.04.02.17.77.14.98-.06.47-.16,1.88-.21,2.12-.12.52-1.03,1.51-.11,1.84-.21.49-.74.66-.92.89-.16.2.01.44-.08.63-.15.31-.94.63-.52,1.09l.61.17c-.13-.08-.65.59-.71.69-.15.26-.28,1.02-.44,1.12-.29.19-.73.1-.85.28-.05.07-.79,1.42-.81,1.51-.12.45.47.75-.53,1-.49.12-.23-.41-.54.45l-.99-.18.18.35c-.49.15-.81.32-1.17-.17l-.27.27.18.45c-.76.13-.88-.1-1.31-.6l-3.2-.85.18-.54h-.9s.1-.55.1-.55c-.9-.03-1.19-1.22-1.56-1.51-.13-.1-.42-.05-.49-.14-.1-.11-.26-1.28-.98-1.73-.74.08-.97-1.93-1.09-2.59-.14-.79-.16-2.45-1.22-2.13.05-.8.3-1.34.26-2.19-.02-.43-.5-.87-.08-1.41-.84.08-.73-.54-.69-1.18.03-.55-.07-1.19-.04-1.42.05-.34.41-.54.39-1.1,0-.06-.57-.94-.74-.81l.72-.89c-.39.17-.5-.87-.52-1.19,0-.04.56-.13.34-.62h-.54s.12-.32.12-.32c-.03-.05-.25-.04-.28-.12-.15-.51,1-2.63.87-3.4-.03-.2-.48-.19-.54-.39-.05-.18.4-.77.47-1.1.22-.95-.17-1.93.37-3.27.09-.23.4-.2.4-.29-.02-.34-.4-1.49-.29-1.78.19-.49.76-.53.31-1.38l.72-.19c-.43-.54-.09-1.64.54-1.8l-.35-.25c.42-.43.11-1.09.17-1.42.01-.07.78-.43.18-1.2l.54.18c.23-.17.16-1.52.19-1.68.02-.09,1.2-.99,1.19-1.47,0-.14-.38-.36-.3-.63.5-.02.98-.54,1.32-.91.08-.09-.06-.36.21-.52.22-.13.74-.17.78-.23.04-.05.33-.99.2-1.05.59-.05,1.51-.84,2.07-1,.32-.09,2.38-.07,2.58.15ZM147.34,28.83c-.2-.35.11-.83.08-1.27-.04-.53-.78-1.82-.97-2.42-.05-.15.14-.41.03-.59s-.53-.21-.62-.48c-.1-.3.39-1.49-.56-1.23-.37.1-2.8,2.5-2.71,3.15l-.72-.18.14.33-.32.12.54.36-1.08.45v.35c.48-.17.35.63.23.86-.26.48-.68.32-.77.54-.37.89-.36,2.39-.9,3.21.9.22-.28.72-.33.83-.03.05.22.7.15,1.14-.1.57-1,1.69-.91,2.52l.37.11-.36.18c1.09,1.17-.29,1.74-.45,2.61-.05.27.19.74-.05,1.09l.49.34-.37.9.36.17c-.05,1.16-.25,2.23-.44,3.34-.02.09-.18.2-.26.28,1.34.79.24.86.18,1.11-.13.53.37,1.94.33,2.37-.04.54-.22,1.12-.16,1.73.02.18.32.02.36.2.11.47-.38.08-.36.45l.9-.09c0,.53-.58,1.29-.51,1.76s.64.96.76,1.44c.09.34-.09.76-.05.83.05.08.45.09.51.32s-.19.52-.15.69c.01.05.33.4.51.73.23.42.49.84.73,1.27l-.54.36c.52.87,1.35,1.04,2.03,1.72.28.29.2.79.95.89l.36-.71,1.26.9-.09-.54h.72c-.27-.92-.07-.54.17-.86,1.13-1.47.9-2.25,1.35-3.82.18-.62.43-1.04,1-1.36l-.54-.54c.41-.41.81-.66.9-1.26-1.2-.06.22-1.19,0-2.14l-.36-.19.36-.63-.54-.09c.74-.42.52-1.49.6-2.2.1-.89.51-1.55.11-2.62-.07-.19-.49-.2-.46-.59s.46-1.35.55-1.87c.08-.48-.11-1.12.11-1.64l-.54.18.54-1.89-.69-.3c-.2-.68.51-.88.53-.99.11-.47-.69-1.23-.02-1.95-1.27-.38.51-2.5-.81-2.8l-.27.36c-.09-1,.92-1.77.36-2.76s-.15-1.25-.67-2.15Z"/><path d="M160.74,20.49c.07.03.06.26.18.27.15.02.35-.2.6-.09.79.34.51,1.23.71,1.81.12.34.49.32.47.97-.02.56-.66.97.1,1.19l-.53.47c.28.52.1.9-.02,1.42l.72-.18-.21.88-.51.02v.99s.55.19.55.19l-.2,1.6.37.28c-1.16.4-.67.91-.9,1.8l.54.18c-1.03.16-.25,1.21-.9,1.35.41.59.63.38.36,1.17l.72.19c-.02.56-1.48,1.74-.18,1.62l-.64,2.35c.39.72-.04,2.02.22,2.65.1.25.42.22.41.31-.02.17-.28.41-.28.74,0,.68.63,1.94.31,2.7l.33.17c-.75.7.34,1,.38,1.81.03.54-.43.98-.38,1.53l.36-.18c.26.36.18,1.99.3,2.35.23.67.96.72.32,1.8.25.54.77.16.81.19.44.29-.06,2.84.23,3.03.13.09.41,0,.49.04.05.03-.14.94-.35,1.07.76,0,.41.65.55.95.1.22.85,1.58.99,1.75.46.55,1.69,1.11,1.52,1.99,1.1-.39.9-1.18,1.26-1.84.3-.54,1.47-.66.38-1.85l.8-.79c-.45-.96-.11-.73.15-1.3.38-.83.52-1.11.11-1.96l.73-.3c.11-.46-.25-1.06-.16-1.38.06-.22.4-.35.48-.61.03-.09.2-1.16.2-1.24,0-.1-1.55-1.02.38-1.16l-.48-.63c.79-.86.44-2.16,1.02-3.06l-.72-.09.72-.99c-.76-.39-.54-1,0-1.53l-.54.18c-.02-.75.65-1.47,0-2.08l.36-.18-.36-.18c.06-.82.66-.93.7-1.09.05-.23-.3-1.55-.25-1.98.04-.36.52-.64.48-1.08l-.38-.27.36-.54h-.54c.21-.7,0-1.4.06-2.12.04-.56.72-1.55-.06-1.76.56-.51-.12-1.48.54-2.17-1.03-.22.55-1.89.18-2.24h-.72c.02-.36.39-1.47.33-1.72-.03-.12-.34-.07-.33-.17.02-.28.72-.64.79-.98s.1-1.21.12-1.62l.54-.11c-.05-.51.7-.81,1.16-.91.64-.13,1.35.6,1.81-.08.84.6-.4.92-.27,1.07.53.27.38.4,1.08.19-.67.69-.22,2.69-.39,3.13-.1.26-.44.26-.48.32-.03.04.11.71.05,1.04-.07.43-.42.77-.27,1.34.04.15.4.1.36.2-.06.18-.36.32-.28.65s.53.51.62.97c.11.52-.43,1.37-.45,1.63,0,.11.26.25.2.44-.14.43-.85.68-.44,1.43l.7.1c-.33.98-1.04,1.3-.41,2.39.14.24.4.16.43.49.05.47-.02,1.81-.74,1.54v1.07s.72.19.72.19l-.26,1.26-.65.18c.72.84.56.93,0,1.9l.36.17-.37.9c1.06.43-.71,1.65.19,1.81l-1.08,1.26.55.55-.36.63.37.1c.02.31-1.19,1.38-.19,1.53l-.36.29-.53,3.3.54.09c-.09.58-.83.59-.89.65-.1.11.18.76.07,1.08-.28.8-1.06,1.49-.99,2.6l.72.18c-.22.32-.19.72-.38,1.07-.26.46-1.26.59-.71,1.29l-.34.15c.51.59-.46.98-.71,1.51-.12.25-.34,1.59-.41,1.64-.08.05-.36-.02-.45.07-.52.5-.96,1.31-1.7,1.5l.02.61c-.88.02-1.03-.85-1.9-.86-.53.06.2,1.02-.35.86s-.8-.57-.45-1.08c-.67-.18-.68-.43-.81.36-.27-.23-.44-.52-.64-.81-.41-.59.13-.57-1.03-.68-.21-.2-.43-1.33-.59-1.61-.14-.25-.79-.61-.89-.83-.15-.35.02-.78-.05-.89-.09-.16-1.44-1.49-1.76-1.13.02-.46.26-1.04.18-1.49-.01-.05-.53-.44-.62-.86-.16-.74-.26-1.87-.56-2.5-.2-.42-.61-.57-.72-.9-.09-.3-.16-1.93.25-1.89l-.7-2.27-.72.18.54-1.36c-.49-.21-.67-.54-.18-.9l-.35-.16.16-1.37c-.32.06-.5.26-.72-.09-.07-.5,1.56-1.87,0-1.89l.18-.54-.54.18c.03-.92,1.22-1.81-.18-2.35l.54-.81-.5-.3.12-.76.56-.11c-.37-.62-.23-1.97-.39-2.44-.05-.14-.28-.05-.32-.08l.36-.27-.36-.54.55-.37c0-.24-.29-.47-.3-.71-.03-.59.44-1.2.47-1.3.15-.55.07-.92-.54-.78.87-.87-.03-1.91.07-2.7.04-.37.32-.61.37-.89.15-.86-.21-.79.24-1.67.04-.08-.21-.6.05-.87h-.72c-.07-.31.25-.12.32-.2.05-.06-.27-1.23.04-1.51l-.36.09v-.45c.17-.11.31-.11.39-.34.34-.92.3-2.14.88-2.55v-.36s-.36-.18-.36-.18l1.29-1.32c.13-.04.46.16.62.22Z"/><path d="M82.25,19.98c.33.83.76,2.16.97,3.08.1.45-.16,1.1-.13,1.38,0,.05.49.24.36.83h-.72c.14.26.62.66.51.99-.03.11-.41,0-.24.63l-.46.09c-.03.32.04.61.2.88.39.67,1.03.16.35,1.48l.35.25c-.47-.09-.26.36-.36.8-.05.21-.31.48-.31.56,0,.16.61.51.61.9,0,.16-.22.37-.23.57-.02.59.12,1.17-.08,1.76l.37.2-.36.45h.72s-.55,1.89-.55,1.89l.54.09-.02.25c-.27.51-.15,1.17-.88,1.02l.18.9.36-.36c.16.24-.02.66.02.78.04.14.28.1.31.21.18.51-.55.71-.69.95-.08.14-.2,1.37-.19,1.58,0,.14.37,1.08.57,1.09l-.37,1.69h.54c-.27.46-.24,1.06-.9.91.38.54-.02,1.09.07,1.62.02.15.58,1.38.47,1.44h-.9s.18.9.18.9h-.54c.05.4.71.61.47,1-.16.27-.44.23-.47.27-.13.18.35.45.24.85s-.78,1.17-.79,1.25c-.14.93-.27.79-.35,1.08-.08.3,0,1.37.17,1.68l-.9.19c.13.63,0,1.55-.32,2.11-.21.35-.52.4-.66.59-.1.15.01.47-.08.6-.13.18-.48.12-.65.29-.29.3-.09.97-.63.91l.72.54c-.4,0-.45.43-.76.59-.39.2-2.09,1.13-2.21,1.17-.11.04-2.13.23-2.23.19-.02,0-.02-.29-.24-.38-.52-.22-1.07-.1-1.66-.51-.32-.22-.48-1.07-.92-.15l-.55-.35.1-.55-.51-.03-.03-.51c-.74.34-1.17-.29-.54-.9l-.53.17-.55-1.36-.73.1.18-1.26-.9.36c.07-.58-.39-1.34-.46-1.8-.08-.63.22-.01-.2-.97-.29-.65-.54-1.25-.24-1.92h-.9s.36-.36.36-.36l-.36-.09.54-1.35h-.54c.35-.44-.15-.32-.18-.48-.09-.4.45-1.98.36-2.29-.04-.13-.32-.1-.35-.24-.06-.26.05-.56,0-.83-.02-.08-.72-.47-.73-.94l.55-.62-.34-.08.16-.46h-.72s.36-.29.36-.29c-.33-.69.11-1.9,0-2.47-.03-.15-.32-.14-.37-.25-.16-.34.17-.54-.35-.68.42-.32,0-.92.54-.82v-.17c-1.25-.41-.17-.94-.17-1.01.02-.15-.22-2.78-.26-2.97-.08-.34-.44-.32-.47-.47-.08-.38.31-1.11.29-1.41-.01-.24-.29-.48-.29-.54.01-.16.48-.18.53-.39.11-.42-.57-1.43-.53-1.49.01-.02.23.01.29-.07.38-.53.07-2.1.43-2.83h-.72s.32-.2.32-.2c-.23-.39.13-.7.13-.96.01-.54-.22-1.3-.19-1.82.02-.48.7-.67-.26-1.07.3-.21.17-.54.22-.73.03-.1.24-.08.26-.12.07-.18-.21-.68.42-.96l-.54-.36c.52-.47,1.22-1.13.85-1.86l-.5-.12,1.55-1.71,1.7.45-.54.45c.95.22.69,1.22.76,1.85.04.4.68.45-.21,1.15l.5.7c-.68.55-.24,1.3-.01,2.02.12.38.25,1.05.27,1.11.01.04.25.02.29.11.14.39-.54.86-.69,1.17l.72-.09c-.12.61-.12.79-.74.91-.12.72.16,1.47.17,2.13.01.47-.57,1.5.17,1.58l.03.24c-.8.94-.53,3.25-.32,4.47.11.63.74,2.7.69,3.1-.01.09-.34.08-.37.21-.04.19.28.88.02,1.23l.17.19c.54-.2.37.26.55.68.1.23.52.1.13,1.01l-.51.02.09.36.45-.18c.31.76-.37.93-.37.99.02.54.73,1,.72,1.07-.09.81-.73.87-.22,2.03.37.86.45,1.08.68,2.12.36,1.64.14,2.17,1.27,3.49.59.69.25,1.4.44,2.18h.64c-.09,1.15,1.16,2.33,2.27,2.61.75,0,.56-.95,1.24-.63-.06-.33-.11-.66-.02-.99.29-1.05,1.19-1.7,1.74-2.62.21-.35.1-.72.45-.98-.4,0-.35-.69-.26-1,.11-.37.52-1.23.74-1.6.14-.24.66-.4.73-1.04s-.1-2.01-.04-2.42c.04-.28.36-.31.4-.39.14-.31.06-.71.42-.93l-.72-.27c.94-.94.41-1.96.56-2.8.09-.48.72-.69-.03-.89.77-.67.29-1.28.54-2.07h-.72c.43-.45.12-.99.18-1.32.04-.2,1.07-.44.03-.94.33-.65.15-1.18.2-1.76.02-.21.37-.64.07-1.18-.03-.06-.28-.02-.29-.04-.03-.04.48-.59.32-.99-.04-.1-.29-.06-.32-.21-.05-.26.08-1.02.18-1.32h-.72s.08-.73.08-.73l.65-.18c-.27-.46-.53-.84-.2-1.36l-.34-.08c-.08-.3.31-.08.36-.29.18-.69-.24-.91-.73-1.23l.72-.72-.54-.91c.02-.47.57-.36.55-.54-.02-.26-.43-.49-.19-.8h-.72c.64-.66.2-2.17,1.08-2.36l-.52-.61.53-.73-.54-.27v-.35c.67-.06.69-.79.98-1.19.33-.46.9-.39.65-1.33l.81.36.63-.54c.11.47.26.93.44,1.38Z"/><path d="M193.51,21.43c.52.33,1.34.02,1.53.12.04.02.09.27.26.36.51.28,1.78.75,1.45,1.51-.6,1.42-2.51.56-2.75.79v.53s-1.45-.36-1.45-.36l.18.54-.98-.37c-.29.59-1.81.25-2.45.83-.18.16-.12.46-.23.58-.13.14-1.11.77-1.27,1.18-.11.29.04.59-.14.91-.32.59-1.27.77-1.25,1.74l.54.09c-.09.6-.67.77-.79,1.04-.16.39.06.79.04.83-.03.06-.34.08-.4.2-.11.2,0,.61-.28.82l.53.45-.54.18h.54c-.2.52.05,1.04-.72.9v.18c1.13.14-.82,2.27.54,1.99l-.54,1.53c.62.17.21.68.53,1.27s1.21.81,1.59,1.04c.08.05.11.32.22.38.32.2.78-.25,1.02.83l1.08-.06c.59.27.3.68.45.92s1.54.3,1.41-.32h.17c-.07.65,1.13.76,1.24.93.26.43-.4.73,1.01.88l.18-.36c.85.2.58.67,1.37,1.12.49.28.46.55,1.1.93.86.51,1.87.93,2.73,1.55.25.18-.06.49.67.17-.12.78.56.68.9,1s.61,1.25,1.15,1.64c.3.22.81.06.87.57l.33-.14-.16.46.36.18c-.35.81,0,.5.16.75.6.92-.04,1.02.12,1.44.1.24.38.24.39.26.04.12-.18.29-.11.47.02.04.56.6.69.68l-.55.81c.53-.04.38.68.71,1-.95.35-.24.93-.25,1.44,0,.94-.66,1.96-.96,2.64-.04.08.18.92.12,1.11-.04.14-.3.09-.33.24-.02.09.15.28.08.43-.06.13-.58.02-.84.44-.2.33.02.56-.01.61-.04.07-.4.11-.52.28-.22.3-.12.69-.26,1.01-.17.37-.57.2-.64.27-.2.19-.12.51-.19.61-.05.06-.98-.16-1.48.37-.23.24.07.71-.66.55l.36.72h-1.44s.18.36.18.36c-.52.19-1.38-.02-1.84.19-.23.1-.21.44-.44.52-.49.16-2.02-.46-1.87.2-.3.08-.1-.28-.26-.33-.09-.03-.77.07-.88.14-.25.17.05.7-.58,0-.52,1.03-1.01-.02-1.08,0-.12.03-.27.28-.55.29-.18,0-1.2-.51-1.44-.56-.64-.14-1.94.1-2.07-.81l-.36.54c.06-.51-.48-.39-.68-.58-.07-.07-1-1.67-1.05-1.77-.13-.29.1-.58,0-.72-.07-.11-.43-.1-.47-.29-.05-.24.17-.61.12-.97-.11-.73-.87-.61-.65-1.43h.9c-.05-1.4,1.05-1.55,2.14-1.22l.85,1.76c.54.13,1.13,1.39,1.28,1.44.53.18,1.06-.43,1.6.55.44-1.17,2.16.07,2.72-.05.19-.04.2-.41.28-.46s.67.41.7-.39h.17c-.07.49.22.22.36.3.47.28,1.03.88.73-.3l.88.17c.03-.69.69-.53.84-.7.25-.28.09-.61.14-.69.42-.6,1.74-1.38,2.29-2.11,1.32-1.75.27-1.65.41-2.86.03-.25.32-.48.32-.73,0-.09-.3-.08-.36-.24-.3-.81-.02-1.43.17-2.2h-.72c.31-1.08-.25-1.34-.97-1.92-.11-.08-.37-.03-.43-.09-.11-.14,0-.47-.13-.68-.21-.36-1.03-.29-.63-1.09-.6.32-.64-.24-.77-.31-.39-.21-.82.2-.85-.77l-.72.54c-.05-.7-.14-1.51-1-1.54-.12,0-.26.25-.45.21-.32-.07-.55-.53-.83-.6-.13-.03-.4.16-.42.13-.13-.19.34-.66-.56-.97-.51-.18-1.02.27-1.15-.29-.26.61-1.31-.24-1.76-.55-.65-.45-.31-.05-1.03-.27-.43-.13-.78-.81-1.11-1.05-1.12-.81-1.98-1.2-3.14-1.73-1.54-.71-.59-1.2-.64-1.52-.05-.35-.8-.6-.85-.69-.13-.25.06-.7-.06-.84-.05-.06-.42-.02-.61-.2-.31-.29.09-.71-.44-.8.03-.63.51-.61.53-.65.06-.11-.26-.25-.28-.43-.02-.24.16-.55.1-.9-.05-.31-.39-.53-.38-.92,0-.27.41-1.42.56-1.71l-.72-.27c.99-.81.07-2.63,1.44-2.62v-.36s-.36-.09-.36-.09c.92-.29.03-.89.9-1-.24-.3-.36-1.19-.28-1.53.08-.37.53-.36.61-.48.04-.06-.09-1.22,0-1.54.19-.7.67-.86.89-1.17.05-.07-.09-.49.11-.81.5-.79,2.04-.84,1.28-1.86l.52-.34.58.34c.13-.56.63-.3.95-.49.41-.25.68-.88,1.41-.96.31-.03.62.16.86.12.69-.1,2.83-.72,3.36-.39.11.07.14.32.23.38Z"/><path d="M102.41,20.89c.05.05.26-.08.32-.03.18.13.16,1.66-.12,1.9-.86.74-1.01,0-1.07-.01-.27-.07-1.55.14-1.7.11-.32-.06-.34-.46-.47-.48s-1.22.14-1.36.2c-.13.05-2.34,1.2-2.43,1.3-.29.29-.28,1.22-1.13.85l-.02,1.43-.7.02.52.38c.17.74-1,.97-1.19,1.29-.13.2-.12.74-.27,1.08-.2.48-1.08.77.04.94l-.7.76c-.11.35.34.58.34.86,0,.33-.81,1.23,0,1.44l-.53,1.25.53.28-.36.72.54-.36.06,1.54c.85.39.69.39.68,1.33h.52c-.26.81-.13,1.83.9,1.81l-.18.54.72-.18v1.26c1.53-.12.52,1.48,1.87,1.46l.48-.56.2,1.25c.47-.22.8.3.89.73l.36-.36v.53c1.12-.11.7.07.97.48.46.68,1.11.41,1.51.66.27.17.37.98.42,1.03.02.02.22-.16.3-.12.04.02.05.24.18.29.28.09.94.1,1.08.24.41.42.13,2.22,1.47,1.78.32,1.19,1.29,2.02,1.1,3.4l.45-.12.26.23c-.18.72-.03,2.21.73,2.42l-.34.19c.29.44.03.9.08,1.27.09.62.64.07.61.59-.06,1.07-.53.71-.67.85-.1.1-.04.66-.22.87l.68.27c0,.83-.67.81-.48,1.78,0,.05.61.33.18.76-.3.3-.81.14-.89.71l.69.62-1.44.99.36.18c-.27.39-.61.5-1.08.45.23.48-.45,1.12-1.06,1.29l.16.33c-1.03-.25-.69-.04-1.04.18-.67.42-.88.46-1.67.19l-.2.7-1.04-.14-.29.52-.56-.73c-.53,0-1.05.09-1.56.21-.14.03-.13.31-.25.33-.07.01-1.22-.07-1.36-.1-.56-.12-.54-.46-1.04-.54s-1.14.11-1.67-.09c-.22-.08-.66-.95-1.2-.68l-.2.33-.54-.63.35-.63-1.22-.22c-.41-.4-.18-.88-.24-1.11-.04-.14-.32-.09-.32-.19,0-.14.21-1.08.13-1.16l-.7-.33c-.12-1.08-.28-1.72.19-2.76h-.54c.17-.58.29-.58.88-.56.02-1.2.49-1.54,1.63-1.96.35.76.63,1.51,1.11,2.2.19.27.71.52.85.81.4.84-.73,1.54.77,1.67l-.19.54c.69-.18.8.79,1.21.88.25.05.56-.22.78-.08.17.11.19.52.44.58.24.06.98-.14,1.34.06.15-.32.04-.85.56-.71l-.09.36c.74.13,1.73-.26,1.98.54l.99-.63-.36-.45,1.41-.41c-.06-.46.33-.49.45-.73.23-.48-.18-.86-.16-1.12.03-.48,1.59-1.93.29-2.26l.38-.44c-.29-.69-.14-1.87-.38-2.49-.12-.32-.8-.16-.36-1.04l-.54.18.16-.51c-.68-.22-.9-1.25-.37-1.75-.51-.63-1.41-.45-1.23-1.53l-.54.18c.16-.7-.32-.47-.63-.72-.39-.31-.82-.72-.83-1.26-1.04.58-2.61-.18-2.33-1.45l-.9.36c-.23-.62-.48-.62-.08-1.26-.55-.57-1.3-.91-1.89-1.37-.12-.1-.17-.31-.33-.43-.52-.4-.43.54-.91-.03-.04-.05-.01-.95-.26-1.19-.17-.17-.67-.03-.88-.35-.09-.13,0-.39-.06-.51-.1-.22-.3-.31-.38-.54-.1-.3.44-.56-.8-.63l.02-.79-.56-.11c.61-.8-.7-1.78-.72-1.93-.16-.81.51-1.57.06-2.35-.22-.37-.98-.66-1.05-1.22-.02-.12.09-1.52.12-1.61.1-.3,1.24-.43-.02-1.1l.72-.72-.51-.69c1.15-1.09.58-2.43,1.41-3.46l-.36-.53c.12-.29.56-.35.68-.49.03-.04-.1-.2-.08-.22.19-.25.64-.63.31-.91l.53-.09c.28-.41-.57-.37-.36-.54.07-.05.4-.07.56-.26.15-.19-.06-.49.14-.74.3-.38.84-.05,1.06-.29.34-.37-.03-1.37.94-1.23l-.19-.54c.48.13.74-.43,1.04-.51.19-.05.43.15.6.07.16-.07.03-.41.16-.56.2-.25,2.34-.39,2.84-.38.36,0,1.55.29,1.74.27.22-.02.46-.34.76-.33s.6.5,1.02.61c.39.11.73-.13,1.04.01.33.15.41.61.59.76Z"/><path d="M31.63,21.43c-.86.47-2.13,1.08-2.89,1.87-.16.16-.1.45-.24.55-.26.17-.76.07-1.07.35-.21.19-.1.55-.2.72-.69,1.12-1.83,1.85-2.6,2.79-.2.24-.29,1.15-.89,1.26l.36.45c-1.6-.02-1.36,1.36-2.31,2.03l.14,1.03c-.38.1-.85.11-1.05.5-.21.42.15,1.04-.39.96v.27s.36-.09.36-.09c.16,1.15-.68,1.07-1.03,1.48-.04.05-.28.95-.58,1.16l.52.69c-.15.48-.98.4-1.06.47-.13.13-.02.95-.08,1.03-.07.09-.33.07-.42.3-.11.29.33,1.07.21,1.45-.11.33-.69.94-.81,1.27-.14.42.59.2.71.53-.1.13-.22.27-.25.43-.12.66-.49,1.25-.55,1.9-.09.92-.09.69-.26,1.3-.2.68.24,2.48-.02,3.31l.72.09c-.45.09-.82,1.45-.64,1.72l.46.26c-.36.27-.61,1.12-.63,1.55-.02.38.05.56,0,1.16,0,.06.28,1.09.32,1.13.14.14.49,0,.62.3.26.57-.02,2.18.07,2.26.04.04.36-.07.49.04.09.08.11.47.3.7.17.2.57.31.62.37.04.06.05,1.2.03,1.41.51.05,1.6.45,2.03.73.19.12.6.78.72.84.53.27,1.71-.02,2.4.2.27.09.25.34.38.38.29.08,1.51-.24,1.93-.28.58-.05.85.47.92-.42.42.18.73,0,.9.54l.09-.54c.74.02,1.49.01,2.2-.2.12-.04.14-.26.2-.28.34-.14.62.08.75-.42l.82.36-.18.54.71.02c-.09.73.5.65,1.09.71v.62s-.53.09-.53.09c.33.6-.22.68-.32,1.03-.06.22.19.47-.02.68-.48.48-1.23-.14-1.27-.09l.18.54c-.64.34-.83-.18-1.44-.18-.05,1.28-.85.6-1.32.72-.14.03-.11.35-.2.34-1.09-.04-1.98.44-3.07.38-.34-.02-1.36-.67-1.54-.54l-.19.72-1.44-.72-.27.72c-.35-.44-.93-.55-1.34-.83-.15-.1-.17-.44-.29-.44-.43,0-.5.37-1.43.15-.1-.02-.08-.27-.11-.28-.14-.04-.34.19-.48.12-.05-.02-.45-.67-.62-.81-.2-.16-1.29-.77-1.36-.83-.5-.4.02-1.54-1.29-1.41l.1-.9-1-.18c.14-.19.07-.68.16-.79.19-.25.61.07.57-.29-.7.04-.76-.28-.72-.9h-.72s-.24-2.63-.24-2.63l-.66-.26c.26-.43.16-1.43-.03-1.86-.12-.29-.49-.26-.49-.38,0-.66-.03-2.38.05-2.99.03-.25.32-.69.29-.72-.05-.07-.43.15-.36-.18.96-.14.19-1.11.21-1.33.02-.26.46-.57.53-1.11.08-.68-.29-1.4-.01-2.07l-.54-.09.72-.63v-.35s-.53-.27-.53-.27c.42-.34.81-1.25.17-1.44l.37-.81-.36-.18c.46-.06.75-.35.74-.82-.31-.2-.45-1.13-.34-1.42.1-.24.39-.24.52-.42s-.03-.69.34-.86l-.36-.18.36-.27-.36-.09.9-.96c.26-.48-.15-.71-.06-1.07.18-.73.77-.93.87-1.12s-.11-.8-.04-1c.04-.12.65-.25.32-.8h.54s-.18-.36-.18-.36c.91-.02.77-.72.9-1.45l-.54-.09c.29-.82,1.74-1.34,2.06-1.89.15-.27-.1-1.03-.06-1.06.15-.15.55-.04.94-.61.29-.43.01-.8.48-.93l-.16-.64c.64.3,1.48-.82.72-.99.35-.53,1.2-.47,1.57-.69.05-.03.76-.7.76-.75,0-.09-.64-.38.1-1,.54-.45,1.02-.09.98-.81,1.02.05.95-1.01,1.82-1l-.15-.32c.59-.77,1.52-.69,2.01-.96.59-.33.79-.58,1.53-.93.04-.02.06-.32.38-.41.57-.16,2.1.34,2.33.77.14.28.29,1.59.03,1.77-.63-.1-.81.49-.96.57Z"/><path d="M124.14,18.85c.09.06.02.33.14.29.3-.77,2.39.65,2.43.85.01.05,0,.96-.02,1-.22.6-1.31.66-1.51.83-.32.28-.15.76-.98.56l.54.27c-.57.61-.83.55-1.62.63l.54.45c-.17.38-.96.38-1.05.48-.07.08-.07.62-.23.94-.22.41-1.04.9-1.16,1.2-.11.28-.27,1.27-.39,1.57-.12.34-.61.02-.24.76-.38-.27-.39.06-.7.31l.34.95-.3.04c.34.42-1.96,1.38-.41,1.41l-.72.36.36.72-.82.35c.6,1.02-.55,2.24-.55,2.81,0,.12.24.26.24.35,0,.13-.54.52-.68.89-.25.62-.06,1.11-.17,1.6-.03.13-.31.11-.34.26-.1.36-.3,1.11-.35,1.42-.08.49.48.09.52.34l-.76,2.35c-.68.19-.04.46-.02.89.03.57-.57,3.07-.44,3.43.04.1.33.07.34.18,0,.29-.61,1.09-.55,1.16l.9.18c.19.2-1.25,1.38,0,1.08-.21.55.03,1.22-.14,1.73-.13.38-.57.07-.2,1.02.07.17.37.14.35.22-.15.49-.53.49-.21,1.29.15.38.55.09.21.79l.72-.36c.23.43-.3,1.02-.3,1.17,0,.33,1.27,2.16,1.54,2.55.33.48.42,1.33,1.24,1.47.4.07.75-.43.81.16l.22.05c.97-.82,1.74.34,2.67-.19.21-.12.02-.5.49-.35l.18.36c-.08-.51.48-.31.83-.52l.25.34c-.06-.46.47-.35.74-.61.39-.39,1.1-1.63,1.83-1.86.22-.07.43.43.59-.23,1.02.46.39,1.21,1.46,1.43l-.1,1.08.72.28c-.91.87-1.42,2.64-2.88,2.43v.9c-1.35-.55-1.23.54-1.47.69-.13.08-.49,0-.72.08-.17.05-.33.24-.46.27-.63.11-1.71-.77-2.12.22l-.63-.54.18.54c-.77.34-1.06-.5-1.21-.54-.61-.16-1.31.16-1.78.16-.05,0-.39-.49-.89-.45-.19.02-.33.35-.45.29-.06-.03-.49-.8-.72-1-.66-.57-1.48-.82-1.9-1.71l-.1.35h-.35c-.06-.39-.55-.52-.47-.99.05-.31.25-.39-.03-.93-.69-1.32-1.49-3.1-1.85-4.44-.01-.04-.53-.56-.54-.6-.14-.73,1-1.81-.15-2.25.08-.3.21-2,.15-2.21-.05-.18-.43-.05-.36-.2,1.14-.68-.14-1.46.54-2.17l-.36-.17.37-1.07c-.04-.25-1.48-.08-.41-.49-.34-.74.07-.76.57-1.15l-.54-.09c-.11-.57.17-.56.54-.81l-.54-.45.36-.45-.36-.1c-.19-.46.29-.3.33-.44.02-.06.02-1.18.02-1.36l.36.18c.06-.08-.25-1.4-.19-1.69.05-.22.44,0,.37-.3l-.37-.1.19-1.17.36.18c.15-.3,0-.8.04-1,.01-.07.5-.07.13-.87,1.26-.55.61-1.23.82-2.1.19-.78.75-1.44,1.17-2.1.08-.37-.55-.12-.17-.61l-.54-.18c.92-.07.49-.79.73-1.15.13-.2.42-.25.54-.42.28-.41.1-1.61.17-1.66.05-.04.36.01.53-.1.24-.17.24-.72.55-.9-.54-.13-.13-.38-.36-.81h.54s-.36-.27-.36-.27c.45-.17.37-.94.53-1.08.19-.17.57-.18.69-.32.05-.06.49-1.16.57-1.35.09-.2-.07-.58.17-.88.16-.2,1.47-.61,1.82-.79l-.36-.36,1.08-.37v-.89s.9,0,.9,0l.18-.82c.11-.11.9.17,1.14.11.32-.07.07-.83.79-.3Z"/></g></svg>