<?xml version="1.0" encoding="UTF-8"?>
<svg id="Layer_1" data-name="Layer 1" xmlns="http://www.w3.org/2000/svg" viewBox="0 0 485.24 200.23">
  <defs>
    <style>
      .cls-1 {
        fill: #fff;
      }
    </style>
  </defs>
  <path class="cls-1" d="M272.73,8.15c1.8,1.06,1.15-.3,1.86-.55,1.32-.47,1.37.77,1.63.91.4.21,5.59,1.73,6.18,1.83.95.15,1.12-.17,1.84-.65.1.5.71,1.75,1.07,1.96s.86-.2.99-.13c.23.13.19,1.35,1.61,1l.55-.72c.52,1.28,1.55,2.15,2.47,3.08.24.25.21.88.41,1.08.07.07,1.25-.05,1.7.78l.18-1.05c1.38.58.8,1.97,1.19,2.58.33.51,1.12.31,1.48.83.47.68.28,1.72.46,2.14.26.58,2.96,3.89,3.53,4.7.21.29.22.68.22,1.03l.69-.35c-.89,1.39,2.06,3.85,2.11,4.12.15.74-.17,1.68,0,2.33.09.36.74.33.96.76.27.53-1.07,1.44-.03,2.99.53.79,1.29-.14.3,2.16,1.52,1.19.5,1.89-.13,3.45l1.32.9c-.39.75-.2,1.61-.38,2.39-.11.47-.7.85-.79,1.27-.08.37-.02,3.17-.23,3.49-.14.21-.82.26-1,.61l1.06.18c-.29.98-.46,1.47-1.41,1.94v.52s.66.18.66.18l-.26,1.38-1.09.22.34,2.45h-1.41s1.05,1.24,1.05,1.24l-.72.7c-1.62-.46-2.18,2.51-1.09,2.68.11,1.85-1.73.94-1.99,1.08-1.12.59-1.74,3.82-2.23,4.14-.25.16-1.33-.51-2.07.39l.7.7-1.05.18.64,1.06-.44.54c-1.48.48-3.35,1.21-4.7,2.01-1.11.66-1.64,2.2-3.25,1.67,1.43,1.99,2.47.67,4,.91.77.39.59,1.53,1.02,2,.32.35,1.75.68,2.35.99,1.49.8.81,1.9,3.19.15-.12,1.17,1.51.76,1.98,1.4.23.32-.26.88.13,1.23.64.58,2.4,1.14,3.03,1.57.55.38.73,1.21,1.12,1.45.55.33,1.4.22,2.07.66.58.38.83,1.34.9,1.39.1.06.71-.45,1.36-.16.5.22,3.13,2.32,2.13,3.01,1.89-.38,3.62,1.5,4.01,3.16.14.58-.34,1.16.03,1.76.34.55,2.91,2.33,3.12,2.9.29.81.08,1.54.26,2.14.09.3.56.25.6.42.31,1.09-.62,2.1,1.44,2.34-.06,1,.11,1.61-.65,2.42,1.17-.14,1.83.87,1.79,1.95-.02.71-.59,1.12-.61,1.41-.02.32.47.71.44,1.04-.03.42-.86,3.04-.57,3.34l1.06.18c-.46,1.27-1.67,4.07-1.76,5.32-.08,1.17.82,1.87-.36,2.95l.7.35c-1.07,0-1.22,2.14-1.85,2.74-.33.31-1.01.24-1.25.52-.49.57-.09,2.16-.17,2.31-.11.2-1.59,1.33-1.85,1.86-.17.35.16.78.07.96-.22.4-1.47,2.51-1.83,2.88-.79.82-3.02,1.34-3.6,1.87-.28.25-.23.76-.44,1.07-.36.54-.95-.21-.36,1.65l-1.43.17-.02.86c-.21.23-2.15.08-2.9.72-.32.27-2.3,2.83-2.77,3.11-.51.3-2.54.27-3.45.97v1.58c-.79-.1-1.75.53-2.43.54-1.07.01-2.94-1.81-3.2,1.22-.59.15-.18-.58-.51-.66-.41-.1-2.82.23-3.71-.39l.35,1.05c-.97.18-1.72-.8-2.63-.71-1.51.15-.96,2.37-3.18.36-1.47,1.19-2.55.29-4.22.34l-.21,1.04c-1.9.41-2.99-1.74-5.06-1.69-1.69.04-1.1.89-1.44,2.09-.27-.99-.49-.41-1.12-.63-.71-.25-2.24-1.08-2.39-1.09-.21,0-2.26.41-2.31.31v-1.41c-1.22.74-2.27.12-3.53,0v.8s-.88.26-.88.26c-.65-2.15-2.44-1.66-4.24-2.11.12-.61-.3-3.26-.56-3.48-.44-.36-3.8.32-3.48-2.16l-1.05.7c-.2-1.11-.51-1.56.35-2.46h-1.06c.57-1.32-.4-2.9-.25-4.27.11-1.1,1.56-2.84-.79-2.78l.7-.7h-.7s.73-1.91.73-1.91l-.75-.4c1.67-2.15.24-3.16.34-4.92.11-1.87.72-5.25.72-7.04,0-.79-.81-1.24-.88-1.75-.09-.66.45-2,.21-2.81l-1.09-.37.37-1.93.7.17c.2-1.54-.7-3.66-.59-4.98.07-.83.6-1.41.52-2.71-.05-.73-.11-2.61-.99-2.35v-.34c.24.02.57-.03.71-.24,1.65-2.55-1.16-2.12-.71-3.46.08-.25,1.28-.55,1.25-2.11-.02-1.19-.65-.73-.98-.91-1.19-.64.69-1.37.74-1.46.28-.46-.99-2.42.4-2.57-1.8-1.8-.26-2.22-.09-3.24.14-.82-1.23-2.16-.27-3.28l-1.07-.18c1.7-.7.44-1.71.39-2.49-.12-1.98.76-3.13,1.38-4.9l-1.42-.18c-.18-1.25,1.29-1.63,1.41-2.02.65-1.99-.6-2.89-.58-3.43.03-.62,1.22-2.81.93-4.04l-1.05-.19,1.27-2.47-.92-1.23c1.64-.28.81-2.95.87-4.2.05-.97-.06-2.12-.02-2.67.03-.46.76-1.19.75-2.14-.02-1.08-1.24-.88-1.26-1.72.29-.75.46-1.99,1.42-1.96l-.69-.5c-.02-1.09,1.54-1.3.86-1.96h-1.22s1.36-3.76,1.36-3.76l-1-1.35.7-.18-.66-.88,1.35-1.41-1.05-.7,1.07-.18v-1.4s-1.07,0-1.07,0c.68-1.19.28-2.16.34-3.32.08-1.51.59-4,.6-5.31.01-1.62-.64-4.27-.56-5.66.03-.58.54-.74.68-1.2l-1.06-.18c-.08-1.37,1.59-.95,1.06-2.64l-1.41-.52c.23-.87,1.32-1.16,1.53-1.7.34-.87-1.46-2.81.58-2.36v-3.17c2.23,1.06,2.29-1.33,4.05-1.44,1.11-.07,1.45.89,2.12-.62.85.09,1.52.78,2.43.67.68-.09,1.42-1.01,1.8-.99s1.05,1.22,1.58,1.47c.79.38,4.21.62,5.13.74,1.72.21,1.72.51,2.74,1.11ZM261.62,12.94c-.28-.16-1.84-.17-2-.03-.55.9-.04,1.93-.1,2.62-.09,1.13-1.29,2.66.75,3.5-.99.97-.17,2.4-.63,3.56-.25.61-2.06,1.5.24,1.58,0,.6.27,1.39.23,1.93-.06.97-.96.81-1.06,1.5-.16,1.19.87,2.21-.2,3.4l.69.33-.58,2.53.92.54-.32,1.37,1.06.18c-2.5,1.38-.33,3.05-.8,4.58-.31,1.04-.58,2.34-.89,3.17-.34.92.68.91.62,1.05-.48.23-1.16,1.76-1.01,2.11.14.33.69.3.84.52.53.78-1.27,1.79-1.16,2.94.1,1.08,1.09.95,1.33,1.64-.96-.16-.41.51-.56.7-.28.35-.83.44-1.01.7-.22.33.39,2.71-.08,3.37l1.66.69-1.69,2.49c2.14.78-.02,2.04.29,3.1.08.28.75.2.7.39-.23.85-1.24,1.94-1,3.32l.64.38-.7.17c1.18,1.2.02,1.79-.02,2.47-.01.22,1.05-.02.48,1.23-.37.81-1.33.96-.54,2.42-1.29.02-.06.39-.06,1.26l-.93,5.1,1.05.18c-.57,1.85-1.45,3.32-1.78,5.27l.74.37-.72,1.23h1.76c-.75,1.01-.05,2.7-.28,3.36-.25.72-1.1.81-1.12,1.04,0,.08.77.68.61,1.47-.14.7-.68,1.03-.79,1.48-.25,1,1.14,2.15-.18,3.21h1.06s-.72.55-.72.55c.46.73.2,1.71.39,2.37.09.34.72.12.72.75-.01.94.06,4.17-1.08,4.08v.69s.7.18.7.18c-1.51,1.37-.45,1.59-.41,2.46.06,1.39-.04,3.46-.3,4.76l.97.06c1.05,1.2-.72,1.66-.62,2.21.1.6.28,1.52.4,2.1.27,1.31,1.03,2,1.02,2.13-.09.66-1.12,1.55-.4,2.63l-.65.38h1.76c.15.57-.49.26-.58.42-.18.34-.88,3.28-.76,3.41.15.16.78-.2.63.39l-.71.18c.9,1.24.7,2.28.36,3.68l1.06.02c.04,1.53-1.01,5.99.89,6.34l.34-.71c.85.82,1.7.98,2.82,1.06l-.17-.7c.58-.16,1,.39,1.48.46.93.13,3.37.55,4.01.55.17,0,.12-.5.22-.55.25-.11.76.6.64-.47l1.41,1.76c.85-.98,1.67.03,1.92-1.06,2.39,1.35,5.31.65,7.82.42.46-.04.77.6,1.19.5s.81-.72,1.57-.87c.61-.12,2.18.36,3.08.22,1.08-.17,2.49-1.12,3.01-1.29,1.92-.65,2.91-.18,5.64-1.34.49-.21,1.21-.09,1.77-.35,1.05-.49,1.1-2.33,1.83-3.05.62-.61,2.38.07,2.95-.93.76-1.32,1.43-1.14,1.79-1.74.14-.23-.17-.71.16-1.24,1.22-1.94,3.35-2.98,5.04-5.92.55-.96.26-2.52,2.04-2.72v-.7s-.7-.35-.7-.35c3.14-.89,1.34-1.69,1.4-2.97.03-.51,1.19-2.56,1.01-3.2-.06-.19-.54-.12-.59-.34-.08-.41.42-1.78.29-2.41-.06-.29-.58-.22-.65-.42-.17-.47.88-1.68.65-1.93l-1.26-.34.06-1.79c-1.85-.45-.8-.55-1.28-1.51-.69-1.38-2.19-2.06-1.39-3.75l-1.4,1.05c-.27-.21-.7-3.01-.95-3.52-.45-.92-1.5-1.42-1.8-1.83-.1-.13.48-2.47-1.14-2.75.07.73.04.81-.71.7l.31-.65c-1.18-.29-1.49-.99-1.37-2.16l-1.07.56-2.27-2.2-3.01.43-.68-1.81-1.07-.15v-2.12c-.36.15-.62.29-1.03.17-1.89-.56-4.64-2.67-6.68-2.36l-.4-.63v.7c-2.12-1.98-2.51-.17-3-.05-1.14.27-3.16-1.01-4.24-.88-.42.05-.6.84-1.32.86-.59.01-2.15-.72-2.79-1.02-.75-.36-1.98-.75-3.02-.94-.52-.09-1.04.33-1.49.12-2.01-.93-.45-6.27,1.76-6.54l-1.06-1.4,1.9-.38.39.74c.11-1.22,1.3-.16,2.12-.44.16-.05,2.15-1.65,2.66-1.85.58-.24,2.56-.25,3.5-.72.71-.35,1.04-1.94,1.93-2.64.68-.53,1.87-.84,2.65-1.41l-1.05-1.4c1.29.02,1.91-.12,3.28.36.7-.43.91-1.47,1.29-1.96.52-.66,2-2.53,2.65-3,.37-.27.79-.36,1.24-.34-.64-1.96.06-1.13.51-1.76.31-.44.44-1.17.61-1.32.06-.06,1.01.28,1.35-.61l-1.05-.72c-.3-.97,1.31-1.71,1.73-2.51.36-.67-.09-1.5.69-2.1l-.63-.63c.2-.34.31-.69.32-1.08s-.28-.85-.25-1.09c.05-.34.76-.42.99-.75.36-.54-.08-2.86,1.02-3.62-1.73-.03-1.94-1.42-1.33-2.76l.98-.06v-2.25s-1.41-1.44-1.41-1.44l.71-1.59-1.06-.02c.46-.9-.72-2.6.7-2.46v-.34c-1.69-.29-1.03-1.43-1.15-1.71-.1-.26-1.92-3.53-2.39-4.35-.2-.35-1.72-2.55-1.84-2.65-.52-.4-1.5-.36-1.62-.51-.13-.16,0-1.52-.84-1.95l-3.21-.07-.64-2.09-2.22-.77-.52.7c-.23-1.43-.84-2.34-2.35-2.39-.57-.02-2.58,1.32-2.23-1.13l-1.36.05-.75,1.36c-.97-2.49-3.54-1.3-5.6-1.46-.31-2.45-2.03-.94-2.96-1.05-.7-.08-1.65-1.19-2.53-1.04-.29.05.13,1.41-1.45.03-.31-.27-.43-.9-.58-.98Z"/>
  <path class="cls-1" d="M367.89,2.53c1.41.91,2.54-.51,2.89.83h.52s.17-.71.17-.71c.59.12.82.86.97.96.1.07.47-.24.55-.18.68.53,1.19,2.3,1.6,2.99.11.18.6.24.72.45.28.48-.86.92,1.62.71-.48.53-.15,3.23.09,3.46s.85.2,1.1.45c.67.66,1.09,1.43,1.98,1.9l-.71.35.71.35c-1.08,1.15,0,3.05.39,4.49.2.75,1.07,2.57,1.32,3.35.21.67-.26,2.53-.11,3.32.13.66.71.53.83.88.09.25.73,4.97.72,5.24-.02.46-.55.74-.52,1.25.06,1,1.48.89,1.6,1.05.11.15-.34,3.07-.34,3.64,0,.61.6,1.31.55,1.8-.05.53-1.02.93-.21,2.06.24.33.69.21.7.24.12.22-.58.57-.64.93-.08.44.4.81.44,1.14.17,1.69-.42,1.82,1.57,2.66-.19,1.59-1.97,1.34-.99,3.08.22.39.74.43.9.78.31.68-.34,2.71-.2,3.15.1.3,1.12.17.34,1.99l1.07.18c.5,1.7-1.06,1.91-1.1,2.16-.11.66.73,2.29.69,3.14s-1.49,1.6.76,2.12l.17.85-.89.87,1.01.23c.71.69-1.19,3.39.39,3.64-2.37,1.59,1.33,5.37,1,6.34-.07.21-.66.05-.68.69-.05,1.15.79,4.04.89,5.68.08,1.31-.33,2.16-.11,3.29l1.38.03c-.05.38.09.85,0,1.18-.03.11-.85,1.38-1.06,1.45,1.26.98.08,3.29.39,4.18.17.48.77.46.92.65.36.45-.76,2.16.47,2.22-.2.64-.93,1.84-.59,2.49.52,1.01,1.7.43.22,2.96,2.73.38.75,3.3.88,3.88.1.47,1.61,2.11,2.29,1.77.13.88-.97,1.83-1,1.94-.3,1.19.32,5.2.86,6.35l-.57,3.68h1.06c.08.07-.75,1.47-.73,1.92.01.23,1,.04.74,1.08-.06.22-1.11,0-.7.87l.7.18c-.79.26-.66,1.91-.29,2.23.28.24,1.39-.16,1.67.62.49,1.37-.99,1.5-.99,1.71-.03,1.43,1.2,2.38,1.34,2.91.19.74-.71.99-.53,1.86.34,1.64,1.6,1.41,1.63,1.6-1,3.19,1.47,5.96-2.7,7.2l.21,1.07c-5.31.23-3.53-2.03-5.01-4.69-.34-.62-1.42-1.99-1.59-2.94-.27-1.45-.08-3.67-.7-5.32-.16-.42-.69-.38-.74-.61-.19-.92.87-5.3.62-7-.04-.29-.62-.19-.8-.65-1-2.54.02-5.72-.6-8.38l-.7.35c-.76-.88.35-2.17.34-2.29-.02-.3-.96-.37-1.06-.77-.33-1.33-.09-3.87.36-5.21l-.53-.42-.88.24.02-2.24-.73-.57c.75.48.7-1.78.62-2.2-.07-.38-.61-.74-.62-.8-.01-.39,1.44-.29,1.05-1.23l-1.4.35c-.64-1.79-.42-1.99,1.41-2.29l-1.07-.19c-.03-1.06,1.09-3.4.64-4.15-.12-.19-.96-.31-.98-.59-.02-.32,1.22-.96,0-1.94h.7s0-.71,0-.71l-1.02-.03-.2-4.56c-.16-.24-2.81-.39-3.19-.37-2.53.15-5.13.26-7.75.55-1.14.13-3.76-.64-3.36,1.24-1.55-.2-1.6-1.81-3.17-1.41l-.18,1.77c-.35-.8-.68-.98-1.58-1.08l.29-.63-1.18-.76c-1.67,3.23-3.9-2.85-5.28,1.4-.76-.4-1.05-.43-.89-1.4-2.21,1.52-2.01.44-3.43.08-2.17-.55-3.99.4-6.08-.08l.35,1.05c-1.46-.57-3.04-1.21-4.23.18l1.06.18-.4,1.35-1.72.05c.51.74-.22,1.15-.35,1.59-.04.14,1.86,1.04-.36,2.11l.71,1.05-1.05.88,1.41.17c-.43.69-.37,1.59-1.41,1.6l.7,1.04-1.05.54,1.01.69-.36,1.21-1.36.05c1.33,1.28.07,4.5.34,5.75.06.27.72.23.74.44l-.44,1.15-1.35.06c-.17.9.61,1.74,1.42,1.59-.21.55-.21,1.34-.47,1.82-.14.26-1.81,1.77-1.91,1.94-.07.12.42,1.18-.44,1.52l.35.36c1.29-.22,1.14.68.25,1.43-.12.1-.6-.17-.78.13-.64,1.07-.33,3.56-.7,4.61-.23.66-1.1,1.43-1.25,1.94-.03.12,1.19.06.7,2.04-.07.3-.61.29-.71.5-.32.68.33,1.06-.69,1.33l1.05,1.75c-1.58.67-.68,1.08-.88,1.63-.22.58-.73.89-.87,1.59-.16.86.27,2.2.7,2.95l-1.78.55c-.38,1.22.69,1.28.68,1.37-.06,1.31-.83,4.85-1.3,6.04-.03.08-.81,1.38-.87,1.44-.45.4-1.5.45-2.02.71-.25.13-.29.7-.8.93s-1.58-.13-1.87,0c-.56.26-.34,1.31-1.56.94.08-2.17-.84-3.96-2.1-5.6.2-.08.57-.11.68-.24.82-1,.46-3.32.92-4.03.82-1.27.25-.47.72-1.65.15-.38,1.24-.54.75-1.69-.12-.28-.93.06-.62-.87l1.06-.35-1.06-.17c.17-1.32,1.81-1.97,2-2.38.24-.53-.73-1.25.46-1.49-.85-1.02-.28-3.04.09-4.24.04-.12,1.07-.97.88-2.14-.08-.52-1.37-.26-.96-1.2.16-.01.5.01.56-.08.24-.42,2.15-5.15,2.19-5.48.21-1.88-1.51-2.19.74-3.48-1.04-2.27.03-2.12.35-3.46.16-.7-.57-1.59-.61-2.37-.07-1.26,1.18-4.01,1.36-5.38l-1.41-.35c.19-1.34,1.95-1.08,2.12-1.47.76-1.69-.24-1.49-.38-1.77-.81-1.66.27-1.44.54-1.85.07-.11.39-2.76-.52-2.14v-.34c.98-.05,2.44-2.84,1.95-3.54-.23-.34-1.02-.13-.89-.68l1.76-.72-1.06-2.46c.7-.02,1.26.28,1.06-.71l-1.05-.17c.58-.74.53-2.5,1.02-3.14.27-.35.92-.11,1.04-.25.19-.22,1.59-4.82,1.63-5.19.08-.84-.54-1.69-.43-2.3.06-.37.74-.71.62-.92-.04-.06-.99.08-.92-.89.08-1.19,1.55-1.47,1.64-1.83.26-1.02-.37-2.34-.02-3.41l-.69-.56,1.39-.39c-.64-.82.28-.58.36-.92.36-1.52.17-3.56.39-4.83.27-1.57,1.64-3.64,1.9-5.69.11-.89-.33-2.45-.12-3.11.19-.6,2.27-.75.32-1.44.62-1.64,1.93-2.1,2.47-3.9l-.71-.34c.79-.8.66-1.26.08-2.12,1.91-1.28.81-1.05,1.03-2.04.1-.46,1.64-1.65,1.85-2.71.23-1.17-.14-4.86-.05-5.11.1-.28,1.21-1.01.77-2.3l1.21-.4.06-1-1.41-.18c.68-.7,1.07-1.52,2.11-.88.58-1.23.19-2.67.35-3.64.04-.28,2.49-3.6,3.06-4.43.29-.42,1.64-2.03,1.81-2.38.44-.91.37-2.43.92-3.51.41-.81,1.94-1.04,2.43-1.51.35-.34.3-.9.59-1.24.92-1.07,3.03-2.32,4.24-2.46v-.89s1.91.31,1.91.31l1.08-1.71c.7.14,1.04,1.08,1.35,1.28ZM368.73,11.21c-1.28-.95-3.24-1.17-4.15.41-.47.81,0,1.25-.16,1.61-.27.66-1.64.83-2.07,1.38-.32.41-.25,2.27-.31,2.41-.06.13-1.6,1.46-1.96,2.06s-.61,1.96-.72,2.08c-.44.43-1.1.37-1.34.61-1.41,1.35-.99,3.22-1.17,4.62-.03.26-.54.18-.61.39-.12.35.09,1.07-.44,1.58l1.06.35c-1.03-.11-.21,1.44-1.76,1.42l.7,1.4-.7.35.7.35-.6.06c.4,1.42-1.23,1.16-.82,2.54l.71.39c-.64.5-.81,1.3-1.26,1.93-.19.27-.73.31-.8.41-.06.08.52,1.1.26,1.84-.17.5-1.61.65-1.21,2.34.24,1.01,1.39,1.31.2,2.45l.7.17c-.93.65-.98,3.29-1.18,3.63-.1.17-1.45,1.06-1.52,1.22-.21.44.38,1.82-.83,1.68v.34c1.97.29.4,1.99-.69,2.67l-.03.69c1.27.12.03,1.44-.41,2.41-.25.54-.19,1.18-.95,1.87l1.02.84-.7.7c1.07-.42.59,1.34.26,1.68-.31.31-1.23.04-1.32.79l1.06.18-.38,1.03.72.54-.65.04.28.64-1.39.38c.12.62.64.1.82,1.1.57,3.2-2.6,2.14-2.03,4.2l1.2.67c-.77-.14-.97.92-1.1,1.01-.26.17-1.25-.96-1.01.4,1.31.43,2.69.3,3.95.45.39.05.73.63,1.48.61.97-.03,3.58-1.03,4.66-1.06.78-.02,1.14.65,1.66.64s1.21-.68,1.78-.57c.54.1.76,1.03,1.46,1,.24-.01.14-.54.25-.6.23-.12.53.54.8-.47.7.68,1.04,1.38,2.11,1.44.91.05,3.04-.69,3.47-.65.59.05,4.63.58,4.92.54.45-.07,1.14-.81,1.99-.82.58,0,.97.65,1.59.57.25-.03.61-1.93,2.17-.76.2-1.36,1.75,0,1.56,1.09.97.26.44-.51,1.2-.78.55-.19,1.08,0,1.62.07.1-.13-.19-3.06-.32-3.29-.26-.46-.85-.13-1.07-.25-.34-.19,1.27-3.49,1.22-4.25-.06-.87-1.41-1.91-1.51-2.26-.11-.37,1.02-3.3.1-4.73-.16-.25-.67-.23-.82-.54-.39-.83,1.19-1.43,1.25-1.73-.1-1-.51-1.29-1.3-1.79l-.02-.7.7-.18v-.69s-.69-.17-.69-.17l.55-1.28-1.24-1.23c-.09-.31.74-1.97.62-2.79-.03-.18-1.1-1.79-1.22-3.16s-.12-2.77.23-4.05l-1.05.35c-.81-1.53.5-1.55.7-2.82h-1.41s.38-2.26.38-2.26l-.73-.38.71-1.24-1.06-.18c.86-.02.87-2.5.71-3.12-.07-.27-.72-.24-.7-.39.05-.39.67-.95.61-1.72-.1-1.2-1.95-2.03-.96-3.4l-1.05-.02c.28-2.3,1.51-4.35-1.03-5.66,1.26-1.91-.17-2.91-.67-4.43-.16-.49.04-1.13-.08-1.61-.05-.2-1.2-.51-.7-1.66l-1.05,1.05c-.15-.51-.81-1.73-1.17-2Z"/>
  <path class="cls-1" d="M231.38,8.28v1.41c.14.15.76-.38,1.01-.3.19.07,2.09,2.76,2.87,2.94-1.83.89-.5,2.66-.78,3.52-.06.19-.92.35-.91,1.11,0,.67.96,1.28.63,2.71-.07.31-2.13.89.71,1.82l-1.06.7c1.42,1.06,0,1.72-.04,3.16-.03,1.09.67,2.14.72,2.85,0,.12-.9.68-.92,2.1-.01.92.54,1.22.56,1.74.06,1.11-1.77,2.61.38,2.3l-.7.7h1.06c.07.87-.86,1.71-.96,1.95-.15.36.87,1.46.24,3.06-.18.45-1.86.72.36,1.85l-.35,1.58-1.06.19.41,1.89,1.36.05c-1.13,2.26-1.38,4.71-1.41,7.39l1.05-.35c.08.8-.44,1.36-.53,2.15-.22,1.82.53,3.01.27,5.09-.03.27.29.7.22.82-.36.64-1.6-.18.03,2.35l-1.03.69c1.52,1.17.5,2.13.49,3.18,0,.68.88,1.75-.13,2.84l.68.16c-1.49,1.65.28,3.73-.02,5.42-.15.81-1.24,2.83-1.25,3.56,0,1.64.99,4.53.9,6-.08,1.25-.96,3.88-.99,5.66-.01.87.59,1.85.52,2.43-.06.47-.73.81-.76,1.41-.02.3.82,1.54.2,2.28l1.42.18c-1.03.23-.38.64-.63,1.12-.39.72-1.03,1.39-1.28,1.91-1.33,2.81,1.46,5.91-1.27,8.42l1.41.35c-1.83-.29-.47.63-.85,1.06-.22.25-1.48.77-1.26,1.06l1.4.7-1.96,1.04c1.01,3.33-3.03,4.83-2.78,7.77h-1.24s-.31,2.6-.31,2.6l-1.11.22c.43.76.8,1.22.31,2.07l-1.92.38c.7,2.83-1.78,2.34-1.88,2.5-.38.66-.73,2.21-1.72,2.5l.28.64c-1.29-.43-2.79,1.54-2.11,2.47-.11.16-2.94,1.2-2.98,1.73l-1.21-.29c-.28,1.66-2.52,1.52-3.57.67l.2,1.08c-.94.3-1.33.49-1.79,1.38l-1.23-.7.35,1.05c-.74-.23-2.27-.32-2.12.7h-.34c.28-1.14-2.99-.92-3.62-.68-.32.12-.26.68-.47.69-2.5.12-5.94-1.46-8.43.33l-3.18-1.69-1.05.92c-1.28-1.32-1.47-.57-2.65-.78-1.43-.26-2.72-1.95-4.15-2.55-.84-.36-2.61-.45-2.8-.54-.5-.23-1.33-2.02-1.59-2.29-.66-.67-3.4-1.14-3.64-1.48-.4-.55.2-1.36.02-1.8s-1.05-.82-1.45-1.18c-.2-.18-.11-.55-.13-.56-.11-.06-1.01,1.05-2.11,0l1.41-1.75c-1.86.2-1.49-.87-1.86-1.29-.3-.34-.95-.41-1.16-.82-.29-.56.19-1.02.11-1.34-.1-.39-1.98-1.35-.98-2.34-.73-.6-1.35-.25-1.73-1.43l1.05-.53-1.06-3.51-.7.36-.05-1.71-1.36-.41c-.15-.92.02-.89.71-1.22-1.11-1.14-.15-1.89-.17-2.47-.01-.37-.38-.68-.38-1.03-.03-1.81.82-2.42-1.23-3.61-.15-1.32,1.02-1.57,1.02-1.67.03-1.33-1.12-3.06-1.2-4.04-.09-1.12,1.72-3.38.21-5.16-.41-.48-1.19-.33-1.07-.85.75.06,1.09-.73,1.06-1.41h-1.06s.71-2.11.71-2.11l-.98-.06c-1-2.25,1.2-3.23.98-5.23l-1.05.35c-.36-1.28.58-2.69.67-3.72.23-2.54-.89-3.72-.93-5.71-.03-1.56,1.2-3.69-.28-3.94l-.17-.54c1.33-.55.72-3.04-.35-3.51.69-1.04,1.48-4.8,1.27-5.94-.27-1.54-2.8-2.75-.94-3.06v-.69s-.59-.08-.59-.08c-.01-.95-1.33-2.37.95-2.4l-.21-.73c-1.63-.04-1.85-2.07-.14-1.74v-1.75s-1.41.35-1.41.35c.36-1.6.3-1.59,1.73-2.31l-.32-1.56-1.41.35c1.53-2.01.71-4.7,1.75-6.87l-1.4-.7c1.75-1.18.88-4.26.9-6.22.01-1.12,1.08-2.84-.57-3.66l1.09-1.42c-.3-1.14-.16-1.58-1.42-1.73-.04-.52,1.12-1.6,1.08-2.44,0-.2-.82.09-.62-1.42s1.14-1.75.94-3.18c-.11-.76-.73-1.83-.68-1.92.07-.11,2.6-1.38,0-1.45-.3-1.1.67-1.53.69-1.63.09-.41-.32-.92-.04-1.7.07-.2,1.38-2.82,1.51-2.92.21-.17.92.01,1.33-.24.7-.43.26-1.6,1.78-.88l-.35,1.76,1.05-.35-.31,1.02c1.39.49,1.07,1.89,2.78,2.34-.91,1.51-.85,3.63-.9,5.44,0,.35-.38.7-.36.88.13,1.18,1.97,4.35.18,4.94l.03.68,1.38,1.25c-.39.31-1.9.65-1.76,1.24l1.4,1.06c-1.47.98-.71,1.66-.54,2.81.12.81-.76,1.48.55,1.77l-.66.22-.04,2.06,1.4.17c-1.45,1.19-1.15,2.26-2.11,3.69l1.04.57-.68,2.96,1.41-.35c-.4,1.21,0,2.34-1.06,3.35,1.08.29-.01.75,1.06,1.04-.87.58-.34,1.86-.69,2.4-.15.24-.74.23-.74.45-.01.66.95,1.89.51,2.99l1.27.51c-.62.66-.65,1.48-1.76,1.24.5,1.93-.25,4.55.36,6.43.21.64,1.88.32.38,2.34,1.47.46,1.13,1.33-.37,1.61.07.67,1.34,2.05,1.38,2.17.15.51-.62,1.31.74,1.7-.83,1.82-2.17,1.59-.47,3.53l-1.3,2.63,1.06.18c-.16,1.17-1.38,1.49-1.41,2.09-.02.54.58,1.43.69,2.18.06.41-.36,1.07-.3,1.16.29.45,2.18.28.67,1.79l1.41.53-.62.23.27.65h-1.41c.74,1.65.97,3.72,1.09,5.62l1.03.02-1.41,1.61c.99,2.12-.18,4.75,1.71,6.31l-.65.88h1.06c.13,1.43-1.17,2.84-1.07,4.02.04.48.49.93.51,1.23.06.81-.36,3.96.75,4.22l1.21-.31c-.9,1.17.17,1.89.27,2.72.15,1.22-.24,2.9.41,4.09.25.46.94.13,1.08.23.1.07-.76,2.02-.63,2.41.04.12,1.68,1.39,2.02,1.49l-.69,1.74.71-.18.36,1.58c1.87-.47,2.42,2.21,2.95,3.56.53.07,3.21.68,3.39.87.49.5.14,1.27.55,1.61.61.5,3.4,1.55,4.31,1.09l1.47,2.4.86-1.03c1.2.83,2.15.85,3.54,1.38.7-.06-.22-1.36.7-1.05,1.03.35,1.2,1.72,2.86,1.73l.31-.62c2.77.31,4.6-1.5,7.01-1.59.42-.02.85-.26,1.3-.23l-.35-.69c.44-.02.84-.32,1.26-.37.83-.09.47,1.12,1.32,1.03.94-.1,1.92-1.59,2.43-1.83,1.36-.62,4.67-.47,2.73-2.71.87-.63,2.67-.9,3.37-1.4.92-.65,1.73-3.58,2.61-4.77.37-.5,1.82-1.57,2.23-2.38.66-1.33-.09-.56-.45-1.31l1.05-.53-1.05-.88c.86.09,1.53-.44,1.74-1.26s-.8-.19-.68-.85l1.4-.72-.66-.87c2.21-1.27.9-4.98,3.12-5.82v-.34c-1.97-.75-.4-1.45-.4-1.57,0-1.82.81-2.32.79-3.56,0-.08-.38-.83-.53-1.3-.24-.79-1.36-2.08.14-2.03l-.71-.88,1.07-1.41-.7-.52c.84.29,1.3-2.53,1.33-3.08.08-1.39-1.38-2.31.43-2.57l-.23-.73-.83-.51.68-1.71-1.39-.93.71-.52-.71-.35.6-.23c-.35-1.11.48-1.15.67-1.48.93-1.63-.02-1.14-.14-1.45-.06-.14.16-.56-.05-.99-.12-.23-.73-.22-.74-.45-.01-.36.45-1.63.56-2.27.08-.46-.17-1.19-.11-1.33,1.07-2.24.39-2.25.38-4.47,0-.63,1-.94-.12-1.93.97.56.79-2.94.69-3.3-.03-.09-1.3-1.34-1.31-1.46-.18-1.51.64-2.33,1.34-3.52l-.7-.68c.91-2.13.55-5.13.38-7.44-.05-.66-1.74-.73.31-2.62l-1.76.35.38-1.73,1.38-.03c.31-1.16-1.38-1.49-1.41-2.27-.03-.73,2.13-2.48.36-2.67l1.05-1.4c-1.33-.05-1.44-.64-1.77-1.76l1.41-.37v-1.75s-1.06-.18-1.06-.18l.69-2.47-1.04-.69c.78-.24,1.53-1.7,1.44-2.44-.03-.26-.97-.02-.73-1.08.03-.15.9-.2.97-1.11.08-1.13-1.25-1.36-1.54-2.41l1.98-5.29-1.02-.19c-.15-1.03-.2-2.02,1.02-2.1l-.04-.67-.68-.21c.9-1.15.11-2.01.16-2.45.15-1.46,1.32-3.05.21-4.05,1.27-.08,1.62-1.61.35-1.94l.88-.79c.7.39,1.14.64,1.9.21l.04-1.37h1.41Z"/>
  <path class="cls-1" d="M129.79,9.08c.1.05,1.41,1.43,1.58,1.52,1.76.93,1.54-.01,1.84-.14.58-.25,4.3,1.4,4.94,2.04l.18-1.76c.58-.15.19.5.51.63.1.04,1.12-.1,1.25.07.13.19-.71,1.02.17,1.4l1.23-1.04c-.04,1.16,1.38,1.19,1.6,1.38.41.37,3.28,3.48,3.34,3.72l-.71.35c1.01-.18,1.03,3.37.74,3.53-.71.36-1.56,0-2.28.22-.36.11-2.34,3.13-2.34-.05-.78-.06-1.14-.14-1.06.7l-.7-.7-.06.62c-.18.21-2.71-.96-3.1-1.18-.28-.16-.27-.79-.59-.84-1.71-.27-3.36-.81-4.61-1-.8-.12-3.11.76-3.29-.75l-1.56.53c-.84-.56-1.62-1.5-2.77-1.27-.29.06-.04.69-.74.73-.41.02-2.01-.02-2.39-.07-.46-.07-1.05-.64-1.16-.63-.16.01-1.59,2.49-2.1.68h-.7c-1.15,2.48-2.6.52-3.38.52s-2.98,2.35-4.55,1.61l.35,1.05c-1.33-.09-2.68,0-3.77.82-.28.21-.33.87-.81,1.12-.63.33-1.65.11-2.28.55s-.45,1.21-.6,1.33c-.23.19-1.02-.04-1.48.11s-.5.78-.69.89c-1.3.71-1.85.02-1.98,2.06l-1.44.16.36.7c-1.37.08-2.98-.09-3.66,1.4-.59,1.3.39,1.8-2.28,2.53l.3,1.7-2.08.02c-.01,1.94-1.9,1.58-2.63,2.44-.31.37-.59,2.54-1,3.11l-1.33.07c-.1.16.31,1.99.24,2.41-.02.13-1.28,1.89-1.41,2.04-.52.6-2.19,1.46-2.53,2.26-.2.47-.03,2.44-.55,3.27-.69,1.09-1.87,1.11-2.05,1.33-.1.12.76,2.59-1.09,2.08l.55,1.43c-.11.62-.72.59-.86.92-.21.52-.03,2.34-.11,2.69-.12.51-1.57,2.25-1.79,2.81-.67,1.74-.18,3.92-.45,5.59-.1.63-.84.52-1,1.39-.19,1.06-.26,2.66.49,3.27l-1.32,3.91,1.65,1.05-1.76,2.99,1.41-.35c.29.35-.86,2.02-.89,2.65-.19,3.14,1.23,8,1.21,11.29l-.67.32c1.26.66,1.01,3.01,1.22,3.33.25.38,1.24.57,1.3,1.39l1-.32c.05,1.2-.64,1.91-1.05,2.64.2.42,1.16.52,1.35,1.13.43,1.38-.56,4.76,1.82,4.7l-.26,1.23c1.7.8,1.44.85,1.48,2.63h1.24c-.6,1.44.66,3.17,2.12,3.17l-.36,1.05c1.91-.13,1.11,1.06,1.52,2.03.11.28,1.86,1,.96,2.2.79-.65,2.62.44,3.02,1.06.37.59-.26,1.34-.2,1.4.07.07,1.51.11,2.01.46.77.54.44,1.55.5,1.62.22.23,2.08-.03,2.35.8.09.27-.42.87-.28,1,.07.06.56-.11.76.03.31.22.38.68.53.69.49.05,1.12-.5,1.47-.32.49.25,1.28,2.07,1.63,2.43.61.62,2.61,1.54,2.84.34.79,2.06,3.51,1.18,3.99,1.47.15.09,1.44,2.64,1.48-.06.67.22,1.59.58,1.98,1.2.21.33.1.89.13.92.05.06.6-.33.9-.3.46.05.74.42,1.05.45,2.31.25,5.13-.13,7.04-.05.4.02.66.97,1.35.91.39-.03,1.5-.79,2.22-1s1.39.04,1.68-.03c.26-.06.17-.58.39-.61.55-.09,1.85.22,2.3.63l.02-1.05,3.82-.06c.21-1.13,1.57-1.59,1.46-.3h.34c.83-1.84,4.01-1.66,5.95-2.68,1.37-.72,1.48-2.25,3.21-1.18-.32-1.53.91-1.02,1.74-1.61.57-.41.95-1.73,1.15-1.84.74-.4,1.94.54,2.22-.78l2.49,1.02c-.32,1.19.84,1.92.86,2.04.18.8-.17,1.72.06,2.52l1.36.58-.92,1.22-1.54-.68c-.01.94-1.25,1.16-1.95,1.76-.29.25-.35.72-.64.96-.42.35-1.22-.44-.96,1.47l-4.28,1.12c-.69.35-3.45,2.68-3.67,2.75-.79.26-2.61-.46-3.06-.3-.33.12-.35.71-.83.99-.13.08-2.76.93-2.92.96-.52.08-.8-.55-.89-.55-.27.01-.4.87-.59.98-.41.23-1.01-.04-1.45.08-.31.08-.26.72-.4.7-.26-.03-.75-.5-1.23-.54-.41-.04-.7.41-.9.4-.58-.04-1.33-.69-2.14-.44l-.52,1.3-2.97-1.08-.35.67c-.91-.66-2.13.37-2.85.28-.46-.06-1-1.3-1.92-.93v1.06s-1.06-.36-1.06-.36l-.35,1.06c.16-1.06-.61-.33-1.16-.68-.5-.32-1.31-1.55-2.2-1.78l-.37.73c-1.1.21-2.4-1.21-2.9-1.41-1.1-.44-1.76.44-2.37-1.07l-.82.03-.74,1.01c-.18-1.26-1.52-.67-.71-2.11-1.05.78-2.38-.98-2.64-.98-.23,0-.78.89-1.22.59-.07-.04.05-.5-.19-.6-.15-.07-.8.23-1.17-.14-.72-.73.14-2.12-2.19-.64l-1.78-2.82-1.75.7c-.04-.41-.05-.98-.25-1.33-1.27-2.26-3.66-2-5.11-3.89l-.63.28c-.27-.7-.39-2.36-.88-2.83-.46-.43-1.14-.2-1.5-.44-.22-.15-.31-.67-.66-.9-.53-.34-1.48-.52-1.81-.85-1.46-1.47-1.74-5.21-3.25-7.06-.45-.55-1.16-.54-1.79-.6.94-1.49-.09-1.64-.51-2.49s.31-1.67-1.24-1.39c-.15-.58.48-.24.6-.41.71-1.02-1.47-2.17-.99-3.08l-1.02-.03c.64-1.18-.42-1.32-.63-2.01-.29-.95.1-2.19-.22-3.31-.24-.83-1.09-.77-1.22-1.25-.12-.43.08-3.14-.04-3.76-.03-.14-1.34-1.19-1.6-2.18-.06-.23.19-.82.12-1.32-.11-.82-1.05-.97.06-2.02l-1.41-.36c-.15-.59.57-.18.66-.51.03-.09-.34-1.23-.28-1.74s.83-2.35.62-2.84c-.12-.29-.71-.32-.94-.76-.21-.4-.82-2.73-.79-3.13.09-.98,1.42-.55,1.07-1.75l-1.76-.88c1.22.11.64-1.1.83-1.34.09-.12.54-.03.57-.07.07-.11-1.02-1.5-.33-2.44l1.39-.02c-1.19-.99.45-2.27-1.06-2.64,1.16-.35.69-1.62,1.41-2.48l-.71-.33c.84-1.96,1.71-5.1.35-6.87l1.79-.94-.74-1.72.71-.38c-.77-1.91.74-2.86,1.75-4.2-1.04-.42-1.74-1.54-.4-.93.93-.95.88-2.97,2.17-3.12l-1.06-.35.38-1.22-.73-.37c.34-.94,1.69-1.02,2.04-1.29.11-.09.31-2.25.61-2.75.23-.38.99-.4,1.17-.94.2-.59.01-1.5.2-2.26.06-.25.9-2.28.99-2.38.28-.29,1.37-.33,1.68-.94l-.7-.33c.29-1.6,1.2-1.31,1.73-1.81.46-.45,2.37-2.18,2.52-2.41.82-1.22.3-3.83,2.45-3.73l-.29-.63c1.54-.39.96-2.21,2.76-1.11-.09-2.02,1.16-1.69,1.6-2.09.78-.71,2.68-2.54,1.93-3.54,2.97.6,2.32-.76,3.25-1.68.7-.68.53.2,1.21-1.13.34-.66,1-.66.47-1.77,3.89.79,1.65-.91,1.76-1.05,2.03-.78,3.87-.15,5.24-1.98.28-.37.36-1.15.41-1.19.05-.03.67.38,1.13.28,1.45-.3,4.63-1.19,6.11-1.62.61-.18.67-1.16,2.26-.42v-1.41s1.76.36,1.76.36v-1.76c1.67.07,1.98,1.6,3.88,1.06v-1.41c.82-.01.98.7,1.92.72,1.43.04,3.02-1.37,4.58-.35l.36-.73c.57.99,5.55,1.04,5.82.7l-.35-.7,1.68-.26Z"/>
</svg>