<?xml version="1.0" encoding="UTF-8"?><svg id="Layer_2" xmlns="http://www.w3.org/2000/svg" viewBox="0 0 289.48 107.99"><defs><style>.cls-1{fill:#fff;}</style></defs><g id="cuban_sandwich"><path d="M91.77,51.26c.67.92.26,1.44.52,2.23.11.33.6.32.71.64.16.45-.21.94-.17,1.39l.38-.1c-.35.76.14,1.39.17,1.89.04.91-.58,2.59.6,2.96-.8.92-.36,1.32-.2,2.18.13.7-.35,1.39.58,1.24-.14.19,0,.51-.04.63-.08.21-1.52,1.15.05.69v1.71s.77-.19.77-.19v2.09s.38-.19.38-.19l-.19,1.33.59.12c.13,1.15-.38,1.19.2,2.38.49,1,.66,2.68.73,3.85,0,.15-.22.46-.17.48l.58.1-.03.65-.55.02.18.56-.37.2c.46-.04.59,1.19.82,1.75.12.29.43.47.49.67.12.39-.41.9-.02,1.9l1.1,1.76.66-.5c-.64-2.01.27-3.97.03-6.02l.7-.59-.31-.77.56-.28-.57-.38.77-.67-.4-.37c.07-.62.28-1.15.79-1.53-.88-.26-.03-1.19.1-1.8.24-1.16.23-2.88.48-4.05.03-.12,1.1-1.75,1.22-2.03.21-.51.39-2.42,1.2-2.62.13-.03.36.11.52.08.22-.06.39-.29.63-.32.54-.07,2.22.94,2.22,1.69l.34-.15.79,2.83.36-.18c.48.85.22,1.72.4,2.65l.57-.38c.47.88-.83,1.88.77,1.71-.43.69.14.98.16,1.04.07.22-.34.72-.34.95,0,.49.84,2.29,1.02,2.93.1.36.44,1.21.45,1.28.1.64-.64,1.02.74,1.39-.19,1.01.3,1.72.65,2.58l1.16-.29c-.26-1.28-.78-2.43,0-3.6l-.74-.22c-.37-.58.36-1.29.36-1.59,0-.15-.29-.06-.35-.19-.13-.31.36-1.85.54-2.28l-.58-.38.57-.57c-.29-.38-.67-.93-.68-1.41,0-.34.54-1.62.58-2.01.08-.67-.22-1.69-.23-2.09,0-.28.42-.51.32-.85h-.58s.38-1.52.38-1.52l-.58-.1c.48-.26,1.15-1.74.38-1.9.86-.79-.52-1.19.39-2h-.58s.59-1.4.59-1.4c-.67-.36-.97-.94-.4-1.55l-.57-.19c-.13-.9.92-1.6.96-1.74.22-.9-.4-.85-.38-.91.04-.13,1.11-2.3,1.23-2.5.31-.51,1.33-.65,1.08-1.59h.57s0,.76,0,.76l.96-.57c-.19.68.54,1.26.58,1.62.07.6-.35,1.83-.36,2.26-.02.68.59,1.42-.03,2.01h.58s-.76,3.03-.76,3.03h.56s-.58,1.05-.58,1.05l.55.12c.51.73-.35,1.36-.36,1.44-.03.16.13.4.1.53-.12.53-.45.98-.29,1.62.12.11.91-.25.77.29-1,1.04-.46,1.02-.48,1.98-.01.51-.7,1.28.48,1.44l-.58,1.71c.73.25.52,1.3-.19,1.51.99.88,0,1.24,0,1.32.04.43.79,1.06.38,1.62h.58c-.33,1.1-1.19.93-.77,2.28l.77.1c-.5.15-.21.21-.38.57l-.59.1v2.35s.77.31.77.31l-.73.85.15,1.61.38-.19-.17.74.36.11c-.68.21-.29,1.22-.51,1.76-.3.71-.3-.18-.29,1.28,0,.29-.22.64-.17.92.03.16,1.22.5.02.89l.58.19c-.37.35-.16,1-.23,1.22-.09.26-1.37.63.04.68-.19.4-.03.92-.4,1.23-.12.1-.41.04-.58.23-.19.22-.24.87-.55,1.11-.41-.25-1.77-.07-1.99-.15-.07-.03-1.11-.83-1.15-.88s-.53-1.14-.6-1.32c-.06-.15.11-.44.05-.64-.12-.4-.89-.81-.73-1.47l-.57.19-.15-.68.53-.36c-.46-.55-.69-1.35-1.03-1.93-.1-.17-.58-.39-.68-.6-.17-.38-.36-1.83-.44-1.91-.11-.11-.94.04-.73-1.05.02-.11.6-.04.21-.98s-.78-1.67-1.07-2.57c-.16-.5-.22-1.03-.38-1.53h-.67c-.33-.73.59-1.16.58-1.23-.02-.3-.49-.55-.2-1.04h-.55c-.06-.53-.1-1.56-.3-2-.22-.48-.88-.66-.68-1.42-.32.17-.61,1-.69,1.33-.17.8-.23.95-.42,1.66-.3,1.08-.08,1.55-.14,2.35-.06.88-.64.88-.67.93-.07.11.32.41.31.65,0,.17-.55,1.26-.7,1.53l.38.09-.39.31c.3.51-.33,1.41-.33,1.5,0,.15.44.29.46.75.04.94-.76,2.06-.81,2.85-.08,1.21-.28,1.65-.41,2.7-.05.4.2,1.65.1,2.02-.12.45-1.18,1.7-1.27,1.89-.07.15.16.42.07.53-.1.14-.48.16-.67.3-.15.11-.17.41-.34.45-.38.1-.85-.04-1.21-.2v.57c-1.01-.02-1.16-.82-1.8-1.26-.26-.18-.83-.16-.99-.44-.19-.32-.02-.71-.09-1.01-.05-.22-1.17-.42-.24-1.37-.7-.48-.5-1.26-.74-1.84-.07-.18-.32-.18-.36-.28-.38-.81-.31-1.16-.21-2.02l-.75-.31.18-.68-.36-.16c.59-.86-1.03-2.72-1.12-3.27-.07-.45.42-.83.45-1.12.02-.21-.4-1.01-.4-1.32,0-.22.25-.84.22-1.31-.03-.38-.42-1.11-.33-1.63h-.76s0-1.72,0-1.72c1.09.1.35-.37.18-.94l-.56.18c-.39-.59.19-1.15.15-1.59-.03-.31-.41-.54-.49-.84-.24-.85-.26-2.78-.73-3.46-.11-.15-.38-.15-.43-.22-.06-.07.37-.94.36-1.19,0-.09-.76-.98-.76-1.53,0-.62.81-.94-.39-1.52l.57-.48-.38-.19c.4-.78.37-.99-.02-1.8l.4-.19c-.3-.72-.87-.22-.91-1.19-.04-.85.74-1.16.32-1.95l-.57.11c-.6-.52.11-1.27.12-1.54,0-.19-.31-.52-.32-.94,0-.53.37-1.27.21-1.9l-.59-.2,1.53-1.24-.38-.75c.54-.39,2.25,1.35,2.58,1.81Z"/><path d="M127.64,1.54c.05.06,1.16.43,1.32.72.04.32-.28.55-.33.78-.1.52-.22,1.88-.39,2.29-.05.11-.69.78-.83.9.18.57.97.95.72,1.52-.06.13-.49.29-.61.68-.08.27.06.52,0,.75-.13.44-.62.84-.49,1.39.03.13.3.12.33.17.06.11-.33.41.25.34v.19c-.72.07-.59.84-.77,1.33h.56c.07.08-.19,1.62-.24,1.94-.11.75-.37.96-.09,1.96.02.06.94.58-.05.95v.48s.39-.19.39-.19c.32.74-.49.85-.52,1.03-.1.54.53,1.6.52,1.92,0,.39-.5.54-.52.75,0,.08.41.49.13.86.47-.36.36.35.96.19.07.05-.54,1.36-.57,1.63-.09.69.29.97.3,1.31.01.31-.33.68-.3,1.13.01.17.47,1.4.58,1.67.12.3.84.35-.01,1.28l.38.19-.39.12c-.25.94.56.98.6,1.15.29,1.44-.97,3.74.18,5.29l-.37.36c.68.53-.11.63-.27,1.29-.19.78.31,2.34-.33,3.1l.58.56-1.92,1.81.38.56c-.41.34-1.15-.21-1.24-.19-.22.05-.18.8-.77.57-.48-.19-.08-.71-.11-.75-.03-.04-.45-.08-.63-.2-.23-.15.04-.62-.7-.2.25-.75-.35-1.01-.51-1.45-.45-1.19-.78-2.7-1.06-3.72-.06-.23-.33-.44-.37-.71l-.55.18c-.07-.54.29-1.09.2-1.61-.08-.47-.54-.41-.65-.71-.22-.61.6-1.07-.62-1.27l-.1-1.31-.54-.14-.04-1.57-.73-.31.57-.57c-.5-.38-.53-.98-.77-1.49-.06-.13-.39-.11-.39-.24,0-.24.28-.51.17-.9-.08-.28-.5-.45-.64-.72-.77-1.45-1.1-1.56-1.07-3.11,0-.18-1.49-2.27-1.67-2.89-.1-.34.04-1.08-.22-1.7-.18-.43-.92-.73-.41-1.59l-.96-.28.36-.77-.53-.3-.12-1.3-1.02.46.15,2.66c-.4.73.17,1.63-.39,2.1l.58.19c-.28.92-.17,1.87-.59,2.66l.38.1c-.37.7-.43,2.5-.36,3.3.08.86.98,1.45-.01,2.29l.57.09c-.1.83.09,1.75-.38,2.47l.58.09-.76,1.33.54.36-.15.55-.59.22.4.2c-.51.76.15,1.61.15,2.26,0,.5-.34,1.02-.23,1.6.09.45.45.42.46.52.04.44-.36.65-.47,1.01-.26.84.2.72.31,1.05.23.74-.26,1.98-.42,2.69-.13.57.49,1.06-.74,1.43l.16.35c-.99.09-1.86-.82-2.69,0-.26-.42,0-.92-.09-1.34-.35-1.77-.82-1.21-.35-3.18.11-.46-.17-.85.44-1.37-1.99-.17.77-2.97-.58-3.7.38-.4.46-1.01.4-1.53-.04-.37-.41-.27-.41-.37,0-.26.31-.56.37-.95.09-.66.17-6.3.02-6.6-.07-.15-.32-.16-.33-.18-.07-.2.45-.48-.22-.62.18-.25.13-.64.28-.87.17-.24.64-.05.47-.57l-.57-.1c-.09-.35.31-.58.31-.76,0-.17-.28-1.21-.27-1.29.05-.33.75-2.18.75-2.31,0-.09-.31-.01-.41-.39-.2-.75-.18-2.97-.29-3.99-.05-.41.46-.46.49-.61.11-.5-.15-.89-.18-1.31-.04-.62.54-.68-.37-1.11-.07-.58,1.16-.97.18-1.33.11-1.31.78-3.15.73-4.39-.02-.38-.36-.62-.35-1.11.01-.76.58-3.17,1.47-3.31.36-.06,1.48.77,1.58,1.05.32.9.82,2.16,1.77,2.69.05.03.64-.33.91.36.37.94-.29,2.44.79,2.32.19.35-.43.87-.38.95.01.02.26-.05.38.14.04.06.55,1.09.57,1.16.15.48.15,1.06.21,1.56h.76c-.01.27-.21,1.68-.19,1.77.08.3.65,2.42.71,2.55.13.29.48.34.62.58.33.59.83,1.69.59,2.31l.38-.19c.55.43-1,1.92.77,1.33.38.57-.53,1.1-.38,1.33.01.02.26-.03.38.14.45.64.89,1.36.58,2.14l.77.1-.36.92.86.69-.11.57.57-.19c-.09.92-.23,1.53.14,2.43.1.23.41.21.44.36.08.39-.09.9,0,1.26.04.18,1.57.85.77,1.84h.96c-1.09,1.05.39,1.9.39,2.02.02.35-.46.82.18,1.02l.53-.85c-.62-.85.11-2.7-.72-3.23l.38-.66c-1.55-.41.61-1.79-.77-2.19l.57-.57-.72-.98c.64-.72-.09-1.92,0-2.41.03-.18.38-.39.33-.6-.04-.18-.51-.24-.55-.31-.04-.07.15-1.36.13-1.6-.05-.68-.09-1.38-.14-2.09-.03-.36-.4-.26-.42-.39-.05-.41.34-.7.36-.96.03-.36-.8-2.22.03-2.82l-.39-.18c.88-1.28-.55-2.92.58-4l-.39-.36c.91-1.5.61-3.03.88-4.56.17-.95.8-2.47.86-3.45.02-.33-.15-.55-.39-.74.12-.15.25-.26.43-.33.38-.15,1.68-.26,1.97-.37.15-.06,0-.35.19-.34.61-.01.36.71.52.91ZM112.23,14.69l.37-1.22-.75-.49c-.12.5-.07,1.04.06,1.53.07.29.01.51.32.18Z"/><path d="M56.22,3.24c.74.56,2.59-.02,3.44-.2.44-.09.65.3.82-.32,1.89,1.03,3.96.57,5.69,1.97.82.66,1.14.77,2.32,1.28.15.06.16.31.18.32.13.05.44-.22.54-.15.04.02.1.62.23.82.29.45.68.7,1.06.76.91.16.1.62.1.8,0,.14.36.3.43.48.18.48.18,1.02.5,1.5l.56-.18-.02.74-.55.02.39,1.71h.77c.07.05-.49,1.42-.5,1.61,0,.32.32.68.3,1.12-.06,1.23-.96,3.52-1.8,4.41-.08.08-.35.03-.44.12-.08.08-1.02,1.81-1,1.92l.46.5.38-.38c.5.32,1.09.84,1.57,1.12.45.27,1.2-.06.83.97l.58-.11c.07.8.54.58.77.81s.29.83.43.96c.13.12.5.07.63.23.19.23-.09.58-.05.84.06.45.69.73.71.83.09.45-.14.91-.07,1.36.06.4.53.45.6,1.12.04.39-.14.92-.12.97.01.04.45.01.5.54.07.77-.72,1.48.61,1.58.05.3-.32.11-.45.41-.24.55.04,1.11-.13,1.67h.57c.3.91-.61,1.15-.82,1.57-.27.56-.03,1.7-.62,2.22-.23.2-.56.2-.74.39-.06.06-.19.87-.67,1.25-.38.3-1.07.37-1.27.66-.13.19.13.68-.18.95-.26.23-.64.15-.86.3-.59.38-.83.91-1.74.84l.19.38c-1.01-.37-1.63.53-2.28.66-.27.05-2.42.16-2.52.3l.16.35c-.66.6-.87.08-1.37.08-1.13,0-2.41.79-3.69-.06l-.19.39c-.71-.18-.51-.68-.54-.72-.16-.16-.48-.24-.72-.51-.45-.51-.78-1.12-1.25-1.62l-1.23.38c-.21.43,1.02.68.58,1.14-.08.08-1.74-.65-2.07-.73-.58-.13-1.78.38-.43-.79-.65.07-.3-.57-.38-1.01-.03-.15-.46-.17-.49-.5-.04-.38.62-.7.11-1.6-.08-.13-.38-.11-.37-.21.03-.41.43-.91.37-1.51-.06-.53-.83-2.45-.78-3.04,0-.1.33-.08.39-.25.18-.54,0-1.44.38-2.03l-.94-.58c.86-.53.33-.87.36-1.52.02-.37.5-1.21.4-1.68-.03-.14-.36-.11-.39-.25-.09-.41.28-.78.12-1.76-.19-1.19-.22-2.9-.02-4.29.03-.2.55-1.56.48-1.61h-.58s.38-1.8.38-1.8l-.57-.1c.22-.73-.09-3.11.29-3.61.1-.13.31-.19.48-.2l-.96-.57c-.01-.41.69-.72.73-.85.03-.08-.11-1.37-.11-1.7,0-.25.18-.56.16-.74-.03-.21-.75-.05-.58-1.16.16-1.04.08-.66.01-1.71s.54-.98.7-1.36c.21-.51-.22-2.51.37-3.44.18-.29,1.24-1.01,1.52-.97.17.02.22.4.34.49ZM61.12,6.36c-.38-.21-1.8.14-1.94.12s-.29-.28-.57-.3c-.3-.01-.8.22-1.16.18l-.31.27c-.11.36.33.84.33,1.15,0,.73-.24,1.72-.14,2.81.12,1.27.04.68-.1,1.79-.06.48.23,1.06-.09,1.63.97.41.06.75.54,1.54-.78.22.03,2.12.04,2.44.04.94-.48,1.21-.56,1.76-.04.25.12.49.11.72,0,.26-.19.56-.17.73.02.13.78.33.6.88h1.14s-.19-.56-.19-.56c.27-.21,1.82.27,2.18.17.13-.04.09-.31.41-.38.77-.17,1.63-.3,2.41-.17l-.19-.38,1.62.19c.36-.61,1.02-.36,1.06-1.24l.79-.09s-.23-.38-.17-.62c.09-.34,1-1.37,1.13-1.61.28-.53-.07-1.18.77-1.47-.57-.81.04-2.7-.02-3.62-.01-.22-.23-.38-.29-.6-.04-.13.1-.32.06-.39-.04-.08-.77-.55-.91-.74-.43-.6-.18-.35-.7-.87-.7-.69-.75-1.08-2-.99v-.47c-.84-.12-2.43-.73-3.14-1.18-.36-.23-.47-.66-.54-.7ZM57.32,23.42c.48-.2.89-.36.76-.95-.28.1-.94.73-.76.95ZM60.58,26.08c-.48.1-.65-.54-.95-.65-.15-.06-1.21-.07-1.55-.22-.62.29-.32,2.08-.48,2.68-.23.88-.2.82-.32,1.66-.04.26-.36.53-.36.79,0,.13.35.16.48.3.49.55-.01.64-.02.87-.01.75-.21,1.95-.16,2.45.03.33.34.63.32,1.14-.02.36-.41.26-.41.39,0,.33.19,1.02.58.74l.19.19c-.25.42-.03.8-.57.95l.39.09c.15.68-.37,3.15.05,3.56.07.07.87.26.91.24.07-.05.35-1.39,1.23-1.13.29.09.45,1.05,1.27.75l-.38.76c.65.36,1.26-.15,1.67-.15.67,0,2.41.77,3.03-.42.3.26.48.35.87.3.18-.02,2.33-.88,2.48-.98.25-.16.3-.6.59-.75.17-.09.49.08.58,0,.3-.23.1-1.12,1.14-.86l-.17-.74.86-.59-.21-.57c.61-.67,1.94-2.76,1.39-3.56-.7-1.02-.32-.95-.55-2.22-.15-.83-.82-1.9-1.08-2.72-.16-.5.39-.77-.56-1.53-.58-.47-.99-.22-1.29-.42-.22-.15-.27-.52-.44-.56-1.52-.38-3.84.18-5.35-.17l-.2.37-.93-.21-.2.39-1.83-.76v.57Z"/><path d="M159.03,50.84c.15.19.13.52.43.82.45.45,1.44.06.76,1.66l.37.2c-.37.73.08,1.38.23,2.09l-.41.2c.02.41.68.51,0,.95l.57.1c.08.3-.26.13-.31.23-.06.11-.29,1.07-.27,1.18.01.07.57.22.39,1.12-.03.14-.33.12-.37.27-.24.93-.75,3.67-.31,4.43h.68c0,.67-.55,1.08-.7,1.63-.15.53.22,1.21-.04,1.75,1.05.82,1.03.05,1.4,0,.92-.11.52.49.97.4.2-.73.8-.26,1.36-.29.92-.06,2.59.03,3.45-.26.31-.1.57-.58,1.16-.57l.18.37.22-.39h1.79c.09-.07-.36-1.21-.36-1.43,0-.09.29-.08.35-.23.05-.13.13-2.58.11-2.72-.06-.37-.43-.68-.45-.88-.03-.22.28-.41.28-.56.06-1.29-.39-2.41-.32-3.37l-.37-.19.95-1.9-.74-1.16c.59-.28.54-1.48.63-1.61.13-.18.47-.22.57-.38.09-.15-.16-.45.09-.67.19-.17,2.26-.49,2.51-.28-.36.7.17,1.07.28,1.68.2,1.07-.05,1.95,0,2.79.03.47.51,1.28.49,1.9-.01.51-.44,1.19-.58,1.7l.76.09c.02.98-1.24,1.17-.03,1.81l-.55,1.32c.18.46.72-.04.77.19.23,1.06-.49,1.95-.41,2.86.03.36.41.27.4.36-.04.33-.44.73-.4,1.35.02.35.34.26.38.37.07.22-.45,1.24-.55,1.52l.58.1c.07.14-.13,1.13-.21,1.37-.05.14-.28.15-.34.3-.45,1.12.21,1.14.31,1.68.06.34-.43.54.25.74-.51.83-.3,1.49-.4,2.24-.11.93-.54,1.46.05,2.56l.53.03c-.35.5-.09,1.11-.19,1.59-.04.2-.59,0-.39.5l.76.28-.38,1.05h.58c.06.45-.58.96-.55,1.2.02.18.28.41.31.65.05.36-.14.93-.11,1.1.02.11.28.06.31.18.09.37-.34,1.05-.33,1.33,0,.36.39.67.39,1.14,0,.44-.58,1.5-.4,2.18l.57-.19c.21.52-.27.96-.32,1.27-.04.26.1.56.01.98-.14.68-.59,1.25-.47,2.12-1.1-.21-2.88-.37-3.33-1.52-.17-.44.26-1.22-.7-1.33l.38-.19-.38-.28c.72-1.08.31-2.32.75-3.44-.16.04-.65-1.2-.66-1.31-.05-.34.36-1.56.3-1.62h-.58c.49-1.39.16-2.82-.07-4.24-.03-.19-.29-.39-.32-.62-.04-.41.33-.59.36-.78.04-.23-.31-.42-.34-.71-.05-.63,1-1.85-.21-2.01l.38-.28c.13-.42-.39-.24-.38-.37.02-.43.55-.75.56-.81.27-1.05-.38-1.04-.39-1.1,0-.33.53-.77.41-1.29-.04-.16-.37-.18-.47-.33-.38-.57-.23-.99-1.19-.91-.5.04-.73.03-.93.52l-1.18-.31c-.37.94-.88.24-1.38.46-.33.14-.38.58-.57.63-.59.16-1.45-.13-2.04-.12-.4,0-.86.19-1.27.21-.24.01-.39-.23-.74-.16-.23.04-.92.63-1.01.78-.51.85.27,1.37.19,2.04-.03.3-.48,1.25-.57,1.62l.77.1c-.86.79-.58.69-.64,1.55-.02.23-.24.41-.24.54,0,.35.71.95-.09,1.13l.41.77c-.56.77-.98,1.93.16,2.48.04.63-.72.56-.57,1.12.01.05.56.15.39.92-.04.16-.37.11-.38.24,0,.05.05.9.06.94.06.26.49.21.5.36.02.44-.58.72-.58.95,0,.47.32,1.05.31,1.54,0,.28-.41,1.53-.25,1.77.15.21.66.04.42.81-.08.25-.37.47-.39.65-.03.26.35.78.31.84-.03.04-.76.26-.95.49-.32.38-.08,1.01-.68,1.05-.42.03-1.13-.48-1.7-.37l-.34-1.15-.75-.02c-.14-.35.32-.7.32-.85,0-.13-.3-.32-.31-.57-.02-.29.39-.79.46-1.22.23-1.41-.05-2.29-.38-3.53-.19-.72.52-2.16-.47-2.48.32-.42.88-1.17.86-1.71,0-.35-.7-1.16.1-1.33l-.2-.48-.38.19c-.08-.71-.09-.93.57-1.24-.11-.3-.67.43-.58-.19.11-.75.54-.63.57-.67.13-.22-.3-.5-.3-.65,0-.08.46-1.01.51-1.53.1-1.16-.63-.9-.72-1.54-.1-.7,1.11-1.93.04-2.53l-.17.36c-.43-.39-.99.02-1.34-.04-.36-.06-.39-.72-.72.21l-.63-.16c.21-.65-.86-.18-.69-1.14l-.57.19c-.3-.91,1.21-2.67,2.01-2.75.33-.03.69.16,1.11.09.1-.02.5-.61.64-.74.19-.17.49-.17.59-.27.09-.09.04-.33.12-.43.1-.12.29-.14.37-.32.02-.05.15-1.11.14-1.16-.05-.22-.47.02-.39-.3l.35-.09c.02-.78-.15-1.78-.11-2.51.09-1.59.49-1.48,0-3.19-.24-.84.72-2.35.48-3.04-.44-1.26.02-1.08-.03-1.51-.03-.2-.31-.38-.32-.76,0-.47.61-1.32-.18-1.25v-.18c.55.11.3-.43.43-.62.33-.49.94-.85.93-1.66l.67.02.28-.79s.46.19.51.25Z"/><path d="M62.45,49.7s.04.32.17.33c.54.05,1.02-.48,1.47.61.18.45.26,2.4.14,2.86-.04.15-.39.13-.39.23-.01.27.33.64.32.94-.01.27-.36.53-.31.94.03.31.5.6.39.95l-.55.38c.22.72.11,1.49.19,2.27.03.33.31.59.33.82.03.33-.41,1.96-.31,2.63.05.3.31.85.25,1.71-.01.19-.5.68-.04,1.01.28.2.78-.3.31.65-.08.16-.34.15-.33.24,0,.87-.11,2.51-.04,3.23.09.9.84,1.17.52,2.44-.11.41-.65.4.04.59l-.17,1.7.41.22-.4.94c1.09.34.29,1.36.29,2.01s.54,3.39.5,3.67c-.02.13-.38.1-.39.23-.07.79.61,1.41-.01,2.26l.4.38c-.66.65-.05,1.09-.09,1.52-.01.16-.29.38-.32.76-.04.45.05,1.98.59,2.09-.5.48-.37,1.35-.62,1.86-.24.48-.88.57-1.29.83-.15.1-.21.43-.3.45-.7.21-.36-.35-.52-.52-.08-.08-.42-.07-.71-.35-.91-.9-1.48-3.04-1.93-4.17-.25-.63-.8-1.03-1.08-1.59-.41-.83-.56-1.83-1.07-2.64l-.72-.05c.22-.97-.72-1.7-.93-2.41-.15-.5.49-1.39-.53-1.36-.25-.47-.28-1.33-.65-1.43l.19-.56c-.79-.49-.84-1.77-1.21-2.64-.48-1.12-.67-1.14-1.02-2.44-.15-.56-.85-.82-.47-1.68l-.75-.22c-.12-.16.51-1.86-.31-2.65-.19-.19-.54-.1-.67-.32-.17-.27-.59-1.55,0-1.48-.84-.83-.55-1.96-.77-2.82-.03-.13-.87-.5-.67-1.27-.87.67.23,1.33.26,1.42.06.2-.3,1.03-.29,1.42s.33.63.32.86c0,.29-.37.47-.38.76,0,.2.36.65.36,1.16,0,1.56.2,1.3.39,2.47.12.72-.31,2.23-.19,2.79.03.15.37.12.39.26.24,1.34-.4,3.9-.21,5.3.05.41.55.17.4.75-.02.09-.39.01-.41.37,0,.13.04,1.28.06,1.34.04.14.46,0,.34.36-.05.15-.33.32-.42.54-.32.85.23.69.24.81,0,.23-.27.55-.21.91.02.14.38.04.41.4.07.75-.45,1.09-.43,1.72.01.41.5.15.41.56-1.08.7-.22,1.34-.08,2.18.08.46-.17.98,0,1.55.09.28.47.53.43.79-.02.14-.5,1.13-.65,1.26-.3.26-2.38.98-2.57.78.25-.76-.61-1.04-.73-1.46-.15-.51-.26-4.1-.17-4.68.04-.27.44-.56.44-.98,0-.62-.69-.9-.69-.96-.02-.66.57-2.17.53-3.07-.02-.47-.43-.7-.32-1.66.07-.6.01-1.41.02-1.49.05-.32.63-.86.32-1.45l-.56-.11.58-.85h-.58c.35-.72-.05-1.39,0-1.99.02-.22.26-.38.28-.69.08-.94-.5-.97-.48-1.03.07-.21.35-.36.37-.76.02-.62-.56-.7-.55-.75.02-.18.36-.61.37-.78,0-.06-.49.05-.4-.75.09-.86.88-.41.35-1.39-1.27.13.37-1.77-.5-2.03.15-1.27.01-2.52-.03-3.78-.02-.58-.58-1.42-.58-1.73,0-.11.38-.01.42-.38.06-.65-.36-1.07-.36-1.15,0-.17.54-.37.53-.75,0-.22-.29-.44-.33-.72-.07-.59.18-1.2.14-1.54-.03-.31-.41.18-.11-1.36.06-.29-.39-.75.29-.66l-.39-.28v-.37c.73-.56.96-1.1,2.03-1.07,2.03.05.83,1.6,1.05,1.92.05.07.69,0,.87.18.37.34.53,1.31.72,1.48.14.12.5.07.63.24s-.09.45-.04.63c.23.9.95,1.4.69,2.49,1.01.12.6,1,.79,1.68.03.1.72.49.37,1.28h.77c-.07.34-.04,2.33.03,2.43.09.12.46.13.64.43s.15,1.56.2,1.71c.43,1.17,1.49,2.8,1.77,3.88.15.57.02,1.91.41,2.46.15.21.55.07.6.11.05.05-.2.61.2,1.38.55,1.04.93,2.05,1.33,3.27.31.94.85,1.05,1.12,1.56.24.46.16,1.26.23,1.39.02.03.48-.28.67.18-.24,1.07.3,2.11,1.44,1.44-.89-.84-.21-1.77-.24-2.44-.02-.41-.44-.96-.46-1.39-.03-.46.41-1.14.31-1.47-.08-.25-.52-.22-.57-.44-.11-.46.32-2.1.32-2.65.01-1.89-.43-3.79-.3-5.66l-.59-.1c-.01-.43.06-.97.57-.95l-.38-.19.39-.66-.75-.57c.38-.43.65-3.5.51-3.68-.07-.1-.45-.1-.49-.3-.06-.3.51-1.1.55-1.53.06-.64-.32-.93-.31-1.25,0-.5.55-1.05.5-1.39l-.59-.4c1.04-.71-.14-1.82-.13-2.28,0-.26.38-.52.44-.86.05-.31-.28-.55-.23-.77.1-.43.67-.68.79-.95.14-.31-.11-.66-.02-.76.14-.17.54-.1.65-.22.14-.14-.15-.86.56-.46Z"/><path d="M91.53.98l1.31-.17v.76c.6-.3,1.04.06,1.41.57.26.37.52,1.04.93,1.59.26.35,1.21.89.35,1.17l.58,1.05.57-.19c-.28.63.43,1.57-.38,1.8.12.29.73.71.76.81.19.65.27,3.64.45,4,.02.04.29.04.39.27.13.31.11.71.31,1.01l-.56.46s.3-.04.35.09c.06.17-.02,1.66.05,2.09.1.64.45,1.65.55,2.31.17,1.19.1,2.77.31,3.91.09.49.71.15.28.92h.58c-1.16,1.45.17,2.48-.39,3.99l.57-.19c.04.54-.47.93-.51,1.43-.05.64.48,1.13.44,1.72-.04.55-.86,1.08.22,1.07.48.32-.5,1.93-.05,2.63.12.19.58.24.62.46.06.33-.4.9-.43,1.16-.01.09.5,1.41.57,1.77.12.58.32,1.52.29,2.19,0,.16-.23.47-.19.5l.59.1c-.21.64.19,1.74.12,2.24-.14.99-1.03,2.66-1.14,3.68-.03.22-.02.29-.24.43-.45-.62-.85-.38-1.19-.52-1.08-.44-1.63-.66-1.57-2.05.02-.36.41-.73.36-.93s-.5-.24-.54-.32c-.07-.11.38-2.02.27-2.55-.05-.27-.43-.39-.45-.56-.01-.15.28-.37.27-.57,0-.11-.38-.63-.46-1.01-.18-.85,0-1.98-.23-2.62-.11-.33-.42-.3-.4-.37.03-.15.4-.56.48-.85.37-1.23-.32-.88-.46-1.26s.06-.89-.03-1.27c-.03-.13-.93-.55,0-1.46h-.77s.19-.95.19-.95c-.6.28-.83-.37-.9-.38-.15-.02-.37.12-.54.09-.56-.09-.63-.38-1.44,0-.6.28-.53.63-.58.67-.07.05-.39-.35-.68-.39-.4-.05-.78.2-1.15.21-1.45.02-2.17.21-3.6.57-.16.04-.13.33-.26.37-.69.2-.63-.34-.77-.37-.36-.08-.83.04-1.21,0,.08.71.06,1.84-.38,2.37l.39.19v.38s-.59.38-.59.38v.38s.38.18.38.18l-.57.77c-.16.53.62.12.77.38l-.22.64-.74.03.21,2.01-.4.46.57.09-.76,1.14c.08.36.73-.11.57.38s-.64.58-.76.82c-.35.66-.11,1.63-.28,2.13-.24.72-1.33.95-.88,1.71h-1.42c-.12-.02-.85-1.93-.87-2.17-.02-.48.45-1.57.32-2.1-.03-.14-.39-.02-.35-.36.03-.31.32-.56.36-.83.07-.45-.16-.89-.03-1.34.13-.43.55-.59.62-1.08l-.56-.56.58-.38v-.38c-.66-.12-.14-1.01-.1-1.51.06-.71-.18-1.4.29-2.19l-.77-.19c.61.15.15-.71.42-.93l.54-.03c-.05-.22-.28-.31-.32-.56-.16-1.13.69-.95.71-1.06.09-.43-.05-1.71,0-2.25,1.16-.69.24-.65.21-.77-.06-.26.17-.82.35-1.05l-.57-.09c.1-.58.53-1.09.7-1.55.05-.13-.13-.39-.09-.52.07-.25.42-.21.5-.39.34-.77-.82-2.7.23-3.04l-.58-.76.58-.29c-.65-.61-.14-.68-.1-1.04.12-.99.41-1.1.47-1.53.12-.89-.52-1.02,0-2.24.15-.35.37-.84.59-1.3.09-.19.42-.23.48-.52s-.15-.64-.09-.75c.05-.09.55-.16.55-.31,0-.04-.29-.24-.35-.71-.04-.31.11-1.02.55-.91l-.38-.38c1.51-.21.26-1.89,1.34-2.09.08-.34-.32-.12-.38-.19s.82-1.2.38-1.71l.75-.02c-.13-.74.38-.42.6-.68.25-.3.18-.97.3-1.18.03-.06.82-.9.88-.92.13-.04.42.19.63.15.55-.12.98-.51,1.63-.39-.1-.96.64-1.41,1-.39ZM91.45,4.86l-1.66.36c.02.96-.69,1.51-.99,2.37-.19.57-.16,2.41-.24,2.52s-.45.1-.48.3c-.03.15.21.56.15.94-.02.1-.57,1.65-.63,1.8-.02.05-.59.38-.72.7,1.17.44-1.18,2.43,0,3.03-.3.77-1.45,2.23-.96,3.01.08.13.39.12.39.23,0,.38-.74,1.59-.77,2.09-.05.63.59,1.26.55,1.48-.05.28-.71.49-.75.98-.04.4.36,1.42.16,1.91-.07.17-.43-.04-.35.27l.48.19.09-.56c.77-.05,1.6.09,2.35-.05.65-.12,1.05-.69,1.39-.72.32-.03.72.21,1.14.2,1.46-.03,1.57-.46,3.29-.2,1.13.18,1.83-1.46,1.63-2.34-.05-.22-.5-.2-.56-.43-.05-.2.3-1.45.27-1.9-.02-.38-.45-2.13-.55-2.32-.03-.06-.32-.05-.33-.15-.05-.39.36-.55.32-1.04-.08-1.06-.88-1.33-.88-1.41,0-.21.47-.74.49-.96.02-.35-.35-.65-.39-.96-.09-.71-.06-1.87.08-2.55-1.55-.32-.57-.64-.61-1.21-.03-.36-.62-.88-.56-1.37l.41-.54c-.48-1.28-.84-2.67-1.78-3.67Z"/><path d="M27.55,1.58l-.19.38c1.39-.26,1.28,2.07,1.5,3.17.16.77.46.74.03,1.77h.58c.11.41-.32.71-.32,1.04.01.58.06.46,0,1.18-.05.61.06,1.26-.23,1.87.63.31,1.34,1.34.16,1.23-.24.47.39.33.39.48,0,.14-.16.36-.18.58s.13.46.11.56c-.04.23-.5.19-.53.39-.09.48.49,1.21.53,1.52s-.22.7-.14,1.08c.03.14.32.1.35.22.17.69-.89,1.47-.4,2.52.2.42,1.11.62-.13,1.28.63.56.08,1.25,0,1.9l.58.1c-.03.94-.06,1.89-.09,2.83,0,.2-.22.4-.21.48.04.29.96,1.51.12,1.71.49.36.13.9.4,1.47.09.2.48.2.51.65l-.52.73c1.04.76.36,1.6.78,2.61.1.23.77.35.19,1.21l.34.17c-.5.78.69,1.4.85,1.85.31.88.71,1.45,1.04,2.38.07.19.04.42.05.62l.57-.38c.15.21-.02.84.03.91.22.3.99.05.16.99.85-.2.91.34,1.16.47.54.3,1.08-.17.76,1.05,1.08.5,1.17-.26,1.58-.43,1.3-.55.48-.23,1.04-.71.2-.17.95-.25,1.12-.55.07-.13-.12-.45,0-.58.15-.2.56-.1.71-.31.13-.18-.02-.65.12-.95.25-.55.73-.76.93-1.58.13-.55-.13-1.23.08-1.79.15-.4.51-.6.58-.97.11-.58-.14-1.03-.15-1.52-.03-1.62.62-.76.73-.86.39-.33-.42-.4-.38-.47l.77-2h-.57c-.29-.74.45-1.05.56-1.29.44-1.03.07-2.72.2-3.34.03-.14.37-.1.39-.25.03-.18.21-1.93.19-2.03-.02-.14-.35-.11-.39-.24-.2-.7.39-.67.38-.73-.03-.25-.47-.81-.49-1.15-.03-.61.55-1.93.69-2.56l-.58-.19.69-.67-.63-.95c.71-.82.16-.86.16-1.3,0-.51.91-1.84.89-2.09-.03-.34-.63-.71-.56-1.17l.4-.47c-1.17-.21-.08-1.39-.08-2,0-1.18-.37-2.62.28-3.8l-.4-.21.22-1.39.87-.19.08-.97.66.36.88-.08.38,1.06.77-.19c.41.73-.34.98-.34,1.38,0,.25.27,2,.54,1.96v.36c-.29.4-.39.48-.38,1.04,1.35-.61-.01,1.14,0,1.43l.57.55c-.08.9-.6.57-.74.68-.04.03.09.41.07.58-.04.3-.28,1.24-.24,1.29.08.1.52.03.57.5l-.41,1.13.39.19c-.43.33-.68.66-.57,1.23l.29-.38c.7,1.01-.58,2.02-.48,3.33.04.48.44.75.4,1.12-.05.48-.84.64.18.87.06.08-.28.32-.34.51-.27.8.49.51.34.9-.8.6-.97,1.16-.61,2.12.11.3.38.17.41.53.03.27-.21.8-.18,1.13l-.6.23v1.04s.4-.19.4-.19c.18.68-.5,1.05-.57,1.63-.23,1.78-.29,3.47-.64,5.29-.02.1-.28.09-.31.22-.07.31.13,1.02-.05,1.47-.12.29-.46.27-.51.34-.02.03.17.41.09.73-.14.54-.83,1.07-.89,1.63s.35.84.35.93c0,.23-.94.64-1.13.94-.15.22.01.48-.09.66-.72,1.24-1.36,1.22-1.46,2.78,0,.13-.53,0-.18.45l-2.66.8-.02.73c-.62.03-1.31.13-1.92.12-.45,0-1.06-.67-1.15.65l-.69-.38.12-.57c-.81.24-.72-.3-.97-.47-.15-.1-.46.02-.79-.15-.36-.19-.74-.78-1.02-1.08l-.67.37c-.04-.77-1.15-1.48-1.37-1.98-.15-.33,0-.56-.03-.64-.05-.11-1.37-1.29-1.47-1.52-.16-.36-.04-.7-.13-.99-.11-.34-.82-.56-.26-1.33h-.77s.19-1.33.19-1.33l-.57.19c-.33-.49.2-1.39.16-1.59-.04-.24-.5-.44-.64-.7-.15-.29-.47-1.39-.62-1.8-.49-1.39-.89-2.11-.25-3.58l-.77-.58.77-.38c-.12-.47-1.01-.67-.72-1.31.16-.35.71-.19.53-.78l-.74-.31c-.44-.84.41-1.18.45-1.47.09-.53-.49-1.05-.47-1.45.02-.66,1.3-2-.02-2.5l.4-1.77h-.57c.43-.62.59-1.02.5-1.77-.02-.18-.31-.36-.28-.57.04-.3.82-.75.46-1.28l-.49-.19c-.07-.09,1.04-.9-.19-.76l.19-1.23.58-.1c-.66-.54-.08-1.92-.19-2.35-.04-.17-.54-.05-.39-.6.02-.07.39-.08.4-.21.02-.22-.2-.5-.16-.72.06-.36,1.36-1.17-.04-1.35.04-.61.4-1.14.5-1.74.18-1.09-.31-2.57.56-3.48.41-.43.92.2.47-.95h.58Z"/><path d="M76.06,49.91c.08.03,0,.36.56.32l.41-.4h.52c.23.66.81.33,1.16.58.5.36,2.5,1.65,2.91,2.07s1.99,2.78,2.33,3.38c.18.32.72.29.45,1.18h.77s-.17.48-.17.48c.41.11.22.36.3.46.59.75.78.36.82.39.15.11.16,1.58.24,1.78.13.31.53.3.68.63.41.91-.11,1.92.36,2.67l.42,2.24c-.9.26-.69,1.75.22,1.7,0,.52-.61,1.21-.68,1.6-.06.32.31.53.26.83-.08.51-.35.7-.42,1.66-.09,1.26-.65,4.18-1.02,5.65-.31,1.26-.59,1.58-1.22,2.46-.47.66-.3,2.28-1.14,1.95,0,.6.19,1.29-.58,1.33l.38.56c-1.43.08-.94.38-1.35.99-.11.17-.32.21-.45.36-.12.14-.08.45-.15.51-.14.12-.7-.07-1.04.2-.36.29-.16,1.14-.84.78l.19.57c-.51-.04-1.29.09-1.67.44-.22.2-.3.67-.49.84-.28.23-.84.18-1.13.52-.15.18-.04,1.7-.84.48h-.28c-.02,1-1.54.13-1.92.38.25,1.62-.46.34-.61.25-.19-.11-.9-.17-1.25-.5-.94-.88-.42-2.03-.81-3.09l.37-.27-.54-.03c.1-.43-.38-1.32-.37-1.55,0-.37.42-1.02.49-1.56.12-.97-.43-2.21-.15-3.39.03-.15.39-.13.39-.22.02-.39-.53-.74-.56-.98-.03-.23.32-.44.35-.73.04-.34-.25-1.11-.31-1.54-.18-1.17-.17-1.93-.59-3.25-.35-1.09.02-1.08.06-1.66.02-.22-.42-.56-.31-.93l.57-.57c-.14-.69-.57-1.48-.71-2.13-.03-.13-.23-1.22-.23-1.29-.05-.61.52-1.61.51-2.02s-.52-1.45-.49-1.76c.12-1.06.47-2.29.44-3.46,0-.38-.47-1.83-.45-2.05.03-.33.52-.6.53-.98,0-.26-.3-.65-.32-1.07-.02-.39.15-.72.14-1.03-.04-.8-.31-1.75-.27-2.6l1.2-1.58c.43,0,.86.15,1.29.11.35-.03.26-.36.41-.4,1.18-.25,2.54.19,3.64.65ZM76.39,53.37c-.75-.5-1.22-.81-2.28-.89-.36-.03-.94.08-1.24.3-.26.96.41,1.04.42,1.3.01.39-.12,1.39-.13,2.02-.02,1.01-.4,4.65-.07,5.34.56,1.17.19.45.03,1.42-.02.13.03,2.25.05,2.58.04.85.45,1.88.48,2.53.02.42-.23.84-.2,1.1.02.13.34.08.36.2.12.73-.47,2.07-.3,2.67.03.11.31,0,.35.37.05.52-.3,1.13-.29,1.45.01,1.11.24,4.06.69,4.96.08.16.36.17.37.27.04.41-.41.65-.36.89.04.2.4.38.36.78-.03.28-.36.49-.39.78-.04.38.18,2.42.57,2.45-.33.8-1.02,1.3-.57,2.19.42.06.67-.35.97-.47.21-.08.43.07.52.04.15-.06.74-1.14,1.3-1.07l-.11-.58c1.26.03.84-.34,1.15-.66.66-.67,1.33-.72,2.01-1.44.12-.12.39-.14.45-.23.07-.1-.11-.38-.06-.54.17-.51.58-.93.29-1.49,1.33-.23.62-.64.78-1.21.11-.39.59-.42.69-.56.04-.05.38-1.13.39-1.22.13-.91.35-2.26.68-3.35.17-.58.91-.73.15-1.47.79.06.1-.69.19-1.2.02-.11.3-.08.41-.41.2-.63-.08-1.42.34-2.1-.99-.31,1.08-2.61-.55-2.37-.07-.68.44-1.05.33-1.75-.06-.4-.24-1.36-.34-1.72-.04-.15-.31-.12-.36-.28-.38-1.17-.43-2.04-1.28-3.08-.47-.57-1.42-.78-1.24-1.71h-.48c-.12-.45-.11-1.01-.46-1.39-.44-.47-.99-.2-.97-1.47-1.21.8-.88-.38-1.39-.71-.27-.18-.88-.07-1.23-.3Z"/><path d="M33.93,52.99c.06.05.29-.12.43.05.15.2.15.53.38.78.82.88.86.18.88,1.4,0,.15.4.02.4.39,0,1.56,1.25,4.43,1.67,6.33.18.79-.48.96.78,1.49.1.5.07.98-.36,1.31.91.39.42.62.49,1.26.05.48.11,1.42.22,1.83.15.54.77,1.2.77,1.27,0,.17-.32.41-.29.73.03.43.7,1.01.34,1.65l.59.1c-.09.51.05,1.02.07,1.52,0,.11-.19.26-.18.48.02.78.72,1.73-.1,2.37,1.17.78.52,1.15.44,1.92-.06.58,0,1.8.34,2.06l-.36.58c.17.55.71.25.73.28.23.38-.33,1-.35,1.27-.02.31.58.57-.03,1.19,1,.22.57,1.26.62,2,.05.62.34,1.11.21,1.77-.19.92-.69,1.87-1.55,2.3l-1.75-1.06c-.16-.81.03-1.83-.05-2.61-.21-2.08-1.27-4.2-.74-6.45l-.38-.2c.41-.98-.15-1.17.09-2.19.16-.67-.89-.91-1.07-.49-.08.19.48-.05.38.28-.21-.02-.48.05-.68,0-.63-.15-.11-.79-1.49-.37-.17.05-.14.37-.25.37-.22,0-.53-.22-.92-.19-.57.04-1.01.63-1.56,0l-.2.39c-1.03-.29-2.57.3-3.63.35-.34.01-.77-.26-1.16-.17l-.1.58h-.67c-.21.8-.73,1.72-.7,2.57.01.35.33.26.37.37.14.39-1.26,3.52-1.08,3.99.05.13.51,0,.35.37-1.03.38-.48,1.34-.59,2.06-.08.53-.65,2.08-.9,2.54-.38.67-.91,1.1-1.69.84-.2-.07-.82-.67-.86-.89-.09-.48.16-.9.15-1.31,0-.22-.31-.45-.29-.75.05-.66.33-.24.2-1.4-.03-.27.56-1.42.18-1.94l.36-.11-.4-.2,2.32-8.73-.77-.19c.85-.46.5-2,.61-2.26.17-.41.79-.05.34-.95.84-1.08.75-3.5,1.21-4.91.09-.28.45-.44.49-.64.04-.23-.19-.52-.17-.71s.5-.17.58-.43c.09-.3-.17-.63-.13-.9s.85-1.79.99-2.43c.12-.56-.07-1.31.15-1.73.18-.34.61-.36.7-.64.25-.73-.1-1.87-.07-1.96.07-.21.48-.56.63-.92.13-.32.07-.92.23-1.09.37-.38,1.33-.5,1.64-1.05.1-.18.04-.45.12-.6.12-.25.6-.05.17-.72.33-.19.8.04,1.02,0,.15-.03.13-.3.28-.36.34-.13,1.82-.2,2.11-.07.32.15.33.45.48.56ZM32.88,56.33c-.23-.27-1.02-.27-1.25,0-.21,1.06-1.27,2.21-1.46,3.23-.07.39.2.5.18.72-.07.53-.69.86-.31,1.59l-.75.4c.4.22.29,1.13.15,1.49-.1.25-.42.23-.53.46-.33.67-1.37,5.75-1.63,6.86-.09.37.39.91-.49.98l.58.47c-.81.46-.2,1.04-.77,1.61.81.28.76-.42,1.08-.54.2-.07,2.12-.44,2.24-.41.14.04.11.33.25.37.49.14,1.17,0,1.32-.55h.38c.3.52,2.55.45,3.23.31.51-.1,1.09-.49,1.66-.51-.26-.42-.37-.65-.19-1.14h-.58c.45-1.02-.35-.85-.2-1.78l.39-.31c-.68.1-.18-1.02-.25-1.4-.05-.29-.6-.76-.75-1.34-.12-.45.05-.97,0-1.36,0-.06-.64-.68-.68-.78-.19-.41.7-2.47-.81-2.36.82-.67.49-2.45-.58-2.47.65-1.06.11-.83.01-1.09-.24-.65.17-1.98-.25-2.47Z"/><path d="M19.61,49.14c.15.11.21.37.5.54.38.22,1.22.32,1.32.45.25.35.57,1.69.18,2.07-.33.36-1.36.21-1.78.08-.55-.17-.47-.14-1.13-.28-.48-.1-.92-.37-1.41-.47-.27.01.17.63-.39.58-.61-.05-1.16-.98-2.03-.48l.02.48c-.55.09-1.05-.22-1.59-.16-.48.06-.46.41-.58.48-.2.12-.55.03-.71.15-.24.17-.15.68-.37.97-.19.26-.68.34-.96.58-1.17,1.04-2.28,3.21-2.42,4.72-.03.34.28.74.24,1.12-.02.23-.29.43-.29.75.02.9.82,1.18.89,1.39.12.39-.39,1.43.36,1.06.24.52.77.4.43,1.09l.56-.18c.13.9,1.12.62,1.73,1.05.47.33.47.9.71,1.05.34.21,1.1.18,1.47.54.17.17.1.43.17.52.18.21,1.51,1.14,1.86,1.02-.2.99.51.72,1.08,1.31.3.32,1.85,2.35,1.94,2.67.1.37-.22.49-.23.67-.01.37.58.95.64,1.17.13.49.45,2,.54,2.52.08.47-.2,1.03-.12,1.52l.38-.19c.29.62-.37.8-.39.89-.02.1-.14,1.81-.14,1.91,0,.3.39.51.34.71-.04.17-.48.22-.55.33-.06.09.23.79-.22,1.01l.39.18c-.5.98-.8,1.43-.41,2.54-1.08.19-1.42,1.71-1.92,2.57-.12.2-.45.25-.5.35-.12.22.02.62-.06.7-.07.07-1.38.34-1.89.69-.34.23-.4.65-.68.78-.08.04-1.28-.09-1.68.07-.24.09-.2.44-.46.54-.24.09-1.39-.24-1.89-.12-.11.03-.02.35-.37.35-.84,0-1.33-.53-1.99-.73-.6-.18-1.35.03-1.64-.07-.43-.14-.37-1.11-1.27-.57,0-.83-1.08-.65-1.29-.92-.16-.21.16-1.16-.32-1.67-.2-.21-.66-.11-.72-.37-.08-.31-.31-1.5-.33-1.79-.07-1.32.49-.72.92-1.01.29-.2-.02-.79.47-.67.23.23,1.37,1.64,1.48,1.68.21.09.49-.19.73-.16-.12.71.7.82.85,1.13.08.16-.15.46.09.68.06.06,1.55.64,1.64.64.55.03,1.02-.35,1.73.22l.38-.41c.37-.05.76.38,1.08.31.82-.16,1.43-.6,2.11-.94.81-.41,1.37-.2,1.63-1.38.1-.45-.1-.91-.04-1.26.07-.46.94-2.12,1.09-2.5-.57-.78.3-1.74.15-2.81-.04-.3-.38-.56-.37-.99,0-.37.3-.59.33-.8.2-1.8-.84-3.48-1.88-4.87-.67-.89-1.78-2.09-2.73-2.72s-2.72-1.06-3.21-2.15l-.55.19c-.03-.19-.06-.48-.18-.63-.53-.68-1.67-1.45-2.09-2.15-.49-.8-.39-2.27-1.18-2.55.71-.99-.22-1.2-.22-1.78,0-.98.23-1.91.41-2.86l-.58-.19c.54-.26.44-1,.48-1.05.1-.17.55-.2.65-.5.15-.43-.15-.91-.04-1.35.02-.34.51-.17.6-.26.1-.11,0-.52.13-.75.03-.06.86-.28,1.14-.57.35-.36.42-1.14.49-1.21.26-.29,1.82-.99,2.31-1.34.17-.12,1.14-1.21,1.29-1.24.33-.05.55.16.75.18.09,0,.06-.33.21-.36.49-.1,1.23-.39,1.3-.4.54-.07,1.5.26,1.72.19.27-.08.19-.74,1.35-.56.43.07.53.45.82.53.71.21.9-.11,1.71.49Z"/><path d="M146.96,50.81c.04.59.64.99.62,1.59,0,.08-.39,1.33-.44,1.38-.07.08-1.43.31-1.97.8-.12.11-.1.45-.31.65s-.95.31-1.09.54c-.14.22-.05.65-.26.98-.15.24-1.15.88-1.27,1.11-.07.14.15.67.13.7-.1.1-.58.09-.72.24-.03.03.11.28-.02.44-.83.95-1.44,1.19-1.37,2.75h-.76s.39.67.39.67c-.17.34-.74.35-.91.51-.08.08.08,1.09-.43.92l.56.46c-.21.77-.93,1.08-1.2,1.85-.37,1.08.25.93.24,1-.03.82-.68.62-.76.8-.39.87-.32,3.84-.38,4.9,0,.13-.33.09-.36.2-.03.1-.06,2.13.36,1.81v.18c-.1-.01-.26,0-.31.06-.6.82.24.57.13,1.18-.09.49-.5.41-.55.5-.08.13.29,2.59.37,2.89.03.12.29.08.39.41.07.23,0,.78.03.82.08.11.45.12.52.34.04.12-.52,1.65-.19,2.4.14.33,1.14.53.96,1.29l.57-.19c-.12,1.26.65,1.19,1.16,1.8.19.23.05.73.21.83.14.08.48,0,.73.13s.8.96,1.48,1.01c.27.02.46-.32.54-.32.26,0,.43.89.96.85.62-.05,1.06-1.01,1.45-1.17.28-.12.92-.03,1.58-.47.39-.26.59-.53.33-.95l1.78.04c.63.21,1.34,2.26,1.24,2.71-.02.1-.66.52-.79.69-.21.26-.17.64-.37.88-.28.34-1.23.51-1.67.63.4.89-.42,1.06-1.16.75l.19.38c-1.43.53-2.24.08-3.61-.14-.43-.07-.55.37-.71-.24l-1.13.55c-.33-.37-.76-.86-1.17-1.13-.31-.2-.75-.16-.97-.37-.25-.25-.14-.71-.42-.96-.52-.48-.34.41-.91.18-.16-.58-1.26-.97-1.4-1.18-.32-.48-.84-2.16-1.15-2.75-.16-.31-.82-.45-.44-1.18-1,.22-1.38-.93-.58-1.52l-.6-.11c-.22-.28.27-.84-.3-.88l.13-.34h-.77c-.12-.07.23-2.48.22-2.76-.02-.38-.45-.25-.41-.37.06-.18.39-.45.46-.69.29-.94-.41-1.58-.08-2.45l-.58-.09c-.14-.69.56-.78.59-1.5l-.54-.38c.19-.8.73-1.39.53-2.26-.03-.14-.3-.12-.34-.23-.2-.51.62-.72.71-.98.03-.1.22-1.93.2-2.03-.03-.13-.56-.09-.22-.83.13-.28.43-.46.53-.72.12-.32.07-1.32.37-1.81.09-.14.47-.13.49-.29.03-.27-.42-.9-.29-1.23.07-.17.44-.32.56-.58.3-.64.87-2.78,1.08-3.09s.64-.41.85-.69c.67-.92.57-2.42,1.74-3.42.23-.2.61-.17.65-.21.17-.19-.19-.87-.16-.91.04-.05.35-.07.47-.2.37-.4.21-.75,1.05-.58l-.58-.85c.51-.44.86-.78,1.53-.48l-.18-.55,1.52-.4-.19-.38c.83.03,1.44-.31,2.17-.58.11-.04.12-.29.23-.33.18-.06,1.92-.08,1.99-.01Z"/><path d="M17.51,2.98c.07.04.08.22.06.31,1.18-.79,1.07.29,1.45.76.2.24.62.06.46.57-.66-.06-.33.62-.56.87s-1.19.55-1.53.57-.54-.26-.8-.21c-.63.14-3.5,1.76-3.97,2.24-.27.28-.02.9-.81.72l.2.57c-.7.02-.99.59-1.44.96-.19.15-.51.13-.62.23-.26.21-.03.68-.06.7-.1.05-.41-.05-.52.05-.16.14-.13.88-.24,1.15-.05.11-.82.85-.88.95-.42.74-.86,1.88-1.24,2.68-.19.4-1.19,1.63-.36,1.74-.15.36-.88,1.09-.92,1.37s.3.51.26.84c-.05.43-.51.78-.58,1.1-.06.25.11.59.01.97-.29,1.23-.84,1.61-.6,3.04.08.5.64.36-.29.87.52.66.11,1.55.19,2.04.04.24.18.13.24,1.17.04.75.09,3.37,1.11,2.75-.54,1.27.42,1.23.55,1.64.09.28-.04.64.03.89.02.08.56.36.38.89l.57-.19c0,.52.4,1.91.68,2.28.11.15.98.47,1.18.81.07.11-.1.42.16.7.32.35,1.06.32,1.06.96l.38-.57h.38c.05,1.15,1.43.72,1.51.78.13.1-.01.41.5.53.81.19.99-.71,1.17-.74.25-.05,1.07.93,1.24-.57l.38.19c-.26-.69.05-1.02.77-.76l.1-.58,1.64.11c0,.49.61.76.68.94.02.05.19,1.09.19,1.15,0,.37-.3.69-.38,1.03-.1.43.25,1.43-.67,1.18l-.03.53-2.74.58-.12.58c-1.29-.62-2.87.05-4.13-.19-.45-.08-.38-.44-.62-.57-.51-.27-2.16-.51-2.7-.98-.04-.03.14-.31-.02-.44-.25-.21-.68-.2-.96-.41-1.04-.79-1.8-2.2-2.24-3.28-.39-.96-1.54-1.25-1.7-1.53-.11-.19.09-.62-.05-.91-.11-.22-1.11-.83-.06-1v-.18c-.51.02-.56-.6-.77-1-.06-.12-.34-.12-.37-.27-.1-.46.06-1.09,0-1.58l-.48.13-.27-.25c0-.95.18-2.02-.14-2.92-.06-.16-.38-.3-.4-.47-.04-.33.74-.94.71-1.5,0-.13-.37-1.37-.43-1.42-.12-.11-.48.01-.53-.03-.12-.09,1.55-2.17.73-2.82l-.53-.13,1.14-2.49-.37-.17c1.65-2.5,2.05-5.97,3.3-8.34.27-.52,1.61-1.72,1.87-2.17.41-.7.22-1.65,1.16-1.57-.57-1.34,1.53-.3.77-1.7.43-.11,1.33-.11,1.65-.36.22-.18.68-1.12,1.24-1.42.26-.14,1.47-.42,1.52-.5l-.19-.56c.6-.17,1.42.03,1.66-.58.81.42,2.4-.14,3.08.27Z"/><path d="M127.98,53.43h.58c-.22.85-.55,1.24-.18,2.14.06.14.37.15.38.26.05.47-.92,1.34-.75,2.27.1.54.53.58.64.84.08.18-.1.59-.11.86,0,.58.47.91-.36,1.06-.05.07.54,1.16.51,1.57-.02.48-.5.47-.53.63-.05.29-.04,1.54.39,1.48-.61.57.09,1.31-.39,2l.56.02c.38.71-.54.89-.56,1.03-.03.25.59.48.6.76.02.61-.43.86-.4,1.43l.57-.19-.19.95-.57-.19v1.9s.52.03.52.03c.73.5-1.97,2.71.05,2.82l-.38,1.51.58.1c-.45.41-.16.92-.21,1.31-.15,1.05-.88,2.53.41,3.25,0,.05-.64.29-.71.79-.12.8,1.05.83.13,2.4-.09.16-.4.09-.39.24.03.51.76,1.18.87,1.71.1.47-.38.76.29.94l-.77,1.55c-.11.43.09.39.38.54-.24.43-.41.73-.96.67l.2.57c-.52.31-1.02.02-1.42.06-.37.03-.7.52-1.25.11l-.6-1.69-.57.19c0-.53-.2-.9.39-1.04.02-.18-.28-.02-.35-.18-.08-.19,0-2.37.35-2.57h-.58s.59-1.42.59-1.42c-.74-.21-.28-2.04,0-2.56l-.57-.29c.51-.58,1.23-2.13,0-2l.38-.19-.38-.27.58-.79c.03-.5-.53-.66-.55-.75-.03-.12.34-2.26.73-2.28l-.03-.26-.34-.03v-.37s.39-.11.39-.11c.04-.59-.77-.83-.78-.94,0-.07.44-.53.51-.8.09-.34-.19-1.14-.02-1.59l-.88-.18c-.07-.29.27-.11.38-.33.72-1.5.02-2,.09-3,.04-.51.66-1.97-.08-2.3v-.63s.58-.11.58-.11c-.94-.37.09-1.68-.05-2.61-.09-.57-.4-1.18-.72-1.66h.38c.08-.31-.28-.14-.32-.22-.35-.63.44-.88.49-.95.1-.17-.1-.44-.07-.62.16-.83.44-.91-.48-1.61l.96-.39c-.52-.72.06-1.5-.78-1.81.09-.48.55-.8.65-1.26.14-.61-.46-1.01.49-.93-.39-.81,1.31-1.47,1.76-1.23.15.08.04.41.11.48.64.66,1.27.63.84,1.9Z"/><path class="cls-1" d="M112.23,14.69c-.31.32-.25.1-.32-.18-.12-.48-.17-1.03-.06-1.53l.75.49-.37,1.22Z"/><path class="cls-1" d="M57.32,23.42c-.17-.22.49-.85.76-.95.12.59-.28.75-.76.95Z"/></g></svg>