<?xml version="1.0" encoding="UTF-8"?><svg id="Layer_2" xmlns="http://www.w3.org/2000/svg" viewBox="0 0 289.48 107.99"><defs><style>.cls-1{fill:#fff;}</style></defs><g id="daiquiri"><path d="M113.12,8.47v-.47c.48.42.96.27,1.44.36,1,.18,1.37.18,2.26.55.36.15.87.29,1.26.34l.02.59c.31.14.8.04,1.06.25.24.19.21.51.36.66.23.24,1.16.74,1.51.5l-.07,1.08c.13.52.64.45.77.62.23.31.72,1.86,1.02,2.36.16.28.54.16.46.67-.33-.14-.35,1.38-.32,1.55.08.43.51.36.47.47-.65.52-.7,1.44-.98,2.17-.03.09-.19.05-.22.16-.09.27.31.67-.51.79l-.08.29c.86,1.05-.57,1.04-.9,1.63-.07.12.05.31-.03.46-.06.12-.52.77-.52.83.12.92,1.02.07,1.23.17l.54.71c.31.16.21-.5.38-.31.04.05.59.93.69,1.1.11.18.04.47.11.58.11.17,1.04-.15,1.08.78l.28-.13c.12,1.13.07,1.37,1.07,1.95l-.29.99.43.03c.02.42.05.5.5.44-.5.79-.46,1.7-.36,2.61.04.39.47.84-.1.81.43.54.29,1.13,0,1.7l.62.08c-.68.98-.55,2.13-.94,3.23-.19.52-.59.96-.72,1.27-.06.15-.03.78-.14,1.01-.11.21-.98,1.08-.98,1.16l.62.54c-.53.45-.95.01-1.01.01-.19,0-.64.95-.76,1.08-.44.49-1.03.2-1.58.44-.31.13-.33.4-.45.45-.25.1-.96-.18-1.22-.13-.11.02-.1.27-.12.28-.11.05-.26-.16-.41-.09-.06.03.04.42-.4.26-.5-.63-.75-.23-1.33-.21-.74.03-1.57.05-2.41.16-.15.02-.32.25-.46.22s-.19-.36-.35-.48c-.15-.11-.92-.14-.95-.18-.09-.1-.07-.35-.17-.48-.23-.3-.5-.07-.49-.81,0-.48.39-.89-.14-1.24.4-.31.96-.33,1.16-.84l2.18.61.15-.32c.21,0,.43.24.65.28,1.15.21,1.77-.01,2.81-.24.65-.14,1.29-.31,1.95-.38.31-.09.43-1.25.49-1.37.16-.31,1.27-.6.38-.99l.25-.83.51-.19c-.09-.78-.49-1.3.31-1.78l-.46-.15c.07-.52.57-.61.63-.93,0-.06,0-1.08-.04-1.13-.1-.13-.53-.16-.53-.57,0-.37.7-.98.39-1.84-.08-.21-.34-.21-.4-.28-.04-.06.13-.98-.18-1.41s-.83.13-.54-1.04c-.68-.09-.76-.67-1.09-.93-.74-.59-2.03-.88-2.8-1.23l-.17.32h-.28c-.71-.27-1.5-1.02-2.03-.16l-.54-.31-.08.47c-.53.18-.57-.31-.63-.31-.34-.02-1.05.2-1.41.26s-.43-.37-.75.36l-.46-.93c-.59.64-1.09,1.71-.71,2.57l-.3.15c.4.65-.17,1.92-.15,2.46,0,.08.26.09.31.21.04.1.15.99.13,1.04-.04.09-.32.08-.37.53-.03.31.14.62.09.84-.02.11-.32.09-.32.19-.02.44.31,1.45.32,2.01.01.5-.15,1.15-.32,1.62l.62.23c-.39.12-.15.48-.64.64.25.71.64,1.58.44,2.35-.08.31-.31.4-.38.62-.06.18-.36,1.27-.36,1.34.01.16.56.15.47.48l-.93.39.16.46c-1.49.33-2.26-.57-2.33-2.01l-.46.16c.49-1.17-.15-2.38.31-3.56l-.47-.08c.45-.94.11-2.01.78-2.95-.51-.09-.4-1.16,0-1.24l-.31-.39.31-.15h-.47c-.05-.46.35-.8.42-1.03.06-.2-.15-.66-.06-.88.09-.25.39-.35.42-.65.06-.61-.04-2.9-.17-3.53-.02-.12-.22-.1-.26-.19-.18-.42.36-.46.4-.62.07-.26-.53-1.37.17-1.31l-.31-.23c.16-.24.42-.7.44-.97.03-.32-.22-.45-.23-.58,0-.16.41-1.09.42-1.4s-.38-.13-.32-.44c.07-.36.46-.43.46-.5.03-.34-.49-1.48-.48-2s.51-.69,0-1.15l.32-.08c-.3-.57-.3-.67,0-1.24l-.33-.3.49-1.1-.31-.29c.32-.63-.02-1.78.02-2.31.03-.46,1.03-1.84-.03-1.66-.14-.14.4-1.68.51-1.93.07-.16.17-.5.19-.53.14-.26.74-.96,1.05-.91.29.05.65.47,1.27.29l.08-.48,1.39.16v-.47s.77.47.77.47ZM113.34,10.88c-.07-.04-.05-.24-.13-.24-.71.08-1.37.56-2.25.15-.14.75-.02,1.49.08,2.24.13.99-.1,1-.17,1.86-.04.52.21,1.26-.03,1.87l.59.32c.06.74-.44,1.49-.48,2.15-.03.47.28.04.47.08.27.65-.32.8-.31.85,0,.26.37.41.32.76,0,.06-.46.25-.42,1.08.02.61.08.48.01,1.18-.07.79.66.73.25,1.55.37-.56,1.16-.6.99-1.24l.19-.14c.46-.01.91.06,1.37.05.12,0,.26-.19.44-.18.23,0,.43.23.75.2.75-.07.52-.61.6-.7.05-.05.89.35,1.39.07.08-.04.11-.26.21-.33.43-.29.93-.68,1.2-1.21.13-.25-.04-.44,0-.51.05-.08.44-.16.61-.41.14-.21.78-1.8.78-2.02l-.31-.15.46-1.33h-.47c.43-.67-.29-.52-.17-1.23h-.45c.29-.33-.16-1.65-.35-1.83-.1-.09-.35-.05-.49-.19-.06-.06.06-.43-.24-.56-.18-.08-.39.08-.44.06-.16-.1-1.17-1.12-1.43-1.28-.5-.32-1.38-.5-1.89-.71-.13-.06-.14-.18-.12-.3l-.16.31s-.32-.17-.4-.22Z"/><path d="M84.43,7.23c-.11.61.73,1.17.78,1.63.05.5-.46,1.69-.11,2.2.08.11.39.15.42.28.03.15-.25.35-.29.61-.1.78.3,1.76.3,2.56l.45.08c-.19.57-.66.72-.7,1.4-.03.58.51,2.01.49,2.32-.01.15-.3.32-.26.61.02.14.37.1.42.31.11.42-.39,1.4-.21,2,.07.23.37.35.38.49.02.23-.75.87.19,1.01-.54.64.06,1.54-.31,2.32h.62c-.2.47.08,1.16-.62,1.25.44.54.2.93.15,1.54l.46-.15c.15.61-.3,1.41,0,1.91.06.1.31.09.32.21.03.36-.17,1.3-.12,1.71.04.31.36.68.35,1.13,0,.24-.23.37-.23.55,0,.26.36.5.44.81.13.55-.18,1.44.02,2.28s.34.96.47,1.84c0,.05.65.39.31.88l.46-.23-.27-.31c.06-.33.65-.34.71-.41.08-.09,0-.49.1-.75.1-.23.5-.38.63-.69.1-.27,0-.76.19-1.14.13-.26.4-.28.51-.47.25-.46.05-1.05.07-1.28.06-.55.53-1.03.64-1.46.05-.2.02-2.42.1-2.54.05-.07.3-.05.37-.25s.15-1.15-.25-1.09v-.23s.31-.15.31-.15c-.5.11-.34-.72-.21-1.05.11-.26.52-.33.69-.57.16-.23-.03-.49.12-.62.39-.35,1.44-.32,1.96-.25.35.27.05.52.1.7.02.07.67.92.74,1.13.29.93-.07,2.45,0,3.45l.62-.15c-.09.24-.24.47-.27.73-.02.18.09,2.53.16,2.65.06.1.69.5.67.89,0,.13-.25.26-.25.31,0,.1.35.17.46.35.12.22.18.95.34,1.09.03.03.25-.13.36.02.18.24.34.93.39,1.25.27.1.62-.49.68-.63.64-1.46.34-2.11.27-3.48-.04-.88.58-1.01.58-1.07,0-.13-.21-.53-.24-.81-.05-.4.3-.45-.22-.9.49-.82.11-1.4.17-2.17.03-.51.4-1.28.4-1.78,0-.38-.63-.81.07-1.02-.51-.29-.03-.62-.06-.93-.14-1.54.05-2.59,0-4.04-.01-.26-.27-.54-.2-.96.04-.24.27-.39.28-.58,0-.05-.46-.04-.28-.62.05-.17.64-1.2-.02-1.38l.3-1.17h-.46c.1-.57-.16-1.26.61-1.4v-.15c-.48.07-.35-.84.16-.78l-.6-.67.75-.96-.46-.31c.63-.38,1.04-1.79.77-2.47l.27-.12-.11-.28c.62.26.71-.43.86-.46.07-.02,1.1.42,1.47.15l-.14.4.27.14c-.03.17-.13,1.19-.11,1.25.03.1.43.01.13.38l.47.08c.05.47-.63.71-.63.79-.01.19.26.51.26.76-.01.4-.55,1.8-.55,2.17,0,.71.2,1.79.13,2.62-.02.31-.34,1.02-.3,1.39.02.16,1.01.27,0,1.18h.47c.2.32-.34.89-.31.93.02.02.24-.03.28.07.3.84-.27,1.82-.29,2.79,0,.42.2,1.25.15,1.7-.06.56-.54.85-.22,1.64.06.14.34.27.35.39.01.16-.3.38-.33.54-.08.37.08.84-.25,1.24h.62c.15.81-.31,1.11-.58,1.67-.46.92.25.69.28.9.04.26-.26.5-.32.78-.03.15-.05,1.79.29,1.68l-.16.53-.41.13c-.06.64-.45,1.4-.47,2.04,0,.33.21.43.21.66,0,.13-.77,2.08-.9,2.39-.06.15-.47.07-.13.77l-1.16.87.24.54-.23.23c-.59-.31-1,.17-1.38.16s-1.12-.39-1.63-.33l-.1-.44-.31.31c-.28-.18-.17-.53-.32-.77-.08-.12-.32-.13-.35-.18-.03-.05.14-.3.09-.48-.19-.68-.77-.89-.94-1.25-.18-.38.06-.61.02-.8-.02-.1-.99-.77-.83-1.33l-.98.33c-.16.54.05,1.13-.4,1.54-.21.19-.5.2-.71.42-.35.35-.15,1.2-.5,1.54-.18.17-.79.27-1.05.73-.49.88.29.56-.97,1.18-.1.05-.11.26-.13.27-.12.05-1.42-.14-1.76.31-.24-.29-.55-.54-.8-.8-.07-.07-.02-.29-.09-.36-.19-.18-.69,0-.66-.75.03-.78-.21-.93-.44-1.77-.11-.39-.26-.9-.1-1.25l-.62.15c-.13-.81.44-.74.32-1.63-.06-.43-.89-.29-.17-1.23l-.78-.24c-.15-.14.4-1.18.4-1.48s-.44-.35-.48-.99c-.02-.37.13-2.05.08-2.23-.04-.17-.4-.1-.47-.49-.12-.62.29-.79.41-1.24.09-.33-.2-.77-.24-1.11-.03-.26.14-.86.12-.91-.05-.13-.44-.17-.53-.53-.07-.3.33-.74.24-1.1h-.46c0-.6.41-1.13.3-1.76-.12-.67-.33-1.18-.38-1.87-.09-1.24-.38-1.2-.15-2.48s.13-3.12-.02-4.6c-.03-.3-.35-1.2-.34-1.27.02-.14.6-1.34.6-1.74l-.32-.31c.62-.75.21-1.09.2-1.7,0-.08.18-1.47.2-1.54.23-.92.63-1.32,1.62-1.32ZM98.08,38.07l-.62.16v.31s.62-.16.62-.16v-.31Z"/><path d="M168.9,8.22s.05.2.09.22c.1.04.46-.24.69.23.09.19-.02.47.14.59s.53,0,.69.08c.19.09.34.39.56.51.29.15.63.14.92.32.57.36.17.7.31.93.27.46.86.39,1,.54.24.26.12.84.62.55-.36.61,1.37,1.62,1.37,1.78,0,.08-.27.23-.26.44.02.42.58.54.61.68.11.53-.81,1.76.44,2.08-.12.52-.12.56-.61.7l-.15.9.32.31-.47.78.31.08c-.37.52.07.72-.77.62.37.93-.62,1.02-.88,1.28-.12.13-.06.57-.49.6l.13.9h-.61c-.06.57,0,.77-.47,1.13-.27.2-.64.42-.92.68-.14.13-.76.76-.74.9.14.32.49.42.73.63.2.18.07.49.47.37l.15-.31.16.93.29-.14c0,.75,1.85,1.96,1.71,2.5-.06.21-.38.29-.29.58l.46-.15c-.31,1.33.83,2.17.62,3.56l.62-.15c-.04.36-.22,1.85-.14,2.07.1.3.61.22.76.49.03.28-1.23.75.15,1.02l-.3,1.23.43.03c.37.54-.01,1.17-.06,1.62-.04.37.2.81-.2,1.22l.46.08-.14.71c.56.05.08,1.26.14,1.31h.62c-.04.69-.61,1.02-1.24,1.09l.16.46c-.36-.04-.8.07-1.13,0-.12-.03-.11-.26-.3-.35-.48-.23-.98.02-1.12-.58-.09-.39.28-.55-.22-.68.29-.85-.17-1.64-.29-2.46-.06-.46.28-.98.08-1.74-.24-.89-.14-1.55-.28-2.46-.02-.12-.33-.1-.39-.39s.15-.6.1-.84c-.02-.1-.84-.94-1.03-1.65-.12-.44-.14-1.96-.25-2.15-.04-.08-.37-.1-.51-.34-.16-.27-.14-.91-.28-1.04-.09-.09-.38-.06-.51-.18-.24-.23-.33-.59-.62-.78l-.38.31c-.25-.59-.99-1.33-1.64-1.39-.57-.05-.95.42-1.54.3l.08.31-1.24-.46c-.04.95.65,1.08-.16,1.94l.3.3c-.34.99-.32,2.06-.45,3.03h.47c-.11.73-.79,1.37.16,1.79-.69.75-.08,1.81-.16,2.47-.13,1.14-.08.82,0,1.88.03.36-.39.68-.27,1.19.09.36.48.76.44,1.11-.01.1-.26.08-.29.17-.03.1.08.35-.06.59-.11.19-.33.21-.39.3-.04.05.08.23-.04.35-.46.43-2.01-.3-2.33-.79-.18-.28-.02-.55-.1-.68-.14-.24-.84-.27-.22-.92l-.43-.22c.19-.58-.09-1,.58-1.25-.46-.33-.52-.66-.31-1.16h-.47c-.02-.34.6-.62.63-.73.09-.36-.21-1.02-.24-1.43-.02-.25.36-.59-.06-1.02.81-.28.18-1.24.19-1.93,0-.46.58-.84-.2-1.16l.43-.91c-.01-.44-.52-.47-.57-.65-.06-.26.59-1.03.34-1.74-.06-.18-.31-.17-.33-.27-.05-.18.55-2.27.58-2.8,0-.08-.3,0-.31-.29,0-.35.21-.83.32-1.17l-.78.15c.1-.68.68-.94.45-1.69h-.45c.28-.37-.03-.71,0-1.02.03-.33.38-.43.45-.66.13-.45-.45-.78.18-.9.02-.08-.69-.15-.6-.93.11-.92-.1-2.08.02-2.97.03-.23.27-.41.27-.59,0-.39-.64-.42-.31-.89.08-.11.31-.11.3-.18-.03-.22-.31-.53-.31-.94-.01-.66-.03-.81-.09-1.39-.02-.22.51-.85.56-1.25.06-.52-.23-.92-.12-1.5.08-.45.68-.46.43-1.19.48.38,1.52-.75,1.66-.78.31-.06.6.13.87.1,1.66-.16,2.88-.3,4.54.28ZM165.34,10.55c-.58-.21-1.53-.3-1.58.54-.01.19.18.3.2.52.04.56.15,1.03.17,1.47.03.64-.5,1.82.49,1.74-.12.55-.65,1.23-.63,1.77.02.6.4,1.58.41,2.19,0,.14-.18.32-.18.48-.01.48.04.97-.06,1.45l.46-.15v2.01s.62-.15.62-.15c.04.32-.57,1.24-.57,1.31,0,.1.23.25.25.46.04.56-.64,1.15.09,1.79.33.06.29-.43.49-.47.3-.06.64.09.98-.07.21-.1.75-1.1,1.38-1.03-.29-.19,1.04-1.75,1.13-1.8.15-.09.81-.19,1.05-.45.34-.37.16-.72.32-1.03.22-.42.68-.54.87-.78.27-.35.54-1.1.77-1.49.2-.35.66-.38.52-1.24h-.46s0-.24,0-.24c.37-.5.45-.85.47-1.47l-.28.13c-.31-.26-.44-1.05-.57-1.22s-.46-.11-.52-.17c-.1-.12.09-.58-.17-.84-.17-.17-.53-.14-.73-.28-.36-.26-.72-.98-1.06-1.2-.23-.15-.71-.08-1.03-.3-1.24-.88-1.53-1.01-2.82-1.47Z"/><path d="M55.12,7.54l.15-.31c.25.5.84,1.21,1.25,1.62.17.16.49.21.69.39.28.25.38.7.59.89.08.07.34,0,.39.06.08.1-.03.39.07.56.11.2,1.16,1.47,1.35,1.13-.26.76.74,1.07.76,1.17.02.12-.14.33-.12.46.04.22.22.36.24.48.06.42-.33,1.08.52.98-.03.13-.56.61-.57.65-.06.21.12.91-.2,1.3l.47.53c-.8.35-1.29,1.3-1.51,2.13-.1.38-.01,1.57-.54,1.88-.09.05-.31-.13-.44-.06-.56.33-.68,1.39-1.2,1.35l-.12.44c-.91-.27-.59.71-1.47.86l-.1.42c.03.46.48.43.55.66s-.03.51.02.72c.02.07.95.63.78,1.19l.77-.31-.31.93c.85-.05.67.88,1.08,1.29.23.23.61.04.76.84.1.52-.45.85.65.81l-.31,1.08h.46c-.34.81.27.93.41,1.39.18.63-.17.21.32.98.35.55,0,1.14.04,1.73l.47.09c.17.18-.38,1.32-.3,1.6.05.18.43.18.46.34s-.6.87-.16,1.67c.14.26.42.83.47,1.28.06.49-.39.62.32.93-.33.96-.27,1.88-.95,2.69-.39-.37-1.03-.2-1.38-.37-.33-.16-.72-1.74-1.54-1.64l.32-1.31-.63-.55c1.09-1.1-.08-1.6-.11-1.93,0-.04.24-.5.23-.82,0-.19-.1-1.04-.12-1.18-.12-.66-1.04-1.57-.31-2.26h-.62c.08-.24.3-.4.27-.67-.02-.26-.39-1.67-.74-1.19-.09-.29.16-.63.15-.84,0-.09-.25-.09-.3-.21-.12-.3-.14-.76-.31-1.01-.23-.34-1.01-.33-.94-1.04l-.3.15c-.09-.3-.19-.88-.39-1.1-.19-.2-.47,0-.55-.06-.19-.14-.08-.49-.19-.66-.11-.18-.94-.43-1.01-.54-.1-.15.02-.42-.26-.75-.52-.61-.93-.24-1.48-.36-.35-.08-2.01-1-2.32-.71.04.44.36.66.32,1.16-.03.37-.32.56-.34.92-.02.65,1.06,2.03-.14,2.41.94.79-.4,1.93.47,2.4l-.48.94.64.92c-.19.35-.57.66-.68,1.04-.13.43.08.66.03.94-.05.23-.5.54-.21.91.15.19.59,0,.55.29-1.27.44-.53,1.69-.64,2.4-.05.3-.25.51-.28.78-.03.32.23.77.06,1.17s-.37.35-.54.56c-.11.14-.12.49-.15.51-.06.05-.49-.17-.69-.16-.27.01-.54.18-.78.16-.48-.04-.55-.81-1.16-.47-.13-.5.42-2.06.28-2.3-.09-.15-1.17-.63.03-.65.05-.68-.05-1.73.31-2.25l-.47-.16c.14-.42.26-.86.44-1.27.15-.36.78-.73-.13-.67.7-.81.1-1.36.14-2.09.02-.31.26-.5.27-.62.01-.16-.28-.96-.24-1.38.03-.28.37-.58.27-.98-.1-.37-.38-.28-.43-.45-.11-.38.69-1.53.62-2.16,0-.08-.34-.58-.44-.61-.02-.54.5-1.15.56-1.58.05-.39-.14-.94.19-1.44l-.62-.08c.07-.38.59-.8.62-1.09.07-.65-.46-1.58.16-2.24l-.46-.08c.3-.76.58-1.15.69-2.08.13-1.07-.06-2.36-.03-3.34,0-.25.58-.31-.05-.46.31-.71,1.06-2.09.16-2.56.13.02.23,0,.3-.12.42-.74.19-1.51.32-2.26.02-.12.25-.11.26-.14.04-.17-.14-.5.08-.71l2.14-.65-.16-.31c1.12-.1,2.33.11,3.34-.46.3.17,1.08.32,1.4.29.48-.04.57-.57,1.31.17ZM54.17,10.18c-1.65-.11-3.27-.56-4.92.01-.2.6-.05,1.2-.08,1.74,0,.09-.17.21-.18.42-.02.61.38.65.39.69.13.48-.28.37-.38.53-.19.31,0,.77.37.86-1.04.74.23.93,0,1.55l-.47.08c.38.63.03,1.28.04,1.9,0,.24.2.53.2.82,0,.2-.26.81-.21.93.05.14.62.22-.02,1h.47c-.14.77-1.01,1.21-.22,2l3.23-.44c.03-.85.95-.27,1.02-.94l.46.31-.31-.62.68-.17.25.32c.05-.5.65-.69.93-1.04.12-.15.11-.47.25-.65.26-.36.74-.26.68-1.03.24-.31.58-.02.63-.07.15-.15-.09-1.16.31-1.32l-.46-.23v-.23c.51-.25.48-1.29.62-1.85-.67-.12-.76-.51-.32-1.01-.23-.01-1.08-.4-1.19-.51-.28-.28-.38-1.56-1.13-1.9l-.62.24-.16-.69.33-.18-.19-.52Z"/><path d="M145.42,7.97c.59.63,2.56-.42,3.14-.36.36.04,1.1.56,1.72.56.32,0,.15-.46.61-.33.3.54.84.88,1.09.16.32.11.71,1.76,1.55.78l.38.87c.6-.15.98.2,1.33.68.6.81.13,1.98,1.31,2.42l-.15.75c.48.15.22.66.2,1.09-.02.38.34.75-.19,1.09l.62.31-.3.62-.32-.08.31.54c-.01.6-1.22,1.32-.47,1.55-.77.68-1.53,2.48-2.16,3.07-.17.16-.46.13-.56.26-.14.18.08.48.01.64-.08.17-.38.21-.49.35-.13.16-.82,1.22-1.02,1.3-.36.14-.76-.15-.74.28.04.89.38.84.87,1.31.27.26.59.42.61.46.15.25.07.69.31.94.17.18.51.17.71.38.52.56.39,2.69,1.54,2.26.07.51-.13,1.24.08,1.7.13.29.53.35.65.51.24.32.6,1.64.74,1.82s.42.1.52.17c.03.02-.23.56.34.29.25.43-.35,1.04-.31,1.08.02.02.27.02.38.15.06.07.13.9.18,1.11.22.84.48,2.23.54,3.16.01.17-.11,1.49-.2,1.58l-1.98.81c-.06-.65-.13-1.22-.93-1.09.36-.84.29-1.21.16-2.01h-.62s.16-1.24.16-1.24h-.47c.03-.55.5-1.21.21-1.71-.18-.32-.55-.36-.68-.59-.08-.14-.46-1.04-.59-1.31-.12-.25.34-.64-.8-.75v-1.39s-.62.31-.62.31l-.17-.69.32-.32c-.26-.17-.75-.65-.88-.9-.18-.34-.33-.67-.51-1.01-.24-.46-.41-1.32-.68-1.68-.21-.28-1.32-.69-1.42-.82-.18-.24-.14-.73-.47-.93l-.21.02c0,.55-.4.11-.65.22-.35.15-.32.54-1.08.23l.29.51c-.86.77-.15,1.13-.13,1.72.01.34-.21.83-.32,1.17l.47-.07-.47,1.78.47-.08c.13.36-.46.75-.47.8-.01.1-.02,1.87,0,1.96.03.12.27.08.28.18.05.34-.23.98-.24,1.31,0,.25.23.5.22.55-.02.18-.39.32-.39.46,0,.1.33,1.55.4,1.86.19.83-.06.65-.27,1.41s-.12,3.33-.52,3.74c-.21.22-.7.04-.81.51-.63-.35-1.06-.89-1.71-.93.07-1.1-1.31-1.78-.07-2.71l-.46-.31.62-.7c-.83-.14-.18-.83-.14-1.32s-.23-.92-.16-1.38c.05-.33.46-.83.46-1.25l-.62-.08c-.24-.6.43-.73.47-.88.08-.33-.07-.82.15-1.21l-.47.07c-.07-.51.02-.65.47-.85l-.32-.17.16-1.9-.61-.17c.17-.79.96-.34.74-1.16-.02-.08-.36-.08-.21-.47,1-.51-.48-1.15.57-1.55.07-.43-.43-.6-.46-.78-.03-.21.56-.69-.17-1.38.73-.76.19-.83.19-1.08,0-.09.28-.24.36-.46.22-.62-.35-.66-.4-.8-.09-.33.25-1.38.23-1.98,0-.13-.2-.28-.21-.46-.02-.41.68-2.18.57-2.49-.06-.18-.62-.1-.43-1.08.08-.4.66-.73,0-.93l.14-.4c-.95.32.15-.66.16-.72.1-.57-.79-.97.15-1.14.04-.05-.52-.52-.29-1.14.12-.33.66-.04.27-.75-.08-.14-.31-.12-.29-.2.02-.13.26-.29.25-.62,0-.37-.28-1.05-.23-1.56.04-.44.67-1.18.13-1.54l1.17-.7.31.15c.14.15.14.45.27.59ZM149.39,10.67c-.26-.15-1.68-.24-2.08-.48l-.15.31-.53-.17c.24.55-.2.96-.16,1.55l.31-.16.16,1.3-.32.18.31.46c-.63.21-.57.85-.28,1.37.17.3.45.1.45.65,0,.48-.26.34-.31.5-.24.74.11,1.13.08,1.51-.02.22-.56.73.22.85l-.31.23.31.15-.62.47.32.31-.32.62.31.07-.14,1.15c.87.54.23.6.02.91-.02.02-.05.56-.03.57.06.04.97.15,1.11.12.12-.02,1.42-.56,1.49-.6.13-.09.02-.47.12-.6.16-.22.99-.77,1.28-.95l-.13-.28.6-.18c-.12-.82-.07-1.58.95-1.22l-.46-.46.93-.31c-.5-.77.64-1.51.71-1.85.02-.08.15-1.5.15-1.58-.02-.35-.32-.76-.33-.99,0-.25.27-.57.26-.76,0-.1-.38-.16-.52-.43-.15-.31-.09-.87-.25-1.11-.1-.14-.89-.3-1.15-.44-.3-.16-.54-.78-1.25-.58-.12.03-.12.3-.18.31-.53.09-.44-.36-.57-.44Z"/><path d="M69.2,54.71s.04.18.07.19c.47.16,1.05.18,1.44.68l.15-.46c.57.2.38.85.41.9.26.4,1.54,1.03,1.6,1.11.24.29.37,1.41.58,1.53.15.09.44-.03.56.05.09.06.08.35.18.49.07.11.28.11.29.13.04.09-.21.39-.12.66.06.19.37.21.41.28.03.06.14.99.2,1.06l.46-.16-.46,1.08.46-.16c.06.53.26,1.03.39,1.55.18.72.06,1.34.18,2.27.04.34-.36.62.2.74-.01.44-.47.59-.46.63,0,.05.33.71.4.84.27.53.57.19-.09.94,1.29.23-.13,1.6,0,1.71l.62.08c-.16.8-.81,1.89-.93,2.64-.07.45.52.14.62.54-.49-.02-.11.65-.77.47.29.54-.53,1.05-.77,1.63l.44.47-.75.77c.59.08.49.81.54.86.19.19.48.08.66.19.36.23,1.11,1.21,1.4,1.51.25.26.62.49.97.31-.31,1,.89,1.32,1.16,2.18.03.1.06,1.03.04,1.11-.07.28-.42.5-.51.75-.1.27.27.8-.7.5-.22-.53-.16.26-.95.01-.6-.19-1.8-.92-1.38-1.61-.98.28-.84-1.02-1.16-1.4-.25-.3-.97-.03-1.32-.85l.23-.23-1.17.23c-.02.67-.25.52-.46.81-.32.44-.11.82-1.08.51l.09.46c-.29.3-.79.38-1.09.63-.62.54-.25,1.05-1.49.92-.04.06.28.5-.08.61-.54.16-.78-.7-1.08,0-.45-.56-1.17-.26-1.64-.42s-.58-.64-1.01-.82l-.54.77-.47-1.24-.62.31c.04-.78-.97-.97-.62-1.55-.51.25-.62-.19-1.07-.33l.07-.61c-.65-.08-.45-.36-.6-.55-.28-.36-.75-.21-.11-.98-.57.02-.28-.55-.41-.89-.06-.14-.78-.84-.8-.9-.06-.15.27-.58.25-.74-.09-.72-.64-1.63-.11-2.35l-.61-.63c.18-.75.81-1.84-.33-1.94l.26-.18c0-.22-.02-.41.05-.63.06-.18.71-1.26.76-1.46.07-.27-.39-1.25.16-1.68l-.31-.07v-.31s.31-.08.31-.08l-.31-.15c.19-.45.29-.42.76-.4.27-.5-.32-.62.17-1.07l-.46-.08.62-.62-.16-.39-.46.23.77-.78-.31-.15c.2-.35.32-.59.78-.55-.57-.52.26-.72-.31-1.23l.47-.47c.3.12.32.5.62.08.07-.35-.45-.36-.46-.39-.04-.06.39-.39.15-.62h.62s-.31-.39-.31-.39c.22-.45.4-.62.93-.55l-.13-.28c.87-.42.2-1.53,1.36-1.81l-.31-.38c.57.07.56-.68.64-.75.1-.08.88.02,1.18-.39.18-.25-.01-.24.43-.52.04-.03.24.09.31-.04l.07-.71c.76,0,1.32.02,2.05-.25.21-.08.08-.47.71-.24ZM69.64,58.74c-.35-.36-.77-.95-1.3-.73-.16.07-.18.26-.23.3-.77.52-1.05,1.2-1.66,1.96-.51.63-1.2.59-.78,1.67h-.47s.31.54.31.54l-.61.24c0,.17-.05.76-.13,1.01-.17.53-.68,1.37-.84,1.83s-.11,1.07-.59,1.57c.52.11.03.43.31.84-.54-.17-.84.85-.74,1.17.03.09.25.05.26.14,0,.23-.14.77-.11,1.08l-.48.09.47.16-.3,1.64.3.3c-.63.63-.7,2.02.14,2.41-.75,1.08-.21.64-.01.95.06.1-.14.34-.11.5.03.17.29.29.37.49.17.42-.66,1.25.22,1.56l-.16.37.46-.16c-.02.48.39.79.63,1.16.09.13,0,.34.03.36.04.04.97.52,1.08.55.37.1.6-.05.8-.01.23.05.42.36.68.4.51.08,1.27-.8.97-1.22.46.44,1.24-.31,1.56-.7.08-.1,0-.25.06-.35.02-.04.19-.04.2-.11.09-.49-.03-1.31-.21-1.78-.13-.35-.42-.43-.47-.51-.19-.33.2-.47.22-.5.08-.21-.1-.84.44-.97.81-.2.85.3,1.14.49.02.02.57.07.6.06.4-.26.04-1.42.8-1.59l-.46-.38c.82-.1.23-.73.31-1.31.05-.34.44-.73.53-1.11.12-.51-.24-.97-.24-1.4,0-.25.52-.19.23-.87-.15-.35-.46-.38-.48-.51-.04-.23.2-.91.19-1.26-.01-.38-.52-.62.07-1.15h-.62s.45-1.63.45-1.63l-.46-.07.32-1.29c-1.11-.58-.32-.89-.31-.96.04-.33-.35-.74-.55-1l-.39.31c-.09-.09-.03-1.47-.31-1.24l-.15.31c.07-.31-.4-.38-.42-.53-.02-.14.19-.39.1-.53-.03-.04-.48-.4-.66-.59Z"/><path d="M75.32,8.74c.12.09.39.04.52.19.1.12-.05.42.01.58.08.22.6.44.66,1.05.11,1.08.24,1.63.64,2.74.06.15.78.49-.01.82.67.28.25.44.45,1.09.16.49.78,1.15.77,1.23-.02.26-.41,1.44-.41,1.56,0,.1.55.53.55.96,0,.46-.66.32.17.74-.29.48-.39,1.17-.31,1.72.04.3.33.16.34.45,0,.35-.19.67-.17,1.01h.47s-.47,1.15-.47,1.15l.63.48c-.65.26-.26,1.26-.47,1.86l.47.08c-.18.28,0,.55-.04.82-.05.46-.18,1.73-.09,2.17.08.37.67.49.19,1.03-.17.19-.5.1-.38.55.02.07.29.07.32.18.08.37-.2.74-.1,1.15.08.3.36.28.38.37.07.6-.39,1.18-.44,1.78h.46s.05,2.76.05,2.76l.43.03c-.25.49-.47,1.41-.29,1.92.08.21.57.21.4.63-.04.09-.22.06-.25.18-.19.62.29.46.41.55.41.29-.05.69-.08.85-.03.17.21.28.21.53,0,.51-.54,1.4-.39,2l-2.79-.31c.37-.74-.05-.71-.1-.82-.42-1.01-.28-1.86-.4-2.96-.03-.23-.3-.44-.38-.76-.11-.46.15-.98.12-1.26-.01-.1-.3-.08-.33-.2-.1-.48.55-1.37-.15-1.84l.31-.08c.02-.3-.34,0-.31-.38.04-.53.47-.58.47-.62-.03-.25-.34-1.21-.62-1.25l.33-.17-.16-.62.31-.14c-.14-.35-.32-.72-.27-1.11.03-.26.26-.41.26-.44,0-.1-1.3-.72-.3-1.55l-.31-.15c.46-.31.38-1.87-.11-1.94-.3-.05-1.23.02-1.13.47l-.77-.47-.15.46c.07-.44-.3-.18-.66-.31-.12-.04-.11-.29-.23-.31-.74-.09-1.89.43-2.46,0l-.15.31c-.36-.41-.98-.23-1.49-.38-.34-.1-.3-.64-.61-.32-.05.05-.4,1.17-.4,1.25,0,.14.2.32.18.45-.07.7-.34,1.48-.26,2.19.04.29.31.21.33.32.1.53-.43.93-.47,1.38-.04.48.45.9-.31,1,.65.81.06.86.01,1.03-.06.19.16.88.11,1.05-.05.22-.53.13-.6.95-.08.91-.22.74-.31,1.24-.07.37.14.77.11.94-.02.14-.32.16-.42.34-.18.33-.39,1.79-.64,2.04-1.33.06-2.05-.67-1.22-1.93l-.32-.15.49-1.24-.33-.46.43-.46c-.22-.21-.14-1.53-.08-1.83.17-.88.94-1.59.11-2.35l.48-.94c-.53-.21-.6-.73-.23-1.16.14-.17.44-.09.38-.31l-.32-.09c-.08-.35.23-.6.28-.89.06-.37-.24-.74-.27-.96,0-.08.3,0,.33-.3.04-.56-.14-1.61-.16-2.2-.01-.29-.12-1.18-.11-1.29.09-.7,1.19-.72.11-1.32.2-.25.48-1.14,0-1.01l.62-.54-.03-.21c-.34-.04-.3-.17-.28-.49h.47c-.47-.6-.25-1.45.02-2.1l-.33-.3c.28-.45.66-.62.82-1.17.08-.28-.05-.58,0-.82.33-1.33,1.26-2.33,1.43-3.9,0-.09-.19-.2-.17-.39.08-.7.94-.65,1.09-1.24.05-.19-.21-.27-.16-.46.15-.58,1.11-.6.7-1.4h.62s-.02-.67-.02-.67l.57-.25-.09-.63,1.25-.39v-.54c.51.25,1.18-.1,1.46-.1.23,0,.47.29.69.34.27.06.5-.14.77-.02.9.39,1.04,1.84,1.13,1.91ZM72.8,10.48c-.34-.08-.29.14-.41.29-.41.53-.83,1.16-1.23,1.72-.1.14-.39.2-.46.31-.06.09.14.71-.08,1.13-.14.25-.77.45-.92.98-.13.47.65.02.62.38-.49-.03-.35.61-.48.97-.04.13-.23.12-.26.19-.06.17.05.61-.07.9-.1.24-.4.23-.49.46-.12.32.16.47.15.65,0,.1-.49,1.64-.57,1.85-.25.64-.74.43-.41,1.56.03.11.28.02.27.3-.02.41-.21.65-.63.56.21.59-.15,1.8.78,1.7l-.23-.62,2.4.47.08-.46,1.24.62.16-.47c.59.05,1.11.16,1.71.17.38,0,.85-.2,1.06-.18.09.01.11.6.4.32.06-.06-.16-1.46-.16-1.77s.21-.64.16-.92c-.02-.11-.26-.1-.28-.18-.08-.32-.03-.93.08-1.26l-.43-.22.47-1c-.01-.16-.73.08-.47-.47.1-.21.5-.13.46-.39h-.62c-.2-.81.24-1.33-.01-2.05-.05-.15-.42-.07-.14-.43h-.47c.31-.82-.57-1.2-.16-2.02l-.47-.1c.22-.54-.3-.88-.31-.93-.05-.29.16-.6.17-.89l-.32-.09.31-.46-.56-.15.09-.47Z"/><path d="M16.45,52.54c.14.11.24.52.44.53.1,0,.29-.22.46-.22.2,0,.65.32,1,.34.25.01.41-.18.55-.18.27,0,1.11.39,1.4.56l.46-.46c.32.78.76,1,1.62.95v.45s.29-.12.29-.12l.1.27.39-.31.31.93.62-.31c-.11.68.74.74.9.96.03.03-.11.17-.08.24s.51,0,.11.65c.22.18,1.03.29,1.07.34.04.06-.02.29.06.39.24.29,1.15.96.27,1.14v.15c.5.27,1.11.63.78,1.24.82-.61.63.03.72.15.13.19.38.32.45.48.26.53-.12,1.32-.08,1.38.02.03.29.02.38.16.25.38-.1,1.25.7,1.09l-.32,1.47.33.17-.16.53h.77c-.11.28-.08.75-.16.98-.07.21-.36,0-.3.26l.31.07c-.45.59-.14,1.7.47,2.02-.24.47-.84,1.43-.9,1.9s.48,1.21-.02,1.84l.31.15c0,.8-.55.62-.81.91-.19.21.26.64-.29.55l.62.31c-.45,0-.12.74-.93.62.17.64.37,1.93-.62,1.86l.31.31c-.91-.02-.6,1.3-.65,1.37-.06.07-.32.1-.41.28-.17.33-.33,1.1-.56,1.3s-.55.13-.79.3c-.25.18-1.03,1.6-1.4,2.01-.46.51-1.07,1.11-1.76,1.26-.07.27.32.07.32.23.01.84-1.81.88-2.43,1.32-.97-.45-.52-.15-.76-.04-.43.2-1.5.17-1.94.43-.24.14-.91,1.46-.94.23-.34-.03-.4.29-.77.25-.56-.06-.82-.64-1.39-.64-.38,0-.46.46-.7.49-.74.08-1.21-.49-1.76-.81.4-1.09-.17-2.08.29-3.08l-.32-.24c.53-.07.63-.62.44-1.07l-.44-.1c.09-.33.42-.99.43-1.27,0-.2-.24-.32-.21-.52.03-.24.38-.65.55-.85l-.46-.31c.38-.55.61-1.07,0-1.55.44-.13.32-.35.32-.77l-.47-.16c.19-.3.16-.69.62-.7v-.15c-.79-.12.1-1.03.16-1.33.12-.62-.47-1.23.15-1.39l-.46-.47c.86-.2,1.09-1.4.15-1.55-.09-.74.54-.92.59-1.1.06-.22-.18-.92.19-1.23l-.46-.15c.35-.49.62-.96.3-1.54l.32-.09-.46-.32.46-.91-.47-.08.33-.52.28.13c-.13-.41.14-1.18.09-1.48-.03-.17-.3-.27-.37-.49-.16-.49.48-2.33.54-3.11.08-.95-.29-.56.13-1.44.14-.29-.16-.73.23-1l-.31-.08v-.23s.44-.25.44-.25c-.44-.7.15-.76.17-.86.11-.47-.21-.74-.24-1.05-.09-1.1.82-2.3,1.89-1.42ZM19.77,56.36c-.06-1.03-1.99-.93-2.8-.93.05.43.27.71-.15,1.02l.3.3c-.52.3-.04.53-.06.77,0,.11-.22.27-.24.48-.04.33-.25,2.45-.16,2.54l.61.08-.62,1.16.62.08c-1.05.91-.43,1.89-.53,3.03-.11,1.24-.45,2.59-.52,3.95-.02.43.44.91-.19,1.08l.28.62c-.82.42-.27,1.24-.29,2.01,0,.35-.68,1.14.32,1.24-.61.7-.36,1.57-.48,2.47-.09.68-.35,1.52-.29,2.32.04.53.65,1.09-.16,1.41-.14.7.47.12.47.62,0,.45-.13.81-.62.7.28.7-.26,1.4.87,1.39.43,0,.7-.2.52-.61l1,.46.24-.31-.31-.15c.25.08.58-.26.7-.25s.3.29.46.26c.14-.03.18-.39.26-.44.03-.02.32.11.56.02.16-.06.18-.28.33-.35.32-.15,1.6-.58,1.69-.68.19-.21.61-1.5.35-1.81,1.08.06.62-.23,1.01-.63.13-.13.4-.12.49-.2.32-.34.52-.89.99-1.11v-.31s-.31-.15-.31-.15l.94-1.4-.47-.54c.64.02.45-.71.6-.86.21-.2.52-.15.64-.34.22-.35-.19-.9-.13-1.21.01-.06.47-.44.58-1.1.05-.3-.32-.65.17-.92l-.46-.31.62-1.56-.32-.16.16-.69-.46.15c.28-.62-.65-2.42-.39-2.79.08-.12.37-.11.37-.22,0-.16-.22-.62-.21-.86l-.39.16c-.07-.24.01-.67-.04-.85,0-.02-.19-.37-.2-.39-.13-.15-.52.06-.62-.45l.25-.55-.32-.17.16-.69c-.69.21-.43-.6-.65-.75-.14-.09-.5.05-.67-.18-.16-.21-.36-1.13-.7-1.47-.27-.28-1.82-1.01-2.25-1.47-.18-.18-.23-.38-.23-.63l-.3.15Z"/><path d="M113.71,56.24s.01.48.34.26c.03-.02-.16-.4.52-.24.35.08.74.25,1.06.41,1.13.55,1.7,1.28,2.56,1.85.19.12.46.11.66.25.33.24,1.66,2.38,1.54,2.78l-.29.23.62.16c-.03.26-.29.07-.4.46-.13.47-.02,1.43-.25,2.08-.08.24-.38.22-.42.27-.02.03.13.34.14.52.02.36-.37.62.31.7l-.3.54c-.19.1-.54.02-.61.09-.1.1-.19,1.11-.23,1.19-.04.09-.62.4-.69.6-.43,1.24-.35,1.47-1.42,2.61-.26.28-.55.63-.94.7l.31.23-.62.85c.68-.03.52.93.65,1.07.18.18.13-.06.58.54.19.26,1.13.26.79,1.18.67-.35,1.03,1.13,1.32,1.24l.15-.31c.46.61,1.05.88,1.08,1.72l.39-.02c-.3.82.14.61.47,1.01.22.26,1.15,1.28,1.2,1.36.03.06.25,1.34.51.95.05-.07-.11-.27.15-.21.53.62-.37,1.59.7,1.69.13.46.25,1.48-.13,1.83-.29.27-1.21.1-.89.66-.24.15-1.38-.6-1.62-.79s-.2-.47-.3-.56c-.11-.1-.78-.35-.88-.46-.18-.21-.28-.75-.34-.79-.13-.1-.53.02-.68-.17-.17-.23-.15-.75.24-.64v-.15c-.43.06-.78-.61-.97-.68-.23-.09-.53.04-.55.02-.06-.04-.44-.87-.47-1.02-.04-.27.13-.56.1-.63-.03-.08-.98-.91-1.19-1.21-.32-.46-.6-1.07-.81-1.59l-.92.14c.3-.9-1.11-.94-1.09-1.86-.71.48-1.03.09-1.7-.15l-.15.62-.62-.62-.47,1.15.62.32-.78,1.4.3.14c0,.8-.64,1.97.32,2.33-.15.36-.42.69-.46,1.09-.06.55.52-.24.45.3-.07.59-.49.46-.45.87,1.25.1.18.75.11.96-.1.27-.36,1.01-.4,1.17-.14.52-.11,1.21-.01,1.74l-1.26.24v.38c-1.29.44-1.09-1.73-1.58-2.14-.17-.14-.65.17-.35-.51l.55-.15-.58-.85c.42-.28.54-1.07-.03-1.17.65-.6-.09-1.21-.11-1.62,0-.05.16-.94.17-.99.16-.46.88-.73-.07-.87-.01-.44.38-.47.46-.67.03-.06.18-1.26.17-1.32-.03-.17-.41-.15-.45-.34-.03-.13.15-.36.11-.58-.1-.48-.67-.39-.13-1.25.1-.16.37-.03.31-.26l-.62-.23.63-.65c-.19-.67-.28-1.32,0-1.98l-.31-.15c.13-.29.27-.64.29-.96.02-.4-.4-1.55.17-1.46l-.31-.23c.68-.22.23-.84.24-1.17s.16-.68.15-1c-.02-.38-.34-1.28-.31-1.48.07-.47.76-.83.08-.99v-.31s.47-.31.47-.31l-.47-.15.23-.56.39-.07-.62-.62c.39.04.5-1.53.47-1.68-.04-.18-.43-.18-.47-.34l.47-1-.47-.08.46-.7-.62-.08c.61-.42.25-.76.35-1.08.02-.06.43-.19.27-.54.75.29,1.22.16,1.78.88l2.73-.66.39-.67c.3.13,1.1.07,1.27.19ZM113.95,59.71c-.07-.04-.1-.25-.2-.31-.46-.31-3.37.02-3.43.31v1.3s.32-.16.32-.16c.03.57.42,1.41-.31,1.63.17.12.26.27.3.47.2,1.05.06,2.29.08,3.24.02.82-.07,1.35-.23,2.16,1,.04.23,1.64-.15,2.18l.3.14-.3,1.02c.86-.15.92.12,1.5-.53.08-.09.03-.3.09-.36.21-.23.71-.02.59-.65,1.17.24.74-.66,1-1.1.21-.36.92-.53,1.07-.78.3-.5.49-1.59.95-2.17.21-.26.52-.29.54-.32.23-.3-.23-.29-.27-.38-.26-.51,1.98-1.5.9-2.33.64-.18.15-.82.15-1.32l-.3.15c-.2-1.1-1.65-1.64-2.59-2.22Z"/><path d="M40.89,55.39c.14.17.98.15,1.2.03-.11.51.22.75.38,1.1.28.62-.02.9,1.02.51.54.31-.02.96,0,1.01.01.02.21-.02.26.09.18.46-.09,1.14.82.7-.28.79-.03,1.4.09,2.11.07.4-.29.84.37,1.06-.52.74-.51,1.43.31,1.86l-.62.46.88,1.09c-.71.81-.04,1.7-.42,2.55.92-.1.98.54.15.7.46.48.1,1.12.17,1.38.05.19.37.2.42.28.2.31-.08,1.04-.06,1.42.03.69.59,1.23-.21,1.73l.61.25c-.16.22.02.72-.02.84-.03.09-.27.06-.27.14.01.16.17.31.14.62-.02.23-.32.49-.27.79l.73.23c-.35.44-.2,1.02-.32,1.44-.04.14-.28.03-.3.33-.04.49.49,1.06.15,1.64.71-.18.69.81,0,.62v.23c.62.93-.07,2.35.32,3.36.05.13.5.2.3.74h-.62s.16.31.16.31c-.79-.1-1.27.77-2.02.78,0-.66-.33-.85-.94-.68l-.15-.56-.46.16c-.08-.11.26-2.35.62-2.56-.25-.04-.72-1.57-.71-1.7.01-.25.37-1.31.37-1.52-.02-.49-.23-.32-.17-1.13.04-.63-.42-.72-.42-.77-.02-.3.24-.46.26-.61,0-.1-.07-1.88-.1-1.97-.05-.14-.28-.11-.3-.23-.07-.35.23-1.45.02-1.68l-1.1-.38-.24.62-.78-.46-.14.3-1.25-.45-.25.6c-.09.08-1.48-.13-1.7-.2-.32-.1-.29-.38-.49-.45-.23-.08-.45.04-.5.02-.09-.03-.17-.51-.91-.25-.14.02-.16.14-.22.24-.04.07-.27,1.37-.28,1.52,0,.1.2.24.2.31,0,.18-.46.37-.55.65-.14.46.12.92,0,1.38-.19.77-.8,1.89-.93,2.65s-.32,3.26-.61,3.88c-.09.19-.33.18-.35.3-.04.2.06.56-.02.66-.04.05-.34-.06-.46.1-.54.72.3,1.58-1.35.8l-.08-.16c.07-.59-.09-1.42-.06-1.93.02-.42.47-1.04.13-1.58l.29-.09-.32-.16c.07-.54.69-1.38.72-1.85s-.4-.86-.4-1.09c0-.2.74-1.04.31-1.68.84-.37-.19-.33.01-.8.08-.15.35-.17.42-.28.33-.51.69-2.56.65-3.15-.02-.25-.29-.37-.3-.61,0-.13.24-.04.28-.15.09-.21-.11-.94-.09-.99,0-.02.21-.02.28-.13s.57-.9.46-.96c-.81.14-.58-.89.16-.79-.23-.28-.34-.73-.25-1.08.29-1.17.39-1.39.97-2.36.05-.09-.25-.34.21-.28l-.27-.18c-.11-.48.32-.5.42-.72.16-.37.29-1.37.36-1.55.02-.06.79-.64.87-.92.09-.34-.18-.66-.15-.87.02-.15.34-.14.41-.25.1-.15-.31-.48.38-.71l-.31-.15.93-.23-.62-.46c.54-.16.37-.66,1.08-.31l-.46-.62,2.01-1.24-.31-.31c.25-.25.74-.27.89-.35.1-.06.1-.3.26-.38.13-.07,1.16.25,1.4-.2.23.12.17.46.27.58ZM40.64,59.82c-.18-.24-.74-.85-1.03-.77-.37.1-1.12,1.2-1.37,1.59-.12.2-.14.58-.22.64-.13.11-.31-.03-.53.42-.49.98-.47,1.76-.73,2.74-.13.48-.6.99-.65,1.2-.04.17.41.57-.22,1.02.79.27.03.38-.1.59-.16.24-.6,1.48-.05,1.35v.15c-.46-.02-.48.86-.62,1.24.57-.28,1.24-.18,1.25-.93l1.47.13.15-.3,1.56.46c.07-.57,1.27.1,1.31-.6l.38.46.86-.55c-.58-.63.35-1.2-.47-1.53l.31-.7c-1.12.11-.17-1.23-.15-1.63,0-.12-.25-.05-.29-.15s.13-.58.08-.67c-.3-.62-.62-1.73-.81-2.58-.16-.73.16-.48.19-.62.07-.27-.17-.73-.34-.95Z"/><path d="M82.38,57.63c.19.33-.23.86.35.97l-.46,1.48h.47c-.59.84,1.05,1.14-.16,1.78l.3.09-.15.52.32.16c-.43.39-.13.77-.09,1.25.06.61-.3.7.54.86-.21.28.03,1.6-.01,1.67s-.55.11-.4.72c.03.11.23.07.25.15.02.08-.13.38-.11.47.01.05.39.08.24.73-.07.33-.34.66-.36.82-.06.52.53.36.55.39.1.11-.35,1.21-.26,1.6s.74.65.11,1.11l.61.24-.13,1.16.29.14c-.56.58-.2,1.22.27,1.71l-.43.85.62.16c-1,.61.06,1.28.12,2.13.02.33-.16.63-.12.97h.7c.21.33.05,1.03.11,1.32.01.06.53.87.55.93.1.36.14.94.12,1.32l.63.31c.26-.19.96-.57,1.09-.85.09-.21.18-1.04-.25-.87l.56-.62.53.16c-.02-.33-.2-1.22-.05-1.51.17-.32.42-.11.53-.29.13-.19-.11-.74.29-.92l-.77-.31c.35-.38-.02-.99.62-1.01v-.15c-.48.1-.35-1.56.31-1.24.14-.53-.46-.94-.46-1,.08-.76,1.08-1.8.3-2.8l.32-.16-.32-1.7.31-.15-.31-.15c.44-.52.64-1.02.62-1.7l-.31.08.17-.84-.32-.24c.82-.19.58-1.38.69-1.94.04-.19.29-.37.32-.53s-.29-.5-.16-.8l-.55-.15c.15-.25.17-.58.31-.82.07-.12.3-.1.3-.11.1-.18-.26-.4-.24-.62.04-.4.66-.94.38-1.53h-.45s.02-.22.02-.22c.21-.2.15-.76.23-.88.22-.34.71-.25.54-1.12-.04-.2-.46-.17-.47-.42.48.09.08-.49.46-.71.16-.09.42.08.63.02.27-.08.39-.37.77-.34.64.06,1.7.7,1.7,1.42l-.29.13c-.05.73.34,1.82.27,2.49-.05.52-.75,1.74-.13,1.86l-.31.54c1.34-.25.06,1.15-.28,1.47l.13,1.32h.61c-.09.45-.04.65-.62.62l.47.54c-.88.55-.43,1.74-.51,2.61-.09,1.03-.16,2.53-.3,3.46-.16,1.05-.22,1.21-.18,2.4.02.52.5.7-.24.98l.62.39-.29.07c.08.24.14.98.04,1.17-.06.11-.82.96-.83,1.03-.03.18.2.51.04.79s-.46.34-.48.37-.02.78,0,.82c.06.26.48.13.44.4-1.02.14-.69.99-1.24,1.63l.62.23c-.6.16-.02.74-1.08.31l-.02.6-.59.26.12.66-.74.59c-.02.12.41.58.14.83-.01.01-.2-.16-.27-.11-.04.02-.02.23-.14.26-.27.07-.64-.05-.91.15l-.14-.3c-.6.82-1.28-.37-1.55-.31l-.31.77c-.85-.27-.67-.89-.88-1.21-.16-.24-.81.02-.43-.5l-.39.31c-.16-.45-1.01-.54-1.13-.65-.1-.1-.76-1.99-.66-2.29l-.46.15c.3-.5-.2-.69-.26-.82-.18-.38-.04-.66-.12-1.04s-.33-.71-.24-1.15l-.47-.1c-.07-.26.25-.08.29-.23.03-.11-.27-.74.02-1.01h-.62c-.06-.06.13-1.07.12-1.31-.02-.38-.18-1.69-.27-1.99-.06-.2-.51-.24-.6-.5,0-.26.43-.41.44-.5.04-.19-.16-1.94-.25-2.07-.21-.3-.61,0-.21-.96.05-.12.3-.13.29-.19-.02-.21-.38-.6-.41-.81-.06-.41.32-1.12.19-1.68-.07-.29-.48-.68-.5-1.21-.03-.62.43-.78.42-1.34l-.78-.16c.2-.51.22-1.07.78-1.32l-.3-.09.14-.76h-.47s0-.62,0-.62h.62c-.14-.7-.63-1.59-.58-2.28.02-.25.25-.46.28-.89.07-.79-.21-2-.29-2.81l.43-.22v-.3s-.31-.08-.31-.08c.3-.9,1.04-.92,1.86-1.16.07.05.45,1.32.58,1.55.05.09.28.12.32.18Z"/><path d="M19.59,4.57s-.02-.23.09-.26c.53-.16.81.65,1.41.55.22-.03.11-.55.45-.42.33.13.32.66.49.79.08.06,1.38.33,1.8.6.16.1.8.82.93.9.18.1.44-.05.59.13.19.22.23.86.38,1.13s.54.42.64.73c.11.35-.11,1.37-.08,1.84.02.3.28.53.27.77,0,.35-.68,1.09-.77,1.55-.07.38.16.15.31.08l-.02.61-.43.03c.04.13-.72,1.38-.83,1.49-.13.12-.8.19-1,.49l-.2-.05c-.94-.58-.24-1.09-.47-1.95l.31.16c-.44-.65.31-1.28.31-1.63,0-.26-.42-.52-.31-1.08l.48-.16c.05-.28-.17-.95-.32-1.2-.23-.4-1.69-1.47-2.13-1.63-.17-.06-2.74-.38-2.88-.35s0,.52-.72.15c0,.69-.62,1.01-1.24.62.45.98-.69,1.03-.9,1.27-.06.07-.09.51-.23.77-.21.37-1.3,1.07-.42,1.44l-.47.48c.43.6-.45,1.56.31,1.84-.14.26-.71,1.21-.72,1.4,0,.06.36,1.14.4,1.21.09.14.38.15.45.36.12.34-.03.73-.13,1.06l.47.16.15,1.47.31-.16c-.08.66.45.76.68,1.25.14.31.14.68.27.95.07.14.61.65.61.69.03.27-.26.53-.09.83.18.34,1.04.66,1.19.83.27.31.04.83.21,1.18.13.28.96.66,1.12.81.23.22.3.77.4.85.17.15.56-.19.42.56l-.31.17c.26.13.39.6.57.71s.57.09.64.17c.07.08.03.48.15.7.2.4.93,1.14.94,1.22.04.18-.2.47-.12.75.06.2.4.2.51.44.18.41.49,1.59.26,1.98l.62.23c-.61.65-.12,1.32,0,2.03.05.33-.36.46.18.61-.61.77.15,1.59,0,2.29-.03.12-.3.09-.29.17.03.47.26,1.16-.48,1.33l.47.15c.08.05-.77,1.54-.93,1.4l.31.46c-.75,0-.8.92-1.55.93.02.24.46.27.16.54-.47.42-.75-.2-.93-.07-.03.03-.03.29-.15.38-.1.07-.48-.08-.69.07-.14.1-.06.34-.14.42-.72.74-1.2.41-2.05.44-.21,0-.4.23-.63.24s-3.17-.34-3.33-.4c-.2-.08-.35-.46-.8-.59-.3-.08-.57.08-.58.06-.03-.04.05-.28-.04-.42-.08-.12-.37-.17-.51-.35-.43-.56-.52-1.12-1.16-1.48.11-.07.62-.61.62-.65.02-.16-.16-.35-.08-.52.27-.53,1.08-.53,1.6-.36.56.19.43.77,1.25.37l.17.93.86.16.31-.32c.21.28.92.52,1.22.33l.1-.64c.78-.11,1.18.58,2.01.23.33-.14.47-.62.66-.8.05-.05.36.2.6-.43.15-.39.01-.67.07-.88.09-.32.46-.59.46-1.06,0-.27-.37-.57-.24-.94h.62c.08-.08-.88-1.66,0-1.78-.68-.22-.26-.82-.47-1.47l-.46.15c-.09-.34.13-.71.13-1.01-.02-.92-1.19-1.59-1.51-2.34-.18-.42.03-.96-.05-1.1-.02-.04-.21-.06-.27-.15-.32-.48-.29-.92-1.09-.66l.12-.28c-.45-.09-.39-.48-.59-.74-.11-.15-.38-.17-.43-.26-.12-.19-.03-.74-.22-1.1-.09-.17-.79-.92-.87-1.07-.07-.13.12-.42-.02-.63-.15-.23-.52-.18-.62-.28-.03-.03.11-.39-.1-.74-.2-.32-.6-.42-.7-.58-.61-1.05-.77-2.44-1.23-3.51-.06-.14-.58,0-.71-.72-.1-.55.33-.7-.39-1.03.32-.63-.3-1.19-.29-1.86,0-.34.25-.47.26-.72.04-.64-.62-1.3-.35-2.2.08-.28.49-.47.49-.78,0-.21-.37-.53-.26-.85h.47c.13-.48-.47-.17-.32-.69.54-.39,1.43-1.48.47-1.86.25-.68.74-.07.53-.86l.56-.15-.31-.62c.29-.06,1.23-.48,1.37-.65.02-.03-.11-.21-.08-.25.52-.52,1.14-1.28,1.8-1.5.22-.07.57.07.6.04.11-.09.16-.41.49-.64.08-.06,1.85-.56,1.95-.55.27,0,.62.31.68.27Z"/><path d="M135.94,8.15c.08.06,1.58-.49,1.93-.47.59.02.48.69.93.48.22-.1.13-.49.39-.46.26.44-.06.79-.07,1-.02.24.12.51.09.78-.05.6-.57.49.14,1.16-.89.18-2.19-.36-2.33.93-.41.05-.81-.61-.88-.63-.09-.02-1.71-.01-1.8,0-.13.03-.03.3-.33.32-.45.03-2.81-.23-3.03-.01.13.38.07.95.16,1.29.04.16.44.04.28.47-.07.2-.35.31-.42.53-.04.14.16,1.68.21,1.76.06.1.32.09.37.22.03.08-.21.93-.21,1.15,0,.45.58.86-.23,1.18v.22s.32.09.32.09l-.46,1.56.29.13c-.61,1.02.09,2.19-.31,3.26l.62.56c.12.09-.61.27-.31.62.06.08.5-.3.54-.44l1.4.26,1.32-.13-.15-.46c.59-.2,1.07.36,1.49.42.2.03.5-.2.69-.05.13.11.08.42.19.52.08.08.33-.03.43.14.38.67-.36,1.38-.32,1.52l.47.39c-.52.44-.95,0-1.13.03-.09.01-1.56.42-1.64.47-.13.08-.03.52-.57.44-.13-.81-1.24.54-1.33-.3l-.29-.02c-.06.89-1.15.31-1.38.7-.44.96-.23,1.93-.33,2.93l.45.09.03.68-.48.08c.31.45-.26,1.04.31,1.16-.46.35-.44.84-.3,1.36.04.13.23.12.26.19.17.49-.69,1.07.04,1.23l-.28.94.59.77-.46.86c1.01-.21.05,1.68,1.09,1.09-.48,1.05.74.87.47,1.7h.47s-.16-.46-.16-.46c.34.15.49-.26.55-.27.74-.19,1.47.54,1.69-.98.24-.25.56.04.8-.13.19-.13.09-.42.21-.56.73-.88,1.19-.22.48-1.93.48.14,1.25.42,1.63.02l1,1.16c-.02.14-.11.29-.09.42.04.33.22,1.35.19,1.57-.02.14-.28.89-.4.94-.82-.31-.84.65-1.47,1.01-.22.13-.37-.04-.51.02-.21.09-.5.83-.54.86-.1.07-.7.13-1.01.3-.29.15-.69.76-1.09.94-.72.34-2.48-.31-3.37.19l-.71-1.4c-.36-.24-.3.48-.46.31-.22-.24-.19-.88-.23-.93-.2-.25-.62.05-.7-.71-.06-.55.04-.54-.35-1.2-.12-.2-.35-.23-.39-.29-.08-.13.15-.86.11-1.1-.02-.09-.24-.09-.34-.33-.31-.75-.21-3.02-.21-3.89,0-.6-.81-.61.08-1.4l-.31-.46c.32-.24.74-.85.47-1.21-.11-.15-.31-.1-.32-.11-.02-.04.29-.74.47-.69l-.47-.08.31-.7-.31-.31c.06-.42.55-1.44.58-1.73.06-.53-.58-1.07.04-1.6-.76-.13-.15-1.21-.06-1.71.07-.4-.07-.89.07-1.28.05-.14.29-.12.29-.19,0-.08-.22-1.38-.25-1.45-.07-.2-.36-.18-.37-.28-.04-.46.8-1.76.58-2.45l-.57-.78.46-.47c-.89-.45.52-1.23.32-2.14-.05-.22-.68-.06-.3-.76.25-.46.36-.8.42-1.45.04-.43-.36-.8.19-.92l-.47-.08c-.16-.43.38-.63.43-.87.1-.47-.3-1.41-.88-1.47l.36-1.38c1.34-.81,2.7-.17,4.11-.31l.09-.47,2.47.32.17-.48c.7-.1.74.52.86.61Z"/><path d="M193.77,8.62h.78c-.23.55-.15,1.55.46,1.78-.93.2-.74,2.27-.82,2.37-.15.2-.85.22.04.5-.56.31-.78,1.2-.15,1.47-.32.25-.34.89-.51,1.12-.11.15-.49.18-.54.45-.06.3.3.96-.19,1.38l.29.15c-.02.72-.6,1.35-.68,2.02,0,.07.02,1.11.05,1.26.06.28.26.47.31.74-.53.7-1.54,1.64-.43,2.34l-.78,1.09c.76.26.04.95-.07,1.45-.15.69.06,1.89.01,2.42-.03.35-.68.5.36.78l-.77,1.09.47.08c-.27.61.19,1.16-.46,1.63l.46.31c-.65.54-.29,1.35-.5,1.98-.1.31-.51.38-.43.73l.47.15c-1.34.48-.66.82-.77,1.62-.07.51-.52.28.16,1.09,0,.53-1.23.59-.32.93-.69.59-.04,1.15-.04,1.52,0,.39-.38,1.08-.35,1.58.03.61.3,1.14-.12,1.89-.04.07-.25.1-.32.21-.13.19-.16.49-.32.62-.53.43-1.46-.11-1.95.45-.03-.36-.32-.22-.33-.69-.03-1.19.42-3.86.28-4.79-.04-.29-.45-.54-.39-1.07.04-.32.31-.56.35-.81.09-.56-.16-2.25.7-2.09l-.3-1.31c.68-.31.29-.57.35-1.12.09-.94.13-1.79.26-2.6.08-.51.75-.69-.15-1.1l.46-.62-.31-.17c-.19-.62.41-.58.44-.75.08-.43-1.17-1.03.19-1.18-.37-.55-.4-.74.15-1.16l-.43-.31c-.07-.49.63-.58.53-1.09-.05-.25-.83-.63.06-.85l-.46-.46c.49.02.78-1.13.76-1.49-.02-.26-.34-.45-.3-.53.01-.02.26.06.36-.2.17-.42-.31-.93.25-1.28l-.54-.38c-.25.71-.67,1.04-1.45,1.15-.56.08-1.57-.33-1.81.39-.19-.45-.71-.11-.86-.22-.16-.12-.14-.54-.29-.65-.09-.06-.37.13-.62.02-.16-.07-.44-.46-.64-.62-.17-.14-.59-.22-.61-.25-.08-.11.14-.42.07-.61-.05-.15-.46-.39-.6-.62-.36-.57-.34-1.06-1.17-1.31l.15-.6c-.62-.45-.72-1.49-.78-2.26l-.62.15c.02-.21.16-.87.13-1-.05-.19-.33-.19-.4-.27s-.08-1.5-.51-2.19c-.09-.14-.3-.1-.31-.11-.05-.08.26-.36.28-.56.04-.4-.66-.73.03-.9l-.31-.39,2.23-.3.25.61.62-.31c.28.32-.56,1.63.62,1.24-.04.28-.21.92-.14,1.14.07.21.38.2.43.28.13.2-.42,1.23.8,1.06-.43.6-.16.94-.16,1.55l.62-.31.03,1.84.46.11c.38,1.3,1.55,2.34,2.86,1.4.68-.49,1.07-1.28,1.28-2.08.11-.43-.39-.6.8-.82l-.14-.9c.24.08,1.07-.65,1.09-.74.11-.49-.43-1.42.61-1.6l-.28-.54c.39-.47.68-1.3.74-1.94.91.35.68-.09.96-.2s.59-.08.89-.12v-.45c.48.2.7.25.48.78Z"/><path d="M42.99,6.65c.6.34.54.1,1.17.28.13.04.12.44.89.15v.6s.93.17.93.17c.2.42-.31.49-.32.55-.03.3.41.75.23,1.16l-.22.23c-.47-.02-1.17.12-.93.7l-.61-.02-.02-.44c-.28.13-.51-.11-.46.3h-.15c0-.65-1.1-.03-1.47-.02-.42,0-1.23-.43-1.56-.39-.18.02-.29.37-.62.41s-.9-.24-1.28-.27-.81.22-1.28-.04c-.09.27-.09.7-.24.93-.09.13-.33.14-.36.18-.05.07.53,1.04.45,1.61-.04.33-.31.14-.33.45-.05.84.34.88.32.93-.04.15-.27.24-.24.56.03.28.34.61.33.84,0,.16-.26.5-.19.96.06.43.59.71-.05.9.65.51-.35,1.48.62,1.32l-.47,1.46c.52.11.34,1.11,0,1.41l.31.15c-.54.55.03,1.38-.29,2.03l.29.14c-.1.09-.24.21-.28.35-.05.21.02,2.25.12,2.42.12.22.49.01.47.18-.61,1-.95,1.69-.62,2.87l.31-.16c.26.81-.5.91-.15,1.47l-.3.15c.13.62.16.95.76,1.25-.88.91-.29,1.48-.38,2.39-.03.35-.35,1.31-.34,1.6.02.66.45,1.65.43,2.22-.03.63-.46.73-.15,1.82.04.14.29.13.29.18,0,.17-.62,1.3-.92,1.17l.47.62-2.23.45c-.38-.17-.44-.53-.41-.91l-.38.15-.24-.23c.47-.48-.02-.86-.02-1.55,0-.44.16-.82.17-1.23.02-.93-.17-1.72.14-2.63l-.61-.33c.71-.31.55-1.15.62-1.78l-.46-.08.32-.78-.32-.3c.35-.49.35-.98.2-1.54.56-.66-.22-.82-.2-1.09.04-.62.53-.59.62-.79-.31-.03-.35-.51-.32-.78.04-.31.27-.19.29-.3.06-.41-.04-1.01-.42-1.24l.29-.39h-.47c.13-.26.12-.6.21-.85.04-.12.34-.14.36-.65.03-.62-.34-.58-.46-1.01-.31-1.08.38-2.78.36-3.62,0-.41-.73-.5.17-.95l-.17-.53c-1.07.44-.08-.63-.04-.87.12-.69-.16-2.05-.03-2.76.06-.34.48-.72.38-1.16h-.47c.09-.29.05-.71.16-.97.05-.13.31-.13.31-.2,0-.22-.26-.43-.28-.63-.03-.27.21-.53.23-.79.06-.71-.33-1.18-.12-1.74l-.62.16v-.47c-.85.75-2.3-.54-3.16-.31-.06.02-.49.79-.57-.31l-.45.15c-.17-.52-1.04-.87-.77-1.59.03-.08.7-.73.83-.74.63-.08.97.23,1.51.3.82.1,2.74-.37,3.61-.44.4-.04,1.12.17,1.24.14.19-.05.18-.42.34-.46.36-.08.97.46,1.53.4s1.72-.49,2.18-.54c.66-.08.85.69,1.26-.14.24.06,1.65.13,1.72.17Z"/><path d="M128.24,57.22c.05.06.23.05.25.17.03.32-.21.52,0,1.01.07.15.55.38.55.67,0,.14-.2.31-.21.48,0,.26.26,2.2.31,2.31.08.19.49.24.57.62l-.3.38h.47c-.22.94-.61,1.92-.2,2.84-.44.72-.19,2.31.35,2.98-.93.35.08,1.45.13,2.05.02.31-.19.45-.21.77-.04.48.48,1.62.51,1.83.08.48.23,1.65-.43,1.63.46.48.31,1.11.15,1.7h.62c.17.09-.48,1.95-.47,2.08,0,.04.45.26.4.63-.09.67-.22.24-.02,1.16.08.34-.28.39.38.7-.57.75-.04.85-.02.93.22.88-.18,1.52-.27,2.18,0,.06.74.33.31,1l.62-.08-.33.84h-.52s-.57,1.39-.57,1.39c-.44-.25-1.01.15-1.3.11-.05,0-.78-.41-.81-.44-.4-.47-.16-1.95-.81-2.37.89-.4-1.05-1.73.31-2.09-.5-.45,0-.7.16-1.23-.57.22-.69-.69-.58-.98.08-.22.37-.36.39-.49.03-.19-1.17-1.15-.27-1.39-.03-.48-.79-.16-.15-.93l-.31-.3c.16-.35.39-.88.15-1.22-.18-.26-.55.09-.03-.78.01-.43-.42-.39-.44-.42-.06-.1.31-.26.29-.51-.02-.22-.5-.72-.25-1.01.06-.06.75-.1-.02-.41.25-.56.04-1-.33-1.24.59-.67,0-1.6.15-2.41l-.31-.08.31-.08v-.31s-.43-.02-.43-.02l-.19-.82c.51-.15.2-.79.24-1.25.02-.27.61-.85-.08-.86.36-.36.17-.62.15-1.08l-.31.16.14-1.02-.3-.14.46-1.24-.47-.08c-.04-.34.37-.82.4-1,.1-.78-.38-3.26-.14-3.92.06-.17.29-.17.32-.23.09-.17-.01-.46.07-.56.03-.03.59-.04.68-.48.57.2.87.41,1.23.87Z"/><path d="M54.24,57.55c.03.06.38.14.38.46,0,.27-.41.7-.43.91,0,.08.25.06.28.15.11.31-.44.99.19,1.08-.37.23-.35,1.25-.12,1.45.1.09.34,0,.43.03.05.02-.2.81-.62.7l.08.39.54-.16-.31.39.28.1v.53s-.43.07-.43.07l.3.22c-.14.33-.36.91-.31,1.25.06.37.4.3.47.5.17.48.25,1.37-.46,1.35.67.48.19,1.11.15,1.78h.47s-.62.62-.62.62c.84.48.16.87.14,1.47-.01.33.17.63.17.93,0,.68-.28,1.29.16,2.01l-.47.08.32.24-.32,1.08h.78s-.3.79-.3.79l-.63-.09c.21.36.3.72.77.62l-.62.62.31.15c-.44.62-.3,1.31-.31,2.01l.46-.15-.31.46h.47c.12.06-.59,1.86-.59,1.97,0,.2.23.37.27.6.14.92.26,1.84.29,2.77-.43.14-.49.71-.63.82-.1.08-.36.06-.51.19-.31.27-.27.81-.99.45.15-.64-.5-.74-.99-1.06-.25-.17.08-.41-.73-.16l.28-.17-.06-.45.4-.23-.33-.17.16-.46c-.34-.27-.34-1.3-.49-1.85-.02-.08-.22-.06-.25-.15-.09-.34.38-.81.39-.93,0-.14-.24-.36-.25-.63-.02-.51.27-1.24.26-1.51-.01-.34-.44-.74-.41-.93s.52-.43.55-.8c.02-.35-.38-.37-.41-.5-.06-.27.04-1.69.47-1.7-.22-.31.03-.85-.03-1.04-.07-.21-.36-.19-.43-.33-.05-.12.42-.87.29-1.37-.03-.12-.3-.1-.3-.17.01-.18.25-.54.26-.82.02-.61-.35-1.03.2-1.66l-.47-.31c.59-.36.61-1.34-.16-1.4l.47-1.39-.32-.3.46-.62c-.56-.15-.58-.95-.24-1.33.09-.1.35-.12.38-.16.04-.05-.33-.95-.36-1.21-.04-.29-.07-2.31-.03-2.42.15-.4.78-.47-.06-.7.53-.77,0-2.05.15-2.85.1-.53.95-.82.47-1.64l1.24-.4c.13.1.82,1.39.89,1.6.09.27.05.9.25,1.38Z"/><path d="M100.63,56.78c.13.18.64.42.7.61.09.28-.19,1.04.18,1.52l-.32.32c.33.29.61.49.33.94l.29.07-.29.17c.38.51-.07.87-.1,1.15-.02.17-.09,1.31-.08,1.38.01.11.25.11.32.21.21.3-.25,1.33-.47,1.67l.31.17c-.17.39.15.66-.31.76.2.3.5.17.77.08.18.57-.28.88-.39,1.31s-.13,2.07-.03,2.49c.02.09.25.07.24.15-.03.75-.52,1.81-.53,2.34,0,.27.39.8.1,1.23l.46.08c.16.4-.26.27-.29.38-.06.22.41.66-.17.78l.46.39c-1.18.4-.19,1.55-.88,2.25.83.61-.49,1.41.57,1.32,0,.51-.5.77-.59,1.19-.13.64.32.91.27,1.51-.06.67-.51.91.13,1.4l-.44.49c0,.19.17.42.14.59-.07.32-1.47.88-1.76.88-.35,0-.59-.4-1.01-.17-.1-.88-.27-1.43-1.08-1.78.93-.56.14-1.24.62-1.71-.33-.21-.56-.21-.47-.7l.47-.15-.62-.39c.38-.06.61-.95.6-1.25,0-.12-.22-.09-.27-.16-.61-.74.78-.46-.02-1.23l.46-.23c-.43-.35,0-.73-.45-.84l.14-.71.31.16c.07-.49-.02-.64-.45-.84l.13-1.38.31-.25c-.67-.06-.17-.79-.16-1.02.03-.34-.11-.65-.05-.98.07-.43.56-.38.36-1.49-.08-.41-.7-.87,0-1.09-.49-.27-.08-1.19.15-1.55l-.28-.1.13-.35-.32-.17c.45-.69.13-.65,0-1.09-.03-.09.25-.04.3-.17.04-.12-.02-.77.17-.98l-.47.07.14-.75.49-.1v-1.39s-.47,0-.47,0l.63-1.33c-.35-.37-.27-.44-.21-.96.96-.5.11-1.03.23-1.5.02-.08,1.02-.91.76-1.48l1.16-.15c.24.1.1.35.14.42Z"/><polygon class="cls-1" points="98.08 38.07 98.08 38.38 97.46 38.53 97.46 38.23 98.08 38.07"/></g></svg>