<?xml version="1.0" encoding="UTF-8"?><svg id="Layer_2" xmlns="http://www.w3.org/2000/svg" viewBox="0 0 289.48 107.99"><g id="bariis_iyo_digaag"><path d="M16.17,9.56v-.5c.68.07,1.37.14,2.06.1.49-.03,1.67-.6,1.87.07.99-.56,1.16-.1,1.91.09,1.1.28,2.91.78,3.79,1.62.37.36.59,1.01,1.3,1.62.6.52,1.19,1.04,1.62,1.88.36.7,1.1,3.66,1.08,4.41s-.85,2.05-.61,2.95c-.76.09-.46.44-.71.82-.36.53-1.55,2.06-2.05,2.45-.52.41-1.9.23-1.76,1.16.83-.25,1.94.65,2.51,1.25.14.15.13.46.25.59.16.18.46.12.54.21.18.2-.25.71.53.29.1.24,0,.62.09.82.35.72,1.77,1.87,2.09,2.59.04.09.32,1.71.33,1.85.06.92-.36,2.54-.28,3.33.02.16.27.29.26.33,0,.12-.38.18-.45.29-.17.26-.06.95-.54,1.21l.33.33c-.93.6-1.13,1.56-1.89,2.36s-1.25.78-2.04,1.22c-.39.22-.68.95-1.02,1.15-.92.51-2.67.58-3.75,1.05-.16.07-.71.64-.76.65-1.28.18-3.03.07-4.29.18-.47.04-1.34.45-1.6.42-.39-.05-.58-.37-.93-.43-.75-.14-2.29.06-3.08-.08-.45-.08-1.1-.52-1.47-.74-.11-.07-.38,0-.53-.1-.51-.34-.4-1.2-.15-1.68-.61-.5-.09-.61-.18-1.14-.02-.13-.36-.04-.36-.34.01-1.12.28-2.42.28-3.71,0-.75,0-3.51-.13-4.14-.02-.12-.41,0-.31-.5.01-.05.53-.13.52-.84,0-.31-.32-.21-.35-.35-.09-.46.4-1.69-.18-1.82.1-1.1.68-2.94.33-3.94-.05-.15-.32-.13-.33-.22-.03-.25.46-1.45.46-1.78.01-.46-.37-.98-.39-1.21-.01-.17.27-1.2.27-1.48,0-.11-.34-.02-.36-.34-.02-.45.24-.83.28-1.26.07-.81-.1-1.87-.12-2.76,0-.74-.13-1.67-.12-2.33s.38-2.77.27-3.16c-.03-.12-.31-.04-.31-.16,0-.24.27-.37.3-.54.07-.43-.11-.87.13-1.36.49-1,1.06-.63,1.65-.75.26-.05.57-.38.87-.39.32,0,1.86.58,1.97.58s.29-.29.65-.28c.57.01,1.8.42,2.44.5ZM19.48,11.85c-.1.04-1.46-.34-2.04-.27-1.23.15-.74.23-2.02.13-.5-.04-1.14.33-1.3.31-.27-.03-.69-.36-1.07-.42-.29-.05-1.55-.18-1.78-.16-1.3.15-.45,2.86-.43,3.71.01.47-.29,1.71-.27,1.92.02.28.33.61.35.9.03.4-.3.99-.26,1.32.01.12.27.09.3.19.16.54.18,3.06.04,3.64-.03.13-.29.09-.3.19-.11.89.42,2.03.41,2.17,0,.21-.41,1.33-.42,1.66-.04,1.04.29,2.25.4,3.18.06.59-.42,1.17-.42,1.66,0,.57.36,1.62.3,2.2-.06.52-.46.92-.29,1.61.03.13.34.12.33.19-.26,2.04.04,3.71.09,5.66,0,.26-.12.53-.1.84.07,1.08.32.55.68.66.87.28.83.13,1.39.26.13.03.1.28.22.32.6.19,1.64-.59,2.15.01l.16-.34.67.34.17-.34c2.79.32,5.69-.64,8.18-1.99.34-.18,2.1-1.13,2.19-1.22.23-.21.08-.73.81-.78l-.1-.51h.5c-.1-.39-.12-1.2,0-1.55.07-.2.39-.16.47-.4.06-.18-.11-.63.02-.89h-.5s.5-3,.5-3h-.5c.22-.48-.31-1.63-.66-1.93-.33-.28-.64-.19-.84-.33-.34-.24-.64-1.1-1.49-1.68-.11-.08-.14-.33-.2-.37-.06-.04-.27.12-.36.08-1.92-.88-4.47-.68-6.54-.59-.21.71-.67.02-.99.04-.12,0-.27.24-.47.24-.06,0-1.15-.42-1.2-.46-.54-.46-.52-1.81.21-2.13.2-.09,1.13-.33,1.33-.34.8-.04,1.93.4,2.48-.51l.4.14v-.5c2.38.02,4.79-1.02,6.31-2.94.55-.69.63-1.2.91-1.86.02-.05.31-.05.39-.36.09-.32.07-2.45-.43-2.35.72-.87-.23-.75-.35-.93-.17-.25-.08-.69-.16-.94-.05-.14-.7-.54-.69-.94-.82.3-.49-.44-.87-1.03-.42-.64-2.05-1.38-2.77-1.57-.62-.17-1.92-.34-2.47-.2-.04,0-.03.23-.06.24Z"/><path d="M59.72,10.56c-.11.92.73.92,1.23,1.55.17.22.12.45.22.62s.55.19.39.67l.5-.17c.03.5.08,1.09.19,1.57.23,1,1.08,3.42.97,4.34-.13,1.09-.19,1.94-.43,3.04-.04.18.1.38.02.71-.17.7-.86.92-1.02,1.24-.09.17-.42,1.23-.48,1.28-.21.21-.5.1-.69.22-.45.29-.38.91-.55,1.04-.13.1-.37-.24-.95.47-.09.11-.02.36-.07.41-.09.08-.83-.12-.81.44,0,.22.64.25.82.35.26.15.75.68.96.71s.31-.27.55-.22c.52.09.51.75.73.93.26.21.66.08.93.24.31.18.44.93.66,1.17s.58.18.69.35c.24.35.58,1.06.85,1.45.79,1.16,1.29,1.3,1.78,2.87.17.55.3,1.77.52,2.13.12.21.44.01.51.21.08.22-.02.71.07.99.06.21.36.32.42.66.3,1.55.29.81.75,1.76.1.21.04.86.38,1.21l-.8,1.94c-.06.05-1.04-.15-1.16-.24-.37-.28,0-1.25-.81-1.1-.05-.65.11-1.21-.35-1.75-.13-.15-.44-.2-.48-.27-.08-.13.12-.58.01-.9-.11-.33-.45-.3-.52-.51-.05-.17.11-.52.05-.86-.08-.43-.36-.66-.44-.92-.55-1.87-1.19-3.23-2.36-4.78-.28-.37-.89-1.02-1.36-1.5-.25-.25-2.56-1.43-2.85-1.46-1.12-.11-2.08-.14-3.15-.53-.37-.13-1.36-.95-1.35-.17,0,.38.28.93.28,1.41,0,.43-.19.84-.19,1.32.01,1.36.15,2.81.15,4,0,.57-.39,1.42.19,1.85l-.33.08.11.33c.66.13-.63.72.19.91.04.62-.34,2.68-.3,2.82.03.12.29.1.33.22.11.45-.42,2.66-.91,2.67-.68-.15-1.64-.99-1.71-1.72s-.02-2.35,0-3.14c0-.27.29-1.05.25-1.17-.03-.09-.28-.06-.31-.2-.13-.63,0-2.07.18-2.79l-.35-.19.19-.64-.35-.18c0-.24.63-.96.67-1.34,0-.07-.3-.06-.33-.18-.14-.56.43-1.14.13-1.98-.04-.1-.29-.08-.3-.17-.04-.42,1-1.54-.16-1.42-.05-.61.43-.58.5-.66.04-.04-.35-.81-.4-1.08-.16-1.01.01-2,.03-2.86.06-2.77-.16-5.47-.31-8.15-.03-.53.46-.83-.16-.99.61-.82.27-1.63.2-2.5-.06-.74.16-1.58.1-2.3-.05-.61-.54-.93.21-1.7.7-.71,1.8,0,2.58,0,1.84,0,2.4-.58,4.63.11.52.16.85,1.28,1.62.47ZM58.55,12.9s-1.12-.54-1.2-.56c-.74-.21-2.1-.03-2.9-.42-.1.45-.47.23-.69.37-.49.32-.32.7-.46,1.12-.28.81-.45,1.29-.42,2.25s.3,1.33.26,2.22c-.07,1.49.2,2.98-.11,4.43l.34.17c-.26.47-.68,1.47,0,1.67-.31.4-.38,1.5-.35,2.01.02.36.42.17.35.49-.07.36-.53.73-.34,1.26.25-.14.56-.14.82-.26,1.16-.57,3.65-1.89,4.53-2.82.33-.34.94-1.82,1.02-1.89.12-.12.5-.09.6-.23.06-.08.39-1.35.54-1.67.07-.14.33-.12.33-.21-.02-.35-.71-.94-.17-1.65-.7-.22-.11-.79-.17-1.33-.12-1.06-1.06-3.22-1.67-4.14-.1-.15-.37-.2-.43-.29-.11-.19.11-.47.09-.49Z"/><path d="M43.64,12.45c.26.52.57,1.51.69,2.08.06.27-.11.57-.05.71.1.22.55.24.59.44.07.31-.19,1.26-.08,1.79.71,3.36,1.17,5,1.4,8.52.07,1.03.19,2.05.41,2.96.34,1.39.29,3.06.7,4.79.08.35-.08.73,0,.96.07.21.39.19.4.31.04.56-.18,2.08.34,2.33l-.19.8c.64.58.24,2.53.39,3.49.03.21.31.43.36.76.13,1.01.29,2.18-.44,2.99-1.35.22-1.8-1.13-1.95-2.24-.07-.52.08-1.19-.02-1.62-.03-.13-.31-.1-.33-.23-.27-1.36-.4-3.68-.53-5.08-.02-.26-.24-1.34-.33-1.52-.13-.27-.48-.24-.47-.37.01-.21.25-.35.27-.49.03-.23-.2-.67-.22-1.01-.04-.78.44-1.08-.59-1.45-1.08-.39-.88.16-1.07.2-.43.11-1.11-.38-1.47-.35-.4.03-.33.47-.53.52-.28.06-1.04-.19-1.29-.17-.11,0-.08.3-.21.33-.38.09-.77-.13-1.12-.11-.37.02-2.63.32-2.71.43-.19.3.13.62.1.9,0,.09-.26.06-.36.35-.18.52-.3,1.82-.44,2.43-.52,2.29-.96,4.82-1.62,6.99-.33,1.1-.9,1.14-1.92,1.49-.08-.45-.59-.73-1.01-.49.14-.28,0-.88.05-1.06.07-.26.41-.38.44-.55.04-.19-.3-.36-.25-.57.06-.25.42-.47.52-.73.15-.4.05-1.33.41-1.49.13-.06.33.08.33.06.16-.27-.21-.97-.17-1.23.02-.11.33-.08.35-.21.02-.16-.16-.38-.09-.57s.49-.34.56-.61-.17-.54-.15-.78c0-.07.46-.37.51-1.2.02-.37-.22-1.06-.17-1.28.12-.52.66-1.4.79-2.41.27-2.18.44-4.44.96-6.62.1-.41.67-1.62.71-1.86.06-.31-.55-.92.09-1.35.24-.16.56.17.45-.46l-.34-.16.65-1.53-.32-.31c.39-.3.24-.8.34-1.13.05-.15.31-.12.33-.23.06-.31-.18-.59-.18-.8,0-.04.2-.36.32-.68.36-.9,1.06-2.19,1.32-3.04.05-.17-.1-.38-.04-.55.13-.35.81-.59.88-.7.06-.09-.11-.35-.02-.58.22-.56.92-1.17,1.36-1.48.15-.1.16-.34.22-.38.11-.08.33.16.44.11.03-.01.02-.29.12-.31.21-.04,1.34.54,1.48.69.65.73.67,1.5.96,2.21.09.22.36.25.4.34ZM41.89,16.53c-.13-.22.13-.65.07-.98s-.37-.67-.46-1.06c-.14-.58.06-1.27-.47-1.69-.61-.32-.8,1.04-.97,1.38-.34.66-.77,1.14-1.04,1.96-.16.49.46-.18.34.33-.8.34-.3.48-.38.8-.62,2.22-1.15,4.18-1.6,6.38-.17.84-.21,1.82-.42,2.61-.1.35-.73,1.38-.68,1.7.07.47.53.6-.08,1.33.04.17.56.35.75.35.5,0,2.15-.36,2.79-.47.46-.08.92-.39,1.39-.45.86-.1,3.27.6,3.03-.76-.02-.1-.23-.08-.24-.11-.04-.16-.17-.83-.18-.92-.04-.37.17-1.6.09-1.8-.06-.14-.32-.13-.42-.33-.11-.21.25-.74.26-1,0-.55-.25-2.46-.34-3.13-.12-.85-.68-1.58-.65-2.45h-.48c-.11-.34.3-1.2.3-1.26,0-.23-.56-.37-.6-.44Z"/><path d="M78.63,53.35c.11.1.37.07.52.22.45.45.44,1.12.6,1.54.07.17.55.27.34.95l.47.02c.08.55-.19,1-.15,1.56.04.58.56,1.73.66,2.36.05.31.13,1.01.17,1.33.08.77-.65,1.69.18,2.5l-.34.32c.02.57.47.56.49.6.05.08-.25.28-.3.45-.17.69.19.91.25,1.43.07.72-.16,1.25.24,2.04l-.52.67c.6.15.14.88.35,1.46.05.15.33.13.32.2-.03.33-.57,1-.59,1.34-.03.42.37.93.37,1.17,0,.15-.16.88-.2,1.27-.07.69-.53,1.09.27,1.4-.59.76.01,1.18.11,1.8.05.31-.17.85-.11,1.34.08.66.45,1.14.46,1.87,0,.39-.19.76-.16,1.16.03.38.34.6.36.84.03.39-.49.65-.18,1.06-2.3.75-2.74-.07-2.81-2.26-.01-.42.35-1.17.1-1.53-.05-.07-.27-.02-.28-.04-.05-.07.47-1.2.17-1.71-1.07-.64-.12-.64-.16-1.2-.02-.34-.41-.2-.43-.66-.02-.38.27-2.07.23-2.18-.03-.09-.24-.07-.26-.11-.17-.35.95-1.73-.19-1.99l.13-.97c-.08-.11-1.51-.05-1.71,0-.12.03-.09.27-.24.32-1.14.33-2.98.74-4.17.97-.43.08-1.85-.22-2.02-.11-.33.42-.04,1-.11,1.34-.06.3-.69.96-.75,1.4l.34.16c-.09.47-.52.37-.62.46-.04.04-.47.89-.48.95-.08.35.38.6.38.76,0,.12-.27.3-.33.46-.3.84-.64,1.84-.88,2.79-.07.29-.11.99-.1,1.32-.4-.02-1.42.83-1.74.8-.05,0-.81-.58-.84-.62-.16-.25.19-2.44.29-2.88.24-.98.81-1.91,1.08-2.92.2-.75.29-2.48.55-3.07.1-.22.36-.21.5-.38l-.32-.31c.48-.76.69-1.63,1.01-2.46.38-.98.17-.59.31-1.54.08-.52.67-.81,0-1.03v-.31c.07-.36.47-.56.57-.97.08-.33-.18-.42-.15-.63.06-.47.58-.93.68-1.25.06-.2-.12-.65-.05-.81.09-.22.39-.19.46-.39.37-1.01.48-2.44.82-3.46.2-.58.47-1.18.85-1.67l-.34-.16c.35-.59.98-.72,1.31-1.4.44-.89.09-.63.08-1.1,0-.56.75-.57,1.04-.9.31-.35.21-.86.49-1.18.19-.22.55-.25.74-.43.97-.95.94-1.56,2.63-.61.41.23.38.45.6.65ZM77.53,55.78c-1.09-.93-1.44.92-1.79,1.5-.84,1.41-1.34,2.69-2.07,3.98-.66,1.16-.09,1.11-.11,1.4,0,.06-.72.43-.79.87-.05.31.17.55.15.78-.01.16-.46-.02-.35.35l.32.09v.24c-.86.44-.69,1.7-1.16,2.51l.35.32c-.36.37-.27,1.16-.67,1.09l.31.18-.65,1.15c.85-.32,2.39.37,2.68-.66l.99.33v-.5c1.48.86,2.49-.94,3.93-.53l.23-.23c-.06-.48-.15-1.18-.14-1.64s.3-1.63.07-2.1c-.07-.15-.36-.26-.4-.44-.04-.22.24-.44.25-.64s-.21-.45-.22-.69c-.03-1.11.18-3.54-.05-4.45-.05-.19-.4-.19-.5-.37l.32-.48c-.78-.38-.29-1.71-.7-2.06Z"/><path d="M142.99,9.7l1.04-.46c.65.26.73,1.01,1.27,1.16v.32c-.53-.04-.35.65-.29,1.06.13.86.4,1.73.8,2.54l-.35.17c-.05.53.51.8.52.85.03.28-.22.67-.17,1.13s.67,1.42.82,2.38.23,1.61.36,2.62c.04.32.32.61.31.85s-.3.43-.33.68c-.04.38.31.66.33,1,.02.26-.05,1.31-.07,1.67,0,.14-.29.33-.26.49s.49.19.52.36c.02.16-.14.42-.14.64-.01,1.03-.28.99-.35,1.54-.06.43.48,1.04.13,2.08-.14.44-.14-.05-.2.89s-.33,1.58-.49,2.45c-.55,2.88-1.66,4.98-2.79,7.59-.12.28-.38,1.47-.43,1.53-.28.39-1.51.46-1.08,1.34-.41-.15-.87.29-1.12.3-.1,0-1.72-.61-1.87-.74-.47-.39-1.01-1.53-1.6-1.55-.43-1.53-1.31-2.55-1.85-3.97-.18-.48-.03-.98-.1-1.26-.05-.21-.46-.47-.57-.94-.14-.59-.32-1.96-.4-2.62-.04-.35.2-.7.13-.94-.05-.21-.39-.34-.42-.53-.04-.27.32-.91.29-1.35-.02-.32-.36-.24-.35-.32.02-.14.24-.4.28-.7.05-.38-.41-.65.22-.81-.65-.48-.2-1.13-.18-1.69.03-.74,0-1.37.15-2.17.11-.57.48-.49.03-1.23h.33s-.34-.25-.34-.25c-.05-.39.33-.59.42-.89.11-.38-.15-1.17-.07-1.59.09-.52.6-1.58.67-2.2l-.34-.49c.96-.44.48-.73.59-1.27.06-.32.57-.71.67-1.07.33-1.09.3-1.29.91-2.38.21-.39.01-.87.13-1.16.15-.39.67-.64.88-.96.44-.63.11-.38.77-.98s1.4-1.6,2.35-1.57c.25,0,.4.3.6.27.3-.05.35-.67.64.17ZM142.64,13.56c-.29-.71.24-1.21,0-2-1.29.08-1.36.79-1.95,1.63-.13.18-.87,1.08-.89,1.15-.03.15.12.37.07.57-.09.39-.91,1.55-1.04,1.94-.6,1.76-1.5,5.94-1.61,7.72-.03.51-.49.99.08,1.08v.34s-.34.16-.34.16c.66.53.05,1.09.06,1.51.03.72,0,1.34.04,2.14,0,.2-.16.45-.12.67l.35.19-.51,1.08h.5c-.27.59-.33,1.61-.18,2.25.08.33.33.24.32.32-.09,1.34.3.93.36,1.21.18.88-.27,1.31.37,2.61.43.88,1.34,2.5,1.97,3.24.21.24.3.66.58.87.35,0,.67-1.89.84-2.16.58-.94.9-1.14,1.33-2.34.59-1.62.81-2.2.96-3.88.04-.43.6-.9.64-1.37.05-.56-.3-.89-.3-1,0-.13.3-.35.36-.57.1-.42-.02-1.09.07-1.6.23-1.36-.01-1.37,0-2.66.02-1.1.34-2.69.18-3.64-.02-.13-.32-.1-.34-.22-.09-.57.08-2.18.09-2.74,0-.14-.21-1.24-.26-1.36-.1-.22-.45-.23-.49-.39-.05-.21.3-.45.26-.76-.04-.29-.37-.31-.39-.36s-.32-.86-.34-.91c-.11-.38-.1-1.13-.03-1.55h-.5s.33-1.34.33-1.34l-.5.17Z"/><path d="M13.62,52.47c1.26.78.96.49,2.22.89,1.41.45,2.27,1.61,3.46,1.99.28.09.38-.4.56.56.28-.06.46-.22.65.09l-.17.58.5-.17c-.03.29,0,.51.16.76.19.32,1.44,1.16,1.63,1.45s.43,1.5.59,1.74c.83,1.28.92,2.34,1.49,3.77.1.26.44.23.48.39.08.36-.25.78-.26,1.13-.04,1.08.16,2.42.09,3.51-.03.4-.3.8-.3,1.03s.29.38.27.61c-.03.48-.9,1.82-.91,2.04,0,.18.25.38.24.5-.02.32-.67.35-.81.53-.25.33-.26,1.32-.47,1.62-.11.15-.38.04-.53.21-.18.21-.21.75-.38,1.01-.2.3-.92.79-1.18,1.07-.64.71-2.79,3.27-3.44,3.56-.27.12-.61.03-.79.13-.1.06-.16.45-.59.67-1.12.57-3.16-.07-3.88,1.63l-.33-.33-.5.33c-1-1.9-.73-4.05-.26-6.08-.68-.84-.05-1.6-.2-2.47-.1-.59-.66-.23-.42-1.32.05-.23.71-.9-.05-.71.21-.51,0-1.03.03-1.47.01-.19.27-.41.26-.54-.01-.16-.42-.29-.45-.65-.02-.33.27-.94.29-1.37.03-.62-.16-1.23-.15-1.81,0-.53.18-3.06.01-3.25l-.33.08.33-3.15c-.26-1.76-.29-3.64,0-5.36.07-.39-.11-1.69-.11-2.16.23-.09.6-.67.65-.7.23-.12.57.01.85-.05.4-.08.51-1.02,1.73-.27ZM13.95,55.47c-.18-.12-.37-.24-.52-.4-.32,0-.6,1.89-.55,2.25.01.11.25.07.28.16.02.07-.3.95-.28,1.35.17,4.71.2,9.56.39,14.15.05,1.28,0,2.44.26,3.66l-.35.2c.41.98.25,2.04.18,3.07,1.74.46,2.22-.7,3.28-1.49.18-.13.52-.1.71-.26.24-.19.34-.91.55-1.03.39-.24.63.12,1.01-.71.49-1.08.4-.84,1.3-1.57.33-.27.07-.77.65-.76l-.33-.25c.14-.26.55-.34.68-.54.14-.21,1.08-2.85,1.12-3.18.07-.65-.23-.75-.24-.96-.02-.22.36-.46.4-.69.09-.54.13-2.72-.06-3.19-.08-.2-.39-.19-.4-.31-.03-.3.28-.74.18-1.11-.04-.17-.4-.15-.48-.39-.17-.53-.41-1.32-.65-1.85-.4-.87-1.15-2.28-1.71-2.79-.14-.13-.47-.12-.68-.33s-.4-1.1-.7-1.21c-.25-.09-.48,0-.66-.06-.07-.02-.68-.72-1-.87-.87-.4-1.49-.3-2.35-.89Z"/><path d="M59.26,53.51c.07.05.28-.13.45.15.15.24.15.91.32,1.34.56,1.36.71,2.1.96,3.58.07.44.4.7.07,1.32h.49c-.12.97.05,1.89.52,2.76l-.33.32c.66.88.16,2.43.36,3.18.02.09.29.06.3.17.01.24-.23.82-.24,1.22-.02.55.27,1.64-.27,1.77.57.35.16.67.16.99,0,.1.31.08.34.2.11.5-.3,1.61-.27,1.97.03.33.49,1.33.54,1.76.08.74-.05,2,.07,2.91.03.27.31.47.34.84.03.4-.21.82-.19.99s.43.14.49.36c.03.13-.13.42-.12.65.03.77.3,1.5.21,2.29-.12,1.18-.74,1.37-1.82,1.48l-.12-.47-.47-.14-.16-1.73-.33.17c-.07-.42.23-.85.17-1.24-.12-.79-.05-.58-.06-1.17,0-.27-.69-1.51-.75-1.88-.04-.29.25-.8.24-1.31-.02-.75-.44-1.58-.41-2.16.03-.45.26-.86.27-1.19s-.36-.63-.12-1.05c-.24-.25-.9,1.04-1.29,1.13s-1.46-.18-1.78-.14c-.1.01-.08.28-.23.33-.57.2-1.16-.04-1.59.04-.53.1-1.06.76-1.76.5l-.83,2.27c.07.48.14.65-.21,1.04l.33.08c-.7.39-.29.73-.37,1.12-.08.37-1.07,2.81-1.29,3.02s-.66-.06-.51.61l-.57-.18-.18.35c-.3-.33-.57-.8-.6-1.25s.05-2.02.19-2.45c.04-.13.3-.13.32-.25.03-.19-.16-.42-.05-.68.12-.29.5-.32.55-.49.19-.68-.14-1.28-.13-1.6.01-.41.52-.81.47-1.19l-.35-.18c.62-.9.39-1.73.52-2.66.06-.41.6-.71.15-1.33l.35-.18v-.24c-.4,0-.36-.14-.34-.51h.5c-.57-.79.2-1.07.31-1.45.08-.3-.14-.6-.11-.93.07-.81.63-2.42.97-3.21l-.32-.15c.29-.32-.02-.75.02-.99.04-.2.77-1,.78-1.06.14-.47-.1-1.06.51-1.46l-.33-.5c.54-.26.72-.83.94-1.37.14-.36.32-.83.47-1.23.11-.3.27-1.38.38-1.61.22-.46.9-.87,1.19-1.15.18-.17.75-.91.85-.96.05-.03,1.04-.22,1.09-.21.06,0,.91.61,1.07.72.12.08.14.28.22.33ZM59.25,66.88c-.2-.31.3-1.76.28-2.23-.01-.23-.38-1-.4-1.39-.03-.63.23-.88-.03-1.82-.37-1.34-.68-2.6-1.01-3.99-.11-.48.14-1.05-.29-1.38-.94.18-.54.65-.65.83-.1.16-.47.22-.64.55-.15.29-.04,1.07-.13,1.5-.07.35-.74,1.3-.94,1.76-.49,1.14-.35,2.35-.47,3.38-.07.63-.71,1.42-.81,2.02-.08.44.1.76.04,1.18s-.44.44-.47.57c-.08.38.05.86-.02,1.29-.09.6-.52,1.08-.49,1.76.55.19.93-.4,1.13-.48.37-.16,3.74-.45,4.08-.31.37.15.54.61,1.13.38.18-.13.16-.31.17-.5.05-.87-.05-1.22-.15-2-.03-.25.17-.67.11-.82-.09-.22-.38-.22-.43-.3Z"/><path d="M96.9,53.37l.11-.3h.34c.1.49.28.16.56.26.42.14.84.47,1.36.5.19.53.18,1.65-.22,2.04-.18.18-.6.11-.73.55-.88.1-.68-.62-.73-.68-.12-.13-2.26.33-2.59.5-.12.06-1.53,1.32-1.59,1.41-.18.28-.15.6-.4.94-.29.4-1,.64-1.28,1.07-.2.3-.05.74-.17,1.11-.15.46-.86.72-.92.79-.04.05.22.88-.4,1.1l.33.33c-1.09.73-.87,1.94-1.11,2.92-.05.2-.36.39-.4.75-.06.51.63,0,.5.5-.06.24-.46.59-.58.92-.32.86.19,2.19-.58,2.92l.34.31c.03.37-.43.81-.47,1.05-.04.27.27.49.26.64-.01.14-.32.26-.39.5-.19.67-.02,4.24.2,4.92.03.1.91,1.6.98,1.66.78.64,2.36.37,3.14-.15.22-.15.19-.5.36-.68.42-.43.44-.29.97-.95.25-.31,1.27-1.38,1.41-1.67.24-.5.13-1.06.32-1.51.08-.19.36-.18.38-.32.07-.33-.05-.72.04-1.1.14-.6.39-1.38.63-1.95-.44-.22-1.07,0-1.42-.08-.98-.2-1.58-.77-2.76-.51-.15-.14-.34-1.61-.12-1.87.06-.07,1.62-.7,1.71-.7.24,0,.46.23.69.27.68.11,1.69-.03,2.14.39l.16-.33c.56.51,1.21.38,1.88.8.28.17.31.37.5.54.39.35.71-.02.72,1.07s-.45.79-.68,1.21c-.06.11-.28,1.01-.28,1.15,0,.6.61.84.22,1.34-.08.1-.4-.05-.27.38l.46.03c.42.56-.3,1.03-.31,1.56.64.55.01,1.54.19,2.3.03.13.3.04.34.35.02.15,0,.88-.03.92h-.49c-.07.07.27.31.3.47.08.35-.08,1.26-.35,1.49-.17.14-.61-.12-.45.55-.64.05-.36-.47-1.18-.24-.15-.72-.34-.87-.99-1.18.85-.19.41-2.21.18-2.85-.29-.8-.29.12-.34.18-.51.54-1.64,1.62-2.02,2.17-.19.27-.11.65-.32.84-.28.24-1.11.31-1.45.48-.17.09-.48.7-.66.76-.44.14-.63-.25-.81-.26-.23-.01-.82.33-1.42.16-.67-.19-1.22-.84-1.54-1.02-.18-.1-.5.02-.6-.06-.05-.04-.07-.5-.21-.71-.43-.67-.76-.41-.8-.44-.04-.03-.2-.76-.3-.95-.1-.21-.38-.2-.39-.31-.02-.27.22-.59.18-.96-.1-.78-.72-2.22-.79-3.2-.05-.72.7-1.31.45-2.29-.03-.12-.28-.11-.29-.15-.04-.09.42-1.51.51-1.83.12-.44.56-.31-.21-.71.35-.44.23-1.01.37-1.46.11-.38.58-.65.46-1.19-.03-.12-.33-.1-.32-.17.03-.89.84-1.85.92-2.76.04-.49-.21-1-.07-1.39.08-.22.43-.23.54-.48.21-.49-.2-1.17.37-1.79s.29.21.68-1c.3-.92.35-.76.82-1.32.33-.4.22-1.02.74-1.02l-.33-.25c.55-.42,1.66-1.26,2.02-1.83.18-.28,0-.45.03-.55.17-.39,2.06-1.02,2.4-1.25.13-.08.14-.41.38-.54.45-.24,1.66-.4,2.14-.12Z"/><path d="M43.69,52.42l.09.32.67-.34.16.31c.52-.34.35.07.54.19.37.24.88.19.72.89-.02.1-.26.1-.28.16-.09.22.02.49-.15.64-.09.07-1.25.54-1.49.64-.95.37-1.11.14-2.08.92-2.72,2.19-3.67,7.15-4.84,10.35l.34.33c-.46.21-.76,1.82-.63,2.05.03.05.29.04.3.13-.51.85-.25,1.43-.27,2.27-.02,1.02-.25,3.11-.06,4.05.09.47.61.65.62.84,0,.08-.25.95-.09,1.23.11.18,1.02.31.13.61,0,.52,1.07,1.13,1.15,1.28.12.24-.49.6.26.8l-.07.34.66.02v.49s.51-.17.51-.17c-.04,1.01,1.71.84,2.51.92.13-.49.55-.44.82-.68.2-.17.29-.49.5-.68.36-.34.86-.05.75-.92-.13-1.06-.34-2.03-.19-3.19.02-.16.29-.31.26-.52-.04-.27-.69-1.68.03-1.62v-.33s-.31-.07-.31-.07l.49-1.35-.34-.16.34-1.25c-.52.25-.88-.14-1.49-.12-.49.02-1.11.54-1.68.45l.17-.66h-.48s-.19-1.08-.19-1.08l.17-.17c.54.24.2-.43.6-.57.28-.1.75.03,1.11-.05.75-.18,1.45-1,2.36-.45l.34-.34c.41.69,1.08.13,1.59.79.82,1.08-.27,2.09-.31,2.83-.01.33.42.47.43.63,0,.06-.24.31-.28.52-.48,2.28.08,5.25-.17,7.49-.02.17-.33,1.17-.37,1.22-.12.1-.52-.02-.91.36-.2.19-.07.39-.11.47-.04.07-.28.1-.36.21-.11.16.05.4,0,.5-.21.39-1.16.26-1.47.48-.19.13-.07.57-.37.65-.75-.08-2.15.28-2.82.12-.41-.1-.75-.53-1.03-.56-.37-.03-1.16.77-.89-.53h-.67c.3-.68-.12-.52-.42-.84-1.27-1.34-1.78-1.94-2.41-3.75-.18-.51-.17-1.04-.19-1.57h-.48c-.26-.5.58-.51.33-.84-.03-.03-.27.06-.3-.08-.04-.2.09-.86-.02-1.15l-.51-.1c.08-.35.07-.72.17-1.07.12-.46.67-.64-.01-.87.17-1.65.11-3.37.27-4.99.17-1.73.62-3.72,1.41-5.21.39-.74.39-2.27.66-2.96.16-.41.46-.38.56-.63.08-.21-.03-.5.04-.63.11-.21.42-.25.58-.45.36-.47-.03-1.12.83-1.05l-.1-.5.6-.16c-.32-.69.03-.4.23-.68.51-.72,2.52-2.61,3.41-2.78.31-.06.65.14.68.12.09-.06.1-.64.51-.47Z"/><path d="M135.27,8.92c.06.7-.42,1.21-.61,1.76-.59,1.69-1.24,3.49-1.74,5.25-.1.34-.5.6-.59.92-.09.36.03.76-.07,1.1-.07.23-.44.41-.43.53,0,.1.31.28.28.48-.01.08-.56.64-.69.99-.45,1.17-.84,2.35-1.31,3.54-.52,1.32-1.05,3.01-1.61,4.36-.12.28-.5.44-.55.81s.15.69.14.99c-.08,3.63.01,7.23-.07,10.86-.02,1.07-.19,2.33.26,3.29-.05.38-1.42.77-1.82.77-.15-.76-.78-1.45-.84-2.25-.07-1.05.46-5.72.29-6.16-.03-.09-.29-.07-.31-.18-.06-.44.36-1.42.18-2.12-.04-.17-.7,0,0-.78l-.5-.09c.57-.76.29-1.35.2-2.17-.02-.16.13-.35.13-.48,0-.11-.25-.09-.32-.23-.28-.57-.31-1.22-1.18-1.21.42-.75-.37-.94-.58-1.51-.13-.35.14-.88-.03-1.28-.33-.73-.54-1.65-.91-2.58-.25-.65-.13-.76-.3-1.22s-.56-.59-.76-.93c-.27-.48-.31-1.33-.53-1.81-.13-.29-.72-.74-.73-.8-.26-1.26-.59-2.44-.89-3.75-.14-.62-.34-.72-.78-.9v-1.46s-.52-.2-.52-.2l.16-1.34c-.67-.16-.08-1.83.44-1.92.07-.01,1.37.04,1.43.09.1.08.13.36.23.53.11.19.55.01-.07.72.67-.02.42,1.43.52,1.73.09.26.52.17.63,1.05.15,1.29.61,2.94,1.14,4.35.3.81,1,1.72,1.07,2.69l.47.02c-.56.99,1.1,2.2,1.3,2.95.07.26-.1.92.04,1.42.04.14.29.11.31.23.03.18-.29,1.38.26,1.4.54-.36.55-.99.79-1.38s.83-.84.89-1.28c.03-.24-.36-.46-.25-.66.01-.02.29.02.38-.22.11-.28-.07-.58.02-.79.85-1.85,1.59-3.62,2.26-5.59s1.32-5.2,2.43-6.9c.34-.53,1.28-.86.9-1.51,1.08-.25,1.1.45,1.81.86Z"/><path d="M92.88,10.76c.3.57-.76,1.03.04,1.22-.15.43-1.67.58-2.02.5-.4-.09-.66-.74-1.23-.54-.09.03-.06.28-.19.3-.35.06-.98-.17-1.41.28-.21.63-.79.93-1.02,1.6-.17.49-.03,1.09-.13,1.5-.05.18-.38.16-.47.39-.09.21.21,2.18-.21,2.64l.34.17c-.17.41-.64.41-.5.92l.5-.17-.08.84c1,.34.79.66,1.18,1.3.55.91.64.55,1.07.79.36.21.81.83.86.85.08.04.3-.17.47-.05.76.5,1.17.57,1.93.9.63.28,3.35,2.52,3.86,3.07.21.23.29.95.45,1.23.11.19.61.41.73.67.28.63-.1,1.36.87,1.39-.34.8.12.93.3,1.45.49,1.42.42,3.62.52,5.29.08,1.32.02,3.03-.52,4.31-.15.34-.63.12-.37.79-.99.21-1.63,2.05-2.52,1.85l-.18.32c-.97-.09-2.44.34-3.44.66-.15.05-.04.43-.72.34-.3-.04-.22-.29-.37-.34-.35-.1-1.93-.33-2.13-.5-.05-.04-.86-.93-.9-.99-.36-.53-.7-1.55,0-1.94.26-.15,1.8.24,2.04.41.37.25.29.99.87.86.54-.65,1.19-.29,1.79-.4.88-.16,1.47-.51,2.18-.82.22-.1.6,0,.74-.17.06-.07.81-1.55.87-1.72.21-.6.48-2.22.34-2.8-.03-.13-.32-.11-.34-.22-.05-.3.18-.71.16-1.11s-.51-3.77-.62-4.04c-.1-.26-.36-.69-.54-1.11-.26-.61-.96-1.07-1.17-1.54-.12-.27.07-.52-.22-.76-.33-.27-1-.31-1.3-.5-.23-.15-.37-.53-.74-.8-1.46-1.03-2.6-1.44-4.17-2.67-.38-.3-1.46-.67-1.52-.73-.1-.1-.04-.38-.2-.53-.06-.06-.31.05-.42-.08-.21-.24-.26-.75-.44-1.07-.39-.68-.97-1.02-.83-2.09h-.48s.45-.76.45-.76c-.39-.8-.08-1.86.23-2.67l-.35-.17c-.04-.45.52-.62.52-.69.04-.47-.47-1.5.32-1.81l-.29-.33c.44-.34.52-1.36.78-1.65.17-.19.4-.06.51-.11.03-.02-.19-.38.09-.65.04-.04.8-.58.87-.62.27-.16,2.64-1.04,2.8-1.04.21,0,.41.28.68.33.25.04.53-.12.76-.08.89.18,1.29.54,1.94,1.11Z"/><path d="M78.62,14.03l.3.12c-.4,2.05-.04,4.02.13,6.16.03.39-.44.66.2.83-.26.37-.54,1.6,0,1.67-.59.71-.05.73,0,1.17.03.28-.19.63-.17.99.08,1.51.11,1.67.02,3.19-.06.96.47,2.3.5,3.33.01.51-.31.69-.33.98-.03.43.35,1.22.31,1.67-.07.89-.16.33,0,1.35.17,1.15-.07,2.28.04,3.28.05.45.4.87.44,1.08.04.27-.61.63-.13,1.43.24.41.43.98.46,1.56s-.73,1.22-.46,1.72c-1.05-.05-1.45.14-1.96-.96-.57-1.24-.29-1.86-.36-2.96-.02-.3-.32-.22-.35-.36-.2-.83-.2-3.83-.16-4.8.03-.74-.22-1.49.16-2.33l-.5-.09c.36-.97-.26-2.31.33-3.09l-.35-.18c.06-.55.46-1.47.18-1.95-.09-.16-.84-.36,0-.7v-.33c-.74-.15-.04-1-.07-1.33-.02-.22-.25-.43-.27-.68-.05-.62.39-.64-.17-1.15l.34-.58-.34-.11c.08-.6.28-1.71.18-2.28-.03-.14-.32-.05-.35-.36-.06-.65.35-.91.37-1.35-.68-.84-.17-2.4-.17-3.49,0-.89.02-2,0-2.84-.01-.41-.46-.94-.46-1.3,0-1.83,2.6-1.38,2.74-.19.04.34-.2.9-.19,1.32,0,.53.33,1.02.12,1.55Z"/><path d="M70.4,9.89v.48s.42.02.42.02c.17.52.09.97.16,1.51.07.6.6,1.42.58,1.75s-.53.79-.26,1.34c.12.24.96.41.12.81.27,1.86-.07,3.88.09,5.78.11,1.34.29,2.21.24,3.57-.06,1.81.13,4.24.38,5.9.12.74-.13,1.85-.03,2.56.03.25.44.48.3,1.02-.03.12-.32.1-.32.18.01.4.42,1.3.42,1.51-.01,1.7-.37,3.52.56,5-.5.72-.19,1.25-.41,2.18-.03.14.12.37,0,.57-.29.49-1.44.42-1.84,0-.09-.1-.76-1.49-.77-1.57,0-.1.31-.06.34-.19.17-.66-.44-1.72-.46-2.34-.02-.66.12-1.43.03-2.31-.12-1.23-.44-2.37-.35-3.64.02-.34.28-.62.26-1.02-.03-.64-.77-.97-.16-1.52l-.34-.18c.42-.86.06-1.22,0-1.99-.06-.94-.02-3.42-.16-4.14-.03-.16-.45.14-.16-.98.41-1.63.17-3.64.09-5.51-.06-1.3.03-2.54-.13-3.87-.01-.1-.29-.01-.32-.32-.11-1.14.65-2.17-.3-3.15.57-.71.99-1.43,1.99-1.44Z"/><path d="M112.76,9.56c-.04.58.54,1.05.52,1.59,0,.36-.29.54-.34.85-.1.5.17,2.16.13,2.45-.02.17-.33.49-.41.9-.03.15.06,2.81.1,2.95.03.12.35.11.34.19-.07.32-.54.41-.52.67.03.36.29.53.32.71.05.29-.53,2.72-.28,3.47.03.09.3.06.32.18.08.54-.43,2.84-.36,3.82.02.32.35.24.36.34.03.33-.27.52-.33.84-.08.47.19,1.21.17,1.66-.13,2.75-.26,5.36-.19,8.16l.35.19c-.22,1.18.08,4.8-.77,5.56l-1.07.68c.15-.57-.36-.51-.58-.84-.13-.2-.38-3.1-.34-3.36.05-.3.29-.51.37-.77.14-.52-.72-2.99-.55-3.71.32-1.35.38-2.75.34-4.25-.01-.65-.51-1.28-.07-1.99l-.35-.18c.65-.68-.14-1.6.49-1.82-.3-.92-.25-1.91-.24-2.86,0-.47.46-2.82.42-2.96-.04-.14-.33-.05-.35-.35-.06-1.41.23-3.12.21-4.51,0-.34-.42-.16-.36-.49.42-.61.63-1.44.47-2.18-.02-.08-.3-.07-.3-.17-.02-.49.48-1.86.47-2.36,0-.24-.29-.39-.27-.6.01-.09.63-1.58.7-1.63.44-.35,1.07.04,1.59-.15Z"/><path d="M29.35,52.91c-.12.59.15.41.43.58.4.24.37.08.39.1.1.08.87,2.33,0,2.26.56,1,.02,1.98.11,3.1.03.45.57,1.2-.09,1.15v.24s.34.18.34.18c-.24.57-.27,1.18-.27,1.79,0,.28.06,2.02.09,2.17.03.13.33.1.34.21.01.21-.01,1.02-.03,1.28-.03.51-.57.66.16,1.21-.65.74-.26,1.74-.33,2.68-.04.57-.36,1.76-.39,2.32s.31,1.31-.08,1.92h.5c-.49.68-.21,1.31-.25,1.99-.02.26-.29.45-.26.75.03.34.47.59.5,1.02.03.49-.34,1.52-.31,2,.02.25.28.4.3.65.03.41-.37.94-.41,1.25-.03.21.18.32.19.42,0,.55-1.15,1.17-1.67,1.23-.12-.22-1.02-1.19-1.03-1.29-.03-.27.2-.44.2-.6,0-.2-.26-.41-.26-.69-.02-.58.39-1.68-.19-1.84.05-.61.54-1.4.52-1.99-.01-.34-.27-.53-.28-.69-.11-1.29-.07-3.3.13-4.61.05-.35.29-.7.31-.87.01-.08-.25-.07-.33-.19-.24-.36.14-.69.18-1.13.17-2.14-.39-5-.15-7.01.03-.28.31-.46.31-.66,0-.22-.28-.39-.31-.53-.03-.18.26-.38.3-.64.14-.89-.36-2.68-.43-3.5-.02-.23.45-.79.42-1.17-.06-.86-.46-.54-.05-1.87.04-.12-.11-.33-.08-.36.06-.08.83-.23.95-.4.17-.24-.22-.59.53-.45Z"/></g></svg>