<?xml version="1.0" encoding="UTF-8"?><svg id="Layer_2" xmlns="http://www.w3.org/2000/svg" viewBox="0 0 289.48 107.99"><defs><style>.cls-1{fill:#fff;}</style></defs><g id="efo_riro"><path d="M129.42,13.68c.32.33,1,.16,1.28.2.18.03.26.32.51.24l.14-.56c.1.41.57.43.42.98l.56-.08c.1.43.48.4.65.55.32.27.18.75.75.24l.03.24c.39-.19.58.57.77.75.44.41,1.21.37,1.68.65.36.21.76,1.05,1.3.47.15.31.07.88.21,1.12.03.04.69.68.73.71.29.19.58-.04.6-.01.02.03,0,.36.08.55.48,1.09,1.22,1.74,1.82,2.57.77,1.04.48,1.77.81,2.53.14.33.55.59.6,1.01l-.5.56.56.28c-.52.29-.39,1.13-.55,1.69l.27.13c-.82.29-.33,1.11-.46,1.65-.08.34-.52.9-.51,1.43l.56.14c-.1.41-.62.56-.76.78-.16.23-.29.98-.54,1.22-.14.14-.47.12-.6.32-.06.09.02.35-.08.6-.27.64-.6.49-.79.69-.21.23-.12.69-.71,1.05-.75.45-.61.18-1.18.84-.27.32-.98.04-.39.88-.41.1-1,.03-1.37.24-.22.12-.05.24-.53.53-.06.04-.07.17-.09.18-.14.06-.59-.32-.81.11l1.47.91.35-.42c.06.44.57.3.28.84l.25-.09c0,.06.32.31.34.32.14.08.51.2.77.38.06.04.13.66.39-.05.4.1.51.54.66.66.42.33,1.11.75,1.51,1.12.51.48.26.57.29.6.03.04.52.07.66.18.54.44-.31.59-.1.8l1.12.43-.14.7h.42c-.11.25-.21.46-.12.74.21.69.84,1.69,1.05,2.44.12.43-.27,1.15.75,1.03l-.14.42.28-.14-.13.78.27.13-.42.71c.42.11.36.67.28,1.04h.42c-.09.38-.21.98-.14,1.33.05.3.34.4.37.56.03.22-.18.63-.08.97.04.17.5-.08,0,.64.41,0,.47.46.29.79l.26.06c.06.23-.25.07-.29.23-.13.57.17,1.08.71,1.24-.48.48-.19,1.2.14,1.68l-.28.21h.42s-.04,1.37-.04,1.37c.26.36,1.04.96.32,1.23l.22.49c-.23.31-.63.28-.96.42-.23.1-.12.07-.52.2-.37.12-.59.43-.96.2.09-.5-.25-.82-.71-.68l-.42-2.66c-.35.2-.38-.1-.56-.35l.42-.49-.84.14.25-.16c-.23-.59.37-.82.31-1.44-.04-.36-.42-.79-.42-1.21l-.56.14.12-.36c-.45-.14-.2-.87.29-.83l-.28-1.82-.41-.17-.04-2.34c-.8-.76-.19-1.43-.57-2.24-.15-.33-.41-.3-.52-.49-.21-.37-.55-2.32-.71-2.55,0-.01-.2.1-.27.05-.1-.08-.12-.25-.24-.34-.32-.24-.73-.1-.6-.84l-.25.11c-.42-.3-.31-.63-.39-.81-.13-.29-.93-.21-.76-.97-.56.6-1.31-.05-1.4-.7l-.14.28c-.45-.46-.71,0-.77,0-.1,0-.17-.31-.25-.37-.14-.1-.32-.12-.43-.2-.22-.17-1.35-1.38-1.63-1.1l-.07.42c-.45-.06-.54-.46-.72-.53s-1.35.3-1.67-.31l-.21.28c-.21-.48-.59-.86-1.11-.85.1-.51-.11-.59-.29-.97-.09.15-.61.51-.63.55-.03.06.03,1.05-.22,1.34l.71.22c-.09.69-.61.81-.56,1.54h.56s-.12.62-.12.62l-.44.09.02,1.66.54.29-.84.7.4.02c.13.48-.06.86.44,1.17l-.42.21.42.14s-.38.78-.39.94c-.02.2-.17,1.97-.14,2.07.02.07.25.06.31.37.18.87-.27,1.24-.33,1.74,0,.06.23.06.27.17.15.4.38,1.2.5,1.65.01.04-.11.7-.13.77-.05.13-.3.23-.32.35-.04.23.64.46.39.91h-.56c.38.46-.06.86-.08,1.12,0,.13.16.54.07.84h-.7s.14.42.14.42l-1.12.14.14-.42c-.78.05-.66-.54-.86-.87-.15-.26-.42-.3-.49-.81s.29-.75.23-1.04c-.02-.11-.46,0-.15-.42-.52-.2-.08-.73.14-1.06h-.42c.06-.58-.11-.61.42-.98-.54-.06-.68-1.47-.28-1.82-.71.15-.51-.69,0-.71,0-.31-.27-.41-.28-.76-.02-.44.37-1.04.37-1.41,0-.17-.26-.49-.15-.78l-.49-.2c.02-.29.51-.73.53-.86.03-.17-.23-.47-.22-.76.01-.45.61-.96-.32-.97.09-.48.36-.42.6-.56.29-.17-.26-.93-.6-.91-.01-.14.22-.01.26-.13s-.07-1.48-.11-1.75l.56-.22c-.55-.55-.06-1.08-.14-1.52-.02-.1-.35,0-.24-.68.02-.14.22-.28.24-.47.03-.29-.22-.7-.14-1.04h-.56c.33-.79.69-1.44.81-2.29-.51-.64-.3-.42-.11-1.21h-.41s-.11-1.04-.11-1.04c.02-.39.38-.35.49-.6.14-.33.25-2.07.05-2.35l-.58-.08c.21-.19.13-.52.18-.63.03-.08.2-.07.23-.18.25-.87-.1-.84-.21-1.44-.13-.73.24-1.5.22-2.24l-.42-.07c.4-.51.1-1.24.16-1.65.09-.62.83-1.88.11-2.14l.28-.69c-.6-.27-.32-.42-.42-.82-.03-.13-.3-.09-.28-.16.08-.27.52-.77.84-.78l-.07-.28c-.61-.15-.26-1.05.21-1.33-.53-.13-.12-.74-.41-1.13l.27-.34-.42-.07c.87-.74.54-1.08.56-2.03l-.28.14c-.17-.25.42-.98.62-1.13.36-.26,1.66-.16,2.14-.37.17-.07.15-.28.27-.32.32-.09.89.31.95-.14l.36.13v-.42c.69-.02.56.51.59.54ZM127.57,16.37c-.31-.08-.33.13-.38.38-.08.38-.03.77-.04,1.16h.56c-.15.63-1.05,1.66,0,1.96l-.42,1.05.42.07-.26.15c.25.35-.02.65-.02.89,0,.09.22.08.29.18.13.19-.09,1.8-.42,2,.4-.09.11.46.27.92.1.28.79.65-.13.91l.29.22-.29,1.18c.36-.05.44.02.54.35l-.53.48.55.35c-.54.78-.46,1.52-.47,2.39,0,.08.14.21.14.28-.02.27-.36.51-.1.9l-.26.08.42.28c-.45.38-.61,1.16,0,1.4-.4.4-.08.95-.28,1.47h.42c-.33.47-.03,1.57-.7,1.68.06.45.58.05.7.14-.57.71-.39,1.56-.35,2.38.46-.02.34-.52.49-.77.08-.13.95-1.13,1.01-1.16.12-.07.96-.11,1.27-.18.11-.03.11-.23.18-.24.29-.06,1.79,0,1.87-.04.05-.03.42-.74.81-.95.51-.26.74.15,1.12-.55.57.31.28-.34.51-.56.1-.09.99-.77,1.07-.9.05-.08-.12-.3-.06-.4.2-.35,1.92-.77,1.47-1.74l.43-.08c.06-.24-.28-.06-.29-.21,0-.34.34-.69.71-.63l-.12-.25c.58-.11.41-.45.55-.76.07-.15.6-.43-.15-.67l.84-.91c.09-.38-.61-.39-.84-.35.3-.76.86-.85.42-1.82l-.28.14c.08-.76.29-1.54.02-2.3l-.7-.1-.02-.96c-.55.22-.54-.38-.42-.84l-.56.14v-.84c-.58.42-.58-.67-1.12-.42.28-.72-.18-.81-.44-1.4-.6.25-.31,0-.54-.22-.29-.26-.78-.46-.7-.91l-.63.28c-.22-.1-.16-.44-.24-.53-.04-.05-.97-.34-.98-.71-.59.3-.35-.48-1.1-.3.18.81-.88.29-.56-.42-.23-.03-.53.06-.74,0-.04-.01-.57-.56-.61-.57-.38-.04-.91.2-1.39-.12l-.07.26-.14-.28Z"/><path d="M95.32,13l.2-.27c.47.01.47.39.51.41.05.03.24-.2.45-.24.6-.09,1.63.37,1.23-.46l1.12.42v-.42c.64.26.87.66,1.68.56l.07-.42c.34.16.63.37.95.56.1.06.1.23.13.24.07.03.21-.08.3-.05.15.04,1.43.42,1.49.36.09-.09.03-.58.29-.55l.98,1.54.14-.28c.34.64,1.09,1.15,1.19,1.96l.28-.14c.43.29.38.71.34,1.18l.43.08v.69c.33-.23.85-.05.68.35-.09.2-.37-.12-.13.72.18.66.51.78.71,1.15.04.08.53,1.57.54,1.66.02.13-.3,1.13-.25,1.17h.42s-.28.77-.28.77c-.05.12.21.02.25.14.2.47-1.34,2.78-1.11,3.57l-.4.02c.19.37-.13.65-.22.98-.05.19.09.41,0,.56-.03.06-.72.69-.87.9-.23.33-.91,1.29-1.03,1.56-.15.35.44.03.42.28-.51.3-.57.91-1.26.49-.12.36-.09.41.14.7-.4-.1-.4.2-.59.33-.6.39-.94.5-1.43,1.09-.25.29-.35.77-.38.81-.14.2-1.18.68-1.22.81l.12.76.21-.11c.15.37.42.05.82.27.18.1.22.33.26.35.15.08.69,0,.88.46l.42-.42c.41.19.21.71.25.81.17.4,1.34.75,1.72,1.14.17.18.18.42.3.55.42.47,1,.85,1.03,1.56l.56-.14.44,1.39.54-.13c.15.76.11,1.32.7,1.9l-.29.15.17.89.38.02c-.2.52.28.74.29.79.07.31-.05.73.01,1.08.09.5.45,1.21.48,1.61.01.18-.24.49-.16.64.1.21.38.23.45.35.14.22-.06.38-.06.5,0,.06.72.52-.3.63-.05.28.25.38.29.64.07.49-.55,1.4.56.76v.83s-.42,0-.42,0v.21c.42.29-.12,1.45.7,1.19.06.31-.07.63-.06.92.03,1.02.3,2.26.03,3.32-.07.25-.54.6-.39,1.08l-.75-.13-.23.55c-.22-.12-.61-.09-.56-.42-.39.38-.4.14-.84,0l.28-.28c-.54-.02-.35-.48-.5-.84-.05-.13-.29-.22-.31-.37-.06-.32.19-1.54-.31-1.66.18-.25.43-.52.44-.85,0-.25-.23-.18-.26-.28-.19-.61.02-1,.1-1.61h-.41c.08-.75-.51-1.22-.01-1.89l-.28-.07.28-.22c.1-.78-.5-1.33-.66-1.84-.09-.3.17-.52.17-.67,0-.48-.59-1.46-.41-2.04l-.51-.14.28-1.12-.28.14c.03-.38.01-.69-.42-.7l.28-.41c-.17.06-.64-.57-.69-.68-.18-.42.04-.8-.08-1-.05-.09-.29-.14-.4-.31-.13-.2-.19-.56-.25-.64-.03-.03-.77-.17-.79-.2-.13-.16-.16-.67-.51-.96-.29-.24-1.3-.24-1.2-.97-.56.26-.43-.13-.63-.28-.35-.26-2.13-.68-2.77-.99-.17-.08-.3-.28-.45-.41l-.56.28-.13-.27-.63.12-.17-.54c-.54-.05-.83.27-1.18-.29-.65.33.02.82.03.91.06.27,0,2.28-.1,2.5-.05.09-.23.07-.27.2-.07.22.03.57-.11.82l.66.34c-.41-.07-.21.29-.29.45-.06.13-.21.12-.22.15-.04.07.21.25-.33.45l.28.14c-.4.35-.17.76-.28,1.19l.56-.14c-.19.2,0,.61-.07.71-.06.08-.29.09-.33.16-.08.13.2.57-.16.81l.42-.14c.1.63.4,1.06.11,1.73-.11.26-.59.21-.39.8l.56.07c-.51.82-.28,1.77-.34,2.64-.02.28-.24.69-.23.86,0,.13.29-.14.09.85-.05.26.28.45-.22.56.43.13.12.63.7.49l-.42.63.42.28c-.39.58-.69.63-.38,1.37.08.19.34.36.34.46,0,.08-.28.59-.33.87-.06.36.11.73.06,1.06-.06.36-.41.61-.25.95-.6-.23-.94.22-1.46.42-.26-.19-.29-.54-.5-.77-.19-.21-.78-.46-.81-.52-.14-.25.16-.8-.45-.82.57-.75.55-1.07.37-1.93,0-.04-.33-.1-.23-.66.08-.45.5-.22.42-.56l-.26-.14c.52-.73-.51-1.69-.45-2.09.01-.06.74-.39.43-1.06l-.42.14c.24-.78.63-1.32.39-2.18-.03-.09-.3,0-.24-.26.06-.24.38-.43.41-.72.04-.44-.37-1.06-.38-1.42,0-.29.3-.51.25-.81l-.42-.07c-.05-.22.19-.08.28-.24.14-.27.02-.54.06-.78.15-.83-.08-2.83-.03-2.97.22-.63.08-.58.04-1.38-.01-.21.15-.35.14-.52-.03-.5-.66-.41-.12-1.36.08-.13.26-.16.29-.2.04-.06-.25-.23.18-.32l-.56-.07c-.29-.24,1.32-1.68,0-1.68.07-.53.46-.97,0-1.4l.54-.35c-.16-.63-.69-1.37.02-1.83-.45-.17.03-.6-.56-.98-.02-.06.5-.05.28-.35-.05-.06-.3.34-.28-.07.03-.68.41-.47.42-.91l-.28-.14c.34-.02.59-.43.15-.48.19-.46.49-1.62-.29-1.48l.84-1.89-.56-.22c-.05-.4.4-.72.4-.76,0-.15-.16-.36-.1-.67.13-.65.76-1.74-.16-1.94.75-.79.1-1.52.14-2.44,0-.1.24-.09.28-.18.17-.35-.17-1.73-.13-2.22.03-.42.74-1.32.4-1.6l-.28.14c-.13-.9.34-1.79.41-2.61.02-.29-.13-.54-.1-.8,0-.05.3-.88.33-.94.25-.43,1.88-1.38,1.75-.29ZM97.4,15.51l-1.4-.2c-.11.11-.27.92-.25.98.02.07.21.07.22.11.05.21-.12.43.18.6l-.4.22c.33.48-.15,2.22.04,2.59.09.18.32.17.35.22.03.05-.24.58-.21.76.02.15.32.25.37.56.06.39-.02,1.2-.42,1.39.6.26-.14,1.2,0,1.8.02.11.29.1.28.16-.02.19-.58,1.04-.42,1.2h.42c-.11.36-.08.65.28.77-.42.1-.14.25-.28.53-.04.08-.25.07-.28.2-.05.18-.29,1.16-.29,1.23s.45.32.38,1.12l-.51,1.69.55.22c.07.05-.4,1.13-.41,1.33-.01.34.32.88.35,1.24.02.38-.14.91-.08,1.33h-.41s.14.71.14.71c.59-.07.81-.7,1.13-.91.38-.25,1.22-.31,1.58-.77.18-.22.05-.5.37-.8.26-.25.53-.02.72-.26.12-.15-.02-.34,0-.35.08-.05.46,0,.66-.1.19-.08.2-.3.31-.38.39-.25.83-.09.56-.93l.68-.02c.22-.19,0-.66.02-.68.15-.12.94-.09.56-.7.59.27.61-.63.83-.89.08-.1.68-.29.85-.72-.86-.51.58-.81.7-.92.04-.03-.16-.68.07-.97.13-.16.39-.09.47-.15.1-.07.07-2.23.44-2.44-.66-.16.1-.73.13-1.12.02-.36-.2-.57-.54-.5l.26-1.6-.2-.17-.35.1c.12-1.35-.44-2.11-1.27-3.07l-.62.13-.07-1.12c-.55.29-1.1-.35-1.27-.83l-.32.13-.17-.28c-.51-.15-.5.28-.54.28-.06,0-.89-.3-1.06-.37-.09-.03-.09-.27-.21-.32-.05-.02-.67.2-.84-.16-.14.53-.82.3-.98-.14l-.08.26Z"/><path d="M69.33,11.79s.02.22.1.21c.85-.05,1.02-.14,1.56.71l.33-.02.09-.26c.11.27.17.33.49.28l-.11.25c.69.16-.04.89.58,1.24.17.09.42-.02.53.12l.61,1.88.35-.28c.2.15-.01,1.38.07,1.61.16.47.67.8.74,1.57.02.29-.29.46-.22.92.01.07.25.63.28.65.02.02.18-.11.23-.08.47.36.12.53.18,1.08.98-.24.18,1.02.38,1.37l.46.18-.56.84h.41s.18,1.39.18,1.39c.48-.05.59.29.36.69l-.39.02.43,1.21-.29.27c.37.52.03,1.86.85,1.75v.14c-.58.06.05,1.31-.7,1.48l.28.91.42-.07c-.26.7-.8,1.38-.42,2.21.07.16.33.02.27.24l-.27.06c.21.34.21,1.05-.29,1.07v.27s.24.03.24.03l-.07.23.25.16-.27.06.14.42c-.57.16.03.63-.43,1l.7.21c-.44-.1-.11.4-.31.54l-.39.02c.21.28,0,.61.06.85.16.58.77.59-.2,1.33.64.21-.3,1.1-.13,1.66.04.12.4.04.27.56-.01.05-.37.12-.25.44.03.09.24.06.23.13,0,.26-.21.83-.55.78v.14c.42-.09.23.57.14.84l.56.14c-.48-.07-.07.24-.2.42-.82,1.18-.61,1.84-1.03,2.9-.21.52-.58,1-.6,1.64l.3.16-.44.57.28.67-.39.64c.76.36-.24.52-.28.59-.17.28,0,1.31-.04,1.36-.03.04-.29.08-.41.22-.47.57-.23,1.73-.41,2.07-.11.21-1.2.91-1.26,1.16l.56.49c-.95.49-2.05.96-2.65,1.88l.41.51c-.21-.12-.7.05-.81-.02-.08-.05-.12-.38-.24-.4-.44-.06.16.6.07.7l-.54.13-.15-.34-.28-.07-.22.4c-.67.17-1.56-.34-1.98-.38-.32-.02-.46.67-.77-.43-.15-.03-.75.13-.8.1-.06-.04-.08-.27-.16-.3-.23-.1-1.45-.52-1.54-.66l.13-.41-.54-.02-.15-.48c-.12-.1-.46.13-.75-.05-.54-.33-.23-.93-.26-.98-.02-.04-.31-.07-.42-.21-.21-.27-.1-.82-.55-.92l-.14.28c-.26-.3-.11-.86-.16-1.03-.02-.05-.62-.63-.65-.73-.05-.18.1-.46-.04-.82-.16-.38-.43-.41-.5-.57s.1-.58.05-.81-.33-.57-.44-.82c-.1-.23-.05-.52-.15-.7-.02-.03-.6-.27-.63-.13-.01-.46.06-.92.07-1.38,0-.4.04-.71.04-1.04,0-.37-.35-.81-.31-1.23h-.35c.09-.64.3-1.21.2-1.88-.13-.94-.95-2.49-.21-3.23-.37-.07-.37-.51-.26-.82.06-.18.52-.21.36-.58-.05-.12-.42.02-.1-.49l-.42-.07c.17-.14.63-.64.67-.87.03-.15.05-.31.03-.46h-.42s.37-.85.37-.85l-.51-.49c.23-.29.29-.52.7-.56l-.56-.42c.09-.35.54-.69.56-.73.16-.69-.5-1.11.42-1.51l-.27-.13c.08-.32.33-.74.38-1.03.12-.68-.14-1.83.32-2.35-.39-.12-.23-.22-.24-.56.07-.08.42-.5.43-.53.07-.17-.01-.36.04-.53.11-.35.66-.37-.2-.9.26-.34.31-1.18.44-1.45.02-.03.65-.1-.03-.37.03-.64.77-1.12.91-1.75.09-.42-.09-.97-.03-1.41l.5-.13-.28-.62c.06-.37,1.11-.19.28-.57l.29-.62h.48s-.07-.84-.07-.84c.97,0,.61-1.11.73-1.37.08-.19.23-.11.47-.75.25-.67.56-.6.82-.98.15-.22.2-.71.35-.88s.62-.02.57-.65c.16-.06.46.16.54.12.05-.03.73-.76.45-.94.43.04.78-.49.94-.57.88-.41,1.49.48,2.13-.92.14-.29.23-.88.32-1.01.14-.22.92-.27,1.02-.74.12,0,.2,0,.31.06ZM69.23,15.11l-.29.08-.53.82.26.35c-1.03-.36-1.46,1.25-2.38.98.16.72-.06,1.63-.98,1.26v.69c-.18.01-.35.02-.49.15-.58.53-1.17,2.54-1.57,3.37-.04.08-.26.09-.32.25-.2.5-.21,1.27-.41,1.79l.27.2c-.65.21-.89,1.15-.42,1.68l-.28.14.28.14c-.3-.04-.31.17-.28.42l-.56-.14c.16.31-.04,1.13.03,1.33.03.08.25.07.26.14.06.44-.6.51-.56,1.12l.42.07-.41,1.34.26.12c-.18.42-.29,1.14-.83,1.06l.28.21-.29.55c.92.43-.09.61-.21,1.05-.08.27-.15.9-.16,1.19,0,.24.41.39-.04.78l.56.07c-.02.33-.64.76-.67.85-.05.18.18.63-.03.9l.56.07c-.44.53-.85.76-.85,1.53l.57.09c.09.69-.68,1.14-.49,1.83l.64.2c-.13,0-.53.66-.54.72-.05.21.67,1.06-.16,1.17-.13.35.21.23.27.38.41,1.03-.18,1.52-.13,2.06.02.25.35.96.41,1.28.09.44-.19,1.27.42,1.33l-.25.48c.74.44.41.53.54,1.11.05.21.22.34.26.56.08.55-.23.35.15,1.03.16.29-.11.55.58.67v.4s-.29.22-.29.22c.68.16.38.48.45.67.04.11.59.32.63.36.27.27.39.99.47,1.36l.56-.14c-.21.18.61,1.13.71,1.19.13.08.36-.07.49.05.22.19.12.62.55.72.14-.6.62.29,1.19.36.11.01,1.07-.13,1.13-.17.12-.06.45-.83.57-.87.1-.03.31.17.4.11.04-.02-.22-.42.4-.59l-.12-.39h.42c-.35-.83.14-.38.56-.91l-.27-.13c.26-.41.05-1.05.7-.92l-.21-1.13c1.22-.5.4-.74.5-1.15.04-.15.27-.25.33-.39.16-.4.22-.8.51-1.18l-.28-.35c.61.04-.07-.97.7-.99l-.54-.34c.09-.2.16-.41.2-.64.07-.43.19-1.06.48-1.47-.49-.13-.19-.75.28-.77-.47-.35.07-.96-.02-1.33-.02-.09-.26-.07-.26-.13.01-.2.28-.69.56-.64-.6-.51.22-.61.24-.91,0-.06-.22-.64-.22-.99,0-.38.2-.78.12-1.18l-.56-.07.17-.42.53-.07-.42-.21c.24-.16.14-.47.22-.64.05-.09.31-.08.34-.22.04-.22-.21-.98,0-1.31h-.56c.22-.21.13-.53.19-.67.09-.22.47-.84.52-1.23-.51-1.01-.04-2.13,0-3.21l-.43-.07.42-.77-.42-.14c.56-.13-.14-.82.42-1.33-.89.1-.19-.66-.1-1.01.08-.31.12-.88.12-1.21l.26-.16c-.56,0,.02-1.02-.84-1.13l.42-.56-.56.14c-.25-.53.27-.75.22-1.27-.04-.45-.39-.44-.58-.83-.1-.22-.32-1.09.06-1l.02-.19c-.56-.3-.39-1.01-.51-1.33-.17-.45-.92-1.6-.97-1.96-.06-.46.24-.8.22-.84-.47-.68-.67-1.72-1.2-2.66-.22-.39-.72-.44-.76-.85Z"/><path d="M158.96,15s.06.25.17.31c.14.08.89.3.99.44.24.35.21,1.7,1.11,1.18-.38.68.06,1.18.1,1.63.03.38-.15.97.04,1.46l.33-.12c.5.44.13.96-.18,1.29l.7.73c.03.28-.37.5-.15,1.1.19.51.74.25,0,1.11.07.34.37.7.4,1.03.03.3-.15.63-.11.79.02.06.69.58.55.93l-.42.07c.82.26-.02.79.56.97l-.71.99c-.06.55.41.64.43.73.06.33-.1,2.31-.14,2.78-.02.19-.07.32-.14.49h.42c-.09.55.28.58-.19,1.07-.07.08-.22.04-.22.05-.04.07.72,1.06.14,1.54h.42c.05.39-.57.74-.57.79-.03.24.36.6.26.97-.02.08-.21.06-.23.14-.07.29-.08.34-.14.56-.02.07.16.44-.02.63h.56c.11.33-.16.59-.2.83-.08.42.28.44-.36.85l.56-.07c.08.5-.65,1.28-.68,1.56-.02.22.22.39.19.62-.03.26-.31.47-.32.73-.02.48.43,1.76.38,1.96-.03.1-.39.07-.24.59.02.08.23.06.23.13,0,.24-.27.72-.26,1,.03.46.59.28-.3.83l.29.49h-.28c-.06.23.21.08.25.21.09.29-.3,1.1-.39,1.42l.28.12c-.6.7-.22,1.57-.32,2.35-.07.54-.6.93-.52,1.29,0,.04.46.14.19.61-.13.22-.35.23-.42.38-.04.09.1.4.07.56-.07.41-.72,1.62-1.1,1.76l.28.21c-.09.28-.38.38-.51.54-.19.23-.58,1.01-.64,1.05-.23.17-.66-.07-.54.71-.32,0-.76.15-.7-.27h-.14c-.26.36-.21.54-.28.98l-.71-.22c-.28.03-.3.67-.91.23l-.13.27c-.29-.23-.67-.4-1.02-.52-.2-.07-1.47-.27-1.66-.37-.25-.13-.07-.5-.63-.28l-.14-.5-.41.08-.14-.78c-.28.19-.37-.09-.56-.18-.1-.05-.26.05-.27.04-.05-.09.02-.39-.14-.64-.11-.17-.65-.48-.81-.79-.05-.09.27-.45-.6-.24l.14-1.18c-.46-.2-.59-.9-.42-1.34h-.56c.33-.88-.41-1.63.27-2.51-1.11-.39-.42-1.02-.46-1.48-.02-.19-.53-.71-.5-1.13.02-.21.27-.36.27-.56,0-.4-.82-.74-.49-1.19.16-.22.47-.07.31-.77-.02-.09-.17-.07-.18-.1-.29-.89-.05-.3.12-.7.1-.25-.02-.9.09-1.22h-.42s.28-.84.28-.84h-.56s.42-.63.42-.63l.42-.07c-.26-.43-.71-1.35-.14-1.61-.69-.23-.07-1.05.28-1.4l-.5-.2.09-.63-.29-.14c.16-.29.18-.42.56-.35l-.41-.34.54-2.03-.69-.22c.32-.34.45-1.02.98-.91-.65-.61.42-1.64-.56-2.03l.69-.36c-.17-.27.21-1.12.08-1.26-.16-.18-.52-.01-.5-.27l.29-.09c-.42-.6.8-1.42.27-1.8-.14-.1-.46.04-.42-.21.68.14.38-.5.51-.84.18-.47.67-.5.25-1.13.63-.55.03-.34.1-.87s.49-.63.65-.84c.03-.04-.24-.31.17-.25l-.42-.28.26-.16-.11-.25c.78-.08.83-1.18,1.25-1.77l-.28-.13.43-.7-.29-.14c.11-.47.69-.51.85-.73.18-.24.13-.71.26-.96.21-.4.6-.53.81-.89.33-.55.07-.53.72-1.23.1-.11.09-.37.19-.45s.35,0,.39-.03c.05-.04-.07-.66.37-1.24.37-.49.74-.48.95-.71.05-.05-.04-.25.14-.43.58-.56,1.78-.55,2.47-.21.25.12.34.6.57.71.15.07.34-.08.39-.05ZM157.16,17.35c-.5-.05-.1.11-.22.28-.23.34-.77.61-.84.69-.08.1.1.33.09.48,0,.07-.47.21-.44.58.46.11-.03.41.43.36l-1.09.72c.07.48-.56,1.05-.68,1.29-.07.13-.07.86-.09.9-.14.18-1.22.76-.9,1.36.12.22.41.11.38.34l-.7.28.28.28c-.12,0-.26.07-.34.15-.11.13-.63,1.34-.65,1.47,0,.07.22.05.25.13.09.24-.22.82-.2.99.01.14.28.26.23.34-.03.04-.58.43-.66.63-.02.06-.18.79-.17.83.66.24.34.94-.28.93-.18.38.28.45.28.49.07.49-.37.39-.47.67-.06.17.05.44-.01.66-.2.76-.48,1.19-.26,2.07l.39.17.06.56h-.42s.1.26.1.26l-.25.1.43,1.54c-.36.09-.45.11-.56.49,1.25-.22.03,1.22-.09,1.68-.07.27.16.35.16.57,0,.39-.2.71-.35,1.04l.7.22-.12.61c-.72.17-.31.12-.35.55-.05.58-.56,1.71.47,1.5-.25.7-.1,1.43-.56,2.04l.28.2-.28.14.27.06-.13.36.56-.07c-.12.69-.26.53-.7.91.57.11,1.2,1.09.42,1.33.27.32.49.75.49,1.18,0,.36-.3.56-.3.78,0,.15.7,2.59.79,2.77.11.21.47.21.54.48l-.26.75c.82.08.6.5.73,1.1l.53.03v.7c.51-.2.44.57,1.27.64.07,0,1.18-.26,1.26-.29.51-.23.35-.41.56-.67.11-.14.32-.18.41-.32.18-.3.1-.73.44-.97l-.28-.21c.62-.22.81-1.23,1.14-1.85.06-.11.26-.12.26-.2,0-.32-.3-.49.14-.89l-.42-.21.56-.7-.27-.27c.31-.66-.15-1.17.28-1.83l-.29-.14.43-.97-.29-.15.56-.49-.41-.15c.09-.33-.04-1.05,0-1.31.02-.1.22-.07.3-.29.11-.3-.01-.9.1-1.25l-.55-.24c-.09-.8,1.22-1.72.41-2.16.55-.68-.31-1.09.42-1.75l-.29-.09.09-.48-.51-.14c.23-.28.02-.62.08-.85.09-.32.46-.47.35-1.18l-.43-.08.28-1.82-.42-.07c.52-.14.33-1.01.43-1.38.03-.1.22-.09.23-.13.06-.19-.12-.41.16-.61l-.26-.33.42-.21c-.99-.22-.57-.99-.46-1.66.09-.59.19-.67.27-1.07.06-.27-.27-.66-.1-.98-.96.06.16-.75,0-1.32-.04-.14-.32-.04-.27-.16.29-.26.31-1.6.24-2-.14-.69-.38-.45-.52-.53-.24-.14.43-1.79-.42-1.95.33-.49.25-1.02.09-1.55-.03-.09-.35-.51-.36-.56-.05-.8-.2-1.37-.3-2.18-.35.28-.85-.6-.84-.98Z"/><path d="M33.09,13.37c.55.44,1.24.16,1.93.82.3.29.2,1.06.64,1.41l-.13.31c-.23.27-1.23.83-1.57.83-.28,0-.35-.27-.63-.23l.14.56-.71-.06-.13-.5-.92.04-.2.39c-.72-.55-.95.17-1.19.25s-1.5-.44-2.11-.4c-.24.02-1.14.52-1.68.51-.25,0-.48-.29-.73-.33-.32-.05-1.03.12-1.44-.03l.14.56-.91-.28-.13.27c-.69-.44-.58.18-.96.27-.52.11-1.01-.49-1.26-.51-.49-.02-1.06,1.12-1.36.11h-.14c-.56,1.34-1.5-.2-2.3,0-.11.03-.09.29-.16.28-.2-.02-.64-.39-.97-.29-.17.62-.65-.14-.99-.14-.07,0-.07.19-.13.23-.11.07-.3.03-.34.08-.08.09.01.33-.04.43-.07.14-.23.11-.26.2-.22.73.2,1.24.23,1.83.02.39-.5,1.09-.36,1.66.08.32.35.4.35.69,0,.27-.26.45-.32.72-.16.75.21,1.3.21,1.37.01.31-.35,1.5-.26,1.62l.42-.14c.03.39-.01.79-.15,1.16-.04.11-.26.1-.25.17.02.25.36.52-.16.5.91.54.07,1.14-.15,1.89.47.1.01.52.43.85l-.55.23c.08.29-.1.61.27.55l-.4.63.54.21-.28.42.29.08c.02.59-1.04,1.01-.29,1.39-.76.45-.07.78-.05,1.13,0,.12-.18.27-.17.41.07.64.42,1.27,1.13,1.31.1-.32.29-.13.5-.31s.28-.53.5-.61c.42-.15.94.09,1.11.52.25-.47.5-.24.74-.32.04-.01.02-.19.1-.21.38-.1.88.26.91-.59l.16.25c.17-.03.33-.09.51-.02.23.09.09.36.31.33.19-1.42,1.08-.26,1.6-.28.29-.01.63-.24.92-.34.24-.08.39.26.64-.36.52.46.86.77,1.61.56l.16.82.68.02c-.1.5-.7.9-.42,1.39l-.97.16-.02.4-1.81.16v.41s-.29.14-.29.14l-.28-.28c-.38.43-.52.05-.76.06-.28.01-.57.15-.85.15-.22,0-.87-.22-.99-.17-.17.08-.15.3-.28.35-.11.05-.64-.14-.81-.11-.11.02-.49.53-.53.55-.08.05-.19-.2-.34-.21-.5-.05-1.13-.11-1.29.37l-.88-.29-.14.28-.14-.28c.09.49-.89.34-.98.42-.05.67.63.23.7.28-.15.56-.52,1.03-.28,1.61l-.42.07c-.06.24.2.09.25.15.04.05-.15.26-.05.41.06.09.32.09.36.24.18.67-.18.64-.7.74-.06.23.24.06.28.23.1.43,0,1.1.04,1.55.09,1.1.1,2.07.22,3.2.03.29-.14.7-.08.95.08.38.46.55.52.76.08.3-.34.46-.25.92.06.33.4.5.46.66.06.17-.12.37,0,.57.07.1.28.09.34.21.02.05-.12.34-.1.42,0,.04.57.33-.02.56.15.4.53.19.55.22.03.03.15.77.12.81-.05.07-.48.17-.39.3.44-.11.25.79.28.84.01.02.33-.18.42.07l-.27.68c.19.52,1.18.39,1.26.44.18.1.24.63.48.77l.14-.28c.43.09.29.46.44.57.35.26,1.25.19,1.18.55l.34-.29c.92.37,1.27.44,2.18.01l-.14-.28.84.14-.28-.56.82-.3-.12-.26,1.26-.14-.14-.42.57-.07v-.34s1.39-.29,1.39-.29l-.14-.83c.22-.21.78-.01.82-.03.1-.06.18-.64.86-.4l-.28-.28c.67.23.73-.31.87-.39.28-.16.73.13,1.02-.59l.37,1.24.4.02c.05.28-.26.37-.28.63-.02.2.19.52.13.61-.04.06-.55.32-.81.67-.54.77-.15.78-1.01,1.39-.14.1.02.29-.21.46-.33.25-.74.2-1.01.34-.08.04-1.37.93-1.45,1.02-.07.08-.16.68-.42.9-.13.12-.33-.68-.56-.42-.28.32.43.4.28.7-.24-.02-.52.05-.75,0-.35-.08.18-.42-.94.07-.33.15-.64-.13-.57.47-.7-.09-.92.11-1.46.44-.13-.5-.21-.63-.77-.56l-.07.56-.56-.56c-.16.11-.32.28-.54.25-.44-.06-1.8-.93-2.2-1.04-.29-.08-.35.19-.56.15-.61-.11-.54-.51-.76-.72-.28-.27-.52-.4-.83-.61-.19-.13.04-.39-.52-.14.21-.37-.16-.51-.24-.8-.09-.34.38-.26-.53-.46l-.5-1.55h-.7s.42-.63.42-.63c-.68-.42-.31-1.36-.44-1.79-.05-.17-.28-.28-.31-.38-.16-.54.19-.99-.79-.98l.17-.68.4-.09c-.36-.25-.16-1.43-.3-1.59-.06-.07-.44-.01-.54-.23l.7-.35c-.02-.3-.41-.39-.43-.63-.07-.6.3-.5.3-.57,0-.19-.2-.35-.23-.55-.05-.38.39-.72-.34-.64-.05-.69.2-1.06.42-1.67l-.56-.14.42-.63-.28-.13.28-.49c-.39,0-.44-.44-.4-.76l.4-.29c-.42-.95-.59-1.54.01-2.46h-.42c.05-.42.39-.77-.14-.91l.42-.77-.42-.07.71-1.12-.56-.46c-.05-.22.31-.84.27-1.24-.02-.29-.28-.19-.27-.26,0-.09.14-1.07.16-1.12.08-.22.62-.22.39-.5-.03-.03-.27,0-.38-.21-.06-.1.38-1.14.33-1.66-.03-.28-.19-1.31-.18-1.57,0-.18.45-.49.08-.91l.42-.07-.56-.35c.15.04.7-.71.71-.77.05-.35-.41-1.04-.37-1.34.04-.27.35-.24.42-.53.14-.63-.18-1.5-.17-1.63.01-.12.26-.23.31-.36.17-.48.05-.87.07-1.32.04-1.24.26-2.92.55-4.06.02-.08-.15-.43-.12-.54.01-.05.74-.42,0-.51l.28-.35-.28-.14c.57-.49-.14-2.04.09-2.46.6-1.09,2.9.11,3.54-.58.03-.03-.13-.31.1-.4l1.26.56.57-.42.13.28c.61-.28,1.93-.19,2.65-.1.21.03.33.18.51.24v-.42c.33-.15.7.28.88.25.6-.1.85-.66,1.72-.51.38.07.58.37.83.38.81.05.88-.6,1.29-.65.39-.04,1.6.52,1.74.38v-.56s1.12.28,1.12.28v-.42s.42.28.42.28v-.42s1.32.57,1.32.57c.19-.33.61-.6.72-.14.85-.26,1.4.62,1.96-.57.11-.05.04.16.11.23Z"/><path d="M57,13.53l.09-.25c.5.25.53.77,1.16.73.2.38.58,1.21,1.01,1.09,0,.42-.6.62-.68.72-.03.03.12.19.09.23-.16.23-.84.12-.26.72-.38.2-.79,0-1.04,0-.1,0-.07.22-.15.25-.76.26-1.36-1.18-1.76.03l-.28-.07c-.09-.56-.94-.19-1.4-.21l.07.42-.84-.42c-.32.21-.18.4-.07.7-.31.24-1.78-.47-2.16-.42-.08,0-.17.47-.57.42l-.07-.42c-.36-.17-.32.41-.49.42-.05,0-.24-.23-.42-.23-.14,0-.28.2-.51.17-.26-.03-.26-.36-.35-.37-.28-.03-.66.24-.98.28-.74.08-1.59.08-2.26.05-.39-.02-1.06-.13-1.09.24h-.21c.18-.27-.51-.28-.63-.26-.08.02-.06.21-.14.23-.19.05-1.16-.06-1.33-.25-.03.53-.04,1.09-.07,1.62-.05.82,0,.34.17,1.01.11.44-.04.99.32,1.08-.07.31-.54.49-.57.59-.09.39.22,1.9.22,2.36,0,1.78-.74,4.02-.73,5.9,0,.42.16.9.24,1.32l.28.07-.7,1.12.29.28c-.56.36.15,1.13-.42,1.06-.06.23.24.06.28.23.04.18-.02.42,0,.61.48-.21,1,0,1.47-.02.21,0,.35-.23.55-.24.32-.02.96.27,1.26.27.05,0,.69-.7.74-.71.24-.05,1.93.06,2.24.11s.49.12.75.31v-.41s.92.11.92.11c.13-.42.57-.41.69.01.28-.5.9-.44,1.36-.27.14.05.24.38.54.48.34.11.45-.33.56.55-.57.17.03.63-.43,1l.28.13-.28.91c-.5.13-.37-.23-.7-.42.06.61-.91.1-1.13.21-.19.09-.2.51-.53.56-.43.07-.45-.35-.5-.34-.1,0-.95.23-1.09.28-.17.06-.17.31-.76.39-.7.1-.79-.26-.83-.26-.18-.02-.61.15-.9,0,.24.33-.1.23-.16.54l-.75-.26-.07.42c-.38.07-.61-.39-.91-.49-.37-.12-.91.37-1.32.07l-.29.64-.47-.21c-.2.03-.75,1.55-.75,1.77,0,.17.19.28.18.47-.01.38-.35.92-.21,1.39l.56-.14-.16.68-.4.02c.28.64-.18,1.3.14,1.87.11.19.41,0,.12.78l-.4.09c-.1.43.29.32.29.42-.02.47-.43.7-.11,1.68.03.09.22.09.25.17.33.93-.39,1.12-.39,1.68,0,.18.2.29.21.51.02.48-.3,1.59.18,1.71-.05.32-.41.33-.42.36-.04.06.17.2.2.35.17.68-.25.52-.35.63-.03.04.27.39.27.63,0,.41-.6.64.15.77l-.28.21c-.08.32.26.15.29.29.07.34-.06.61-.43.62.55.48,0,1.36.21,1.68.07.1.28.08.33.21.02.04-.03.88-.06.91-.16.24-.47.18-.48.41l.27.06-.13.5.42-.14c-.09.32-.24.53.14.63-.56.47-.86.64-.87,1.45-.55.29-1.2-.3-1.45.44l-.35-.7-.42.28c-.22-.44,0-1.01-.08-1.42-.26-1.28-.51-1.26-.53-2.72,0-.22-.35-.52-.09-.91l-.28-.07c.64-.24.13-1.16.18-1.67.02-.19.41-.76.38-.79l-.56.07c-.09-.47.48-.69.54-.79.02-.04-.24-.59.02-.82l-.42-.14c.51.06.1-.22.13-.47l.44-.57-.3-.15.15-.4c-.43-.14-.5-.77.14-.64.11-.35-.33-.34-.4-.44-.04-.06.09-1.06.26-1.17l-.29-.15c.1-.42.43-.98.15-1.37-.09-.13-.28-.08-.28-.1-.05-.08.16-.17.18-.28.11-.45.32-.66.35-.79.12-.51-.79-1.32.03-1.52l-.42-.21.56-.91-.56-.07c-.03-.25.28,0,.3-.34.02-.4-.26-.8-.25-1.13.02-.28.33-.55.23-.91l-.28.14c-.21-.59.36-.78.41-.93.13-.39-.17-.78.14-1.56s-.75-1.08,0-1.85l-.42.07c-.11-.5.41-.82.42-.86.1-.44-.12-.97-.06-1.33.07-.46.71-.82-.07-1.17,1.08-.76-.14-1.82.7-2.38l-.56-.07.42-.91-.42-.14c.27-.33.15-.75.7-.63l-.28-.28.24-.02c-.09-.34.14-.51-.25-.61.46-.53.45-1,.14-1.61l.42-.07c-1.26-.56.17-1.5.22-2.02s-.43-.93-.07-1.48l-.29-.22c.86-.38-.13-1.75.7-2.46l-.28-.15.12-.32-.25-.09c.3-.52.68-1.79-.11-2.06l.11-.25-.7-.15c.31-.56.91-1.13.56-1.82.44.08.89-.52,1.16-.53.42,0,1.16.18,1.44.53l.14-.28c.13.17.7.29.84.25.05-.01.67-.81.63.17l.28-.56c.56.46.82-.05,1.32,0,.3.03.61.32.91.35.26.03.46-.17.65-.16s.38.22.7.23c.28,0,.6-.18.91-.15l.08-.56c.59.51,1.9,1.15,2.03,0,.44-.1.6.32.91.53l.42-.37.64.12-.14-.28c.46.27.98-.08,1.2-.09.38-.02,1.74.81,1.77-.32.36.06.66-.09.69.4.36-.61,1.18-.46,1.79-.32Z"/><path d="M116.17,14.16c.06.07.05.26.12.37.09.13.29.14.31.17.02.02-.13.36-.11.59.06.56.38.81.39.86.07.56-.05,2-.2,2.53l.51.69c-.53.73-.51,2.39.41,2.75l-.53.78c-.09.42.32.61.35.69.19.55-.38.63-.39.71-.02.15.21.43.23.61.03.35-.34,1.4-.17,1.97.19.65.28.58.19,1.45-.14,1.25-.26,1.42-.11,2.69.04.33-.29,1.33-.12,1.45l.55.08-.26.08c.3.54-.19.87-.27,1.32-.03.17-.12,1.27-.09,1.4.12.51.71.45.34,1.23-.1.2-.75.45-.13.6-.17.27-.32.67-.3.99.02.34.44.21.44.55-.42.61-.14,1.11-.28,1.76l.7.14c.06.23-.19.1-.24.16s.08.41-.07.52l-.39.02c.63.57.32,1.26.42,1.73.02.11.27.09.27.15,0,.09-.13.85-.16.89-.05.08-.34.09-.36.23-.03.16.31,1.33.21,1.67-.06.2-.35.34-.35.44,0,.07.19.19.2.3.02.2-.16.41-.03.61.1.16.44.18.59.49.02.04.02.88,0,.92l-.64.27.29.09c-.33.62.15.89.21,1.3.05.36-.59,1.12.33,1.48l-.56.72c-.04.33.4.5.41.55.04.14-.21,1-.23,1.27-.02.42.25.85-.02,1.26l.25.12c-.26.38.09.69.13,1.02.01.11,0,1.31-.02,1.37-.01.04-.51.56-.55.59-.06.03-1.25.43-1.32.44-.16.02-.28-.16-.42-.19-.64-.13-.93.08-.6-.69l-.2-.2-.49.12c-.16-.15.35-1.18.36-1.34s-.44-.46.2-.69c-.47-.47-.38-1.01-.28-1.61h-.42c.19-.47.72-1.53-.14-1.4l.25-.16c-.19-.33.11-.56.13-.77.03-.38-.35-.78-.1-1.17h-.42c0-.64.68-.55.51-1.19l-.37-.07c.46-.78-.27-1.1-.26-1.57.01-.42.18-.91.68-.82l-.65-1.33.46-.55-.09-.99-.43-.08c0-.56.22-.63.56-1.05l-.26-.09.09-.38-.25-.09c.37-.52.31-1,.29-1.61h-.56s.4-1.2.4-1.2l-.54-.21.56-1.47-.42-.14.56-.7-.42-.15c.39-.57,0-1.32.06-1.68.02-.15.26-.25.31-.41.1-.36.01-.89-.51-.77l.17-.68c.19-.08.45.12.39-.22-.09-.57-.67-.05-.57-.85.03-.25.23-.19.28-.31.11-.31.08-.7.29-1.01l-.42.14c.02-.19-.05-.43,0-.61.02-.07.71-.22.04-.4.17-.31-.13-.24-.15-.32-.09-.31.35-.59.38-.72.03-.14-.34-.53-.23-.82.03-.09.39-.08.25-.49h-.56c.21-.71.04-1.34.22-2.12.32-1.33.05-1.17.08-2.43,0-.32.04-.76.26-.99l-.28-.14.28-.14-.42-.07c-.04-.36.52-.72.54-.77.01-.04.01-.8,0-.84-.03-.1-.52-.17.03-.84l-.28-.13c.59-.42-.48-.62.42-.98l-.43-.29c.1-.32.36-.7.36-1.03s-.53-.59.04-.77c-.28-.45.14-.76.22-1.13.08-.34-.05-.81.18-1.18.38-.61.67-.12.81-.57.14.18.47.18.59.32Z"/><path d="M22.85,68.75s.24,0,.25.24c.01.35-.24.78-.16,1.11.03.11.29.09.28.16-.02.17-.33.51-.29.83.01.1.28.03.3.29.03.35-.15.67-.15.99,0,.67.19,1.36.2,2.03.24-.24.29-.6.49-.88,1.29-1.8,2.41-3.61,3.83-5.47.44-.58.75-1.93,1.78-1.5.15.21-.88,2.42-1.09,2.8-.41.74-1.58,2.07-1.79,2.68-.35,1-.63,1.22-1.19,2.06-.19.28-.36.59-.56.87.21.03.42.16.59.28,1.97,1.42,3.58,3.8,5.15,5.68.3.36.67.14.56.96-.16,1.27-1.78.38-2.32-.2-.22-.24-.94-1.05-1.13-1.3-.16-.21-.69-1.5-.79-1.6-.07-.07-.3-.05-.45-.18-.28-.24-.24-.69-.91-.56l-.03-.67-1.16-1.01c-.19-.07-.9.59-.91.65-.02.09.11.38.1.56-.02.56.02.92.01,1.52,0,.71-.23,1.59-.13,2.25.04.26.26.18.29.3.18.76-.39,1.35-1.06,1.57-.34-.67-1.14-.42-.75-1.3l-.29-.15c.48-3.23-.17-6.62-.01-9.83l-.27-.12c.48-1.82.04-3.84.56-5.69,1.47-.08.77,2.17,1.02,2.63Z"/><path d="M37.24,67.12c.07.06.3,1.02.86.82.09.24-.22.34-.23.49-.03.38.5.68.51.73.02.1.15,1.22.16,1.37.05.89.22,2.45.44,3.47.03.16.28,1.04.31,1.1.07.13.37,0,.43.11.1.21.02.44.07.62.04.13.28.08.28.17,0,.3-.39.41-.49.63-.33.7.4.96.49,1.48.05.31-.1.64-.07.84.12.79.42,1.52.47,2.38.03.57-.1,1.08.02,1.6-1.19-.12-1.78-.92-1.96-2.05-.11-.74-.18-1.61-.22-2.32-.52-.39-.24-1.17-.56-1.65-.42.22-.99.2-1.42,0l-.06.27c-.33-.36-1.64-.35-1.97-.07-.22.19-.35,2.14-.45,2.52-.02.07-.19.05-.21.14-.11.39-.31,2.03-.93,1.88-.33-.08-.47-.78-.47-1.07,0-.83.48-2.41.59-3.33.04-.3-.11-.8-.08-.95.01-.05.39-.28.5-.8.48-2.18.91-4.18,1.52-6.34.06-.23-.04-.44.02-.66.14-.46.73-.93.93-1.38h1.5ZM36.88,72.39c-.19-.42-.16-1.82-.24-2.35-.05-.29-.12-.76-.5-.7.1.93-.34,1.78-.5,2.59-.21,1.11-.14,2.25-.89,3.25l.19.31c.88-.28,1.66-.51,2.6-.4.06-.24-.27-.06-.29-.23-.03-.21.11-.9.08-1.24-.04-.39-.33-.97-.44-1.23Z"/><path d="M80.28,68.39c.24.19.31,1.1.38,1.37.6,2.06,1.06,4.23.99,6.25-.03.74.32,1.18.32,1.25,0,.47-.34,1.4-.4,1.84-.05.38.31.7-.14.97l.28.27c-.09.32-.54.48-.63.78-.06.23.1.44.05.53-.22.4-1.02.55-1.3.74-.16.11-.21.41-.3.41-.21,0-.56-.33-.84-.42-.33-.1-1.39-.17-1.46-.22-.07-.04-1.08-.92-1.12-.98-.43-.59-1.18-2.51-1.26-3.25-.15-1.39.24-3.53.49-4.95.22-1.29.59-3.32,1.52-4.3.46-.49,1.09-.84,1.57-.19l.41-.51,1.45.4ZM79.33,70.05c-.48.06-.88-.83-.98-1.26-.77.29-.57,1.15-.73,1.61-.03.07-.2.08-.23.18-.44,1.51-.61,3.32-.59,4.88l-.27.13v.21c.56-.03.1.36.05.7-.04.3.19.61.21.91.04.73-.14.39.15,1.17.34.94.2,1.31,1.16,1.9.64.39.98.42,1.65.06-.25-.55.29-1.02.3-1.44.03-1.56.17-3.23-.05-4.87-.11-.8-.37-1.52-.5-2.3-.09-.57.23-1.15-.44-1.39v-.28s.28-.21.28-.21Z"/><path d="M91.35,70.02c-.44.87-.21,4.12-.27,5.42-.07,1.55-.38,3.43-1.23,4.59-.07.09.13.33.1.45-.04.19-.4.26-.54.43-.13.16-.13.41-.28.56-.19.19-.65.18-.73.61l-2.11-.14-1.06-1.26.13-.4c-.19.2-.69-.47-.7-.52-.03-.13.11-.33.06-.48-.61-1.87-.95-2.51-.88-4.53.04-1.25.11-2.66.22-3.82.06-.65.09-2.9,1.12-2.47.66.27.51,1.68.51,2.22,0,.98-.12,7.08.27,7.61.45.6.22.38.46.86.07.14.61,1.11.69,1.11.64-.08.95-.26,1.26-.83.08-.15.73-1.53.74-1.62.05-.3.36-2.9.31-3.04-.03-.11-.27-.08-.28-.18-.03-.18.2-1.09.23-1.41.03-.29-.28-.4.2-.53v-.21s-.29-.09-.29-.09c.36-1.1.09-2.21.19-3.32.06-.66.24-.89.52-1.33.18-.29-.02-.83.75-.54.9.33.52,1.35.5,1.98,0,.27.18.77.12.88Z"/><path d="M99.52,68.78l.42-.14c-.35.79.21.72.28.94.1.3.09,1.06.18,1.47.25,1.15.46,1.33.1,2.67-.03.11-.23.1-.24.12-.03.07.15.3-.06.72-.34.7-.89.85-1.34,1.26-.08.08-.02.33-.28.49-.29.18-.55.02-.68.05-.09.02-.06.24-.16.26-.05,0-.97,0-1.01-.03-.06-.03-.31-.68-.72-.53.42.43.06.6.05.79-.02,1.16.26,2.31.46,3.41.05.28-.31.5.19.63-.48.31.02.75-.06.92-.06.12-.32.23-.41.42-.09.17.27.36-.27.25-1.61-.32-1.44-3.05-1.36-4.31h-.42c.14-.33.32-.69.3-1.06-.02-.27-.3-.2-.3-.28,0-.18.25-.63.29-.98.05-.53-.21-1.16-.22-1.59,0-.19.32-.62.18-.93-.04-.1-.26-.02-.25-.14.01-.18.21-.29.22-.42.1-1.13.04-2.04.2-3.1.11-.76,0-1.53.17-2.29.91.06,1.89-.41,2.75-.2.17.04,1.25.35,1.31.39.12.1.11.35.22.48.19.23.57.26.48.72ZM98.31,70c-.19-.35-.23-.83-.56-1.06-.45-.31-1.22-.49-1.74-.29.48,1.7,0,3.39.05,5.09.01.33.22.72.21,1.01-.01.3-.34.55-.26.9l.71-.92c.37-.05,1.07.03,1.36-.24.05-.04.66-.98.7-1.06.28-.61-.14-.82-.12-1.36.03-.77.41-.8-.09-1.86-.08-.17-.25-.18-.27-.22Z"/><path d="M56.15,69.59c-.23.28-1.83-.17-2.29.46l-.27-.29c-.4.5-1.93-.12-2.19.22-.22.42.2.77.25,1.13.09.67-.32,1.63.19,2.08l-.28.07c-.07.36.07.22.28.35l-.28.43c.67.1-.05,1.15,0,1.19.22.03.42-.1.63-.11.58-.01,1.16.04,1.68.04.28,0,.66-.19.85-.16.04,0,.63.56.63.6.03.29-.6,1.08-.8,1.15-.48.16-1.14-.12-1.47-.04-.43.1-.63.58-1.38.07-.02.35-.31.69-.28,1.04.02.23.23.42.25.6.06.74-.3,2.11.39,2.7.51.44.44-.09.72-.25.23-.13.58-.1.84-.3s-.11-.63.85-.66c.8-.02.69,1.39.33,1.82-.17.2-.42.15-.53.28-.08.09-.04.32-.17.45-.04.04-1.04.55-1.12.57-.26.08-1.49,0-1.73-.11-.12-.06-.89-1.1-.92-1.2-.05-.2.07-.4.03-.6-.08-.34-.45-.61-.46-.65-.05-.36.04-1.06-.02-1.51-.11-.9-.15-.6-.06-1.61.02-.23-.38-.37.06-.64-.65-.21-.05-.97,0-1.42.15-1.47.03-3-.08-4.49-.05-.66.17-1.56.32-2.17.24-.08.49-.15.75-.2,1.05-.18,2.67-.08,3.69-.36.14-.04.05-.32.3-.28.72.12,1.98.99,1.31,1.79Z"/><path d="M71.73,67.69c.15.32.23.98-.11,1.18-.17.1-.38-.09-.5-.06-.41.09-.7.1-1.05.17-.06.01-1.04.54-1.11.59-.62.43-.32.63-.35,1.12-.01.21-.19.32-.22.41-.03.11.21.05.23.1.07.2-.07.3.19.61.6.7,3.8,3.17,3.93,3.81.05.25-.06.56,0,.79.04.16.39.16.42.31.03.14-.2.38-.23.58-.17,1.28-.18,2.14-.66,3.42-.05.13.07.32.03.39-.03.04-.57.64-.68.76-.35.38-1.12.89-1.63.95-.17.02-1.25,0-1.52,0-.07,0-.06-.23-.28-.3-.5-.18-1.2-.12-1.54-.26-.04-.02-.26-.51-.46-.69-.16-.14-.4-.14-.45-.18-.03-.04-.12-.81-.11-.95.06-.73.51-1.38,1.06-1.83.02.83.64,1.51,1,2.23l.46-.14c-.03.34,1.64.43,1.74.4.04-.01.51-.62.52-.66.08-.26,0-.54.07-.75s.57-.89.66-1.47c.07-.44-.31-1.13.18-1.22-.27-.27-.24-.91-.47-1.16-.05-.06-1.07-.99-1.14-1.03-.22-.13-.53-.09-.61-.16-.06-.05-.04-.31-.18-.45-.25-.25-.85-.45-.94-.54-.1-.1-.56-.69-.72-.89-.44-.54-.45-1.41-.83-2.04,0-.26.28-1.12.44-1.33.28-.36,1.48-1.53,1.82-1.68,1.04-.46,1.96-.34,3.01-.02Z"/><path d="M17.8,67.7c-.8,1.69-2.04,5.05-2.28,6.91-.08.63.21,1.39-.16,2.08l.29.09c-.5.49-.07.53,0,.92.15.94.38,2.62.92,3.42.27.4,2.45,1,1.39,1.95-.13.11-.83.39-.97.38-.38-.02-.6-.59-.88-.79-.13-.1-.36,0-.46-.08-.54-.4-.56-.75-.72-1.23-.07-.2-.33-.19-.37-.26-.16-.29-.67-2.36-.73-2.85-.04-.35.35-.44-.29-.7.58-.65.09-1.22.13-1.82.03-.51.37-1.62.44-2.25.12-1.09.17-.86.49-1.88.24-.76.05-1.7.76-2.18l-.28-.14c.12-.15.33-.27.42-.42.59-.94,1.65-3.09,2.39-3.78.13-.12.52-.19.69-.36.59.88.01,1.34-.34,2.11-.18.39-.36.66-.46.87Z"/><path d="M43.68,67.82c.12.07.41,2.09.43,2.43.06,1.11.02,2.87-.02,4.02-.01.35-.31,1.61-.25,1.85.03.1.29.09.29.16,0,.21-.26.41-.24.56.08.77.32,1.58-.06,2.51l.28.14c-.22.35-.09,1.26.25,1.46.05.03,1.15.3,1.21.29.05-.01.76-.52.93-.64.12-.08.15-.27.25-.34,1.06-.66,1.49,1.15.83,1.78-.11.1-1.14.7-1.29.74-.97.28-2.17.09-2.94-.55-.64-.54-.68-.86-.93-1.57-.11-.32-.25-.07-.22-.85.06-1.38-.04-2.99-.03-4.52,0-.45.26-1.4.26-1.69.01-1.1-.58-2.64.07-3.84-.28-1.16-.4-2.16,1.17-1.95Z"/><path d="M105.19,67.33c1.37.91,2.65,2.67,2.98,4.35.09.48-.02,1.29.05,1.63.02.12.28.04.3.3.02.3-.04,1.03-.05,1.41-.06,2.42-.47,4.13-1.66,6.06-.27.43-.23.72-.79,1.14-.91.7-2.04,0-1.31-1.13.18-.28.65-.78.84-1.05s.31-.58.56-.81l-.27-.07v-.27c.77-.13.22-1.44.84-1.9l-.29-.14c.32-.56.17-1.39.22-2.05.1-1.17-.13-1.55-.18-2.54-.01-.22.18-.53.1-.8l-.42.14c0-.24.04-.5-.03-.74-.13-.43-1.72-2.34-2.15-2.9-.25-.34-.77-.23-.42-.98.19-.41,1.05-.15,1.38.03.17.09.21.28.29.34Z"/><path class="cls-1" d="M79.33,70.05l-.28.21v.28c.67.24.35.81.44,1.39.13.78.39,1.51.5,2.3.22,1.64.08,3.31.05,4.87,0,.42-.55.89-.3,1.44-.68.35-1.02.33-1.65-.06-.96-.59-.81-.96-1.16-1.9-.28-.78-.11-.44-.15-1.17-.02-.3-.25-.61-.21-.91.05-.34.5-.73-.05-.7v-.21s.26-.13.26-.13c-.01-1.56.15-3.36.59-4.88.03-.1.2-.11.23-.18.17-.46-.04-1.33.73-1.61.1.43.5,1.33.98,1.26Z"/></g></svg>