<?xml version="1.0" encoding="UTF-8"?><svg id="Layer_2" xmlns="http://www.w3.org/2000/svg" viewBox="0 0 289.48 107.99"><g id="fried_palm"><path d="M142.94,54.59s.25,0,.23.09c-.2.23-.27.52-.41.78-.05.09-.23.07-.26.19-.06.21.26.79.2,1-.04.15-.24.27-.27.4-.21.73-.84,1.91-.88,2.63-.02.3.55.91-.13,1v.13c.17-.12.49.62.49.74,0,.06-.22,1.14-.24,1.2-.08.21-.47.09-.36.83,0,.05.16.36.25.78,0,.04.45.36.4.63l-.68.14c.1.18.38.73.38.9,0,.26-.3.31-.24.58l.68.07c-.37.08-.14.25-.26.41-.13.18-.51.22-.55.67l.54.07c.09.05-.38,1.32-.39,1.41-.03.46.34,1.42.18,1.98-.07.25-.32.37-.41.59-.08.19-.15,1.39-.03,1.59.18.32.5.14.33.9-.08.35-.02.46-.48.41v.27c.27-.16.28.47.24.6-.05.16-.49.2-.34.55.06.15.47-.05-.03.67l.67.34-.65.56c.06.28.1,1.02.05,1.26-.04.18-.3.26-.33.42-.01.07.24.75.17,1.33-.09.66-.75,1.49-.32,1.95-.46.05-.53.63-.33.95-.09.31-.3.42-.61.4l.4.13c-.21.79-.5.54-.81.74-.15.1-.17.58-.47.76-.18.11-.31-.02-.39,0-.12.03-.05.26-.29.27-.42.02-.8-.39-1.33-.14l-.22-.55-.46.13-.16-.13c-.08-.3.05-.52-.07-.84,0-.02-.15-.33-.16-.35-.31-.61-1.19-1.86-1.44-2.43-.17-.38.12-.7-.28-1.1l-.27.27-.28-1.89-.53.13c.1-.71.14-1.26-.03-1.96-.02-.07-.24-.02-.25-.26-.02-.3.12-.5.13-.69,0-.05-.21-.04-.28-.25-.16-.49.12-1.27-.65-1.56-.06.19.01.6-.04.74-.06.19-.69,1.77-.8,2-.09.19-.31.2-.35.3-.05.13.07.63.03.81-.15.79-.78.93-.84,1.9-.03.51.58,1.07-.43,1.14l.12.38c-.77.29-.53,1.28-1.2,1.57l.4-.07c.25.32-.82,1.3-1.21,1.22l.13.26c-.33.07-.64.25-.97.42-.1.05-.1.23-.2.26-.66.16-1.46-.19-1.39-.94l-.4.14-.27-1.48-.15.25-.66-.12.1-.24c-.39-.1-.17-.52.18-.63l-.67-.34.27-.81-.55-.07c-.15-.28.01-.52-.04-.77-.07-.38-.52-2.37-.63-2.58-.1-.17-.33-.05-.41-.09-.06-.03.15-1.11.04-1.45-.01-.04-.31-.66-.35-.68-.07-.05-.27,0-.33-.05-.03-.03-.27-.68-.28-.75-.1-.62.35-1.31.12-1.97l-.55-.09c.46-.65.01-.83-.07-1.19-.07-.32-.26-.84-.28-.95-.04-.35.04-.98.07-1.35-.45.05-.61-.26-.61-.67,0-.27.27-.31.29-.47.11-.78-.56-1.28-.35-1.88-.5-.17-.06-.45-.13-.89h-.4c-.01-.31.39-.55.4-.73.03-.25-.18-.57-.2-.85-.03-.4.31-.61-.06-1.16-.14-.21-.85-.4-.14-.7v-.27c-.42-.14-.29-.62-.53-.95l.39-.26c-.34-.33-.47-.76-.28-1.21l-.19-.18-.34.1c.01-.35.16-.65.15-1.01-.03-.91-.17-1.33-.09-2.3.05-.52.12-1.04-.06-1.54h1.48c-.38.77,1.29,1.24.41,1.48v.13c.09-.03.64.58.66.63.09.27-.09.53-.08.77s.01.98.03,1.03c.05.17.39.47.37.79.83-.09-.2,1.08.78.97.03.31-.32.4-.28.74,0,.07.23.05.25.14.14.7.16,1.37.22,2.02.02.21.26.63.2.93l.55.09-.41.88.28.14c-.43.7-.1,1.13-.02,1.75.02.14-.17.37-.11.46.15.22.81.12.4,1.02l.44.24c.08.31.15.93-.31.91v.13c.56.12.41,1.16.63,1.72.08.21.45.11.31.62-.04.16-.38-.08-.13.67.08.24.48.87.52,1,.11.35.13.71-.12.98l.67-.13c-.01.72-.28,1.49-.13,2.16l.67-.13c-.34.52.13,1.02-.14,1.54l.26.13c-.2.19-.11,1.07.02,1.15.06.04.4-.23.53.07l-.28.67.28.46h.8s-.12-.47-.12-.47l.26-.06v-.27s-.27-.07-.27-.07l.26-.08c-.28-.48.05-1.08.55-1.21-.56-.48.13-.84.14-.9.03-.2-.12-.41-.1-.53s.28-.14.37-.29c.2-.38.07-1.52.69-1.73-.53-.78.38-1.76.93-2.28l-.25-.13c.16-.29.14-.71.23-.97.12-.37.39-.94.58-1.3s.64-.4.12-.96l.67-.2v-.6s.94-.21.94-.21v-.53s.54,0,.54,0v.68c.67-.34.63.77,1.35.13.13.32-.15.78-.14,1,0,.05.5.21.27.75l.26-.13c-.04.29.37.6.4.76.03.18-.25.29-.26.51,0,.05.51.22.29.87h.39s-.14,1.22-.14,1.22l.67-.14c-.07.28.2.91.12,1.13s-.73.24-.26.84c.21.27.55,0,.29.57.73.2.07,1.18.4,1.77l.4-.13c-.23.47.91,1.61.14,1.75l.67.61-.41.13c-.02.38-.05.72.41.74l-.06.27c.47.04,1.03-.93.72-1.21l-.52-.15c.35.04.13-.15.33-.41.06-.08.32-.08.35-.23.05-.21-.1-.47-.08-.65.02-.22.22-.38.26-.59.02-.08-.05-1.62-.08-1.7-.01-.03-.48-.17-.07-.44.2-.13.52.18.29-.5-.12-.37-.31-1.06-.2-1.46.04-.15.31-.11.36-.28.14-.58-.14-.57-.22-.71-.3-.55.42-.72.41-.78l-.41-.41.41-.54c-.19-.27-.56.12-.41-.41.12-.39.35-.21.41-.47l-.54-.14.27-.34-.27-.13.68-.81-.28-.14.22-.74c-.17-.17-.46-.64-.44-.87.02-.15.26-.23.31-.34.01-.03,0-.57,0-.61-.04-.46-.51-.97-.25-1.52.09-.19.28-.1.32-.37.05-.35.06-.58-.28-.68l.41-.81-.41-.07.27-.2-.4-.54.27-.13-.27-.13c.04-.22.32-.32.36-.37.06-.1.46-1.71.42-2.06,0-.06-.2-.06-.2-.08-.15-.55.22-.7.24-.75.12-.32.02-.67.4-.92-.7-.15-.2-1.31.27-1.42l-.54-.53c.29.04.7-.95.66-1.12-.06-.21-.39-.28-.36-.54.09-.87,1.27-.69,1.65-1.31.71.54,1.61.63,1.89,1.56.06.19-.05.81-.03.85Z"/><path d="M34.31,15.52l.4-.21c.48.27.48,1.07.66,1.34.09.13.33.03.43.16.2.27.28,1.43.93,1-.33.88.55,1.78-.13,2.49.62.25.31.48.4.92.02.11.26.09.26.15-.02.36-.34.75-.46,1.03-.17.39-.26.9-.4,1.41-.03.09.1.29.06.33-.05.04-.45-.13-.53.35-.05.29.36.09.26.39-.13.28-.81.4-.91.51-.18.19-.22,1.11-.33,1.36-.09.21-.33.19-.37.24-.06.09.13.27.1.36,0,.03-.36.22-.46.34-.51.57-.78.83-1.22,1.56-.15.26-.57.31-.32.94-.37.12-.64.05-.53.55l.2-.27c.09.1.23.13.33.21.39.32.79,1.2,1.25,1.51.04.03.19-.1.22-.08.16.12.15.72.7.38l.06.81c.11.19.41,0,.49.06.19.15.14.72.28.86.02.02.3-.15.45.16.1.21.08.49.2.76.13.29.4.34.52.55.18.3.29,1.11.38,1.26.3.55.19-.12.37.76.08.4.33.61.35.67.3.96.49,1.92.82,3.09.04.16.23.3.26.44.06.28-.23.4-.19.58s.63,1.09.89,1.07v.13c-.53.07-.26.99.27,1.15-.22.17-.46.76-.61.87-.44.31-1.66.42-2.13.15-.17-.09-.04-.29-.1-.39-.02-.04-.59.24-.54-.63.02-.39.53-.76-.1-1.07l.11-1.01h-.4c.05-.62.3-.73.09-1.38-.18-.57-.71-1.02-.86-1.43-.3-.79-.69-2.08-1.24-2.81-.09-.12-.33-.14-.38-.22-.13-.21-.14-1.15-.17-1.45h-.66c.32-1.05-.76-1.24-1.09-2.02h-.13c.05.46-.24-.05-.34.4-.26-.16-.36-.51-.58-.67-.13-.09-1.89-.87-2.04-.9-.49-.1-.81.21-1.29-.3-.37.17-.12.65-.6.66l.25.2c-.31.74-.34,1.26-.23,2.07l.52.16-.55.75c-.02.26.21.42.26.67.04.19-.15.54-.11.65.03.11.24.03.28.28.12.86-.36,1.73-.14,2.57.06.25.13.32.4.35.03.28-.54.56-.55.61-.03.25.22.4.24.55.05.38-.29,1.24.18,1.32l-.23.55.37.28-.41.94.39.28c.13.43-.36.58-.39.69-.26.87.21.98.23,1.18,0,.06-.39,1.11-.46,1.16-.29.2-2.11.63-2.33.38l.11-.88-.27-.13.14-.33-.54.07c-.11-.42.49-.71.52-.76.03-.05-.11-.26-.08-.42.18-.84.42-1.74.11-2.58l.27-.15c-.25-.03-.47-.74-.48-.94-.02-.49.53-.8-.2-1.09-.01-.12.69-1.54,0-1.13.21-.32-.03-.77.02-.99.07-.28.5-.23.24-.79-.1-.21-.34-.03-.26-.71s.63-2.31.13-2.7c.48-.54.04-1.09.06-1.34.01-.21.61-.6-.18-.75.23-.32.51-.48.4-.94h-.4c.16-.36.05-.64.54-.54l-.41-.33.41-.81-.29-.26c.19-.62.33-1.49.39-2.16s-.24-1.26-.19-1.96c.02-.25.38-1.02.35-1.07-.01-.02-.24.08-.35-.27s.09-.96.06-1.29c0-.07-.2-.06-.22-.13-.1-.38.34-.99.34-1.38,0-1.03.2-1.25.3-2.13,0-.06-.25-.05-.27-.15-.09-.42.16-2.33.3-2.78.07-.24.42-.44.5-.72l-.26-.26c.53-.22.5-.64.41-1.15l.39.13.22-.4c.57.48,1.61-.29,2.36-.14l-.12-.32.19-.21c.78.31,1.98-.24,2.76.06.38.14.42.52.63.59.25.08.59-.05.86.09s.24.57.39.68c.1.07.84-.09.82.74ZM31.48,16.87c-.14-.85-.67-.34-.99-.42-.15-.04-.26-.28-.45-.35-.05-.02-1-.12-1.05-.12-.2,0-.85.55-1.29.35l-.12,1.16.24.12-.25,1.55c.95-.09-.09.64-.12.76-.02.08-.09,1.46-.09,1.6,0,.18.22.37.08.6l.4.07c-.17.44-.62.81-.49,1.33s.95.86-.05,1.1l.35.33-.08.82.4-.07-.69,2.56c-.02.3.39.18.43.53s-.34.76-.28,1.15c.18,0,.33.03.5-.05.87-.37,1.22-1.15,1.94-1.63.13-.09.35-.04.48-.13.18-.12.54-.5.8-.63l-.21-.54.81-.14-.1-.24.24-.1-.14-.6.67-.2c-.68-.28.2-.45.33-.61.21-.24.5-1.36.7-1.75.05-.1.3-.12.36-.3.06-.16-.06-.36,0-.53.11-.39.59-1.49.57-1.8,0-.1-.54-1.83-.61-1.99-.07-.17-.38-.08-.49-.22-.12-.15.06-.39,0-.55-.14-.41-.92-.85-1.13-1.29l-.68.21Z"/><path d="M155.01,16.38s.03.19.12.21c.18.05,1.21-.03,1.26.01.01,0-.14.22-.01.34.3.28.98.31.84,1l.39.02c-.03.11-.12.62-.1.65.15.21.59.06.24.83h.41c-.48.52-.06.7-.02,1.03.03.23-.32.32-.25.58h.54s-.4.81-.4.81h.4s-.14,1.94-.14,1.94c.61.21,0,1.02.03,1.51.01.33.43,1.57.66,1.88l-.27.13.28.15c-.06.49-.22.97-.16,1.48.03.25.24.18.26.26.02.07-.34,1.17-.25,1.42l.4-.13c.23.56-.27.7-.28.75-.01.21.29.55.27.8-.02.21-.35.71-.06,1.14.07.1.31.11.34.22.08.31-.08.59-.41.59.51.48.03.54,0,.88-.03.29.26.45.28.67.02.27-.22.41-.23.53-.02.23.5,1.21.22,1.68h.41c-.43.6.07.77.11.88.08.23-.34.58-.38.94,0,.09.14,1.2.18,1.25s.21.08.28.17c.4.49-.08.54-.13.86-.07.49.32,1.06.4,1.53.13.71-.36,1.44-.19,2.18h.54c-.45.63-.38.64,0,1.28-.59.14-.58.6-.85.84-.19.18-.67.27-.84.71l-.2-.06c-.24-.73-.67-.7-1.21-1.08l.4-.4-.29-1.13-.38-.02c.45-.45.37-1.19.26-1.79-.02-.11-.21-.11-.23-.17-.09-.33.11-.89.07-1.07-.04-.19-.43-.3-.25-.61h-.4s.41-1.76.41-1.76h-.54c-.12-.12.36-1.17.37-1.44,0-.36-.27-.68-.3-.98-.04-.42.27-1.7.31-2.12.04-.33-.6-.75.03-.92-.35-.19-.32-.65-.4-.78-.06-.1-.29-.09-.29-.17,0-.19.22-.37.25-.56.02-.13,0-1.33-.04-1.39-.06-.09-.29-.1-.32-.15-.04-.06.17-1.11.12-1.38-.02-.1-.26-.08-.28-.18-.12-.56.73-.97-.14-1.35-.08-.35.3-.71.26-.9-.03-.16-.32-.27-.34-.42-.01-.1.43-1.11.36-1.15h-.41c-.04-.31.4-.58.41-.62,0-.17-.18-.5-.21-.72-.08-.47-.12-.74-.22-1.26-.12-.62.08-1.14,0-1.4-.08-.27-.3-.38-.32-.51-.05-.3.13-.93.05-1.46-.07-.44-.34-.89-.77-1.04l-.27.67.27.13c-.44.29-1.28.39-1.65.67-.21.16-.28.53-.51.74-.36.33-.76.09-.59.89l-1.29.34v.47c-.48.11-1.01-.25-1.43-.26-.44,0-.79.53-1.06-.14l-.27.54c-.31-.17-.51-.28-.47-.67-.67.6-.66-.24-.74-.27-.29-.1-.18.44-.33.27-.25-.28-.08-1.32-1.01-.55.04.36-.06.78.33.88-.37.23-.14.71-.21.88-.05.12-.29.21-.32.35-.03.13.17.25.19.39.02.12-.09.28-.08.38.02.09.71.17,0,.42l.27.15-.02.45h-.39c-.06.34.05.23.26.34-.45.65-.14,1.29-.14,1.89,0,.39-.31,1.1.15,1.22-.33.31-.47,1.46-.41,1.87,0,.06.85.63-.13.63l.54.47c-.07.41-.46.3-.51.35-.07.07-.03.69-.15.88l.42.52-.42,1.28h.54c.14.58-.32,1.07-.39,1.56-.03.22-.06,2.79,0,2.93.07.22.58.09.26.67-.06.11-.26.12-.26.19,0,.25.4,1.24.38,1.45-.02.25-.47.52-.38.82.34.12.46.48.35.82-.06.17-.28.25-.33.43-.15.54.42,1.75-.56,1.94l.13.39-.46.12-.31-.4c-.35.24-1.61-.61-1.62-.87.35-.39.13-.74.16-1.08.01-.12.2-.24.2-.4,0-.36-.59-1.08,0-1.49l-.4-.27.27-.07-.27-.2.4-.82-.4-.07c-.11-.3.17-.55.2-.74.08-.53-.08-1.17-.07-1.48,0-.17.36-.86.27-1.21l-.54-.14c.64-.58.23-.86.2-1.41,0-.16.16-.26.14-.42-.02-.21-.26-.5-.22-.71.02-.12.29-.11.38-.28.12-.23-.28-1.41.04-1.76l-.41-.14c.54-.14.07-.17.06-.4-.03-.52.43-.55.45-.67l-.45-.81c.01-.55.48-.6.49-.7.04-.27-.37-.64.12-.93-.88-.55-.11-.61,0-.75.02-.03-.19-.39-.2-.59-.01-.41,0-.85-.01-1.22,0-.34.58-.47-.17-.8.5-.77.09-.64-.02-.84-.29-.57.1-.55.17-.77.08-.28-.07-.58.07-.85.11-.23.38-.27.42-.37.03-.09.09-1.79.04-1.87-.12-.19-.44,0-.42-.15.37-.1.26-.55.35-.87.1-.37.14-.54.24-.96.06-.24.29-.47.32-.63.05-.34-.35-.64-.3-.85.06-.27.79-.65.61-1.21.71.11,1.69.3,1.49,1.21l.4.07-.27.47c.87.01,1.21.96,1.89,1.09-.24.18.21.74.3.78.13.06.47-.14.72-.13.51.02.72.32,1.52.05.15-.05.14-.26.27-.3.27-.09.7,0,.98-.21l.12-.68c.41-.26.72-.47,1.18-.78.74-.51.88-2,2.34-1.7l-.14-.27c.18,0,.33-.03.5.05Z"/><path d="M73.89,17.63c.2.27.41.31.65.46.88.54.66.69,1.32,1.51.38.46,1.05.66,1.21.85s.14.55.26.83c.16.36.72,1.06.96,1.36.08.1.1.31.13.45l.4-.14c-.03.61-.14,1.22-.1,1.82,0,.06.12.97.14,1.04.08.28.4.49.47.74.1.4,0,.94.07,1.32.01.06.6.89.62.94.05.16-.21.85-.25,1.07l.56.57c.07.33-.36.64-.37.79-.02.42.65,1.15-.04,1.48l.53.27c-.08.45-.43.52-.5.69-.02.06-.16,1.15-.16,1.21.01.2.24.34.24.4,0,.15-.39.26-.47.38-.21.3-.29,1.02-.72,1.04l.27.4c-.48-.05-.13.45-.21.82-.02.12-.37,1.15-.41,1.2-.24.3-.77.18-.94.4-.19.24-.11.99-.33,1.29l.26.12c-.24.32-.44.42-.81.2-.16.47-.33,1.07-.55,1.51-.35.69-.43.8-.73,1.59-.07.19-.53.96-.74.68.36.72-.64.61-.91.84-.09.07-.22.56-.48.73-.17.11-.42,0-.57.19-.16.2.14.54-.6.4l.13.4c-.32.1-.74-.17-.99-.14-.09,0-.07.23-.27.3-.57.19-1.22.27-1.76.39-.1.02-.08.26-.16.27-.62.05-.8-.71-1.14-.88s-.81-.14-1.2-.42c-.2-.14-.25-.4-.31-.43-.35-.21-.76.31-.41-.91l-.36-.21c.16-.54.41-1.56.38-2.08-.01-.24-.29-.41-.34-.73s.1-1.04.33-1.28c-.92-.49-.19-.9-.1-1.62.08-.58-.29-.41-.29-.66,0-.79.9-2.21.44-2.7.22-.62.16-.94-.02-1.55h.41c.12-.35-.39-.33-.42-.49-.02-.15.14-.44.15-.66.02-.47-.16-1.69.54-1.54-.25-.7.25-1.18-.14-1.81.55-.74-.1-.28,0-.82.07-.38.95-.44,0-.94l.4-.47h-.26s.1-.38.1-.38l-.25-.1c-.03-.36.4-.48.42-.56.05-.35-.06-1-.54-.86-.03-.03.31-.62.35-.77.13-.4.13-.73.1-1.05-.03-.34.56-.33-.18-.67l.54-.48-.4-.27.27-.47c-.31-.06-.4-.77-.2-1,.11-.12.44-.24.45-.34,0-.06-.19-.28-.2-.47-.02-.29.21-.62.16-.82-.1-.4-.51-.28-.07-.97.08-.13.32-.02.27-.23l-.4-.2.48-.47c-.41-.62,0-.5.12-.81.15-.36.24-.54.38-.84s.09-.56.29-.77c.39.39.87.12.94.81.45-.7.91-.54,1.53-.63.2-.03.39-.29.57-.26.51.1,1.07,1.1,1.35,1.23.21.1.42-.08.61.05.25.18.36.68.52.9ZM70.19,17.68c-.94.16-.18,1.1-.19,1.41,0,.25-.28.53-.16.92.07.24.35.41.33.68-.03.28-.39.46-.45.69-.1.39.06,1.28.04,1.72-.13,2.06-.34,4.02-.38,6.09-.01.58-.49,1.34.28,1.63-.07.43-.5.31-.53.34-.05.05.13.81.12,1.01-.03.94.04,1.8-.18,2.62-.04.14.08.34.04.47-.07.2-.38.17-.4.31-.04.26-.03.55-.09.95-.14.89.38,1.01.32,1.32-.03.15-.31.26-.36.54-.07.39.2,1.47.13,1.73-.05.17-.32.17-.36.24-.18.28.09.82.08,1.12,0,.28-.17.53-.17.81,0,.22.37.67.34.93,0,.08-.23.06-.25.14-.11.44.24,1.22.23,1.49,0,.2-.35.49-.13.87.04.04.93-.36.98-.4.28-.21-.03-.12.63-.48.11-.06.12-.3.31-.38.27-.12.54.04.81-.08.14-.06.46-.63.59-.66.16-.04.37.13.43.1.04-.02.54-.62.59-.69.55-.86.13-.9,1.16-1.6.16-.11,1.32-2.98,1.45-3.36.34-.95.92-1.34,1.23-1.96.26-.53-.05-.99.03-1.31.03-.13.26-.14.32-.24.23-.38.44-1.23.36-1.65-.02-.1-.22-.08-.24-.16-.08-.32.24-.8.38-1.08l-.27-.07c-.02-.54-.06-1.02.27-1.48-.81-.11-.12-.92-.19-1.36-.1-.65-.4-.41-.62-.55-.04-.02.21-.65.2-.81-.02-.36-.38-.41-.44-.9-.02-.16-.12-.98-.11-1.04.01-.12.22-.23.2-.38-.04-.35-.93-1.05-.93-1.12-.01-.21.17-.44.15-.64,0-.08-.2-.07-.26-.19-.14-.3-.33-.78-.42-1.11l-.54.14c-.07-.63-.26-1.18-.96-1.01l-.28-.74-.52.12c-.02-.23-.05-.51-.16-.72-.28-.51-1.27-1.2-1.8-1.58-.18-.13-.72-.1-.61-.67Z"/><path d="M118.76,15.52c.23.31-.13.57-.13.61,0,.15.5.19.6.34.12.17.07.51.19.72.09.16.71.28.31.63l-.3.06c.04.32.37.49.43.67.25.76.44,1.52.7,2.37.15.48.07.88.12,1.38s.46,1.33.37,1.76c-.02.1-.21.11-.27.19-.36.59.16.46.25.59.02.03-.16.36-.13.58.03.2.26.36.27.55.02.4-.82,1.03-.13,1.21-.41.35-.07.64-.06,1.02.03.86-.06,1.74.05,2.62l.41.08c-.03.45-.21.49-.53.75.48.59-.01.86-.02,1.19,0,.11.35.1.4.29.04.16-.11.37-.1.52.08,1.19-.1,2.52-.04,3.78.01.27.28.14.3.4.04.63-.39,1.38-.38,1.87,0,.33.36.88.1,1.3l.54-.13c.06.44-.02.57-.4.74.54.89.12,1.73.3,2.66.11.53.42,1.1.41,1.68-.16.45-1.33.47-1.41.97l-1.14-.25c-.1-.19,0-.89-.08-1.14-.04-.13-.46-.09-.12-.76h-.41s.14-.33.14-.33l-.28-.16c0-.31.36-.99.35-1.2-.01-.66-.53-1.85-.58-2.31-.06-.51.58-.97-.17-.87.28-.85.24-1.08-.14-1.88l-.61.24c-.36-.6-1.59-.65-1.55.17-.36.06-.72-.4-.76-.41-.29-.04-1.01.19-1.3.14-.1-.02-.08-.25-.18-.27-.57-.15-.87.31-1.18.28-.08,0-.06-.23-.14-.25-.4-.11-.96.19-1.35-.17l-.36,1.29.28.26c-.13.34-.7.62-.74.73-.06.14.09.32.07.46-.01.11-.23.09-.24.15-.09.39-.08,1.04-.16,1.47l-.41.09c-.1.27.17.65.14.85-.02.14-.36.12-.4.3-.02.1.12.3.08.5-.03.16-.5,1.36-.58,1.56-.41.97-.97,1.66-1.42,2.56l-.85-.12c0-.32-.28-.64-.28-.94,0-.09.06-1.46.08-1.53.01-.06.29-.78.38-1,.13-.35.62-1,.57-1.31l-.29-.15c.23-.55.14-1.11.68-1.48l-.54-.07c0-.44.62-.51.68-.63.04-.08.16-.82.13-.85l-.4-.07c.03-.27.5-.46.52-.5.11-.19-.5-.79.29-.65.04-.29-.58-.02-.54-.2.13-.54.53-.78.54-.83.14-.49-.28-.46-.27-.51.03-.18.44-.49.51-.71.07-.21-.1-.58.05-.88.11-.22.34-.21.37-.24.05-.07-.28-.45-.19-.66.08-.19.52-.38.55-.6.02-.13-.12-.35-.08-.53.22-.97.27-.63.19-1.64-.03-.4.82-.97.89-1.48-.66-.3-.05-1.16.4-1.48-.73-.32.26-.88.27-.95.04-.16-.28-.33-.25-.51.02-.14.28-.3.32-.48.06-.27-.17-.69.07-1.13.11-.19.43-.17.4-.44l-.54-.27c.17-.31.28-.51.67-.47-.38-.39-.11-.35-.06-.63.03-.13.1-.57.23-.68.22-.18.53.26.22-.49.02-.11.27-.12.33-.23.68-1.14.75-2.29,1.09-3.5.18-.65,1.34-2.29,1.88-2.78.45-.41.6-.37,1.24-.65.23-.1.11-.46.73-.27.22.07.46.3.63.31.2.02.43-.35.72-.25ZM117.03,19.54c.12-.47-.38-.39-.66-.21-.1.06-.15.36-.31.44l.4.27-.67.4.4.4c-.07.24-.75.58-.78.63-.08.15,0,.46-.07.68-.06.17-.33.64-.33.73-.02.24.29.36.24.45,0,0-.17-.02-.22.04-.12.15-.15.34-.26.5-.07.1-.29.12-.31.15-.02.03.15.37.12.58-.04.28-.32.36-.37.57-.05.18.06.67-.08,1.05-.03.1-.27.1-.3.32-.03.2.11.44.08.6-.03.14-.34.13-.4.31-.09.27.18.62.13.9-.02.1-.23.1-.27.18-.26.51-.5,1.21-.3,1.78l-.24.02c.61.66-.08.53-.14.77-.08.31.15.8.13.83-.11.14-.55.23-.64.78l.25.25c.08.46-.36.38-.46.64-.08.21.05.42-.02.63-.06.2-.35.41-.39.67-.04.23.11.5.07.74-.03.14-.42,0-.28.36.33,0,.68.12,1.01.02.59-.19,1.35-.68,2.17-.79.2-.03.44.14.64.11l.15-.28c.14.1,1.02.5,1.08.49.11,0,.36-.26.6-.3.61-.09,1.69.85,1.71-.87-.8-.4-.31-.43-.26-.77.03-.24.2-1.75.17-1.84-.04-.13-.61-.35.01-.97l-.28-.15.14-.86-.27.14c-.19-.27-.01-.6-.03-.75,0-.09-.25,0-.26-.26-.02-.55.22-1.09.27-1.48.03-.23-.25-.51.1-.82l-.35-.4.27-.47c-.68,0-.07-1.22-.04-1.7,0-.17,0-.92-.02-1.07-.04-.32-.46-.48-.47-.56-.1-.49.19-.82.2-1.18.02-.59-.61-1.02-.5-1.67l-.36-.04Z"/><path d="M28.09,7.19l.02.24.33-.27c.36.37,1.78.08,2.02.4.28.36.16,1.09.74,1.29-.7.24-.24.77-.66.94l.12.34c-.3.09-.49-.24-.73-.25-.33-.02-1-.03-1.35-.02-.54.01-1.05.44-1.56,0v.41c-.38-.2-1.06-.27-.81.27-.26.15-1.37-.51-1.55.14l-.74-.54c-.07.61-.62.5-1.08.54l.13.4c-.09.12-2.15-.71-1.89.27l-1.28-.36c-.44.57-.95,0-1.6.22-.23.08.13.6-.35.28l.13.4-2.22-.4c-.55.11-1.59.49-2.09.47-.26,0-.67-.34-1.09-.14l-.11.14c.22.44-.07.75-.1,1.14-.02.22-.07,1.45-.06,1.53,0,.05.84.59-.11.63-.21.42.2.84.22,1.11.02.31-.22.85-.16,1.2.04.26.32.18.35.44.05.48-.23,1.29-.15,1.73.02.12.29.04.29.29,0,.35-.33.66-.29.94.01.08.43.06.28.41-.06.14-.33.16-.38.23-.04.06.06.23.03.38-.02.09-.23.18-.19.26,0,.01.18-.03.27.09.28.4-.05.93,0,.99l.4-.13c-.04.54-.64.84-.25,1.4.33.49.45-.08.71-.04.13.02.28.31.36.26.03-.02.13-.71.54-.31l.07.18.08-.25c.39.27.65-.11.9-.13.89-.07,1.94.36,2.67-.56.33.56.79.3,1.08-.14.36.02.6.5.64.52.24.1.63-.26.64.7l.27-.14c.02.35.08.49-.27.61.14.31.29.38.14.74-.49-.21-.71.29-1.21.47-.64.23-1.27.09-1.8.2s-.86.1-1.49.18c-.36.05-1.55.29-1.57.63-.6-.56-.65-.06-.7-.04-.12.04-1,.11-1.05.18.53.73-.18.76-.21,1.07-.02.16.16.25.14.42-.03.33-.43.88.06,1l-.27.47h.41c.07.7-.77,1.3,0,1.55-.28.21-.51,1.38-.34,1.56.15.15.43.1.47.13.1.08-.42,1.49-.42,1.69,0,.25.27.17.29.28.07.54-.44,1.25-.14,1.8l.27-.14v.67s-.4,0-.4,0c-.04.03.13.22.13.34,0,.47-.25,1.18-.27,1.47,0,.07.22.04.3.26.06.17.12,1.85.11,2.17-.01.63-.24,1.52-.22,2.27,0,.21.19.42.2.59,0,.21-.24.35-.24.38,0,.06.34.15.46.45.1.27-.21,1.7-.2,2.1l.28.15c-.3.52-.59.73-.66,1.37l-.74.17c-.43-.59-1.23-.76-1.39-1.55-.03-.13.11-.33.07-.49-.12-.5-.95-.78-.16-1.65.03-.32-.37-.28-.37-.53,0-.14.14-1.16.18-1.32.03-.15.28-.3.24-.37,0-.02-.22.05-.32-.17-.13-.31.1-.64.05-.95-.02-.1-.3-.1-.36-.35-.08-.37.25-.52-.19-.61.27-.26.14-.63.23-.88.06-.17.45-.63.46-.87,0-.09-.2-.06-.28-.17-.29-.41.14-.54.13-.78,0-.17-.22-.32-.25-.54-.07-.68.11-1.2.05-1.94-.1-1.41-.23-2.62.28-4l-.48-2.01.4-.21c.02-.24-.26,0-.28-.33-.02-.27.03-1.14.07-1.46.09-.95.4-1.89.08-2.97-.04-.15-.55-.02.14-.7l-.27-.07.27-.2c-.73-.31,0-.64,0-.69.07-.39-.28-.66-.41-.99l.4-.27-.4.13c.15-.52-.08-1.04.54-1.28l-.28-.15c.05-.26.2-.96.14-1.18-.04-.12-.27-.03-.26-.27.01-.33.31-.93.28-1.22-.01-.09-.25-.07-.28-.17-.14-.49.22-.44.27-.55.46-.96.02-.58-.01-.91-.04-.35.08-.68.15-1.02h-.41s.66-3.31.66-3.31l-.26-.12c.31-.28.53-.96.22-1.29-.24-.26-.7-.27-.49-.67l-.4.13c-.15-.52.18-.68.34-1.01.04-.09.01-.44.06-.48.15-.1.57.14.65.11.03-.01.43-.45.49-.52.21-.25.22-.67.68-.81l.56.96s1.13.11,1.19.1c.82-.17.86-.16,1.77-.16.48,0,1.31.14,1.33-.49.75.28.96.12,1.64.01.19-.03.4.09.52.07.18-.03.27-.37.67-.37.54,0,.29.45,1.13-.07.11-.07.12-.3.24-.33.41-.09,1.28.69,1.39-.13.49.51,1.06-.11,1.67.14l.21-.49c.45-.32,1.52.44,1.69-.19.45.51.63.04.95,0,.19-.02.41.13.64.11.22-.02.72-.37.89-.22Z"/><path d="M16.72,52.92c.06.02.59.43.63.45.14.06.35-.18.5.1l-.13.61.25-.12.02.25.27-.27.15.73-.27.09v.26c.8.16.29,1.06.5,1.56.05.13.47.7.55.79-.22.44-.22,1.29.42,1.16l-.13.4.27-.14.1.62c-.03.2-.52.1-.37.46h.4c-.1.77-.38,1.26,0,2.02l.26-.13-.27.94.54-.13c.07.83-.45,1.22-.4,2.02h.4c.17.49-.62.88,0,1.01-.5.62.09,1.28.11,1.79,0,.16-.21.65-.17,1.05s.53.64-.2.94l.53.4-.2.49.34.31c-.36.44-.27.71-.41,1.19-.39,1.36-.44,2.42-1.01,4.02-.11.32.24.45-.6.69l.11.37-.24.02v.27s.27.06.27.06c-.15.64-.63.78-1,1.16-.11.11-.1.4-.27.54-.27.22-.62-.08-.48.66l-.91.17-.17.91-.34-.12-.12.25c-.55,0-.79-.53-.84-.54-.28-.05-1.57.24-2.04.06-.16-.06-.17-.27-.19-.28-.51-.23-1.17-.45-1.77-.74-.16-.07-.33.04-.56-.09-.69-.41-.3-.91-.34-.95l-.81.13c-.21-.32.13-.54.11-.72-.06-.72-1.27-1.84-1.71-2.4.42-.99-.23-.77-.27-.82-.03-.04-.39-.77-.43-.86-.19-.54.17-.67.11-1.04-.07-.47-.71-.79-.11-1.45l-.41-.07v-1.13s.41,0,.41,0v-.27s-.28-.08-.28-.08c.15-.47.27-1.11-.26-1.33.39-.17.33-.86.67-1.21l-.54-.27c.12-.36.66-.67.75-.88.11-.26-.1-.47-.01-.67.07-.16.41-.29.43-.47.03-.25-.28-.67-.08-1.02l-.54-.13c.1,0,.19.05.23-.07.2-.54.94-1.28.96-1.36.11-.34-.24-.67.15-.99l-.4-.27.67-.54-.26-.06c.15-.2.12-.51.22-.72.17-.37.69-.15.18-.71.29,0,.78-.5.76-.75-.01-.16-.36-.23-.02-.48.29-.21.47.24.75-.6l-.27-.13c.09-.27.5-.46.51-.49.03-.09-.17-.29-.05-.52.13-.26.77-.43.9-.63.13-.22.07-.64.26-.79.09-.07.72-.02,1.09-.66.13-.21-.1-.5.21-.6l.72.12c.03-.13.07-.46.16-.52.42-.27,2.49-.04,3.03.17ZM15.44,56.22c.18-.92.19-1.32-.81-1.6-.02.24-.24.36-.33.53-.37.74-.79,1.25-1.18,2.05-.05.11-.25.12-.26.21-.09.64.12.42-.36,1.12-.07.1-.28.08-.32.23-.05.21.02.94.41.85v.13c-.35-.18-1.06,1.11-1.14,1.36-.06.18.06.34,0,.52-.15.42-.87.68-.86,1.3l.26.12c-.09.22-.87.33-.67.93.08.23.42.12.39.35-.91,0-.36,1.05-.82,1.68.29-.1.31,1.59.28,1.74-.02.11-.26.09-.28.18-.06.28.22.7.15,1.04-.03.14-.42,0-.27.35l.27.07-.27.81.39.08.02.59c-.99.15.36.55-.14,1.22l.4.07-.25.15c.18.21-.05.71,0,.77.04.06.27.04.36.25.19.45.36,1.54.43,2.07.56-.26.61.88,1.15,1.08l.13-.27c.63.22.65,1.21,1.29,1l.2.35.55-.53.59.39c-.09-.85.12-.33.46-.55.19-.13,1.04-.96,1.17-1.13.31-.41.27-.67-.14-.95l.25-.13.16-1.15.4.14c-.29-.55.41-1.13.42-1.28.03-.45-.29-.26-.29-.53,0-.36.29-.73.29-1.09,0-.33-.23.13-.08-.8.16-1.02.18-2.45.09-3.64-.01-.14.11-.29.1-.39,0-.05-.44-.19-.41-.55.45.09.16-1.45.07-1.57s-.38.02-.47-.19c-.11-.47.45-.44.4-.54-.84-.37-.27-.89-.14-1.49l-.27-.06.27-.27-.4-.07c.36-.48-.2-.9-.34-1.35-.15-.5.11-1.28.07-1.6-.01-.09-.22-.08-.23-.11-.04-.08.09-.44.06-.58,0-.03-.37-.4-.38-.43-.04-.23.03-.44.1-.66l-.5-.21Z"/><path d="M100.11,14.2c.39.55,1.07.85,1.74,1.02.17.04.35-.09.57-.03.32.08.4.44.43.45.15.06.44-.36.58.36.02.09-.1.3-.07.33.05.04.36-.06.51.03.06.04.39.82.81,1.14.57.44.8.61,1.21,1.28.39.64.54,1.07.71,1.9.02.11.23.1.27.18.18.34-.02.69.54.58-.35.55-.52.72-.26,1.38.06.15.4.02.15.49l.24.02c-.67.66.14.79,0,1.26l-.27.15c.32.2.11.54.15.66.03.11.21.08.24.15.12.32-1.01,1.24-.11,1.48l-1.21,1.76.27.33c-.34-.07-.21.29-.36.42-.08.07-.29.05-.42.16-.33.31-.59,1.48-1.25,1.58l.27.4c-.59-.04-.59.22-.87.54-.23.26-.42-.09-.22.65-.27.26-.85.23-1.07.36-.11.07-.1.33-.22.34-.13.02-.33-.15-.43-.12-.03,0-.24.42-.32.46-.16.07-.42-.07-.72.18-.12.1-.15.34-.22.38-.17.1-1.04.07-1.32.16l.14.27-.47-.13-.14.14s.08.23.05.25c-.58.47-.79-.22-.84-.22-.1-.01-.4.16-.6.17s-.44-.1-.61-.07c-.12.02-.08.38-.29.28l-.74-.61-.26.13c.31.2.17.43.13.74h.31c.44.43-.26.63-.27.73-.02.13.15.4.1.66-.02.11-.27.04-.29.29-.02.32.12.68.28.96-.54.18.05,1.16-.27,1.68l.4-.13c-.08.51-.61,1.97-.52,2.36.02.08.21.06.22.13.06.48-.07.85-.24,1.28h.54c-.14.35-.56.62-.29,1.02l-.25.06c-.06.22.24.07.28.21.11.53-.26.48-.38.67-.14.23.23.4.24.43.15.72-.61,1.46,0,2.06-.67-.09-1.08.96-1.24,1.05-.03.02-.45-.17-.59.16-.21-.39-.64-.56-1.02-.75-.1-.77-.5-1.99.15-2.55-.42-.02-.3-1-.19-1.3.1-.27.31-.24.32-.33.05-.27-.15-1.03,0-1.4h-.3s-.1-.34-.1-.34l.54-.2-.13-1.68-.41-.08.27-1.28c-.74.14.12-.65.13-.7.15-.56-.36-.49-.38-.64-.03-.24.78-1.68.51-1.96h-.4s.28-.74.28-.74l-.29-.14c.08-.34.3-.71.68-.74.06-.08-.28-.28-.33-.4-.34-.75.24-.66.31-.89.25-.75-.1-1.17-.11-1.6,0-.2.21-.43.25-.69.12-.73-.07-.88-.1-1.43-.02-.37.2-.78.19-.99-.01-.23-.3-.4-.31-.54-.03-.35,1.21-1.06.23-1.48.44-.73.27-1.5.41-2.28l-.28-.15c.75-.29.02-.78,0-.83-.16-.66.34-1.13.28-1.73-.02-.21-.43-.19-.25-.81.02-.07.24-.05.23-.12-.02-.19-.26-.49-.19-.77.05-.2.34-.37.34-.59,0-.26-.51-.56-.13-1.01l-.41-.07c.4-.31.23-.95.36-1.25.1-.23.31-.16.31-.17.03-.05-.47-.47-.1-1.04.08-.13.64-.33.82-.46.17-.12.2-.34.24-.37.1-.07.31.12.44.12.04,0,.49-.45.56-.54l.6.27v-.54c1.17.17,2.02.57,3.21.16ZM97.01,16.63c-.12-.07-.25-.02-.38-.03v.67s.41,0,.41,0l-.39.76.24.24-.25,1.02h.41c-.77.86-.2,1.65-.27,2.56l.4.07c-.13.14-.43.64-.38.81.02.09.37.03.25.4l-.4.21c.35.38.05,1.19-.14,1.68,1.11.43.26.62.26,1.08l.28.47-.64.61.49.49-.39,2.33.27.21c-.49-.01-.27.43-.35.68-.03.1-.21.17-.28.36-.05.13.23.28-.17.37.1.69.45.42.85.64.23.13.38.79.76-.02.61.54.48.09.61.04.9-.41,1.12-.51,1.99-1.02.36-.21.79-.16,1.04-.29s.2-.43.37-.61c.36-.37.68-.1.82-.15.25-.1,1.12-1.55,1.28-1.87.22-.42.09-1.01.76-1.28l-.26-.27c0-.12.88-.29.13-.54.48-.4.09-.87.19-1.29.06-.27.36-.27.35-.32-.02-.16-.28-.46-.27-.67,0-.09.26,0,.28-.27.07-.92-.54-2.34-.95-3.04l-.25.12c-.1-.51-.4-.84-.44-1.31-.87-.12-.45,0-.81-.48-.65-.87-1.61-1.44-2.42-1.89s-.91-.22-1.67-.29c-.14-.01-.29-.2-.54-.22-.2-.01-.35.44-.54.42-.11-.01-.17-.33-.23-.37Z"/><path d="M53.45,14.73c.28.93.5.7,1.19.69.26,0,.54.15.76.11.06,0,.26-.61.96,0l.07-.4c.53-.15.68.4,1.15.42.42.02.8-.34,1.22-.39l.33.38c.05-.73.75,0,.95-.13l-.07-.27c.43-.18.51.28.54.28.23,0,.93-.46,1.6-.37.22.03,1.3.89,1.31,1.11.03.48-.27.33-.35.46-.06.11.1.31,0,.54-.03.06-.5.81-.55.82-.15.03-.29-.22-.4-.22-.1,0-1.73.13-1.97.17-.5.07-.93.6-1.54.05l-.13.28-1.5-.51c-.57.27-1.42.16-2.07.09l-.07.41-.61-.54-.12.61c.64.57-.03,2.6.13,3.36.07.32.38.42.4.68.03.28-.28.56-.35.86-.11.47-.11,1.65.22,1.96l-.28.61.27.06c-.11.45-.53.52-.4,1.02h.54c.02.29-.53.55-.55.63,0,.04.03.73.04.89,0,.14.17.29.18.43,0,.56-.45,1.73-.34,2.14.03.1.44.08.14.76.67.19.59-.42,1.13-.12l.28-.29c.34.01.44.3.91.26.81-.07.77-.85,1.65-.37.6-.66,2.09-1.53,2.54-.23.26.75.13,1.31-.47,1.8-.32.27-.26.26-.55.54-.55.54-2.33.66-3.17.89-.05.01-.38.62-.84.09.03.76-1.54.08-1.62.13,0,.73-.32,1.36-.34,2.1,0,.27.25.63.07,1h.41s-.27.54-.27.54c.03.05.35-.33.27.06-.15.72-.89.63-.15,1.46-.64.63-.18.89.03,1.64l-.42.54.54.27c-.13.24-.55.69-.55.94,0,.08.22.06.25.13.04.12-.12.55-.1.66,0,.05.27.62.37.86.12.3.4.47.41.5.05.15-.14.63-.09.72.04.06.24.07.32.16.09.11-.13.77.47.62.13-.03.79-.35.93-.44.17-.1.85-.83.91-.85.29-.09.63.23,1.08-.31.03-.04-.1-.3.11-.37l.47.14-.13-.54c1.36.24,1.65.73,1.55,2.09-.08,1.11-.5.52-.74.67-.44.26-.27.63-.33.74-.02.04-.54.53-.58.54-.31.07-.71-.06-1.05.13-.1.06.05.24-.06.35-.45.48-1.77-.16-1.77.87-.27.1-.46-.2-.63-.23-.22-.04-.49.18-.77.08-.19-.06-.22-.36-.37-.45-.46-.29-.68-.24-1.15-.74-.24-.26-.07-.6-.57-.57l-.03-.38-.4.14c-.08-.32.16-.71.11-.98-.05-.32-.53-.5-.25-.9l-.41-.07c.19-.56.01-1.11.03-1.59.01-.35.3-.52.1-1.07-.47-1.27-.1-1.44-.18-2.67-.01-.22-.21-.41-.21-.61,0-.27.32-.87.32-1.41,0-.32-.34-.81-.34-1.16,0-.24.24-.17.27-.28.09-.3-.27-1.72-.19-2.27.05-.33.71-1.17.07-1.34.26-.2.28-.63.28-.94,0-.65-.14-1.6-.14-2.16,0-.17.57-1.35.54-1.48l-.54-.27c.48-.16.26-.8.68-1.08l-.27-.14c.09-.47.08-1.05.07-1.53,0-.14-.16-.28-.15-.34.03-.25.54-.43-.19-.62.5-.52.03-1.29.04-1.67,0-.18.43-.75.43-1.13,0-.21-.2-.31-.18-.46.02-.16.35-.36.25-.63l-.54-.07c.62-.95.57-1.64.55-2.68,0-.33.36-.55-.16-.69.61-.95.15-2.54,1.75-2.48Z"/><path d="M111.89,53.8l.38.02c-.17.56.21.63.27.77.16.37.12.78.55,1.04-.16.33-.5.25-.7.35-.08.05-.45.37-.48.38-.63.18-1.67-.14-1.65.68-.24.06-.09-.23-.13-.27-.06-.05-.27.19-.39.21-.2.04-.34-.17-.48-.16-.26.02-1.19.33-1.33.32-.19,0-.8-.3-1.04-.03-.14.16-.09.37-.15.44-.03.04-.96.25-1.02.25-.28.02-1.08-.38-1.39-.5-.05.06-.02.89.01.99.04.11.25.08.26.17.05.66-.45,2.06-.38,2.68.05.51.48.51.46.81-.02.25-.33.51-.35.82-.03.5.37.8.12,1.58-.04.12-.26.1-.26.16.06.58.55,1.01,1.08,1.19.81.28.55-.12,1.01-.31s.86.05,1.06-.01c.3-.08.29-.96,1.03-.26.2-.8.62-.35,1.05-.3.21.03.43-.07.59-.04.75.17.09.69.12.73.01.02.25-.07.35.26.16.56-.17.97.2,1.43.1.46-.58,0-.68.07.1.6-.56.91-1.07,1.02s-.8-.07-1.14-.03c-.76.08-1.73.54-2.44.61-.16.02-.37-.13-.54-.12l-.09.34-.39.06.27.19c-.08.44-.49.48-.4.88l.37.02.03.85.27-.07-.27.81-.4-.07c-.07.33.26.92.27,1.08,0,.27-.72,1.4,0,1.62l-.27.27.53.22c-.04.46-.08.45-.53.59.39.31.38.72.47,1.16h.34c-.45.72.05,1.6-.4,2.21l.4.07-.27.94.54-.13v.8s.67.14.67.14v-.48s1.34-.48,1.34-.48l-.12-.52c.51,0,1.03-.73,1.35-1.14l1.66-.08c.29.09.23.64.25.67.12.13.75.03.79.23.08.35-.05.66-.41.46-.1.37.22.26.4.47l-.51.36.11.24c-.78,0-.64.7-.81.95-.04.05-.88-.18-.68.8l-.92.08-.03.58-.19.3-.59-.13v.4s-.67-.13-.67-.13v.41c-.63-.19-1.13-.34-1.82-.26-.28.03-.41.26-.75.21-.09-.01-.76-.21-.79-.23-.02-.01.11-.22,0-.32-.15-.13-.46-.15-.53-.22-.03-.03.06-.57-.15-.84-.12-.15-.5.05-.55-.7l-.54.08c.01-.4.17-.92.15-1.29-.02-.25-.28-.18-.29-.28-.04-.42.48-.75-.27-1.09l.34-1.94c-.16-.51.04-1.47-.47-1.68.34-.14.42-.37.41-.74l-.27.14.13-.86-.27-.15.4-.41c-.42-.56-.1-2.04-.27-2.68-.03-.1-.25-.07-.25-.14,0-.32-.02-1.07.26-1.09-.28-.36-.22-.93-.29-1.19-.04-.14-.46.06-.05-.62.07-.11.31-.12.32-.22.02-.2-.14-.76-.41-.79l.4-.88-.54-.07.24-.08c-.24-.5.35-1.2.41-1.56.02-.17-.26-.35-.26-.65,0-.26.39-1.34.4-1.61.01-.2-.08-1.02-.39-.89-.06-.22.17-.09.24-.15.02-.02-.13-.5.03-.65h-.41c-.03-.4.26-.56.54-.74l-.31-.24c.26-.61-.16-.57-.18-.97-.02-.42.45-.73.63-1.08l-.27-.13v-.27s.27-.2.27-.2l-.4-.07.21-.74c.05-.11,1.49-.64,1.65-.66.29-.04.41.21.51.21.11,0,.33-.3.57-.34.25-.04.53.16.76.12.1-.02.07-.27.17-.27.3-.02.75.23.86-.41h.13c-.15.2.49.38.59.37.55-.05.48-1.08,1.17-.11v-.54s.74.27.74.27l.07-.41c.31-.04.43.32.74.35.11,0,1.62-.23,1.7-.28.11-.07-.04-.77.68-.28v.33Z"/><path d="M73.7,52.19l-.14-.27c.27-.19,2.11.66,2.37.93.15.16.56,1.26.5,1.45-.32.92-.49.41-.84.36-.18-.02-.43.12-.58.09-.1-.02-.12-.39-.58-.4s-.84.54-.89.02l-1.06.51.27.27c-.32.09-.47.35-.81.14l.14.4-1.35.54.25.34c-.44.43-.84.74-.52,1.41l-.68.23-.02.7-.24.15c1.03.38-.35.67-.47.94-.04.09.1,1.24-.19,1.55.18.33.39.19.66.08-.18.26.08,1.59.34,1.61l.47-.27c0,.24-.02.48.03.71.08.34,1.25,1.07,1.59,1.11.17.02.27-.17.34-.17.12,0,.38.41.71.48.35.07,1.19-.12,1.53.1.09.06.08.28.22.32.09.03.4-.12.62,0,.24.13.2.51.24.55.05.04.3-.12.45-.1.54.08,1.16.46,1.49.91.12.16.06.42.22.6.17.2.64.07.77.23.11.13.2.59.32.8.09.16.45.52.5.6.15.29.15.71.36,1h.61c.16.17.02,1.54.07,1.76.04.21.33.35.35.73.03.56-.54.69-.07,1.41.07.11.32.12.32.2,0,.12-.28.49-.33.68-.2.82.31.88.31.93.02.64-1.03,1-.25,1.36-.47.27-.09.64-.16.92-.02.09-.55.92-.66.97-.33.15-.15,0-.58.3-.09.06-.26.03-.31.08-.37.36-.15.87-.18.9-.03.03-.25-.04-.36.04-.6.46-.54.35-1.17.66-.18.09-.19.35-.32.38-.24.06-.59-.04-.85,0,.19.79-.49.31-.71.31-.68,0-1.25.35-1.39.37s-2.56-.02-2.69-.05c-.16-.04-.14-.28-.22-.33-.07-.05-.21.05-.3.03-.47-.1-.32-.27-.69.36l-1.39-.97.12-.51-1.15-.26c-.58-.45-.29-1.31-.34-1.36-.04-.04-1.09-.18-.13-.54.06-.23-.19-.08-.24-.15-.04-.05.23-.23-.16-.32.37-.18.07-.52.16-.71.07-.16.98-.72.65-1.23.57,0,.69-.82,1.21-1.09.01.38-.01,1.04.14,1.38.07.15.33.22.48.5s.08.63.18.76c.15.19.37.07.39.09.08.08.09.34.23.5.58.66,1.07.1,1.13.15l.28.81c.28-.1.71-.14,1-.12.32.03.69.48.81,0,.73.43.68-.14,1.09-.29.27-.1.84-.05,1.14,0v-.54s.81.14.81.14l-.13-.67.67-.02v-.39s.27.13.27.13l.13-.47c-.63-.24.1-.83.12-.89.03-.08-.14-.28-.11-.44.04-.24.2-.41.23-.66.06-.42-.32-.88-.32-1.1,0-.19.29-.36.22-.6h-.41c.4-1.01-.11-.5-.13-.54l.13-1.14-.39-.08v-.93s-.55.13-.55.13c.2-.69-.52-.98-1.06-1.23l-.02-.79c-.37.19-1.13-.3-1.08.27l-.94-.55.13-.39c-.55.15-.85.02-1.35-.08-.14-.03-.36.07-.38.05-.05-.03-.09-.29-.21-.38-.19-.14-.4-.18-.57-.31s.18-.34-.46,0c-.11-.02-.9-.75-1.08-.82-.13-.06-.76.14-.77-.27,0-.07.2-.19.2-.27,0-.11-.38-.37-.38-.59l-.65.25c-.37-.62-.39-1.32-.68-2.02l-.27.14c-.08-.26,0-.68-.09-.91-.17-.38-.33-.25-.41-1.06-.04-.35.26-.71-.17-.8.35-.1.16-.18.27-.46l-.4-.14c.42.02.1-.56.67-.41-.33-.83.1-.73.23-.97.09-.16.09-.66.45-.85l-.41-.07c.12-.59.5-.44.82-.61.05-.03.18-.92.67-.88l-.27-.4c.44.08.12-.6.19-.88.03-.12.2-.21.26-.34.1-.19-.25-.48.63-.13-.04-.37,0-.6.38-.7l-.1-.23c.77.04.89-.77.95-.81.09-.06.38-.03.56-.15.13-.09.51-.66.56-.66.11,0,1.16.68.88-.42.59-.04.78.49,1.35.4Z"/><path d="M87.97,53.18s.04.15.07.16c.64.28,1.29.56,1.92.87l.34-.4c.05-.04.41.24.6.21.21-.03.33-.48.35.02h.72c.3-.68.66-.14.98-.13.28,0,.54-.47.99-.1l.13-.4c-.03.51.54.25.68.34.11.07.14.3.27.39.26.17.8.14,1.07.54-.57.49-.37,1.26-.41,1.96l-.81-.13.27.54c-.45-.07-.68.09-.88-.41-.59.47-.81.09-1.21.07-.08,0-.36.26-.61.08l.13.54c-.71.22-1.34-.43-2.07-.11-.32.14-.03.52-.76.24-.18.34.27.43.27.48,0,.36-.33,1.29-.27,1.73.01.09.36.11.37.44,0,.41-.44,1.2-.39,1.74.03.27.23.18.26.27.05.14.02,2.71,0,3.06s-.25.7-.25.85c0,.08.23.06.25.14.06.16-.07,1.53-.06,1.82.05.85.22,1.09.13,1.99-.06.6-.12,1.03.63,1.05-.37.07-.14.27-.26.41-.21.25-.57.11-.42.74h.52s.12.48.12.48c-.56.25-.27.58-.27,1.07s-.35.39.32.55l.03.43-.32.25.13.78.41.08c-.61.64-.15,1.06-.26,1.8.74.24-.62,1.28.4,1.17l-.27,2.29h.54c-.01.61-.33.43-.61.67-.15.12-.19.39-.33.47-.15.09-.42-.36-.14.48-.04.05-1,.16-1.12.13-.1-.02-.1-.19-.13-.21-.1-.05-.23.06-.37-.11-.28-.35-.48-1.06-.67-1.47-.04-.08-.24-.09-.25-.12-.05-.12.11-.29.08-.43-.03-.18-.38-.3-.38-.56l.41-.34c-.08-.22-.25-.35-.26-.61-.03-.35.3-1.25-.13-1.33.35-.53-.32-.42-.08-1.03.22-.15.41.18.34-.26l-.54-.07.54-1.48-.54-.2.27-.87-.27.07c-.17-.33.26-.23.27-.35.07-.67-.39-1.26-.33-1.87.03-.3.27-1.12.2-1.47-.02-.11-.47-.01-.14-.63h-.31c-.27-.04-.07-.87.31-.54v-.59c-.38-.19-.48-.08-.54-.56l.4-.07c.08-.38-.14-.26-.41-.27.13-.39.54-.88,0-1.01l.41-.95-.26-.12c.22-.74-.29-1.43-.1-2.24.06-.27.36-.2.37-.46.02-.42-.28-.7-.28-.95,0-.54.24-1.73.26-2.31,0-.32,0-1.57-.12-1.73-.4-.04-1.07-.24-1.42-.21-.79.08-.98.95-1.89.26-.21.33-.12.35-.51.39-.11.01-1.91-.44-2.02-.52-.04-.03-.53-.69-.52-.73.01-.27.06-.24.17-.4.19-.3.46-.37.62-.52.08-.07.07-.31.17-.44.31-.42.44.01.61.02.06,0,1.11-.35,1.19-.38.21-.09.19-.37.3-.38.08,0,.84.17.86.13l-.13-.54c.39-.18.8.27,1.01.27.24,0,.8-.65.9-.02l.18.02c.37-.51,1.36-.74,1.01-1.48.18-.02.33-.01.51.05Z"/><path d="M129.38,16.63c.19.23.19.95.24,1.06.1.19.4.22.44.29.09.16-.03.41.03.55.04.11.43.14.14.68-.08.14-.39,0-.28.36h.54c-.23.49-.76,1.5-.68,2.07.02.1.25.08.27.18.12.48-.38.68-.13,1.43.04.12.26.11.25.16-.01.1-.17.27-.2.46-.04.31.27.5-.21.63l.28.54c-.58.55-.21.69-.19,1.19.03.69-.6,1.16.17,1.52.08.26-.21.48-.24.69-.08.58.1,1.31.29,1.79.23.57-.45,1.25-.4,1.68.03.31.82,1.05-.19,1.22.36.49.04,1.48.15,1.87.03.1.25.08.25.14,0,.15-.09.94-.12,1.07-.02.1-.27.09-.28.17-.02.29.36.65.39.83.03.19-.32.38-.25.64l.41.21-.4.47.26.12c-.32.43.29.83-.27.96.16.9.93,1.53.41,2.41l.54.22-.27.72c.63.23.17.7.2.89.11.57.71,1.59,1.42,1.48v-.41c.75.77,1.03-.04,1.57.04.41.06.74.41,1.05.44.08,0,1.55-.09,1.63-.12.25-.09.02-.54.66-.21l.16-.29c.38.07.7.3,1-.06l.26.14c-.36.57-.02.65,0,.94,0,.04-.2.71-.22.74-.22.38-.98.47-1.26.87l.27.34c-.54.18-1.11-.04-1.65.15-.12.04-.1.26-.18.27-.21.01-.52-.27-.8-.26-.33,0-.5.33-.69.36-.23.04-1.03-.33-1.3-.33-1.05-.02-.97.39-2.11-.26-.11-.06-.14-.26-.25-.33-.19-.11-.57.03-.76-.11-.04-.03-.54-.78-.56-.82-.18-.4.17-.78-.47-.68-.02,0,.08-.19.05-.27-.26-.64-.35-.84-.5-1.38-.22-.76-.23-1.18-.59-1.75-.56-.88.45-1.59.05-2.21-.07-.11-.37-.14-.44-.43-.05-.2.14-.41.14-.62,0-.28-.15-.63-.07-.93.03-.11.27-.07.27-.15,0-.3-.55-.46-.41-.88h.41c-.44-.52-.58-1.19,0-1.69l-.54-.28v-1.94s.41,0,.41,0c.06-.22-.2-.07-.24-.2-.08-.24.19-.65.2-.84.04-.7-.03-1.41.08-2.1.05-.35.56-.48-.16-.98.41-.14.38-.63.41-1.01h-.54c-.08-.4.5-.64.51-.74.01-.1-.25-.52-.25-.82s.2-.49.23-.74c.02-.18-.18-.71-.15-1.14.03-.34.24-1.37.04-1.67-.06-.08-.27,0-.35-.33-.05-.2.64-1.59.66-2.18.03-.68-.42-1.24-.41-1.63,0-.3.79-.69,0-1.07l.94-1.36,1.32.24Z"/><path d="M38.56,55.22c.15.09.25.25.48.28-.06.65.17,1.27.21,1.9.03.41-.37,1.03.19,1.19-.52.45.04.65.06,1.14.01.31-.39.35.2.75-.1.16-.39.21-.48.34-.1.16.46,3.18.47,3.71s-.34,1.17-.33,1.42c0,.17.32.66.46.72l-.52,1.64c.5.13.06.84.12,1.19l.27.14-.4.96.27.07c-.54.48-.07.75-.07,1.01.01.37-.15.78-.06,1.21.05.28.33.46.35.68.03.29-.32.33-.4.5-.31.72.16.63.18.74.06.3-.2.88,0,1.26.26.04.03-.3.21-.42.05-.03,1.02-.38,1.08-.39.37-.05,1.55-.25,1.74-.26.56-.03,1.71.88,2.02,0l1.08.54.07-.4,1.62.27-.14-.26c.7-.05.3-.53.97-.26.17.07.48.16.51.18.16.1.64.93.86,1.11.11.1.39.05.49.25-.22.28-.34.38-.67.2.54,1.01-.28,1.17-.62,2-.49.16-1.31-.2-1.74-.09-.09.02-.06.25-.13.25-.36,0-1.1-.42-1.38-.52-.23-.08-.61.16-.87.08-.22-.07-.4-.33-.6-.35-.27-.03-.64.44-1.05.1l-.14.28-.41-.27-.12.26c-.13-.07-.27-.13-.41-.12-.78.04-1.04.33-1.58.91l-.24-.1v.67c-.34.18-1-.3-1.14-.27-.2.04-.09.49-.41.41-.25-.61-.75-.75-1.22-1.08-.13-.09-.16-.34-.22-.38-.03-.02-.49.1-.65-.03l.36-.6c.02-.33-.47-.44-.5-.57-.16-.73.65-1.12-.13-1.45l.4-.47-.4-.2c.34-.27.54-.72.4-1.15l-.54.13c-.06-.38.4-.71.41-.76.02-.2,0-1.27-.27-1.19.37-.36.09-.85.16-1.18.04-.18.31-.26.24-.51l-.27.14c-.19-.52-.19-.89.13-1.35l-.54-.07c-.01-.13.2-.01.25-.13.02-.05.27-1.06.28-1.12.03-.32-.27-.46-.24-.62.02-.12.27-.23.33-.42.01-.04.04-.81.02-.85-.01-.03-.2-.04-.24-.12-.15-.32,0-.57-.01-.65s-.2-.05-.23-.13c-.07-.22.61-1.83.61-2.32,0-.44-.4-.74-.37-1.05,0-.08.22-.06.25-.14.08-.23-.1-1.14-.06-1.36.03-.14.28-.14.36-.3.2-.37.46-1.76-.14-1.86l.56-2.02-.28-.26c.54-.7.72-1.05,1.56-.55Z"/><path d="M45.18,14.1c.77.57.15.65.26,1.17.07.33.99.85.07.79l.26,1.67-.38.28.12.88.4-.14c.19.4-.1.62-.15,1.01s.25.67-.12,1.01h.41c.01.37-.32.53-.39.89-.08.4.15,1.08.13,1.47-.02.53-.33,1.37-.36,1.78-.08,1.08.06,2.42.02,3.43-.01.3-.23.74-.2.98.01.08.21.09.26.19.26.49-.15.62-.19.91-.07.46.09,1.03-.18,1.49l.52.2s-.24.82-.2,1.1c.05.32.34.15.33.38-.82.17-.07,1.17-.04,1.55.02.31-.21.65-.05,1.12.01.04.48.1.1.65l.26.06c-.72.59-.16,1.08-.18,1.41-.01.3-.83.67.18.74-.8.69-.29.69-.27,1.3,0,.27-.2.38-.22.53-.01.11.37,1.7.36,2.01-.01.34-.27.59-.29.95-.03.45.24.85.22,1.07-.01.18-.31.59-.34.97s.22.69,0,1.06c-.02.2.62-.14.54.27-.1.52-1.16,1.89-1.82,1.27l-.15.29c-.64-.06-.46-.5-.64-.85-.25-.5-.76-1.95-.72-2.47.03-.32.39-1.17.19-1.75-.03-.08-.24-.06-.25-.14-.04-.31.33-.5.28-.8,0-.07-.21-.07-.23-.11-.04-.09.17-.2-.16-.3-.03-.42.41-.59.47-.96.04-.22-.11-.69.04-.99h-.4c-.12-.33.18-.56.23-.78.07-.33.04-.37.17-.77,0-.03-.43-.12-.28-.4,0-.44.28-.32.29-.41.01-.25-.32-.76-.28-1.05.01-.09.26-.08.28-.17.07-.33-.22-.65-.22-.92,0-.5.66-.97-.26-1.14l.31-1.29c-.04-.29-1.18.04.16-1l-.27-.08-.02-1.12h-.39s.27-1.28.27-1.28l-.28-.15c.38-.37.58-2.96.39-3.15l-.38-.08c.3-.26.11-.65.17-.91.05-.2.25-.39.31-.64.08-.32-.11-.63.06-.94h-.4c.15-.24-.1-.46-.09-.6.01-.21.77-.83.74-1.63-.01-.24-.22-.4-.24-.56-.03-.27.59-.49-.03-.65.45-.58-.14-.75.14-1.28l-.41-.07c.3-.08.22-.27.32-.42.06-.08.21-.05.21-.06.05-.08-.23-.22-.25-.35s.25-1.23.38-1.47l-.26-.14c.25-.42-.17-.64-.02-1.08.07-.2.27-.19.29-.29.06-.26-.02-.51.08-.85.13-.44.82-.8,1.23-.92.21-.01.38.19.52.3Z"/><path d="M27.07,53.22c.21.1.53.11.65.28.15.23-.03.51.05.71s.4.33.43.63c.02.19-.12.42-.1.65.05.8.21,1.57,0,2.37h.54c-.13.4-.51,1.12-.41,1.52.05.2.83.18-.11.83l.12.48.27-.07c-.17.38-.11.78-.17,1.18-.03.23-.22.47-.24.58,0,.07.21.04.24.13s.16.64.16.68c-.01.26-.63.76,0,.74l-.28.22c.16.51-.07,1.39.68,1.19-.14.57-.66.68-.51,1.35,0,.02.34.16.21.4-.02.04-.68.34.03.27.07.48-.24.89-.28,1.35-.03.32.16.74.12,1.07-.02.21-.23.35-.24.53-.01.23.23.49.21.68-.03.28-.83.85.19,1.15v.2c-.97.47-.31,1.02-.28,1.63.02.33-.2.69-.21,1.05-.03.7-.07,1.65.36,2.18l-.41.2.41.08.11.71-.39.22.4.47c-.32-.06-.22.24-.32.35-.2.24-.47.42-.69.74-.11.17,0,.64-.42.66-.05,0-.04-.22-.16-.26-.48-.16-1.24-.4-1.66-.63-.1-.05-.15-.38-.4-.32l.54-.4c-.18,0-.45-.03-.54-.2-.19-.41.28-.25.27-.47-.32.17-.44-.9-.41-1,.04-.16.53-.05.55-.35-.98-.21.25-.83,0-1.08l-.54-.07c-.03-.19.19-.26.22-.43.05-.23-.07-.79-.02-.86.09-.13.38-.05.34-.26-1.08,0-.19-.95-.18-1.15,0-.09-.26-.25-.13-.43l.31-.18c-.39-.26-.13-.7-.17-.78-.01-.02-.22-.01-.24-.11-.01-.05.05-.94.07-.99.08-.22.35-.39.35-.6,0-.12-.26-.08-.34-.2-.29-.44.23-1.23.21-1.7,0-.27-.2-.41-.23-.57-.11-.65.67-.98.42-1.93-.08-.31-.53-.41-.07-.73l-.4-.21.54-1.48-.54-.27c.63-.11.39-1.01.67-1.47l-.67-.21.81-.75-.27-.6.39-.22c-.21-.3,0-.54,0-.73,0-.08-.23-.04-.25-.14-.14-.56.1-3.55.19-4.16.12-.83.37-1.21,1.09-1.69.08-.01.05.19.11.22Z"/></g></svg>