<?xml version="1.0" encoding="UTF-8"?><svg id="Layer_2" xmlns="http://www.w3.org/2000/svg" viewBox="0 0 289.48 107.99"><g id="fuul"><path d="M72.33,11.82c.32.43,1.2.42,1.46.96.17.34-.47,1.17.49.87.03.3.16.64.15.94-.02.74-1.06,2.01-1.1,2.74-.01.29.54,1.05.47,1.48-.04.22-.4.37-.43.51-.17.78-.3,2.24-.35,3.08-.04.62.6.58-.41,1.06l.42.21c-.73.44-.04.9,0,1.28,0,.09-.34.09-.35.14-.18.59-.03.9.56.91-.1.71-.57,1-1.05,1.48.82.33.42.55.49.69.03.05.36.05.37.17.03.36-.37,1.21-.85,1.15l.63.21c.09.34-.28.15-.34.25-.12.2-.43,2.83-.47,3.27-.05.6.16,1.23.59,1.44-.55.58-.3,2.16-1.05,2.23.53.41.69,1.39.57,2.02-.05.25-.51.2-.58.45-.15.59.58,1.44.6,1.9.01.41-.85,1.31-.59,1.97l.84-.11c.04.59-.61.99-.6,1.05.01.16.21.38.19.61,0,.09-1.4,1.13-.02.99.2,1.13-.13,1.72-.84,2.64.63.22.21.94,1.06.74.04.46-.8,1.09-.81,1.16-.07.36.29,1.45-.04,2.01l.63.21-1.48,1.48c.71-.08-.06.38.63.52-.39.4-.27,1.04-.43,1.44-.1.27-.5.02-.41.36l.84.21c-.63.06-.12.89-1.27.64.3.42-.26,1.56-.18,1.79.06.19.42.17.5.31.1.16-.12.43-.09.51.07.17.58.16.3.67-.37.67-.89.46-.96.53-.03.03.25.44.19.7s-.46.41-.56.73c-.03.1-.19,1.89-.19,2.11-.01.35.31.58.27.93-.02.14-1.41,2.09-1.77,2.12l.16,1.44-.6.03c-.04,1.34-1.47,2.25-2.04,3.38-.1.2.08.41.03.58-.01.05-.53-.02-.14.46l-1.04.03c-.04.61-.59,1.09-.23,1.66-.11.11-1.02.05-1.27.15-.57.22-.76.78-.9.86-.09.05-1.67.4-1.85.39-1.19-.05-3.36-1.06-4.37-1.68-.08-.05-.06-.62-.48-.32-.06.04.13.54-.33.4-.4-.75-.35-1.12-1.16-1.58l.63-.74c-.71.08-.39-.64-.55-.85-.28-.37-1.08-.35-.72-1.05-.84.39-.52,0-1.05-.53l.84-.74c-.69.04-.5-.77-.76-1.25-.46-.84-1.23-.76-.7-1.8l-.45-.24c.69-1.17-.47-1.22-.63-2.33l.64-.72c-.67.09-.4-.73-.53-1.17-.17-.58-.82-.67-.11-1.37-1.39.04-.53-.89-.47-1.41.02-.17-.52-2.16-1.01-2.07.24-.65.84-.52.86-1.26.02-.86-.59-.97-.61-1.07-.03-.17.22-.85.16-1.03-.1-.33-.64.32-.01-1.04-1.15-.9-.14-1.35-.19-2.47l-.84.21c-.07-.06.51-1.21.58-1.43.12-.41-.42-.69.48-.99-.46-.33-.61-.27-.74-.85-.25-1.2.48-1.4.53-1.91.04-.46-.45-1.03,0-1.58l-.86-.35c-.2-1.27.76-1.68.65-3.03h-.85c-.04-.51.5-.72.6-1.21.08-.41-.47-.77.24-.69v-.42s-.38-.04-.38-.04l.15-.72-.42-.21.22-.94-.63.21c.03-1.15,1.45-1.66.4-2.64l.45-1.17-.84-.32c1.56-1.39-.2-2.58,1.06-4.03l-.42-.2.42-.53-.85-.75c.85-.32.14-1.46,1.06-1.9l-.84-.11c-.09-.35.31-.11.38-.3.13-.34,0-1.92-.38-2.23,1.22-.2.22-2.04,1.06-2.87l-.42-.2c.9-1.05.24-3.04.64-4.23.22-.65,1.65-1.49.63-2.43l1.37-.43.21.43.21-.42c.23.08,1.19,1.55,1.32,1.86.09.22.43,1.78.46,2.04.08.8-.66,2,.68,2.57.06.51-.57.72-.6.78-.04.08-.37,1.53-.38,1.62-.03.57,1.24,1.89-.1,2.87l.42.21-.43.21c-.19.58.38.49.42.67.04.2-.19,3.79-.25,3.99-.02.07-.66.65-.59,1.16l.84.11c-.19.19-.3.43-.37.69-.56,2.23-.53,4.76.11,6.71.08.24.05,3.02-.59,2.96.71.23.57,1.59.55,2.29,0,.15-.21.33-.22.59-.01.44-.05,3.84.11,3.98h.83c.1.5-.52,1.07-.54,1.39-.02.25.47,1.2-.09,1.79l.63-.21c.42,1.13-.09.92-.38,1.32-.07.09.09.74-.03.98l.83.24c-.31.55-.31,1.47.42,1.48v.2c-.4-.1-.92,1.18-.96,1.46-.11.91.7.72.96.88.04.03,0,.97-.04,1.01-.23.27-1.27.49-.16.99l-.42.94c.79.14.62.91,1.23,1.18.06.14-.42,1.65-.36,1.9.03.12.31.08.34.21.21.75.63,1.4.65,1.48.05.18-.31,1.47-.11,1.96.02.04.31.06.41.31.27.64.03,1.63,1,1.43l-.19,1.04.83.23c-.3.5-.19.98.21,1.39.85-.21.99.86,2.09.7-.07-1.25,1.15-1.35,1.45-1.73.12-.14.04-.46.28-.67.16-.14.49-.02.63-.26.27-.47-.04-1.57.22-2.26.03-.07.58-1.16.64-1.25.57-1,1.59-1.52,1.25-3l.42.1-.42-1.16.84-.11c-.06-.72-.68-1.17,0-1.8l-.42-.21c.57-.27.1-.85.31-1.16.1-.15.49-.13.55-.36.06-.24-.23-.85-.19-1.23.06-.55.54-1.55.59-2.13.06-.77-.74-1.11.66-1.48-.33-.76.25-1.92-.44-2.13l-.02-.4c.44-.29.74-1.92.65-2.29-.04-.15-.43-.13-.44-.25-.01-.23.78-3.25.87-3.8.15-.92-.24-.97-.43-1.31-.58-1.07.37-.45.41-1.32-.54-.07-.72-.29-.63-.85h.85s-.63-.43-.63-.43l.42-.74-.65-.45c.02-.72.49-1.13.68-1.85.23-.84-.18-1.3-.17-1.71.01-.31.32-.5.35-.64.02-.11-.33-.06-.41-.26-.53-1.28.78-2.15.83-3.43-1.72-.13-.35-1.21-.24-1.64.09-.33-.21-.77-.09-.92.1-.13.45-.14.5-.22.03-.04-.04-1-.07-1.05-.11-.17-.5-.16-.53-.2-.07-.08.29-.42.34-.63.07-.32-.07-.63,0-.85.14-.43.63-.77.71-1.4.1-.76-.49-.27-.42-.82l.63-.32-.64-.21c.65-1.07.93-1.95.42-3.26.97-.58.05-2.73.09-3.62.04-.76.2-.87.15-1.91,0-.11.35-.06.39-.22.1-.4-.27-.89.48-1.43.55-.39,2.04-.95,2.63-.46Z"/><path d="M108.22,12.09l.79.05v.85c1.39-.43.54.52.54,1.07,0,.51.22,1.04.2,1.35-.07,1.39-.31,3.07-.96,4.24l.43.52c-1.25.14-.28,2.08-.41,2.6-.06.22-.43.19-.57.45-.2.39.28,1.07.28,1.45,0,.5-.17,1.67-.22,2.33-.14,1.78,0,3.38.05,5.12.02.64-1.04.95-.61,2.01l.42-.21c.48.53-.36,2.89-.37,3.53,0,.35.28.57.29.81.01.4-.44.91-.34,1.48l.64.11c.18.73-.83,1.28-.83,1.37,0,.11.55,1.09.83,1.06l-.38.13c.46.69-.67,1.28-.69,1.39-.09.57.28,1.7.41,2.29l-.61,2.41.59.32c-.43.88-.05,1.82-.07,2.77,0,.41-.13,1.31-.23,1.73-.04.16.12.41.07.46l-.38.13.45.23-.25.82.44.22-.86,1.68c-.02.4,1.07-.12.86.44-.03.07-1.01,1.01-1.03,1.08-.33.88,1.08.81,0,1.24.25.87-.79,2.37-.99,3.28s.45,2.08-.47,2.42l.17,1.49-.6.15c-.19.16-.07,1.12-.23,1.31-.2.22-.5.14-.67.25-.23.16.16.62-.42.52l.63.63c-.82.18-1.47.94-1.85,1.64-.29.53-.19,1.54-.89,1.54v.42s.63.21.63.21c-.31.34-1.17.24-1.23.27-.2.11-1.04,1.07-1.23,1.2-.66.44-.98-.33-.93,1.49-.87-.78-.98-.32-1.57-.31-.66.02-1.43-.53-1.62.51-.53-.27-1.14-.42-1.72-.19-.2.08-.16.43-.26.41-.07-.01-1.11-.55-1.22-.63-.66-.46-2.16-2.28-2.64-2.55-.27-.15-.62,0-.66-.03-.1-.09-.2-.65-.45-.94s-.75-.11-.97-.5l.32-.84c-.79-.23-1.22-1.27-.63-1.91l-1.48-.22.42-.74-.43-.24c.44-1.27-1.24-1.94-.84-2.9-.49-.23-.54-.69,0-.87l-.84-.53.4-.22.02-1.25h-1.06s1.06-1.59,1.06-1.59c-.89-.18-.03-1.03-.32-1.57-.24-.45-.94-.64-1.06-.85-.13-.23.43-.74-.31-.64-.09-.35.28-.13.39-.25.08-.1-.1-.4-.05-.61.12-.55.43-.95.15-1.63-.11-.27-.41-.25-.45-.37-.09-.27.5-.99.4-1.45-.04-.19-.42-.2-.52-.35-.39-.56.33-1.82.27-2.52l-.83-.23c-.1-.13,1.24-2.69.21-2.85l.42-.63-1.06-.43c.61-.16.15-.93,1.06-.96-.55-.76-.34-1.92-.19-2.84l-.86-.44.16-.53h.48c-.41-.33.01-1.79-.04-1.87-.1-.14-.6-.06-.6-.56,0-.22.31-.44.33-.64.02-.24-.14-.54-.1-.82.14-.95,1.09-2.49-.44-2.78l.85-1.69c-1.58-.7.22-1.6-.21-2.64l-1.06.21c.33-.78.08-1.64.85-2.22l-.63-.11c-.09-.36.37-.09.42-.34s-.25-.7.22-1.14l-.42-.21c1.4-.46-.13-2.25-.16-2.9-.02-.3.39-1.19.33-1.66-.02-.13-.32-.07-.35-.2-.04-.19.28-1.26.17-1.38l-.63-.12c.18-.59.24-1.32.41-1.89.2-.63,1.23-1.79.44-2.33l.43-.21c-.86-.37-.65-1.56.2-1.9l-.41-.42.84-.32-.2-.82c.11-.17,1.59-.65,1.8-.6s.22.42.34.51c.08.05.36-.15.48.05.04.07.52,1.33.53,1.41.05.37-.2.73-.16,1.01.04.26.48.57.57,1.11.16.94-1.04.84,0,1.25-.4.31-.52.75-.42,1.24.04.18.46-.06.35,1.04-.12,1.2.07.59.18,1.32.06.41-.41,2.15-.33,2.23h.85s-.1.87-.1.87l-.74.29c.66.45.15,1.03.19,1.69.02.46.06,1.27.13,1.69.12.7.52,2.17.44,2.97-.02.17-.36.38-.32.61.07.4,1.04.51.19,1.3l.42.41-.42.53.85-.21c-.18.35-.09.74-.22,1.1-.06.15-.38.15-.42.31-.07.3.27,1.09,0,1.54l.85-.11c-.6.16-.24.3-.38.67-.38,1.02-.25,1.69-.35,2.83-.04.52-.55.96.09,1.36l-.42.21c1.01.46-.09,2.05.07,3.01.05.31.33.53.35.81.06.71-.4,1.53.43,2.32l-.42.11c-.09.36.38.09.42.33.13.96-1.29,1.78.43,1.99l-.43.32c.77,1.12-.09.97-.2,1.7-.15.92.47,1.35.64,2.2l-.64.21c.52-.03.58.41.64.85l.63-.21-.22,1.15.43.12-.37.24c.27.46-.18.37-.2.5-.13.6.32.54.33.63.07.56-.3,1.98-.18,2.5.04.17.42.13.43.27.02.18-.29,1.49-.21,1.56h.63c-.33.91.06,1.33.44,2.11l.61-.2c-.01.36,0,.72.1,1.07.55,2.19,1,3.1,2.22,5.02.07.11-.05.46.05.63.32.52,2.82.81,3.03,1.52.44-.66,1.22-.4,1.42-1.01l.36.14c.03-.58.89-1.53.88-1.98,0-.05-.55-.19-.42-.73l1.03-.02c.18-.24.2-1.8.27-1.87.24-.21.8-.09,1.04-.39s.63-2.07-.24-2.08l1.9-2.12-.84-.73c.69.08.36-.92,1.05-.85l-.12-.43-.72-.41c.23.02.4-.04.5-.27.42-1.02.3-2.12.56-3.19.06-.23.66.06.18-.82-.1-.18-.4-.19-.39-.26.03-.27.45-.83.52-1.17s-.13-.63-.07-.9c.09-.4.77-.83.59-1.43l-.63.21c-.48-1.3.54-.97.63-1.06.1-.1-.17-.61-.16-.79.07-.86.01-.53-.03-1.22-.03-.62.48-.92-.35-1.15l-.12-.33c-.01-.56.7-.61.83-.79.05-.07-.11-.98.04-1.22l-.85-.1c.5-1.07,1.39-1.24,1.06-2.65h-.85c.38-.5.05-1.02.13-1.48.05-.24.47-.74.5-.96.01-.1-.33-.07-.37-.2-.6-2.02.42-2.76.58-4.64l-.63-.13c.2-.37-.07-.78-.01-1.12.03-.17.35-.13.39-.25.15-.45-.28-2.48.26-3.18l-.64-.73c1.62-.5.83-2.42.87-3.51.01-.35.63-.69.09-1.15-.3-.26-.77-.05-.74-.42.67.03.16-.88,1.05-.64v-1.69s-.63,0-.63,0c.21-.57.14-1.18.23-1.77.04-.28.29-.48.33-.7.1-.47-.43-1.14.49-1.44-.7-1.17-.36-2.63-.63-3.91h.85c.09-.35-.39-.11-.43-.34-.19-.89.51-.87.8-1.22.1-.12.02-.39.21-.57.46-.42,1.66-.81,1.72-.89.12-.14-.01-.52.04-.59s1.28.41,1.11,1.01Z"/><path d="M44.11,12.95c.04.08.37.12.44.25.45.8-.33.93-.44,1.12-.15.25.02.64-.27.9-.35.32-1.12.06-1.28.19-.29.25,0,.83-.79.93-.64.08-.75-.26-1.01-.29-1.08-.12-.72.68-.77.73-.45.39-2.89.29-3.04-.61-.15.63-.66.39-1.02.62-.21.13-.27.6-.45.62-.14.02-.65-.35-1.07-.36-.53,0-1.38.39-2.05.45-.72.07-1.58-.07-2.13-.01-.52.05-1.21.49-1.53.5-.36,0-.65-.3-.86-.33-.09-.01-.09.48-.5.53-.3.04-.49-.2-.75-.23-.63-.06-.84.5-1.28-.52-.94,1.21-1.96.01-2.54-.01-.13,0,0,.41-.41.45-.98.1-2.13-1.21-2.45.18-1.02-.7-1.3.04-2.31-.2-.1.5-.35.98-.32,1.51,0,.13.32,1.69.35,1.77.06.14.34.07.37.11.04.06-.43.75-.42,1.35.03,1.07,1.16,4.13.81,5.09-.04.12-.39.08-.39.21,0,.46.68,1.53.79,1.94.15.53-.53,1.06.28,1.22-.63.11-.14,1.11-1.06.74l.09.65.76.31-.25.7-.81.03c.39.96.67,1.74,0,2.64l.36.15c-.18,1.53.65.68,1.29.64,1.01-.06,1.42.24,2.43-.26.24-.12,1.47-.83,1.56-.85.33-.06.7.15,1.02.22l.58-.98c.5.25.95-.29,1.29-.24.69.1,1.72,1.25,2.16-.47.44,1.08,2.12.58,2.43.76.57.34,1.67,2.77,1.07,3.16l-.85.1-.03.81-1.15.45-.2-.43h-.43c-.16.74-1.13.19-1.85.44-.16.06-.74.8-1.33.93-.94.22-2.91-.68-2.85.96-.25-.11-1.43-.45-1.59-.39-.12.04-.08.39-.23.4-.66.08-1.57-.43-2.69.04-.08.03-1.17,1.06-1.19,1.14-.04.21.3.43.31.6.05.73-.72,2.28.52,2.65l-.42.63h.64c-.23.25-.02.87-.06.96-.13.26-.51.23-.58.45-.08.28.36,2.19.33,2.42-.05.41-.55.29-.55.71,0,.21.02,1.63.04,1.71.06.18.41,0,.39.2.02.19-.68-.04-.43.53l.83.34c.13.56-.48,1.28-.51,1.67-.07.74.88,1.88-.32,2.01l.66,1.15c-.29.64-.69,1.92-.37,2.56.22.43.81,0,.32.97-.08.16-.33.15-.35.28-.09.49.44,1.82.37,2.08-.07.28-.74.23-.63.67l1.05.88c-.15.72-.77,1.98-.29,2.61.13.17.53.19.53.34,0,.28-.55,1.06-.43,1.43.05.16.38.13.42.28.15.65-.45,1.89-.01,2.68.23.41.9-.42.4,1.17l-.59.04c.37,1.82-.11,2.49-1.33,3.76l-2.27.02c-.3-.32-.03-1.14-.07-1.22-.03-.06-.69-.23-.37-1.1h-1.06c.46-.63-.16-1.13-.11-1.71.07-.81.39-1.82.45-2.72.03-.51-.42-.75.29-.96v-.31s-.85-.32-.85-.32l.43-1.05-.64-.11c-.09-.35.29-.1.37-.31.26-.6-.09-1.13-.09-1.27,0-.17.36-.47.45-.85.25-1.06-1.16-2.07-.11-3.06h-.85c-.07-.06.6-1.14.63-1.39.07-.56-.26-.9-.3-1.33-.1-1.18-.24-1.86-.03-2.88.04-.19-.14-.44-.11-.6.04-.27.52.01.43-.35l-.61-.1.4-2.65-.85-.11.85-1.06c-.94-.26.4-1.87-.63-2.11l.65-.45c.06-.39-.37-.77-.37-1.03s.36-.5.31-.81c-.07-.41-1.02-1.33-.6-2.26h.85c-.24-.61-1.32-.2-.74-1.06.24-.36,1.08-.11.08-1.15l.45-1.06c-1-.36.55-2.38-.86-2.33.4.04.93-1.73.85-1.8l-.85.21c.26-.46.04-1.09.22-1.53.08-.18.41-.17.42-.3.03-.28-.21-.66-.22-1.03,0-.78-.19-2.94.84-2.64-.17-.37-.29-.99-.44-1.31-.17-.36-.77-.07.23-1.12-1.09-.37-.52-2.65,0-3.38l-.42-.21c.85-.67.44-1.78.65-2.71l-.86-.46c1.2-.83.48-1.27.52-2.23.03-.78,1.35-1.91.12-2.12.81-1.05-.18-1.2-.24-1.79s.93-1.13.02-1.89l.42-.21c-1.12-.29.11-1.33.14-1.42.04-.13-.11-.36-.04-.58.49-1.65,1.81-.23,1.81-1.69l1.59.03.52.39.11-.64c.83-.16,1.02.63,1.48.64.35,0,.61-.39.97-.33.52.09,1.39,1.23,1.26-.09.92-.22,1.56.81,2.43.81.8,0,2.03-.92,3.06-.39v-.64s1.48.24,1.48.24v.61c.44.15.74-.32,1-.36.48-.07.79.52,1.05-.28l1.44.43.33-.84,1.15.41.45-.63c1.05.69,1.09.08,1.69.02.31-.03.65.23,1.01.18s.78-.55,1.24-.67c.61-.15,1.64.21,1.87.18.47-.07,1.27-.64,1.83-.7.59.57,1.92.91,2.23,1.5.09.17-.05.41.01.53Z"/><path d="M119.55,13.68c.15.18.1.61.25.86.12.2.5.19.61.5.18.5.09,1.47.26,2.03.06.19.41.17.4.25-.05.56-.91,1.25-.41,2.02l.64-.11c.18.6-.84,1.21-.86,1.31-.16.69.47,2.14.45,2.47,0,.11-.36.09-.48.42-.14.42,0,1.27-.06,1.82-.05.41-.4.79-.43,1.16-.06.64.84.85.32,1.8l.85.11c.11,1.11-.77.88-.86,1.09-.26.61-.74,3.75.23,4,.02.61-.65.77-.64.82.06.47.72,1.53.64,2.1-.02.14-.35.1-.39.23-.18.74.3,2.39-.05,3.28h1.06c.05.58-1,1.41-1.04,1.62s.4.58.43,1.03c.04.65-.45.96-.47,1.48l.46.42c-.07.74-.55,2.62-.55,3.26,0,.32.32.51.33.76,0,.42-.63.55-.65,1.25s.53,1.48.22,2.23l.54-.02.26.77-.79.42c.67.59.12,2.05.2,2.73.05.43.54.71.58,1.09.03.27-.2,1.46-.24,1.99-.05.65-.73.99.93,1.06.09.34-.28.15-.36.25-.08.11.11.59-.11.78l-.6.14c.94.39.34,1.77.32,2.55-.01.3.28.64.25.84-.04.38-1.19.98.17,2l.31-.42-.43,1.39c.78.73-.13,1.5.17,2.55.07.24,1.3,2.47,1.43,2.61.24.25.82.28,1.06.64l.11-.64c1.4.15,2.83.91,4.14.25l.31.6.21-.63c.62-.19,1.05.45,1.58.45.48,0,.77-.45,1.06-.45.31,0,.45.42.95.34,1.23-.18.56-.92.63-.98.8.02,1.92.36,2.66-.09.31-.19.33-.54.67-.71.76-.39,2.17.12,1.54-1.31l1.9.21c-.13-.15.38-1.03.43-1.06.07-.04,1.14.88,1.27-.21.24-.17.62.95.74,1.07.28.28.64-.02.86.17.31.28.26.98.92,1.18.02.25-1.01,1.43-1.14,1.82-.18.51.51.66-.74.84l.21.42-1.68-.41c-.08.64-.94.49-.43,1.26h-.64s.18.39.18.39c-.63.62-1.51.43-2.08.6-1.28.39-3.37,1.32-4.37,1.53-.49.1-1.64.06-2.19.02v.63c-.58.05-.89-.63-1.48-.56-1.04.13-1.44,1.23-2.65.33l-.21.44c-.65-.61-1.04-.64-1.88-.41-.54-.61-2.31-.21-3.4-.45-.44-.1-.65-.43-.97-.52-.52-.14-1.63.19-1.7-.64,0-.11.65,0,.43-.52l-.84-.22c.59-.97-.72-1.24-.81-1.58-.07-.29.31-.84.29-1.04-.02-.25-.42-.59-.34-.96l-.41.21-.23-1.34.43-.34c-.9-.05-.33-1.5-.74-2.12-.13-.2-.49-.18-.52-.21-.07-.08.29-.42.34-.63.27-1.19.04-2.37.09-3.6-1.59.3-.69-1.26,0-1.8l-.42-.21c.88-.66.15-1.46.09-2.22-.12-1.5,0-1.24-.46-2.64-.05-.15-.09-2.99-.06-3.14.06-.25.52,0,.43-.34h-.85s.85-.85.85-.85c-.75-.6-.08-1.27-.09-1.58,0-.16-.3-.34-.29-.59,0-.47.59-.97.59-1.31,0-.42-.55-.6-.57-.84-.02-.29.49-1.78.53-2.27.05-.68-.53-1.45-.55-1.53-.11-.5.31-1.25-.26-1.7.36-.28.93-1,.95-1.67.01-.43-.18-.92-.1-1.39l-.85-.1.38-.13.26-1.46-.63-.31c1.18-1.18.53-.68.52-1.69-.01-.94,1.1-2.26-.52-2.54l1.01-1.3c-.76-1.23.11-1.81.05-3.04l-.84.42c-.02-.28.05-.54.14-.81.24-.71.6-2.99.51-3.75-.05-.39-.37-.29-.41-.41s.65-2.07.61-2.52c-.02-.17-.87-.19-.65-1.06l.43-.12-.39-.31.77-2.61.32-3.25,1.13-1.85,1.94.26Z"/></g></svg>