<?xml version="1.0" encoding="UTF-8"?><svg id="Layer_2" xmlns="http://www.w3.org/2000/svg" viewBox="0 0 289.48 107.99"><g id="hmiss"><path d="M17.71,10.94c.14.13.08.57.35.8.23.19.71.16.74.2.09.1-.15.59-.1.85.05.24.39.45.43.7.04.3-.29,1.61-.11,1.78h1.04c-.23.61-.25,1.11-1.04,1.05v1.24s.83,0,.83,0l-.24.8-.81.03c.33.53.3,1.21.48,1.76.04.13.54.08.35.81-.04.16-.39.05-.44.44-.11.91.32,1.3.43,1.89.03.15-.44.12-.56.4-.15.33.25,1.55.29,1.88.04.31-.14.67-.09,1,.09.65,1.58,1.17.18,1.63l-.02,2.48.63-.1-1.04,5.19c.78.4.48,1.95,0,2.52l.42.22c-.62,2.62,1.2,1.54,2.5,1.63.21.01.39.25.58.27.42.05.85-.16,1.3.06l.11-.84c.09.12.81.82.88.84.45.13,1.15-.09,1.64-.1.13,0,.3.24.52.21.37-.05.73-.44.93-.46.38-.02.74.7,1.45.78.65.07,3.82.05,4.37-.03s1.17-.97,1.47,0l.34-.82c1.3.48,1.11.76,2.38-.23.51.48,1.41,1.19,2.2.75.06-.04.18-.89.82-1.05l-.43-.43c-.13-.96.63-2.12.66-2.69.05-.92-1.01-1.16.19-1.67.13-.48-.51-.28-.61-.64-.14-.52.75-1.97.53-2.49-.14-.35-.74-.25-.54-1.43.05-.33.35-.53.4-.87.12-.81-.34-1.94-.57-2.71l.58-.3-.42-.31.42-.21-.38-.2.37-2.2-.62-.1c.06-.41.7-1.2.73-1.45.07-.59-.57-1.2.1-1.78h-.63s.2-.73.2-.73l-.62-.21c-.08-.74.64-1.89.61-2.5-.02-.43-.53-.59-.51-1.17,0-.09.32-1.73.37-1.81.13-.2.66-.05.57-.77,0-.08-.64-.07-.42-.62s.77-.14,1.12-.19c.59-.09.8-.51.85-.51.13,0,.39.22.61.17.34-.08.2-.79.64-.61.9.35.08.98.11,1.04.7.34,1.56.86,1.61,1.73.08,1.54-.43,3.79-.37,5.43l.63.45c-1.06.68-.2,1.52-.28,2.09-.03.24-.47.4-.49.61s.52.89.52,1.29c0,.44-1.02,1.51.05,1.84-.49.26-.58,1.58-.37,1.94.11.18.72.09.59.77-.03.17-.49.13-.56.41-.29,1.14,1.18,2.95-.07,3.86l.62.1-.42.94.63.11c-.2,0-.76.97-.77,1.04-.03.23.33.66.33,1.05,0,1.96-.33,3.9-.19,6.03l.42.21-.4.85.61.41c-1.14.46-.22,1.1-.22,1.67,0,1.56-.66,1.33.14,3.33.18.45-.59.86.5.73.09.34-.31.15-.35.24-.04.08-.39,1.65-.39,1.74.02.71.48,2.47.44,3.13-.02.3-.36.53-.3.99.09.61.78.78.78.87,0,.32-.45,1.05-.5,1.47-.12,1.05.61,2.93-.09,3.32l.19,1.37.83-.42-.63,4.79.83.21c-.64-.1-.19.39-.4.69-.15.22-.57.02-.43.45l1.04,1.15h-.83s.63.21.63.21l-.42,1.46-.41-.21c-.27,2.05-2.03.89-3.34.73l-.62-1.77h-.84s.83-1.57.83-1.57l-.42-.21c.56-.74.48-1.79-.62-1.77l.39-.22v-1.97s-.6-.1-.6-.1c.23-.93,1.2-1.67.41-2.61l.43-.2-.23-1.33-.83-.23.23-.71-.44-.22c.48-.71.7-1.48.46-2.32-.09-.32-.38-.29-.42-.4-.09-.28.46-.67-.25-.83l.84-1.88-1.05-.32c.91-.78.23-2.03.31-2.51.12-.76,1.28-2.19-.3-2.28l.83-.94-.42-.1.43-.73-.62-.54.19-.6c-.38-.2-.96.47-1.04.41-.03-.03.05-.3-.1-.37-.44-.21-3.95.14-4.75.2-.33.03-.68.34-1.09.35-.48,0-1.06-.4-1.47-.37-.32.02-.53.38-.84.41-.43.04-.65-.38-.98-.38-.58,0-1.17.42-2.04.25-.72-.14-.34-.14-1.12-.17-.26,0-.96-.56-1.49-.53l-.6.62-.43-.61c-.9-.02-2.11.4-2.91.42-.85.02-1.59-.56-2.5-.44l.1.42-.83-.21c.05.47-.16.96-.07,1.43.09.5.5.39.51.75,0,.33,0,2.54-.02,2.67-.05.22-.19-.02-.29.98-.02.22-.27.38-.24.64.06.44.58.31.54.69-.08.75-1.18,1.42,0,1.58l-.42.31c1.53,1.01-.56,1.77.03,2.99l.39-.07.22.42c-.83,1.14-1.33,3.38.2,4.16l-.37.14.16.38-.83.1.84,1.05-.63,1.45c.38.16.48.28.41.73l.41-.21c.42,1.07-.34,1.25-.54,2.07-.13.56-.02,1.06-.1,1.57-.07.43-.47.85-.42,1.25.02.12.96.1.01.86l-.83-.33-.21.83c-.08.05-.61-.12-.7-.19-.4-.32.37-.83-.93-.45-.13-.55-.66-.81-.91-1.29-.27-.52-.88-2.21.04-2.24l-.64-.34c-.33-.53.2-.91.21-1.22.01-.52-.93-1.42.22-1.57-.9-.79-.11-1.4-.08-1.97.01-.33-.35-.78-.34-1.26,0-.57.64-1.73.62-2.29s-.93-1.37-1.03-1.89c-.2-1.02.74-2.31.62-3.42l-1.04.41.81-1.99c-1.23-.52-.21-1.13-.07-1.75.05-.21-.39-.65-.11-1.05h-.63s.84-1.37.84-1.37c.15-.82-.98-.43-.37-1.31l.58-.04-.83-.52c.02-.31.62-.58.62-.66.11-1.02-.59-2.54.21-3.52l-.36-.13c.1-1.12-.47-1.23.57-2.16-.52-.26-.73-.39-.63-1.04l.42.11-.42-.83h.41s0-.31,0-.31c-.75-.2-.16-1.23-.43-1.87l.62-.13v-.59c-1.58-.03.24-.87.23-.95.03-.19-.3-.04-.37-.14-.13-.2-.02-3.19.37-3.6l-.84-.32.63-1.66-.73.41c-.23-.16.03-1,.17-1.19.23-.32,1.32-.55.37-.78.35-1.08-.64-1.99-.32-3.26h-.53c-.2-.53.77-2.26.77-2.38,0-.28-.76-.64.06-1.35l-1.04-.32c1.4-.87.41-1.57.3-2.51-.05-.44.51-.5.54-.66.15-.74-.51-1.29.22-1.42v-.42c-1.18-.55.62-1.35.84-1.71.17-.27.12-.82.41-1,.19-.12.51-.04.67-.12s.33-.71.94-.13Z"/><path d="M80.73,12.13c.35.1.1-.4.31-.43.33-.05,1.05.46,1.3.71.1.1.02.42.08.52.03.04.71-.07.98.28.04.05-.18.65-.13.9.05.31.52,1.16.51,1.25-.04.38-.75.43.06.61-.22.52-.48,1.28.2,1.46l-.4,2.41.82.34.02.7-.62.21h.83c-.17.68-.1,1.25-.85,1.58-.02.57.56.71.59.77.04.08.37,1.48.39,1.62.14,1.07-1.41,3.35.24,4.2.06.09-.39.47.26.38v.2c-.63-.04-.47,1.35-.61,1.87h.82c-.02.86-.04,1.49-.83,1.99l.85.44-.41,2.28c.33-.06.79,1.3.77,1.41-.05.33-.79.83-.59,1.39l.42-.1-.19.42c.97.46-.03.96-.04,1.04-.01.61,1.03,1.09.22,1.76h.63s-.63,1.46-.63,1.46c.73.01.26.59.83.72-.41.98-1.26,3.41-.81,4.33.16.32,1.07.44-.23,1.1.98.33.49,1.24.21,1.98l1.04.22c-.06.75-.54,1.05-1.04,1.55.96.41.28,1.03.21,1.77h.63c-1.06.87.29,2.79.21,2.91-.03.05-.67-.07-.61.92.02.45.27,2.23.62,2.32l-.21,1.13h.61c.13.94-.54,1.31.24,1.98.06.73-.41.49-.57.82-.11.22.19.87.04,1.16-.21.4-1.1.45-.96,1.25-.49-.38-.36.16-.54.21-.84.23-.63-.65-1.22-.41-.28.11-.21.81-.62.62l-.32-1.04-.41.21c-.32-.33-.2-1.55-.25-1.62-.08-.12-.54-.16-.59-.36-.08-.28.92-.85.41-1.56-.17.39-.79-.25-.79-.3-.02-.84.6-.98.59-1.04-.02-.11-.28-.31-.31-.53-.07-.49.15-1.3-.52-1.25l.37-.23.04-4.14-.62.21.34-1.15-.53-.61c.18-.34.13-.81.61-.75v-.2c-.92-.17-.28-1.72,0-2.41l-.4-.3c1.02-.06.13-.65-.42-.63,1.46-1.06.19-2,.23-3.24.01-.36.34-.61.34-.99,0-.5-.44-1.11-.49-1.6-.08-.72.44-1.53.46-1.98.03-.85-1.55-2.44-.12-2.92-.42-.27-.32-.52-.21-.94l-.41.21c-.16-.49.27-1.16.22-1.54-.02-.14-.37-.1-.42-.28-.04-.13-.39-2.51-.4-2.65-.04-.67.67-1.38-.02-1.99l.62-.32-1.03-.83c.84-1.38.71-2.68.01-3.95l.6-.43c-.49-.46-.45-1.1-.64-1.62-.07-.19-.4-.17-.39-.25.07-.55.64-.95,0-1.76.97-.08.85-2.35-.22-2.11l.58-1.15-.58-1.14.52-.21c-1.32-.33-.7,1.12-.76,1.23-.11.2-1.29.41-1.54.65-.17.17-.21.57-.44.82-.84.9-2.45,1.95-3.1,2.72-.07.08.09.35.06.39-.31.35-1.72.09-1.42,1.08-.4.02-1.81-.6-1.94-.59-.24.02-.5.34-.88.37-.95.07-2.13-.19-3.1-.18l-.12-.64c-.41-.12-.57.44-.9.39-.21-.03-.98-.73-1.39-.91-.59-.26-1.82-.23-1.88-.31-.05-.06.11-.49-.12-.65-.19-.13-.62-.09-.9-.31-.36-.28-.62-.81-1.17-1.13-.25-.14-.38-.29-.51.1l.2,1.36.41-.21c.6.93-.61,1.47-.61,1.56,0,.13.72.81.2,1.36l.63-.31c.22.65-.61,1.41-.63,1.5-.1.45.12.96.06,1.42l.56.2c0,1.06-.96,1.02-1.05,1.68-.12.85.74,1.63.81,2.12.07.46-1.29.84.24,1.62-.09.41-.69.59-.75.93-.08.43.2.54.26.85.03.18-.12.45-.1.52.04.13,1.13.62-.24,1.25.23.44.28.62.84.53l-.43.93.41.19c-.02,1.1-.8,1.82-.82,1.93-.08.44.19,1.04.42,1.42l-.83.41c.36.43,1.04,1.48,1.16,1.97.1.4-.8.43.31.97-.05.19-.11.41-.23.57-.37.5-.5-.24.02,1.09l-.44.72c.65-.04.98.25.84.92-.04.19-.65,0-.43.54h.63c-.02.56-.43,1.09-.53,1.55-.29,1.44-.12,3.32.39,4.45.03.07.38.02.35.15-.07.32-.69.76-.79,1.09-.14.46,0,1.11-.23,1.6l1.02.33-.23,1.02-.82.13.42,3.02.83-.1-.2.84c-1.1.28-.38.14-.48.79s-1.03.62.06,1.59l-.94.42-.33-.61c-1.08.77-1.91-.46-3.11-.43v-1.46s-1.04.21-1.04.21l.39-.22-.18-.81h.63s0-1.88,0-1.88l-.84-.1c.71-.16,0-.8.84-1.04.12-.42-.61-.41-.65-.65-.06-.33.36-1,.42-1.46.09-.65-.07-2-.12-2.58-.15-1.94.11-3.71-.24-5.3-.21-.95.82-1.59-.23-1.8l.17-.71c-1.06-.54.63-1.7.2-2.67l-1.01-.13.4-.22-.19-.61.83-.1-.85-.66.2-.81c-.93-.24.15-1.74.02-2.24-.06-.24-.57-.25-.62-.45-.09-.33.43-.49.53-.73.14-.32-.28-.85.31-1.14l-.43-.22c.32-.79.4-1.5-.19-2.17h.41s0-.32,0-.32c-.95-.31-.06-.97-.05-1.04.09-.54-.16-1.18-.38-1.67l.44-.23-.14-.92.54-.21c-.44-.66-.3-1.31-.64-2.13-.07-.17-.37-.16-.37-.25,0-.36.24-1.93.81-1.79v-.2c-.64.07-.91-1.18-.21-1.05v-.2c-.67.08-.21-.32-.26-.77-.07-.61-.76-.97.48-1.22-.47-1.06.5-2.51-.64-2.91l.38-.13c-.22-.57.12-1.04.16-1.58.08-1.05-.65-1.78-.12-2.98l-.83.1.4-.12-.21-.69c.91-.25-.31-.94.83-1.2-.46-1.29,1.26-2.64,2.44-2.68.46-.01.6.31.87.38.29.07.64-.19.67-.17.19.12.2,1.66.3,1.99.02.07.53,1.24.57,1.3.16.24,1.32.22,1.01,1.5.92-.22,2.08.35,1.24,1.25l.62-.21.11.83.52-.41.73,1.46.31-.62c-.11.51.45.35.56.47.42.43-.1.88,1.33.67l.2.95c.54.09.64-.45.63-.83.76.46,1.44-.07,1.77.83l.33-.83c1.29.64,1.67-.2,2.48-.5.19-.07.46.08.68.02,1.39-.39.41-1.01.68-1.4.34-.5,1.11.04,1.15,0-.05-.92.55-.71.83-.95s.22-.88.84-1.03l-.62-.42c0-.1.89-.8,1.05-1.04.19-.29.05-.69.3-.93.52-.5,1.79-.81,2.53-1.66.51-.58-.2-1.45,1.35-.96l.19.74Z"/><path d="M158.29,12.98l-.21.41,1.15.42.21-.42c.35,1.05,1.51.07,1.79,1.45l.6-.2c0,.42.57,1.69.82,1.96.23.25.59.09.64.13.03.02-.21.4-.17.68.07.52.43,1.72.98,1.91l-.16,1.13.81.24c.02.46-.76.8-.81.94-.01.04.16.59.15.83-.01.27-.31.5-.31.62,0,.22.67.72.15,1.27l.4.19c-.68.94-.72,2.17-1.17,3.24-.08.2-.35.34-.49.52l.41.31c-.21-.05-.28.03-.39.18-.48.66-.92,1.43-1.41,2.1-.29.41-.64-.06-.29,1.06-.45-.28-.56.16-.85.3-.26.13-.68.07-.78.16-.26.22.06,1.35-1.5,1.22l.21.62c-1.18.13-.87-.52-1.06-.8-.02-.03-.32.14-.5,0-.38-.3-1.46-1.2-1.36-1.57.87-.23.44-2.07.65-2.38.18-.25,1.83-.56,1.31-1.7.38-.37,1.09-.03,1.52-.98.08-.19.62-1.73.61-1.82-.02-.2-.43-.39-.35-.51.02-.03.3.05.37-.1.23-.48-.18-1.74.46-2.09-.6-.18-.42-.72-.64-1.24l.42-.32c-.71.03-.93-2.47-1.26-2.7-.1-.07-.65.14-.99.06-.5-.11-.9-.47-1.4-.58-.76-.16-1.16.21-1.69.24-1.37.08-1.81-.35-3.15.57-.52.36-.78,1.46-1.51.96l.18.38-.6.34.32.52c-.25.4-1.1.45-1.28.83-.13.28.12.52.12.71,0,.15-.33.11-.36.23-.13.54-.11,1.51-.24,1.88-.15.43-.7.8-.77,1.13-.05.23.26.4.25.53,0,.22-.63.67-.57,1.47l.44.41-.41.52c1.01.04-.45,1.55.83,1.26.1.62-.37,1.32-.39,1.75-.03.6.38,3.16.72,3.64.19.27.92.78,1.11,1.21.26.58.02,1.44.84,1.52l-.41.82c.55.28.38-.85.73-.2.31.57.34,1.25.32,1.87l1.04-.42.41,1.16c.82-.37,1.03.39,1.41.48.57.13.21-.05.85.22,1.16.49.98.07,1.4.07.09,0,.85,1.11,1.45,1l.52-.62c.15.23.72,1.3.83,1.35.51.22,1.24-.09,1.26.73l.62-.42.21,1.25c.62.11.5-.52.73-.83.95.36.47,1.38.52,1.45.11.16,2.43.49,2.3,1.04l.41-.41.22.83.41-.21c-.15,1.44,1.11,1.31,1.67,1.78.25.21.77,1.67,1.35,2.19.45.41,1,.44,1.37.93.16.42-.76.23-.4.72.03.04.6-.03.41.63l.37-.15c.11.48,1.01.92,1.17,1.21.18.32.54,1.65-.08,1.45v.41c.85-.03.28,1.16.98,1.3l-.15.37.62-.21-.22,1.54.43.23c-1.07.84-.17,1.3,0,2.32.08.46-.19.94,0,1.4-1.17.56-.14.95-.1,1.7.01.23-.55,3.1-.64,3.24-.2.31-.6.34-.68.44-.05.06-.36.86-.54,1.15-.36.59-1.1,1.12-.74,1.93h-.63s.2.4.2.4c-.75-.09-.78.61-1.3.9-.22.12-.7,0-.86.13-.2.15-.06.46-.18.59-.29.32-2.41.87-2.97,1.11l.1.41-1.16-.41c-.31.82-1.29.82-2.04.61-.18-.05-.15-.41-.24-.4-.15.01-2.5.73-2.87.85-.28.09-.7.63-1.56.74-1.05.14-.97-.64-1.91-.54l-.34.82c-.75-.23-1.01-1.19-1.36-1.37-.32-.16-.65.16-.91.13-.24-.03-.22-.76-.65-.64l-.52.62c.08-.51-.45-.4-.73-.62-.33-.25-.61-.74-1-.9-.48-.19-1.93-.53-2.38-1.04-.37-.43-1.1-1.47-1.61-1.83-.68-.49-.9.26-.53-1.24h-.63s.23-.71.23-.71l-.44-.22c.4-.24.39-1.29.45-1.33.62-.46,2.43-.42,2.57-1.69l.72.54-.41.91c.26,0,.53.03.74.2.39.3,1.56,2.06,2.07,2,.46-.05,1.13-.06,1.65.14.31.12.28.51.36.56.08.06.38-.24.57-.16.08.03,1.08.9,1.08,1.01.78-.81.97.13,1.14.18.24.06,1.24-.33,1.64-.32.15,0,1.55.44,1.59.36v-.84c.57.07,1.22.47,1.37-.22.49.15.9.42,1.45.36.71-.07.86-.87,1.56-.14l-.12-.63c.62-.64,1.2.14,1.7.21,1.1.17,1.6-1.24,2.59-1.25l-.42-.83c.82.16.51-.27.7-.55.09-.12.96-.24-.07-.58.45-1.1,1.8-2.15.83-3.35l.41-.1-.39-.22c.15-.42.27-.85.18-1.3-.03-.16-.33-.13-.36-.24-.14-.4.22-1.24.17-1.63-.02-.16-.35-.15-.43-.29-.47-.82.38-1.87.21-2.77l-.62.41c0-.3-.23-.54-.3-.81-.13-.51.51-.55-.55-.77-.3-.4.26-1.1-.39-1.81-.19-.21-.81-.36-1.04-.49s-.22-.77-1.05-.49l.4-.29c.06-.73-1.57-2.46-1.45-.95l-1.05-.52-.3-1.16c-.63.07-.5-.38-.53-.4-.06-.03-.72.74-1.15,0-.19-.33,0-.81-.13-1.01s-1.37-.35-1.69-.47c-.16-.06-.16-.3-.21-.33-.1-.06-.38.31-.68-.48-.58.13.18,1.02-.41.83-1.1-.36-1.23-1.49-2.24-2.01-.13-.07-.81.21-1.1-.49l-.41.38c-.85.08-.86-.81-1.37-1.1-.32-.18-1.76-.4-1.87-.54l.21-.41c-.1-.13-1.5-.27-1.74-.41-.29-.16.18-.91-.97-.64l.42-1.25c-.54-.04-.92-.27-1.08-.8l-.38.17c.15-1.5-1.44-2.3-2.02-3.4-.24-.46-.42-1.5-.7-2.02h.63s-.42-2.5-.42-2.5l-.41.21.21-.83h-.63c.8-.76,0-1.73.03-1.95.03-.2.47-.42.39-.55-.01-.02-.27.05-.42-.15-.42-.56.73-2.02.63-2.87l-.42.1c-.05-.04-.22-1.21-.16-1.33.13-.29.47-.28.54-.37.08-.11-.03-2.39.03-2.76l.83-.46c.28-.78-.55-1.25.36-2.55.36-.51.88-.68,1.05-.91.05-.06.69-1.05.82-1.25.14-.22.48-1.3.53-1.36.3-.29,2.2-.62,2.48-1.02.23-.32-.04-1.11.19-1.53l.81.24.23.81c.02-.74.47-.43.77-.58.54-.27,1.35-.86,1.95-.97.53-.1,1,.71,1.55-.53,1.28,1.3,2.58-.29,4.07.63Z"/><path d="M124.67,13.03s.36.61.68.56c.13-1.77.74.25.86.39.05.06,1.08.11,1.38.31.11.07,1.53,1.54,1.58,1.65.08.17.24.67.35.92.28.69.67,1.21.42,1.94h.84c.1.5-.54,1.85-.54,1.99,0,.12.25.28.24.4-.01.27-.59,1-.52,1.45l.81.43c-.14.34-.74.72-.82.9-.26.56.03,1.05-.01,1.08-.47.32-.32.05-1.03.74-.62.61-1.04.26-.64,1.55l-1.04-.21.21-1.25c-.35-.1-.1.39-.31.43-1.04.16-1.1-1.43-1.74-1.77.11-.87.77-2.1.51-2.94-.12-.39-1-.38-.75-1.14l.83-.21-.8-.1-.46-2.4-.31.41c-.57-.84-.75-.6-1.43-.71-1.22-.21-1.09.22-1.5.22-.13,0-.31-.29-.57-.28-.44.02-.96.26-1.46.15-.42.11-.47,1.16-.63,1.4-.12.18-.66.34-.96.83-.46.74-1.96,5.84-1.92,6.64,0,.19.5.44.34,1.45-.06.37-.7.51.06.54l-.17.6c.9-.29,1.23,1.72,1.17,2.2-.02.21-.4.38-.33.51.01.02.24-.07.4.17.41.64.17,1.11.38,1.64.1.25,1.55,2.1,1.78,2.22.17.09.52-.07.54-.04.13.16.02.68.54,1.03,1.04.7,2.23.13,1.99,2.07,1.07-.15,2.57.02,2.5,1.46.84-.39.64.18,1.04.5.48.38.24.2.73.74.4.44,1.27.33,1.15,1.25h.52s.31-.41.31-.41c.33.54-.01,1.41.05,1.74.14.71,1.59,1.38.99,2.21h.83s-.42.31-.42.31c.72.31.97,1.47.63,2.19l.83.11-.41.83c.15.22.51.25.64.46.28.44-.43.61.61.82.53.91-.5,1.38-.42,1.53l1.24.64v.6s-.82.33-.82.33l.81,1.48-.41.2c.47.73-.11,1.67.29,2.32.69,1.14.17.74.39,1.63.03.13.38.1.37.19-.03.39-.71,1.1-.79,1.51-.05.25.05,1.7-.1,1.9l-.36.24.42.11-.42.72.41.09c-.34.37-.62,1.38-.81,1.66-.13.19-.46.06-.58.17-.15.14-.14.73-.48.89l.42.2c-.07.42-.95,1.37-1.31,1.72s-2.52,1.64-2.61,1.77c-.03.04-.04.17-.33.59-.08.11.07.35.04.39-.46.51-1.93.22-2.01.27-.07.04-.08.48-.37.58-.31.1-2.4-.13-2.91-.09-.44.03-1.4.19-1.66.52-.38-1.16-1.15-.29-1.64-.42-.15-.04-.14-.42-.24-.43-.3,0-.58.36-.83.36-.28,0-.56-.46-.94-.35.1.24.19.85-.21.83-.09-.59-1.19-.47-1.47-1.34l-2.29-.75c-.06-.36.26-.76.18-1.1-.01-.06-.57-.92-.62-.96-.05-.03-.75.3-1.02.18l.15-.37-.37-.16c.21-.57.57-1.45.24-2.04-.14-.24-.5-.07-.6-.17-.11-.11-.23-1.36-.38-1.64-.07-.14-.41-.16-.47-.23-.06-.07.23-1.79.29-1.86.1-.14.34-.17.51-.2l-.62-.83c.88-.15.93-1.18,1.87-1.32,1.3-.2,1.24.75,1.68,1.02.3.19.98-.28,1.24.41.22.57-.87,0-.62.73l1.04-.21c-.08.33-.14.82-.1,1.15.08.63.67.57-.31,1.04l.42,1.15.83-.21-.14.37c.46.05.17.31.23.4.3.5,1.02.89.96,1.52l.41-.41c.14.94,2.21.4,3.02.52.57.09,1.41.75,2.19.52l-.21-.41c1.1.57,1.35-.33,2.01-.56.34-.12,1.13.1,1.55-.17.27-.18,0-.55.1-.74.32-.63,1.63-1.79,1.94-2.65.18-.5.53-1.43-.19-1.3l.43-.33-.21-1.21.63-.45c-.26-.31-.2-.78-.28-1.03-.04-.13-.3-.09-.33-.21-.11-.45.48-1.21.51-1.47.01-.12-.26-.36-.26-.62,0-.35.37-.6.35-1.02-.03-.6-.84-1.37-.46-2.17-1.44-.63-1.21-1.25-.79-2.53-.97.17-1.15-1.37-1.04-2.09l-.83.2c-.19-.98.72-2.01-.83-2.09.38-.71-.15-1.39-.71-1.79-.42-.3-.68.21-.56-1.1-.75,0-1.83-.73-2.34-1.26-.19-.2-1.03-1.63-1.11-1.69-.28-.2-1.16-.24-1.58-.41-.18-.07-.18-.43-.57-.53s-.97.16-1.27-.18c-.1-.12-.64-1.26-.41-1.36l-.58-.04c-.26-.63-1.13-2.08-1.58-2.6-.22-.26-.68-.3-.9-.56-.71-.81-.07-1.2-.1-1.46s-.58-.68-.7-.99.05-.62-.03-.82c-.15-.38-.9-1.68-.92-1.79-.11-.54.38-.83.32-1.12-.09-.45-1.09-.91-1.14-1.57l.62-.1-.63-.32.63-2.7-.63-.42.84-.73-.41-1.13c.3-.51.59-.18,1.04-.12-.12-.41-.2-1.71-.09-2.1.2-.7.98-1.57,1.31-1.96l-.07-1.57c.31-.56,1.12-.1,1.32-.22.27-.16,1.01-2.12,1.35-2.43.29-.26.74.06.98-.36-1.19-1.47,1.95-.21,1.29-1.43.19-.71,1.89-.06,2.35-.02,1.07.09,2.77-.05,3.81.37Z"/><path d="M97.68,12.28c.56.37,1.34.22,1.39.28.13.18,0,.77.06.94.03.1.61.07.25.94l.75.31c.08.62-1.47,2.17.2,2.19v.2c-.13,0-.29-.04-.36.1s-.62,2.38-.58,2.5c.22.65.61.39,1.15.32l-.38.23c.08.72.36,1.72-.45,1.96v.31s.62.31.62.31l-.62,1.56c.37-.19.6-.03.8.31-.64.35-.37,1.48-.43,1.53-.1.1-.46-.11-.37.24.75-.02.42.83.58,1.37.09.3.37.3.41.4.36,1.11-.44,1.45-.51,1.76-.06.27.27,1.08.15,1.47l.62-.21c-.14.56.19,1.21-.62,1.25l.39.3-.18.73h.63c-.95.97-.59,2.16-1.25,3.24l.37.12-.16.47c.35.76.47,2.27.64,3.35.15.98-.74,1.08-.43,2.19l.42-.1c-.21.31.05.76,0,1-.04.17-.41.14-.43.27-.07.45.44.86.42,1.23-.02.44-.82.82-.09,1.58.2.21.5-.04.52-.02.13.22-.34,3.04-.21,3.61.04.17.35.13.38.17l-.58.9,1.04.32c-.05.77-.84,1.13-.63,1.95.04.16.4.13.4.22-.03,1.09-.43,1.17-.29,2.72.06.69-.51,1.03.52,1.46-.65.68,0,1.47-.62,2.19l.83-.2v1.04c-1.53-.08.06.89.16,1.1.09.17-.11.84.06,1.24.08.19.43.15.41.26-.16.89-2.29,2.63-2.82,3.44-.36.09-.65-.6-.94-.73-.37-.16-.76-.05-1.1-.15-.7-.21-.51-1.62-.36-2.24h-.63c.26-.9-.15-2.09.42-2.82l-.42-.2c.77-.67.08-.96.03-1.46-.12-1.3.07-2.83.19-4.14l-.81-.38-.04-1.11.64-.12c-.36-.62-.61-.68-.63-1.45l.63-.21-.83-.11c-.15-.82.34-.71.37-.83.16-.76-.07-1.97-.58-2.6l.63-.42-.81-.34c.2-.66-.01-1.38.06-2.02.06-.54.89-1.4-.08-1.7.96-.84-.08-1.43-.13-1.88-.02-.16.38-.82.3-1.04-.04-.11-.33-.08-.36-.24-.01-.05-.03-.93-.02-.98.05-.26.51,0,.42-.34l-.41-.1c.28-.46.61-1.41.58-1.93-.04-.67-.58-.69.04-1.3l-.36-.04.37-2.25-.83-.31c.43-.32.19-.79.31-1.14.13-.37.86-.4.1-.95l.62-.62-1.04-.32c-.09-.34.3-.11.38-.3.19-.46-.33-1.44-.31-1.68.02-.16.5-.53.64-.91.07-.18.11-1.87.08-2s-.85-1.15-1.2-.94l.62-.21-.39-.3c-.02-.53.57-.99.55-1.43-.01-.29-.74-1.79-.71-2.12s.82-.59-.08-.83c.82-.46.07-1.4.08-1.67.04-.94.04-1.27.02-2.3-.01-.6.77-1.67-.1-1.87l.42-.73-.83-.21c.69-.38,1.11-.87,2.02-.68l.79-.56-.11-.43h.31c.18.09.22.46.38.56Z"/></g></svg>