<?xml version="1.0" encoding="UTF-8"?>
<svg id="Layer_1" data-name="Layer 1" xmlns="http://www.w3.org/2000/svg" viewBox="0 0 1269.87 291.07">
  <defs>
    <style>
      .cls-1 {
        fill: #fff;
      }
    </style>
  </defs>
  <path d="M627.87,20.32c-.11,4.6,2.56,8.46,3.3,12.85,2.28,13.3-.63,26.32-1.23,38.78-.14,3.16,3.26,5.72,2.98,9.69-.21,2.88-2.84,5.12-3.16,8.46-.42,4.49,3.12,14.07,2.88,16.46-.35,3.44-3.65,6.32-4.04,8.92-.67,4.25,6.14,5.48,2.63,13.06-.49,1.05-3.09.98-3.4,2.39-1.37,6.04-2.14,16.85-2.6,23.16-.11,1.47-2.46,3.26-2.42,5.12.04,2.6,3.62,4.6,3.19,6.53-.39,1.72-3.4,2.91-4.04,4.35-.74,1.75,1.16,4.91.77,7.51-.46,3.09-3.65,6.46-4.63,10.67-1.19,5.12-1.75,12.21-.39,17.27h-5.09c4.53,4.77,4.04,11.09-3.37,10.11l3.26,8.99c-8.81,4.07-4,9.27-6.95,15.09-1.33,2.67-4.04,2.49-4.46,3.05-.32.42,3.05,7.65,1.19,9.69-7.83.6-12.42,9.3-17.72,13.41-10.35,8-8.77.25-9.83.25l-1.65,3.37-5.09-3.37c1.23,4.46-15.16,3.58-16.64,3.09-2.74-.91-1.86-7.23-7.86-8.95-4.74-1.37-7.23,3.33-9.62-5.51-.53-1.93,1.16-3.9.88-5.12-.46-1.93-6.81-3.26-7.09-3.58-4.67-5.51-.91-9.69-1.75-13.79-.6-2.91-5.41-6.42-5.19-10.74.18-3.62,4.6-8.74,2.77-14.95l-6.84-3.58,3.4-9.79-6.74-5.33,5.02-5.09-5.02-4.21,3.4-5.83-6.77-4.25c.11,6.32,3.62,9.93-1.68,15.13l5.05.84-6.56,6.98c4.49,5.37.53,6.14.42,8.42-.46,9.27-1.51,16.29-3.12,24.46-2.53,13.02-5.09,13.16-11.62,21.8-5.3,7.02-6.39,16.85-19.62,14.07l-2.46,5.97-6.7-3.37-1.05,2.95-8.28-.35-1.65-7.69-13.41,1.72c1.44-9.34-4.07-8.39-6.88-14.18-3.44-7.12-12.04-27.03-13.02-34.22-.32-2.21.81-3.54,1.37-5.44h-5.05l3.33-10.85c-6.56-3.23-6.35-7.09-3.47-13.72l-3.12-1.4c3.37-12.74-7.02-31.13-7.79-43.87-.35-5.69,6.84-10.85-4.14-11.02,3.02-4.98,5.51-10.88,2.77-16.46-.77-1.61-6.46-.56-2.6-9.13.77-1.68,3.3-.98,3.37-3.79.07-1.93,0-12.14-.11-13.3s-3.3-1.3-3.47-1.9c-1.75-5.97,2.53-3.23,4.49-4.7,3.47-2.6,5.41-6.81,7.37-10.04,2.35-3.9,7.05.42,6.74,3.83l4.98-3.37c2.6,10.21,15.69,11.58,10.21,22.6l6.67,3.51c1.37,5.72-4.98,5.12-5.12,6.84l3.65,12.32,6.6.18-5.12,12.6,3.54,1.9c-2.21,6.6-.56,8.88,1.72,14.81l-4.95,3.4,2.35,6.11,3.9.21c3.9,5.12-1.33,7.37-1.37,12.04-.07,9.06,9.97,13.48,3.23,22.11l3.58,1.86c-5.26,10.99,5.51,12.74,1.86,23.94l8.81,3.83c1.4-6.14,6.98-5.37,7.34-5.72,7.23-6.7,2.67-9.34,3.62-15.44,1.44-9.34,1.33-11.3,1.83-20.11.07-1.26,4.67-.21,3.4-5.19-.14-.6-3.23-.7-3.47-1.9-.88-4.67,3.58-10.21,3.58-15.02,0-2.18-4.32-3.12-3.44-7.37l6.63-.14c.49-.91-2.14-9.79-1.79-12.6.46-3.65,1.86-19.13,2.11-20.11.49-1.93,3.69-1.97,4.74-3.93,5.33-9.93,2.25-13.65,11.3-24.46,2-2.39,1.26-5.97,5.05-7.58,4.6-1.97,10,1.51,11.62-3.83l4.98,1.68,1.54-3.26,6.04,6.67,5.79-3.26c5.02,2.14.63,9.3,1.05,9.86.39.53,3.16.6,3.97,1.83,2.56,3.86-1.79,21.27-.04,27.83.91,3.44,7.48,6.88,4.28,12.57l5.05.07c-4.88,8.81-.39,19.34-3.37,28.61l3.33-1.72-.95,13.58,6,1.61c2.32,5.19-4.84,6.39-4.88,7.44,0,.98,2.84,12.21,3.47,13.34,1.4,2.49,4.28,2.53,4.63,2.98.67.88-6.81,17.13-1.51,20.85,1.23.84,4.25.42,4.77,1.05,1.05,1.19-.32,6.21.25,8.74.28,1.16,2.77,1.23,2.88,1.65.7,2.32-.77,7.02,2.98,9.62,3.72-3.62,10.53-10.39,9.34-15.83-.25-1.09-3.44-1.12-3.4-1.75.18-3.9,4.42-6,5.26-8.32,2.04-5.69,2.56-12.74,4.67-18.6l-6.6-4.32c6.74,0,4.67-8,5.9-10.07,2.32-3.93,11.79-6,4.25-15.13l3.33-1.02c-3.3-8.49,4.56-8.6,5.05-18.53.39-7.23-4.14-4.6-2.6-10.92l5.93-1.61c.74-.67-2.88-2.49-2.63-5.12.42-5.02,5.65-18.01,6.91-24.64,1.44-7.62,6.46-26.57.81-29.9l3.47-8.42-3.4-3.37c10.88-11.06,5.23-31.73,25.17-34.61v.07ZM466.28,215.64h-5.05l1.72,5.05h3.33v-5.05Z"/>
  <path d="M75.74.11c-5.05,7.37,3.54,10.78,3.44,14.29-.07,2.28-2.91,3.93-3.16,5.41-.35,2.04,2.74,3.54,2.77,6.11,0,2.11-3.4,9.37-2.7,12.11.28,1.05,2.98.7,3.16,1.86.14.98-1.51,18.5-1.79,19.73-.32,1.47-4.7.53-3.4,5.3l5.16,5.09c-7.48,3.97-4.95,14.92-5.72,21.62-.53,4.53-3.47,8.25-2.91,13.83.18,1.65,7.05,11.97,7.9,12.25,8.39,2.88,12.95-5.48,16.71-6.56,6.32-1.86,11.09,1.86,18.32.11,4.6-1.12,7.93-4.25,11.65-5.37,6.74-2,14.36-1.12,20.57-6.46l4.98,5.09c8.07-5.86,11.79-8.28,22.74-6.74l-1.83-12.46,6.88-1.02c-5.02-6.46-.91-13.23-1.61-21.09-1.3-14.64.56-22.71.84-37.03,0-1.23-2.49-2.46-1.93-5.93,1.12-6.84,18.29-3.26,23.59-6.63.74,1.4,3.26,3.09,3.76,3.9,5.9,10.32,2.91,13.2,4.7,21.34.91,4.25,8.6,10.25,1.02,10.11l3.23,5.65c-4.14,3.23-6.46,15.44-6.35,20.46.07,4.42,3.4,8.07,4.21,12.07,1.23,6.28-3.19,20.6,2.25,26.64l-3.37,1.65,4.49,8.49c-9.48,8.42-2.6,19.16-5.19,29.52-.77,3.05-3.76,5.41-4.04,7.76-.07.6,1.54,11.06,1.83,11.58,1.02,2.04,3.65,1.79,4.32,3.33,1.51,3.47-11.23,16.74.21,20.15-6.04,5.69,2.04,10.07-6.32,13.34,4.28,7.16-1.86,7.79-2.07,8.88-1.51,7.48,2.95,7.02,4.18,8.88.7,1.09-1.12,14.5-1.58,15.16-1.02,1.54-4.32,2-5.12,3.33-.67,1.09.95,4.28.14,6.77-2.53,7.83-13.13,18.5-21.59,16.53-.7-.18-11.55-7.51-12.04-8-1.05-1.05-2.42-14.18-2.21-15.83s2.84-2.84,2.95-5.26c0-1.05-2.88-.56-3.33-1.93-1.23-3.83.53-14.14,6.74-13.3l-.84-7.65-6.04-2.42c7.16-9.3,1.68-19.55,3.76-28.25.74-3.16,4.07-5.51,4.39-7.37.46-2.74-3.3-5.33-2.84-7.9.42-2.14,4.98-3.72,4.88-6.95-.07-2.32-3.3-4.14-3.12-6.49.28-4.49,8.32-10.39,2.6-19.2-4.18-6.42-26.74-6.35-21.37,4.56l-7.72,1.51-1.54-3.23h-3.37c-2.56,7.2-10.25,4.18-16.74,5.19s-11.65,4.32-19.44,1.58l1.68,6.7c-5.19,3.58-22.43-3.05-23.55-2.6-5.41,2.35-13.72,16.53-13.69,21.97,0,3.83,3.58,6.14,3.58,8.42,0,2.46-3.69,4.56-3.26,6.49.39,1.83,4.07,3.23,4.32,5.19s-1.9,5.93-2.18,8.74c-.49,5.19-.07,15.16-.7,19.8-.77,5.44-3.76,10.46-3.23,16.15h8.42c-1.61,5.44-2,8.14-8.42,8.46-.39,8.74,15.62,7.05.46,14.21.6,3.65,3.09,12.71,1.75,15.65-1.65,3.62-4.77,3.12-5.55,3.83-1.9,1.75,5.86,2.04,5.02,5.83-1.68,7.79-7.76-2.81-8.39-2.49l-4.18,6.53c-4.53,0-5.86-4.21-8.07-5.33-7.23-3.65-8.07,2.35-11.69-12-.42-1.65-2.49-12.92-2.49-13.62.07-1.72,4.63-4.98,4.63-10.21,0-3.02-3.09-2.04-3.51-3.65-.77-3.02-4.63-14.53-4.53-16.5.14-2.25,3.97-12.92,3.76-15.06-1.37-13.79-1.23-23.02-.74-37.17.14-3.54,1.9-10.11,1.3-13.16-.21-1.09-2.46-1.02-2.7-1.47-.42-.81,1.26-2.63,1.05-2.84-2.49-2.46-12.85-4.07-15.93-.28-2.21-.21-2.35-9.44-8.42-9.27-2,.07-5.93,5.72-7.51-4.04l8.39-1.72c-2.63-3.97-6.95,1.16-4.88-7.41l6.39-2.88c-2.98-11.41,14.07-4.11,10.28-18.32,1.9,1.58,6.91,2.53,8,3.69.42.42-1.58,3.65,1.26,4.77l7.58-4.28c1.12-5.3-4.39-2.84-3.58-8.35.56-3.83,5.62-2.98,6.81-10.32.11-.63.07-9.2-.07-9.65-.42-1.51-3.65.04-3.37-5.3.07-1.26,5.12-5.79,6.18-12.04,1.54-8.95-3.72-16.81-2.39-26.29.67-4.63,4.77-4.6,4.84-5.65.18-2.39-2.04-4.91-1.47-7.83s6.63-6.46,4.28-10.95c-.35-.67-4.56-.14-2.91-5.41l4.81-.14c.95-1.05.21-8.25,1.02-10.88,3.54-11.34,14.78-5.48,24.46-7.51l.11.11Z"/>
  <path d="M1113.46,98.73c3.4,6.53,8.04,21.27,10.25,29.41,1.4,5.16-1.37,18.29,7.37,16.88l-1.68,15.65,3.47,1.86c-3.51,2.63-2.32,7.83-3.86,10.53-.95,1.68-7.02,2.46-2.98,9.37.88,1.47,3.79.84,3.47,2-.98,3.62-5.41,5.12-6.14,6.32-1.93,3.09-3.54,10.95-3.09,14.78h-5.93c-2.11,4.11,3.26,3.05,3.44,4.21.91,6.7-7.41,7.86-9.23,10.88-.39.63-2.39,10.14-4.18,12.74-5.41,7.79-10.81,8.74-16.5,13.06-2.81,2.14-10.49,14-11.69,14.43-5.97,2.14-4.18-1.33-7.3-3.12l-.18,6.56c-6.28,1.97-13.23-.14-15.9,7.02-12.35-9.37-18.43,7.97-30.25-.32-6.49,7.51-9.86-2.35-17.44-1.75l-.35-4.56c-8.67,1.26-10.07-7.05-13.97-12.18-5.23-6.91-3.65-5.41-7.62-12.18-1.02-1.72-4.88-2.39-6.67-5.51-4-6.88,1.05-12.25-.84-17.55-1.54-4.21-4.91-3.69-6.25-7.62-2.63-7.72,1.3-11.27,1.4-16.5.11-5.23-4.67-6.11-5.58-11.09-2.98-16.57,1.37-23.48,1.86-37.03.11-2.63-2.6-4.11-1.86-8.56.6-3.58,7.72-21.34,7.55-22.5-.28-1.79-3.69-3.65-4.84-5.3,8.63-2.91,2.67-10.04,10.07-10.99l-3.37-5.79c8.49-1.75,10.39-17.16,12.21-18.99,1.02-1.02,4.56-.7,6.53-2.81.53-.56,3.3-8.84,6.6-13.65,1.23-1.75-.35-3.69.81-4.28,2.49-1.3,6.11-.84,8.74-2.11.81-.39,1.02-3.19,3.3-4.18s11.72-1.4,12.35-2.07l-1.72-3.33c8.11,5.26,20.15-7.2,24.39,1.65l5.3-6.88c7.2,4.74,11.79-1.75,16.43-1.58,2.67.11,11.69,6.39,13.65,8.42,2.25,2.28,14.04,15.9,15.37,18.29,6.67,11.76,7.97,25.13,14.81,38.26l.04.11ZM1073.76,89.64c-.28-.49-2.88-.77-3.79-2.11-3.44-5.16-6.04-15.62-12.88-17.55-1.9-.53-2.98,2-5.12,1.79-2.77-.28-4.39-3.05-8.21-1.79-12.46,4.21-14.95,10.99-22.53,18.81-.91.95-4,.49-5.26,2.21-4.07,5.55-2.11,11.02-2,16.43-10.25,4.84-4.28,5.19-6.74,11.79-.35.95-6.74,7.09-7.3,9.69l6.42,5.02-9.79,26.11,6.7-1.65-3.37,17.65,5.09.88-3.4,9.23c9.34,3.37,1.3,7.37,1.68,13.37.07.95,2.7.63,3.3,2.21,3.4,9.37,1.75,20.32,5.02,28.32,3.26,8,5.62,5.02,10.18,6.63,2.67.95,5.37,3.44,7.79,3.72,6.04.67,16.88-1.83,15.79-9.62,7.72,4.6,8.18-.53,12.64-3.4,10.35-6.67,8.07-8.18,14.81-16.29,4.18-5.05,9.41-4.42,12.21-13.97,1.05-3.54-3.23-4.49,4.11-7.62-10.6-4.88,4.7-19.34,4.98-23.66.04-.77-3.12.11-3.44-3.23-.49-5.37,3.19-3.86,3.51-5.41,2.28-11.27-5.79-26.71-8.81-37.31-8.67.14-1.93-2.46-1.75-8.14.18-5.97-4.53-9.06-9.65-5.58-2.39-3.47.18-15.79-.25-16.53l.07-.03Z"/>
  <path d="M314.8,42.19l-.84-3.37,5.02-.07c1.51.49.28,3.62,1.19,4.67,2.39,2.7,15.62,6.77,16.29,7.41.42.39.46,6.11,2.04,8.88,1.86,3.3,6.04,4.07,6.39,4.67.98,1.68-1.51,4.7-.67,6.56.56,1.23,9.34,6.84,10.39,8.67.49.84.35,13.16.21,15.72-.11,2.21-2.28,3.72-2.25,5.97.04,1.9,3.51,10.78,4.6,11.44s4.95-2.74,6.28,1.16l.14,5.79-6.74.84c4.56,2.6,9.97,7.62,3.37,10.04l3.47,8.42-3.33,1.61c.04,6.04,7.02,13.79,6.18,17.3-.95,3.83-4.74,5.33-4.7,8.07.04,2.39,3.4,4.32,3.44,6.77,0,2.74-8.42,11.09,0,10.99v1.65c-1.61.18-8.99,6.18-9.23,6.67-1.33,2.6,3.76,6.07-2.56,7.83v3.16c-.88,3.4,5.33,3.97,5.09,5.05-.84,3.9-6.04,5.51-7.51,7.72-.6.91-5.93,15.13-6,16-.25,3.93,3.47,5.83,3.16,8-.25,1.72-5.58,7.86-6.46,10.53l-6.74-.98c2.88,16.39-17.23,11.9-22.74,23.59-.49-2.91-9.16-5.33-12.42-5.76-4.77-.67-12.25,2.21-13.72,1.79-3.79-1.12-4.21-4.95-5.48-5.69-3.4-1.97-8.07-1.33-12.11-7.2-1.51-2.21-1.37-5.76-2.46-7.37-1.16-1.72-4.04-.35-5.33-2.04-1.09-1.44-4.95-13.65-6.98-15.41-1.54-1.33-6.88,1.47-4.63-6.07.35-1.16,3.44-1.09,3.47-2,.11-2.35-2.95-6-3.19-8.74-.35-4,2.53-6.11,2.46-7.97-.07-1.72-3.86-5.23-4.04-8.77,0-.77.21-14.04.28-14.81.35-3.65,8.53-7.83,5.23-12.67-.6-.88-3.09-1.05-3.72-2.11-1.26-2.11-.7-6.53-3.4-8.84l7.97-12.57c-6.84,4.81-6.95-15.9-6.46-17.65.39-1.3,3.3-1.47,4.46-3.62,1.86-3.4.25-9.51,5.33-9.06l-3.33-2.49c11.02-6.95,0-11.97,0-13.48,0-.91,5.65-4.95,6.81-6.67,2.21-3.3.14-7.23,4.95-8.46l-3.12-5.12c9.93-6.88,11.48-16.07,11.72-27.55,4.46-.07,9.58-.67,12.74-4.18.81-.91-.14-3.58,1.61-4.49,2.14-1.12,6.63-.81,9.37-1.79,1.37-.49,1.33-2.95,2.49-3.19,5.86-1.3,8.91,2.81,13.97,3.33l.07-.14ZM311.39,77.57c-3.16-3.05-12.95,11.58-12.78,12.64.25,1.61,2.67,3.05,2.67,3.37-.11,1.37-4.18,1.97-4.67,2.77-.25.39,1.23,3.58.28,6-1.19,3.16-7.41,3.4-8.39,10.49l6.04,5.97c-8.63,6.91-2,9.02-2.04,11.83,0,.84-4.39,4.28-5.23,7.86-.74,3.09,1.05,6,.49,8.81-.84,4.14-5.97,14.81-4.84,18.43.46,1.44,3.37.49,3.4,3.51.04,3.3-1.75,7.44-3.51,10.28,7.93,2.07-.18,6.7.25,9.72.39,2.7,7.69,9.83,8.21,13.83l-4.95,4.91c.11,3.97,5.76,8.28,6.32,10.56,1.05,4.11-4.49,12.04,6.39,13.51,5.58.77,6.6-5.02,8.95-8.42,1.02-1.51,3.86-2.04,4.28-2.84,1.02-1.93-1.75-5.02-.7-6.56.95-1.4,10.21-4.25,8.18-11.06l-4.95-3.51,6.7-8.46-3.37-.84c6.11-5.33.56-7.65.63-10.88,0-.49,3.16-8.28,3.72-9.27.77-1.4,3.51-1.47,3.83-1.93.39-.56-1.68-3.58-1.44-5.58.32-2.63,3.02-4.35,3.4-6.95.49-3.54-1.9-10.56-1.51-14.88l-5.23-1.02c1.68-3.76-.63-17.06.21-19.34.35-.95,2.53-.74,2.74-1.12,1.61-3.51-5.62-9.06-6.95-13.51-1.54-5.23,1.33-8.39.39-11.9-.88-3.3-8.91-9.48-6.49-16.39l-.04-.03Z"/>
  <path d="M967.66,3.16l1.09-3.05c3.62,5.48,9.9,2.25,14.85,3.69.56.18,8.95,6.32,9.23,6.81,2.07,3.76-2.28,5.86,7.09,8.88l-.98,4.25h-5.76l3.26,4.32-1.58,3.16c-7.93,1.97-15.09,8.77-23.69,6.67l-2.49,6.14-8.25-1.9-1.72,3.47c-8.07-5.09-12.04-7.23-18.64-.07l-4.95-3.33c-2,4.11-7.27,7.16-8.53,1.61-8.14-.63-12.92,6.63-13.72,6.84-4.04,1.09-11.55,0-15.65-1.72v8.42c-9.06.46-8.56-8.84-17.37-6.67-1.23.32-1.3,2.53-1.58,2.63-7.65,2.63-16.39,4.11-13.02,16.39.46,1.65,5.37.04,2,6l3.05.21-3.33,4.18c.07.84,6.7,1.83,4.63,8.42-.39,1.19-4.7,1.02-2.95,5.9l5.09.91-1.51,8.18-5.3,1.9c-.32,4.77,13.76,7.09,1.68,13.44,4.7,1.54,4.67,6.35,5.05,10.95l-5.93-1.65-.81,3.33h6.74c.67,6.63-8.32,8.77-8.53,9.44-1.68,5.55,4.14,19.97,1.83,29.8-.46,1.97-4.49,1.83-5.05,3.83-.77,2.56,2.18,4.6,2.49,7.55.98,9.55-3.9,4.53-4.21,5.83-1.05,4.49,4.28,1.68,5.05,2.53-1.86,5.83-3.4,13.16-3.4,19.34,0,3.51,2.11,8.07,1.83,9.86-.25,1.58-4.18,1.47-4.98,3.83-1.47,4.21,1.58,8.67.77,12.57-.63,3.09-3.93,2.91-4.28,4.42-.81,3.51-2.91,10.11-3.16,11.76-.39,2.39,3.05,4.18,3.05,4.74,0,.7-9.86,9.48-10.53,9.79-2.63,1.23-5.58-.49-6-.21-.81.53-1.09,4.25-2.84,4.7-1.58.42-4.7-2.46-7.05-2.98-1.75-.39-4.35,1.12-5.58.49-4.07-2.18-1.3-8-1.9-11.34-.49-2.74-2.63-4.81-3.12-8.95s1.65-10.56.6-15.16l4.53-.77-4.42-10.95c-.39-4.32,5.83-5.26,6.14-6.77.39-1.9-3.12-3.83-3.05-6.35.04-1.97,2.21-4.84,2.6-7.51.67-4.56-1.65-9.13,3.83-13.06l-3.33-3.26c5.09-3.9,7.9-17.69,6.81-23.34-.39-1.97-5.97-1.86-5.26-5.3,8.18-8.14-4.35-14.07,5.16-18.71-4.04-5.41.18-11.34,0-14.92-.04-1.02-2.81-.7-3.09-1.75-1.68-6.25,5.86-9.9,6.25-12.04.28-1.47-3.4-4.81-3.3-9.76.07-3.33,2.95-23.83,3.79-26.74.67-2.28,3.19-3.65,4.67-5.37-11.09-10.56-17.55,2.42-27.83-3.97-6.14,11.44-15.23,2.07-25.66,4.32-3.3.7-5.44,4.18-9.2,3.65-1.79-.25-11.69-7.41-13.02-9.02-6.11-7.34-3.19-15.86-8.39-22.74,1.86-1.26,7.44.14,8.04-.28,3.51-2.46-1.12-6.6,8.63-1.58.18-1.83,7.16-9.3,7.76-9.48,7.05-2.25,9.48,3.9,12.71,3.86,12.14-.18,24.5-9.79,36.08-5.97l.88-5.09,1.9,2.98c7.58,1.65,14-2.11,20.95-2.88,8-.91,19.09-.39,26.74-1.9,4.04-.77,7.44-5.26,10.88-5.9,2.46-.46,4.21,1.9,5.9,1.79,14.74-.88,32.47-5.26,46.82-8,2.28-.42,4.95-3.69,7.9-3.97,3.93-.39,3.33,6.25,7.83-2.49l8.84,3.16-.04-.04Z"/>
  <path d="M1250.24,184.27c.74.81.07,3.19,1.58,4.53,3.37,2.91,8.53,1.44,8.81,1.79.63.88.18,3.47,1.09,4.84,1.09,1.68,5.62-.46,8,5.55,1.09,2.74-4.07,14.71-.49,19.66-5.69,1.23-16.25,8.21-16.85,15.2l-6.7-3.37-1.68,3.37-.84-5.05c-7.83,10.95-5.44-2.74-6-3.19-2.67-2-7.65-.91-9.97,1.51l-7.65-18.57-5.79-.77c2.63-4.77,4.53-12.32,6.91-16.64,2.18-3.97,7.65-5.93,7.9-6.35.42-.77-2.49-3.54.32-5.72,6.18-.35,16.85-1.58,21.37,3.19v.04Z"/>
  <path d="M1259.68,82.06c5.23,6.18,8.35,8.11,9.62,18.18,1.47,11.9-6.84,9.58-6.91,20.92-1.47.95-33.59,2.07-35.27,1.02-1.51-.95-2.11-2.42-1.51-4.18l3.23-.91c-2.7-.95-11.76-9.23-11.69-10.04.18-1.61,2.77-4.14,2.63-6.84-.11-2.11-2.88-4.14-2.46-6.46.28-1.51,13.2-17.94,15.44-17.72l5.33,3.12,2.67-4.95c6.88,2.84,8.7,6.11,15.79,1.61,2.39,1.23,1.9,4.77,3.09,6.21l.04.04Z"/>
  <polygon class="cls-1" points="466.28 215.64 466.28 220.66 462.95 220.66 461.23 215.64 466.28 215.64"/>
</svg>