<?xml version="1.0" encoding="UTF-8"?>
<svg id="Layer_1" data-name="Layer 1" xmlns="http://www.w3.org/2000/svg" viewBox="0 0 485.24 200.23">
  <defs>
    <style>
      .cls-1 {
        fill: #fff;
      }
    </style>
  </defs>
  <path class="cls-1" d="M428.29,10.45c.79.55,3.09,1.48,3.05,2.4-.01.42-.53.81-.6,1.33-.3,2.16.27,2.53-.56,5.01-.92,2.72-1.24,4.85-1.66,8.14-.16,1.25.58,2.22-.35,3.66,1.3-.07,1.22.38,1.4,1.39-1.92-.2-1.07,1.48-1.27,2.54-.31,1.66-.41,1.44-.25,2.99.09.86-.82,1.7.83,1.9v.34c-.25-.03-.57.02-.71.24-1.62,2.55.25,2.35.36,2.76.18.66-1.29,1.09-1.06,1.93l1.4.53-1.4,1.24.7.7c-2.33.71.91,1.6-.67,3.15,1.24.02.37,1.83-.73,1.79v.34c1.29-.21.11,1.63,1.4,1.42v.34c-1.35.1-1.22,1.35-1.75,2.3v.52s1.4.53,1.4.53l-1.7,1.84c-.06.76,1.38,2.6.95,3.8-.56,1.55-.49,1.84-.7,3.82-.09.81-.67,1.93-.62,2.53.06.8,1.22,1.56.32,2.98h1.06c-1.24,1.09-.36,1.98-.45,2.95-.05.51-.6.97-.62,1.79-.02.97.85,2.39.74,3.14-.04.25-.59.19-.67.39-.35.92,1.27,4.23.65,4.76l-.7-.18c-.09.64.73,1.11.86,1.57.44,1.59.65,4.33-.17,6.17l.76.7c-.09.94-1.16,2.27-1.1,3.15.01.21.63.14.71.45.2.77-.45,1.39.71,1.69-.41,1.05-3.21,2.25,0,2.48-.24.57-.11,1.56-.4,2.04-.36.6-1.02.38-1.01.94,2.17-.41.27,2.4,2.11,2.48l-1.38,2.33.67.65c-1.18.53-.87,3.82-.27,4.35.12.1,1.47-.09.94,1.23-.12.29-.6.22-.66.48-.14.61.06,1.38-.03,2.03l1.08.19-.15,1.08-1.26.33c1.21.77,1.71,2.22,1.42,3.63-.06.28-.7.22-.73.46-.02.14.32,2.46.38,2.7.09.32.57.05.68.74.23,1.44-.85,1.45-.98,1.67-.16.28.4,3.96,1.69,3.13l-1.4,1.62v.66c1.3.43,1.16,2.76.68,3.79-.13.27-.7.28-.7.46,0,.7,1.27,1.65.4,2.76-.29.37-.85.12-1.04.24-.06.04.2.5.09.67-.47.7-2,.75-1.55,2.47l-1.06-1.05h-.69c.29.62-.7.74-.89.62-.27-.17-.4-1.69-1.05.08-1.13-.62-2.07-2.47-3.35-1.77l-.36-3.17-.88.67c-1.92-1.28.41-2.42-.89-4.19l-1.05.7c-.72-1.09.08-2.16.02-2.95-.02-.24-.64-.21-.84-.67-.52-1.18-.64-4.49-1.18-5.44s-2.12-1.88-1.88-3.27l-1.05.36c-.83-1.67,1.32-3.26-.97-3.94l.26-2.04c-.71.52-1.65,0-1.96-.72-.27-.63.15-.96.13-1.22-.01-.2-.55-.15-.62-.44-.52-2.03-.02-3.49-2.47-4.87l.44-1.8c-.48-1-1.4-.71-1.5-.82-.13-.14.26-1.23.19-1.76-.03-.19-.69-2.65-.76-2.78-.35-.65-1.96-.92-1.21-1.78l-1.05.35c-.28-.73.39-1.78.36-2.26-.02-.21-.56-.19-.59-.29-.3-.75-.43-.69-.58-1.05-.22-.53-.14-1.49-.26-1.68-.04-.06-.88.47-1.21-.35,1.08-2.6-1.19-2.39-1.61-3.08-.25-.42-.23-1.69.02-2.21l-1.26-.34c-.36-1.64-.73-3.84-1.24-5.4-.07-.21-1.09-.92-.68-2.02l-.69.35-.39-2.44c-2.96-.16-1.46-1.06-1.53-1.81-.06-.59-.75-.65-.82-.86-.38-1.08,1.09-2.26-.79-1.95.76-1.75-1.26-1.6-1.41-1.76-.25-.26.48-1.39.31-1.69-.06-.1-.71-.21-1-.63-.27-.38-.15-2.27-.76-3.38-.23-.42-1.24-.91-1.32-1.58-.06-.5.68-.69.51-1.52-.37-1.75-1.33-1.15-1.45-1.38-.48-1.53-.13-4.1-2.28-3.55-.15-.13.17-2.33-.05-2.95-.17-.48-.83-.44-.95-.75s.61-1.51.47-1.93c-.12-.39-.79-.87-.99-1.41-.33-.87-2.51-6.37-2.79-6.61-.56-.47-1.7.31-.61-2.2h-1.76c.48-1.77.14-4.17-.82-5.7-.43-.68-1.53-1.26-1.61-1.57-.21-.73,1.15-2.28-1.09-1.53v-4.22c-1.08.08-1.5-.35-1.41-1.42l-1.05.36c-.56-.86.32-1.84.28-2.23-.08-.8-1.03-1.66-.29-3.06l-1.4.35.02-2.26c-2.26-.2-1.77-1.54-2.14-3.38l-1.43.21-.86-2.67-2.29,2.29c2.03,1.21-.91,1.83-1.03,1.96-.11.12.25,2.06.14,2.59-.17.8-1.25,1.99-1.22,2.48l.8.18c1.01.84-.45,1.19-.68,1.52-1.01,1.46.19,1.33.51,1.72.34.42-1.19,2.89-2.03,2.76,1.36,1.22.34,2.26.35,3.31,0,.11,1.41.76,1.34,1.73-.05.82-1.08,2.71-1.2,3.4-.13.74-.32,3.81.92,3.53v.34c-1.13-.19-.51.89-.78,1.5s-1.2,1.33-.97,2.14c.13.47,1.2.05,1.08,2.2-.06,1.07-.28.79-1.08,1.38l1.4,1.76c-1.11.76.04,2.06-1.41,2.46.67,1.21,1.57.68.35,2.13l.73.35c-.44,1.51-2.48,3.21-.38,4.22-2.09,1.16-.14,2.67-.15,3.88,0,.45-.56.97-.58,1.75-.01.91.69,1.69.69,2.48,0,.74-1.34,1.77.04,2.1l-.7.71,1.09,1.05c.02.98-1,1.99-.97,2.47.04.6,2.87,4.46-.12,4.41l.73.57c-.59,1.76-.17,3.19-.08,4.91.06,1.27-.94,2.53,1.12,2.79-1.42.56-.23,2.8-1.76,3.52-.06.12,1.03.14.92,1.42-.1,1.21-2.05,2.36.49,2.11l-.54,1.61-.87-.03c1.01,1.92-.1,2.77.35,4.58l1.05-.35-.41,1.72-1,.22c.7,1.08.66,1.41.5,2.66l1.27.34c-.99.77.05,1.93-1.05,1.76v.7s.65.17.65.17c-.82,1.35,1.01,3.63-.66,4.23l1.31,1.41c-.96,1.44-.37,3.07-.32,4.58.02.47-.3.97-.31,1.43-.01.64.64.43.72.75.49,1.74-.77,1.46-.94,2.21-.2.85.76,1.84.8,2.31.04.39-.51,2.42-.56,3.17-.09,1.43.53,2.69-.36,4.21l1.07.19c-.37.69.05,1.74-.25,2.37-.35.71-1.56,3.2-1.87,3.61-.02.03-.45-.32-.62-.24-.15.06-.77,1.24-1.02,1.27-.9.13-1.86-.93-2.41.73-.5-.17-.79-1.24-.94-1.33-.09-.06-1.31.37-1.96-.5-.17-.23.39-2.25.27-2.86-.06-.27-.58-.21-.65-.41-.16-.44.45-2.37,1.35-1.58l.35-3.17h-1.76c-.14-.93,1.41-1.87,1.43-2,.18-1.2.02-3.53.11-4.81.05-.79.52-1.98.51-2.54,0-.2-2.84-2.45-.29-2.99l-.17-.72-.89-.34,1.06-2.45h-1.41s.37-1.22.37-1.22l-.73-.35c.84-.88.18-2.47,1.41-2.83l-.71-.18.7-.52c-1.89-.9-1.45-2.45-.7-4.05h-1.06c.95-1.11,1.77-3.76-.35-2.82v-1.58s1.05-.18,1.05-.18l-.72-.53c1.02-1.51,1.08-4.7-1.04-4.75,2.08-1.95.75-3.63,1.06-5.43.09-.51.61-.88.65-1.15.06-.45-.52-.72-.59-1.05-.07-.4.67-.82.49-1.87-.19-1.11-1.2-2.14-1.21-2.27-.04-1.3,1.54-3.05.98-4.9-.08-.27-.67-.22-.69-.43-.04-.5.89-3.86.93-4.73.04-.95-.5-1.96-.48-2.21.06-.57.84-1.88.9-2.77.12-1.95-.82-4.15-.65-6.12.06-.69.58-.44.64-.68.32-1.29-.75-3.16-.86-4.17-.32-2.87.26-6.64,1.3-9.21l-1.77-.36c1.16-.23.19-1.73.65-2.84.25-.61.88-.55.94-1.51.06-1.02-.72-2.87-.72-3.75,0-.78.68-1.46.79-2.16.12-.74-.14-2.8-.56-3.49l1.04-.72-.67-3.52c.78-.32.99-.83,1.04-1.69l-1.08-.75c1.46-1.13.66-1.72.88-2.69.09-.42.68-.8.79-1.27.21-.87.01-1.86.44-2.72l-1.41-.35c1.12-.9,1.68-4.28,2.13-4.89.39-.53,1-.53,1.04-.58.07-.09-.85-1.12-.65-2.19.27-1.47,1.96-2.25,2.32-2.82.25-.4.13-1.18.44-1.79.21-.41,1.15.13.36-1.64,1.99-.5,3.46-1.28,5.53-1.63.65-.11,1.01.73,1.33-.49l1.99,2.08,1.33-.29c.5.9.7,1.97,1.2,2.87.25.45.67.52.84.76.21.29.06.86.12.92.15.15,1.63-.71,2.11.54l-.7.7c2,.75.71,2.72,2.57,3.29l.78-.64c.95.53.24,1.31.35,1.93.2,1.03,1.18,3.32,1.6,4.85.05.19,1.42,1.15,1.66,1.93.15.47-.16,1.33.04,2.03.18.61.68.52.73.77.26,1.16-.55,2.21,1.39,2.26-.16.5-.14.94.05,1.44.86,2.31,2.64,4.82,3.37,7.58.26.98-.48.84.34,2,.18.25.11.72.24.83.25.22.74.02.94.11.09.04-.14,1.1.28,1.99,1.01,2.16,2.85,1.08,2.61,4.51-.02.21,1.15,3.1,1.45,3.86.17.44,1.27.28-.09,2.1,1.67.75.58.85.78,1.68.28,1.15,1.32,2.11,1.32,2.25,0,.35-.4.69-.17,1.18.39.84,1.11.76.54,2.47l1.75-.7.64,1.24c-.52.4-1.23,1.43-.63,1.93.07.06.97-.86,1.51.46.35.85-.45,1.81.95,2.54l-.7,1.22c1.2.17,1.07,2.79,1.76,3.88l.69-.36c.08.59.08,1.79.34,2.24.35.63,1.6-.41.78,1.24,1.07.14.82.99.82,1.81h1.59s-.04,2.96-.04,2.96l1.45.21c-.62,2.34.99,4.15,1.41,6.34l1.4-1.06c.04,1.2.63,1.85-.34,2.81,1.17-.09.47,1.36,1.08,2.28.26.39.9.5.96.6.09.17-.38,2.34-.28,2.41.11.08.71-.12.97.07.38.27.26,1.88,1.84,1.73-.95,2.02-.23,2.53,1.1,4.02l-.74,1.57,1.07,1.06,1.04-.7c.54.77-.22,3.22-.15,3.52.12.49,1.56,1.6,2.05,2.01.22.18.76.04.86.16.2.24-.05.83.08,1.08.18.35.62.27.68.53.12.49-.03,1.67-.7,1.69.89.45.51,1.5.73,2.02.19.44,1.62,1.29,1.67,1.38.07.14-.54,1.54-.29,2.06h1.41s-.35,1.75-.35,1.75l1.23.34.35,1.79c1.76-2.05-.95-4.03-.18-6.34l-1.05.35c-.19-.12.67-2.75.7-3.02.12-.92-.79-1.74.35-2.44l-.7-.52.7-.35-1.4-.36c-.13-.55.5-.19.69-.6.36-.79.21-3.87-.11-4.53-.22-.45-.95-.41-.96-.69-.01-.44.58-.99.67-1.47.32-1.84.1-4.05.29-5.98.14-1.44-.16-2.91-1.64-3.45-.05-.3.43-.08.57-.29.75-1.13,2.36-8.11-.57-6.93l1.05-2.62c-2.44-.94.17-3.01.23-3.52.06-.54-.41-3.22-1.28-3.18,1.1-.49,1.45-2.36,1.43-3.51-.02-1.06-.81-6.31-.73-6.64.07-.28.66-.2.66-.39,0-1.78-.14-2.13.03-3.91.13-1.39.68-2.73-.71-3.18.97-1.62.25-1.99.08-3.63.37-.39,1.69-.02,1.36-1.1l-1.75-.17c.14-1.56,2.08-5.16,1.67-6.35-.06-.19-.5-.15-.54-.23-.32-.74,1.14-2.35,1.21-3.33.08-1.12-.91-2.18-.88-2.71.04-.62,1.1-1.86,1.31-2.58l-.67-.63.71-3.01h-1.42c-.22-1.11,1.2-2.03,1.25-2.43.08-.64-.85-2.23-.79-3.34,0-.12.37-2.22.41-2.34.22-.75,1.2-1.39,1.26-2.3l-1.05-.9c1.23-1.31.1-2.51.1-2.96,0-.27.59-.55.52-.99-.11-.72-1.48-1.24,1.12-1.67-.65-1.61.6-2.51.38-4.41-.1-.86-.8-.21-.73-.85,1.42.12.8-2.06,1.1-2.42.18-.22,2.11-.11,2.12-1.43l1,.33v-1.41c1.3-.09,1.41.97,1.88,1.29Z"/>
  <path class="cls-1" d="M152.66.65l.21-.65c.61.65,1.16.59,1.94.35v1.06c2.96-1.47,3.64,2.83,5.32,4,.9.62,2.23.37,2.09,2.13,0,.1-1.15.38-.54,1.64,3.24.43,1.56,2.42,2.04,4.03.07.24,1.12.82,1.18.97.34.8-.58,2.4,1.18,2.04l-.32,1.91c.42.69.78.48,1.39.19-.23,2.56-1.15,3.5.67,5.76l-1.02,1.11,1.75.88-.7.52c.9.48.68,1.95.88,2.28.4.69,1.3.5,1.23,1.06-.97-.32-1.16,2.15-1.05,2.58.07.29.66.23.71.48.15.66-.38,1.55-.18,1.9.15.27,1.12.3,1.15,1.27.01.46-.67,1.27-.55,1.7.02.08.89.61.98,1.44,0,.07-1.16.25-.69,1.21l.52-.71.18,1.07.7-.36c.96,2.17-1.26,3.91-.58,5.76.3.82,1.54,1.45,1.29,2.7l.7-.36c.14.43-.36,2.65-.28,2.76.13.17.85.2.96.61.08.29-.56,1.48-.64,2.13-.12.96.44,1.92.52,2.78.19,2.03-.1,4.03.9,6.21.79,1.72.14,1.29.42,2.53.15.66.81,1.17.83,1.47.03.42-.87,1.14-.56,2.05.19.56,1.2.66,1.28,1.09.06.37-.56,1.47-.56,2.15,0,1.05,1.14,2.56,1.29,3.23.13.57-.43,2.19-.2,2.7s.83.47.93.6c.08.1-.47,1.8-.21,2.6.04.11.73,1.42.99,2.03.11.27.69.27.7.47.02.64-.79,1.36-.64,2.34.01.09.65,1.55.72,1.61.26.22.9-.08.97.25.38,1.88-1.46,1.48-1.41,1.76.63.53.29,1.71.44,2.12.07.2,1.26,1.38,1.38,1.74.55,1.59.04,3.19.12,4.48.1,1.49,1.42,2.51.51,4.17l1.39.57c.19.6-.62,2.18-.65,2.8,0,.16.62.12.68.38.15.66-.39,1.59-.19,1.91.13.2.82.2.91.57.15.61-.31,1.38-.26,2.01s.48,4.17.59,4.54c.03.1,1.16,1.28,1.41,1.52l-.35,2.61,1.4-.35c.39,1.33-.78,2.19-.88,3.33-.17,2.01.93,1.85,1.32,3.11.15.49-.13,1.07-.02,1.23.42.6,2.01.9-.06,2.01l1.05.18c.41.41-1.7,5.85,1.41,4.93.15.6-.51.22-.64.39-.09.12.38.66.13,1.02-.17.25-.88.23-.92.55-.09.81.67,3.83.68,4.94,0,.32-.09,2.51-.14,2.63-.19.42-2.66,1.95-2.29,3.15-1.44-.33-1.36-1.47-2.92-.62-.6.32-.51,1.34-1.47.97-1.34-.52.24-2,.17-2.1-1.57-.19.14-3.14-2.46-2.48.35-1.4.58-1.44,1.76-1.94-.64.09-1.24-2.11-1.25-2.46,0-.55.46-1.1.44-1.71-.06-1.61-1.02-3.07.1-4.45h-1.41c.28-.94,1.12-2.39,1.05-3.33-.06-.79-.66-1.09-.84-1.6-.3-.85-.12-1.88-.27-2.55-.25-1.14-2.39-2.21-.99-4.29l-1.27-1.25c.37-.43.56-3.32.5-3.49-.02-.04-.56-.02-.75-.47-.68-1.6.26-3.21-1.65-3.98.69-.29,1.58-2.02.34-2.11v-.71s.71-.69.71-.69l-2.11-1.26c.42-.42,0-1.46.04-1.57.09-.26,1-.03.66-.69-.22-.49-1.63-.27-1.06-2.42.1-.36.83-.12.7-.4-.08-.17-.52-.34-.55-.69-.05-.59.05-3.86-.15-4.07h-1.41c.86-2.13.38-4.27.37-6.46l-1.42-.22.66-4.02c-.27-1.03-2.75.31-1.37-2.31-1.68.95-3.92-.99-5.04-.72-.4.1-.34.89-.82,1.04-.55.18-1.25-.31-1.92-.18-.52.1-.92,1.38-1.75.71-.41-.33-.09-1.14-1.04-.85l-.36,1.41c-.67-.52-.92-1.21-1.96-1.39-1.66-.28-2.32.79-3.12.71-.22-.02-.21-.62-.45-.74-1.26-.65-1.7.34-2.39.34-.59,0-.97-.57-1.62-.52-.61.05-1.57.61-2.45.74-1.23.18-2.06-.47-3.02-.51-1.27-.05-2.57.5-3.83,0l-.7,1c-1.69-1-5.96-.9-7.11.85-.21.32-.07.85-.12.92-.03.04-.55-.33-1.02-.17-.25.08-1.52,1.01-1.61,1.21-.38.86.75,1.46.79,1.61.54,1.89-1.6,3.67-1.55,4.21.02.26.53.64.58,1.09.09.74-.38,1.3-.37,1.72,0,.21.68.17.73.42.25,1.12-1.01,2.26-.96,2.77.03.34.72.65.59.87-.02.03-.52-.09-.71.24-.57.95-1.03,2.48-1.75,3.48,1.23.27.05,1.13,1.06,1.75l-.68.32c.94,1.6-1.11,2.73-1.79,4.26,1.19.22-.02,1.61,1.4,1.59v.34c-.66-.31-2.1,3.48-2.1,3.71,0,.49.94,1.57.35,2.64l1.05.17c-1.57,1.11-1.14,3.16-1.66,4.29-.28.62-1.39,1.39-1.4,1.7,0,.17.45.47.44.7-.02.39-.67,1.01-.4,1.6l1.26.68c-.87.01-2.52,2.22-2.11,2.82l.71-.17c.5,1.5-1.55,2.54-1.68,3.21-.07.35.31.84.2,1.29-.12.48-.82.66-.64,1.31l1.06.7-1.43.58c.08.51.26,1,.26,1.52,0,1.82.45,1.48.45,1.58-.01.63-1.28,1.74-1.21,2.68h-1.55s-.78,2.09-.78,2.09l-2.27-.68-1.39,1.39c-1.46-.31-1.2-2.03-1.57-2.57-.21-.31-.69-.23-.71-.26-.1-.17.44-.63.49-1,.08-.51.16-1.42.2-1.97.04-.46-.92.7-.72-.36,1.02-.28.54-.77.83-1.48.05-.13.58-.12.59-.31.05-.91-1.32-2.15.69-1.92-.3-.66.08-1.31.35-1.93.77-1.77,1.4-.79,0-3.15,1.24-.22.23-1.93.47-2.77.68-2.33.62-2.56.99-4.96.29-1.86,1.24-3.02,1.64-4.35.27-.89-.44-1.55-.44-2.01-.01-1.05,1.73-2.47.18-3.69.21-.01.55-.05.67-.2.93-1.14.89-5.45,1.44-7,.23-.66.53-1.01,1.06-1.44l-1.02-1.37c.11-.45,1.04-.69,1.41-1.09.23-.25,0-.63.09-.82.08-.15.95.08.58-.77h-1.06c-.12-.88,1.08-1.49,1.08-1.59-.03-.5-.58-.79-.65-1.15-.18-.91-.31-3.76.96-3.63.09-.12-.57-1.04-.54-1.55.04-.88,1.97-3.35.56-3.56l.03-1.17,1.03-.02-.32-.9.67-.33-.71-.35,1.06-.54c-.56-1.54-2.16-2.28.35-3.02l-.06-1.14-1.14-.38-.2-.72,1.05-.53-.69-1.06c1.94-.87.98-1.69,1.26-3.02.15-.73.78-1.46.84-2.3.04-.47-.72-3.51-1.4-3.3l2.1-1.93-1.24-.87-.17-.87,2.12-2.22c.14-.56-.24-1.18-.17-1.69.41-3.14,1.28-6.29,1.95-9.48.22-1.06,1.82-2.54-.37-2.31.09-1.07.43-2.8,1.76-2.47.21-.73-.55-1.19-.54-1.78,0-.17.7-3.24.77-3.4.36-.84,1.43.07.12-1.5,1.2.11.91-.99,0-.53-1.06-1.71,1.67-3.51,0-5.1l1.41-.53-1.41-.35c.71-1.24,2.19-1.93,2.31-3.54.07-.89-1.45-2,.51-2.29l-1.06-3.16h1.76c-.21-1.06-.19-2.67.02-3.69.26-1.28,1.44-.8-.36-1.77.12-.81,1.22-1.52,1.36-1.79.48-.95.74-2.07,1.19-3.05.33-.71,1.21-1.05.97-2.02h-1.42c-.24-1.08.66-1.54.69-1.64.08-.31-.34-.94.07-1.65.29-.49.91-.57.95-.64.08-.15-.42-.7-.14-1.35.21-.48,1.99-2.07,2.66-2.13l-1.05-1.4,2.73-.44.49-1.64c1.14.11,1.19-.45,1.38-1.44.7.07,2.83.35,3.29.26.41-.08.69-.77,1.17-.91.79-.24,4.1-.11,4.99.24ZM153.77,9.16c-1.33.53-2.08-1.22-2.69-1.33-.28-.05-3.26.05-3.56.18-1.88.79-.49,2.03-.95,2.58-.36.44-1.69.25-1.79,2.13-1.79-.09-.36.9-.58,1.33-.04.08-1.03.26-1.21,1.09-.09.43.55.77.55,1.25s-1.77,4.07-1.41,4.4l1.06.35c-2.33.06-1.38,1.94-.72,3.38-1.24.26-.29.74-.42,1.14-.04.11-1.36,1.54-1.67,1.66l1.4.87c-1.18.26-2.22,2.69-2.46,3.7s1.74-.12,1.76.87l-1.25,1.39-1.21-.32c-.27.92.98.84,1.07,1.3.14.7-.41,1.5-.01,2.21-1.48-.2-1.33,0-1.75,1.26l.68.33-1.41,1.41.62.23-.27.65,1.41.18c-.62.63-1.03,1.6-1.23,2.45-.28,1.21.11,4.06-.37,5.15-.16.37-.81.65-1.22.69-.14.59.45.21.62.4.07.08-.23.4-.15.57.06.13,1.04-.15.1,1.35-.23.37-1.44,1.11-1.52,1.26s-.03,2.92-.07,3.42l1.38.21c.21,1.29-2.9,3.36-1.98,4.41.42.48,1.32.04,1.26.69-.64.06-1.84,2.04-1.73,2.62l1.37.9c-1.04-.17-.37.5-.47.62-.6.72-1.43.7-1.6.83-.12.09.55,2.73-.74,2.44l1.05.37c.12,1.3-.83,1.06-1.2,1.72-.05.09-.49,1.85-.49,1.95-.08,1.06.91,3.17-.41,3,.93,1.68,1.1-.02,1.26-.04.47-.04.96.39,1.35.39.17,0,.17-.57.7-.78.23-.09,1.96-.3,2.19-.27.55.07.75,1.2,2.41.72l.19-1.08c1.43.69,2.98-.76,4.43-.67.89.05,1.99,2.31,1.93,0,1.44-.09,2.36-.46,2.97,1,.99-.51,3.42-.64,4.6-.64.17,0,.14.51.43.63,1.59.69,2.19-.37,3.45-.36.65,0,.45.71.72.73,2.15.17,3.84-.25,5.94-.52.44-.06.92.2,1.6.05,1.04-.24,1.95-1.2,2.8-1.8l-1.09-1.05,1.1-3.18c-1.23-.26-.43-1.22-.78-1.86-.12-.21-.99-.21-1.27-1.02-.43-1.29.74-3.13.63-3.26-.16-.2-1.15-.12-1.05-1.41l1.05-.53c-.21-.97-3-1.92-.35-3.01v-.34c-1.23.15-.2-1.96-.35-2.97-.05-.36-.98-2.2-1.23-2.32l-.52.7c-.74-2.12.83-1.64.69-3.5l-1.05-.02.7-1.05c-1.87-.45-2.02-3.35-.35-4.23-1.45-.04-.64-1.71-.99-2.68-.19-.52-.74-.5-.78-.74-.1-.59.46-2,.24-2.42s-.76-.41-.85-.58c-.06-.12.22-.4.15-.56-.05-.1-.48-.09-.5-.25-.1-.73.12-1.57.27-2.29l-1.76-.36c-.14-.6.49-.22.62-.39.07-.09-.2-.5-.13-.77.08-.33.47-.64.47-.78,0-.32-.9-.65-.97-1.41-.09-.91.69-2.61.05-3.83l-1.11-.22c.95-1.71-1.49-.76-.21-2.7.1-.14.38-.15.56-.12l-1.02-.74.67-2.07h-1.06s.68-.51.68-.51c-.58-1.03-.51-2.25-.89-3.34-.3-.88-1.6-1.34-.86-2.49l-1.41.35c.05-.66-.38-1.35-.39-1.96s.61-.42.71-.74c.32-1-1.07-1.44-.71-2.54l-1.72-.21v-1.24Z"/>
  <path class="cls-1" d="M298.54,7.75v-1.06c1.1,1.16,3.69.62,4.48.98.9.41.92,1.13,1.36,1.48.98.76,3.01,1.23,1.91,2.83h1.41c-.78,1.62.5,2.6,1.05,4.1.19.52.48,1.92.36,2.24,2.01-.23,1.3,2.44,1.58,3.53.14.56.92,2.63,1.58,2.48-1.8,1.62-.96,3.26-.01,5.12l1.78-.2c.4.86-.57.61-.64.87-.09.33.26,1.63.29,2.13.09,1.59.06,4.71.71,5.89.15.27.42.31.7.27.07.1-1,1.02-.7,2.21.06.23.53.23.59.36.17.38.07.77.24,1.19.08.21,1.02-.08.23,1.16h1.41c.22,1.48-2.45,2.78,0,3.54l-.7,1.75h1.41s-1.06,1.59-1.06,1.59c1.28.6,1.65,3.06,0,3.53l1.75,1.79c.1.53-2,1.97-.34,2.43l-.7.71,1.4.53c.03.82-.66,1.37-.88,2.11-.76,2.62,1.12,1.54,1.52,2.69.44,1.27-.44,3.38-.21,4.16.04.14.97.44.63,1.24l1.76-.35-.65.52.31,1.24h-1.06c.43.67-.05,2.67.07,3.01.07.19.63.13.66.39.17,1.65-.41,4.79.01,6.6.03.13.76.7,1.13,2.25.02.09.57.08.57.24,0,.4-.76,2.23-.66,2.31l1.41-.35c-.22.56-.47,1.15-.56,1.76-.29,2,1.06,3.16.56,5.28l1.04.03c.11,1.11-2.21,2.5-.43,3.22l-.25.63h1.76s-.71,3.88-.71,3.88h1.06s-.31.99-.31.99l1.29.96-.93,2.17,1.01,2.4c-2.44.33.37,1.21.52,2.82.13,1.39-.95,2.85-.87,2.99.05.08,1.33.37,1.3,1.25-.01.46-1.34.89.04.92l-.29,1.02.7-.36.31,4.38,1.45.21-.62.39-.09,4.18,1.77.36c-1.2,2.14-1.66,2.78-.57,5.32.28.65.81.67.83.72.16.37-.8,2.3.43,2.06l-1.05.87c.92.59.58,1.76.94,2.57.11.25,1.51,1.62,1.53,1.73.11.67-.39,1.26-.37,1.66,0,.1,1.01.39.69,1.58l-.99.05-1.1,4.9c-1.75.31-1.17-2.13-2.1-1.14l-.19.81c-1.42.43-1.56-.57-1.75-.64s-.79.22-1.16-.15c-.51-.51-.09-1.55-.33-2.29-.28-.87-1.27-1.57-1.43-2.12-.49-1.69.18-5.13-.06-6.56-.04-.25-.64-.18-.71-.48-.11-.44.14-1.16-.05-1.47s-3.21-.48-.31-2.33l-1.41-.53c-.14-.59.45-.23.63-.4.08-.08-.34-1.7.44-2.23l-.72-.4.29-2.07-1.29-1.42.95-2.05-2.33-3.27.55-2-1.3-1.46c.32-.68.53-1.39.58-2.15.1-1.52-.84-3.53-1.29-4.66-.51-1.3.4-1.69.31-1.82-.02-.03-.56.09-.68-.26-.18-.52-.88-3.2-.97-3.75-.18-1.08,1.23-1.57.04-3.38-.18-.27-.8-.28-.86-.61-.1-.52.5-1.99.33-2.71l-.97-.29-.39-.82,1.04-.55c-.72-1.28-.6-2.44-.35-3.82l-1.4-.38c1.17-1.89-.47-1.72-.67-2.33-.39-1.18,1.1-2.8,1.01-2.93-.06-.08-1.14.09-.69-1.43h-.7s-.22.73-.22.73c-.59-.03-1.15-.21-1.74-.3-.27-.04-.71.29-.82.22-.16-.11-.15-.83-.54-.91-1.06-.21-4.22,1.5-5.7,1.22-.36-.07-.36-.74-.57-.9-.28-.21-2.53.18-2.74.82l.7.52c-1.4.18-4.09-2.9-3.17,0-.31.26-2.84-1-3.35-.94-.69.09-1.86,2.23-2.46-.47l-.4.74-3.5-.27c-.76,1.77-2.77.38-4.21.01-2,2.36-2.2.04-3.5.22-.18.02-.15.66-.42.72-.9.2-1.97-.42-2.94,0l.3.65c-2.1.42-1.54,4.27-.3,5.15-.19.72-1.18,1.09-1.4,1.51-1.08,2.04.54,5.35-2.09,6.64.77,1.15.65,3.28-.74,3.66l1.03.73c-.93,1.79-.52,1.27.24,2.6-1.97,1.91-1.77,3.42-2.25,6.01l1.32.86c-1.69.78-1.43,2.08-1.54,3.54-.03.34-.49.73-.48.87.08.88,1.61.57,1.67,1.23-1.19-.23-1.18,1.14-2.46,1.07.32.79.2,1.84.43,2.55.18.57.98.83.92,1.42-.11,1.26-2.42,2.56-.3,3.24-1.49.31-.63,1.77-.76,2.12-.07.2-.65.14-.68.39-.13,1.06,1.24,1.65-.68,2.43l1.05.34c-.67,2.48-2.26,2.87-2.43,5.69-.08,1.23.05,1.53,1.38,1.54v.34c-1.01-.15-.37.54-.72,1.18-.66,1.2-1.21,2.2-2.8,2l1.4,1.58c-.63.84-1.99.38-2.17,1.51l-.64-.28.35,1.41c-1.56.71-4.8-1.33-5.21-2.71-.16-.53,0-1.13-.1-1.67-.09-.45-.54-.86-.54-1.07-.01-1.44,1.61-1.66,1.64-1.79.1-.36-.07-1.06.07-1.66.16-.69.7-1.63.82-2.24.15-.79-.66-2.44.49-2.24l-1.4-1.05.63-.05c-.36-1.09.15-2.15,1.15-2.62l-.72-1.56c.45.2,1.28-1.55,1.38-1.97.08-.32.56-3.21.56-3.48,0-.59-.56-1.83-.5-1.91.1-.14.79-.09.95-.6.07-.21-.19-.92-.07-1.5.16-.77,1.18-1,1.09-2.42-.04-.64-.44-.93-.54-1.42-.09-.42.3-1.01.24-1.11-.11-.17-1.14-.19-1.01-.89l2.05-4.96-1.01-1.08c.84-1.18,1.21-2.6,1.25-4.19.02-.66-.03-1.79-.87-1.6v-.34c1.49-.21,1.75-1.85,2.12-3.03l-1.06-1.02,1.39-1.09-1.04-1.37,1.75-.88c-1.39-.85-.93-1.73-.45-3.17.87-2.58.87-2.11,1.16-4.72.01-.1,1.42-.6.48-1.28l-1.18-.16c.13-1.28,1-1.61,1.32-2.56,1.32-4,.98-8.66,1.85-12.54.06-.27.71-.25.7-.39-.09-1.17-3.01-2.62,0-3.03-1.01-1.62,1.45-1.3,1.07-2.62-1.64-.58.07-2,.38-2.82.42-1.1.46-1.75-.73-1.76-.1-1.33,1-1.57,1.21-1.94.38-.69.01-1.77.9-2.29l-1.76-1.22c.51-.04,1.97-1.42,2.05-1.66.06-.19.3-2.73.21-2.98-.31-.87-.77-.4-.85-1l2.14-1.28c.02-1.42-.94-2.57.67-3.13-2.01-1.34.28-2.1.54-2.63.47-.95.04-3.44.59-4.71.38-.87,1.31,0,.81-2.19-.08-.33-.63-.69-.53-.85l2.08-1.64c-.84-1.79.33-2.36.6-3.63.11-.52-.24-.98-.21-1.22s1.43-.19.35-1.1c-.03-.03-1.11.47-.7-.33.28-.55,2.81-2.28,2.81-2.47,0-.25-.81-.4-.95-.6-.68-.99.93-1.14,1.21-1.44.37-.4.74-1.78.45-2.35l1.76-.38-.29-1c1.26-.48,1.45-1.45,1.71-2.68l-.72-.54,1.01-.16c-.28-.54.11-1.33.56-1.65.54-.39.96,0,1.07-.03.31-.12,0-1.04,1.05-.33.99-1.19,2.42-.24,1.59-2.76l5.63,1.06ZM298.19,15.5l-2.24-1.02-1.28,1.2.71.34-.42.83-1.35.05.32,1.92-1.03.72.71.52-.64.05.11.68c-1.64-.07-1.04,1.71-2.28,1.75l.7,1.04c-1.13.09-1.92,2.22-1.94,3.2,0,.39.51.93.45,1.51-.07.69-1.09,1.42-1.27,2.25s.52,1.94-.44,2.71c-.49.39-1.18,0-1.36,1.45.75-.19.63,1.66.5,1.93-.32.7-1.43.43-1.69,1.12s.47,1.9-.23,2.73l1.4.35c-1.01-.18-.29.59-.69.87-.3.21-.78.02-1.07.44-.78,1.14.42,2.1.35,2.2-.02.03-.49-.06-.59.09-.35.52.1,2.02-1.16,2.56.91.28,1.12,2.15.65,2.6-.25.24-1.12-.29-1,.39l1.4.35c-1.12-.09-.72,1.4-1.24,2.14-.25.35-.97-.08-1.11.48l-.49,2.47c1.24.26.61,1.73-.34,2.13l.63.23.06,1.16c-.37.72-.8.29-1.39.2.57.97-.16,1.49-.7,2.29,3.09,1.21.64,1.99-.03,4.23-.33,1.1.08,2.5-.07,3.12-.13.57-.87.81-1.13,1.3-.28.55.19,1.98-.53,2.63l1.75.17-.7.51c.53,2.24.65,1.65,1.94,1.79,2.06.22,1.76-.35,3.3-.68,1.64-.35,5.83.82,7.67.72.46-.03,2.35-.23,2.71-.33.5-.14.79-.82,1.1-.87.17-.03,1.55,1.29,2.85,1.28.87-1.84,1.02-.55,1.79-.41,1.17.21.76-.23,2.41.37,1.27.47,3.39-.66,4.6-1.01l.69.75c1.31-1.04,2.36.27,4.05-.37-1.99-1.1-.19-1.86-.14-3,.04-.91-1.7-3.04-.56-4.39h-1.41c-.16-.59.62-.21.71-.53.27-.98-1.17-.74-.71-2.41.21-.76.24.58.33-1.47.14-3.31-1.89-4.4-1.02-7.72-1.51-.52.55-2.43-.15-4.27-.18-.46-.86-.39-.94-.75-.15-.63.34-4.28-.17-5.05-.22-.33-1.16-.56-1.18-.87-.02-.26.61-.93.23-2.47-.47-1.88-1.17-4.65-1.76-6.94-.48-1.87.7-3.16-1.54-3.96l-.06-.72c1.25-.35-.65-1.93.28-3.34-2.24.84-1.03-1.04-1.08-1.96-.04-.68-1.15-1.26-.32-2.27l-1.4-.38c.46-1.91.57-4.02-1.78-4.21,1.21-1.83-1.66-1.81-1.41-3.52l-.35,1.05Z"/>
  <path class="cls-1" d="M84.93,1.21c.48.27,1.33,1.26,2.09,1.27l1.04-1.06c1.19,1.3,2.63-.21,3.53,1.4l.32-.69,4.05.71.03,1.74,1.05-.35c-.08.84.72,1.85.83,2.46s-.24,1.26-.12,1.91c.41,2.22,2.29,5.57-.36,6.72l1.39,1.4c-1.54,1.75.4,3.25.27,4.9-.08,1.04-1.55,3.24-1.62,3.62s.53.73.55,1.01c.06,1.27-2.33,5.37-.22,7.22-1.73.11-.53,1.5-.86,2.3-.18.46-.77.74-.87,1.12-.05.21.76,2.67.65,3.48-.24,1.77-1.15,2.56-.86,4.9.04.35.59.73.53,1.05-.07.36-1.03.4-1.09.77-.06.4.4,1.35.4,2.05s-.32,3.72-.25,3.9c.18.45.75.37.89.69.09.2-.86,3.77-.86,4.22,0,.94,1.24,1.64,1.23,1.75-.05.91-.93,1.3-.99,1.48-.7,2.28.65,4.84.68,7.32.01.92-.9,1.45.3,1.78-1.25,1.66.05,4.45-.09,5.64-.06.52-1.35,1.05.12,1.38l-.69,1.96,1.07.18-1.43,1.48-.64,1.71.96.69-.97,3.14,1.73.56c-1.3,1.47-.75,2.52-1.06,4.23l-.7-.36c-.22.63.58.86.58,1.23,0,.22-.46.52-.47.76-.07,1.13.86,1.25-.72,2.04l.05,2.34,1.26.68c-.5-.18-1.72,2.4-1.75,2.66-.02.17.54.15.69.4.76,1.26-.22,1.21-.63,2.13-.28.64.35,1.43-.78,1.67l1.05.88c-1.03-.08-.81,1.02-1.26,1.75-.3.49-1.28.02-.56,1.38-.55-.08-.98.29-.64.75.1.14.81-.86.7.18-.14,1.3-2.43,2.13-1.1,4.37l-.66.38,1.41.18c-.72.92-.72,1.53-2.11,1.24,1.01,1.94-.91,4.05-.88,5.96,0,.53.51.74.4,1.44-.13.82-.98,1.8-.97,2.77l-1.37.04c.31.73.21,1.46-.7,1.41l.72.85c-.12,1.32-1.1,1.32-1.33,1.68-.06.1.22.42.15.53-.2.32-.98.79-1.11,1.52-.09.54.5.73.5.87s-.87.58-1.16.97c-.97,1.33-.51,2.82-2.35,2.38.04.44.33,1.66.3,1.95-.03.24-.95.02-.32.84-2.04.69-3.19-.67-3.12,2.32-1,.98-1.59-.29-1.78-.17.17,1.21-1.49.63-1.78.86v.89s-2.64-.37-2.64-.37c-.83.07-1.3,2.25-2.98,1.07l.7,1.76c-1.5-.24-1.87.41-2.81-1.05l-.23.72c-.54,0-1.04-.21-1.58-.16-.79.07-4.27.78-4.47.93-.24.18-.25.77-.6.97l-1.06-1.4-.35,1.39-1.53-.42-.06-.98c-3.47,1.1-5.58-.8-8.28-2.46l-.2,1.01c-1.18.15-1.56.26-1.38-1.02-1.72,1.09-2.39-.71-3.1-1.05-.93-.44-4.07.05-4.25-.06-.06-.03-.31-.84-.73-1.2-.56-.48-1.73-.97-2.04-1.31-.59-.68-.06-1.64-1.09-1.03-.53-1.6-2.59-.66-2.54-2.75l-1.75.35c.04-1.62-1.3-2.18-1.94-3.19-.24-.37-.08-1.05-.26-1.31-.21-.31-1.15-.25-1.3-.47-.24-.36.17-1.38-.1-1.68-.07-.08-.58,0-.85-.17-1.06-.69-.54-1.22-.86-2.33l-1.77.2-.36-1.4.72-.38c-.47-1.13-.97-1.21-2.11-.89.03-1.52.31-2.47-.87-3.52l-1.24.7c-.43-.99.7-2.3.62-2.93-.09-.73-1.16-1.28-1.21-1.38-.14-.29.09-1.2-.14-1.76-.13-.31-.69-.29-.67-.43.08-.73.86-1.51.73-2.85-.06-.67-.76-.52-.74-.67.12-.97,1.11-2.42,1.06-4.22,0-.21-1.01-.11-.54-1.08s1.18-.93,1.6-1.49c1.06-1.44,1.38-4.44,3.5-5.38,1.2,1.98,1.44,4.55,3.17,6.16-1.22.61-1.5,4.08.36,3.7l-1.06,1.58c1.64.3.03,2.66.67,3.49.45.58,2.02-.46.04,2.15,2.69-.39.41,1.87.71,2.29l.65-.32c1.01,1.35,1.4,3.61,2.69,4.57.48.35,1.14-.41,1.24,1.38l1.4-.35c.4.51.06,1.96.18,2.14.33.48,1.24-.15.54,1.35.49.21,1.28.47,1.64.82.07.07-.14.44-.02.62.16.24.65.27.77.44s-.37.99.55,1.91c.83.83,1.51.4,2.16.8.75.46,1.53,2.04,1.64,2.11.2.11.71-.26,1.12-.18,1.21.22,1.95.5,2.53,1.63l.35-1.4c1.1.27,1.71,1.4,1.83,1.42.31.05.83-.36,1.19-.2.42.19.51,1.11,1.11,1.36,1.02.42,2.52.15,3.61.95l.33-.7c.89.4,1.49.15,1.26,1.39.98-.34.68-1.03.35-1.76l.69.02c.64,1.36,2.24,1.61,3.71,2.11.3-1.52,3.67.61,3.37-1.77.25-.24,1.89.42,2.22.32.24-.07.21-.6.5-.67,1.64-.37,3.39-.24,5.01-.74l-.29-.63c.53-.56,1.98-.6,2.33-.84.2-.14,2.01-3.41,2.53-3.99s1.84-.22,1.41-1.68c-.11-.35-1.01-.12-.66-1.1l2.09-2.13-.7-.35c.64-1.63,1.81-1.79,2.68-2.98l-.87-1.52c.18-1.51,1.66-1.74,1.97-3,.41-1.67.44-4.67,1.09-6.32.37-.94.68-1.61,1.83-1.51-1.19-1.09.2-2.11-1.41-2.64.16-.49,1.3-1.32,1.33-1.41.11-.36-.26-2.15-.15-2.48.38-1.12.89.36.98-2.82,0-.18.56-.15.62-.42.16-.75.85-4.59.72-5.14-.03-.13-1.12-.66-1.24-1.62-.09-.71,1.42-1.51-.17-1.95.04-.61.98-.89,1.01-.96.04-.1.06-1.44.17-1.8.14-.43.49-.57.58-.94l-1.76-.18,2.1-3.34c-1.43-.19-.8-.98-.74-1.98.03-.41-.26-.83-.25-1.04,0-.1,1.22-.69.95-1.73-.09-.36-1.38-.46-.96-1.79.25-.81.81-1.02.94-1.47.43-1.57.48-1.05.76-1.78,1.1-2.87-.98-2.42-1.07-2.75-.3-1.77,1.8-2.27-.32-3.14.76-1.62,1.95-.11,1.01-2.6l-1.36-.05c-.15-.57.47-.24.58-.41.08-.14-.12-.47,0-.64.19-.27.75-.25.84-.6.5-1.9.2-2.9-1.44-3.83.16-1.01,1.39-1.83,1.44-2.82.06-1.28-1.77-1.81-.36-3.31h-1.06s1.77-3.36,1.77-3.36l-.73-.38.35-4.57-.68-.32c.93-.69.34-2.09.5-3.11.25-1.58.96-3.37,1.27-4.97l-.73-.37.71-.35-1.36-.58.03-1.14,1.33-.57c.15-.58-.5-.19-.63-.51-.11-.28.14-1.52.23-1.92l-.64-.38c2.19-.47,1.14-2.55,1.43-3.66.07-.26.58-.17.62-.39.02-.11-.22-2.21-.31-2.27l-1.38-.37c1.42-.18-.13-1.62,2.11-.71.1-.64-1.08-1.15-1.06-1.22.09-.36.92-1.04.94-1.42s-.81-1.11-.94-2.11c-.11-.86.56-1.8.54-2.11-.07-1.82-.14-1.87,0-3.89.03-.39-1.07-.74.51-1.75-1.22.03-.11-1.73-.35-1.93-.76-.63-1.14.71-1.22.7-.34-.04-1.24-.72-1.77-.87-1.54-.42-2.5-.31-4.04-.17l-.2,1.05-2.28-.72-.35,1.41-.17-.66c-1.65.76-2.02-1.02-3-1.8v1.41c-2.76-.04-4.55-1.11-7.18.38l-.75-1.08-.73,1.43c-2.67-.68-4.92-.8-7.55-.03l.35,1.05c-1.75.2-2.12-1.31-3.72-1.27-.51.01-.96.46-1.39.44-.56-.03-.98-.58-1.34-.52-.45.08-.88.86-1.47.87s-2.64-.8-3.18-1.23c-.67.02-.75,2.25-2.08,2.09-.3-.04-.3-.75-.55-.92-1.19-.78-5.4,1.05-6.89.93-.74-.06-.34-1.03-1.39-.75-.14.04-.13.64-.41.71-2.12.5-2.26-1.08-2.4-1.05-1.35.3-.5,1.6-1.41,1.41-.35-.08-.85-.73-1.26-.86-.52-.16-2.12.12-2.4-.24-.16-.21.09-.91-.11-1.28-.41-.74-2.59-.24-2.17-2.15.18-.81.83-.79.84-.98.03-.49-.42-.88-.19-1.52.17-.46,2.44-2.79,2.82-2.85l1.07,1.08c.95-.65,1.99-.87,3.08-.34.34.16.51,1.76,1.12-.02.68.15,2.93,1.26,3.19,1.27.88.04,2.97-.86,3.52-.9.85-.06,1.62.83,2.13.9.68.08.81-.75,1.16-.91,1.03-.47,2.01,0,2.72-.08.15-.01.57-1.51,2.19-.4.54.37.4,1.11,1.32.83.17-.05.13-.68.42-.72.79-.11,2.97.23,3.08-.67,1.37.21,4.31.55,5.65.31.91-.17,2.25-1.55,2.83-1.62.73-.09.9.92,1.1.95.56.06,1.68-.45,2.42-.55s2.65-.55,2.8-.54.97,1.66,2.31,1.08l-.36-.7c1.76,0,2.19,1.4,4.23.7v-1.4c.6-.08.34.87.92,1.04.35.1,2.85-.4,3.66.01l-.35-1.4c.72-.14,1.08.19,1.62.5Z"/>
  <path class="cls-1" d="M227.4,2.13c1.4-.18,1.59,1.41,1.84,1.65.18.17.67.05.84.2.77.66,1.28,1.9,2.76,2.03l.36-.74,2.49,1.05.5-.68c-.24,1,.7.31.9.67.25.46-.03,1.18.38,1.49.13.1,2.39.64,3.05,1.02s1.81,1.85,2.09,2.05,1.37-.45,2.02-.12c.86.43,1.34,1.67,1.93,2.17.28.24,1.79.83,1.99,1.06,1.28,1.52,2.25,5.34,3.89,6.23.62.34,1.41.41,2.09.57-.81,1.23.56,2.17.36,3.52l1.31.08c.2.95.89,1.66,1.17,2.56.53,1.66-.91,3.95,1.33,4.8l-.3,1.01,1.41-.35-.32,1.6-1.44.17,1.4.91-.35,1.19h1.06c-.93.86-.36,2.03-.59,2.74-.15.45-.8.27-.85.95-.11,1.41.75,2.42.77,3.55.01.57-.91.51-.92,1.53,0,.89,1.65,1.98-.87,2.15l1.04,1.73c-1.95.53-.99,1.63-1.24,2.51-.13.48-1.03,1.08-1.14,1.65-.26,1.32,1.02,1.3-1.48,2.4l.62,1.4c-.17,1.08-2.05,1.69-2.23,1.92-.33.43.87,3.4-1.92,3.19l.34,1.01-3.5,2.16.7.7-2.11.17v1.23c-2.05-.13-1.5.99-1.58,1.08-.48.51-1.59-.06-1.24,1.39l-.39-.66c-1.31.1-1.55,1.03-2.08,2.07-.23.22-.69-1.41-1.4-.7s1,1.25.7,1.4c-.81.48-2.17.03-2.66.12-.13.02-1.67,1.65-2,1.76-.55.18-1.21-.18-1.94.12-.51.21-.7,1.42-2.38.82l.18.7c-2.04-.7-1.66.39-2.61.78-.88.35-2.17,0-2.34.1-.28.16-.48.93-.85,1.26-.56.49-2.71.33-3.14.64-.4.29.09,1.17-.91,1.28-.46.05-.72-.45-1.17-.45-.78,0-3.51.91-3.96.86-.52-.06-1.03-1.61-2.47-.24l-.33-.71-1.59.71.38,1.19c-1.71.64.03,1.77.01,2.14-.03.75-.69,1.22-.67,1.71s.55,1.06.57,1.54c.02.63-.81.82-.64,1.52h1.06c-.19.38-.76,2.03-.66,2.3.09.23.7.12.66.34-.12.59-1.23.97-1.06,1.94l1.41.18-1.41,2.12.71.35c-.71.86-1.21,1.67-1.1,2.84.07.67.72.49.71.66-.13,1.49-.13,2.13-.05,3.64.05.9-.77,1.66.79,1.85l-1.06,1.4,1.05.17-.33,1.38,1.04.74c-.25.74-1.58.8-1.7.94-.07.08-.44,1.93-.38,2.02.1.15,1.02.13,1.27.97.18.61.04,2.66-.59,3.12l1.41.73c.04.76-.61,1.5-.7,2.11-.11.72.24,1.35.15,1.95s-1,1.65-.87,2.59h.71c1.12.9-.5,3.57-.35,3.7h1.41s-1.76,3.35-1.76,3.35l1.05.7c-1.32.81-.76,1.37-.89,2.33-.05.35-.62.84-.51.99.03.05.65.02.99.6.31.52.5,1.81.45,2.42-.06.68-.83.51-.93,1.2-.05.39.69,2.34.51,2.98-.12.44-.85.38-1.02.83-.41,1.09-.12,2.77-.93,4.28-.86,1.62-1.61.51-2.78.54-.69.02-1.21.61-1.93.54l-.18-1.4-.88.7c.77-1.41-.28-2.24-.32-2.97-.04-.58.49-1.3.33-2.08-.06-.3-1.01-.1-.72-1.11.04-.14.63-.12.65-.34.05-.42-.29-1.68-.22-2.43.11-1.19,1.08-4.7-.05-4.82,1.13-1.49-.48-2.15-.28-4.09.16-1.6.19-2.54.29-4.14.05-.79,1.58-3.31-.38-2.66l-.03-1.92,1.08-.54-1.41-.36,1.05-1.23-1.4-.71c-.11-1.2.87-1.69,1.21-2.6.48-1.27-.03-4.03.55-5.32l-1.02-.02c-.53-1.09.19-2.59.18-3.31-.05-3.49-.63-6.04.04-9.09.42-1.9.57-2.51-1.31-3.61-.12-.51.7-.83.89-1.4.16-.47-.18-1.49-.06-1.86s2.06-1.51-.13-1.67l.99-3.28-1.31-.92,1.03-1.78c-1.98-.88.16-2.04.18-2.95s-1.36-2.22.17-2.16l-1.05-.87c2.11-1.01.76-1.52.79-2.4.03-1,2.38-3.36-.79-3.76,1.03-.89.34-1.89.41-2.65,0-.06.21-.21.43-.96.39-1.29,1.27-1.25-.47-2.22.75-1.22-.03-2.66,1.03-3.5l-1.06-1.06c1.41-.41.93-1.3,1.28-1.94.17-.31,1.14-.45.83-1.74l-1.07-.2.07-1.71,1.37-.57c-.52-.65-1.38-2.81-.99-3.45.1-.16.66-.16.88-.58.2-.38-.51-1.89-.54-2.48-.05-.93,1.07-1.37-.75-1.26-.24-1.08.88-1.9.97-2.31.08-.38-.29-1.03-.21-1.62.26-1.91.94-4.79.79-6.68-.08-1.11-.98-.94-.88-1.51.13-.76.86-.95,1.02-1.5.14-.46.18-2.87-.65-2.73,1.66-1.34.36-2.06.33-3.15-.04-1.68,1.16-4.01,1.02-5.66-.06-.74-.93-1.33-.29-2.28h-1.06s1.63-2.28,1.63-2.28c-1.02-1.12-.19-2.06-.22-3.36l-1.05.35c.29-.5,0-1.06.09-1.5.03-.14,1.22-2.36,1.3-2.49.21-.33.7-.21.71-.24.07-.12-1.1-1.04-.26-1.68,1.1-.84,3.78-.03,3.08-3.59l2.42-.76-.31-.65c1.3.15,3.57-.57,4.74-.36.76.13,1,.86,1.42.92,1.48.22,2.65.38,4.15.58,1.2.15,2.47,1.37,2.75-.42ZM220.32,8.48c-.84.42-2.49-.73-2.63-.71-.28.04-.38.8-.59.94-.13.08-.53-.2-.81.09-.65.68.02,2.31-.01,3.52-.03,1-.6,2.7-.89,3.71l.73.35c-1.16.84-1.54,6.24-1.08,6.98.25.41,1.14.6,1.42,1.13-2.39,1.03-.64,3.59-1.6,5.48l.92.87c-1.55,1.66-.5,3.34-.71,4.51-.05.29-.71-.06-.75,1.09-.07,1.8.92,2.03.98,2.48.08.6-.77,1.37-.87,1.86-.11.58.29,1.11.26,1.68-.06,1.24-.82,2.25.71,2.81l-1.05,1.41.71.34-1.07,1.78.72,1.39-1.06.87c1.16-.2.91,1.38.6,2.05-.06.14-.66.18-.85.58-.08.17.22,2.26.25,2.66l.7-.36-.38,2.96.73.39-.99,2.25.64.05c.15.56-.47.25-.57.42-.32.57-.61,1.88.21,2.22l-1.4.53.68.5-.89,2.15c-.11.92,1.51.62.73,2.27-.15.32-.74.58-.79.88-.09.65.85.9.88.96.1.24-.55,1.04.27,1.21l1.25-.04v-.89s2.1.35,2.1.35l-.35-1.05c3.45-.27,4.55,1.19,7.63-1.18.29-.22.39-.91.82-1.14.66-.34,1.24.13,1.78,0,.59-.16,1.06-1.24,2.1-.49l.04-1c.85.11,1.68-.58,2.3-.66.43-.06,1.33.42,1.53.25.06-.05-.02-.95.52-1.45.61-.56,1.47.06,1.78-.01.11-.03.96-1.07,1.69-1.43,1.06-.52,1.95.17,2.01-1.69l1.57.35c.57-.15.22-.96.26-.99.25-.21,1.92-.64,2.29-1.19.44-.65,1.69-3.33,2.32-4.08.39-.46,1.64-.6,1.9-.88.39-.41,2.02-3.1,2.34-3.77.39-.82-.23-1.77,1.28-2.29l-1.05-.18.03-1.19,1.37-.56-.66-.51,1-2.8-1.4-.56c.28-.98.46-1.48,1.41-1.93-1.66-.65-.5-1.38-.47-2.17.03-.61-.24-1.24-.18-1.7.12-.97.83-2.13.65-3.35l-1.05.35c-.65-1.16.34-2.71.17-3.57-.23-1.14-2.22-3.13-1.73-4.9l-1.61-.35.35-1.05-1.06.21c-.68-.47-.39-2.93-1.76-3.58l-1.4.55c-.71-1.61-.12-3.31-2.47-3.17l.35-1.05-.64.29c-.17-.42-1.82-1.72-2.18-1.9-.59-.29-1.07.18-1.23.14-.23-.05-.15-.44-.25-.49-.57-.26-1.11.36-.79-1.22l-.38-.34-1.42.32-.32-.68-.87.7-1.78-2.3c-3.06.52-4.77-2.65-7.87-1.95l-.58-1.39-1.93,1.06-.56-1.74Z"/>
</svg>