<?xml version="1.0" encoding="UTF-8"?><svg id="Layer_2" xmlns="http://www.w3.org/2000/svg" viewBox="0 0 289.48 107.99"><g id="jolof_rice"><path d="M136.2,5.16c.07.04.65.23.76.26.57.12,1.54.17,2.1.3.22.05.93.65.85.14-.03-.21-.32-.42.07-.37.46.11.41.55.69.77.37.3.6.05.9.22.22.13.75.68.98.9.19.18.21.65.46-.02.09.12.27.12.36.23.16.18.81,1.3.89,1.33.1.03.23-.13.37-.08.09.03.9,1.33,1.04,1.49.32.36.57.6,1.01.36l.29,1.73.57-.14c-.2.85.78,1.43.43,2.31h.58c.05.04-.35.66-.36.79-.05.52.52.69-.17,1,.24.4-.27.9.25.8v.14s-.72.29-.72.29l.29.64-.57.24c.07.35-.1.54.28.63l-.29.21.29.14c-.43-.05-.27.44-.47.69-.1.13-.42.19-.57.33-.16.15-1.01,1.08-1.05,1.15-.09.16.15.47.07.58-.03.05-.45.06-.55.17-.02.03.08.2.03.26-.36.51-.74-.15-1.04.18-.04.28-.42.77-.4.99.05.58.47.54.8.79.18.14.22.81.5.06.74.38.26.8,1.13,1.18.4.18,1.29.85,1.6,1.28.15.21.15.47.25.69l.7.02-.14.86c.88-.27.51,1.06.58,1.35.02.06.97.73.14,1.03.17.31.18.43.58.36l-.29.21c.77.74.35,1.31.3,2.22l.57.17-.24,1.22.24.28.58-.07c-.17.34-.07.86-.58.87l.3.23c-.26,1.58.48,3.18.43,4.81l.29-.15c.41.71-.26,1.47-.27,1.94-.01.67.74.86-.02,1.59l.44.43c-.83.1-.49.73-.8,1.22l-.5-.43c-.15.87-.77.31-1.37.55-.07-.16-.49-.45-.52-.51-.12-.25.03-.46-.03-.58-.02-.05-.29-.05-.33-.31s.17-.47.17-.67c-.01-.34-.38-.68-.39-1.71,0-.33-.41-.86.16-.81l-.28-.21.44-1.86-.31-.18.15-.63-.43.14c-.18-.22.87-1.69-.29-1.59l.14-1.44-.44-.08c-.2-.65.31-.67.3-.71-.17-.55-.61-.59-.14-1.51l-.58-.16c.03-.14.15-1.02.12-1.07-.05-.11-.47-.22-.41-.65h.43s0-.44,0-.44h-.72s.43-.72.43-.72l-.58.14c.08-.44.23-1.25-.17-1.54-.04-.03-.72-.04-.94-.37-.13-.19-.2-.97-.43-1.13-.19-.13-.43.03-.53.01-.16-.03.02-.37-.31-.28l-.22.29-.15-.86c-.61.2-1.46.03-1.44-.72l-.41.12c-.05-.43-.7-.03-.75-.69-.63.49-1.37.28-1.92.42-.13.03-.08.28-.1.29-.04.03-.63-.49-.94-.3l-.35.3c-.17-.63-1.06-.46-1.59-.29l.43-.72-.41-.02-.24-.7-.34.35c.15.46.35.85-.02,1.23.7.06.32,1.37.28,1.94-.05.69-.26,1.7-.25,2.45.02.85.57,1.2.34,2.25-.05.21-.3.33-.32.62-.03.39.51,1.02.41,1.9-.06.56-.63.76-.3,1.37l.43-.15-.15.64.3.15c-.28.64-.83,1.08-.66,1.85.09.42.49.7.49.75,0,.13-.19,1.61-.23,1.75-.1.32-.48.08-.15.61l.7.02c-.26.67-.92,1.95-.14,2.38-.25.41-.32.41-.72.58l.29.36c-.19.06-1.07.41-1.12.47-.14.16.19.51-.53.4l-.21-.53-.66-.06c.01-.73-.29-1.08-.93-1.37l.43-.72-.29-.14c.52-.56,0-.83-.08-1.22-.05-.23.28-1.79,0-2.17.6-.38.13-.61-.03-1.13-.12-.38.05-.83-.32-.75v-.14c.48.1.07-.45.24-.83.09-.19.32-.17.31-.24-.02-.33-.09-.97-.42-1.02l.27-.92-.56-.24c.42-.11.16-.22.26-.46.19-.46.69-.61-.11-.98.39-.19.27-.78.37-.94.09-.15.49-.07.31-.65-.1-.32-.11.08-.12-.7,0-.31-.39-.65.13-.68l-.37-.63c.28-.43.62-1.48.12-1.72l.14-.43-.31-.16.3-.72-.3-.14c.31-.45.69-1.06,0-1.3l.43-.65-.58-.15c.08-.79.31-1.4.72-2.09l-.41-.23c.06-.23.12-.55.09-.78,0-.07-.21-.04-.23-.14-.09-.62.7-1.28-.17-1.3.35-.04.81-1.75.72-1.8l-.43-.08c.06-.21.39-.61.4-.75.02-.17-.19-.28-.2-.41-.02-.24.32-1.27.34-1.46.01-.18-.35-.89-.25-1.2-.2.08-.3.29-.29-.07,0-.55.46-.9.29-1.56-.03-.11-.29-.1-.29-.17-.01-.31.56-.79.44-1.22h-.43s.27-.66.27-.66l-.42-.29c.13-.44.17-.84.73-.78l-.26-.36.26-.36-.43-.07c.4-.11.26-.61.43-.94l-.5.28c-.32-.01-.46-1.24.07-1.15l-.26-.16v-.78s.2-.21.2-.21l.49.14.16-.71,1.51.28.15-.3c.65.31,1.58-.11,1.79-.71h.14c0,.07-.02.21.04.24ZM140.89,9.86c-.78-.12-3.44-1.89-4-1.34l.14.43h-.86s-.01-.43-.01-.43c-1.26-.11-.64,1.32-.64,1.95,0,.57-.16,1.55-.21,2.15-.06.64.59,1.29-.16,2.1l.43.07c-.65.72-.19,1.19-.16,1.86.02.38-.2.84-.23,1.14-.04.38.18.81-.18,1.24l.57.37c-1.07.76,0,1.22-.15,2.22l-.57.16.43.29c-.32.71-.52,1.73.58,1.73l.03-.4.38-.06.03-.4c.57-.15.5.76,1.13.27.03-.02-.12-.22.02-.33.42-.34,1.49-.53,2.05-.58.43-.04.92.3,1.06-.2l.36.13.17-.7c.75.09.45-.21.63-.44.16-.2.49-.17.66-.36.12-.14-.04-.36.05-.5.28-.44,1.17-.53.65-1.31l.84-.02.23-1,.52-.22c0-.38-.14-.77-.03-1.14.08-.27.32-.19.32-.42-.01-.56-.33-1.79-.6-2.28-.04-.06-.24-.45-.26-.47-.24-.26-.79-.29-.86-.38-.11-.17-.1-1-.09-1.27l-.66-.06-.14-.81c-.28.07-.64.11-.88-.07-.13-.1.02-.33,0-.35-.19-.12-.48.13-.6-.55Z"/><path d="M94.73,5.67c.12.22-.06.69.05.82l.55.23-.28.5c.2.05.8.57.87.69.09.15,1.06,2.77,1.12,3.04.1.44.04.68.22,1.36.12.45-.39.63.53.55.06.24-.2.09-.25.16-.11.15.34,1.19-.32,1.21l.29.21-.26.02c.16.2-.03.72,0,.78.02.07.55.18.12.86l.28.14-.13.37h.58c.06.24-.21.08-.26.21-.01.03-.04.55-.03.59.03.29.25.18.27.28.03.16-.13.82.03,1.08h-.58c.51.44.23.71.29,1.06.02.11.25.1.26.17.05.26.08,1.05-.04,1.23-.07.1-.35.1-.37.23-.03.21.23.63.16.92l.29-.07c-.29.53-.09,1.18-.14,1.57-.01.12-.41.03-.3.45.52.2.38.33.5.61.01.03.23.04.23.12.02.32-.41.72-.44,1.01-.05.5.58,1.27,0,1.79l.29.14-.43.43.72-.14c.07.34-.35.57-.4.83-.06.29.19.61.12.95-.02.08-.34.09-.37.68-.02.4.2.7.21.94,0,.06-.25.05-.28.16-.17.61.25.66.25.7.18.89.02,1.75-.55,2.46l.31.43-.3.85.29.16c-.12.23-.55.35-.66.51-.18.29-.41,2.21-.55,2.66-.06.18-.29.26-.34.46-.03.11.11.3.09.33-.03.05-.48.06-.64.31-.16.26-.4,1.01-.54,1.33-.16.37-.56.54-.39,1.12l-.7.02c-.08.71-.66,1.05-1.32,1.06v.37c-.4-.02-.77-.12-1.17.01-.12.04-.54.49-.7.56.02-.11.02-.23-.11-.28-.06-.03-1.21-.22-1.33-.23-.25-.02-.35.27-.44.22-.09-.14-.43-.8-.47-.83-.19-.16-.75,0-.69-.47l-.36.43c-.29-.57-.88-.93-.65-1.44l-.27.13c-.02-.47-.56-.69-.7-.88-.03-.04.09-.16.06-.22-.02-.04-.24-.03-.25-.12,0-.14.17-.36.16-.55,0-.09-.25-.08-.34-.27-.19-.37.02-1.04-.02-1.34-.03-.22-.35-.42-.42-.64-.08-.24-.03-1.53-.09-1.59h-.58c-.18-.79,1.08-.79,0-1.38.53-1.12,0-2.32.15-3.52-.03-.04-.61.35-.57,0l.27-.07-.13-.51h.58c.16-.38-.3-.25-.3-.37-.02-.61.55-.47.59-.5.08-.07-.39-1.75-.37-2.09.02-.25.26-.55.31-.89.08-.55-.4-1,.34-1.27-.41-.12-.15-.22-.2-.33-.02-.04-.21-.02-.22-.1s.12-.24.11-.42-.16-.37-.11-.57c.06-.23.78-.79.12-1.05l.13-.34-.27-.15.27-.07c-.29-.37.08-.54.13-.77s0-.53.14-.85c.07-.16.2-.29.32-.41l-.28-.07v-.28c.97-.18-.04-1.01,0-1.14.13-.04.66-.44.68-.48.05-.1-.14-.41-.07-.7.07-.28.36-.27.36-.34,0-.35-.18-.92-.55-1.01.52-.66.1-1.34,1.01-1.59l-.3-.16c.23-.35-.11-.69-.07-.93.04-.3.42-.3.49-.51.18-.53-.03-1.35.06-1.86.01-.07.18-.05.22-.14.03-.06-.09-.32.1-.5.16-.15.43-.13.58-.3.49-.57-.07-.59-.06-.63,0-.32.38-.51.42-.62.12-.32-.05-.92.44-1.27l-.43-.36c.19-.09,1.05-.81,1.08-.87.33-.55-.38-.82.62-1.26.17-.07.4,0,.57-.08.04-.02.65-.57.62-.68l.43.28c.32-.75.74-1.28,1.64-.96.23.08.35.33.57.42.21.08.79.03.93.28ZM92.93,10.5c-.28-.35-.17-.85-.19-1.26-.44.26-.88.08-.85.65l-.59.07c.09.66-.39,1.51-.72,2.09l.29.28c-.19.42-.5.81-.63,1.27-.1.37.19.97-.38.98l.29.43c-.76.12-.18.43-.17.82,0,.25-.32.34-.26.62l.29.14c-1.12-.07-.04,1.26-.18,1.66-.01.04-.44.39-.57.7-.11.26-.49,1.85.02,1.69l-.29.28.3.08c0,.46-.58.83-.59.89-.1.47.27.8.23,1.07-.03.23-.3.27-.31.31-.33.83.06,1.32-.2,2.13l.29-.07c-.09.5.12.62-.43.86l.29.14-.44,1,.3.15-.43.73.43.22-.43.86.43.07-.15.64h-.56s.43.16.43.16l-.29.23.09.64-.52.14c.13.44.13,1.15.72,1.01-.15.51-.62,1-.3,1.52l-.27.12c.48.64.08.9,0,1.31-.02.07.23.04.28.18.13.32.17,1.4.28,1.82l.43.1c.01.61.21,1.03-.27,1.57.11,0,.66.57.68.61.05.09-.3.48.31.57l-.13.55.57-.14c.03.86,1.12,1.03,1.82,1.02.31,0,.59-.3.72-.6s-.09-.51.02-.82c.05-.15,1.19-1.48,1.21-1.58.08-.39-.22-.9,0-1.34l.43.14-.43-.57c.07,0,.21.01.24-.03.61-1.04.47-2.44.63-3.64.03-.26.23-.81.43-1.02-.51-.09-.3-.78.14-.79v-.14c-.58.01-.1-.55-.57-.64l.57-1.81c-.94.17-.14-1.09-.14-1.51,0-.49-.44-.54-.43-.59.31-.4.5-.98.54-1.48.03-.45-.38-.82.19-.98.01-.26-.39-1.08-.41-1.14-.08-.34.27-.88.23-1.16,0-.04-.5-.54-.52-.58-.15-.34.14-.76.55-.65l-.43-.65.29-.14c-.53-.47-.21-1.25-.29-1.72-.06-.31-.41-.56-.28-.95l.44-.08c-.12-.49-.03-1.24-.16-1.69-.16-.53-.16.02-.19-.89-.02-.55-.27-.84.05-1.52h-.72c.46-.56.03-.83,0-1.23-.01-.21.19-.54.13-.62-.05-.06-.68-.33-.81-.5Z"/><path d="M43.36,5.24s.06.3.31.34c.28.04.63-.35.96-.09.04.03.68.69.7.74.15.26.09.61.3.86.29.33,1.83,1.34,2.21,1.61.03.02-.14.33.1.42l.5-.29.15.93-.3.29c.55.66-.22,1.09.39,1.82h.63c-.08.59.27,1.3-.28,1.79.18.38.46.01.57.07.05.03,0,.98-.14,1.14l.57.16c-.13.26-.31.66-.29.95s.27.18.27.27c-.01.36-.08.86-.12,1.23h.43c-.2.67-.48,1.2-.44,1.94.03.58.44,1.16.45,1.6.02.65-.37.55,0,1.54.05.13.28.12.27.17-.02.21-.32.46-.26.84.05.27.39.48.41.76.02.31-.52.94-.44,1.55,0,.03.39.42.4.45.09.48-.56,1.73.04,2.02-.5.45.19.85-.15,1.43l.29.15c-.43.63-.57,1.78-.67,2.52-.06.44.35,1.11.34,1.23-.01.14-.33.27-.37.45-.04.21.21.49.23.73.02.29-.53.71.03.84-.36.32-.4.79-.29,1.23l-.29-.15c-.21.41.32,1.01-.43.87l.43.14c.07.36-.35.8-.37.93-.07.38-.08,1.62-.43,1.95-.21.2-.47.14-.69.43-.3.39-.28,1.39-.32,1.45-.13.21-.62.32-.74.46-.03.04.07.22-.03.33-.12.13-.8.59-.84.67-.03.06.09.21.06.31-.05.16-.28.33-.24.39.04.05.35-.11.29.14l-1.01.15.14.43-.43-.29-.22.43c-.3.08-.31-.39-.37-.43-.05-.03-.46.25-.66.25-.27,0-2.1-.65-2.39-.83-.12-.08-.17-.3-.35-.41-.36-.2-.87-.06-.92-.1-.35-.24.03-.76,0-.8-.02-.02-.33-.04-.48-.14-.34-.25-.32-.7-.97-.15v-1.15s-.43,0-.43,0v-1.01c-.42.32-.81-.25-.91-.63-.09-.33.17-.36.16-.58,0-.13-.64-1.94-.74-2.08-.04-.06-.22-.01-.24-.03-.04-.04.42-.46.29-.72h-.43s.14-.87.14-.87l-.29.15c-.08-.52-.44-1.08,0-1.52-.31-.28-.48,0-.65-.5-.27-.81.46-.92.36-1.59h-.58c-.1-.06.4-1.17.41-1.25.02-.22-.35-.41-.26-.69.07-.21.71-.14.26-1.07-.77.08-.32-.74.17-.6.07-.34-.45-.44-.58-.79l.29-.14-.29-.14c.48-.4.17-.92.21-1.31.02-.17.32-.25.22-.5l-.29.07.15-.94-.29.15c.3-.52-.25-.93-.27-1.38,0-.06.21-.04.26-.18.09-.25.35-.92.31-1.1-.03-.16-.36.01-.3-.23l.43-.22c-.24-.16-.26-.67-.23-.94.05-.42.29-1,.36-1.26.27-.91-.3-1.65.44-1.98l-.43-.43.57-.58c-.8-.25-.32-1.59.29-1.88l-.43-.36.29-.5-.29-.14c.16-.6.76-.55.82-.72.04-.11-.08-.42-.03-.58.06-.19.23-.32.29-.51.31-1.03-.19-1.07.44-2.6.05-.13-.06-.31-.03-.4.09-.25.69-.42.96-.32-.27-.55.2-.56.36-.87.13-.27.05-.62.24-.92s.76-.44.83-.54c.02-.03-.12-.2-.09-.24s.68-.48.74-.5c.35-.15.64.04.66.02.04-.03.54-.7.6-.85.27.4.8.09.97.17ZM44.53,9.83c-.15-.08-.4.13-.56.06-.18-.08-.27-.49-.43-.59-.19-.12-.41.06-.58,0-.18-.07-.26-.44-.57-.35l.22.43c-.45.2-.25.57-.79.29-.02.62-1.34,1.61-.29,2.02v.14c-.23-.11-.83.42-.94.59-.08.13.03.3-.02.43-.06.14-.29.23-.32.38-.06.27.37.56.37.7,0,.08-.57,1.03-.62,1.47-.06.48.25,1.01.14,1.2-.24.41-.37.17-.45,1.05s-.06.27-.29.77c-.18.4.31,1.27.18,1.66-.04.11-.5.77-.64.7-.06.25.22.09.27.15.03.03-.23.55-.21.78.02.19.3.42.31.73,0,.27-.62.58-.52,1.02.02.44.62.04.27.96-.05.12-.23.1-.24.18-.15.8.36,1.41.34,2.02-.04.96-.35,1.38-.17,2.42.22,1.21.14,1.95.27,3.11.02.21.13.84.4.74l-.43.29c-.02.23.24.12.38.35.18.31-.22.41-.23.46-.13.67.56,1.15.44,1.83l-.29.09c-.05.23.39.18.5.42.07.15-.11.41-.07.59.65-.2.47,1.03.71,1.53.11.24.8.86.84.96.07.15-.29.46.3.56l-.13.7.58-.08c.12.52.5.61.72.87.29.33.08.64.94.79l.2-.36.37.08-.07-.29.43.14-.14-.86c.83.09,1.22-.71.43-1.15.15-.03.65-.25.7-.32.06-.09-.11-1.08.74-.99l-.03-.69-.26-.16c.75-.1.31-.6.31-.95,0-.04.44-.21.42-.7l-.3-.08.29-.43-.42-.21c.17-.25.19-.56.29-.83.04-.1.24-.09.27-.21.15-.55.34-1.33.17-1.86-.06-.19-.25-.2-.27-.27-.14-.42.32-1.14.38-1.6l-.28-.13.29-1.08-.43.07c.04-.42.41-.73.45-1.15.04-.48-.36-1.09-.27-1.59,0-.05.47-.18.42-.87-.03-.44-.33-.5-.4-.79s.21-.63.24-.8c0-.07-.28,0-.3-.28-.03-.39.33-1.74.26-1.89-1.08-.31-.11-1.03-.67-1.58.64-.27.04-.67.03-.72-.06-.31.22-.96.21-1.15-.01-.35-.44-.85-.37-1.28l.42-.37c-.46.02-.42-.52-.43-.87l-.57.14.57-1.29c-.18.09-.82-1.04-.84-1.11-.06-.25.24-.65,0-.97l-.45-.09c.1-.19.34-.73.29-.92-.03-.1-.23-.09-.25-.12-.03-.07.11-.3.05-.55-.04-.15-.77-1.24-.83-1.28Z"/><path d="M125.05,55.23l.07-.29h.28c.38.64,1.33.78.65,1.59.67.03.72.44.58,1.01l.72-.14c.06.34-.21.55-.22.88,0,.45.28.83.35,1.23.15.84.24,1.7.29,2.56l.59.09c-.18.47-.45.7-.3,1.22.07.26.26.22.28.29.02.07-.12.37-.09.43.01.04.48.23.28.79h.42c-.19.35-.32.83-.12,1.2.28.51.88.24.12,1.26.49.03.43.42.48.54.02.04.22.04.24.13.06.3-.21.66-.12,1.09.13.65.86,1.59.92,1.82.14.53-.14.85.5,1.1.03.12-.57.7-.1,1.05.2.15.46-.19.4.4-.04.36-.32.09-.29.35l.57-.14c.16.27-.3.95-.27.99,0,.01.21,0,.26.12.24.49-.04.5.58.69.1.38-.23.58-.23.72,0,.13.34,1.01.24,1.37l.43-.15c.29.4-.11.69-.11.8,0,.13.55.37.26.79l.43-.14.15,1.87.58-.14v1.44s.43-.15.43-.15l.44,1.3.43-.36-.43-.29c.11-.14.23-.29.26-.46.34-2.28-.05-4.86-.11-7.18,0-.22.15-.42.28-.58.03-.08-.27-.05-.29-.16-.11-.46.34-.59-.15-.99l.31-.72c-.61-.21.07-1.26.06-1.87,0-.72-.16-1.12-.14-1.87.02-.64-.35-.68-.35-.72.03-.43.46-1.03.4-1.6s.02-.95-.03-1.32c-.05-.4-.3-.65-.26-1.14.03-.35.33-.09.3-.35l-.25-.03-.04-.41h.43c.14-.53-.39-.33-.29-.79.01-.06.26-.05.36-.34.12-.36-.17-.71-.15-.95.07-.72.27-1.68.37-2.46l-.28-.13c.41-.21.12-.86.16-.92.04-.05.32-.09.44-.23.11-.12.27-1,.7-1.46.21-.22.89-.57,1.2-.46.39.14,1.35,1.71,1.39,2.08.03.32-.32.32-.56.35.23.46-.14.51-.24.78-.05.15.12.45.06.68-.06.21-.33.29-.26.54h.43c.28.51-.56,1.18-.57,1.25,0,.05,0,.87,0,.97.03.34.56.55-.15.89l.13.48-.28.09.43.59c-.83.36.13.26.14.42-.46.93-.93,1.64-.57,2.71.04.13.27.11.29.2.05.4-.4,1.58-.29,2.27l.41.3-.4,1.45.42.07c.12.87-.1,1.53-.43,2.31l.58-.14v.71s-.43,0-.43,0c.6.71-.08,1.22,0,2.02h.33c.17-.01.12.24.11.37-.07.56-.53-.04-.44.5h.43c.03.3-.39.94-.38,1.08.01.11.24.23.21.4s-.41.48-.26.82l.29-.15c.06.28-.11.55-.13.82-.04.53-.03,1.91-.08,2.21-.08.51-.65,1.17.21,1.51l-.73,1.16.29.43-.72.72.57.22c-.21.53-.31.66-.87.43v.58c-.35-.12-.84.03-1.18.16-.11.04-.09.2-.23.27-.22.11-.58-.23-.46.44-.1-.07-.49-.41-.51-.44-.1-.16.08-.36.05-.41-.1-.18-.76-.22-.89-.32-.35-.25-.28-.55-.47-.84-.32-.51-.76-.65-.5-1.45l-.4-.03-.03-.41-.28.13-.17-.62.3-.23-.56-.23c.58-.54-.74-1.63-.74-1.73,0-.14.2-.38.14-.47-.1-.15-.74-.09-.42-.74h-.44c.3-.46.23-1.3-.04-1.75-.14-.23-.54-.45-.55-.51-.03-.2.13-.44.12-.58-.04-.32-.36-.54-.11-1.05l-.43.29c-.25-.64.13-1.22-.03-1.92-.06-.28-.33-.53-.44-.85-.09-.26.02-.74-.04-.84-.12-.21-.42-.19-.49-.39-.13-.34-.11-1.98-.29-2.2-.24.12-.4.19-.58-.07-.17-.44.36-.28.27-.56-.07-.22-.39-.55-.48-.83-.19-.59-.26-1.83-.48-2.4-.11-.28-.55-.51-.6-.72-.07-.31.29-.46.25-.66-.02-.11-.22-.24-.23-.35-.04-.42.19-.95-.25-1.33-.3-.1-.32.82-.31.92.02.3.19.32.4.46.02.41-.45.53-.45.58,0,.3.3.63.21,1.24-.06.44-.42,1.06-.43,1.21-.02.36.13,1.42.01,1.87-.05.2-.34.44-.33.58,0,.08.64.62.53,1.31-.05.32-.72.45-.41,1.21l.42.08c-.04.32-.38.52-.42.62-.12.32-.31,1.49.11,1.53l-.26,1.75.28.13c-.45.27-.05.42-.07.66-.13,1.47.04,1.42.15,2.66.02.27-.22.59-.21.87,0,.19.23.31.21.51-.03.32-.39.61-.45.85-.12.47.47.63-.64.73.13.25.19.39-.07.57-.23.05-.32-.27-.5-.34-.12-.05-.29.04-.43-.02-.44-.22-.47-.94-1.02-.36-.32-1.07-.1-2.17-.17-3.25-.04-.49-.76-1.79.17-1.95-.39-.55-.21-1.33-.02-1.94l-.41-.43c.41-.41,1.19-1.58.14-1.52.17-.39.06-.68.58-.58-.3-.25-.12-.49-.18-.68-.01-.04-.21-.04-.23-.11-.05-.26.31-.91-.17-.79l.43-.72-.43-.07.31-1.21.4-.02c-.99-.56.17-1.02-.43-1.66l.43-.36-.43-.07c.07-.31.43-.63.51-.86.14-.4-.05-.87,0-1.16.05-.37.65-.75.07-.86v-.29s.28-.13.28-.13c.03-.27-.42-1.22-.4-1.29.03-.14.29-.25.35-.38.14-.3-.05-.97-.36-1.08.54-.67,1.14-1.7.29-2.3l.58-.51-.29-.21c.7-.41.26-1.14.34-1.73.06-.44.52-.99.24-1.5.43-.07,1.21-.43,1.3-.87l.43.29Z"/><path d="M15.81,5.81c.12.12.12.38.19.54.6-.02,1.29-.35,1.79.15l.15-.3c.24-.03.69.33.86.27.08-.03.05-.23.17-.26.34-.09.88.53,1.29.15l.14.28h1.07s0-.44,0-.44c.48.47.95.14,1.35.19.22.03.43.2.64.22.44.03.94-.05,1.4.04l.15-.44c.1.43.26.15.55.28.09.04.09.27.2.3.05.01,1.03.05,1.05,0,.07-.14-.16-.6.14-.58-.02.45.6.05.79.71l1.07-.59-.12-.26c.45-.18.63-.19,1,.14.09-1.17,1.06-.38,1.5-.42.05,0,.29-.64.81-.3l-.15.57c.93,0,1.11,1.29,1.16,2.02l.43-.14c.05.03-.3.98-.3,1.07,0,.08.27.07.29.18.12.47-.11.97-.14,1.42-.04.49.43.47-.28.93.83.16-.33,1.72.57,1.96l-.29.64.43.14c-1,.27-.05,1.28-.72,1.87l.72-.14c.08.41-.37.71-.39.75-.06.16.07.56-.19.77l.29.15-.15.35h.44c.05.83-1.21.99-.14,1.51l-.27.08c.02.78.33,2.05-.16,2.66l.43.36c-.45-.02-.4.9-.47,1.18-.09.35-.32.85-.38,1.2-.12.78-.08,1.65-.15,2.43l-.44.08c.35.52-.12.74-.12.79-.08.91-.11,1-.29,1.88-.03.17.13.58.09.62-.06.08-.34.07-.39.26-.05.16.13.39.1.54-.03.16-.3.27-.37.48-.11.35,0,1.14-.45,1.58l.27.26c-.16.29-.16.65-.58.66l.3.22c.01.08-.01.17-.03.25-.06.23-.5.94-.65,1.22-.1.19-.29.48-.43.72s-.77.37-.05.69l-1.01.87.43.29c-.78.37-.63,1.01-1.01,1.59-.25.38-1.01.72-1.1,1.07l.38.58c-.5-.24-.64.2-1.01.35-.11.05-.27-.07-.39-.01-.04.02-.74.59-.77.64-.09.14-.03.52-.31.74l-.55-.27v.58c-.75-.14-1.36.31-1.89.79s-.08.67-1.2.36c-.55.65-1.51.21-2.18.07s-.82.18-1.39.3l-.57-.79-.21.43c-.1-.13-.27-.09-.39-.16-.84-.44-1.01-.49-1.86-1.35-.15-.15-.48-.15-.58-.32s-.21-.83-.37-1.05c-.35-.51-.84-1.03-1.15-1.58s0-1.28-.92-1.53l.22-.65-.37-.42h.29s0-.29,0-.29l-.24-.03.06-.23-.25-.1.27-.55-.41-.39.29-.14c-.37-.4-.18-.42.02-.85l.55.13.37-1.15.57.29c-.05-.47,1.02-.21,1.08-.15.01.01-.14.18-.1.25.04.09.28.54.32.61.16.25.59.24.64.31.03.05-.07.98-.04,1.21.04.42.32.55.33.61.13.53,0,1.95.09,2.21.02.07.82.97.93,1.08.07.07.88.76.93.8.38.24.84-.03,1.02.57.3-.16.43-.2.36-.58.48-.02.4.71,1.06.69.44-.13.38-.56.96-.4l.09-.4c.83.06,2.03-.29,2.59-.93.05-.05-.07-.3.27-.54.46-.33,1.39-.3.94-1.15l.86-.51-.43-.5c.42.02.64-.16.74-.56l.27.13c-.09-.71.1-.89.73-1.1l.12-1.15-.28-.13.87-1.01-.3-.14.03-.26c.41-.38.44-.98.7-1.44.06-.11.3-.08.3-.18,0-.2-.23-.4-.27-.61-.14-.71.57-1.51.74-2.22.1-.43-.29-1.24.53-1.13l-.29-.21.58-.43-.57-.29c.42-.6,1.18-.99,1-1.86-.03-.13-.37,0-.29-.44.06-.31.39-.47.4-.58.01-.24-.4-.37-.1-1.12.06-.14.39-.07.28-.62l-.44-.07.16-.49-.3-.15c.43-.45.29-1.08.42-1.59.05-.2.39-.46.29-.63-.01-.02-.24,0-.32-.19-.21-.54.21-1.57.48-2.06l-.29-.13.29-.59-.26-.09.1-.4-.28-.09.44-.29c-.51-.61.02-.67,0-1.28-.03-.71-.56-.46-.58-.6-.14-.42.38-.62.43-.76.03-.09.18-1.45.16-1.53-.03-.15-.35-.04-.3-.16l.29-.36-.37-.29-.34.14v-.29s.27-.06.27-.06c-.3-.51.11-1.01.16-1.52l-.59.06-.14.66c-.49-.49-.95.02-1.38-.01-.22-.02-.38-.28-.57-.28-.35,0-1.16.6-1.58-.02-.88.42-1.79.47-2.67.02v.43s-.43-.14-.43-.14l.07.29c-.77.07-.77-.44-1.29-.73l-.43.44-.72-.44c-.12.26-.2.35-.51.3l.14.43c-1.15-.24-1.4-.92-2.67-.65-.22.05-.38.35-.66.3-.6-.12-.21-.7-.5-.8l-.29.43-.14-.3-.75.2c-.27-.08-.16-.4-.32-.55-.26-.25-1.63-.09-2.18-.87-.13-.19-.12-.49-.14-.51-.11-.1-.58.31-.72-.08.22-.35.25-.52.14-.93l-.29-.07.96-1.09c.38.23.79,0,1.1.04.18.03.37.21.63.25.44.06,1.52-.04,1.75.19Z"/><path d="M52.88,57.51c-.05.07-.27-.03-.25.1.68.46.2.53.17.89s.44.89-.17,1.49h.44c-.19.29-.29.76-.25,1.11.1.91.01.24-.16.87-.02.06-.12,1.12-.12,1.24-.02.72.52.83.52.89,0,.05-.45.63-.14,1.01l-.43.08.43.36c-.63.58-.73,1.31-.4,2.07l.41.02-.29.65.86.36.07-.43c.35.04.79.43.85.43.49-.02.98-.37,1.33-.42.43-.06,1.86-.13,2.34-.12.51,0,1.35.46,1.19-.32l.58.58.64-.43.86.28c.42-.11.23-1.77.27-2.14.03-.34.28-.69.26-.94,0-.1-.33-.09-.38-.36-.11-.55.19-1.92.09-2.37-.03-.12-.32-.08-.3-.16.47-1.18.26-2.53.3-3.89,0-.31-.18-.62-.16-.86.04-.37.62-.47-.14-.66l.3-.78-.44-.3c.44-.79,1.29-1.04,1.81-1.66h.27c.25.51.7.63,1.17.87l-.22.58h.58s-.44,1.15-.44,1.15h.44c-.28.55-.31,1.24-.23,1.83.03.29.11.81.38.83-.78.49-.46,1.1-.55,1.86l.55.3-.58.59c.32.42,0,.95.05,1.26.05.28.62.67-.05.89.32.36,0,.75.44.86-.63.67-.55.91-.25,1.73.03.09.25.07.24.14-.02.16-.29.59-.43.73.49.32.28.83,1.15.65l.17,1.28.41.02c-.04.45-.71.51-.58.94.06.19.47.12.43.36-.68.27-.88-.29-.93-.29-.5.03-.41.66-.51.91-.06.14-.71.17.01.49-.28.42.11,1.17.1,1.28-.02.2-.51.33-.25,1.29.1.37.42.44.44.87s-.6,1.64-.54,2.16c.1.89-.04.54-.07,1.16-.02.36.2.53.24.81.05.37-.16.67-.16.92,0,.35.3.33.34.43.13.36-.4,1.07.32,1.08l-.29.14.29.14c.16.38-.31.82-.29.86.02.02.41.01.4.37-.41.26-.47,1.12-.39,1.55.02.12.55.41.55.46,0,.6-.48.47-.56.61-.53.92-.11,1.27-1.58.91l-.07.43c-.29-.28-.67-.68-.82-1.05-.12-.31,0-.53-.04-.75-.06-.27-.51-.31-.21-.83.07-.13.29-.11.29-.19,0-.18-.22-.3-.23-.42-.02-.21.13-.44.08-.7-.02-.1-.24-.11-.28-.21-.45-1.15.02-1.91-.46-2.99l.31-.29c-.27-.31-.11-.95-.16-1.12-.03-.11-.27-.09-.29-.18-.05-.27.22-.8.44-.99-.55-.14-.06-.65-.07-.95s-.21-.79-.36-1.08l.29-.07-.27-.16.15-.69.41-.02c-.11-.27-.08-.66-.16-.9-.05-.15-.86-.72.16-.69-.25-.39.03-.79,0-1.08s-.28-.35-.36-.52.09-.4-.06-.5c-.05-.03-1.04-.35-1.1-.35-.17,0-.3.2-.43.21-.64.05-1.37-.03-2.02-.08l-.15.44c-.65-.07-1.47-.61-1.87.14-.21-.23-.74-.33-1.01-.25-.07.02-.06.22-.17.24-1.37.25-2.55-.1-2.29,1.89l.52.14-.58,2.3h.58c.05.56-.57.61-.58.66-.06.42.27.97.37,1.36.04.14-.06.31-.05.36.02.09.25.06.27.16.05.4-.52,1.6-.56,2.29-.02.32.19.76,0,1.16.7.41.19.22.1.72-.09.54.24,1.33.24,1.58,0,.1-.25.24-.22.54.08.77.48,1.17.34,2-.07.37-.61.85-.51,1.33l.44.31c-.35.6-.82.05-.86.07-.01,0,.03.16-.05.23-.48.4-.31,0-.49-.08-.34-.14-1.03-.36-1.29-.62-.89-.91-.53-2.97-.19-4.07l-.43.07c0-.31.22-.59.15-.91-.03-.11-.29-.09-.3-.18-.04-.37.68-1.08.57-1.88-.06-.43-1.06-.56-.12-1,0-.3-.43-.58-.44-.86,0-.24.24-.43.26-.6s-.28-.37-.26-.82c.03-.64.82-1.29,0-1.4.28-.26.53-1.63.36-1.87-.07-.11-.35-.1-.38-.24-.11-.58,1.17-1.78-.49-2.35l-.22.57c-.34-.12-.51-.19-.43-.58l-.92.42c-.53-.39-.36-1.15-1.25-1-.09-.7.79-1.45.15-1.95l.36-.22.5.29v-.58c.64-.16.87.41.97.44.25.06,1.41.17,1.56,0,.1-.12.21-1.99.25-2.35.04-.31.31-.56.11-.87-.11-.16-.49,0-.1-.63.06-.09.26-.11.33-.25.16-.32-.49-1.67.2-1.67l-.58-.29c.18-.67.73-.17.52-1.01l-.52-.14c.04-.47.52-.57.43-1.01-.2-.03-.5.13-.43-.22.07-.37.56-.23.38-.91,0-.03-.24-.03-.24-.11,0-.25.04-.48.03-.86,0-.05.41-.28.4-.87l-.26-.07.28-.64-.29-.22c.72-.11.07-1.28.57-1.66l-.43-.07,1.09-1.59c.27.22.87.33,1.07.51.07.07.67,1.21.68,1.31.03.29-.21.59-.18.85.02.22.44.64.18,1.05Z"/><path d="M113.75,5.26c.05.04.04.22.14.22.12,0,1.22-.01,1.29-.03.45-.12.65-.06.84-.11.11-.03.09-.28.18-.29.05,0,.98.17,1.08.21.36.13.21.25.75.43.32.1.56.34.97.23l-.13.51c.49.11-.05.55.42.86-.7.27-.81.68-1.22,1.23l-.44-.29c-.54.89-.77.01-.89,0-.06-.01-1.14-.01-1.28,0-.28.01-.2.34-.48.38-.21.03-1.41-.12-1.45-.06l-.16.71c-.28-.09-1.15-.42-1.37-.42-.06,0-1,.25-1.12.29-.17.06,0,.46-.68.14v.43c-.48.08-.6-.04-.8-.43h-.28c-.28.59-.62.32-1.09.15l-.15.64.3.22c-.41-.05-.17.17-.26.39-.44,1.12-.31,2.65.1,3.73-.65.19-.06.74-.57.85.02.27.4.68.41.72.1.37-.61.95-.41,1.7.05.17.49.16.44.45-.25.35-.2.82-.3,1.13-.03.11-.51.11-.14.73.11.19,1.55.36,1.38-.34.55-.02.84.37,1.43.29.41-.05.6-.43,1.01-.44.28,0,1.14.08,1.31.3l.14-.29c.4.43,1.14.23,1.66.14l-.14-.29c.63.08,1.31-.41,1.73,0-.08-.81.51-1.05.59-.15.62-.17,1.14.15,1.26.79.08.46-.33,1.07.18,1.15l-.53.95-.56-.14c-.37.67-1.39.56-2.08.56-.12.52.17.3.29.57-.33-.04-.75.07-1.06,0-.11-.03-.09-.27-.16-.27-.84.03-.67.57-.73.56l-.86-.44c-.12.58-1.34-.14-1.38.58l-.93-.86c-.52.27-.56.24-.73.72-.27.06-.53-.29-.79-.24-.28.06-.39.35-.52.37-.22.04-.35-.36-.63-.28l.58.5c-.53.44-.28.8-.35,1.23-.1.59-.31,1.39-.37,1.94-.04.42-.16,1.22.29,1.3l-.29.07v.29s.27.07.27.07c0,.62-.39.83-.56,1.37l.72.14c-.27-.02-.2-.08-.23.15-.04.3.05.71-.04,1.09-.14.62-.8,1.79-.16,2.17l-.3,1.21c.2.03.49-.14.43.21-.08.49-.55.34-.57.36-.11.11.32.87.3,1.22-.03.41-.38.61-.39.87-.02.31.42.96.47,1.22.05.29-.23.53-.2.77.02.17.22.37.25.61.11,1.01-.14.7.36,1.5.16.26.3,1.58-.21,1.66l.29.14c-.49.34-.98.32-.87,1.08l-.26-.1c-.06.42-.4.25-.69.11l-.27.28c-.93-.11-.96-1.51-1.81-1.3.02-.78.72-.66.2-1.43-.08-.12-.34-.12-.34-.22,0-.18.39-.76.39-1.04,0-.2-.22-.34-.22-.53,0-.38.14-.66.07-1.14-.11-.8-.52-.46-.54-.62-.11-.61.58-1.13.58-1.44,0-.23-.43-.87-.42-1.43s.4-.68.42-.76c.08-.33-.39-1.5-.26-1.83.09-.26,1.09-.41-.17-.59.63-.25.16-.83.16-1.15,0-.38.31-1.31.42-1.66l-.43-.14c.58-.02.29-.65.43-1.01l-.58-.14c.17.14.48-.68.51-.8.05-.2-.05-.5-.02-.72.08-.46.59-.8-.21-.86.15-.18.04-.51.14-.69.08-.15.72-.19.02-.46.12-.25.04-.61.15-.84s.44-.17.42-.46c-.02-.36-.39-.62-.16-1.08l-.43-.14c.43.07.07-.71.72-.43v-1.15s-.58-.08-.58-.08c.24-.56-.08-1.31.15-1.83.09-.2.41-.15.43-.46.01-.28-.27-.7-.27-1.03,0-.23.2-.42.22-.64.03-.38-.07-.77.05-1.15h-.43c.14-1.05.13-2.03.43-3.03h-.58c.11-.38.05-.83.58-.87-.85-.48.02-1.24,0-2.01-.25-.07-.07.29-.22.3-.28,0-.64-.29-.65-.58l-.29.29v-.27s-.58.13-.58.13c-.25-.29.16-.68.14-.72-.01-.02-.21.03-.26-.07-.03-.07.08-.51-.06-.63-.1-.09-.42.06-.4-.09.09-.7.53-.47.58-.51.12-.11-.41-.82-.14-1.01.37-.26.58.43.65.43.03,0,.44-.3.46-.32.04-.05-.16-.37.33-.48.67-.16.92.36.97.37.28.05.65-.17.98-.16.51.02,1.02.32,1.53.09v-.36s.48.15.48.15c.53-.9,1.05.95,1.76-.06.08-.12.03-.32.07-.36.04-.06,1.26-.12,1.39-.12.2,0,.33.2.52.21.55.03.89-.3,1.39-.11l.22-.57c.1.08.21.13.31.2Z"/><path d="M94.14,64.42c-.23.48-.09.19-.16.69-.09.59-.51.84.35,1.29-.87.59-.13,1.53-.43,2.3.96-.22.14.55.05.89-.12.44.29,1.31-.05,1.77l.71-.02c.28-.72.66-1.43.96-2.14s.39-2.25,1.37-2.31c.06-.29-.26-.36-.26-.62,0-.48.48-.7.62-.97.11-.22-.03-.76.15-1.14.15-.31.52-.35.61-.47.05-.07-.15-.6.02-.78s.45-.16.54-.25.73-.78.74-.84c.06-.17-.36-.59.17-1.21.48-.57.99-1.07,1.39-1.69l.26-1.27.66-.05.36-.66,1.15.28c.34.48.18,1.04.24,1.38.02.1.31,0,.27.28-.06.43-.58.91-.76,1.27-.25.5-.05,1.33-.83,1.26l.29.22c.1.52-1.26.92-.3,1.23v.14c-.21.12-.95.57-1.02.68-.09.14,0,.36-.02.4-.29.55-.32.93-.56,1.39-.78,1.51-1.51,3.14-2.3,4.65-.34.66-.78,1.07-.97,1.42-.08.15.01.37-.08.5-.02.03-.7.18,0,.35.07.61-.48.71-.98.7.31.56-.39,1.15-.42,1.51-.06.79.88.52,1.15.72.19.14,0,.6.54.54l.03.4.57-.29c-.08.75.42.69.71.96.46.43.98,1.41,1.6,1.06-.33.81.62.98.93,1.3.62.64.5,1.31.71,1.97.15.48.9.1.96.4s-.45,1.03.36,1.36c.3.12.19-.21.21-.36.04-.41.04-.82.15-1.22.07-.07.21.16.27.24.16.21.81,1.18.92,1.39.13.26.77,1.77.8,1.94.02.16-.18.28-.19.4-.08,1.02-.12.54-.36,1.04-.16.32-.09.76-.42.98-.47-.08-1.06.06-1.38-.36-.09-.04,0,.51-.5.22l.14-.65-.93-.28c-.09-.35-.49-1.5-.7-1.7-.56-.55-.28-.31-.68-.93-.88-1.34-2.07-2.45-3.06-3.76-.64-.84-.5-.45-.97-.9-.23-.21-.14-.63-.62-.83-.61-.26-1.03.41-1.48-.83-.63-.11-.46.81-.51,1.22-.02.18-.21.33-.22.45,0,.13.35.53-.06.93h.43c-.32.81.3,1.52-.15,2.23.47.11.12.32.2.72.09.51.59,1-.16.96l-.36.89c-.42.1-1.62.06-1.81-.28-.13-.36-.2-.74-.32-1.09-.04-.1-.25-.1-.28-.21-.05-.21.2-.76.12-.88-.11-.16-.89-.32-.12-.68-.47-.62-.11-1.39.08-2.05.06-.19-.25-.29.2-.4-.51-.12-.1-.78-.72-.8l.43-.5-.43-.22.29-.43-.3-.08.44-.72c-.02-.08-1.07-.07,0-.72l-.44-.07c.14-.41-.1-.93.29-1.22l-.29-.14c.28-.21.34-.53.3-.87-.03-.26-.25-.19-.27-.28-.12-.56.24-1.24.16-1.64-.06-.32-.29-.31-.31-.38-.05-.16.38-1.2.38-1.59,0-.34-.5-.63-.47-1.58s.24-.63.42-.93c.07-.11.18-2.15-.22-2.12l.15-.63-.43-.07c.32-1.01.39-1.7.29-2.74-.07-.75-.08-.34-.14-.59-.13-.49.55-1.84-.16-2.15l.44-.86-.43-.22.58-1.36-.59-.3c.08-.38.16-.57.58-.49-.45-.72.61-.81.43-1.59l1.65.72c-.02.61.35,1.24.44,1.81.23,1.56.33,4.12.18,5.6-.01.11-.2.23-.21.42-.01.55.67,1.27.35,1.94Z"/><path d="M194.14,10.95c-.17.16-.8-.11-1.05-.08-.26.03-.47.31-.88.26-.36-.05-.29-.49-.75-.56-.56-.09-1.11.24-1.63.21-.36-.02-.66-.39-1.15-.09l.15.43c-.38.21-.72-.12-1.03-.08-.25.04-.25.34-.37.36-.33.07-.66-.06-1.02.05-.33.1-.8,1.77-.18,1.9-.56.93-.01,2.26-.3,3.32l.44.14c-.07.31-.53.81-.56,1.04-.04.3.26.45.21.62-.07.32-.76.82-.46,1.44l.52.14-.26.16.12.26c-.82-.06-.89,1.4-.43,1.81,0,.08-1.12.43.15.65l-.08.43c.55-.18,1.28-.57,1.8-.29l.15-.72.16.26,1.86.03-.14-.43,1.15.29-.15-.28c.25.02,1.23-.28,1.37-.23.07.03.78.43.8.48.09.17-.01.45.05.58.03.06.48.32.5.4.04.16-.23.66.03.93h-.58s.16.48.16.48c-.38.33-.63.63-1.15.73-.75.15-.93.13-1.75.44-.23.09-.55-.2-.58.36h-.14c-.15-.75-1.68-.19-2.31-.29l.15.29-.49-.1-1.39.46.28.28c-.53.61-1.07,1.37-.15,1.89.09.37-.43.53-.42.56.02.07.18.19.21.35.05.25-.24.39.22.51l-.58,1.45c.41.12.15.24.2.33.02.04.24.02.24.11.01.25-.43.5-.44.88,0,.27.2.42.25.69.06.37-.22.67-.22.88,0,.38.2.92.22,1.37.01.29-.2.62-.18.8.04.37.64.63.72.83.1.27.15,1.49.24,1.88.02.1.21.07.28.21.05.1-.05.38.02.45.17.19,1.32.02,1.36.59h.2c-.04-.43.37-.21.55-.33.34-.23.74-1.04.8-1.08.11-.07.36-.02.53-.11.6-.31.27-.75.3-.78.17-.18,1.92.1,2,.17.22.2.27.75-.13.77.62.7-.4,1.39.15,1.94-.08.12-1.19.58-1.38.72-.23.17-.73.8-1.04,1.02-.4.28-1.18.25-1.05.86-.31-.22-.68-.3-1.04-.14-.15.07-.08.38-.32.28-.11-.05-.22-.28-.36-.34-.28-.11-.77.08-.73-.38l-.36.43c-.39-.15-.29-.7-.39-.83-.04-.05-1.07-.46-1.25-.63l.13-.27h-.72c.32-.87-.28-1.07-.55-1.54-.29-.5-.56-1.76-.64-1.88-.16-.24-.9-.32.02-.82l-.15-.79h-.41c.14-.62.56-1.54-.29-1.74l.27-.21c0-.28-.26-.65-.26-.87,0-.08.12-1.57.16-1.64.03-.05.28-.04.38-.26.2-.45.29-1.08-.23-1.29l.26-3.29-.29-.23c.45.05.39-.67.38-1-.02-.44-.41-2.42-.36-2.54s.28-.11.36-.28c.08-.16-.17-1.19-.06-1.44.09-.2.32-.18.37-.26.03-.04-.07-.71.17-.91v-.22s-.44,0-.44,0c.21-.37.19-.8.3-1.19.03-.11.27-.11.28-.19.01-.27-.32-.99-.26-1.31.08-.41.52-.4-.03-.55l.3-.58-.3-.14c.26-.39.37-.79.16-1.22l.27-.08-.29-.14c.1-.51.47-.57.55-.69.08-.13-.2-.96.31-1.19l-.42.07-.44-.94s.37-.14.43-.43c.08-.43-.46-.03-.43-.36.61.06-.22-.51.44-.67-.17-.8.29-1.69.14-2.5l.68-.39c-.29-.27.33-.56.58-.6.26-.04.39.37.56.4s.33-.27.54-.26c.24.02.47.41.74.41.48,0,.68-.34.87-.7.32-.06,1.1.26,1.28.26.47.01,1.11-.41,1.18-.43.25-.05.55.15.83.14.58-.03,1.39-.26,1.97-.21s2.46.89,2.67,1.38c-.43.67-.03.52.14.87.3.63-.43.6-.65.8-.17.15-.11.43-.16.48Z"/><path d="M19.21,50.72c.09.09,1.14.57,1.22.8.11.32-.18.86.05,1.25l.56.02-.29.79.58.08c-.38.53.15,1.85-.43,1.88v.14c.88.12-.12,1.21.7,1.32-.23.32-.03.66-.06.92-.02.15-.22.31-.23.58,0,.06.49.71.43,1.11-.03.24-.34.52-.39.79-.06.34.11.58.08.81-.02.19-.26.38-.25.6,0,.29.56.8.56.85,0,.13-.04.91-.06.95-.07.17-.39.26-.44.49,0,.04.02.86.03.91.06.18.34.17.34.26.01.2-.42,1.19-.41,1.41.02.83,0,.67-.09,1.52-.06.53-.02,1.09-.1,1.5-.03.14-.37.95-.55.83v.14c.37-.05.3.19.29.51l-.44.07c.34.53-.11.83-.24,1.25-.04.13.14.34.08.45-.02.03-.35.17-.52.44-.15.25-.04.45-.12.59-.11.21-.8.95-.76,1.21.03.16.37.55.48.82.08.2.21.86.28,1.08.16.49.44.89.36,1.52l.29-.15c.07.44.04,1.11.29,1.49.11.17.52.03.44.39l.28-.29c0,1.09,1.49.47,2.02,1.09.38.45-.71,1.38.43,1.36-.26.57-.64.39-.89.47s-1.33.53-1.48.53c-.36,0-.51-.49-.94,0,0-.58-.95-.48-1.26-.76-.25-.23-.22-.89-.34-1.15-.07-.14-.24-.14-.32-.29-.33-.67-.53-1.94-1.4-1.55l.14-.57c-.15.03-.27-.11-.38-.13-.25-.05-.42.76-.65.92-.21.31.08.81-.2,1.1-.18.18-.38.02-.51.09-.82.44-.36.56-.5.77-.02.04-.58.57-.62.6-.14.09-.3,0-.44.04-.03,0-.03.23-.12.24-.26.04-.72-.22-1.03-.26s-.68.19-1.04-.04c.22-.46-.12-.76-.14-1.08-.03-.48.55-1.71,1.13-1.25.02-.18.55-.68.59-.79.08-.23-.27-.93.59-.63v-1.01s.58,0,.58,0c.07-.07-.02-.95.08-1.14.16-.3.52-.35.66-.55.04-.06.39-1.23.39-1.29,0-.27-.28-.39-.33-.6-.04-.19.1-.51.07-.8-.03-.33-.46-.42,0-.94-.67-.05-.32-.66-.46-1.07-.07-.21-.51-.23-.53-.63-.02-.31.2-.4.21-.55,0-.06-.29-.5-.09-.79l-.29.15c-.19-.3.07-.52.08-.65.01-.89-.11-1.41-.17-2.31-.05-.73.23-1.34.08-2.15-.09-.49-.6-.57.11-1.16-.08-.35-.18-.42-.54-.37l.1-.25-.26-.24c.12-.39.39-.86.29-1.28-.02-.11-.23-.08-.25-.16-.1-.43.38-1.33.41-1.73.14-1.52-.04-3.33.2-4.9.08-.53.39-1.9,1.09-1.8v-.28s-.43-.22-.43-.22c.21-.49.68-.2.71-.22.03-.02.1-.54.23-.71.26-.33,1.11-.43,1.25-.99l1.85.04c.25.11.21.49.32.61ZM18,53.51h-.42c-.11.21-.03.52-.1.71-.28.81-.78,1.99-.98,2.87-.01.05-.07.9-.06.95.03.16.32.19.42.33.41.59-.59,2.9-.37,3.22.07.1.31.09.35.21.02.08-.19.62-.12.79h.43c-.59.89.08,1.78.01,2.67-.02.29-.32.14-.32.42.01.59.37,1.31.16,1.96h.43c.04.3-.45.64-.44.78.03.39.35.66.41.92s-.26,1.62.1,1.61l.33-.2c-.43-.89.17-1.41.46-2.17l-.43-.36c.39.07.17-.21.23-.29.12-.15.36-.19.43-.29.08-.13-.18-.77.21-1.08-.77-.37-.18-.33-.08-.78.01-.05.05-.69.05-.82,0-.05-.19-.06-.16-.86.02-.44-.15-.78.19-1.29l-.31-.29c-.03-.28.28-.49.29-.72.03-.58-.59-2.51-.51-2.79,0-.02.21-.03.23-.13.06-.26-.02-.56.01-.83l-.44-.08c.85-.9.24-1.18.14-2.21l.29-.24c-.46.05-.42-.56,0-.65l-.45-1.36Z"/><path d="M176.85,7.36s.42-.16.72-.09c.57.14.26.48.3.57.06.12.22.11.26.21.43.97-.82,1.96-1.68,2.16-.16.04-.88.17-.9-.11.32.01,1.17.11.93-.44-.31.15-.93.16-1.19.25-.17.06-.18.27-.21.28-.37.13-.91.3-1.26.19.25.69-.17,1.03-.86.72-.23.37-.2.85-.31,1.19-.04.13-.45.14-.14.61l-.43.07.43.43c-1.24.14-1.08.93-1.33,1.81-.03.1-.4-.05-.11.5l-.72.36.43.36c-.89.32-1.21,1.28-1.41,2.14-.11.46-.16,2.06-.26,2.34-.33.97-.88,1.82-.98,2.74-.05.44-.43.5.2.94l-.58.3c-.05.54.37.75.4.86.17.52-.78,2,.18,1.8,0,.57-.4.67-.49,1.13-.15.78.32.97.32,1.23,0,.34-1.02.74-.41,1.68l.28-.15c.02.34-.16.79.29.72l-.43.14c-.08.65.45-.16.44.36s-.35,1.26-.39,1.75.27,1-.05,1.49h.41c.14.16.03,1.08.07,1.23.05.18.32.16.36.23.02.04-.15.72-.11.9.03.1.44.18.42.61l-.43.42.72.59c.03.15-.23.31-.24.42-.01.12.91,1.44,1.11,1.58.65.44.64-.1.93-.07l.08.43.37-.13c.09.45.88.17,1.31.15.4-.02.81.06,1.21.06.01-.86.6-.7,1.08-1.08.23-.18.47-.79.72-.72.11.35.59.51.72.72.14.25.26,1.12.4,1.26.1.1.46.04.53.27.17.56-1.26,1.25-.14,1.5-.3.8-1.39-.12-1.3.86l-.29-.15v.42c-.31-.1-.49.14-.79.17-.17.02-.45-.17-.49-.14-.05.03-.04.33-.25.4-.65.23-1.57-.82-1.71.3-.54-.09-.8-.84-1.43-.72-.1.02-.08.27-.18.29-.5.13-1.21-.81-1.68-1.04-.33-.16-.92-.2-1.07-.3-.43-.28-.93-1.58-1.2-2.01-.17-.27-.7-.44-.72-.5-.12-.29,0-.9-.02-.98-.05-.17-.77-.67-.78-1.22,0-.39.2-.51.22-.87l-.72.29v-.63s.29-.16.29-.16c-.99-.63.42-1.44-.58-1.66l.42-1.07c-.93-.48-.19-1.74-.26-2.61-.02-.28-.25-.2-.28-.29-.07-.2.36-.85.26-.94h-.43s.29-.36.29-.36c-.58-.17-.07-.85-.05-1.18.05-.67-.17-1.26.2-1.99l-.43-.14c.06-.43.54-.51.43-.94h-.43s.16-.67.12-.8-.33.03-.26-.21l.43-.08-.29-.36.86-.58-.3-.09.16-.63-.29.15c-.14-.39.17-.68.22-.94.03-.15-.12-.37-.06-.56.09-.29.67-.08.27-.73l.44-.59-.29-.14c.44-.44.44-1.14.44-1.73l-.44-.15c.3-.68,1.67-1.07.58-1.59.05-.27.47-.44.52-.54.22-.37.21-1.11.44-1.51.34-.59.89-.57.83-1.65-.04-.68-.51-.83.51-1.28l-.43-.43c.47-.26.53-.5,1.15-.44-.07-.25-.15-.75-.05-.97.12-.27.63-.12.77-.83.03-.18-.49.08-.43-.21.27-.32.89-.24.99-.31.06-.04.51-1.02.59-1.18s.44-.06.15-.66h.86s0-.73,0-.73c.87.23,1.08-.42,1.87-.43l-.29-.29c.37.02.79.1,1.15.09.53-.02.71-.01,1.23,0,.09,0,.21-.19.36-.16.5.1.53.76.58.8Z"/><path d="M55.76,5.69c.18.09.43.81.63-.05.93.31-.22,1.95,1.01,1.59-.3.47.27.74.27.78.02.8-.55.64-.56.73-.15.73.3.65.3.72l-.29.21.43.07c-.12.28-.56.59-.58.87-.03.3.36.86.29,1.13-.04.13-.36-.04-.19.68.15.64.61.72.33,1.34l.29.16-.72.71.27.72-.4.24c.12.23.07.53.14.74.04.13.22.11.24.18.11.32-.26.71-.27,1.01-.01.26.25.19.28.28.15.41-.51.64-.53.72-.02.09.22.68,0,.92.99.38.03.69,0,.81-.04.17.18,1.25.2,1.5.01.24-.45.67.21.73v.14c-.71.02.08.79-.15,1.01h.44c-.1.57-.68,1.15-.72,1.68-.07.98.86,1.92-.15,2.87.56.11.05.89.06,1.15,0,.1.18.24.19.49.03.67-.4.76-.4.81.01.22.38.42.15.79l.29-.15c.03.43.08.82-.43.88-.03.25.4.44.42.52.17.67-.28.63-.29.71-.08.45.07.55-.11,1.31-.07.31.33.43-.17.54l.58.22c.02.31-.56.58-.59.67-.13.6,1.2,1.97,0,1.92l.29,1.3.43-.14v1.35c.58.2.7.99.89,1.21.04.05,1.08.06,1.27.34l-.14.41c.43.12.19-.49.65-.29.15.06.18.37.24.41.08.05.42-.1.62-.08.23.02.54.24.66.18.05-.03.82-.83.57-.95.81.02,1.92.35,1.44-.87,1.15,0,2.59-.42,3.44.66.08.47-.38.62-.47.9-.08.24.06.69.04.72-.02.03-.34.15-.48.3-.84.92-.47.42-1.34.83-.48.23-.83.59-1.62.84-.41.13-.86-.22-1.15.58l.29.21c-.64.18-.82.18-1.3-.29l-.13.56.27.16c-.34-.03-.73.06-1.05,0-.02,0-.31-.17-.35-.19-.06-.03,0-.35-.4-.24l-.21.29c0-.45-.67-.21-.6-.85l-.7.13v-.44c-.54.36-.91-.05-1.25-.47-.05-.06.09-.25-.05-.33-.19-.11-.34.08-.41.05-.44-.23-.61-1.83-1.13-2.03l-.62-1.54-.29.15c-.06-.45.16-.9,0-1.33s-.4-1.19-.38-1.84c.02-.49.61-1.06-.48-1.16l.72-.72c-.27-.58-.63-.96-.56-1.64.04-.42.6-1.17-.02-1.31.4-.04.48-1,.44-1.28-.02-.12-.37-.06-.3-.3l.41-.88-.54-.36c.23-.28.2-.61.3-.89.04-.12.25-.11.27-.21.08-.35-.09-.72-.09-1.06s.17-.74.1-1.05c-.04-.17-.36,0-.29-.23l.27-.07-.13-.28.29-.09-.29-.14.28-.2c-.11-.15-.29-.93-.24-1.03.09-.17.31-.17.37-.24.07-.1-.09-.38-.07-.55.07-.5.49-.63-.34-1.08.41-.29.27-.69.33-.91,0-.03.24-.03.25-.1.03-.29-.21-.41-.25-.6-.03-.15.15-.37.09-.46-.08-.13-.69-.08-.27-.64.1-.13.34-.03.29-.24l-.43-.07c.16-.74.7-.27.65-1.16-.03-.47-.74-.29-.07-.86-.65-.21-.04-.67-.03-.72.15-.74-.24-.83-.25-.88-.02-.14.15-.62.12-.84l.6-.09c-.63-.53-.12-1.72-.72-2.08.93-1.14-.03-1.8-.11-2.77-.02-.25.29-.6.36-.96.12-.61-.37-1.34-.36-1.59,0-.06.27-1.11.29-1.17.08-.21.35-.2.38-.25.02-.03-.15-.06.15-.53.09-.13.08-.34.22-.48.17-.16.96-.04,1.19.07Z"/><path d="M68.83,6.46c.3.26.71-.03.82.04-.21.67,1,1.14,1.02,1.23.17.57-.44.62-.45.73-.01.13.16.53.16.85-.01.8-.11,1.59-.15,2.38l.58-.07-.28.13c.26.58.15,1.26-.03,1.85-.02.08-.59.38,0,.6l-.28.95h.43c-.34.51-.53,1.18-.42,1.78,0,.05.55.36-.01.89l.3.16c-.29.62.2,1.46-.15,1.98-.08.12-.28.09-.29.1-.03.05.34.63.26,1.08-.07.4-.59.66.03.87l-.15.35h.58c-.43.56-.16,1.19-.25,1.83-.09.59-.61,1.7-.32,2.25.13.25.53.66.5,1.18-.05.8-.33,1.82-.36,2.67h.44c-.23.3.08.51.07.74,0,.4-.32.42-.34.49-.04.12.17.95-.02,1.21.82-.14.66,1.23.14,1.31v.14c.75-.11.98,1.35.29,1.51.64.43.22.52.2.93s.06.79-.06,1.16l.43.07-.52.95.12.25c.6.06.42.49.81.63l-.26.89c.47.33.82.8.88,1.38h.99s0,.45,0,.45c.42-.27.65.09.91.11.31.02,1.18.04,1.45.02.21-.01,2.25-.9,2.36-1.03.18-.21-.24-.57.47-.25l-.29-.72c.42.07.93.1,1.34.2.3.07.44.53.6-.05.77.49.61,1.23.92,1.98l-.43.42c.34.55-.15,1.2-.49.49-.44.55-.47.85-1.23.58.33.32-.59,1.11-.87,1.21s-2.53.75-2.67.75c-.06,0-1.07-.12-1.13-.14-.54-.15-1.1-.9-1.61-.1-.05,0-.76-.64-.84-.68-.13-.06-.31.07-.5,0-.25-.08-.41-.7-.84-.61-.21-.74-.08-.27-.52-.37-.35-.08-.57-.64-.84-.88l.28-.48c-.8-.05-.45-.35-.61-.75-.12-.3-.45-.47-.26-.83h-.43s.29-.87.29-.87l-.55-.17c-.07-.55.2-1.42-.02-1.92-.06-.14-.28.13-.39-.15-.2-.51.4-1.82-.33-2.02l.43-.58-.29-.14c.52-.32.13-.7.16-1.02s.59-1-.3-.93l.29-.79-.31-.29c.06-.26.36-.9.28-1.16-.02-.07-.21-.06-.25-.19-.11-.32.02-.65-.02-.81-.03-.13-.42,0-.14-.71.03-.08.22-.09.25-.14.04-.07-.23-.22.19-.33l-.41-.23c.3-.42-.1-.6-.14-.81-.05-.25.34-.35.38-.56.1-.52-.19-1.2-.69-1.43,1.02-.48.17-1.07.16-1.15,0-.27.33-.57-.17-.87l.28-.13-.14-.57.29-.09v-.28c-.71-.08.11-1.08.08-1.67-.02-.33-.5-.4-.35-.83.07-.2.46.07.12-.85-.04-.1-.22-.1-.24-.18-.09-.27.73-1.15.55-1.85-.04-.14-.45.03-.13-.58-.71-.29.08-.73,0-1.03l-.29-.14.26-.09c-.13-.32.06-.63.05-.92,0-.27-.3-.19-.31-.3-.03-.24.16-.64.3-.85l-.29-.14c.53-.5-.14-1.24.44-1.44-.63-.64-.17-1.68-.16-2.46,0-.07-.22-.06-.26-.17-.29-.81.13-1.39.43-2.13l-.29-.14,1.39-1.07.2.06c.08.09.1.26.18.32Z"/><path d="M110.77,55.52c-.06.93,2.01.83,2.38.15.54.06.83.57.89.58.33.04.87-.42,1.29-.38.24.02.38.27.6.33.24.06.71-.11.95-.05.26.07,1.25.51,1.26.74,0,.15-.35,1.14-.44,1.27-.41.61-1.52.21-2.21.68-.13.09-.1.28-.11.28-.05.03-.33-.2-.52-.23-.64-.1-.88.2-1.27.22-.31.01-.88-.26-1.17-.21-.12.02-1.1.65-1.37.74-.1.55.94.45.15,1.15l.29.14-.45.58c-.07.61.54.47.16,1.23l.44.08c-.07,1.33-.84,2.61-.28,3.9l-.32,1,.29.27-.12.65c.45.05,1.23.44,1.63.4.29-.03.66-.4.96-.47s.66.05,1,.01c.2-.02.39-.24.5-.21.15.03.25.38.37.51s.39.2.41.23c.04.08-.37.58.46.57.05.77-.5.66-.59.8-.09.12.02.41-.02.46-.03.04-.91.51-.97.53-.24.06-.38-.2-.62-.18-.29.02-.61.4-.89.47-.77.2-1.93-.37-2.46.57-.16.36.18.38.19.44.06.34-.28,1.9-.22,2.03.1.19.4.17.4.29,0,.19-.23.39-.26.59-.03.29.17.79.18,1.14,0,.58-.16,1.17-.21,1.73,0,.06.31.06.35.33.04.25-.17.51-.17.79,0,.29.08,2.05.12,2.19.01.05.63.43.41.94.56-.03.83-.22,1.23-.58l-.22-.43.88-.22.2-.94.58-.02,1.01-.55.14.29.58-.43c.42.47.11,1.11.79,1.37l-.43.36c-.06.24.2.09.26.16.03.03-.07.69-.12.77-.14.22-.35.11-.42.18-.53.47-.77.91-1.15,1.41-.23.3-.82.69-.58.94-.84-.13-1.31.68-1.7.87-.31.14-.66-.13-.61.29l-.5-.43c-.38-.1-.14.34-.22.43-1.17-.07-.99-.61-1.49-1.24-.2-.25-.85-.56-.94-1.03-.04-.23.12-.4.12-.53,0-.1-.24-.07-.26-.15-.19-.78-.13-2.38-.35-2.86-.09-.2-.33-.21-.37-.31-.16-.39.27-1.59.24-2.03,0-.13-.24-1.05-.4-.99.34-.48,0-1.18.05-1.6.02-.15.28-.27.22-.35-.02-.02-.21.02-.24-.03-.05-.08.22-.22-.19-.33.64-.65-.66-1.13.58-1.44.02-.14-.19-.03-.26-.09-.11-.12-.02-.81-.07-1.02-.1-.43-.39-.61-.41-1.19-.02-.63.21-1.44.45-2.02l-.43-.14c.09-.23.35-.55.4-.76.11-.47-.02-1.37.03-1.82s.54-.62,0-.73v-.29s.43-.29.43-.29c-.42-.26-.16-.54-.2-.85-.01-.11-.16-.2-.16-.39,0-.45.06-.94.36-1.29h-.43c.13-.27-.04-.73,0-.91.03-.12.25-.11.28-.21.14-.45.2-.95-.29-1.14-.11-.45.35-.75.38-.98.01-.11-.11-1.61-.14-1.85-.02-.14-.24-.28-.22-.44.42-.68.95-.82,1.61-1.11.11-.05.11-.23.18-.25.11-.03.56.19.79-.03Z"/><path d="M41.23,52.91l.08-.28.36.44c.37.15.27-.27.36-.29.53-.14.3.25.46.55.19.34.42.19.33.96-.03.27-.4.46-.15.8-.62.15-1.69.81-2.07,1.31-.04.06-.54.8-.62.87-.12.11-.86.37-.91.44l.14.47c-.42.14-.39.52-.59.73s-.87.41-1.1.7c-.21.26-.23.74-.36.99-.41.8-.88,1.57-1.37,2.41-.21.37-.9.86-.2,1.09l-.99,1.18v.26c1.11.55-.11,1.23-.27,1.62-.05.11-.21,1.01-.18,1.06l.29-.15c.24.84-.27.82-.41,1.03-.03.04.34.71-.16.92l.43.08c-.11.59.08,1.19,0,1.79-.04.31-.3.55-.29.88,0,.46.67.82.02,1.3l.45.43-.45,1.51h.43c.04.21-.23.74-.23.79,0,.1.18.26.22.44.11.49-.22.71.59.78l-.29.65c.49.08.06.61.16.99.03.11.69.32.8.57.21.49.02,1.06.07,1.31.02.1,1.11,1.27,1.32,1.56.17.23.11.49.13.51.09.1,2.23,1.04,2.36,1.04.36.01.55-.42.93-.15v-.44c.36-.05.61.44.65.44.21-.01.35-.27.58-.3s.46.12.58.11c.13-.02.15-.3.31-.39.27-.14.68-.07.93-.16.15-.05.16-.39.47-.37s.69.47,1.08.23c-.1.39.3.89.27,1.19-.03.31-.34.58-.37.78-.06.39.43.69-.32.64.2.33-.31.58-.59.65-.35.09-.68-.09-.7-.07-.05.03-.05.34-.25.41-.19.06-1.61-.15-1.97-.11s-1.17.26-1.55.2c-.3-.05-.56-.45-1.08-.37-.11.82-.37.3-.81.09-.33-.16-.58,0-.78-.51l-.29.28c-.35-.49-.31-.61-.94-.42.09-.51-.32-.58-.29-1.01l-.35.14c-.1-.37-.38-.15-.53-.34-.18-.25-.22-.77-.43-1.14-.07-.13-.8-.81-.83-.87-.23-.49-.44-1.25-.74-1.81-.14-.27.1-.68-.59-.61l.37-.87c-.34-.35-.36-.78-.52-1.18-.04-.11-.26-.11-.28-.21-.05-.29.19-.74.16-1.13-.02-.29-.34-.15-.32-.42s.24-.45.24-.66c-.02-.74-1.23-1-.37-2.09l-.3-.14c.11-.43.35-.82.31-1.3-.02-.29-.31-.21-.3-.28.04-.25.36-.98.36-1.3.02-.98,0-2.05.04-3.02s-.31-.62.09-1.51c.06-.14-.06-.5,0-.73.1-.47.86-2.76,1.03-3.02.08-.11.34-.1.36-.24.02-.13-.16-.35-.09-.49.06-.11.43-.18.55-.46.11-.25-.15-.63.02-.84.67-.1.4-.35.46-.42.4-.43,1.02-.59.55-1.3.16-.29.77-.5.89-.72.12-.25-.1-.51-.06-.56.37-.5.87-1.02,1.32-1.69.39-.58.6-.73,1.19-1.19.39-.3.62-.07.62-.82l2.16-.81-.13-.7.85.27Z"/><path d="M158.4,6.91c.17-.27.79.28.82.35.07.18-.1.37-.03.54.15.37.39.76.59,1.12.11.21.7.48.06.82.4.48-.13.85-.12,1.14,0,.04.21.72.24.75.3.36.58-.05.28.91l-.41.02v.36s.29.14.29.14c-.9.79.11,1.97-.29,2.96l.29-.15c.23.32-.18,1.03-.12,1.23.32.97.13.44.04,1.3-.04.42.52.86-.21.94-.08.36.08.23.29.35-.61.57.41,1.14-.45,1.47-.06.32.42.99.41,1.3,0,.2-.22.34-.25.56-.16,1.07.12,2.7-.01,3.87-.03.23-.31.61-.28.95l.43.15c-.17-.13-.55.72-.55.77,0,.32.38.38.41.48.14.54-.29.48-.3.57-.02.21.17.47.16.71,0,.27-.35.83-.3,1.22,1.31-.34.45.3.25,1.04-.13.45-.47,2.54-.37,2.92.05.18.33.16.39.3.05.11-.52.95-.12,1.7.08.15.27.1.28.11.05.08-.37.39-.38.64s.29.58.25.85c-.02.16-.37-.01-.3.23h.43s-.58,1.87-.58,1.87c1.1-.15.17,1.66.29,2.07.04.15.34.04.29.16-.49.3-.69.95-1.3.79l.15.57h-.64s-.09-.57-.09-.57l-1.13-.32c.3-.5-.56-1.07-.56-1.2,0-.09.35-.41.34-.73s-.46-.72-.46-1.01c0-.2.19-.41.2-.61,0-.24-.43-.56.03-.99l-.3-.14.16-.42-.31-.29c.44-.96.31-1.84.3-2.82l-.43.07.57-1.44-.43-.08c.11-.35-.1-.69.29-.93l-.29-.14.59-.72-.42-.37c.2-.3,0-.71.08-.96.07-.22.46-.11.34-.54-.02-.06-.29-.08-.3-.15-.02-.2.35-1.03.31-1.58-.02-.28-.24-.2-.27-.29-.1-.28.37-.77-.17-.86.5-.27-.12-1.31.43-1.23l-.29-.23c-.02-.14-.02-.28,0-.41.06-.54.63-2.4.57-2.72-.01-.07-.65-.75-.63-1.26.02-.53.33-1.37.64-1.79l-.57-.72.72-.51-.58-.29.43-.65-.38-.43c0-.31.46-.3.38-1l-.43-.08c-.03-.42.46-.63.52-.78.04-.1.2-2.07.18-2.18-.02-.09-.24-.04-.24-.13-.06-.88-.09-.44-.26-.83-.25-.6.23-.74.24-.78.08-.34-.31-1.36.08-1.79l-.52-.63c.42-.42-.13-1.29.44-1.23l-.29-.36c.49-.12.46-.62.56-.73.22-.24.75-.28.95-.64l.38.4Z"/><path d="M86.74,55.05c.22.3.73.48.86.61.15.14.05.44.35.47-.02.69-.79.48.04.9-.16.42-.43.5-.87.51l.15.29c-.37-.13-.7.27-.95.29-.35.03-.51-.27-.78-.37-.14-.05-.3.07-.4.04-.05-.01-.12-.45-.81-.25-.06.87-1.02.7-1.08.74-.1.07-.92,1.85-1.11,2.14-.17.25-.53.29-.63.66l.57.22-.91,1.19c.01.72-.9,2.32-.83,2.91.02.2.48-.08.43.22l-.54.46c.31.6-.18.74-.19.78-.04.31.46.82-.13.78l.43.29c-.06.19-.21.34-.26.54-.08.36-.3,1.26-.33,1.56s.35.12.3.42c-.07.43-1.07,1.08-.02,1.58-.06.21-.29.52-.28.72,0,.04.64.25.19.66h-.33s0,2.3,0,2.3l.44.08c.08.55-.5.92-.53,1.29-.02.4.33.76.33.87-.01.47-.35.53.08,1.42.08.17.17.21.31.49.05.1.67.39-.05.68.51.17.37.98.45,1.07.04.05.29-.05.42.1.12.14.4.84.29,1.05h.7c.06.73.22,1.24,1.02,1.1l.21-.52c.86.37,1.04-.46,1.93-.29v-.42c.74.21,1.04-.52,1.59.37.58-.37.79.02.29.42l.28.13c-.29.46-.02,1.28-.47,1.63-.19.15-.37-.17-.38.4-1.13-.25-.9,1.1-1.74.64v.43c-.41.04-.82-.12-1.23,0-.25.07-.22.29-.28.29-.28,0-.85-.28-1.16-.34-.25-.05-.63.07-.84-.06-.19-.12-.47-.73-.69-.95-.25-.25-.81-.52-.93-.65-.16-.17-.59-1.39-.66-1.44l-.57.14c-.06-.42.01-.95-.34-1.26-.08-.07-.28,0-.4-.13-.07-.08-.09-.73-.16-.95-.11-.35-.43-.62-.26-.98h-.43s.15-2.02.15-2.02l-.58-.07.57-1.22-.29-.08c.24-.52.14-1.11.06-1.65-.02-.13-.25-.28-.27-.5-.05-.51.52-.92-.21-1.16l.72-.65c-.54-.5.09-.64.15-1.09.03-.28-.13-.56-.13-.85,0-.41.34-.74-.16-.87.65-.6-.27-.98.15-1.7.05-.09.22-.07.27-.2.14-.38-.87-1.14.16-1.06-.6-.55.07-.68.08-1.08,0-.07-.15-.19-.15-.28,0-.43.31-.87-.22-1.01.08-.47.71-.98.73-1.04.09-.34-.23-.83-.16-1.1.04-.17.53-.13.32-.52h.42s-.08-.31-.08-.31l-.49-.21c.1-.34.78-.47.83-.54.14-.16.04-.77.07-.81.21-.26.24-.22.49-.61.06-.09.71-.28.19-.64-.15-.1-.47.03-.43-.22.88-.43,1.73-1.26,1.59-2.29.97,0,1.05-.94,1.99-.9l.26-.68c.65.31,2.02-.55,2.43-.53.27.01.84.39,1.28.25.26.07.1.31.14.38Z"/><path d="M72.01,54.61c.12.13.38.17.47.33.22.41-.32.69.19.79-.27,1.63.29,3.42.13,5.01-.08.74-.02,1.05-.01,1.77,0,.45-.33.88.19,1.01l-.43.94.58.07c-.25.09-.59.89-.59,1.16s.32.7.28.86c-.03.11-.41-.02-.27.36l.44.08c-.1.27-.02.61-.12.87-.09.23-.31.16-.33.42,0,.08.03.95.05,1,.18.41.73.18-.03,1.16.18.54.9,1.39,0,1.66-.06.26.24.09.29.14.03.03-.22.36-.25.54-.19,1.06.05,3.01.11,4.15.02.36-.16.51.05.9.03.05.32.02.25.25-.7.77-.19.7-.16,1.15.01.24.02.9.02,1.15,0,.09-.23.07-.26.15-.28.81.15,1.68.11,2.52l.29-.15c.06.7.43,1.4.45,2.09.04,1.45-.16,2.68-1.4,3.45-.08.05-.02.23-.13.23-.32,0-.36-.33-.36-.58-1.27.58-.83-.85-.94-1.46-.06-.3-.41-.57-.47-.81-.25-1.07.27-2.74-.04-3.84-.05-.19-.36-.18-.4-.31-.02-.05.1-1.11.4-.95v-.21c-.76-.3-.2-1.35-.19-2.04,0-.42.02-1.28-.52-1.06.24-.65.46-1.4.45-2.1,0-.47-.29-.28-.32-.56-.05-.57-.03-2.83.02-3.45.02-.23.24-.46.23-.59-.02-.23-.6-.44.18-.67.08-.11-.42-1.13-.39-1.39.1-.97.13-.66.04-1.69-.05-.56.9-1.45.09-1.72l.27-.59-.41-.22c.3-.52.5-1.33.39-1.93,0-.04-.43-.39-.38-.7.03-.18.4-.3.42-.6s-.28-.49-.29-.71c-.02-.33.42-.58.42-.86.01-.45-.74-.8.15-1.15l-.3-.15c.45-.62-.09-.94-.1-1-.14-.77.17-.92.24-1.18.05-.17-.06-.72.15-.99s.81-.76,1.15-.66v-.42c.62-.14.46.34.63.53Z"/></g></svg>