<?xml version="1.0" encoding="UTF-8"?><svg id="Layer_2" xmlns="http://www.w3.org/2000/svg" viewBox="0 0 289.48 107.99"><g id="kaiseki_ryori"><path d="M168.02,20.4l.16.61c.23.06.4-.24.54-.25.38-.03.64.8.77.1l1.42.56c.45.01,1.09-.09,1.13.52l.66-.29c.41.1.33.62.43.74.07.08,2.08-.14,1.37.94l1.32.62-.1.46h.77s-.16.3-.16.3c.61-.07.59.65,1.05.5l.49,1.51.92-.15-.32,1.29c.72.31.32.55.42,1.14.1.54.52.7.52.75.04.33-.28.81-.3,1.07,0,.08.24.06.3.17.24.49-.04.78.77.74-.28.71-.72.95-.86,1.77-.11.62.32,1.47.23,1.75-.06.18-.35.19-.45.37-.24.45,0,1.45-.46,1.42l.46.38c-.28.41-.29.91-.92.85l.31.23-.75.95.44.51c-.63-.1-.8.82-1.38.93l.31.46c-.31.07-.72.32-.94.54-.26.26-.16.47-.29.61-.46.48-1.09.31-.94,1.45l-.99.16-.37,1h-1.08c.08.61.22,1.13.92,1.17l-.14.29c.52.21,1.06.22,1.3.78l.08-.46c.54.37.93.89.61,1.54l.77-.15.16,1.23.46-.15c.05.3-.07.7,0,.97.04.16.36.18.47.33.18.23.17.53.3.75.16.26.73.35.31,1.03l.45-.14c.39.27.15.99.18,1.04.04.05.4.11.59.43.23.39.03.7.09.84.09.19.4.22.49.33.02.03.12.55.22.76.06.12.29.13.29.22,0,.39-.43.77.25,1.13l.44-.3.16.15c-.04.64.4,1.18.23,1.69l.46-.31c-.19.46.4.54.42.68.02.14-.17.46-.12.75.01.07,1.01.68.16.95.07.2,1.41.33,1.23,1.22-.05.23-.29.43-.28.61.02.28.61.71.44,1.18l.61-.15c-.18.5.04,1.42-.09,1.86-.02.06-.53,1.12-.57,1.17-.79.99-1.65-.62-2.42.19-.21-.33-.02-.76-.1-1.08-.11-.46-.87-.43-.38-1.16-.43-.1-.12-.41-.31-.86-.08-.19-.6-.45-.69-.65-.31-.66.13-1.6-.96-1.81-.04-.05.17-.62.13-.79-.03-.12-.3-.09-.29-.17,0-.15.19-.3.12-.59-.08-.32-1.23-1.49-1.66-1.51l.14-.6-.77.15.11-.28-.27-.1c.32-.36.33-1.03.01-1.37-.15-.16-.41-.06-.45-.11-.08-.1.03-.45-.02-.65-.06-.23-.72-1.44-.91-1.76-.44-.75-.29-.41-.59-.7-.15-.15-.24-.51-.49-.64l.31-.23c-.79.09-.5-.69-.78-1.23l-.29.15-.33-.92-.43.14c-.09-.84-.77-.82-1.12-1.08-.17-.13-.99-.73-1.03-.79-.06-.1.2-.33-.02-.51-.08-.06-.33.03-.43-.03-.18-.11-.19-.29-.31-.35-.31-.15-.7-.05-1.02-.14l-.1-.13c-.13-.3-.03-1.3.11-1.58.35-.68,1.49-1.31,1.69-1.95.08-.24-.39-.37.44-.48.12-.01.27.08.38.12-.24-1.43,1.51-.78,1.23-1.84,1.27.2,1.35-1.47,1.93-2.01.32-.3.78.09.4-.7l.45-.46c-.28.07-.32-.64-.3-.68.05-.07.47-.08.57-.19.02-.03-.1-.22.02-.37.27-.33.83-.56.89-1.24.04-.41-.09-1.06.18-1.49.06-.09.21-.11.32-.11l-.46-.16-.02-1.61-.29-.14.61-.78c-.7-.54-.22-1.52-.55-2.22-.13-.27-.64-.45-.53-.93l-.61.15c.17-.92-.3-.99-.73-1.44-.18-.19.04-.77-.81-.32-.46-.32-.12-.82-.15-.85-.04-.04-.84-.19-1.14-.33-.55-.26-1.17-.43-1.51-.6-.12-.06-.11-.28-.23-.3-.67-.13-1.13.33-1.19.33-.48-.01-1.03-.64-1.62-.48-.04.26.06.59,0,.82-.04.15-.3.09-.31.1-.05.06.45.51.45.84,0,.43-.54.7-.33,1.24.12.31.47.34.48.45,0,.05-.2.25-.22.46-.07.79-.01,1.62.2,2.15.11.28-.38,1.22-.39,1.57,0,.2.2.35.19.62,0,.46-.31.78-.08,1.28l.61-.15c.07.45-.75.93-.76,1,0,.06.28.36.29.63.02.41-.41.62.15.76-.5.28.2.96-.03,1.52-.11.27-.45.14-.43.4h.46s-.08.47-.08.47l-.54.15.17,1.37h.45s-.31,1.08-.31,1.08l.46.08c.03.33-.47.76-.54,1.01-.1.34.26.71-.23.99l.62.08c-.07.56-.12.5-.63.71v.83s.47-.15.47-.15c.02.03-.08.68-.11.73-.19.36-.48.09-.51.27l.16,1.61.62-.08c-.05.43-.31.85-.41,1.26-.11.46.36.59-.36.89l.46.08-.31.7.31.07c-.37.38-.23.71,0,1.16l-.3.14c.41.53.57,1.28-.15,1.54l.31.15c-.6.71-.25,1.56-.31,2.39l.62.08c-.66.25,0,1.16-.01,1.67-.02,1.04-1.45,2.71.01,3.4-.72.68-.16,1.41-.62,2.23.16.09.8-.18.77.15l-.28.07c.35.64-.19.86-.31,1.13-.19.41-.39,1.32-.78,1.47l-1.54-.06-.16.62c-.43-.06-.31-.78-.4-.93-.07-.12-.33-.12-.42-.34-.2-.46.15-.74-.57-.81-.16-.78.59-1.26.59-1.38,0-.08-.22-.22-.23-.35-.02-.21-.17-1.15-.15-1.2.14-.26.51-.14.41-.83l-.46-.09c.24-.33.54-.97.43-1.38-.02-.09-.58-.57-.58-.61.02-.22.36-.58.42-.82.08-.32-.07-.87.19-1.26l-.46-.08c.39-.68.1-1.14.16-1.83.03-.44.6-.78-.16-1.09,1.07-.92-.08-1.09-.11-1.39-.04-.41.8-1.23.57-1.46-.33-.33-.45.42-.62.23-.02-.75.14-1.19.62-1.76h-.62s.46-2.61.46-2.61l-.62-.08c.65-.2-.09-1.69.77-1.77l-.31-.23c.41-.34.56-1.99.46-2.44-.03-.12-.31-.1-.32-.19-.03-.61.51-1.82.48-2.3s-.97-.22-.02-1.15c-.54.08-.07-.78-.07-1.16,0-.27-.31-.95-.36-1.07-.14-.36.39-1.19.38-1.63s-.37-1.22-.25-1.58c.08-.22.39-.2.43-.33.01-.04,0-.73,0-.77-.02-.09-.24-.06-.27-.17-.02-.1.12-.29.04-.48-.12-.27-.44-.3-.49-.43-.05-.13.21-.98.44-1.08-.72-.31.06-.61.16-.8.7-1.26-.55-1.6-.55-2.74,0-.41.23-.73.36-1.09.07-.21.27-.19.3-.29.1-.32-.03-.83-.41-.91.13-.33.17-.7.6-.7l-.61-.38.3-.47.46.08.16-.55.47.09c-.11-.83.48-.68.69-.93.26-.31,0-.83.86-.55.57.19.65.95,1.53.24Z"/><path d="M234.32,23.66s.04.25.23.33c.41.18,1.59.24,2.07.61.19.15.26.67.46.72.45.13,1.36-.18,1.41-.13.05.04.06.27.17.35.26.21.88.34,1.43.87.86.83,1.43,1.31,2.39,1.99,1.01.71.53.66.95,1.28.24.37.94.23.32.88.49-.04.31.62.54.93.1.13.33.02.39.08.4.34.15,1.28.27,1.7.07.24.58.4.48.74-.06.2-.43.24-.55.47-.09.18.32.71.1,1l.31-.16c.05.55.05.78-.47,1.01.12.14.3.77.35.81.14.11.48-.1.42.18l-.77.47.61.23c-.27.78-.65.62-.79.79-.06.08-.25,1.67-.39,2.03s-.63-.04-.05.64l-.46.39.46.31c-.41.4-1.29.79-1.64,1.19-.04.04.05.21,0,.27-.31.43-.84.74-.51,1.39h-.77c.28.82-.77,1.23-1.04,1.57-.03.03.11.21.08.24-.53.53-1.78.85-1.65,1.57l-.92-.31v.31s.3.07.3.07l-.14.55.27-.11.13.28.67-.17c.02.76.18.88.77,1.32l.38-.23.16.14c.25.27.04.6.15.76.1.15.39.21.52.41.54.81-.04.69,1.08,1.54.88.67,1.14,2.12,1.93,3.14.19.24.73.22.55.92l.31-.16v.92c.49-.31.82.29,1.23.54l-.3.38.31.1c-.21.88.14.81.36,1.15.32.5.2.93,1.02.6-.29.36.11.78.1,1,0,.21-.26.4-.26.61,0,.07.8.55.63,1.16l.46-.31c-.18.53,1.04,1.57.31,1.54l.32.38c-.4,1.66-1.76,1.54-3.09,1.77l-.31-1.08-.61.31-.17-1.68c-.15-.02-.36.06-.45-.11-.4-.72.19-2.42-1.07-2.21l.3-.69c-.8-.26-.94-1.16-1.07-1.92-.27,0-.04.5-.54.31-.45-.18-.01-.69-.15-.92-.05-.09-.29-.12-.34-.2-.24-.36-.41-1.13-.97-.88v-.77s-.76-.01-.76-.01c.19-1.01-.72-1-.49-2.05l-.13-.18c-.89.2-.62-.55-.79-1.03-.05-.15-.25-.13-.3-.22-.56-1.08-.2-.36-.93-.9-.14-.1,0-.37-.13-.46-.32-.2-1.19-.2-1.5-.43-.23-.17-.66-.95-.74-1.01-.42-.32-1.07-.37-1.53-.64-.39.83-.7,1.36-.69,2.31.23.13.7-.4.61.07-.15.75-.31,1.46-.48,2.12-.14.53-.63.92-.25,1.55.12.2.38.22.42.36.06.18-.04,1.12-.15,1.36l.46.08c.07.25-.21.11-.26.18-.04.06.05.28-.04.48-.04.08-.24.07-.3.23-.08.22-.02.62-.17.87l.32.16c-.37.53-.31.93.3,1.23-.08.33-.55.52-.59.62-.13.34.44,1.77.41,1.96-.07.38-.15.54-.21,1.05-.08.62-.54,1.23.39,1.21v.15c-.52-.04.05.67-.77.31l.24.31-.17.31c-.56-.32-1.01.24-1.22.26-.46.04-1.41-1.04-1.63-1.48l-.6.3c-.17-.18.32-1.72.31-1.91,0-.08-.23-.07-.29-.21-.31-.75.07-.63.09-.73.11-.39.08-.94.51-1.07l-.43-.1c-.48-.3,1.09-2.57-.18-2.82.09-.2.41-.47.43-.65.01-.07-.25-1.1-.26-1.37,0-.04.48-.12.29-.53h-.62c.16-1.01.98-.56.68-1.86-.11-.49-.53-.99.09-1.6-.7-.16,0-1.33-.02-1.54,0-.06-.65-.26-.55-1.05.06-.45.68-.59.81-1.1.09-.36-.28-.95-.21-1.26.07-.33.45-.48.37-.82-.06-.29-.36-.42-.37-.54-.01-.14.32-.43.39-.66.08-.29-.12-.84.17-1.19l-.59-.23c-.02-.34.27-.52.31-.85s-.38-.58.15-.53v-.3s-.28-.08-.28-.08l.29-.77c-.71-.25-.27-.97,0-1.46h-.46s.17-.76.17-.76l.6-.02c.05-.31-.44-.03-.46-.23-.02-.24.16-.58.46-.54l-.02-.29-.29-.11c-.11-.5.11-.52.46-.75l-.62-.31c.82-.3-.04-.75.01-.91.87-.72.36-1.63.61-2.55h-.46c-.02-.42.38-.61.45-1.01.01-.06-.06-1.16-.08-1.31-.05-.41-.53-.27.24-.67l-.57-.47c-.18-.63.38-.63.42-.79.17-.6-.24-.96-.25-1.2-.01-.21.38-.73.4-.93,0-.06-.28-.05-.31-.17-.07-.3.17-.94.14-1.05-.02-.09-.23-.06-.26-.15-.09-.29.32-.59.39-.79.1-.33-.13-.75.27-1.14.09-.09.29-.04.39-.1.83-.51.9-.76,1.85-.87.15-.02.32-.21.38-.2.16.02.25.28.38.34.19.08.4-.14.59-.04ZM235.71,27.82c-.07-.05-1.35.03-1.67-.13-.37.78-.55,1.61-.42,2.47,0,.06.38.86.39.92.09.42-.3,1.58-.25,1.69.06.15.39.15.44.32.05.21-.37.69-.46.92-.17.44.42-.14.31.31-.09.37-.36.59-.46.94-.11.37-.37,3.23-.31,3.49.03.11.27.09.3.21.05.16-.15.75-.29.9.98.38-.01.98-.03,1.22-.04.72.2,1.6.3,2.32l-.28.22.31.08c-.41.1-.21.32-.31.69l.61-.15-.9,1.79c-.09.27.6.26.29.82l.77-.15-.31-.3c.48-.47,1.61-.09,1.85-.22.28-.15,1.43-1.65,1.8-1.95l.73-.13.11-1.06c.44-.3,1.3-.5,1.57-.96.25-.42.12-1.02.39-1.41.12-.18.39-.2.53-.41.17-.27.31-1.4.57-1.77l-.32-.16.46-.46-.31-.15.46-.92-.47-.09.46-1.23h-.62s.18-.75.18-.75l.44-.02-.62-.62.31-.3h-.31s.31-.46.31-.46l-.46.15c.14-.26-.04-.62,0-.82,0-.04.46-.32.3-.72-.77.41-1.28-.75-1.08-1.38l-.46.09c-.25-.68-.56-.53-.96-.72-.13-.06-.13-.23-.16-.24-.07-.04-.24.11-.26.1-.06-.04-.08-.49-.19-.58-.02-.02-.26.1-.49-.03-.66-.4-1.3-.94-1.83-1.33Z"/><path d="M7.24,19.26c.12.04.25-.03.38.03.48.2.51.61,1.13.03.26.47-.19.83-.16,1.15,0,.09.24.06.28.16.35.94-.44,2.25-.08,3.35.08.23.39.37.42.51.01.08-.45,1.12-.4,1.65.04.49.53.74.54.79.12.45-.62,1.75-.43,2.76.13.69.85.95-.16,1.7.57.16.31.89.15,1.31l.47.08c.02.85-.4,1.64-.42,2.49-.01.78.57,1.59.1,2.35h.46c.16.4-.46.64-.46.69.04.27.38.58.15,1.01.39-.13.67-.15.76-.61l-.3-.16c.92-.19,1.24-.79,1.57-1.58.08-.2-.04-.45.04-.57.18-.26,1.11-.61,1.39-1.4.07-.2-.08-.42-.07-.44.04-.06.88-.47,1.17-.77.19-.2.07-.4.1-.43.12-.14.88-.68.96-.8.11-.19-.1-.43-.08-.45.03-.05.48-.05.58-.19.24-.34-.15-1.15.65-.74l-.13-.28c.66-.12.25-.62.44-.98s.85-.19.38-.89c.52-.16.64-.79.87-.99.46-.4,1.16-.17.52-1.32l.86-.46-.31-.3c.53-.03.64-.72.85-.94.1-.11.99.12-.07-.52.31-.34.44-.59.92-.38,0-.27,0-.62.16-.84.33-.48.82.17.45-1.01h.46s-.16-.46-.16-.46l1.25-.39v-.38c1.17-.31,1.55.76,1.97,1.65-.31.51-.92.93-.6,1.58-.79-.1-.99.4-.83,1.09l-.55.15c.7.77-.31,1-.44,1.26-.08.14.48,1.72-.94,1.51l.24.31c.09.52-.81.42-.85.46-.06.05.17,1-.47,1.45-.15.1-.43.07-.45.09-.02.02.16.29.13.5-.09.7-.65.45-.91.68-.35.31-.27,1.12-.45,1.47-.1.18-.56.92-.71,1.16-.33.5-1.17.72-1.51,1.43-.12.26-.06.54-.23.84-.15.27-.91.71-.93.78-.05.32.05,1.15.46,1.22l-.16.53.46-.15c.07.42.15.59-.15.92l.59.18c-.15.74.21.99.4,1.5.05.13-.11.35-.05.44.13.18.58.01.28.64l.62.24-.31.53h.46c-.22.3-.01,1.15.19,1.34.15.14.67.13.72.21.09.12-.16.73-.1.84.1.2.41.18.43.32.02.16-.15.4-.14.59.06.99.61.71.67.83.15.28-.14.56.02.89.12.25.77.62.81.77.17.63.08,2.1.92,2.06-.21.87.53,1.42.49,2.28l.6.02c-.07.88.84,1.16,0,1.84h.69c.16.64.52,1.14.08,1.77l.45.08c.03.52.09,1.16.28,1.65.29.73.98,1.12,1.26,1.81l-.31.08.29.16c-.57.8.48.94.61,1.3.06.18-.33.5.17.6l-.17.53c-.7-.11-.55.3-.9.56s-.67.09-.77.16-.09.33-.25.38c-.54.17-.79-.5-.97-.93l-.23.31c.01-.38-.46-.26-.52-.32-.15-.15.25-.92.12-1.28-.07-.18-.32-.19-.4-.3-.17-.24.17-.55-.32-.29-.09-.23-.27-.44-.33-.68-.17-.66.21-1.74-.63-1.84-.29-.37.13-.62.1-.84-.02-.17-.43-1.35-.7-1.23l.31-.3c-.96-.29-.67-.88-.83-1.39-.09-.29-.39-.44-.51-.73-.13-.32-.24-1.35-.27-1.42-.06-.1-.8-.6-.82-.65-.05-.09.13-.44.08-.74-.13-.72-1.07-2.06-1.26-2.76-.05-.2.1-.45.09-.46-.05-.03-.3.06-.42-.04-.27-.22-.42-1.36-.55-1.69-.32-.8-1.74-4.17-2.15-4.55-.11-.1-.37,0-.42-.03-.05-.03.07-.94.09-1.06.03-.18.17-.2-.17-.17-.46.04-1.49.72-1.58,1.2-.04.19.13.45.1.48s-.33.08-.45.24c-.19.23-.17.56-.29.75-.11.17-.4.22-.55.41s-.67,1.11-.68,1.18c-.03.13.16.49.11.6-.12.27-.57.11-.42.53h.46c-.39.36-.1.75-.15.98-.03.16-.48,0-.32.41l.31.15c-.87.08.42,1.94-.61,2l.29.16-.28,2.07.31.16c-.3.7.09,1.35.08,1.99,0,.36-.56.48.21.7-.35.46.11,1.03,0,1.41-.07.23-.44.34-.44.64,0,.32.4.7.32,1.39-.05.43-.68,1.01-.01,1l-.31.53.48.61c-.62.17-.15.53-.21.9-.13.81-.2,1.68-.02,2.58.04.21.33.39.33.52,0,.14-.36.26-.26.54l.61.15c-.32-.06-.39.41-.55.44-.36.08-.52-.5-.51.26-.59.16-1.11.26-1.67-.04-.3-.16-.11-.59-.81-.2-.18-.61.2-1.21.11-1.88-.05-.39-.31-.78-.34-1.04-.07-.49.14-1.91.07-2.53-.04-.39-.56-.58,0-1.09l-.31-.15.31-.15c-.53-.32-.15-.72-.2-1.05-.03-.21-.33-.43-.35-.79-.01-.41.31-1,.35-1.42.03-.39.11-2.78.03-2.99-.05-.14-.33-.08-.32-.35.02-.44.73-1.71-.14-1.78l.46-.68-.46-.32c.38-.13.36-.4.47-.76l-.32-.18c-.09-.51.54-.83.59-1.08.08-.38-.63-1.14-.43-1.95.02-.1.43-.07.26-.65-.03-.09-.21-.07-.23-.15-.11-.45.38-1.01.28-1.54l-.47-.08c-.09-.47.54-.7.57-.83.02-.12-.15-.46-.11-.77.07-.53.82-1.11-.31-1.17l.55-2.01-.39-.15c.46-.46.33-.86.44-1.45l-.59-.24c-.07-.25.27-.07.31-.25.03-.12.03-.61-.02-.66h-.45c.17-.51.09-.6.63-.71v-.92c-.79-.66-.28-.79-.3-1.54,0-.29-.35-.16-.34-.45-.03-.43.92-.88.17-1.23l.3-.47-.61-.23c-.18-.57.41-.54.46-.62.11-.15-.28-.43-.28-.66,0-.17.19-.4.2-.64.02-.51-.3-.97.23-1.46l-.61-.16c.24-.42.6-.95.55-1.47-.03-.25-.26-.38-.33-.61-.05-.19.34-.58-.22-.54.29-.36.61-1.1,0-1.3.13-.09.46-1.16.46-1.23,0-.19-.23-.34-.25-.49-.08-.66-.01-.91.35-1.43.55.02.64-.38,1.05-.61.1,0,.07.24.11.25Z"/><path d="M41.37,20.56l-.15.76.55-.02.22.64.61-.15v1.38s.46-.15.46-.15c-.15.59.28.99.39,1.46.1.42-.3.74-.24,1.15h.46c.07.36-.24.55-.3.86-.07.33.22,1.18.22,1.59-.01.78-.39,1.39-.03,2.35.09.25.41.39.43.66.03.3-.25.47-.29.76-.07.44-.11,1.74-.02,2.15.11.5.8.36.61,1.21-.01.06-.41.14-.22.89.08.32.31.25.42.47.37.79.13,1.61.16,2.19,0,.16.36.38.36.62,0,.16-.24.34-.22.59.02.33.34.88.74.72-.27.59.12,1.9,0,2.36-.04.16-.37.05-.32.18.59.37-.15,1.52.47,1.71l-.15.51.46.4c.05.46-.48.59-.45.89.04.47.75.89.73,1.27,0,.06-.54.14-.42.92.02.1.25.06.27.17.06.28-.05.59,0,.87,0,.04.52.22.16.65-.12.15-.4.18-.44.25-.09.13.28,1.05.29,1.28.03.63-.35,1.55.07,2.22.11.17.46.19.52.41.08.29-.26,1.24-.22,1.46.04.25.33.3.34.33.38,1.06-.32,1.09-.35,1.42,0,.08.29,1.43.35,1.63.17.63,1.18,1.91.22,2.37.42.27.34.69.47,1.04.08.22.5.17,0,.97l.3.14c-.21.87-1.48.75-1.23,1.62-.38.02-.73-.25-1.01-.31-.52-.1-.76.36-1.28-.56-.15-.26-.1-.5-.18-.71-.05-.13-.28-.12-.3-.22-.08-.42.31-.84.27-1.18-.06-.51-.64-2.16-.41-2.59.27-.5.31-.52.27-1.28-.05-.91-.45-2.05-.73-2.8-.34-.92.43-1.09-.02-1.95l.32-.17c.07-.81-.75-1.29-.74-1.55,0-.23.27-.42.29-.75.03-.48-.32-.78-.32-1.08,0-.35.27-1.1.22-1.69-.03-.43-.3-.77-.39-.95-.2-.4-.18-1.36.31-1.51l-.54-.54-.29.31c-.56-.04-.73-.42-.79-.44-.2-.06-1.25.39-1.54.37-.36-.03-.47-.42-1.05-.09-.21.12.08.46-.6.14-.49-.23-1.6-.58-2.04-.12-.62,0-2.01-.81-1.94.29l-.23-.31h-.3c-.09.37-.84.51-.43.77h.35c.18.65-.54.8-.46,1.38l.46.08c-.06.42-.63,1.01-.7,1.3-.01.06.18.84.16,1.16-.11,1.43-.49,2.73-.79,4.03-.15.63.3,1.42.27,1.98-.02.3-.34.2-.33.3.02.22.25.34.26.46,0,.1-.5,1.38-.54,1.87-.04.57.18.82.29,1.21.01.04-.46.42-.51.57-.14.35-.14.81-.08,1.18l.59.25c-.14.34-.62.31-.74.41-.04.03-.33.67-.38.79-.08.19.06.47-.02.57-.15.18-.88.23-1.21.45-.17.11-.42.82-.81.16-.07-.11.1-.3.04-.43-.02-.05-.66-.47-.75-.61l.47-1.28h-.45s-.02-.54-.02-.54l.45-.08.13-1-.42-.37.74-.55c-.36-.39.08-1.38-.01-1.58-.07-.16-.94-.54.19-.95l-.31-.15c.73-.62-.66-1.63.46-1.54-.22-.44.12-.55.15-.92l-.46-.08c.09-.77.48-1.59.57-2.35.03-.29.05-1.36-.27-1.36v-.28c1.21-1.2.16-2.91.3-4.01.04-.32.32-.61.29-.74s-.28-.29-.29-.49c0-.29.4-.43.42-.61.02-.16-.2-.41-.18-.72.03-.54.39-1.2.48-1.67.1-.51-.16-1.3.37-1.93l-.3-.28c.25-.41.18-1.26.76-1.32l-.46-.23c.34-.19.17-.72.24-.86.12-.22.45-.21.53-.42.12-.33.49-2.3.46-2.56-.06-.45-.48-.55,0-1.01l-.46-.15c.48-.07.34-.61.92-.31-.09-.23-.27-.38-.27-.66,0-.07.18-1.28.2-1.34.08-.2.42-.32.45-.68.04-.42-.37-1.12-.33-1.33.08-.37.53-.44.63-.6.15-.25-.03-.51.02-.77.07-.37.68-1.03.68-1.61l-.32-.15c.08-.56.8-.42.94-.64.09-.14-.02-.39.03-.48s.66-.63.71-.76c.1-.27.25-1.27.4-1.59.05-.1.79-.7.99-.76.02-.27-.59-.06-.16-.39s1.19-.36,1.54-.92l-.31-.15c.38-.38.89-.54,1.41-.49.42.04,1.08.35,1.28.35s.48-.33.84-.09ZM39.83,23.78c-.92.12-1.04,1.2-1.78,1.37l.02.48c-1.15.23-.1,1.36-1.33,1.79-.15.56.31.54.31.58-.03.29-.43.66-.52.87-.55,1.32-.91,3.76-1.08,5.14-.03.25-.33.52-.24.84l.46.08c-.04.33-.54.67-.61.82-.2.4,0,1.24-.14,1.46-.09.14-.41.18-.43.33-.01.11.12.3.11.47s-.06.33-.14.47c.46.11.28,1.17-.32,1.15-.03.3.42.45.43.48.07.19-.14,1.01-.58.74l.31.23-.61.55c.52.75.03.38,0,.99l.25.22c.73-.11,1.46.03,2.19-.02.28-.02.54-.26.68-.24.17.03.35.31.56.37.3.09.62-.13.92.06v-.46c.34-.15.68.24.85.25.14.01.3-.22.55-.18.27.04.3.35.32.36.05.02.97-.05,1.1-.11.1-.05.09-.26.19-.29.16-.05.64.32.84-.1-.34-.34-.27-.63-.14-1.06l-.32-.19.17-1.19-.47-.1c.36-.61-.07-1.11-.11-1.58-.03-.33.12-.87.09-1.11-.09-.51-.89-1.66-.15-1.79l.02-.21-.77-.23c-.07-.25.21-.1.25-.18.06-.1-.11-.36.37-.53l-.44-1.71c0-.84.03-1.5.12-2.28,0-.07-.25-.04-.27-.14-.13-.58.27-1.01.28-1.24.01-.29-.45-.44-.47-.77-.02-.27.3-.68.32-.99h-.46s.16-.38.16-.38l-.29-.16c.15-.96.09-1.94-.18-2.85Z"/><path d="M214.62,23.08s.03.23.13.24c.26.03.8-.34.83.31h.23s.31-.46.31-.46c.39.61,1.14.27,1.62.56.21.13-.03.52.61.2,0,.61.65.57.46,1.23l.77-.15c-.27.47.27.66.37.92.06.17-.1.4,0,.62.16.32.58.25.68.33.02.02-.08.2-.04.3.05.15.25.41.22.45-.04.05-.37-.12-.31.15.58.15.72,1.79.31,2.24l.3.14-.13.61.91.41-.46,1.07h.76c.12.52-.36,1.26-.27,1.62.02.09.4.03.12.38h.47s-.46,1.46-.46,1.46l.31-.08.16,1.3-.47.16.61.24c-.13.32.03.79-.46.76l.32.37c.04.43-.4,1.08-.41,1.39-.02.63,1.15,1.61.09,2.15,1.24.62.16,1.58.04,2.49l.58.58c-.49.37-.64.7-.61,1.31l.77.08c-.09.26-.56.62-.6.8-.07.3.22.44.24.59,0,.11-.2.4-.25.62-.07.36.2.91-.31.84l.31.25c-.12.49.12,1.08.1,1.5-.02.37-.36.35-.44.62-.15.5.23,1.12-.13,1.63h.47c-.22.22-.02.62-.04.69-.04.13-.81.96-.74,1.38.74.09.43.29.31.85l-.61-.15.13.44c-.54.13-1.08,2.26-.05,1.87l.07.3c-.33-.06-.37.4-.55.44-.35.08-.5-.53-.65.42l.43.37c-.52-.07-.31.61-.56.79l-.67-.02.14.75c-.68.11-.41.61-.75,1.02l-.78-.08c.15.87-.77,1.09-1.33,1.44-.11.07-.13.34-.29.38-.13.03-.37-.13-.57-.09-.72.12-1.48.15-1.88.73-.36-.47-.79-.07-1.4-.28-.24-.08-.22-.29-.41-.38-.42-.19-.92-.2-1.29-.55l-.51.44c-.23-.65-1.02-.68-.62-1.53-.75-.46-2.24-.64-1.85-1.85-.34-.03-.5-.06-.46.31l-.61-.85.31-.23c-1.14.15-.27-1.89-1.38-1.38-.14-.44.18-1.21.09-1.55-.1-.37-.49-.41-.53-.53-.14-.38.63-3.06-.48-2.07-.23-.71.04-.71.23-1.15.2-.47-.15-.26-.23-.54.61.06.35-1.5-.31-1.23l.6-.69c-.16-.44-.2-.75-.75-.7l.31-.23-.31-.15.31-.17c-.4-.62.26-.96.3-1.09.08-.27-.06-.66.16-.96-.21.03-.69-.08-.62-.38l.61-.25c-.25-.78.09-1.34.14-2.08.05-.79-.07-1.78.03-2.57.05-.35.19-.7.45-.94l-.77-.38c.77-.06.1-1,.26-1.35.11-.25.4-.29.51-.46.59-.9-.01-1.24.61-2.12l-.3.08c.07-.7.05-1.53.32-2.18.05-.13.58-.61.58-.65-.02-1.47.44-1.15.6-1.87s-.36-1.59.74-2.06c.02-.24.15-1.5.2-1.59.06-.1.87-.47.92-.6.05-.15-.14-.3-.09-.4.01-.03.24-.01.27-.12.03-.12-.2-.58-.08-.68.23-.21.62,0,.58-.57l.43-.03c-.25-.26.14-.87.34-1.02.04-.03.31.03.54-.15.66-.52,1.46-1.28,2.2-1.51v-.39s.53.16.53.16c.08,0,.01-.4.51-.25ZM216.87,28.65c-.35-.58-.19-1.68-.82-2.1-.08.77-1.02.18-1.54.15v.52s.31.25.31.25l-1.23.07.15.31c-.64.22-.78,1.35-1.31,1.04l-.23.19c.39.57-.32.59-.32,1.22l.32.24c-.9.06-.73,1.3-.79,1.37-.1.1-.49.1-.58.19-.05.05.26,1.17-.17,1.37l.46.08c-.76.83-.77,1.46-.77,2.53h-.61c.14.68-.4,1.34-.46,1.93-.06.54.59-.23.46.31-.08.32-.32.38-.39.54-.11.27.2.68-.37,1.01l.3.44-.31.15.45.3-.76,2.08h.61s-.31.23-.31.23l.31.15c-.29.6-1.06.56-.66,1.4l-.43.31.19.5.59.18c-.33-.05-.31.18-.32.44l-.6.02c.11.82.17,1.55.21,2.36.02.49.48.66-.21,1.1l.77.23c-.66.91-1.29,2.38-.15,3.15l-.46.85h.46c-.56,1.1.62.85.15,1.85l.46-.15c.08.38-.16.77-.12,1.12.04.43.39.41.4.44.06.17-.47.78.31.93l-.13.28h.61s0,.62,0,.62l.46-.15.04.88c.72.33,1.35.25,1.35,1.27l.54-.31c.32.83,1.57-.38,1.85.61l-.08-.46,1.22-.33-.14-.74c.85.15.5-.22.66-.41.09-.11.79-.61.84-.7.03-.05-.15-.52.2-.74l-.31-.15c.77-.1.68-1.11.96-1.35.12-.1.38,0,.42-.04.06-.06-.09-.37-.07-.53.03-.21.28-.63.19-.92-.03-.1-.27-.07-.28-.16,0-.07.19-.78.23-.85l.39-.06-.46-.69c.31.05.55-.6.59-.84.08-.52-.37-1.26-.28-1.67.02-.11.27-.08.3-.21.17-.66.51-2.08-.15-2.43.69-.7.46-1.38-.15-2.01.53-.13.12-.84.77-.85v-.15c-.33.05-.34-.18-.31-.47l-.31.16c-.23-.81.15-1.63.23-2.38.13-1.19.17-2.45.02-3.68-.08-.66-.78-1.58.05-1.86-.43-.71-.91-.99-.3-1.85l-.3-.29.14-.7-.46.15c-.03-.45.2-.86-.31-1,.66-.66.08-.81.04-.92-.09-.27.1-.84.05-1.16-.08-.45-.46-.57-.54-.73-.27-.58-.06-.64-.57-1.47Z"/><path d="M109.7,22.7h.62s-.46,1.15-.46,1.15l.47.08c-.22.32,0,.65-.07.94s-.49.26-.49,1.01c0,.59.51,1.61.49,1.76-.03.24-.27.45-.32.68-.06.28.21.75-.23,1.08l.61.3c-.13.72-.6.5-.62.62-.09.53.77,1,.15,1.69l.32.15c-.56.63-.13,1.79-.14,2.47,0,.32-.25.47-.27.63-.05.31.24.92.1,1.33.41.48.76-.04,1.24-.05-.75-1.13.81-1.36,1.54-1.85l-.3-.22c.24-1.06.7-.83,1.05-1.18.02-.02-.1-.47.05-.57.1-.07.39,0,.58-.11.49-.26.5-.97,1.09-.84l-.31-.61c.65-.4,1.43-.48,1.81-1.19.12-.22.13-.7.22-.78.14-.14.54-.02.7-.09.24-.1.62-1.07.69-1.13.22-.18.68.23.27-.65h.62c-.18-.51.07-.86.6-.62.21-.19.58-1.79.71-1.99s.67-.25.54-.77l.61.15c.03-.51.14-1.01.53-1.32.09-.07.31-.04.36-.09.11-.14.14-.97.54-1.31.12-.1,1.37-.14,1.51-.12.74.15.78,1.21,1.67.69.07.63-.31.63-.45.89-.24.43-.18,1.1-.78.95l.31.61-.46.15.31.15c-.83.38-1.2.63-1.22,1.62l-.61.08-.02,1.21c-.9.06-1.21,1.11-1.74,1.86-.05.07.04.25.02.28-.14.12-.85.22-1,.38-.09.1-.07.37-.2.48-.48.4-1.11.56-1.38,1.24l.31.08c-.36.57-.95.22-1.37.89-.35.56-.14.76-.17.79-.03.04-.49.07-.64.17-.19.11-.26.47-.58.46l.31.3c-.67-.01-.5.34-.67.56-.45.6-.89.53-1.18.9-.14.17-.85,1.04-.89,1.12-.25.47.14.89-.57,1.12l-.08.23c.21.22.29.62.39.81.17.31.67.94,1.02,1.49.42.64,1.64,1.77,1.9,2.4.17.41.11,1.73.67,1.41.35.5.54.87.49,1.51h.54s.56,2.29.56,2.29c.96-.12.89.85,1.12,1.37.03.06.28.09.36.26.1.2-.27.52-.15.8.17.39.5.4.61.54.02.03.06.54.17.73.5.89.97,2,1.43,2.68.96,1.41.93,3.01,1.91,4.26.16.2.51.28.62.46.26.42.36,1.15.99,1.47l-.28,2.12.45.39c-.64.42-1.12-.52-1.45.3-.74-.24-1.24-.59-1.75-1.17-.34-.39-.2-.84-.95-.67l.15-1.23-.6.15-.32-1.15.46-.23c-.86.04-.85-.99-1.17-1.53-.23-.38-.74-.85-.89-1.09-.18-.28-.42-2.18-.56-2.31l-.47.09c.01-.43-.53-.64-.58-.8-.14-.39.18-1.02.11-1.11-.05-.06-.28-.07-.37-.18-.09-.12.04-.37-.07-.55-.16-.28-.62-.68-.76-.96-.22-.42-.88-1.7-1-2.04-.14-.38.11-1.14-.7-.76-.03-.49-.13-1.27-.39-1.69-.21-.33-.79-.98-.99-1.36-.13-.24-.04-.55,0-.8l-.6.14c-.24-.25-.38-1.23-.5-1.34-.02-.02-.23.12-.36-.02-.23-.25-.77-1.65-1.08-1.67l-1.46,1.2.31.46c-.42.09-.75.31-.92.7.56.23.66.83.43,1.35-.1.23-.35.21-.4.33-.15.36.47,1.39-.18,1.31v.22c1.01.55-.39,2.26,0,2.89.1.16.28-.04.32.48.06.83-.24.63-.3.8-.18.53.32.75.3.89-.04.35-.4.83-.44,1.29-.05.74.32,1.62-.17,2.43l.3.14c-.72,1.1.11.84.3,1,.07.06-.33.83-.62.85l.31.15-.31.85.46-.15c.17.76-.57.61-.54,1.37,0,.23.06,1.52.07,1.61.01.06.42.73.4,1.1-.01.27-.34.6-.11,1.05l-1.89,1.19-.41-.61-.45.22-.31-.15-.15-.85-.46.15c-.11-.61.71-.88.01-1.14.42-.57-.18-1.01-.14-1.51.05-.64,1.11-1.55.43-1.74-.15-.64.45-.65.45-.75.01-.7-.89-.81-.13-1.7-.23.06-.4-.78-.4-.92-.01-.41.83-1.43-.06-1.47-.02-.33.6-.62.62-.72.11-.51-.56-1.12,0-1.58-1.04-.3-.29-1.58-.2-2.2.08-.55-.32-1.47.2-1.88l-.3-.29c.26-.26.2-.64.31-.9.06-.14.31-.11.3-.2,0-.23-.31-.4-.33-.77-.01-.27.25-.2.28-.3.18-.6-.08-.96-.02-1.54s.38-1.39.47-1.87c.23-1.22-.52-1.62-.18-3.05.07-.28.38-.44.4-.92s-.25-1.31-.33-1.85c-.06-.42.39-.89-.46-.91-.12-.43.6-1.04.62-1.1.04-.18-.02-1.18-.02-1.52,0-.04-.46-.16-.27-.74.12-.36.77-.04.13-.79.38-.07.29-.56.26-.92-.04-.44-.28-1.25-.32-1.7-.08-.81.08-1.2.15-1.94.05-.55.55-1.01-.39-1.21l.45-.7-.32-.44c.29-.74.26-1.31.33-2.08-.72.07-.43-.13-.31-.62l.46.16-.07-.47.22-.21c.74-.25,1.74.24,2.24-.24l.23.23c-.37.59.32.86,0,1.46Z"/><path d="M73.9,21.27c.44.29,1.14.43,1.36.94l.27-.12c-.02.98.75.69,1.24.87.53.19,1.28.61,1.77.97.31.23.26.7.98.63.04.42.15.71-.29.83.54.53.64,1.83,1.54,1.62.09.55-.03.6-.46.84.68.74.58,2.21.14,3.07l.31.08-.32.24.15.66c-.74.37-1.61,1.45-1.52,2.32-.81-.04-2.33-.08-2.31-1.15,0-.19.18-1.58.24-1.78.16-.55.61-.95.84-1.45-.43-.13-.16-.25-.21-.34-.02-.04-.23-.04-.25-.14-.11-.55.1-1.32-.17-2.08-.02-.06-.74-.83-.8-.86-.11-.06-.28.12-.5-.02-.6-.35-.43-1.19-1.58-.81-.33-.2-.33-.84-.36-.88-.1-.11-.84-.11-1.09-.21-.23-.09-.41-.39-.53-.41-.17-.03-.65.5-1.13.14l.15.46c-.69.07-1.54-.1-2,.54l.46.15-.3.62-.31-.08c.29.5-.51.84.13.99-.03.79-.53,2.51-.28,3.2.05.14.3.12.35.46.07.42-.48,1.16.56,1.36l-.47.84c.32.16.66.71.82,1.05.12.25-.04.51-.02.54.04.07.63.24.81.49.16.22.44,1.03.57,1.19.02.03.23-.08.29-.03.43.33.85,1.19.94,1.73l.6.02c-.27.97.53.93.62,1.69l.46-.31c-.1,1.02,1.16,1.63,1.46,2.31.1.23.03.53.09.64.31.58,1.05,1.01,1.21,1.75.59-.11.83.06,1.02.68.07.24-.05.46,0,.63.18.62.61,1.12.37,1.83l.61-.15c-.32.68.24,1.19-.01,1.91.03.16.44.06.56.23.04.06.27,1.17.31,1.39.04.23.19,1.28.2,1.46.01.34-.26.83-.26,1.09,0,.04.58.56.58.6-.06.52-.34,1.43-.4,2.02-.02.52.28,1.36.25,1.82-.04.67-.84,1.64-.52,2.55l-.55.16c.28.61-.15.48-.37.77-.28.37-1,1.76-1.08,1.83-.21.18-1.26.41-1.42.8-.04.08.11.28.04.43-.23.45-1.28.63-1.76.64l-.02.75c-.52-.35-1.24.32-1.62.3-.22-.01-.35-.26-.58-.27-.27,0-.66.27-.96.26s-.46-.33-.68-.38c-.18-.04-.28.25-.58.14-.45-.16-1.65-1.05-2.22-1.34-.78-.39-1.66-.17-1.52-1.33l-.31.16-.08-.47-.23.31c.23-1.26-1.95-2.42-2.07-3.23-.04-.28.2-.41.19-.66-.01-.23-.25-.47-.23-.77,0-.21.22-.44.2-.64-.01-.17-.35-.4-.24-.69l2.15-.46.62,1.39.28-.13c.34.44.22.93.38,1.43.03.1.43.08.17.71.25.19.77.27.97.49.14.16.13.45.22.54.02.02.24-.06.37.02.58.4.8.76,1.2,1.19.48.52.76.16,1.22.23s.73.48,1.4.26c.09-.03.78-.83,1.19-.98.35-.12.51.38.46-.38l.75-.02c-.26-.64.71-.77.9-.96.07-.07.02-.29.08-.36.13-.15.35-.15.49-.37.4-.63.09-1.32.55-1.84h-.46c.18-.27.03-.74.15-.96.14-.27.56-.2.62-.28.08-.1-.29-.87-.3-1-.06-.58.42-.54-.3-.93l.16-.74c-.42-.59-.55-2.26-.58-3.09,0-.21.34-.41.26-.69l-.46.15c.2-.43-.29-2.77-.47-2.91-.02-.02-.2.14-.26.1-.42-.28-.58-.87-.34-1.34-1.28.14-.74-2.08-2-1.85l-.3-1.16-.47.09c.08-.97-.78-1.37-1.07-2.24l-.78.24c-.33-.5.1-1.01.1-1.16,0-.05-.41-.78-.45-.81-.19-.15-.69-.07-.97-.35-.21-.21-.07-.46-.12-.58-.03-.07-.53-.16-.26-.65l-.45.15c-.27-.73-.92-1.14-.94-1.99l-.46.16-.05-1.32-.57-.23c.08-.21.14-.42.1-.65-.19-1.36-1.21-3.42-.99-4.76.07-.45.47-.84.42-1.34l-.61.08c.81-.71.44-.68.51-1.37.02-.17.34-1.62.39-1.69.12-.16.38-.05.45-.12.2-.19-.02-1.89.95-1.36-.35-.37.5-1.05.76-1.14.18-.06.35.09.52.07.07,0,.67-.52,1.15-.59.87-.12,2.51.34,3.03-.49.3.07.45.46.6.56Z"/><path d="M203.1,22.26l.48,1.53.31-.16c-.18.22-.01.86-.03.9-.01.03-.33,0-.39.44-.05.36.26,1.29-.34,1.28l.46.46c-.59-.02-.28,1.01-.77.93l.31.23c-.3.29-.4.7-.61,1.04-.18.29-1.01,1.28-1.12,1.53-.22.49,0,.99-.14,1.41-.05.18-.53.31-.59.64-.02.09.19.06.2.07.26.33.08.38-.19.16-.12.29-.2.71-.35.97-.48.82-.77,1.53-1.18,2.39-.08.18.12.53-.31.5l.3.91h-.62c-.15.6.58.08.62.46-.5-.07-.1.21-.24.32-.35.29-1.01.16-.84.69l.31.15c-.71,1.02-.99,2.38-1.08,3.62l-.46-.15c.1.75-.37,1.58-.54,2.37-.16.75-.4,1.24-.5,1.74-.08.37.3.68-.34,1.04l.46.15c-.06.44-.93,1.09-.92,1.23,0,.08.59.23.44.67-.68-.15-.97,1.54-.76,1.8.1.13.31.2.48.22v.29s-.77.4-.77.4c-.08.43.29.65.28.89s-.3.57-.28.79c0,.04.44.16.31.69h-.46s.31.31.31.31l-.77.7.46.46c-.39.04-.94.8-.91,1.08.02.17.52.06.47.62-.49.42-.15.45-.2.75-.04.2-.36.31-.38.48,0,.07.3.34.2.62-.12.32-.58.72-.56,1.22l.32.16c-.61.19-.35.55.15.23l-.18.9-.43.02.43.69c0,.28-.83.83-.85.89-.08.23,0,.44-.05.62-.03.13-.45.02-.14.92.05.14.31.11.3.18-.1.7-1.97.87-2.51,1.01-.04.01-.27.49-.73.21-.31-.18-.26-1.32-.37-1.45-.26-.32-.8.04-.85-.3.42.07.2-.31.31-.62l.61.15c-.6-.67.06-.99.31-1.61-.04-.26-.75.06-.46-.39.02-.03.23.04.27-.07.17-.49.37-1.74.53-2.15.05-.13.92-.66.12-.86.86-.66-.05-1.43.19-2.23.05-.18.71-.37.72-1.09l-.3-.13c.32-.27.26-1.04.37-1.25.09-.18.37-.17.41-.33.12-.46.12-1.28-.46-1.2l.61-1.31h-.46s.31-.23.31-.23l-.31-.23c.42.06.17-.2.3-.38.34-.5.34-.57.57-1,.11-.21.45-.36.5-.57.08-.32-.3-.49-.27-.71.07-.48.63-1.62.61-2.19-.01-.26-.27-.23-.27-.26-.11-.42.41-1.26.87-1.35l-.61-.46.27-.02c-.21-.65.12-.78.65-1.01l.15-.82h-.46s.31-.62.31-.62l-.31-.15c.49.08.24-.46.38-.78.22-.51.72-.72.39-1.38-.71.58-.78-.02-1.23-.21-.35-.14-.58-.06-1.05-.37-.28-.19-.86-.77-.8-1.12l-.46.16-.48-1.37-.58-.03c-.3-.36.2-.63.07-.91-.16-.34-.52-.47-.86-.31l-.18-1.21-.37-.02c-.07-.49-.33-1.22-.5-1.65-.36-.9-.58-.5-.96-.66-.04-.02,0-.92,0-.97.02-.11.24-.12.25-.14.19-.53-.54-.67-.66-.92s-.06-.73-.2-1.03l-.3.15c-.05-.98-.93-1.1-.46-2.15h-.46c-.08-.26.35-.09.31-.23-.17-.58-.72-.11-.62-.77.01-.07.97-.49-.23-.84-.07-.51-.16-1.22.54-1.09l-.16-.76h.61s-.15-.62-.15-.62c.19.02.42-.06.59.03.26.15.09.81.95-.11.52-.06.3.54.32.59.03.06.28.53.3.56.01.02.2-.13.26-.1.51.28.23.72.29,1.16.06.38.4.35.45.62.17.99.27.75.47,1.39.25.81.23,1.57.71,2.5.16.31.46.48.61.78.26.54-.17,1.34,1.04.88-.22.62.54,1.19,0,1.69l.62-.15.16,1.38.61-.15-.3.85c.66.23.21,1.16.9,1-.22.77,1.01.53,1.17,1.06.45-.18.64-1.43.85-1.84.88.37,1.08-1.48,1.43-2.13l.25-.18-.46-.31.26-.03c-.17-.49,1.05-1.24,1.17-1.55.14-.37-.06-.84.07-1.14.19-.42.78-.99,1.04-1.58.58-1.33.25-1.5,1.16-2.68.2-.25.11-.72.45-.94l-.46-.31c.15-.45.71-.38.74-.41.15-.15.17-1.03.79-1.42.26-.16,1.42.1,1.84-.08Z"/><path d="M99.85,21.48c.26.59-.4.69-.42.83s.17.37.1.61-.81.75-1.02.91c-.1.07-.14.39-.28.42-1.17-.64-2.58-.04-3.84-.31l-.15.47-.92-.47c-.14.61-.47-.16-.61.47-.55-.45-4.32-.46-4.37.23.68.71.23.81.19,1.24-.01.12.19.3.18.55-.01.37-.54.55-.38,1.2l.46.09c-.13.6-.54.45-.52,1.17.02.96.47.8.52.99s-.31.57-.37.82c-.15.64-.38,1.94-.21,2.56.02.09.28.06.27.14-.02.16-.31.63-.46.78-.05.12.29-.03.32.29.12,1.03-.34,2.37-.48,3.39l.46.08c-.13.79-.85,1.2-.07,2l.38-.3.1.32c.51-.25,1.15.31,1.6-.09.19-.17.09-.53.24-.55.26-.04.57.16.88.13,1.13-.1,2.16-.66,3.58-.56.39.03.44.45.76.45.11,0,0-.42.3-.31.34.15.08.51.12.58.02.03.23,0,.34.31.17.5-.4,1.19.39,1.26-.14.51-.56.32-.85.45s-1.59.86-1.75.87c-.42.03-.58-.24-.83-.21-.33.03-.75.09-1.1.13-1.06.12-1.32.33-2.45.37-.8.02-1.6.08-2.4.09.09.58.25,1.19-.15,1.69h.46c.12.39-.23.68-.25.99-.03.44.34.76.35.93.03.69-.66,2.2-.56,3.08.06.56.53.9.16,1.46h.46s-.62.71-.62.71c.13.77.79,1.07.16,1.83l.31.3c-.11.18-.27.44-.27.65,0,.18.62,1.92,1.04,1.59l-.31.25c.34.54-.08.97-.12,1.25-.04.34.18.71-.03,1.11l.31-.16c.01,1.08.43,2.07,1.09,2.91.8-.58,1.06-.06,1.61,0,.06,0,.06-.23.19-.29.16-.08.4-.06.54-.16.64-.48,1.17-1.57,1.8-1.92.2-.11.4-.09.61-.09l-.46-.3c.37,0,.4-.4.71-.6.44-.28,1.13-.11.98-.79.26-.06.09.21.18.28.08.07.31-.1.44-.05.15.06.24.3.38.39.32.2.71.19.8.87.01.08-.28,1.48-.31,1.55-.04.09-1.15,1.46-1.22,1.53-.31.27-.75.01-.47.58l-.1.16c-.19.17-.44-.09-.62,0-.44.23-.36.89-.68,1.15-.39.32-.69.12-1.01.22-1.55.5-1.58.23-2.85.41-.09.01-.04.44-.45.28-.14-.05-.17-.35-.35-.45-.5-.28-1.15.24-1.28-.61l-.45.15-.25-.61-.52.15v-.77s-.46.15-.46.15c-.21-.35,0-.79-.08-1.07-.13-.41-.71-.61-.79-.92-.06-.25,0-1.15-.06-1.63-.04-.39.43-.62-.45-.71-.07-.24.23-.75.23-.82,0-.19-.5-.79-.5-1.08,0-.31.47-.49.41-.84h-.46c.71-.84-.16-1.22-.15-1.3.02-.13.22-.34.24-.53s-.21-.35-.22-.55c-.02-.38.21-.78.21-1.07-.01-.69-.49-1.32.07-2.01l-.61-.3.63-.64c0-.5-.25-.66-.62-.9l.31-.61c-.7-.25-.2-1.5.15-2.01-.45-.21-.7-1.56,0-1.69v-.23s-.31-.07-.31-.07c.18-.31.17-.69.61-.71-.19-.38-.49-.68-.43-1.15.13-1.11.3-1.81.18-2.92-.03-.27.7-1.53.39-2.06h-.45s.48-1.3.48-1.3l-.48-.33c.25-.58.5-1.67.47-2.31,0-.19-.27-1.44-.47-1.37.67-.67.22-1.33.37-1.94.07-.29.37-.27.4-.4.23-1.07-.14-2.29.3-3.36l-.3-.15.16-.84h-.46c-.02-.3.14-.64.46-.62l-.32-.38.32-.69c-.53.1-.44-.15-.61-.55.51-.19,0-.83.76-1.07l-.46-.38c.32-.23.83.01.99-.03.22-.05.13-.62.75-.44.11.03.09.28.21.31.07.02,1.36,0,1.5,0,.05,0,.07-.4.63-.28.46.1.63.62.86-.17l1.3.45.14-.29c.46.08.92.24,1.39.27,1.54.09,2.11.11,3.5-.49.68-.3,1.39.07,1.95.44.53.36.55.92,1.39.53Z"/><path d="M256.13,24.65s.16.06.18.1c.41.83-.28,1.75-.41,2.58,1.33.16.05.71,0,.88-.25.79,1.02.88,0,1.5.56.31.12.82.18,1.07.06.28.86.18.53,1.17-.08.23-.39.43-.39.68,0,.3.44,1.28.31,1.76h.61c0,.36-.05.79-.46.78l.28.17c-.04.18-.15.71-.1.84.05.11.28.02.28.15,0,.29-.32.37-.4.62-.14.45.27,1.2.09,1.61.34.03.54-.3.76.08-.43.8-.4,1.69-.44,2.6-.02.41.4.87-.17,1.25l.77.31c-.65.39-.18,1-.22,1.16-.06.27-.46.43-.39.76h.77c.17.58-.6,1.08-.6,1.15,0,.15.16.45.15.78-.02.74-.16,1.47-.16,2.21l.61.26c-.2.45,0,1.12-.62,1.14l.32.37c.11.47-.39,1.31-.41,1.55,0,.05.3.75.33.99.11.79,0,1.82.38,2.39l-.31.15c.42.67.44,1.37.16,2.08l.46.07c-.28.75-.76.55-.46,1.46l.61-.15c.18.76-.35.78-.46.93s.24.41.25.53c0,.11-.31,1.19-.4,1.39l.29.14c-.35.54.31.69.31.76.02.43-.65.79-.6.85l.42.23-.26.7.46-.15c.28.32-.04,1.28.03,1.46.03.09.4.14.41.49,0,.17-.65,1.04-.79,1.29-.05.09.05.27.03.28-.15.12-.82.09-1.07.25l-.06.39-.77-.31-.22.31-.18-.6-.74.13c-.29-.23.03-1.58-.01-1.9-.01-.11-.28-.08-.31-.2-.02-.08.06-1.29.06-1.51,0-.19.42-.45.41-.76,0-.04-.57-.54-.58-.58-.03-.1.15-.39.12-.65-.03-.2-.25-.37-.26-.48,0-.15.55-.8.41-1.35-.01-.05-.35-.58-.44-.64.5-.88.04-1.05-.11-1.69-.08-.36.43-.79-.07-1.24l.31-.38-.61.15c-.15-.5.39-1.05.43-1.33.05-.39-.48-.78.03-1.28l-.62-.08.73-1.06c-.19-.52-1.21-1.18-.42-1.56-.1-.19-.59-.12-.42-.77.03-.11.2-.06.23-.15.16-.61.11-.97.61-1.54l-.56-.69c.48.07.29-.41.3-.77l-.46.15c-.1-.51.47-.79.47-.85-.02-.23-.28-.37-.28-.46,0-.17.54-.36.43-.69l-.62-.16c.55-.79-.47-1.9.46-2.23l-.46-.23c.25-.36.48-1.33,0-1.45.24-.37.51-1.23.01-1.38l.14-.55h-.62s.46-1,.46-1l-.46-.08v-1.92s.46-.16.46-.16c-.58-.39-.15-.88-.19-1.35-.03-.31-.5-2.15-.63-2.49-.06-.16-.65-.35.04-.93-1.08-.45-.04-1.03-.03-1.23,0-.09-.36-.43-.36-.77,0-.3.28-.66.26-1.08-.02-.3-.35-.2-.33-.3.06-.29.38-1.22.13-1.59-.07-.1-.42-.14-.43-.26,0-.04.33-.47.38-.68.07-.35,0-1.04.21-1.48l-.28-.22c.85-.09.46-.35.51-.43.32-.5,1.94-.37,2.46-.16.23.1.49.59.65.83Z"/><path d="M134.9,21.52s.41.8.43.88c.01.07-.22,1.24-.41,1.31l.32,1c-.14.19-.7-.18-.61.23.07.33.29.46.61.39-.6,1.03-.23,2.05-.59,3.06l.28.17h-.19s-.12.54-.12.54h.46s-.62,2.3-.62,2.3l.46.09-.15,1.91.31.16c-.58.18-.82,1.35-.31,1.54-.3.36-.55,1.65.15,1.62-.19.21-.37.7-.29.97.03.12.53.21.45.79-.04.35-.56.6-.43,1.08.03.11.3.01.28.29-.04.53-.5,1.62-.48,2.17.02.41.21.11.48.31.11.52-.25.73-.3,1.09-.13.82.34,1.5.31,2.29l-.47.08c0,.17.12.33.1.51-.08.75-.28,2.57-.09,3.23.11.36.27-.28.09.55-.1.45-.11.95-.25,1.4h.46c.1.08-.56.74-.58.86-.08.46.22,1.72.22,2.16.01.97-.3,2.61-.25,3.37.02.26.25,1.69.23,1.93-.05.48-.57.65-.16,1.38h.38c.14.23-.42,1.27-.42,1.63,0,.19.19.32.19.43,0,.36-.15.77-.08,1.16-.73-.29-.56.08-.73.14-.22.08-.75.28-.93.29-.53.05-.92-.59-1.57.03l-.17-.68c.21-.17.41,0,.32-.4h-.46c.34-.44.02-.9.05-1.29.03-.31.26-.73.34-1.09.08-.4-.24-.78.23-.7l-.28-.22.28-1.31-.61-.08.61-1.7-.46-.3c.19-.34.7-1.48.69-1.78,0-.4-.38-.84-.38-1.14,0-.23.22-.43.23-.62.11-1.53-.46-2.67-.32-4.31.03-.32.25-.98.39-1.3l-.62.07c.13-.68.88-1.19.6-1.98-.12-.33-.76-.05-.14-.95l-.31-.14.62-.77c-.57-.23-.41-1.04-.15-1.5.06-.1.27-.12.28-.13.02-.06-.11-.31-.11-.5,0-.17.16-.37.15-.47-.01-.14-.33-.1-.41-.31-.38-.97.21-1.73.25-2.49.02-.3-.34-.13-.33-.44.02-.33.26-.49.29-.65.04-.22-.22-.42-.24-.62-.04-.56-.06-1.54.27-1.96-.22-.38-.43-.05-.77-.08.16-.44.19-.84.77-.77-.25-.64-.18-1.2-.25-1.86-.02-.23-.22-.47-.21-.68,0-.25.58-.62.4-1.23l-.56-.23c0-.37.7-.69.72-.83.04-.24-.18-1.21-.57-1.24.24-.54.66-.46.72-.61.32-.75-.36-1.14-.38-1.24-.06-.19.27-.59.27-.77.02-.45-.46-.9.31-1l-.46-.52c.12-.29.09-.62.16-.9.03-.13.24-.1.26-.19.05-.26.04-1.85.1-1.92l.31-.16c.82.28.66.15,1.23-.3.19.6.87.72,1.12.96Z"/><path d="M56.45,20.09l-.31.61.46-.15-.16,1.43.47.33c.01.12-.54.76-.58.96-.01.05-.03.9-.03,1.02,0,.09.29.07.36.42.17.92-.22,1.18.23,2.36.09.23-.35.88.18.92l-.56.92c.43.38,0,1.08.56,1.23-.59.55-.49,2.29-.15,2.89.14.26.4,0,.15.88l.31-.16c-.16.4.14.75-.31.84l.46.77-.46.61.29.3c-.43.8-.13.87-.01,1.43.09.4-.39.58.35.91l-.2.8-.43.03c.39.59-.11,1.36.61,1.61-.24.39-.52,1.39-.01,1.53l-.45,1.24c.11.04.42.43.43.46.08.37-.22.66-.24.92-.04.61.11,1.31-.03,1.93l.62.08c-.45.09-.04.52-.62.54l.28.22.16,1.23-.43.31c.1.72.52,2.27.44,2.93-.03.23-.26.37-.28.5-.03.19.27.36.28.58.02.28-.41.64-.3,1l.31-.16c.29.78-.36,1.8-.32,2.39s.72.94.02,1.61c.97.27.26.88.29,1.47.02.34.52.07.15.72-.07.13-.29.14-.29.22-.02.43.78,1.11.58,1.53-.12.25-.39.15-.54.27-.15.13-.08.46-.29.59-.26.16-.78.11-1.1.24-.24.1-.15.6-.66.28-.08-.05-.46-1.33-1.22-.85-.05-.07.15-1.41.19-1.62.02-.08.24-.06.27-.17.02-.09-.06-1.69-.07-1.83-.03-.23-.44-.65-.37-.91.04-.17.36-.19.42-.27.22-.35-.16-.79-.2-1.12-.02-.16.12-.39.07-.61-.08-.38-.46-.87-.47-1.25,0-.1.58-.72.48-.99l-.61.08c.3-.98.57-2.05.53-3.07,0-.13-.22-.28-.2-.44.05-.28.6-.52.28-1.03l-.61.15.46-1.23h-.62s.63-.99.63-.99c.03-.35-.14-.53-.48-.55.23-.26.37-.65.27-1-.02-.07-.23-.05-.26-.18-.21-.8.29-1.22-.17-1.81v-.23s.47,0,.47,0c-.57-.88,0-1.83-.04-2.57-.02-.49-.27-.91-.27-1.35,0-.52.53-.94-.3-.85.17-.36-.1-.77,0-1.12.04-.17.6-.11.38-.89-.07-.24-.37-.43-.35-.65.02-.25.41-.48.43-.79.01-.28-.25-.56-.28-.81-.03-.33.39-.66.12-1.1h-.6s.46-.71.46-.71l-.46-.08c.7-.71.23-1.39.23-2.07,0-.31.2-.58.22-.78,0-.07-.33-.05-.37-.35-.05-.31.14-1.17.06-1.46-.04-.13-.25-.11-.3-.21-.31-.61.27-1.01.17-1.48-.02-.1-.26-.1-.28-.12-.18-.39.28-2.99.26-3.87,0-.37-.37-1.14-.06-1.63.06-.09.27-.13.32-.21.1-.18.46-.96.54-1.01.11-.06.33.12.49.1.21-.03.43-.26.49-.26.07,0,.51.84,1.15.6Z"/><path d="M220.52,16.54c.33-.07,1.02-.27,1.3-.23.27.04.66.74,1.23.13.41.18.4.6.55.92.06.13.27.11.27.19,0,.57-.57,1.29.17,1.7-.55.62-1.6,1.41-2.38.84l-.24.77c-.25.07-.11-.21-.18-.26-.14-.1-.74.23-.59-.51l-.9.19-.1.43c-.42.08-.63-.26-.93-.31-.5-.09-1.63-.04-2.18-.03-.23,0-.43-.1-.65-.12v.45c-.3.14-.66-.12-.86-.12-.08,0-.04.24-.16.28-.71.21-.78-.69-1.51-.46l-.08.47c-.91-.21-1.88-.11-2.78-.38-.29-.09-.27-.3-.33-.34-.14-.08-.68.08-.42-.52-.55-.14-.32.18-.61.31-.32-.45.25-1.11.25-1.31,0-.12-.26-.22-.18-.38.02-.04.63-.59.67-.6.33-.11,1.17.01,1.24-.03.1-.06.35-.97.8-.48l.09.35c.55-.1,1.26-.03,1.8-.16.08-.02.71-.56,1.11-.55.21,0,.35.22.46.25.1.03.06-.24.1-.26.11-.04.48.1.66-.05l-.08.31c.5-.1.9-.29,1.38,0l.24-.62.83.16.09.61c.8.08.78-.42.94-.47.64-.19.35.4.82.31v-.77s.17.29.17.29Z"/></g></svg>