<?xml version="1.0" encoding="UTF-8"?><svg id="Layer_2" xmlns="http://www.w3.org/2000/svg" viewBox="0 0 289.48 107.99"><g id="lham"><path d="M88.68,19.24l.91-.18c-.17.75-.48,1.91-.22,2.66.1.27.38.26.4.38.06.3-.21.69-.02,1.02,1.13.3.63,1.34,1.48,2.05.66-.52.84.28,1.38.27.27,0,.95-1.28,1.18-.19l.74-.66-.2-.61c.84.03,1.52.11,1.91-.73l.55.36c.38-.84,1.2-.25.65-1.44.88-.12,1.08-.95,1.99-.75l-.36-.91c.21-.07.75-.11.87-.23.42-.42-.29-1.26,1.5-1.23l-.18-.54c.53-.02,1.1.36,1.55.38.53.02,1.02-.45,1.37.08-.35.53-.33.75-.18,1.36l.73-.18c-.03.36-.1.96-.54.91-.08.32.3.12.36.18.05.06-.53.84-.32,1.55.03.11.38.01.33.35-.05.31-.37.59-.45.99-.29,1.45.18,3.85.02,5.37-.02.15-.2.28-.31.39l.54.28c.07.32-.28.11-.34.2-.09.11.28,1.15.7,1.17l-.36.37.36.17c-.3.52-.58,1.42-.56,2.02.02.34.27.23.33.36.19.41-.31.49-.37.68-.41,1.27-.11,3.65-.22,5.16-.02.34-.69.38.46.72l-.75,1.27.56.91-.74.38c.04.17-.04.55.03.61.1.1.59-.16.53.19l-.55.28c-.07.16.29.03.34.18.11.33-.74,2.19-.68,2.72l.16.19c1.11-.1.05,1.27-.01,1.82-.08.71.31,1.1.29,1.39-.11,1.98-1.15,4.34-.46,6.4.04.13.28.13.32.24.2.55-.68.81-.71.94-.06.32.28.89.02,1.32l.73.28-.86.72c-.17.58.65.64.66,1.13,0,.23-1.4,1.17.02,1.16-.12.84-.46,2.02-.27,2.83.08.34.6.41-.28.63v.27s.36.18.36.18c-.51.66,0,1.61-.07,2.55-.04.64-.68,1.26.25,1.38v.18c-.5-.08-.21.26-.29.37-.17.22-.6.05-.43.53l.36.11c-.35.78-.41,1.67-.64,2.45-.13.44-.71.57-.1,1l-.28.27c-.96-.38-1.15.78-2.16.16-.05-.03-.78-.69-.8-.74-.03-.09.17-.4.07-.7-.27-.9-.89-1.28-.3-2.27-.11-.34-.53-.02-.55-.19,0-.1.06-.69.09-.82.51-1.98.27-3.92.58-5.98.07-.44-.09-1.04-.19-1.37-.07-.21-.34-.41-.3-.49.02-.04.56-.15.73-.64l-.73-.64c.54-.47-.16-1.2.73-1.28l-.55-1,.36-.26c-.42.06-.37-.35-.53-.65.85-.3.18-1.18.24-1.63.04-.3.68-.52-.08-.72l.73-.73c-.77-.27-.51-1.34-.18-1.91h-.55c-.13-.92,1.19-1.75.79-2.68-.11-.26-.56-.28-.53-.69l.47-1.29-.35-.16.72-3.2h-.73s.16-.8.16-.8l.57-.11c.11-.32-.29-.45-.3-.63,0-.17.41-.97.3-1.44-.05-.22-.43.02-.36-.29l.73-.19-.37-.27c.79-.26.29-.89-.36-.82l.37-.82-.38-.18.55-.55c-.42-.4-.42-1.28-.29-1.8.15-.59.91-.78.66-1.75h-.73c-.09-.05.42-1.86.73-1.64v-.18s-.54-.01-.54-.01c-.15-.75.4-1.03.51-1.4.18-.56-.19-.99-.15-1.41.05-.52,1.11-1.33,0-1.84l.17-.61-.35-.11.34-.18-.16-.64h.55c-.01-.97-.88-.78-.18-1.64l-.67-.34-.43.24c.06.75-.63.51-1.2.79-.42.21-.92.81-1.13.87-.46.12-2.14.4-2.4.53s-.28.54-.45.61c-.45.18-1.44-.14-1.83-.12-1.01.06-2.08.87-2.66-.55-1.02.63-1.66-.09-1.8-1.12-.94.5-.61,1.09-.77,1.68-.08.28-.33.46-.43.87-.07.29-.13,1.58.29,1.55l-.73,1.13-.03,2.16-.33.09c-.02.28.47.3.52.38.07.11-.27,2.28-.89,2.26l.73.36c.16.64-.5.26-.36.82l.36-.09c-.18.49-.04,1.36-.18,1.78-.07.22-.38.19-.45.3-.06.1-.01,1.66-.46,1.92l.54.45c-.52-.05-.49.69-.55,1.1l.73.09c-.13.32-.61.68-.69.95-.54,1.85-1.04,4.55-.84,6.34.04.38-.7,1.95-.66,2.17l.74.37c-.17.27-.94,1.35-.98,1.58-.09.52.47,1.7.42,1.78-.06.08-.5.05-.64.48-.03.09-.24,1.73-.24,1.83,0,.08.31.06.34.2.19.77,0,.89-.73.79-.1.05.23,1.89.14,2.23-.19.71-.26.65-.4,1.51-.04.25-.49.36-.49.91,0,.43.39.6.38,1-.47.11-.78-.13-.91.46s.74,0,.72.45c-.18-.01-.33.07-.43.22-.42.66-.96,1.95-1.28,2.71-.34.81-.49,1.22-.84,1.95-.09.2-.14,1.09-.19,1.13l-.65-.17c-.1,0,0,.36-.34.36-1.32.01-1.09-.8-1.54-1.75l.49-.3c-.33-.61.25-.84.31-1.07.06-.25-.05-.43-.02-.6.1-.48.57-.93-.26-1.31l.34-.11.12-1.28.45.02-.37-.98.74-.84-.37-.1.38-.91c-.47-.02-.44-.81-.3-1.11.09-.2.38-.19.44-.35.28-.69-.52-2.54-.12-3.25.13-.23.44-.26.48-.4.08-.27-.34-.91-.22-1.38.14-.54.61-.79.62-.84.03-.16-.12-.4-.08-.63.25-1.38-.07-.86-.11-1.18-.12-.93.93-1.65.19-2.43.85-.07.67-1.12,0-1.37.09-.52.84-1.01.85-1.08.09-.54-.8-1.64-.27-2.26.04-.05.59.04.69-.49l-.55-.18c-.04-.83.47-1.19.65-1.81.08-.27-.09-.69-.05-.79.1-.23,1.02-.35-.02-.84l.68-2.46-.54-.19.33-.09c-.2-.51.11-1.06.4-1.47l-.36-.09v-.27c1.12-.44.31-1.42.27-2.18-.02-.48.07-1.97.1-2.55.05-.87,1.3-1.86.18-3.01.44.07.27-.42.49-.87.13-.26.6-.21.38-.87-.03-.1-.32-.08-.33-.19,0-.07.21-1.36.23-1.43.1-.26.48-.24.52-.41.1-.43-.3-.7-.31-.89-.01-.22.42-.7.48-1.11.05-.37-.17-.84-.06-1.12s.44-.28.51-.4c.03-.06,0-.81.19-1.28.29-.73,1.64-1.54.27-2.01l.36-.27-.36-.37.92-.58c.31-.45-.26-.67-.19-.78.5.03.98-.6,1.24-.72.29-.14.88.03,1.23-.49l1.55.38c.5.31-.29.74-.19.82Z"/><path d="M130.58,18.38c.06.05.04.23.04.32l.36-.28.35.2c-.3.6.26.96.28,1.63.02.75-.56,1.43.12,2l-.39.91.55.55-.72.27c-.08.29.24.11.3.23.62,1.2.05,1.36-.08,2.41-.11.97,0,2.11.14,3.07l-.37.21c.13.39.47.73.48,1.17,0,.17-.49.96-.44,1.73.04.58.37.96.33,1.44s-.58,1.15-.54,1.21c.01.02.27-.04.37.12.11.19.09.46.19.65.08.14.28.14.31.23.19.54-.61.77-.66.91-.02.04,0,.87,0,.91.05.15.53.58.62,1.27.11.89-.29,1.33-.39,2.09-.06.47.17,1.09-.08,1.65l.82.18-.09-.54c1.01.29,1.81.16,2.77-.2.16-.06.15-.33.27-.35.34-.06,1.39.3,1.77.18.15-.05.09-.37.21-.36.33.01,1.05.78,1.27,0,.84.79,1.92-.45,2.93.16l.25-.26-.17-.44c.8-.44,1.79.85,1.55-.65-.03-.2-.14-.38-.27-.54l.91-.27v-.55s-.73,0-.73,0c-.15-.91,1.63-1.53.37-1.82l.55-.64c-.66-.09-.7-1.52,0-1.55v-.27c-1.04-.42-.27-.93-.23-1.09.32-1.34.42-2.88.53-4.19.03-.33-.71-.92.07-1.54l-.36-.18.36-.18-.36-.09.37-.91-.55-.18c.07-.39.73-.66.74-.76.05-.41-.63-1.04.35-1.16-.73-.72-.03-1.5.01-2.28.02-.36-.21-.69-.2-.89,0-.11.33-.08.37-.23.21-.81-.32-1.07.89-1.41.91-.26,1.21.33,1.46,1.12l-.36.34c.66,1.08.16,2.38.27,3.37.04.37.4.9.4.99,0,.25-.77.62.25.82-.68.59-.51,1.56-.36,2.37l.54-.18c-.17.75-.72,1.66.19,2.1l-.73.64.54.36-.36.36.31.03c.19.78-.27.68-.45.91-.06.07.11.35.07.51-.39,1.61.25,1.11.26,1.73,0,.19-.44.75-.57,1.1s-.25,1.48.2,1.45l-.37.82c1.66.2.17,1.05.05,1.31-.04.09.04,1.17-.05,1.42l.73.18-.38.11c.42.67-.33.86-.71,1.44.68.49.9.6.71,1.54l-.53.1c1.11.74-.49,2.32.73,2.92-.46.15-.19.56-.75.76-.12.59.67,1.26.69,1.43s-.36.5-.13.81l-.54.02c-.18.54.32,1.77.31,1.91-.02.26-.67.44,0,.48l-.14.33h.55c-.43.79-.92,1.05-.72,2.06.01.07.47.16.35.74-.04.19-.53,0-.36.48l.56.1c.29.97-.43,1.27-.55,1.82-.08.37.04,1.38.54,1.45-.59.2-.68,1.26,0,1.46-.6.82.44,1.69,0,2.73l.55.09c-.22.34-.51.34-.66.86-.03.1-.03.56.02.61l.65.27-.03.61-.51.03c-.12.63.01,1.18.71,1.27v.18c-.49-.09-.42.57,0,.64-1.12.67.28,1.87,0,2.89-.04.15-.38.1-.37.21.01.29.37.44.37.72,0,.24-.45.81-.55,1.1l.36.09c-.36.4-.27.58-.18,1.08-.41.1-.91.3-1.33.19-.14-.04-.11-.34-.25-.37-.18-.03-.43.15-.63.09-.13-.04-1.03-.43-1.06-.48-.05-.07.14-.39.04-.65-.14-.36-.64-.61-.75-1.1-.17-.81.02-3.11-.29-3.79-.1-.22-.25-.26-.47-.27v-.18c.5.08.21-.24.3-.37.16-.23,1.14-.6-.03-.72l-.08-.72h.54c.07-.43-.49-.85-.48-1.19,0-.5.82-.82-.25-1.28-.19-.6.45-.43.54-.82-.89.1-.33-.18-.42-.33-.03-.05-.25-.03-.28-.13-.1-.35.37-.68.43-.91.03-.11.05-2.22.03-2.34-.14-.69-.62-.61-.67-.67-.06-.08.29-.39.3-.63.01-.26-.49-1.81-.44-2.04.09-.38.47-.58.46-.69,0-.1-.29-.27-.29-.52,0-.44.56-.7-.03-1.21l.55-.28-.54-.1c-.08-.91.75-.97.35-1.98h-.72s.32-.65.32-.65l-.33-.18c.11-.06.67-.63.69-.67.07-.17-.45-.6.23-.51l-.73-.18c-.19-.19.81-1.96.01-2.08.2-.55.1-.64.72-.74l-.33-.11v-.63c-.5-.62-1.6.05-2.15.08s-1.53,0-2.14,0c-1.3,0-3.63.53-5.19.87-1.03.23-1.95.07-2.59,1.06l.32.12-.14.33h.55c-.3.48-.02,1.14-.09,1.48-.04.2-.33.41-.4.67-.15.56-.44,1.97.31,2.04l-.36.18.37.44c-.05.66-.71.6-.56,1.1.02.08.35.07.37.2.02.16-.04,1.48-.36,1.17l.34.2c-.26.41.06.82.02,1.16-.05.51-.93,1.22.37,1.46-.83.28.12,2.19-.91,2.28v.18c.26-.22.67.94.67,1.01,0,.28-.7.35.06.54-.35.26-.47.54-.19.92l-.54.09c-.07.33.31.11.36.18.05.06-.51,1.04-.37,1.45h.73c-.08.61-.25.85-.91.92.64.77.06,1.23-.1,2.02l.46.43-.54,1.28.55.54-.55.73.73.54-.91.75.55,1.52-.73-.36.18.52c-.61.02-.71,1.02-1.33.89-.19-.04-.42-.31-.67-.42-.21-.09-.55-.02-.69-.12-.2-.14-.16-1.06-.95-.88-.06-.66.17-.76.73-.55-.15-.44-.42-1.17-.46-1.62-.03-.31.23-.49.19-.77-.05-.39-.47-.7-.49-1.17-.01-.32.31-.22.37-.4.22-.65.32-1.16-.33-1.42.07-.57.46-1.35.44-1.89,0-.23-.06-1.16-.08-1.36,0-.06-.56-.1-.32-.75.03-.09.24-.09.29-.24.4-1.15-.3-1.1-.27-1.51.05-.75,1.29-1.28.29-1.72,1.43-1.02-.09-1.81-.12-1.99,0-.06.03-1.14.04-1.22.08-.45.86-1.3.09-1.27.37-.29.29-1.42.1-1.73-.14-.23-.48-.23-.48-.37,0-.11.38-2.15.74-1.9l-.46-.53c.25-.26.12-.97.15-1.02.11-.24.51-.21.51-.37,0-.22-.28-.46-.3-.71-.04-.58.23-2.24.27-2.94l-.36-.17.38-1.36h-.55s.19-1.7.19-1.7l-.38-.21.38-.73-.34-.18c-.15-.57.69-.82.7-.93.05-.48-.72-1.37,0-1.81l-.54-.09c-.18-.82.31-1.08.73-1.64l-.31-.04.08-.61-.5-.35c.69-.41.16-1.42.72-1.37v-.36s-.53-.27-.53-.27l.91-1.64-.57-.73c-.11-.78,1.34-1.87-.35-2.1v-.18c.68.13-.07-1.15.73-1.1l-.34-.27.52-1.37-.55-.09c.57-.51.32-1.19.44-1.73.37-1.68.42-3.6,1.07-5.33.23-.6.91-.96.68-1.78.31-.1.39.21.54.25.19.05.42-.1.51-.03Z"/><path d="M29.77,16.35c.12.14-.05.83.02,1.13.03.14.37.12.37.22.01.25-.31.62-.33.93-.04.7.85,1.79-.05,2.61h.55c-.03.7-.5,1.27-.12,1.97.03.06.28.02.29.04.06.09-.9,1.75.02,1.92l-.74.99c.83.07.39.8.43,1.34.03.33.29.64.28.95,0,.34-.78,1.5.38,1.36-.44.78-.3,1.73-.42,2.59-.04.29-.46.51-.13,1.05l.55-.18c.03.38.16.8.01,1.18-.17.44-.47.41-.53.55-.14.33.54.88.62,1.17.04.16-.38.77-.28,1.16.04.16.31.15.37.26.26.49.17,1.19-.19,1.61l.37.36-.56.91.37.18c-.54.51-.09,1.89.65,1.91l.16-.36c.54.29,2.03.73,1.74-.18l.8.16.11.57h1.09s0-.91,0-.91c.51-.06.89.48.94.5.18.07.6-.46.52.22.31.08.12-.28.2-.34.32-.26.92.7.98.71.05,0,.49-.5.92-.47.3.02.9.57,1.67.59s.84-.48.89-.49c.27,0,1.05.53,1.35.19s-.36-.38-.38-.47c-.09-.67.73-.62.47-1.71-.23-.98-.52-1.47-.4-2.62.04-.38.76-1.04-.05-1.03.7-.76-.53-.9.69-1.54-.04-.2-.23-.43-.23-.61-.02-1.31-.21-2.68-.28-4.13-.02-.48.5-.74-.18-.91.51-.37.08-.96.55-1.47l-.38-.37c.21-.69.7-2.78.55-3.42-.03-.13-.51-.18-.48-.58.03-.29.36-.48.42-.76.17-.83-.13-1.85-.02-2.7.05-.38.42-.99.44-1.29,0-.06-.9-.25.01-.73l-.16-.41,1-.92c.82-.02.85,1.09,1.03,1.23.13.1.46,0,.5.03.05.04-.13.42-.12.6.06.63.39,1.94.41,2.41,0,.3-.55,1.17-.29,1.73l.37-.09c-.61,1.21-.09,2.3-.18,3.54h.55c-.15.52-.24.77-.73,1.01l.55.09c.02.66-.59.71,0,1.27l-.33.02-.03.25c.28.27.48.53.54.93.19,1.26-.64,2.89-.54,4,.02.22,1,1.82.18,1.98.9.75-.42,1.32.38,1.46-.55,1.1.32,2.54-.38,3.65.93.33-.49,1.25.91,1.45-.41,0-.3.5-.41.6-.21.19-.64-.26-.45.81.11.62.65,4.99.55,5.24-.06.15-.32.28-.38.5-.45,1.53.47,1.78.49,2.51.01.31-.14,1.46-.15,2.01-.02.69-.57,1.12.35,1.01.1.5-.54.75-.56.85-.07.35.35,1.01.02,1.52l.54.08-.91,1.65.32.11c-.55.88,1.53,1.34-.13,1.63.05.98-.33,2.72.91,2.99-.6.14-.2.34-.3.63-.17.48-.89,1.3-.07,1.54-.63.73.18,1.32-.18,2.1l-.36-.18v.91s.55,0,.55,0c-.42.87-.98,1.44-.18,2.36-.36,0-1,.83-.73,1.1-.83-.17-2.33.07-2.58-.88l-.34.16.18-.91h-.55c.39-.72-.15-1.58-.09-2.17.03-.31.27-.6.24-.8-.08-.47-.74-.95.04-1.68-.82-.13.19-1.36,0-1.54h-.73c-.02-.5.78-1.01.84-1.18.11-.3-.2-.76-.2-.92,0-.66.13-.62,0-1.52-.06-.43.36-.67-.28-.84.59-.36.07-.54.07-.72s.57-1.04.29-1.56l-.36.18.19-.99-.38-.19.37-.18c-.88-.63.09-1.48-.02-2.19-.04-.28-.34-.49-.31-.69.02-.13.25-.28.28-.45.12-.64.09-1.32.18-1.96-1.14-.5.07-1.19.07-1.8,0-.12-.3-.1-.38-.22-.44-.73.06-1.34.18-2.06-.92.3-1.12-.72-1.21-.75-.95-.28-1.02.38-1.08.39-.5.04-.6-.55-.97-.64-.57-.13-2.92-.07-3.76-.1-.43-.02-1.32.38-1.19-.18h-.27s-.19.37-.19.37c-1.18-.46-2.47-.43-3.74-.37v2.17s.91.28.91.28c-.5.11-.18.32-.36.54-.32.38-.98.25-.54,1.23.08.18.36.11.37.41.01.44-.44,1.14-.35,1.47.01.06.36.71.51.71-.46.69-.48,1.31-.53,2.09l.72.29c-.48.14-.19.2-.36.54l-.57.2.04.77.7.3c-.47.9-1.4,2.25.19,2.37l-.91.65c.59.62.03,1.24.17,1.87.04.16.43.05.37.38-.06.36-.45.68-.51,1.15-.03.22-.2,2-.18,2.11.04.24.49.64.45.95-.03.2-.42.35-.46.57-.05.23.31.57.34.9.01.12-.04,2.24-.08,2.36-.1.36-.32.51-.47.81l.73.09c-.17,1.04-1.61,1.14-.73,2.18-.24.43-.8.16-1.06.32-.12.07-.09.4-.33.47-.2.05-.5-.37-.44.22-.73-.4-.22-.98-1.25-.94-.1-.8-.3-1.78-1.3-1.61l.36-.36-.36-.09c.55-.83,1.12-.98.71-2.08l-.53-.1.72-1-.91-.1c.04-.98.62-1.05.7-1.29.19-.56-.22-1.46.39-1.98l-.54-.36c.87-.53.06-.92.36-1.73-1.19.53-.18-.7-.05-1.06.07-.2.29-1.27.24-1.31l-.73-.09c.26-.1.92-1,.73-1.18l-.73-.09c.2-.73.71-2.02.75-2.72.02-.35-.12-1.84-.2-2.16-.04-.15-.37-.1-.37-.22,0-.31.59-1.01.55-1.08-.87-.56-.62-1.75.19-2.19.08-.56-.07-.47-.55-.46l.37-1.01c-.51-.15-.19-.28-.25-.41-.05-.12-.5-.27-.08-.92l.51-.03-.56-1.17.53-.37c.1-.52-.68-.86-.69-.92,0-.09.78-1.3.54-1.74l-.36.09c.41-.61.25-1.64-.36-2,.62-.42.33-1.14.43-1.61.07-.38.82-.74-.24-.67.06-.45.3-.95.35-1.38.16-1.2.03-2.32.02-3.43,0-.12-.33-.01-.38-.36-.17-1.12.36-1.21.35-1.28-.02-.55-.24-1.28-.28-1.65-.02-.22.26-.4.3-.55.03-.1-.33-.06-.37-.2-.14-.53.47-1.25.37-1.89l-.55.09c.22-1.6,1.12-1.93.35-3.58-.07-.15-.34-.16-.33-.23.06-.55,1.12-1.7,1.09-2.36,0-.11-.34-.01-.39-.36-.15-1.06.42-3.89.55-5.13.03-.26-.23-.67-.15-.77.03-.05.9-.57,1-.58.53-.08,1,.36,1.52.39Z"/><path d="M185.49,22.34c.1-.75,1.05-1.16.93-.21.98-.27,1.29.69,1.63.86.21.11.52-.13.54-.11.02.02.04.46.14.68.2.41.47.74.65,1.18.35.84-.08,1.83,1.4,1.61.09.04-.23,1.7-.19,1.89.02.14.36.1.37.23.04.55-.43.62.56,1.1-.79,1.19.41,1.41-.02,2.44h.55c-.5.76.74,1.69-.37,2.1l.73.09c.31.81-.41,1.28-.55,1.74-.03.09.27.04.36.23.06.12-.05.38.05.54.07.12.42.12.45.3.01.06-.11,1.15-.13,1.26-.04.15-.37.12-.37.23,0,.22.28.61.31.94.03.27-.14.73-.09.86.11.26.51.23.53.41s-.19.44-.15.67c.04.26.51.45.23.85-.09.13-.41.19-.54.36-.36.45.44.76.46.85.06.28-.19.72-.19,1.07,0,.77.4,1.49.18,2.27h.55c-.56.95-.67,1.62-.2,2.66l-.35.17.71.36c.05.76-.72.58-.72,1.19h.73c-.31.42-.14,1.01-.22,1.37-.02.09-.32.07-.33.2-.07.53.99,1.97.51,3.06-.11.25-.44.22-.5.42-.13.39,0,1.22-.18,1.69h.55s-.15.34-.15.34l.33.12-.35.11c.33.87.17,1.64-.74,1.9l.5.54-.32.55.37.18v.37c-.13.28-.56.2-.69.3-.06.04-.31,1.43.08,1.28l-.13.33.55.18c-.63-.1-.06.71-.37,1.16-.16.24-.49.31-.61.48-.48.66-.29,1.91-.52,2.77-.08.3-.38.65-.49.97l.53.45c-.46-.03-.5.48-.72.78-.66.89-.22.46-.5,1.17-.23.59-.82.85-1.15,1.15-.22.2.56.09.36.45-.7.43-1.39.72-1.82,1.46l.36.18-.52.3.14.31c-.28.08-.52.23-.8.28-1.64.32-4.47-.21-5.82-1.19-.31-.23-.22-.6-.4-.73-.34-.24-.85,0-.99-.07-.44-.25-.38-1.5-.44-1.56-.23-.22-.56-.09-.78-.22-.08-.05-.95-1.51-1-1.64-.17-.44.07-1.29.01-1.5-.01-.06-.41-.64-.58-.96-.45-.87-.58-.52-.74-1.78-.03-.26-.78-.82-.29-1.54h-.55s.17-.84.17-.84l-.35-.17.36-.64-.9-.2.35-1.36c-.47-.17-.43-.78-.55-1.23-.04-.16-.34-.11-.34-.21.02-.49.2-1.03-.06-1.62-.19-.42-.73-.07-.33-.85h-.55c.32-.67.93-2.7-.17-2.56.14-.45-.18-1.25.53-1.27v-.36s-.36-.09-.36-.09c.38-.28.69-1.43.69-1.86,0-.26-.29-.4-.28-.66,0-.39.37-1.42.51-1.85l-.72-.29.67-2.09-.66-.87c.04-.51.7-.66.72-.79.05-.41-.54-.68.18-.9v-1.16s-.74-.09-.74-.09l.91-.82c-.52-.69-.27-1.52.18-2.18l-.36-.09c.79-.49.29-1.23.53-1.98l.56-.12-.55-.45c1.15-.44.42-1.21.57-1.64.04-.1.34-.06.34-.19,0-.17-.2-.37-.15-.67.07-.41.82-1.42.82-1.5,0-.1-.4-.52-.22-1.1.1-.33.72-.95.76-1.05s-.1-.29-.02-.49c.39-1.01.94-1.89.65-3.09l.88-.21-.16-.88.52-.29-.36-.45h1.09c-.23-1.22,1.13-1.46.91-2.37l.54.18c.08-.46.23-1.49.7-1.13.76-1.21,2.85-.78,3.86.04ZM183.42,25.7c-.21-.1-.43-.18-.65-.26-.12.59-.99,1.43,0,1.64.07.25-.25.19-.45.36-1.21,1.04-1.56,2.69-2.02,4.17-.04.14-.34.28-.41.51-.21.66.2,1.47-.41,2.15l.37.18c-.57.59-.46,1.53-.67,2.28-.09.34-.49.63-.58,1.39-.12.96.17.95.28,1.63l-.67.27c.4.57-.11.99-.12,1.18,0,.15.44.45.29.89l-.72.29.36.18c-.62.56.05,1.09-.35,1.74.91.28-.2.84-.2.91,0,.36.27.85.2,1.45-.04.38-.31.59-.33.86-.03.65.46,1.52.16,2.22l.52.37c-.72.49-1.32,1.71-.36,2.19-.88.51-.2.87-.24,1.28-.02.2-.42.35-.47.57-.08.41,1.04,1.85-.02,2.43h.73c.06.04-.35,1.13-.32,1.33.08.56,1.02,1.34,1.04,1.66,0,.16-.42,1.34-.36,1.37l.64-.14c.63.34-.01.72-.03.97-.04.55.54,1.34,1.21,1.19-.22.22,0,.76-.02.82-.04.11-.35.08-.34.17.04.49.98,1.16.36,1.92.69-.07,1.14.59.36.82.9.29.33.72.41.97.01.04.56.34.69.52.34.49-.05.92,1.09.97-.34.57.07,1.17.48,1.61.71.77,1.48.67,1.72.85.14.1.14.47.26.45.52-.09.39-.59.65-.81.13-.11.4-.04.56-.22.19-.22-.03-.84.07-.97.48-.58.46-.47.75-1.16.13-.32.09-.71.43-.94l-.37-.17c.45-.25.4-1.46.46-1.56.16-.25,1.07-.49.5-.73l-.41-.09c.51-.35.37-1.27.57-1.6.18-.29.5-.34.6-.49.08-.13-.07-.95.46-1.21l-.18-.34-.54-.1c.66-.66.26-1.31.56-2.08l-.37-.28.7-.21c-.4-.8-.02-1.93-.16-2.59-.03-.14-.31-.12-.34-.21-.02-.08.12-1.41.13-1.65l-.34-.17c.34-.6.36-1.13.91-1.72l-.54-.28.36-.45c-.51-.03-.78-.65-.53-1.08l.71-.1-.66-1.46c-.03-.48.45-.44.47-.47.03-.05-.43-.67-.21-.97l-.51-.11.38-1.71-.38-.19c.66-.87.13-1.78.55-2.71-1.67-.89.07-1.92-.55-3.4l-.36.18c-.09-.5-.18-.7.18-1.09l-.35-.08c.54-.62-.31-1.2-.32-1.47,0-.08.43-1.31.67-1.27-.34-.43-.83-1.96-.83-2.45,0-.28.32-.47.28-.64s-.42-.21-.5-.31c-.07-.08.14-.74.08-.94-.08-.28-.47-.4-.5-.76-.08-.82.02-1.39-.33-2.39-.09-.25-.34-.24-.38-.37-.07-.27.02-1.73-.17-1.96-.5.05-.8-.42-.85-.43-.3-.07-1.11.17-1.46.16-.3-.01-.27-.27-.34-.3Z"/><path d="M63.73,17.4c.69-.29,1.12.64,1.48.88.05.03.23-.12.29-.09.22.15.38.86,1.13.69l-.37,1,.33.11-.15.52.73.19-.16.7c.7.1.42.87.58,1.38.13.43.55,1.64.77,2.05.03.07.41,0,.09.41h.55c-.25.46-.01.87-.05,1.32-.05.62-.43.9-.05,1.97.35,1,.39.43.48,1.73.04.58.35,1.75-.2,1.82.86.37,1.53,1.01.18,1.19.58.57.27,1.41.37,1.87.03.14.28.13.35.27.12.24.06,1.62-.35,1.58.53.61-.2.98.91.83.08.3-.24.12-.3.21-.04.07.06.25,0,.33-.1.14-.4.13-.44.31-.02.07,0,1.32,0,1.39s.71.49.19,1.13l.54.09-.37.3v.87s.55.11.55.11l-.33.2c.13.36.11.56-.22.8l.58.35c-.06.28.14.94.11,1.12,0,.07-.65.44-.33,1.18l.54-.18c-.27.31-.02.65-.04.82-.01.11-.28.07-.31.22-.28,1.11,0,.75.16,1.1.18.39.54.85.55.9.15.63-.16,1.44-.16,2.13,0,.32.29,1.31.39,1.66.03.1.25.07.28.18.11.39-.02.84-.5.82l.66.81-.3.92c.53.14.45,1-.18,1l.55,2.18-.55.09c.32.47.73.51,1.27.46.08.29-.26.13-.3.21-.05.09.08.29-.04.43-.14.16-.47.21-.53.3-.3.48,1.02,2.33.87,3.32-.06.42-.31,1.36-.31,1.79s.38.93.13,1.4l.54-.18c.19.66-.68,1.61-.37,2.06.09.13.37.12.37.23,0,.78.21,2.06.09,2.72-.06.33-.6.45.05.48l-.15.42.34.2-.16.35.37.2c-.19.19-.24.49-.45.65-.47.37-.85-.11-.46,1.08l-1.54.37c-.54-.75-1.3-.77-1.65-1.82l-.45.36c.09-.44.34-.48-.16-.63l.35-.91-.38-.2v-.33c.81-.9-.04-1.53-.09-2.28-.02-.26.27-.4.27-.65.01-.48-.56-2.41-.63-3.18-.04-.44.57-1.3-.64-1.29.23-.53-.04-.99.01-1.52.09-.95,1.13-2.55-.19-2.5.04-.52.29-1.39.18-1.87-.03-.14-.35-.11-.37-.24-.06-.34.21-.66.2-.87,0-.1-.6-.38-.48-1.75.04-.41.18-1.56.49-1.55-.6-.61-.1-1.96-.27-2.37-.12-.29-.77-.31-.29-1.17-.31.02-.66-.06-.96,0-.39.09-.82,1.31-1.32.17h-.36c-.13.76-1.31-.32-.82.91l-1.02.17-.1-.3c-.66.32-.72-.11-1.16-.32-.59-.28-.31.37-.73.28-.1-.02-.19-.95-.54,0l-1.54-.36-.29.72-.8-.57.16-.34c-.53-.17-.24.6-.82.36-.21-.09-.32-1.02-.73-.36-.07.12.15.69.11,1-.04.35-.27.58-.3.81-.08.64-.01,1.3-.22,1.93.14.38.73.04.68.53-.09.93-1.65.98-.41,2.2l-.49.57.35.52c-.67.16-.06.75-.06,1.23.01.87-.48,1.1-.49,1.17-.03.18-.17,2.22-.15,2.34s.44,0,.34.54c.07.35-.49.39-.53.55-.4,1.41-.33,4.83-.8,5.99-.1.24-.56.99-.8,1.54-.32.75-.78.95-.86,1.43-.13.77-.85.36-1.1-.12-.03-.05-.21-1.12-.21-1.18-.03-2.45.98-5.18.99-7.48,0-.27-.41-.85-.29-1.1s.45-.13.5-.53c.13-.99-.31-1.82-.31-2.38,0-.35.61-.83.49-1.43-.01-.06-.98-.5,0-.93-.85-1,.34-1.72.18-2.82l-.54-.09c.21-.26.1-.71.54-.64l-.36-.27.35-.11c-.4-.82.22-1.24.34-1.86.25-1.39-.35-3.26-.14-4.78.07-.49.45-.83.48-1.16.04-.39-.67-.56.04-.58l-.15-.42c.96-.36-.65-1.45.15-1.41l-.16-.59.56-.57-.37-.09c.58-.51.15-.91.23-1.44.04-.31.37-.97.31-1.17-.03-.13-.31-.09-.33-.2-.06-.37.13-1.24.51-1.46l-.54-.18c.41-.34.02-.78.53-.9-.19-.43-.37-.77.18-.91-.43-1.26.66-2.74.94-4.02l-.38-.35c.43-.48.21-1.14.29-1.47.25-1.03,1.16-1.96.45-2.91.12-.33.53-.07.55-.1.03-.06-.03-.99.09-1.28.42-.94.92-1.93,1.25-2.78.08-.21.23-1.86.31-1.95.07-.07.54.1.81-.19.03-.04.42-.81.43-.85.04-.27-.33-.46-.33-.51,0-.12.45-.26.55-.38.22-.25.33-.82.18-1.17.7.1.77-.65,1.09-.82.64-.33.85-.28,1.67-.78.04-.03.69.11.97-.23l.3.71ZM65.3,28.41c-.09-.11-.45-.16-.47-.32s.34-.53.29-.89c-.08-.48-.71-1.77-.7-2.22.01-.55.61-.73-.08-1.55-.17-.19-.5.06-.68-.41-.19-.5.44-1.73-.77-1.8-.98-.05-.75.44-1.12.91-.11.15-.33.19-.43.33-.96,1.34-.71,2.88-1.29,4.28-.14.35-.78.45-.35,1.41l-.72.28c.84.99-.4,1.08-.2,2.18l.55.18c-.44.75-1.29,1.48-.96,2.43l-.3.1c.6,1.33.22,2.12-.37,3.31l.36.16c-.85.63-.17,1.64-.2,1.8s-.41.31-.51.75c-.08.37.43,1.74.31,2.18-.06.24-.47.2-.52.41s.15.94.19,1.22l-.37.29.32.03.05.43c-.06.3-.66.56-.7,1.31-.04.8.75,1.67-.04,2.42h2c.09-.17-.52-.66.28-.65.57,0,.27.6.81.47l-.18-.54c.26.17.6-.04.79.02.31.1.25.57.39.52.18-.06.65-.46.94-.48.49-.03,1.89-.16,2.13-.07.11.04.13.31.16.33.06.03,1-.13,1.24.04l-.09-.73c1.02-.12.55.93,1.73.91-.24-.83.46-1.72-.54-2.27l.53-1.55c-.65.11-.3-1.12-.41-1.25-.08-.1-.43-.12-.48-.32-.03-.12.74-1.83.53-2.35l-.54-.18.36-.74-.37-.17.36-.55c-1.17-.7-.46-.7-.23-1.31.19-.51-.66-.88.19-1.42-.71-.78-.93-2.02-.32-2.92-.7-.2-.33-1.09-.18-1.62l-.73-.58c-.04-.17.97-.97.31-1.84Z"/><path d="M217.82,20.83c.36.26.88-.11,1.09.46s-.37.83.87.96c-1.04.86-1.3,2.18-1.63,3.48l.35.26c-.99.22-.56.88-.53,1.55.03.95.06.45.13.73.25,1.09-1.2,1.28-.33,1.63-.26.91-.63,2.37-.56,3.3.03.36.36.25.36.35-.02.32-.31.91-.26,1.29.04.27.66,1.19.67,1.26.04.78-.58,1.07-.58,1.64s.84,1.24.02,1.46l.9.75-.72,1.07c-.13.48.46.19.55.28l-.19.44.37.11-.73.46c.2.61.61,1.06.37,1.73l.36-.19c-.14.31.07.87-.08,1.09-.09.13-.39.14-.44.21-.08.11.15.39.11.58-.07.33-.72.56.05.75l-.55.92.37.21c-.37.67.32,1.19.31,1.72,0,.17-.11,1.43-.13,1.51-.03.14-.37.12-.38.22,0,.13.44,2.28.56,2.36.14.09.37.08.54.09.08.3-.25.13-.31.21-.06.09.09.36-.05.57-.08.13-.38.11-.38.23,0,.24-.01,1.87.02,1.97.07.21.8.27.43,1.01-.2.39-1.4,1.55-.08,1.47l-.37,3.46c.13.09.67-.21.55.27-.61.56-.72,1.22-1.27,1.83l.54.27-.33.09c.26.62-.12.78-.56,1.1l.33.99-.71.21.16,1.25c-.8-.06-1.63,1.77-.53,1.84l-.34.2.15.34c-.22.15-.83.03-.93.09-.15.09.06.71-.53.65l.36.36c-.63.03-.71.78-.54,1.27-.45-.04-.82.16-1.2.34-.53.25-1.65,1.12-2.03,1.26-.24.09-.53.03-.78.04l.1.73-.83.17v-.54s-.82.38-.82.38c-.19-.71-.66-.22-1.11-.28-.94-.11-1.97-.6-2.63-1.29-.16-.16-.07-.39-.18-.53-.58-.75-.99-.24-1.08-.3-.04-.03-.52-.77-.53-.82-.07-.32.35-.81.3-.95-.04-.11-1.49-1.13-1.26-1.85l-.73.18c.44-.84-.36-2.1-.78-2.94-.13-.25-.42-.34-.44-.38-.22-.5-.01-1.04-.74-1.5l.5-.55c-.04-.33-.83-.78-.87-.92-.12-.41.42-1.18.31-1.61-.06-.21-.44.01-.36-.29l.36-.08c0-.42-.51-.69-.51-.73-.02-.27.13-1.63.19-1.97.04-.25.32-.55.31-.59,0-.13-.39-.2-.48-.32-.33-.43.12-1.39.13-1.95l-.73-.1c0-.31.33-.65.29-.91-.05-.39-.7-.34.44-.74v-.6s-.5-.04-.5-.04c-.68-.46,1.44-1.68-.05-1.97l-.19.27c.13-.56.01-1.16.73-1l-.42-1.23c-.74-.14.22-.77.25-1.05.08-.76-.31-.61-.35-.73-.15-.42.73-.79-.04-.92v-.35c-.02-.35.4-.37.5-.51.4-.6-.18-1-.25-1.65-.04-.41.23-.69.23-.94,0-.7-.36-1.71.05-2.56l-.35-.19.19-.44h-.55s.19-.63.19-.63c-.92-.24.3-1.53.31-1.65,0-.08-.43-1.31-.43-1.46.01-.31.43-.55.48-.93.03-.27.02-2.95-.05-3.09-.13-.24-.51-.22-.51-.37,0-.4,1.33-2.47-.17-2.45v-.18c.86,0,.03-1.64.73-1.73l-.37-.37.37-.63-.72-.27c.43-.49.54-1.42.78-1.87.05-.09.32-.12.39-.24.2-.33-.09-.74.45-.81.89-.11,1.62,1.11,2.37,1.39-.35.68.16.46.2.64.22.97,0,2.57.25,3.51.03.13-.04.26-.08.38l.73.1-.19.82-.73-.18c-.1.31.21.38.25.54.04.18-.07.37-.05.43.06.16.53.09.34.73-.04.13-.32.1-.35.23-.07.26,0,1.12-.2,1.52h.73s-.67,2.46-.67,2.46l.77,1.09c-.02.68-.91,1-.11,1.73l-.36.37.55-.09c-.43.83-.02,2.04-.19,2.7-.04.14-.35.12-.37.24-.07.44.29,1.21-.17,1.87l.74.31c-.01.48-.67,1.77-.53,2.17.03.09.27.09.29.14.07.27-.16.54.23.86l-.73.27c1.09.62-.08,2.13.91,2.55-.3.22-.71.73-.81,1.16s.18.86-.1,1.3h.73s-.66,2.1-.66,2.1c.36.69.47,1.37-.07,2,.28.42.52.24.91.09.07.65.05.92-.56,1.19.36.68.55,1.23.19,1.98l.74.75-.36.09v.36c.65-.07.3,1.01.36,1.55.1.82.37,1.62.36,2.46h.73s-.18,1.09-.18,1.09l.72.2-.14.33.33.02-.37.3.19,1.16.54-.19v.55s.27-.36.27-.36c.61.44.74.89.64,1.64l.54-.36v1.09c.71.08,1.42-.09,1.92.55.36-.75,1.95-1.13,2.06-1.95.09-.65-.54-.37.58-.87l-.37-.18c.35-.66.16-1.03,1.09-1.19l-.73-.64.91-.46-.54-.36c.94-.12.56-1.41,1.27-1.46l-.54-.63.91-.46c-.47-.47-.13-.9-.19-1.53-.03-.3-.34-.84-.32-.94.03-.21.5-.27.61-.45.1-.17-.06-.42-.02-.61.14-.71.4-1.29-.61-1.6.17-.57.09-.71.71-.8l-.72-.29.18-.9.54.18c.2-.81-.33-.86-.36-.91-.06-.09.24-.28.28-.45.2-.96-.34-2.71-.43-3.7-.05-.55.38-.73-.21-.86l.55-.64-.69-.29c-.14-.9.25-.73.42-.98.25-.37-.14-.65-.18-1.01s-.25-3.03-.21-3.19c.08-.31.3-.47.38-.73.05-.17-.14-3.01-.59-3.19.03-.24-.01-.48-.01-.72,0-.5.06-1.98.15-2.36.05-.22.44,0,.37-.3l-.73.09c.08-.42.13-.76.55-.91l-.55-.36c.05-.37.6-.53.66-.72.19-.7-.33-2.12.07-2.83h-.73c-.23-.23.44-1.86.46-2.27.03-.69-.35-1.89-.02-2.58.09-.2.35-.13.5-.53.25-.69.25-2.79.42-3.65.16-.81.51-1.15.8-1.67.15-.27.11-.75.26-.94.26-.35,1.63.09,2.05-.19.2.04.22.38.34.47Z"/><path d="M157.76,21.1c.2.61.06,1.16.3,1.8.13.36.96.81.1,1.17.16.32.82.05.38.9.91.35.49,1.94-.02,2.56l.73.27c-.28.51-.36.87-.21,1.43l-.34.03.36.27c-.66.88-.37,1.98-.54,3.01l.36-.18c-.04.48.26,1.07,0,1.51-.08.13-.33.14-.43.37-.17.39.1.83-.12,1.22l.73.18c-.51-.07-.21.22-.32.49-.2.47-.68,1.07-.54,1.61.02.1.27.09.28.18.06.65-.43,1.82.23,2.01l-.55.37c.86.44.18,1.26.1,1.82-.09.62.13,2.13.05,2.38-.05.16-.35,0-.34.17.52.15.37.47.44.92.13.85-.23,2.01-.23,2.91l.26.26.45-.08c.12.38-.69,1.2-.69,1.27,0,.1.3.3.32.56.05.53-.09,1.66,0,2.33.02.12,1.23.65-.18,1.04.48.44-.08,1.19.55,1.09l-.37.27v.37s.47.66.47.66l-.46.43.51.92-.7.58c.1.43.11.96.21,1.38.04.15.28.12.33.26.17.43-1.02,1.41.02,1.78l-.55,1.1.54.36c-.01.39-.63.92-.67,1.12-.05.29.31.76-.04,1.16l.54-.18v.81s.55.1.55.1l-.32.21c.25.46-.41.23-.04.7h-.55c.48.44.72.49.53,1.27l-.53.11.55,3c.4-.02.19-.5.21-.52.88-.6.89.53.97.52.42-.3,2.85-1.04,3.15-.86.06.04.05.32.14.33.59-.58,1.39-.05,1.74-.1.94-.12.43-.24,1.53-.13,1.16.11.74-.69,1.56-.33l-.18-.36c.05-.07,1.53-.22,1.7-.19.13.03.13.29.17.3.08.03.22-.09.27-.06.55.43.54,1.21,1.15,1.51.1.97-1.43,1.91-1.11,2.79-.43.26-.92,0-1.28.09s-.83.59-1.03.62c-.31.05-.62-.6-1.08-.65-.67-.08-2.1.41-2.53,1l-.57-.5c-.68.14-1.85.46-2.52.35-1.6-.27-.92-.08-2.2.03-.68.06-1.59-.24-2.29-.28-.05-1.02-.97-.45-1.19-.82-.14-.23,0-.59-.08-.79-.17-.46-.33-1-.56-1.63-.05-.15-.32-.13-.32-.22,0-.51.51-1.68-.39-1.74l.36-.36h-.36s.72-.82.72-.82c.08-.15-.32-.02-.37-.21s-.13-1.67-.13-2.02c0-.13.03-.78.04-.97.03-.53.24-1.25.28-1.81-.33-.22-1.15.54-.58-1.21.08-.26.33-.23.36-.34.02-.09,0-1.48.03-1.83.06-1.14-.26-.83-.48-1.26-.05-.1,0-2.11.02-2.29.12-.84,1.21-2.5-.07-2.64.56-1.08.48-2.3.68-3.47l-.86-.27.37-.43c-.01-.68-.51-.87-.52-.93-.06-1.06.68-1.77.34-2.83l.56-.1v-1.54s-.56.18-.56.18v-.8s.7-.38.7-.38c-.02-.84-.63-.58-.69-.65-.29-.3.98-1.79-.19-1.82l.36-.55-.36.09c.01-.43.71-.89.81-1.18s-.19-.9-.08-1.35c.04-.17.79-.11-.18-1.12l.37-.18-.54-1.35.72-.29-.72-.28c.3-.39.73-.73.7-1.25l-.7-.3c.73-.53.74-.9.64-1.74l-.65-.17.2-.62-.38-.29.32-.03c-.15-.35-.09-.27.21-.42l-.16-.47.36.19v-.55s-.55.18-.55.18c.24-.58.09-1.18.91-1.09-.98-.89.14-2.21,0-2.79-.03-.13-.49-.05-.27-.85.09-.32.35-.64.39-.85.12-.71-.25-1.64.43-2.33-.27-.17-.46.02-.37-.45,1.03-.25,1.58-.01,2.53.21Z"/><path d="M7.63,15.55c.22.33.73.88.81,1.28.09.49-.3,1.21-.02,1.82.12.26,1.07.79.24.78v.36s.37.1.37.1c.08.34-.37.61-.35.88.03.32.54.61.48.9-.09.5-.2,1.15-.32,1.68-.06.25-.98,1.15.35.82-.12.34-.41.82-.37,1.19.05.45,1.15.5,0,1.27v.27c1.04.21.03.84.02,1.36,0,.33.32.72.29.92-.03.25-.98.79.06,1.27l-.55.36c.58.37.06.72.04,1.13-.02.31.3.52.28.85-.02.49-.89,1.86-.14,2.03-.9.61-.29.79-.23,1.43.08.81-.27,1.77-.3,2.41-.02.33.11.7,0,1.06l.53.21c.09.65-.57.96-.66,1.35-.05.22.3.39.26.61-.07.43-.56,2.17-.54,2.59.04.81.57,1.19.2,2.51-.04.16-.36.13-.36.23-.01.26.3.72.29,1.09-.02.94-.04,1.51.11,2.5.1.69.57.67-.21,1.59,1.01.16.48,1.19,0,1.74l.54.36c.03.34-1.84,1.31,0,1.46-.53.22-.87.91-.18,1.09l-.55.82.33.03-.17.6.38.2c-.62.41-.3,1.14-.41,1.6-.19.77-.7,1.27-.5,2.32h.55c-.32.68-.7,2.07-.56,2.79.05.23.54.2.56.49l-.73.55c.65-.06.37.85.18,1.28h.53s.03.81.03.81l-.56.19c.13.41.53.84.65,1.19.08.23-.12.52-.1.54.09.12.97.14,1.22.25.12.05.73.87,1.1,1,.05.02.97.05,1.02.04.15-.03.12-.36.24-.38.25-.03.6.21,1.03.16.49-.05.42-.51.76-.53.92-.04.02.73,1.01.56l-.09-.73,2.27.73.09-.36c.92,1.35,2.47-1.04,2.92,1.27.11.58-.34,1.69.25,1.66l.02.34c-.64.31-1.41.5-2.05.75-.16.06-.15.35-.26.36-.23.02-.49-.19-.72-.18-.26.01-.44.31-.54.31-.11,0-.32-.36-.58-.46-.72-.28-2.32.37-2.69.32s-.62-.47-.92-.48c-.22,0-1.34.28-1.19.66h-.18c-.14-.78-1.71-.27-2.1-1.09l-.19.38c-.06,0-1.13-.27-1.18-.31-.25-.16-.28-.48-.49-.62-.31-.22-.89-.28-1.16-.62-.16-.21.01-.52-.11-.78-.16-.33-.55-.37-.6-.54-.2-.74.31-1.62-1.09-.78-.34-.6.39-1.25.37-1.36-.06-.38-.44-.49-.52-.77-.23-.75.31-1.18.41-1.78.16-.89-.02-2.49-.07-3.46-.03-.68-.04-1.89-.56-1.92l.55-.82-.37-.18.37-.63c-.69.07-.22-.67-.25-1.1-.04-.58-.72-.78.25-1.18l-.54-.1c-.1-.1.02-1.16.15-1.34.14-.19.51-.06.55-.11.1-.11-.31-2.4.37-2.82l-.72-.27.37-.27-.38-.19.74-1.63-.56-.19c-.02-.15.07-1.17.14-1.32.11-.23.39-.21.42-.35.1-.44-.32-2.09-.3-2.77.02-.86.41-1.59.47-2.12.08-.71-.75-2.76-.36-3.42.07-.11.33-.1.37-.26.08-.39-.12-1-.36-1.32l.36-.11c-.59-.82.38-1.36.36-1.44-.17-.79-.19-.76-.26-1.65-.01-.18-.35-.34-.29-.44.03-.04.71-.07.74-.65.03-.53-.63-.61-.01-1.17l-.54.18-.36-1.01c.61-.15.31-.65.4-.91.03-.09.26-.06.31-.22.08-.27,0-.62.18-.88-.55-.12-.5-.53.02-.35.01-.32-.31-.59-.29-.91.02-.45.94-1.81.1-2.01l.39-.9-.56-.37c.79-.63.19-1.06.27-1.57s.96-1.28.81-2.09c-.11-.6-1.21-.4.02-1.09-.56-.63-.11-.9-.09-1.36.08-1.58.02-3.91.3-5.38.02-.12.49-.01.15-.45.14-.1,1.09.14,1.29.28.15.11.02.33.07.4Z"/></g></svg>