<?xml version="1.0" encoding="UTF-8"?><svg id="Layer_2" xmlns="http://www.w3.org/2000/svg" viewBox="0 0 289.48 107.99"><g id="lomo_saltado"><path d="M65.51,19.99l-.05.5-.31.12.36.09-.35.71c1.36.27.22,1.74.22,2.44,0,.35.45.61.43.85-.01.13-.25.28-.26.41-.03.34.13.63.09.82-.04.22-.41.32-.31.64,1.24-.25-.08,1.35,0,1.42l.53-.18c-.08.37.16.81.13,1.13-.03.34-.51.91-.49,1.26,0,.11.29.09.32.19.16.46-.15.92-.67.8l.36.8c-.68.23-.15,1.07.53.98l-.89,1.6h.54s-.18.71-.18.71l.53-.09c.06.6-1.04,1.35-1.06,1.44-.03.17.24.35.26.52.04.31.21,1.17.21,1.25,0,.31-.62.69-.48,1.15h.71s-.8,1.04-.8,1.04c-.02.53.21,1.23.18,1.73-.01.24-.28.47-.29.69,0,.07.75.33.73,1.08l-.54.45.54.09c.13.69-.57,1.01-.63,1.42-.1.63.4.84.41.89.14.63-.02,1.73-.13,2.4l.71-.17c-.56.44.01.7-.08.89-.06.13-.38.25-.4.44-.04.33.56,1.08-.06,1.69h.89c-.43.74-.76,1.35-.69,2.23.03.4.54.67.16,1.33l.71-.18c.04.58-.65,1.28-.65,1.69,0,1.04,1,2.88,1,3.94,0,.46-.35.58-.36.86,0,.11.32.06.36.21.17.64-.16,1.12.2,2.23.24.75.27,1.4.44,1.97.41,1.35-.14,2.1-.21,3.24-.02.33.36.71.1,1.15-.64-.3-.97-.03-1.52.35-.09.06-.64,1.01-1.06.37-.12-.18-.07-.52-.19-.71-.41-.62-.98-1.54-1.12-2.28-.11-.57-.1-.82-.27-1.34-.09-.26-.31-.45-.31-.75,0-.37.33-.58.34-.86.01-.59-.58-.39-.68-.59-.21-.38-.08-1.13.19-1.48h-.54s.36-2.67.36-2.67l-.35.18c-.06-.09.19-1.68.15-1.76-.12-.21-.95-.04-.15-.91-.56-.04-.86-.62-.18-.8l-.54-.09.71-.98c-1.29-.64.77-3.05-.9-3.39-.23-.79,1.26-1.97-.18-2.5l.18-1.3h-.52c.22-.94-.02-2.04.14-2.97.07-.44.43-.93.41-1.2-.01-.1-.27-.1-.29-.15-.42-.93-.08-.52.1-.78.56-.84-.32-.79-.36-1.22l.71-1.07-.36-.18c.44-.44-.22-1.17-.15-1.42.05-.16.41.04.33-.26h-.35s.37-.8.37-.8l-.37-.18.71-1.78-.71-.28c.1-.45.38-.82-.18-.96.43-.52,1.23-2.6.36-2.76l.36-.29c-.3-.69.46-1.52-.18-2.11l.51-.28c-.34-.44.02-.96-.03-1.29-.02-.15-.25-.31-.3-.57-.07-.34.48-.79-.45-.81-.32,0-1.11.29-1.34.47-.19.15.05.37-.09.44-.53.3-1.7.13-2.28.38-.51.22.08.78-1.1.13l-.17.34c-.65-.17-1.45-.12-2.11-.08s-.96.52-1.46-.25h-.26s0,.35,0,.35l-.21-.3c-1.01.1-1.23-1.68-2.44-.65-.14.41.11,1.89.32,2.26.15.25.58,0,.55.2l-.3.12c.26.61-.54.79-.56.94-.01.12.25.51.25.81.02.71-.12.96-.02,1.86.04.4-.39.74.27.89-.66.18-.66,1.54-.53,2.1.03.14.29.12.32.21.08.22-.49.97-.32,1.33,1.04-.58.4.89,0,1.16l.35.09-.35.89.71.09c0,.8-.59.53-.71.63-.03.02.05.64.06.67,0,.04.29.03.28.11-.03.57-.91,1.6.15,1.91l-.1.3.32.2c-.69-.03.14,1.03-.89.54-.03.53.7.54.71.62.16.8-.55.76-.55.9.42.48-.02,1.1.54,1.23-.08.39-.64,1.39-.68,1.64-.03.21.28.41.31.69.11.84-.66,2.43.36,2.83-.74.83-.04.76,0,.92.24.92-.34,1-.34,1.06-.04.57-.32,1.48-.32,1.73,0,.35.39,1.05.43,1.41.1.86-.18,1.14-.26,1.83-.06.52.41,1.47.27,2.1-.23,1-.64.2-.36,2.09.05.34-.24.66.15.85l.43-.17c-.14.21-.01.72-.04.8-.05.16-1.08.75-.13,1.06-.87,1.25.14,1.31-1.49,2.08-.5.24-.69.1-1.09.14-.31.03-.54.43-.9.36l-.22-.26c.54-1.05-.54-1.25-.75-1.54-.07-.09.6-1.46.26-2.21-.18-.4-.57-.39-.62-.45-.11-.16.3-1.27.87-1.05l-.19-.52-.34.17c-.29-1.14-.03-2.45.53-3.47l-.34-.16c.22-.62.29-1.43-.55-1.36.22-.24,0-.68.03-.79.01-.06.61-.7.63-.89.01-.12-.26-.44-.24-.8s.36-1.14.4-1.53c.05-.42.15-1.44-.29-1.4l.23-.09c.54-.33-.4-.45-.41-.62-.01-.22,1.32-1.73,0-2.13.92-.68.45-.64.42-1.07-.01-.21.29-.44.3-.7,0-.12-.98-.35-.72-1.23.04-.14.36-.12.35-.2-.05-.37-.34-.69-.26-1.32.06-.5.72-.79-.27-.74.14-.26.02-.6.12-.84.18-.42.67.06.12-.84,1-1.26-.23-1.3-.36-1.86-.09-.4.39-.85.43-1.18.03-.22-.17-.49-.14-.66.03-.19.48-.18.54-.39.05-.2-.26-.58-.27-.88-.02-.53.37-1.58.07-2.31-.12-.29-.81-.24-.14-1.33h-.54c.4-.59,1.56-3.18.18-2.67l.36-.44-.36-.18c.17-.22.65-.9.68-1.1.03-.23-.76-.98.21-1.12l-.71-.35.53-1.77-.71-.09c.43-.18.25-.58.84-.88.11-.56-.45-.88-.47-.93-.09-.33.43-.73-.19-.85.68-1.13,1.07-1.54.18-2.68l.53-.09-.35-.35.33-.02-.16-.69h.52c-.24-.78,1.08-.81,1.57-1.21l.22.05c.63.18,1.07,1.38,1.61,1.52l-.35.35h.71s-.18.53-.18.53l.53-.36c.21.61.56.67,0,1.24.19,0,1.3.65,1.35.71.09.11-.2.84.31,1.2.07.05,1.55.54,1.68.56.61.11.64-.46,1.02.38l.66-.67.85.14-.18-.35c.49-.17,1.37-.36,1.77-.64.33-.23.45-.64.84-.94.45-.35.84-.2,1.04-.36.26-.21,1.32-2.17,1.15-2.33l-.53-.18,1.42-.54-.35-.35c.41-.02,1.03-.62,1.34-.64.12,0,.5.19.85.2.27,0,.5-.22.56-.22.18.02.63.71,1.16.48Z"/><path d="M155.68,19.95l.12-.32c.69.48,1.1.33,1.43,1.25l.53-.35.18.17c-.05.4.42.79.43.84.11.36-.04.96.21,1.36.23.35.59.23.66.32.14.17-.19.8.38.68l-.35.35.53.09-.18.45c1.12,0,.64.64.73,1.15.07.39.27,1.72.38,1.93.19.38.59.8.79,1.23.05.12-.24.27.23.39-.14.48-.26.67-.7.9v.26s.32.02.32.02l-.14.51h.89c-.15.47-.23.78-.71.97l.37.96.69.02c-.53.98.38,2.02-.18,3.02h.54c-.65,1.46,1.23,1.6.39,2.99.4.49.79.04.67.56-.43-.18-.46,1.28-.35,1.47.08.13.21.16.35.14v.17c-.66.05-.17,1.36-.71,1.87l.53-.09-.36,1.24.71-.09-.18.8-.7.36.79-.18c.14.53.51.14.81.45s.24,1.14.89.8c-.01.61-.09,1.21.35,1.69-.54.39-.87.11-.71.98h-.88s-.02.7-.02.7l-.52.02c-.15.15.4,1.95-.19,2.22l.69.11.2.6-.71.09c.39.52.04,1.27.69,1.5l-.33,1.52.35-.18c.11.78.79,1.41.18,2.13h.71c-.09.34-.16.77-.13,1.11.05.54.42,1.46.45,1.86.03.36-.77.64.04.86,0,.26-.3.45-.28.81,0,.09.28,1.49.32,1.56.05.07.34-.05.31.12l-.54.44h.71c-.31.6.16,1.7-.71,1.79.62.69.11,2.18.27,2.86.09.4.8.65-.02,1.2-1.21.82-2.19.18-3.44.37-.15-.8,0-1.26-.56-1.94l-.51.17c-.19-.13.44-3.66.33-4.51-.14-1.12-1.01-3.01-1-3.97,0-.42.39-1.06.84-1.03-.37-.65-1.02-1.07-.71-1.87h-.53c-.11-.31.3-.46.3-.62,0-.13-.3-.31-.3-.54s.3-.42.32-.58c.14-1.18-.25-2.67-.56-3.81-.12-.47.33-.6-.47-.94l.53-.62c-.3-.04-.51-.29-.81-.35-.98-.19-.42.23-.53.53-.29.79-.85-.16-.92-.18-.83-.21-.71.41-1.27.44-.33.02-.58-.19-.82-.18-.53.02-1,.38-1.6.09l.09.36c-.39.05-.58-.32-.97-.33-.18,0-1.29.13-1.59.16-.13.01-.1.29-.19.31-1.42.25-3.17-.97-3.12,1.46l.71.09c-.58.91-1.1,2.17-.22,3.03-.12.22-.36.32-.45.57-.45,1.3.02,3.16-.75,4.23.82.24.16,1.33-.35,1.52l.48.79c-.72.49-.42,1.01-.85,1.6l.36.19c.03.38.09.67-.36.6l.33.19c-.13.92-.32.54-.69.69-.04.01.25.42.16.76-.08.29-1.11,1.08-1.06,1.72-1.04-.12-1.37-.73-2.11-1.32.45-.54.65-.66.49-1.43-.02-.1-.27-.07-.29-.17-.15-.82.42-.9.51-1.11.22-.58.17-2.26.09-2.8-.07-.44.37-.53-.44-.89l.36-.2c-.16-.45-.12-.59.17-.95l-.35-.09c.39-.6.52-1.42.34-2.09-.03-.12-.58-.34-.13-.99l.5-.03c-.56-.53-.09-.6-.04-1.01.07-.55.11-.72.2-1.22.07-.4,0-.83.2-1.23l-.71-.09c.2-.47.08-.84.71-.71-.04-.61-.54-1.94-.5-2.45.04-.56.46-1.05.46-1.41,0-.44-.66-.9.05-1.74l-.36-.27c1.29-.43.2-1.97.88-2.92l-.7-.28.33-.2c-.21-.69,0-1.21.55-1.67l-.53-.27c.31-.36.25-.84.41-1.19.03-.07.64-.3.47-.82-.04-.14-.35-.12-.35-.2.02-.19.37-1.13.71-.99l-.53-.36.71-.8-.71-.27.9-1.86c-1.67-1.2,1.46-3.33.52-4.89.92-.35.62-2.04,1.6-2.4-.51-.13-.18-.29-.24-.4-.04-.07-.48-.01-.26-.44.28-.35.35-.83.59-1.2.16-.25,1.06-.98,1.24-1.24.29-.42.92-1.55.81-2.02-.03-.13-.37-.12-.36-.2.02-.25,2-1.46,1.78-2.22.33-.14.64.29.8.29.12,0,.92-.53,1.32-.56.35-.03.68.39.88.23ZM155.46,24.33c-.45-.22-.7-.23-1.18-.07.54.86-.28.64-.46,1.24-.1.33.11.62.03.9-.06.21-.84,1.45-.98,1.73-.27.52-.21,1.16-.9,1.55-.14.36.47.1.36.71-.02.1-.01.2-.09.28-.88.18-.55.37-.71,1.06-.04.16-.18.31-.28.44l.36.17-1.07,1.43.33.17-.33.8.35.18c-.53-.14-.16.97-.25,1.48-.12.71-.5,2.11-.76,2.79-.06.16-.38.32-.39.44,0,.13.59.64.61.89.03.32-.35.65-.4.93-.08.4.19.94-.22,1.38l.33.26.18-.53c.18,1.08-1.5,2.6-.18,3.29-.54.47-.26,1.72.45,1.87.1.02.07-.27.13-.3.08-.04.2.09.27.05.08-.04-.05-.3.49-.31.62-.01.37.3.8.55l.27-.88.89.53c.14-.51.32-.19.67-.35.11-.05.1-.29.21-.32.13-.04.87.13,1.06.19.1.03.08.29.21.3.23.02,1.31.03,1.58.02.89-.04,1.66-1.03,2.75-.55l-.53-.36c.81-.95.1-1.65.25-2.76.03-.23.27-.45.28-.7-1.02-.4,0-.72-.06-1.58-.03-.56-.67-1.65-.79-1.98-.23-.67.54-1.32.45-1.75-.05-.25-.46-.41-.58-.66-.37-.73-.31-1.61-.34-2.3-.03-.82-.65-1.19-.65-1.68,0-.4.23-.8.37-1.16h-.89c.42-.64.57-1.21.35-1.96l-.71.18c-.16-.68.09-.82-.09-1.56-.09-.37-.97-2.5-.99-2.64-.05-.51.53-1.04-.24-1.41Z"/><path d="M85.57,17.73s.04.3.15.31c.24.02.52-.22.83-.16.51.1,1.69,1.11,1.95,1.61.15.29.08.71.14.84.03.05.92-.16.88.54l.53-.35c.15,1.11.36,2.08.89,3.08.07.14.34.11.35.13.13.21-.31.44-.26.7.1.54,1.17.69,1.25,1.95.02.26-.27.37-.12.82.08.27.68.81.72,1.1.08.67-.54,1.04.38.94-.25.44.24.9.19,1.31,0,.05-.63.23-.36.82l.52-.16c.58.81.08.75-.07,1.24-.05.16.33.56.09.88l.71-.35c-.06.53.27,1.17-.35,1.33l.72.55c-.06.4-.5.73-.46,1.15.13,1.06.63.76.8.88.08.06-.85,1.83.36,1.6.07.04-.35,1.37-.36,1.53-.01.37.28.54.3.72.04.49-.16,1.38-.13,1.72.01.14.38.03.38.37,0,.51-.37,1.08-.31,1.76.06.62.35,1.73.66,2.3.06.11.31.11.35.25.21.83-.37.8-.35.85.06.19.48.54.47.71,0,.12-.28.32-.29.55-.03.42.16.87.04,1.25s-.41.14-.39.43l.53.09-.36.26h.71c-.17.76-.91,1.37-.71,2.19.01.05.58.28.31.91-.1.23-.38.23-.44.32-.04.06-.36,1.23-.35,1.29.03.29.96.71,0,1.42l.49.53c-.32.34-.55,1.16-.5,1.61,0,.08.53.13.32.61-.91-.17-1.19,1.9-.36,1.97v.35s-1.07.81-1.07.81l.71.62c-.7.32-1.17.75-1.51,1.44-.36.75-.86,1.45-1.17,2.29-.58-.25-1.46.75-1.06,1.42l-.5.02c-.09.34-.02.69-.26,1-.49.64-1.63-.21-1.55,1.47-.99.04-.86-.75-1.52.35l-.35.02-.11-.33-.33-.03-.45.54-1.07-.72c-.59,1.01-.91-.56-1.42-.89-.45-.29.1.63-.35.35s-.79-.74-.45-1.24l-.72.1c-.08-.6-.74-.87-.95-1.35-.19-.44-.2-1.49-.6-2.26-.17-.33-.51-.37-.54-.43-.09-.16.5-.64-.76-.79-.25-.32.12-.58.11-.69-.04-.55-.67-1.57-.99-2.1-.09-.14-.42-.16-.46-.46l.28-.65c-.47.04-.33-1.19-.4-1.3-.89-1.42-.45-1.99-.85-3.45-.01-.05-.26-.39-.4-.88-.11-.39-.58-.5.05-.95l-.33-.17c.46-.92.14-1.79.33-2.76-.32-.3-1.53.79-.51-1.45.06-.13.3-.14.33-.28.06-.27-.13-1.09,0-1.47l-.53-.1.54-1.33-.51-.02c-.51-1.31.18-1.94.43-3.01.27-1.13-.16-.74-.45-.9-.03-.02-.01-.72,0-.76.03-.15.29-.12.32-.21.06-.21-.08-.63.2-.9l-.52-.26.36-.53-.35-.18c.53.08.16-.31.36-.61.21-.31.63-.18.53-.55l-.53-.09.36-.26-.36-.2c-.07-.48.46-.93.5-1.26.06-.43-.46-.84.39-.94l-.08-.36-.45-.26c.18-.36.71-.62.77-1,.1-.55-.32-.95-.25-1.48.06-.44.69-.6.55-1.24-.03-.11-.37-.11-.36-.19.02-.18.37-.67.42-.97.13-.68-.2-2.06,1-1.79l-.35-.26c.08-.33.54-.49.59-.67.07-.22-.1-.49-.01-.62.14-.2.52.05-.04-.85l.71-.27c.18-.52-.73-.5-.71-.62l.2-.6.69-.02-.1-1.25c.96.06.74-1.62,1.03-1.92s.16.25.71-.79c.27-.51.62-.35.22-1.02.85-.38,1.02-1,1.67-1.45l-.15-.32h1.78c.2-.16-.74-.22-.18-.45.23-.09.44-.17.67-.03ZM86.81,22.87c-.07-.09-.36-.14-.49-.29-.7-.8-.72-.99-1.95-1.17.32.48-.12,1.03-.12,1.15,0,.14.33.34.29.53-.02.08-.77.6-1.01,1.31-.13.37-.04.83-.1,1.01-.01.03-.45.49-.46.53-.01.16.19.93.14.98l-.53-.18c-.16.53.61.4.67.8.07.48-.71.53-.92.8-.28.35-.07,1.32-.11,1.49-.02.09-.69.39,0,1.09l-.72.36c-.09.5.36.87.33,1.2-.05.62-1.06,1.57-.37,2.34-1.11.81-.43.52-.3,1.26.09.51-.17,1.21.18,1.85h-.53c.06.64.26.93-.36,1.33l.71.62c-1.27.22-.68,1.84-.72,2.75,0,.27-.14.5-.16.74-.03.51.34.8-.2,1.4l.9.27-.21.87-.5.02c-.14.39.39.86.33,1.13-.04.18-.34.31-.42.56-.4,1.22.51,2.94.11,4.11l.34.08c-.89.9.44.62.18,1.49l-.36.2v.26s.34.09.34.09l-.15,2.63c.65.47.64.58.71,1.37l.35-.35-.16.69.34.1c-.46.11-.31.33-.22.75.25,1.1.99,3.19,1.48,4.17.14.29.73.91.88,1.31l.53-.1v.89s.35-.35.35-.35c0,.18.13.32.15.49.03.27-.12.61-.05.76.14.26.83.49.92.58.07.07.26.73.52.84,1.14-.15,1-1.57,2.03-1.61l-.53-.71c.6-.02.85-.72,1.42-.36-.44-.81,1-.9.93-1.93l.5-.12v-.62s-.72-.18-.72-.18c.21.13.56-.62.63-.79.47-1.24.91-2.82,1.31-3.97.14-.39.47-1.4.3-1.74-.12-.23-.43-.13-.48-.51-.09-.67.45-1.6.36-1.93-.02-.07-.58-.38-.53-.9l.54-.37-.54-.09c-.05-.04.42-1.01.46-1.19.23-1.17-.3-2.56-.82-3.52l.34-.16-.17-.88.36-.29-.52-.09c.3-.91.31-1.8.15-2.75h-.7c-.08-.07.49-.91.5-1.02.03-.25-.36-.44-.31-.65.04-.19.44-.35.47-.55.01-.13-.37-1.52-.43-1.82-.04-.2.11-.47.04-.59-.09-.16-.54-.21-.61-.46-.12-.38,1.09-1.45,0-1.67v-.17c.48.08.24-.33.34-.69l-.88-.2c.74-.99-.13-1.6.18-2.54-.98-.59-.44-.62-.57-1.41-.07-.43-.43-.75-.5-1.13s.23-1.14.08-1.51c-.24-.57-1.01-.96-.79-1.58l-.53.18v-1.6s-.53.36-.53.36c-.2-.57-.24-.78.17-1.24-.64.12-.44-1.57-.58-1.75Z"/><path d="M225.85,22.6c.37.28,1.26.06,1.73.23.04-1.79.72.17.81.19.33.08.77-.14,1.06-.11.66.08,1.04.55,1.36.78.09.06.83-.4,1.13.55l.8-.36c-.16,1.13.6,1.22,1.28,1.62,1.1.64,2.46,1.54,3.62,2.28.51.32.5,1.31,1.32.9-.22.96.45.71.5.75.07.05.12.33.32.48.16.12.55.15.59.21.11.15-.28.99.23,1.36.07.05.37-.12.62.09.82.68.1,1.74,1.45,1.77l.03.49.34-.17c.37.64-.12,1.07-.13,1.74.16.09.39.14.5.28.52.67.53.87.71,1.57.04.15.55.09.35.9-.04.19-.54,0-.36.47h.71c.11.55-.53.93-.53.99,0,.29.28.7,0,1.14h.54c-.36.43.16.33.18.47l-.54,1.49h.71c-.34,1.05-.75,2.13-.65,3.26.04.44.77,1.36-.23,1.54l.02.34.34.12c.03.38.09.67-.36.6l.33.19c-.22.55-.09,1.1-.34,1.64-.04.1-.29.12-.31.15-.19.4.05,1.52-.29,2.23-.03.06-.44,0-.3.65.02.08,1.15.71-.51.84-.12.32-.05,1.32-.23,1.54-.26.31-.88-.05-.53.65-.89.51-.65,1.75-1.74,2.06l.35.44-1,1.02c-.08.83-.95,1.09-.42,2.09-1.11.05-.97.37-1.43.94-.33.41-.27.6-.4.8-.06.09-.49-.05-.3.39l.35.18c-.63.26-1.48.32-2.04.74-.32.24-.1.43-.14.48-.1.12-1.13.59-1.38.39l.18.53c-.59.22-1.43.12-1.71.72l-.52-.18.09.36-1.96-.36v.71c-.87-.31-1.07-.97-2.14-.89l.1.54c-.22.31-.82.07-.97.21-.04.04-.4.88-.38,1.03-.68-.13-.82.02-1.33-.53l-.19.37-.96-.19c-.1-.11.54-1.47-.53-1.24.65-1.06.38-1.78.36-2.84l-.71.36c.05-.62.2-1.06.89-1.07l-.53-.62c.43-.37.59-.84.55-1.41l-.72-.37c.52-.47.2-.97.24-1.51.02-.18.26-.38.26-.61.02-.85-1.26-2.53.02-3.03l-.54-.09c.26-.67,0-1.58.16-2.22.08-.3.31-.26.33-.35.23-1.1-.57-1.79-.48-2.66s.84-1.51-.2-1.62l-.13-1.24c.52-.2.34-1.04.41-1.5.05-.3.66-.73-.08-.71l.35-.53-.71-.18c.45.06.19-.17.36-.43.07-.1.4,0,.36-.37-.05-.52-.54-.49-.68-.66-.04-.05-.14-1.2-.14-1.31.04-.78,1.43-2.29-.09-2.4l.35-.18c-.83-.82.18-1.27.18-1.35.04-.37-.25-.99-.72-.79l.35-.35h-.54c.14-.49.39-1.05.48-1.54.1-.54.02-1.69.09-2.24.03-.24.31-.53.31-.58-.01-.16-.63-.2-.63-.7,0-.31.23-1.07.63-.99l-.53-.36.35-.88-.54.09c-.05-.71.09-1.1.72-1.42l-.54-.09.2-.61-.36-.18c.2-.45.07-.75.7-.64l-.53-.18.54-.89h-.71c-.02-1.08.53-.76.71-.89.04-.03-.33-.67-.35-.81,0-.04.33-.06.41-.47.07-.36-.21-.6-.2-.95l1.98-.78c.3.08.35.52.52.64ZM228.67,27.26c-.02-.73-.5-.84-1.09-1.04l-.02.96-.52.11c.38,1.15.11,2.17.7,3.28l-.72.38c.01.94.65,1.49.18,2.46l.37.19c-.87.62-.16.97-.18,1.42,0,.26-.38.47-.34.69.02.09,1.04,1.35.16,1.36v.17c.81-.03.12.67.08.98-.03.24.15.54.1.86-.01.07-.6.52-.32,1.28.04.12.57.09.14.97l.35-.18.19.64c-.49.44-.15.86-.36,1.49l.53-.09c-.03.68-.49.9-.89,1.33.99.2.67,1.59.53,2.31h.53c.23.76-.36.73-.5.93-.13.18-.12,4.11-.01,4.47.05.15.33.11.34.22.02.27-.35.9-.18,1.32l.71-.18c.25.65-.69,1.28-.7,1.36-.04.28-.01,1.08.36,1.05-.26.52-.36.79-.17,1.37.39,1.19.33,1.5.18,2.73-.06.48-.25,1.13-.2,1.57s.53.94.36,1.53c1.48.12,2.67-.12,4.08-.61.11-.04.25.03.36.07v-1.07s1.6,0,1.6,0c-.44-.96,1.96-1.65,1.6-2.75l.36.09c-.34-.77.04-.42.38-.79.08-.09.63-.8.66-.85.03-.05.05-.99.16-1.2.23-.46.81-.78.91-.93.04-.06.01-.92.49-1.38.21-.21.52-.07.67-.4.13-.29-.07-1.12.29-1.48l-.35-.16c.15-.15.3-.3.39-.5.13-.28.48-1.06.51-1.29.02-.18-.58-.45-.21-1.03,1.13-.12.2-.8.28-1.44.03-.25.47-.47.37-.81-.06-.58-.46-.22-.8-.43l.89-1.25-.53-.18c.99-1.22.29-.89.09-1.5-.09-.27-.08-.9.09-1.17l-.53-.09c-.08-.28.24-.12.29-.21.14-.24.27-2.08.2-2.37-.01-.06-.66-.86-.67-.92-.12-.53.22-1.01-.18-1.89-.1-.21-.37-.07-.48-.16-.09-.07-.35-.85-.65-1.14-.11-.11-.45-.06-.56-.23-.16-.22-.07-.72-.2-1.03-.1-.24-.39-.25-.49-.41-.26-.4-.21-1.18-.91-1.06-.17.03.04.44-.26.36-.26-.31-.21-.93-.35-1.16-.31-.52-1.59-.81-2.08-1.39-.24-.29-.4-.62-.43-1-.37.27-.6-.62-.88.34-.44.15-.31-.19-.41-.28-.94-.74-.61-.81-1.1-1.5-.04-.05-1.01-.49-1.14-.37v-.52s-1.06.16-1.06.16Z"/><path d="M33.48,19.82c-.06.67,0,.96.63,1.24l.16-.34.64.17-.18.35c1.45-.12.99.8,1.43,1.64.12.23.5.25.63.66.17.52-.09,1.03,0,1.27s.71.53.74.79c.02.23-.32.59-.26.87.05.24.4.37.51.56.46.78.1,1.78.21,2.01.22.49.21.48.39,1,.12.33.58.79.6,1.1.01.23-.28.41-.31.69-.1.83.48,1.28.53,1.78.03.36-.19.65-.18.86,0,.11.89,1.62.96,1.9.1.39-.17,2-.07,2.35.06.2.44.16.48.37.11.59-.22,1.53-.23,1.97s.46.89.46,1.42c0,.47-.38,1.1-.37,1.42,0,.1.26.1.29.15.1.2-.2.54.61.49-.15.31-.43.27-.59.71-.02.07-.09.93-.08.98.02.11.37.11.42.43.04.26-.2.45-.19.75.02.52.65.48.4,1.32-.03.09-.46.02-.31.7.13.61,1.06.92-.17,1.61l.53.27-.36.53h.54c-.25.93-.87,1.23-.05,2.05-.41.49-1.04,1.6-1.11,2.22-.03.26.42.86-.08,1.34l.5.12c.44.99-.37.74-.43.84l-.23,1.18c.94.5-.02,1.55-.21,2.3l.36.27c-.48-.08-.2.24-.29.36-.1.14-.39.14-.43.3-.08.32.17.77.15,1.17-.05.86-.72,1.06-.85,1.33-.15.34.03.81-.02.99-.04.15-.3.14-.35.25-.19.46-.09.83,0,1.29l-.35-.18c.08.76-.79,1.06-1.41.9l-.04.49-.5.03.36.71c-1.18-.02-2.24.51-3.45.54l-.31-.88c-.14-.12-.81.06-1.11-.02-.17-.05,0-.6-.65-.18.16-.61-.33-.53-.54-.79-.14-.17-.11-.46-.22-.58-.09-.1-.96-.49-1.1-.76-.25-.48.04-1.04-.12-1.49-.13-.38-.74-.05-.33-.82l-.33.15-.37-.61.35-.61c-1.68-.05.04-2.55-1.78-2.31l.36-1.6-.71.36c-.42-.69.16-.98.2-1.52.02-.35-.42-.17-.4-.52s.28-.54.3-.72c.01-.1-.44-1.83-.82-1.79.1-.19.11-.64.23-.75.15-.14.63.18.49-.39l-.53-.09.18-.34-.38-.21.18-.53-.34-.16.36-.18c-.71-.44.18-1,.17-1.43-.23-.85-.74-2.43.18-2.93-.67.17-.12-.86-.17-.89h-.54c.22-.54.92-.87.9-1.5,0-.1-.64-.08-.37-.46.05-.07.41.44.35-.09-.06-.63-.29-.71-.89-.62-.07-.28.25-.08.35-.31.14-.33.04-.86.08-1.2.05-.42.51-.83.12-1.41l-.56-.19.36-.21c-.19-.96,1.3-1.16,0-1.92l.89-1.42-.53-.09.36-.53-.71-.27c-.01-.37.44-.64.5-.93.09-.44-.45-.47.38-.84-.22-.3-.43-.78-.44-1.14,0-.16.19-1.08.45-.99l-.71-.36c.56-1.06,1.07-2.19,1.24-3.38l-.71-.18,1.17-.79c.14-1.02-.94-.44-.61-1.32.08-.22.43-.25.46-.32.07-.15-.07-.73.41-.94l-.35-.26.72-.29-.02-.59c-1.53-.02-.26-.71.52-.75l.04-1.56c1.04-.03.88-.77,1.59-1.17-.23-.29-.66-.14-.53-.62l1.78-.72-.18-.35c.88-.19,1.38-.41,2.31-.18ZM32.78,25.67l-.37-.88c-.7.27-.4,1.07-.58,1.64-.33,1.03-.59.76-.57,1.93.01.8-.05,1.43-.81,1.88l.54,1.13c-.98.09.15,1.56-.89,1.61v.35s.36.09.36.09c-.08.25-.65.76-.66.89,0,.09.23.24.23.36-.02.42-.41.99-.28,1.57.02.11.44.08.26,1.03-.04.22-.32.38-.35.6-.02.16-.09,2.04-.05,2.14.08.19.52.07.52.71,0,.72-.73.52-.55.89l.71.44c-.78.02-.25.77-.37,1.13-.11.33-.76.1-.52,1.43l.72.1c.04.47-.5.84-.54,1.16-.06.61.6,1.51,0,2.3l.37.19-.36.44.53-.08c-.26.65-.23,1.52-.36,2.1-.03.14-.3.11-.34.24-.09.28.32.76.3,1.01-.01.22-.44,1.21-.44,1.28,0,.21.6.49.64.73.03.21-.54.72-.34,1.13l.71-.18-.21,1.04c-1.07.04-.31.73.39.38.01.9-.84.82-.35,1.65.07.11.35.11.37.23.03.35-.29.62-.3.87,0,.07.29,1.3.32,1.39.18.45.73.37.82.52.23.36.2,1,.27,1.32.31,1.5,1.32,2.34,1.99,3.62l.09-.71.52.17c0-.52.57-.57.74-.83.07-.11.37-1.93.34-2.08l-.36-.28.33-.02-.14-.33.89-.19c-.03-.26-.19-.96-.11-1.16.09-.23.42-.2.47-.38.08-.3-.05-.78,0-1.12l-.71-.17c.52.06,0-.42.71-.63l-.53-.45.33-.2c-.33-.85.46-.63.71-.89.06-.06.15-1.48.14-1.64-.03-.57-.41-.92-.47-1.44.13-.34.52-.07.53-.09.16-.33-.32-1.44-.32-1.72s.39-.49.32-.58c-.02-.03-.54.11-.24-.54.07-.15.5-.46.42-.53l-.53-.09c.16-.42.4-1.16.35-1.59-.03-.23-.28-.42-.29-.59-.03-.3.14-.83.1-1-.02-.1-.5-.31-.52-.57-.01-.12.27-.05.31-.17.17-.53.22-1.31.4-1.87h-.54c.62-2.02-.91-3.72-.81-5.79.09-1.73.05-1.72-.25-3.38-.09-.49.06-1-.03-1.49-.52.11-.71-.21-.46-.68.04-.07.47.05.3-.4l-.71.35c-.56-.77.17-1.77.14-2.19-.07-.82-1.21-2.53-1.31-3.32-.09-.74.45-1.17-.08-1.96l-.51.17Z"/><path d="M260.71,21.91c.29.17.79.1.68-.32h.17c.05.53.82.46.39,1.16l.49.09c-.19.96.53.75.69.92.1.11.05.57.16.81.1.22.37.21.47.44.24.56-.13.95.83,1.04v1.41s.72-.18.72-.18c.15.52-.24,1.29-.06,1.73.07.17.28.19.36.29.2.28-.18.62.77.47-.17.21-.38,1.53-.33,1.69.03.09.3.06.33.21.05.24-.27,1.02-.18,1.12l.53-.36c.06.56.13,1.12.08,1.68-.02.17-.27.35-.24.51.06.3.84.63.34,1.54.59-.36.83.61.67.99-.07.16-.39-.04-.32.26l.52.02c-.15.35.2.66.15.99s-.32.63-.32.85c0,.09.29.08.35.23.17.43.37,1.13-.16,1.19.43.46.46.99-.18,1.25l.63.25c.37.69-.31.65-.26,1.18l.52.09c.08.28-.24.12-.29.21-.15.27-.2,1.41-.21,1.79,0,.22.24.48.24.76.01.63-.63,2.31-.6,2.81.02.26.27.54.28.78.01.44-1.06,1.81.39,1.85.08.58-1.24,1.75-.36,1.77l-.3.2c-.01.91-.48.98.31,1.66-.55.25-.57,1.72-1.24,1.87l.35.26c-.48.35-.55,1.45-.7,1.74-.11.22-.57.07-.78.53-.03.06-.12,1.22-.1,1.28.07.28.56.15.51.45-1.17.21-1.27,1.56-1.77,2.42l-.71-.11-.54,1.51c-1.07-.19-.41.64-.75.93-.21.18-.94.4-1.31.76-.23.22-.1.43-.15.48-.9.98-.93.29-1.54.3-.05,0-.94.17-1.06.21-.3.09-.5.84-.97-.11l-.8.36v-.4c-.22-.58-.44.26-.53.32-.83.54-.72-.37-.94-.58-.37-.36-1.39.05-1.39-.75l-.44.35c-.32-.19-.18-.58-.32-.83-.04-.08-.29-.09-.35-.27-.13-.32-.06-.88-.15-1s-.6-.1-.81-.26c-.12-.09-.18-.36-.41-.55-.06-.05-.3.06-.33.04-.24-.22-.18-.83-.02-1.11l-.36-.18c.79-.77-.17-1.03-.4-1.75-.13-.41-.23-1.52-.41-1.9s-.83-.45-.42-1.06h-.54s.2-.87.2-.87l.51-.11c-.5-.14-.21-.25-.32-.56-.2-.57-.65-.67-.04-1.3h-.54s.37-.8.37-.8l-.36-.27c.99-.18.38-1.73-.53-1.43v-.17c.2.17.62-.86.67-1.03.05-.2-.06-.41-.04-.6.04-.25.29-.59.24-.77-.05-.23-.62-.2-.54-.54l.55-.89-.54-.09c.41-.81.87-1.53-.17-2.04.36-.23.29-.67.46-.97.08-.14.42-.15.44-.29.03-.28-.27-1.24-.72-1.14v-.17c.74-.04.34-1.14.89-1.6l-.71-.27c.36-.57.42-.61,1.08-.73.35-.42-.73-1.18.17-1.41l-.36-.44.53-.18-.89-.35c.86-.23,1.72-2.15.71-2.58.21-.32.68-.45.9-.71.26-.31.01-1.38.88-1.16-.29-.42-.18-.79-.71-.98.47-.67,1.29-.11,1.19-1.22-.03-.32-.27-.58-.29-.74-.01-.09.31-.05.41-.3.08-.21-.06-.59.13-.85l-.53-.18c.13,0,.25.07.31-.1.11-.28.07-.41.4-.68.11-.09.29.11.36-.03.05-.11.15-.91.14-1.07-.01-.24-.25-.4-.26-.53-.04-.45,1.3-1.36,1.7-1.61.06-.39.12-.68-.34-.61v-.17c.75.02.8-.71.93-.84.09-.09.79-.25.93-.76l.26.35c-.16-.75.45-.51.94-.75.21-.1,1.25-.61,1.3-.67.19-.26-.5-1.63,1.25-1.59l.08.34.62-.51c.26.04.38.59.48.65ZM259.75,26.44s-.66.04-.85-.23c.02.77-1.01,1.21-1.62,1.54l.2,1.03c-.61.15-.14.32-.21.68-.04.18-1.52,2.32-1.75,3.07-.13.44.16,1.23-.36,1.15v.35s.7.35.7.35c-.64.17-.92.85-1.22,1.36l.32.49c-.12.35-.48.58-.61.9s-.09,1.21-.13,1.29c-.09.18-1.11,1.17-1.18,1.42-.09.32.01,2.09.33,2.36-1.14.24-.32,1.67-.89,2.49l.89.18c.08.29-.25.12-.29.21-.13.22-.48,1.17-.59,1.48-.17.49.61.11.7.35-.13.42-.64.58-.68.66-.1.17.1.43.06.58-.06.24-.27.39-.29.72-.02.39.92.5.64,1.06-.22.47-.33.39-.8.27l.71,1.69-.53.37.24,3.01c1.07.42-.22,1.85.63,2.29l-.16.45.71-.18c0,.33-.22,1.47-.17,1.66.04.15,1.26.98.35,1.63l.7.28c-.29.39.09.59.14.83.05.28-.17.55-.06.75.4.69,1.45.33,1.93.57.29.14.19.47.56.51.3.04.67-.05.99-.02l-.15-.32c.46-.27.69-.44,1.22-.21-.45-.92.76-1.02,1.02-1.29.09-.1.74-1.88,1.01-2.09.63-.48,1.17-.87,1.42-1.77.09-.32-.11-.94-.02-1.15.08-.18,1.18-.77.14-1v-.17c.49.04.43-.52.71-.8l-.54-.18c-.04-.65.67-1.14.75-1.41.22-.74-.04-1.91.03-2.65.06-.59.41-1.49.47-2.15l-.71-.45.87-.66c.16-.58-.45-.63-.47-1.05,0-.2.16-1.33.48-1.14v-.35s-.53-.27-.53-.27l.71-.71c-.8-.7-.02-1.02-.37-1.85l-.69-.02c.41-.7.29-.89-.14-1.51l.49-.62c-1.09-.14-.18-1.23-.18-1.7,0-.38-.55-.52-.54-.88,0-.25.32-.41.32-.68,0-.31-.38-1.42-.85-1.38l.35-.7c-1.11.43-.5-.52-.46-.99s0-1,.07-1.48l-.68-.2c-.13-.44.5-.41.53-.8,0-.07-.8-.82-1.07-.89v-.36s.36-.17.36-.17l-.89-.8.35-.35-.33-.02.16-.7-.35.18c.21-1.14-.13-.87-.54-1.32-.17-.18-.31-.53-.38-.59Z"/><path d="M211.28,23.29c.3.27.71.42.88.84.14.35-.08.63-.05.65.35.27.93.31,1.29,1.12.18.41.15,1.28.18,1.35.01.04.26.02.29.11.03.08-.2,1.27-.15,1.32.07.06.42-.02.61.19.31.34.14,2.28.27,2.85h.71s-.19.43-.19.43l.35.18-.19.79-.5.02.55,2.11.69.3c.07.25-.45.91-.3,1.39.19.64.47,1.16.63,1.98.09.45-.39.57.56,1.09l-.35.88.36.33c-.08.25-.38.87-.35,1.06.02.15.37.14.48.36.1.2-.06.98.23,1.28l-.35.17v1.57s.37.2.37.2l-.53.35c.62.58.02,1.49.35,2.22l.53-.18.18.71.35-.18c.12.42-.36.83-.35,1.16.01.36.45.5.48.7.03.24-.31.68-.37.97-.18.86-.32,1.71-.32,2.47,0,.26-.13.49-.14.75l.35-.18v1.42s.71,0,.71,0l-.53,1.6c.41-.17.54.29.58.3.08.03.29-.15.31-.12.14.22-.29,1.25-.29,1.53-.02,1.19.78,3.09.95,4.24.07.48-.13.87-.08,1.2.07.42.67.71.68.79.04.25-.55,3.24-.71,3.36-.36.26-1.08-.43-1.34.6-1.02-.76-2.78-.88-1.87-2.49h-.71s.16-.99.16-.99l-.32-.16.14-1.76-.52-.46c.6.09.3-.63.35-1.07l-.53.18c.25-.94-.02-1.57-.11-2.43-.06-.53.47-.56-.59-.78-.08-.39.45-.99.46-1.14.01-.17-.61-2.12-1.02-2.16l.53-1.36c-.66-.41-.42-1.1-.55-1.47-.07-.2-.63.17.04-.61h-.54s.36-1.25.36-1.25h-.54s.18-.35.18-.35c-.5.27-.85-.13-1.17-.17-.07,0-.05.32-.41.43-.32.1-1.91-.16-1.98-.09l-.09.71-.73-.72-.87.37-.35-.52c-1.24.28-2.33,1.18-1.69,2.55l-.37.27.35.09-.64.89c-.04.63.67.38.64.54-.07.52-.82.58-.9.75-.12.28-.04,1.01-.18,1.36l.36.29c-.51-.1-.28.86-.37,1.32-.05.28-.28.46-.33.74-.15.77.92,1.6-.37,1.85l.36.28c.17.6-.27.56-.35.74-.26.6.12.94.08,1.11-.11.47-1.04.82.08.97-.91.68-.4,1.49-.57,2.08-.07.25-.38.58-.52.94-.21.56.18.96-.7,1.26-.98.33-1.21-.61-1.96-.64.12-.37.4-.95.36-1.33-.05-.45-.76-.59.18-.81l-.53-.17c-.3-.64.35-.74.34-.79-.02-.2-.38-1.06-.32-1.26.03-.1.3-.05.31-.16.03-.54-.3-1.24-.32-1.77-.04-.79.58-1.55.61-2.33.01-.33,0-.9-.44-.8v-.17c.66.04.34-.86.48-1.2.09-.22.37-.2.4-.34.24-1-.36-.96-.35-1.02.06-.45.5-1.63.54-1.97.05-.46-.77-1.41.35-1.68l-.35-.88c1.17.13.19-1.71.72-2.39l-.36-.27.32-.04c-.2-.53.29-.83.31-1.3,0-.27.02-1.07.01-1.24,0-.22-.47-.47-.43-.86.03-.37.5-.62.61-.92s-.36-1.65.25-1.51l-.53-.36c-.07-.29.23-.09.32-.26.19-.36-.31-.49-.3-.53.04-.85.65-.59.7-.63.05-.05-.19-.52-.15-.76.05-.29.39-.51.42-.74.08-.55-.56-1.78.44-1.88l-.53-.53c.15.02.27,0,.35-.13.05-.09.26-1.66.38-2.04.08-.27.99-1.36.16-1.65.46-.54.34-1.03.02-1.58l1.4-1.63-.53-.27c.38-.29.18-1.16.21-1.22.05-.07.37-.1.51-.28.21-.28.99-1.65.99-1.96,0-.3-.2-.38-.29-.62l1.07-.18.19-.97-.36-.27c1.02-.04,1.1-.69,1.6-1.17l-.18-.43c.62.22,1.72-.31,1.87.36l.27-.71c.27-.07.13.18.24.28ZM210.48,30.15c-.94-.61-.87.99-.96,1.21s-.67.91-.98.9l.71.71c-.55-.07-.1.31-.37.78-.2.34-.56.38-.72.6-.5.71.39.96.37,1.02-.11.34-.7.63-.8.97-.17.56.27.91.24,1.13s-.45.47-.32.84h.54s-.36.45-.36.45l.36.34c-.25.49-.26,1.29-.9,1.35l.53.26c-.76.62-.61,1.18-1.05,1.98l.31.32c-.37.54.12.41.17.54.08.2-.69,1.69-.87,1.96l.36.36-.37.2v1.66c.7-.15,1.23-.09,1.86.19l.36-.53.98.34v-.54c.42.3.91.1,1.31.18.19.04,0,.55.47.36v-.53c.6.09,1.18.57,1.73.13.28-.25.11-1.41-.05-1.56-.31-.28-.85.05-.47-.82.41-.94.81-1.08.38-2.36h-.7c.26-.63.74-2.18.37-2.73-.1-.15-.39-.19-.46-.3-.11-.18.08-.38.04-.5-.01-.04-.23-.03-.26-.12-.12-.46.29-.76.31-1.16l-.89.18c.15-.81.34-1.21,0-2.01-.05-.12-.35-.11-.35-.2.01-.22.32-.72.33-.91,0-.08-.29-.05-.31-.16-.1-.52-.04-1.03.31-1.41-.87-.36-.68-2.96-.9-3.1Z"/><path d="M135.25,18.74l.71-.36.1.55c1.05-.09,1.01.41,1.5,1.09.1.14.34.18.43.33.33.54.26,1.69,1.18,1.59-.02.59-.63.5-.68.55-.11.12.09,1.09-.64,1.59-.97.67-.83-.89-1.16-1.36-.17-.24-1.51-1.17-1.78-1.24-.85-.22-.98.56-1.18.63-.27.09-1.15-.65-1.67-.35.32.66-.6.65-1,1.06-.17.17-.36,1.05-.64,1.21-.2.12-.53-.07-.69.14-.23.31.05,1.04-.01,1.23-.03.1-.31.02-.34.35-.06.75.34,1.27-.32,2l.07.24c.68.18.46.98.09,1.41h.71c-.05.56-.74.97,0,1.35l-.13.4.32.11c-.38.6-.38,1.22-.06,1.83.43.83.12.55.28,1.03.03.1.48.03.14.88l.53.09-.09,1.25h.8s.52,1.88.52,1.88l.3.21.78-.14c-.24.83-.12,1.68.89,1.24.12.37,0,1.01.19,1.31.03.06.85.95.91.98.17.06.36-.16.47-.12.04.02.35.64.66.68-.46.72.04.57.33,1.08.13.23.09.59.26.8.55.68,1.11.26,1.56,1.8.26.91.55,1.89.78,2.78.05.2.55-.03.16.72.7.47.76.9.42,1.64.85.38.33.71.4,1.24.18,1.39.11,1.69,0,3.03-.08,1.05.02.51.18,1.31.05.25-.35.76-.1,1.32.15.34.74-.35.36,1h-.71c.19.38-.06.76,0,1.13,0,.05.56.27.34.89l-.68.31c.46.79-.88,2.08,0,2.38-.26.66-.93.71-1.03.84-.24.33-.05,1.43-.2,1.63-.11.16-.39.05-.56.23-.29.3-.44.91-.66,1.14s-1.07.71-1.61,1.23c-.36.35-1.12.37-.75,1.42-.45.11-.93-.19-1.32-.17-.49.03-1.06.56-1.47.64-.64.13-1.33-.28-2.23.08-.44.17-2.13.54-2.67.33-.84-.33-.71-.06-1.27-.18-.07-.01-.26-.59-.82-.35v-.71c-.69.33-.66-.02-1.07-.24-.1-.05-.29.05-.32.03-.23-.22-.2-.76-.03-1.03l-.53.18c.25-.87-.28-1.8-1.25-1.42-.04-.46-.09-1.03-.23-1.47-.08-.24-.33-.36-.41-.57-.21-.56.23-1.33-.97-1.17l.32-.2-.07-.52c.8-.1.55-.79,1.19-1.31.87-.7,1.32-.68,2.2-.1.18.12,1.26,1.02,1.3,1.1.17.3-.1.7-.03,1.04s.54.53.57.61c.03.07-.05,1.17-.15,1.33.35-.06.59.25.85.32.22.06.9.06,1.25.14.39.09,1.14.54,1.52.42.14-.04.11-.34.19-.33.33.01.91.39,1.44.36.31-.01.22-.31.39-.36,1.2-.4,1.79-.64,2.64-1.51.69-.71.38-1.03.81-1.6.35-.48.96-.15-.02-.73,1.28-.6.58-1.63.92-2.63.15-.43.57-.4.65-.52.04-.07-.17-.62.2-.85l-.53-.09c.29-.42.16-1.15.27-1.5.07-.24.46-.47.45-.81,0-.08-.34-.08-.37-.21-.1-.42.22-.87.15-1.35-.08-.56-.77-1.01-.85-2.01,0-.08.3-.05.34-.2.29-1.1-.07-.94-.19-1.39-.11-.39,0-.77.02-1.16l-.53.36c-.56-.81.82-1.53-.36-1.43l.18-.88h-.54c.05-.41.26-1.02.09-1.41-.14-.32-1.75-2.45-2.05-2.76-.16-.16-.75-.11-.7-.63l-.26.35c-.93-.22-.72-1.3-1.07-1.77-.25-.34-1.1-.12-.8-1.25l-.35.35c.07-.37-.47-.44-.51-.63-.04-.17.22-.47.13-.58-.05-.07-.34-.07-.42-.2-.27-.42-.1-.5-.64-1.19-.12-.15-.13-.55-.18-.58-.04-.03-.21.13-.29.12-.92-.13-.02-.96-.05-1.01-.03-.04-.65-.08-.53-.72l-.53.18.18-1.24-.71-.18.35-2.12-.72-.3c-.1-.61.52-.8.54-.9,0-.04-.03-.83-.05-.87-.13-.25-.5-.2-.57-.88,0-.1.17-.21.15-.44-.04-.6-.87-.68-.07-1.33l-.53-.09.37-.28-.18-.53c.33.03.36-.67.3-.86-.08-.28-.59-.19-.5-.53.05-.59,1.08-1.15,1.22-1.83.06-.32-.24-.71-.12-.91.03-.05.37-.12.52-.28.74-.81-.07-.67-.17-.82-.27-.4.95-.7,1.07-.79.18-.13-.09-.89,1.06-.62l-.18-.35,1.06-.54c-.75-.83,0-1.19.71-.53l.28-.52c.86.5,1.46-.29,2.03-.44.41-.11,1.21.15,1.71-.27l.35.51.27-.71c.38.13.55.51.53.89Z"/><path d="M201.57,18.79c.11.12.16.46.63.77.24.16.88.29.97.52.15.52-.31.75-.4.99-.15.44-.16,1.08-.47,1.48-.22.29-.65.22-.82.64l-.77-.19.09.36c-.74.05-2-.69-2.31.18l-.44-.35.18.53c-.64.41-1.26-.14-1.7-.17-.07,0-.07.27-.11.28-.64.16-1.16.21-1.74-.12l-.18.71-1.06-.71-.53.8.71.27c-.44.47-.24,1.03-.36,1.48-.04.15-.39.11-.36.2.32.99-.04,1.18.15,1.79.09.29,1.57,1.39.21,1.32v.7s.53.01.53.01l-.36,2.13.71.09c-.44.18-.25.64-.89.89v.26c.82.28.31,1.42.03,2.02l.68,1.1c-.42.11-1,1.65-1.03,1.98-.02.23.28.41.32.69.04.26-.07,1.42-.35,1.59l.89.27c-.08.54-.29,1.04-.89.71.5.96.11,1.78.01,2.76l.52.17-.53.18c.37.4.63-.22.54.54-.08.72-.85,1.07-.19,1.96l-.35.17v.26s.48.26.48.26c.15.67-.61.46-.48,1.08l.36.26c-.69-.08-.51,1.66-.19,1.88l.72.07c-.33-.03-.24-.09-.28.19-.09.58,0,.53-.78.53-.03.34.63.1.71.46.13.64-.73.62-.71.7l.33.1c-.31.59.1,1.22.12,1.75s-.34,2.15-.28,2.56c.03.17.41.14.52.4.16.4-.28,1.52-.28,1.72,0,.28.26.62.23.92-.02.24-.47.71-.27,1.16h.71c.08.59-.03.74-.54.98l.34.1c-.43.53.14,1.03.13,1.32,0,.12-.24.34-.27.56-.1.69-.07,1.4.18,2.06.06.15.52.29.48.59-.03.24-.61.4-.49.8l.71.09c-.02.23-.99,1.41-1.11,1.46-.26.1-.54.04-.84.15-.16.06-.3.39-.45.4-.26.02-1.14-1.05-1.85-.69-.31-.51.13-.58.16-1.05l-.53.18c.03-.18-.13-.34-.14-.49-.04-.66.82-1.73-.21-1.73l.71-1.51-.89.35c-.13-1.01.38-1.43.53-2.31l-.71-.09.2-1.14.51-.11-.18-.98-.53.18-.19-.77.73-.74-.53-.09c-.04-.44.4-.66.47-1.07.08-.46-.37-1.06-.38-1.51-.02-.42.56-1.45-.26-1.52l.35-.53-.71.18.34-.25-.17-.64h.71c-.34-.63.29-1.29-.71-1.43.93-1.12.35-1.62.34-2.75,0-.52.51-1.23-.16-1.16l.35-.53-.5-.26c-.1-.49.64-.79.68-.91.06-.18-.82-2.06.18-2.03l-.53-.35.35-.26c-.42-.22-.6-.97-.49-1.38.1-.39.66-.4-.04-.56.32-.53.84-1.58.62-2.23-.26-.79-.81-.78.26-1.69l-.32-.17c.46-1.03-.48-2.01-.39-2.85.08-.7.59-1.61.66-2.28.05-.47,0-2.55,0-3.21,0-.25-.27-.56-.25-.74.03-.3.55-.37.62-.47.21-.31-.28-1.65-.29-1.87,0-.41.1-.3.04-1.04-.02-.23.21-.58.2-.98-.02-.85-.72-1.19-1.52-1.06l.1.54c-.86.64-1.3-.26-1.96-.45-1.76-.52-3.24.66-5.28-1.04-.22-.18-.74-.09-.68-.74.04-.37.58-.63.16-1.15l.64-.17-.11-.54c.55-.3,1.51.13,1.8.1.38-.05.32-.43.35-.45.08-.05.39.27.63.3.33.03.79-.27,1.21.06l.13-.32.47.11.12-.33,1.07.72c.31-.48.74-.7,1.28-.67s-.06.22.06.31c.37.29.36-.39.44-.36.54.59.96-.18,1.69.18l-.18-.53.99.36.17-.36c.64.65,1.4.33,2.23.71v-.89s.18.35.18.35l.79-.36.28.53.44-.68c.35.03.88.38,1.15.42.3.04.45-.21.63-.21.22,0,.48.29.89.3,1.16.04,1.77-1.33,2.76-.54v-.71c.19.14.59.13.68.22Z"/><path d="M14.97,17.34l-.53.96c.91.26-.01,1.11.03,1.39.03.21.47.5.45.74-.01.15-.33.39-.4.62-.09.33.11.75-.03,1.02-.12.23-.42.22-.42.32,0,.3.48,1.15.46,1.85-.02.54-.52.2.1.8.07.5-.24.39-.35.59-.45.82.84.63-.02,1.63l.53.18c-.51-.11-.12.46-.52.62l-.54-.09c.22.5-.11.96.54,1.15-.98.38,0,1.24-.71,1.86.36-.25.35,1.1.32,1.3-.05.3-.38.49-.32.84l.53-.09c-.52.84.03,2.13-.89,2.49l.36.19-.11.62.64.34c-.47-.05-.37.57-.71.8l.53-.09v.35c-.34-.09-.64,1.23-.7,1.52-.13.65.09,1.5-.36,2.13l.71.17c-.18.86-.85.42-.89,1.45l.34.32c-.21.52.16,2.53,0,3.01-.08.24-.41.22-.48.38-.16.37.61,1.5.44,2.14-.06.24-.4.21-.45.28-.03.04.24.7.24,1.08,0,.21-.25,2.03-.29,2.16-.1.31-.58.6-.5,1.19l.72.09c-.33.52-.24,1.26-.4,1.74-.09.26-.46.45-.45.57,0,.1.27.25.27.5,0,.38-.26.91-.13,1.38l.89.09-.89.92c.25.62-.3,1.23-.13,1.88.13.5.61.72.65,1.1.04.43-.44,3.01-.33,3.12l.89-.18-.53,1.15.88.53c-.91.62.04,2.18.89,1.87v1.07s1.86,0,1.86,0l.19-.54c.43-.24,1.1.21,1.42-.53.15-.36-.07-1.23.36-1.06l1.83.92.43,1.53.85.12c-.19.78-.79.49-1.07.63-.03.01.17.26-.01.59-.29.53-1.04.65-.7,1.37-.16.15-1.29.05-1.51.09-.32.07-.63.33-1.09.43-.38.08-.88-.08-1.21.04-.26.09-.25.45-.31.49-.05.04-.38-.17-.59-.15-.66.07-.82.82-1.26-.18l-.36.53c-.14-.15-.32-.27-.45-.44-.31-.41-.86-1.37-1.06-1.6-.24-.29-.73-.39-.98-.81-.22-.38-.17-.82-.32-1.11-.16-.33-.73-.27-.5-1.01h-.63c-.35-.44-.09-.94.09-1.42-1.59-.21-.77-1.76-.81-2.69-.03-.57-.36-1.01-.4-1.35-.06-.5.47-.85-.22-1.03l.54-1.24-.53-.36c.98-.4.22-1.19.22-1.57,0-.24.31-.77.3-1.1l-.52-.18c.14-.45-.15-.77.36-.89-.35.01-.42-.62-.33-.86.11-.34.64-.16.51-.56-1.02-.33-.04-1.45-.19-1.93-.05-.16-.4,0-.36-.56.02-.34.29-.24.33-.35.17-.49-.45-1.03.57-1.43-.23-.12-.65-.86-.63-1.07.03-.44.59-.54-.05-.7-.02-.18.37-2.03.45-2.19.55-1.15.22-1.2.31-2.27.01-.14.4-.87.28-.97l-.53-.18c.64-.02.51-.88.59-1.21,0-.04.25-.03.27-.12.22-.85-.97-3.08-.05-4.18.19-.23,1-.28.08-.62l.35-.81-.89.09.26-.82.45.02c-.13-.23.02-.65-.01-.78-.04-.14-.32-.1-.32-.19,0-.81.69-1.01.69-1.08,0-.06-.18-.38-.17-1.07,0-.64-.42-.38.35-.97-1.02.13-.42-.63.18-.72l-.09-.35-.8-.09c.12-.52.88-.77,1.02-1.09.08-.19-.05-1.79-.11-2.11-.05-.28-.52-.3-.32-.86.09-.24.36-.39.4-.56.36-1.54.09-2.38.83-3.88.38-.77-.16-.84-.19-.93-.07-.2.5-3.37.55-4.04.06-.84.68-1.33,1.5-1.35.38,0,1.28,1.18,1.82,1.23Z"/><path d="M171.53,19.11c-.37.94.49,2.16.54,2.75.02.29-.18.56-.17.88.02.35.36,1.42.88,1.16l-.71.98.71.36c-.09.47-.19.71-.71.62l.18,1.24h.71s-.89,1.06-.89,1.06l.53-.09c.12.38-.18.92-.13,1.22.05.27.43.43.44.88,0,.79-.85,1.69-.31,2.61l.53-.18c.13.14.05,2.32,0,2.55-.03.15-.39.13-.45.46-.15.72.33,1.94-.25,2.42.81.35.12,1.73.32,2.33.1.29.43.22.41.51-.02.4-.34.62-.37.9-.04.36.28.8.18,1.21-.03.14-.38.1-.37.21.02.25.27.39.3.56.08.53-.05,1.43-.08,1.99l.5.29c-.74.69.1,2.18.12,2.85,0,.16-.54.64-.64,1.08-.11.5.13,1.4.7,1.58l-.54,1.06s.64.27.54.71c-.03.13-1.23.63-.17.55-.18.5-.03,1.01-.05,1.45,0,.2-.23.37-.24.51-.01.24.36.94.1,1.41.92.05.58.81,0,1.07,1.27.2.15,3.45.35,3.65h.71c.07.3-.25.1-.32.26-.1.23.01,1.14.15,1.42l-.34.34c.43,1.05.91,1.75,1.76,2.49.07.06.31-.06.33-.03.05.07-.04.33.14.51.27.28,1.54.6,1.93.53l.09-.54.26.35c.62-.53,1.46-.17,2.22-.54v-.88s.35.18.35.18v-.71c.88.45,1.28-.3,2.14-.18l-.18-.35c1.31-.41,1.77.29,1.95,1.52.15,1.04-.31,1.31-.53,2.21l-.34-.17c-.33,1.12-1.89,2.12-3.03,2.13-.13.46.14.28.24.35.32.23-1.3.85-1.16.21l-.23-.03c-.71.48-1.6,1.23-2.32.53l-.17.33c-.57-.35-.93.32-1.52.02l.18-.71-1.05.17c0-.76-.5-.6-.66-.76s-.59-.78-.63-.79c-.12-.04-.58.24-.68.14-.03-.03.09-.34-.12-.55-.27-.27-1.07-.75-1.48-.7-.06-.41.12-.81.06-1.22-.07-.44-.45-.39-.53-.72-.33-1.36-.49-1.12-.84-2.02-.19-.48.21-.79-.67-1.12.55-.83.1-.94.05-1.45-.03-.32.15-1.01.1-1.21-.03-.14-.49.03-.32-.44h.35c.08-.3-.28-.09-.33-.26-.09-.33.41-1.05.43-1.25,0-.08-.33-.88-.28-1.21.02-.12.58-.15.36-.65l-.53-.09.5-.86-.86-.91c.38-.21.38-.62.89-.97-.52.14-.58-.82-.48-1.03.03-.06.37-.02.39-.47.01-.27-.11-1.06-.21-1.31-.09-.22-.41-.2-.42-.32-.01-.51.25-1.21.19-1.95-.04-.45-.39-.84-.32-1.41s.39-1.05.4-1.61c0-.36-.65-1.06-.41-1.48.08-.14.7-.12.5-.74h-.71c.04-.96,1.11-.71.54-1.83-.06-.12-.36-.11-.37-.24-.03-.31.42-1.18.34-1.4-.04-.1-.31-.06-.33-.2-.03-.25-.1-1.14-.12-1.42-.05-.76.5-.82.47-.87-.29-.62-.31-1.36-.89-1.78.63-.43.12-.98.16-1.6.03-.44.35-.75.37-1.08.03-.43-.36-.85,0-1.32l-.71-.18c.49.09.16-.41.53-.63l-.37-.19c.35-.75-.15-1.53,0-2.3.09-.46.51-.36.53-.55.14-.91-.19-2.53-.17-3.53.01-.65.04-1.89.08-2.5.03-.42.51-.79.62-1.25s.07-1.19.01-1.67c.92-.17,1.25-.76,2.3-.35Z"/></g></svg>