<?xml version="1.0" encoding="UTF-8"?><svg id="Layer_2" xmlns="http://www.w3.org/2000/svg" viewBox="0 0 289.48 107.99"><g id="maguru_nigiri"><path d="M164.81,26.63s.31.19.25.57l.4.02v.14c-.35-.08-.25.37-.32.63-.02.08-.2.07-.2.09-.03.11-.17,1-.24,1.1-.06.09-.27.08-.35.25-.25.52-.25,1.02.41,1.03-.03.89-.35.55-.56.69-.02.01.11.23.08.42-.06.39-.49,1.35.06,1.27v.14c-.35-.05-.23.17-.29.32-.08.19-.23-.09-.27-.04-.29.33.59.35.68.44.13.55-.32.62-.38.75-.1.25.35.59-.31.91l.56.15c-.23.3.03.85-.02,1.04-.05.22-.53.14-.4.43l.7.35-.37.14-.04.22-.42.08s0,.68.02.77c.01.06.55.1-.03.7.49.13.16.75,0,1.09-.15.31-.19-.23-.15.58.01.25-.28.29.13.43l-.06.36.51.27c-.43-.07-.13.26-.27.46-.1.15-.36.14-.42.33-.04.14.1.33.04.48-.09.24-.73.42-.06.63l-.43.29c.03.27.32.53.37.76.09.41-.33.47.34.79l-.42.55.56.5-.7,1.19.42.21c.05.23-.19.06-.28.24-.06.14-.1.82,0,.88.08.05.41-.28.56.07-.23.3-.25.73-.69.79.37.52.65.82,0,1.32l.28.14c.13.38-.25.34-.27.42-.04.18.28,1.13.25,1.18-.05.08-.52.07-.41.44l.56-.21-.06.63-.5.14v.28s.26.07.26.07c-.18.32-.02.7-.05.99-.02.24-.52.4.07.56-.44.37-.01.92-.41,1.39l.55.38c-.41.73-.72,2.11.15,2.59l-.65.76c.14.34.25.47.08.85l.42.07-.28.35.56.14c-.48.07-.21.76-.98.57.44.44.02.7.06,1,.03.26.81.42-.17,1l.05.82-.64.14c.44.68.29.94-.42,1.2-.15.05-.48.19-.51.2-.75.11-1.67-.15-2.07-.79-.7-.34-1.2-.98-1.38-1.72l-.69-.02c.23-.92-.15-1.33-.48-2.1-.16-.38.02-1.01-.65-.44-.42-.5-.1-.84-.14-1.18,0-.08-.22-.08-.24-.13-.32-.77-.19-1.18-.38-1.98-.08-.36-.45-.5-.23-.93h-.42s.27-.83.27-.83c-.69-.27-.88-.95-.55-1.56l-.56-.23.28-.76h-.42c.34-.67-.31-.66-.56-1.2l.42-.35-.42-.07c0-.39.17-.73.16-1.12-.02-.54-.36-.84-.38-1.12s.25-.49.1-.98c-.08-.28-.33-.24-.38-.48-.07-.33.14-.99,0-1.28-.09-.19-.42-.33-.43-.49-.01-.14.37-1.1.25-1.38l-.69-.46.4-1.11c-.44-.15-.66-.85-.14-.98-.52-.34-.24-.94-.37-1.3-.06-.15-.26-.14-.35-.38-.29-.75-.02-1.88-.13-2.24-.03-.1-.24-.08-.27-.19-.11-.46.23-.92-.57-.89-.06-.24.25-.05.29-.23,0-.03-.02-.52-.03-.55-.05-.13-.31.03-.25-.2l.29-.08c-.28-.54.1-1.17-.57-1.4l.41-.61c-.95-.37-.63-1.75-.83-2.45-.04-.13-.32-.1-.38-.48-.06-.35.04-.81-.05-1.08s-1.27-1-.82-1.64l-.49.28-.14-.28-.35.49.28.21-.24.03c-.07.38-.14,1.03-.28,1.35-.19.44-.29.6-.39,1.28-.05.41.15.77-.22,1.14l.42.07c-.33.37-.86,1.34-.14,1.48v.14c-.52,0-.43.71-.57,1.02-.07.17-.39.02-.27.39l.42-.14-.02.55-.39.02v.4s.42.09.42.09c.13.67-.29.66-.29.71,0,.17.2.42.15.67-.02.1-.27.07-.29.19-.06.32.01,1.21.28,1.45-.34.03-.49.98-.67,1.35l.4.28-.29.62h.7c-.03.62-.44.71-.56,1.12l.28.07-.29.42.29.14c-.66.75-.23,1.97-.19,2.89.02.43-.06,1.09-.1,1.54l.57.07c.01.14-.2,0-.25.14-.25.61.02,1.89-.2,2.37-.1.22-.37.19-.39.32-.07.46.24,1.3.24,1.7-.01,1.18-.22,1.35,0,2.76.14.89-.73,2.64.05,3.26-.52.54-.17,1.27-.23,1.88-.05.42-.31.73-.34.95-.03.3.25.45.27.68,0,.12-.23,1.75-.27,1.95,0,.03-.1.07-.19.41-.1.38-.36.62-.23,1.14.04.17.34,0,.28.23-.5.28-.48.21-.98,0v.56s-.5-.13-.5-.13c-.11.29-.14.31-.48.27v-.42c-.17-.05-.43.15-.54.11-.05-.02-.7-.83-.7-.9,0-.23.31-.54.33-.88.01-.28-.26-.46-.19-.75.03-.16.26-.32.33-.6.14-.53-.6-1.46.35-1.83v-.21c-.41.05-.03-.43-.56-.43l.28-.35-.28-.13c0-.33.46-.58.49-.76.09-.6-.5-1.12-.49-1.36,0-.18.23-.33.26-.56.07-.63-.26-1.16.31-1.62l-.7-.15c.07-.4.11-.58.54-.73l-.07-1.33c.59-.18.13-.77.22-1.3h-.41s.42-.65.42-.65l-.28-.27c.1-.13.38-1.07.38-1.13,0-.09-.28-.35-.35-.6-.01-.04.03-.84.05-.89.21-.54.71.02.33-.75l.29-.14c-.46-.48.15-1.07-.56-.92l.42-.77-.28-.14.28-.28-.7-.28c.13-.23.51-.92.51-1.13,0-.14-.19-.29-.18-.41.02-.24.83-1.43-.19-1.34l.24-.16c0-.49.35-.81.04-1.31l.27-.14c.05-1.02-.12-2.52.04-3.53.05-.31.33-.52.34-.84,0-.16-.49-.76-.65-.84.8-.6.41-1.12.46-1.72.02-.19.18-.31.2-.51.04-.59-.28-1.2.33-1.58l-.07-.21c-.59-.12-.08-.49-.49-.77l.42-.35-.42-.07c.24-.34.5-.9.53-1.31.03-.38-.16-.64-.06-1.02.08-.31.39-.29.48-.5.06-.16-.11-.61,0-.87.16-.39.38-1.15.6-1.51.29-.48.79-1.05,1.05-1.47.07-.11-.16-.48.17-.55.1-.03,1.67.11,1.79.15.25.1.27.47.47.53.19.05.38-.13.53-.13.08,0,.08.19.14.22.13.07.29.04.38.15.19.24.11.87.76.37l.22.16.15.77.69.02-.14,1.12.42-.14c.21.33.12.98.17,1.2.08.32.51.88.68,1.17.08.14.06.82.14.87l.56-.28c-.04.38.07.76.09,1.13.06,1.02-.03,2.32.25,3.34,0,.02.19.02.25.24.11.4-.04.8-.02,1.2l.56-.14c.03.36.03.68-.28.91.79.29.09,1.4.28,2.08.04.15.3.14.35.23s-.11.55.1.89c.13.22.41.26.48.44.02.05.21,1.07.21,1.13,0,.37-.4.95-.3,1.37.04.16.37.14.42.33s-.14.47-.14.69c0,.38.36.64.15,1.05l.35-.12.2.19c-.47.58.21,1.22.22,1.63,0,.49-.43.28-.35.69l.43.07c.06.69-.57.8-.15,1.62l.56-.14c.09.05-.6,1.88.14,1.83l-.28.21.56.07c.11.43-.14.93-.11,1.3.05.51.53.75.61,1.08.08.28-.16.67-.08.99l.56-.42c.3.44-.19,1.25-.13,1.46.05.16.32.15.41.34.14.31.07,1.29.15,1.72l.56-.14c-.14.22.03.45,0,.61-.02.15-.42,0-.29.37h.42s-.14.48-.14.48c.66.27.18.53.37.89.14.27.51.08.18.6l.63.15.5-.78-.57-.56.56-.35-.56-.35c.34-.35,1.03-1.78.14-1.62.71-.66-.05-1.37-.14-2.04-.05-.37.24-1.05.25-1.28.01-.36-.68-.86.17-1.39-1.22-.68.03-1.32.13-1.72.07-.27-.16-.42-.2-.61-.04-.21-.29-.99-.29-1.05,0-.21.44-.65.43-1.4-.01-.71.15-.47.18-.71.01-.09-.35-.91-.33-1.12.06-.51.16-.19.12-1.05-.01-.22.21-.41.18-.58-.05-.32-.48-.37-.49-.48,0-.06.54-.72.53-1.16,0-.29-.36-.37-.4-.68-.06-.48.39-.66.5-.98.16-.48-.5-.89.21-1.26.06-.14-.24.01-.28-.14-.1-.36.33-.08.28-.35h-.42c.28-.33.03-.68.42-.77-.58-.49.31-.71-.26-.84-.05-.34.34-.55.38-.74.06-.26-.33-.52.16-.46v-.28s-.42.14-.42.14c.14-.29-.05-.65,0-.89.02-.11.24-.1.25-.16.05-.26.17-.91.18-1.13.02-.91-.83-1.44.14-2.03l-.56.14c.12-.26-.02-.54.09-.81.08-.2.33-.21.39-.32.31-.53-.07-1.55-.01-2.18.03-.41.47-1.17.47-1.27,0-.26-.76-.77.04-.92l-.27-.35.7-.35c.04-.26-.35,0-.28-.34.06-.3.37-.36.38-.39.07-.15-.23-1.17.4-1.37l.41.27c.22-.83,1.43-.24,1.68.29.16.34.06.67.13.95Z"/><path d="M217.51,24.16c.08.05.11.32.24.39l.08-.27c.46.42.61.01.88.02.13,0,.79.25.93.33.48.28.29.58.32.6.05.06,1.11.8,1.18.83.12.05.36-.12.58.07.17.14.32.58.32.81l.42-.14c-.17.92,1,1.41,1.53,2.06.16.19.61.89.44,1.04.89-.1.32.84.3,1.2,0,.04.47.3.54.46.09.2.28,1.03-.13.87l.52.35c.11.42-.3.43-.36.57-.1.25.26.76.54.84-.64.54-.26,1.48-.35,2.11-.14,1.01-.71,2.5-1.2,3.35-.35.6-.45.97-.9,1.6-.03.04-.16.05-.23.04-.06.23.18.09.25.16.37.36-1.67,1.81-1.55,2.35l-.39.02.22.56c-.13.21-.97.41-1.21.63-.15.14-.01.55-.28.71s-.48-.1-.62-.08c-.1,0-.11.25-.24.34-.45.32-.63.18-.55,1.07l-.28-.28c.01.49-1.13.05-.43.91.95-.17,1.17.18,1.63.92l.21-.28.78.84.35-.42c.41.5,0,.86,0,.91,0,.09.29.15.38.26.29.39.47.54.82.94.18.2.5.09.35.7l.7-.28v1.26s.72.23.72.23l-.15.9c.39-.23.8.47.56.84l.41-.13c.15.4.49.56.02.9.14.3.58.15.7.21.01,0-.09.16-.05.28.17.53.23.67.05,1.26h.84s-.28.28-.28.28h.28c-.2.31-.31,1.08-.23,1.42.07.3.39.29.45.48.38,1.17.32,2.85,1.26,3.87.23.25.61-.03.55.73-.06.69-.45,1.08.48,1.55l-.27,1.01c.32,0,.72,1.16.7,1.27-.03.14-.29.25-.33.38-.11.28.08.53-.21.91-.24.32-.54.28-.71.43-.18.16-.06.5-.34.51-.39.16-1.37-.52-1.63-.81-.19-.22.05-.57-.43-.7l.13-.9h-.41c.05-.2.19-.59.12-.76-.08-.2-.32-.19-.37-.26-.02-.03.11-.47.05-.68-.1-.34-.56-.27-.36-1.03.03-.11.48-.08.28-.37-.01-.02-.19.05-.32-.18-.36-.61-.2-1.07-.35-1.47-.08-.23-.35-.47-.47-.82-.19-.56-.11-1.32-.27-1.9l-.21.28-.29-.41c.67-.96-.37-1.19-.68-1.69-.14-.23.1-.71.04-.9-.06-.18-.33-.18-.38-.26-.18-.31.06-1.25-.87-.82,0-.5-.3-.93,0-1.41l-.7-.15c-.04-.3.19-.58.14-.88-.01-.1-1.28-1.11-.99-1.64l-.7.28-.14-.84-.56.14-.16-.54-.69-.02v-.56s-.35.42-.35.42c-.58-.48-.87-1.13-1.69-1.4-.44-.14.05.43-.14.42l-.77-.42c.22.61-.2,1.05-.16,1.62.03.34.33.09.3.34-.62-.08.06.9-.56.85.38.33.09.57.13.88.01.11.23.11.29.2.24.35-.19.59-.15.94,0,.08.23.09.23.12.16.5-.28.4-.36.62-.02.06-.1,1.18-.1,1.25.01.15.3.36.35.59s.08,1.8.11,2.22c.02.24-.59.61-.34,1.38.06.2.34.33.36.45.04.24-.35.38-.37.43,0,.04.09.32.09.46,0,.38-.31.54.17.67v.14s-.28-.07-.28-.07l.27.34c-.62.75.08,1.19.11,1.41.05.34-.49.3-.39.56l.28-.07-.37.78.23.28-.14.14c-.34-.14-.31.21-.59.39-.58.37-1.11.3-1.17,1.08l-.48-.3.12-.55c-.55.24-1.48-.26-.7-.63l-.7-.21c.11-.31.14-.74.29-1.02.09-.16.26-.1.27-.11.04-.05-.41-.44-.28-.7h.42s0-1.69,0-1.69l-.56.07.13-.54.57-.1-.56-.14c-.06-.37.17-.55.42-.77l-.28-.14.28-.49-.56-.28c.25.07.65-.58.56-.71-.99.14-.09-.67-.42-1.27l.28-.07c-.26-.18-.24-.48-.34-.73-.02-.05-.22-.05-.22-.11.04-.35.35-.84.7-.99v-.21s-.28-.07-.28-.07c.47-.49.06-1.14.28-1.75l-.55-.22c.23-.5.59-.77.16-1.27l.55-.44-.37-1.25.36-.63h-.42c0-.41.58-.91.35-1.26-.06-.1-.27-.11-.31-.17-.14-.19.23-1.31.21-1.62-.04-.66-.37-.52.29-1.26.01-.17-.2-.3-.22-.44-.07-.48,0-.82.07-1.25.03-.25-.33-.53.18-.48l-.39-.34.53-1.56-.28-.21.28-.07c-.51-.42,0-.89-.26-1.57-.08-.21-.32-.2-.31-.26.05-.25.53-.69.56-.99.07-.66-.42-.78-.42-.83.06-.53.93-1.59.56-2.33l-.28-.07.24-.1.18-.54-.42-.07.57-1.54-.56-.35c.6-.05.11-1.08.56-1.34-.58-.16-.15-.64-.07-1.05.03-.17-.05-.33-.03-.47.05-.26.55-.42-.05-.59l.42-.56-.28-.07.28-.28-.42-.07c.12-.06.03-.26.05-.29.14-.2.24-.21.51-.21l-.25-.2c.14-.37-.18-.83-.15-1.14.01-.22.31-.39.27-.55-.04-.18-.46-.12-.42-.35.62-.4,1.11-.2,1.35-.99.51-.14.51.29.54.29.27-.01.52-.44.5-.7h.14c.16.8.75,0,.8,0,.36-.07.72.27.96-.14.45.82.24-.13.28-.14.14-.03.63-.04.75.03ZM217.64,27.4c-.56-.24-1.52.17-2.07.39l.42.28c.05.22-.2.08-.28.24-.2.45-.23,1.21-.02,1.67l-.27.06.07.28.35-.14c.02.46-.18.89-.21,1.34,0,.12.16.28.16.41.01.33-.32.34-.34.42-.03.1.19.57.1.82-.07.2-.39.18-.42.33-.08.36.4,1.08.02,1.53l.27.13-.7,2.68.41.34c-.48-.06-.14.76-.17,1.15-.11,1.5-.46,2.58-.09,3.98.02.08.21.04.23.14.17.78-.61.69-.39,1.48.47-.28.63.02.91.14.1.04.05-.33.21-.49s.83-.27.94-.39c.22-.25,0-.7.89-.52-.36-.6.46-.74.14-1.26.75.1,1.6-.28,1.42-1.12.69,0,.82-.13,1.12-.78l-.42-.28c.16-.31.8-.4.94-.53.07-.07.35-.78.48-1,.1-.17.33-.2.37-.25.05-.07-.34-1.37.45-1.38v-.14c-.49.2-.08-1.01,0-1.06l.43-.07c.09-.58-.28-.5-.7-.56-.07-.09.41-.57.48-.7.05-.1-.06-.26-.05-.33.03-.12.25-.1.27-.17.12-.4-.29-.3-.37-.62-.19-.78.39-1.57-.89-2.05.73-.84-.67-1.06-.99-1.58-.14-.24-.15-.58-.28-.78-.15-.22-.7-.33-.73-.79-.77.24-.42-.06-.77-.28-.24-.15-.55-.17-.81-.3-.08-.04-.09-.23-.14-.25Z"/><path d="M10.34,26.11c.08.2-.19.53-.12.67.1.19.99.65,1.05.72s-.14.61-.08.9c.02.1.23.08.27.2.33.97.37,1.22.43,2.2,0,.11.25.11.34.24.51.74.53,1.34.69,2.01.06.23.23.41.24.65l.42-.28c.1.26.08.64.18.88.24.58,1.04,1.31,1.06,1.39.09.29.12.7.39,1.1.04.06.74.94.8.96.6.21.67.33,1.21.83.71.65.87,1.09,1.84.33l-.28-.21c.68-.3.41-.61.5-.78.37-.7.97-1.24.91-2.17l.13-.16c.37.31.86-.64.92-.91.04-.2-.24-.32-.21-.48.03-.2.53-.27.67-.4.27-.26.24-.91.35-1.06.04-.05.63-.24.76-.5.25-.49.53-1.24.91-1.68.28-.32.75-.49.97-.77.24-.3.46-1.38.74-1.68.12-.12.58-.19.89-.46.42-.36.26-1.19.95-.99.1.03.07.25.16.26.14.02.44-.16.71-.05.26.1.45.48.9.37-.12.44.23.75.29,1.06.06.32-.08.58-.07.84.02.41.32.7-.07,1.19h.42c.02.32-.42.6-.44.77-.02.23.02,1.14.05,1.41,0,.04.38.15.21.68-.09.27-.52.41-.35.78l.26.09-.28.16c.14.57-.09,1.12-.15,1.68-.04.4.4.38-.28.7.2.41.6,2,.56,2.39-.03.3-.34.38-.4.59s.11,1.15.08,1.48c-.09.97-.13,1.79-.16,2.71,0,.19-.23.35-.23.56,0,.05.43.02.29.55-.02.08-.48.16-.28.65l.42-.07-.42,1.05.41.06c-.1.66-.31.39-.55.51-.06.03-.03,1.24-.01,1.3.04.16.42.2.42.31l-.52.56c-.02.36.53.37.53.7,0,.52-.57.95-.57,1.01,0,.24.31.68.3,1.12,0,.53-.54.8.1,1.12-.01.39-.31.6-.37.98-.05.3.17.59.18.84.05,1.17-.1,2.2-.04,3.39,0,.19.21.33.21.42,0,.14-.32.24-.23.49l.42-.14c.02.54-.48.46-.43.92.53.45.09.68.14,1.27.02.26.25.2.27.28.06.19-.34.66-.26.91h.42c.05.04-.38,1.25-.37,1.33.01.14.28.26.22.53-.09.36-.57.2.13.59.04.34-.35.5-.36.53-.03.1.07.29,0,.49-.69,2.08-3.46-.27-2.18-1.72-.14-.23-.29-.34-.54-.21.21-.66.32-.92,0-1.59-.07-.16-.43.06-.13-.57-.71-.33.23-1.38.28-1.84.07-.6-.3-.49-.3-.57,0-.17.22-.41.24-.7.05-.66-.29-1.27-.25-1.83.01-.14.53-.51.43-1.1-.04-.25-.76-.03,0-.79-.32.12-.54-.98-.55-1.18,0-.09.05-1.29.05-1.36.03-.27.39-.62.36-.76-.03-.13-.35-.16-.39-.24-.21-.36.17-1.2.2-1.59.03-.42-.15-1.04-.01-1.5.09-.31.53-.28.35-.89l-.43-.07.13-.5-.27-.12c.72-.72.21-1.37.28-1.97.02-.2.22-.33.25-.46.02-.11.05-1.95.04-2.05,0-.05-.46-.13-.24-.84.09-.29.35-1.06.51-1.14-.47-.78.03-1.54-.13-2.33l-.28.14c-.05-.87.73-1.89.56-2.74-.09-.47-.61-.46.16-.87-.24-.42-.06-1.14-.43-1.24.62-.48.05-1.07.05-1.27,0-.14.32-.24.23-.49-.47.09-.47.44-.7.78l.28.13c-.11.63-1.25.23-.42.71-.19.39-.66.2-.69.23-.09.11-.09.63-.44.76l.28.14c-.16.44-.75.17-.84.42-.17.46.28.24.28.49-.37.19-1.02.75-1.22,1.11s-.02.71-.12.86c-.14.21-.45.26-.54.41-.08.12.15.83-.5.57v.35s.29.14.29.14c0,.15-.09.26-.16.39-.05.1-1.12,1.59-1.21,1.66-.11.08-.37.06-.46.15-.02.02.09.32,0,.46s-.28.05-.39.13-.11.3-.28.36c-.09.03-1.52.18-1.68.17-.34-.02-.83-.55-1.32-.66-.2-.04-.51.12-.56.08s-.22-.71-.64-.99c-.25-.16-.81-.07-.9-.15-.05-.05-.08-.94-.5-1.26-.15-.11-.44-.11-.48-.15-.08-.1.02-.41-.02-.58-.03-.11-.21-.11-.27-.21-.13-.26-.17-.78-.53-.85-.24-.05-.5.24-.68-.02-.15-.23.12-.7.02-.92-.07-.15-.92-.92-1.07-1.15s-.14-.57-.3-.8c-.24-.37-.51,0-.27-.92h-.41s-.15-.7-.15-.7c-.38.43,0,1.06-.03,1.16-.02.12-.21.24-.25.46-.1.64.27.64.26.68-.03.48-.57,1.06-.57,1.13.03.78.67,1.82.01,2.54l.28.15v.39s-.29.3-.29.3l.29.28-.43.92c1.05-.06-.19.75-.25,1.23-.02.16.17.27.18.39.02.2-.1.38-.05.67s.61.44-.15.69c.27.56-.17.82-.26,1.21-.15.63.59,1.61-.05,2.36l.31.56-.43.42.56.42c-.39.33-.51,1.34-.42,1.8.02.11.42.04.28.57-.01.05-.52.35-.54.75,0,.21.24.34.26.55.02.17-.26,1.11-.12,1.54.03.08.36.11.34.42-.01.25-.42.87-.35,1.12.04.16.63.17.3.88-.09.2-.4.4-.41.53,0,.07.17,1.38.19,1.45.06.17.27.16.3.24.07.21-.54,1.15-.55,1.26,0,.07.03.8.04.83.13.32.67.03.12.72l-.43-.07c-.06.05.29,1.23.29,1.33,0,.08-.24.06-.28.18s-.29,1.31-.27,1.38c.06.17.48-.17-.02.56l.28.22c-.42.39-.06.46-.05.63.02.6-1.59,1.05-1.78,1.62-.65-.26.07-1.05-.98-.7.01-.17-.08-.34-.07-.5.04-.9.6-2.74.5-3.49-.02-.12-.4-.04-.29-.44.02-.06.27-.06.27-.13-.02-.34-.28-.62.16-1l-.29-.28c.99-.84-.48-2.4.57-2.95v-.28c-.62-.17-.03-.46-.09-.89-.05-.32-.31-.31-.33-.41-.14-.59.23-.76.28-1.11.1-.7-.24-.47.13-1.43.33-.85-.39-1.81.15-2.56l-.42.14c-.26-.47.21-.79.21-1.14,0-.4-.38-.38-.37-.61.03-.93.86-2.41.45-3.39l.26-.12c-.26-1.34.42-3.26.4-4.55-.01-.84-.52-1.56.04-2.35-.54-.15,0-.94.06-1.4.07-.51.17-1.33.16-1.81-.02-.71-.88-.98.19-1.57l-.56-.28c.03-.32.49-.69.54-.88.06-.24-.1-.45-.08-.65.03-.29.4-.65.46-.93.1-.46-.06-1.24.34-1.76l-.42-.07.42-1.06-.29-.14c-.06-.39.79-1.13.15-1.54l.56-.21-.14-.42c.11-.08,1.27.14,1.49.1.24-.05.03-.57.62-.23Z"/><path d="M191.21,26.24l.07-.28.65.36.34-.36c.38.07.58.69.77.77.11.05.27-.08.39-.03.2.09.39.56.34.79h.41c-.36.47-.24.76-.14,1.28l-.28-.07.13.33c-.58.08-.18.43-.48.72l-.63-.42-.03.24c-.25-.09-.28-.13-.26.18l-.56-.28.28.28c-.32.09-.6.04-.91-.04-.07-.02-.06-.19-.18-.23-.29-.1-.71.09-1.02-.29-.22.47-.38.23,0,.84l-.84.14.14.42c-.25.08-1.03.42-1.18.55-.26.24.21.45-.58.42-.26.57-.36,1.34-1.02,1.59.02.42-.09.93-.6.82l.28.56c-.52.05-.39.74-.98.43-.09.26.29.36.21.56-.11.31-.64.74-.82,1.17-.13.31.2.58-.24.52l.56.28c-.43.07-.39,1.09-1.13.99l.15.48c-.78.39-.35,1.52-1.13,1.84l.42.49c-.48.17-.97,1.27-.56,1.69-.16.04-.76.37-.82.45-.04.05.08.27.06.39-.06.31-.3.51-.09.85h-.42s0,.84,0,.84l.56.07-.69,1.29.27.26-.58.58c.5.72-.09,1.39.29,1.95-.41.09-.2.56-.28.91h.42c-.21.72-.77.69-.5,1.56h.36c-.01.19.04.42,0,.6-.02.08-.81.47.28.8-.45.78-.59.84-.27,1.72.28.76.1,1.19.28,1.85.09.31.14.16.21.87.03.33.47,1.17.63,1.93.02.08.47.28.52.61.02.17-.12.37-.08.52.05.17.38.26.53.46.53.72.74,1.5,1.52,1.99.43.27.96.29,1.02.32.03.02.06.28.33.44.17.09.74.09.92.16.04.01.18.3.59.43.66.21.92-.26,1.23-.31.18-.03.64.29.82.23.07-.02.05-.2.17-.25.23-.08.52.01.79-.14.29-.17.36-1,1.07-.59.23-.17.2-.8.23-.84.12-.16.43-.02.54-.31.09-.25-.24-.48-.04-.8l.7.14c-.13-.16-.32-1-.25-1.1.06-.08.29-.1.4-.23.12-.15-.13-.42.27-.36l-.29-.22c.07-.58.32-1.11.71-1.54l-.37-.42c.49-.58.28-1.22.08-1.93-.02-.08-.36-.15-.24-.46.03-.09.23-.06.23-.13-.01-.46-.6-1.69.16-1.77l-.28-.2c.07-.4.51-.62.5-.85,0-.21-.18-.41-.2-.6-.03-.5-.04-.72-.1-1.23-.04-.31.25-.82-.21-1.12-.16-.1-.86-.24-1.06-.23-.27.01-.2.29-.27.28-.57-.03-1.07-.41-1.81-.12-.2.08.03.55-.45,0l-.13.28c-.57-.54-.88.11-1.42-.13s-.65-.98-1.19-1.23c.44-.74-.12-1.36.94-1.45l.05-.43c.54.24.86-.24.91-.25.24-.07.84.17.78-.31h.14c.23.82,1.27.93,1.83.35l-.28-.21c.58-.25,1.14.24,1.65.24.04,0,.82-.1.86-.12.11-.07-.02-.4.51-.41.64-.02.59.38.77.49.05.03.82.13.98.1l.18.95.39.02-.06.43-.5.2c.33.58.64,1.22.56,1.9l.42-.14-.43,1.61c1.57.42-1.04,1.41.57,1.83-.22.3-.43.72-.47,1.08s-.02.67-.09,1.17c-.01.08.23.05.25.13.19.64.07,1.39-.14,2.02l-.39.02c.44.43.76,1.45-.14,1.41.9.94-.05,1.2-.14,1.51-.08.26.17.66-.28.6l.26.35-.41.56.43.49-.97.44.13,1.1-.97.02c-.21.35-.28.55-.16.96-.94-.42-1.06,1.3-1.97,1.27l.14.7c-.69-.14-1.32-.36-1.41.56l-.56-.28-.08.43c-.71-.21-.98.61-1.26-.15-.26.28-.75.46-1.13.43-.31-.02-.45-.23-.71-.29-.23-.05-.67.17-.81.1-.22-.1-.57-.72-.76-.8s-1.24-.46-1.43-.51c-.24-.06-.47.14-.71.02-.22-.11-.64-.92-.64-1.22h-.34c.05-.46-.26-.44-.52-.68-.3-.29-.11-.58-.9-.44l-.15-.83h-.49c.17-.61-.25-.76-.3-.88-.06-.15.08-.34-.18-.61-.19-.2-.73-.08-.95-.37-.03-.04-.06-.92-.04-1.01.03-.12.38-.04.28-.3-.13-.34-.57,0-.7-.07l.28-.78-.27-.13c.35-.45-.13-.79-.15-1.14-.03-.48.08-.63-.19-1.16-.02-.04-.32-.08-.35-.41l.26-.74-.28.07c-.22-.51.18-.81.14-.98-.03-.15-.39-.16-.43-.32-.06-.28.09-1.06.29-1.31h-.28s.28-.28.28-.28l-.56-.16c.19-.94.4-2.47.13-3.39-.04-.14-.29-.06-.28-.31.02-.47,1.14-1.06.28-1.42v-.28s.42-.21.42-.21l-.42-.14c-.19-.73.76-.78.41-1.44-.06-.12-.27-.12-.26-.17.07-.66.76-.83.83-1.7.03-.35-.11-.12-.27-.06-.38-1.05.44-.9.66-1.35.1-.21.07-.61.15-.86.07-.22.34-.4.42-.71.17-.62.21-1.59.4-2.26.26-.87.64-.65.88-.89.02-.02-.12-.51-.07-.62.06-.17.29-.15.37-.31.12-.26.15-.85.28-1.23.38-1.04,1.08-1.61,1.33-2.87.03-.13-.09-.34-.04-.41.15-.22,1.01-.26.83-1.02l.28.14-.14-.7c.21-.11.59-.08.75-.15s.02-.52.37-.43l-.28-.28c.42.07.21-.36.35-.57.09-.14.36-.1.45-.18.31-.3.58-.75,1.03-1.01l-.28-.35c.37.19,1.28-.96,1.37-.98.54-.11,1,.01,1.57-.37.25-.17.45-.62.53-.63.23-.04,1.27.08,1.45.29Z"/><path d="M94.14,29.29c.59.79,1.32,1.38,1.82,2.19.2.33.46,1.16.65,1.43.08.12.53.07.68.9.12.69-.33,1.16.46,1.51-.79.53-.08,1.11-.17,1.57-.09.48-.09.67-.15,1.08-.03.24-.44.6-.38.94l.42.21c-.67.38-.36,1.42-.57,1.68-.2.24-.49.17-.56.33-.17.4-.17,1.51-.27,1.64-.1.14-.35.03-.45.17-.25.34.23.98-.55,1.04l.28.21c-.26.88-.99.93-1.19,1.2-.04.05-.55,1.06-.57,1.12-.07.24.24.39.15.57-.14.3-1.1.65-1.18.74-.07.09,0,.32-.05.36-.1.09-.43-.05-.53.04-.04.04.01.25-.06.35s-.29-.04-.24.18c1.23-.22.84.24,1.15.54.02.02.2-.08.33.01.23.17.31.51.49.63.07.05.25-.05.26-.04.08.1.06.54.18.66.02.02.45-.1.53.04.1.16-.01.54.43.9l.35-.18.22.17c.18.13,0,.39.03.47.15.36.52.4.73,1.15s.72,1.22.76,1.35c.14.45-.25.87.44.76l-.08.98c.82.33,1.09.65.79,1.54l.7-.14c0,.39.14.66-.28.77.41.18.34.88.46,1.03.02.03.59.18.64.33.03.1-.15.36-.11.6.03.19.23.33.25.47.08.47-.29.76.46,1.09v.2c-.67.08.03.97.11,1.24.15.55.13.83.34,1.5.1.31.03,1.01-.03,1.35l.43.07c.15.75-1.39,1.25-1.9,1.59-.52-.28-.62-.83-.91-1.27-.09-.13-.36-.17-.41-.33s.17-.84.13-1.25c-.09-.86-.45-.83-.32-1.85.07-.49-.75-1.71-.81-1.97-.18-.78-.3-1.33-.63-2.02-.1-.2-.46-.22-.5-.38-.05-.24.07-.56,0-.79-.03-.1-.93-1.45-1.1-1.75-.11-.19-.09-.47-.18-.63-.12-.21-.52-.41-.66-.78-.43-1.19.21-.73-.93-2.01-.45-.5-.77-.9-1.37-1.31-.16-.11-1.05-.69-1.11-.71-.24-.07-.42.16-.64.14s-.91-.32-1.12-.34c-.3-.04-.98.43-.64-.44l-.57-.06c-.18-1.26-.72-1.15-.78.06-.02.38-.02.66-.04,1.05-.03.66.4.81.41.86.05.41-.38.54-.39.69,0,.07.22.4.24.71.04.49-.17.94-.29,1.4l.3.15-.29.7.42.28c-.07.36-.46.66-.53.96-.02.08.1,1.56.15,1.62.06.08.37.12.38.24.02.15-.38.39-.39.42-.04.15-.04,1.04.25.98-.65.58.11,1.26.11,1.41,0,.2-.55.29.03.41l-.43.7c.25.29.11.82.15.98.04.14.26.13.33.23.35.5-.88,1.86-1.37,2.09-.19-.16-.73-.28-.85-.39-.23-.21.11-.56-.34-.33l-.46-.49c-.22-.34.13-.52.11-.67-.01-.14-.32-.26-.36-.44-.03-.15.31-.97.35-1.29.05-.35-.07-1.81-.19-2.1-.13-.31-.44.07-.17-.77.04-.12.23-.1.24-.18.07-.71-.23-2-.18-2.62.02-.28.13-.57.35-.76l-.42-.42c.58-.16.65-1.22.14-1.4.58-.42.21-.96.43-1.55l-.44-.55c.03-.3.67-1.38.43-1.62-.07-.07-.47.13-.42-.14.61.03.15-.97.16-1.35,0-.18.2-.34.21-.55.06-.7.34-2.34.31-2.83-.02-.26-.31-.43-.36-.77-.02-.2.43-1.51.48-1.94.02-.16.05-1.4.02-1.46-.05-.11-.23-.11-.25-.18,0-.04.15-.71.17-.74.04-.08.35-.06.38-.38s-.29-.57-.26-.82c.02-.2.3-.43.26-.72l-.3-.28.43-.86s-.42-.03-.29-.54c.04-.15.35,0,.29-.22l-.26-.07.13-.27-.29-.15.57-.58c-.35-.67.1-1.34.15-1.96.04-.54-.14-1.19-.07-1.82.03-.24.28-.52.29-.87.01-.24-.26-1.65-.22-1.72.11-.18,1.1-.39.13-1.07.28-.42.79-.26,1.07-.69.16-.24-.13-.47.47-.37l.07.42c.58,0,.37-.48.67-.61.13-.06.94.04,1.15.06,1.06.15,4.02.87,4.66,1.68.17.21.14.48.27.65ZM91.81,30.21c-.06-.08-1.72-.54-1.88-.53-.17.01-.31.18-.45.2-.45.04-.79-.12-1.3.17.15.26.42.12.28.61-.58.18.04.76,0,1.28-.03.33-.38.6-.37.71,0,.09.21.22.22.41.02.55-.04,1.32-.28,1.83.69.21-.22.49-.28.85-.11.68.15,2.11.13,2.8-.01.47-.37,1.19-.37,1.59,0,.28.4.42-.04.88.91-.13.09.8.05,1.2-.04.31.1.59.08.83-.08.68-.25,1.36-.27,2.05l.42.07c-.19.34-1.1,1.14-.14,1.06.07.58-.32.54-.4,1.06-.14.9.65,1.63.83.48l.56.14c.12-.36.09-.41-.14-.7.27-.09.59.11.78.12.06,0,.03-.18.17-.25.28-.13.49-.03.82-.47.43-.56.73-.66.96-.96.27-.34.38-1.33.42-1.4.13-.19.44-.18.6-.33s1.2-1.79,1.28-2.03c.21-.67-.25-.63-.25-.67.04-.36.31-.84.72-.86-.06-.91.16-.45.48-.76.36-.34.3-.91-.21-1.06.14-.17.33-.36.43-.56.21-.46.44-1.42-.14-1.55.16-.16.31-.25.37-.49.14-.59-.71-2.21-1.02-2.8-.24-.46-.97-1.86-1.36-2.09-.15-.09-.4,0-.5-.06-.15-.1-.1-.66-.19-.79Z"/><path d="M38.64,27.51h.14c.24-.91.68.39,1.12,0,0,.69.38.42.5.55.76.86,1.08,1.52,1.71,2.39.14.2,1.15,1.04,1.19,1.24.04.25-.13.48-.05.85.05.24.43,1.43.54,1.71.14.39.47.66.57.91.17.46-.2,2.83-.14,3.47.15,1.76,1.53,3.53.77,5.4l.29.15-.16.54.29.16c-.09.2-.18.82-.12.98.06.15,1.02.66-.03.84.32,0,.42.87.41,1.13,0,.19-.22.32-.22.41,0,.13.34.37.36.58.01.19-.25.33-.24.52.01.16.23.33.24.58.02.48-.35.95.03,1.55.1.16.39.2.42.31.05.25-.32.86-.26,1.25.01.09.22.06.22.13.05.57-.19,1.01.18,1.55l-.42.35c.4-.07.22.73.32,1.16.17.67.81.96.24,1.52h.56c0,.41-.47.58-.42.77.46.12.21.35.29.67.03.11.23.09.27.21.17.5-.12,1.18.29,1.66l-.4.28c.23.81-.08,1.81.83,2.24-.55.54-.16,1.61-1.19,1.69-.26.02-1.19-.46-1.39-.63-.16-.14-.41-.84-.51-1.04-.05-.1-.28-.09-.28-.16.02-.36.43-.53.42-.7-.04-.53-.62-1.46-.7-2.14-.05-.38.13-.82,0-1.23l-.43-.09.28-.91-.42-.07c-.07-.34.23-.66.26-.95.01-.1.04-1.15.03-1.21,0-.1-.22-.07-.25-.16-.18-.52.15-1.57-.1-2.48-.07-.27-.85-.55-.08-.9l-.15-.35-.28.14.28-1.13h-.56c-.05-.33.42-.61.43-.65.04-.37-.58-.81-.29-1.32-.5-.08-.55.03-.77.42-.46-.79-1.76-.1-2.24-.14-1.74-.12-2.18-.62-4.18-.23-.25.05-.54-.1-.73-.04-.33.11-1.12,1.18-.38,1.32l-.56.44c.11.61.18,1.2.22,1.81,0,.12.18.24.17.4-.01.3-.33.94-.38,1.3l.28.13c-.52.78-.19,1.69-.14,2.4.02.31-.3.75-.29,1.11l.42.15-.84,1.27.29.27c-.38.41-.15,1.53-.71,1.62v.14c.22-.17.37.53.37.63-.01.25-.31.41-.32.57s.29.32.11.71c-.14.31-.4.34-.42.36-.02.04-.11.65-.16.9-.03.14.15.39.08.49-.13.17-.43.08-.6.18-.16.09-.39.53-.81.52-.09,0-.06-.23-.14-.26-.07-.03-.33.09-.47-.06-.12-.13-.09-.41-.18-.57-.06-.11-.28-.11-.28-.18,0-.23.29-.42.26-.67-.03-.2-.4-.51-.38-.88.02-.3.56-.99.62-1.32.06-.35-.27-.77.22-1.07l-.29-.14.43-.84-.29-.14v-.28c.53-.19.78-1.1.28-1.29l.28-.98-.28-.12.54-1.59c.07-.27-.38-.26-.41-.4-.04-.22.53-1.13.44-1.8l-.41-.09c-.34-.97.51-1.44.65-2.21.13-.72-.14-1.87-.08-2.5.06-.7.67-1.59.25-2.46l-.42.14.56-1.34c-.66-.23-.44-1.1.28-1.05-.64-.54.18-1.17.15-1.75,0-.08-.27-.07-.29-.16-.13-.57.34-.54.49-.77.7-1.11.31-1.94.79-3.01l-.29-.14c-.04-.29.25-.47.25-.56,0-.13-.29-.25-.24-.35.01-.03.33.04.42-.36.07-.3-.45-.19-.27-.34.11-.1.48-.13.56-.5-.73-.33-.17-1.7.28-2.11l-.28-.56c.47-.18.42-.54.65-.91.05-.09.27-.11.31-.17.04-.05-.23-.91.45-1.03l-.56-.28c.17-.4.27-.4.7-.35l-.08-.57.5-.14-.29-.22c.06-1.01.33-.59.68-.79.26-.15.2-.78.23-.82.07-.08.87-.31,1.06-.5.23-.23.32-1.16.86-.06ZM39.06,30.46l-.98.28.28.21c-.8.44-.39.51-.49.93-.07.29-.35,1.48-.4,1.61-.06.18-.32.16-.36.22-.03.05.14.27.09.44-.18.61-.49,1.25-.67,1.87l.42.14c-.12.42-.59.76-.67,1.17s.13.64.08.91c-.2.99-1.39,1.95-.68,3.14l-.27.12.15.42-.29.08c-.06.24.23.07.26.21.13.48-.41,1.21-.51,1.59-.17.64.16,1.8-.3,2.06l.13.78.77-.28.35.42.35-.42.28.42c.44-.48,1.83,0,2.26-.17.09-.03.02-.27.27-.27.07,0,1.29.19,1.42.22.22.06.43.35.71.36l.41-.43c.52.58.67.11,1.2.28.08-.37-.1-.21-.29-.37l.15-1.03h-.42s.23-.79.22-.92c-.02-.28-.35-.51-.33-.82,0-.12.34-1.16.25-1.21h-.42c.14-.29.19-.61.16-.93-.03-.28-.31-.14-.31-.41,0-.8.58-.63.57-.71-.24-.23-.05-.69-.17-.89-.04-.08-.34-.1-.39-.25-.09-.27.29-.47.26-.67s-.57-.67-.62-.93c-.03-.16.17-.27.17-.36-.01-.22-.44-.32.05-.77-.85-.29.26-2.51-.98-2.55.23-.74-.2-2.41-1.13-1.96l-.02-.97c-.68,0-.5-.53-.55-.58Z"/><path d="M113.19,26.71c.1.11-.09.5.46.37l-.13.27c.19,0,.32.04.47.16.09.07,1.1,1.32,1.13,1.4.09.24.1.45.08.7h.56c-.01.36,0,.73.12,1.07.08.21.27.21.3.29.5,1.08.67,2,1.12,2.96.25.52.06.87.09,1.32.04.58.32,1.03.06,1.67l.43.07c.03.35.04.46-.29.56v.28c.82.27.19,1.03.32,1.55.02.08.2.05.24.17.2.7.32.8-.13,1.37l.28.13-.13.5h.42c-.5.47.15,1.05-.43,1.2.26,1.12.33,2.71.35,3.93,0,.19-.02.66-.06.82-.05.18-.34,0-.28.23l.42.07-.13,1.12-.41.09s-.11.62-.11.76c0,.79.37,1.59.28,2.34-.02.14-.21.29-.21.47,0,.05.43.03.29.55-.04.13-.43,0-.28.37l.28.07c-.13.14-.34.26-.39.45-.03.09-.25,1.49-.25,1.58,0,.21.25.36.22.5s-.4.16-.43.31c-.07.3.17.69.13,1.07-.04.35-.32.34-.39.49-.16.37-.03.8-.12,1.12-.23.84-1.47,2.76-2,3.49-.2.27-.02.6-.56.49l.28.35-.84.64.28.42s-.76.17-.9.27c-.13.1-.04.31-.12.4-.07.07-1.14.67-1.29.75-.48.23-.89.05-.78.84-.32.12-.97-.38-1.05-.38-.07,0-.33.24-.7.25s-.81-.14-1.14-.29l-.13.28-.56-.7-.28.42c-.38-.16-.27-.64-.38-.81-.07-.11-.53-.18-.71-.31-.43-.32-.48-.95-.95-.85v-1.69s-.42.14-.42.14c0-.33.03-.67-.06-1-.08-.27-.32-.24-.35-.36-.12-.51.11-1.4-.03-1.79-.1-.28-.59-.09-.26-.56l-.25-.11c.25-.55-.38-.66.1-1.1h-.42c.6-.55.03-1.21.05-1.48.01-.15.32-.24.23-.49l-.42.14.13-.5-.27-.13c.25-.38.52-1.08.42-1.53-.02-.12-.28-.1-.29-.17-.03-.25.26-.49.25-.92-.01-.32-.34-.76-.31-.98.05-.41.36-1.17.5-1.61l-.28-.08c.77-.72-.31-1.34-.08-2.04.15-.45.42-.4.53-.69.2-.53-.17-1.36.25-1.84l-.28-.13c.69-.69.11-1.86.17-2.38.04-.32.66-.86.27-1.43l.26-.06-.25-.16c0-.71.87-.84.25-1.59.03-.12.55-.19.57-.72.07-.23-.28-.18-.29-.29-.07-.56.24-1.51.51-2.01.08-.16.92-.44-.08-.64.22-.3.48-.39.85-.35-.3-.57.07-.94.13-1.35s-.34-1.15.42-1.05c.1-.1-.16-.93-.05-1.13.12-.22.47-.27.56-.42.13-.21-.08-.47-.02-.71.12-.47,1.39-1.07.5-1.47.29-.17.42-.55.61-.74.24-.23.06.06.37-.38.34-.49.69-.53.82-.68.07-.07,0-.29.06-.35.08-.08.37-.02.53-.11.27-.15.6-.52.81-.58.48-.14,1.62.38,1.74-.47.02-.02.45.26.52.33ZM112.77,30.36c-.31-.4-1.1-.87-1.61-.51-.07.05-.61.84-.63.93-.06.24.07.55-.03.67-.12.14-.43.05-.51.23-.11.25-.02.72-.11.98-.13.36-.43.56-.56.86-.16.38,0,.71-.09,1.02-.07.28-.35.23-.41.58-.06.38.2.72.17.8-.01.04-.58.38-.68.51-.43.56-.05.79-.19,1.34-.1.38-.57,1.15-.62,1.5-.03.17.42.59.25.74-.07.07-.48-.25-.52.53-.02.4.22.91.18,1.24-.02.14-.27.27-.22.34.03.04.49-.15.09.52-.14.23-.61.54-.51,1.03l.42.07c-.32.61-.66.76-.67,1.56l.53.2-.57.51c.35.88.11.6-.07,1.1-.1.3.17.69.16.84,0,.23-.29.38-.23.63l.42.07c-.62.59-.38,1.22-.57,1.96l.29.15-.28.43c.6.16-.03.53-.1,1.07s.21,1.17-.04,1.67l.56.21-.42.56c.5.13.16.34.21.56.07.31.34.52.22.97l-.28.23h.28s-.28.7-.28.7h.42c-.22.75-.45,1.36-.13,2.14.13.32.21-.21.15.61,0,.04.47.15.27.63l.28-.14c.2.37-.09,1.02-.08,1.19.03.42.81.95.65,1.48l.27-.13c.14,1.44,1.83.79,2.83.62l.28-.43c-.4-.81.32-.4.7-.69.14-.11.09-.36.18-.45.08-.08.31-.05.45-.18.04-.04.68-.94.71-.99.11-.23-.12-.62.04-.94.52-1.05.93-2.03,1.43-2.97.75-1.41-.03-1.56.21-2.63.03-.14.44-.74.44-.99,0-.19-.28-.42-.23-.49.03-.04.3.04.38-.28.08-.33-.05-.67-.39-.79l.69-1.14c-.42-1.05-.31-2.01-.28-3.09,0-.24-.13-.47-.11-.68.03-.38.61-1.1-.01-1.27.22-.43.55-1.03.29-1.5-.1-.18-.33-.12-.4-.43s.5-1.19.5-1.55c0-.57-.51-1.12-.52-1.18-.12-.55.17-1.54.08-1.88s-.5-.4-.51-.49c-.09-.5.38-.43.43-.49.05-.07-.25-.34-.26-.51-.01-.2.26-.34.26-.54s-.32-.49-.36-.76c-.11-.66.05-1.25-.3-1.95-.2-.41-.23-.36-.38-.95-.28-1.15-.41-.83-.94-1.68-.2-.33-.36-1-.59-1.31Z"/><path d="M70.16,30.46h.43c-.78.85-.1,1.19-.06,1.62.03.27-.31.63-.34.88-.16,1.24.12,2.93-.03,4.04-.04.33-.44.76-.38,1.26.03.28.36.54.38.87.06,1.04-.12,2.3-.24,3.27-.03.27.11.57-.03.87.08.1.49-.38.42.07-.09.57-.47.54-.54.65-.06.09.03,1.99.27,2.02-.59,1.16.09,2.67-.43,3.87h.42c-.9.91-.35,1.43-.28,2.33.04.47-.03,1.12,0,1.68.02.37-.39.69.28.78l-.28.35.29.15c-.05.18-.16.37-.15.55.06,1.05.25,1.87.2,2.84-.05.92.18,1.49.58,2.31h.35c-.37,1.22.18,1,.79,1.67.16.18.17.49.23.54.04.03.97.3,1.03.3.08,0,1.37-.44,1.47-.49.89-.48.94-.97,1.41-1.64.73-1.04,1.01-1.45,1.2-2.71.08-.56.63-1.23.6-1.63-.03-.44-.52-.54.18-.7.05-.29,0-.31-.28-.28l.28-.35-.28-.07c-.06-.25.22-.09.27-.15.03-.04-.19-.37-.12-.61.06-.18.39-.17.42-.33.01-.05-.02-.78-.04-.82-.04-.1-.28-.02-.25-.13.02-.08.18-.19.2-.34.1-.76-.08-1.61.36-2.34l-.42.07c-.13-.84.64-.42.27-1.3-.07-.16-.33-.09-.27-.32.06-.36.91-.49.14-.84.09-.14.19-.32.22-.49.05-.28.18-.85.18-1.07,0-.07-.24-.04-.26-.15-.35-1.54.24-2.46.22-3.77-.01-.9-.49-.55-.51-.71-.04-.26.1-1.36.16-1.67.08-.39.62-.8-.01-1,.44-.27.32-.55.37-.99l-.52-.28c.47-1.3.55-2.67.52-4.05,0-.24-.21-.55-.18-.73.02-.14.27-.24.33-.44.1-.34-.31-1.22.05-1.66-.7-.34,0-1.25.11-1.58.12-.39.18-1.8-.25-1.94l.66-.63c.6.13,2.08-.33,2.13.66,0,.17-.2.29-.19.4,0,.32.18.75.5.84-.35.4-.13.56-.15.83,0,.1-.25.07-.28.18-.15.61.05,1.72-.28,2.37l.42.07c.13.44-.21.35-.31.62-.03.1-.13.79-.12.85.08.37.37.3.41.42.02.08-.25,1.2-.26,1.55,0,.32.17,1.1.14,1.24-.03.11-.27.08-.28.18-.06.47.16,1.25.15,1.68,0,.27-.31.14-.31.41-.02.45.33.69.31.99,0,.11-.44-.01-.29.35h.56c.07.5-.34,1.07-.39,1.37-.34,1.76.02,3.96.06,5.73,0,.4-.67,1.27.34,1.4l-.56.5.42.14c.11.63-.53.53-.56.56-.05.04.15.45.14.63-.02.93.04.5.13.87.16.64-.38,1.21-.14,1.87h-.42c.37.7-.09,1.22-.1,1.82-.02.75-.03,1.52-.09,2.32-.02.3-.15.56-.24.84l.29.14-.28.44-.42-.08-.15.56.56.07c-.2.25-.37.9-.55,1.11-.13.14-.35.03-.44.18-.11.21,0,.66-.07.75-.23.33-.77,1.05-1.1,1.35-.48.45-1.12.7-1.58,1.17l.22.42c-.65-.15-.69.28-1.05.44-.68.3-1.39.39-2.09.55-.11.03-.09.28-.17.28-.43.03-1.48-.5-1.93-.71-.09-.04-.1-.25-.28-.33-.2-.08-.6.01-.72-.08-.14-.1-.06-.75-.51-.94l-.56.22-.13-.48.41-.36-1.06-.42c0-.64-.31-1.19-.06-1.83h-.43c.25-.56.21-1.36-.14-1.87-.09-.13-.42-.23-.42-.31,0-.06.47-.29.09-.87-.06-.09-.32-.12-.34-.24-.02-.12.16-.41.17-.62.03-.87-.13-1.57-.17-2.34-.04-.68.25-1.56-.18-1.97l.29-.56c-.41-.11-.19-.46-.29-.84l.43-.08c-.44-.51,0-.64.02-1.19.04-.89-.45-1.06-.44-1.13.03-.12.25-.26.26-.56.01-.37-.28-1.21-.22-1.53.06-.36.51-1.49.36-1.99-.03-.1-.36,0-.27-.42.01-.05.87-.47-.14-.49.07-.69,1.03-1.55.15-2.03l.42-1-.29-.15c-.08-.49.24-1.28.29-1.68.08-.77.07-1.55.1-2.25.04-1.2-.03-2.02-.35-2.94-.07-.21.48-1.02-.03-1.4l.43-.29-.28-.14v-.28c.65-.17.17-1.33.19-1.65.03-.71.7-1.76-.04-2,.26-.56.92-.5.56-1.2l1.69-.08c.09.06.32.5.35.63.09.44-.05,1.12-.04,1.33.02.3.53.72.12,1.22Z"/><path d="M60.43,27.62l.21-.24c.51.18.9.51,1.38.74.13.06.32-.03.41.03.29.19.09.57.98.2l.11.5-.39.34.42.07c-.09,1.17-.92.9-1.62,1.08-.07.02-.06.25-.14.26-.29.03-.82-.45-1.57-.39-.37.03-1.38,0-1.45.03-.31.1-1.06.73-1.53.79l.12.26c-.94-.24-.83.5-.87.54-.1.11-.48.11-.53.18-.04.04.15.32-.02.6-.09.16-.88.9-1.11.79-.01.23.48.07.28.49-.11.23-.45.16-.54.23-.03.03.02.56-.17.85-.21.34-.71.16-.14.81-.5.06-.63.71-.78,1.12-.08.2-.44,1.44-.44,1.63,0,.23.22.37.23.68,0,.86-.49.6-.56.65-.02.02.12.41.11.59-.05.7-.78,3.18-.64,3.7.01.05.66.36-.17.63l.02.27.27.08v.28c-.52,0-.47,1.27-.36,1.55s.86.83-.06.78c-.08.33.34.4.39.65.07.38-.58,1.61.03,1.81-.43.32.07,1.33.42,1.55-.71.67.23.97.28,1.16.12.43-.19.96-.15,1.22.01.09.24.09.25.13.1.3.13.84-.1,1.08h.42c-.31.85.4,1.76.43,2.67h.56s-.13.7-.13.7l.38.03c.26.32.13,1.08.2,1.29.1.31.72.43.79.55.08.15-.03.42.05.51.1.11,2.23,1.23,2.53,1.34.32.12.68.15,1.02.24.28-.57,1.31-.74,1.66-1.2.2-.27-.22-.66.54-.65-.41-.66.73-1.36,0-1.6.11-.47.62-.69.77-1.04.03-.06.15-1.27.16-1.36.03-.7-.23-1.53-.19-2.39.01-.2.2-.35.2-.56s-.21-.38-.2-.42c.03-.23.86-.38.52-1.05h-.41s.14-.43.14-.43l-.28.14v-.7s.42,0,.42,0c-.79-.99-.16-2.15,0-3.23-.68.33-.7-.5-1.32-.43-.11.01-.06.45-.66.37-.57-.08-.34-.69-1.33.06-.7-.65-.93.15-1.24.12-.74-.07-.5-.7-.57-.87-.1-.28-.43-.51-.38-.85.01-.09.25-.06.28-.19.07-.24-.1-.62.24-.73.22-.07,1.42.02,1.77-.04.48-.09.94-.56,1.56-.39.11.03.1.29.17.29.12,0,1-.21.97-.43l.63.28-.07-.43c.56-.06,2.54,1.17,2.55,1.62,0,.19-.28.37-.31.56-.05.39.14,1.88.36,2.26l-.28.13c.57.21.65.8,0,.92,0,.22.36.23.41.29.03.05-.13,1.06-.15,1.15-.05.19-.31.29-.34.44-.09.52.19,2,.15,2.68-.02.32-.25.6-.22.98.02.29.39.79.29,1.1-.04.11-.26.08-.28.19-.02.14.13.32.07.48-.05.13-.32.25-.44.51-.19.41.23.52.24.56.07.35-.53,1.45-.67,1.85-.08.25-.04.71-.09.81-.09.19-.34.21-.43.34-.06.09.06.52-.15.84-.15.23-.42.26-.6.53-.33.5.04,1.02-.73,1.03l.14.28c-.48.2-1.4,0-1.27.7l-1.83-.14.14.42h-.49s-.07-.42-.07-.42c-.42-.12-.16.3-.48.29-.55-.02-1.56-.32-1.62-.94-1.06.27-.73-.44-1.22-.75-.29-.18-.66-.09-.9-.23-.28-.17-.74-1.11-.93-1.33-.15-.17-.41-.14-.61-.37-.06-.07-.68-1.21-.69-1.28-.03-.2.16-.56.12-.6-.1-.1-.57.06-.77-.72-.08-.3.05-.47,0-.7-.05-.26-.34-.25-.36-.37-.04-.21.05-.46,0-.65s-.83-.22-.17-.87l-.54-.35c.25-.25.28-.83.09-1.09-.07-.11-.34-.1-.46-.38-.08-.19-.11-1.44-.13-1.7-.02-.29-.36-.48.06-.84l-.42-.07c.02-.28.41.01.28-.42l-.27-.06c.52-.72.01-.99-.09-1.49-.14-.64.11-1.44.16-2.04s-.45-2.07-.36-3.1c.08-.97.91-2.02.14-2.95,1.01-.3.46-.84.49-1.35.03-.38.3-.63.35-.92.06-.38-.32-1.02.28-1.04v-.27s-.28-.07-.28-.07c.16-.29.19-.42.57-.35l-.12-.4c.84-.12-.04-1.27.12-1.42l.43-.09c.23-.41-.22-.76-.14-.88.05-.07.46-.11.55-.65l-.28-.07v-.2s.7-.42.7-.42l-.27-.4c.04-.2.57-.58.64-.7.18-.31.42-1.33.54-1.5.09-.13,1.38-.66,1.69-.98.4-.42.74-1.49,1.44-1.84.25-.12.44.03.57-.03.04-.02.4-.51.71-.64s.69-.13,1.01-.03v-.43c.7.58,1.23-.18,1.95.25Z"/><path d="M235.37,26.14c.07.03.09.24.19.3.38.23,1.04.04.45.72,0,.11.48.43.51.73.02.24-.34.34-.26.61.48-.35.12.45.7.42v.14c-.4-.05-.17.16-.25.38-.29.76-.05,1.46-.05,2.35,0,.43-.36.4.29.72-.4.44.16,1.13-.55,1.21.23.39.24,1.17-.15,1.34.27.62.26,1.26,0,1.89.67-.09.8.77,0,.71l.42.63-.4.23.12.6.43.16c-.43.47-.11.73-.17,1.1-.06.39-.9,1.07.17,1.29,0,.11-.17.02-.27.18-.42.69,0,.68-.04.92-.02.12-.23.26-.25.46-.04.46.02.93-.01,1.39l.43.08c.07.04-.39,1.32-.42,1.49-.02.12-.09,1.33-.09,1.4.02.24.31.42.32.56.03.39-.6.24.3.84.03.37-.76.5-.54.77.03.04.32,0,.37.21.11.47,0,.98-.52,1.13l.56.21c.14.19-.5.62-.53.94-.02.16.18.31.19.46.08.69.25,1.76.27,2.38,0,.27-.31,1.01-.3,1.21.01.25.32.43.32.56,0,.11-.35.4-.24.82.64.26.23.97.18,1.58-.03.39.24.66-.17,1.04l.24.03-.11.26h.43c-.04.52-.13,1.36-.06,1.85.04.3.34.65.32.87-.03.24-.53.75-.39,1.21h.42c-.19.27.1.57.1.64,0,.08-.38.43-.48.74-.24.71.07,1.37-.16,2.06-.4-.03-.6.31-.65.33-.33.12-.62-.24-.85.6-.47.07-.91-1.14-1.14-1.53-.26-.46-.63-.5-.38-1.29.12-.4.56-.36.47-.77l-.27-.13c.26-.5.14-.63-.3-.87l.13-1.87-.56-.24.18-1.02.4-.02c-.19-.35-.19-.63,0-.98h-.41s-.13-1.49-.13-1.49l.39-.34h-.56c.33-.49-.17-1.34.56-1.41-.46-.42-.14-.64-.14-1.05,0-.63-.07-1.13-.14-1.7-.04-.32.29-.65-.14-.76l-.14.28v-.75s-.29-.16-.29-.16c.48-.11,0-.54.57-.7l-.42-.42c.32-.74.91-.79.53-1.75l-.39-.02c.35-.44-.05-.68-.08-.91-.03-.28.75-1.15.42-1.9-.06-.13-.3-.23-.33-.36-.03-.15.21-.28.22-.41,0-.09-.2-.19-.17-.36.06-.31.81-1.09.08-1.33.26-.07.28-1.09.22-1.2-.11-.2-.41-.22-.47-.35-.2-.48.97-1.37-.17-1.83.56-.19.16-.96.71-1.27l-.28-.26c.05-.71.92-.83.01-1.58-.03-.14.48-.48.38-1.11-.01-.09-.19-.07-.2-.14-.08-.4-.34-1.6.24-1.62v-.14c-.44.12-.2-.7,0-.92l-.7-.21.41-.94-.27-.25.56-1.55-.41-.22.13-.41h-.42s.43-1.05.43-1.05c-.67-.17.23-.82.11-1.13-.03-.08-.22-.06-.23-.09-.04-.1.11-.22.11-.32,0-.05-.49-.19-.27-.64h.41c-.11-.28-.4-.06-.28-.57.77.2.58-.57,1.13-.92.1-.05.95.2,1.08.26Z"/><path d="M173.97,25.61c.09.13.31.16.22.49l.56-.07c-.2.2-.14.65-.27.83-.1.14-.44-.01-.68.76-.08.24.32.52-.17.45l.42.14c-.22.32-.44.8-.43,1.2s1.08,1.03.01,1.05c.05.23,0,.58.03.77.01.07.2.06.22.14.07.27-.28.52-.33.71-.09.32.17.62.18.9,0,.25-.19.41-.23.65-.12.77.39.72.4.83.01.09-.48.56-.55.85-.16.63,0,1.57-.24,2.25.56.3.22.35.23.91-.73-.41.09.99.08,1.14l-.51.62.29.43-.28.21.28.07c-.45.32-.16.89-.42,1.34l.42.07-.42.63.56.07c-.34.54-.9,1.69-.92,2.31,0,.39.45.88.47.93.03.09-.21,1.39-.21,1.76,0,.42.24,1.91.22,2.01-.03.14-.27.24-.33.38-.24.58.18.53.2.56.03.05-.22.34-.23.59-.03,1.23.46,1.33.16,2.6-.17.71-.26.94-.23,1.77.02.47.05,1.24-.24,1.57.2.34.39.05.7.07.25.85-1.27,1.24,0,1.63v.47s-.42.01-.42.01c.18.58.04,1.19.07,1.71.02.26.24.53.22.9,0,.18-.74.49.12.77l-.29.21c.35.43.19,1.02.31,1.39.07.21.4.19.41.31.07.67-1.33,1.39-1.29,2.16-.45.06-.65-.33-.81-.4-.24-.11-1.22-.41-1.26-.47-.17-.23-.1-1.12-.17-1.42-.01-.05-.21-.39-.31-.83-.11-.48-.55-.36.32-.88l-.56-.07c-.01-.44.39-.18.22-.75-.11-.39-.32-.37-.34-.44-.05-.24.19-.74.24-.99s-.19-.46.15-.76c-.77.46-.44-.83,0-.91l-.42-.35c.46.03.28-.63.56-.92l-.56-.21.28-.35c-.41-.11-.3-.38-.27-.76l.41-.08-.42-.14.56-.56-.56-.14c.14-.46,0-.77.56-.99-.63-.49.22-1.81-.42-2.11l.28-.49-.56-.21c.25-.38.49-1.03.51-1.48.01-.3-.2-.43-.17-.57.04-.18.32-.36.36-.64.09-.62-.32-1.4-.29-1.95.02-.31.26-2.13.33-2.38.05-.2.3-.28.33-.44.04-.24-.14-.83.06-1.2l-.56-.07.57-.99-.43-.42.42-.77-.43-.08c.08-.47.06-.77.57-.98l-.71-.07s.48-.73.5-.97c.02-.2-.26-.36-.22-.5s.35-.13.4-.29c0-.02-.02-.48-.04-.5-.2-.25-.63.02-.64-.27.21,0,.22.1.22-.15,0-.33-.07-.64.13-.98.18-.3.62-.19.49-.64-.02-.06-.29-.08-.29-.14-.02-.27.22-.43.25-.67.08-.53-.17-1.72-.11-2.28.01-.13.24-.26.37-.78.18-.71.51-.99-.35-1.47l.55-.85-.42-.14c.02-.69,1.15-1.22.14-1.69l.67-1.13-.53-.49c.27.04.29-.25.43-.34.35-.24,1.31-.44,1.82-.58.25-.07.48.24.42-.2h.14c.05.32.31.53.49.78Z"/><path d="M203.77,25.37s.17.03.18.07c.13.28.21.53.54.76.11.08.33.02.36.05.03.03-.01.72-.03.75-.11.25-.64.3-.39,1.07l.57.07c-.53.25-.32,1.11-.56,1.62h.56c-.45.48.02,1.18-.07,1.57-.17.7-.27.07-.12,1.06.19,1.22.14,1.71-.36,2.85l.55.22c-.26.26-.61,1.09-.14,1.13v.28c-.07.14-.36.17-.4.23-.05.07.09,1.4,0,1.74-.07.25-.31.23-.3.28.02.21.36.35.38.39.09.18-.31.61.18.53v.14c-.34-.06-.31.74-.57,1.07l.29.27c-.02.29-.4.34-.41.37-.04.06.62,1.13-.15,1.11v.14c.59-.06-.08,1.34.56,1.27v.14c-.56,0-.26.94-.33,1.3-.04.2-.23.59-.38.74l.29.14c-.26.46-.4,1.46.14,1.69v.28c-.11.25-.44-.03-.4.71.05.98.3,1.85.4,2.8l-.43.08v.42s.43.08.43.08l-.13.82-.44.09c-.1.33.29.63.25.89-.02.14-.25.35-.3.55-.21.87.42,1.28.27,1.93-.12.55-1.01,1.84.06,1.83,0,.74-.74,1.02-.71,1.83h.43s-.44,1.06-.44,1.06c.47.31,0,.65.22.92.13.16.53.02.58.4.03.22-.16.36-.17.53l-.05,1.31.42.14-1.52,1.11c-.57.32-1.14-.06-1.36.58-.37-.27-.36-.43-.21-.84l-.54-.02c-.51-.68.46-1.98.12-2.55-.05-.09-.28-.09-.29-.19-.04-.36.48-.94-.14-1.1.48-.41.1-.6.07-.84-.02-.17.11-.38.08-.54-.02-.09-.82-.29-.22-1.09h.35c.15-.35-.41-.57-.41-.61.02-.33.52-.6.42-1.26l-.57-.3c.36-.04.35-.65,0-.7.38-.39.13-.79.84-.64-.62-1.05.4-1.68-.14-2.72-.05-.1-.29-.08-.28-.16.01-.13.26-.45.27-.58,0-.07-.22-.06-.28-.16-.42-.71,1.07-2.04,0-2.5.2-.19.4-.36.49-.63.23-.64.07-1.7-.03-2.34-.05-.31.34-.54-.19-.68-.03-.25.28-.32.35-.49s-.25-.47.22-.43l-.44-.49.3-.56-.28-.13.4-.6c-.05-.32.07-.42-.27-.53l.28-.49c-.66.08-.8-.72-.02-.72-.12-.63.24-.57.3-.97l-.7-.15c.12-.35,0-.63.42-.77l-.42-.42c.42-.55,1.38-1.58.28-1.83l.56-.57v-.21s-.42-.21-.42-.21v-.28s.42-.28.42-.28c-.43-.52-.42-.3-.28-1.05l.28.07v-.7s-.42-.07-.42-.07c-.06-.24.24-.07.26-.2.04-.35-.33-1.06.16-1.13-.56-.37-.08-.66-.06-.98.03-.41-.32-.83.07-1.39l-.42-.29.41-1.2h-.43c.63-.67-.33-1.68.43-2.04-.47-.04-.43-1.25-.25-1.44.23-.24.65-.16.78-.23.09-.05.39-.54.45-.57.15-.08.74.21,1.06-.35.3.2.04.6.1.81Z"/></g></svg>