<?xml version="1.0" encoding="UTF-8"?><svg id="Layer_2" xmlns="http://www.w3.org/2000/svg" viewBox="0 0 289.48 107.99"><defs><style>.cls-1{fill:#fff;}</style></defs><g id="meatballs"><path d="M27.14,12.38l.12.61c.77-.36.74.26.96.55.07.09.37.49.4.51.13.12.49-.17.33.56-.53,2.41.53,4-.11,6.32l.24.12-.11.23.22.11c-.25.38.02.63.14.98l-.06.18c-.32.02-.33.49-.3.77,0,.09.24.03.25.25.02.48-.42.57-.13,1.19.09.19.46.01-.13.64l.24.06c.11.27-.18.53-.19.67,0,.11,0,.39-.01.58-.01.44.14.96.08,1.42l.24-.12c-.16.22.08.48.07.54-.02.29-.45.75-.24,1.29.16.43.95.47-.06.89.25.34.41.66.24,1.06-.03.08-.2.07-.23.15-.07.23.17.96.59.73l-.36,1.09.34.36c-.03.2-.61.22-.44.72.04.11.21.1.27.19.2.33.28,1.28-.05,1.56.37-.04.18.34.3.6.08.17.37.43.38.55.01.18-.56,1.03-.44,1.39h.36s-.1.43-.1.43l.34.18c-.53.49-.28.58-.2,1.11.02.15-.05.32-.03.38.01.04.44.32.48.75l-.24.22.37.61c.08.52-.6.64-.25,1.15-.58.27-1.01.09-1.52.06-.07,0-.17.13-.24.13-.6,0-.65-.62-.88-1.01-.1-.17-.4-.38-.39-.7,0-.17.18-.27.19-.36.02-.23-.58-.75-.08-1.15h-.37c.19-.51.21-.91.12-1.45h-.48s.5-.78.5-.78l-.62-2.31.36-.06v-1.09s-.48.12-.48.12c-.06-.38.31-.58.34-.64.02-.05.09-.85.01-.92-.02-.01-.19.1-.29,0-.48-.52.11-.71.15-.93.04-.2-.18-.52-.19-.74,0-.27.4-.65-.27-.94.68-.65,0-1.24.37-1.82l-.24-.11c.31-.65.36-1.5-.13-2.07l.24-.12-.36-.24c.45-.25.64-.61.23-.97.17-.33.3-.97.12-1.42-.09-.21-.08-.21-.17-.46-.08-.23-.33-.37-.28-.69.06-.38.43-.77.44-1.2,0-.06-.2-.03-.21-.11-.04-.19.1-.99.09-1.22-.02-.34-.41-.26.14-.78-.36.03-.5-.17-.61-.48l.37-.06c.01-.12-.18,0-.22-.12-.24-.67.05-1.74.23-2.43l-.26-.23.24-.67c-.24.17-.79.2-.62.6h-.36s.12.25.12.25c-.62-.14-.4.21-.73.55l.24.18c-.53.08-.56.74-.76,1.06-.14.22-.75.29.04.7-.16.39-.34.42-.73.3l-.49,1.51.37.31-.85.43.24.11c-.16.41-.34.89-.55,1.27-.23.41-.76.51-.41,1.22l-1.45.41c-.34-.3-.77-.37-1.03-.78-.13-.21-.07-.37-.13-.48-.02-.03-.38-.39-.4-.45-.08-.32-.06-.55-.01-.86l-.72-.13c.11-.21-.03-.49,0-.64.02-.11.26-.04.26-.26-.01-.36-.47-.73-.25-1.15h-.49s.25-.66.25-.66c-.37-.08-.42-.57-.53-.65-.18-.12-.41.18-.34-.5h-.35s.09-.23.09-.23l-.58-.69c.52-.12.15-.51-.06-.18l.05.6-.35.19c.53.43-.05.96-.07,1.38-.02.59.21.16-.11,1.09-.55,1.55-.55,2.84-.66,4.55-.04.58-.2.95-.49,1.35-.1.14-.09.56-.16.79-.08.27-.44.32.15.47.03.04-.45.67-.46.81-.03.25.52.45-.26.95-.03.07.26.04.31.29.06.33-.11,1.96-.28,2.28-.12.22-.34.25-.38.34,0,.02.09.33.08.48-.02.3-.3.33.27.31-.31.9-.01,1.96-.49,2.78l.36.19c-.17.17-.13.71-.18.78-.6.81-.35,1.12-.43,1.99-.02.18-.25.76-.22.86.03.08.23.04.23.12-.01.14-.32.31-.39.48-.2.49-.24,1.78-.42,2.25-.13.32-.69.72-.65,1.09l-.73-.12c.19-.45-.21-.63-.22-.67-.08-.4.2-1.03.21-1.34.03-.59-.49-.84.14-1.44l-.37-.36c.4-.54.37-.57,0-1.08.56-.41.17-.58.16-.88-.02-.56.18-1.12.25-1.67.04-.36-.18-.81.18-1.16l-.36-.06c.14-.34.46-1.16.46-1.48,0-.26-.3-.33-.31-.46,0-.05.26-.78.29-.99.05-.29-.21-.56.16-.95l-.36.06c-.1-.66.37-.66.55-1.15.06-.16-.05-.59,0-.8s.27-.32.3-.65c.05-.47-.28-.85.23-1.21l-.36-.24c.34-.4.11-.84.17-1.27.08-.53.22-.98.43-1.46l-.36-.06c.22-.23.24-.5.12-.78l.6-.14c-.08-.15.02-.44,0-.52-.03-.09-.22-.07-.22-.13,0-.66.55-1.38.67-1.96.04-.17.06-.9-.2-.83.45-.28.1-1.24.6-1.28l-.24-.12.24-.36-.48-.12c.4.01.06-.8.6-1.03l-.36-.3c.37.05.12-.14.16-.22.02-.03.16-.02.18-.05.09-.15-.3-.4.15-.34.03-.27-.45.05-.36-.3s.8-.86.48-1.39c.26-.07.76-.06.97-.19.18-.11.21-.55.52-.51.72.24,2.47.45,2.27,1.42l.36-.12c.24.64.73,1.76,1.46,1.76.05.03.07.08.1.12.4.53-.51.46.1.68.08.18.02.48.05.62.07.34.56.3.59.33.02.02-.16.32-.1.63.04.22.29.46.22.75l.24.07c.31-.32.07-.52.21-.81.11-.24.41-.27.54-.57.1-.23,0-.43,0-.49.02-.08.18-.04.21-.14.02-.06-.09-.21-.03-.37.1-.26.47-.48.64-.7v-.18s-.36-.24-.36-.24l.91-.49-.04-.7c.16-.09.36-.15.5-.27.57-.51,1.01-1.02,1.57-1.35.43-.25.21-.39.29-.58.33-.73,1.32-.28,1.99-.62Z"/><path d="M43.57,16.1c.1.16.13.25.3.33-.31.26-.14,1.49,0,1.8.06.14.27.04.37.16.3.33.11,1.38.41,1.87h.3c-.14.59-.42,1.83.49,1.69.05.2-.18.06-.22.17-.04.09-.09,1.09-.02,1.16l.48-.12-.24.85.24-.06c.15.48-.1.62-.09.83.02.45.52,1.11.35,1.47l.34.2c-.38.56-.1,1-.03,1.58.04.36-.25.59.4.59.05.2-.2.06-.23.18-.05.19.28.99.32,1.24.05.28-.29.85.27.88l-.36.36.48-.12c-.11.37.1.86-.36,1.03.73.2-.26,1.02.73,1.03l-.11.43c.23.01.26.38.17.53-.13.22-.41.15-.42.37l.35.06c.04.34.1.86.19,1.17.07.23.26.21.28.29.18.49-.29,1.06-.16,1.58.05.21.25.36.28.51.17.88-.21,2.06.16,2.94-.31.07-.63-.12-.91-.12-.34,0-1.22.5-1.39-.09-.13-.47.29-.59-.61-.52-.05-.2.18-.09.2-.14.03-.07-.04-.19,0-.3.05-.12.3-.35.27-.4-.01-.02-.19.03-.22-.06-.12-.36.44-1.27-.63-1.04l.22-.13c-.15-.64.15-1.72-.47-2.11l.24-.18-.35-.06c-.07-.4.11-.89.1-1.21,0-.2-.15-.37-.18-.55-.06-.37.19-.81-.42-.73,0-.37.4-.68.36-1.02-.04-.37-.63-.96-.7-1.25-.06-.25,0-.93.21-1.12-.72-.27-.56.09-.75.21-.04.02-.18-.07-.26-.05-1.29.43-.88-.14-1.12-.17-.13-.02-.32.32-.4.35-.37.17-.53-.05-.81-.05-1.06,0-2,.19-3.01.33-.42.06-1.3.42-1.47.83-.06.14-.37.9-.38.95-.03.16.2.25.17.41-.05.31-.44,1.55-.41,1.84.01.14.24.27.2.6-.04.31-.58.6-.56,1.27.01.36.65.43-.05.61-.06.29.05.2.24.29-.31.61-.58,1.23-.76,1.89-.08.3-.01.75-.09,1-.04.14-.42.19-.47.54-.05.39.52.46-.12.65l.11.47c-.61-.17-.52,1.26-1.18,1.01-.11-.03-.16-.09-.2-.2-.15-.37.14-2.12.22-2.62.04-.26-.23-.46.19-.56-.43-.46.04-.69.07-1.03.02-.17-.18-.28-.19-.44-.08-.91.34-2.34.42-3.34.03-.41.03-.84.04-1.25s-.26-.49.25-.73c-.11-.21-.25-.57-.19-.8.07-.25.27-.19.31-.25s-.16-1.04-.05-1.38.39-.48.49-.78c.16-.44.14-1.33.3-1.82l-.36-.06c.05-.37.38-.47.42-.55.16-.32.04-.98.43-1.27l-.36-.3.36-.18-.24-.11.36-1.89h.49c.02-.43-.36-.55-.08-.93.08-.11.32-.11.32-.28l-.36-.06c.09-.15.3-.35.33-.5.16-.9.4-2.08.84-2.88.28-.5.94-1.67.97-2.2,0-.14-.21-.26-.12-.51.06-.16.29-.19.39-.36.13-.23.03-.58.21-.87.65-1.09,1.35-1.46,2.21-1.98.08-.05.11-.3.22-.33.1-.02,1.74.73,1.82.84.36.44.21,1.12.44,1.62.11.23.55.71.76,1.03ZM40.53,15.83c-.08-.1-.01-.22-.17-.18-.17.34-.23,1.18-.61,1.21.44.53.12.25,0,.44s.01.96-.72,1.01c.36.36.09.35,0,.67-.17.67-.16.49-.42.9-.02.03-.2.63-.2.67,0,.05.31,0,.21.57-.06.35-.39.57-.33.76.03.11.3-.02.24.18l-.12.24h-.49s0,1.45,0,1.45c-.81-.09.11.54-.24,1.13-.28.47-.31,1.07-.39,1.58-.02.14-.35.33-.4.67-.06.38.3.38.31.44.06.37-.2.43-.49.43-.2.22,1.17.35,1.28.35.07,0,.03-.19.11-.2.37-.06.96-.05,1.31-.15.1-.03.08-.24.16-.25.17-.02.35.15.56.11.18-.03.31-.3.64-.33.36-.04,1.45,0,1.69.23l.23-.24.25.23c.55-.57.11-.45.08-.54-.13-.38.35-.57.35-.61-.02-.35-.62-.8-.57-1.09.03-.18.37-.28.32-.48-.03-.11-.28-.13-.33-.21-.03-.04.03-.15,0-.21-.44-.75-.03-.51-.06-.89,0-.07-.36-1.24-.42-1.39-.06-.16-.27-.14-.28-.23-.03-.26.27-.72.22-.94-.05-.26-.72-.29-.46-.92l-.36.12.31-1.46c-.15-.18-.41-.87-.5-.97-.12-.14-.38-.09-.42-.13-.1-.11.33-1.1.12-1.49l-.37-.08c.23-.41.04-.28-.06-.42Z"/><path d="M71.51,13.35c-.32.47.45,1.17.48,1.3.09.38-.13.86-.02,1.2.06.18.44.93.47,1.05.12.46.08.79-.09,1.23.14.23.28.1.48.06.19.32-.09.59-.09.77,0,.29.42.77-.03.87l.36.24-.37.61.25.13-.14.47.26.25c-.53.65-.2.85-.07,1.47.03.14.16.94.15,1,0,.02-.2.02-.2.09-.02.38.15,1.08.62,1.09-.04.26-.06.56-.14.81-.05.14-.33,0-.16.52.12.37.18.53.54.3.14.16-.34,1.17-.34,1.37,0,.39.54.9.09,1.29h.37s-.09.22-.09.22c.34.08.29.37-.04.45l.24.12-.36.48c.13.36.47.16.48.18.15.27-.37,1.19-.36,1.4s.26.31.33.5c.07.17-.05.75-.21.89l.61-.24c-.08.15-.01.52-.07.61-.1.16-.39.13-.26.68.2.88.22,1.29.34,2.15.03.21.2.4.21.52.03.43-.21-.06.09.71.08.2-.25.49-.08.82l.61.21c.05.21-.19.08-.23.13-.02.03.19.47.18.66-.02.21-.25.34-.29.51-.05.2.08.35.07.46-.01.18-.38.15-.53.22-.04.02-.04.17-.13.19-.55.14-.85-.37-1.06.24-.49-.21-.69-.43-.91-.92l-.49.07c-.12-.54.2-.57.29-.72.06-.11-.08-.43.19-.55l-.48-.18c.08-.23.22-.5.18-.74-.03-.23-.41-1.01-.39-1.25.01-.14.29-.24.3-.36,0-.08-.14-.2-.15-.3-.08-.58-.11-.24-.23-.59-.14-.41.2-.68.07-1.06-.05-.15-.52-.6-.52-.72.02-.49.74-1.47-.11-1.83.22-.4.29-1.38.06-1.75-.11-.18-.35-.2-.4-.26-.04-.06.15-.41-.14-.52l.24-.06c.05-.2-.21-.05-.24-.2-.1-.41.52-.97.48-1.01-.37.05-.02-.47-.54-.37-.05,0-.07.25-.11.25-.16-.02-.78-.41-.97-.34-.06.02-.06.18-.09.19-.16.05-.74.26-.79.26-.08.01-.98-.26-1.31-.24-.22,0-.16.22-.24.23-.97.15-1.3-.04-2,.83.04.27.24.6.24.85,0,.36-.02.42,0,.84.01.35-.14.96-.12,1.19,0,.07.18.08.24.17.26.47-.19.53-.2.69,0,.1.41.92.21,1.27h.49c-.35.39.09.91-.37,1.03.39.7.68,1.01.13,1.75l.48-.12c.29.63-.23.7-.25.81-.03.14.1.33.08.47-.02.15-.26.21-.19.42l.49-.06c-.1.46-.07.64-.61.54.15.26.01.92-.18,1.09-.23.21-.58-.04-.73.6-.22-.21-.67-.27-.85-.48s-.31-.94-.67-.97l.23-.17c-.08-.38-.21-.77-.29-1.15-.03-.14.08-.31.06-.42-.02-.1-.25-.07-.25-.14,0-.28.66-.79-.24-.97-.11-.53.38-.78.37-1.09,0-.19-.2-.31-.27-.46-.1-.24.24-.38-.34-.33.33-.55.1-.98.13-1.49s.45-1.03-.01-1.53l.24-.12-.61-.13c.04-.37.43-.85.33-1.21-.07-.23-.27-.17-.32-.33-.09-.24-.04-.7-.14-.97-.4-.15-.66.17-1.12-.15l-.19.25c-.08-.5-.86-.42-1.06-.91,0-.13.67-.84.79-.91.39-.21.68,0,1-.06.21-.03,1.04-.34.84-.55l-.36.12-.09-.43c.39-.18.41-.43.15-.78l-.18.24c-.14-.55.3-.88.25-1.4,0-.07-.5-.74-.55-1.17-.04-.33.29-1.18.29-1.37,0-.21-.43-.49-.47-.88-.03-.29.26-.46.22-.51-.03-.04-.68-.17-.13-.68l-.24-.23c.58-.72-.08-.97-.11-1.11-.08-.35.12-.76.36-1-.6.1-.7-.8,0-.73-.32-.87-.08-1.74-.11-2.59l.11-.14c.38.06.82-.3,1.16-.25.73.11.24,1.66.29,2.05.01.09.25.07.26.15.01.13-.12.3-.1.45.04.29.66.94.34,1.52l.47.21c-.07.49-.09,1.43,0,1.9.02.08.38.13.37.63l-.25.3h.37s0,.48,0,.48h-.36c-.06.73.76.63.48,1.51l.37.07c.05.19-.16.08-.2.14-.11.2-.28.77.07.76l-.12.36.26.13c-.42.6-.01.61.09,1,.05.21-.12.85-.09.88.24.23.23-.26.3-.24l.18.24c.12-.6,1.24-.3,1.62-.36.03,0,.38-.36.4-.37.29-.06.46.17.71.23.48.11.49-.28.61-.33.19-.08,1.62.31,1.75.22,0-.28.32-.69.33-.9,0-.18-.17-.39-.19-.62-.03-.36.35-.97-.37-.9.33-.3.31-.8.19-1.21-.1-.34-.51-.24-.44-.66.58-.12-.09-.61-.06-.92.03-.37.46-.54.43-.89s-.48-.58-.49-.64c-.1-.52.24-2.14.13-2.62-.02-.1-.25-.08-.25-.14.03-.26.58-.82,0-.98l.37-.6-.36-.06v-.42s.35-.07.35-.07c-.19-.18.41-.83.46-.84.34-.05.54.31.89.13Z"/><path d="M92.12,51.39l-.06.36c.32-.08.64-.17.97-.18.55,0,.88.39,1.09-.19.11.09.22.16.36.18.27.03,1.18.02,1.46,0,.12,0,.25-.21.48-.19.07,0,.07.19.1.2.25.11.48-.02.46.54l.89-.23c.2.35.46.09.44.54.48-.11.43.4.73.18-.04.61,1.02.75.74,1.33l.22-.1c.05.34.38.28.52.42.22.24.12.66.19.77.02.03.48.47.5.5.11.19-.1.95.29,1.02l-.13,1.86h.61c-.1.23-.53.42-.65.61s.09.66.05.73c-.57-.26-.37.59-.52.81-.07.1-.42.18-.52.4s.24.55-.12.72c-.51-.25-.34.02-.5.13-.7.47-.73.53-.88,1.45.5.04.75.15,1.2-.11l.64.7h.4s.06.5.06.5l.36-.12v.61s.61-.12.61-.12l.07.73.64.38c.03.14-.09.64-.07.69,0,.02.24.02.27.24s-.12.54-.07.79l.61.38c-.07.4-.43.26-.48.31-.09.08.12.7.36.66l-.37.48.26.13c-.3.64-.41,1.16-.26,1.86l-.72.25.48.24c-.32-.04-.23.34-.41.5-.12.1-.34.07-.41.13-.02.01.11.23-.07.35-.34.24-.45-.11-.42.55-.25.3-1.08.14-1.11.6,0,.06.33.01.24.24-.22.58-1.94-.06-1.45,1.03-.23,0-.5.22-.69.22-.16,0-.26-.2-.4-.16-.27.09-.77.74-.91.75-.22.02-1.16-.53-1.28.16-.27-.38-.67-.08-.85-.17-.17-.08-.66-.85-.79-1.03-.08-.11-.29-.15-.36-.25-.25-.39.27-1.37.79-1.34l-.12-.24h1.58s-.12-.36-.12-.36l.84.24.39-.7c.43-.05,1.23-.04,1.49-.39.23-.3-.09-.47.79-.36-.31-.57,0-.41.17-.61.22-.28.56-.6.69-.77.15-.19,0-.31.03-.41,0-.02.18-.02.2-.11.03-.14-.12-.35,0-.52h-.49s.48-1.04.48-1.04l-.35-.24c.15-.34.12-.74-.17-.99-.14-.12-.42-.14-.45-.17-.01-.02-.02-.11-.12-.33-.05-.11.06-.29-.08-.41-.07-.06-.38-.01-.5-.07-.16-.08-.15-.26-.31-.32-.45-.18-1.15-.24-1.62-.55l-.22.23c-.28-.37-.64.03-.73-.37l-.73.36-.06-.36-.78.13c-.05-.65-.18-.38-.42-.57-.16-.13-.15-.38-.5-.29l.12-.24h-.37s.13-.29.13-.29l-.25-.13c.5-.51.26-.58.12-1.15.18-.07.51.13.59.1.05-.02.38-.49.75-.65.3-.13.87-.07.91-.09.15-.08.13-.27.24-.31.08-.04.56.26.49-.14l-.43-.24,1.21-.49-.12-.24c.66.13.51-.09.79-.37.21-.21.51-.36.3-.72.67-.01.38-.35.51-.58.07-.12.46-.07.34-.57-.06-.23-.35-.05-.36-.06-.03-.05.07-.25.05-.38-.05-.41.08-.83.06-.88-.04-.13-.29-.15-.37-.28-.25-.4-.5-1.03-.36-1.49-.43.27-.53-.23-.89-.4-.43-.2-.7.25-.76-.59-.26-.19-.91.03-1-.02-.03-.02-.23-.36-.55-.47-.51-.19-1.22.14-1.73.22-.13.02-.3-.09-.45-.06-.53.12-.21,1.13.04,1.37-.48.57-.19.51-.13,1.15l.24-.12c.05.55.03.99-.36,1.4l.22.07-.1.28.24.12c-.1.2-.18.43-.2.65-.03.35.22.87-.16.94l.37.07c.03.41-.32.86-.34,1.17-.01.16.31.62.21.89l.24-.12c.25.48-.34.84-.35,1.27-.01.37.48.43.35.95-.02.08-.35.06-.21.5.07.21.35.34.57.25-.18.63-.72,1.06,0,1.57-.77.59-.16,1.79-.03,2.57.04.26-.14.5.15.82l-.48.79h.35c.1.5-.03.82-.22,1.28l.2.07-.09.22c.1.07.63-.14.61.12-.33-.05-.11.18-.29.36-.51.55-.81.31-.56,1.21l-1.69-.37.11-.23-.48-.13c.16-.46-.01-.74-.08-1.17-.04-.23.27-.36-.16-.46l.24-.18h-.36c-.06-.04.33-.47.35-.57.02-.14-.17-.25-.18-.34,0-.12.17-.26.17-.36,0-.04-.36-.41-.43-.76-.09-.47.38-.99-.27-.88l.49-.91-.07-.19c-.81-.21.35-1.21-.3-1.38.2-.26.22-.49.12-.79l-.24.12c.16-.23-.07-.46-.07-.54,0-.21.33-.56.3-.88-.02-.21-.17-.13-.2-.21-.09-.27.63-1.5-.27-1.4.04-.3.2-.64.23-.92.05-.36.24-1.48-.1-1.56.38-.58-.13-.68-.13-.73.02-.4.61-.46.23-1.09l.25-.12-.36-.49c.3-.23.31-.54.13-.86l.23-.29-.48.06.61-1.09-.25-.24c.3-.73.12-1.73.3-2.54.25-1.12.71-.71,1.64-.67Z"/><path d="M93.13,14.04c.27.17.44-.19.21.52.43-.24,1,.52,1.34.77,1.05.75,1.63,1.13,2.3,2.25,0,.02.24-.1.39,0,.12.08.15.29.26.38.64.5,1,.91,1.46,1.58.09.12-.11,1.27.52,1.35l-.1.22.36-.24c-.03.33.25.53.34.81.2.63.31,1.58.68,2.17.13.21.57.23.32.77h.37c-.28.36-.17,1-.01,1.4.09.23.34.36.38.6.03.21-.12,1.14,0,1.26h.48s-.48.49-.48.49c.44.46.17.58.17.78,0,.11.26.27.2.48l-.49.25c-.05.24.2.44.23.63.07.51.07.34.14.6.19.7-.29.45-.37.6-.06.1-.49,2.03-.46,2.13.11.41.5.48-.39.7l.13.41-.25.07.36.36c-.2.03-.41.11-.56.24-.15.14-.28.71-.32.83-.09.27-1.32.72-.81,1.35-.52.19-1.12.56-1.2,1.16l-.49.05.18.36c-.26.36-.7.09-.77.13-.03.02-.14.37-.32.49-.17.11-.32-.04-.4,0-.08.05-.41.56-.56.67-.1.08-.3.02-.32.04-.04.04.21.43.02.55l-.62.17v.73s-.55-.24-.55-.24c-.05.21-.43.4-.48.49-.2.38.18.64-.71.45-.32-.07-.61-.49-.75.03-.41-.32-.45-.85-.43-1.33l-.24.12s.07-.57.12-.65c.08-.14.65-.02.37-.69l-.23.12c-.03-.39-.49-.58-.25-.96h-.49c.14-.3-.18-.57.24-.66-.35-.4.11-1.12-.48-1.16l.21-.14c.03-.23-.19-.53-.16-.72.03-.22.42-.17.28-.9-.01-.05-.44-.06-.1-.58.06-.1.22-.04.24-.14-.04-.26-.49-.44-.49-.5-.04-.27.42-.69-.23-.77.16-.27.24-.56.61-.48-.42-.44.09-.99-.01-1.37-.02-.08-.43-.19-.36-.61.05-.09.24-.06.25-.15.06-.36-.32-1.66-.24-1.91.07-.21.38-.11.36-.32l-.36-.06.25-.14v-.41s-.49,0-.49,0l.49-1.87h-.48s.15-.53.15-.53l.33-.03-.24-.78.36-.24-.36-.06c-.17-.48.11-.74.31-1.15l-.32-.36.36-.36-.36-.36c.12-.19.32-.39.36-.62.04-.24.05-1.08-.24-1.08l.25-.12v-.24s-.19-.05-.21-.09c-.2-.39.87-1.63-.16-1.79l.47-.42-.32-1.92.84-2.37c.07-.04.52-.04.63-.02.14.03,0,.3.2.24v-.48c.19-.05.08.15.16.21ZM94.28,17.85h-.58s-.09,1.27-.09,1.27l.32.19-.23.95h.48s-.24.18-.24.18l.25.48c-.77.35-.05.5-.05.86,0,.16-.25.42-.3.64-.02.08.02,1.62.06,1.69.09.18.26.09.29.33.07.67-.5,1.88-.06,2.6.05.09.23.09.27.19.09.21-.31.59-.46.73l.24.24c-.34.6-.18,1.34-.36,2l.24-.12.11,1.02-.36.2.12.6.49-.06-.17.55-.43.05c.18.88-.08,2.16.13,3,.03.11.25.04.25.26-.01.62-.13,1.43-.12,2.06,0,.34.15.6.23.92.29-.09.42-.15.36-.48,1.12.32.68-.59,1.08-1.04.28-.32,1.05-.69,1.35-.97.09-.09,0-.58.28-.76.11-.07.31-.02.32-.03.3-.32-.3-.32-.36-.48.55.08.2-.11.41-.36.39-.46.37-.62.57-.9.13-.18.34-.18.36-.2.2-.25-.52-.2-.05-.6.12-.11.31-.09.38-.16.14-.13.53-1.26.4-1.42l-.36-.06c.03-.49.71-.71.6-1.22-.07-.31-.26-.23-.33-.32-.3-.41.13-2.07.08-2.42s-.43-.8-.55-1.15c-.27-.8-.13-1.4-.6-1.99-.03-.03.06-.22-.04-.38-.15-.23-.56-.55-.57-.59-.04-.14.34-.5-.25-.6l.11-.35-.22.11-1.17-1.93.06-.48h-.67s0-.74,0-.74c-.67-.36-1.01-.48-1.17-1.31Z"/><path d="M34.65,48.61c-.02.32-.07.95.25,1.02l-.25.36c.09.2.33.05.42.17.12.16.07.42.49.74.14.1.36.09.41.13.03.02-.09.62-.07.75.09.51,1.87,1.77,1.91,2.49.27-.12.57.2.65.5l.19-.35c.81.42.76-.26,1.14-.51.32-.21.15.19.56-.37.07-.1.21-.12.23-.19.02-.11-.09-.28-.06-.41.09-.4.57-.5.85-.71.12-.08.15-.32.2-.35.07-.04.26.1.34.05.12-.07.21-.45.36-.61.37-.42,1.07-.81,1.34-1.1.2-.22.18-.73.48-.84l-.12-.29c1.04-.21,1.69.16,2.1,1.11.28.63.56,1.36.19,1.99l.25.3c-.06,0-.17,0-.19.03-.1.17-.05.84,0,1.05,0,.04.36-.03.01.62-.05.09-.24.08-.27.19-.05.16-.09,1.01.22.97-.7.56.12,1-.13,1.42-.09.15-.3.01-.24.27l.23.07v.23c-.45-.02-.5.63-.39.94.05.15.25.14.28.23.16.56-.24.34-.33.43-.39.36.28.74.29.89.02.2-.27.76-.29,1.02-.06.63.14,1.54.21,2.19l-.36.24.36-.06c.12.48-.42.61-.47.69-.02.04.03.79.05.83.07.12.36.09.36.42,0,.42-.34.25-.41.33-.06.06-.07.5-.15.64l.49-.06c-.1.37.11.75-.36.91.04.37.49.29.48.36-.04.33-.51.63-.48.67.15-.17.31.48.31.55,0,.14-.18.26-.14.43.09.4.63.21.3.77l.25.19-.23.06c.11.32.05.86-.04,1.19-.14.48-.63.74-.81,1.01-.19.29.02.69-.54.53-.12-.03-.12-.25-.2-.3-.52-.34-.61.4-.73.3-.48-.49,0-.66-.02-.88-.06-.4-1.29-.93-.34-1.18l-.37-.67c-.02-.17.76-.49-.24-.66-.02-.19.18-.06.28-.27.28-.59.01-.68,0-1.03-.02-.26.05-.82-.07-1.07-.09-.17-.34-.14-.32-.23.05-.24.34-.48.61-.43-.24-.41-.23-1.01-.25-1.51-.03-.53-.06-.65-.11-1.1-.03-.29.24-.82.13-1.2l-.37-.07c-.03-.38.38-.73.43-.96,0-.03-.07-.51-.08-.53-.04-.12-.52-.05.01-.5l-.23-.11c.11-.44.41-.75.43-1.22,0-.15-.46-.34.04-.3l-.24-.24c.1.11.46-.52.47-.56.03-.13-.21-.28-.23-.46-.02-.25.37-.96.31-1.34-.03-.18-.71-.64.17-.66.06-.24-.25-.33-.25-.54,0-.16.47-.53.06-.67-.13-.04.03.3-.18.24l-.06-.24h-.3s.09.22.09.22c-.29.25-.81.46-.58.87h-.49s.09.22.09.22c-.3.21-.82.63-.58.99l-1.09.12.1.22-1.23.73-.67-.33c.13.26-.57.19-.62.16-.15-.1-.19-.33-.27-.38-.49-.3-1.86-.52-1.42-1.25l-.84-.25c.14-.54-.06-.74-.33-1.19-.05-.09-.21-.1-.25-.16-.02-.03.01-.54-.4-.46-.13.34.18.68.19.91.03.53-.21,1.94-.25,2.54-.05.75-.3,1.84.07,2.3l-.25.49.37.3-.32.54.32.6c-.6.3-.19,1.31-.37,1.88l.48.06c.02.33-.53.62-.57.73-.12.35-.01,1.05-.14,1.44l.48.26c-.39.37-.9,1.15-.7,1.7.02.07.22.05.22.13.02.53-.6,1.25-.42,2.29.05.28.5.62-.19.55l.36.12-.37.42v.23s.25.25.25.25c-.27.62-.49.93-1.14,1.18-.26.1-.37-.23-.33.34l-.42-.11.06-.49-.36.12c-.12-.13-.13-.68-.16-.7-.06-.07-.31-.11-.33-.2-.02-.15.36-.36.37-.38.04-.39-.27-1.33-.25-1.8.01-.34.28-.67.25-.97-.04-.38-.57-1.09.25-1.22,0-.39-.12-.81.23-1.08l-.48-.24c.06-.37.44-.55.45-.6.03-.18.11-.66.12-.74,0-.12-.18-.26-.17-.36,0-.14.47-.26.28-.85-.05-.14-.21-.21-.25-.36-.08-.34.16-1.36.31-1.7l-.24-.11c.21-.26.44-.67.46-1,.02-.32-.21-.47-.19-.67.01-.14.19-.35.22-.63.1-.93-.12-2.5.36-3.14-.49-.47.25-1.24.24-1.7,0-.27-.14-.97-.12-1.33l.23-.12c-.19-1.13.52-2.42.62-3.53.02-.21-.04-.35-.12-.53.43-.08.78-.21,1.21.01Z"/><path d="M183.24,17.14c.07.12.04.31.11.43.51.85.69,1.2.94,2.1.12.42.03,1.2.57,1.07-.38.42-.05.53-.02.81.05.44-.34.41.33.76l-.19.42.25.12c-.26.32-.5,1.03.11.92l-.04.24.3.12-.49.78.23.23c-.06.26-.15.97-.09,1.19.12.4.65.12.35.81h.36c.04.32-.48.64-.49.69-.06.26,0,1.02.35,1.06l-.47,1.51.49.06c-.55.47-.3.84-.35,1.33-.08.79-.32,1.58-.47,2.3-.13.59.17.14-.27.88-.24.41.24.93.03,1.42-.11.26-.36.22-.4.48-.04.32.28.65.24,1.01l-.47.2.48.54c-.16.04-.92.58-.94.63-.08.15.02.45-.09.7-.04.1-.6,1.14-.67,1.25-.08.13-.75.24-.61.68l-.84-.11.12.36c-.3-.15-.75.04-1.02-.01-.41-.08-1.2-.78-1.35-.23-.56.13-.43-.5-.84-.37l-.18.24c-.06-.39-.58-.32-.25-.84l-.55-.24-.3.36-.42-1.18-.43.09v-.41s.24-.08.24-.08v-.24s-.21-.02-.21-.02l.09-.22-.73-.19.12-.41h-.37c.18-.81-.61-1.17-.59-2.01,0-.03.65-.28-.02-.24v-.12s.24-.24.24-.24c-.31-.13-.24-.73-.27-.77-.04-.05-.19-.05-.28-.2-.19-.32.29-.27.19-.49-.93-.36.15-1.65-.73-2.06.13-.32.22-.27.49-.37.01-1.03-.87-2.93.36-3.45v-.12c-.6-.07.14-.75.18-1.07s-.22-.71-.19-1.05l.26-.3-.25-.18.37-.49c-.28-.35-.21-.68.24-.79v-.12c-.29.14-.23-.52-.19-.67.13-.44.47-.73.6-1.14.22-.73-.29-1.37.56-1.89l-.24-.24.61-.61-.36-.24.61-.43-.36-.36c.37-.07.44-.45.85-.24l-.12-.48.32-.04,1.28-1.27c.09-.05.63.07.68.13.14.16-.22.48.38.2-.17-.69.58-1.03,1.2-1.05.58-.02,1.75.63,2.05,1.1ZM180.85,18.56c-.53-.15-.52.27-.73.42s-.57.05-.78.32c-.16.21-.09.6-.21.87-.21.46-.68.95-.82,1.49l.36.18c-.1,0-.14-.02-.21.06-.15.19-.22.53-.32.75-.02.04-.19.04-.2.12-.04.2.06.49.09.71,0,.07-.05.17-.07.24l.22.11c-.75.3-.14,1.05-.61,1.51l.36.18c.11.36-.25.33-.33.46-.12.18-.1.58-.07.8l-.21.02v.24s.36,0,.36,0v.12c-.36-.04-.13.16-.2.34-.34.87-.32,1.61-.26,2.52,0,.08.18.05.21.11.06.17-.38.98-.59,1.09l.21.08-.09.22h.49c.07.35-.34.64-.36.69-.14.47.05,2.43.26,2.86.08.17.27.17.31.23.03.05-.2.19.15.27-.47.41.11,2.22.85,1.64l.02.96c.49-.03.53.49.78.73.14.13.75.33.95.5.09-.36.5-.25.65-.4s.08-.5.18-.67c.05-.08.26-.11.36-.31.17-.32-.02-.86-.02-1.13,0-.04.33-.33.35-.6-.61-.16.23-.55.32-.69.03-.04-.03-.15,0-.21.19-.38.36-.27.15-.88-.16-.45-.05-.35-.11-.62-.02-.09-.19-.07-.22-.14-.09-.26.37-1.01.69-1.09l-.1-1.57-.37-.07c.2-.53.71-1.91.55-2.43-.1-.32-.61-.35.06-.9-.32-.41-.69-.61,0-.97l-.24-.18.24-.12c-.56,0-.09-.57-.06-.79,0-.02-.08-.28-.11-.36-.03-.11-.33-.34-.32-.37.02-.08.19-.2.2-.36,0-.23-.3-.54-.11-.86l-.33-.3h.24c.05-.2-.16-.28-.19-.42-.13-.64-.18-.38-.26-.6-.08-.23.25-.83-.39-.93.17-.52.6-.72,0-1.14.17-.12.31.02.24-.3l-.43-.12.06-.53-.67-.44.07-.36Z"/><path d="M155.49,15.67c.23.12.38.65.41.67.11.08.41-.02.54.14-.04.34.03.82.24,1.1.08.11.25.03.36.11.67.53.21.58.32,1.01.08.32.83.38.8,1.14,0,.3-.45.44.03.88-.28-.01-.26.1-.24.37h.49c.03.26-.37.54-.37.66.01.57.47,1.05.25,1.52l.48-.12c.22.64.03.47-.11.7-.27.49.05.36.08.44.1.34-.18.72-.16.93s.45.28.43.66l-.36.3c.6.46.18.79.18,1.22.01.69.54,1.34.18,1.87l.25.12-.13.29.35-.11.25.84.48-.12c.06.49-.4.94-.47,1.18-.12.39.41.58-.26.52.11.35.27.81-.24.85.51.43-.02.8,0,1.14,0,.03.34.28.37.49l-.24.12c.96.44.23.92.24,1.34,0,.28.42.29.3.97-.02.13-.21.24-.18.3,0,.01.16-.03.24.09.45.63-.11.8-.09,1.07.02.2.7.64.68.98,0,.09-.27.06-.31.23-.04.13.04.61.17.73-.18.08-.72.64-.77.65-.42.13-1.55-.58-1.98-.11-.15-.23.01-.51,0-.65,0-.04-.38-.21-.12-.68h-.37s.3-.6.33-.77c.04-.2-.22-1.69-.69-1.41v-.12c.57-.09.19-1.06.35-1.49l-.18-.2-.41.12c.15-.39,0-1.21.48-1.21l-.36-.24c-.05-.2.21-.07.24-.18.1-.33-.2-.29-.22-.36-.12-.47.17-.82.21-1.1,0-.06-.16-.05-.19-.11-.52-.92-.55-.38-1.09-.31-.25.03-.53-.16-.78-.18-.14-.02-.25.15-.31.14-.21-.01-.24-.43-.36.02-.35-.2-.91.12-1.11.12-.24,0-.32-.35-.68-.1-.08.06-.08.24-.16.24-.37,0-.57-.41-.84.24-.09-.36-.45-.32-.74-.12.07.26-.12.63-.12.79,0,.12.24.35.15.58-.22.61-.57,1.25-.69,1.97-.09.54.32.33.24.71-.01.05-.28.08-.32.3-.05.27.16.34.16.43,0,.07-.57.98-.64,1.35-.07.34.11,1,0,1.25-.06.13-.26.24-.32.4-.11.27.07.58-.26.82-1.1.8-1.54-.31-1.15-1.27l-.25-.12c.14-.3.34-1,.39-1.32.06-.4.18-.86-.27-.98l.48-.36-.25-.24c.31-.33.07-.57.12-.83,0-.05.42-.12.12-.73l.26-.14-.37-.48c.36-.28.09-.77.17-1.15.09-.44.52-.85.54-1.31.01-.34-.34-.51-.14-1,.05-.13.29-.21.29-.42,0-.15-.2-.27-.2-.37,0-.11.16-.24.15-.36-.01-.22-.45-.44.41-.55l-.24-.3.36-.18-.25-.19c.11-.37.15-.73.49-.96l-.25-.12.37-.85-.36-.18c-.05-.42.31-.73.73-.73-.16-.16-.28-.59-.21-.79.03-.08.23-.02.23-.24,0-.26-.23-.53-.22-.61,0-.09.21-.2.27-.36.11-.31.05-.85.08-.89.08-.1.57-.21.59-.35.03-.17-.11-.35-.1-.49.02-.25.28-.26.02-.64.16-.07.53-.5.54-.57.09-.36.05-.75.13-1.12l-.36-.13.72-.55-.18-.3c.74-.33.79-1.08,1.17-1.6.1-.14.56-.45.58-.48.06-.11-.17-.28,0-.53.21-.28,1.9-.77,2.17-.64ZM154.67,19.65h-.36c.02.31.03.6-.24.79.65.27.17.57-.37.54v.65s-.48.2-.48.2v.48s.35,0,.35,0c.2.61-.3.63-.48,1.01-.34.7-.67,1.83-.43,2.58l-.53.46c-.06.27.5.29.36.42-.11.1-.41.07-.56.43-.08.19-.28,1.89.04,1.9l-.09.21c.47-.15.64.2.91.31.29.12.7-.3.98-.32.22-.01.35.17.48.18.15.01,1.15.04,1.21.02.21-.07.2-.55.36-.56.05,0,.39.34.67.12v-.36s-.48,0-.48,0c.4-.43.02-.58,0-.91,0-.1.05-.78.08-.89.06-.29.49-.43.28-.99l-.48-.12c.28.15.36-.95.34-1.02-.05-.18-.53-.14-.22-.67-.38.12-.46-.22-.43-.55.05-.42.54-.38.43-.6l-.36-.3h.24c0-.32-.35-.34-.36-.37-.02-.03.31-.36.21-.66-.02-.06-.16-.08-.19-.16-.22-.52-.37-.89-.38-1.48l-.48.24v-.61Z"/><path d="M68.09,51.29c.09.1.1.43.15.58l.22-.1c.1.67.69.33.73.36.15.09.62,1.52.75,1.83.15.33.48,1.26.61,1.47.15.24.38.16.44.22.06.07.2,1.61.23,1.84.02.15-.09.39-.06.48.11.28.6.18.34.68l.22-.1c.2.39.37.46.02.83l.36.3-.36.37c.57.13.17.62.27.76.06.09.33.11.4.38l-.31,1.22.36-.12c.2.46.01.51-.24.85l.25.08c-.15.6,0,1.44.16,2.03.14.5.59,1.13.61,1.52.01.25-.27,1.67-.05,1.82h.6s-.36,1.22-.36,1.22l.36-.12c.27.44-.1.8-.1,1.01,0,.17.31.76.33.99.04.41-.25,1.21.25,1.27l-.46.56.22.53c-.52.09-.55-.02-.85-.36l-.24.36c.05-.36-.76-.22-1.02-.37-.55-.33-.46-.93-.62-1.44-.08-.25-.29-.47-.35-.72-.09-.34-.07-1.07-.19-1.46l.36-.12-.6-.13c.1-.17-.04-.39-.01-.51.01-.06.63-.22.03-.34-.08-.25.07-1.06.07-1.14-.01-.15-.5-.3-.21-.67h-.37s.11-.31.11-.31l-.23-.06.22-.13c-.16-.29.12-.45.15-.66.03-.27-.22-.69-.12-1.03h-.49c.11-.19.42-.14.08-.45-.43-.4-.89-.1-1.36-.27l-.06.36h-.24c.05-.45-.58.04-.79-.36-.28.57-.55,0-.7-.09-.12-.07-2.17-.19-2.31-.16-.09.02-.06.23-.15.24-.34.04-.74-.32-.58.37l-.44.12.36.24c.03.24-.3-.03-.24.3.03.15.22-.14.24,0,.07.4-.09.57-.49.55.24.3-.02.62.03.88.04.21.3.33.27.72-.03.43-.34.36-.4.54s.01.4-.03.59c-.04.16-.17.28-.19.37-.03.25.29.29.31.38.07.26-.3.92-.31,1.19,0,.31.26.52-.07.97l.25.23c0,.51-.43.98-.54,1.27-.21.57-.11,1.77-1.07,1.45-.26-.09-.22-.71-.33-.99-.04-.09-.24-.09-.24-.16,0-.18.22-.35.21-.48,0-.09-.2-.24-.21-.49-.03-.48.52-1.3-.35-1.28.08-.49.32-1.05.37-1.52.06-.5-.33-1.65.12-1.81-.22-.71-.56-1.9,0-2.42-.07-.12-.17-.27-.18-.41-.02-.29.03-1.43.42-1.36-.54-.59.09-.81.12-.92.01-.04-.02-.86-.05-.9-.11-.14-.46-.07-.44-.17.15-.27.25-.46.61-.43.01-.27-.24-.51-.21-.77.04-.4.69-.76-.03-.69.1-.26-.07-.33.24-.42l-.24-.12.62-1.26.22.1v-.24s-.22-.06-.22-.06l.59-1.27c-.92.11.25-.87.33-1.01.23-.42.3-1.39.89-1.54l-.25-.19c.05-.46.12-.62.62-.53-.12-.1.15-1.02.19-1.09.11-.17.34-.22.47-.37s.14-.41.32-.53c.33-.23,1.54-.47,1.94-.39.26.06.47.38.74.49.17.07.46-.04.57.09ZM66.95,54.14s.05-.22-.04-.27l-1.1.19c.21.79-.05.5-.18.72-.1.17-.03.41-.13.61-.05.09-.26.09-.34.27-.03.07-.29.94-.3,1-.04.19.11.72-.02.95l-.37.08v.36c.43-.17.39.28.21.46-.07.06-.27-.04-.34.1-.09.21-.01.79-.12,1.04-.05.13-.22.08-.29.32-.05.17,0,.54-.07.74l.48-.12v.24c-.39-.05-.09.19-.17.36-.1.21-.43.15-.43.36.24-.02.36,0,.42.25h.3s-.12-.61-.12-.61c.42-.07.75.49.8.49.22.03.36-.2.5-.21.23-.03,1.28.15,1.38.08l-.12-.24c.46.24.33-.07.42-.09.57-.16.58.22.62.22.11,0,.27-.15.45-.11.26.06.5.65,1.04.34.02-.14.05-.32-.02-.45-.02-.03-.42-.41-.43-.45-.06-.31,0-.77-.1-1.27-.04-.24.26-.54-.29-.61.29-.29.14-1.39-.03-1.66-.04-.07-.25-.06-.29-.2-.04-.16.11-.77.07-.79s-.22.03-.32-.04c-.14-.1-.28-.42-.52-.51l.36-.55c-.7-.01-.41-.43-.53-.7-.02-.04-.33-.22-.39-.3Z"/><path d="M113.9,14.11c.07.12.02.32.1.44.24.43,1.02.49,1.42.62.1.03.09.23.17.23.12,0,.29-.17.42-.07.11.09.07.35.14.41.22.2,1.12-.1.95.5l.54.13.12-.24c.27.09.28.57.31.6.04.03.23-.09.35-.05.29.11.68.72.97.84.16.07.26-.27.48-.19-.06.46.52.57.78.97.28.43.2.96.85,1.09l.18-.24v.36s.24-.12.24-.12c.05.17,0,.56.05.68.08.17.43.29.39.84-.01.18-.24.37-.2.59,0,.04.58.57.74.45-.17.29-.09.75-.15,1-.06.28-.3.36-.28.73.01.17.09,1.06.11,1.11.11.29.75.62-.05.73l.37.06c-.12.48-.2.5-.61.67l.43.18.05.49h-.49s-.05.86-.05.86l-.43.11c-.09.41.23.43.48.66l-.85.31c.28.77-.47.8-.72,1.39l.48.18-.22.06.09.18h-.72c-.09.25-.14,1.02-.27,1.18-.25.31-.91.52-1.19.82-.23.24-.33.76-.37.78-.1.06-.35-.02-.51.02-.1.02-.08.21-.17.24-.2.05-.45-.06-.65.06v.43s-1.81-.48-1.81-.48l-.02.47-.47.14c.34.43.04.74.08,1.27.03.4.29.47.29.5.03.25-.21.42-.21.69,0,.24.34.53.34.62.01.38-.22.58-.26.86-.05.35.11.87.05,1.28-.04.27-.3.62-.3.95l.48.06c-.05.49-.38.37-.48.51-.19.25-.13.8-.6.94l.24.42h-1.15s-.06.36-.06.36c-.39-.06-.3-.6-.39-.7-.06-.07-.39-.01-.45-.22v-.34c.46-.13.08-.73,0-1.11l.23-.11c-.61-.23-.25-1.09-.49-1.63l.37-.06-.23-.11c.22-.73-.04-1.5-.07-2.24-.02-.42-.01-.39-.06-.81s.62-.53-.11-.84l.48-1.21c-.35-.16-.22-.83-.61-.97.79-.73-.16-1.68.48-2.3l-.46-.36c0-.57.53-.63.47-.98,0-.05-.21-.05-.22-.08-.03-.09.09-.19.09-.27,0-.09-.21-.06-.24-.16-.09-.32.16-1.04.1-1.19-.03-.08-.22-.03-.22-.12,0-.3.44-.54.46-.61.01-.04-.09-.79-.1-.83-.05-.14-.47-.02.13-.62l-.25-.13c.09-.31.11-.78.09-1.1-.01-.18-.19-.3-.18-.44.01-.23.36-.71.31-1.13-.03-.22-.19-.39-.21-.6-.09-1.04.2-2.3.13-3.38-.01-.23-.26-.17-.26-.24-.03-.25.34-.63.34-.99,0-.51-.18-1.11-.07-1.77.03-.17.24-.34.23-.51l-.25-.12c.05-.75,1.25-.88,1.54-.4ZM115.47,17.63c-.19-.19-1.26-.46-1.41-.28.05.13.34.58.34.69,0,.19-.21.29-.19.44.02.28.42.93.22,1.41l.36-.12c0,.51-.4.72-.36,1.27.02.29.18.59.18.78,0,.18-.2.29-.18.42.04.22.7.68.23,1.35l.48.06c-.22.88-.32,1.95-.27,2.83l-.21.32.48-.12c-.02.3-.08.56-.36.67l.37.12c.12.64-.36.81-.36.86-.02.12.13.44,0,.65l.36-.12c.13.51-.35,1.28-.33,1.83.02.41.28.48-.03.96l.3.12c0-.56.34-.3.55-.43.28-.18.62-.66,1.02-.73.83-.14.2-.04.74-.52.27-.24.89-.26.66-.85h.73s-.12-.61-.12-.61h.3c-.09-.5.83-.66.77-1.16-.02-.14-.39-.04-.36-.47.05-.57.28-.82.59-1.22l-.31-.36.34-.72-.49-.19c.49-.47.27-1.18.47-1.8l-.47-.21.1-.36-.24-.23c.26-.49.15-.54.01-1.03l-.36.12c.32-.53-.08-.46-.2-.65-.33-.5-.48-.95-1.25-.81v-.35s-.49.24-.49.24c-.03-.15-.14-.42-.24-.52-.15-.15-.82-.48-.92-.56-.21-.17-.29-.52-.46-.7Z"/><path d="M131.15,14.44c.05.61,1.16.31,1.22.36.02.01.04.28.12.4.11.16.29.37.49.51-.43.64.03.89.07,1.38.01.19-.19.29-.19.31,0,.1.28.13.33.2.02.03-.08.13-.05.19.16.4.34,1.19.59,1.75.09.2.36.38.41.56.05.21-.27.48-.18.61.02.03.26.05.36.18.38.48.07,2.64.24,3.38.02.09.22.07.24.16.08.35-.3,1.09.24,1.13l-.49,1.03.49.06c-.25.35-.07.93-.15,1.24s-.5.46-.14.94c.08.11.31.11.29.18-.05.22-.46.57-.36.91l.36.06c-.1.41-.57.4-.61.43-.01.01.11.19.08.28-.05.18-.26.22-.2.44l.48.06c-.09.36-.47.7-.57,1s-.34,2.06-.46,2.21c-.06.08-.29.08-.3.19l.24.76c-1.17.47.14,2.09-1.2,2.51-.13.5.11,1.08-.49,1.32v.12s.24.06.24.06l-.23.13.11.34c-.16.1-.74.32-.82.4-.03.03.11.27-.1.34-.38-.2-.75.04-1.08,0-.22-.02-.39-.22-.62-.24-.14-.01-.38.13-.4.11s-.15-.4-.25-.52c-.11-.12-.43-.03-.37-.32l-.12.36c-.42-.19-.53-.67-.48-1.09-.91.4-.81-.33-.5-.95-.16-.21-.54-.27-.57-.29-.17-.15-.59-1.37-.78-1.7-.09-.16-.34-.2-.35-.28-.04-.27.36-.45-.12-.6l.12-.36-.23-.12c.3-.47-.17-.61-.21-.68-.06-.14.08-.88.06-.93,0-.02-.18-.02-.22-.1-.15-.27-.1-.6,0-.88-.41,0-.41-.09-.48-.43l.36-.06c-.07-.29.07-.45-.24-.54l.25-.5-.25-.24.19-.55-.31-.29c.48-.72.56-1.58,0-2.29,1.08-.6-.03-1.29.18-2.15.06-.26.3-.21.37-.45.11-.42-.07-.79.04-1.16.07-.22.37-.39.43-.85s-.3-.68.07-1.02l-.36-.3.47-.2c-.13-.58.68-.74.15-1.36l.48-.74-.25-.24c.16-.86,1.17-.77.85-1.76.43.02.73-.13.61-.61.67.25.8-.51,1.05-.59.11-.03.25.06.34.04.14-.02.28-.14.36-.13.1,0,.2.19.36.2.06,0,.06-.17.11-.2.11-.06.25-.03.33-.13.3-.38.41-.39.56-.56.11-.13.04-.54.39-.45ZM130.42,17.1c-.64-.08-1.02.24-1.39.73-.28.37-.57,1.3-.75,1.78-.07.2.14.47-.29.58v.24s.25.12.25.12c-.52.33,0,.6-.02.83-.01.18-.32.58-.34.75,0,.03.38.06.24.36l-.48.18c.65.45.19.5.15.63-.08.2.07.04-.15.42-.16.29-.1,1.14.12,1.43l-.37.18c-.04.22.22.07.34.14.26.16-.18.84,0,1.12l-.46.19c-.12.31.2.21.22.3.17.74-.17,1.87-.18,2.65,0,.64.37.59.43.76.08.26-.17,1.05.04,1.54.08.18.31.17.34.29.1.35-.14.92-.11,1.06s.28.15.31.21c.1.18-.08.71.28.77l-.13.42.36-.12c.03.56-.52.54-.23,1.08.72-.23.5.93,1.04,1.16l-.09.31c.33.04.32.02.42-.24l.3.24.12-.61-.36-.12c.32.04.11-.15.29-.36.15-.18.55-.36.68-.67.03-.06-.37-.04-.3-.43l.42-.35-.24-.06v-.24s.49-.37.49-.37l-.36-.42c1.25-.11.03-1.27.51-1.8.08-.09.44.14.34-.26l-.48-.06.6-1.09-.22-.07.1-.28-.25-.13c.49-.39.23-.74.28-1.08.05-.3.39-.63-.04-.74l.36-.72-.36-.19.24-.24-.36-.12c.18,0,.19.08.19-.13,0-.39-.22-1.07.41-.97,0-.31-.43-.44-.47-.5-.03-.04.29-.66.29-.89,0-.09-.1-1.22-.11-1.28-.11-.41-.35-.08-.48-1.01-.05-.34-.29-.49.05-.92h-.37s.09-.22.09-.22l-.19-.08.11-.68-.24.12-.11-.43.24-.13-.13-1.01-.48.24c-.21-.51.25-.63.25-.67.02-.4-.59-.62-.61-.73l.24-.42Z"/><path d="M113.04,53.13s.04.12.15.18c.2.12.57-.09.51.5l.24-.24c.03.23.21.39.29.6.08.2-.16.41.55.25-.15.49.32.97.37,1.28.04.24-.11.49-.05.66.02.05.59.73.66.77.03.02.72,0,0,.2l.21.14c.17.44-.29.57-.31.65-.08.36.36,1.04.4,1.45.09.86-.32,1.18.18,1.98.04.06.01.18.01.26l.24-.12-.24,1.21h.48s-.24.18-.24.18l.36.19-.36.66c.19.18.45.12.36.48l-.6-.06c.01.29.08.56.36.66-.27.38-.52,1.37,0,1.58l-.25.12c-.09.27.43.35.13.83-.08.12-.34.03-.25.26l.36.37c-.25.12-.28.11-.24.42l.36-.12-.02.59c-.64.07-.62.48.02.5l-.36.12.35.3-.35,1.15h.49c.19.48-.45,1.14-.37,1.5.03.12.66.2.26.75l.24.12c-.21.22-.1.83-.15.95-.07.18-.3.16-.32.21-.03.05.13.2.09.32-.07.2-.9.39-1.13.52-.11-.49-.48-.09-.68-.19s-.64-.76-.47-1.03h-.49c.11-.31-.01-.55.37-.67l-.36-.24.36-.36-.46-.2c.02-.36-.12-.61-.09-1,.04-.57.13-.77.13-1.34,0-.36.2-.88-.31-.91.49-.51-.06-1.12.36-1.69h-.49c0-.36.34-.76.37-1.04.02-.22-.21-.14-.24-.25-.08-.28.31-.7.3-.9,0-.33-.24-.32-.27-.38-.03-.05.09-.18.07-.2-.05-.06-.44-.1-.54-.26-.11.44-.79.36-1.21.34-.32-.01-1.2-.25-1.56-.23l-.09.23-.28-.08-.06.23-.36-.24.12.36c-.37.09-.53-.24-.57-.24-.09-.02-.23.07-.34.06-.17-.02-.29-.26-.54,0-.11.11-.44,1.03-.45,1.21-.01.31.22.52.2.54-.01.02-.21,0-.29.12-.03.04-.39.66-.41.7-.16.39-.01,1-.39,1.3l.24.12c-.11.1-.21.22-.25.36-.2.64-.35,1.37-.57,1.97s-.78.94-1.41.89c-.1-.03-.27-1.02-.28-1.19,0-.41.47-1.72.55-2.19.08-.5-.11-1.41.26-1.79l-.25-.13v-.22c.32-.35.29-.79.4-1.1.02-.07.16-.04.18-.12.1-.29-.18-.31-.2-.38-.11-.43.24-.43.31-.58.18-.4-.21-.97.05-1.44.28-.51.06-.49.17-.75.13-.33.53-.4.19-.96l.34-.37-.31-.36c.6-.54.29-1.52,1.06-1.76l-.24-.36c.18.06.37-.08.24-.24-.03-.03-.31.29-.24-.06.5-.57.67-.62.36-1.4.47.1.34-.22.5-.41.1-.12.28-.17.31-.23.08-.14.34-1.09.39-1.12l.68-.18c.11-.7.32-1.82,1.27-1.58l-.06-.24c.43.15.61-.23.85-.32.13-.05.37.1.47.07.09-.02.07-.23.15-.25.16-.03.89.21,1.09.3ZM112.36,56.47c-.21-.48-.76.1-1.09-.12-.02.6-.27,1.32-.83,1.6l.1.34c-.89.11-.83,1.45-.96,2.12l.23.18c-.66.07-.4,1.04-.85,1.09l.24.17c-.15.33-.15.6-.6.55v.6s.3-.22.3-.22l.78.1.14-.6c.21-.05.06.2.18.22.49.08.82-.21,1.11-.22.26-.02.4.21.6.25.54.08,1.25-.21,1.75-.37l-.1-.22.34-.2c-.08-.21-.32-.06-.35-.08-.3-.27.18-1.11.19-1.38.02-.61-.26-1.1-.34-1.61l-.35-.09v-1.13s-.23.12-.23.12l-.02-.48c-.43.15-.63-.67-.23-.62Z"/><path d="M18.56,46.03c.13.07.35,0,.49.06.32.14,1.24.68.94,1.06.38-.11,1.1.9,1.09,1.16,0,.16-.22.28-.19.43.11.43.2.72.31,1.25.02.09.23.08.23.13-.02.62-.22,1.58-.32,2.07-.11.52-.17.97-.14,1.5,1.13.25-.01.73-.02.82-.03.17.17.61,0,.89l.48.12c-.4.09-.08.44-.74.44l-.34,2.34.48.19-.59.63c-.01.34.08.99-.27,1.07l.23.36c-.06.26-.52.27-.57.32-.08.1.06.63-.26.77l.24.12-.89,1.51c-.14.56-.14,1.24-.22,1.76,0,.03-.67.26.13.31l.31,1.45.12.12.42-.24c.08.47.38.88.57,1.31.16.37,0,.86.53.75l-.12.24h.37c-.22.31.11.59.08.85-.06.44-.45.46.29.67-.36.47-.16.85-.79,1.12-.3.01-.29-.32-.31-.33-.06-.03-.78.52-1.21.16-.48-.4-.28-1.19-.83-1.15-.09-1.02-1.25-1.46-1.49-2.51-.99-.33-.77.86-.96,1.11-.26.35-.57.23-.7.34-.01.01.08.18,0,.29-.16.2-.5.24-.69.42l.07.36c-.66-.02-.52.33-.73.55-.18.18-1.27.7-1.51.66-.14-.13-.35-.84-.29-.94.01-.03.29-.1.41-.26.19-.24.04-.46.12-.6.09-.16.92-1.11,1.17-1.48.35-.51.69-.69,1.08-1.13l-.25-.13c-.04-.16.21-.77.32-.89.17-.18.45-.13.6-.37.44-.74-.05-1.84.31-2.54l-.47-.19c.18-.56.3-.96.1-1.53-.02-.07-.44-.71-.45-.76-.12-.36.42-1.55.42-1.82,0-.14-.16-.27-.17-.39-.01-.47-.07-.98.34-1.3l-.46-.25c-.15-.42.43-.85.45-.97.02-.12-.44-.8,0-1.13l-.24-.06c.2-.14.27-.74.24-.96-.03-.18-.22-.3-.22-.47,0-.26.31-.85.32-1.1s-.17-.61-.12-.91l-.35-.07c.38-.48.63-1.44.74-2.06.09-.55.15-.88-.12-1.39l.84-.8-.36-.3,1.09-.24-.12-.24c.33.07.73.07,1.03-.12.09-.06-.09-.28.13-.37h.24c.12.04.14.29.21.33ZM18.66,50.17l-.48-.24.12.48.36-.12v-.12ZM19.24,53.97c.09-.04-.26-1.06-.23-1.25s.39-.3.41-.39c.01-.07-.67-.93-.71-1.18-.04-.22.53-.75-.28-.84-.37.48-.77.78,0,1.25l-.54.06.51.19-.79.79c1,.01.28,1.48,0,1.8-.13.15-1.31.26.28.69-.14.25-.9.37-.99.58-.05.11-.15,1.42-.11,1.49.05.1.51.07.51.14,0,.26-.52.73.18.99.65-.21.13-.53.42-.81.18-.18.85-.19.41-.76h-.69s.54-.52.54-.52h-.82s.5-.15.5-.15l-.22-.24,1.36-.14-.44-.36-.65.1c.21-.49.77-.93.27-1.44h1.1ZM17.93,58.29l-.48.06c.16.15.25.35.48.3v-.36Z"/><path d="M54.99,12.05c.36.25.72.88,1.07,1.18.15.12.51.23.53.26.07.12-.02.42.04.62.08.25.76,1.12.8,1.24.03.09-.06.51-.03.68.1.46.48,1.27.41,1.72-.01.08-.2.06-.24.17-.21.57-.05.52-.42,1.26-.21.44-.3,1-.73,1.21-.29.14-.71.25-.59-.22s.29-1.02.52-1.43l-.25-.13c.05-.39.09-1.45.01-1.78-.03-.13-.24-.12-.3-.2-.04-.05-.04-.58-.15-.73-.07-.09-.45-.48-.55-.57-.03-.02-.16.08-.19.06-.32-.28-.62-.67-.96-.94-.57-.16-1.56,1.13-1.62,1.52-.05.37.38.03.36.3-.37-.03,0,.44-.6.37.09.23.01.74-.05,1-.11.47-.58.73.04,1l-.11.42.24-.12-.24.91.23.11c-.04.1-.09.23-.08.34.06.57-.16.65-.01,1.09.18.53.09.57.19,1.04.06.28.51.93.48,1.17s-.29.09-.05.44c.3.44-.17.31-.14.41.09.38.44-.1.48-.06v1.45c.51-.14,1.17.56,1.38.97.39.78-.1.54.85,1.23.25.18.17.39.68.35l-.12.96.6-.24c.13.38,0,.51-.12.85l.6.13.19,1.21c.24.35,1.29.09.67.84.59.03.35.59.4.71.01.02.29.06.31.35.02.27-.18.35-.19.55,0,.11.15,1.57.33,1.42l.12-.24c.17.46,0,.95.03,1.4,0,.07.19.04.19.11,0,.1-.13.49-.08.61.05.13.39.12.35.36-.39.4.02.8-.37,1.09l.24.12c-.47.36.15,1.13-.35,1.33l.12.35-.84.58.1.34c-.42-.16-.48.19-.51.21-.1.05-.36-.29-.09.52-.27-.11-.39.21-.42.22-.34.08-1.15-.06-1.58-.07-.15,0-.27.17-.36.17-.55.02-1.02-.53-1.33-.62-.13-.04-.32.07-.42,0-.16-.12-.27-.51-.49-.6-.19-.08-.45.17-.6-.12l.24-.66h-.49c.2-.25.13-1.2.17-1.28.16-.33.84-.58.99-.9.19.23.49.43.67.66.14.18.21.89.37.19h.17c.13.4,1.07.87,1.37.56.05-.05,0-.24.1-.34.16-.14.5-.21.65-.42l-.36-.06c-.19-.3.11-.63.1-.77-.01-.11-.14-.22-.16-.33-.05-.24.19-.41-.18-.36l.36-.12c.07-.34-.13-.23-.37-.24l.36-.66-.36-.06c-.05-.19.16-.08.2-.14.26-.44-.14-1.03-.32-1.47-.14-.33-.45-1.18-.68-1.53-.16-.24-.77-.72-.78-.81-.02-.13.11-.3.09-.45-.1-.69-.64-.62-.69-.69-.01-.01.12-.19.06-.35-.24-.58-1.07-.66-1.28-1.4l.24-.12c-.51-.27-.47-.29-.73-.7-.05-.08-.22-.08-.24-.17-.07-.33-.11-1.07-.39-1.34-.07-.07-.32-.03-.4-.14-.09-.13-.02-.39-.09-.58-.02-.06-.77-.62-.71-.99l-.22.11.09-.56-.33-.18c.47-.44-.04-.64-.09-.76-.36-.9-.29-1.57-.4-2.44-.03-.21-.25-.35-.25-.61,0-.43.31-.34.37-.52.15-.4.16-.68-.24-.82-.05-.16.89-.6-.12-.85.09-.41.59-.41.61-.5.14-.45-.33-.57-.25-1.01h.36c.07-.26-.23-.62-.23-.79,0-.27.62-1.37.6-1.45l-.36-.24c.46-.3.4-.89.8-1.14.15-.09.42-.09.5-.17.13-.13.48-.91.67-1.01.07-.04.54-.12.72-.18.51-.17.45-.05.86-.13.24-.05.43-.33.61-.32.05,0,.97.35,1.01.38Z"/><path d="M86.66,13.47c-.21.35.25.53.25.79,0,.09-.18.05-.19.09-.04.08.02.2-.04.27-.52.56-.95.59-1.7.55l.12.36c-.55.14-.9.19-1.47.17-.53-.02-1.16.02-1.72.11-.89.15-.38,0-.64-.04-.12-.02-.35.15-.53,0,0,.38-.29.71-.34,1.06-.06.39.03,1.52.58,1.36-.16.36-.21.76-.23,1.15,0,.1,0,1.01.02,1.06.04.13.25.27.22.33-.02.04-.77.26,0,.5-.26.42-.18.75-.12,1.2l.24-.12c-.13.33.17.68-.22.79l-.15,2.12h1.45s.07-.37.07-.37c.26.04.59-.05.82,0,.1.02.08.25.14.24.2-.02.33-.36.36-.36.15.02.77.39.79.36l.06-.36c.75.26.62,1.32,1.52,1.21l-.26.47-.59-.11c.23.19-.17,1.15-.3,1.21-.37.17-.22-.25-.42-.24l-.08.24c-.66-.18-1.02.44-1.62.24l.12.24c-.32.12-.58-.23-.8-.25-.23-.02-.63.34-1.02.13.15.36-.01.96.1,1.28.08.22.33.19.33.47,0,.45-.43.8-.31,1.28l.48-.12-.12.54.24-.06c-.09.59-.46.71-.43,1.4,0,.16.19.31.18.48,0,.24-.4.41-.18.8l.43.17c-.51.67-.18,1.05-.24,1.75l.36.06-.45.85c.26.32.38.61.33,1.03.56.06.91.01.97-.61l.36.12.13-.48c.67.31,1.1-.79,1.75-.68.04,0,.61.32.63.34.08.1.08.64.16.85.04.1.24.1.24.16,0,.21-.4.83-.51,1.06-.42.82-.49.59-1.19,1.11-.12.09,0,.31-.11.36-.21.11-.37-.06-.54-.03-.62.13-1.4,1-2.14.57l-.18.48c-.3.03-.59-.48-.63-.48-.11-.02-.28.12-.41.07-.23-.09-.13-.37-.15-.4-.06-.08-.31-.1-.39-.26-.03-.06-.38-1.21-.39-1.27-.03-.19.12-.52.02-.76-.12-.26-.36-.07-.41-.23-.08-.23-.16-.95.25-.89v-.12c-.45.08-.29-.11-.41-.32-.03-.05-.17-.05-.17-.1-.02-.5.36-.58.42-.73.05-.13-.25-1-.33-1.19-.05-.11-.24-.1-.23-.15.04-.34.72-.92,0-1.21l.24-.67h-.37s.32-.55.32-.55l-.32-.38.12-1.86h-.36c.02-.38.41-.66.36-1.04-.03-.23-.18-.16-.23-.27-.23-.51.16-.57.19-.81.06-.43-.28-1.39-.36-1.86-.05-.28-.05-.69.02-.97l-.22-.07.21-.08c-.15-.18.28-.5.28-.63,0-.31-.17-.51-.49-.44l.24-.85h-.37c.3-.48.26-.83.29-1.34.03-.47-.03-.55-.03-.87,0-.39.72-.77.1-.82l.22-.13c-.14-.43.23-1.09.21-1.5-.01-.36-.35-.66-.32-1.1.01-.22.21-.17.24-.24s-.19-1.26-.18-1.45c0-.24.13-1.21.33-1.22l-.13-.42c.35.1.61-.26.9-.25.25.01.47.31.8.13l-.12.36c.29-.08.65.11.89.09.28-.03.79-.4,1.13-.42.24-.02.45.12.69.1s.43-.25.62-.24c.36.02.28.47.86-.23.49.41.89.33,1.39.42.19.04.4.22.59.24.21.02.26-.25.49-.19Z"/><path d="M197.78,17.02c.09.12.07.39.23.43l.54-.11-.06.49-.43.11c.36.79-.34.77-.69,1-.08.06-.12.3-.22.33-.09.02-.64-.46-1.03-.12l.12.36c-.25-.12-.58.05-.77,0-.11-.02-.05-.34-.25-.24-.37.33-1.35.76-1.7.35l-1.15.26c.12.42,0,.76,0,1.13,0,.3.33.49-.13.62.57.57.2,1.62.17,2.3,0,.17.14.31.13.49-.01.31-.5.97.18,1.03l-.24.3.24.12-.24.06v1.33c.29.05.2-.03.29-.23.26.05.87.26,1.09.24.08-.01.07-.23.16-.25.23-.05.47.1.69.08.31-.02,1.23-.07,1.17-.44h.12c.1.56,1,.73.97,1.38-.02.48-.43.5-.62.74-.09.11.01.28,0,.29-.1.08-.66.12-.83.14l.12.48c-.24.03-.54-.05-.77,0-.09.02-.07.21-.17.24-.12.03-1.05.12-1.1.09s.01-.31-.33-.21c-.05.01-.04.22-.12.22-.2.02-.64-.1-.91.02.06.42.22.62-.12.97l.23.05c-.2.3-.05.66-.11.96-.02.08-.19.09-.2.11-.15.56.56.58.2,1.18l.36.12-.6.42c.65.22.03.51.48.85-.39.13-.14.81-.35,1.2l.47.19c-.57.65-.1,1.43-.37,2.18h.37c-.26.44.08.79.26,1.19.46-.08.93-.27,1.3-.55.33-.24.11-.49.73-.28l-.12-.48c.25,0,.7-.08.88-.24.21-.17.12-.42.24-.58.12-.17.69-.3.88-.49.3.23.36.53.78.34l-.11.35c.57.12.25.44.23.86.66.05.61.34.19.68-.08.06-.24.03-.29.06-.06.04-.05,1.11-.71,1.07l.08.37c-.78-.38-.9.47-1.34.67-.27.12-.63-.22-.73.41l-.35-.12c0,.77-.46.43-.78.49-.38.08-1.18.58-1.16-.25l-.42.24-.11-.22-.9.08c-.4-.42-.02-.58-.02-.65,0-.15-.4-.15-.46-.2-.02-.02.16-.36-.27-.35l.24-.18-.48-.25c-.04-.23.2-.37.19-.55-.04-.49-1.02-1.37-.43-1.45v-.12c-.44.08.03-.63-.48-.61-.05-.2.17-.08.2-.14.15-.24-.17-.38-.18-.4-.07-.32-.26-1.22.09-1.21l-.24-.3.24-.24-.24.06c-.23-.38-.02-.64-.04-.95,0-.1-.15-.21-.16-.38,0-.35.64-1.02-.04-1.16v-.12c.14.16.46-.76.46-.81.02-.2-.44-.5-.1-.89l-.36-.06c.25-.51.64-.42.61-1.03h-.37s.24-1.45.24-1.45l-.36.06.13-.53h.47c-.33-.2-.1-.82-.16-.92-.09-.16-.34-.16-.33-.23.02-.15.24-.4.29-.56.06-.19.16-.38.16-.41.03-.17-.06-.57.03-.79l-.36.06c-.02-.28.37-.63.38-.72.02-.38-.26-.64-.26-.86,0-.22.27-.32.34-.51.2-.55-.79-.46.02-1.19l-.24-.24c.45-.89.13-2.12.61-3.03l-.24-.12c.14-.19.24-.4.42-.56.77-.7,1.16-.49,2.05-.72.03,0,.54-.17.57-.18.24-.1.33-.53.84-.18v-.37c.06-.07,1.56.87,1.58,0l.2.25c.16-.1.48.01.57-.01s.07-.21.16-.23c.18-.04.39.04.57,0,.04,0,.19-.51.51,0,.08.12,0,.17.26.52Z"/><path d="M207.13,16.18c.09.03.37.35.75.38.17.01.25-.19.37-.13.06.03.82.83.89.93.14.19.29.75.35.81.08.06.28,0,.31.04.11.11-.05.59-.04.78,0,.09.16.18.15.34-.03.42-.34.35,0,.83.19.26-.43.57-.44.61-.03.08.14.23.09.32-.06.12-1.05.97-1.31.74-.2-.14-.21-1.54-.28-1.84-.09-.36-.63-.62-.58-1.06l-.36.24c-.2-.7-1.1-.8-1.7-.55v.42s-.47.02-.47.02c.06.32-.2.34-.29.5-.19.35-.13.88-.29,1.27-.07.16-.27.13-.28.23-.11.83-.3,2.34-.1,3.13.12.49.52.9.68,1.23.07.14.1.6.16.64.05.04,1.07-.22.96.61l.13-.24c.5.11.49.52.48.96l.48-.36c.24.45.18.4,0,.85.51.15.42-.32.85-.24l.12.73.36-.12c.22.24-.01.8.01.84.02.03.37.16.57.46.41.62.02,1.06.45,1.62.1.13.35-.03.4.19.06.25-.12.76-.03,1.02.05.14.38.32.29.6l.48-.12c.12.37-.34.74-.34.78-.01.52.33.69.33.73-.04.85.22,1.06.27,1.71.03.45-.31.18-.25.48l.48.48c-.28.24-.13.69-.26.95-.22.44-.12.07-.29.69-.09.34-.54.65-.3,1.2l-.48.14.12.24-.6.13c.12.04-.2.76-.24.79-.14.1-.46,0-.62.11-.19.13-.07.72-.72.55l.12.36c-.58-.07-1.33.61-1.76.62-.22,0-.16-.23-.26-.25-.21-.04-.96.11-1.26.07-.27-.03-.97-.33-1.14-.32-.03,0-.2.36-.37.37l-.3-.72-.48.12c0-.47.14-.84-.37-1.03v-.24c.42-.09.06-.81.36-1.22.37-.2.54.15.75.13.14-.01.42-.21.46-.18.02.02.05.24.21.35.53.37,1.54-.04,2.06.12l.1-.22.43.11.43-.71.3.23c.26-.55.46-.91.97-1.27l-.36-.36.6-.55c-.66-.09-.13-.71-.13-1.04,0-.18-.17-.32-.18-.48-.01-.24.13-.57.07-.85l-.36-.07c0-.27-.07-.54-.09-.8-.03-.29-.03-.72-.11-1-.06-.24-.41-.38-.42-.45-.03-.18.17-1.09.12-1.13-.04-.03-.27.07-.38-.07-.09-.12-.2-.75-.23-.78l-.48.24c.11-.4-.26-.53-.32-.64-.08-.14-.04-.34-.15-.51-.21-.32-.82-.77-1.22-.78l.12-.24c-.42.28-.8-.47-.97-.85l-.24.24c-.3-.34-.22-.64-.43-.97l-.3.24-.25-.85c-.16,0-.22.36-.42.12-.41-.48.11-.4.18-.5.03-.04-.14-.26-.15-.38-.11-.73-.26-.45-.37-.73-.06-.15.07-.43.04-.45-.04-.04-.28.07-.37-.08-.05-.09-.15-.74-.12-.77.24-.03.57.14.49-.24h-.49s.34-1.16.34-1.16l-.34-.29.71-.38c.05-.32.12-.56-.23-.65.31-.07.34-.54,0-.61.59-.29.46-.66.71-1.11.13-.23.47-.55.48-.59.02-.07-.1-.32-.08-.37.02-.09.31.02.23-.24l-.36-.3c.13-.09.6-.16.67-.24.2-.23.05-.46.07-.48.18-.14.71-.03.85-.08.36-.15.3-.26.96-.48.23-.08.47-.4.69-.53.62.52.99,0,1.71.28Z"/><path d="M56.57,50.21s.07.18.16.25.27.06.32.11c.12.12.52.83.48,1.01-.03.16-.38.04-.34.48l.25.3c-.17.1-.55-.02-.65.01-.43.12-.91.45-1.62.43-.26,0-.43-.17-.61-.18-.2,0-.46.36-.83-.02l-.18.48c-.49.1-.45-.42-.56-.5-.18-.13-.66.02-.89-.11-.18.55.2.97.25,1.39.09.72.04,1.91.05,2.67,0,.37-.12.81-.07,1.2l.49.26-.48.18c-.08.27.31.37.33.55.02.16-.42.88-.57,1.03.1-.05.4.32.44.4.02.03-.17.4.32.31.38-.07.59-.81,1.47-.83.4,0,.95.38.67-.35h.24c-.04.29.26.2.33.27.1.1.08.42.28.52.12.06.47-.27.73-.07-.13.52-.15.79.12,1.27,0,.06-.9.41-1.09.62s-.17.52-.27.63c-.03.03-.73.11-.86.15-.15.05-.02.42-.64,0l-.18.48c-.2.05-.06-.19-.18-.22-.26-.08-1.15.13-1.14.55-.05.2.18.14.27.31.42.78-.12.72-.17,1.12-.03.29.25.57.25.6-.01.1-.3.14-.34.2-.09.15.24.93-.26,1.01.31.04.37.83.36,1.11-.01.31-.24.41-.22.68.02.34.44.27.35.63,0,.34-.32.23-.49.37.61.44.11,1.28.48,1.93l.48.19c.19-.19.19-.58.31-.72.32-.36.73-.66,1.06-.97.39-.38.47-.5.21-.97,1.12-.16,1.02-1.46,2.37-.61-.01.41-.09.36.18.66l-.25.92h.37c-.09.55-.51.91-.89,1.25l.09.94-.43.6c-.66-.29-.6.15-1.08.44v.24s.25.18.25.18l-.84.06c-.28.17-.28.4-.13.67l-.41.13-.13-.25-.26.47c-.75.19-.99-.27-1.5-.51-.63-.3-.46-.11-1.11-.61-.18-.14-.54-.17-.66-.44-.09-.21.05-.4.02-.61-.04-.22-.28-.22-.29-.29-.04-.17.33-.62-.26-.67.2-.28.27-.67.12-.99-.11-.22-.83-.41,0-.71l-.12-.72-.48.12.49-1.03-.24-.13c.26-.41-.46-.91.24-1.02l-.24-.12c.15-.33.42-.46.24-.85l-.24.12c-.03-.93.82-2.01,0-2.78.53-.02.22-.51.25-.78.03-.23.18-.44.18-.62,0-.21-.17-.37-.19-.49,0-.05.8-.62,0-.54.26-.56-.13-.92.24-1.49.08-.13.35-.02.23-.32-.38.02-.1-.25-.23-.49h.49s-.21-.71-.2-.79c.01-.13.29-.23.33-.49.05-.36-.2-.46-.23-.62-.05-.29.33-1.8.22-2.38-.02-.1-.38-.07-.24-.38.06-.13.32-.16.35-.2.02-.03-.11-.22-.08-.38.07-.4.1-.63.18-1.03.05-.25.04-.47.13-.72.15-.41.85-1.11,1.31-1.13.22,0,.37.11.49.12.06,0,.04-.19.2-.26.25-.11.93-.06,1.24-.09.19-.02.39-.2.49-.19.17.01.47.57.43-.16.37.12,1.25.15,1.55.28Z"/><path d="M146.57,15.02c.07.05.6.02.46-.22l.85.6.12-.24.12.6.6-.24-.05.61-.43.12c.26.53-.18.7-.4,1.09-.05.09.05.23.04.24-.07.03-.28-.04-.39,0-.23.09-.17.24-.75.23-.82,0-1.6-.46-2.18.35-.26.05-.86-.21-.97-.22-.17,0-.63.35-1,.33-.23-.01-.58-.39-.98-.06-.17.14.11.52-.27.46.35.37.13.79.16,1.3.05.73.21,1.6.26,2.4.04.66-.34,1.1.2,1.57.07.34-.17.31-.37.48.39.38-.05.83.02,1.32l.34.07c-.02.17.04.37,0,.53-.04.14-.31-.02-.25.26l.25.12c.01.24-.29.42-.34.64-.25,1.02.54,2.09-.02,3.06.07-.05.34.28.34.3.03.13,0,.67-.23.61l.24.12-.37.85.25.13c-.24.35-.4,1.25-.33,1.64.05.24.35.35.32.53-.03.14-.33.22-.35.49-.01.22.15.82.19,1.12.1.87.22,2.32.18,3.37-.02.45-.35.36-.38.51-.08.34.35,1.08-.34,1.02l-.03.46-.42.11c-.17-.4-.72-.39-1.15-.39-.29-.16-.12-.59-.15-.64-.09-.18-.74-.47-.82-.93.61-.3-.31-.99.36-1.45-.37-.1-.01-.25-.34-.36l.34-.79-.48-.12c.38.09.07-.53.13-.9s.36-.61.43-1.12c.07-.55-.24-1.15-.25-1.68,0-.23.33-1.43.29-1.5l-.35-.19c.66-.71.37-.8.26-1.48-.06-.36.33-.42-.23-.69.11-.52-.16-.74.45-.98l-.23-.6.22-.06v-.24c-.87-.31.23-.56-.04-1.04-.09-.16-.35-.12-.33-.35l.38-.79-.36-.18.48-.31c-.02-.24-.46-.31-.49-.45-.08-.38.23-.89.23-1.05,0-.12-.17-.25-.18-.38,0-.2.36-.54.32-.72-.04-.14-.33-.13-.36-.27-.12-.48.36-.75-.24-1.19.52-.21.36-.91.61-1.39l-.46-.18.21-.91c-.09-.06-.82.31-1.13.22-.28-.08-.28-.41-.34-.45-.07-.05-.26.11-.39.08-.23-.04-.46-.61-.93-.34.12-.35.08-.66-.12-.97.49.11.56-.3.72-.41.11-.07.66-.21.76-.24.31-.1.48-.44.63.05.68-.4,1.3-.48,2.06-.69.37-.1.11.06.51-.16.61-.33.5.11.6.12.41.07.92-.24,1.31-.26.53-.02,1.05.22,1.59.14.23-.03.16-.25.25-.26.37-.04.61.02,1.14-.06.33-.05.39.28.37-.28l.42-.13c.1,0,.13.29.21.34Z"/><path d="M146.26,51.92s.03.18.09.17c.4-.03.64-.29.8.38l.12-.24c.42.02.43.52.56.62.1.08.36.07.52.18s1.09.82,1.16.9c.31.34-.18.93.67.6.03.42-.45,1-.46,1.41,0,.18.19.24.17.53-.03.42-.31.36-.44.53-.15.2-.43.77-.63.89-.04.02-.82.01-.86,0-.73-.31-.04-1.79-.32-2.39l-.3.24-.19-.72c-.82-.16-1.2-.6-1.99,0-.52.39-.03.43-.12.6-.1.22-.56.2-.71.52-.13.27.1.52.03.74-.05.16-.29.15-.33.26-.16.39.09,1.04-.07,1.49,0,.03-.19.03-.2.09-.03.33.4.41,0,.84l.25.12c-.6.55.55,1.2-.12,1.46.19.13.31.53.49.61.14.07.45-.22.56.38.06.3-.23.29.16.71.42.45,1.1.27,1.41.91l.41-.12c-.03.31.04.55.31.73.24.09.14-.47.42-.18.15.16.07.38.15.52.09.14.49.07.21.52.53-.14.44.16.61.3.1.08.52.4.56.46.15.27.34.68.53.97.09.13.25.16.34.3.29.5,0,.73.02,1.05,0,.07.19.08.24.17.12.23-.1,1.96-.12,2.4-.02.49.31.39-.24.78l.36.3c-.34.25-.89,1.07-.36,1.21-.21.35-.54.37-.42.79l-.99.48.19.49c-.71.29-1.77.02-2.12.73l-.6-.36c-.17.45-.77.62-.67,0l-.24.24c-.29-.55-.89-.92-.95-1.6-.04-.45.56-1.1-.14-1.19l.22-.13-.1-.22c.24-.16.71,0,.88-.12.2-.13-.03-.48.63.11l.24-.48c.05.31.36.21.41.26.12.13-.17.58.26.47-.15-.47.35-.65.74-.9.16-.1.56-.02.32-.41-.03-.05-.28-.09-.34-.2.49-.08.69-1.81,0-1.51l.2-1.03-.54-.57.1-.22-.61.24-.12-1.21-.22.1c-.22-.91-1.73-.58-1.59-1.56l-.36.07c-.24-.12-.21-.49-.26-.54-.09-.07-.36.04-.45-.04-.04-.03-.03-.26-.14-.4-.19-.23-.5-.18-.57-.24-.71-.49-.77-1.98-1.61-2.46l.13-2.5-.5-.2c.17-.23.07-.55.13-.76.11-.36.33-1,.49-1.45.04-.12.28-.13.3-.32.03-.22-.2-.37-.17-.54.04-.26.52-.4.56-.47.09-.16-.02-.43.04-.63s.46-.12.35-.5l-.25-.12.3-.18-.06-.25h.49s-.09-.22-.09-.22c.55-.3.45-1.35,1.31-1.12l-.12-.24h.37s-.12-.36-.12-.36c.64-.08.75-.01,1.15.37l.61-.46c.11,0,.19.11.26.14Z"/><path d="M166.67,16.98c-.12-.24.4-.27.53-.24.12.03.07.23.08.24.05.04.22-.22.41-.23.3-.01.61.36.74-.14.46.3.55.06.74.05.39-.02.43.29.7-.25.39.17.61.11.92-.15l.12.24c.12-.64.64.12.69.13.11.02.3-.11.49-.05s.14.27.15.28c.05.03.54-.43.94.14.1.25-.41.49.02.82h-.24s.23.17.23.17c-.03,1.11-1.19.51-1.21,1.4-.12.11-1.06-.44-1.14.12l-.71-.34-.44.34c-.08-.62-.55-.15-.74-.17-.16-.02-.36-.2-.53-.19-.06,0-.06.2-.23.27-.43.16-1.02,0-1.25.52-.13.3.32,1.07.33,1.22.01.34-.47.16-.37.54h.49c-.38.77-.65,1.56.12,2.13l-.36.72c.34.09.19.26.12.54l.49.06-.25.13c.42.61-.32.7-.36.87-.06.24,0,.64.06.89l.3-.12c.1.65-.48.84.12,1.33h-.37c-.1.32.18.2.22.3.14.35-.93,1.36.15,1.4.02.52-.58.74-.47,1.27.09.44.55.36.6.42s-.12.29-.11.43c.01.16.18.26.17.43,0,.38-.42.76-.4,1.12,0,.06.21,1.04.23,1.09.07.2.35.16.35.26,0,.19-.55,1.05-.37,1.51l.49.06c-.33.08-.12.19-.24.36-.21.29-.53.11-.13.87l-.24.11.26.41.22-.1c.12.44.11.87-.11,1.28l.25.12-.61,1.58c-.54-.06-1.06.37-1.58.11-.29-.15-.09-.63-.6-.3.12-.27-.2-.37-.21-.43-.06-.25-.01-1.09-.01-1.44,0-.45.18-.26-.23-.74.26-.23.39-.61.33-.95-.05-.29-.31-.52-.32-.62,0-.15.28-.47.27-.73,0-.22-.29-.64-.3-.98,0-.29.17-.59.11-.9h-.49c-.05-.2.21-.06.25-.2.1-.41-.23-.8.12-1.19l-.37-.06c.06-.35.25-.67.26-1.03.02-.62-.54-1.71-.01-2.06-.5-.43.27-1.62-.49-1.76.39-.41.54-.77.42-1.33-.08-.41-.52-.66-.06-1.09l-.37-.06.22-.12c-.11-.21-.04-.36.15-.49-.59-.17-.05-.65-.04-.85,0-.12-.19-.29-.19-.48,0-.27.36-.63.33-.95,0-.08-.18-.7-.22-.84-.03-.12-.35-.03-.11-.73.04-.11.24-.09.23-.14-.02-.19-.28-.63-.24-.91-.34.21-.68-.07-.79-.07-.16,0-.74.11-.72.31l-.73-.46-.42.34c-.11-.16-.11-.46-.16-.58-.02-.05-.22-.07-.26-.14-.06-.1.06-.26.03-.4-.03-.13-.21-.22-.19-.37.06-.48.55-.42.59-.45.06-.05-.24-.42,0-.55l1.03.07.06-.37.72.24v-.36c.43.23.91.14,1.34-.06l.08-.11c-.25-.65.19-1.15.88-.85.21.09.78.95.85.9Z"/><path d="M79.59,51.43s.02.15.14.19c.26.09.69-.02.8.01.1.03.09.62.51-.13l.72.34.36-.31,1.03.47.18-.48c.42.1.4.58.43.61.05.05.93-.48.73.61l.36-.12c.19.27-.18,1.39-.36,1.65-.13.19-.68.04-.79.53l-.19-.06c-.04-.28-.39-.33-.66-.37-.07,0-.17.14-.24.14-.17,0-.52-.37-.84-.32-.08.01-.07.2-.1.21-.1.05-.37-.24-.52.28-.33-.07-.38-.59-.72-.49-.15.19-.42.61-.28.83.04.07.28.01.34.32.14.69-.25.7-.25.75-.04.28.33.66.13,1.01h.49c-.05.46-.21.68-.61.91l.6.24c.11.46-.81.45-.13.72.1.33-.25.98-.23,1.03,0,.01.18-.07.26.17.1.28-.07.65-.02.97.03.21.2.37.22.53.07.44-.07,1.47.51,1.61-.78.71,0,1.07,0,1.14-.02.11-.19.29-.2.51-.03.46.26,1.48.28,1.92,0,.2-.22.42-.18.7.05.31.42.43.47.87.05.4.12,1.58,0,1.94-.05.14-.14.26-.25.36l.48.24c-.41.09,0,.47-.49.6.35.45.38.86.6,1.33-.57.31-.43.48-.41,1.04-.22.29-1.59.24-1.41.84-.45.08-.29-.47-.38-.58-.06-.08-.48-.02-.64-.27-.23-.33.05-1-.43-1.14.77-.55,0-1.02.01-1.09.03-.4.3-.48.1-1.06-.07-.21-.13.14-.15-.48,0-.12-.11-.27-.1-.39.01-.14.31.01.25-.19h-.36s.24-.24.24-.24h-.36c-.11-.37.33-1.02.32-1.15s-.28-.31-.3-.5c-.03-.34.46-.54.46-.58-.02-.17-.29-.47-.33-.65-.06-.24.06-.44.04-.57-.04-.19-.27-.38-.26-.61,0-.2.27-.36.28-.48,0-.1-.15-.24-.16-.38-.03-.54.22-1.3-.4-1.5-.05-.21.19-.08.23-.13.03-.03-.13-.26-.11-.41.03-.31.52-.4-.12-.55.35-.46.43-.79-.24-.85l.24-.18-.36-.54.36-.18c-.36-.31-.62-.32-.47-.9h.35c-.06-.13-.32-.57-.31-.67.01-.11.17-.21.18-.36.03-.62-.46-.81-.48-.88-.02-.1.06-1.77.07-1.99.02-.29.22-.56.16-.86-.18-.66-1.46.09-1.56-.69l-.54.22-.13-.23-.53.12c-.08-.62-.72-.71-1.1-1.15.02-.4.59-.66.7-.82s-.13-.41.33-.33c-.05.31,1.21.28,1.27.24.02-.02-.18-.35.18-.48l.13.25c.11-.02.24-.11.35-.1.99.07,1.66-.4,2.81.03Z"/><path d="M132.9,54.74c.18.36.03.13.07.57.02.24.33.77.33,1.12,0,.31-.33.56-.3.9.02.25.18.38.21.65.06.49-.36.82,0,1.15l-.24.12c.33-.07.47.12.49.44,0,.09-.41.41-.38.96.01.24.33.11.16.4l.21.02-.24.18c.38.29.05.49.05.6,0,.25.58.7-.17.97.42.26-.13.75.48.79-.34.31-.7,1.21,0,1.09-.14.44-.31,1.29.12,1.51-.45.58-.49.5-.23,1.18.08.22.65.9.13,1.13.24.62,0,1.37.3,1.97.13.26.37.07.41.21.16.56-.26.56-.25.6l.79.79.23-.24c.44.24.91-.07,1.39-.03-.07-.58.79-.92.91-1.23.14-.36-.3-.44.42-.59l-.1-.71c.44-.06.71-.19.91-.59l1.61.61c.22.2.02.48.03.63,0,.09.23.06.25.15.06.3-.34.59.24.65l-.6.36.24.18-.2.08c.17.27-.89.74-.9.9l.37.53-1.1.18c-.2.13-.46,1.08-.5,1.13-.22.21-.71.09-.98.18-.57.17-.34.24-1.21.37-.29.04-.79.28-.89.29-.21.01-.38-.29-.54-.36-.1-.04-.23.04-.42-.07-.24-.13-.57-.6-.61-.61-.14-.03-.33.33-.58.13-.15-.29-.29-.6-.51-.85-.1-.11-.31-.09-.38-.17-.05-.05-.14-.43-.31-.53-.05-.03-.19.09-.2.08-.27-.3-.09-.85-.01-1.2h-.36s.1-.23.1-.23l-.22-.14h.24s0-.24,0-.24c-.26.11-.27-.3-.21-.43.04-.1.32.02.22-.3h-.48s.48-.85.48-.85l-.48-.12c-.05-.2.15-.06.22-.18.12-.22-.2-.31-.22-.48-.05-.52.53-.89-.12-1.1l.36-.61c-.39-.11-.44-.73-.36-1.07.02-.09.24-.08.25-.15.03-.26-.24-.4-.24-.6,0-.17.32-.92.22-1.21-.24-.7-.12-.57-.1-1.21,0-.18-.29-.41-.3-.72-.03-.45.28-.91.24-1.45-.05-.68-.36-.88-.54-1.46l.36.06-.24-.54c.06-.2.88-.16-.12-.73l.42-.43c-.21-.56-.32-1.55.31-1.87-.14-.26-.16-.36-.49-.31l.22-.14-.1-.22c.46.12.72-.68,1.03-.8.05-.02,1.11-.04,1.16,0,.16.3.12.55.29.88Z"/><path d="M123.3,55.84c.45.04-.23.55.32.68-.4.59.21.59.25.74.06.21-.33.29-.33.58,0,.33.24.66.28.9.05.29.18,1.08.18,1.31,0,.35-.59.92.12,1.03-.17.28-.23.56-.61.48l.25.19-.25.6.21.08-.09.22h.61s-.44.75-.45.93c-.02.2.24.67.19.83-.02.07-.31.09-.32.38,0,.15.25.45.18.59-.08.15-.3.13-.33.25-.05.3.15,1,.18,1.31.05.64-.18.37.18,1,.41.71-.84,1.62,0,1.85l-.24.18.36.6c-.04.18-.89.17.12.73-.02.11-.17,0-.24.15-.3.72.24.75.41,1.36.04.14-.08.86.13.86.46-.27.48-.74,1.15-.54,0-.44.53-.34.72-.85l-.24-.18c.36-.06.47-.52.82-.58.18-.03.38.11.39.1.02-.01.02-.34.16-.45.18-.16.84-.45,1.09-.38.91.28.55,2.3.2,2.92-.31.55-1.49.87-1.47,1.65-1.06.21-2.08.43-3.08.82-.43-.4-1.29-.54-1.75-.87-.26-.19-.19-.44-.28-.51-.06-.06-.25,0-.3-.05-.07-.06-.04-.4-.11-.56-.09-.22-.15-.33-.25-.59-.09-.23-.34-.52-.38-.73-.06-.37.33-.69-.26-.76.35-.52.47-.74.23-1.36-.02-.04-.36-.58-.37-.63,0-.07.02-1.13.03-1.18.11-.48.62-.48.34-1.22-.04-.12-.26-.08-.24-.15.04-.13.27-.3.32-.51.07-.27.16-1.4-.19-1.43l.11-.31-.49-.06c.08-.38.15-.7.61-.67.05-.03-.36-1.02-.36-1.14.02-.42.7-.54-.01-.86l.25-1.38h-.36c-.05-.05.3-.93.08-1.31-.01-.02-.49-.09.02-.15-.21-.35.22-.68-.21-.77.16-.33.11-.71.3-1.03.05-.08.23-.1.27-.16.05-.07.08-1.37.03-1.42h-.49c-.05-.2.18-.07.22-.17.02-.04.03-.64.06-.82.05-.33.4-.86-.02-.83v-.17c1.24-1.05,2.43.11,2.32,1.49Z"/><polygon class="cls-1" points="18.66 50.17 18.66 50.29 18.3 50.42 18.17 49.93 18.66 50.17"/></g></svg>