<?xml version="1.0" encoding="UTF-8"?><svg id="Layer_2" xmlns="http://www.w3.org/2000/svg" viewBox="0 0 289.48 107.99"><defs><style>.cls-1{fill:#fff;}</style></defs><g id="mhalbi"><path d="M23,16.99l.16-.54c.4.48,1.19.01,1.25.04.34.15.66,1.09.93,1.24.33.17.81-.05,1.07.33l-.33.63,1.08.15-.34.36h.36s-.33.89-.33.89l.89-.2c-.18.52.09,1.03-.69.91v.17c.71-.07.51,1.29.63,1.54.02.05.25.06.3.18.13.29.13.69.31.94.11.15.44-.11.53.31l.45-.17c-.04.31-.19,1.08-.14,1.33.08.42.62.64.55,1.25.78.23,2.47,2.41,2.54.72,1.01.6,1.03.37,1.93.16.2-.05.48.13.55.09.12-.07.67-1.14,1.07-1.07l-.37-.52c1-.19,1.32-.06,2.07-.84.67-.69.36-.3,1.09-.79.86-.57,1.05-2.16,1.91-2.29-.25-.85,1.35-1.58,2.09-2.03-.29-.23.1-1.14.26-1.26.18-.13,1.31-.61,1.47-.76.06-.06-.53-.86.97-1.07.24-.03.61.22.8.07l.15-.82c.71-.03,1.28,1.77,1.51,1.92.07.05.3-.12.42-.13l.19.11c.08.47.17.85-.43.91l.03.34.35.26c-.55.97-.03,2-.46,3.06l.55.15c.38.45-.02.94-.06,1.37-.12,1.2-.17,3.19-.41,4.29-.05.24-.37.48-.37.64,0,.18.32.43.32.71,0,.47-.75.47.19.87.02.42-.44.66-.48.77-.02.05.09.27.07.43-.05.56-.51.34.47.97v.41s-.5.39-.5.39c.51-.07.2.26.36.58.06.11.33.08.37.23.01.05-.07.77-.09.93-.1.74-.28,1.71-.45,2.56-.21,1.08-.2,1.91-.12,3.12.04.66.42,1.35.02,2.05h.53c.32.78-.66.87-.69,1.35-.02.37.39.63.42,1.06.06.71-.71,1.41-.32,2.49l.55.36-.68,1h.54s-.13.32-.13.32l.31.11-.34.45.36.07c-.11.76-1.59,1.88-.65,2.37-.35.59.1.4.19.53.18.27-.04.38.38.5-.44.93-1.92,2.43.07,2.42.08.52-.8,1.06-.81,1.17-.07.42.5.56.53,1.05.06.84-.29,1.23-.43,2l.66.42c-1.22,1.62.98,3.36-.39,4.92l.72.34c-.11.48-.66.61-.69.66-.12.19.31.49.31.61,0,.16-.38.41-.39.72-.02.55.61.92-.21,1.44.9.56.26,1.53.42,2.4l.72.07c0,.74-.74.7-.83.91-.13.32,1.35,1.99-.34,2.07.51.52-.73,1.32-1.18,1.14-.13.93-2.27-1.01-2.23-1.58l-.35.19.32-1.44h-.54s.87-.99.87-.99l-.54-.08.16-.78-.37-.19.53-.37-.35-.15.17-.54-.38-.18.51-1.09c-.93-.38-.19-1.81.1-2.51l-.54-.08c.23-.97.27-2.06.23-3.06-.01-.34-.3-.53-.32-.77-.02-.31.34-1.18.27-1.63-.02-.12-.39.04-.36-.51.09-1.51.44-2.85.21-4.49-.01-.09-.28-.04-.29-.16-.13-1.22.62-2.81-.14-3.94.01-.15.68-.1.44-.96-.06-.24-.32-.3-.23-1.12.08-.65.55-.55-.3-.95.75-.84.13-2.33.29-3.18.07-.34.43-.59.42-.95-.02-.41-.38-.48-.42-.69-.06-.31.34-1.23.25-1.36l-.34.19-.2-.44c.55-.28.4-1.37.67-1.97l-.34-.17c.23-.43-.23-1.34.47-1.36l-.54-.34.34-.72-.36-.17c.42-.04.65-.43.7-.82-.5-.13-.21-.29-.26-.4-.04-.07-.32.05-.33-.48,0-.61.36-.91.44-1.45s-.43-1.16.21-1.62l-.72-.25c.43-1.53,1.28-2.45.24-4.03l.09-.27c.07-.12.39-.1.43-.3.09-.41.02-1.23-.55-.95.08-.52.02-.74.69-.73l-.35-.44c.68-.51.42-.91.02-1.52l-.78.47.55.61-1.07.21.19.35c-.3.16-1.06.15-1.25.3-.26.2-.07.7-.16.8s-.72-.06-.86.31l.55.61c-.41.17-1.3.12-1.6.32-.13.09-.18.37-.37.53-.13.11-.41.06-.53.24-.22.32.45.88-1.03.63.18.33.02.49-.25.71l-.45-.34c-.15.65-.96.62-1.12,1.46l-.36.02-.19-.37-.78.48.37.62-1.98-.66-.26.73c-.48-.3-1.12-.34-1.57-.51-.21-.08-.14-.51-.68-.32l.2.71h-.35s-.05-.29-.05-.29l-.67-.04-.04-1.06-.88.38-.28-.73-.82-.03c-.3-.19-.13-.75-.21-1.04-.04-.13-.27-.14-.34-.27-.46-.88-.2-.89-1.29-.9l-.03-.59.35-.3-.89.2c-.07-.57-.23-.93.14-1.43h-.54s.16-.96.16-.96l-.37-.09.33-.9c-.32.22-.71-.06-.97.2-.64.64-.26,3.74-1.03,4.6l.36.16-.32.62.34.1c-.32.35-.36.81-.52,1.22-.24.62-.56,1.48-.63,2.23-.05.57.34.72.37,1.04.04.47-.46.9-.47,1.26,0,.42.33.8.16,1.4-.09.34-.57.56-.59,1.15-.05,1.39.77,2.69-.66,3.75.82.24-.33,1.17.21,1.79l-.34.18c.85,1.03-.63,1.62.26,2.67l-.71.39.03.61.72.16c-.73.02.07,1.88-1.02,1.64.55,1.21-.06,2.27-.51,3.37-.02.04-.19.05-.27.06l.53.78-.68.47c-.05.37.01.39.36.35-.56.57-.05,1.29.06,1.96-.58-.1-.7.28-.68.81l.52.35c.03.55-.62.79-.66.94-.05.21.16.47.14.67-.04.31-.62.45-.47.83l.55.43c-.93.25-.45,1.2-.54,1.32-.07.09-.39.14-.5.3-.37.52.2,1.3-.29,1.9l.71.07c-.01.51-.55.7-.65.95-.17.42-.12,2.95-.31,3.1l-.54-.16c.51,1.24-.2,2.15-.51,3.23-.18.63-.01.3-.32.95-.14.29.09,1.3-.23,2.03-.24.55-.9.95-1.03,1.63-1.05.76-1.27-.08-1.66-.8-.07-.13-.31-.13-.34-.26-.26-.96.31-.99.33-1.07.06-.38-.19-1.66-.04-2.25.1-.39,1.11-1.47.1-1.83,1.26-.98.09-2.39.56-3.13.09-.14.38-.15.42-.33.1-.4-.03-2.54.12-2.72.06-.07.38-.01.51-.03l-.04-1.43-.53.11.5-1.27-.39-.34c.24-.35.2-1.04.3-1.3.11-.28.5-.52.53-.72.06-.35-.51-.73-.5-.85,0-.1.35-.31.43-.57.12-.37-.12-.93-.13-1.23,0-.06.91-.47-.05-.88l1.14-1.45c.05-.79-.86-.44-.33-1.52l.36.17c.02-.39.06-.58-.37-.53l.52-.55-.7-.06c.16-.51.23-.89.86-.84-.46-.45-.31-.9-.38-1.48l.69-.41c0-.39-.51-1.1-.52-1.23,0-.16.34-.4.38-.63.13-.66-.18-1.59.55-2.07l-.54-.16.18-.61.69-.05-.37-.26.34-.46-.36-.08.69-.74-.55-.34c0-.15.24-.03.34-.23.44-.9-.18-.75-.19-.86s.12-.32.12-.52c0-.18-.15-.4-.13-.52.08-.47,1.07.2.59-1.45-.03-.1-.24-.09-.26-.17-.14-.62-.07-1.83.8-1.73-.51-.83-.09-.86-.04-1.35.07-.63-.54-.66.32-1.07.11-.66-.93.25-.72-.33.32-.88.21-1.05.37-1.67,0-.04.47-.17.28-.59l.36.17c-.46-.73.32-1.29.32-1.37,0-.19-.22-.42-.2-.69.02-.21.25-1.11.5-1.09l-.2-.45-.53.2s.04-.53.07-.63c.19-.67.39-.92.66-1.36.33-.54.45-.78.25-1.43l.54-.02c.19-.46-.34-.33-.46-.51-.48-.69.31-.46.53-.73.07-.08-.03-.65.06-.94.04-.13.27-.14.3-.24.13-.4-.13-1.03.56-1.29l-.19-.59.34-.02-.33-.19-.04-.42c.79-.43.57-.8.75-1.57h.45s-.39-1.05-.39-1.05l.78-.2.31.7Z"/><path d="M144.38,21.73c.05.02.07.21.1.22.29.08.99-.11,1.39.24l.27-.71.72.71.35-.36c.66.28.49,1,1.24.53l.14.31.31-.12c.14.24.11.88.23,1.02.29.34,1.13.22,1.18.26.1.06.14.57.51.65s.8-.47,1.03.37c.04.16-.12.41-.06.51.09.14.81.4,1.05.4l-.36.35c.59-.1.64.2.72.72l.53-.18c.05.47.15.95.33,1.38.19.46.98,1.56,1.04,2.01.08.6-.32.73-.23,1.08.14.5.98.51.65,1.42h-.72c.37.31.32.58.43.85.02.04.28.05.29.14.02.24-.41,1.17-.37,1.78.03.45.51,1.39.45,1.71-.09.5-.76.93-.81,1.32-.07.55.79-.04.52.7-.19.53-.65.28-.67.31-.5.64-.03,1.25-.09,1.58-.07.41-.37.98-.83.71.33.86-.16,1.22-.88,1.63l.52.87-.8.36c-.17-.04-.62-1.56-.71.36-.35.48-.7-.27-.81-.18l-.18.88c.48-.15,1.3.71,1.37.72.67.14,1.03-.34,1.13.72l.26-.71c.88.37.39,1.19.45,1.25.02.02.39,0,.63.17.55.4.93,1.32,1.86.91l.2.7.35-.18c-.21.67.59,1.14.68,1.56.05.25-.16.55-.15.58.03.05.79.12.88.2.02.01-.12.26-.02.46.18.38.73.97.73,1.04-.11,1.1.34.79.53,1.29.07.17.03.41.03.59l.71-.18-.53,1.16.89.27c.06.05-.43.81-.45.98-.05.49.47,1.04.43,1.23s-.46.34-.52.75c-.1.71.33,1.58.37,2.13.07.82-.31,1.8-.19,2.65l-.36.12.36.18c-.76.64-.05,1.11-.04,1.34,0,.24-.72.72-1.03.62l.36.71-1.07.54v.35s.36.09.36.09c-.17.23-.17.49-.37.71-.32.36-1.54,1.14-1.71,1.42-.11.17-.05.45-.07.47-.07.08-1.6-.66-.53,1.07-.76.65-1.14.04-1.34.04-.13,0-.28.34-.44.4s-.34-.09-.49-.04c-.05.02-.41.6-.44.62-.17.07-.64-.2-.97.4l-.6-.35.36.71c-1.39-.1-2.34-.23-3.63.36-.12.05-.1.35-.24.36-.45.05-.83-.19-1.53.04-.34.11-.72.5-.94.49s-.4-.27-.59-.31c-.24-.05-.49.1-.71,0-.35-.15-.27-.55-.67-.6-.75-.11-.32.54-.8.73-.07-.56-.73-.38-.36-1.07-.62-.07-.69.46-1.33.55-.23.03-1.57,0-1.77-.07-.36-.11-.48-.68-1-.31-.37-.57.14-.8.17-1.16.03-.27-.17-.55-.15-.87.05-.96.37-1.63-.03-2.59h-.7s.36-.19.36-.19c-.61-.59-.04-.66.09-1.17.09-.34-.13-.95-.09-1.33l-.71-.09.33-.11-.14-.32.7-.19-.9-.44c.34-.09.94-1.42.72-1.7l-.53.18c-.33-.61.21-.91.26-1.23.11-.72.2-2.8.06-3.45-.07-.36-.43-.74-.42-1.12s.39-.72.4-.9c.01-.3-.62-.65.06-1.07l-.36-.26.34-.09c-.08-.26-.18-.62-.14-.89.1-.68.92-1.49.03-1.78l.11-.98-.69-.29c.6-.39-.25-.68.35-1.22.26-.23.78.02.54-.57-.06-.15-.42-.15-.57-.52-.3-.75-.03-1.05.01-1.64,0-.09-.34,0-.36-.34,0-.13.22-2.36.25-2.48.07-.23.32-.33.42-.65.21-.65-.22-.7-.3-.84-.38-.69.37-.78.37-.86-.02-.27-.3-.4-.33-.58-.06-.28.15-.49.15-.66,0-.07-.86-.42.17-.9l-.72-.27.71-.72c-.8-.67-.11-1.29-.21-1.69-.02-.09-.25-.07-.28-.18-.15-.51.79-.87.85-1.42s-.53.01-.63-.61l.27-1.18-.36.09c.29-.75-.21-1.35.49-1.87-1.09-1.07.43-2.28.36-3.59l-.65-.27c-.17-.2.4-1.35.53-1.63.07-.15.35-.14.34-.22-.03-.25-.35-.59-.35-1.08,0-1.14.64-2.22.45-3.33l1.25-1.01c.82,1.19,1.27.42,1.96.4.46-.01,1.56.05,1.99.19ZM142.3,24.86c-.11-.13-.34-.15-.32.22.02.42-.08,1.21-.04,1.44.03.15.34.05.38.38.1.96-.17,2.76-.12,3.76.05.85.37,1.31.36,2.49,0,.47.24,1.11.07,1.6-.1.27-.5.24-.5.37.01.92.42,1.93.11,2.99-.05.17-.17.3-.3.41l.89.36c-.48.1-.21.32-.29.44-.3.44-.8.45-.6,1.43h.53c-.35.85-.51,1.63-.48,2.57,0,.13.29.3.27.53-.02.29-.55.97-.41,1.37l1.56-1.21c.83.22.94-.51,1.14-.57.24-.07.59.21,1,.13.64-.12,1.67-.87,2.47-.86l-.18-.53h1.07s-.18-.53-.18-.53c.66.1,1.32-1.04,1.09-1.59l1.23-.64-.71-.36c.25-.75.6-.39,1.07-.72l-.53-.18c.06-.5.42-1.32-.18-1.43.33-.52,1.35-1.82,0-1.52.54-.5.03-.86.08-1.08.07-.32.53-.49.46-.88h-.54c.08-.38.24-1.54.19-1.85-.02-.13-.3-.1-.33-.2-.17-.51.45-1.34-.94-1.63v-1.14s-.34.18-.34.18c-.06-1-.65-1.61-1.54-1.95l-.42.34c.06-.52-.71-.09-.72-.89-1.2.71-2.1-.95-3.48-.89l-.27.71-.54-1.07ZM142.83,47.18c-.65-.18-1.1.85-1.02,1.35.03.2.7.13.49.85-.55.08-.19.74.02,1.22.1.23.53.02.14.71s-.11.21-.2.9c-.18,1.36-.56,3.44.2,4.5-.5.81.1.76.2.95.25.5.09,1.57-.54,1.75v.26s.31.03.31.03l-.14.32.54.09-.87,1.64c-.05.38.87.24.27,1.26-.04.06-.21.06-.3.05l.35.25c-.69,1.03-.45.71-.11,1.71.13.39-.04.93.83.89v.17c-.51-.07-.22.27-.32.64-.07.24-.33.61-.33.7,0,.08.31.61.37.96.1.61-.42,1.27.43,1.48l-.15.33h.54s0-.53,0-.53c.7.16,1.45-.03,2.05.36l.34-.37,1.35.72c-.01-.53.51-.55.9-.35l.1-.54c.55-.07.99.51,1.06.51.13,0,.92-.85,1.34-.69l-.18-.71c.9.31,1.6.13,2.37-.36.69-.44.41-.12.86-.27.49-.17,1.34-1.26.53-1.33l.09-.18c.35-.34.74-.43,1.16-.18v-1.07s.54,0,.54,0c-.36-.56-.54-1.06.18-1.34l-.36-.44c.78-.1.99-.5,1.04-1.22.01-.19,0-1.57-.04-1.64-.14-.27-.53-.37-.82-.36.17-.43.68-1.52.68-1.91,0-.35-.41-.44-.48-.72-.09-.31.17-.69.14-.74-.04-.05-.31-.07-.41-.19-.09-.11,0-.5-.13-.76-.22-.43-.99-1.08-1.13-1.57-.09-.32.39-.48.07-.95-.27-.4-.88-.52-1.03-.68-.07-.08.45-.57-.58-1.48-.22-.19-.98-.75-1.15-.48-.13-.54-.43-.07-.63-.23-.18-.13-.07-.53-.3-.65-.2-.11-.77-.04-1.05-.14-1.07-.38-3.21-1.48-4.35-1.56-.25-.02-.41.28-.61.25-.18-.03-.39-.34-.64-.41-.41-.11-.79.29-.73-.27l-.53.35-.36-.89Z"/><path d="M97.71,19.42s0-.57.61-.54l.47.37-.36.18.27.35.44-.35c.17.55.81,1.6,1.43,1.25v1.61s.36-.18.36-.18c-.25.88,1.37,2.14.99,2.69l-.45.17c.33.36.93,1.66.18,1.61v.17c.66,0,.37.49.48.67.12.19.32.24.34.27.35.79-.29,1.1-.11,1.79.05.21.47.2.54.4.11.33-.32.54-.31.85,0,.2.37,1.85.68,1.83l-.55,1.07c.65.39.36,1.44,1.21,1.96l-.49.54c.39.3.45.97.45,1.44,0,.9.15,1.85.26,2.83.01.13.33.1.37.23.05.2-.04,2.03-.19,2.28,1.24.67.6,1.14.64,1.79.04.84.27,3.97.63,4.44.13.17.34.12.35.13.03.05-.57.78-.54,1.15,0,.06.68.26.37.99l.53-.18c.15.51.18.78-.36.98.28.32.41,1.1.51,1.6.11.52.32,2.34.47,2.77.14.4.61.73.64,1.18.03.64-.74.66,0,.9-.33,1.24.6,1.25.49,2.25-.14,1.23-.12,1.38.24,2.68.04.15.34.12.34.24.03.55-.5,1.83.36,1.86l-.37.28c-.05.4.45.93.47,1.31.02.26-.32.44-.28.63.03.14.44.2.59.5.21.41.05,2.21.16,2.9.01.09.3.06.31.19.07.65-.03.82.25,1.46.07.16.49.02-.05.92l.52.29-.35.45.36.18-.55.53-.88-.53-.17.63-1.42-.08-.2.7c-1.02-.19-.63-1.06-.77-1.39-.05-.12-.94-.47-.13-.66l-.88-.47c.09-.19.04-.46.16-.62.27-.35.66.17.54-.43l-.89.18c-.16-.52.51-.94.5-1.31,0-.06-.31-1.19-.34-1.25-.32-.54-.87.02.02-1.19h-.54s.2-.61.2-.61c-.59-.17-.2-.9-.4-1.42-.15-.39-1.05-.18.03-1.27-.88-.23-.21-1.11-.35-1.75-.03-.15-.36-.11-.37-.23-.02-.21.21-.5.17-.68-.04-.2-.42-.22-.48-.31-.37-.6.37-.66.3-.93-.11-.42-.78-1.25-.87-1.82s.16-1.01.14-1.42c-.03-.61-.37-1.22-.16-1.94l-.77-.3-.28.37c-.2-1.1,1.54-3.66-.36-3.57l.18-1.07-.32.14c-.6-1.18-.84-.55-1.39-.5-.71.07-3.18.15-3.68.37-.18.08-.27.51-.59.47-.27-.04-.43-.65-.47.02l-.33-.14.18.53-2.22-.9-.57.71c-.27.05-1.28-1.06-1.32.37l-.2-.31-.5-.04c.18.41-.33.57-.33.62-.01.19.25.59.02.91l.48.34-.36.81-.53-.18c-.11.11-.19,2.69.53,2.5l-.35.35h.54c-.2.96-.79,1.43-.72,2.5h.53s-.17.8-.17.8l-.54.09c.24.33.39.73.35,1.15-.06.67-.71,1.43,0,1.61-.98,1.4-.38,3.29-.61,4.56-.1.54-.42.93-.56,1.42-.08.29.1.75,0,.9-.19.28-1.26.62-.28.9l.02.25c-.99.31-.22,1-.43,1.34-.04.06-1.07.68-1.13.69-.46.1-.58-.6-1.12.02-.14-.18-.06-1.57-.09-1.88-.03-.28-.7-.84.09-.8l-.32-.2c.24-.41-.17-.29-.21-.45-.14-.59.12-1.08.16-1.59.02-.3-.21-.63-.15-.86.07-.25,1.44-.69-.19-1.27l.32-.11-.11-.31.32-.03-.35-.35.31-.02.04-.76-.35-.19.71-.46c-.4-.68-.5-1.58-.47-2.37.05-1.14.14-.79-.03-1.81-.12-.68.42-1.01.5-1.63.05-.37.08-1.21-.34-1.23l.53-.45-.53-.09c.54-.83.43-1.68,0-2.51l.52-.46c.05-.07-.46-1.61.2-1.41l-.53-.18c.58-.36.17-1.17.2-1.23s.31-.07.39-.2c.44-.73-.26-1.05.3-1.61l-.53.18.17-1.31.55-.2c.24-.71-.53-.75-.54-.89,0-.23.66-.62.68-.66.06-.14-.12-.42-.07-.69.05-.29.36-.32.4-.4.38-.78-.29-1.26-.28-2.2,0-.53.44-1.35.35-1.73-.05-.22-.8-.16-.35-.99l.69-.02c-.71-.57.19-1.49-.54-1.69.3-.26.65-.66.64-1.08,0-.22-.21-1.09-.47-1.08l.19-.43h-.54c.39-.59.61-1.78,1.25-1.97-.72-.72.27-1.21.19-1.84,0-.07-.79-.6-.54-1.19h.54c-.24-.93-.27-1.27.53-1.88l-.33-.35c-.09-.83.73-.69.86-.82.01-.01-.13-.26-.1-.4.13-.51.44-.63-.07-1.19.55-.1,1.73-1.74.54-1.43.01-.59.18-.87.34-1.34,1.04,0,.59-.38.9-.85.11-.17.95-.91,1.03-1.05.04-.06-.1-.25-.06-.37.05-.2.29-.35.26-.54-.03-.17-.34-.27-.25-.48.12-.26.6-.3.8-.47.84-.72.35-.67,1.51-.79.1,0,1.03-1.22,1.63-.35l.09-.53c.42-.18,1.36.75,1.43.71ZM97.26,24.35c-.23-.42-.39-.85-.61-1.28-1.36-.16-1.3.74-1.8,1.61l.36.09-.34.19.16.7h-.54c.32.41-.07.32-.12.45-.14.37.03.98-.59.98l.53.18-.34.19.16.7h-.72s-.19,1.32-.19,1.32l.37.2c-.6.41-.6.92-.52,1.6l-.55.1.36.26c-.58,1.16-.98,2.59-.89,3.84l.53.09c-1,.86.15,3.09-1.25,3.13.51.52.27.8.18,1.42l.7.2-.19.86-.7.02c-.13.49.39.43.71.54v.17c-.74.09-.61,1.19-.88,1.72.68.05-.18.6-.02,1.21l.36.29c-.21-.18-.58.74-.61.88-.11.59.1,1.38-.1,1.98.43.18,1.16-.07,1.49,0,.14.03.11.3.21.34.15.05,1.24-.33,1.16.38l.26-.54c.63-.12.46.1.8.36l.18-.89c.87.44,1.83.17,2.75.19l.1-.55c.04-.06,1.12.55,1.33.55.11,0,.01-.35.35-.39.68-.07,1.37.3,2.06.2l-.71-.8.36-.09-.37-.29c-.06-.26.08-.92.2-1.18.07-.15.37-.12.35-.22-.04-.22-.51-.77-.59-1.2-.07-.34.12-.68.04-.92s-.41-.23-.48-.34c-.04-.06-.29-1.22-.3-1.36-.08-.88.42-.94.42-1-.04-.61-.6-3.25-.8-3.72-.1-.25-.35-.7-.38-.84-.08-.37.35-.53.3-.89h-.54s.36-.53.36-.53l-.71.18.02-1.06h.52c-.3-.51-.03-1.21-.54-1.36l.2-.68-.32-.15.13-.32h-.54c-.06-.05.48-1.18.47-1.34,0-.12-.23-.27-.25-.4-.03-.24.13-.46.09-.55-.01-.03-.53-.2-.49-.48.02-.19.74-.15.53-.71-.17-.45-.69-.06-.71-.09-.24-.33.24-1.68-.36-2.06l.53-.44c-.87.11-.33-.22-.4-.32-.04-.05-.2-.05-.23-.1Z"/><path d="M58.77,18.32c.34.47.37.66.49,1.3l.5.03c-.58.93-.26,2.41,0,3.44.04.15.34.14.34.21-.02.41-.58.7-.53,1.17h.72c.08.3-.28.1-.33.26-.04.13.17.66.05.82-.09.12-.4.11-.45.3-.02.09.02,1.75.04,1.93.01.11.27.08.28.17.15.89-.29,1.53-.31,2.41l.54.1c-.94.48-.16,1.29-.09,1.78.05.41-.19,1.15-.18,1.61,0,.14.28.32.25.51-.04.24-.71.51-.52,1.01l.89.09c-.62.34-.78,1.2-.72,1.88.61-.35.63.45.3.68-.13.09-.4,0-.48.05-.16.09.56,1.79.49,2.08-.09.4-.35.45-.49.77.44-.13,1.42.6,1.7.51.09-.03.08-.26.12-.27.57-.13.83-.23,1.36-.38.15-.04,2.62-.38,2.78-.36.2.03.45.44.91.34l.29-.73c.66.46.79-.2,1.3-.32.43-.1,1.39.35,1.82.51l.19-.38c.83.57,1.04.11,1.6.04.72-.09,1.47.24.99,1.04l.72.18c-.67-.71.07-.95.11-1.34s-.58-1.42.24-2.15c-.49-.12-.18-.27-.24-.4-.02-.05-.25-.05-.26-.13-.1-.81.61-1.13.65-1.25.14-.44-.41-1.25-.86-1.43,1.04-.64-.02-1.14-.02-1.42,0-.52.22-1.05.72-1.25,0-.47-.53-.69-.53-.74,0-.32.45-1.42.48-1.8.05-.72-.34-1.51.07-2.2h-.54s0-.27,0-.27c.03-.26.33-.43.34-.7.04-1.12.07-2.31.14-3.37.09-1.4-.13-2.58,1.72-2.8.57.38.36.69.48,1.12.04.16.33.11.35.24.09.76-.08,1.95-.01,2.67.03.35.57.23.38.79l-.53.09.38,1.86.51.02c-1.06,1.56.08,3.21-.37,4.91l.54.09c0,.49-.68.79-.53,1.15.08.18.4.2.48.32.07.11.25.98.24,1.12-.03.42-.5.36-.55.56-.03.13-.11,1.92-.09,2.11.05.58.45.47.63.62.21.17-.63.12-.36.53h.54c-.17.51-.7,1.78-.72,2.23-.03.49.4.21.72.27-.15.52-.02,1.37-.09,1.81-.06.37-.62.22-.34,1.03.08.22.38.43.41.67.03.26-.45.6-.51,1.06-.08.66.29,1.35.36,1.94.06.48-.15.98-.09,1.36.04.29.4.69.4,1,0,.25-.15.75-.16,1.38,0,.23-.19.49-.17.73.02.21.64,1.14.89,1.25l-1.07,1.43.52.1.19.61-.53.27.34.25-.34,1.71h.54s-.54,1.69-.54,1.69l.7.36c-.11.17-.04.38-.16.55-.24.35-.67-.18-.55.43l.72.27c-.07.72-.88.79-.73,1.98.05.39.58.1.18.86.33.29.68.24.55.83l-.72.09c.26.6.58,1.67.51,2.32-.03.28-.28.43-.3.57-.04.24.32.42.33.68,0,.28-.43.82-.19,1.59l.55.1-.04.87c-.52-.03-.48.6.04.2.09.58-.26.99-.41,1.47-.05.16.03.34.01.41-.03.11-.6.07-.13,1.03.1.21.42.03.35.3-.59.68-1.4-.18-1.17.54l-.3.22-1.45-.04-.11.35-.18-.09c-.01-.49-.58-.7-.67-.91-.08-.19-.01-1.21-.06-1.38-.01-.05-.37-.75-.39-.79-.07-.1-.45.06-.31-.4l.35-.18c-.62.09.08-.42-.53-.36l.71-2.06-.36-.17.37-.71-.31-.12c.16-.47-.16-.76-.18-1.2s.65-1.49.65-2.08c-1.3-.67.12-2.07-.37-3.09l-.68-.11c-.04-.43.51-.88.53-.93.09-.4-.07-.94.19-1.38,0-.11-.33-.07-.34-.18-.04-.46.19-1.8.5-2.15l-.35-.27-.18.36c-.17-.89.47-1.34.37-2.24-.07-.63-1.13-1.24-.19-1.59-.45-.64-.45-1.34,0-1.98l-.36-.16.35-.72-.89-.35c.49-.47.22-1.52,1.07-1.34l-.38-.44.36-1.08-.7-.53c-.09-.35.47-.48.72-.45l-.18-1.43c-.81.34-.67-.12-.85-.17-.51-.14-1.95-.48-2.42-.38-.21.04-.2.57-.61.69s-1.22-.26-1.57-.25c-1.21.02-3.78,1.23-5,1.1-.46-.05-.62-.75-1.08.26l-.55-.55-1.5.37.36.27c-.73.71-1,1.45.18,1.79l-.71.72.34.16c-.47.86.5,1.31-.52,1.89l.55.1-.19,2.04.53-.18-.48,1.7.46.12.12.53-.45.34.35.35c-.57-.05-.83,1.21-.18,1.08l-.35.18c-.18.47.3.3.33.44.1.53-.28,1.91-.11,2.83.09.51.49.4.51.75.14.55-.38.42-.55.8.55-.11.13.63.37,1.06l.7.02c-.84,1.01-.32,1.88-.38,2.78-.03.43-.79.82.02,1.06-.96.71-.09,1.37-.07,1.79,0,.1-.29.55-.24,1.06.04.42.32.98.3,1.26-.02.26-.29.41-.31.56-.04.22.29.38.29.65,0,.43-.91,1.67-.84,2.34-.92.04-1.14.94-2,.56-.13-.83-.4-.44-.59-.64-.54-.54-1.28-1.41-1.18-2.22.03-.23.3-.44.3-.55,0-.23-.72-.49.07-.71l-.36-.88c.64-.17.64-1.14.41-1.66-.11-.24-.42-.23-.41-.31.04-.34.56-.88.63-1.16.08-.32-.77-1.97.26-2.51-.68.12-.2-.88-.37-1.07h-.52s.35-1.17.35-1.17l-.52-.27c-.08-.29.26-.13.3-.21.04-.09.32-1.78.33-1.92,0-.25-.19-.39-.2-.54-.01-.53.24-1.03-.08-1.61l-.35.18-.18-.45.71-.27-.18-1.25-.71.18.54-1.52-.35-.16c.22-.48.35-.75-.19-.9.44-.24.18-.84.23-.95.02-.04.52-.11.45-.63-.03-.21-.26-.41-.28-.6-.07-.56.57-1.11-.57-1.13l.21-.87.51-.02c-.85-1.24.99-1.59-.72-2.24.43-.66.22-1.38.36-1.93.05-.2.71.07,0-.92l.35-.1v-.34c-.43.04-.38-.22-.35-.61l.36-.28-.71-.18.35-.98-.52-.27c.27-.39.99-1.78.86-2.23-.05-.16-.58-.28-.68-.54l.71-.71c-.15-.27-.5-.57-.51-.88-.03-.7.71-1.9-.2-2.15l.36-.09-.36-.26c1.07-.84.33-1.38.37-2.15.02-.33.56-.81.34-1.33l-.71-.18c.48.1.26-.52.37-.96.06-.24.25-.43.29-.61.14-.62.07-1.28.4-1.9l-.71-.37.85-.9c-.03-.4.08-.38-.32-.53l.36-.09-.36-.26c.55-.45.04-.99.05-1.08.02-.19.4-.33.45-.56.08-.37-.68-1.26-.14-1.85h-.54c.85-.75.42-1.32.53-2.02.02-.13.29-.12.32-.21.04-.12-.07-.39.05-.66.39-.85,1.22-.52,1.68.13ZM73.2,43.34c-.08-.04.03-.35-.13-.29l-.44.45,1.07.09c-.06-.4-.36-.17-.5-.24Z"/><path d="M118.51,23.82c.04.07.3.04.29.14l-.52,1.16c1.4.54-.88,1.6.7,2.24l-.53.72c.46-.09.27,1.39.19,1.58-.12.26-.61,0-.55.2l.54,1.09-.37.35c-.04.37.32.69.31.88-.03.26-.6.46.06.9l-.36.26c1.07.14-.69,1.72.53,2.05-.78.71-.24,1.33-.24,1.79,0,.18-.23.38-.25.58-.04.38-.26,1.81-.24,1.9.04.17.43.05.37.2l-.53.72.71.27.18-.35-.07,1.08-.64.17c.55.54.08,1.02-.18,1.6h.54s-.18,1.25-.18,1.25l.54.09c0,.61,0,1.22-.72,1.25.52.67.16,1.58.29,2.25.11.56.55.91.56.97.21,1.16,0,2.57-.13,3.77-.05.45.39.95-.2,1.42l.37.18c-.27.18-.23,1.28-.16,1.32.13.08.42-.03.51.02.07.04-.26,1.16-.71,1.16l.52.29-.52,1.32c.25-.08.48.95.48,1.07,0,.41-.9.56-.31,1.8.17.36.5.44.51.47.05.15-.15,2.29-.67,2.12-.07.12.45.42.51.66.16.6-.66,1.27.38,1.12l-.37,1.15.38.2-.37,1.32h.71s-.36.27-.36.27c.67.22.5,1.27.56,1.32.33.32,2.28.54,2.31,1.27.47-.51.85-.06.98-.08.28-.04.75-.36,1.07-.36.46,0,1.26.7,2.3.45.14-.03.1-.34.24-.36.19-.03.44.16.73.06.18-.06.2-.33.36-.4.99-.4,1.66-.25,2.3-1.25l1.36.32c.64,1.23,1.29,2.15.83,3.59l-.71-.36.18.71c-1.09-.08-2.25.33-3.22.81-.46.22-.84-.15-.9.8-.47-.33-.82.15-1.14.16-.4,0-.88-.33-1.27-.32-.94.04-.14.45-1.34-.11-.11-.05-1.61-.1-1.7-.07-.12.04-.03.49-.53.33-.27-.12-.45-1.61-1.07-.36-.3-.48-.7-.16-1.16-.18v-.72c-1.47.2-2.19-.46-3.01-1.69l.33-.44c-.29-.15-.84-1.04-1.11-1.49-.08-.13.04-.34-.02-.45-.03-.06-.5.04-.29-.39l.35-.09c-.12-.1-.23-.2-.26-.36-.12-.56-.32-1.3-.62-1.59.78-1.1-.41-2.72-.36-3.77.03-.49.74-.43-.16-.88-.01-.78.69-.96.7-1.25,0-.25-.29-.51-.33-.77-.11-.8.16-2.05-.03-2.82-.07-.28-.5-.95-.54-1.45-.09-1.09.47-1.59.24-2.51-.08-.32.44-.48-.43-.42-.11-.06.64-2.14.72-2.41.04-.13-.27-.05-.32-.17-.23-.58-.03-3.03-.08-3.79-.07-1.02-.7-1.54-.12-2.6.11-.21.41-.04.35-.31-1.6.19-.16-1.05-.17-1.53l-.54-.61.71-.36c-.86-.82.14-1.52-.22-2.29l-.49-.03.35-.87-.52-.28.71-1.07-.36-.26c1.12-.28.39-1.03.36-1.53s.3-1.19.13-1.78c-.31-.25-.61-.81-.38-1.16.08-.12.42-.13.44-.29.03-.19-.19-.48-.18-.7.01-.29.34-.49.34-.53,0-.12-.82-.11-.53-1.41.12-.54.87-.86-.35-1.01v-.7s.89-.36.89-.36l-.89-.09c.16-.46.35-.93.55-1.38.07-.16.33-.17.4-.36.02-.05.11-1.05.1-1.11-.08-.3-.55-.15-.51-.45l.53-.27-.36-.35c.75-.62.27-.67.35-1.22.02-.11.29-.1.35-.26.21-.55.54-1.32.55-1.82.62,0,1.6.07,1.98.62-.02.5.39.92.46,1.28.11.56-.22,1,.12,1.61Z"/><path d="M170.73,22.24l-.36.09c.65.79-.08,1.74,1.09,1.99-.04.61.18,1.19.11,1.8-.07.69-.49.73-.11,1.7.08.2.59.04.16.75l.37.1-.33.19c.04.31.2,1.03.15,1.29-.03.15-.3.13-.31.21-.1.7-.29,1.87.5,2.15-1.12.66-.02.69,0,.89,0,.07-.52.81-.51,1.26,0,.33.56.82.16,1.33l.54.18c-.67-.1-.08.35-.19.52l-.53.29.54.09c-.02.5-.49.92-.54,1.35-.01.13-.02,1.65,0,1.74.03.13.32.1.36.24.29,1.16-.75,1.3-.64,2.56.05.59.46.55.46.62-.08.67-1.04,2.18.36,1.89.08.3-.28.1-.33.26-.09.31.1,1.59.06,1.97-.08.74-.73,1.04-.2,2.17.22.46,1.31.33-.07,1.22l.88.64-.7,1.14c.08.25.66.42.68.47.09.16-.37,1.88.21,1.85l-.36.54.36.09c.07.3-.26.1-.32.26-.08.21.16.98.08,1.36-.08.34-.48.37-.47.43,0,.02.16.43.18.45.38.36.28-.45.53-.36.22.54-.48,1.1-.5,1.16-.02.06.11.29.08.44-.16,1.01-.38,2.27.42,3.13-.55.15-.95,1.38,0,1.16.06.05-.49,1.19-.5,1.37-.03.39.56.78.14,1.31l.54.09c.03.4-.54.94-.51,1.22.02.2.27.4.29.59.03.35-.47.78-.2,1.44.11.27.59.17.28.89-.09.22-.33.23-.35.26-.32.65-.53,1.61-.83,2.41-.42,1.1-.89-.05-.84-.66l-.35.09.09.63c-.25-.47-.99-.59-1.25-.9-.3-.35-.27-1.02-.47-1.51-.3-.73-1.31-1.13-.16-2.15l-.37-.19.37-1.4-.36-.2c.66-.48.02-.94.07-1.18.11-.5.51-.2-.1-.79l.33-1.44-.47-.1-.17-.8c1.15-.57,0-.72,0-.87,0-.55,1.51-1.39.34-1.97.74-.35.43-1.79-.36-1.88l.34-.19-.16-.42c.65-.31.1-1.77.03-2.38-.06-.5.52-.64-.39-.58.42-.68-.62-1.64.34-1.8-.06-.3-.21-1.62-.15-1.83.08-.31.26.31.19-.76-.03-.51.35-.52-.38-.89v-3.17s-.54-.2-.54-.2c.47-.11.21-.3.3-.44.08-.12.32-.14.37-.22.03-.06.2-.86.21-.95,0-.1-.39.05-.35-.53.01-.17.79-.8.03-1.05l.34-1.17-.71.18c.08-.49-.18-.75.01-1.29.06-.15.29-.14.31-.23.04-.2-.12-1.03.02-1.33h-.53s.71-1.88.71-1.88l-.53-.09c-.08-.29.26-.12.3-.21.19-.4.3-1.7-.48-1.4.26-.54.23-1.33.36-1.83.05-.2.37-.17.48-.39.13-.25-.33-2.35-.31-2.84l.36-.29c-.76.05-.01-1.6-.71-1.43l.36-.18-.33-.26.33-.9-.37-.18c.27-.39.17-1.14.32-1.46.13-.3.58-.18.41-.76l-.71-.18c.84-.04.34-.66.45-.91.1-.22.57-.26.69-.57.13-.34-.11-.82.14-1.18.19-.08,2.59,0,2.3.33Z"/><path class="cls-1" d="M75.59,43.1c.14.08.44-.15.5.24l-1.07-.09.44-.45c.15-.06.05.25.13.29Z"/></g></svg>