<?xml version="1.0" encoding="UTF-8"?><svg id="Layer_2" xmlns="http://www.w3.org/2000/svg" viewBox="0 0 289.48 107.99"><g id="moi_moi"><path d="M49.85,13.51c.18.32.02.78.07,1.01.01.05.57.08.15.77l.62.21c-.33.49,0,.98-.05,1.42-.07.57-.6,1.53-.6,2.15,0,.39.44.28.45.42.01.28-.34.75-.21,1.14l.42-.1c.03.98-1.01,1.25-.44,2.11l-.41.19v.3c.54.12,1,1.05.65,1.54-.14.2-.64.33-.64.47,0,.06.32.23.34.42s-.27.42-.27.63c0,.32.44.67.47,1.05.03.58-.77,1.87.09,2.1l-.38.13c.22.54.15.75-.46.82.9.98-.15,2.34-.18,3.47,0,.1.33.06.39.23.16.58-.24,1.47.43,1.64-.61.16-.23.32-.38.66-.54,1.27-.32,1.9-.34,3.32-.01.85-.11,1.87-.16,2.92-.06,1.48-.26,2.76-.21,4.2.01.37.3,1.57.2,1.9-.05.17-.76.25-.57,1.24.1.51.53.91.54,1.07,0,.18-.72,2.76-.67,3.35.05.64.76,1,.76,1.07-.03.69-.79,1.15-.83,1.27-.09.29.31,1.18.35,1.66.06.67-.6,2.18-.57,2.29.05.2.52.2.63.48.45,1.23-.25,2.25-.2,3.08.05.9,1.64,2.11.62,3.26h.63s-.01,1.16-.01,1.16l.85.1c-.37.82-.81,1.6-1.39,2.29-.3.36-.67,0-.29.85-1.05.57-1.17-.1-1.67-.3-.21-.08-.51.1-.69.03-.27-.1-1.29-.62-1.37-.83-.1-.27.1-.54.05-.67-.27-.73-.75-1.42-.73-2.21l-.42.21c-.02-.89.73-3.14-.53-3.13l.1-1.38-.62-.1.4-.22-.21-.7c.55-.34.8-3.63.61-4.22-.05-.15-.45,0-.36-.39.16-.72,1.21-.63.69-1.97-.1-.25-.43-.24-.46-.37s-.04-2.33-.02-2.51c.04-.47.45-.7.41-1.16l-.42.1c-.11-.37-.17-2.7-.09-3.07.11-.55.65-.19.51-.81h-.63s.84-2.52.84-2.52c-1.02.26-1.08-.43-.61-1.14.17-.25.54-.29.59-.36.09-.13-.21-.53-.15-.86.11-.6,1.42-1.96-.04-2.26l.5-.39.13-.44c-1.84-.07-.32-.93-.11-1.45.17-.42.22-2.6.11-3.03-.06-.23-.49-.06-.42-.24l.42-.52-.84-.11c.47,0,.34-.57.47-.69.2-.18.76.23.5-.62-.01-.04-.33-.06-.35-.19-.04-.32.27-.69.23-1-.02-.14-.35-.11-.4-.23-.07-.19.72-2.01.81-2.41h-.63c-.02-.88.27-1.75.84-2.42l-.41-.4.62-.96h-.63c.86-1.07.13-1.13.04-1.36-.13-.36.67-.89-.46-.74-.04-.57.58-.97.64-1.37.07-.46-.27-.97-.24-1.46.04-.76.85-.84.02-1.04l.32-.74c-1.1.02-.82,1.47-1.78,1.26l.21.63c-.61.12-1.68.5-2.09.95-.45.5-.22,1.07-.26,1.11-.15.16-1.27.47-1.63.77-.47.38-.56,1.1-1.26,1.16l.63.82c-.59-.11-.75.47-.94.58-.06.04-.5-.13-.69.09-.13.17-.06.58-.34.81-.23.19-.69.15-.75.2-.02.02.17.25.14.29-.43.85-1.8,1.2-2.02,2.11-.9-.2-1.31.51-1.73.6-.68.14-.77.13-1.33.29-1.09.31-1.01-.45-1.58-.89-.49-.37-1.74-.71-1.83-.79-.11-.1-.2-.89-.78-1.23-.43-.25-.4-.1-1.02-.54-.16-.11-.44-.01-.58-.2-.18-.24-.24-1.03.25-1.03l-1.06-2.61c-.71.34-1.21.39-1.26,1.26l.63-.21c.17,1.22-1.11,1.57-1.46,2.62l.83.52c-.72.2-.51.9-1.47.42.08.42.26,1.68.16,1.99-.03.1-.34.09-.45.56-.12.53.11,1.36-.08,1.79-.32.72-1.05,1.12-1.07,2.28,0,.11.32.07.35.19.19.63-.4.94-.58,1.45.15.67.92.11.81.62-.19.85-.73.87-.89,1.23-.67,1.54-.19,3.03-.4,4.27-.03.14-.77.24-.57,1.24.11.55.55.42.62.66.02.07-.15,1.34-.19,1.41l-.83.16c.05.57-.48.98-.58,1.38-.17.65-.28,1.75.55,1.64.13.82-.88,1.2-.97,1.41-.12.28-.18,1.58-.3,2.1-.04.16-.35.14-.36.26-.06.53.18,1.33-.23,1.97l.6.34c-.55.8-1.02.74-.78,1.89.01.06.54.13.27.63s-.72.51-.84.72c-.05.09.09,1.23-.32,1.58v.31s.63.1.63.1c-.34.27-.28,1.12-.47,1.31-.15.15-.6.05-.88.46-.04.06-.31,1.32-.32,1.39,0,.08.85.07.15,1.41-.24.45-.88.69-1.13,1.04-.15.21-.76,1.49-.98,1.9-.13.24-.42,1.34-.47,1.41-.19.28-.74.1-.91.24-.12.1-.06.79-.63.83l.16.37c-.73.43-1.15-.11-1.85-.02l-.44-1.93c1.06-.58.69-2.39.97-3.02.11-.25.47-.24.5-.4.07-.45-.29-.92-.22-1.39,0-.06.72-.73.78-.84.1-.19-.21-.8.48-1.09l-.63-.21c.11-.43.71-.65.84-.9.32-.61-.36-1.99.42-1.93-1.09-.73-.47-1.35.39-1.99l-.41-1.06.44-.51-.42-.1c.19-1.01,1.28-.75.45-2.11l1.02-.52c.11-.36-.32-.51-.34-.73-.02-.19.43-.93.34-1.23-.06-.19-.48-.05-.43-.45s.77-.85.64-1.57l-.63-.12c-.05-.91.87-1.15,1.19-1.64.36-.56.86-1.73-.14-1.4.21-.91.48-1.67,0-2.51l.42-.11-.42-.31c.74.03.19-1.27,1.26-1.26l-.41-.92c.33-.22.85-.63.81-1.07-.04-.38-.86-.12-.81-.51.53-.12.85-1.15,1.25-1.58l-.83-.42c.2-1.04,2.05-2.85.62-3.35.34-.29.97-1.5,1.04-1.9.15-.79-.27-1.97-.17-2.51.02-.11.26-.1.29-.15.19-.37-.07-.84.93-.79l-.42-.3c.73-.78-.27-2.02,1.04-2.21l-.39-.22c-.01-1.35.51-2.06,1.01-3.25l.64.12c-.5-.81.65-1.31.64-1.78,0-.3-.45-.55-.41-.81.05-.31,1.03-1.35,1.15-1.6.1-.2-.26-.36-.24-.64.03-.32.64-.58.88-1.02.27-.52-.03-1.03.49-1.37.52.31,1.33-.27,1.48-.22.19.07.97.51,1.25.66.14.07.18.38.39.5.28.15.82,0,.85.04.27.24.55,1.75,1.69,1.66l-.39,1.44c.63.02,1.23,1.44,1.45,2.03.21.54.51,1.47.22,1.96l.83.34-.18.83.33.13-.13.36c.64.05,1.3.8,1.77,1.27.76-.35.32-1.1.42-1.27.15-.28.79-.28.9-.45.16-.22,0-.82.36-1.21.33-.35,1.27-.47,1.52-.69s.05-.73.08-.76c.38-.41,1,.27.69-1.08l1.37-.31-.42-.63.37-.14-.14-.37,1.43-.26c-.08-1.12,2.21-.58.87-1.95l.2-.21c.47.04,1.13-.71,1.2-.73,1.52-.35.46-.13,1.03-.65.42-.38,2.18-1.3,2.81-1.24-.29-.93.17-1.2.94-.63.51-1.04,1.7-1.1,2.62-.51.53.34.39,1.38,1.27.51Z"/><path d="M141.93,12.88l-.21.63c1.01.16,1.04.22,1.36,1,.02.05.24,0,.28.15.02.07-.16.29-.13.43.39,1.73.37,2.58-.25,4.29l.63.1c-.81.54.19,1.29-.14,1.94-.14.27-.44.24-.48.4-.22.86.63,2.09.63,2.89l-.64.12c.3.55,0,1.05.06,1.53.03.28.4.56.33,1.09-.09.65-.4.87-.32,1.73.02.26.31.49.3.58-.01.21-.51.41-.55.65-.04.21.3.39.3.73,0,.64-.67,2-.72,2.61,0,.08.4.08.53.5.12.4-.04.78-.03,1.17,0,.2.28.46.27.62-.02.27-.67.54-.74.87s.32.73.34,1.07c.09,1.48-.37,2.16-.55,3.31-.13.82.85,2.53-.24,2.93.94.86.24,1.06.19,1.89-.03.55.21.99.23,1.48.04,1.32-1.32,2.41.21,3.34-.78.16-.14,1.53-.84,1.67.86.89-.67,1.93.84,2.21l-.42.31.42.31-.35.04c.21.66-.29.68-.4.88-.56.99.09.7.1.86.02.44.09,1.77.03,2.07-.03.15-.34.12-.37.24-.21.89.96,2.54.57,3.96-.05.19-.47.05-.42.44.07.51.88,1.25,1.02,1.75.17.62.23,1.14.43,1.83.12.42-.74,1.28.87,1.15.09.34-.29.15-.35.24s.1.41-.05.65c-.23.36-1.27,1.84-1.55,2.17-.87,1.02-1.34-.28-1.43-.31-.73-.24-.33.37-1.73-.6-.19-.13-.52-.04-.55-.07-.03-.02.17-.33.17-.51-.03-.98-1.1-2.32-1.13-3.58,0-.53,1.08-1.51-.5-1.58.35-.43-.29-1.35-.21-1.46.06-.07.51.16.42-.21h-.63c.28-1.23,1.16-3.85.7-4.98-.13-.32-.52-.23-.48-.36.37-.57.88-.96.82-1.7-.04-.44-.3-.68-.32-.92-.08-.97-.01-1.01-.26-1.78-.09-.28.49-1.44.6-1.78l-.63.21c.28-1.05-.4-3.12.63-3.67-1.06-.28-.33-2.13.21-2.73-1.96-.03-.62-.77-.26-1.73.08-.2-.1-.52-.04-.7.16-.47.69-.91.64-1.56-.05-.6-.8-.6-.12-1.56l-.8-.24.02-.55c.89-.2,1-2.31.95-3.09-.02-.36-.26-.57-.31-.87-.03-.16.17-.47.15-.49-.13-.09-.7.2-.63-.21l.85-.77c-.25-.59-.07-1.52-.28-2.07-.06-.16-.41-.04-.37-.2.12-.47,1-.98.83-1.86-.05-.25-.7-.21-.6-.61.02-.49.74-1.39.74-1.51,0-.16-.36-.27-.27-.73.06-.32.37-.91.75-.84l-.84-.21c-.07-.32.26-.11.4-.37.58-1.05-.8-.54-.18-1.6l-.44-.25c-.2-.86.56-.85.6-1.03.12-.62-.85-1.86.25-2.52-.61-.18-.64-.77,0-.74l-.31-.41c-.35.48-1.25.81-.94,1.46h-.74s-.09.73-.09.73c-.36,0-1.96.8-2.07.97-.03.05.28.59-.14,1.01-.29.29-.71.24-1.01.43-.47.3-.74.72-1.18,1.17-.16.16-.41.29-.64.3l.63.83c-.44-.08-.54.51-.68.59-.16.1-.69-.22-.94.09-.11.13-.07.49-.26.69-.39.42-2.3,2.53-2.46,2.63-.39.23-.86.09-1.16.21-.21.09-.19.46-.78.53-.46.06-.74-.14-.94-.13-.07,0-.31.76-1.16.31-.41-.22-.48-.69-.71-.87-.82-.61-1.04-.35-1.89-1.24-.92-.97-1.43-.65-1.56-.75-.24-.18-.08-.87-.88-.38-.33-.68.41-1.44.43-1.78,0-.1-1.15-.73-.85-1.58l-.42.21.21-.84c-.81.07-1.42.64-1.26,1.46l.42-.42-.42,1.68-.62-.21-.16,1.17.58.4-.54.71-.71-.18c-.06.58.08,1.24.02,1.79-.04.38-.37.3-.39.4-.29,1.89-.06,1.45-.84,3.21-.24.54.14,1.2-.47,1.1l.44.51-.44,1.58.63.12c.12.93-.73.99-.84,1.3-.49,1.41-.31,2.93-.56,4.34-.12.72-.51.8-.51.85,0,.54.85.9.64,2.08-.15.84-.75.51-.93.73-.03.04-.47.95-.49,1.01-.05.18-.25,1.34-.23,1.41.08.29.79.14.51,1.02-.18.56-.76.86-.76.92-.04.36.18.61.2.82,0,.08-.75.36-.42,1.34h-.61c.45.63-.08,1.19,0,1.78.03.27.33.49.35.65.04.41-.74.8-.76,1.25l.62.84c-.39.6-.27.94-1.06,1.07.09.75.02,1.36-.41,1.98h.63c-.23.29,0,.88-.11,1.06-.31.47-1.07.38-1.28.94-.06.17.13.53.07.8-.05.23-.41.45-.35.56,0,.01.26-.03.33.08.57.87-.02.74-.06.81-.07.13.21.42-.04.71-.22.25-.63.22-.88.45-.51.48-.47,1.37-.68,1.68-.18.28-.94.18-.36,1.1l-.84.21c-.38.4.91.49.21.73-.35.12-.69.12-1.05.1l.18.6-.95.84-1.46-.39c-.73-1.31.16-2.32.49-3.52.1-.35-.11-.89.07-1.35.09-.21.46-.21.52-.57.03-.22-.39-.94-.26-1.23.02-.05.89-.65.93-.71.04-.07.38-1.55-.15-1.31,0-.59.65-.81.75-1.04.18-.4-.02-1.66.29-2.22h-.62c.14-.76.6-1.42,1.25-1.57-1.15-.49-.04-2.62.23-3.55l-.43-.32,1.03-.45c-.36-.83.08-1.29.22-2.07-1.33.29,0-1.04.02-1.58-1.3-1.29,1.1-1.87,1.03-3.34l-.63-.11c-.12-.06.87-2.48,0-2.31v-.2c.63.08.21-.25.28-.38.03-.06.26-.04.3-.14.18-.46-.33-1.13.89-1.16-1.03-.89.34-1.38.22-2.18-.02-.13-.39-.11-.43-.26-.19-.7.72-.99.84-1.75l-.84-.32c.41-.57,1.2-1.86,1.26-2.53.04-.42-.33-.61-.34-.82-.03-.45.85-1.67.92-2.36.07-.64-.36-2.47.31-2.93.17-.12.52,0,.57-.05.02-.02-.17-.32-.14-.49.2-1.14.58-2,.77-3.16l-.42-.22c.44-.47.78-1.61,1.16-2.01.19-.2.49.02.5,0,.14-.18.01-.78.1-.98.08-.19.72-.45.74-.49.12-.33-.44-.57-.37-1.08.12-.85.93-1.37.99-1.56.07-.22-.15-.53-.03-.85s1.02-1.27,1.05-1.35c.06-.15-.41-.87.17-.99.15-.03.44.19.62.16.31-.05.52-.36.73-.3.08.02,1.29.63,1.52.75.14.07.16.35.3.43.23.13.52,0,.64.07.36.23.75.94.68,1.39l.63-.21-.11.42h.74c-.19.41.03,1.1-.63,1.05v.2c.95.18.71.9.96,1.46.19.44.62.61.7.8.22.52.36,1.57.23,2.14l.63-.21c.16.33-.03.9.02,1.12.03.14.31.13.34.18.05.1-.16.33-.13.35.06.05.42,0,.6.14.38.3.67.98,1.28,1.14l.42-1.05-.42-.21c.65-.09.45-.85,1.26-.42-.65-1.38,1.13-1.38,1.63-1.94.27-.3.05-.73.08-.75.12-.09.57-.02.84-.33.19-.21-.12-.67.18-.86.34-.22,1.71.47.64-.93.45.06.45-.46.77-.59.25-.1.59,0,.9-.16.14-.07,1.01-1.14,1.47-1.25l-.63-.73c.26-.26,1.17-.28,1.26-.34.23-.15.26-.71,1.06-.6-.04-.43,1.35-1.3,1.82-1.56.24-.14,2-.37.89-.75l.74-.52.52.63.95-1.21,1.99.38Z"/><path d="M158.45,14.2s.06.3.31.42c.81.38,1.72-.39,2.17,1.2.1.35-.14.74.07.94.44.4,1.51.21,1.49.94h.41s.11-.42.11-.42l.64.42-.24.63c.68.21.84,1.45,1.01,1.63.16.16.9.1,1.12.47.08.13-.1,1.45.03,1.89.21.7.82,1.02.87,1.16.18.44-.61,2.15.41,2.24l-.17.38h.64s-.63,1.36-.63,1.36l1.2,1.25c-.63.87.42,1.87.41,2.33,0,.26-.36.53-.36.83,0,.11.36.08.39.21.14.59-.39,1.31.88,1.37l-.42.83h.63c-.04.59-.2,1.45-.16,2,0,.13.31.09.34.2.21.76-.78,1.17-.79,1.25,0,.09.56.91.57,1.3,0,.36-.39,1.58-.34,2.28.03.41.4.71.34,1-.1.54-.94.72.21,1.28-.2.74-1.04,2.49-.37,3.05.49.42.33-.69.63-.31.22.75-.73,1.29-.8,1.46-.3.74.19,2.49.15,3.16-.02.28-.31.47-.34.68-.09.52-.05,1.15-.27,1.72l.63.1c-.13,1.06-1.99,3.59-.21,3.67v.3c-.6.48-.58,1.62-.76,2.01s-.73.56-.94,1.14c-.24.66.37,1.39-.4,1.89l.84.21c-.54.62-.51,1.17-1.47.74.4,1.16-.06.87-.3,1.25-.08.13-.17,1.3-.32,1.59-.38.76-.81.58-1.01.79-.1.11-.01.42-.09.51-.38.41-1.36-.07-1.22,1.74-1.06-.53-1.87,1.03-2.93.42v.84s-.86-.1-.86-.1l-.29-.68-1.96.3-.99-1.2-.42.63c-.83-.38-.58-1.32-.95-1.78-.25-.31-1.27-.87-1.68-.52l.16-1.58-.8-.42.21-1.22-.83-.34.21-.41-.85-.36.24-1.41-.44-.25c.67-1.13-.99-1.98-.42-3.02l-1.05.21c.01-.38.62-1.32.58-1.53-.02-.14-.24-.3-.3-.5-.11-.4.53-.37-.6-.68l-.08-.61.82-.24c-.31-.33-.11-1.29-.24-1.44-.08-.09-.92-.11-1.02-.77l.42-.1-.41-.62.38-.03c-.16-.46-.1-.78.25-1.13l-.43-.22c1.02-2.33-.38-4.66.43-7.01h-.63c.12-.75.7-1.37,0-2l.37-.14-.16-.38.63.21-.21-1.68-.41.21c-.36-.8.61-1.28.62-1.36,0-.04-.28-.38-.32-.63-.12-.68-.13-1.9.76-1.9-.05-.26.08-.71-.04-.9-.11-.18-.84-.06-.81-.45.18-.01.38-.06.5-.21s.38-.94.41-1c.03-.06.3-.05.33-.19.07-.26-.26-.95.02-1.33l-.63-.21c.85-.02.41-.69.62-1.09.13-.24.47-.24.59-.5.09-.21-.15-1.03,0-1.47.12-.32.44-.3.46-.44.04-.29-.16-.6-.13-.81.04-.27.99-.88.91-2.13-.02-.36-.44-.56-.34-.96.11-.45,1.72-2.07,1.46-2.95l-.41-.42c.09-.56.69-.61.88-1.02.13-.29.36-1.92.41-2.01.11-.18,1.18-1.19,1.3-1.49.1-.25-.21-.58.09-.97.37-.47,1.35-.48,1.9-.54l.03-.58c.26-.05.52-.08.77.04ZM160.08,22.01c-.63-.71-.94-.38-1.36-.67-.33-.23-.36-1.05-.84-.38l.39.63-1.01.84.41.32c-.37.34-.72,1.51-.62,1.96.01.06.61.26.34.67-.25.38-.63.26-.86.51-.25.26-.33,2.34-.74,2.63l1.04.52c-.52-.07-.4.45-.62.75-.14.2-.5.23-.58.36-.04.06-.43,1.28-.44,1.35-.03.34.46.56.39.69-.01.02-.26-.06-.42.15-.22.29-.76,1.25-.4,1.51l.81.12c-.55.84.02,1.93-1.23,2.02l-.2,2.78.8.44c-.4.49-.25,1.12-1.05.95-.11.38.32.51.37.76.06.29-.3.8-.33,1.23-.1,1.27.93,2.6-.24,3.56l.81.34-.19,1.02h.63s0,.21,0,.21c-.64-.09-.2.36-.4.69-.17.29-.79.34-.86.78l.83.34-.62,1.66.63.1c.09.35-.3.11-.38.3-.19.47.19,1.81-.04,2.42h.84c-.75.86.27,1.63.2,2.64-.03.43-.33.69-.33.82-.01.47.69.95,1.18.73-.5.73.44,1.79-.43,2,.21.31.29.97.42,1.22.16.29.55.08.64.14.04.03-.25.61-.09,1.07.09.27.52.96.72,1.15.29.28.59.14.74.28.58.55.61,1.67,2.08,1.7.19-.39.46-1.13.79-1.4.06-.05.32.09.48-.05.69-.59.39-2.2.94-3.01.18-.27,1-.31,1.26-1.31-.71-.16-.16-.55-.24-.84-.03-.12-.32-.08-.35-.21-.21-.75.8-1.2.81-1.28.02-.22-.21-1.33-.63-1.14v-.2c.52.06.55-.95.68-1.37.04-.12.3-.06.32-.2.13-.75-.21-.96-.54-1.48.22-.34.53-.47.72-.87.32-.71-.48-.84-.51-1s.3-1.57.79-1.38l-.39-.31.18-1.16-.63-.11c.69-.53-.26-1.85.83-2.01l-.41-.73c1.06-.31-.18-1.16-.18-1.24,0-.37.36-1.16.47-1.57.09-.31-.35-.7.33-.64l-.63-.42.42-.21-.36-.24c-.1-1.04-.95-1.47.53-2.1l-.13-.35.38-.13-.83-.83.4-1.16-.84.21c-.03-1.08,1.08-1.44.3-2.5-.12-.17-.43-.23-.58-.44-.06-.08.04-.25-.02-.36-.03-.06-.34-.06-.34-.16-.01-.43.55-.78.57-1.05.01-.23-.46-.85-.14-1.36l-.41.21c-.22-.92.01-1.46-.43-2.37-.06-.13-.4-.13-.42-.29-.07-.43.28-.93.23-1.39l-1.29-1.11c.3-.82.87-1.6-.19-2.07.87-.69-.06-.58-.55-.94-.18-.13-.08-.38-.4-.73Z"/><path d="M65.4,14.52c.35.36,2.38-.22,2.66,1.24.06.3-.22.66-.08.9.2.33,1.45.44,1.7,1.04l.52-.62c.47.56.18.98.23,1.33,0,.07.81.87.89,1.03.09.19-.08.54-.05.55.17.13.87.02,1.14.44.5.79-.23,1.96.51,2.19l-.19.54.41-.21c.36.61-.26,1.25.42,1.36l-.4.86c.66.28.61.76.98,1.04l-.37,1.57.61.02c-.28.49.33.65.41.97.09.37-.29,2.07.65,2.17-.71.8-.32,2.16.63,2.61l-.41.73h.84c-.3.73-.36,1.39-.34,2.17,0,.16.27.32.24.57-.04.42-.69.22-.48,1.14.31,1.38-.08,2.07.03,3.14.04.44.83,1.03-.08,1.68,1.64.58-1.2,3.41.83,3.77-.46.66-.57,1.26-.7,2.03-.08.49-.26,2,.28,1.95l-.62,1.07.41.4c-1,.83-.07,1.14-.03,1.26.19.56-.8,2.12-.82,2.3-.21,1.64.89,1.35.85,1.48-.16.45-.84,1.23-.94,1.59s.16.65.08.79c-.04.07-.42.12-.58.37-.37.58-.57,1.43-.22,2.07l-.43.53.63.1-.43.94-.83-.21c.43,1.29-.04.87-.29,1.25-.08.12-.01.31-.07.42-.23.43-.74.43-.06.94l-.59.35.18.38c-1.11-.08-.94.66-1.18.86-.73.61-.98.09-.92,1.66-.71-.39-1.89.11-2.11.83l-1.04-.41.21,1.05-1.04-.22v-.83s-2.05.29-2.05.29l-1-1.12c-.14-.05-.22.84-.73.62.07-.45-.51-.48-.6-.76-.11-.34.06-.97-.07-1.1-.05-.06-.37.02-.52-.09-.11-.08-.13-.28-.23-.35-.91-.58-1.36-.06-.9-1.89h-.84c.55-.82-.11-2.38-1.05-1.89l-.22-1.34.43-.22-.63-.63c.81-.74-.04-1.17-.14-1.48-.33-.98.02-1.52-1.11-1.87.5-.49.51-1.37.14-1.93-.21-.33-1.33-.6.04-1.13l-.18-1.31c-.07-.24-.52-.1-.74-.33-.42-.42.51-.74.31-1.06-.02-.03-.28.06-.37-.1-.32-.59.37-.82.38-.87.06-.39-.43-1.36-.37-1.67.04-.23.53-.2.59-.45.15-.63-.37-1.72-.42-2.29-.07-.89.28-2.1.22-2.91-.03-.39-.42-.28-.45-.45-.02-.09-.02-1.72,0-1.81.03-.16.97-.35.87-1.51-.04-.52-.76-.29-.66-1.04.06-.47.7-.65,0-1.27l.4-.19c-.93-1.42,1.84-2.12-.19-2.85v-.2c.64.12.3-.48.48-.78.05-.08.31-.08.42-.32.32-.67.56-1.42-.27-1.73.97-.37.35-.65.5-1.05.36-.93.49-1.24.77-2.25.03-.13.97-.78-.01-1.11.76-.27,1.03-1.45.99-2.14-.02-.32-.36-.5-.33-.75.03-.27,1.59-2.07,1.63-3.2l-.39-.38c.08-.52.62-.56.77-.9.2-.47.28-1.55.51-2,.26-.51.99-1.1,1.16-1.57.09-.26-.16-.8-.11-.87.32-.41,1.71-.82,2.27-.67l-.21-.63.84-.21c.01.16-.06.5.03.59ZM65.61,21.43c-.11-.07-.27-.79-.66-.79l.41.94-1.04.84.42.41-.22.53-.41-.21-.21,1.68.63.21c-.45-.06-.26.19-.54.59-.12.17-.84,1.03-.88,1.19-.07.27.11,1.22-.26,1.67.06.41,1.02-.11.84.43-.17.51-.82.92-1.09,1.43-.44.85-.15,1.45-.29,1.83s-.94.96-.72,1.67l1.05.1c-.54.71-.22,2.06-1.47,2l.42.31c-.6.6-.07,1.73-.59,2.52l1.01.51c-.61,0-.17.99-1.26.84v.41c.81-.07.22,1.32.2,2-.03,1.13.94,2.42-.41,3.14l1.05.32s-.52,1.24.2,1.05c.09.36-.3.13-.38.23-.05.07.21.37.07.6-.08.14-.63.27-.74.74l.84.32-.63,1.87.63.11c-.73.25-1,1.66-.21,1.88l-.42.74h1.05c.09.35-.3.12-.38.31-.32.78.35,1.02.37,1.1.24.96-.24,1.72.09,2.48.04.09-.04.22-.08.3h.84c-.37.44.15,1.47.14,1.58-.02.26-.66.57-.56.73.01.02.27-.06.36.11.05.1.17.78.06.94h.84s-.41.31-.41.31c.33.44.33,1.06.57,1.52.49.97,1.77.19,1.32,1.71,1.47.36,1.71,1.16,2.58-.4.09-.16-.09-.4-.07-.41.15-.08.51.15.86-.14s.28-2.14.82-2.85c.31-.41,1.04-.04.93-1.45-.08-1.06-.76-1.41.48-2.37l-.78-1.16c.74.04,1.11-1.88,1.04-2.39-.02-.15-.79-.03-.2-1.03.08-.13.34-.16.43-.3.57-.97-.4-.95-.43-1.4l.63-1.28-.39-.2.39-.84-.62-.42.42-.64c-.5-.06-.39-.65-.25-1.06.11-.33.39-.3.42-.4.1-.35-.12-.25.24-1.05.05-.11-.32-.04-.46-.4-.06-.14-.19-1.33-.17-1.45.02-.08.68-.38.27-1.16l.36-.04-.42-.52c.85-.31.2-.19.06-.42-.02-.03-.19-.39-.2-.42-.57-1.75.94-1.08.49-2.71-.03-.12-.31-.1-.34-.25-.1-.47.4-.96.4-1.02,0-.14-.48-.43-.62-.31-.07.06.16.51-.21.42l.38-2.49-.81-.24.19-.53-.41-.21.44-1.05-.43-.41.42-.95-.4.2c-.47-.67-.21-1.73-.44-2.35-.11-.28-.6-.3-.62-.47,0-.04.33-.42.38-.67.23-1.11-.53-.67-.57-.73-.06-.08.03-.38-.08-.53-.12-.17-.5-.19-.57-.4-.11-.37.33-.61.32-.94,0-.09-.38-1.59-.43-1.65-.22-.3-.69-.31-.95-.54-.2-.18-.02-.75-.93-1.18-.37-.17-.66.01-.7-.01Z"/><path d="M178.78,15.69c.08.04.06.35.18.34.36-.02.58-.58,1.14-.21-.17.64.29,1.29-.4,1.77l.83.1c.11.46-.29.81-.34,1.19-.08.62.49,1.43-.49,1.55.52.76.09.85.07,1.17-.04.81.07,1.5-.49,2.28l.62.11.21.94-.83.32c-.11.12.17.58.15.77-.05.59-.4,2.06-.14,2.62.09.19.42.11.42.47,0,.41-.75,2.54-.65,2.63l1.05-.21-.4,1.17-.64-.12c-.29.28.88.64.62,1.32-.08.22-.83.47-.62,1.19l.5-.21c.52.44.63.73.27,1.41-.03.05-.62.05-.34.48.02.03.33-.06.38.1.02.07.06,1.36.04,1.43-.06.23-.44.19-.58.45-.21.39.67,2.47-.27,2.95l.43.23c-.08.57-.23,1.08-.04,1.66.12.37.46.33.44.41-.05.22-.57.71-.68,1.01-.29.77-.11,2.53.89,2.56l-.38.13c.42.74-.39,1.22-.43,1.34-.24.75,1.69,1.6-.25,2.09l1.05.32-.42.31.42.21-1.04.84.57.63-.79,1.15.64.11-.42,3.22.82.33c-.66.75-.67,1.58.18,2.1.07.79-.85.57-.59,1.44.05.17.64.02.2,1.07l.85.44-.63.93h.63c-.21.46-.13,1.27-.35,1.68-.36.65-1.19.59-.07,1.15l-.63.94-.83-.63.42.84c-.18,0-.36.02-.53.02-.47-.02-1.95-.52-2.34-.7-.25-.12-.38-.86-1.32-.36l.43-1.56c-.74-.28-.32-1.68.19-2.21-.43.22-.54-1.28-.53-1.58s.43-1.04.32-1.14c-.06-.05-.77.22-.79-.56,0-.4.38-.74.39-1.23,0-.21-.67-.5-.42-1.22.13-.38.64-.19.6-.55h-.84s.1-1.07.1-1.07l.74-.4c-1.21-.23.56-2.13-1.05-2.2,1.58-.51,0-3.11.42-3.73.1-.15.42-.13.42-.27,0-.28.02-1.23,0-1.44-.03-.37-.57-.77-.44-1.27l.44-.41c-.53-.45-.25-1.57-.29-2.35-.01-.32-.32-.62-.27-.9.07-.34.38-.46.46-.74.16-.57-.04-1.74-.54-1.88l.65-.83c-.39-.42-.24-1.67-.27-1.76-.02-.06-.7-.23-.72-.97s.76-1.28.89-1.78c.12-.46-.87-.41.29-.96l-.63-.31c.22-.93.55-2.73-.42-3.25l.39-.2-.18-.74h.63c-.26-.64-.54-1.55-.32-2.21.08-.25.43-.41.45-.61.08-.61-.34-3.68-.1-4.41.04-.13.66-.1.34-.7l-.37-.03.43-.52-.02-.39c-1.09-.58.15-1.13.2-1.3.08-.3-.55-1-.37-1.62.07-.26.42-.4.48-.56.11-.28-.25-1.05.16-1.44,1.03.05,2.11-.62,3.03-.16Z"/><path d="M86.93,15.87l-.17,2.05c.21.31.99-.83.83-.12-.11.48-.22.94-.62,1.27l.43.22c-.2.69-.11,1.15-.85,1.46l.43.21-.43.94.42.1-.64,1.86c.75.36.9,1.46-.19,1.4-.17.18.36,1.63.32,1.9-.09.66-1.12,1.52.31,1.76-.39.97-.66,1.76-.63,2.83l1.05-.21-.42,1.26-.63-.11c-.1.65.09.54.63.53l-.63,1.67h.63s.42.43.42.43c.09.35-.34.11-.39.31-.02.07.18.54.15.63-.04.11-.34.08-.38.24-.09.34.41.97.32,1.44s-1.38,1.36-.32,1.89c-.42.67,0,1.21,0,1.87s-.67,1.47.2,1.69l-.42.21.63.42c-1,.44-1.41,3.59,0,3.46l-.84,2.51c.75-.15.61.28.84.84-.39.11-.99.06-.84.63h.84s-.18.92-.18.92l-.66.13.43.95c.03.43-.44.38-.6.63-.25.42.42.64.51.82.22.46-.25,2.53-.56,3.05l.84-.21-.16.38.37.14c-.8.56-.92,2.11.21,2v.2c-.31-.22-.85,1.25-.8,1.37.05.14.79.21.17,1.15h1.05c-.26.5-.03,1-.63,1.15l.63.21-.38.13c.13.48.02,1.16-.19,1.6-.17.35-.65.17-.48.78.01.04.54.18.4.71l-.72.23-.51-.41.21.84c-.63.23-1.03-.27-1.42-.37-.25-.06-.49.15-.64.11-.08-.02-.93-.89-1.24-.97-.28-.07-.64.24-.69.18-.28-.92.95-1.51-.21-1.68.47-.51.23-.87.29-1.33.03-.24.25-.46.26-.66.01-.8-.71-2.05.09-2.83h-.84c-.09-.45.45-1.8.39-1.99-.04-.14-.84-.29-.38-1.21.13-.25.49-.04.41-.36l-.57-.11.09-.27-.36-.14c.12-.57.8-.7.84-.75.06-.09-.68-1.36-.04-1.99l-.79-.31c-.09-.34.31-.15.35-.24.03-.06.3-1.26.3-1.33-.01-.64-.71-.71-.02-1.36h-.63c-.14-.75.83-1.28.84-1.36,0-.05-.31-.22-.33-.42-.03-.27.29-.59.24-.98-.06-.41-.79-.29-.53-1.3.09-.36.36-.69.34-1.61-.01-.46-.62-.43.29-1.25-.72.13-.6-.2-.82-.75.95-.36.52-1.22.82-1.98h-.63c.04-.75.58-1.47.37-2.21-.03-.11-.35-.07-.37-.24-.09-.72.27-.74-.62-1.54.59.07.24-.33.4-.73s.38-.76.54-1.16c.13-.31-.3-.81.52-.84-1-.56-.38-1.26-.45-2.16s-.46-1.2-.56-1.51c-.21-.62.59-1.02.6-1.08.07-.41-.27-1.06-.23-1.64.03-.43.32-.75.34-1.04.03-.57-.36-1.3.08-1.91l-.4-.19c.8-.71.42-2.18.54-3.28.15-1.44,0-.4-.13-.93s.09-.9.64-.93c-.18-.39-.61-1.17-.55-1.57.05-.32.69-.57.7-.83s-.75-.84.21-1.32c.09-.04,1.76-.4,1.87-.4.59-.02.95.46,1.24.48.14,0,.49-.48.9-.07Z"/></g></svg>