<?xml version="1.0" encoding="UTF-8"?><svg id="Layer_2" xmlns="http://www.w3.org/2000/svg" viewBox="0 0 289.48 107.99"><g id="mojito"><path d="M160.81,24.97s.02.25.14.27c.13.03.48-.16.65-.13.33.07.39.31.53.36.19.07.4-.12.49-.07.02.01-.21.37.08.48l.56-.32-.14.41.3.17c-.08.9.25,2.46.71,3.22.03.05.17.06.25.06v.3s-.63.57-.63.57c.5.74.64,1.31,0,2.01l.33.1-.19.62.33.17c-.56.45.02,1.01-.01,1.46-.02.33-.38.42-.41.62-.03.18-.01,1.24,0,1.54.01.83.32,1.7.11,2.56l.8-.08c-.35.65-.16,1.06-.96,1.28l.48.96-.47.32.47,1.14c-.39.11-.19.23-.32.55l.64-.16v.8s-.48,0-.48,0l.34.72-.33.4.28.02c-.06.81-.15,1.46.34,2.15l-.44.27c.11.69-.19.9.55,1.25l-.26,1.02.49.35c-.17.48-.66.42-.64,1.04h.65s0,.7,0,.7l-.33.18c.99.63-.32,1.38.12,2.29.1.21.31.21.37.31.52.91-.69,3.45-.08,4.38.1.16.44.11.4.24-.37.22-.53,1.05-.47,1.43.02.12.25.08.28.18.09.34-.24,1.13-.28,1.52.6-.11.39.18.54.43.06.09.25.06.25.07.05.07-.76,1,.17,1.35-.59.24-.46.85-.57,1.03-.16.27-.55.42-.57.81-.4-.47-3.04.14-2.72-.88.06-.19.42-.19.48-.24.15-.12-.45-.18-.42-.56l.26-.72-.64.32c-.2-.72.72-1.17,0-1.68l.32-.08-.31-.23c.21-.43.38-1.18-.07-1.5-.12-.09-.34-.01-.42-.05-.04-.02-.01-.91,0-1.01.09-.67.53-1.19.31-1.87l-.64.16c.4-.43-.1-1.34.02-1.66.14-.36.66,0,.28-.94-.06-.15-.25-.13-.28-.21-.1-.32.39-1.59.39-1.92,0-.43-.11-1.26-.2-1.64-.03-.13.12-.36.1-.37-.08-.07-.55.2-.61-.44-.04-.45.3-.65.3-.92-1.01-.42.59-.97-.32-1.28.21-.48.38-1.1.33-1.62-.03-.32-.37-.23-.42-.53-.09-.58.68-.84-.24-1.24l.33-.95-.33-.16.32-.56-.48.08c-.04-.29.33-.37.41-.56.12-.3-.3-.76.23-1.04l-.33-.16c0-.25.27-.31.25-.57-.02-.3-.24-1.75-.32-2-.11-.36-.68-.38-.09-.96l-.32-.15c.28-.4.63-1.15.64-1.63,0-.72-.81-1.79.17-2.3-.46.05-.17-.2-.21-.28-.03-.06-.26,0-.28-.28s.05-1.08.07-1.48c0-.22.24-.35.19-.53-.09-.33-.54-.52-.67-.68-.05-.07.13-.32-.13-.44-.25.19-.56.28-.81.47-.05.04-.67.63-.69.68-.11.24.16.56.13.61-.14.2-1.33.29-1.42.35-.1.07-.06.42-.23.58s-.99.51-1.04.56c-.11.08-.47.73-.52.93l-.48-.32.16.48c-1.15-.33-2.56.49-3.45-.32l-.16.32c-.36-.5-.84-1-1.48-1.09-.75-.11-.39.59-.45,1.01-.07.44-.46.22.36.8.09.48-.53.68-.57.82-.06.24,0,1.43.44,1.42-.18.45-.22.77-.79.74.29.62-.25,1.75-.11,2.24.12.43.76.35.59.96h-.8s.46.39.46.39c-.06.85-.74.32-.63.97l.33.16-.33.78c.52.22.44.66.29,1.15-.03.1-.28.07-.27.15.01.19.29.57.25.82-.05.35-.16.02-.16.79,0,.15-.32.31-.25.61.05.19.36.28.44.66.03.14-.02.87-.08,1.01-.09.2-.35.17-.37.3-.02.09,0,1.52,0,1.73,0,.04.47.25.47.67-.92.39-.36.73-.37.95-.01.24-.74.62.22.57.19.74-.62,1.36-.62,1.83,0,.42.42,1.15.39,1.78-.01.24-.52.61-.38,1.44,0,.04.43.09.2.74-.15.42-.54.44-.55.56-.03.33.28,1.08.29,1.29,0,.19-.21.38-.25.68-.04.4.23.68.23,1.06-.22.41-1.78.38-1.24,1.2-.37.15-.7-.24-.91-.27-.23-.03-.71.22-.84.1-.04-.04,0-.32-.11-.45s-.38-.15-.4-.28c-.03-.2.21-.57.17-.92s-.4-.76-.35-1.2l-.46-.02c.22-.37.31-.75.8-.64-.9-.53-.13-1.26-.08-2.08.03-.52.09-1.44.06-2.01s.06-.92-.48-1.14l.66-.95c.09-.47-.21-.39-.49-.64l.32-.48-.32-.08.28-.18.03-.69-.32-.17c.62-.47.24-1.23.8-1.77l-.64.08.64-4.57-.64-.16c.31-.31.18-.81.29-1.14.17-.47.66-1.1.79-1.8.08-.46-.3-1.66-.29-2.19,0-.13.53-.01.33-.41h-.48s.49-1.51.49-1.51c-.77-.3.09-.84.13-.93.07-.14-.27-.74.19-1.01l-.32-.15c.38-.44.34-.82.48-1.25.04-.12.3-.12.3-.19-.02-.37-.21-1.2-.62-1.29.91-.4-.08-1.38.64-1.37l-.32-.32.8-.73v-.23c-1.01-.19.48-1.42-.32-1.53.16-.28.53-.92.57-1.2.04-.26-.19-.41-.18-.57.09-1.15.32-.72.78-1.2.42-.43.46-1.16,1.48-1.29l.16.16c-.08.59,1.03.65.24,1.44l.61.35c-.5.97.18,1.03.35,1.38.13.26.09.91.31,1.21.26.36,1.5.54.98,1.39l1.19.17.18-.34.46.18c.26-.8.93-.3,1.37-.57.26-.16,1.15-1.39.94-1.67l-.29-.17c.45-.45,1.47.08,1.44-.56,0-.19-.52-.13-.48-.4.47.09.93-.75.98-.78.08-.04.4.27.71,0,.08-.68.55-.81.72-1.05.12-.18.02-.43.22-.58.07-.05,1.59-.47,1.67-.42Z"/><path d="M51.25,24.06c.88.49.77-.1.83-.1.71.04.61.59.75.78.03.04.48-.12.85.2.04.03.62.74.65.79.13.25.05.55.18.8.06.11.32.14.4.27.15.24.25,1.67.27,2.09.01.28-.41.45.06.99l.36-.14c.21-.03.24.65.06.77l-.44.03c-.12.51.38.76.41.95.03.21-.23.34-.23.56s.23,1.96.32,2.01c.05.03.55-.26.63.09.14.67-.46.68-.48.72-.08.13.43.68.44.72.09.44-.66,1.56.52,1.53-.04.66-.69,1-.64,1.67.04.57.7,1.07.73,1.28.04.29-.26,1.65-.08,1.84h.47c0,.84-.21,1.45-.31,2.23l.63.18c.12.3-.26.58-.26.72s.4.47.1.88h.64c.06.26-.2.08-.28.24-.19.38-.13.95-.2,1.36l.48.1c-.09,1,.41,1.75-.02,2.69l.49.42-.77.4c-.01.28.44.63.45.67.08.43-.09,1.03,0,1.39.04.15.31.09.32.11.06.08-.26.26-.3.43-.07.32.38.59-.18.53l.29.18c-.14.6.21,1.42.83,1.58-.1.23-.31.37-.4.62-.05.14.05,1.52.08,1.68.03.12.26.08.28.18.05.24-.22,1.47.51,1.04l-.02.95-.47.09c-.09.45.26.71.29.99.03.32-.76,1.7.03,1.66l-.44.39.12.73c-.35.16-.73-.25-.88-.26s-.35.21-.52.22c-.53.01-1.32.13-1.67-.35-.18-.25.01-.41-.03-.53-.01-.03-.25-.02-.27-.14-.04-.18.13-.47.1-.69-.06-.45-.47-1.09.06-1.2-.62-.33-.42-.24-.32-.88l-.32.16c.04-.19-.12-.43-.1-.57.03-.31.76-.4.58-.55-.84-.02.29-1.25-.63-1.3-.04-.05.23-.43.24-.62.05-.52-.19-1-.31-1.45-.03-.13-.14-2-.42-1.77l-.16.32-.12-.73.45-.32c-.39-.75.02-1.41.15-2.15l-.3.14c-.28-.93-.6-.45-1.06-.46-.05,0-.15-.55-.57-.32.28.33-.18.54-.4.45-.09-.04-.46-.81-.57.03-.38-.55-2.05-.66-2.25,0-.54-.62-1.49,0-2.01-.01-.19,0-.36-.23-.47-.23-.35,0-.95.29-1.28.23-.62-.11-1.14-.7-1.85.1.54.17.39.69.63,1.13l-.47.39h.64c-.09.71-.83.73-.64,1.44h.64c.15.59-.76,1.28-.61,1.53.06.1.52.09.28.4-.02.03-.45.06-.56.32-.05.12.08.3.07.39-.03.13-.28.08-.28.18,0,.41-.02,1.3-.1,1.7-.07.36-.39.29-.4.32-.04.07.7,1.17-.17,1.35l.31.46-.93,1.3.3.4-.95.67.14.62h-1.49s-.45-.55-.45-.55l.33-1.85-.48-.09c.44-.78.14-1.67.22-2.38.06-.53.58-1.4.59-1.48.02-.45-.27-1.47-.24-2.07.02-.42.35-1.21.34-1.28-.01-.15-.33-.3-.27-.4.02-.04.49.02.32-.69-.02-.1-.51-.12-.33-.83l.49-.4-.48-.08.31-.64.33.08v-.4s-.3-.15-.3-.15c.35-.65-.4-.97.46-1.29l-.64-.64.8-1.2-.8.16.32-1.29.48.16-.32-.48c.72-.03.31-.55.35-.62.1-.18.73-.06.58-1.07-.01-.1-.25-.05-.26-.15-.01-.11,0-1.24.03-1.3.12-.25.47-.29.64-.55.21-.3.09-1.12.17-1.46.18-.78.54-1.75.71-2.32.06-.19-.39-.68.34-.73l-.32-.32c.58.02.32-.76.41-1.14.15-.66.46-1.58.51-2.28.02-.31-.14-1.14-.09-1.28.11-.31,1.36-.81.45-1.17l.03-.44.62-.51-.48-.32c.04-.32.57-.53.6-.59.04-.08.51-1.36.55-1.48.16-.58-.05-2.03.77-1.86l-.32-.4.62-.43-.14-.29c.72.1.82-.55,1.13-.72.12-.07,1.2-.65,1.27-.67.38-.09,1.52.13,1.46-.38.25-.07.11.2.21.26ZM51.84,29.25c-.76-.02-.26-.66-.46-.89-.32-.37-1.29-.61-1.15.17l.33.24c-.34.35-1.05.3-1.14.42-.16.21-.35,1.36.18,1.19.16.14-.59.36-.76.52-.11.11-.11.34-.21.48-.08.11-.27.11-.29.2-.06.21.15.78.45.8-.92.58-.92,2.27-.48,3.21l-.46.1c-.24.3-.06,2.09-.1,2.47-.04.4-.66.97-.7,1.15-.06.3.75,1.16-.18,1.74l.48.4-.8.49.32.48-1.13.73c-.22.53,1.12.48.44,1.01-.09.07-.34-.05-.44.14-.13.23-.3,1.96-.35,2.34-.02.18-.22.36-.22.51,0,.46.79.86,1.22.72v-.46s.33.06.33.06l.31-.39c-.09.73,1.08-.26,1.13.64.29.03,0-.28.39-.33.78-.1.54.24,1.05.33l.4-.64c.4.63.84.35,1.46.2l.25.43.45-.14c.07.7.17.05.2.04.29-.17,1.14-.21,1.42.11v-.47s.64-.01.64-.01c.3-.86-.5-.96-.61-1.15-.03-.04.12-.29.06-.46-.11-.29-.39-.58-.41-.9-.02-.38.44-1.13.32-1.67l-.8.32c0-.39-.04-.78.04-1.17.12-.65,1.04-1.45-.36-1.08.03-.9.46-1.5.09-2.36-.02-.04-.25-.05-.26-.13-.03-.36.35-.58.32-.77-.03-.16-.62-.75-.61-1.48l.31-.14c-.87-.89.7-2.19-.64-2.65v-.16c.27.16.49-.7.46-.84-.05-.2-.33-.37-.38-.58-.15-.64.2-.75-.4-1.67-.09-.14-.3-.11-.31-.12-.03-.06.17-.31.22-.46.04-.12-.08-.32-.07-.33.14-.08.53.14.48-.16Z"/><path d="M246.52,26.42s.56.54.66.58c.26.09.86.05.93.17.13.23-.06.46,0,.66.07.21.34.37.39.72s-.48.08-.33.55l.48-.09c.28.14.26.56.41.73.16.18.47.12.57.26.29.42.23.67.82,1.14.05.04.29-.11.37.03.18.33.01.93.11,1.35s.66.78.45,1.4l.64-.16c-.06.48.24,1.06-.32,1.2.57.31.71.57.48,1.2h.49s-.11.29-.11.29c.52.1-.04.61-.02,1.03.02.54.45.66.46.71.05.41-.52.81-.17,1.34l.48-.16.17.58-.3.3.13.39-.31.02.29.18c-.24.57.25,1.27.28,1.73.01.17-.27,1-.2,1.39.04.21.52.16.45.47-.96,1.18.56,2.38.03,3.41-.13.25-.35.19-.36.21-.11.18.24.41.25.55,0,.16-.42,1.01-.44,1.29-.02.38.67.27.5.8-.07.2-.7.17-.48.72l.32-.16c-.1.19-.02.64-.06.73-.09.22-.4.18-.42.33s.16.49.1.87c-.09.61-.94,1.6.07,1.77l-.32.48.31.07c.03.97-2.08,2.06-.79,3.06-.7.44-.31,1.45-1.28,1.2.1.36,0,1.06-.13,1.4-.29.77-1.39.95-.35,1.73-.23.52-.91.22-.95.25-.3.23-.05,1.27-.44,1.31.28.45-.61.44-1.01.62l.15.3c-.99.01-1.39,1.32-1.84,1.63-.24.17-.61-.03-.81.3l-.31-.46c-.42.16-.67.08-.58.63-.51,0-.84-.46-1.23-.59-.63-.2-1.33.4-1.9-.54l-.31.34c-.53.05-.89-.47-1.37-.18v-.48c-.69.42-1.13-.36-1.57-.45-.22-.05-.5.15-.52.13-.04-.02-.11-.68-.2-.85-.15-.29-.88-.76-.77-1.24l-.47.15c-.37-.4-.12-.84-.2-1.15-.06-.23-.49-.54-.63-.83s.05-.71-.47-.97l.48-.56c-.78.08-.29-.16-.37-.29-.03-.05-.21-.03-.24-.11-.05-.15.11-.62-.19-.81l-.81-.07.48-1.6-.48.16c-.23-.56.11-1.31,0-1.82-.03-.12-.28-.09-.31-.23-.1-.34-.04-.94-.17-1.33h.48c-.36-.64.3-1.81-.32-2,.59-1.08-.08-2.44.48-3.53l-.49-.08c.42-.54.08-1.17.16-1.67.07-.4.44-1.19.54-1.69.07-.33-.16-.75.26-1.06l-.48-.08c-.1-.61.79-1.1.88-1.27.08-.16-.1-.38-.06-.55.03-.1.8-.64.62-1.22l-.48-.16.48-.24c-.71-.3.04-.84.48-1.12l-.48-.48c.34-.91,1.14-.96,1.2-2,.01-.19-.19-.32-.17-.5.07-.51.65.03.09-.95.86-.13.77-1.57,1.08-2.22.13-.27.43-.3.48-.39.11-.2.12-.93.28-1.2.11-.19.93-.7,1.17-1.04.04-.06-.3-.36.2-.29l-.32-.32.57-.32-.09-.47c.67-.19,1.4-.54,1.86-1.03.07-.08.03-.32.09-.37.11-.09.93-.16,1.07-.4.07-.11-.25-.46.11-.61l.64.14.22-.23-.14-.39c.4-.3.74.09.88.08.53-.02.79-.38,1.47-.04ZM245.66,31.6c-.24-.21-.31-.54-.81-.54-.09,0-1.15.34-1.26.44-.57.52-.25,1.19-.54,1.55-.23.28-.64.15-.79.25-.18.13-.11.69-.24.89-.08.12-.41.15-.52.36-.09.16.06,1-.08,1.28h-.63c-.05.27.41.18.45.4.08.41-.71.92-1.09.89l.63.34c.07.72-.52.53-.62.63s.1.57.06.81c-.11.65-1.02,1.31-.39,1.9-.73.06-.47.52-.59.81-.47,1.12-.88,3.52-1.07,4.71-.04.23-.25.44-.27.67v.24s.48.08.48.08c-.37.56-1.05,1.11-.88,1.87.05.21.37.45.37.54,0,.14-.53.4-.58.66-.03.16.13.4.1.6-.07.64-.24,1.26-.15,1.92l.65.27c-.66.78.23.54-.02,1.19-.09.23-.45.21-.45.33.13.72.31.49.88.72l.07,1.29-.64.08.32.88.64-.32c.15.45-.4.86-.45,1.07-.1.42.45.56.45.63,0,.21-.21.33-.08.7.05.14.62,1.01.73,1.06.17.08.41-.09.46-.06.08.06-.1.35.18.29l.16-.32.83,2.23,1.42.02-.16.64h.54s.18-.32.18-.32c.64.48,1.61.87,1.87-.15l.63.15c.05-.53-.04-.64.48-.88l-.32-.24c.2-.03,1.21-.46,1.25-.52.11-.15.25-1.19.33-1.3.14-.19.54-.07.65-.36l.02-.54-.64-.08c.48-.45.46-1.21,1.26-1.23l.04-.93h.46s.16-1.04.16-1.04l-.47-.25.64-.73-.31-.39.48-.32-.32-.16c.83-.06.72-1.11.45-1.66-.15-.3-.46-.17-.45-.43l.48-.25-.32-.4c.36-.14.97-.51.64-.87.54-.21.19-.29.2-.66.03-.75-.05-1.51.1-2.25-.65-.17,0-.45.04-.96.03-.54-.21-1.56-.18-2.17l-.64.16.8-1.68c-1.22-.18,0-.87-.04-1.12-.02-.14-.28-.26-.34-.39-.28-.69-.18-1.15-.3-1.53-.03-.08-.25-.06-.28-.19-.11-.52-.25-1.24-.17-1.73l-.32.08.29-1.05-.6-.25.15-1.27c-1.31.33-.57-1.37-1.27-2.13-.21-.23-.72-.34-.96-.72-.42-.66-.07-.61-.75-1.22Z"/><path d="M180.1,26.04c.79-.15.53.16.88.64l.73-.24c.62.56.16.77.33,1.36l.62.02c-.06.61.55,1.4.01,1.84l.64.24c-.4.7-.87,1.11-.44,1.97.12.25.39.24.5.47.3.65.02,1.4.12,1.78.05.19.96.61-.02.99l.21.84c.62.06-.47,1.08.28,1.24-.38.49-.49,1.68.32,1.54-.26.64.05,1.76-.07,2.32-.04.22-.35.31-.37.48-.01.09.28.57.24.96-.01.17-.35,1.33-.29,1.37h.64s-.49,1.52-.49,1.52l.33.17-.48.64.58.8-.74,2.65.8.08c-.48.07-1.04,1.96-.93,2.25.04.1.32.03.3.32-.01.33-.26.51-.32.81-.05.24.1,1.46.46,1.44l-.81.49c-.04.35.31.72.25,1.06-.04.29-.37.28-.4.41-.11.49.07,1.6,0,2.2-.03.28-.16,1.01-.21,1.28-.09.47-.98.86.05,1.31v.32c-.47.1-.16.38-.31.61-.14.21-.69.58-.82,1l.32.16c-.47.34-.73.58-.96,1.13l.48.24c-.47.12-.5.66-1.12.48l.16.8c-.63.02-1.41.18-2.01.17-2.13-.02-2.98-1.49-4.62-2.58l-.59-1.36-.32.24c-.4-.61-.08-1.11-.15-1.69-.02-.2-.28-1.16-.34-1.4-.04-.15-.59-.44-.6-.48-.12-.35.25-.75-.51-1.16l.42-.57c-.19-.46-.7-.9-.42-1.27h-.48c.3-.51-.06-.94-.11-1.39-.08-.64.08-.31-.17-.94-.1-.24.14-.82.29-1.04l-.49-.09c0-.76.97-1.51,0-1.93-.11-.41.43-.54.44-.57.03-.07,0-1.3-.02-1.53-.02-.31-.41-.55-.11-1.02h-.46c-.22-.26.25-1.33.62-1.29-.79-.44-.58-1.45.16-1.84l-.45-.27.1-.27-.29-.18c.61,0,.31-.41.38-.54.37-.75.59-1.07.7-2,.04-.35.17-1.44-.28-1.32v-.16c.68-.11.51-1.18.65-1.64.04-.13.24-.12.29-.25.19-.5.13-.77-.3-1.08l.32-.24-.48-.24c.02-.31.56-.71.58-.76.05-.08-.05-.27.02-.39.24-.45.6-.88.84-1.42l-.64-.32c.23-.23.35-.67.57-.88.17-.16.46-.12.57-.27.15-.21-.02-1.2.04-1.43.05-.21.36-.18.41-.25.07-.1-.15-.31-.11-.43.09-.24.9-.73,1.21-1.27.14-.24.12-.69.24-.81.04-.04.75-.36.92-.52l-.32-.48c.39-.37,1.9-.09,2.09-.23.16-.12.17-.53.39-.75.15-.15.63-.03.9-.23.16-.11-.04-.44.23-.56l.55.42-.15.53ZM179.84,32.41c-.32-.49-.56-2.09-1.12-2.18-.17-.03-.51.39-.86.14.46.69-.3,1.12-.45,1.56-.09.27.08.93-.08,1.37-.22.61-1.05,1.63-1.3,2.35-.27.77.24.67.22.74l-.65.35c.05.66-.36,1.14-.38,1.79-.02.38.24,1.05.2,1.21-.06.22-.46.23-.56.49-.03.07-.09,1.14.26.89-.55.51-.03,1.36-.16,1.97-.02.09-.58,1.3-.62,1.47-.04.23.27.7-.19.97v.24s.64,0,.64,0c.07.27-.23.1-.29.18-.04.06.17.29.06.47-.07.11-.38.1-.42.27-.03.11-.02,2.04.03,2.17.04.11.23.11.26.2.3.79-.43.86-.44.96,0,.04.36.52.41.72.06.25-.1.42-.09.55,0,.06.77.49-.16.74v.31c.79.16.26.35.22.81-.03.33.29.62.1.96h.64c.07.26-.22.11-.27.19-.08.12.17.57-.38.7.6.86.76,1.3.48,2.38l.59.25c.02.55-.02,1.13.55,1.38l-.17.55.64-.16c.11.76.5,3,1.51,2.89.28-.03-.05-1.27.73-1.36l-.32-.4h.48c-.69-1.2,1.55-1.95,0-2.89.49.05.31-.56.45-.91.11-.28.43-.16.29-.83,0-.03-.36.01-.2-.57.14-.5.38-.42.39-.45.03-.09-.16-.33-.12-.52.06-.36.39-1.12.32-1.43-.04-.16-.32-.01-.3-.31.03-.41.16-.72.62-.6l-.64-.16.65-1.04-.5-.64c.44-.83.44-1.5.5-2.4l-.49-.09c.32-.41-.03-.82.03-1.17.06-.42.43-.57.39-1.4-.02-.46-.34-1.02-.4-1.2-.02-.05.12-1.03.14-1.08.08-.21.4-.17.43-.35.02-.13-.04-1.29-.09-1.46-.26-.9-.22-.85-.22-1.92,0-.9-.27-1.69.2-2.49l-.48-.24.19-.38.45-.11c-.61-.24-.59-.97-.32-1.52h-.64c-.09-.31.35-.92.32-.96-.03-.04-.83-.2-.28-.62.09-.07.31-.02.44-.03.16-.39-.21-.28-.26-.37Z"/><path d="M90.2,22.84l.16.57,2.83.29c.32.48,1.07.75,1.17,1.34.05.28-.14.59-.11.66,0,.02.23.02.3.13.22.34-.02.7.56.43l.23.2c-.22.61.32.91-.15,1.34.68.03.36.73.34,1.19l.46.1c.28.71-.38.89-.43.99-.33.68-.54,2.58-.88,2.98-.07.09-.38-.02-.59.3-.3.45.38,1.3-.62,1.46-.26.04-.49-.16-.65-.1-.05.02-.36.67-.66.7-.19.02-.3-.18-.51-.18-.17,0-.43.23-.56.21-.16-.02-.91-1.17-.85-1.47.08-.36.88-.37,1.19-.57.61-.41.58-1.63.73-2.29.03-.13.27-.11.3-.23.11-.38-.55-1.1,0-1.49-.69-.05-.37-1.55-.66-1.91-.03-.04-.71.19-.63-.66h-.4s-.24.32-.24.32l-.4-.41-.73.26.16.64-.8-.16c-.09.87.06.99-.81,1.36l.32.24c-.38.1-.55.41-.96.16l.15.47-.59.42c.62.83-.3.66-.36.72-.02.01-.08.37.12.32.97.04-.1.52-.23.69-.16.22-.17.65-.53.83l.48.32c0,.1-.25.08-.38.28-.49.78.02.76.03.84.11.62-.19,1.39-.26,1.77-.02.09.09,1.66.13,1.74l.48.11c0,.4-.12.91-.06,1.3.02.1.69,1.35.75,1.4.23.16.56-.2.33.32l.26.1-.15.57.48-.48c.42.59.22,2.08.96.96.07.43.43.69.16,1.12h.63s.15.89.15.89c.21.15.67,0,.8.1.03.03.17.67.37.74s.38-.17.57-.1c.11.04,1.68,1.35,1.74,1.47.14.24.17.48.05.74h.64s-.16.48-.16.48c.37.01,1.07.5,1.21.81.08.17-.07.36-.04.44.03.06.67.25.28.83l.8-.32c.26.41,0,.75,0,1.03,0,.12.26.1.32.2.29.5.04.82,0,1.33h.8c.07.27-.23.09-.29.23-.03.06-.08,1.33-.03,1.37h.65c-.03.21-.02,1.06.01,1.18s.37.12.39.57c.01.32-.33,1.1-.21,1.51.15.51.84.45-.03,1.4l.29.02-.14.52.33.2c.18.63-.29.53-.4.7-.25.39.18.87-.08,1.29l.46.06c-.13,1.04-.28.57-.8.82-.05.03-.33.86-.5,1.11-.19.28-1.09.6.03.82-.15.34-1.03.49-1.3.96-.14.25.05.45,0,.53-.18.29-1.51.5-1.71.71-.37.38.19.85-.82.73l-.18-.28v.48c-.57.02-1.13-.63-1.45-.36v.35c-.72.04-1.81-.61-2.45-.31-.13.06-.14.3-.19.3-.38-.02-.62-.42-.65-.43-.43-.1-.37-.04-.82-.19-.11-.04-.59.2-.78-.16.26-.78-.2-.62-.37-.84-.02-.03.12,0-.27-.45-.31-.36-1.62-1.71-1.64-2.01,0-.16.28-.39.28-.63,0-.09-.27-.08-.34-.2-.11-.17,0-.38-.03-.45-.04-.1-.26,0-.29-.31-.08-.75.33-.77.34-.82,0-.23-.29-.55-.27-.79.01-.14.24-.37.3-.6.05-.18,0-.41.07-.57.32-.73,1.3-.46,1.89-.84,0,.89.46.65,1.04,1.04l-.32.49c.42.12.36.3.32.72l.16-.32.41.16c-.12.54-.25,2.32.23,2.65.13.09.39.03.51.09.19.11.69.63.85.64.87.07,1.35-.35,1.97-.46.43-.08,1.17.08,1.7-.18.22-.86,1.13-2.02,1.23-2.84,0-.08,0-1.17,0-1.25-.02-.11-.22-.1-.29-.23-.38-.71.08-.42.24-.74.15-.28.01-1.08-.42-1.13l.42-.64c.03-.34-.36-.36-.42-.52-.17-.51.11-1.77-.81-1.64l.27-.89c-.49-.21-.29-.45-.42-.63-.14-.2-.5-.38-.58-.57-.13-.29.1-.53.06-.61-.02-.03-.53-.5-.57-.51-.17-.04-.57.18-.85,0-.05-.47.43-.65.14-1.1-.76.17-.72-.51-1.01-.84-.35-.39-.85-.47-1.2-.74-.19-.15-.56-.72-.66-.78-.31-.18-1.33.39-.98-.71l-.39-.17-.24.32c-.37-1.11-1.61-1.48-1.79-2.7l-.29.13-.17-.64-.4.31c-.57-.29-.33-.95-.48-1.36-.42-1.12-.93-1.94-1.06-3.02-.07-.63-.42-.76-.44-.82-.1-.36.94-1.75-.35-1.68-.07-.06.55-1.45.57-1.59.04-.23.09-1.11.16-1.61.08-.53-.3-1.05.39-1.53l-.47-.32c.43-.71.68-1.15,1.28-1.77l-.32-.15c.21-.44.2-.78.8-.74-.29-.38.11-.26.16-.42.15-.46-.29-.78.64-.85-.93-1.37,1.08-.65.66-1.82l.14-.19c.9-.13,1.19-1.12,2.25-1.04l-.16-.64c.63,0,1.25.31,1.76-.24l-.32-.24.96-.16Z"/><path d="M71.55,23.05s.04.19.13.21c.99.23.84-.07,1.61.75.1.11.09.37.23.5.28.27.79.07.64.73l.48-.32.17.7-.34.19c.15.75.5,1.37.64,2.05-.44.11-.75,1.01-.81,1.04-.15.09-1.54.2-1.72,0l-.34-1.59c-.78.48-1.11-.6-1.71-.95-.43.39-.8.1-1.17.22-.91.3-1.09,1.46-1.61,1.94-.45.42-.58.16-.93,1-.2.47-.3,1.22-.51,1.73l.3.23c-1.34.23-.67,1.11-.88,1.77-.1.3-.52.59-.52.72s.22.32.24.5c.03.32-.23.66-.21.95.03.47.67.72-.23,1.13.16.27.09.66.18.9.08.2.57.44.59.48.03.1-.13.36-.06.62.09.35,1.3,2.75,1.42,2.85s.47.07.67.22.54.71.7.77c.31.11,1.66.62,1.75.63.18.03.32-.21.45-.23.56-.09.31.57.55.82.04.04.6-.03.91.23.29.23-.03.59.31.81l.4-.64c-.06.34.39.37.45.57.05.18-.15.36.04.75.15.32.62.46.96.44-.29.84.12.64.37.96.08.1.53.84.55.89.05.15-.37.55.5.58-.18.44.2,1.49.54,1.7.15.09.41.04.59.13.29.14.6,1.55.17,1.84.84.21.99,1.06.32,1.6.64.05.41.94,1.12.98l-.48,1.11.64-.16c-.29.9-.4,1.48.17,2.33l-.49.47v.32s.33.16.33.16c-.21.41-.45,1.02-.61,1.49-.09.25.34.64-.36.68l.48.48c-.67.08-.7.73-.96,1.21l.63.4c-.31,0-.36.29-.6.44-.41.26-.86.43-1.14.96-.12.22-.04.58-.12.69-.15.2-.48.23-.61.48-.05.1.08.31.06.32-.08.05-.36-.03-.51.05-.32.16-.5.51-.93.44l.32.48c-1.19.08-1.92,1.21-3.05.8l.32.8c-.75.32-.98-.53-1.2-.58-.54-.13-1.52.3-2.08-.07l-.25.33c.01-.11-.03-.25-.12-.32-.76-.59-1.89-1.02-2.48-1.57l-.29.12c-.1-.6-.8-1.59-1.45-1.6.14-.33.26-.83.17-1.17-.05-.16-.32-.16-.4-.28-.03-.04-.23-.95-.22-1,.08-.6.58-.49.74-.65.64-.66.49-.59,1.29-.97.05-.02.03-.42.58-.27.31.28.35.74.59,1.06s.71.15.48,1.03l.8-.16-.3.17.16.54-.34.17.48.24.16-.48.49,1.28h1.12s-.16-.32-.16-.32c.46-.18.46.28.59.31.23.06.9-.18,1.18-.15l-.16-.32c.32.22,1.73-.55,1.85-.8.14-.3,0-.63.08-.85.04-.12.22-.12.25-.18.08-.15.05-.36.08-.4.02-.03.46.18.65-.13.09-.14-.01-.37.08-.54.05-.1.35-.1.39-.27.05-.2-.08-.58.01-.68.06-.07.35.13.52-.21.31-.63-.45-1.24.11-1.81l-.31-.08v-.31c.9-.3.2-.51.18-.56-.03-.08,0-1.43-.03-1.69h-.48c.4-.54-.25-.95-.27-1-.05-.16.09-.45-.06-.81-.09-.2-.44.03-.15-.76l-.48.32c-.16-.55-.5-1.09-.46-1.69,0-.07.52-.04.13-.72l-.64.16c.3-.36-.19-2.28-.59-2.39-.18-.05-.41.12-.59.09-.76-.14-.79-1.47-1.08-1.87-.03-.04-.46.06-.9-.13s-1.56-1.23-1.73-1.29c-.1-.04-.87.19-1.1,0-.15-.12-.05-.35-.14-.45-.14-.15-1.61-.83-2-1.21-.17-.17-.03-.57-.08-.68-.07-.16-.82-1.51-.96-1.64-.16-.16-.63-.17-.76-.44l.32-.4c-.82.11-.07-.26-.62-.39l.14-1.05-.48-.08c-.1-.47.49-.62.46-.93-.02-.23-.36-.46-.42-.71-.05-.19-.38-2.26-.33-2.37.05-.13.33-.12.42-.34.03-.08.03-1.64.06-1.73.09-.23.38-.21.44-.28.07-.09-.16-.41-.11-.66.08-.41,1.02-.88-.03-1,.07-.34.55-.5.6-.59.03-.05.07-1.05.21-1.24h.63c-.35-.59.11-.64.15-.77.14-.49-.1-1.33.65-1.17l-.32-.24c.25-.82.73-.67.89-.87.06-.08-.11-.35.06-.59.15-.21.45-.08.57-.22.36-.41.61-1.37,1.37-1.29l-.16-.31c.47-.1.88-.43,1.04.15,1.04-.6,2.36-.87,3.58-.58Z"/><path d="M16.62,22.9c.06.03.03.23.3.26.58.07,1.63-.11,2.26-.15l.22.23-.15.39h.48s.32,1.44.32,1.44c-.54.28-1.24.24-1.76.4-.31.1-.53.35-.8.46-.36.15-1.22-.11-.8.75h-.8s0,.64,0,.64l-.96-.16-.02.63-.61.02c-.15.15,0,.59-.03.61-.36.28-1-.22-.81.96-1.49.05-1.15,1.84-2.39,2.26l.48.4c-.45.37-.79.8-1.25.96.28.62-.32,1.15-.47,1.74-.04.16.13.51.09.56-.07.09-.45.17-.63.43-.03.04-.3.91-.3.96,0,.26.52.77.13,1.33l-.61.03c.3.57-.18.8-.24,1.1s.23.76-.08,1.14h.64s-.3.24-.3.24l.14.56h-.8c0,.51.95-.04.8.4-.07.21-.34.43-.33.72l-.63-.16c.07.31.2,1.26.12,1.51s-.76.26-.36.74l.71.08-.3.09c.25.6.13.88-.5.63.27.56.2,1.16.64,1.36-.39.2-.67.57-.64,1.04h.64s-.33.88-.33.88l.33.16-.64.57c.64.58.44.98-.16,1.52l.8.88c-.28-.16-.6.81-.6.89.01.14.33.28.4.52.07.22-.09.87.03,1.17l.32-.16c.23.86.13,1.64.66,2.4l.46-.15c-.21.76.08,1.36.24,2.09h.73s-.16,1.44-.16,1.44c1.03-.48.77,1.14,1.04,1.44s1.34.08,1.44.64l.4-.8c.5,1.01,2.23.54,3.05,1.12l.08-.48,1.12.49.15-.31c.79.51.72-.22.99-.31s.64.04.92-.02c.12-.03.1-.32.2-.33.38-.04.63.47.78-.15.05.02.66.83.68.88.12.27-.26.86.52.73l-.04,1.08c-.48.08-.45.62-.63.8-.14.14-.44.09-.56.24-.09.11-.05.42-.19.53-.21.17-2.11-.41-2.1.55l-.32-.32c-.34,1.07-1.1.34-1.66.2-.49-.12-1.37.24-1.93.12-.41-.09-1.96-1.24-2.89-.81l-2.67-1.74-.02.3c-.59-.27-.71-1.01-.98-1.48-.18-.32-.55-.44-.33-.9l-.3-.03c.76-.76-.52-1.01-.72-1.28-.18-.24-.34-1.47-.44-1.57-.08-.09-.42-.04-.54-.18-.06-.08-.1-1.71-.07-1.99-.46-.15-.3-1.27-.37-1.64-.03-.18-.34-.16-.41-.26-.02-.03.28-.32-.35-.53l.32-.24c-.23.07-.31-.25-.36-.27-.18-.09-.3.36-.43-.61l.63-.32-.64-.24.63-.65v-.31s-.29-.08-.29-.08l.14-.72-.65-.08c.7-.23.06-1.76.2-2.24.02-.08.48-.44.41-1.06s-.68-.77.22-1.2c.02-.32-.24-.55-.31-.82-.08-.33.36-.47-.19-.6l.64-.64-.64-.16c-.02-.36.75-1.01.76-1.13,0-.15-.18-1.01-.12-1.42.02-.13.29-.03.34-.34.02-.15,0-1.01-.03-1.05l-.46-.09c.22-.33.29-.74.48-1.09.08-.15.35-.17.44-.35.04-.09-.15-.8.02-1.33.25-.81,1.21-.59.2-1.56.14-.33.69-.17.78-.26.07-.07-.01-.73.34-.86l-.64-.32c.15-.59.79-.52,1.04-.89.03-.04.33-.77.4-.91.15-.34.74-1.96.89-2.12.24-.26.59-.25.86-.59.39-.49.53-1.6.58-1.67.15-.2.6-.18.84-.36.18-.13.41-.71.62-.92.13-.14.31-.01.36-.05.23-.19.2-.81.83-.43-.02-.5.15-.68.65-.64l-.32-.32c.39-.39,1.05-.15,1.1-.18.07-.05.07-.29.18-.37s.47.08.7-.07c.32-.2.02-.34.97-.82.18-.09-.06-.49.59-.16v-.48c.19.08.39.14.58.23Z"/><path d="M199.64,26.25c.34.23.61.8,1.33.76l-.32.16.24.32.48-.48.1.28.3-.12c.12.56-.57,1.91-.32,2.29.08.12.33.11.32.19-.02.12-.22.34-.24.56-.1.81-.24,1.6-.39,2.41l.32-.16c.28.55-.22.73-.37,1.17-.13.41.1.74-.27.99l.48.16c-.12.84-1.01.35-.74,1.53.19.78.47,1.91.32,2.75-.11.65-.76,1.38-.5,2.44.06.23.4.35.42.52.01.06-.33.98-.47,1.1l.33.16c-.17.41-.4.82-.29,1.29.02.08.41.03.18.56-.07.15-.33.27-.36.42s.22.31.23.55c0,.41-.48,2.34-.25,2.56l.65.08c0,.55-.62.95-.65,1.28-.02.25.17.54.17.81,0,.53-.34,1.32.31,1.59-.31.35-.11.61-.64.81l.48.32-.48.8.8.16c-.12.39-.59.78-.72,1.05-.08.17.08.4.04.45-.07.08-.41-.1-.28.34l.64.08c0,.52-.96.92-1.12,1.61l.34.31c-.25.66-.13,1.15-.66,1.61l.32.32c-.76.33-.57,1-1.02,1.47-.14.15-.43.25-.63.38-.17.12-.04.45-.44.16v.96s-.7,0-.7,0l-.26-.33c-.1.75-1.65.8-2.01,1.12l-.08.8c-.68-.33-1.94.21-2.46.12-.17-.03-.31-.25-.48-.31-.15-.06-.36.02-.4,0-.15-.11-.55-.99-.7-1.22l-.3.14c.09-.35.11-.83-.2-1.07-.05-.04-.24.07-.28.03-.27-.22.21-1.67-.8-1.36.05-.66.2-1.58-.48-1.84l.48-1.04-.48-.08c.32-.5.49-.96.71-1.51.05-.13-.1-.32-.04-.45.03-.06.79-.73.92-.84.07.71,1.07.64.97,1.45l.48-.16c.23.3-.06.95.02,1.1.03.05.42.13.61.45.24.39-.04,1.31.81,1.18l-.29.18c.11.31.1.5-.19.71.42.13.35.31.32.72,1.06.2,1.49-.65,2.41-.64l-.16-.48,1.29-.49-.12-.32h-.37s.18-.62.18-.62l.78-.02c-.56-.58-.61-.72-.54-1.52.06-.65.88-1.37.81-2.38-.02-.24-.24-.49-.24-.69,0-.23.28-.37.26-.59-.02-.37-.81-.7-.14-.83l-.48-.16.3-.95c-.24-.74.35-1.38.02-2.17l.49-.08-.64-.32c.17-.16.16-.58.22-.69.02-.04.75-.14-.06-.43.1-.32.38-.69.48-.97.17-.47-.42.15-.32-.32.13-.6,1.07-1-.16-1.2l.32-.32-.48-.08c.59-.63.36-1.16.31-1.92l.49-.18c.06-.55-.32-.55-.34-.78-.04-.47.33-1.83.31-1.93-.01-.05-.56-.59-.61-.72.9-.1.2-.81.24-1.14.07-.56.5-1.52.52-2.22.01-.4-.31-.74-.29-1.22.02-.55.53-1.22.66-1.76l-.33-.24c.72-.12.43-1.63.65-2.13.09-.2.37-.02.31-.28-1.53-.37-2.84.05-4.31.35l-.02.45c-.88-.22-.72-.88-1.71-.76-.2.02-.62.31-.78.23-.24-.12-.18-.58-.47-.43-.32.16-.07.72-.48.64-.38-.14-.38-.76-.41-.79-.04-.03-.58.11-.98-.04-.65-.25-.83-.82-1.39-1.12l.45-1.33-.32-.32c.38-.73,1.14.19,1.36-.57l.88.33-.16-.48c.48,0,.85.3.8.8l.32-.48c.85.87,1.43-.33,1.51-.32.34.05.8.52,1.31.47.32-.03.2-.3.32-.32.66-.14.58.34.74.45.06.04.26-.24.37.17.77-.05.78-1.2,1.77-.45.41-.17.05-.61.08-.64.14-.14,2.26.03,2.52.21Z"/><path d="M124.56,23.64l.02.28.46-.05.16.41.4-.48,1.01.51c0,.49.33.82.44,1.24.19.76-.45,1.14-.41,1.93l-.71-.17c-.25.43-1.17.52-1.7.65l.16.56c-.5.45-1-.33-.95.48-.77.02-1.03.66-1.52,1.15-.08.09-.33.02-.39.07-.02.02.1.44-.19.54l.48.4c-.84.01-.99.94-1.77.8.27.33-.07.54-.09.75-.08.73.33,1.8-.87,1.66.37.73-.13.59-.27.87-.05.09.16.69.11.95-.09.49-.36,1.81-.48,2.23-.02.07-.87.74-.91,1.16-.01.13.21.3.16.69-.08.7-.84,1.66-.85,2.53l.31.16c-.38.42.13.86.09,1.04-.09.4-.58.84-.66,1.61-.09.86.25,2.48.18,3.11-.02.21-.37.42-.36.64.02.37,1.11,1.76.11,2.09.1.23.75.91.77.96.06.2-.17.81-.12,1.11.08.51.75.98.16,1.54h.48s-.18,1.19-.18,1.19l.66.1-.3.17c.32.65-.35,1.03.48,1.38-.3.51-.45,2.15.55,1.99.16-.03-.03-.4.24-.33.08,1.05.44,2.02,1.65,1.73.42-.1.91-.75,1.12-.88.06-.04.91-.29,1.07-.39.03-.01-.15-.33.06-.58.3-.36,1.18-.16,1.09-.93-.84-.4.03-1.09.63-.4.13-.64,1.38-.49,1.85-1.12.29.21.26.57.4.85.05.11.29.08.31.21.05.29-.04,1.23-.31,1.43l.32.16c-.46.27-.23.73-.33,1.09-.04.15-.67.53-.8.68-.12.14-.03.37-.08.42-.2.21-.49.08-.68.19-.1.06-.17.39-.35.53-.4.33-1.02.17-.66,1.02-.74-.09-.43.45-.73.64-.46.29-1.23-.03-1.33.03-.06.04-.11.36-.26.48-.28.24-.55-.22-.65.3-.46-.48-1.04-.15-1.42-.21-.67-.1-2.76-.94-3.17-1.46-.17-.22-.1-.58-.22-.74-.25-.34-1.2.08-.72-.96l-.49-.08c-.05-.45-.11-.38-.47-.65l.32-.71c-.77-.32-1.25-1.05-.64-1.77l-.8-.33c-.07-.27.26-.08.3-.23.16-.57-.98-1.46-.3-2.09l-.31-.16c.44-.98-.12-.94-.35-1.31-.2-.33.03-.93-.47-.86l.31-.22c-.31-.77-.39-1.37.33-1.86l-.48.08c-.36-.56.29-.72.32-.82,0-.04-.02-.75-.04-.78-.15-.31-.52-.18-.6-.25-.04-.03.01-.94.02-.99.13-.75.4-.26.21-1.33-.04-.26.33-.63-.24-.56v-.16c.4.1.34-.7.41-1.04.11-.5.54-.4-.25-.81l.3-.15c-.13-.42-.22-.99.18-1.29l-.32-.24c.4.07.36-.71.47-1.04.16-.51.69-.57-.15-.96.11-.45.61-.74.69-.93.2-.49-.24-1.43.59-1.24-.31-.85-.32-2.68.64-3.05l-.32-.55.94-.67c-.02-.68-.19-2.37.82-2.3l-.48-.56.8-.24-.3-.79c.38.02.18-.25.24-.33.21-.27.59-.54.87-.89.56-.71.57-.84.99-1.73.14-.28.69-.37.61-.91l.48.16v-.47s.64-.02.64-.02l-.16-.48c.4-.31,1.38.04,1.44,0,.1-.07.51-1.52,1.21-.97l.08-.47c.78.3,1.82-.08,1.12-.96h.32Z"/><path d="M26.74,23.22c.08.04,0,.37.37.09-.21.45.61.74.64.92.08.39-.12.67-.12.96,0,.2.22.34.22.44,0,.24-.46,1.02-.1,1.53l.48-.16c.23.51-.49.84-.49.89-.03.32.27.51.33.8.09.47-.29,1.93-.48,2.4.85.37.21.72.17,1.13-.05.49.17.96-.11,1.52.6.61.87,1.03-.22.88.09.49.58.66.32,1.2l.65.08c-.7.28-.02.58-.02.63,0,.61-.6.9-.59,1.16,0,.46.82.8-.03,1.58.67.16-.14,1,.47,1.11l-.17.88h-.46c.29,1.45-.16,2.91-.32,4.34h.48s-.48,1.93-.48,1.93l.48.08c-.18.38-.48.83-.54,1.24-.05.3.16.41.13.73-.1.9-.96,2.31.26,2.52l-.64,1.12c-.18.44.68.11.64.32-.49.1-.2.66-.26,1.06-.08.52-.08,1.5-.54,1.66.03.46.62.39.65.48.23.7-.59.53-.49,1.12.01.06.3.06.32.18.01.05,0,.98-.01,1.09-.02.31-.66,1.37.41,1.05l-.08.32.4-.32c.3.29.77.21,1.09.33.11.04.34.65.6.19v-.36c.78.31,1.5.2,2.3.22.12,0,.25.19.35.2.24.02.46-.36.67-.39.14-.02.97.35,1.4.3l.34-.65c.35.18.48.2.4.64h.32s.08-.32.08-.32c.33.16.5.48.72.69.07.06.27,0,.33.04.22.2.61,1.16.96,1.43l-.32.08.32.24c-.41.13-.19.17-.32.48l-.81-.08v.64c-.07.04-1.27,0-1.34,0-.11.03-.1.26-.34.34-.35.11-1.67-.39-1.54.61l-.17-.3c-.58.34-.75-.18-1.23-.3-.4-.1-1.28-.12-1.01.44-.61.01-1.08-.47-1.55-.59s-1.47.23-1.74.21c-.28-.02-1.06-.96-.72.22l-1.34-.48c.29-.67-1.16-.28-1.21-.34l-.3-.55-.04-2.16h-.48c.24-.53,0-1.03.03-1.53.02-.33.24-1.13.25-1.51.01-.31-.36-.89-.43-1.23l.31-.15c-.78-.63-.14-1.71-.15-2.08,0-.07-.43.02-.34-.64.05-.37,1-.6.21-.74l.13-.36c-.29-.08-.38-.53-.33-.79.04-.2.4,0,.33-.26l-.32-.08c.54-.56.42-1.38.6-2.09l-.44-.08c-.17-.57.36-1.2.32-1.68-.02-.27-.26-.48-.29-.68-.05-.48.89-1.59.29-1.9l.32-.15c-.48-.65-.19-.84.32-1.29l-.64-.24c.29-.87.71-1.62.17-2.5l.31-.07v-.32s-.3-.08-.3-.08c0-.56.46-1.12.47-1.61s-.38-.77-.34-1.11c0-.09.24-.09.26-.13.08-.17.32-.68.34-.76.06-.32-.38-.72-.37-1.05.01-.25.32-.43.35-.63.08-.61-.74-1.42-.09-1.61-.36-.22-.2-.61-.32-.92-.05-.13-.32-.13-.31-.2.06-.49.76-1.82.77-2.24,0-.22-.16-.47-.14-.66.04-.5-.08-1.7.49-1.68-.54-.48-.76-2.21.32-1.76.16-.62-.29-1.43-.16-1.98,0-.04.13-.11.25-.61.14-.62.97-.65,1.46-.4Z"/><path d="M229.6,26.14c.83.56.59-.24.83-.25l1.13.48c.15-.33.45-.64.72-.24l-.16.56h.57c.33.57-.23,1.84.56,1.93l-.62.5.14.62c-.69.43-.97-.3-1.03-.3-.32-.01-.96.36-1.44.3-.21-.02-.38-.26-.49-.26-.17,0-1.5.8-1.76.72-.08-.03-.06-.24-.2-.28-.27-.08-.62-.03-.91-.17l-.52.64c-.7-.11-.89-.66-1.66-.33l.17,2.72h.63c-.16.4-.41.75-.57,1.14-.07.16.09.41.05.45-.05.08-.39.09-.43.27-.03.13.14.41.14.63s-.17.5-.14.63c.04.19.41.17.46.35s-.15,1.12-.48,1.1c.77.21.1.81.07,1.13-.01.14.27.89.24,1.27-.02.28-.28.54-.27.65,0,.13.34.29.41.51.13.43-.09.79-.06,1.1.02.24.24.46.26.8.02.47-.3,1-.02,1.51l-.64.17c.46.42.06.82.16,1.33.02.12.26.1.29.19.16.46-1.14,1.61.19,2.08l-.65.66c-.05.51.47.52.49.55.03.05-.56.73-.32,1.12l.48-.08c.16.69-.54.99-.58,1.27-.04.25.22.71.21,1.01,0,.38-.6,1.5.37,1.33l-.41,1.68c.36.6.14,1.1.08,1.74l.64.28c.11.69-.46.71-.59,1.24-.08.29-.08.85.27.9l-.31,1.38.48.16-.32.09.14.45c-.17.41-.67.31-.98.43-.23.09-.07.6-.91,0l-.09.31-1.33-.52-.2-1.56h-.64c.09-.44,0-1.05.48-1.21-.4-.3-.42-.72-.17-1.14l-.31-.07c-.07-.26.28-.07.32-.26.18-.72-.3-.71-.32-.81-.12-.48-.04-1.24.48-1.41l-.78-.81c.2-.75.53-1.69.54-2.47,0-.3-.22-1.01-.56-1.05l.46-.68-.29-.69.32.08c-.15-.45.17-.71.18-1.28,0-.52-.22-1-.18-1.52l-.48.08c.68-.8.82-1.91,0-2.57-.01-.16.25-.01.3-.15.09-.31-.12-2.06-.06-2.58.08-.65.71-1.25.06-1.75.12-.49.6-1.59,0-1.77.45-.71.14-1.37.33-2.16l-.65-.08c1.05-.61-.27-1.63.65-2.41l-.33-.34.13-.36-.29-.1.33-.66-.33-.31c.47-.51.55-1.04.32-1.69-.53.27-1.09-.09-1.69-.01-.2.02-.92.99-.87-.15-.5.28-.71-.24-1.06-.28-.2-.02-.57.19-.7.12-.01,0,.11-.21.05-.32-.13-.25-.35-.44-.45-.66-.11-.24.25-.52-.23-.48v-.31c.48,0,.87-.73,1.15-.85.64-.29,1.75-.29,2.44-.37.14-.02.31-.24.46-.21.2.04.38.44.5.44.09,0,.36-.34.55-.39.18-.04.32.22.54.22.41,0,.82-.43,1.15-.52.67-.2,1.26.26,1.77-.24l.4.48.24-.64c.5-.15.47.36.59.44.05.03.98-.03,1.15-.12.1-.06.1-.31.21-.33.61-.1.7.65,1.26-.12l.48.29.24-.48c.24-.06.11.19.21.26Z"/><path d="M105.9,24.34c.34.3.46.62.69.95.08.12.33.11.33.2,0,.24-.29.45-.29.76,0,.4.4.99.29,1.45l-.33.18c.53.24.71,1.27,0,1.44.46.6.52,1.31.32,2.01l.48.08c.06.42-.03.7-.48.72l.32.16c-.49.68-.29,1.52-.26,2.29,0,.13.23.28.23.49-.02.85-.25.13.09,1.22.24.76-.26.93-.37,1.61l.64-.16-.12.29s.23.03.25.11c.22.77-.57.68-.61.73-.08.08.15,1.98.17,2.16.02.21.23.36.25.49.02.19-.91.95-.1,1.04v.16c-.71.15-.19,1.4-.49,1.99l.81.34c-.5.3-.93,1.41-.16,1.62-.21.53-.01,1.06-.65,1.27.62.24.32.93.4,1.05.06.09.32.1.38.18s0,1.81-.02,1.98c-.03.15-.53.11-.44.94l.49.09c.03.62-.22.9-.8,1.04-.04.57.82.57.59,1.33,0,.03-.26.03-.28.13-.01.09.15.68.17.7.34.32.25-.4.48-.32v1.12s-.48,0-.48,0v1.83s.46.12.46.12l.1.29-.4,1.29.48-.16c-.16.24.04.53,0,.7s-.48.02-.33.42c1.05.27.27.89.3,1.53.01.29.28.22.31.32s-.46,1.61-.71,1.65l-.7-.13-.09.48c-.41-.14-1.05-.09-1.41-.32-.2-.13-.26-.5-.44-.68-.57-.58-.79-.48-.81-1.49-.02-.86.44-.68-.44-1.28l.45-.41-.48-.24c-.08-.68.64-1.05.63-1.12-.03-.22-.39-.63-.44-.86-.12-.57.39-1.01-.2-1.4.68-.14.1-.86.18-1.28.06-.29.35-.51.31-.8l-.34-.19c.49-.62-.82-.79-.15-1.26.17-.12.52.03.48-.24-.11.01-.28.03-.32-.11-.18-.63-.28-2.18,0-2.78h-.48c.11-1.02.75-1.98.23-2.97.48-.66-.1-1.02-.07-1.43.06-.81.46-.39.17-1.79-.12-.59.3-.9-.49-.95.97-.28.1-1.41.18-1.6.07-.15.38-.13.43-.33.01-.05.02-1.06,0-1.11-.05-.14-.47-.88-.48-1.28,0-.65,1.19-2.68-.14-2.65l.28-.18c-.2-.36.12-.27.16-.38.39-1.16-.07-.77-.27-1.06-.05-.07.4-1.28.31-1.59l-.48.16.12-.29c-.94-.38.86-1.52.49-1.94-.07-.08-.35.09-.28-.18l.32-.08c-.43-.08-.26-.41-.35-.53-.03-.04-.36.15-.46-.11.2-.34.56-1.06.44-1.45-.04-.11-.31-.03-.3-.31,0-.47.49-1.53.5-2.09l-.48-.08c-.06-.06.18-1.06.31-1.22.4-.48,1.5-.05,1.3-.87.56-.17.53.34.73.48.16.12.31.03.35.06Z"/><path d="M210.26,27.2c.07.07,0,.31.04.43.02.03.36-.18.53.18.04.09.4,1.71.4,1.87.01.41-.29,1.48-.27,1.56.03.25.57.74.44,1.14l-.63.42h.64c-.21.34.09.5.32.73l-.49.5.03.44c.08.21.36.21.41.29.06.09-.16.66-.22.77-.06.12-.29.13-.34.19s-.02,1.34.11,1.51c.22.29.59.08.5.93l-.58.25c.15.36-.15.72-.16.89-.02.35.33.36.4.53.25.54-.09,1.7-.12,2.37-.02.57.17,1.26.12,1.74-.03.25-.26.48-.26.65,0,.26.38.58.36.8-.03.3-.6.24.22.64-.17.03-.72,1.01-.73,1.12-.13,1.06,1.49,1.86.09,2.01l.64.16c.09.47-.44.83-.46.88-.03.11.25.72,0,.97l.3.15c-.6.43-.16.66-.08,1.05.07.33-.24.42.25.56-.21.57-.57,1.16.12,1.43.05.42-.39.57-.41.6-.02.05-.11.87-.12,1.01-.07.87.17,1.64.08,2.48l.48-.16c-.17.65-.38,1.67.32,2l-.31.09.16.53c-.54.16-.17.38-.26.59-.09.22-1,.71-1.28.81-.46.16-.85-.02-.97,0-.08.02-.1.48-.56.3.19-.69-.56-1.02-1.13-.8l.12-.29c-.53-.06-.02-.63,0-.93.02-.55-.2-1.21.05-1.83h-.46c-.25-.5.21-.95.25-1.23.03-.2-.14-.43-.08-.73s.47-.93.61-1.25l-.64.16.12-.29-.29-.26c.23-.73.91-1.97-.31-2.02.03-.32.46.01.19-.45l.77-.35-.48-.4.48-1.29c-.75-.27-.21-.84-.23-1.11-.03-.46-.3-1.42-.74-1.61l.29-.1c-.16-.52.14-1.04.34-1.51l-.6-.47c.24-.69.9-.11.58-1.25-.15-.52-.6-.22-.61-.36-.03-.26.03-.58.31-.63l-.15-.49.32.08c.18-.41-.33-.29-.33-.41,0-.2.32-.75.38-1.03.06-.33-.08-.75.11-1.13l-.8-.08c.44-.74.61-1.38.65-2.23l-.33-.17.49-.97-.34-.16.33-.88-.48-.08c-.13-.34.65-.19.32-.56-.05-.06-.38.13-.32-.16l.48-.16-.48-.08.31-.09-.15-.38.33-.18c-.14-.2-.38-.93-.28-1.13.14-.28.57-.11.44-.55l-.64-.24c.43-.18.54-.53.62-.96l-.56-.48c0-.36.27-.68.35-.97.1-.4.14-.54.23-.84.16-.54.37-1.22,0-1.64.45.08.58-.61.75-.65s1.41.13,1.47.2Z"/></g></svg>