<?xml version="1.0" encoding="UTF-8"?><svg id="Layer_2" xmlns="http://www.w3.org/2000/svg" viewBox="0 0 289.48 107.99"><defs><style>.cls-1{fill:#fff;}</style></defs><g id="mojo_shrimp"><path d="M32.83,23.35c.09.12,0,.44.03.48.07.07,1.29-.6,1.65.51.08.25-.31.47.28.63-.86,1.12.47,1.17.49,1.38.02.15-.22.74-.5.62l.52.52c-.64.14-.44,1.58-.87,2.17l.67.34c0,.32-.4.85-.42,1.06-.07,1.02-.04,2.22-.06,3.28,0,.43-.05,1.58.51,1.5v.17c-.45.09-.35.62-1.04.79l.69.26c-.53-.07-.37.92-.46,1.22-.05.19-.32.36-.38.64-.08.36.39.51-.2.65.26.28.39.67.37,1.05-.02.33-.33.22-.34.33-.02.31-.14.99-.14,1.05.01.24.56.53-.06,1.05l.36.18c-.12.39-.25.79-.26,1.21-.01.6.56,1.24-.27,1.31.3.19.17.65.2.67.07.05.33-.03.44.05.67.47-.3.87-.3.93,0,.12.17.33.16.51-.01.23-.26.39-.27.55-.04.4.1.98-.06,1.45h.7c.06.05-.59,1.13-.61,1.37,0,.07-.01,1.19,0,1.25.07.57.68.79.08,1.63l.36.1-.35.52c.88.11.33.59.37.97.02.23.26.39.26.51,0,.17-.53.97-.55,1.23s.72,1.93.62,1.99l-.7.09c.53.13.17.28.23.39.03.05.29.04.3.14.04.34-.27.51-.31.71-.05.31.24.88.12,1.28h.7s-.35,1.74-.35,1.74l.31.05-.63.9c.86.73.26,1.09.21,1.57,0,.09.22.23.2.44-.03.27-.28.57-.28.95,0,.87.91,1.84.59,2.65-.06.15-.82.8-1,1.1-.12.19-.08.52-.19.68-.37.53-.89.03-.61-.52-.78.36-.82-.13-1.3-.52-.19-.16-.6-.18-.7-.34-.2-.29-.02-.92-.09-1.3-.04-.24-.27-.41-.3-.58-.09-.51.32-1.5-.57-1.61l.33-.18c-.18-.41-.2-.67.2-.94-.55-.15.02-.37-.52-.52l.54-1.03-.54-.36v-.35s.35-.17.35-.17c-.53-.61.06-1.59-.07-2.35-.05-.3-.35-.49-.39-.87s.44-1.26.27-1.8c-.06-.19-.63-.06.01-1.06l-.52-.27c.65-1.18-.61-2.69.35-3.9-.5.06-.54-1.39-.5-1.46.05-.08.51-.1.49-.37l-.7.17.69-1.91-.7-.09c.48-.3.71-.89.86-1.41l-.31-.09.33-.67c-1.19-.5-.28-1.4-.08-2.01s.1-1.79-.13-2.39c-.08-.22-.43-.43-.44-.56s.58-1.04.61-1.26c.04-.24-.38-.58-.41-.91-.02-.23.24-.39.24-.62,0-.34-.17-.96-.11-1.18.1-.37.73-.61.67-1.25-.06-.55-.73-.59-.7-.7.11-.41.4-1.1.68-1.4l-.33-.5c.57-.74.94-.88.86-1.93l-.52-.09c0-.66.46-1.22-.35-1.56l.17.69s-.95.21-1.12.33c-.25.19.17.63-.8.54l.52.87c-.22.22-.98.17-1.02.2-.28.28-.49.86-1.13,1.31-.3.21-.57-.23-.37.58l-.25.25-.53-.08v.61c-1.01-.22-1.55.59-2.43.87-.99.31-1.97.35-2.7-.44-.13.58-.49-.06-.43.52h-.17c-.04-.59-.78-.07-.53-1.04l-.44.16-.18-.34-.42.18c-.28-.68-.33-.73,0-1.39-1.09.31-.75-.71-.99-1.35-.1-.28-1.01-.61-.59-1.24l-.68-.18.09.36c-.22.29-.64-.12-.76.79-.07.52.34,1.29-.2,1.37l.52.35c-.13.32-1.56.76-.18,1.04.15,1.05-1.59,1.95-.35,2.6l-.87,2.88.52.17c-.38-.05-.35.34-.53.59-.08.11-.31.16-.41.3-.44.63.17,1.17-.11,1.93-.06.16-.51.14-.34.75.06.22.69-.14.52.43l-.52-.09c-.11.57.37.63.33.85-.06.39-1.38,1.14-.34,1.58l-.66.7c.04.61.06.78.66,1.04-.28.41-1.33,1.84-1.21,2.23.03.1,1,.66-.18.99.62.67-.12,1.33-.28,1.9-.08.28.13.57.07.92s-.25,1.04-.49,1.26l.35.09c.07.32-.29.11-.35.17s.71.66.14,1.62c-.21.37-.78.18-.33.91l-.33.08.52.43c-.72.33-.26.98-.5,1.35-.11.17-.47.2-.51.39-.08.35.6,1.2-.37,1.3-.06.09.3.38.28.6-.02.37-.79,2.95-1.15,3.05.7.65-.18.86-.31,1.34-.11.38.05.82-.06,1.16-.08.23-.45.24-.55.49-.12.29-.06.88-.14.98-.05.06-.4.07-.58.19s-.36.48-.54.51c-.17.03-.78-.4-.87-.58-.03-.05-.07-1.15-.06-1.2.02-.12.31-.09.34-.23.12-.54-.32-1.2.01-2.01.45-1.11.35-.88.4-1.95,0-.13.55-.94.44-1.22-.09-.22-.58-.08-.5-.7.12-.09.66-.65.67-.7.11-.57-.17-2.38-.1-2.93.04-.3.41-.55.42-.72,0-.16-.24-.36-.26-.55,0-.1.16-1.87.19-2.04.05-.32.41-.55.42-.72.01-.29-.51-.5-.12-1.18.12-.22.5-1.42.48-1.74-.01-.22-.36-.59-.24-.9.16-.4.79-.63.58-1.22-.04-.1-.48-.05-.3-.67.03-.11.28-.09.34-.24.14-.4.74-2.41.8-2.83.13-.85,0-.72-.45-1.3.24-.22.24-.87.34-1.02.27-.39.43.18.04-.9.82-.44.82-1.47.14-1.91,1.02-.73.59-1.38.81-2.13.17-.57.64-.91.55-1.48-.1-.59-.76-.95-.12-1.67l.32.15c.37-.51-.21-1.16-.17-1.21.02-.02.31.01.45-.25.49-.92.19-1.64.36-2.33.12-.5,1.11-1.26.23-1.68l.52-.26-.52-.17c-.11-.53.61-1.02.62-1.2.02-.27-.36-.49-.28-.94.02-.11.3-.12.35-.25.18-.45-.1-.92.7-1.08l-.34-.25c-.01-.5.61-.75.65-.89.04-.15-.14-.39-.01-.72.3-.77,1.49-1.73,2.37-1.62.11.01.1.28.25.34.23.09.54.03.79.18s.31.66.52.84c.11.09.37.01.44.06.03.02-.09.25-.04.33.27.38.96.86.24,1.13l1.23,2.42-.36.19c.24.58.79.6.87.73.1.16.46,1.4.52,1.45l.5-.16c.4,1.03,1.13,1.57,2.28,1.38l-.17-.52.52.08-.35-.43c.4-.34,1.24-.43,1.52-.75.1-.11.53-1.43.6-1.49.12-.11.51-.1.7-.22.53-.33.4-.85.84-1.29l-.35-.26.48-.09-.1-.23c.54-.29.84-.71,1.53-.55l-.35-.87c.6-.09,1.68-.32,1.22-1.04,1.44-.04,2.38-1.24,2.78-2.53.1-.09.47.1.5.14ZM16.33,32.17v-.52s-.52.44-.52.44l.52.09Z"/><path d="M170.26,24.41c.06.05.01.27.04.28.06.04.77-.66,1.31,0l.26-.51,1.3.98.7-.45c.26.12.19.54.3.65.21.21.78.03.81.06.06.08,0,.38.2.58.28.29.85.48,1.12.81.12.14.07.46.11.5.02.02.3-.18.51-.09.34.15.62.96,1.22.61l.08,1.05c.26.38.83-.04.98.06.42.3.13,1.07.25,1.31.32.61,1.22.42,1.3.53-.28.67-.43,1.65.52,1.57l-.1,1.57.97.17c.06.45-.68.92-.69.98-.02.15.2.5,0,.75l.7.3c-.38.75.33,2.16-.1,2.65-.14.16-.42.22-.52.37-.18.27.22,1.74-.6,1.73l.52.35-.33.61-.69.11c.07,1.06-.44,1.24-1.07,1.98-.24.28-.36.66-.58.9-.2.22-.68.29-.83.53-.19.31,0,.56-.05.8-.06.32-.5.97-.11,1.33.36.34.33-.53.52-.35-.07.33.35.39.43.53.1.18-.03.41.04.51.31.51.67.89,1.26,1.07l-.16.32c.73-.36,1.14.62,1.22,1.22l.69-.35c-.11.48.47,1.01.5,1.33.03.3-.41.41-.32.75l.43-.02c.3.89.59,1.81.97,2.67.06.14.29.15.29.16.04.09-.24.6-.1,1.06.08.26.55.62.7,1.04.61,1.68.39,4,1.02,5.38.07.14.3.14.3.22.02.61-.61.86-.49,1.48h.52s-.69.97-.69.97c.25.36.46.41.87.34l-.19,2.07.69.3-.15.76.51.09c.08.29-.28.09-.33.25-.02.06.15.45.13.53-.02.06-.83.34.01.68l-.17.51c.35-.02.4.86.34,1.04-.07.23-.39.22-.46.32-.08.11-.05.76-.07.81,0,.02-.25.02-.33.14-.11.17-.14.53-.18.57-.05.04-1.08-.35-1.04.35-.16.1-.37-.51-.53-.61s-.42.08-.61-.07c-.36-.28-.3-.82-1.12-.72.41-.79-.24-1.64-.26-2.17-.02-.44.61-1.65-.43-1.48.1-.17.37-1.02.33-1.13-.06-.15-.32-.14-.4-.25-.12-.17.21-.94-.45-.88l.52-.43-.35-.17.35-.52c-.55-.16-.15-1.26-.35-1.82l.52-.09-.52-.27c.56-.65-.1-.96-.02-1.72l-.5-.02.34-.95-.69-.26.5-1.44-.84-.74-.02-.34.35-.34c-.23-.35-.73-.27-.92-.65-.53-1.07.75-2.84-1.16-2.91l.16-.94c-.55-.35-1.78-.97-1.03-1.66-.53-.14-.82-.44-1.39-.17l-.2-.85-.68-.02.09-.35-.35.35-.44-.69h-.34c.05.65-1.03.08-1.44.2s-.47.81-1.26.16l-.09.69-.84-.36-.03-.68c-.46-.58-1.15,2.24-.3,2.91.14.11.51-.04.47.13-.16,0-.64.81-.65.87-.02.21.56,1.31.13,1.83h.52c-.53.58-.05,1.09-.07,1.48-.01.26-.31.45-.38.7-.1.35.3.5-.25.71l.16.41-.33.1.48.33c-.09.58-.44,1.37-.13,1.89.07.13.36.11.35.2-.06.45-.7,1.43-.52,2.18h.87c.03.49-.47.88-.54,1.13-.14.48.07.92.02,1.37-.06.54-.71,2.23.01,2.46-.43.38-.3,1.58-.36,1.63-.03.03-.41.01-.62.17-.39.29-.81,1.92-1.54.9l-.97.5c-.35-.66-.22-1.26-.54-1.95-.12-.26-.64-.23-.15-1.08l-.35-.17c0-1.16.78-2.67.81-3.66.01-.38-.14-.75-.12-1.13l-.69.17c.27-.48.1-1.1.68-1.29l-.33-1.14.35.09v-.61s-.52.35-.52.35c.36-.67-.15-.47-.18-.63-.09-.41.27-1.23.71-1.37,0-.47-.92-.29-.34-1.2-.39-.03-.37-.59-.2-.84s.63-.2.54-.65l-.69.17c-.09-.61.47-1.28.52-1.66.04-.35-.16-.67-.11-1.13.06-.51.49-.5.46-.76-.09-.74-1.14-1.1-.36-1.84l-.52.17c-.29-.72-.12-1.37,0-2.09l-.35.18c-.08-.59.04-.96.52-1.31.08-.38-.35-.14-.37-.51-.02-.52.33-1.15.32-1.61s-.57-.85-.12-1.44h-.87c.24-.45.22-1.17.87-1.22-.93-.94.13-1.63-.44-2.69l.42-1.75-.67-.34c0-.26.28-.38.34-.7.13-.63.3-2.7-.17-2.96.31-.65.18-1.22,0-1.88l.37-.2-.66-1.04c-.17-.82.43-1.04.48-1.58.04-.38-.21-.72-.18-1.03.04-.42.76-.65,0-.88.49-.99.07-2.41.53-3.29.64-1.24,1.77-1.05,3.03-.96l.19-.35c.19.39,1.22.37,1.28.41ZM173.6,28.88c-.57-.25-1.65.05-2.11-.11-.36-.13-.53-.47-.8-.56-.54-.17-1.52-.14-2.14-.38-.16.52.52.94.51,1.3,0,.18-.39.71-.32.87.08.17.39.07.49.51.01.06-.2,1.06-.23,1.11-.04.08-.36-.07-.28.2l.87.35-.35.61.35.17c-.38.75-.32,1.62-.71,2.45l.36.42-.35.09c.78.27.17,1.57.16,2.26,0,.3.28,2.42.36,2.52l.52-.08c.19.8-1.75,2.42-.35,2.87-.68.86-.04.85-.02.94.06.27-.1,1.54-.16,1.89.83.87,1.16.08,1.88-.19.27-.1.67.04.88-.08.1-.06.24-.6.44-.78.32-.3,1.08-.41,1.45-.64.71-.43,1.06-1.44,1.44-1.9.17-.21.77-.18.88-.73l-.35-.17.37-.19c-.41-.83.05-.71.1-.81.04-.08-.1-.22-.07-.27.14-.2.46-.24.7-.74.08-.17-.04-.61.29-.86-.89,0,.36-.71.46-.96.2-.51-.62-1.3.21-1.74-.13-.42-.75-.7-.87-1.04-.22-.61.46-1.11,0-1.89-.19-.32-.53-.35-.67-.54-.36-.48-.2-.71-.86-1.2-.18-.14-.67.02-.72-.63l-.5.17c-.07-.19-.15-1.32-.2-1.37-.21-.21-1.02-.04-.67-.89Z"/><path d="M141.41,23.66l.37,1.55.33-.16c.41.63-.07,1.29,0,1.81.24,1.72.87,2.84.85,4.89,0,.69.06,1.67-.33,2.16.56-.06.26.41.34.76.04.15.38.11.35.2-.04.14-.27.27-.28.52-.05.96.6.57.63.61.19.29-.41,1.03-.52,1.3l.53.26c-.68,1,.14,1.84-.7,2.69l.36.34-.7,1.22.35.26-.35.09c.08.39.61.55.67.65.09.15-.27,1.7.24,2.01.38.02,1.66.32,1.87.03.03-.04-.3-.71.28-.82l1.36-.05c.13.51.53.55.36,0,.61.34,1.05-.13,1.39-.14.66-.02,1.41.2,2.09.16l.18-.54c.76-.15.49.55,1.18.32.34-.12,1.37-1.17,1.34-1.44-.02-.15-.42-.17-.49-.35-.07-.16.34-.93.34-1.22s-.29-.21-.33-.34c-.05-.15.06-1.37.17-1.45.15-.12.54.13.49-.2l-.85-.19c-.26-.49.33-1.01.33-1.29s-.48-.56-.35-.95c.68.04.62-.24.7-.77l-.52-.1c.04-.78.67-1.39.19-2.18l.34-.15c-.6-.68.29-1.39-.7-1.75l.52-.44-.35-.26c.46-.13.19-.24.35-.61l-.7-.17.32-.08c-.19-.84.34-1.81.45-2.61.06-.42,0-1.29.18-1.66.29-.6.89-1.01.79-1.74.7.04,1.38.08,1.9.63l-.14.91c.86.39.58,1.89.6,2.72.02,1.51-.06,3.24.26,4.84l-.37.19c.75,1.07-.21,2.28.89,3.13v.33c-1.04.66.11,2.27.1,3.15,0,.37-1.11,1.29-.3,1.55l-.15.45.35-.18c-.06.39.18.78.19,1.14,0,.13-.69.84-.71,1.11,1.35.45-.25,1.91.69,2.7l-.54.37c.06.32.43,1.24.34,1.55-.04.13-.75.07.02.34-.45.51-.55,1.59.35,1.48.07.27-.25.1-.34.3-.33.72,0,.79.08,1.27.19,1.03.08.76-.06,1.82-.07.55.35,1.07.34,1.57,0,.46-.3.73-.31.87-.02.41.76,1.44-.24,1.73.36.36.32.69.24,1.14l.62.17c-.4.47-.2.79-.24,1.26-.03.37-.31,2-.27,2.32.09.73.94,1.39-.01,1.72,1.25.99.28,1.51.21,2.29-.03.29.31.37.32.66,0,.13-.55,0-.35.43l.49.25c-.43.75-.19,1.02-.07,1.65s.26.57.26.61c0,.2-.23.7-.24.98h-.61s-.29.87-.29.87c-1.02.13-1.84-.64-2.67.16-.38-.55.12-.94.1-1.23,0-.15-.72-.71-.73-1.12,0-.31.57-.71-.07-1.22.71-.23.48-1.59.23-2.13-.17-.37-.67-.22-.58-.83.01-.08.28-.07.31-.17.03-.09-.07-.35,0-.54.12-.29.75-.55.03-.85l.35-.87-.52-.09c-.14-.36.19-.88.18-1.12,0-.1-.27-.09-.29-.14-.05-.11.3-.37-.23-.31v-.17c.61-.05.41-1.24.52-1.74l-.87-.09c.4-.1.32-.53.53-.87l-.53-.09c.01-.69.53-1.39.65-1.96.15-.74-.92-1.83.23-2.04,0-.41-.67-.66-.69-.7-.05-.09.26-.36.27-.59.02-.47-.47-.83.07-1.31l-.7.17v-.86s.69-.27.69-.27l-.35-.17.35-.26h-.52c.75-.74.27-1.19.35-1.81.04-.3.4-.51.36-.88-.01-.1-.3-.08-.34-.18-.02-.05.17-.75-.02-.96-.48.03-.8.4-1.22.61-.27.14-.77-.08-.7.43l-.17-.35-.82.49-.47-.49c-.83.32-2.05.44-2.97.51-.55.04-1.21.14-1.73.15-.47,0-1.77-.52-2.27.02-.11.12.11.79-.43.79l.84.69-.67.7c.56.19.2,1.4.24,2.06.07,1.1.59,2.16.3,3.34l.33.16c-.37.39-.43,1.06-.36,1.58.05.42.61-.02,0,1.03l.36.17v.35s-.35.35-.35.35l.36.2-.19,1.11h.52c-.19.57.05.88-.7.96l.7.26c0,.44-.67.65-.69.7-.06.11.27.27.3.45.07.42-.52,1.03.22,1.2-.6.24-.74,1.62.17,1.66-.43.55-.67,1.69-.35,2.31.3.57.36,1.05.24,1.89-.25,1.85-1.07,1.58-2.67,1.71l-1.12-2.13.07-.65c-.93.22-.56-1.41-.58-1.98-.02-.77.04-1.42.03-2.12,0-.4-.55-.6-.07-1.12.35-.39.52.11.26-1.03h-.69s.35-1.66.35-1.66c-.82.28.22-1.14.27-1.47s-.55-.84.25-1.57h-.52c.43-.92-.12-1.45.17-2.44-.32.14-.46.26-.69-.08.4-.43.21-.89.27-1.33.02-.18.22-.31.25-.42.03-.1-.32-.05-.35-.19-.12-.48.3-1.03-.35-1.19l.69-.69c-.45-.33-.14-.93-.21-1.22-.01-.05-.41-.27-.45-.93-.02-.46.33-1,.28-1.16-.03-.1-.28-.1-.31-.23-.39-1.57.12-2.72.33-4.13.04-.29-.22-.74,0-1.12h-.7c.13-.2.14-.55.26-.7.39-.46.84.32.46-1.33-.16-.69-.41-.71-.15-1.59.02-.05.49-.08.12-.91l-.52.18c-.28-.77,1-1.42.17-1.67l.15-.33c-.44-.15-.2-.44-.33-.86l.53-.27c-1,.07-.32-.28-.26-.61.08-.43-.27-.73.26-.87-.62-.69-.83-1.74-.52-2.6.24-.69.72-.52.16-1.47l-.33.16c-.43-.64.26-1.09.29-1.3,0-.06-.26-.73-.25-1.18.01-.54-.07-1.71-.04-1.95.02-.22.28-.4.28-.53,0-.12-.28-.25-.21-.43.31-.74,1.45-.67,2.06-.88.19-.07.13-.51.65-.33Z"/><path d="M220.73,27.99l-.68.02c-.08.29.28.09.33.25.06.22-.18,1.51.37,1.31v.17c-1.12.25-.27,1.31-.36,2.14-.11.91-.86,1.31-.02,1.94-1.06,1.2-.42,3.26-.48,4.78l.52.09c-.11.71-1.17,1.56-1.02,2.26.08.39.58.93.47,1.4-.03.1-.58.05.03.87l-.35.17c.53.34.51.84.65,1.4l-.65.25c-.2.43.3.3.33.43.04.17-.25,1.08-.24,1.4.02,1.15-.24,4.12-.08,4.84.03.14.36.04.36.36,0,.48-.08,1.32-.36,1.66l.69.17c-.58.02-.39,1.22-.69,1.66l.52-.09c.29.64-.52.87-.53.97-.05.53.68,1.4-.17,2.08l.36.17-.7,1.39.87.43c-.26.41-.64,1.31-.52,1.79.04.16.37.05.37.37,0,.6-.98,1.64.16,1.49-.45,1.31-.51,2.24-.21,3.58.07.31.37.62.37.85.02.47-.74,1.17-.69,1.39.05.2.68.24.52.43-.56.34-.67.55-1.3,0-.09.4-1.63.55-2.01.45-.33-.09-.35-.62-.85-.46-.17-.31.39-.8.34-.87-.02-.02-.25.04-.31-.08-.1-.21.27-.76-.56-.62-.06-.75.64-.93.79-1.48.02-.07.09-1.3.09-1.38-.05-.9-.5-.75-.53-.79-.06-.1.35-.32.35-.6,0-.2-.25-.36-.27-.52-.07-.67.3-.98-.6-1.57l.36-.18c-.14-.45-.49-1.32.15-1.3v-.25s-.51-.35-.51-.35c.79-.51.43-1.82.99-2.61l-.82-.52.7-.35c.17-.47-.3-.42-.32-.52-.04-.16.24-.55.24-.7,0-.16-.23-.33-.2-.6.06-.51.57-.66.28-1.22l-.34.17c0-.61-.17-1.44.52-1.65l-.35-.17c.43-.75.99-2.69-.35-2.7-.06-.07,1.21-1.36.87-1.56-.46-.27-.46.3-.69.35.09-.7-.36-1.35.17-1.91l-.35-.09.35-.61-.35.09c-.09-.35.7-.83.71-.89.02-.34-.29-.8,0-1.28l-.35.18c-.29-.65.51-.87.52-.97.01-.12-.15-.39-.14-.64.03-.84.09-1.7.12-2.54l-.67-.28c.2-.38.2-.51.69-.44-.67-.84.08-1.82,0-2.78h-.7c-.01-.52.71-.91.79-1.04.14-.25-.29-.48.23-.6l-.33-2.53c-.22.1-.93.12-1.02.21-.07.07,0,.33-.06.43-.22.31-.8,0-1,.13-.26.16-.61,1.05-.88,1.22-.45.27-.89-.14-.86.96-.34-.21-.95-.02-.87-.52h-.17c-.26.93-.74.92-1.57.79-.44-.07-2.38-.96-2.76-1.25-.13-.1-.18-.39-.27-.42-.73-.24-.17.85-.87.53-.29-.14-.3-1.06-.87-1.05-.05,0-.18.62-.78.35-.01.33.51,0,.22.43l.48.09c-.02.3-.32.09-.45.51s-.13,1.58.45,1.66c-.77.66-.56,1.28-.6,2.09,0,.15-.21.34-.2.51,0,.37.6,1.02-.07,1.23-.04.87.69.79.7.85.03.25-.18.67-.52.62l.52.43c-.82.75-.28.94-.23,1.4.02.23-.39.6-.41.89-.03.32.28.77.22,1.26-.04.31-.34.53-.26.89l.53.1c.38,1.03-1.2,2.16-.01,2.69v.17c-.42-.04-.37.14-.35.52l.7.17c-.11-.09-.67.62-.69.66-.53,1.2.34,1.44.34,1.53.02.56-.51.83-.52.89-.1.51-.05,1.27-.35,1.86.57.05.34,1.22.39,1.29.05.08.37.08.46.31.28.7-.91.7.02,1.01l-.69,1.06.35.17c-.82.53-.6,1.14-.45,2.01.04.21.28.38.28.59,0,.12-.3.06-.41.31s0,.63-.12.9l.87.18c-.06.47-1.04,1.16-1.06,1.24-.11.66,1.1,1.71.01,2.41.49-.06.32,1.27.21,1.58-.1.27-.39.26-.39.35,0,.33.39.97.35,1.54-.05.66-.33,2.07-1.06,2.25-.63.15-1.15-.27-1.2.45l-.69-.69-.35.69c.02-.29-.85-1.07-.87-1.17-.05-.23.02-1.37.04-1.73.04-.58.08-1.24.13-1.86.06-.7,1.01-2.01-.36-2.02l.18-.86h.69s-.36-.79-.36-.79l.35-.09v-.35c-.95,0-.73-.59,0-.96l-.52-.26c.28-.33.4-.7.3-1.13-.02-.09-.23-.07-.26-.17-.18-.65,1.8-1.44.13-1.65.34-.45.6-1.24.53-1.8,0-.07-.48-.5-.45-1.24.03-.57.91-1.32-.08-1.73.21-.46.4-.56.87-.7l-.86-1.23c1-.68.29-1.75.86-2.68h-.7s.15-.68.15-.68l-.33-.02.35-.34-.35-.09c.5-.47.84-1.18.69-1.88-.03-.15-.28-.11-.32-.21-.09-.23.41-1.03.44-1.46.05-.73-.43-1.25-.44-1.32-.1-.46.03-2.51.32-2.96l-.35-.17.35-.17-.35-.17c.2-.35.19-.78.69-.79l-.52-.17c.17-1.04,1.09-2.41.88-3.53-.02-.12-.27-.11-.29-.17-.13-.31.07-.6-.38-.72.11-.73.38-1.19.85-1.75l-.52-.69.35-.26-.34-.08.63-1.59c-.12-.54-.02-1.66.39-1.88-.14-.39-.24-1.69-.16-2.07.03-.13.28-.12.4-.33.1-.16.06-.58.14-.64.21-.17,1.65,0,1.99-.1.4-.11.55-.45.95-.44.03.45.1.64-.35.78.23.62.81.79.72,1.47l.48.03c-.38,1.42,1.37,1.3,1.24,2.6l1.04-.18c-.09,1.71.59.77,1.31.77.28,0,.52.23.96.2,1.07-.07,1.11-.97,2.08-.89l.18-.52-.35-.26,1.66-.7-.1-.87c1.15.11,1.58-.56,1.75-1.56l.86.17-.13-.26c.43-.14.12-.38.15-.41.23-.28,2.32-.93,2.67-.56.49,1,.55,1.65,1.57,2.27l-.11.51Z"/><path d="M49.56,22.79l-.09.52c.41,0,.41.24.48.28s.24-.1.27-.07c.32.25.28,1.59,1.09,1.8l-.36.77,1.04.36-.17,1.2.52-.17c.06.49-.35.84-.36,1.31,0,.33.36.16.39.51.04.6-.34,1.29-.19,1.89.03.13.34.1.35.23.03.28-.28.72.02,1.08l.85.02c-.17.98-.77,1.32-.58,2.41.16.88,1.1,1.84.68,2.74-.09.19-.35.2-.4.28-.24.37.53,1.08.99.84v.17c-.5-.07-.19.25-.34.58-.05.12-.34.11-.34.19.02.41.41.97.15,1.49h.7c-.23.84-.54,2.76.35,3.13v.17c-.43-.15-.36.77-.33,1.1.05.64.57,1.5-.01,1.94.26.42.49.13.87.09l-.21.84-.49.03c.33.38.59,1.52,0,1.64.68.73.21.98.2,1.39,0,.5.36,1.11-.2,1.22l.71.55c.07.44-.61,1.23-.64,1.54-.02.24.15,1.38.54,1.29l.08.27c-.78.4-1.11,1.14-.18,1.56-.28.49-.56,1.22-.69,1.76-.31,1.24-.67,2.19-.97,3.36-.16.63.2,1.19-.58,1.07.22.49-.34.57-.48.97-.17.47-.5,2.04-.71,2.45-.41.82-1.64.73-.74,2.13-.77-.02-.53.75-1.22.35.16,1.18-.6,1.08-1.57,1.22l.35.52c-.69.09-1.53.12-2.18-.17-.37-.17-.92-.73-1-.75-.24-.08-.5.12-.74-.11-.26-.26-.1-.84-.29-1.02-.2-.19-.56-.03-.63-.08-.47-.34-.17-1.38-.29-1.52l-.79-.07-.28-.44.45-.7-.69.35-.15-.85.32-.19c-.41.03-.54-.46-.61-.78-.15-.62-.03-1.73-.15-2.19-.1-.39-.54-.39-.61-.62-.15-.46.47-1.06.16-1.63l-.52.17c-.08-.43.15-.84.13-1.26-.03-.51-.44-1.05-.48-1.45s.26-.81.04-1.27l.31-.02c-.54-.55-.26-.91-.17-1.56h-.52c.39-.48-.05-1.49.52-1.39l-.34-.25c.26-.68.48-1.36.53-2.1.06-.95-.38-1.45-.27-2.37.05-.42.69-.76-.44-.85l.31-.19c-.38-.71.47-.93.53-1.11.06-.17-.01-2.28-.5-2.26l.52-.87-.69-.43.36-.11c-.3-.72.45-1.21.34-1.97l-.52.17c.28-.49-.07-1.04.03-1.43.05-.19.3-.36.35-.54.17-.55.56-1.93-.21-2.03v-.17c.5.07.19-.23.31-.46.19-.37.78-1.14.87-1.41.2-.61-.26-1.98.73-2.57l-.52-.17c.49-.24.36-1.05.39-1.1.04-.06.33-.11.46-.3.49-.78.06-1.18.18-1.69.07-.29.26.21.35-.88.01-.14.31-.12.37-.24.15-.32.29-1.03.51-1.35.26-.38.88-.74,1.07-1.21.12-.31-.08-.56.07-.79.28-.44.81-.68,1.11-.9.02-.02-.12-.35,0-.55s.57-.29.71-.56c0-.15-1.1-.64.09-.86.54-.1,1.1.18,1.57.19.27,0,.69-.36,1.12-.11ZM48.04,29.19c-.04-.11.34-.96-.21-1.29l-.87.28.15.43c-.59.16-.09.44-.26.9-.1.26-.59.37-.58.48,0,.05.36.23.32.49-.06.38-.65,1.32-.76,1.69-.21.72-.57,1.88-.72,2.55-.07.31.2.73-.06,1.1h.39s.13.44.13.44c-.56.09-.11.39-.26.61-.08.12-.41.1-.45.29-.03.13.13.39.09.6-.07.36-.32.69-.27,1.11.06.49.51.28.53.61l-1.05.62c-.12.71.56.53.36,1.36-.04.18-.53,0-.35.46l.69.17c-.51-.08-.04.54-.69.53l.35.51c-.79.11-.88.91-.68,1.55l.86.02c.06.04-.46,1.12-.51,1.33-.19.86-.04,1.58-.04,2.23,0,.46-.21.99.03,1.48h-.53s.37,1.15.37,1.15c.08.32-.35.23-.36.25-.07.1.27.27.3.45.04.25-.19.55-.14.82.02.12.35.1.37.22.05.38-.42,1,0,1.54l-.36.18v.26s.35.08.35.08l-.35.78.69.18c.07.29-.21.11-.3.2-.04.04.04.8-.22,1.01l.7.18c-.45.99-.52,1.96-.16,3,.05.15.34.14.33.21-.03.2-.28.43-.28.85,0,1.11.94,2.21,1.08,3.07.04.25-.44.58-.25.86.04.06.47.11.6.37.17.32-.21.67.05.96,1.08.99,1.22-.26,2.1-.62.14-.61-.77-.23-.33-.91.09-.15.49-.41.61-.62l.42.14v-.35c-.43.19-.3-.62-.19-.76.14-.19.6,0,.72-.54l-.35-.26c.87-.15.48-1.08.57-1.61.12-.78,1.13-1.19.35-2.13l.82-.62c-.62-.78-.09-1.47-.08-2.15,0-.84-.58-1.53.26-2.01l-.52-.17c.16.12.67-.75.68-.81.04-.19-.26-.36-.27-.5,0-.07.42-.9.44-1.23,0-.08-.27-.07-.38-.29-.08-.17-.1-1.09-.16-1.15-.06-.06-.21-.02-.31-.03v-.17c.42.15.53-.77.49-.96-.03-.12-.33-.02-.33-.33,0-.38.28-.81.28-1.13s-.45-.74-.1-1.31l-.68-.37c-.14-.65.52-.8.51-.85-.02-.12-.21-.34-.25-.59-.1-.67.01-.87-.61-1.5l.52-.43-.32-.08c.48-.66-.36-1.31-.35-1.39.09-1-.18-1.65-.48-2.4-.06-.14.23-.25-.25-.41l.37-1.03-.53-.52c0-.32,1-1.49.16-1.23.78-.9,0-1.22-.09-1.81-.04-.23.59-1.17-.06-1.31l.16-.44h-.52c-.02-.64.22-1.58-.01-2.13-.06-.13-.29-.14-.3-.16Z"/><path d="M86.05,24.41s.05.29.14.3c.98.04.94-.77,2.21.51.83.84.59,1.55.99,2.14.33.49.82,1.28.95,1.95.03.15-.12.37-.07.44l.34-.17c-.01.17.13.33.14.48.03.24,0,1.63.06,1.74.04.07.32.1.4.22.26.37.26.68.74.94l-.44,2.62c.26.08.44.96.53,1.36.13.58.06,1.24.32,1.85l.35-.18s-.17.92-.13,1.13c.02.11.24.08.27.17.23.95-.49.95-.48,1.05.56.64.1.74.09,1.14-.01.5.34.96.38,1.32.3,2.46.4,4.56.46,7.08.02.67.58,1.27-.24,1.94l.35.26-.35.09c.57.15.17.28.25.61.14.58.59.97-.25,1.3,1.23.79-.03.83-.17.96-.06.06.2,1.17.13,1.59-.11.69-.74,1.43-.76,1.62-.03.29.2,1.39.63,1.39-.8.63-.71,1.48-.95,2.27-.06.22-.4.38-.41.51,0,.1.44.39.3.6-.31.46-.26.75-.53,1.12-.16.23-.49.3-.58.46-.18.3-.05.76-.28,1.11-.19.3-1.07.43-.14.89.04.65-.54.54-.66.64-.38.33-1.07,1.24-1.63,1.77-.45.42-.85,1.3-1.63,1.29-.62,0-1.53-.75-1.75.03-.84-.73-1.38-.97-2.43-1.23l-.26.36c-.55-.72-.64-2.09-1.74-1.91.59-1.34-.65-1.4-.7-1.48-.19-.33-.09-1.51-.34-1.99l-.87.17c-.06-.57-.02-.95.35-1.39l-.52.17c.07-.44-.18-.81-.26-1.19s-.29-.92-.29-.97c-.02-.53.58-1.02-.03-1.61-.1-.1-.37-.07-.55-.23-.64-.56.05-.49.07-.52.04-.05-.27-.33-.28-.6-.01-.36.37-.73.28-1.03-.06-.21-.41-.2-.48-.37-.19-.45,1.2-2.22-.2-2.18-.11-.1.3-1.97.27-2.17-.02-.17-.27-.31-.27-.35,0-.14.43-.2.49-.29.22-.36-.25-.95-.28-1.31-.03-.34.22-.71.13-.98-.08-.24-.47-.21-.48-.37-.03-.31.19-.9.23-1.21.03-.19-.13-.46-.09-.69.08-.38.44-1.24.69-1.58l-.52-.09c-.09-.39.23-.66.3-.98s-.41-.53.22-.67l-.7-.17c.59-.12.18-.88.27-1.32.12-.55.85-1.56.93-1.84.06-.22-.3-.72-.35-1.18-.1-.99.67-1.98.67-2.09,0-.14-.36-.31-.3-.43.04-.08.8-.35.83-.38.11-.08.9-2.19.92-2.5.03-.37-.19-.8-.15-1.02.04-.24.67-.7.78-1.11.08-.28-.13-.69-.07-.83.18-.42,1.76-1.15.81-1.99.19,0,.41-.11.53-.25,1.34-1.6,1.4-3.42,3.74-4.28.22-.08.38-.08.6.01v-.52c.18,0,.32-.03.48.06ZM85.92,28.52c-.77-.27-.6.79-.75,1-1.03,1.44-.81,1.28-1.22,2.88-.12.45-.34,1.65-.46,1.89-.11.22-1.18.81-1.17,1.09,0,.12.38.31.29.66-.05.19-.37.33-.47.6-.23.65-.17,1.89-.47,2.64-.07.18-.34.23-.43.63-.08.37.15.95.25,1.3-.08.59-.87.05-.61.93.04.14.38.05.37.37-.02.48-.88,2.36-.54,2.7.09.09.74-.19.7.17-.51-.06-.1.71-.87.7l.52.43c-.75.64-.47.99-.58,1.6-.07.35-.32.81-.26,1.19.04.28.34.5.31.67-.03.19-.44.35-.46.54,0,.05.39.59.12.96h.52s-.52,1.31-.52,1.31l.87.26-.21.84-.49.03.2.85.49.02c-.12.64-1.32,1.38-.16,1.48l-.17,1.88.26.26.41-.14-.02.86c-1.22-.04.06.76.19,1.02.17.36.43,1.33.59,1.73.02.04.25.05.28.17.21.82-.35.78-.34.83.02.18,1.58,1.74,1.04,2.52h.7c-.43,1.51.81.47,1.13,1.4l.91-.57-.13-.3.69-.27-.52-.43,1.74-1.66c-.78-.36,0-.62.14-.82.05-.07-.09-.8.03-1.07l.53-.11c-.23-.57-.11-.9.35-1.3-1.62-.52.04-.85.24-1.35.31-.81-.4-1.21-.41-1.28-.15-.71.49-.75.87-1.19-1.57-.09-.47-.56-.34-1.05.19-.69-.23-1.66-.16-1.91.02-.06.68-.48.67-1.05l-.52-.44c.3-.55.44-1.57.3-2.16-.02-.07-.63-.12-.14-.83.15-.22.9-.38.4-.82h-.39s-.15-1.31-.15-1.31l.67-.26c-.88-.86-.28-1.75-.52-2.78l-.52.17c-.07-.66-.08-.84.52-1.13-.46-.64-.82-.53-.51-1.37l-.36-.19c.94-.87-.09-.99-.16-1.24s.27-.73.01-1.1l.32-.19h-.87c.04-.76.44-1.18.53-1.81l-.7-.37.67-1.75c-.24-.42-.49-.12-.85-.08l.15-1.84c-.42-.16-.46-.42-.5-.86l-.35.09c.51-1.02.32-2.28-1.04-2.09l.52-.43-.52.09.35-1.22Z"/><path d="M126.88,21.32c.55.58.95.66,1.58,1.11l.61-.68c.16.43.6.95,1.04,1.06l-.17.5c.87-.3,1.87.71,1.39,1.57l.34-.18c-.07.97.59.8.67.88.07.07.19,1.65.02,1.9l.7-.08c.1.6-.7,1.41-.65,2.3.02.32.4.56.31.98-.04.16-.37.16-.45.28-.15.24-.17,1.29.26,1.31-.84.53-.82,1.94-1.34,2.53-.05.06-1.21.91-1.29.92-.69.11-1.53-.66-1.55-1.36s.45-1.7.51-2.26c.05-.51-.41-.72.13-1.48.11-.16.69-.2.38-.67-.05-.07-.34-.09-.4-.19-.14-.23.48-.65-.43-.54l.52-1.39c-1.26.03-.64-.98-.69-1.04-.05-.05-1.09-.3-1.35-.57-.18-.19-.18-.65-.48-.82-.82.73-2.45.78-2.74,1.88l-.48.03.35.69-1.04.18.52.43c-.21.38-.95.36-1.13.6-.06.09.06.36,0,.53-.45,1.23-.07.75-.14,1.51-.08.9-.52,2.21-.61,3.1-.09.81.51.78.49.87l-.52.87,1.22.44c-.44.58-.25,1.08-.17,1.74l.31-.12.12.27.41-.14c.48.44.06.9.11,1.03.06.19.41.45.52.71s-.07.58.14.8c.16.18.56.24.77.46.26.28.42.72.71.99.44.39,1.33.55,1.44,1.21l.33-.02.1-.33.53.18c-.21.99.32.72.89,1.29.07.07.03.31.11.39.32.38.77.55.82,1.28l.43-.33c.65.32.25.76.32,1.08.11.48.89,1.81,1.51,1.51-.58.89.54,1.54.63,1.9.1.42-.14.95.08,1.43.1.22.78.63.81.7.03.06.05.94.23,1.18l.34-.17c-.04.36.25,1.18.14,1.48-.04.12-.36.01-.31.33.09.59.62,1.6.65,2.47.02.65-.84,1.32.57,1.45-.33.45-.17.9-.25,1.22-.06.23-.37.43-.38.61-.02.28.44,1.09-.06,1.65h.69c.19.8.12,1.55-.86,1.57.57.57.08.61-.06,1.04-.22.71-.21.89-.81,1.48l.35.26c-1.09.17-1.3,1.16-1.81,1.75-.24.28-1.88,1.56-2.19,1.38v.51c-.57-.3-.61.52-.81.55-.17.02-.43-.16-.65-.14-.35.04-.74.49-1.16.48l.18.52c-.68.35-.86-.27-1.3-.29-.52-.02-1.53.52-1.91.56-.74.06-2.31-.76-3.04-.89-.29-.05-.37.37-.7.27l.09-.35c-.63-.08-.67-.4-1.05-.84l-.44.25c-.37-.25-.18-.78-.33-1.01-.29-.43-1.31-.54-1.24-1.35l-.61.34c-.47-.35-.33-.89-.44-1.39h-.61c-.12-.19.07-.39.03-.58-.22-1-.55-2.06-.24-3.16.01-.05.58-.33.31-.95l.52.18.17-.62c.82-.18.78.32,1.13.63.17.15.51.12.58.2.11.12.04.62.2.89.11.18.48.22.62.47.13.22-.06.97.12,1.18.07.08.42.06.58.19.47.38.14.85,1.29,1.33.63.26,1.35.44,2.02.75.59.27.49.46,1.31.65.17.04.43.29.5.25.03-.02.02-.4.39-.57.47-.22,1.03,0,1.47-.29l.08-.52c.56.06.61-.22.68-.71l.87.17-.1-.52c1.06-.68,2.21-.74,1.93-2.27l.79-.17c.1-.31-.26-.41-.3-.63s.15-.54.14-.84c-.02-.72-.52-.74.34-1.31-.89-.05-.27-1.37-.35-1.98-.03-.22-.61-.1-.52-.72.46-.05.46-.81.36-1.18-.06-.22-.65-.15-.35-.64l-.52.17c-.12-.84.76-1.08.4-1.86-.19-.41-.5-.18-.92-.22l.32-.19c-.27-.43.09-.89.03-1.26-.01-.08-.54-.23-.35-.64l-.33.16c-.4-.8.44-1.63-.86-1.75l.15-1.19-.86.17c.03-.36-.33-.61-.42-.86-.07-.18.1-.42.04-.59-.07-.21-.34-.21-.44-.35-.09-.13-.01-.34-.16-.47-.23-.2-.89-.24-1.11-.43-.18-.16-.13-.45-.22-.56-.15-.17-.53-.12-.62-.25-.1-.15.04-.48-.2-.75-.04-.04-.93-.55-.99-.56-.19-.03-.5.18-.58.13-.06-.04-.39-.96-.56-1.28-.32-.6-1.15-1.73-1.69-2.26-.17-.16-.45-.04-.54-.23-.28-.54.16-1.89-1.03-1.62l.35-.34h-.33c.43-.84-.53-1.37-.59-2.29l-.96-1.28c-.1-.74.71-.71.34-1.22l.33-.08-.31-.19c.19-.49-.05-.96-.03-1.45s.17-1.47.23-1.93c.03-.2.37-.32.43-.55.09-.35-.28-.89.38-1.36l-.33-.1.33-.67h-.35s.67-1,.67-1l-.49-.57c1.18-.06.56-1.37,1.57-1.13-.01-.8.72-.25.68-1.05.39-.2.78.18.74-.57l.49-.03v-.35s-.35-.09-.35-.09c.44-.89.54-.37,1.06-.54.15-.05,1.27-.59,1.33-.64.16-.15.15-.5.3-.65.27-.26.86-.03,1.06-.68h.34c.3.64,1.03.62,1.14-.18.25-.06.12.14.24.27Z"/><path d="M234.88,25.52l1.43-.11.27.5.43-.33c.15.42.96.57,1.04.67.17.2.15.5.39.71.35.31.9.26,1.06.37.18.13.29,1.37,1.06,1.38l-.14.65.49.3c-.41.89.12.89.17,1.07.14.48.07,1.23.19,1.65.04.13.46.28.59.73.14.5.07,1.14.09,1.66h.7c.08.28-.24.12-.28.21-.04.07-.36,1.04-.36,1.1.02.18.4.33.45.55.08.29-.44.8-.29,1.18.04.1.31.03.33.34.02.36-.09.7-.2,1.04l.37.19-.88,1.57.35.08c-.63.38,0,1.79-.12,2.03s-.92.98-1.16,1.44c-.13.25.01.66-.27.97-.21.23-.56.17-.72.36-.56.67-.79,3-2.25,2.32.31.66-.79.54-.97,1.23l-.95-.36c.12.62-.16.42-.45.6-.08.05-.07.25-.15.25-1.32,0-.74.27-1.05.35-.39.11-1.46-.36-1.9-.32-.29.07-.04.77-.62.69l.36.43c-.37.89-.66,1.7-.54,2.7l.7.17c-.64-.05.09.9-.87.7l.32.19-.15.33.52.17c-.53-.08-.07.84-.87.52-.04.34.25.43.32.78.11.54-.31,1.01-.33,1.57-.02.59.43-.15.7.18l-.29.63-.76-.02c.42.44.19.71.25,1.22l.62.17c.18.52-.75.47-.86.81v3.02s.69-.17.69-.17l-.26.88-.44-.02.02.34.34.1c0,.26-.39.55-.44.94-.11.78.44.63.61.71.05.03-.19,1.03-.52.95l.52.17c-.13.43-.66.99-.7,1.39-.05.54.54.03.52.43-.36-.05-.41.42-.62.48-.34.1-1.17-.35-.8.45l-.4.28c-.37-.32-.98-.27-1.31-.45-.15-.08-.15-.45-.51-.53-.29-.07-.65.1-.68.08-.24-.14-.4-.8-.02-1.01l-.35-.09c.54-.64.17-1.24.24-1.72.12-.75.55-1.5.65-2.26l-.71-.28c.36-.55.99-1.92.18-2.09v-.17c.92-.26.95-2.04,0-2.35.29-.34.55-.64,1.04-.61l-.7-.35.36-1.12-.36-.18.35-.43-.52.17c-.08-.35-.12-.73.01-1.08.03-.06,1.11-1.29.16-.84l.69-3.92-.5-.49c.07-.37.56-.65.65-.94.44-1.53-.12-3.2-.05-4.57.02-.5.56-1.3-.09-1.21v-.34c.49.1.14-.33.33-.44l.54-.09c-.63-.62-.11-1.16-.18-1.91l-.35.18.09-.54-.44-.17c-.11-.13.56-.74.62-.87.08-.18-.23-.3-.19-.52.05-.31.59-1.14.35-1.57-.19-.33-.78-.24-.51-.77s.57-.25.59-.28c.04-.05.31-1.03.32-1.14.05-.57-.48-.58-.48-.67,0-.24.41-.84.46-1.29.06-.52.11-1,.17-1.49.07-.58-.53-2.59-.4-2.96.03-.1.3-.07.32-.2.07-.45-.48-.83.34-.94,0-.38-.36-.51-.35-.93,0-.17.49-1.59.56-1.64.35-.26,1.41.13,1.18-.73l1.21.35.17-.61.18.26h.35c-.26-.57.14-.39.51-.51-.16.96.88.43.71-.18l1.08.83ZM236.41,30.43c-.09-.08,0-.73-.66-1.17s-2.34-.9-3.12-1.01c-.33-.05-.75.04-1.1-.07v1.04s.7.28.7.28c-.07.31-.16.64-.53.6l.35.61c.03.26-.57.28-.23.91.12.23.41.22.41.31,0,.3-.47,1.01-.33,1.52.07.24.41.38.43.55.04.29-.38.66-.39.88,0,.09.21.23.19.44-.07.68-.28,1.36-.26,2.06,1.08.03.39.52.51,1.11.03.14.38.05.37.37-.02.43-.47,1-.53,1.6-.05.47.37.85-.18,1.19l.69.09-.7,1.3.52.09-.35.34.32.08c.15.62-.68.98-.68,1.05.01.24.28.39.32.56.05.32-.18.71.04,1.08.29.08.12-.25.2-.29.21-.11.96-.11.93.3l.26-.87h1.1s.2.35.2.35c.38-.53.1-.86.96-.7-.21-.05.16-.8.19-.84.05-.07,1.41.11,1.21-.97l-.36-.11c-.18-.11.59-.4.76-.54.66-.56.2-.96.35-1.6.08-.35.4-.67.42-.93.02-.21-.37-.6-.25-.85s.48-.2.55-.57c.08-.43-.2-1.18-.2-1.66,0-.27.28-.56.25-.87-.04-.42-.65-.77-.76-1.15-.12-.41.08-1.82-.12-2.4-.02-.04-.61-.38-.7-.61-.16-.42-.08-1.36-.29-1.86-.26-.09-.13.67-.52.35Z"/><path d="M71.86,24.67c.11.09.43-.03.62.08.08.05,1.35,1.14,1.46,1.25.13.13-.1.43.34.54l-.17.51c.54.21.38,1.23-.01,1.64.74.13.34,1.56.53,2.17l-.5.12c-.38,1.01-.2,1.67.02,2.67.02.1.25.08.27.18.01.05.04.96.03,1.01-.02.09-.56.34-.52.64l.7.18c.02.3-.63.68-.65.73-.03.07-.07,1.41-.06,1.62.01.54.34,1,.01,1.56l.26.22.43-.13c.18.62.01,1.57-.69,1.75v.25c.72.4.27,1.58,0,2.18h.53c.02.67-.58,1.04-.55,1.66.02.3.3.26.31.29.08.3-.27.72.4.92-.61.49.01,1.18-.52,1.57.69.23.4,1.04-.35.96.63.56.31.68.36,1.27.04.47.48.88-.19,1.07.51.59.07.88.06,1.42-.01.48.36,1.45.27,2.07l-.32.16.52.27-.52,1.04h.7c-.25,1.22-1.53,2.08-.35,3.22l-.69.27c.22.48-.01,1.3.52,1.47-.4.31-.61.61-.52,1.13l.7.09c-.42,1.11-1.3,1.32-.87,2.7h-.7c0,.37.14.76-.34.7v.34s.52-.17.52-.17l-.27,1.04-.95.27c-.09.48.98.22.17,1.06-.94-.18-.53-.01-.95.42-1.32,1.36-1.77,1.64-3.58,2.32-.25.09-.46-.26-.61.3l-1.12-.53-.09.69c-.48-.08-.79-.66-1.02-.81-.89-.6-.86.17-1.01.26-.4.25-1.29-.77-1.2-1.19l-.32.15c-.16-.69-.47-1.37-.67-2.02-.34-1.08-.46-.98-.75-1.67-.14-.34-.12-.78-.25-.98-.26-.41-.67.17.02-1.13l-.61-.84c.5-.47.64-1.59.17-2.09-.19-.2-.48-.07-.54-.11-.06-.04.1-1.26.23-1.35.11-.08.37.03.49-.14.16-.24-.21-.68.33-.59l-.3-.2-.03-.48c.59.05,1.05-.72,1.36-.81,1.56-.45,1.22.85,1.75,1.93.36.28.59-.13.88-.26l.15,1.02c-.47,0-.55.64-.46.98.03.11.31.07.32.19.05.44-.38,1.69.51,1.81-.83.84.07,1.06-.35,1.91l.7-.17c-.19.46.26.81-.35.95.09.35.45.44.6.63.13.18.08.48.11.51.02.02.35-.18.58-.16.79.05,1.47.73,2-.12.49-.78.72-.77.91-1.05.09-.12.53-1.52-.02-1.36.62-1.13.68-2.5,1.59-3.47,0-.36-.17-.69-.19-1.05-.01-.21.14-.45.11-.68-.01-.1-.31-1.4-.35-1.47-.03-.05-.21-.03-.29-.03l.34-.34c-.83-.06,0-1.3.1-1.66.07-.23-.13-.58-.08-.85.15-.95.51-1.36.01-2.46l.32-.25-.35-.09.87-1.4c-.37-.11-.28-.34-.42-.54-.07-.1-.26-.07-.27-.08-.05-.08.39-.37.35-.76-.04-.33-.4-.45-.47-.79-.04-.19.65-1.69.46-2.17l-.52-.17c.37-.47,1.09-1.27.18-1.48-.07-.31.29-.11.34-.17.35-.37-.44-.28-.35-.52.96-.19-.11-1.57-.09-2.36.01-.52-.02-1.27,0-1.66.04-.67.25-1.67.43-2.33l-.53-.18c-.22-.65.36-.61.48-.89.29-.66-.35-.84-.44-.97-.04-.06.1-.25.07-.36-.08-.26-.29-.42-.3-.73,0-.07.19-1.3.21-1.37.09-.26.49-.22.5-.39.01-.13-.16-.44-.13-.75.06-.57.55-.61-.22-1.15l.35-.17c-.53-.6-.01-.71-.03-1.01-.03-.39-.67-.81.02-1.42-.14-.15-.17-.24-.4-.23-1.08.08-2.19,1.26-3.27.74l-.77.63c-.52.09-.38-.3-.56-.35-.31-.09-1.56-.28-1.53.17-.24-1.04-1.45-.16-1.74-.18-.14-.01-.16-.41-.39-.51-.52-.22-.92-.39-1.42-.62-.85-.39-1.48.13-1.81-1.16-.12-.46-.02-.72.07-1.17.25-.22,1.66.66,1.81-.18.42.3,1.07.56,1.58.54.32-.01.2-.55.84-.37.19.05,0,.43.28.35v-.52s1.55.61,1.55.61c.57-.02.63-.59,1.08-.67.53-.09.88.29,1.25.24.11-.01.12-.3.24-.34.85-.32,1.67-.36,2.22-1.23l.78.53.26-.52.61.35.44-.52c.26.11.2.59.29.67Z"/><path d="M191.28,25.8c.89.54.61,1.28.9,2.14.09.26.37.24.38.35.04.37-.31.96-.36,1.36l.52.09c.21.57-.46.85-.48.94-.07.38.3,1.15.83.97-.09.91-.56.59-.7.69-.06.05.55,1.17.17,1.56h.52s-.48.82-.48.82c.41.75.62,1.05.5,2.07-.04.32-.3.22-.32.33-.16.76.53,2-.21,2.26l.7.52c-.83.29-.38,1.05-.44,1.57-.16,1.5-.55,3.76-.15,5.31.18.68.33.03.58.17l-.07.7-.63.17.52.43-.35.17.33.17-.49,1.23.67.53c-.3.61-.36,1.4-.3,2.07,0,.11.25.08.27.17.07.4,0,.93-.31,1.22.76.28.38,1.49.15,2.09l.37.34c-.22.5-.93,1.33-.18,1.57v.26s-.35.09-.35.09v.25s.36.12.36.12l-.18,1.28h.7c-.22.82-1.58,2.24-.16,2.53-.01.96-.34,1.77-.32,2.73,0,.23.24.48.24.73,0,.37-.45.81-.08,1.28l.67.02c-.41,1.02-.77,1.82-.5,2.94l.48.02c.5.54-1.3,1.64-1.59,2.01-.92.4-1.22-1.05-1.61-.11-.66.01-.56-1.23-.62-1.46-.02-.06-.51-.26-.32-.87.06-.2.58.09.06-.8-.08-.14-.36-.16-.38-.21-.04-.07.16-.34.11-.54-.06-.26-.32-.5-.32-.75,0-.49.68-.24.53-.77l-.69-.18.48-1.01-.33-.13.17-.52-.35-.17.53-.95-.87.17c0-.3-.04-.63.03-.92.12-.47,1.1-1.27-.04-1.17.36-.43-.08-1.1,0-1.44.02-.08.65-.76.49-1.42-.03-.1-.27-.08-.35-.33-.15-.52.31-.93-.32-1.06.51-.1.05-.59.7-.61-.59-.52.07-.9.09-1.54.01-.3-.2-.5-.25-.81-.06-.41.34-.8-.36-1.03l.52-.7c-.62-.14-.26-.83-.18-1.29l-.68-.2.11-.3-.3-.14.65-2.11c.04-.59-.45-.55-.58-.83-.24-.51.39-1.05.4-1.23s-.3-.36-.22-.79.58-.19.45-.68h-.7c.19-.73.74-1.33.62-2.18-.07-.52-.93-1.08-.09-1.99h-.52c.11-.74.23-1.37.87-1.83-.98-.57-.26-.17-.02-.9l-.67-.85.34-.6h-.52c.22-.35,0-.85.13-1.17.2-.45.55-.44.68-.61.07-.09.19-2.12.15-2.31-.13-.73-.45-1.39-.36-2.18.05-.44.65-.07.25-1.07-.06-.16-.31-.14-.31-.21,0-.52.55-1.94.73-2.53.06-.22-.08-.44.03-.68.27-.59,1.1-.61,1.6-.3Z"/><polygon class="cls-1" points="16.33 32.17 15.81 32.09 16.33 31.65 16.33 32.17"/></g></svg>