<?xml version="1.0" encoding="UTF-8"?><svg id="Layer_2" xmlns="http://www.w3.org/2000/svg" viewBox="0 0 289.48 107.99"><defs><style>.cls-1{fill:#fff;}</style></defs><g id="mudcake"><path d="M32.7,8.92l-.15.64c.32.07.86-.23.84.25-.03.73-.53.6-.64.77-.22.37.19.99.22,1.37.03.47-.22,1.82-.08,2.12.07.14.3.12.3.2,0,.11-.17.31-.15.5.04.36.25.83.17,1.14-.03.14-.37.09-.34.19.07.22.47.51.5.84.04.43-.64,1.71-.5,2.39h.83c-.27.83-1.05,1.02-.83,2.04.02.08,1.15.89-.17.95.52,1,.27,2.3.16,3.39l.34.17c-.8.6.14,1.33.14,1.5,0,.11-.37.29-.44.53-.03.12.08,1.12.17,1.18l.46.03c0,.69-.95,1.12-.16,1.42.14.71-1.44,1.18,0,1.97-.45.67-.83,1.38-.64,2.22l.64.27c-.31.38-.79,1.4-.82,1.84,0,.07.42.06.34.31l-.35.99.47.34c-.11.59-.59,2.13-.46,2.63.05.21.69.29.64.85-.02.23-.24.38-.28.55-.49,2.57.02,5.06.12,7.89,1.01.68-.95.92-1.22,1.11-.19.13-.22.38-.3.45-.06.04-.26-.27-.38.21-.46-.33-1.06-.56-1.51-.9-.11-.08-.06-.26-.07-.26-.11-.07-.38.46-.66.33l.33-1.99h-.5s.22-.97.22-.97l.28-.19-.33-.17c.47.09.27-.8.5-1.16h-.5s.33-.25.33-.25c-.95-.43-.1-1.09-.06-1.32.04-.25-.28-.76-.26-1.16.02-.34.33-.7.28-.98-.05-.31-.69-.65.04-.85-.41-.52-.04-1.47-.66-1.67.57-.33.74-1.75.57-2.42-.06-.24-.36-.43-.38-.59-.03-.18.24-.37.26-.6.05-.48-.21-.85-.21-1.2,0-.14.23-1.28.59-1.08l-.3-.18c.15-.36-.08-.72-.03-1.04.08-.59.55-1.28.52-2.18-.01-.36-.53-.08-.19-.72l-.63-.43.45-.49-.15-.67.5-.09c.07-.27-.23-.12-.28-.19-.08-.12.19-.6-.38-.72.95-.38.04-1.49.21-2.12.09-.33.45-.61.43-.84-.02-.26-.42-.6-.4-.85,0-.16.34-.54.36-.91.01-.29-.44-.44.08-.76l-.33-.16.33-.75-.5-.08.18-.9h.48s-.2-.39-.22-.54c-.07-.4-.11-1.78-.14-1.88s-.31-.07-.31-.17c0-.15.5-1.83.84-1.82-.46-.23-.65-.47-.68-1.01s.34-.37.35-.51c.05-.43-.25-1.37,0-1.93l-.75-.45c-.36-.04-.21.03-.25.25-.09.54.19.94-.67.91l.33.25c-.31.54-1.16.55-1.5,1.03-.31.44-.38,1.51-.47,1.63-.42.55-1.53,1.16-2.08,1.58-.14.11-.22.41-.44.58-.31.24-.61.08-.64.1-.1.1-.07.48-.23.61-.43.37-1.7-.3-1.12.86-.9.14-.77-.3-1.07-.45-.08-.04-1.43.08-1.73-.08l-.87-1.29-.65.32c-.05-.29-.16-1.02-.32-1.22-.12-.15-.39-.09-.58-.29-.24-.24-.41-1.33-1.01-.48-.19.26,0,3.02-.09,3.64l-.46.03-.09.78-.28.19.33.08c-.1.26-.58.81-.6,1-.02.18.33.66.23,1.12-.09.39-.64,1.1-.73,1.45-.08.31.09.53.05.72-.07.37-.94,1.1.05,1.27v.16c-.75.12-.31,1.42-.43,2.01-.08.36-.46,1.53-.61,1.89-.04.1-.29.08-.29.18,0,.34.38.76,0,1.23l.66.25-.83.67v.33s.5.41.5.41c-.73.05-.32.5-.37.64-.01.03-.24.05-.29.14-.35.62.13,1.58.08,2.29-.01.2-.4.55-.25.91h.66s-.33.25-.33.25l.33.17c-.13.36-.93.23-.62,1.17.03.09.24.07.25.11.24.57-.81.64-.62,1.36.03.12.27.1.3.19.18.49-.63.76-.65.85-.04.28.29.63.29.98,0,.27-.3.58-.23.99.01.07.21.07.23.12.12.35.18,1.42.16,2.04-.01.37-.56.8.07,1.33l-.31.16c.16.36.09.71-.19,1l.33.16c-.96.82-1.84,1.77-3.15,1.91.04-.92-.24-1.48-.5-2.32l-.66.17c.17-.77.57-1.21.5-2.07h-.5c.07-.9.34-.6.65-.76.03-.02,0-.67,0-.71-.08-.24-1.33-.8.19-1.11l-.65-1.08.8-.68.02-.32c-.57-.2-.57-1.64,0-1.99-.76-.25.25-1.81.18-2.31l-.35-.17c.07-.55.78-.56.82-.6.12-.13-.21-.96-.16-1.2.03-.13,1-.37-.32-.86.06-.35.52-.46.61-.66.1-.22-.23-.79-.22-1.01.02-.38.62-.57-.23-.75l.33-.66-.5-.17c.19.1.8-1.02.81-1.12.06-.44-.51-.53.02-1.12l-.34-.17.5-.25-.5-.33.29-1.13c-.8-.22-.04-.36-.02-.4.05-.08-.06-.25.05-.39.43-.55,1.1-.46.38-1.63l.63-.85-.34-.35c-.08-.55.12-.73.66-.75-.18-.48.05-1.13.24-1.6.06-.15.75-.3-.23-.79.83-1.17.91-2.54,1.21-3.93.13-.62.54-1.55.6-2.22,0-.05-.56-.15-.49-.81.06-.55.61-.52.66-.6.04-.05-.26-1.1-.48-1.06.04-.72.58-.54.66-.7.34-.74-.23-1.12-.17-1.46l.5-.09c-.2-.64-.38-.47-.03-1.11.59-1.07.73-1,1.92-.89.18.45,1.13,1.33,1.6,1.57.13.07.32-.08.45-.02.25.11.78,1.12.71,1.45l.33-.17c.18.48.15,1.34.32,1.75.25.63.9,1.54,1.17,2.19.12.3.02.94.46,1.2h1.04s-.17-.5-.17-.5c.35-.11,1.25-.55,1.49-.76.28-.25.2-.68.38-.87.26-.27.98-.04.63-1.03h.5s-.16-.32-.16-.32l1.15-.51c.09-.45-.1-.24-.33-.41l.35-.57.46.13c.45-.69,2.2-1.55,2.76-2.13.18-.19.16-.55.37-.68.37-.24.68.22.8-.32.67.78,1.19-.37,1.6-.26l1.63,1.27Z"/><path d="M140.75,8.94c.15.13.18.42.21.62l.66-.5.43,2.91c-.44.69,0,.93.73.91.07.27-.23.12-.28.19-.05.07.06.3-.04.52-.07.13-.51.06-.34.67.04.14.43.12.43.53s-.43.41-.45.52c-.03.3.22.54.26.81.11.86-.06,1.64-.25,2.48l.5.1c-.45.44-.18.61-.18,1.06,0,.49-.44.47.35.84l-.5.83.66.27c-.07.38.1.61-.32.73.71.31.65,1.04-.17,1.16l.5.33c.08.52-.05.4-.48.42-.26.57.23,1.16.25,1.56.03.49-.57,1.04.21,1.32l-.48.76.32.07c-.47.81.14,1.07.44,1.67l-.26,1.08c.55-.2.51-.98,1.16-.83l-.33-.49c.42.05.32-.43.57-.68.21-.21.73-.29.85-.49.23-.38-.32-.45.63-1.52.26-.29.01-.76.91-.49-.07-.6.74-.89.82-1.02.09-.17-.03-.42.08-.59.06-.1.36.07.29-.2l-.5-.33c.54-.22.35-.91,1.33-.5-.28-.7.91-.65.17-1.32.88.12.66-.57,1.16-.67l-.33-.16c.03-.67.96-.84,1.12-1.03.06-.07.79-1.52.8-1.61.01-.23-.25-.35-.18-.51.24-.55,1-.18.6-1.32l.91-.33c-.33-.97.78-.6.24-1.59l.33.08-.15-.48c.48-.4,1.56-.03.82-.84.11,0,.27.03.36-.02.52-.31.34-.32.63-.69.18-.24.61-.58.76-.95.09-.2-.27-.31-.18-.5.22-.5.85-.17.94-.24.13-.1.1-.4.21-.54.21-.28.74-.12.11-.63l.29-.11-.13-.3c.47-.07.95.39,1.08-.17l1.41.5c.08.41-.07.27-.33.41.19.31.48,1.21.43,1.51-.03.18-.3.28-.34.4-.12.44-.09.51-.3,1.06-.14.37-.06.82-.79.77l.33.33c-.55-.02-.35.44-.48.59s-.45.2-.49.27c-.1.15.17.47.07.65-.06.11-.56.33-.77.57-.14.16.14.5-.32.42l.49.49c-.43.22-1.1.57-1.09,1.08,0,.14.23.27.23.33,0,.14-1.44.79-1.32,1.41l-.48-.16-.18.73.35.26c-.54.08-.68.69-1,1.09-.19.24-.64.19-.5.74l-.32-.16-.16.55.64.6c-.38.45-1.26.13-1.32.17-.03.02-.12.53-.34.76-.2.22-.52.09-.59.21-.19.36.04.8-.12,1.14-.02.05-.6.43-.72.6-.73,1.05-1.43,2.42-2.23,3.46-.12.16-.32.11-.33.12-.07.11.48.39.33.66-.15-.08-.59-.08-.66,0-.33.36.41.26.33.49-1.66-.02-1.54,1.61-1.66,2.82.72-.44,1.74.5,1.85-.13l.22-.03c.25.16.52.65.75.75.32.14.89-.32.99.58l.24-.31.92.15-.09.5.25.16.07-.32.57.18.02.64.49-.33c.21,1.18,1.95,1.24,2.33,1.57s-.23.66.91.56c.5.31.24.67.34.85.06.11,1.29,1.67,1.39,1.72.13.07.36-.07.5,0,.43.26.22,1.17.92,1.07.03.48.41,1.29.68,1.66.41.58,1.33,1.28,1.73,1.93l.49-.1c-.26.56.73,1.35.79,1.53.05.13-.24.43-.05.8s.83.33,1.05.54c.52.49,1.69,2.69.89,3.18.6.87-1.17,1.24-.35,2.08h-1.16s0,.67,0,.67c-.48.18-.8-.61-.85-.64-.09-.05-1.07.49-.64-.52l-.47-.02c.21-.83-.87-1.32-.99-1.76-.15-.54-.08-1.05-.37-1.55l-.32.16c.09-.46-.45-.64-.47-.68-.04-.09.16-.33.06-.47-.24-.34-1.34-.37-1.1-1.66l-.5.17v-1.48s-1.29-.22-1.29-.22c-.23-.71-.66-.92-.2-1.62l-.99-.18v-.82c-1.04.34-1.51-1.27-2.25-1.82l-.16.33c-.22-.08-.67-1.39-.86-1.5-.31-.18-1.1-.1-1.44-.31-.2-.13-.19-.52-.44-.74-.26-.23-2.46-.53-2.88-.76-.25-.14.21-.55-.78-.6-.58-.03-1.07.36-1.65.09.24.55-.33.71-.34.76-.02.38.22.91.67.74l-.2.8-.47.03c.65.52-.09,1.07-.16,1.58-.01.09.27.04.32.2.43,1.26-.03,2.5-.01,3.62.01.49.27.65.33.99.04.21-.14.55-.11.66.02.09.56.4.58.46.06.12-.08.32-.05.46.22.99.43,2.23.15,3.28-.16.58-.6,1-.81,1.54-.66.06-2.66.09-3.02-.54-.19-.33.19-1.15.1-1.36s-.38-.24-.41-.31c-.63-1.38.2-1.86.03-2.93-.08-.49-.46-.77-.51-1.16-.06-.45.8-1.13-.24-1.02-.07-.47.97-1.03.17-1.16l.33-.33h-.66c.19-.33.03-.68.11-1,.19-.68.93-1.23.53-1.97l-.65-.02.67-1.39-.63-.34.46-1.33-.5-.33c.37-.18.14-.83.19-.88.08-.09.37.08.3-.19l-.48-.08c.45-.95-.06-1.12-.24-1.9-.29-1.24-.09-2.48-.03-3.74.03-.61-.09-.88-.74-.92l.66-.91c-.62-.41-.5-1.33-.67-1.96-.04-.14-.31-.11-.33-.22-.09-.43.27-.81.5-1.14l-.66-.25c.56-.61.55-1.25.5-2.04l-.67-.28c.26-.56-.28-1.63.66-1.49-.65-.59.21-1.52-.5-1.74l.33-.17-.33-.74h.5c-.22-.7-.95-1.47,0-1.91-.11-.34-.6-1.64-.6-1.83,0-.41,1.1-2.29-.23-2.24l.63-1.07c-.1-.23-.57-.63-.58-.83-.02-.41.88-1.07-.39-1.33-.05-.89,2.21-1.7,2.94-1.03Z"/><path d="M124.86,8.73c1.23.07,1.09.82,1.51,1.56s.44.9.74,1.59c.12.27.65.91.67,1.25,0,.16-.23.32-.2.59s.35.29.42.44c.19.42.03.82.11,1.04.05.14.32.24.36.43.06.28-.09,1.29-.29,1.56,1.22-.13.27,1.26.33,1.33l.83-.16c-.16.31.14.43.04.77-.12.46-.41.47-.49.59-.05.07.26.26-.22.37.35.24.23.81.38,1.04.08.13.5.13.46.46-.4.81.44,2.3-.34,2.66l.3.1c-.37.66.38.99.37,1.05-.16.67-.35,1.41-.33,2.15,0,.1.27.1.32.22.11.27.09.56.23.82.05.1.37.12.4.28.06.35-.41,1.21-.4,1.34.01.2.53.42.59.69.07.31-.12,1.24.13,1.83.1.23.39.14.41.46.03.54-.43,1.01.31,1.09l-.5.58.49.41-.99.17-.17.83c.15,0,.38,0,.5.08.37.26-.28,2.83-.33,3.4l.51.09c.11.63-.17,1.24-.19,1.82-.02.65.23,1.07.28,1.57.05.48-.44.74.39.67-.09.5.08.68-.49.9.22.17.3.39.36.65.16.66-.34,1.45.47,1.27-.34.87-.28,1.6,0,2.49l.33-.17c-.32.95-.66,1.8-.66,2.82-.7-.44-1.04-.02-1.4-.01-.41.01-.67-.45-.84.18l-.51-.32.09-.51h-.48s.08-1,.08-1l-.6-.16.18-.57-.35-.17.5-1.08-.42.02c-.29-.7-.01-.77.42-1.18l-.6-.16c-.19-.25.37-.82-.4-.84v-.16c.34.17.37-.53.33-.72-.03-.14-.5,0-.17-.77-.31.07-.44.26-.66-.08.08-.64.71-.63.66-1.08l-.5-.08.66-1.25-.48.16c-.69-.97.19-1.54-.19-2.55l.34-.26-.49-.25.3-1.06-.62-.46.48-.81-.33-.08c.8-1.23-1.15-1.52-1.58-.33-.41-.78-1.91-.29-2.74-.5.35,1.04-.84-.25-.9-.27-.47-.14-1.62.06-1.42.76l-.58-.33-.25.33c.16-.15-.69-.6-.75-.61-.38-.05-1.42.75-2.08.11l.3.91c-.05.12-.32.17-.46.35-.36.49.11.59.32.89-.56-.09-.23.44-.34.71-.09.24-.51.67-.61,1.22-.06.35.34.76-.22,1.22l.5.08c-.73,1.13-1.13,2.85-.85,4.16-.32.11-.86,1.67-.63,1.89l.48.09-.83.58.33.49c-.27-.05-.71.74-.8.96-.14.37-.02.81-.05.84-.27.35-1.35.33-1.66-.04-.26-.32.07-.81-.56-.47l-.25-.21c.5-.57.02-.65.02-.98,0-.19.2-1.36.15-1.42l-.49-.08c.38-.42.85-1.48.63-2-.12-.29-.78-.25-.13-1.16l-.34-.16.97-1.99c-.63-.36-.08-.84-.64-.99.11-.29.58-.64.63-.87.11-.45-.38-.93.53-1.29l-.33-.25.29-.03c-.04-.36.29-.55.13-1.15-1.25-.32-.21-.53,0-.99.11-.25,0-.18.24-.61.36-.65.73-1.09.84-1.87-.45.15-.76-.33-.65-.72.09-.32.79-.46.93-.64.04-.05.26-1.11.29-1.27.04-.27-.15-.58-.05-.9.06-.21.33-.33.42-.57.12-.31-.23-.71-.22-.8.03-.23.46-.49.45-1l-.5-.63c.39-.51.62-1.73,1.31-1.61l-.5-.33c.27-.59.75-.74.17-1.32.72-.2.17-1.56,1-2.08l-.33-.32c.33-.25.32-.68.48-.97.09-.16.4-.16.47-.38.16-.53-.55-.98.53-1.48l-.49-.25.66-.41-.49-.41c1.22-.07.74-.97.91-1.5.12-.37.48-.49.44-1.08-.02-.32-.37-.23-.35-.32.05-.32.48-.66.83-.59l-.5-.33c1.12-.23.86-1.57,1.15-2.08.37-.63,1.35-.77,1.58-1.41.25-.71-.2-.27-.24-.74.44-.93,1.27-.32,1.52-1.05l.3.14v-.67c.56-.09,1.16.09,1.69.08s1.01-.68.64.75ZM123.65,13.43c-.2-.08-.39-.11-.6-.03l-.19.64.5.08c-.35.57-.45.88-1.16.58.3.4-.2.74-.13,1.11.05.24.32.5.29.55-.03.05-.63.13-.51.82l-.65.02c.09.51-.15.89-.26,1.33-.12.48.25.4-.57.91l.5.08c-.02.66-.11.97-.83.83.14.4-.43,1.18-.49,1.76-.03.31.18.99.12,1.12-.09.23-.43.21-.47.38-.07.25.09.95,0,1.04h-.49s.33.67.33.67l-.49.25.83.41c-1.04.36-.7.83-.83,1.55-.02.12-.27.11-.29.19-.11.41,0,.91-.24,1.46-.19.45-.61.65-.64.73-.11.41.14.72.15.97,0,.06-.64.21-.15,1.07l.48-.14.02.3c.76-.86,1.01.8,1.57-.33.54.7,1.24.17,1.47.2.72.1,2.04-.09,3.02-.12.21,0,.33-.4.79-.08.11.08.11.34.21.34.21,0,.58-.25.86-.31.1-.02.85.12.87-.3.03-.58-.47-.75-.47-.8,0-.33.28-.81.14-1.31-.04-.14-.34-.09-.34-.19.02-.24.27-.36.28-.5.04-.53-.5-2.57-.56-3.36-.04-.55.5-1.26-.38-1.37.48-.52.39-2.31-.33-2.49l.33-.17-.33-.25c.62-.91.13-.61.01-.87-.13-.27-.41-1.49-.34-1.75.03-.14.27-.09.32-.23.19-.57-.65-.9-.65-.99.55-1.2.16-.65-.21-1.27-.26-.44.24-.91.2-.95l-.28-.03.05-.48-.43-.17.33-.58c-.18-.04-.35-.35-.38-.36Z"/><path d="M70.4,8.73c-.02,1.57.97.58,1.61.54.22-.01.68.35,1.13.29.73-.1,1-.51,1.94-.13.79.33,1.39,1.69,2.46,1.03l.33.76.41-.14.84.47-.1.5c.49.09,1.72.38,1.88.88.07.21-.08.42-.01.58.11.25,1.18.84,1.37,1.02.64.61.62,2.41,1.91,2.01l.02.99h.48s-.17.41-.17.41c.69.25.01,1.42,1,1.26l-.33.66.75.33c-.32,1.15,0,.91.4,1.44.32.43-.3.86-.15,1.39l.66-.16c.07.28-.27.08-.3.24,0,.05-.02.77-.01.81.08.27.58.32.61.52.04.22-.44.71-.45,1-.02.4.69,1.55.64,2.34-.02.33-.33.4-.39.56-.02.05-.04.95-.03,1.06.06.66.54.37.6.44.23.23-.47,1.04-.57,1.31-.12.32.1,1.11-.26,1.5l.66.07c-.78.96-.65,1.79-.82,2.8,0,.04-.49.52-.5.56-.05.22.17.7.14.8-.06.21-.76,1.37-.91,1.86-.13.44.28.93-.39,1.29l.48.27-.17.62-.63.03c-.12.14-.02.49-.06.57-.29.57-1.23,1.68-1.41,2.16-.12.32.27.9-.54.75l.5.16c.06.88-.65.6-.93.82-.29.24-.09.74-.32,1-.21.24-1.11.85-1.41,1.24-.34.44-.65,1.01-.16,1.41l-1.28.04c-.44,1.03-1.12.81-2.01,1.31l.14.31c-.32.04-.77-.08-1.06.02-.33.12-.06.64-1.15.33-.62.3,0,.72-.87.8-.4.04-.21-.22-.24-.5l-1,.17-.08.33c-.48-.08-.38-.54-.58-.74-.17-.17-.54-.16-.63-.29s0-.42-.03-.46c-.02-.02-.31.15-.54.13-.56-.06-.67-.44-.73-.45-.18-.02-.47.23-.79,0-.24-.17-.43-1.09-.46-1.14-.07-.09-.52-.03-.63-.28.63-.49.22-.99.24-1.16.02-.26.21-.4.19-.75s-.54-1.42-.26-1.66l.33.17c.2-.67-.67-.5-.5-1.08.02-.07.34-.08.35-.17,0-.24-.31-.75-.3-1.19,0-.59.26-1.26.29-1.87l-.5.33c-.05-.06.13-1.48-.33-1.41.44-.3.16-.98.33-1.29.11-.2.47-.01.33-.45h-.5s.33-.91.33-.91l-.35-.32c-.05-.74,1.26-1.47-.48-1.59l1-1.24-.66.08v-.32c.51-.03.13-.69.83-.51-.31-.83-.38-1.71-.58-2.57-.06-.28.32-.52-.26-.66l.67-.66c-.5-.42-.75-1.39,0-1.66l-.5-.09c-.03-.43.16-.8.17-1.24.02-.59-.49-.54.32-1.08-.08,0-.25.01-.28-.04-.28-.46.13-1.24-.38-1.71l.34-.17c-.2-.41-.24-.7.15-.99l-.66-.33c-.05-.27.35-.54.4-.74.16-.64-.02-2.27,0-2.91.01-.31.68-.96-.06-.91l.3-.2c-.13-.36.11-.58.14-.85.05-.53,0-1.49,0-2.05,0-1.36-.31-2.85.12-4.04.05-.15-.07-.37.02-.51.1-.15.32,0,.38-.05.37-.28.41-.75,1.2-.44-.11-.31-.15-.77.33-.66ZM75.48,13.78c-.24-.16-.43-.38-.71-.5-.84-.36-1.2.24-1.47.22-.28-.02-.36-.83-1.24-.2-.37.26-.29,1.58-.12,1.97.06.15.51.29.45.75l-.48.02.15,1.48c-.33,0-.59-.13-.5.33l.83.09c-.06,1.01-.63,1.99-.63,3,0,.43.28,1.06.27,1.11-.03.17-.37.34-.3.44.01.02.26-.04.3.08.09.26-.02,1.15-.47,1.17.83.75.23.64.11,1.44-.08.49.33.91-.27,1.05.57.47.47,1.25.48,2,0,.2-.22.34-.24.49-.03.29.52,1.47.1,1.9l.42.17.25-.25-.18,1.07h-.66c.18.41-.08.88,0,1.22.03.13.33.11.34.21.05.37-.36.84-.35,1.13,0,.1.33.02.36.33.05.51-.27,1.48-.19,1.8.04.18.35.15.46.36.12.22-.29.93-.29,1.16,0,.04.52.24.48.51-1.36.67.04,1.38.02,1.48-.02.14-.23.35-.25.58-.03.27.51.99-.22,1.25l.17.57.64.02c.07.28-.27.09-.31.24-.07.28.44.53-.35.84l.66.08c-.13.64-.77.79-.68,1.41.05.33.34.23.33.32-.13,1.47.28,1.05.35,1.37.08.39-.07.78-.16,1.15.33.97.78-.25,1.49.06l-.13-.3c.56-.54.67-.57,1.46-.37l-.17-.33c.47.31.82-.3,1.08-.28.14.01.28.27.33.27.1,0,.22-.38.37-.49.24-.18.59-.26.78-.51.38-.5-.06-2.02,1.25-1.48.23-.49-.18-1.25.31-1.41-.1-.11.03-.68.06-.72.09-.11,1.12-.87,1.12-.95-.03-.3-.66.08-.49-.33.35-.85.76-.36.92-.58.09-.12.11-1.52.23-1.71.12-.18.4-.2.53-.36.15-.19-.15-.49.32-.42l-.66-.66.99-.5v-.33s-.34-.08-.34-.08l.17-.51.66.09-.02-.82-.48-.1c.24-.69.13-1.76,1.17-1.57-.83-.78-.19-.69-.04-1.28.13-.5-.22-1.13.37-1.29v-.25c-.65.04.04-.59-.14-1.09-.09-.25-.36-.25-.36-.33,0-.39.22-1.31.13-1.81-.01-.07-.57-.75-.63-1.18-.09-.6.84-1.52-.16-1.73v-.16s.33-.33.33-.33l-.66.16.33-1.99c-1.23.24-.02-.67-.98-.52-.12-.37-.12-.8-.24-1.16-.12-.34-1.14-2.62-1.27-2.7-.08-.05-.25.03-.33.07l-.02-.81c-1.02.03-1.26-.82-1.8-1.23-.25-.19-.64-.11-1.12-.44-.52-.36-.86-.18-.71-1.17-.51.27-.55-.14-.73-.26Z"/><path d="M44.29,8.8s.01.41.63.1c.03.3.45.62.48.7.19.51-.37.69.42,1.04-.47.95-.07.94.1,1.48.27.88-.51,1.07-.53,1.33,0,.1.3,1.7.36,1.98.05.25.36.53.36.84-.01.48-.55.55-.58.6-.05.09.29,1.6.27,1.92-.01.27-.27.38-.3.62,0,.06.65.27.61,1-.01.25-.24.43-.25.66-.02.4.07.87.05,1.33-.04.95-.01.4.19,1.19.23.9-.25.9-.27.99-.19.84.13,3.09,0,3.94-.04.25-.29.41-.29.64,0,.52.37,1.54.28,2.17l.51.11-.33.33.33.17c-.9.22-.2.99-.08,1.47.08.32-.35.62.25.77l-.5,1.25.66-.16c-.22.69.47,1.37.02,2.09.4.1.23.85.5,1.29l-.51.35c.29.3.28.54.16.91h.66s-.12.3-.12.3c.4.03.19.51.28.86l-.5.09c0,1.09.41.72.67.91.06.04-.31,1.23-.31,1.41,0,1.69,1.62,2.08,1.72,3.57.29.45.67-.26.75-.17.08.74.08,1.19.5,1.82.57-.33,1.12-.77,1.82-.67l-.33-.33c.65.16.82-1.12,1.25-.16,1.02-.32,1.6-1.13,1.72-2.15l-.31-.02.68-.4c.15-.35-.01-.59.16-.98.15-.35.55-.55.57-.75s-.19-.32-.18-.52c.07-.89.26-.41-.04-1.23-.28-.75.46-.97.67-1.45.18-.42.1-.94.29-1.37l-.5-.09c-.02-.43.37-.82.45-1.11.15-.6-.56-1.15.06-1.79l-.5-.17c-.07-.54.5-.79.5-.84,0-.14-.17-.35-.15-.49.08-.46.44-.41.14-1.11-.06-.13-.29-.12-.29-.2,0-.31.29-.9.15-1.33l-.51-.17.5-.17c-1.23-.7.21-.99.26-1.06.21-.38-.12-1.25-.32-1.63-.13-.24-.79-.31,0-.87l-.19-.51.55-1.08-.62-.25c.03-.75.84-1.25.48-2.01-.06-.12-.28-.13-.32-.25-.2-.69.46-.61.5-.8.04-.18-.28-.36-.29-.62,0-.24.3-1.05.27-1.1-.09-.12-.47-.05-.47-.6l.66-.08-.66-.16c-.19-.72-.04-1.07.49-1.58l-.66-.25c.26-.3.81-.88.61-1.29-.02-.04-.27-.06-.34-.24-.27-.7.53-1.57.72-2.2.03-.08-.26-.05-.32-.2-.28-.67-.17-1.04.32-1.53-1.11-.5-.18-.61.05-.82.29-.26.27-.58.74-.8.61-.28,1.43-.2,2.09-.22.23.75,1.17,1.34.44,2.09l.34.19c.1.41-.54,1.16.16,1.3-.32.57-.95,2.2-.66,2.78.07.15.34.12.33.21-.11.63-.43,1.68-.48,2.34-.03.4.18.83-.02,1.23h.67s-.2.8-.2.8l-.47.03c.17.34.53,1.38.52,1.74,0,.06-.55.81-.52,1.07h.67s-.17.83-.17.83l-.67-.08c.17.29-.04.75,0,.96.03.13.29.1.32.23.15.53.12,2.13-.34,2.3.23.4.26.94.39,1.32.03.1.3.03.31.33.02.54-.3.8-.52,1.25l.66.25c.04.08-.33.05-.43.4-.08.28-.21,1.31-.22,1.61,0,.08.27.05.28.15.03.3.06.9.05,1.17-.01.39-.49.08-.35.57,1.3.02.07.78.02.85-.05.07.42,1.38-.19,1.4v.33s.66.5.66.5c-.31.45-.51.41-.99.25l.34,1.56c-.41.19-.54.46-.51.92h.48s.02.83.02.83l-.66-.16v.83s.5,0,.5,0c.03.64-.47.66-.67.95-.61.88-.56,1.07-.68,1.93-.1.69-.37.87-.48,1.43l-.33-.17.15.43-.33.16.34.74c-.69-.04-1,.5-1.37.71-.34.2-1.09.23-1.12.7,0,.11.64.06.17.33-.55.32-1.31,0-1.18.73-.53-.16-.69.53-1.31.63-.24.04-.91-.17-1.46-.05-.03,0-.03.23-.14.26-.43.12-1.49-.39-1.97-.47l-.24.31c-.02-.54-.88-.41-1.33-.76-.17-.13-.1-.78-.37-1.03-.19-.17-.53-.11-.74-.26-.66-.47-.73-1.54-.79-1.61-.14-.17-.48-.1-.61-.27-.37-.51-.04-2.81-1.26-2.92l-.15-.28c.24-.86-.39-1.26.09-2l-.48-.27c.52-1.15-.23-1.64-.48-2.52-.01-.05-.11-.85-.12-.95,0-.14.26-.27.12-.68-.12-.33-.35-.22-.36-.24-.03-.05.33-.4.21-1.12-.17-.97-.62-1.09-.69-1.3-.12-.41.36-1.32.31-1.39l-.33.07c-.25-.46-.14-1.14-.66-1.3l.66-2-.5-.09v-.64s.64-.21.64-.21l-.14-.56-.68-.08c.25-.87,1.09-1.69.17-2.4.58-.32.29-.61.38-.95.12-.46.57-1.1-.14-1.29l-.06-.23c.04-.38.45-.35.49-.68.05-.47-.5-1.61-.47-1.8.03-.2.34-.39.4-.6.02-.08-.22-1.5-.21-1.58.01-.16.35-.32.28-.41-.02-.02-.24.03-.28-.04-.07-.11-.19-1.16-.21-1.53,0-.15.13-.34.16-.5l-.34-.17c.79-.26.21-.89.23-1.15.02-.19.35-.39.27-.82-.02-.11-.32-.09-.34-.21-.01-.06-.13-1.21-.13-1.27,0-.39.41-.43.44-.53s-.14-.69.03-.91h-.67c-.09-.46.45-.86.46-.91.2-.67.25-1.56.11-2.25.25-.25.62-.25.91-.42.48-.29-.16-.51,1.12-.17Z"/><path d="M170.99,10.38c.43-.16.86-.32,1.3-.48.77.36,1.26.31,1.57.17.44-.2.63-.63.94-.57.3.06.31.48.66.57.21.05.33-.07.74-.26.5-.22,1.13-.51,1.65-.31.3.11.26.26.6.37.39.13.58-.02,1,0,.79.04,1.31.61,1.35.65.3.34.6.95.39,1.22-.17.23-.55.01-1.17.24-.43.16-.41.32-.8.51-.73.37-1.06-.06-2.23.14-.76.13-.82.35-1.31.29-.63-.09-.89-.49-1.17-.34-.28.15-.12.59-.57,1.14-.16.19-.29.27-.37.31-.27.13-.46.07-.63.11-.22.06-.47.35-.6,1.3.22.08.44.17.66.25-.36.61-.74,1.31-.49,2.03.06.16.32.08.34.37.03.74-.64,1.26.15,2l-.5.49c.04.16.93.24.34,1.02-.19.25-1.08.31-.19.63l-.17.66.35.18c-.25.03-.43.56-.5.83-.02.07.8.27.33,1.11-.11.19-.39.19-.44.37-.04.15-.11,1.93.25,1.82l-.31,1.42h.66s-.17-.5-.17-.5l.57.18.16-.34c.42.18,1.22.45,1.64.33.17-.05.17-.35.28-.43.16-.11,1.14.17,1.41-.41.28.71,1.01.19,1.33.17.24-.02.47.16.67.15.3-.01.86-.55,1.4-.32l-.17-.83h.66s-.33-.33-.33-.33c.68-.39.66-.29,1.33,0v-.66s.56,0,.56,0l.11.33.26-.34c.78.07.44.51.61.8.14.24.82.53.79,1.3l-.48.43c.43.84-.26.99-.2,1.62l-1.64.52.17.49c-.35.16-.78-.27-.91-.27-.08,0-1.4.36-1.5.4-.42.15-.41.78-1.17.86-.37.04-.68-.14-.96-.12-.36.03-.95.37-1.53.41-.66.04-1.98-.74-1.73.54l-.33-.33v.33s-.82-.33-.82-.33c-.05.75-1.07,1.34-.8,2.07.03.09.28.07.3.19.02.1.11,1.85.11,2,0,.57-.7.96.38,1.46.03.15-.23.04-.28.11-.6,1.08.21,1.02.26,1.22.07.3-.73,1.19-.49,2.11.05.19.48.14.51.53.03.35-.28.6-.28.83,0,.11.24.24.19.42-.1.39-.98,1.12.24,1.15-.05.18-.2.76-.16.89.05.15.31.09.33.11.04.06-.59.88-.66,1.25-.01.07.26.05.36.31.2.53-.03,1.46.31,2.08l1.65.18c-.43-1.05.61-.46.66-.5.03-.02.03-.53.28-.68.24-.14.64-.07.84-.2.18-.12.22-.65.88-.45l-.5-.66c.58-.08,2.28-.83,2.72-.63.25.11.25.62.77.46l-.13.25.3.16-.17.33,1.33.08-.34.82-.82-.16v1.66s-.72.07-.89.16c-.18.11-.06.4-.13.47-.17.17-1.1-.14-.64.7-.49-.01-.96.13-1.39.36-.27.15-1.57,1.28-1.68,1.28-.18,0-.48-.25-.74-.13l-.43.81-.58-.66c.1.54-.52.23-.65.35v.48c-.71-.33-1.4-.61-2.17-.33.29-.83-.04-.54-.16-.79-.06-.13.05-.41-.03-.51-.05-.07-1.59-.44-1.14-1.02h-.5c.26-.36.04-1.42-.21-1.62-.16-.13-.7.16-.43-.6.08-.22.45-.23.48-.35v-.32c-.43-.2-.42-.32-.51-.75h.5s-.49-.43-.49-.43c.04-.51.75-1.2.45-1.7-.1-.16-.57-.15-.63-.8-.05-.51.26-.62.3-.84.03-.15-.38-1.28-.13-1.71l-.5.17c.13-.87.59-1.6.33-2.49l-.33.08.5-1.24h-.5c-.18-.18.28-1.27.29-1.44.02-.24-.33-.77-.26-.97.04-.1.37,0,.32-.5-.05-.44-.61-.23-.52-.83.37-.02.51-.88.46-1.14-.09-.48-.91-.57-1.14-.84-.21-.24.03-.5,0-.57-.05-.08-.41-.1-.46-.29-.15-.56,1.86-1.5.99-2.06l.66-.42-.49-.33.67-.67v-.33c-.48-.08-.23-.53-.17-.91l-.67.08c-.12-.57.81-.75.84-.85.06-.21,0-1.01-.05-1.28-.09-.49-.51-.35-.42-.85.78-.44.41-1.11.63-1.81l-.34-.18c.27-.75.49-2.8.33-3.47-.03-.13-.33-.11-.32-.18.06-.9,1.22-2.51-.34-2.76l.33-1.06-.5-.17c.04-.44.12-.72.5-.99l-.33-.33c.24-.23.73-.63.63-1-.01-.06-.74-.59.03-.83l-.33-.16c.22-.31.22-.63.65-.43v-.49c.17-.07.59-.23,1.09-.1.25.06.44.17.56.26Z"/><path d="M108.58,8.74l.32.88c-.64.46-.25,1.2-.8,1.7-.42.38-1.28-.03-1.84.23l.17.33c-.66.21-3.16.96-3.47,1.43-.28.42-.13.97-1.01,1.06l.5.33-.3.18.14.31c-.41.13-.62.24-.91-.16l-.25.33.33.17h-.5c-.09.45.1.25.33.42-.4.68-.85.3-1.27.79-.04.04.1.2.07.25-.08.13-.4.69-.44.75-.19.27-.61-.12-.01.61l-.33.17.33.17c-.46-.08-.19.26-.26.34-.11.13-.6.26-.84.54-.04.04.21.28-.23.37.88.92.48.58-.49.93.2.89-.36,1.44-.84,2.06l.66.41c-.51-.04,0,.6-.83.51.24.3-.21,1.2-.5,1.16l.31.24c.06.17-.74,1.48-.62,1.83.04.1.32.05.31.16-.02.26-.54.46-.58.72-.06.44.24,1.16.16,1.54-.04.18-.28.33-.31.47-.07.31.19.66-.27.92l.66.08-.66.91.49.33-.49,1.08.66-.09c-.16.72-.83,1.27-.98,2.01-.12.61.28,1.59.24,1.98-.03.32-.66.76.06.99l-.15.42h.5s-.31,1.14-.31,1.14c.88-.06.19,2.44.31,2.51l.5-.17c.18.24-.01,1.09.02,1.14.14.23.96.29.67,1.34l.46.02c.04.46,0,.89.35,1.25s1.04-.23.83,1.06c.55-.16,1.1.31,1.58.49.36.13.83.09,1.12.21s.42.78,1.02.63l-.25-.34c.26-.35.49-.04.17-.66.74.1,1.83.21,1.49-.83.97.16,1.91-.73,2.81-.07.35.26.35.91.84.9l-.08.34-.42.16.33.58c-.18.37-.59.03-.75.24-.06.07.04.36-.09.57-.12.18-.39.24-.49.39-.13.18-.55,1.13-.69,1.16-.13.04-.39-.19-.68-.11-.35.09-.46.76-.95.48l.16.66c-.61-.38-1.35.33-1.91.13-.11-.04-.15-.46-.66-.44-.7.02-.54.8-1.73.22-.87-.43-1.91-2.02-2.84-1.23.07-1.07-.55-1.33-.83-2.16l-.4.17c-.18-.5-.29-.16-.48-.22-.58-.17-.34-.8-.6-1.2-.16-.25-.62-.37-.66-.43-.09-.15.12-.42.05-.64-.19-.58-.88-.99-.57-1.57l-.25-.2-.41.12c.01-.29-.19-.59-.14-.88.06-.44.65-.56-.18-.8.4-.69-.1-.58-.17-.78-.26-.74-.2-1.37-.68-2.03l.62-.24c.12-.59-.47-.79-.46-.84.25-.77.39-.57.42-1.67.03-.93,0-.35-.19-1.07-.09-.35.37-.73-.23-.67l.33-.49-.33-.08.66-1.16-.66-.25c.33-.5.04-.84.66-1.08-.57-.83.11-2.47.12-3.39,0-.42-.42-.76-.41-.93,0-.11.34-.33.43-.54.12-.28.08-.77.18-.92.12-.17.86-.21,0-.53.58-.5.34-.81.39-1.31.01-.14.22-.26.2-.45s-.29-.57-.25-.63c.05-.07,1.16-.94,1.14-1.1-1.11-.57.02-.87.22-1.29.13-.27.13-1.13.22-1.45.04-.12.31-.25.37-.45.07-.24-.09-.48-.04-.72.04-.18,1.84-2.08,2.12-2.49.05-.08.87-1.47.89-1.56.04-.17-.09-.65.04-.91l.66.17c.23-.27,0-.93.03-.98.06-.11.99-.49,1.14-.61.17-.14.61-.68,1.08-1.07.42-.35,1.97-1.9,2.2-1.98.16-.06.37,0,.54,0l-.17-.5h2.16s.08-.49.08-.49c.59.62,1.49.06,1.96.19.36.09.66.88,1.27.48Z"/><path d="M67.74,64.32c-.31.69.61,1.04,1,1.56.34.45.79,1.36.66,1.91h.42c0,.34.25,1.28.4,1.55.11.2.43.06.48.12.08.08-.02.73.06,1.03s.46.55.54.79c.08.23-.09.48,0,.65.2.41,1.05.29.59,1.16l.47.1.03.9.5-.17.15.48-.48.27.41.41c.68-.09.22-.56.24-.91.07-1.11.42-2.52.42-3.48,0-.27-.64-.98.24-1.08-.72-.66-.25-.63-.21-1.2.06-.88-.21-2.3-.11-3,.01-.07.78-.66.76-1.11l1.72.18c-.04.61-.12,1.31-.14,1.91-.01.36.43.79-.19.75.59.52.07.73.07,1.07,0,1.04.15,2.07-.25,3.15l.35.18c-.63.9-.13,1.97-.67,2.83l.34.32c-.27.38-.51,1.71-.33,2.12.07.16.34.12.32.2-.03.15-.48.64-.59.92-.12.3-.15.93-.23,1.04-.37.53-1.36.29-1.91.26-.28-.08-.19-.64-.42-.86-.2-.19-.49-.09-.51-.11-.07-.07.18-.74-.6-1.73-.14-.18.08-.57-.56-.43.4-.58-.13-.75-.26-1.16-.06-.2.1-.47.09-.49-.03-.04-.4-.08-.55-.19-.7-.54-.12-.74-.17-.99-.03-.12-.85-2.1-.91-2.2-.19-.3-.74-.13-.34-.94-.39-.07-.32.03-.41.33-.04.14-.25,1.02-.25,1.08,0,.27.26.48.26.66,0,.41-.56,1.61-.58,1.86-.03.31.41.44.43.63,0,.09-.35.97-.36,1.25-.01.31.03,1.59.39,1.5l.02.23c-.62.82-1.54,1.12-1.94-.04-.15-.43.16-1-.54-1.04.07-.22.25-.37.29-.62.09-.5.25-1.7.28-2.17.04-.6-.28-1.25-.26-1.78.01-.32.35-.23.36-.33.03-.36-.43-.7-.24-1.42.32-1.23.03-1.93.16-3.21.04-.4.28-.67.33-1,.05-.28.16-1.48-.25-1.25l.42-.67,1.07.19Z"/><path d="M23.54,62.36c.08.05.36.51.31.62-.25.38-.72.37-1.03.56-.54.35-.2.56-.23.59-.03.03-.38,0-.59.16-.71.53-1.17,1.86-1.52,2.63-.08.18-.7,1.23-.71,1.31-.08.37.13.8.06,1.19s-.38.35-.39.46c-.16,1.47-.12,2.03.45,3.3.17.37-.3.4-.31.65-.02.48.39,1.34.45,1.83.02.15-.21.34-.2.49,0,.17.43.84.61.99l1.89.91c.14-.06,1.3-2.08,1.35-2.31.12-.44.06-.35.22-.8.13-.36.25-.74.35-1.11-.02-.06-1.12-.48-1.24-.51-.23-.06-.68.08-.72.05-.15-.09-.95-1.14-.85-1.27.35-.03.64-.44.94-.49s.56.17.78.15c.11-.01.08-.32.22-.34.42-.09,1.15.12,1.82-.13.32-.12.25-.75.81.14h.33c.21-.72.52-.12.88-.05.31.07.84-.2,1,.32.12.39-.2.86.36.97v.42c-.69-.31-1.14.67-1.84.76-.16.59.28.97.35,1.47.13.96-.23,1.08.21,2.03.04.08.75.3-.06.63.33.41.37,1.33.26,1.83-.21,1.01-1.31.79-2.09.91l.14-.3c-.14-.08-.32-.1-.41-.26-.16-.31-.2-2.23-.39-2.75-.3-.05-.1.28-.21.45-.24.37-1.73,1.13-1.45,1.87-.82-.05-2.28.4-2.91-.16-.21-.19-.29-.51-.49-.68-.18-.15-.49-.11-.57-.18s-.43-1.39-.7-1.83c-.12-.19-.64-.52-.65-.58-.05-.48.38-1.37,0-2.05l-.33.17c-.03-.8.26-1.71.29-2.45.03-.63-.16-1.69-.08-2.32.09-.71.58-1.55.69-2.19.09-.52-.44-.96.43-.85-.27-.68.44-1.12.74-1.67.15-.27.34-.95.58-1.23.65-.75,2.47-2,3.45-1.36Z"/><path d="M44.34,72.27c.78-.46-.04.72-.1.98-.12.56.33,1.35-.4,1.75l.32.31c-.39.65-.3,1.44-.54,2.12s-.81,1.23-.78,1.96c-.62-.12-1.27.05-1.91,0-.47-.03-.76-.49-1.4-.18l.09-.5c-.22-.37-.83.42-.6-.65l-.46-.03c.11-.61-.6-1.17-.81-1.52-.16-.26.06-.94-.54-1.21l.33-.32c0-.42-.44-.58-.45-.62-.06-.16-.38-3.19-.37-3.37.01-.24.31-.45.34-.82.13-1.69-.24-3.31.07-5.07.03-.19-.06-.38-.03-.46.03-.09.62-.52.83-.49.93.12.8,1.13.87,1.7.25,1.96.49,4.48.51,6.31,0,.23-.64.32.21.6-.4.97-.12,1.39.19,2.3l.32-.16c.34.35.14,2.07.75,2,.68-.13.59-.88.76-1.38.12-.35.51-1.08.62-1.57.1-.42-.09-.92.2-1.3l-.5-.08.34-.74-.34-.17c1.05-.72.27-1.27.31-1.99.03-.53.32-1.48.36-1.99.03-.32-.14-.71-.12-1.09.03-.61.34-1.09.02-1.66l1.21-1.13,1.3.29-.59,8.14Z"/><path d="M98.49,66.11c.16.09.45,0,.64.03-.38.6.08.98.09,1.34.01.58-.56.95.24,1.23-.51.21-.77,1.66-.85,1.72-.03.03-.4-.23-.72.36s-.19.6-.77,1.04c-.31.24-.96.33-.81,1.02.07.31.6.05.76.24.14.89.46.29.91.59.1.07.63,1.25.94,1.43.48.27,1.21-.07,1.33.76.11.75-1.04,1.42-1.67,1.33-.36-.05-.84-.57-1.12-.68-.46-.19-.97-.06-1.55-.61-.31-.29-.33-.84-.93-.98l.17,2.05-.33.17c.77,2.6-1.88,1.96-2.25-.08-.04-.21.18-.31.18-.4-.01-.16-.27-.33-.28-.66-.01-.47.44-.89.18-1.42l-.33.17c-.27-.66.31-.85.31-.91,0-1.15.03-1.92.09-2.86.02-.4.16-.8.1-1.22l-.33.17v-.41c.35-.07.5-.71.48-1.01-.03-.38-.7-.63,0-.81l-.14-2.74c.47.17.69-.52.75-.52.21.01.35.25.49.27.32.04.68-.39,1-.42.19-.02,1.94.16,2.12.22.96.36,1.13,1.47,1.3,1.57ZM96.19,66.24c-.14-.11-.15-.47-.47-.46l-1.41.35.5.33c-.68,1.17.3,2.81-.17,4.14.08.06.74-.17.84-.25.16-.13-.02-.37.01-.39.07-.05.32.02.42-.06.6-.54.36-1.05.39-1.1.06-.08.51-.02.66-.31.05-.1.15-1.03.12-1.12-.02-.1-.23-.06-.29-.2-.07-.19.06-.51-.08-.72-.09-.14-.39-.1-.53-.21Z"/><path d="M119.18,63.01c.07.04.08.3.2.38.28.17.53-.05.71.29.52.95-.62.76-1.01.91-.19.08-.19.3-.33.37-.64.3-1.66,0-2.39.05-.91.05-1.74.26-2.63.47.4,1.09.4,2.43.36,3.63.35-.12.51.34.57.34,1.52.11,2.87-1.22,3.88.42-.71,1.03-.97,1.41-2.32,1.41l.17.33h-.56s-.18-.31-.18-.31l-1.18.04c-.69.61-.26,1.46-.4,2.17.63.22.14.56.17,1.1l.33-.08c-.16.63.05,1.88.89,1.38.79-.46,1.9-1.9,2.7-1.96,1.06-.08.57.44.64.91.02.16.25.3.26.49,0,.08-.33.18-.48.36-.2.25-.68,1.15-.74,1.19-.11.08-.39,0-.43.05-.09.1.04.51-.07.78-.17.44-1.73.95-2.16,1.35-.34-.5-1.19-.46-1.5-.65s-.32-.46-.5-.61c-.1-.08-.37,0-.42-.06-.15-.17.1-2.16-1.02-2.14.5-.54.07-.69.05-.93-.12-2.23-.02-4.08.21-6.38.06-.59.64-1.04-.27-1.39.71-.32.35-.37.43-.76.04-.18.2-.33.22-.56.02-.39-.24-.97-.1-1.5,0-.03.34-.41.37-.4.17.02.39.24.67.25.41,0,.4-.43.51-.43.79-.02.71.36,1.78-.17.73-.36.2-.1,1.03-.14.35-.02.55-.31.79-.31.12,0,1.67.11,1.74.16Z"/><path d="M107.42,63.31l.1.34c.59-.36.89.26,1.39-.01l.34,1.16c-.3.28-1.37.33-1.45.37-.05.03-.04.3-.35.39-.39.11-.78.05-1.17.09v.48c-.4-.18-1.64-.37-1.96-.13-.24.18-.34.88.13.87-.74.8.1,1.19.14,1.33.01.04.13.78.12.82-.02.2-.41.55-.26.92.48-.06,1-.22,1.45-.3.63-.11.69-.26.84-.28.38-.06.95.18,1.43-.09,1.34,1.97-.42,1.97-1.93,2.51-.12.04-.12.28-.24.3-.25.04-1.12-.28-1.31,0l.13,3.58,1.18.25c.27-.94.82-.67,1.52-1.13.61.18.65,1.31,1.16,1.15.51.26-.8,1.03-.87,1.17-.1.21,0,.47-.07.68-.08.23-.36.22-.42.31-.05.07.11.28-.04.38-.98.62-2.5-.13-3.5-.17-.12-.44-.68-.63-.83-.85-.23-.34-.21-.9-.34-1.25-.06-.17-.32-.13-.39-.44-.2-.91.26-2.48.07-3.42-.08-.41-.51-.5-.51-1s1.23-1.72.34-1.99c.58-1.14.14-2.77.19-3.99.04-.91,1.42-1.08,2.14-1.07l-.17-.5c.99.31,1.9-.18,2.82,0v-.5s.33,0,.33,0Z"/><path d="M89.29,63.59c.86-.49.52,0,.96-.01.11,0,.25-.23.33-.22.2.01.42.68.91.29l-.15,1.23c-.99.02-1.69,1.07-2.68.59v.5c-.52.18-1.18-.69-1.59-.16-.05.06-.07,1.21-.4,1.42.31-.02.42,1.13.44,1.48.03.7-.95.67-.1,1l-.34.35v.56c.51-.51.88-.14,1.23-.16.09,0,1.1-.57,1.52-.66.35-.07.77.01,1.13-.02l.39,1.09c-.6.51-1.29,1.04-2.11,1.07l.17.33c-.8-.12-1.59.24-2.32.17-.22.42.33,1.01.3,1.21-.02.17-.3.44-.36.81-.11.74.01,1.76-.12,2.54l.51.17c-1.13.6-.36,2.65-1.87,2.37-.55-.1-.76-.6-1.29-.71l.33-.58-.33-.08c.66-.5.11-1.34.68-1.5-.56-.74-.12-1.17-.08-1.82,0-.1-.23-.27-.22-.47.01-.61.56-.5-.2-1.2l.5-.34c-.03-.51-.68-.94-.68-1,0-.5,1.33-1.47.34-1.81.79-1.13-.14-2.45.82-3.56-.45.04-.34-.31-.33-.67l-.25.33c-.64-.71-2.96.07-2.58-1.38.05-.19,1.09-.5,1.33-.55.62-.11,1.18.11,1.88-.27.3-.16.3-.47.56-.59.37-.17,1.12.45,1.47.45.21,0,.49-.29.87-.29.41,0,1.04.25,1.32.09Z"/><path d="M14.34,58.71c-.09.08-1.31,1.8-1.37,1.91-.26.51-.21,1.45-.84,1.95l.33.41-.5.08.15.39c-.73.13-.4.8-.56,1.36-.26.94-.71,1.89-1.04,2.51-.24.45-.17,2-.35,2.56-.23.73-.25.43-.22,1.49.01.47-.39.65.2.82-.51.54,0,.71-.03.96-.05.36-.47,1.29-.45,1.87l.33.16-.17.9.33-.17c.15.84.32,1.64.63,2.44.2.51,1.23,2.85,1.53,3.24.2.26.8.1.67.79l.5-.17.08.66.41-.5c.13.49.21,1.33.83,1.16-.16.68-.99.73-1.25,1.33-.19-.4-.98-.76-1.43-.91-.23-.08-.46.09-.47.07-.03-.04,0-.41-.16-.59-.19-.22-.57-.18-.65-.27-.09-.11-.01-.44-.12-.62-.2-.33-.67-.62-.82-1.02-.16-.43-.07-.94-.29-1.37-.28-.54-.84-.28-.46-.85l-.34-.19.17-.57-.33.08c.28-.67-.27-.91-.29-.96-.35-1.01-.11-2.06-.38-2.99-.04-.15-.33-.1-.33-.2,0-.35.45-.44.49-.69.03-.18-.24-.33-.25-.48-.03-.31.37-1.67.43-2,.08-.43-.38-1.33.17-1.23v-.33s-.33-.09-.33-.09v-.25c.61.13.1-1.02.18-1.14.05-.07.41-.09.55-.35.13-.23-.1-1.05-.04-1.14s.36-.08.56-.53c.34-.76.07-1.57.14-1.83.06-.24.94-1.58,1.2-2.26.21-.57,1.72-3.61,2.11-3.99.12-.12.42-.04.61-.31.14-.2.08-.48.3-.74.27-.33,1.94-1.43,2.29-1.17.85.93-.09,1.25-.68,1.84-.37.37-.82.67-1.03.88Z"/><path d="M62.73,64.17l.2,1.46c-.63-.34-.78.16-1.29.29-.81.21-1.83.09-2.61.21-.21.03-.33.04-.4.27.18.37-.07,1.2-.02,1.44.03.13.31.1.34.23.05.21-.16,2.02-.33,2.29.61.52,1.26-.01,1.85-.15.26-.06.53.1.7.07.18-.03,0-.52.44-.34v.48c.4-.15.69.26,1.01.44.18.61-1.03.98-1.14,1.1s0,.41-.04.45c-.07.07-.41-.11-.58-.08-.15.02-.29.24-.47.22-.22-.02-.52-.35-.6-.3-.02.01.06.23-.22.38s-1.05-.13-1.12-.05c-.08.67.57.37.16,1.16h.5s-.33,1.98-.33,1.98c.95-.12.48,1.07,1.24,1.1.63.02.23-.41.41-.51.43-.24,1.23.13,1.42-.57.53.27,1.28.69,1.25,1.39,0,.08-.96,1.14-1.05,1.2-.18.12-.49.05-.8.29-.18.14-.27.53-.34.57-.37.21-1.23-.43-1.13.19h-.33c.04-.61-.65-.27-.95-.54-.12-.1-1.24-1.52-1.28-1.61-.08-.22.12-.62-.09-.9-.16-.22-.47.13-.57-.47-.06-.33.16-.44.15-.54,0-.19-.21-.36-.21-.52,0-2.25.6-4.92.46-6.97-.04-.64-.18-1.12.03-1.92.47-1.75,1.38-1.39,2.83-1.7.28-.06.65-.33.88-.36s1.9.18,2.02.3Z"/><path d="M124.31,62.04c.16.18.19.49.38.7.28.32,1.04.91,1.24,1.25.22.37.91,2.39,1.01,2.49.23.23.74-.01.58.66l.32-.16v1.15s.51-.16.51-.16c-.22.6.07,1.28.17,1.91.06.36-.07.8,0,1.13.03.13.32.11.34.21.08.54-.77.91.16,1.06-.45.61-.14.93-.18,1.4-.09.91-.31,1.68-.25,2.64.01.18.23.4.23.52,0,.08-.7.92-.74,1.37-.05.51.38.93-.2.87l.34.58c-.54.29-.77,1.01-.5,1.58-.68-.14-1.27.94-1.91.17-.25-.31-.16-.6-.27-.87-.06-.15-.33-.13-.32-.2.02-.19.66-.57.65-1.18l-.32-.15.65-2.17-.32-.15c.45-.54.77-3.51.55-4.03-.11-.28-.59-.24-.25-1.12-.73-.24.31-.48.2-.98-.07-.33-.31-.41-.39-.59-.08-.17,0-.4-.12-.56-.14-.2-.46-.23-.5-.39-.05-.22.18-1.12.13-1.18s-.3-.09-.36-.2c-.15-.27-.15-.55-.31-.78-.07-.09-.45-.18-.45-.29,0-.07.58-.4,0-1.13-.18-.23-.39-.06-.5-.12-.06-.03.2-.43.09-.66-.13-.28-.62-.44-.83-.68-.02-.48-1.25-1.56-.66-2,.31-.23,1.5-.31,1.84.07Z"/><path d="M55.09,64.37s.04.16.08.22l.29-.12c.04.39,0,.71-.19,1.06-.43.78-.68.18-1.05.18-.58,0-1.61.09-1.99.43l-.92-.34c.05.61.32,1.3.29,1.9s-.34,1.24-.38,1.66c-.05.68.27,2.18.26,3,0,.37-.31.61-.3,1.14s.03,1.31.62,1.09c-.18.42,0,.95-.17,1.37-.06.16-.34.12-.32.2.07.37.62,1.25.63,1.33.01.14-1,1.66-.63,2.07-.81.14-1.08-.53-1.71-.87-.06-.33.07-.65.02-.99-.24-1.82-.36-3.6-.4-5.44-.04-1.56.28-4.16.48-5.86.02-.2.36-.39.12-.79l-2.41.43c-.46-.26-.86-.36-.71-.97.25-1.05,1.04-.61,1.63-.7.9-.13,2.19-.49,3.07-.44.77.04.62.02,1.32,0,.12,0,2.25.37,2.37.41Z"/><path d="M30.64,63.74c.11.11.32-.01.26.23-.42-.15-.36.48-.29.75.02.09.25.06.28.19.29,1.17-.02,2.87.21,3.8.03.1.3.07.3.17.02.26-.32.7-.26,1.09.05.32.42.29.42.4,0,.29-.33.82-.33,1.17s.27.54.27.64c0,.12-.28.27-.25.47.02.15.31.27.31.53,0,.04-.43.17-.33.57h.49s-.33.67-.33.67l.34.09c-.2.42-.13,1.35,0,1.78.04.13.26.1.31.24.28.7-.19,1,1.18.81.54-.83,1.08.15,1.62-.53l-.05-.4c1.05-.11,1.21.48,1.88,1.08.08.27-.66,1.46-.92,1.58-.34.16-.57,0-.67.05-.03.01-.05.22-.16.27-.52.23-1.27.18-1.62.84-.61-.53-1.39-.38-2.12-.83-.36-.23-1.38-1.75-1.39-2.07s.18-1.18,0-1.7c-.24-.69-.24-.06-.26-1.28-.04-2.47-.26-5.09-.26-7.43,0-.56.68-1.32-.03-1.93.69.06.41-1.58.5-1.66.61-.12.6.14.9.43Z"/><path class="cls-1" d="M75.48,13.78c.19.12.23.53.73.26-.15.98.19.81.71,1.17.48.33.87.25,1.12.44.54.41.79,1.27,1.8,1.23l.02.81c.09-.04.26-.12.33-.07.13.08,1.15,2.36,1.27,2.7.13.36.13.79.24,1.16.95-.15-.26.76.98.52l-.33,1.99.66-.16-.33.33v.16c1.01.2.07,1.13.17,1.73.06.42.62,1.11.63,1.18.09.5-.14,1.42-.13,1.81,0,.08.27.08.36.33.18.5-.51,1.13.13,1.09v.25c-.59.15-.24.79-.37,1.29-.15.59-.79.5.04,1.28-1.04-.19-.93.88-1.17,1.57l.48.1.02.82-.66-.09-.17.51.33.08v.33s-.99.5-.99.5l.66.66c-.47-.07-.17.24-.32.42-.13.16-.41.18-.53.36-.12.19-.14,1.59-.23,1.71-.16.22-.57-.27-.92.58-.17.41.46.03.49.33,0,.07-1.03.84-1.12.95-.03.04-.16.6-.06.72-.49.16-.07.92-.31,1.41-1.31-.54-.87.98-1.25,1.48-.19.25-.54.33-.78.51-.15.11-.27.49-.37.49-.05,0-.19-.26-.33-.27-.26-.02-.61.59-1.08.28l.17.33c-.79-.2-.89-.17-1.46.37l.13.3c-.71-.32-1.16.91-1.49-.06.08-.37.24-.76.16-1.15-.07-.32-.48.1-.35-1.37,0-.08-.28.01-.33-.32-.09-.63.55-.77.68-1.41l-.66-.08c.79-.31.28-.56.35-.84.04-.15.38.04.31-.24l-.64-.02-.17-.57c.73-.26.19-.97.22-1.25.02-.23.23-.44.25-.58.01-.1-1.38-.81-.02-1.48.04-.27-.48-.47-.48-.51,0-.23.41-.93.29-1.16-.11-.2-.41-.18-.46-.36-.08-.32.24-1.29.19-1.8-.03-.32-.35-.23-.36-.33-.01-.29.4-.76.35-1.13-.02-.11-.32-.09-.34-.21-.07-.34.18-.82,0-1.21h.66s.18-1.08.18-1.08l-.25.25-.42-.17c.42-.44-.13-1.61-.1-1.9.02-.15.24-.29.24-.49-.01-.76.09-1.54-.48-2,.6-.15.2-.57.27-1.05.12-.8.73-.69-.11-1.44.45-.01.56-.9.47-1.17-.04-.12-.29-.06-.3-.08-.06-.1.27-.27.3-.44.01-.06-.27-.69-.27-1.11,0-1.01.57-1.99.63-3l-.83-.09c-.1-.46.17-.32.5-.33l-.15-1.48.48-.02c.06-.46-.39-.6-.45-.75-.17-.39-.25-1.71.12-1.97.89-.63.96.17,1.24.2.26.02.63-.58,1.47-.22.28.12.46.34.71.5Z"/></g></svg>