<?xml version="1.0" encoding="UTF-8"?>
<svg id="Layer_1" data-name="Layer 1" xmlns="http://www.w3.org/2000/svg" viewBox="0 0 485.24 200.23">
  <defs>
    <style>
      .cls-1 {
        fill: #fff;
      }
    </style>
  </defs>
  <path class="cls-1" d="M20.68,4.7c.21.09,1.85,1.02,2.31,1.29,1.43.83,2.97,2.22,4.8,3.41.28.18.32.76.63.84,1.16.31,2.12-.79,2.21-.72.82,1.28.22,1.59.16,2.29-.03.31,1.38,1.99,1.61,2.12.37.2.87-.22,1.23.15.67.67.12,1.66.17,2.49l1.38.03c-.1,2.69.31,3.69,1.54,5.98.33.62-.3.67,1.34,1.26-.9,2.16.42,3.84,2.44,4.36l-.71,1.75c2.35-.19.63,1.97.72,2.1.02.03.56-.09.68.26.45,1.37.21,3.01,1.77,4.16l-.71.34c1.18,1.47,1.3,3.74,1.87,5.28.24.63,1.83,2.8,1.87,2.98.23,1.13-.46,2.03-.05,3.56.17.61,1.23,2.38,1.63,3.24.16.33.67.31.66.44-.03.26-.49.78-.56,1.24-.3,1.87.83,1.58,1.04,2.22.2.6-.11,1.11-.02,1.44.16.62,1.37,1.19.96,2.34l.7-.36.07,2.77,1.28.97-.26,4.15c.01.14,1.8,1.48,1.04,1.98,1.73-.2,1.87,1.8,0,1.94l.35.88,1.05-.7.7,1.59-1.05.87c1.12.31,1.69,1.11,1.4,2.29l.7-.18c-.28,1.21-.54,4.36.89,4.59.13.02.16-1.35.71-.36.13.24.03,2.77.47,3.35l-.65.17v.7s1.23.33,1.23.33l-.18,2.29.63.26-.22.94.65.06-.7.88c0,.2,4.2,2.13,1.05,2.29.06,1.48.55,1.32,1.76,1.41-.52,1.12-1.05,2.07.37,2.65l-.72,1.92h1.76s-.7.53-.7.53c.78,1.22.56,2.47,2.04,3.52l-.62,1.06.34.36c1.75-.51.64,2.46.78,3.15.02.09,1.23,1.34,1.25,1.43.06.27-.27,1.08-.14,1.69.49,2.24,2.41,3.74,2.63,4.73.14.62-.03,1.83.22,2.55l.91.18c.58,1.1-.05,2.05.26,3.2.25.92.79,1.19,1.05,1.82.37.89.74,3.19,1.04,3.86.27.62,1.01.72,1.09.85.08.14-.34.64-.12.99.23.38,1.33.7,1.61,1.26l1.05-.55c.86.96.06,2.25.25,2.7.35.84,1.04.86,1.4,1.29.53.62-.14,1.64,1.52.93l.35-7.03-1.05.18,1.09-3.19-.74-.68,1.06-2.46-1.06-.35c.45-1.05.22-1.2,1.43-1.42-.15-1.44-.65-4.17.18-5.44.19-.29.81-.28.81-.51.03-1.21-.73-2.94-.54-4.49.32-2.71,1.94-2.63.36-5.18-.17-.28-.78-.32-.85-.63-.27-1.15,1.37-2.39,1.06-3.79-.27-1.22-2.31-1.8.37-2.67l-.98-1.58.95-1.1c-.78-1.26-1.02-1.77-.68-3.29h-1.06c-.26-.19.92-3.71.9-4.05-.04-.67-.76-1.45-.82-2.2-.08-.98.88-1.72-.4-2.01,1.3-2.01.76-3.75.85-5.8.11-2.41.01-.77-.47-2.4-.38-1.28-.16-2.54.41-3.62.24-.45-.67-.66.95-.88l-1.06-.35c1.2-.24.1-.69.18-1.9.09-1.44.11-3.29.3-4.71.05-.38.58-.8.62-1.5.03-.58-.55-.47-.71-.79-.99-2.02.95-1.66,1.03-2.72,0-.13-.55-.12-.68-.44-.24-.59.07-2.85.17-3.66.17-1.44,1.2-1.83-.54-2.58l.91-1.77-.92-1.05c.22-.53,1.32-1.32,1.34-1.41.05-.27.09-3.32.06-3.5-.1-.54-.66-.96-.69-1.43-.06-1.4,2.12-1.57,0-2.46l1.4-1.41-1.05-1.23c.5.21,1.47-1.92,1.44-2.29-.08-.84-1.01-.73-1.11-1.13-.3-1.23,1.29-3.17.72-4.69l-.71.18c-.11-1.71,1.2-1.46,1.35-1.62.07-.07.26-1.63.25-1.92-.05-.94-.87-.81-.9-1.09-.1-.84.6-2.23,1.07-2.94l-1.05-.52.35-1.24.69.35c.12-.7-.27-1.47-.2-2.12.09-.91.87-3.51.83-4.33-.03-.52-.59-1.22-.56-1.49.02-.18,1.78-1.39,2-1.77.39-.67.34-1.83.41-1.89.14-.13,1.11.09,1.56-.02.49-.12.93-.67,1.25-.53.12.05,2.07,1.32,2.16,1.41.23.24-.02.67.08.81s.59.18.74.44c.34.59,0,1.26.87,1.64.36.95-.59,1.26-.61,1.34-.16.68.91,1.09-.75,1.76l1.05.18c.09,2.1-1.94,1.46-1.76,3.69l1.08.37c.39,1.35-.79,2.5-.71,2.61.03.04.48-.05.58.11.32.49-.27,1.52.81,1.32v.34c-.99-.16-.36.54-.67.89-.5.58-2.1.84-1.24,1.94l1.2.17-1.75,6.38.69,1.36c-.83.48-1.54,1.24-1.58,2.27-.04.97,1.99,2.95-.16,3.21v.52s.6.25.6.25l-.15.57.6.24-1.39,1.79c-.19.74.75.26.7.99-.06.79-.67,1.79-1.02,2.51l1.36,1.22c-1.73.47-1.24,1.41-1.41,2.81l1.06.36-.34.88-1.06.19,1.03.73-.33.82.67.36-.29,1.04,1.06.76c-.54,1.26-.5,2.29-2.14,1.92v1.4s1.42,0,1.42,0c.08,2.31-1.62,3.81-1.77,5.98h1.07s-.25.64-.25.64l.59.58-.69.89,1.05.53c-.39.92-.53.81-1.41,1.06,1.19,1.47.49,2.49.49,3.93,0,1.34.76,2.41-.48,3.63h1.06s-1.04,4.09-1.04,4.09l.33.67h.71c.05.72-.8,1.11-.89,1.75-.05.36-.22,4.18-.11,4.36.39.64,1.56.25.62,2.65l.74.39c-1.5.49-.5,1.86-1.06,2.99.32.18,1.28-.4,1.06.53-2.22.83-.6,2.93-.5,4.74.03.58-.68.89-.54,1.07.05.07,1.1-.17.61,1.24-.08.22-.67.07-.65.69.02.72.54,1.24.58,1.77.08,1.06-.07,2.13.03,3.54.06.85-1.81,2.44-.27,2.81l-.65,1.94h1.06c.12.76-1.05,1.55-1.07,1.65-.07.6-.25,2.34-.27,2.82-.01.35.86,2.05.82,2.4-.09.83-1.26,1.34-1.27,1.46-.03.46.34.95.33,1.4-.02.76-.3,4.78-.67,5.07l-.7-.36c-.5,1.27.18,2.01.31,2.98.04.34-.44.96-.27,1.19.11.15.66.11.91.56.28.49-.49,1.5-.95,1.78l.72.4c-.52,1.35.21,2.68.29,3.85,0,.1-.57.14-.85.83-.58,1.47.05,1.83,0,2.31-.15,1.8-2.77,2.21-1.59,4.4l-2.1-1.04c-.5,1.83-3.41-.04-4.42,1.75-.83-2.56-5.53-1.83-4.75-4.92l-1.76,1.05c.55-1.42-1.09-1.53.7-2.28-.75-1.67-2.61-.7-3.17-2.99l1.06-.71c-.59.52-2.32-1.68-2.36-1.84-.07-.26.3-.71.17-1.06-.63-1.68-1.06-3.31-2.52-4.39-.27-.2-.74-.06-.9-.14-.06-.04.31-.82-.08-1.48s-1.18-.76-1.46-1.4c-.21-.48-.26-3.19-.5-3.69-.21-.44-.68-.44-.91-.89-.3-.6-.73-2.29-.81-2.39-.26-.3-.81-.29-.85-.35-.09-.1.93-1.18.65-2.2-.36-1.32-3.34-1.69-2.08-4.45l-1.38-.4.08-.98.61-.41-.73-.21.37-1.38-.51-.48-.88.31c0-.95-.34-1.67.71-1.93l-.36-.89-1.4.35c-.25-.32.85-4.25.67-4.54-.08-.12-1.06-.16-1.31-.98-.46-1.51.82-3.4-1.83-3.64l.31-.88c-1.06-.28-.22-.89-.47-1.76-.19-.65-1.37-2.08-1.45-2.96-.05-.49.59-.82.52-1.21-.07-.45-.99-.83-1.2-1.3-.23-.49.26-1.32-.24-2.21-.46-.83-2.01-1.29-.99-3.06l-1.36-.06c-.82-1.25-.1-3.13-.4-4.29-.08-.29-.77-.2-.71-.4.47-1.47.58-3.35.28-4.95-.04-.2-.46-.15-.51-.25-.09-.19.53-.74-.86-1.14-.5-.14-.98.19-1.01.15-.05-.07.07-.56-.14-.91-.09-.15-.56-.16-.59-.36-.12-.8,1.58-2.92-.35-3.83l.7-1.56c-1.41-.08-1.03-1.84-1.36-2.32-.38-.56-1.2-.71-1.37-.93-.1-.12.41-1.36.24-1.82-.27-.74-1.86-.29-.32-2.52l-.34-.36c-1.21.48-.92-1.11-1.14-1.75-.07-.21-.63-.15-.63-.37,0-.35.39-.86.37-1.38-.03-.9-.69-1.69,0-2.64l-1.43-.19-.84-6.5-1.24-.74.66-1.56-1.02-.52-.35.7c.13-1.9-1.22-2.56-1.42-4.22,2.57.29-.9-2.25-.71-3.52l1.06-.18c-1.04-.47-.97-2.21-1.17-2.56-.19-.33-1.86-1.37-1.95-1.71-.3-1.09.31-1.44-.76-3.39-1.01-1.84-.64-1.97-1.14-3.22-.19-.48-.79-.48-.99-.81-.67-1.07.31-1.52-1.94-1.85l.2-1.42-2.11-.38c.11-.44.43-1.23.26-1.64-.06-.13-1.89-1.99-2.02-2.06-.7-.35-1.29.91-1.94-.85-.87-.05-1.77,5.36-1.86,6.12l1.68.92c-.57,1.26-1.55,1.89-1.42,3.32l1.07.2c-.72,2.49-.84,5-1.07,7.57l1.06.53c-.31-.15-1.82,1.71-1.87,1.84-.58,1.45.49,4.42-1.31,5.39-.26.68,1.05.72,1.08,1.08.02.28-.38.84-.36,1.38.03.73.39,2.54.28,3.17-.04.22-.7.19-.86.86-.17.73.18,2.32.02,3.21l.89.35-1.05,1.74,1.41.93c-1.15,2-.48,3.93-1.09,5.93l.72.2-1.36,1.65c-.33.98.58,1.25.59,1.33.3,2.53-.35,6.14-.28,8.78l.7.38c-1.48.68-.68.7-.87,1.57-.48,2.2.18,1.91.05,3.41-.12,1.33-1.27,4.55-.39,5.73,2.66,1.03-.62,3.4,1.21,4.07-1.32,1.42-.51,2.26-.55,3.55-.03.91-.03,3.04-.86,3.15l1.31,1.4c-1.37,1.39.68,4.49-.96,5.29l.74.4c.02.47-.23.91-.19,1.38.27,3.18-1.37,8.01-.48,11.18.15.52.9.82.97,1.18s-.56.77-.63,1.35c-.13,1.12.59,2.65.31,3.72l.69-.35c1.03,1.48-.54,2.16-.59,2.64-.07.78,1.32,2.21.76,3.02-.25.36-.98.12-.86.68l1.05.54c-.83.25-1.47,3.56,0,3.35l-.74,1.95.74.68-.7.88c.48.14,1.8-.36,1.76.35l-.64.17c.64,1.05-.7,1.64-.77,2.49-.1,1.18.6,2.1-.69,3.53l1.04,1.04c-1.69.71-1.32,2.87-1.06,4.39l-2.78.75-.06.98-1.2.05-.18-1.07c-3.12.94-1.14-2.98-3.52-2.82.37-.9,1.35-1.78.62-2.75l-.96-.23c.41-.43.23-1.12.53-1.58.25-.38.98-.16.87-.71l-1.4-.18c.53-1.5,1.61-1.49,1.39-3.33l-1.05-.02.26-.52c-1.1-.66-.36-2.95,1.15-3.01-.7-1.27-1.09-2.71,0-3.86l-1.06-.55c.75-1.35.9-2.56-1.05-2.63v-.34c.98.15.59-1.9,1.4-2.66-1.87-.86-.48-4.33-.48-5.63,0-.34-.45-.69-.43-1.04.02-.42.93-1.28.12-2.24-1.94-.09-1.02-1.63.43-1.99-.3-.49-.44-1.03-.53-1.59-.21-1.27.01-3.85-.86-4.39l1.05-2.5-.68-.31.32-.91c-1.84.93.09-1.93.18-2.28.19-.73.13-1.67.21-2.44l-1.29-.55c-.06-.07-.1-1.19-.08-1.25.07-.18,1.71-.41-.08-1.04l1.07-1.76-.98-1.07,1.69-3.48c-1.23-.29-.25-1.31-.02-2.32l-1.06-.18c-.08-.94,1.31-1.05,1.05-2.81-.16-1.06-.96-2.32-.89-3.18.03-.4.45-.79.47-1.14.06-.85-.15-1.69.08-2.55h-1.41s.15-1.79.15-1.79l1.26-.33-1.41-1.06,1.32-1.57c-1.61-1.56.04-2.36.08-2.52.09-.42-.46-2.31-.02-3.07l-1.39-.75.64-.21-.21-.81c1.84-1.18,1.14-2.2-.42-3.2,1.07-.29.35-.51.52-1.22.53-2.15.7-4.23,1.11-6,.04-.19.33-.37.48-.52l-1.06-.18v-.53c1.07-2.97.88-6.76.96-9.99.02-1.01-.7-1.72.45-1.98l-1.41-.88c1.25.04.7-.96.77-1.01.3-.24,1.41.06,1.37-.94.17-1.27-.95-2.14-.95-2.81,0-.95,2.04-3.97-.48-3.7l.59-.41.81-1.88-.71-.34c1.87-2.06,1.54-3.82,2.08-6.37l-.69-.36c.12-1.07,1.12-2.76-.33-3.13l1.06-.88-1.05-.17.37-1.38-.73-.56c.59-.18,1.61-.75,1.99-1.18.71-.82.86-3.11,2.24-2.7l-.36-.7c.33-.25,2.41,1.18,2.54-.27l.63.26-.35-1.05c1-.02,2.06-.68,3.08-.24Z"/>
  <path class="cls-1" d="M297.31,2.82c1.1-1.36,1.59-.69,2.57-.84.72-.11,2.3-.58,2.89-.42.76.2,2.44,1.4,2.72,1.49,1.41.45,3.67-.12,4.32,1.53l1.2-.67c.21,1.61,1.92,1.44,2.29,1.69.35.23.11.78.28,1,.28.36,1.36.22,1.51,1.16h.71s.35-.71.35-.71l1.87,1.47c-.43,1.13.19,2.68,1.3,1.37l.36.32c.54.58.13,2.07.85,2.93.65.77,3.36.81,2.48,3.06l1.62.33-.19,1.62,1.05.35.34,2.28h1.41s-.2,2.47-.2,2.47l1.8,1.04-.54,2.84c3.09-.93,1,4.06,1.76,5.72.29.65,1.31.33,1.44.85.21,1.87-1.73,3.01-.32,4.65l.64-.3c.54,1.47.04,2.36-.7,3.34l1.32,1.41c.05.34-2.1,2.27-1.59,3.27.06.12.85-.09.64.96-.17.87-.78.69-.97.95-.11.15-.71,3.03-.44,3.25-1.01.31-.32.86-.88,1.59-.7.93-2.22.81-.99,1.95-.72.55-.86,1.56-1.31,2.12-.62.78-2.28,2.06-2.95,3.02-.71,1.03-.6,2.73-1.98,2.44l-.03,1.74c-.77-.63-2.34.98-2.29,1.6.02.25.45.48.39.89-.37,2.3-3.66,2.3-4.6,3.87-.36.61.47,1.56-.7,2.07l-.87-.67c0,.74-2.22,2.05-2.82,2.25-.36.12-.97-.23-1.05-.13-.09.11.12.71-.08.96s-1.47.24-1.68,1.01l.7,1.2-1.05-.35-.02,1.21c1.73.95,3.32,1.24,5.3,1.26-.35,1.76,1.19,3.47,2.81,2.11l1.08,3.17.62-.27c2.61,2.22,3.77,6.26,7.46,7.32-.57,1.68.23,1.6,1.07,2.63.79.98.19,1.91,2.42,1.63.21,1.08.75,3.19,1.61,3.87.32.25.82-.03.85,0,.78,1.01,1.38,3.51,2.15,4.62.23.33,2.24,2.09,2.62,2.39.41.33,1.09.32,1.43.68.27.28-.19,1.7-.09,2.22.29,1.5,2.27,1.61,3.4,2.42.25.44-.33,1.09-.32,1.5,0,.19,2.04,2.53,1.41,3.02l1.02.04c-.08,1.1.66,2.55,1.8,1.73-.87,1.86,1.17,2.45,1.8,3.43.23.36,0,1.41,1.03,2.04.43.26,1-.22,1.04-.19.09.08.28,1.81.57,2.43.72,1.57,2.56,2,2.25,3.2l1.41-.7c-.44,1.66,1.65.82,1.6,2.29-.01.29-.53.5-.31,1.12s1.52.93,1.98,1.97c.49,1.12-.56,3.06,1.31,2.71.15.62-.61.23-.7.35-.5.66.87.93.98,1.11.05.08-.26.74-.05,1.26.16.42.69.41.76.62.24.71-.92,1.48-1.01,2.13-.07.55.38,1.22.18,1.58-.99,1.84-3.76-.13-3.69,2.45-.72-.32-1.03-1.59-1.61-2.1-.41-.36-1.6-.14-1.51-1.17l.64-.78-1.01-.23-.1-.94-1-.06.33-1c-1.05-1.08-2.5-1.82-3.05-3.5-.43-1.3-.54-2.26-1.2-3.66-.34-.74-.28-.92-.32-.97-.2-.26-1.85.03-1.4-1.43l-1.6.02-.16-1.77-1.05.35c-.38-1.24.35-1.67-.97-2.26l.27-1.26c-1.05.28-2.54-.02-2.71-1.29-.05-.33.25-.71.24-.96-.01-.28-.58-.23-.7-.45-.58-1.13.18-1.83-1.76-1.52.08-1.26-.2-3.65-1.72-3.92l.31-.65-1.06.18c-.09-.33-.67-1.71-.79-1.83-1.04-1.03-2.67-.61-1.32-3.28-2.58.11-3.61-1.43-2.81-3.87-.73.24-2.45-.99-2.72-1.5-.29-.55-.19-1.81-.62-2.74-.4-.85-1.15-.9-1.26-1.74l-1.74.69c.11-.4.38-2,.28-2.25-.16-.41-1.65-1.25-1.34-2.68l-1.4,1.05c-.98-1.14-.53-1.73-.73-2.97-.3-1.8-1.12-1.2-1.64-1.71-1.16-1.15-.67-1.19-2.66-2.37-.52-.31-.32-1.31-2.02-.34-.29-.63.12-2.03-.16-2.46-.34-.52-1.31-.49-1.54-.81-.48-.69.72-1.15-1.48-.75l-1.03-1.8-1.78.18.3-.64-2.58-1.82-1.23.71-1.77-3.87-1.77.92c-.35,1.28.72,1.23.74,1.4.09.64-.66,1.53-.74,2.43-.13,1.43.54,2.94.55,4.57.01,2.13-.79,5.07-.56,7.08.09.76,1.16.24.45,1.52l.64.21c-2.36,1.68-.49,2.59-.43,3.94.02.59-.03,1.55-.01,2.34.02.87.06,1.86-.26,2.7l1.41-.7c.58.7-2.22,4.35-.33,4.78l-.71,2.12.69.32-1.05,1.42,1.4,1.07-.65,1.33,1.35,1.64c-.85-.16-.58.63-.81.93-.22.29-.92.44-.94.65-.01.14,1.08,1.69.35,2.65l.7-.36c.49,1.02-.21,1.98-.22,2.64s.99,1.21-.13,2.12l.68.32c-.41.96-.79,2.21.39,2.49v.7c-.17.37-.84.41-1,.59-.14.17-.14,4.02-.11,4.35.06.67.62.49.69.69.16.52-.91,2.78.4,3.85-1.2,1.36-2.81,1.64-3.35,3.37l-2.64-.71.36-.7c-1.6.62-3.54-1.78-2.45-3.33l-.7-.34c.78-1.04.19-2.5.39-3.45.3-1.43,2.7-4.58-1.12-2.74-.53-1.33,1.36-2.47,1.37-2.63,0-.12-.45-.61-.49-1.06-.11-1.22.37-2.06.35-2.81-.03-1.55-.44-3.55-.54-5.12l-.7.36-.02-1.88,1.42-.94-.65-.16c.34-.64.19-1.81-.13-2.42-.29-.57-1.03-.55-.98-.76.09-.37.9-1.02.98-1.48.11-.63-.73-1.28-.6-1.49.04-.07,1.07-.29,1.03-1.08l-1.41-.54c-.09-.44.62-1.01.58-1.4-.06-.65-1.31-.48.5-1.44-.22-.92-.42-1.39-1.44-1.2l.7-4.57-1.05-.18,1.05-2.99-1.41-.19c-.16-1.59,1.04-1.88,1.21-2.58.21-.82-.13-2.39-.09-3.29.04-.82.62-2.85.56-3.29-.16-1.17-1.97.44-1.68-.68.22-.83.92-2.11,1.74-2.46-.67-.61-.91-3.29-1.15-3.66-.06-.09-.42-.05-.59-.06v-.34c.95-.06,2.42-2.81,1.05-2.99,1.25-1.15.15-2.75-.7-3.88l1.05-.53c-1.2-1.12.26-2.18.03-3.66l-1.43-.73c.16-.58,1.28-1.44,1.35-1.82.09-.49-.49-.89-.52-1.36,0-.15.38-2.87.42-3.03.21-.85,1.3-2.15,1.21-3.3l-.7.17c-.67-1.51.7-2.21.72-2.35.1-.63.26-2.07.33-2.78.09-.81-.64-1.65-.59-2.11.05-.48,1.08-.85,1.15-1.38.05-.37-.26-1.11-.21-1.77.11-1.31.89-4.29.35-5.21-.29-.51-.91-.11-.95-1.63-.05-1.9,1.32-2.2,1.32-2.34,0-.43-.5-.85-.56-1.21-.07-.46.25-6.15.35-6.52.13-.48.73-.71.77-1.05.1-.86-.83-3.76-.6-5.65.15-1.22.87-1.6.99-2.19.14-.66-.62-1.44.42-2.03l-1.24-.49c-.78-1.44.51-2.29.57-3.38.11-1.87-1-3.8-.03-5.46h-1.06s.72-1.23.72-1.23l-.74-.37c-.09-1,.96-1.61,1-1.74.37-1.11-1-2.49.09-3.52l-.73-.38.37-.85-1.06-.18c.85-1.83,3.57-1.21,1.76-3.7,1.02-.38,1.94-.19,2.12,1.05ZM303.63,9.52l-.7.21c-.25.51-.84,3.69-.62,4.15.23.52.93.48.94.72.04,1.53-1.57,2-1.66,2.91-.11,1.09.88,1.79.85,2.38-.03.66-1.31,2.78-1.22,3.63.04.39.54,2.28.67,2.64.12.33.69.28.68.42-.17,1.75-2,3.63-1.33,6.71.06.26.89.05.64,1.05l-.71.52,1.05.35-1.4,1.07.7.52c-1.77,1.71.44,4.65.75,6.69l-1.1,1.06.71.34-1.41,2.83.67.33-.32.9h1.06c-.17,1.13-.34,1.44-1.42,1.94l1.41.52c-1.38.55-2.57,3.48-.35,3.89v.34c-1.8.46-1.89,2.42-.76,3.71-2.71,1.26-.35,3.07-.4,3.87-.01.22-.68.88-.84,1.68-.23,1.14.32,2.01.6,3.07h-1.06c-.17.89.18.58.72.89l-.72,1.58c.81.02,1.55.28,1.41-.7h.34c.45,1.91,2.67.29,3.78-.26,1.26-.62,4.61-2.51,5.61-3.73.34-.42.43-1.49.92-1.9s1.32-.29,1.84-.81c.71-.71.18-1.6.25-1.7.07-.11,1.82-1.12,2.16-1.45.32-.31.17-.81.33-.96.23-.22.82-.11,1.14-.46.78-.86,0-2.18.43-3.08.27-.57.91-.66,1.16-1.06.75-1.15.78-3.23,2.46-2.55.2-.66-.64-.84-.55-1.42.1-.61,1.41-2.93,2.31-2.45l-.71-.52.7-.88-.7-.17c.55-1.31,2.12-1.07,2.03-2.77-.05-.88-1.24-2.37.09-3.23-1.17-.3-.35-.73-.55-1.24s-1.24-.69-.5-1.75h-1.07c.58-1.33,1.46-2.56.9-4.07-.19-.5-.9-.78-.91-1.39,0-.53.93-1.06.71-1.74-.12-.35-.75-.4-.96-.67s-.04-.89-.09-.95c-.2-.19-.99.3-1.24.3-.13,0-.35-.85-.86-.66l.7-.35c.24-.95-1.09-.66-1.04-1.91l1-1.01c-.05-.21-1.4-2.53-1.56-2.69-.4-.41-1-.29-1.14-.45-.18-.19-.2-1.68-.63-2.39s-3.2-1.12-2.26-3.17c-1.72-.12-3.45.15-3.18-2.12-1.76.9-1.81-2.07-3.87-1.05.34-1.75-1.15-3.93-2.3-2.1l-.65-.06-.93-1.36Z"/>
  <path class="cls-1" d="M444.19,5.99l-.35,1.05,2.43.39.04,1.37,1.4-.7c0,.76,1.05,1.09,1.24,1.76.13.46-.57.76-.5,1.18.05.35.79.73,1.05,1.1.59.85-.1,1.55,1.74,1.24-.12,2.33.17,3.92,2.46,4.93l-1.41,1.58c.31.93,1.31.52,1.37.58.5.44-.11,1.94.02,2.52.07.35,1.22.61,1.42,1.13l-1.05,1.23c2.43.28.56,4.4,3.17,4.24-.84,2.08-.77,3.94,1.05,5.45l-1.41.53c-.09,1.32,1.08,1.82,1.3,2.27.08.15-.41,2.22-.12,3.28.43,1.61.44,1.38.66,3.36.11.99.89.93.92,1,.23.63-.97,3.49,1.35,4.33l.12,3.02,1.05-.35-1.05,2.65.69.17c.82,1.29.14,1.95.15,2.64,0,.64.91.97-.49,2.28,2.15.42-.56,3.19,2.07,3.22l-.32,2.54c.78.37.84,1.45,1.18,2.25.06.15.67.06.58.27-.13.33-.74.54-.39,1.21l-1.02.03c-.02,1.59,1.54,1.84,1.06,3.52l.7-.7c.09.71.22,1.48,1.06,1.41l-.7.35.71,1.05-.7.35c2.83,1.23,1.56,3.96,1.41,6.34l1.05-.35c.99,1.33-.42,2.7-.37,3.34,0,.09.89.86,1.04,1.05-.59,2.35.32,5.13,1.09,7.43.36,1.09,1.57,1.67.71,2.98l1.02.02c.23.25-.03,2.28.11,2.62.12.29.67.28.86.67.33.71-.57,2.37,1.19,1.97l-.3,1.54-1.11.39c.34.78,1.31.17,1.37.22,1.09.81.25,3.07.39,3.98.11.73.91,1.22,1,1.86.21,1.39-1.09,4.75,1.82,4.34l-.69.5c.02.75.94,1.35.97,1.43.22.75-.79,2.05.78,2.81l-.7.35,1.36.58-.65,2.76c2.39.18.11,3.12,2.46,2.83l-.7,1.92,1.08.78c-.88,2.3.23,1.56.73,2.73.28.66-.05,1.31-.05,1.96l.7-.36c-.38,1.11.84,1.13,1.02,1.64.29.82-.56,2.5-.64,3.5-.12,1.48.68,3.04-1.36,4.08l.28.63-.9-.32-.3.65-1.4-.36-.56.73c-.33-1.04-2.13-2.18-3.18-2.47.37-.78.5-1.81.39-2.66-.09-.68-.75-.48-.75-.7,0-.38.46-.93.4-1.34-.05-.32-.76-.29-.97-.73-.08-.17.05-2.65-.31-3.03-.39-.41-1.21-.32-1.56-.86l1.05-1.05c-.66-1.44-2.41-2.73-1.41-4.41-2.4.13-1.04-3.13-1.56-4.97-.29-1-2.08-.94-.9-2.78l-1.41-.36,1.06-1.75h-1.06s.35-1.06.35-1.06l-.7.36c.25-.96-.64-1.01-.84-1.81-.33-1.29.29-2.14.09-2.88-.15-.54-.96-.86-1.23-1.49-.15-.36-.27-2.64.55-2.44-.02-1.26-2.78-2.28-.69-3.19l-1.01-.58.31-.65-1.41.35c-.65-1.11.2-1.86.26-2.74.14-1.92-.45-3.73-1.36-5.42-.45-.83-1.77-.88-1.3-2.55.18-.65,1.32-.26.98-1.26l-1.07.19c-.97-.73-.28-1.68-.41-2.4-.12-.65-.86-1.34-.86-1.84,0-.43.58-.83.52-1.67-.09-1.16-.93-1.88-1.88-2.38l-.32.68c-1.05-.51-2.33-.4-3.47-.24-1.59.23-4.13,2.19-5.36,2.24-.93.04-1.72-1.05-2.45-1.11s-1.97.51-2.85.56c-1.58.1-1.75-.06-3.6.25-.9.15-2.2-.59-3.62-.78-1.17-.16-2.12-1.2-2.5.47-.98-.11-3.83-.86-4.64-.67-.43.1-.27,1.02-1.13,1.1-.95.09-2.61-1.87-4.36-.67l-.22.99c-.91-.98-2.35.1-2.82-1.41-1.48.13-1.01,3.55-2.29,4.41,1.66.99-.26,4.07-.73,5.63l.73.36c-1.23.78.17,1.17,0,2.44-.08.6-.73,1.28-1.07,1.8l.71.34c-1.52,1.41.83,3.09-.71,4.59l.73.39c-.64,1.81.63,3.32-1.43,4.18l.69.32c-1.18,1.14-.11,3.84-.42,4.61-.05.12-1.38.44-.27,1.38.12.1.88-.41,1.05.89l-1.78.57c-.42,1.48,1.19,3.16,1.08,3.3-.06.07-.72.06-.89.33-.16.25.19.76.09,1.16-.08.33-.5.63-.53.89-.09.74.48,1.42-.09,2.2l1.06.35-.73.23c1.16,1.27-2.14,3.59-2.09,3.82.07.27.61.64.59,1.06-.05.92-2.1,1.31.46,2.3v.34c-1.44-.23.31,2.33-1.49,2.13-1.16.53.78.92.78,1.22,0,.23-1.14,1.69-1.75,1.24.92,2.17.84,3.97-1.81,4.44l-.11,1.91c-1.4.03-1.51,1.59-1.85,1.77-.69.37-3.34.66-4.08.33-.45-.2-.24-1.13-.79-1.41l-1.58.7c.35-.52-.09-1.17-.01-1.53.09-.4.86.06.72-.76-.7.02-1.79-2.62-.36-1.58v-.89s-.7-.52-.7-.52c1.37-.07,1.71-1.33,2.49-1.92s1.63-.11,1.03-2.43c-.08-.3-.77-.19-.71-.4.15-.52,1.16-1.64,1.5-2.39.39-.88,1.63-4.86,1.54-5.71-.04-.38-.71-.7-.54-1.35.1-.39.72-.61.87-1.12.25-.86-.15-3.06,0-3.75.15-.74,1.29-2.19,1.41-3.45.04-.44-.66-2.15-.43-2.96s1.22-1.1.79-2.72c-.21-.82-1.25-.52-.89-1.85.08-.28.8-.26.89-.89s-.42-1.14-.4-1.63c.05-1.14,1.83-3.39.56-4.26-.46-.32-1.22.76-1.06-.32.15-1.01.68-1.69,1.77-1.59-.49-.78-.66-1.21-.36-2.11l-.7-.17c.53-.27.39-.96.57-1.24.17-.26.83-.27.86-.55.07-.6-.53-1-.56-1.38-.05-.54.28-2.06.1-2.48-.12-.28-.84.05-.61-.66l1.74-2.14-1.06-1.06c.25-.55,1.3-.84,1.35-.93.16-.28-.26-5.57-.3-6.4l1.42-2.2-1.06-1.2,1.76-.71c-1.12-1.97.24-2.79-.35-4.57h1.06s-.1-1.35-.1-1.35l-.6-.24.71-.88-1.41-.17c.17-1.07,1.49-2.08,1.74-2.57.6-1.21.58-3.57,1.42-4.83l-1.05-.18c.22-1.48.05-2.25,1.78-2.64l-.71-2.43c1.68-.9,1.42-3.56,1.66-5.42.22-1.69.97-2.29,1.5-4.13.31-1.09-.85.38-.69-.69.24-1.58,2.09-2.45.7-2.82,1.83-1.27.87-3.24,1.07-4.18.05-.25.53-.22.59-.42.47-1.65.99-2.6-.24-4.02.26.02.54-.03.69-.26.6-.92,2.06-4.6,2.14-5.56.09-1.09-.16-.45.17-1.32.46-1.21,1.02-2.1,1.02-3.47l1.25-.35c-.3-.83-.14-1.07.36-1.73l-1.06-.18c.25-.46,2.46-2.34,2.48-2.52.07-.68-.75-2.3-.66-2.54.01-.03.5-.08.64-.31.32-.51.51-1.26.74-1.56,1.18-1.56,1.63-.93,1.71-1.01.5-.54.8-4.59,1.51-5.19.3-.25,1.55-.14,2.11-.44.45-.23.61-1.29,1.67-1.08l-.18-1.04c1.15-1.43,2.96.13,4.07-.11.69-.15.96-.95,1.57-.94.65,0,1.47,1.36,2.65.36ZM442.08,14.09c-.49.22-1.01.16-1.5.34-.77.29-1.96,1.95-2.23,2.16-.9.68-1.8.16-1.19,2.43h-1.06s.69.51.69.51c-.27.26-.23.66-.39.97-1.29,2.54-2.49,5.44-3.72,8.3-.17.4-.73.39-.8.69-.36,1.57.49,3.1-1.07,3.97l1.05.35c-.86-.19-.58.74-.8.97s-1.11-.01-1.31.98l1.05,1.04c-2.05,1.29-1.17,2.84-1.69,4.28-.14.4-.5.46-.52.5-.35.74-.04,1.55-.95,1.4l1.05.52c-.79.67-.79,1.58-1.09,2.37-.12.32-.61.26-.61.44-.02,1.15.5,1.96-.76,3.19l.71.34c-1.97.87-.27.95-.5,1.97-.17.77-1.85,1.99-1.51,3.7.05.27,1.31.51.93,1.88-.96-.56-1.85,2.39-1.9,3.15-.06.81.55,1.43.54,1.96,0,.19-.59.2-.71.48-.34.81.11,1.75-1.06,2.37,1.19-.18,1.18.99.61,1.52-.23.21-.86,0-.97.07-.18.13,1.55,2.93-.35,4.05l.71.34c-.79.58-.32,1.56-.59,2.2-.24.57-1.43.79-.82,2.56.7.16.87-.64,1.52-.63s1.71.8,2.57.95c1.56.28,4.5.6,5.99.73.79.07,2-.13,2.8-.29l.33.65c1.13-1.73,2.42-.76,4.06-.71l-.36-.7c1.6.84,3.11-.05,4.42-.02.86.02,1.43.72,2.25.92,2.35.58,3.82-.12,6.15-.25l.75-1.35c.93.14,2.54.86,3.47.68.25-.05.17-.55.48-.66.75-.25,1.94-.04,2.57-.98l-1.12-4.28-2.07.31c-.11-.88.91-1.92.99-2.35.09-.46-.55-1.06-.62-1.72-.2-1.99.35-2.98-.59-5.39-.52-1.33-1.92-1.91-1.54-3.32.08-.28.63-.22.69-.47.35-1.26-.53-1.07-.68-1.44s.11-.98-.2-1.51c-.15-.26-.78-.22-.88-.59-.44-1.58.73-1.6.73-1.7,0-.47-.48-.84-.57-1.23-.2-.85.64-.9-.86-1.58l.7-1.23-1.41.35c.24-1.09.92-2.92.7-3.98-.06-.29-.56-.23-.63-.41-.07-.21.05-3.14-.27-4.37-.17-.65-1.06-2.68-1.14-3.02-.22-.95.35-2.22-1.48-2.65v-.34c.92.15.38-1.05,1.34-1.59l-1.35-1.77c-.09-.26,1.17.02.71-.87-3.09-.15-1.11-2.5-1.24-3.17-.24-1.28-1.5-.99-1.58-1.06-.1-.09.29-.81.25-1.19-.07-.6-.72-1.11-.25-1.98l-1.05.35c1.15-2.09-2.45-2.74-.71-4.57l-1.1-.21c.27-1.85-1.24-1.6-1.02-3.32Z"/>
  <path class="cls-1" d="M190.59,2.45h.87s.17,1.78.17,1.78c1.2-.04.36-1.22,2.12-.35l-.37,1.21.62.27-.25.63,1.6.34-.19,2.13h1.41c-.96,1.19-.64,2.55-2.38,3.1-.11.04-2.2.33-2.31.33-2.3.02-3.32-1.5-4.68-1.66-.39-.05-2.31-.26-2.43-.25-.33.03-.56.65-1.05.78-.72.19-1.97.16-2.64-.19v1.07s-.63-.26-.63-.26c-.34,1.01-1.81,1.11-2.54,1.86-.27.28-.11.72-.24.85-.99,1.04-1.46,1.58-2.97,1.58l.03.89c-2.97-.27-1.83.35-2.19,1.32-.05.14-1.81,1.68-1.99,1.91-.3.39,1.37,1.7-1.65,1.68-.54.38-.22,1.06-.49,1.52-.57.97-2.64,1.53-3.2,2.53-.42.74-.19,1.3-.43,1.87-.61,1.43-1.18.86-1.8,3.61-.56,2.5-1.22,1.36-1.92,1.81-.2.13-.17.83-.4,1.11-1.55,1.86-.44,2.15-1.32,4.04-.2.43-.99.69-1.16,1.33l.73.38c.11.67-.99,1.98-1.43,2.7-.82,1.32-.55,2.19-1.16,3.85-.27.72-1.15,1.63-1.29,2.23-.25,1.02,1.13.08,1.04.86l-2.34,1.56-.44,2.52.67.15-.62.4-.09,1,1.05.52c-1.14.64-.91,1.48-1.19,2.21-.04.11-1.63.97.14,1.67-1.36,1.07-.95,3.03-1.22,4.06-.56,2.12-1.89,4.09-1.24,6.34,2.74-.87,0,1.5,0,1.65-.03.31.26.73.2,1-.1.47-.72.6-.55,1.23,3.52-.26-.44,2.57-.37,4.03,0,.22.74.06.77.72.03.94-.57,1.38-.6,1.78-.01.16.69,1.54.2,2.27h1.06c-.39,1.07-.18,1.43-1.42,1.59.62.64.31,1.41.39,1.71.03.11.87,1.32,1,1.56.7,1.31-.64,1.63-.52,2.58.13,1.05,1.56,2.33,1.6,3.7.03.88-.86,1.33-.7,2.24h1.42s-.01,1.39-.01,1.39l-1.04.04c-.03,1.06.73,1.08.88,2.06.13.8-.27,2.44-.18,2.98.05.26.66.16.69.43.14,1.51.82,3.29,1.27,5.06.25.99-.36,1.83-.02,2.79.32.91,1.71,2.37,2.63,1.44-.09.81-.32,1.89-.06,2.67.46,1.42.22.99.51,2.35.23,1.08,1.37.93.97,2.37h1.76c-1.26,2.8.19,2.69,1.42,4.03,1.09,1.19,2.19,2.69,3.25,3.98.3.36,1.05.08,1.5.42,1.15.85,2.08,2.82,4.22,2.71,1.06-.06,1.03-1.29,2.16.87l1.72-.73c.73,2.75,3.2.68,4.63,2.41,2.68-1.63,3.69-1.11,6.63-.1l4.41-1.62-1.05-1.4c1.17-.51,3.4-.32,4.31-1.07.46-.38.28-1.01.81-1.38.61-.43,1.74-.17,2.27-.91l-.7-.75c.26-.7.14-1.68.44-2.32.5-1.06,1.29-1.03,1.58-1.41.08-.11-.13-.59.02-.87.6-1.18,1.21-1.84,1.14-3.29l.7.35c.29-.31.4-3.24.56-3.91.18-.75.47-1.06.69-2.24.17-.89,1.31-1.41-.9-1.6l.71-2.28-1.05-.18.05-1.71,1.36-.58c-.3-.43-1.3-1.43-1.35-1.82-.06-.44.59-.8.62-1.33.02-.3-.1-2.42-.14-2.85-.06-.63-1.63-1.69-1.58-3.16.04-1.3.38-.38.05-2.54-.15-.97.96-1.63-.43-2.08.74-1.77.4-2.32.18-3.82-.14-.94.9-1.2-.71-1.21-.93-.92.13-1.95.21-3.02.09-1.23-.41-2.3-.05-3.47-.58-1.07-1.23-.56-1.71-.75-.33-.13-.65-.83-.9-.84-.48-.01-2.5,2.48-4.05.65l-.18,1.41c-.25-1.05-.64-.36-1.33-.69-.24-.12-.18-.63-.48-.71-.32-.09-1.18.44-1.54.15-.24-.2-.25-.83-.58-.9-.54-.11-1.21.38-1.72.35-.47-.02-.82-.57-1.04-.57-.44,0-.86,1.32-.93,0-2.54.26-2.89-2.01-3.71-3.53-.32-.59-1.13-.29-.77-1.26.23-.63,1.18-.98,1.31-1.54.15-.69-.86-1.68.58-1.89l7.78,1.75c1.48-.37,3.45-.93,4.72.03v-1.4c1.71-.65,1.78.92,2.65,1.07,1.05.19.79-.6,1.11-.7.66-.2,5.08.92,6.12.84l2.74,4.29c-1,1.35-.16,1.82,0,3.13.14,1.17-1.07,2.36-.63,3.69l1.06.18-.37,1.38.7.34-1.03,2.99,1.04.55c-.96.92-.16,3.53.22,4.8.35,1.18,2.12,2.92.5,3.66,1.71,1.44.08,1.94,0,2.18-.46,1.6.72,1.59.7,1.69-.57,2.35-.34,1.49-.03,3.92.06.51-.33.99-.33,1.34,0,.1,1.09.93,1.06,1.6-.66-.08-1.55,1.05-1.4,1.57.13.45,1.37.23.92,1.72-.12.38-.66.78-.57.94.04.07.68-.28.96.97.07.31-.25,4.95-.32,5.21s-.7.1-.64.33c1.18,1.23.82,2.54,1.02,4.02l-1.36.41.27.62c-1.29.77-1.64,2.14-2.93,3.24-.32.27-.95.24-1.14.43-.49.49.12,2.01-1.47,1.69l.32,2.8-1.89.32c-.15,3.03-3.35.88-2.95,3.14l.61.41c-.6.48-2.1.4-2.47.57-.6.28-2.17,1.67-2.96,1.97-.48.18-1.15-.11-1.59.12-1.59.8-1.1,3.37-4.56,1.61l-.74,1.01c-.65-2.01-1.15-.39-1.29-.35-2.81.69-6.42-1.31-9.12-1.74-.99-.16-2.88.36-4.17-.39l-.74,1.43c-.8-.63-2.08-1.35-1.95-2.46l-.62.23-.22-.56-1.21.29c-.44-1.95-2.24-1.44-3.5-1.97-.4-.17-.34-.68-.69-.8-1.1-.36-2.19.28-2.22-1.78-1.93.87-1.61-.75-2.18-1.33-.45-.46-1.8-.64-2.4-1.65-.33-.56-.24-1.33-.4-1.53s-1.01-.1-1.37-.56c-.3-.38-1.86-3.74-2.21-4.48-.69-1.48.08-2.07-1.92-2.13l-.67-4.9-1.14-2.29.69-.16-1.4-1.23,1.05-1.22-1.06-.18c1.22-1.8-.69-2.24-.72-2.51-.07-.51.09-3.26-.1-3.83-.16-.47-.97-.43-1.13-1.19-.27-1.32,1.28-4.43-1.55-3.91-.15-.58.49-.19.63-.51.52-1.23-1.52-2.6.07-3.54.03-.3-.48-.08-.6-.26-1.05-1.67-.34-4.54-.48-6.79-.12-1.93-1.2-3.46-1.27-5.57-.04-1.06.62-1.67.59-2.69h-1.41c.65-.81.59-1.92.95-2.74.25-.57,1.11-.3.82-1.31-.05-.16-.61-.12-.65-.35-.24-1.25.83-4.2.66-5.23-.05-.28-.92-.23-.93-1.11-.01-1.26.91-.72,1.25-.91.1-.06-.3-1.92-.27-2.29.17-2.05,1.01-4.67,1.29-6.39.09-.59-.47-2.16-.22-2.75.11-.25,1.24-.75,1.34-1.42l-.72-.69,1.38-2.87c.33-.89-1.08-.22-1.01-.65.28-1.65,1.28-1.15,1.61-1.56.11-.15.2-3.17.31-3.56.42-1.5,2.83-4.2.55-5.09.52-1.22,1.09-1.25,2.11-1.77l-1.06-.35c.84-.39.92-1.72,1.76-2.47l-.7-.52,2.46-.71-1.41-1.05c.81.08.74-.06.35-.71,2.57.49,2.14-3.74,2.82-5.46l1.05.17-1.05-1.05c.94-.4,1.69-2.08,2.46-3,1.26-1.5,2.93-3.94,3.84-4.94.68-.75,1.44-.05.74-1.57,3.28.24,1.6-4.06,4.93-3.53l-.7-1.24c.91-1.27,1.58-.11,2.46-1.05l-.73-.38.41-1.19c1.99,1,2.66-1.01,3.23-1.35.69-.4,2.7-1.23,3.44-1.71,1.96-1.27,1.39-2.13,2.12-2.77s2.02-.09,2.83-.7c.4-.31-.1-.93.13-1.23.06-.08,1.75-.99,1.86-1,.62-.09.88.83,1.38.93.94.19,2.6-1.82,3.84-.28l.34-.72.65.07c.4.78,2.16,1.12,2.66.6.24-.25-.29-1.12.39-1l.03,1.03Z"/>
  <path class="cls-1" d="M240.58,1.07c.35,1.5,3.33.85,4.74,1.08.52.08.87.56,1.15.61.45.08,1.16-.73,1.84-.83.43-.06,1.69.55,2.95.18.3-.09.24-.68.45-.69,1.23-.08,3.38,1.39,4.58,1.37.19,0,.16-.52.4-.66s2.63-.08,3.04-.02c.29.04.09.73.75.76.77.03,1.53-.4,2.31-.4l.17-.7,4.07,2.31c-.22.72-.44,1.45-.51,2.21-.1,1.07.81,1.67-.9,1.46l.73.55-.9,1.87c-.39-.15-.82-.46-1.23-.49-3.1-.28-4.52.21-7.29.41-1.93.14-3.85.03-5.57-.94-1.01,3.86-3.9.12-4.94.13-.38,0-.89.54-1.44.59-1.36.12-1.67-1.1-2.43.69-.93-.16-1.76-1.7-2.46-1.39-.4.18-.38.86-.72,1-.14.06-2.81,0-2.82-.66-.27,1.24-1.88.05-2.99.35-.15.59.62.14.72.58.18.83-.74,2.46-.74,3.09,0,.23.77.14.89.85.1.56-.36,1.36.14,2.02l-.6.31.09,1.62,1.26.33-1.79,2.63c-.13,1.21.81,1.01,1.01,1.29.32.45-1.1,2.75-.52,3.39l.6.08c-1.16,1.07.02,1.2.04,2.27,0,.45-.54,2.87-1.1,2.82,1.2,1.07-.35,2.27,1.42,2.83-2.56,1.45,1.03,2.54-.71,4.04l.7.16-1.4,2.3c3.16,1.36.11,1.39-.2,2.45-.09.3-.53,3.16-.52,3.36.01.22.54.17.66.37.07.19-1.22,3.31-1.27,3.94,0,.13.4,2.32.47,2.6.11.42,1.2.79.5,2.1h1.06c-1.06,1.22-.43,3.59-2.11,3.88-.06.8,1.23-.19,1.05.87-.12.7-.71,1.07-1.4.89.73.97,1.3,1.15.7,2.46h1.06s-1.4,2.61-1.4,2.61c1.27.63,1.45,2.49,2.99,2.53.51.01,1-.48,1.64-.4.68.09.52,1.48,2.86.81s.98-.8,3.98-.61c.91.06,1.42-.57,2.26.34l.55-1.02c.99.32,2.88.35,3.86,0,.63-.22.57-.78.69-.75.19.04.91.6,1.36.78,1.67.67,1.26.05,2.59.01.93-.03,3.19.92,4.54-.05l.32.68,1.24-.71.38,1.54-1.43.58.56,1.07c-1.02.75-.65,2.31-1.72,3.04-.92.63-2.93.04-3.09,1.86-1.61-1.04-3.18-.46-4.91-.7l.35,1.05c-1.01.57-2.03-.55-2.29.71-.9-1.86-2.75.23-3-1.76-.96,1.21-3.36.13-3.52,1.76l-.74-1.02c-.2-.13-2.15.87-2.6.88-.85.02-2.91-1.2-4.56-.92-.49.08-.86.6-1.15.64s-1.51-.78-2.18-.6c-.6.58,0,3.22-.19,4.02-.08.34-.66.68-.55.87.02.03.49-.08.71.24.98,1.43-1.06,4.43-.28,4.99.24.17.9.04,1.18.38.59.74.21,1.82-.9,1.44.22,2.22.6,4.57-.71,6.53l.7.16c-.6.72-.67,1.16-.27,2.05l.98.06c.19,1.14-1.68,2.46-1.7,2.62-.03.3.87,2.12.9,2.9.03.92-.95,3.86-.96,5.03h1.07s-.25.64-.25.64c1.62.66-.65,2.09-.76,2.42-.14.42.21,1.94-.05,2.58l1.04.02c.16,1.85-2.14.89-1.19,2.49l1.21.55c-.33,1.24.36,3.11.18,4.17-.23,1.32-1.25,1.4-1.24,2.62l1.05.02c-.11.92-.6,2.1-.53,3,.06.83.61,1.2.76,1.82s-.89.94.83.81l-.36,1.4h1.42c.17,2.71,2.56,4.65,5.09,5.65l.71-1.06c1.18.84,1.33,1.55,3,1.4l-.35-1.05c.43-.11,1.44-.36,1.71.07.21.34-.24,1.09.4.98.17-1.75,1.29-.62,2.13-.85.44-.12.92-.81,1.21-.8.26,0,.61.68,1.33.56s2.31-1.56,2.45-1.6c.59-.2,2.05.19,2.57.17.16,0,1.67-2.11,2.62-.64-.06-1.63,3.73-.98,4.58-.52.56.3,1.17,1.8,2.11,2.11-1.11.48-.96,1.77-1.2,2.19-.43.75-1.3,1.38-1.82,2-.35.41-.41,2.02-1.35.88-.22-.26-.05-.79-.56-.67v1.41c-.43-.12-2.19-.33-2.41-.26-.13.04-1.82,1.87-1.12,2.01-1.01.6-2.23-.4-2.97-.36-.2.01-.16.65-.44.71-.65.16-1.53-.09-2.23,0l.35,1.05c-1.35-.47-2.73-.37-4.05-.53-.38-.05-.53-.43-.71-.52-.09-.04-.24,1.04-1.41.88-1.78-.23-.95.05-2.09.14s-4-1.86-4.43.38h-.34c-.05-.79-1.39-1.48-2.12-1.88-.26-.14-.75.13-1.04-.05-.55-.35-.76-1.52-1.18-1.83-.11-.08-2.17-1.26-2.37-1.36-.63-.31-.8.34-1.22.41-1.61.26-1.22-3.25-1.4-3.72-.05-.13-1.45-2.19-1.59-2.34-.4-.45-2.95-.69-.71-2.07-.39-.47-1.01-.81-1.25-1.4-.09-.22-.46-4.17-.48-4.63-.05-1.39,1.21-2.17-.77-2.46-.57-.84.24-1.25.38-1.73.07-.26-.55-.1-.65-.34-.24-.56,1.23-1.88.98-2.76-.07-.25-1.17-.52-.98-1.42.15-.72,1.26-.86,1.32-.96s-.55-1.73.03-2.43l-1.05.35c-.14-.09.88-2.92.9-3.33.03-.48-.43-.97-.42-1.42.02-.69,1.41-2.8.92-4.05l-.69.35-.21-1.77.9-.35-.7-.69.71-.23.02-2.09-.73-.67c1.5-.76.84-2.86-.71-2.65-.1-1.41,1.39-1.46,1.42-1.58.3-1.5-2.29-2.94.34-4.58-2.18-.24-.39-1.16-.12-2.18.73-2.75.52-6.43.61-9.27.02-.64.85-.83.19-2.19-.24-.49-1.32-.41-.32-2.03l-1.06-.17c.23-1.62,1.34-1.13,1.43-1.43.41-1.32-.36-1.52-1.08-2.27l.6-.07c-.48-.9.36-.6.62-.98.97-1.45-.83-1.67-.85-1.94-.04-.54,1-1.3.99-1.39-.03-.81-.1-3.23.11-3.91.07-.23,1.79-.63-.45-1.78-.11-1.12,1.03-1.14,1.08-1.21.13-.21-.98-1.02-.93-1.57.02-.25.52-.56.53-1.04.01-.61-.35-1.48-.22-2.14.04-.18,1.6-2.3,1.59-2.45-.01-.2-.48-.48-.54-.78-.05-.24.59-1.26.52-2.1-.16-1.87-.05-2.05,0-3.89.02-.71-.78-1.29-.25-2.21l.7.36c.21-.7-.52-1.23-.57-1.76-.08-.91.49-2.28.23-3.28-.09-.35-.71-.33-.94-.76-.46-.86.75-1.17.85-1.32.72-1.16-.99-3.06-.62-3.45,2.58-.12.35-.77.16-1.05s.17-4.39.23-5.07c.14-1.43,1.36-2.25-.74-3.21.32-1.22,1.77-1.24,1.77-1.42-.67-1.37-.98-3.01-.93-4.53.06-1.71-.14-1.95-.17-3.21-.02-.91,1.37-2.57.11-2.69.81-1.39-.6-.97-.78-1.55-.18-.62.56-1.06.56-1.4,0-.2-.43-.5-.41-.7.25-2.25.95-2.04,1.53-3.23.23-.48.31-2.06.46-2.19,1.35-.19,2.36.22,3.3-.78l2.13.78c1.06.09.84-.6,1.04-.66.69-.18,1.99-.07,2.65.27V.71c1.33,1.03,2.47,1.62,3.87.36Z"/>
  <path class="cls-1" d="M376.92,5.62l1.4.55c.18.88-.16.74-.73,1.08l.44,1.15,1.35.06-.62.39-.43,4.54,1.41.17c-.28,1.18-1.67,2.99-1.41,4.17.06.29.58.23.65.42.08.23-.92,4.33-.92,4.59,0,.23.7.6.87,1.1.54,1.66.27,3.83.93,5.7.03.08.48.05.54.23.3,1.05-3.51,4.61-.3,5.64l-1.4,1.93.61.06-.27.64h1.07c-.2,1.13-.43,1.93-1.41,2.65,1.36.35.29,1.28.21,2.1-.14,1.36-.28,2.77.51,3.52l-1.3,2.12c.66,1.26.18,2.58,1.59,3.15-.5,1.73-1.91,4.28-.94,5.95.38.65,1.32.41.97,1.45l-1.38,1.43,1.36,1.04c-1.9,1.54-.22,4.54-.37,5.24-.08.38-.66.59-.82,1.1-.3.96.41,2.24.4,2.47,0,.25-.48.49-.48.99,0,1.14,1.31,1.7,1.31,1.82.01.15-.98,1.74-1.01,2.84,0,.16.56.09.65.4.35,1.28.51,3.6,0,4.84.54,0,.9,1.63.94,2.14.06.78-.86.85-.92,1.12-.15.73.1,1.62,0,2.4-.34,2.39-.79,6.05,1,7.62-.32,1.91.55,2.63-1,4.18,2.67.19,1.23,2.01,1.11,3.09-.07.69-.23,1.92-.26,2.44-.14,2.22.69,2,.86,2.8.09.41-.57,1.11-.65,1.74-.17,1.24.79,2.78,0,4.02h1.06c.08.07-.67,1.64-.68,1.96,0,.16.61.11.68.37.26,1.05-.71,2.41-1.06,3.3h1.18c.63.08.29,2.39-1.18,1.41-.28,1.02.96.52.9,1.58-.03.56-.67,2.19-1.24,2.47l1.4.17c.61,1.8-2.35,1.88-.35,2.64l-.73,1.77,1.08.89c-.48.75-.82,1.76-.62,2.64.04.17.53.15.55.21.09.3-.37.58-.21.94.05.1.55.02.57.23.2,1.97-1.25,2.48-1.24,3.59.01.9,1.18,3.71.79,4.35-1.48,1.49-4.33.63-5.31,2.47l-.5-1.27c-.56-.75-1.25-.13-1.38-.21-.12-.07-.17-.62-.39-.81-.46-.39-1.7-1-1.36-1.76.19-.43,1.39-.4.99-1.59l-.7-.17c1.96-1.42-.76-2.79,1.06-3.52-.73-.95-1.11-.98-1.04-2.27l1.04-.02c-.38-.77,0-1.51-.09-2.19-.04-.34-.61-.69-.62-1.15s.84-1.19.62-2.12c-.03-.11-.79-.93-.85-2.03-.08-1.49.65-2.84.39-4.17-.09-.47-.69-.81-.73-1.2-.11-.98,1.12-2.51,1.27-3.18.2-.89-.67-1.72-.34-2.62l-1.76.35.59-.41.19-1.29.98-.23c-.64-.83-.06-1.58-.05-2.13,0-.21-.53-.12-.57-.33-.38-1.86.2-1.94.29-3.52s-.45-3.6-.36-5.24l-1.08-.22c.02-.95.38-1.63,1.41-1.41v-.52s-1.29-1.4-1.29-1.4l.54-2.96c-3.31-.32-.51-4.16-.49-6.2,0-.71-.41-1.36-.4-2.07,0-1.63,1.27-3.39-.82-4.27,1.27-1.37.09-4.13.46-6,.16-.79.7-1,.8-1.4.22-.88.23-3.1-1.27-2.65l.63-.51.09-1.73-.72-.4c.87-1.2.82-3.76.72-5.24-.02-.26-.93-.22-.94-1.11,0-.8.9-.75,1.05-1.63.22-1.33-1.24-3.03.94-4-1.1-.25-1.53-3.33-1.41-4.19.02-.14.87-1.25.88-2.49s-.14-2.51-1.59-2.31c0-1.13,1.99-2.07,1.24-3.17-.17-.24-.78-.2-.89-.58-.17-.62.72-2.49.85-3.13s-.12-2.08-.02-2.47c.11-.44.81-.35.93-.74.03-.09-.3-1.79-.38-1.84l-1.38-.38c1,.21.61-.95.7-1.06.3-.33,1.61.94,1.41-.17-2.22-1.5-1-5.72-1.03-8.11-.01-.96-.06-3.41-.74-3.55l.28-.8-.6-.19c.65-.9.11-1.83.15-2.73.02-.46.47-.91.51-1.19.02-.15-.77-.14-.88-.84-.03-.22.55-2.32.54-2.84h-1.41c.18-1.01,1.25-1.97,1.3-2.92.06-1.04-.14-2.28-1.31-2.19,1.08-.22.36-.94.67-1.76.39-1.05,1.05-1.37,1.91-1.94.24-.16.25-.62.31-.64.36-.16,3.71.8,3.98-.76.68.54,1.02.91.53,1.74Z"/>
  <path class="cls-1" d="M122.13,3.98c.12.08.06.63.28.62.51-.02.79-.58,1.05-.6.14,0,2.2,1.1,2.39,1.27.62.55.76,1.88,1,2.09.05.04.46-.29.58-.21,2.15,1.64-1.72,4.17.09,5.87-.98-.3-1.1,1.56-.9,1.79.4.46,1.31.02,1.25.68-1.71.34-1.24,1.65-1.06,2.97l-1.04.2c-.78,1.31,1.35,3.14,1.35,3.33,0,.25-.23,2.15-.29,2.41-.09.41-1.03.46-1.06.77-.02.2.95,1.12,1,1.48.08.55-.8.94-.66,1.16.02.02.43-.07.57.12.87,1.13-.07,1.58-1.27,1.66.48,1.29,2.6,3.52,0,3.52,1.04,1.5-.23,1.78-.27,1.92-.15.56.07,1.74-.44,2.44l1.67,1.43c-.83.96-.37,3.28-1.66,3.35-.11.69.84.19,1.06.35.09.06-.62,1.35.31,1.94l-1.72,1.47c.27,1.67.66,2.39,0,4.1l.7.75c-1.44.6-1.38,1.84,0,2.47l-.72,1.41c.96.02.52,1.54.26,2.36-.58,1.86-3.25,5.45-.6,6.8l-.7.35c2.68.91-.7,3,0,4.05l.7-.36c-.16,1.31.32,2.1-1.05,2.64l1.4,1.93c-1.01-.13-.39.46-.62.95-.35.72-.87,1.31-1.15,2.06l.75.72-.35,1.18.67.37-1.76,1.6.63.22-.28.8.71.42-.36.85,1.77.36c-.35.58-.05,1.32-.38,1.87-.39.65-1.21.84-1.32,1.11-.53,1.32,1.51,2.23-.07,3.69,1.53.23,2.1,2.61,0,1.77.73.85-.27,1.98-.19,2.49.11.69.89.66.9.88.01.69-.65,1.69-.37,2.72.13.48,1.5.15.69,2.45-.11.32-.69.27-.7.46-.07,1.48,2.01,2.42,1.1,3.76-.34.5-1.51.78-1.44,1.84l1.39.58c.09,1.35-1.07,1.21-1.38,2.24.23.59.91.18.99.26.66.64.46,1.72-.64,1.68l1.05.35-.63.39c.49.99-.51,1.56-.63,2.39-.09.62.79,1.64.56,2.49l1.4.02c-.47,1.7-1.72,1.69-1.6,3.71.03.41.41.81.5,1.38.11.76-.71.75.41,1.76l-1.07,1.78.71.38c-.71,1.23.86,6.69.65,7.37-.04.13-1.27.86-.65,2.29l1.42.18c-.03,1.31-.97,1.13-1.76,1.76l1.06.18-.26.64.61.23c-1.39.83-1.18,3.09-1.49,3.63-.21.36-1.53.49-.98,2.19l-3.37-.27-.68.98c-.16-.44-1.15-1.43-1.15-1.59,0-.31.85-.6.62-1.23l-.88.24-.49-.46c-.35-1.23,1.25-3.27-.35-3.81.38-.92.15-1.48,1.38-1.26l-.71-.52.71-.52c-1.47.02-2.27-1.84-.7-2.29-1.09-.85-1.35-1.39-.35-2.47l-1.05-1.05,1.4-1.06-1.41-.18.14-1.42,1.26-.52c-.7-.43-.45-1.12-.68-1.69-.14-.34-1.11.13-.34-1.73.16-.39.79-.17.65-.75-.23-.96-1.21-1.17-1.3-1.47-.35-1.09.59-1.37.61-1.46.41-1.65-.66-1.54-.7-1.76-.16-.82.43-2.17,1.06-2.76-1.52-.65-.77-1-1.05-2.28l1.05.35v-1.06s-.71.18-.71.18l-.69-1.04,1.39-2.85-.94-.67c.69-1.83,1.08-2.57-.07-4.61,1.86-.74.47-1.85.43-3.16-.02-.73.96-.94-.12-1.92l1.05-.54-1.34-.58-.07-1.18,1.04-.19c.06-1.38-.58-2.11.38-3.32l-1.01-.24-.22-.63c.15-1.38,1.03-3.07.91-4.43-.06-.66-.7-.47-.69-.67.01-.34.34-.75.24-1.32-.37-2.09-.89-2.31.76-4.33l-1.06-.18c.51-.71.2-1.56.37-2.22.07-.3.66-.23.65-.39-.02-.95-.5-1.76-1.36-2.13l.69-1.07-1.39-1.05,1.43-1.12c-1.14-1.84.66-2.91.71-3.45.13-1.46-.01-3.46-1.79-1.94-.32-1.85,1.54-1.94,1.73-2.14s-.28-1.51-.24-1.97c.07-.65.56-1.14.6-1.72.08-1.06-.46-3.22-1.75-3.15.26-1.24,2.66-1.41,2.03-4.59-.04-.19-.52-.15-.57-.34-.15-.6,1.52-4.63,1.4-6.01-.07-.78-.87-.39-.74-.68l1.41-.89-1.75-1.23c.4-.76.44-1.05,1.4-.88v-1.76s-1.06-.35-1.06-.35c1.2.17.25-.61.4-1.5.2-1.18.07-2.27.1-2.4.12-.5,1.11-1.58,1.26-2.28l-.72-.35c1.14-1.6-.67-1.84-.7-2.12-.04-.4.53-1.55.54-2.23.02-.96-.59-1.89-.16-3.3.1-.33.66-.23.88-.94.81-2.61.83-10.15.27-12.93-.12-.61.79-1.32-.47-1.18v-.34c.9.3.9-1.6.88-2.32,0-.3-.51-.59-.51-.69,0-.16,1.35-.77,1.52-1.56.15-.7-.6-1.36.47-1.5l-.25-.63c.45.24,1.42-.07,1.67.09Z"/>
</svg>