<?xml version="1.0" encoding="UTF-8"?>
<svg id="Layer_2" data-name="Layer 2" xmlns="http://www.w3.org/2000/svg" viewBox="0 0 383.62 482.06">
  <path d="M293.61,38.34c.19.38,1.48.49,1.65,1.24,1.92,8.41-2.16,10.56-3.83,16.59-1.64,5.9-1.18,12.52-2.26,17.58-.8,3.74-3.78,8-4.65,11.48-6.41,25.91-6.17,54.65-5.56,80.53.05,2.09-1.24,4.28-1.21,6.57.03,2.02,3.26,1.88,2.95,4.3-.24,1.84-1.92,4.5-2.19,8.06-.41,5.53.99,11.27,1.24,15.71.22,3.91-3,9.19-.81,13.12.42.74,2.09.65,2.06,1.22-.11,2-1.82,5.06-1.83,7.71-.07,23.64,1.49,47.81-1.23,70.93l1.93.95c-2.5,15,3.2,33.01,3.32,47.04.04,4.33-4.46,9.42.18,10.9-2.13,3.75-.14,7.62-.43,10.61-.07.79-1.26,1.73-1.36,2.54-.51,4.06-.46,11.46-2.58,14.84-.65,1.03-7.97,6.47-9.56,7.07-3.4,1.29-9.18,2.14-12.63,1.1-2.73-.83-3.39-5.65-7.3-3.04,1.43-6-3.04-4.31-6.21-6.9-1.8-1.46-4.37-6.39-6.31-8.44-2.92-3.09-7.4-6.27-10.77-10.94-9.12-12.63-14.68-23.75-19.26-37.37-5.43-16.13-15.8-30.4-23.69-44.5-.85-1.51.28-4.27-.78-6.34-.72-1.43-3.04-1.61-3.56-2.42-1.04-1.62-2.57-9.02-3.96-11.34-2.46-4.11-7.44-9.55-9.72-14.81-1.31-3.02.04-8.9-4.6-8.35-.1-7.65-7.49-15.73-9.44-21.21-1.84-5.17-.23-9.63-5.81-13.75l-1.43,9.24c3.49,54.73-.51,108.78-7.85,163.47-1.12,8.32-4.49,27.73-15.02,15.04-5.46-25.18-2.24-50.52-2.8-75.89-.5-22.79-2.42-45.88-4.08-68.72-1.51-20.86-2.01-42.17-3.44-63.08-.83-12.19-2.68-26.89-1.85-39.33.13-1.87,3.02-17.56,3.47-18.43.25-.48,6.88-7.44,7.46-7.8,8.01-4.88,21.82,1.83,25.46,9.27,1.39,2.83,1.5,7.26,2.82,9.97,9.06,18.52,21.46,35.29,31.54,52.89,11.8,20.59,21.6,41.15,31.33,62.15.75,1.62,3.76,2.17,3.01,6.84l3.85-.06c-1.49,4.54,1.5,6.23,2.5,8.74,1.47,3.71,2.61,10.32,7.28,9.85-1.98,5.1,1.7,6.57,3.17,10.43,5.04,13.22,8.34,21.69,14.84,33.13.93,1.63-.37,4.47,1.64,4.33,1.82-4.44-2.06-5.57-2.04-5.92.83-19.91,1.26-39.75,1.04-60.03-.68-63.9-9.93-131.25,12.91-194.07l3.99-24.45c5.03-2.7,8.02-8.78,14.09-8.68,9.63.16,12.2,2.28,16.3,10.43Z"/>
  <path d="M205.91,73.67l-2.2,17.43c-2.95-2.76-8.11-2.14-12.19-1.84-13.35.97-27.08,3.75-39.36,6.22-.88.18-3.87,6.73-5.65,1.06-4.58,4.17-11.66,4.14-16.83,6.08-2.72,1.02-4.78,4.79-8.81,3.74l1.09,3.25c-7.99-.92-11.3,2.43-16.35,6.94-2.73,2.44-7.4,4.1-11.72,6.96-2.43,1.61-6.92,6.82-7.92,7.39-1.2.69-2.6-.59-3.06-.32-.3.17-.48,1.66-1.39,2.34-4.89,3.69-1.56,1.8-3.67,5.03-.66,1.01-3.52,1.35-5.01,2.66-2.24,1.96-5.53,4.72-7.27,6.33-2.13,1.97-2.37,10.86-7.94,8.45l.66,3.31-3.92,1.1.79,1.89-9.51,9.52,2.16,2.15c-4.7,3.43-8,8.81-10.92,13.92-.38.66-1.9.79-1.98,1-.44,1.05,1.22,2.92.5,5.27-1.09,3.55-4.72,7.24-5.91,9.41-3.43,6.24-4.15,13.86-4.59,20.44-.04.67-1.83.52-2.09,1.45-1.15,4.12.31,15.77-.62,17.8-.66,1.44-3.51,1.59-3.83,2.87-.91,3.6.91,7.59.94,10.71.01,2.04-1.65,3.89-1.61,5.45.08,2.76,4.11,2.91-1.5,5.42l3.29.56c-4.09,4.86-3.18,11.78-1.9,17.69.43,2,2.32,3.9,2.51,5.13.23,1.46-1.64,2.29-1.54,3.69.12,1.68,2.51,3.16,2.87,4.8,2.04,9.45,2.51,17.42,5.74,27.01,6.78,20.12,13.87,30.64,27.26,45.9,1.43,1.63,4.2,7.84,4.32,10.22.34.32,2.39-1.09,3.29-.58.67.38,9.2,10.22,10.21,11.57,1.69,2.26-1.26,3.59,3.91,2.54,1.98.98,1.63,3.75,2.51,4.67,1.13,1.17,6.61,2.01,8.53,4.1.82.89-.37,2.21.51,2.82,3.68,2.54,9.88,2.24,10.31,2.58.76.61,2.43,5.79,5.19,7.13s4.94.11,6.27.43c.42.1,5,2.27,7.29,3.14,3.12,1.19,6.38,4.48,9.54,5.73,4.49,1.78,13.1,1.06,14.19,6,3.16-3.33,3.95-.54,7.21-.08,6.45.92,15.62.44,21.37,1.41,4.39.74,15.46,6.51,18.3-.22l5.06,3.1c5.72-5.16,5.38-1.09,8.52-.96,1.59.07,3.36-1.84,5.53-2.09,2.43-.28,6.78,1.21,9.44.72,10.62-1.95,26.8-7.41,36.57-11.41,4.61-1.89,15.47-5.56,19.2-8.05,3.02-2.01,2.5-4.82,4.62-6.36,2.11-1.53,7.97-.78,12.78-5.45,1.03-1,.5-2.7.91-3.08.65-.6,2.87-.13,4.17-.78.6-.3,9.98-7.63,10.45-8.11,2.77-2.89.48-5.15,7.96-5.68l.24-4.13,3.18-.07-.67-3.31c5.07.09,4.88-5.85,5.7-6.54,1.54-1.3,4.51-1.53,5.91-2.92,10.04-9.93,23.46-36.94,28.01-50.19,1.53-4.46,2.54-15.26,4.22-18.8.42-.88,3.24-1.11,3.54-5.14.11-1.51-5.77-3.41,1.12-5.85-2.95-4.6.88-5.44.97-5.87,2.73-12.65-.86-25.06,2.41-37.12l-2.26-1.15c2.2-5.98-1.1-12.83-2.06-18.48-.22-1.28,1.03-3.01.83-4.18-.36-2.1-3.59-2.4-3.96-3.04-1.05-1.79,2.66-9.28-3.45-9.63,4.64-5.02.98-5.51-.43-8.81-2.46-5.74-4.48-11.66-7.28-17.28l-2.08,1.04-1.05-3.88,2.03-.92c-4.16-4.23,3.78-13.29,7.36-14.64,2.47-.93,7.62,6.16,8.33,8.54.41,1.39-.68,2.99.15,4.34.77,1.25,3.69,1.74,4.49,3.32.91,1.78-.56,3.54-.28,4.74,1.19,5.13,5.29,10.56,4.45,16l3.9,1.07c-3.72,6.52,2.94,9.19,3.3,10.54,1.36,5.06-2.99,13.25,3.25,18.31l-2.17.55c-.49,1.81,1.9.62,2.2,1.62.99,3.24-2.3,2.04-2.2,4.2.04.94.86,5.69,1.14,6.47.36,1.02,2.3.76,2.13,1.31-1.38,4.44-3.49,10.22-2.78,15.31.41,2.96,4.82,4.23.54,9.77l2.23,2.18c-6.64,3.07-.45,11.43-5.07,16.35,3.1,3.66-2.71,14.09-3.4,17.57-.3,1.54,1.22,3.74.4,7.06-.92,3.72-4.74,8.33-6.11,15.48-.08.43-4.44,3.97-5.55,6.74-1.77,4.39-.09,9.02-6.41,12.02l2.17,2.16-5.01,2.7.19,4.47c-5.31.69-3.54,3.37-5.2,5.73-3.74,5.31-6.05,11.07-9.9,15.68-.88,1.05-4.69,1.97-6.89,4.66-1.49,1.83-1.71,5.37-3.26,7.57-2.95,4.15-8.01,4.76-8.71,5.37-1.27,1.13-2.55,5.88-5.18,7.38-1.9,1.08-4.14.76-5.43,1.44-1.15.61-.78,2.7-1.85,3.81-1.7,1.77-7.25,3.06-8.43,4.14-1.1,1-.85,3.48-1.55,3.93-.91.58-3.08-.3-4.01.29-.57.36-.49,2.84-2.05,4.27-2.36,2.15-5.93,1.64-6.79,2.19-.15.1,1.4,1.83-.62,3.09-2.21,1.72-5.21.69-7.36,1.25-.8.21-2.13,3.54-4.8,3.99-1.16.19-2.88-1.06-3.46-.68-.46.3-.67,2.93-2.31,3.75-2.1,1.05-4.94-.06-6.37.74-.67.38-.83,3.35-3.16,3.99-2,.56-4.03-.67-5.23-.4-7.74,1.72-16.48,6.93-24.75,8.6-4.63.93-30.2,5.77-32.86,4.96-.91-.28-.15-1.91-2.24-2.1-3.57-.33-10.23,3.86-13.02,3.34-1.04-.19-.92-2.33-2.3-3.04-.39-.2-6.73.98-8.73.8-6.35-.57-20.41-2.16-26.01-3.67-2.01-.54-4.61-3.64-5.63-3.62-.68.01-1.96,1.63-3.36,1.84-4.64.69-8.86-5.83-14.49-7.07-1.34-.3-3.34.97-4.31.37-.56-.34-.78-2.89-2.4-3.74-1.37-.72-5.66.28-8.92-1.62-1.19-.69-1.38-2.24-2.71-2.96-3.4-1.84-11.74-2.74-14.26-4.86-1.16-.98-.67-3.9-1.64-4.92-.51-.54-5.55-2.1-7.22-3.12-6.47-3.95-9.88-10.61-14.73-14.16-4.23-3.09-15.37-9.66-18.18-13.99-.99-1.53-.71-3.8-1.38-4.62-2.61-3.2-13.25-13.74-14.31-16.65-.84-2.3.17-1.49-1.65-5.2-2.63-5.36-4.92-10.02-8.05-15.17s-4.25-9.64-6.5-15.29c-5.64-14.12-8.19-28.58-9.68-44.48-.44-4.74-2.2-5.92-2.77-7.65-.79-2.41,1.89-5.33,2.03-7.62.19-3.21-1.77-4.76-1.97-6.68-1.11-10.67,2.86-25.56,4.49-36.27.32-2.08-.69-4.76-.3-5.92.78-2.3,6.99-3.93,3.12-11.62l3.25,1.09c1.34-5.7,3.05-12.54,4.98-17.99.69-1.95,2.82-3.3,3.35-5.96.45-2.3-1.1-5.85-.64-6.5.27-.38,3.91-.59,4.93-2.27.8-1.3-.43-3.04.36-4.95,1.7-4.11,7.18-5.92,10.43-14.63,2.86-7.66,7.65-8.82,11.58-14.98.72-1.13-.25-2.72.99-4.04,3.16-3.37,6.19-.56,4.81-7.21,4.5-.32,4.61-2.6,6.76-4.12,10.82-7.67,18.27-15.56,29.04-23.04,13.46-9.35,28.43-18.71,44.13-23.75,1.05-.34,2.77.84,3.62.29.72-.46.62-2.65,1.73-2.81,2.63-.39,6.27.49,10.47-1.07,1.03-.38.81-2.09,1.5-2.16,3.08-.33,10.66,2.86,10.22-4.31,4.87,4.17,7.01,2.17,11.71,1.32,1.27-.23,3.12.9,3.41.69.38-.28.44-1.92,1.17-2.48,1.03-.79,5.1.48,6.07.25.68-.16.52-1.95,1.1-2.01,2.31-.25,3.55,2.06,5.22,2.02,4.41-.1,5.27.21,8.86.28,2.67.06,6.18-2.02,9.33-1.15Z"/>
</svg>