<?xml version="1.0" encoding="UTF-8"?>
<svg id="Layer_1" data-name="Layer 1" xmlns="http://www.w3.org/2000/svg" viewBox="0 0 1071.5 416.39">
  <defs>
    <style>
      .cls-1 {
        fill: #fff;
      }
    </style>
  </defs>
  <path class="cls-1" d="M200.83,0c2.76,3.94,8.4,1.64,11.44,3.58,2.58,1.65,4.52,7.06,4.03,10.09h3.65c1.45,10.99-4.39,18.87-7.55,28.44-6.36,19.26-18.17,71.49-16.06,90.39.28,2.48,1.8,4.42,1.82,7.36.04,6.05-5.5,22.93-2.33,27.81.39.6,1.83.68,2.07,1.06,1.39,2.2-1.87,5.62-2.35,7.77-2.55,11.44-1.11,30.35-1.14,42.66-.14,49.18-2.85,98.26-.84,147.53.2,4.91-.64,10.81,0,15.49.18,1.37,1.86,2.55,1.69,3.55-.15.89-2.56,2.4-3.14,4.18-1.85,5.63.05,13.68-4.02,18.75-3.38,4.21-11.63,5.91-16.41,7.72h-6.37c-4.68-1.19-6.05-7.21-10.92-4.56l.91-5.46c-7.82.54-9.75-7.63-13.68-12.28-5.54-6.55-15.17-14.45-18.66-22.33-.84-1.91-.16-4.4-1.83-6.37-1.25-1.48-3.61-1.28-4.82-3.38-1.28-2.22-.97-6.19-1.94-9-15.08-43.65-40.95-84.3-59.39-126.44-2.21-5.06-7.74-15.87-8.74-20.41-.87-3.98,1.01-11.85-5.2-12.13-1.91-.08-1.2.01-1.4,1.37-.29,14.43-2.45,29.36-1.8,43.76.23,5.06,1.65,11.31,1.85,16.37,1.4,35.13-6.67,69.58-11.74,104.04-1.62,10.96-2.84,43.79-8.82,51.31-4.23,5.32-11.25,3.17-12.94-3.37-5.51-21.32-2.49-60.62-2.08-83.64.82-46.19-2.11-90.55-2.68-136.65-.02-1.54.58-4.05-.93-5,1.25-18.5-1.68-39.17,0-57.4.33-3.64,3.61-19.91,5.07-22.71.76-1.46,8.59-7.8,10.36-8.77,7.91-4.32,13.45-1.27,20,3.77,10.38,7.99,9.17,15.05,13.87,26.21,8.45,20.06,22.77,39.55,33.12,58.88,12.2,22.79,23.34,47.84,34.3,71.37.78,1.67.81,4.31,1.57,5.5,1.02,1.6,3.94.73,4.67,2.14,2.12,4.14,2.25,15.05,5.34,18.84.93,1.14,3.37.19,4.26,1.41.73,14.22,9.73,26.18,14.46,39.29,1.88,5.22.05,9.14,6.86,10.89-1.45-5.53-1.93-11.16-1.85-16.9.21-15.01,2.39-30.49,2.8-45.48.68-24.9-.66-49.91-.07-74.81.46-19.72,2.88-39.62,3.31-59.33.21-9.59-1.62-19.3-.42-28.87,2.87-23.03,13.5-49.59,19.64-72.36,3.84-14.21,2.18-27.23,18.47-33.91h4.55Z"/>
  <path class="cls-1" d="M1071.22,267.88c.36,3.3.39,10.4,0,13.67-1.22,10.16-8.58,15.25-10.52,21.82-.62,2.12.04,4.86-.87,6.42-.73,1.26-4.2,2.1-5.39,3.72-6.35,8.62-10.62,26.25-17.81,33.86-2.07,2.19-10.81,5.95-11.62,7.31-.6,1,.05,3.17-1.07,3.94s-3.29-.05-4.43.59c-.24.13-1.88,3.14-3.41,4.33-16.64,12.93-33.49,9.41-51.99,14.48-21.58,5.92-23.69,14.64-49.89,7.33-6.75-1.88-15.49-8.01-18.02-14.76-3.1-8.25,1.31-15.79,7.27-21.14-6.99-7.1-3.5-13.59-3.38-21.84.14-9.52-.98-18.93-1-28.25-.06-30.85,2.92-61.28,3.72-92.01.47-18.27-3.38-52.02,4.06-67.95,2.99-6.41,7.73-4.28,13.24-5.88,6.42-1.87,12.19-5.57,19.29-4.83,9.29.97,41.2,13.98,48.51,19.84,4.78,3.83,2.79,2.92,8.59,5.98,4.5,2.37,30.09,29.41,33.74,34.57,2.16,3.04,6.63,13.66,8.61,15.14,1.69,1.27,3.7-.78,4.62.75,1.39,12.35,11.77,21.03,17.25,31.95,3.58,7.14,9.65,23.3,10.48,30.97ZM937.39,334.38c7.88-.69,14.9-5.52,22.54-7.05,18.48-3.68,27.18,1.47,43.49-12.97,11.13-9.85,9.21-15.63,15.13-25.86,2.11-3.64,8.1-6.97,9.49-11.5.87-2.84-.86-9.73-1.9-12.76-8.38-24.27-52.89-76.91-73.35-93.33-5.73-4.6-14.45-5.3-19.94-10.56.55,26.95,3.75,53.72,3.67,80.67,0,2.15-.97,4.15-.99,6.3-.08,14.34.9,30.05.9,42.82,0,8.11-.4,18.84.02,26.5.32,5.96,3.51,11.55.94,17.72Z"/>
  <path class="cls-1" d="M623.99,344.22c-7.92,4.55-21,15.21-27.63,3.77l-4.03,1.89.9-3.64c-8.41.66-9.23-10-11.66-16.12-.51-1.29-2.61-3.93-2.61-4.37,0-.53,1.5-1.85,1.61-3.64.17-2.58-1.44-4.72-1.64-7.16-.81-9.68,3.12-24.62,4.26-34.79,3.36-30.06,6.78-60.13,10.03-90.18,1.99-18.38,2.5-37.04,6.37-55.12-7.7,6.86-15.56,15.33-20.94,24.14-1.97,3.24-3.21,8.35-5.45,10.95-6.97,8.11-23.49,15.69-34.19,15.95-2.94.07-6.94-1.37-8.92-.94-.79.17-.27,2.58-2.85,1.87-1.9-3.81-6.56-4.97-10.51-5.51l.5-2.77c-1.37-1.17-3.23-1.5-4.59-2.69-1.88-1.63-6.13-9.09-7.73-8.2l-3.68,44.14c.17,22.63-.4,44.92-.53,67.62-.1,17.01,2.28,36.65-1.47,53.39-1.87,8.35-14.67,15-22.59,13.94-5.4-.73-5.16-6.12-10.78-5.16-9.49-20.53-2.02-41.89-.11-63.23,3.14-35.15,2.37-70.48,7.42-105.55,2.36-16.36,7.8-34.05,8.96-50.25,1.04-14.42-4.97-27.12,8.67-36.89,2.69-1.92,4.29-3,7.75-2.36,15.7,2.89,15.65,11.48,22.72,22.88,1.84,2.97,4.64,4.83,6.16,7.5,3.08,5.37,3.73,18.24,7.82,21.78,4.94,4.28,8.43-1.21,11.99-5.14,15.38-16.98,26.77-34.42,44.13-50.59,4.21-3.92,18.39-16.94,22.72-18.26,11.75-3.57,28.62,2.79,30.1,16.45,2.02,18.74-.42,47.16-1.83,66.51-4.87,66.77-20.47,132.53-18.4,199.81Z"/>
  <path class="cls-1" d="M266.98,206.54c2.12-3-.54-9.1.5-13.65.6-2.61,4.02-4.63,4.18-6.71.11-1.45-1.29-2.51-1.5-3.71-.66-3.89,4.4-5.84,5.54-8.67,1.05-2.59.78-5.9,1.8-9.13,4.11-13,12.58-26.7,18.39-39,.67-1.42.29-3.31.98-4.49.65-1.11,3.33-1.56,4.58-2.71,1.78-1.63,3.73-5.62,6.32-8.25,4.47-4.55,11.04-8.91,15.97-13.18,9.71-8.4,12.84-16.62,27.91-16.52,33.93.23,50.86,43.66,61.08,70.49,23.97,62.95,34.2,134.89-4.86,194.22-9.05,13.75-31.88,38.9-49.19,40.14-4.25.3-9.63-2.67-13.6-2.74-3.68-.06-4.37,2.26-8.4,1.27-20.45-5.02-42.67-26.21-51.83-44.77-2.83-5.75-4.88-15.1-8.26-19.98-1.35-1.96-3.66-2.66-4.36-4.75-1.26-3.75.23-8.98-.6-13.06-.64-3.14-3.89-5.23-4.32-7.52-.85-4.48.37-11.39-.03-16.37-.88-10.78-5.71-21.47-4.46-32.74.27-2.43,1.67-4.38,1.8-7.34.19-4.25-1.78-6.01-1.9-8.3-.1-1.81,1.58-3.15,1.89-5.33.64-4.49-1.91-12.3.48-15.93.43-.65,1.6-.85,1.89-1.26ZM391.4,275.88c-.51-.9,3.77-14.27,4.15-17.69,3.97-35.41-17.38-104.24-39.55-132.39-4.63-5.88-8.26-8.89-14.54-2.83-7.55,7.29-9.2,16.43-12.73,25.53-1.24,3.19-4.94,8.32-5.56,10.95-.45,1.92,1.27,2.43,1.08,3.69-.36,2.37-4.61,8.09-5.57,11.75-7.09,27.09-10.07,50.69-7.67,78.85.92,10.81,4.97,21.36,4.53,32.36h3.66c.52,2.1-1.58,3.38-1.83,5.08-.7,4.64,4.34,7.39,5.69,10.64,1.65,3.96,1.11,9.9,2.22,14.18,2.03,7.83,9.01,13.79,13.15,20.15l3.41-.79c3.44,7.73,12.94,9.45,19.68,4.49,13.9-10.22,30.46-46.42,31.36-63.38.02-.4-1.34-.33-1.49-.59Z"/>
  <path class="cls-1" d="M811.92,164.75c.3.49,2.18.43,3.24,2.67,2.29,4.79-1.53,10.48,1.13,15.11.34.6,1.85.52,1.85,1.14,0,1.14-1.21,2.62-.98,4.45.25,1.94,2.33,2.63,2.64,3.86.36,1.41-.96,3.41-.82,5.25,1.51,19.92,8.87,40.58,6.33,60.96l5.34,3.87c-.28,3.95-1.45,8.86-1.61,12.67-.52,12.46,2.24,40.78,7.71,51.49,3.15,6.15,9.18,13.14,9.6,20.5.32,5.6-2.46,4.38-2.79,5.63-.66,2.51,1.67,6.81.79,8.3-.13.21-2.88,1.56-3.98,2.87-1.32,1.56-1.98,3.97-3.18,5.02-3.18,2.79-11.06,1.55-11.83,6.86-3.92-4.43-9.09-2.66-14.11-.94l-.45-3.61-2.72,1.43c-6.37-5.89-12.61-10.68-17.77-17.83l-3.17,2.72c3.17-6.03-2.36-10.43-3.44-15.23-.89-3.93,1.64-7.01-3.9-8.05,2.38-9.42,1.26-21.09-.06-30.82-1.09-8.05-5.1-17.21-5.29-24.86-.08-3.27,1.57-6.81.84-10.34-3.36,2.48-1.59-3.04-.9-4.54-5.16,1.65-9.11-2.44-13.2-2.79-3.87-.33-7.85,1.7-11.12,1.59-2.52-.08-4.25-2.53-7.09-2.51-2.26.01-3.71,1.71-5.53,1.88-2.38.23-4.3-1.58-6.72-.48-4.01,1.81-4.19,10.35-5.93,14.16-1.49,3.27-4.77,6.74-6.71,10.59-4.22,8.39-12.6,37.39-21.02,40.01-12.09,3.76-16.25-9.18-14.41-18.97.41-2.2,2.35-5.27,2.98-7.95,10.28-43.2,24.47-82.34,43.37-122.43,8.35-17.73,17.43-36.48,28.65-52.43l.41-1.45-1.83-1.77c4.6-6.93,11.34-11.79,17.88-16.71,4.32-1.81,7.47,2.04,10.85,2.51,1.79.25,3.48-.59,5.05-.41,12.57,1.47,16.24,30.8,18.52,40.52.85,3.63,3.69,8.21,3.88,11.61.11,2-1.39,4.97-.52,6.44ZM766.21,208.65c.93-4.65,1.63-9.05,0-13.66-10.14,4.8-11.42,17.12-17.29,25.5l20.93-2.73.02-9.11h-3.66Z"/>
</svg>