<?xml version="1.0" encoding="UTF-8"?><svg id="Layer_2" xmlns="http://www.w3.org/2000/svg" viewBox="0 0 289.48 107.99"><g id="oha_stew"><path d="M210.35,16.32c.12.14.82,2.57.84,2.89.08.95-.13,3.13.47,3.55-.29.71-.46,1.79-.44,2.53,0,.14.35.09.39.22.17.65-.31,1.81.68,2.34l-.64.63c.13.69.77.47.85.54.07.06-.57,1.53-.55,1.8.02.6.92.99.13,1.81h.85s-.64,2.34-.64,2.34c.7-.41.25-.03.5.35.07.1.38.07.35.18-.1.35-1.14,1.22-.36,1.76.27.19.86-.24.57.97-.02.1-1.16.35.21.78l-.64,1.48h.85c-.01.82-.96.97-.86,1.6.02.1.38.07.4.2,0,.08-.14.32-.12.58.05.67.29,1.13-.05,1.87.81-.37,1.4,1.09.21.85.22.64.04,1.29.31,1.92.17.4.53.46.52.51-.02.21-.46,1.14-.4,1.18h.85c.05.43-.38,1.08-.38,1.35,0,.3.51,1.43.5,1.51-.04.35-.36.46-.32,1.25.05.98.81.86.41,1.62h.63c.1.11-.06,1.69-.63,1.49v.21c.26-.19.78,1.04.82,1.22.1.48-.23.87-.2,1.2,0,.07.8.34.43,1.2h.85c-.38.48.12.85.13,1.16,0,.37-.37.76-.34,1.26,0,.14.83,2.4.95,2.45l1.23-1.1c.61-.43.6-2.1.77-2.36.32-.51,1.21-.01.7-.96.53-.07,1.16-1.27,1.15-1.63,0-.17-.36-.3-.25-.52.15-.31,1.76-.92.55-1.37.35-.29.32-.89.54-1.18.17-.22.49.1.69-.34.28-.61.2-1.02-.07-1.58l1.19-3.28-.43-.42c.54-.31.31-.98.54-1.38.14-.25,1.3-1.07,1.53-1.35.14-.16-.06-.55.17-.58.07,0,1.36,0,1.43.01.08.02.94,1.03,1.33,1.06.12.99-.26,2.37.06,3.3.11.33.42.3.46.45.16.72.1,1.89.44,2.66.36.81.26-.09.45,1.34.17,1.33.91,2.14,1.37,3.12.41.85-.1,1.57,1.34,1.67l-.19,1.25h1.06s-.15.38-.15.38c.86.43.05,1.25,1.33,1.08l.31.88.53-.42.85,1.27c.5.12.82-.9,1.01-1.01.21-.12.57-.03.81-.16.19-.11,0-.39.06-.49.02-.04.63-.01.35-.46-.02-.03-.29.06-.37-.1-.32-.63.51-.95.56-1.07.15-.37-.45-1.52.88-2.12l-.84-.21c.18-.53.09-1.12.84-1.17l-.42-.53.63-.32-.63-.31c.16-.33.69-.85.75-1.15s-.26-.52-.23-.89c.08-1.07.35-2.19.47-3.11.1-.83-.07-1.81.29-2.68-.19-.47-.87.15-.87-.45,0-1.05.78-1.24.65-1.7-.03-.09-.35-.1-.38-.15-.18-.37.44-1.3.8-1.55-1.13-.57-.27-2.55-.21-3.61.06-.85-.78-2.4-.02-2.44v-.31s-.42-.22-.42-.22c-.1-.6.64-.95.64-1.06,0-.13-.75-.57-.78-.85-.03-.31.56-1.63.58-2.12l-.42-.21c.68-.78.05-1.86.08-2.26.03-.48.58-1.24.64-1.66.09-.69-.42-1.59.33-2.26l-.43-.2c.83-.72-.28-1.54.86-1.92v-.43s-.43-.21-.43-.21l.43-.63-.64-.43c.26-.49.44-.76,1.05-.77.22-.71-.51-.96-.58-1.15-.19-.46.38-1.42.81-1.7l-.42-.42c.86-.63-.09-2,.42-2.76.36-.55,1.14-.98,1.39-1.8.28.94.98.45,1.39.73.18.12.13.51.27.68.35.46.93.31.34,1.44l.44.22-.65,1.91c.6.03.72,1.29.63,1.72-.1.52-.49.39-.62.68-.04.1-.36,1.36-.35,1.43.02.35.47.61.48.85.02.28-.66,1.42-.78,1.8l.62.02c.3.86-.31.78-.49,1.06-.82,1.25.18,3.36.08,3.69-.07.25-.58.23-.64.48-.1.41.48,1.36.03,1.88l.4.19c-.95.9-.36,1.94-.41,3.07h.62s-.61,1.01-.61,1.01l.61,1.23-.62.12c-.53,1.38.61,3.1.64,4.14.01.41-.48.27-.55.7-.13.74,1.28,1.56.11,1.74v.21c.74-.07.15,1.83,0,2.34h.64c-.11.93-1.07,1.49-.63,2.39.19.39.65-.2.08.81l.55.52c-.16.24-.41.5-.51.77-.68,1.85-.37,4.53-.82,6.4-.19.78-.71,1.52-.77,2.41l.4.19c-1.61.38-.89,2.14-1.2,3.02-.09.26-.78.66-.98.91-.16.21-.26.87-.64,1.21-.58.52-.84-.13-.79,1.34-.7-.27-2.35.17-2.55.85h-.21c-.03-.52-.65-.9-.73-.22-.92-.01-.73-.76-.78-.81-.13-.13-.96.06-1.33-.06-.32-.1-.43-.65-.79-.91-.48-.35-1.61-.39-1.84-.6-.37-.33-.46-1.14-.73-1.52-.21-.3-.74-.56-.94-.85-.46-.66-.86-1.91-1.48-2.47-.4-.35-.64.26-1.2-.7s-.22-1.32-.39-2.12c-.01-.07-.76-.81-.86-1.11-.24-.76.39-.93-.09-1.38l-.86,2.11c.78,1.15-.23.85-.45,1.34-.08.18.18.58.03.81-.47.7-1.68,1-.82,2.12-.22.41-.92.47-1.13.69-.23.23-.09.88-.69.8l.4.23-.22.8-.82.03.21.85-.83.23v1.16c-.4.47-2.37.45-2.94.78-.13.08-.19.56-.36.58-.14.02-.94-.64-1.19-.73-.29-.11-.61.14-.83,0-.37-.22-.4-1.31-1.27-.76-.08-.95-.94-1.7-1.19-2.53-.4-1.36-.67-3.09-1.08-4.43-.17-.54-.69-.82-.68-1.42.48.08.24-2.24.15-2.51-.11-.33-.61-.34-.77-.7-.09-.21.17-.72.14-.82-.32-1.19-.34-2.58-.66-3.82-.04-.16-.58.06-.16-.74l-.42.21c-.37-1.32.18-2.5.21-3.82-.01-.03-.5.29-.63-.11-.21-.62.68-.46.42-1.16l-.63.21c-.36-.9.43-1.1.43-1.17,0-.38-.44-.7-.54-1.05-.34-1.23.28-1.82.33-2.98l-.65-.11c-.22-.53.62-.88.61-.94-.04-.81-.72-1.96-.4-2.87h-.64c.09-.85.57-1.54.57-2.43,0-.07-.16-1.35-.18-1.45-.16-.75-1.01-1.07-.17-1.86l-.61-.02c-.07-.06-.23-1.66-.21-1.78.08-.48.43-.8.53-1.45.17-1.13-.53-1.19-.57-1.36-.1-.46.14-1.18.43-1.54l-.63-.32c.67-1.1.5-2.5.55-3.79.02-.4-.08-.53,0-1.34.09-.89-.05-2.71.08-3.32.02-.07.89-.58.64-1.21l1.88.46Z"/><path d="M49.86,25.14c.02.06.26.07.28.17.23.85-.61,4.62-.7,5.73-.1,1.37,1.28,3.41.11,4.78h.85s-.64,1.59-.64,1.59h.64c-.56.7.12,1.5-.65,1.7.67.52-.02,1.3.02,1.37.02.04.49-.1.53.53.03.59-.14.88-.75.75l.22.64c.83-.8.84.02,1.23.19,1.1.48,1.45-.58,2.28.23l.23-.63c.88-.42,1.01.18,1.47.22.09,0,.8-1.41,1.28-.22l.64-.59.64.38.4-.41c.15.44,1.75.26,2.09.17s.5-.64,1.17-.57,1.98.91,1.76-.24l1.37.42c.18-.12.46-.47.32-.64-.06-.08-.51.17-.42-.21.8.13.38-2.52-.21-2.65.88-.65.06-1.19.05-1.27-.13-.88.24-1.61.38-2.45h-.64c-.1-.08.76-1.21.79-1.41.1-.62-.61-2.54-.54-2.73.05-.15.54-.01.4-.64-.02-.09-1.02-.48,0-1.49l-.43-.2.85-.75c-1.08-.54-.05-1.08-.85-1.37.73-.6-.31-2.04.63-2.03l-.43-.74c.71-.16.14-.57.31-1.07.09-.26.45-.43.47-.63.04-.33-.51-1.1-.48-1.49.02-.23.38-.54.43-.93.09-.74-.21-2.61,1.41-2.27.07.01,1.12.89,1.15.96.07.15-.16.8-.02,1.31.11.42.54.38.56.54.05.5-.24,1.58-.21,2.09.03.6.08,1.92.85,1.6-.52,1.03.98,2.09-.4,2.64.81.73-.2,2.3.61,2.24-.69.64.01,1.07.02,1.81,0,.38-.37.29-.39.41-.2.82.27,1.82.16,2.66l.63-.21c.43.77-.56,1.63-.58,1.8-.03.39.31,2.63.28,2.96s-.49.71-.43,1.43c.06.81.95.66.74,1.54-.03.14-.37.09-.39.22-.02.19.27.6-.04.96h.85c-.14.58-.04,1.16-.24,1.74-.05.15-.3.16-.37.35-.66,1.66.19,1.15.2,2.27l-.44.52c.45-.09.74.1.85.54.02.08-1.22.49-.75,1.39l.74.22c.13.67-.61,1.07-.61,1.14.04,1.12.21,2.01.09,3.21-.02.17-.5.53-.33.73.38.44.49-.92.75-.21.21.57.36,1.84,0,2.36-.08.19-.76-.2-.53.29.26.55.96-.13,1.28.22l-.38.14c.34.87-.24.88-.68,1.56l.37.14-.16.39h.63c-.18.3.06.71-.02.93-.12.36-1.27.41.03,1.3l-.42.43c1,.3-.31,1.31-.22,1.9.84.19-.13,1.65,1.07,1.82l-.42.42.4.1c-.13.23-.04.62-.17.81-.58.86-.73,1.41-1.16,2.54-.15.39.16.85-.34,1.09-.65.12-1.59-.17-1.81.56l-.44-.22c-.09-.14.08-.45-.01-.64-.37-.75-.87-.39-.92-.43-.31-.23-.03-1.01-.05-1.17-.01-.11-.6-.05-.39-.82.85-.25-.11-.9.43-1.61h-.85s.43-.96.43-.96l-.43-.2.42-.87-.42-.2c.71-.72.67-1.66.21-2.51-.22-.41-.73-.01,0-1.31l-.64-.11.64-.53h-.64s.64-1.8.64-1.8h-.85c0-.67.52-1.28.58-1.89.08-.82-.52-1.73-.59-2.47-.06-.59.33-1.35.34-1.69,0-.31-.49-.7-.12-1.17h-.64s.85-1.38.85-1.38c-.87-.05.16-1.8,0-2.01-.71-.26-1.51-.04-2.2-.08s-1.08-.01-1.64-.03c-.34,0-.74-.3-.96-.31-.09,0-.05.36-.24.41-.23.06-.57-.07-.75.01-.2.09-.26.61-.8.42l.21.63c-.6-.41-1.84-.16-2.23-.25-.13-.03-.12-.29-.27-.36-1.42-.58-.42.2-1.43.61-.13-.6-1.13-.75-1.7-.74-.39,0-1.95.48-2.13.46-.21-.02-.41-.43-.52-.35l-.43,1.7.85.11c-.36,1.02-1.11.84-.84,2.11.07.33.42.61.41.86,0,.32-.5,1.29-.44,2.13.03.42.43.29.42.4-.03.54-.43,1.47-.31,2.05.12.55.82.19.32,1.13.48-.01.47,1.12.4,1.46-.1.47-.8.44.06.69-.63,1.15-.52,2.05-.65,3.28h.85c-.16.39-.38.77-.42,1.2-.08.77.57.75-.4,1.26.29.53-.11,1.69.61,1.58l-.42.42.41.09c.01.87-.82.77-.83.86-.07.61.63.75.64.87.08.72-.59,1.18-.6,1.25-.03.26.26.98-.1,1.33-.11.11-1.89.73-2.17.69-.32-.05-1.17-.82-1.28-1.08-.28-.61.35-1.33.32-1.78-.04-.8-1.01-1.78,0-2.88-1.18.14-.68-.97,0-1.17l-.42-.2c1.15-1.6-1.03-2.3.41-3.63l-.85-.32c.39-.5,0-1.04.09-1.5.07-.39.67-.31.56-1.35l-.65-.12.44-2.64-.65-.12c.55-.26.74-2.65.63-2.76-.09-.09-.83.3-.77-.75.02-.39.25-.68.31-1.06.13-.84.17-1.54.11-2.33-.06-.7.56-1.08-.5-.96-.05-.03.34-.94.35-1.13.09-1.12-.38-1.83-1.42-1.74.13-.64.08-1.43.81-1.63l-.16-.37.84-.33c-.64-.52-.44-.82,0-1.38l-.43-.14c-.17-.89.61-2,.64-2.54.02-.45-.17-.73-.19-1.08-.04-.62.65-.78-.44-.72.12-.2.07-.46.14-.63.19-.43,1.06-.83.07-1.16l.59-1.5-.8-.63.64-.64c-.53-.68-.18-1.3-.21-2.13-.08-2.17.39-2.91.64-4.87.14-1.12-.4-.94-.44-1.11-.08-.36.23-2.2.35-2.62.16-.58,1-1.13.5-1.97-.1-.16-1.15-.65,0-.79l-.43-.53.65-1.17-.64-.11,1.59-1.09c.25.03,1.62,1.18,1.72,1.41.09.21-.25.39-.24.53.22,2.39.08,5.57.63,7.68Z"/><path d="M25.09,15.49s.06.28.2.36c1.34.73,2.97.67,4.34,1.59l-.03.76c1.02-.32,1.19.86,1.28,1.7l.73-.21.32.32-.22.81c.77.27.47,1,.85,1.52s1.17.58,1.42,1.73c.08.38-.53.56.51.49-.65,1.62,1.26,3.13.44,4.57.52.15,1.23,1.7.43,1.59l-.02.4c1.16.05.25,1.3.46,1.81.09.2.52.2.59.44.12.38-.75.89-.08,1.99.1.16.46.16.51.38.1.42-.28,1.01.42.91v.21c-.62-.02-.14,1-1.27.85.61.52.08,1.02.2,1.55.05.23.63.28.65.46.04.39-.81.47-.63.95l.84.24c-.1.51-.37.76.22.93-.57.68-1.18,1.64-1.03,2.55,0,.06.49.17.35.64l-.38.31c.98-.02.14,1.08.07,1.59-.11.85.03,1.89-.39,2.87-.27.62-.89.2.11,1.27-1.11.18-.72,1.28-.86,2.01-.13.68-.99.97.22,1.5l-1.06,1.07.85.11c.05,1.28-.45,1.03-.95,1.7-.77,1.01-.44,2.13-.96,3.25-.07.14-.42.13-.43.28-.03.42.34.64.07,1.29-.29.7-1.42,1-1.51,1.16-.14.25.2.96,0,1.57-.03.09-.68,1.07-.89.94l.42.42c-.57.28-.72.61-1.49.43-.18.76.25.44.43.85l-1.39.2c-.24.88-.36,1.22-1.37,1.61l.43.74c-.79.16-.97.96-1.7.22l.12.65c-.92.64-1.93.72-3.06.87l-.25.82c-.86-.38-1.84-.49-2.75-.21-.11-1.42-1.09-.93-1.77-1.06-.16-.03-.12-.36-.45-.47-.51-.17-1.1.23-1.5-.61-.09-.19.06-.46-.03-.63-.35-.64-2.04-.87-1.57-1.9-.57-.08-.54-.02-.74.42-1.04-.73.31-1.97-1.37-2.14.14-.53.23-1.81.05-2.26-.14-.34-1.68-.79-.49-1.12v-.21c-1.35-.32-.75-2.02-1.28-2.98l-.63.21c.08-.58.31-1.9.21-2.4-.03-.17-.57-.19-.59-.71-.01-.32.56-1.55.38-2.19h-.64s.56-.96.56-.96c.03-.49-.55-.55-.54-.62.02-.27.32-.7.34-1.11.01-.44-.23-.82-.26-1.25s.66-.95-.51-1.47c.56-.53.1-1.23.2-1.67.01-.06.64-.18.38-1.1-.02-.08-.8-.31-.26-1.17.09-.14,1.13-.65.1-.85v-.21c.68.07.58-1.42.57-1.99-.02-.72-.05-.65,0-1.46.05-.69-.23-1.57.28-1.96l-.42-.21c.65-.45,1.19-.95.8-1.77l-.58-.14,1.29-3.39-.44-.21,1.05-1.71-.63-.42c.98-.6,1.37-.33,1.5-1.69l-.43-.21c.2-1.01,1.1-1.37,1.36-2.26.09-.31-.09-.63,0-.83.16-.32.69-.39.73-.45.03-.06-.44-.87.23-1.15l-.42-.21c.29-.78,1.28.24.64-1.38.44,0,.85-.1,1.16-.44.33-.35,1.47-1.92,1.83-2.42.39-.54.12-1.59,1.47-1.18l-.21-.63c.83.06,1.55-.83,2.32-.94.38-.06.75.16,1.14.09.16-.03.71-.98.91-1.03.48-.11.73.72.95-.66.2-.02.39-.05.58.05ZM26.14,19.94c-.31-.13-.74.13-1.12.07-1.07-.18-1.15-.75-2.28-.11-.3.17-1.18.58-1.22.64-.04.05.38.48-.49.91-.18.09-.53-.08-.56-.04-1.02,1.23-1.49,2.53-2.05,4-.15.38-.84.83-.93,1.03-.2.49-.17,1.2-.26,1.72l-.6.03c.16.39-.15.7.41.62v.21c-.71.1-1,.79-.66,1.4l-.39.1.42.53-1.06.64c.12.12.32.26.33.42.07.67-.5,1.41-.52,1.49-.07.48.27,1.55.08,2.12-.28.82-.31,1.42-.44,1.81-.1.29-.66.69-.86,1.41-.22.79.29.69.33.85.25.99-.41.94-.43,1.06-.08.69.28,1.89-.22,2.72l.44.33c-.73-.07-.49.49,0,.53-.37.32-.76.76-.76,1.28,0,.15.3,2.17.35,2.28.08.2.43.15.41.26-.09.45-.62.79-.44,1.7l.65.11-.6.96.59.63-.85.43c.18.55.41,1.33,1.07,1.38-.64.58.05.79-.21,1.48h.64c.08.85-.76,1.02-.64,1.7l.42-.21c.26.76.38,1.26-.21,1.91l.85.22-.43,1.06h.84c.4,1.57.15,2.96.91,4.41l1.01.05c0,.54.05,1.25.27,1.75.28.63.75.6.95.87.12.17.02.51.06.56.03.04.61-.17.96-.03.49.2.42.62.91.76s1.39-.18,1.94-.1l-.64-.85c.56.33.81-.2,1.17-.22.15,0,0,.59.42.43.45-.21.05-.66.14-.8.39-.6,1.36-.24,1.42-.28.05-.03.73-.97.76-1.03.1-.24-.1-1.21-.06-1.25l.82-.24c-.69-.63-.15-1.21.64-.85l-.39-.74c0-.2,1.13-.87,1.19-1.01.16-.41-.22-.9-.04-1.41.13-.36.61-1.05.83-1.51.32-.66.13-1.26.96-1.59l-.64-.11c-.06-.71.52-.73.62-.87.03-.04.02-.31.15-.67.68-1.82.83-2.39,1.05-4.42.09-.84.36-1.66.3-2.52l-.63-.11c.43-.88,1.08-1.27,1.26-2.35-.86-.18-.07-.28-.06-.62.03-1.02-.19-2.5-.06-3.71.06-.6.88-1.5-.09-1.8,1.02-1.1-.25-1.19-.36-2.37-.07-.74.31-2.59.27-2.94s-.68-.62,0-1.28l-.54-.54c.88-1.1-.47-1.25-.66-2.2,1.25-.93.29-.9.11-1.17-.07-.11-.13-1.3-.19-1.5-.2-.66-.8-1.6-.93-2.07-.13-.51.06-1.45-.24-1.84-.1-.12-1.12-.69-1.18-.75-.25-.26-.31-.83-.55-1.13-.17-.21-1.43-1.56-1.53-1.6Z"/><path d="M87.98,16.31c.17.98.8.54,1.09.72.41.26,1.47,1.32,1.72,1.48.62.38.99.09,1.53,1.22.18.38.31.86.5,1.3.21.49.76,2.31.92,2.54.28.4,1.18.11,1.02,1.5-.03.29-.42.66-.36.76.01.02.31-.04.42.15.93,1.5,1.32,3.9,1.27,5.59h.63c-.5,2.08-.46,4.34.02,6.43.04.16.33.16.35.19.11.3-.35.86.68,1.04l-.41,1.46.64.21c-.37-.22-.58.9-.57,1.13.01.5,1.03,1.44.75,1.82l-.38.23c.72-.23.94.88,1.01,1.47.07.67-.28,1.73-.27,2.16,0,.37.44,1.41.52,1.79.13.65-.32,1.51.65,1.59v.21s-.33-.07-.38.1c-.33.99.42,1.84-.25,2.79l.4.18-.22.62c.94.4.37.61.48,1.04.09.32.54.49.58.71.03.19-.47.7-.35,1.25.02.11.27.09.31.22.22.7.67,1.35.06,1.91l.39.2c-.1.76-.39,1.41.45,1.71l-.63.96.43-.11c.18,1.04.54.59.83.76.08.04-.27,1.25-.84,1.06,1.8,1.05-.57,1.65.64,2.44l-.42.53.85.42-1.17.44-.42-.43c-.83,1.19-.46.59-1.27.63-.37.02-.69.21-1.06.21l-.23-.2c-.07-.09.08-.44,0-.64-.28-.74-1.58-3.29-1.57-3.49,0-.19.25-.49.21-.86-.07-.79-.16-1.92-1.08-2.03l.43-1.33-.85-.78c.92-.07.03-.72.02-.78-.05-.22.13-.8-.01-1.13h.63c.2-.64-.4-.89-.4-.95.01-.16.22-.37.2-.61,0-.06-.76-.75-.8-.89-.17-.65.29-1.1.27-1.39-.04-.47-.52-.38-.54-.41-.05-.08.75-1.01.21-1.7l-.42.21v-1.48c-.76-.58-1.48-.02-1.77-.04-.47-.04-1.96-.81-2.81-.83-.22,0-.94,1.15-1.17.04l-.3-.02-.32.85c-.35.09-.14-.29-.25-.35-.12-.07-.61.23-.6-.5l-.21.64c-.51-.27-1.01-.03-1.17-.64l-.11.64c-.45-.14-.83,0-.85-.64l-.52.62c-.67,0-.89-.74-1.1-.8-.27-.08-.93.25-1.35-.03-.17.26.03.91-.04,1.01-.23.33-1.07.7-.54,1.5l.59.03c-.92.86-.19,1.77-.85,2.44l.42.2c-.19,1.02-.47.59-.83.77-.03.02.13.43.03.74-.11.33-.44.31-.44.4,0,.48.38,1.47.28,2.05-.09.51-.79,1.62-.9,2.25-.34,1.99-.34,2.26-1.01,4.3-.38,1.15-.21,2.44-1.38,3.3l.42.53-1.78.83-.99-1.17c.52-.62.33-1.58.49-2.11.03-.09.67-.69.7-1.36.02-.33-.4-.68-.35-1.4.07-.89.71-2.41.76-3.26.03-.38-.26-.56-.19-1.05.12-.78.91-1.49.62-2.48-.08-.27-.54-.79-.54-.86,0-.08.95-.46.86-1.25l-.6-.43.54-1.68-.59-.67,1.06-1.92c-1.2-.07-.28-.79-.12-1.57s-.21-1.68.75-2.46l-.62-.12c-.43-.43,1.06-2.66.79-3.49-.06-.18-.47.03-.38-.61.13-.94,1.19-2.2,1.03-3-.02-.12-.34-.09-.36-.21-.01-.08.11-1.2.15-1.25l.88-.13c-.04-.43.08-.94,0-1.34-.04-.17-.34-.13-.38-.25-.04-.12.31-1.24.4-1.43s.43-.14.41-.26c-.06-.27-.4-.27-.28-.91s1.01-1.63,1.24-2.59c.16-.67-.05-1.64-.1-2.32l.83-.24-.41-1.36c1.26-.5.08-1.8,1.26-2.58l-.41-.61c.17-.25.56-.31.72-.53.37-.49.62-1.99.87-2.66.39-1.03,1.05-1.52,1.14-2.52.52-.24,2.67-1.69,3.18-1.37ZM89.5,23.93c-1.07-.19-1.09-1.89-1.49-2.76l-.84.23v1.05s.63.11.63.11c-.37.47-1.09,1.15-1.33,1.66-.22.47.08,1.04-.12,1.54-.72,1.87-1.1,2.98-1.51,5.09-.1.51-.53,1.21-.55,1.69,0,.04.1.71.13.73.21.11.68-.17.61.23-.61-.13-.17.39-.41.53-1.11.1-.43.39-.54.85-.08.34-.49.67-.32,1.17l.64.11c-.37.4-.39.89-1.06.75l.21.84c-.97-.18-.32.41-.85,1.06h.64s0,.32,0,.32c-.61.52-.16,1.32-.27,1.66-.58,1.7-.68,1.84-.66,3.64,0,.22-.49.57-.34.96.98-.45,1.29.47,2.23-.22l.13.41.4.02.43-.84h.31s.21.38.21.38c.56-.07,3.34.65,3.69.42.11-.07.18-.57.35-.59l.74.42-.22-.51.38-.16-.05-.38c1.05.04,1.4,1.26,2.44,1.06l.44-1.79c-.81-1.04-1.3-1.1-.63-2.54-.76-.35-.76-.98-.43-1.71l-.44-.22c.28-.18.46-1.84.44-2.1-.01-.15-.36-.12-.39-.23-.24-.82.07-1.84-.33-2.62-.03-.05-.35-.06-.36-.14v-.43s.63-.42.63-.42c-.33-.22-.22-1.08-.26-1.13-.09-.13-.44-.14-.64-.53-.17-.33,0-.91-.13-1.29-1.23-.2-.37-.68-.48-1.47-.16-1.21-.71-1.79-.62-3.03,0-.11-.35-.09-.41-.24-.17-.38,0-.89-.41-1.23l.42-.31Z"/><path d="M143.82,16.15c.23.05.31.07.78.15,1.28.2,1.06.57,1.56.84.53.28,1.25.27,1.66.84l.42-.42c.57.83,1.12,1.69,1.65,2.55.08.14.02.4.14.54.34.39.78-.07,1.07.41-.61.98,0,1.64,0,2.54,0,.43-.26,2.45-.44,2.74-.49.76-2.7,1.66-2.88.02-.04-.34-.2-1.38-.2-1.48,0-.29.45-.62.33-1.04-.15-.5-2.05-1.63-1.91-2.46-.87.55-.89-.52-1.27-.75-.22-.14-.57.1-.85.02-.55-.15-.97-1.16-1.7-.66-.18.12-.12.55-.31.54-.27,0-.73-.45-1.15-.55-1.72-.43-1.15.34-1.65.77-.46.4-1.88.44-2.15.66-.22.18-.04.58-.09.7-.26.65-.78.89-1.17,1.42-.03.04-.39.81-.41.86-.06.19-.47,2.05-.48,2.19,0,.05.54.22.5.83-.06.92-.93,1.49-.07,1.72-.44,1.15,1.27,2.32,1.89,3.17.26.35.61,1.5.68,1.55.15.11.5-.03.64.05.22.11.18.41.29.42.64.08.93-.98,1.69.2l.21-.43,1.17,1.06c-.16-.76,1.96-.24,1.92.42l.52-.43c.73.54,2.29.35,2.46,1.28l.23-.4c.2.09.5.11.65.2.91.55,2,2.28,2.93,2.63.23.09.56-.16.65-.1l-.22.42,1.07.1.21.97.63-.42c.49.56.55,1.58.84,2.03.42.66,2.73,1.78,3.12,3.27.12.46-.15.75-.08,1.11.11.6.8,1.58.93,2.06.29,1.01-.88,2.43.92,2.58.11.73-.7.84-.82,1.18-.17.51.41,1.09-.23,1.45,1.31.48-.06,1.99.26,2.76.06.15.44.02.39.42s-.57.7-.72,1.2c-.25.81.1,1.66-.47,2.5-.21.31-.76.38-.93.78l.41,1.35c-1.13-.24-.76.38-1.17.85-.59.66-1.5,1.55-2.24,2.01-.63.39-.96-.18-1.04,1.08-.82.13-2.24.4-2.14,1.38l-.63-.22v.64c-1.16-.33-3.66.11-4.72.64s-1.18.58-2.51.94c-.61.16-1.02.67-1.69.53v-.64s-.94.23-.94.23l-.13-.44h-.42s0,.63,0,.63c-.2.22-.96-.6-1.17-.64-.07-.01-.14.72-1.13.49-.71-.16-.29-1.01-1.5-.94l-.02-.83-.85.42-.21-.42v.28c-.46.55-.89-.83-1.16-1.13-.15-.17-1.21-1.19-1.33-1.27-.78-.47-1.9-.25-1.55-1.91l-.63.21c-.11-.46-.28-1.1-.45-1.53s-.66-1.21-.88-1.73c-.09-.22,0-.36.05-.56l-1.06.21c-.11-.07.99-2.53-.42-1.69l-.42-1.7h.48c.71-.27-.33-.54-.39-.62-.18-.27.7-1.98-.54-2.26l.54-1.6h.51c-.11-1.18,1.78-1.91,2.76-1.87.3.75.19,1.63.75,2.24.11.12.33.06.34.08.07.11-.52.56-.55.94-.03.44.47,1.73.7,2.18s.79.12.28,1.32l.85-.42c.01.14-.04.35.02.45.6.95.91,2.35,1.34,3.43.18.44.38,1.18.57,1.51.66,1.13,2.63.51,2.74,2.04l.63-.22.04.59c.31.29.95.05,1.14.09.14.03.09.39.2.38.19-.02.65-.37,1.1-.41,1.75-.16,1.76.14,3.63-.43.32-.1,1.84-.11,1.97-.22l-.21-.63,1.91.21.03-.59c1.49,0,2.32-.92,3.39-1.62.2-.13.57-.05.77-.18,1.02-.69.66-1.68,1.55-2.38l-.43-.41c.04-.68.5-.66.64-.93.24-.46.07-1.94-.42-2.06.04-.73,1.1-2.29,1.18-2.64.07-.31-.43-1.34-.45-1.61-.04-.48.5-.49.54-.68.19-.87-.38-.9-.49-1.18-.17-.43.06-1.14-.35-1.62l.63-.34-.81-.14-.66-1.57-.85.12c-.33-.53.19-1.09.17-1.34-.04-.51-.69-1.63-.91-.57-.73-.29-.87-1.05-1.29-1.48-.23-.23-.62-.19-.83-.45-.13-.15-.04-.49-.25-.65-.19-.14-1.42-.21-1.55-.3-.23-.16-1.1-1.17-1.28-1.27-.14-.09-.65.17-1.08.03-.55-.17-.56-.67-.66-.74s-2.02.18-2.37.14c-.67-.08-1.58-1.28-2.07-1.02l-.1.42c-.99-.59-1.91-1.24-3.08-1.07.09-1.25-.84-2.54-2.13-1.9-.02-.81-.14-1.72-1.04-1.94l.19-.39h-.85c.37-.94-.83-1.91-1.15-2.78-.25-.68.18-1.22-.76-1.05-.06-.56.62-1.49.63-1.8.01-.37-.43-.7-.41-1.06.02-.38.62-1.9.84-2.34-.83-.24-.34-1.94.64-1.8l-.63-.31c.44-.58.43-1.3,1.28-1.29l.42-.94-.64-.21c.82-.07.96-1.52,1.37-1.92.34-.33.79-.13.96-.22.08-.04-.26-.69.92-1.31.17-.09,1.73-.54,1.95-.57.84-.13.47-.1.91-.22.84-.24,2.13-.44,2.81.19.07-.89,2.03-.26,2.71-.12Z"/><path d="M203.58,15.64v.85c1.58-.63.94,1.14,1.7,2.02l-.88,1.55c-.79-.17-1.63.58-2.42.66-.7.07-1.86-.44-2.54.44-.23-.8-.65-.54-.53.21l-.24-.38c-.78.15-1.44-.19-2.25-.2-.98,0-.79-.05-1.73-.16-.8-.09-1.9.38-2.79.1.24,1.67-.2,3.37.44,4.94.1.24.48.1.41.26l-.63.86c-.15.55.45.21.64.32-.27.39,0,.94-.13,1.27-.23.6-1.05.6.08,1.58.06.42-.53.53-.54.57-.03.07.19,1.24.11,1.56-.02.07-.62.57-.59,1.26,0,.16.55-.03.43.63-.07.4-.56,1.7-1.06,1.62.84.78.06,1.92.47,2.83.2.46.98.16.34,1.49-.2.42-.69.19-.59.67,1.36,1.11,3.08.25,4.5-.19.29-.09.67.07.77.03.13-.06.5-.71,1.32-.91,1-.24,1.72.82,2.02-.09.4.21.21.83.36,1.02.08.1.32.05.42.11.98.59-.11.63-.23.81-.04.06.26.56.2.89-.02.13-.29.14-.35.24-.1.16-.06.45-.12.5-.18.14-.6,0-.82.14-.28.18-.12.87-.41,1.09-.13.1-.76-.22-1.14-.13-.16.04-.12.42-.28.44-.48.06-1.84-.36-2.08.4l-.76-.19.42.63-.77.22c-.34.09-.26-.37-.43-.43-.13-.04-2.48.58-2.58.67-.51.44-.43,2.27.37,2.61l-.98,1.28c.88,1.15-.24,3.19,0,4.21.19.8.75.63.13,1.73l.45.23c-.5,1.42-.77,2.53-.12,3.93l.53-.02c-.04,1.14-.28,1.9.22,2.97l.63-.22.46,1.24c.33-.22.99.03,1.13,0,.13-.03.08-.38.23-.4.25-.03.54.21.94.13.3-.06,2.06-1.23,2.28-1.45.16-.16.19-.56.38-.78.87-1.01,1.51-1.27.95-2.77.7.22,1.03-.47,1.49-.56.82-.17,1.74,1.46,2.23.57l.28.49c-.83.54.45,1.46.46,1.55.03.3-.29,1.33-.46,1.63-.22.39-2.07,2.66-2.42,2.9-.4.27-1.1.29-1.62.73-.35.3-.24.9-.52.95-.25.04-.58-.21-.7-.17-.03,0-.03.3-.17.39-.21.13-.55.13-.66.24-.04.04.05.83-.57,1.03l-.42-.45c-.32.21-1.22.29-1.45.43-.3.18.11.81-.9.01l-.2.43c-.69-.11-.6-.89-.76-1.06-.07-.07-.97.32-1.89-.33-2.2-1.55-2.41-3.51-3.43-5.66-.44-.93-1.14-.62-.42-2.18l-.59-.35c.38-1.17-.6-1.77.21-3.06l-.42-.4.06-1.19.76-.2c-.42-.86-.42-1.83-.33-2.76.07-.66.78-.92-.3-1.36.25-.87,1.13-2.34.01-2.76l.61-1.39h-.64c-.02-.48.53-1.06.55-1.37.03-.41-.35-.92-.3-1.45s.67-1.13.53-1.78c-.1-.49-.52-.65-.53-.81-.05-.45.75-.7.8-.9.28-.93-.44-.96-.44-1.02,0-.13.54-1.1.44-1.16l-.64-.11c.23-.51.48-.71,1.06-.75l-.39-.23.6-2.53h-.85s.03-.83.03-.83l.61-.02c-.39-1.25-.25-1.57.21-2.76l-.63.11c-.02-.61.53-.65.63-.91.17-.47.03-1.32.22-1.84l-.64-.22c.06-.42.77-.7.82-.79.03-.05.03-1.05.02-1.1-.02-.17-.35-.12-.39-.23-.03-.09.26-1,.17-1.25l.64-.15.23-1.15c-1.39-.24-.31-.63-.07-1.01.04-.06-.12-.23-.08-.33.03-.06.37-.02.36-.16,0-.25-.51-.83-.31-1.39l-.75-.22c-.03-.93.12-2.3,1.27-2.32l-.21-.63c1.26.47,2.23-.57,3.32-.63,1.46-.08,3.36.21,4.82.4.48-1.07,1.22.12,1.73.15s.32-.69,1.24-.48c.47.1.45.73.68-.09l1.17.43-.21-.85h1.7Z"/><path d="M171.08,16.28l.27,1.43c.31.37,1.27.17,1.7.03.17-.06.16-.37.32-.41.39-.08,1.34.22,1.66.17.14-.02,0-.38.41-.41.13-.01,1.41.05,1.47.07.35.15.39.97,1.39.56l.12-.62,3.39.24.11-.65,2.34.75c.08-.72.99-.54,1.35-.1.74.9.32,1.83.55,2.84l-2.24,1.61h-.42s-.42-.44-.42-.44l-.22.44c-.67-.27-1.35-.43-2.07-.21-.19.06-.16.35-.42.48-.95.45-1.22-.46-1.95-.5-.91-.04-1.08.65-1.86.66-.3.75-1.1-.09-1.82-.19-.46-.07-.81.14-1.05.11-.75-.08-1.71-.64-2.4.21-.31,1.12.42,1.94.45,2.72.02.7-1.19,2.71.4,2.65.08.51-.57.99-.62,1.19-.09.34.53.55.56.82.06.59-.99,1.17.27,1.73.18.58-1.23,2.24.23,2.42-.39.49-.82,1.42-.83,2.03,0,.11.34.08.36.19.02.13.07,2.37.05,2.56-.1.96-.84.73.2,1.7l-.85.43.24,2.2.62.12-.85.84c.77.73.03,1.41.07,2.03.04.7,1.6,1.31-.08,1.9v.31s.44.23.44.23c-.56,1.35.02.96.31,1.36.08.12.17,2.45-.53,2.13l.64.21c.07.05-.54,1.03-.59,1.22-.02.08-.07,1.53-.05,1.61.06.24.5.23.63.46-.27.27-.57,1.32-.62,1.71,0,.03.42.47.45.49.19.1.79-.47.59.14-.22.65-1.67,1.08-.42,1.7l-.42.53.42.1c-.23.57-.63,1.58-.73,2.15-.11.67.27.9.27,1.24.02,1.11-.59,2.19-.64,3.28-.46.42-1.06,0-1.33.03-.19.02-.18.4-.33.51-.6.44-1.59-.76-2.08-1.09l-.48-1.63c.56-.2.41-.62.63-1.1l-.37-.18c.55-1.04-.76-1.63-.25-2.51.09-.15.36-.15.5-.42.7-1.4-.19-3.19-.26-4.52-.08-1.41.28-3.41-.03-4.63-.04-.16-.33-.13-.37-.24-.13-.36.54-1.3.61-1.7l-.41-.2.08-3.21.54-3.07h-.64s.57-1.62.57-1.62c.09-.75-.48-.92-.52-1.03-.16-.51.71-3.07.78-3.81-1.13-.4-.27-1.48-.27-1.92,0-.22-.61-1.06-.13-1.8h-.64s.8-1.38.8-1.38c-.52-.51-.33-.89-.44-1.33-.01-.06-.34-.05-.34-.15,0-.79.65-1.37.75-1.82.11-.5-.47-1-.48-1.38-.02-.58,1.09-2.26-.3-2.02.17-.21.16-.7.27-.81.1-.09.9.09.49-.58-.12-.2-1.41-.99-1.6-1.03-.57-.14-1.38.53-1.6-.34-.97,1-1.51,0-2.16-.14-.57-.13-2.59.21-3.33.08-.24-.04-.48-.39-.77-.47-.85-.24-1.68-.48-2.51-.78l-.26-1.74c.02-.15,2.63-1.13,2.87-.34l.32-.32-.21-.53c.68.11,1.4-.11,2.03-.11,1.82,0,3.64,0,5.52-.04.87-.02,1.57.5,1.9.51.63,0,.79-.78,1.02-.93.11-.07,2.19-.78,2.28-.7Z"/></g></svg>