<?xml version="1.0" encoding="UTF-8"?><svg id="Layer_2" xmlns="http://www.w3.org/2000/svg" viewBox="0 0 289.48 107.99"><g id="okonomyiyaki"><path d="M87.1,21.54s.1.49.17.66c.15.32.12.4.14.42.04.04.36-.01.55.16.22.2.07.52.12.59.06.09.32.11.46.38.24.48.01,1.74-.04,2.28.93-.31.33,1.09.48,1.6.03.1.23.07.31.33.12.38-.07.92.14,1.08.05.04.22-.06.27-.03.21.16.78,1.91.35,2.12l.32.09-.16.46.29.13-.14.71h.76c.24.69-.05,1.19-.14,1.86l.46-.15c-.04.34-.22.54-.05.89.31.62.88-.06.49,1.11l-.44.09c.6.46.35.85.38,1.47l.86.39c-.29.22-.39,1.13-.28,1.4.05.13.29.12.37.3.3.69-.06,1.53.48,2.37.14.23.49.34.51.43.02.08-.46.95-.29,1.52l.14.17c.1.08.3-.33.51.58.29,1.22-.19,2.99.87,3.69-.52,1.08.01,2.14.17,3.23l.3-.16c.04.36.12.56.45.69-.59,1.22.24,2.36.17,3.65h.77c.07.27-.25.07-.28.23-.11.63.38.67.42.78.01.03-.12.34-.1.5.09.84.47,1.54.75,2.4.04.13.3.12.31.22.02.19-.18.43-.14.59.03.15.33.17.44.36.32.56.08,1.2.55,1.58.36-.26.02-.57.08-.99.07-.53.52-.62-.1-1.25-.05-.32.41-.4.41-.48,0-.18-.19-.47-.17-.76.03-.65.27-1.27.17-1.94l-.31-.07.62-.62-.31-.15c.65-.9.06-.69-.06-1.18-.14-.58.29-.88-.39-1.13.36-.47.17-1.27.32-1.69.08-.24.6-.14.4-.79-.03-.08-.25-.05-.26-.17-.1-.78.43-1.29.43-1.5,0-.71-.84-.53-.55-1.54.16-.54.67-.46.1-.96.14-.69.76-2.03-.29-2.17l.62-1.39-.47-.08.46-.7-.32-.17.18-.6-.32-.24c.44.05.18-.18.27-.42.06-.16.32-.37.32-.44,0-.16-.74-.41-.52-1.16.08-.28.28-.51.39-.77l-.7-.18-.07-.29.38-.15-.07-.32h.62c.16-.43-.54-.7-.57-.84-.15-.88.36-2.14.36-2.8,0-.5-.54-.76.05-1.31h-.47c-.08-.06.79-1.43.76-1.82-.02-.18-.41-.31-.29-.86.52-.5.82-1.25.77-2.12h-.46c-.07-.44.19-.72.62-.78l-.46-.31.29-.16-.14-.68.62-.09v-.46s-.62,0-.62,0c-.05-.29.27-.75.28-.88.04-.31-.55-.37.05-.73.14-.09.42-.07.45-.09.02-.02-.14-.26-.09-.46.08-.28.44-.43.4-.77l-.62-.23.93-.78-.31-.69c1.02-.16,1.74.5,2.63.78l-.12.27c.46.11.42.37.46.79l.44.02c.03.2-.06.34-.16.5-.62.93-.38.75-.46,1.73-.06.71-.75,1.08-.43,2.3.07.26.56.72.56.81,0,.1-.41.36-.51.55-.63,1.19-.11,1.93-.31,2.94-.06.3-.41.3-.4.37.02.15.26.4.27.65s-.22.43-.24.63c-.19,1.82.04,3.55-.09,5.36-.03.36.01.88,0,1.02-.04.28-.38.66-.4.86,0,.07.27.05.36.26.21.49-.26,1.99.42,2.21-.73.46.65,1.45-.62,1.47l.62.15-.63,1.46.32.09c-.61.55.1.89.13,1,.14.54-.21,1.46-.24,1.88-.02.27.2.52.19.85-.01.54-.67,1.42-.09,1.6-.43.65.09.68.13.78.12.3-.25.71-.27.94-.02.19.16.47.14.52-.04.07-.53.08-.45.4l.62.08v.6s-.78.17-.78.17c.5.42.09.74.15,1.14.02.11.25.09.28.18.07.16-.18.49.34.61l-.23.56h-.37c-.26.61.32.92-.02,1.54h.47c-.29.5-.56,1.01-.31,1.58.06.13.31.13.31.2,0,.29-.4.58-.47.93s.06.73,0,1.05c-.01.05-.53.3-.12.85l.43.03-.31.7.31.22-.38.15c-.09.11.32.42-.4.31l.46.39c-.1.37-.59.75-.61.8-.05.19.15.64-.05.94-.06.09-.3.14-.42.27-.15.17-.23.44-.38.56s-.37,0-.53.08c-.6.29-1.21.97-1.27-.09l-.92.3-.23-.43-.55.12-.16-.62-.3.16.15-.62-.48-.09.02-.99c-.41.05-.47.37-.93.15.2-.46.42-.79.15-1.28-.18-.32-.29-.47-.45-.97-.13-.4.09-.83-.62-1l.27-.53c-.46-.47-.88-1.17-.9-1.78l-.46.15c.15-.91-.79-1.89-.15-2.78h-.47s.28-.86.28-.86l-.6-.31c-.2-.61.52-.49.31-.84-.17-.19-.74-.29-.77-.31-.03-.02.15-.26.13-.39-.06-.56,0-1.03-.05-1.39-.04-.32-.71-.72-.24-1.31h-.47c.31-.39-.16-.22-.17-.54,0-.26.19-.64.16-.77-.05-.19-.41-.17-.44-.34-.08-.5.44-1.16-.31-1.37l.45-1.38c-.58-.31-.69-1-.78-1.63h-.45c.17-.37.16-.92.26-1.25.05-.17.36-.49.36-.54,0-.1-.36-.16-.46-.35-.6-1.06-.74-2.8-.9-3.98-.08-.56.41-.83-.8-.55l.17-.76h.52s.09-.32.09-.32c-.62-.03-.28-.4-.38-.62-.2-.4-.89-.14-.39-1.24l-.62-.16c.32-.41-.05-.69-.09-1-.03-.22.1-.45.07-.62-.16-.82-.57-1.31-.81-2.14-.21-.72-.46-.44-.7-.58-.06-.04-.01-1.09-.32-1.38l-.46,1.16.62.08-.62,1.49.32.29c-.49.45.16.99-.62,1.23.5.54-.17,1.17.61,1.02-.1.33,0,.6-.46.62l.29.23-.44,1.09.47.16c.02.54-.46.88-.58,1.35-.04.17-.25,3.41-.19,3.58.05.14.41.04.3.33-.73.46-.47,1.14-.78,1.86l.44.1c.41.8-.21.99-.36,1.38-.1.24.12.44.06.58-.02.04-.44.09-.45.56l.63.25-.46.7.31.07c.3.64-.44.88-.31,1.55.18-.07.34-.32.3.07-.07.74-.39,1.85-.74,2.49l.59.54c-.5-.07-.83,1.4-.31,1.24l-.46.4c.02.42.21,1.47.15,1.82-.01.06-.6.91-.62.97-.17.81.43.67.58,1.1.07.2-.1.52-.07.76.04.39.31,1.42.26,1.66-.02.07-.48.92-.55,1.27-.09.42.42,1.08-.38,1.16v.15c.46-.18.23,1.22.15,1.43-.07.17-.29.17-.35.27-.07.11-.33.7-.44.74-.22.08-.02-.24-.57.17-.39.29-.74.09-.34.94l-.77-.31.15-.77c-.71.08-.55-.43-.78-.82-.05-.09-.23-.08-.3-.23-.16-.37-.12-.66.14-.96l-.31-.22c.2-.67.79-1.49-.14-1.8l.44-.72c-.27-.69-.44-1.07.17-1.67l-.45-.08c-.27-.82.69-1.24.7-1.93,0-.25-.23-.56-.24-.93-.02-.69.61-1.77-.16-2l.47-.62-.46-.16c-.06-.48.58-.64.62-.78.04-.16-.51-.64-.29-.98l.6-.25-.62-.08.28-.17c-.24-.41.21-.84.2-1.13,0-.09-.29-.07-.32-.19-.12-.49-.11-1.53.15-2l-.3-.13c.64-1.09.48-2.06.62-3.09,0-.05.36-.28.41-.76.04-.38-.31-.79.2-1.11-.82-.4.08-1.28.24-1.69.21-.58.38-1.8-.36-2.01l.28-.63-.31-.15c.78-.6.46-1.1.55-1.8.03-.19.29-.67.22-.76-.29-.34-.26.4-.46.31-.23-.64.7-1.78.75-2.12.04-.28-.39-.41-.4-.59s.43-1.25.44-1.56c0-.28-.31-.2-.33-.32-.11-.57.47-.87.49-1.38,0-.24-.56-.3-.32-.84h.46s-.31-1.09-.31-1.09h.47c.08-.4-.08-.24-.31-.38.28-.1.33-1.72.29-1.85-.07-.24-.39-.24-.6-.25l.47-1.01-.31-.15c.27-.16.15-.5.19-.62.03-.08.72-.31-.04-.62.3-.4.65-.75.33-1.25l.3-.14c-.12-.2-.3-.47-.23-.71.16-.47.91-.54.54-1.08l.46.15-.16-.46.6-.18.02-.6c.07-.09,1.79.95,2.01,1.02.21.06.44-.1.46-.09Z"/><path d="M140.81,20.97c.09.06.13.31.27.42.25.19.67.22.87.53.34.54-.19.69.74.73-.03.39.28.8.28,1.13s-.2.44-.26.62c-.03.08.28.05.31.17.09.33-.09.8.03,1.18.03.12,1.03,1.5,1.05,1.61.06.3-.04.56-.16.82l.47.1c.2,1.06.76,2.05.61,3.15h.62c-.49.56-.43,1.68.08,2.17.28.27.85-.08.38.81-.09.17-.39.04-.3.35l.6.25v1.38s.41-.14.41-.14l.15.3.85-.55-.46-.31,1.07-1.08-.23-.39c.61-.38.84-.15,1.14-1.03.14-.39-.62-.18-.59-.51.56-.06.6-1.18,1.24-1.24l-.46-.38c.93-.54.77-1.37,1.15-2.1.31-.59.93-.66.64-1.7l.69-.3-.11-.31-.36-.07c.42-.18.17-.7.93-.7l-.46-.46,1.17-.31-.08-.45.62-.17-.3-.39c.6-.26.51-.98,1.08-.85.1-.24-.47-.11-.31-.31.03-.04.7-.47.85-.57.05-.03.29,0,.49-.15.64-.47.33-.64.35-.67.05-.06.57-.02.63-.08.19-.19.05-.64.56-.65.66.22,1.12.68,1.9.6l.04.58,1.22.49c.07.25-.22.11-.26.18-.07.1.18.65-.35.6v.3c.67.05.57,2,0,2.25l.27.1.21.97c-1.13.43.06,1.26,0,1.7l-.48.4.46.08-.31.7h.47s-.46,1.48-.46,1.48l.45.3c-.69.51-.21,1.21-.23,1.63-.02.39-.19.81-.2,1.17-.02.57.19,1.22-.02,1.76h.62c.08.06-.47,1.46-.47,1.78,0,.45.55,0,.56.62,0,.37-.34.38-.36.41-.02.04-.14.76-.14.82-.03.28.59.6-.05.54l.29.17c-.37.54.13.88.15,1.3.02.33-.27.73-.28.95,0,.08.25.06.27.14.16.7-.66,1.42.04,2.18l-.31.14c.43.77.3,1.54.02,2.34l.6.46c-1,.67-.3,2.36-.51,2.92-.08.22-.37.36-.38.49-.03.34.91,1.32.27,1.78h.77c.07.25-.23.11-.26.18-.03.06-.32,1.11-.33,1.18-.04.28-.04.5.12.75l-.3.14c.77.64.2,1.26.21,1.55,0,.43.25.02-.02.97-.21.75.17.38.39.53.16.11.16.63,0,.72l-.43.03c.53.69.45,1.63.16,2.39l.77.24c-.3,1.03-.27,2.19-.15,3.25l.31-.07c-.08.18,0,.69-.03.78-.04.1-.29.03-.28.15,0,.19.22.34.26.54.06.34-.44.51.06.92-.63.02-.29.63-.48,1.07l-.6.03v.44c-.6.27-.77-.46-.88-.47-.19-.03-.54.24-.65.16-.1-.07-.8-1.14-.81-1.37l-.76.15c-.09-.1.34-1.51.62-1.4l-.15-.23-.31.08c-.25-.59.27-.8.29-.85.03-.09-.21-.95.02-1.23l-.46-.08c.36-.88.16-1.28.04-2.14-.08-.54-.15-.5-.16-.57-.06-.28.07-.72.12-1.01h-.62c.37-.39.12-1.02.19-1.32.02-.07.22-.05.27-.19.08-.24,0-.56.17-.81h-.62s.48-1.15.48-1.15c-.64-.26-.08-.59-.79-.63.59-.17.12-.9.78-1.08-.16-.37-.35-.52-.78-.55l.77-.92c-.67-.18-.81-.48-.6-1.12.04-.12.22-.1.26-.2.06-.16-.1-.69.35-1h-.77c-.07-.47.52-.89.56-1.07.09-.41-.3-.66-.25-.86.04-.16.35-.18.42-.27.03-.03.06-.76.05-.82-.06-.4-.44-.33-.52-.58-.1-.29,0-1.59.2-1.91l-.3-.14.47-.62-.31-.15c.72-.7-.24-1.08-.11-1.71.02-.1.66-.85.59-1.23-.02-.09-.27-.08-.29-.12-.02-.03-.14-.47-.15-.5-.09-.57-.09-1.42-.03-2.01l-.31.08.46-1.39h-.47s.31-.71.31-.71l-.31-.07c.78-.63-.24-1.68.47-1.93v-.23c-1.17-.17-.15-1.83-.16-1.94-.02-.15-.44-.1-.48-.46-.04-.45-.02-1.28.48-1.39l-.46-.23c.46.07.04-.49.62-.47l-.48-.54c.18-.48.49-.86.46-1.52l-.75-.42c-.05-.24.2-.08.3-.27.08-.15.41-1.13.08-1.13-.91.12-.65,1.49-.79,1.71-.06.1-.28.14-.37.27-.19.25-.23.69-.62.66l.31.52c-.61.38-.7.86-1.08,1.41.89.33-.62,1.25-.73,1.5-.04.08-.13,1.16.26.9l-.7.45c.3.81-.24.59-.38.86-.17.34.38.12.31.38h-.62s.31.23.31.23c-.23.95-.52.86-.88,1.36-.22.3-.74,1.08-.96,1.44-.14.24-.71,1.62-.83,1.73s-.55.13-.74.19l.46.77c-.6.15-1.32.15-1.9.32-.17.05-.05.51-.65.14-.39.79-.85-.44-1.63-.54-.28-.04-.56.31-.94.08l.31-.77c-.67-.06-.3-.41-.35-.59,0-.03-.44-.26-.52-.39-.33-.57-.26-1.06-.06-1.65h-.47s.16-.31.16-.31h-.46c.09-.47-.08-.65.46-.85-.28-.42-.49-.32-.93-.23.1-.37.23-.95.16-1.32s-.38-.32-.44-.46c-.11-.26.36-1.01.28-1.36-.01-.06-.44-.28-.54-.72-.1-.39-.03-.74-.15-1.1h-.39c.4-.72,0-.92-.02-1.68h-.44c-.05-.33.15-.64.09-.95-.06-.29-.39-.28-.41-.4-.04-.28.18-.6.16-.75-.04-.32-.82.02-.91.1-.02.02.09.25.02.39-.23.45-.64.91-.5,1.49.03.11.24.1.26.15.03.06-.1.21-.07.25.08.08.34-.08.27.18-.46-.05-.17.2-.26.43-.16.4-.41.77-.48,1.21l.43.22-.76,1.23c.5-.02,0,.57.61.7-.28.29-.29.65-.77.54l.13.45-.28.09.62.46c-.49.55-.85.86-.93,1.63h.47c-.19.24,0,.51-.01.68-.01.12-.29.03-.32.32-.09.77.55,1.54-.29,2.18l.46.31c-1,.93.14,1.01.15,1.08.06.43-1.42,2.09-.91,2.85l.61.09c-.71.6-.71,1.28-.94,2.13-.04.14-.27.11-.29.21,0,.05,0,1.02.02,1.07.04.11.27.05.28.07.05.08-.29.28-.3.53-.01.28.29.64.24,1.01-.05.44-.66,1.1-.56,1.45.03.11.25.1.26.13.04.09-.13.29-.08.47.11.47.78.95-.34,1.06v.98s.31.1.31.1l-.45.84.45.32c-.57.63-.42,1.27-.55,1.93-.33,1.75-.6,3.52-.62,5.34,0,.51-.36.98.08,1.4l-.62.23c.09.25.31.44.38.7.1.37-.03,2.51-.15,2.85-.11.3-.57.89-.69,1.33l.31.08-.31.39.3.14-.17.53c-.12.11-1.23,0-1.45.06-.05.01-.48.56-.85.43.05-.87-.72-1.01-1.24-1.47.54-.14.13-.79.19-1.2.03-.24.43-.65.25-.87l-.28-.02.28-.22.04-.79-.32-.38.28-.02-.1-.26.59-.42-.62-.38.32-.09-.14-.58.19-.27.55.02c.1-.46-.49-.34-.46-.62l.3-.1v-.68s-.3.16-.3.16c-.19-.55.3-.79.29-.84-.01-.23-.26-.64-.23-.95.03-.28.34-.46.35-.61.02-.27-.6-.61.05-.54l-.31-.23.45-.49-.43-.6c.13-.25.51-.55.56-.81.04-.2-.1-.4-.08-.56.04-.22.36-.41.39-.67.05-.42-.8-1.64.19-1.99-.16-.39-.25-.37-.62-.47.83-.75.49-1.28.54-2.17.01-.18.17-.35.18-.59.03-.67-.36-.56.06-1.22.32-.51.06-.12.18-.62.08-.32.29-.64.29-.98,0-.29-.33-.22-.32-.29.02-.18.36-.56.39-.78.04-.32-.22-.9-.19-1.1.02-.14.31-.13.41-.34.4-.81.23-1.84.63-2.59l-.3-.14.14-.55-.46.07c.07-.55.08-.82.62-1.08v-.23c-.67-.05.07-1.1-.04-1.63-.02-.1-.22-.07-.24-.15-.12-.41.36-.5.41-.62.01-.03-.11-.52-.08-.69.07-.36.57-.52-.06-.7.79-.68.27-2.11.47-3.09l-.47-.24c.51.05.15-.22.22-.47.37-1.41-.06-2.6,1.02-3.64.11-.48-.58.1-.46-.61.06-.38.62-.69.77-1.09l-.31-.23c.95-.24.62-1.31.84-2.03.09-.29.32-.26.38-.41.1-.24.11-1.02.19-1.1l.44-.02-.31-1.08c.47-.11.84-.6.62-1.08,1.2.09,1.39-1.56,2.75-.58Z"/><path d="M18.31,18.78l.02.28.31-.31c-.04.36.4.24.77.55.4.33.36.79,1.08.71l.02.44.45-.15c0,.58.62.48.71.61.36.51.61.93,1.01,1.44.12.16.41.19.46.36.05.18-.16.44-.12.5.1.16.94.47.6,1.1l.62-.15c-.29.58.29.62.43.81.18.24.02.86.07,1.09.06.28.62,1.36,1.06,1.2l-.3.61c.37.04.48.27.46.63l.3-.16c-.05.49.07.81-.46,1.01.38.14.24,1.32.38,1.47s.68.09.64.69c-.02.29-.34.47-.34.62,0,.09.32.55.36.85.03.33-.21.44-.18.63.05.3.5,1.3.5,1.62,0,.35-.59.48.19.71-.35.58.26.79.33,1.31.06.45-.21,1.19-.17,1.69.02.3.32.21.33.32.03.27-.24.81-.27,1.2-.03.42.21,1.2.2,1.41s-.25.39-.26.61c0,.05.72.51.78.64.24.55-.58.34-.61.61,0,.08.27.48.46.39l-.31.46h.47s0,.77,0,.77l-.56.15c.14.34-.03.63-.04.87,0,.07.22.86.29,1.2.02.11.4.1.25.5l-.56.23c.61.71.23.85.19,1.34-.02.26.58,1.13-.03,1.21.1.34.54-.12.46.31-.07.41-.29,1-.77.86.27.32,0,.62,0,.84,0,.1.48.05.3.47-.97.37-.47,1.29-.79,1.84-.14.24-.4.24-.43.28s.18.41.21.58c.05.25-.28.54.24.48v.15c-.33.02-.67.41-.79.69-.16.37.05.55,0,.67-.02.04-.28.35-.45.69-.13.26-.63.23,0,.97-.79.2-.62.69-.92,1.06-.14.17-.92.42-1.09.96l.3.38c-.63.41-1.26.2-.93,1.23-.33-.03-1,.71-1.15.95-.21.32-.56,1.39-.79,1.68-.32.41-1.98.89-2.06.97-.11.11.04.65-.8.59l.16.46c-.86.24-1.95-.45-1.71.93-.25.07-.11-.23-.18-.26-.04-.02-.76-.17-.8-.17-.33.03-.85.48-1.12.51-.34.04-.72-.67-.77.22l-.67-.18-.03-.43c-.78.46-.89-.34-1.19-.44-.04-.01-.82-.15-.87-.14-.41.02-1.39.63-1.58-.03l-.08.46c-.65.1-.65-.54-.81-.73-.5-.57-1.46-.9-2.07-1.34-.21-.15-.65-.81-.7-.84-.06-.03-.27.18-.52,0-.14-.11-.56-.91-.63-1.11-.07-.23.08-.55.02-.63-.11-.13-.4-.09-.51-.18-.13-.1-.92-1.24-.52-1.44-.59-.69-.73-2.27-.99-3.15-.19-.66-.83-.82-.85-.88-.1-.23-.62-3.31-.62-3.7,0-.28.04-.45.16-.69h-.47c.3-.36-.12-.29-.14-.41-.1-.7.38-1.27.38-1.62,0-.5-.39-.46-.49-.67-.14-.3.51-.75-.36-.78.2-.07.59-.75.63-.94.09-.46-.26-.35-.29-.45-.06-.19.15-.76.44-.77-.75-.56-.4-1.47,0-2.16l-.46-.31.62-.55-.27-.83.52-.55c.02-.22-.22-.34-.23-.54-.01-.51,0-.68-.03-1.11-.01-.19-.11-.39-.11-.46,0-.04.37-.19.5-.62.18-.58-.14-.53-.17-.62-.21-.73.02-.68.41-1.31l-.31-.15c.48-.07.33-.62.93-.31-.38-.61-.14-1.64.12-2.28.12-.28.41-.45.55-.85.16-.45-.12-1.51.72-1.67-.1-.3-.47-.05-.29-.6l.92-.42v-.42c-.89-.51.07-.79.29-1.12.28-.43-.08-.99.63-.84-.12-.39-.06-1.15.11-1.51.11-.24.45-.22.48-.61.02-.25-.19-.73-.12-.82.03-.04.75-.08.77-.55,0-.08-.24-.06-.28-.15-.14-.33.26-.7.59-.39l-.31-.39c.32-.61.99-.29,1.31-.86.09-.16-.02-.33.03-.46.49-1.2,1.11-1.69,2.09-2.55.18-.16-.27-.5.45-.39.01,0-.15-.21-.11-.27.05-.11,1.62-1.42,1.79-1.53.4-.25.94-.27,1.23-.41.11-.06.03-.42.58-.43.27,0,.18.26.34.32.4.14,1.34-.02,1.5.04.27.11.14.46.4.44v-.77s2-.29,2-.29ZM18.44,22.81c-.15-.21-1.99-.99-2.19-.97-.6.63-1.44,1.61-2.34.94l-.21.36.29.56c-1.07-.22-1.56.55-1.86,1.4l-.62-.16c-.04,1.09-1.31,1.81-1.67,2.6-.19.42-.21,1.14-.42,1.59l-.39-.02c.14.63-.3.92-.45,1.45l.6.56c-.43.17-.61.38-1.08.16l.09.48.53.29c-.45.08-.2.8-1.08.47.25.28-.02.68.02.84.06.25.48.13.44.39l-1.08.54.62.62c-.26.3-.5.58-.93.54l.16.37-.32.16.31.54c-.75.06-.57.68-.74,1.04-.45.94-.52,1.32-.84,2.26-.11.31-.8,1.07-.43,1.35.18.14.7-.42.62.08-.46.18-.06.6-.76.56l-.02.91.62.08c-.88.89-.44.49-.35,1.2.16,1.23-.52,1.48-.58,2.05,0,.08.25.06.27.14.12.37-.36,1.62-.41,2.19-.04.5,0,1.79.03,2.32.04.73.3,1.36.33,1.93l.39.15-.31.61c.57-.06.15.53.16.99.02.7.44,1.21.46,1.28.18,1.01-.24,1.01.57,2.09.04.05-.08.52,0,.75.12.37.44.42.56.66.21.43.19.94.36,1.34.47,1.09,1.2,1.71,1.68,2.5.11.19.04.47.11.58.09.13.67.14.9.27.33.19.56.63,1.16.81.19.06.53-.09.85.12.39.25.26.98,1.08.44.12-.08.13-.3.24-.35.06-.02,1.26.03,1.33.04.3.06.47.77,1.3.48.18-.06,1.28-.55,1.48-.65.24-.12.4-.51.77-.54l-.15-.45c1.08.08.95-.71,1.7-1.16l-.46-.54c.57.23.33.05.6-.14.07-.05.24,0,.3-.04.02-.02-.13-.39.18-.52.69.18.37-.09.62-.43.31-.42,1.22-1.07.46-1.43l.45-.25-.15-.45,1.08-.39c-.73-.88,0-.81.23-1.17.03-.04.42-.75.44-.8.25-.59.16-1.61.57-2.21l-.46-.15c.29-.63.79-.86.93-1.55v-.14s-.31-.09-.31-.09c-.07-.26.26-.07.31-.25.04-.16-.09-1.14-.13-1.39l.29-.07-.31-.61.46-.31-.46-.08c.05-.56.32-.67.62-1.09l-.32-.15c.69-.81.02-1.01.02-1.07.01-.3.14-.72.45-.79-.47-.05-.11-.82-.31-1.32l-.31.16c.09-.27,0-.56.04-.81.08-.45.4-1.69.42-2.05.01-.31-.61-1.54-.61-1.86,0-.2.4-.7.29-1.06-.2-.67-.14-.93-.23-1.72-.05-.41-.34-.93-.34-1.27,0-.21.32-.62.25-.95l-.6-.18.15-.62-.31.31c.16-.59.02-1.19.03-1.75,0-.27.24-.44.18-.86-.06-.38-.36-1.31-.83-1.11l.16-.46c-.89.15-.29-.64-.32-1.15-.02-.37-.38-.66-.43-.97-.08-.47.44-1.51-.47-1.44l-.02-.61h-.77c-.14-.21.52-1.41-.47-1.24l.15-.3c-.6.04-.92-.63-1.15-1.11-.07-.15.03-.37-.02-.46-.14-.23-.57-.19-.71-.41-.1-.15.02-.42-.02-.48Z"/><path d="M216.45,22.31l.16-.29.36.14c.46-.82.84.12,1.07.27.16.11.58.13.93.35.25.15-.11.53.73.07.5.34.18.69.16,1.17l.28-.13c.48.54.3,1.27,1.04,1.36l.05,1.18.8.23v.98s-.31.25-.31.25l.27.02c-.04.34-.05.96.04,1.26.03.11.57.39.3,1.04l.46-.15c-.01.41-.29.6-.21,1.06.05.3.55.6.6,1.03.11,1.08.08.6.31,1.31.11.32.13,2.83.2,3.5.04.38-.39.35.49.55-.46.92.55,1.14.4,1.85l-.39.22c.51.22.46,1.38.5,1.45.12.18.64.3.42,1.01-.1.3-.59.12-.45.56l.77.16c.21.51-.45.56-.46.71,0,.04.02.69.03.76,0,.09.37,1.2.43,1.56s-.3.68.16.89c.09.04.27-.05.29-.03.08.1.44,1.45.44,1.63,0,.4-.33.53-.38.76-.12.67.77,1.74.28,2.47l.29.13c-.31.51-.09.93.48,1.03.04.28-.46.49-.46.53.05.46.72,1.32.73,1.4,0,.15-.29.32-.21.71.06.27.34.28.37.38.11.34-.21,1.03-.43,1.31l.46-.15c.21.56.19.8-.31,1.16l.32.17c-.37.57.11,1.04.11,1.41,0,.43-.65.29.33.92l-.3.68h.62s-.17.53-.17.53c.86.16-.19,1.7-.13,1.79.04.06.51,0,.31.78l.45.08c-.35.35-.25.99-.42,1.47-.23.63-.82,1.03-.67,1.7l-.7-.31-.14.31c-.23-.23-.69-.2-.92-.33-.3-.19-.2-.49-.29-.56-.18-.15-.75.11-.98-.64s.13-.81.18-1.17c.04-.33-.39-.4-.38-.45.05-.55.16-1.64.12-2.16-.04-.47-.22-1.02-.3-1.49l-.31.16c.08-.57-.04-1.25.31-1.7l-.77.15c-.1-.34.4-.64.41-.85,0-.1-.23-.22-.19-.39.1-.42.92-.74-.22-1.08l.31-.54-.61-.25c-.08-.06.66-1.27.44-1.9-.08-.23-.39-.22-.43-.27-.03-.04.13-.33.12-.51-.06-.63-.03-2.13-.6-2.26l.28-.22c.09-.25-.22-.69-.22-.78,0-.2.25-.36.22-.59-.06-.4-.64-.64-.71-.76-.12-.19.3-.7-.11-.89l-.54.46c.03-.6-1.78-.94-1.71-.31h-.15c-.36-.99-.56-.03-.7,0-.12.03-.67-.43-1.09-.4-.34.03-.5.4-.84.49-.4.11-1.44-.25-2.09-.17-.8.1-1.18.53-1.51.59-.35.06-.63-.29-1.01-.11l-.74.78-.7-.27v.47c-.78-.06-.64-.52-1.45-.45-.87.08-1.14.64-.26.83.08.45-.44.75-.45.8-.08.32-.17,1.48-.27,1.72-.08.2-.36.18-.37.28-.02.55.14.87.08,1.69-.02.28.16.6.08.91-.04.17-.61-.06-.01.78l-.44.7c.71.11-.23,1.17-.3,1.52-.11.5.29.94-.33,1.36l.46.23-.31.61.46.08c-.12.43-.6.57-.78.81-.14.19-.52,2.33-.57,2.72-.02.13.15.39.12.64-.06.46-.81.85.15,1.25l-.31.7-.46-.16c0,.32-.04.69-.19.98-.17.33-.44.32-.54.46-.31.41.11.84-.67.64l-.15.45-.39.11-.24-.62c-.7.33-.55-.1-.77-.23-.25-.14-.86,0-.74-.6.04-.21.41-.37.53-.64.18-.42-.46-2,.37-2.09l-.46-.15c-.07-.25.21-.11.25-.18.04-.07-.03-.19,0-.27.07-.16.25-.25.3-.42.23-.78-.86-.97.52-1.53v-.23c-.79-.26-.11-.77-.03-1.04.12-.39-.06-.94.19-1.35l-.32-.09.64-1.16-.48-.46.62-.47-.31-.46c.86-.3-.21-1.51.77-1.32.03-.49-.47-1,.15-1.16-.16-.41-1.03-.3-.77-.7.01-.02.23.02.26-.03.06-.11-.1-.61.2-.83.19-.14.56.36.68-.6.08-.62.12-1.19-.68-1.17.41-.45.28-1.35.47-1.74.09-.19.36-.02.31-.27l-.77-.31.28-.07c-.19-.83,0-1.2.65-1.71l-.31-.38c.59.04.62-1.08.15-1.16l.77-1.62-.62-.31.77-.31-.31-.25c-.15-.51.23-.54.24-.57.07-.2.06-.46.12-.65.03-.09.41-.15.12-.79-.12-.27-.43-.39-.44-.45-.07-.21.31-.88.36-1.16.06-.29-.04-.99,0-1.1.15-.3.84-.33.81-1.18-.01-.32-.33-1.17-.24-1.67.02-.11.83-.39,0-1.08.63-.32.16-.86.32-1.13.04-.06.27-.09.34-.19.22-.32.24-.7.69-.79l-.15-.9-.44-.09c.07-.67.51-.75.67-1.05.19-.37.45-1.01.6-1.4.11-.29.16-.98.19-1.03.11-.21.44-.23.52-.34.03-.03-.1-.16-.07-.25.14-.35.08-.43.21-.76.15-.38.77-.79.79-.84.05-.14-.35-.53.19-.81.09-.05.28.06.3.05.05-.05.11-1.07.77-1.08l-.3-.6c.62-.33.92-.58,1.68-.49.13-1.42,1.8.08,1.26-1.37.68.24,1.73-.26,1.71.77ZM216.26,25.29c-.07-.05-.98.15-1.14.27-.03.02-.49.47-.5.51-.1.23.37.5-.59.73l.09.46c-.77.03-.65.59-.89,1.09-.47,1.01-.42,1.38-.7,2.45,0,.03-.5.29-.54.38-.07.15-.06.87-.19,1.13s-.46.42-.47.48c-.04.24.15.59,0,.88l.3.25c-.87.14-.43.64-.52,1.09-.16.79-.8,2.06-.79,2.93,0,1.01.31.41-.13,1.72-.3.91-.14,1.92-.09,2.86l-.48.08.02.86.29.14-.62.78c1.04.52-.37,1.2.23,1.78l.83-.33.02-.44,1.55.15v-.47s.77.46.77.46l-.15-.62,2.79.31v-.47c.79.39,1.14-.43,1.7.15l.09-.32.74.18c.2-.75,1.5.3,1.72-.48.89.68,1.25-.17,2.09.16,0-.22-.3-.69-.28-.82.03-.15.27-.28.25-.47-.02-.23-.38-.47-.39-.65,0-.14.2-.29.19-.55-.02-.22-.25-.61-.27-.89l-.43-.03c.04-.66.22-1.79.12-2.4-.01-.07-.21-.06-.23-.1-.06-.11.36-.34-.51-.44.14-.56.29-.43.77-.54-.41-.21-.21-.75-.35-.97-.05-.09-.33-.08-.41-.29-.08-.22.13-.62.1-.75-.02-.07-.76-1.05-.9-1.01-.07-.25.22-.11.26-.18.02-.04.15-.84.15-.9,0-.08-.38-1.51-.42-1.58-.06-.15-.26-.15-.3-.23-.26-.57-.33-.93-.03-1.52l-.75-.23.15-1.24c-.89.51-.39-.59-.49-.83-.09-.21-.36-.2-.41-.27-.04-.06.16-1.14-.01-1.42-.13-.21-.81-.37-1.09-.51-.11-.05-.13-.29-.19-.33Z"/><path d="M253.78,20.46v.46c1.14-.37,1.7.91,2.17,1.78-.69.24-.29.53-.38.7-.1.18-.71.35-.9.82-.15.37.25.5.09.84-.12.26-.77.62-.9.98-.09.26.12.47.06.58-.02.04-.69.61-.71.68-.05.13.2.46.12.59-.05.08-.78.1-.9.19-.08.06-.59,1.57-.69,1.85-.52.35-.56,1.09-1.19,1.08.07.36-.09.57.3.68-.18.51-1.02.53-1.06.57-.46.56-.35,1.66-1.03,2.44-.26.3-.67.31-.78.47-.35.52.18.18-.59.76-.09.07-1.23,1.65-1.28,1.75-.3.6.04,1.65-1.14,1.36.21.53-.31,1.4-.93,1.08l.13.75c-.17.19-.78.28-.88.36-.03.03.18.58-.18.83-.13.09-.37.04-.44.1-.03.02.14.52-.17.68l.32.17c-.58.79.83,1.22,1.03,1.65.1.21-.02.48.05.62s.44.19.3.58l.82-.16c.09.63,1.13,1.23,1.05,1.78-.03.17-.39-.01-.32.24l.55-.12.22.21c-.05.37-.25.72.01,1.06.21.27.53.2.58.27.08.09,0,.49.1.75.1.24,1.05,1.11,1.27,1.44.33.52.44,1.35.84,1.59-.53,1.02.78.84.98,1.75.36,1.66,1.22,1.87,1.9,3.16.19.36.53,2,.69,2.11l.45-.15c0,.43.16.72-.31.85.08.14.35.16.42.28.27.43,1.01,2.23,1.16,2.4.04.05.56-.04.92.73.17.37-.06,1.12.59.86-.2.47.46,1.26.48,1.34.05.26-.08.7-.16.98l.62.08c-.04.3-.54.5-.58.57-.04.06.11.28.05.44-.16.43-.71.7-.71,1.24-.37-.18-.73-.02-.85-.46-.16.89-.26.33-.62.15-.23-.11-1.21-.55-1.28-.65-.05-.07-.58-1.37-.66-1.59-.07-.19-.18-1.13-.22-1.17-.36-.37-.66.29-.39-.92l-.31.16c-.12-.21-.1-.82-.17-.92-.04-.07-.92.3-.3-1.09l-.46-.08c.53-.92-.93-1-.79-1.92l-.42-.03c.02-.78-.81-.88-.33-1.84-.65.02-1.18-.23-.62-.77h-.46c.27-.59-.48-1.3-.59-1.66-.13-.46.17-1.16-.57-1.29l-.23.31c-.3-.24-.23-1.32-.31-1.39-.34-.3-.24.38-.46.31-.41-.55-.04-.87-.1-1.2-.02-.12-.5-1.36-.56-1.41-.08-.07-.31-.02-.43-.03l.07-.62-.85-.31c-.02-.21.12-.41.06-.62-.13-.51-1.63-1.94-2.02-2.52-.24-.35-.26-.47-.58-.88-.06-.08.06-.28.04-.3-.15-.17-.74.1-.91-.25l.31-.54c-.25.2-.87,0-.91.02-.1.05-.39.99-.79.91l.47.15-.63,1.31.46.64c-.6.64-.22,1.3-.46,2.07h.47c-.53.6-.34,1.03-.47,1.7l.62.08c-.18.68-1.38,1.96-.31,2.25-.35.46-.62,1.04.15.93.13.6-.34,1-.41,1.33-.12.57.09,1.59.08,2.13,0,.36-.22,1.02-.22,1.25,0,.58.5.34.55.39.06.06-.37,1.16-.33,1.63,0,.06.41.76.43,1.16.01.37-.34.8-.35,1.15-.02.74.24,1.92.29,2.69.55-.12.42.38.22.76-.04.08-.26.11-.31.2-.11.2-.5,1.13-.6,1.2-.05.03-1,.28-1.06.27-.51-.05-1-1.06-1.84-.55-.36-1.04.11-2.1.07-3.12-.01-.31-.24-.67-.24-.99,0-.29.32-.2.32-.31,0-.22-.26-.53,0-.83l-.62-.16c.26-.49.56-.96.47-1.55h-.62s.14-.68.14-.68l.49-.18c.09-1.02-1.09-1.65-.31-2.63l-.31-.15c.28-.44.48-1.73-.16-1.86l.28-.1c-.31-.55.28-.74.31-.83.07-.23-.29-.72-.29-.92,0-.1.45-.01.32-.31l-.62-.24c.24-.23.14-.53.19-.7.03-.09.23-.07.24-.09.05-.17-.38-.49.18-.45-.56-.45.33-1.39-.62-1.23l.62-.77c-.54.1-.39-1.11-.3-1.44.03-.13.26-.09.29-.21.16-.52-.47-.7-.46-.75l.31-.08-.31-.23.46-.85-.62.15c-.03-.4-.18-.74,0-1.13.11-.23.43-.65.46-1.13.03-.37-.16-.89-.1-1.19.04-.22.35-.3.26-.57l-.47.07c-.54-.39-.02-.85.06-1.34.1-.65-.05-1.36.01-1.98.04-.37.36-1,.35-1.32s-.27-.38-.34-.71.3-2.13.32-2.67c.02-.51-.2-.72-.39-.99-.11-.17.48-3.27.07-3.92-.1-.15-.42-.2-.53-.38.49-.48.41-1.03.62-1.63l-.46.15c.08-.4-.3-1.23-.3-1.47,0-.32.22-1.37.25-1.73,0-.13.03-1.02.01-1.06-.09-.19-.36-.19-.39-.25-.07-.11.2-.87.2-.99,0-.25-.29-1.17-.15-1.48.2-.38,1.21-.42,1.39-.6.25-.25.13-.85.61-.63.26.12.24.53.24.78l.58.03c0,.68.65.7.5,1.36l.46.08c.01.21-.14.44-.14.63,0,.36.06,2.35.18,2.5.04.06.29.02.27.11-.04.15-.39.43-.4.62-.03.33.37,1.52.4,1.87,0,.07-.25.04-.27.14-.04.16.08.75-.03,1.01h.77c-.15.5-.18.75-.78.78.25.34.07.83.18,1.14.11.33.76.05.13.95l.46.08-.31.31.26.03c.14.52-.24.68-.38,1.02-.19.48.14,2.05.31,2.59.03.09.22.06.25.15.09.32-.37.62-.43.94-.16.84.64,1.71-.12,2.31l.36.54.68-.31c.08-.38-.09-.24-.31-.38.33-.48.59-1.1,1.24-.7v-.76c.75.08.62-.55.71-.64.58-.61,1.25-.24.77-1.55.17-.48,1.02-.42,1.15-.69.19-.4-.64-.06-.46-.46.08-.18,1.28-.81,1.55-.54-.02-.22-.13-.4-.09-.63.07-.36.39-.19.4-.45l-.46-.24c.29-.61.89-.32,1.15-.7.07-.1.48-1.19.49-1.31s-.25-.23-.17-.39c.15-.34.86-.35.99-.49.02-.03-.08-.22-.03-.28.13-.18.41-.21.53-.38.51-.75.94-1.81,1.48-2.55.22-.3,1.16-.64.99-1.17-.07-.23-.5-.13-.46-.39.95.04.64-1.32,1.55-.93.1-.27,0-.64.11-.88.16-.33.9-.78.92-.86.05-.13-.1-.54.04-.8.09-.16.33-.06.42-.14.17-.15.64-1.22.51-1.51h.62s-.31-.38-.31-.38c.19-.3.45-.25.77-.23Z"/><path d="M36.32,18.57c.02.05.58.44.45.95.77-.06.47.09.66.42.04.07.26.06.25.13,0,.05-.25.77-.3.9-.03.08-.25.08-.31.23-.35,1.01.24,1.94.14,2.72-.24,1.79-.63,1.72-.15,3.75.08.36-.21.92.32.84l-.3.16.14.46-.31.15.47.23-.63.78v.31s.31.15.31.15c-.45.28-.43.62-.27,1.09.04.11.28.03.28.15,0,.2-.22.33-.26.54-.08.48.07,1.05-.06,1.55h.46c.13.59-.43.76-.46.89-.19.66.49,1.08-.29,1.36.33.52.27,1.06.14,1.63l.31-.08c.04.56-.44.95-.18,1.46l-.29.17.47.08c-.56.78-.64,1.26-.46,2.24.3-.12.15-.55.53-.78.22-.14.45-.16.71-.15-.1-.37-.23-1,.27-1.11l-.1-.26,1.23-.48c.04-.39,0-.34-.3-.16l-.15-.44,1.63-1.1c.15-.28-.21-.39-.21-.67,0-.68,1.5-1.79,2.13-1.96l-.02-.3-.28-.02v-.3c.29.03.63-.58.45-.78h.47s-.15-.3-.15-.3l.93-.16c-.42-.77.58-1,.93-1.35.24-.24.33-.82.77-.82l-.47-.16c.08-.54.31-.94.93-.93l-.16-.62h.46c.04-.17-.15-1.02-.12-1.06.39-.53.25-.39.52-.94.36-.73,1.71-2.45,1.85-2.96.06-.22-.37-.28,0-.76.27-.35.66-.38.93-.62.54-.49.33-.7,1.12-1,.04-.01.04-.24.11-.24.24.02.75.3.71.61l.46-.31c.01.52.6,1.58.47,2.06-.04.15-.34.13-.43.36-.39.91-.89,2.45-1.22,3.41-.04.11.11.33.1.35-.04.05-.45.07-.58.19-.03.02-.03.65-.09.71-.23.27-.87.2-.61.63l-.27.03v.31s.28.08.28.08c.05.64-.71.38-.28,1.01-.21.03-.5.06-.63.26-.3.45-.65,1.67-.93,2.12-.18.28-.69.4-.83.72-.24.52.15,1.02-.85.94.09.64-.49.65-.34,1.37l-.42.03c-.03.54-.03.77-.64.77.32.91-.33.69-.58.96-.43.47-.15,1.14-.2,1.19-.02.02-.29,0-.45.1-.18.13-.4.55-.53.63-.16.1-.41,0-.54.08-.21.13-.33,1.17-.51,1.43s-.55.25-.78.47c-.09.09.05,1.26.08,1.32.16.27.68.22.83.34.19.16.09.44.8,1,.27.21,1.2.99,1.37,1.18.08.09,0,.34.05.39.08.07.84.04,1.06.19l-.14.75c.81.1.64,1.1,1.13,1.36.28.15.66.06.8.21.23.26.12,1.35.4,1.77.21.32.44.07.45.09.05.1-.06.47,0,.66.03.1.57.38.73.85.14.41.16.99.05,1.41l1.23.49-.11.27c.77.24.18,1.01.29,1.47l.9.67c-.35.46-.14.66-.04,1.15.57.54.78,1.55.98,2.32l.62-.16c.2.58.04.73-.15,1.24l.46.09c-.27.57.18.65.34,1.07.1.27.21.6.26.78.08.23-.38.47.29.77l-.11.39.77-.15c.09.11-.39,1.45.14,1.46l-.14.55h.46c-.09.52.08.8-.62.78.28.39-.22,1.03.31.92v.15c-.42-.03-.96.71-1.18.75-.24.04-.46-.26-.6-.25-.14.01-.83.97-.85-.19-.67.34-.4-.95-1.24-.62,0-.36.18-1.73.1-1.94-.15-.36-1.37-.74-.25-1.31v-.15c-.48.08-.3-.6-.5-.75-.11-.08-.39,0-.43-.03-.04-.04.19-.57-.02-1.11-.15-.38-.89-.34-.44-.97-.69-.38-.66-1.36-.92-2.03-.29-.77-.67-.76-.8-.93-.19-.25,0-.64-.08-.84-.13-.35-.72-.67-.81-.81-.04-.06-.01-.89-.26-1.35s-.16.2-.38.15c-.55-.53.03-1.03,0-1.08-.01-.01-.21.03-.26-.04-.11-.16.01-.43-.07-.55-.04-.06-1.38-.4-.29-.8v-.15c-.49-.16-.67-1-1.24-1.24l.31-.31-.71-.15c-.2-.28.1-.63.05-.76,0-.01-.18-.02-.26-.15-.13-.21-.17-.69-.53-.63l-.57.29c-.04-.69-.72-.61-.16-1.46-.39-.21-.56-.57-.82-.82-.63-.62-1.16-.83-1.84-1.27-.36-.23-.34-.81-1.24-.63-.53.1-.27.84-.29.9-.02.06-.91.7-1.04.91-.07.12-.37,1.53-.34,1.65l.63.1c-.04.56-.09,1.05-.77.77l.62.31c-.13.25-.09.67-.46.62-.07.25.22.11.26.18.22.41-.3,1.01-.27,1.28,0,.06.42.2.25,1.09-.3,1.55-.33,1.18-.25,2.8,0,.08-.3,0-.31.29-.01.87.4.58.63.72.05.03-.09,1.05-.61.93,0,.39.44.43.46.46.04.07-.21.26-.25.45-.14.78.17,1.43-.22,2.1l.31.15-.16.46.32.16c-.31.47-.16,1.03-.77,1.24.24.32.38.69.43,1.09.1.77-.53,2.16-.44,2.63.04.2.52-.08.47.23-.64.19-1.12.73-.62,1.32l-.15.31c-.65.03-.98.41-1.62.53-.19-.42-1.2-.87-1.4-1.24-.09-.17.07-.34.03-.43-.04-.1-.4-.46-.41-.88,0-.3.32-.53.31-.77,0-.05-.43-.11-.31-.76.02-.09.77-.19.02-.48-.09-.48.39-.69.43-.82.03-.07.27-1.43.27-1.51,0-.08-.24-.34-.32-.53-.04-.1.08-.31.07-.32-.14-.08-.51.14-.46-.16.44.07.18-.3.31-.65.04-.11.27-.12.3-.23.06-.29.27-2.13.26-2.43-.01-.35-.09-.51-.41-.64l.32-.76-.48-.33.72-.92c-.05-.35-.16-.69-.56-.7l.77-.69-.47-.47.43-.61-.11-.3-.48-.17c.06-.81.71-1.01.47-1.93h-.62c.19-.3.2-.8.62-.78v-.31s-.29-.08-.29-.08c.07-.44.39-1.1-.18-1.24l.62-1.71-.31-.07c.17-.4-.25-1.12-.13-1.47.03-.09.26-.06.28-.18.04-.23-.12-.45-.07-.69.07-.34.42-.88.45-1.14.06-.46-.24-1.08-.54-1.24.4-.23.28-.57.37-.82.01-.03.19-.03.21-.11.23-1.09-.51-1.02-.55-1.23-.02-.13.65-1.86.56-2.49,0-.06-.68-.29.03-1h-.62c.28-.39.18-.88.31-1.27.04-.12.3-.11.3-.21,0-.13.01-1.29,0-1.35-.03-.1-.22-.1-.24-.15-.13-.29.07-.54-.36-.64l.77-.93-.6-.61.44-1.09c-.8-.33.27-.83.3-.95.11-.44-.02-2.65-.3-3.07l.31-.15c-.82-.67-.04-1.41-.05-2.1,0-.64-.29-1.53-.25-2.37.03-.62.47-.99-.01-1.79.68.04.78-.45,1.22-.73.26-.16.49-.09.68-.2.44-.25.28-.96.98-.31.13.19-.14.41-.06.59Z"/><path d="M66.14,20.82c.25.16.43.26.71.43.25.15.63.53.81.6.51.21-.19-.55.31-.46.4.07.95.53,1.46.68.63.19.97-.34,1.12.84l.88.05c.18.29.15,1.16.37,1.34.14.12.56.07.74.26.19.2.09.5.19.66.16.26.9.19.74.74-.02.08-.42.02-.31.31l.93.24-.31.93c1.27,0,.68.73.77,1.29.02.11.27.08.3.2.12.47.19,1.27-.13,1.68.15.38.55.01.61.07.13.13,0,1.04.02,1.3.06.65.51,1.2-.17,1.41l.62,1.71-.32.15c.28.36.22.99.42,1.32.12.2.62.04.2.66-.07.11-.27.09-.28.18-.06.6.06,1.28.08,1.83,0,.25-.19.59-.11.89l.54-.16c.44.62-.57,1.96.39,2.25l-.31.08v.31s.29.08.29.08l-.44,1.4c.65.18-.04.78-.09,1.09-.14.81.03,1.77.06,2.5,0,.25-.39.5-.28.82.41-.25.78.3.42.59-.09.07-.32-.04-.42.13-.26.46.19.77.16.82,0,.01-.21-.04-.32.11-.2.28-.24,1.9.47,1.6v.15c-.44-.08-.12.28-.38.48-.14.11-.37,0-.38,0-.08.1-.04.46-.17.65-.16.25-.61-.11.12.64-.3.49-.48,1.05-.66,1.61-.04.11.08.3.06.38-.02.06-.62.67-.45,1.03l.77.08-.31.7-.62-.15c.45.66-.7,1.74-.42,2.14.05.07.33-.08.27.18-.93.05-.4.45-.62.96-.08.17-.89.93-.91,1-.1.3.15.67.03.94s-.4.29-.46.38c-.41.59-1,2.77-1.36,3.53-.24.52-.54,1.11-1.17.77l-.02.44-.45.1.47.15c-.25.42-.72.51-1.04.74-.12.09-.16.4-.36.5-.22.12-.67-.1-.85-.05-.04.01-.69.47-.72.5-.18.18.05.49.02.71-.39-.1-.76.13-.85-.31l-.16.31-1.16-.77-.08.3c-.46-.17-.47-.48-.55-.93l-1.08.16.15-.77c-.4-.15-.71.17-.85-.29l-.37.12c-.25-.57-.82-1.14-1.4-1.41.25-.76-.09-.5-.17-.71-.05-.14.04-.45,0-.5-.09-.1-.55.28-.82-.47-.13-.37.12-.84.05-1.23l-.46.16c-.08-.06-.28-1.31-.37-1.51-.18-.42-.6-.94-.84-1.7-.13-.4-.48-2.71-.57-2.83-.12-.15-.39-.11-.5-.2-.65-.59.01-1.66-.05-2.43h-.62c.7-.81.18-.86.04-1.6-.16-.9.42-1.22-.03-2.36-.14-.35-.5-.5-.49-.92,0-.09.18-.81.23-1.06.03-.17.25-.31.25-.34,0-.1-.57-.16-.54-.78.02-.44.75-.46.53-1.37-.17-.71-.23-1.64-.12-2.51.04-.33.36-.41.12-.88-.07-.13-.3-.13-.29-.19.02-.15.25-1.17.31-1.37.04-.13.3-.11.31-.2.03-.27-.22-.45-.24-.7-.11-1.11.54-1.27.71-2.22l-.3-.15.16-.85h.45c-.48-.45-.06-.56-.06-.88s-.1-.88-.03-1.15c.11-.43.57-.13.23-.83.44-.01.31-1.42-.14-1.33l.93-1.01-.31-.31c.15-.23.61-.49.7-.7.02-.04.16-.79.16-.85,0-.08-.17-1.02-.17-1.08,0-.79.62-.43.8-.69.02-.5-.11-.69.37-1.01v-.23s-.31-.08-.31-.08l.32-.15v-.31s-.32-.15-.32-.15c.12-.42.61-.55.78-.77.35-.46.89-2.27.97-2.37.39-.52,1.92-1.16,1.5-2.2.8.22.71-.24.93-.39.11-.08,1.26-.06,1.32-.54l.53.16v-.47c.09-.1.73.27.88.37ZM68.54,26.31c-.15-.27.31-.78-.18-.98-.18-.07-.39.06-.51.02-.9-.28-.64-.1-1.12-.14-.17-.01-.3-.37-.46-.38-.25-.02-1.01.61-1.55-.19l.07.6-.45.26.31.38-.93.16c-.08.6.59.42.17,1.15-.94.14-.45.16-.58.4-.09.16-.25.25-.37.39l.39.1c.18.35-.65.7-.89,1.11s-.52,1.92-.68,2.4c-.07.23-.2.41-.36.59l.3.3c-.05.28-.71.86-.72.92-.09.43-.07,1.31-.16,1.76-.05.27-.31.56-.33.76-.04.35.63.44-.03.59,1.07.15,0,.6-.27.97-.1.14-.39.87-.34,1.02.03.12.3.12.31.18.09.54-.44.45-.48.65-.03.13.13.89.2.95.17.15.58-.25.4.54-.08.36-.4.55-.56.85-.12.22-.05.58-.11.66-.11.13-.36.12-.38.15-.24.3.23.29.27.38.18.4.28,1.79-.27,2.02l.46.31c-.48.15-.4.6-.62,1l.62-.15c.21.49-.39.81-.43,1.02-.08.41-.04.47-.15.91-.08.33.24.97-.19,1.32.32.02.56-.28.77.08l-.31,1.62.46.08c-.23.2-.16.95-.19.99-.06.07-.34-.09-.27.17h.46c-.11.32-.36,0-.32.55.02.23.81.56-.15,1.09l.33,1.28.6.02-.31,1.24c1.15.03.25.79.3,1.48.02.31.29.2.32.33.21,1.06-.1.54.46,1.72.21.44-.16.64.62,1.04l-.31.54.64.22c.02.37.3.99.53,1.32.21.31.78.48.92.94.08.26-.12.54-.08.6.07.1,1.02.1.78.93.8-.15.56.33,1,.78.37-.77.32-.25.61-.23,1.34.1.85-.71,1.06-.98.11-.14.61-.25.7-.37.05-.06-.16-.44-.04-.59.29-.38,1.56-.88.85-1.54.47.05.32-.52.49-.83.23-.41,1.01-.59.59-1.42l.31.08-.12-.46-.19-.08c.44-.1.16-.41.35-.89.15-.38.59-1.11,1.05-1.05l-.17-.53.32-.16-.46-.38c1.09-.41.65-1.67,1.03-2.48.1-.21.42-.32.49-.57.01-.04.03-.82.02-.88-.01-.13-.34-.03-.32-.32.03-.66.63-1.2.64-1.27.04-.15-.16-.62,0-.87l-.32-.1.93-1-.47-.08.31-1.08c-.83.08-.56-.71-.45-1.22l.6-.02c-.53-.55-.37-1.21-.38-1.93,0-.27-.02-.58-.02-.85-.01-1.36.12-2.62,0-3.87-.04-.4-.07-1.22.23-1.47-1.03-.55-.15-.99-.44-1.93l-.46.15.45-1.32-.45-.23c-.07-.25.27-.07.31-.24.12-.42-.43-.85-.44-.91-.16-1.03-.21-2.49-.33-3.54l-.3-.16.14-.71-.46.16.16-1.7c-.62.15-.53-.54-.79-.96-.38-.59-1.56-.91-1.66-1.09Z"/><path d="M121.14,20.81s.03.2.16.25c.45.16.96.3,1.43.17l.17,1.38.58.03.17,1.38.77-.16c-.23,1.05.29,1.28.73,1.92.19.28-.19.44.36.34.16.31.36.5.15.84h.62s-.15.62-.15.62l.62.16-.43,1c.43.31.37.87,1.05.86.06.26-.23.38-.28.58-.19.67.54.98.58,1.22.03.18-.24.33-.24.44,0,.09.22.26.25.48.05.42-.33.94.47.84v.15c-.54.01-.4,1.14,0,1.47-.69.31.13,1.42-.15,2.09h.47s-.47,1.7-.47,1.7l.62-.15-.14.7-.64.08c.16.17.01.51.05.59.1.21.99.57-.05,1.03.82.7.55,1.33,0,2.17l.46.15c-.07.5-.61.73-.62.78-.22.64,1.02.22.39,1.02-.66-.03-.55.59.08.45l-.31,1.7h.47c-.11.48-.03.97-.46,1.32.43.11.21.46.31.85h-.46s0,.62,0,.62h.47s-.47,2.32-.47,2.32l.78.08c-.46.08-.1.82-.77.54l.15,1.24h-.46s.46,1.24.46,1.24h-.62s.02.6.02.6l.75.33c-.18.05-.97.72-1.01.78-.22.36.17,1.07-.54,1.09.73.35.56,1.57-.31,1.23-.06.34.08.83,0,1.13-.03.12-.35.21-.5.46-.26.44-.5,1.15-.72,1.64-.53,1.16-.86,2.33-1.56,3.36l.46.38-1.55.31.09.47c-.11.14-.41.1-.51.18-.4.33.17.84-1.34.44-.48.28-.14.43.06.76l-1.01.17c-.46-.44-.83-.67-1.52-.48-.17.04.04.58-.65,0l-.3.33c-.8-.46-1.53-.14-2.4-.33v-.61s-.39.29-.39.29c-.2-.28-.61-.44-.8-.65-.1-.1-.06-.4-.19-.5-.25-.19-.58.13-.87-.05-.85-.53-.16-2.47-1.79-2.43l-.21-1.77-.7-.15c.29-.51.01-.83-.08-1.24-.07-.31.22-.41-.22-.52.53-.78-.58-.71-.17-1.48h-.47c.16-.45.48-1.15.46-1.61s-.44-.74-.32-1.16h-.45s.15-.57.15-.57l-.3-.14c.38-.32.15-.59.16-.93.01-.65-.28-1.84-.26-2.48.01-.31.49-.62.5-.93,0-.25-.3-.85-.23-1.23l-.49-.17c.53-.17.11-.74.78-.93l-.62-.15c.03-.51.55-.79.69-1.18.11-.3-.15-.63.23-.84l-.62-.15c.07-.7.57-.5.62-.54.26-.26-.88-.89,0-1.16l-.32-.33c-.15-.95.96-.72.16-1.76l.62-.39c-.93-.26.17-1.11-.62-1.39.04-.31.58-.53.6-.57.03-.05-.13-.33-.11-.51.08-1-.25-1.91.07-3.2.04-.18.49-.98.48-1.15,0-.15-.32-.29-.26-.38.03-.04.57-.03.43-.58-.09-.35-.39-.44-.39-.71-.03-1.2,1.11-1.05,1.21-1.97l-.62-.15c.48.04,0-.57.77-.47l-.31-.23c.56-.37.43-1,.72-1.44.17-.26.48-.1.36-.49l-.3-.08c.58-.3.21-1.1.93-1.17l-.31-.38.93-.39-.46-.62c.43.07.17-.24.24-.32.12-.14.7-.26.83-.58.18-.45.17-1.28.47-1.63.17-.2,1.37-1.05,1.51-1.23.13-.16-.11-.56.51-.42l-.15-.62c.63-.04,1.31-.08,1.89-.33.26-.11.09-.56.89.01.06-.71.8-.31,1.15-.36.38-.05.74-.39,1.14-.21ZM120.98,25.14c-.45-.49-1.05-.19-1.46-.23-.34-.03-.5-.46-1.05-.13.06.94-.49.55-.67.67-.32.22-.78,1.08-1.25.74-.57.82-.97,1.56-.02,2.24-.53.46-2.39,1.62-1.27,2.27v.18c-.23.27-.4,1.05-.58,1.25-.14.15-.4.02-.48.2-.21.48-.17,1.48-.44,2.16-.1.26-.31.22-.41.52-.2.61.33,1.01.18,1.57-.1.37-.49.49-.55.72-.1.4.65.59-.32,1.21l.31.31c-.6.65-.08,1.76-.62,2.48,1.2.27.18.82.05,1.26-.02.06-.06,1.13-.05,1.19.02.12.26.09.29.18.12.33-.94,1.31-.52,1.94.07.11.39.11.4.24.02.2-.6,1.26-.48,1.77,1.02-.09.03.53-.11,1.13-.13.54.18,1.12.42,1.59l-.31.22.43.39-.4.46c.66.79.16.65.05,1.14-.21.89.17,1.29.3,1.86.03.12.1,1.11.09,1.17-.08.46-.43.24-.47.54l.77.16c-.38.48-.29,1.71-.11,2.24.05.14.59.58.59.63-.02.23-.3.35-.29.59,0,.13.48.75.57.8-.02,1.11,0,2.8,1.57,2.56l-.16.46c.37.23.3-.6.62-.31.11.1.29.85.17,1.06l1.75.64.25-.62.82.44c.66-.25.36-.68,1.19-.51l.16-.47-.31-.23.77-.16-.13-.28c.26-.11,1.51-.78,1.62-.95.19-.31-.26-.84.36-1.19l-.45-.75,1.1-.96c-.1-1.25.67-1.98.75-3.19l.47-.1c-.17-.25-.53-1.19-.27-1.37.11-.08.36,0,.43-.03.03-.02-.09-.48-.07-.69.04-.71-.11-1.42,0-2.11.03-.19.29-.34.22-.6l-.47-.08c.35-.39.73-.8.62-1.37-.32-.16-.51-.84-.4-1.11s.46-.35.4-.7h-.46c.1-.38-.11-.6.31-.7l-.31-.15.46-.62c-.5-.21-.45-.86-.62-1.31l.62-.08c.04-.44-.41-1.01-.43-1.42s.69-1.18-.19-1.29v-.23c.45-.12.16-.28.3-.59.04-.09.25-.1.28-.15.23-.42-.18-.95-.58-1.12l.29-.15-.13-.53.61-.25-.47-.08.14-.54-.29-.08c-.07-.25.21-.11.25-.18.09-.16.07-.68.21-.9l-.62-.08c.68-.09-.36-.82.62-.7l-.46-.23c.57-.62.71-1.19.72-2.02l-.88-.23c.23-1.21.2-2.62-.62-3.64l.46-.31c-.41-.42-.53-1.02-.77-1.52-.52-1.05-.92-1.53-1.69-2.37-.14-.16-.46-.21-.47-.23-.04-.06.57-.85.11-1.34Z"/><path d="M182.37,22.32l-.16.46c.78-.32.79.32,1.39.31l-.14.55c.73.25-.04,1.06.91,1.01-.07.23-.15.72-.07.93.15.38.76,1.64.81,1.92.11.66-.44,1.3.5,1.7l-.31.39c1.19.03.35,1.09.62,1.86l.31-.16c-.28.33.25,1.53.5,1.67.18.11.49-.01.59.03.01,0-.11.2-.07.32.07.2.25.33.3.53.08.29-.31.6.3,1.02.15.1.35,0,.37,0,.1.13.16.82.36,1.03.35-.1.83.27.98.28.12,0,.4-.35.69-.09l.1-.47c.24-.08,1.18-.1,1.27-.18.07-.06.04-.37.17-.52.29-.33.79-.27.63-1l.28.11c.2-.26.51-.67.75-.88.16-.14.87-.19.52-.63l.64-.07c.05-.28.35-.94.61-1.09.08-.04.63.06.73-.27.08-.25-.12-.45-.04-.73.02-.07.64-1.12.69-1.17.12-.13.46-.17.63-.31.32-.25-.37-.68.45-.54l-.47-.15c.18-.94.88-.42.93-.46.17-.16.18-1.08.22-1.16.1-.25.38-.39.48-.7.08-.22-.06-.59.09-.83.2-.31.5-.2.57-.29.08-.09.02-.39.12-.57.19-.34.65-1.23,1.06-1.09.18.06.19.36.27.43.06.05.4-.13.52-.07.17.08.19.3.34.43.11.09.35.06.46.19.34.38.48,1.31.78,1.74l-.58.62.31.08-.32.24c.34.76-.03.41-.3.75-.44.56-.28,1.11-.39,1.34-.09.19-.43.2-.58.5-.13.26-.07.84.05,1.11l-.32.16.29.15c.03.84-.48.62-.58.72-.07.07-.18,1.71-.43,2-.33.37-.65.21-.99,1.01l.31.17v.42c-.48.17-.24.52-.38.88s-.5.76-.55,1.23l.62.15c-.38-.08-.25.33-.35.43s-.33,0-.44.13-.05.56-.11.79c-.1.41-.54.49-.03.97l-.7.61c-.05.27.1.52.39.48v.15c-1.14.04-.49,1-.7,1.57-.11.3-.38.44-.47.68s-.02,1.35-.11,1.66c-.15.52-.65.66-.71.77-.06.1.12.37.07.6-.11.54-.68.67-.09,1.23-1.23.27-.81.55-1.09,1.28-.05.13-.3.12-.29.19.02.2.25.51.23.79-.02.26-.31.43-.36.65-.11.45.08.94-.18,1.37l.29.22c-.54.2-1.2,1.04-1.31,1.55,0,.04.07.79.08.83.03.12.32.09.3.17-.12.5-.6.44-.79.65-.36.42-.71,2.8-.87,3.43-.06.23-.2.41-.36.57,1.11-.22-.05.84-.2,1.16-.56,1.19-.67,3.97-1.36,5.31-.06.12-.18.13-.3.12l.31.46-.46.46.62.31c-.6.17-.3.71-1.08.16-.15.99-1.16.19-1.32.77-.71-.1-.73-.72-1.06-1.03-.11-.11-.49-.05-.56-.3-.07-.23.2-.62.22-.92.04-.57-.21-1.61-.03-2.01.05-.1.23-.1.31-.27.24-.46.11-1.04.73-.89l-.31-.23.47-1.08-.32-.16c.28-.69.91-.29.93-1.4,0-.24-.17-.46-.17-.61,0-.06.81-.19,0-.47.82-.41-.17-1.3.77-1.17-.23-.43.23-.65.35-.96.38-.97-.18-.9-.18-.95.03-.7.98-.63.61-1.33l-.31.16c-.17-.81.54-.73.6-.79.08-.09-.04-.39.06-.56.04-.08.29-.08.39-.3.41-.81.1-1.51.22-2.1.08-.4.71-.75.9-1.13l-.46-.08c.02-.61.1-.9.78-.77l-.62-.93c.45-.09.56-.56,1.07-.32l.17-.38-.31-.15c.31-.32.37-.62.15-1.01h.47c.09-.26-.22-.35-.24-.54-.06-.41.66-2.01,1.01-2.1v-.31s-.3-.07-.3-.07l.92-1.57-.3-.52.31-.08-.31-.38.77-.55c.09-.55-.57.23-.46-.3s.49-.59.58-.73c.03-.05-.1-.19-.07-.24.13-.21.68-.2.11-.81.5.1.81-1.37.31-1.17-.32.11-.15.51-.18.52-.11.08-.49.07-.76.25-.42.29-1,1.46-1.36,1.62-.33.14-.77-.02-.8,0-.32.32.39.25.31.46-.39.21-.98-.06-1.28.02-.23.06-.33.41-.66.45-.29.04-.18-.26-.33-.3-.05-.02-.99-.18-1.04-.17-.11.03-.1.31-.18.32-.86.03-1.41-1.33-2.38-.8l-.33-1.07-.62.16c.28-.59-.11-.45-.25-.67-.19-.28-.43-.77-.63-1.02-.38-.48-.6-.11-.35-1.09h-.47s.31-.62.31-.62c-.87.13-.35-.8-.93-.78l.31-.23c-.5-.12-.26-.41-.33-.83l-.6-.25.11-.39.35-.07-.15-.55-.46.16.25-.85c.02-.29-.48-.57-.54-.81-.09-.34.17-.62.14-.88-.01-.11-.27-.09-.28-.17-.06-.25.06-.61-.09-.97-.18-.46-1.39-.5-.86-1.18-.73-.29-.42-.85-.54-1.39-.08-.37-.49-1.27-.26-1.56.11-.14.36-.05.43-.13.32-.31-.14-.68.93-1.12.11-.05.11-.4.82-.09Z"/><path d="M265.7,23.55l-.61.31c.45-.03.4.42.48.76l.6.02-.62.77.3.07c-.42.45-.05.9-.07,1.18-.01.31-.25.63-.23.99.05.94.67,1.23.86,1.71.1.26-.21.63-.18,1.01.05.74.98,1.78.09,2.01.45.5-.12.98.15,1.74l.78.11c.07.07-.46,1.24-.48,1.47-.02.34.16.72.18,1.09.03.54-.46,1.09.29,1.16l-.31.23.31.31-.47.62c.79.24-.22,1.66.78,1.78l-.31.31h.47s-.32.77-.32.77l-.3-.15c.08.47-.27,1.16.31,1.32l-.62.62.62-.08-.46,1.01c.67.24.3.58.37,1.06.07.53.32.87.09,1.54-.05.14-.31.11-.31.19s.17,1.62.19,1.7c.02.1.29.07.28.14-.02.2-.61,1.76-.45,1.92l.76.17-.47,1.33c.43.4.24,1,.01,1.55l.3.14c-.57.79-.03.67,0,.8.15.67-.66,1.69.77,1.45.07.25-.21.11-.26.18s.07.32-.03.48c-.11.18-.45.17-.48.42l.46.08-.29,1.15.61.17c.05.24-.19.08-.3.27-.35.61.09.45.14.61.05.17.31,1.29.3,1.36,0,.36-.37.57-.39.77-.03.36.55,1.22.25,1.78l.46-.16c.1.36.18.77-.31.78v.23c.31.11.71.53.44.83-.11.13-.67-.08-.58.69-.74.13.65.82-.57.89-.16,0-.36-.52-.81-.27-.07.04.07.33-.18.26.03-.39-.45-.36-.75-.57-.34-.24-.63-.69-1.09-.91.26-.51,0-.91,0-1.37.01-.83.35-.79-.04-1.66-.06-.13-.27-.13-.27-.2,0-.31.24-.89.44-1.17l-.75-.39c0-.4.29-.73.36-1.07.13-.63-.14-1.1.08-1.63h-.46s0-2.38,0-2.38l-.32-.18c1.15-.63-1.01-1.52.16-2.4-1.2-.55-.26-.63-.15-.78.03-.05-.57-.61-.27-1.05.02-.04.82-.31-.04-.26-.17-.28.34-.81.31-.85-.02-.03-.3,0-.42-.23s.11-1.41.1-1.71c0-.12-.55-1.42-.46-1.47h.47c.03-.27-.36-.14-.45-.41-.17-.51.14-1.28.45-1.68l-.47-.08c.22-.37-.05-.77-.02-1.16.03-.34.34-.25.44-.46.02-.04.05-.87.04-.92-.01-.11-.25-.08-.28-.17-.06-.17.26-.72.28-.92-.04-.17-.37-.16-.44-.32-.03-.08.11-1.6.13-1.68.05-.18.39.02.31-.33l-.32-.18.17-2.22c-.89.13-.42-.73.15-.78v-.15c-.41.06-.18-.19-.26-.31-.07-.11-.25-.1-.32-.24-.24-.5.17-.91.11-.99-.03-.04-.36,0-.41-.23-.06-.28.11-1.27.08-1.39-.04-.19-.41-.17-.45-.35-.09-.39.16-1.87.32-2.29l-.47-.08c-.09-.05.33-1.59.3-1.79-.04-.33-.29-.59-.28-.73.03-.27.46-.57.11-1.01l-.6-.02c.44-.46.03-.95.18-1.44.12-.39.57-.39.59-.42.03-.05-.41-.75-.31-1.08l1.61-.16.4.47.1-.32c.54.24.59-.02.98-.3l.15.77Z"/><path d="M169.51,22.63l-.15.62.46-.15c-.03.27.03.48.15.72.25.52.61.18.32,1.14h.62s-.31,1.39-.31,1.39h.62c.09.5-.57.93-.58.99-.05.29.14,1.91.15,2.45.04,1.18.23,2.32,0,3.49-.04.2.08.44-.04.65l.78-.07c-.04.73-.34.84-.78,1.31l.62-.15v.76s-.62.09-.62.09l.46.78c-.72.31-.23.94-.17,1.41.06.5.28,1.74.28,2.11s-.28,1.01-.27,1.26c0,.04.51.16.16.71l.62.08-.32.18c.27.73-.87,1.61.31,2.08v.22s-.61.39-.61.39v.23s.31.15.31.15l-.31.63.28.09-.12.35.31.09-.39.44.08,1.1.46-.15c.25.91-.27.86-.45,1.11-.07.1.13.36.12.52-.01.25-.3.43-.31.77,0,.28.28.19.32.33.05.16-.1.69.02,1.03.06.18.48,0,.13.61-.19.34-.4.11-.13.96l-.32.17.31.39c-.88.14-.08,1.18-.46,1.7h.62c-.01.38-.52.59-.55,1.02-.02.28.34,1.28.36,1.57.01.15-.32.88-.43,1.06.43.12.16.25.21.35.02.05.26.02.26.12,0,.2-.23.34-.28.59-.1.52.48,1.57-.19,1.73.81.33.26.75.23,1.08-.04.67.55,1.18.51,1.68-.03.35-.57.69-.3,1.16-1,.75-1.78.54-2.92.58l-.15-.56-.62.16c-.38-.76,0-1.5-.06-2.17-.02-.25-.26-.48-.25-.7,0-.3.37-.41.4-.61.02-.14-.12-.38-.08-.6.13-.8.63-1.03-.41-1.34l-.05-.86.29-.15-.31-.38c.48.02.12-.64.77-.47-.28-.72.58-2.13-.16-2.56l.15-.51-.45-.27c-.11-.34.65-1.11.6-1.7-.02-.2-.13-.72-.18-1.07-.07-.57-.46-1.04-.45-1.23.05-.65.98-.63.17-.93.06-.36.42-.59.43-.63.1-.55-.43-1.3-.45-1.85-.04-1.38.89-1.89.31-3.37-.08-.21-.62-.02.01-.73-.55.28-.35-.06-.77-.16-.06-.28.25-.1.31-.15.31-.33-.39-.24-.31-.46l.28-.02.34-2.61-.46.16.46-1.86h-.62c.46-.63.42-1.2.47-1.93l-.45-.1c.05-.38-.19-.96-.16-1.31.03-.29.26-.37.37-.61.19-.41-.19-.38-.22-.49-.08-.29.16-2.18.45-2.45-.64-.16-.83-.79-.75-1.39,0-.03.42-.46.42-.49.14-.83-.44-.8-.45-.9.46-.33.68-2.24.26-2.52-.14-.1-.64.03-.39-.69.07-.22.31-.31.39-.53.1-.26-.17-1.21-.07-1.4,1.01-.58.89-2.19,2.29-1.43Z"/></g></svg>