<?xml version="1.0" encoding="UTF-8"?>
<svg id="Layer_7" data-name="Layer 7" xmlns="http://www.w3.org/2000/svg" viewBox="0 0 841.56 611.91">
  <defs>
    <style>
      .cls-1 {
        fill: #fff;
      }
    </style>
  </defs>
  <polygon points="99.8 0 81.72 4.29 46.88 1.04 99.8 0"/>
  <g>
    <path d="M602.62,182.1c1.96,6.44-7.87,5.15-8.59,7.63-1.51,11.25,5.39,23.48.84,34.18-1.18,2.77-5.33,3.65-7.53,7.37-58.08,98.19-93.16,195.55-196.49,260.64-14.41,9.08-30.67,15.13-44.3,25.53-25.58,19.54-59.45,74.31-83.49,85.78-6.75,3.22-18.77,2.64-23.83-2.71-9.55-10.1,11.5-43.32,15.29-54.48,22.05-64.81,31.79-132.73,60.62-195.43,40.21-87.47,111.51-150.85,158.83-233.69l22.84,1.66c1.52-7.18-2.78-9.75-6.33-14.78,16.97-5.45,16.52,16.4,20.39,19.22,13.56,9.85,41.55-8.58,51.53-18.21,3.02-2.92,9.25-17.81,14.84-13.71-2.74,2.3-3.55,8.96-4.57,10.15-.32.37-5.92-2.7-7.19,4.5,2.32,7.39,4.73,11.33,1.15,19.18l-6.3-4.23,1.8,11.22c-1.85,7.58-8.85,1.12-8.25,6.82,1.12,10.61,9.75,9.04,15.96,15.82l3.14-4.21c-1.05,7.38,2.05,14.99,8.46,19.03,1.08-19.71,5.86-45.27,19.06-60.32-7.46-6.65-10.23-14.4-21.14-19.06.2-8.34,11.85,1.83,13.5,3.44,18.13,17.71,2.69,25.81-2.82,45.38-4.63,16.42-11.7,41.63,12.58,43.28ZM526.43,133.44c-28.29-2.08-51.74-34.66-54.98,12.67l14.82-19.03c5.02.15-.29,8.04-.07,10.54l-4.16-2.11-2.16,19.04-4.19-4.21c2.51,5.32-4.44,7-4.25,7.38,1.15,2.28,3.38,4,5.66,1.5l49.34-25.8ZM528.55,146.12c-8.84-1.63-8.07,7.7-10.46,9.71-2.2,1.85-6.53-1.82-9.32-1.05-3.05.84-7.6,13.57-16.94,10.28l-1.38,6.46-2.11-8.46-4.24,10.57-3.14-6.33c-4.47,2.64-1.03,6.65-2.29,10.38-2.83,8.42-10.41,10.34-7.27,21.34l-5.27-10.59-5.27,10.59-2.11-12.67-19.1,38.06-4.19-6.32c3.27,14.3-4.62,15.99-11.48,25.57-4.58,6.41-14.48,23.21-19.36,27.37-3.54,3.02-9.87-.68-12.7,4.19-1.27,2.17,1.04,5.7.27,8.54-.32,1.16-9.02,17.07-10.92,20.87-6.19,12.38-21.85,21.27-27.26,34.14-1.47,3.5-1.34,6.87-1.13,10.53l-4.19-2.14c-1.94,2.68-.19,9.16-.63,10.17-.18.42-2.85.65-3.54,1.96-7.42,14.2-18.61,28.7-19.15,45l-4.19-4.21-.04,12.69-4.19-2.13c.67,15.35-13.62,29.43-15.9,44.16-.33,2.12.61,8.59,4.21,6.61l11.65-16.91-6.32,14.8,5.27-4.21,7.39,12.68,4.41-11.51c-6.22-2.12-6.88-8.23-5.9-14.45,1.32-8.41,6.03-4.35,8.05-7.07,2.83-3.8-.6-8.56.31-10.86.22-.55,6.27-5.3,6.92-8.97l5.31,3.26,6.34-15.99,10.56,4.22-2.12-8.44,6.14-.18c-1.06-6.31,3.24-10.49,7.85-14.44,3.35-2.87,5.14-.43,5.04.84-6.68,2.98-5.61,10.17-6.86,12.7-3.63,7.3-12.08,15.06-15.49,22.14-2.07,4.3-1.65,10.19-2,10.74-2.79,4.36-11.4,1.5-18.36,17.47-2.5,5.74-9.99,21.1-11.22,24.86-1.52,4.63,1.93,4.13-1.42,10.77-4.72,9.37,4.25,7.14,4.65,4.48l2.06-4.74,2.16,14.8c8.2-3.41.34-12.63,2.12-19.03l6.29,10.56c3.31-9.84,14.26-15.96,12.75-27.48l4.18,4.21,2.16-14.79,3.14,4.21c5.18-3.94,6.46-6.66,3.19-12.67,4.5-.64,4.63-.17,4.25,4.22,3.72-6.03,15.58-15.24,18.88-20.38,2.32-3.62,5.96-13.91,8.93-18.4,4.53-6.84,15.93-25.52,20.83-30.02,3.68-3.37,1.07,4.08,3.18,3.19l18.13-22.08,12.61-8.55c-4.54,6.99-6.53,14.65-9.55,22.19-2.64,6.57-4.51-7.46-6.4-.05-.92,3.6-1.46,6.9-1.04,10.61l-3.14-6.33-3.2,10.58-8.43-2.13c.3,11.61-16.17,18.03-12.72,29.61l-8.45-2.08-.03,10.57-4.17-2.12c-3.53,10.26,1.34,21.2,2.06,31.73l-9.39.19-4.3,8.02-7.32-1.8-4.34,16.87c4.92-7.94,15.53-6.2,14.81-16.92l2.23,4.09c6.09-1.47,5.75-3.06,7.27-8.36l3.15,21.17-5.27-12.64-5.31,10.53-3.14-4.21c-2.71.76-20.29,14.32-10.62,14.79,3.22-1.81,2.71-11.39,9.53-2.14l-20.09,16.95-1.07-10.57c-4.47,1.52-6.57,6.16-6.37,10.6l-4.17-2.15-.04,8.47-4.1-7.24c-3.31-4.96-12.25,9.13-10.71,13.58l-4.19-4.21-.39,6.06-5.69.45-.32,10.4-5.3-2.14-1,10.61c8.11-6.16,15.4-13.75,23.82-19.54,23.67-16.29,54.89-30.07,77.59-47.26,30.39-23.01,48.94-60.28,76.47-84.35,11.46-10.02,52.32-81.81,60.07-98.64.94-2.03,3.12-6.56-.94-6.24-2.21,2.34-10.15,16.02-11.02,16.5-2.66,1.46-6.94-.63-9.72.86-1,.54-10.89,15.89-13.17,18.58l-4.18-6.32c-2.95,7.73-2.13,18.06.08,25.96.61,2.16,8.78,1.31.94,7.87l-7.37-27.48-11.56,17.09c.86,7.9-23.77,32.1-20.21,35.79l6.39,1.09c-3.39,4.38-.33,10.68-1.14,14-.19.77-4.97,13.77-5.39,14.44-.11.18-2.93-1.49-4.09-.76-3.06,1.92-5.33,10.31-10.56,11.45.3-6.82,10.57-12.99,12.21-18.45,1.42-4.74.43-12.13,2.56-17.52l-6.29,3.19c6.56-3.79,2.06-8.91,2.74-12.42,3.01-15.47,58.41-80.29,70.56-100.47,2.91-4.84,2.84-9.23,4.93-13.7,1.26-2.69,9.96-6.58,6.39-16.26l4.19,4.21c-.98-8.38,13.23-15.18,1.05-19.06l-3.12,4.24c-.89-4.23,5.72-14.6,0-16.91l-1.06,7.98-3.2-.58c-.04,4.7,1.6,11.77-4.2,13.75,1.44-7.43,3.47-18.05-4.23-23.27l2.07,25.38-2.12-16.92c-7.56,3.74-3.13,15.82-4.23,23.27l-4.18-14.79-.04,19.03c-8.87-4.38-5.49,8.02-10.54,10.57-4.72-21.67,15.07-38.03,20.5-56.7,1.32-4.54,2.56-13.48,2.84-18.36.13-2.3,1.15-5.91-2.18-5.32l-6.35,6.33-2.11-12.68-4.28,14.78c-5.61-.69,1.05-10.77,0-12.68-10.74.72-5.67-.37-8.73,4.42-2.56,4.01-4.9,10.19-10.3,8.25,6.84-8.72,11.41-18.05,10.57-29.59ZM566.04,155.25c-2.8-2.53-5.46-3.46-7.81.39,14.91,10.32,11.32,20.76,12.91,35.72.26,2.42.96,11.61,3.95,11.88.46-6.74,8.64-13,7.93-19.78-.42-4.05-13.65-25.19-16.99-28.21ZM587.78,224.4c5.1-10.87,5.09-16.64,1.5-27.94-.7-2.22-.52-6.4-3.56-5.9l-2.18,32.75,4.23,1.08ZM578.87,234.5l-3.74-24.9-2.16,21.16-3.87-1.79-6.71,25.05-4.19-6.33,2.07,14.8-6.31-8.45-.04,19.02h-2.07s-2.12-12.68-2.12-12.68c.32,4.7-1.84,16.83,3.16,19.02,2.06-11.58,14.84-16.08,18.11-26.45,2.02-6.38-.78-9.99.32-13.25.15-.43,7.39-4.77,7.53-5.2ZM385.28,271.55c5.59-8.52,18.58-21.25,23.21-32.91l2.64-22.68c-9.09,11.39-24.67,22-22.25,38.07l-3.14-8.44c-4.38,12.02-27.53,30.47-28.59,41.43-.35,3.62,1.88,7.04,1.47,10.04-.37,2.73-5.37,7.21-3.58,12.03l-6.39-1.27-3.36,5.5-5.04-2.16c-3.36,7.77-1.33,13.38-.03,21.18l-6.38-1.21c-.68,11.65-6.83,8.58-8.61,10.92-3.33,4.37-1.31,23.58-6.18,30.48l-4.18-12.68c-2.09,12.1-10.21,21.54-6.35,33.85,6.08-1.68,2.91-8.82,4.75-12.19.82-1.5,7.04-8.61,10.09-13.77,18.84-31.94,41.18-64.59,61.94-96.19ZM288.14,570.13c5.41-6.06,11.74-11.77,17.25-17.8l-1.17-8.37-2.1,6.35-6.31-2.14-.04,8.48-4.2-2.17-.03,6.42c-5.52-4.84-8.49,5.43-6.35,10.54l-6.32-2.11c.81,7.98-2.15,12.97-10.61,12.73,3.46,15.99,14.78-6.21,19.88-11.93Z"/>
    <path class="cls-1" d="M460.87,315.4c11.82-11.72,23.44-26.65,29.58-42.32-7.55,7.92-14.68,17.74-20.75,26.84-3.13,4.69-7.88,9.95-8.83,15.48Z"/>
    <path d="M460.87,315.4c.95-5.53,5.7-10.8,8.83-15.48,6.08-9.09,13.21-18.92,20.75-26.84-6.15,15.67-17.76,30.6-29.58,42.32Z"/>
  </g>
</svg>