<?xml version="1.0" encoding="UTF-8"?><svg id="Layer_2" xmlns="http://www.w3.org/2000/svg" viewBox="0 0 289.48 107.99"><g id="okra_soup"><path d="M110.53,60.13s.02,1,.01,1.09c-.04.44-.64.47.11.96l-.23.43.59.87c0,.52-.63.65-.76.81-.09.12-.16,1.8-.17,2.11-.02.54-.06,1.01-.07,1.58-.02.73.63,1.49-.5,1.48.29.35.27,1.43.13,1.8-.1.26-1.11.67-.32.87-.19.4-.23.98-.17,1.41.04.29.64.25.13.89-.45.56-.51.72-.82,1.18.25.54.21,1.26.2,1.91,0,.32-.32.23-.42.47-.15.36.05,1.73.57,1.78-.81.57-.1,1.37-.69,1.99l.52.09-1.78,6.66c-.32.45.26,1.18.22,1.23,0,.02-.23-.05-.35.12-.69.97-1.14,1.14-1.85,1.84-.14.14-.59,1.07-.75,1.23-.28.28-1.12.57-1.19.64-.03.03.14.2.09.29-.02.03-.34.26-.38.55h-.34c-.21-.59-1.19-.6-1.39,0-.28-.66-.49-.8-1.13-1.09-.13-.06-.32.06-.33.05-.05-.1.03-.39-.04-.57-.1-.24-.37-.21-.48-.44-.36-.75.12-1.26-1.05-1.15l-.17-.2.17-.59c-1.06.46-.83-1.19-.94-1.74-.04-.21-.31-.44-.35-.67-.04-.21.15-.64.08-.71-.04-.04-.34.06-.47-.05-.05-.04-.62-1.12-.64-1.19-.09-.35-.02-1.11-.18-1.55-.85.43-.38.85-.9,1.71-.82,1.36-.99,1.62-1.29,3.21-.19.98-1.35,1.45-1.97,2.55-.05.08.08.66-.31.81-.46.17-1.02-.37-1.25.39-.1-.49-1.04-.83-1.1-.91-.09-.13,0-.44-.03-.48-.04-.04-.81.28-1.17-.05-.52-.84-.04-1.69-1.26-1.69.34-.52-.17-1.07-.14-1.27.19-1.32-.24-1.01-.62-2.02-.12-.34.09-1.24.02-1.78s-1.06-1.76-.82-2.21l.52-.09c-.46-.29-.7-.52-.85-1.05l.51-.42-.87.17c-.1-.71.46-1.21.69-1.83-.48-.1-.26-.39-.36-.63-.07-.15-.47-.53-.47-.58-.03-.2.11-1.47.49-1.3,0-.38-.45-.18-.49-.21-.52-.48.39-1.61.31-2.21h-.87s.87-2.08.87-2.08l-.69-.47.35-.92h-.52c-.08-.08.18-1.8.13-2.14-.07-.41-.51-.53-.38-1.41.05-.32.58-.4-.27-.61l.34-.43c-.72-.22-.47-.98-.17-1.56l-.52-.09c-.07-.29.23-.11.32-.2.08-.09-.1-.36-.05-.5.39-1.15.16-.62.17-1.52.01-.68.31-1.31-.02-1.93l.65-.83c.12-.07.26-.06.39-.06.37,0,1.55.71,1.84.97.09.08.31,1.8.38,2.08.02.09.27.06.3.19.04.18-.21.64-.03,1.03.14.31.6.25.38.59-.02.03-.26-.05-.31.08-.03.07-.07,1.26-.05,1.4.04.33.3.23.41.47.19.4-.04,1.66.13,2.26.34,1.17.23,1.34.24,2.57,0,.49.61.96-.08,1.11.45.77.84,2.02.81,2.93,0,.2-.25.37-.21.64.05.37.42.31.44.34.06.1-.28.37-.28.6,0,.17.24.38.24.54-.02.47-.26,1.13-.21,1.55s.54.6.56.64c.04.1.05,1.16.22,1.42l-.35.19c.22.19.5.81.51,1.05,0,.07-1.07.49.36.77-.52.62-.11,1.18-.17,1.91h.7c.27.56-.35,1.2-.36,1.47,0,.04.55.19.36.61.26-.17.76-.28.94-.52.03-.03.27-.75.26-.79-.01-.1-.77-.28-.4-.78.23-.32.63-.38.84-.7.41-.62.01-1.45.96-1.81l-.34-.43c1.06-.49,1.31-2,1.75-3.03l-.36-.17c.31-.82,1.13-1.59,2.07-1.5v-.5c.97-.08,1.03.55,1.4.79.2.13.5-.12.52-.1.34.28-.3.8,0,.96l.7.09-.19,1.29.5.12c.22.67.13,1.01-.31,1.54l.69.18-.17.86h.52s-.52.87-.52.87l.69-.17.17,1.04-.52.09c.2.55.35.34.87.44-.05.33-.24,1.17-.14,1.44.12.34,1.12.64.66,1.5l.69-.17c.31.44.02,1.06.06,1.31.02.16.87.48.73,1.11.86-.26.69-.97.97-1.43.05-.08.56-.79.6-.83.13-.15.39,0,.51-.16.51-.68-.02-1.7.27-2.49l-.35-.19c0-.19.75-1.35.79-1.56.09-.53-.65-1.41.24-1.5l-.17-1.02-.52-.09c.23-.46.22-.86.87-.78v-.34s-.35-.17-.35-.17l.31-.08c-.36-.55.33-.51.39-.73.24-.88-.67-1.01-.68-1.18-.01-.15.47-1.03.85-.78-.27-.52.31-.71.18-1.45-.03-.18-.49-.01-.36-.37l.35.09v-.44s-.35-.17-.35-.17c.19-.54.64-1.81.66-2.28s-.11-.71-.04-1.53c.04-.53-.16-1.07.26-1.56l-.34-.25c1.17-.16.35-1.2.58-1.8s1.28-.99.46-1.75l.37-1.04c-.52-.09-.21-.95-.09-1.41.11-.43.51-.28-.27-.68.2-.17.35-.34.47-.57.23-.44.33-1.25.61-1.54.14-.15.37-.12.52-.23.3-.22.33-.59,1-.44.1.02,1.16.59,1.19.64Z"/><path d="M80.52,10.19c-.03.96.31.56.67.89.31.3.47,1.22.65,1.53.11.19.35-.06.44.08.4.64.33,1.18,0,1.81.85.12.75.72.94,1.18.02.04.23.03.25.12.09.5-.25,1.3-.5,1.73.76.25.4.7.57,1.18.22.62.75,1.09.32,1.79l.34.18-.17.69.34.16-.53.87.37.19-.2.83.36.18c-.68.7.13,1.44.13,2.12,0,.27-.39.77-.13,1.27l.52-.17-.33,1.65.77.43c.31-.81,1.18.5,2.08-.35.42.26.06.62.2,1,.08.22.37.13.42.47.05.42.03,1.35-.27,1.65-.2.2-.58.2-.8.43-.12.13.01.37-.02.41-.16.18-1.09.39-1.4.55-.2.11.07.52-.64.18-.12.56.2.53.53.79l-.36,1.11h.52c-.51.62.17,1.21.13,1.62s-.34,1.19.03,1.73c.11.17.35.11.36.12.06.09-.38.44-.43.67-.07.31.18.86.08,1.24h.69c-.66.91-.15.72-.01,1,.53,1.11-.34,1.27-.34,1.35-.01.66,1,.69.69,1.45l-.51.1c.76.44.29.77.36,1.21.03.22.22.37.25.54.12.66.09,2.03.27,2.55.05.16.21.14.34.12l-.35.26c-.12.38.31.18.35.37.09.41-.11.84-.09,1.2.03.58.14,1.34.45,1.72.06.63-.84.46-.36,1.48-.06.08-1.84.14-1.74.86-.72-.02-.93-1.04-1.08-1.17-.11-.1-.42.05-.48-.14-.08-.27,0-.91-.09-1.31-.43-1.86-.52-3.68-.98-5.56-.1-.42-.4-.82-.48-1.26l.43.26c.17-.09.42-.83.39-.97-.03-.17-.36-.19-.42-.28-.33-.57-.22-3.26-.24-4.04-.03-1.22-.85-1.55-.52-2.68h-.52s.35-1.04.35-1.04l-.35.09.19-1.02-.36-.19c.8-.8-.58-1.64-.35-2.69-.5.48-.57.18-1.12,0l-.1.51c-.65.41-1.4-.32-1.74-.25s-.86.55-1.32.57c-.43.02-.67-.47-.98-.45-.4.03-1.23.78-1.8.79-.29,0-.49-.25-.7-.27-.85-.06-1.43-.03-2.1.5-.19.33.33.66.32.93,0,.25-.34.43-.32.67.04.45.55.56-.2,1.24.87.19-.3,1.17.52,1.13l-.34.51.36.1c.03.66-.64.56-.71.71-.21.47,0,1.09-.07,1.46-.12.57-1.03,1.59-.1,1.98-1.45,2.08-1.1,4.94-2.86,6.8l-1.13-.3c-.07-.42.27-.8.31-1.17.19-1.7.38-3.5.55-5.35.05-.58-.4-.91.36-1.37l-.35-.17c.75-.67.34-.61.34-1.2,0-.11.31,0,.37-.35.15-.92-.31-.99-.32-1.05-.14-.79.16-2.37.22-3.3.02-.29.21-.51.21-.83,0-.61-.36-.33-.47-.4-.13-.07-.81-1.69-.82-1.85-.06-.96,1.07-.44,1.34-1.42l-.37-.34.54-2.58-.35-.11.69-.96-.69-.69c.89-.71.64-1.91.97-2.88.15-.43.53-.83.67-1.3.08-.27.18-1.44-.25-1.37.11-.3.7-.67.7-.72.01-.25-.21-.5-.15-.8s.57-.66.63-.95c.08-.42-.32-.65-.28-.96.01-.1.75-1.68.81-1.75.19-.21.49-.07.54-.11.05-.05-.39-.79.35-1.21l-.35-.17c.75-.04.66-.79.93-1.15.19-.27.73-.52.88-.75s-.2-.58.17-.87c.14-.11.83-.47,1.02-.55.93-.38,1.83-.39,2.78-.54.35-.05.74-.4,1.11-.44.51-.05.85.73,1.59.51ZM76.92,13.77c-.06-.05-.04-.21-.03-.3h-.17c.11.8-.71.67-1.03,1.14-.09.14-.63.96-.66,1.01-.05.11.17.54,0,.91-.16.35-.54.51-.68.86-.8,1.97-1.02,5.22-1.53,7.34-.14.58-.68,1.54-.75,1.86-.13.61.69,2-.18,2.38l.15,1.31c1.13.02,2.18-.58,3.19.01l.28-.88c.6.08,2.01.43,2.48.18.12-.06.11-.33.2-.33.27.01.81.3,1.07.31.08,0,.05-.3.19-.33.37-.08,1.08.07,1.39.32l.38-.26c-.1-.91-.16-1.81-.21-2.72-.02-.44-.37-.67.07-1.4l-.37-.19c.53-.61.02-.92.04-1.18.03-.37.61-.71-.03-1.26l-.52.1c-.16-.44.27-.86.3-1.15.03-.31-.25-.59-.24-.84,0-.22.33-.48.28-.68s-.5-.2-.53-.39c-.06-.29.2-1.06.09-1.52-.13-.55-.67-1.12-.6-1.83l-.34.18c-.13-.44.28-1.09.16-1.45-.08-.25-.46-.27-.58-.47-.27-.42-.06-.96-.88-1.03-.06,0-.35.77-.91.29Z"/><path d="M48.73,11.11c.06.02.04.21.14.24.55.14,1.58-.43,2.08-.49.74-.1,1.93.81,2.25,0,.43.23,1.46.62,1.89.52.15-.03.04-.49.55-.35.07.02.06.3.21.34,3.19.82,5.53,2.35,7.4,4.81.3.4.79.63.83.67.19.25.26,2.36.68,2.42-.32.48-.02.89-.04,1.34-.01.32-.55.6.03,1.08l-.36.17.4,1.07c-.21.5-.83.69-.88.79-.11.2.02.49-.03.7-.02.08-.72,1.05-.87,1.26-.6.85-.99.39-1.04.43-.1.1-.07,1.47-1.04,1.04.41.84-.76,1.36-1.41,1.8-.33.22-1.05.36-1.32.67-.35.4-.6.84-1.14,1.11-.21.11-1,.13-.99.31.04.21.61.8.75.9.16.11.48.02.64.14.2.14.09.49.28.63.24.17,1.02-.15.93.84l.52-.35c.07,1.03.86,2.15,1.91,1.91l-.17,1.04.69-.17c-.29.95.51,1.32.7,1.82.13.35,0,.89.03.93.07.09.4.08.46.3.06.23-.13.77.12,1.46.39,1.07.72.67.76.71.1.12.15,1.39.27,1.73.12.36.43.34.5.55.18.55-.49,1.77.81,1.52-.15.28,0,.59-.07.87-.1.34-.37.32-.41.38-.31.58.56.86.65,1.26.03.13-.26.04-.31.16-.03.07-.3,1.49-.3,1.57,0,.14.07.29.11.42l.67.19c-.56-.05-.31.55-.46.87-.26.55-.71,1.07-.92,1.66-.54.16-1.08-.19-1.49-.27-.2-.04-1.13.24-1.11-.27,0-.19.57-.16.52-.43h-.69c-.12-.36.28-.61.31-.82.04-.24-.25-.51-.25-.83,0-.35.3-.62.3-.86,0-.08-.84-.49,0-1.19l-.7-3.23-.69.17v-1.04s.52-.09.52-.09c-.09-.69-.78-.81-.96-1.21-.17-.37.2-.75.21-1.04.02-.86-.88-.91-1.08-1.31-.09-.19-.28-1.14-.5-1.55-.09-.17-.39-.76-.47-.82-.06-.05-.51.09-.63-.08-.48-.69.16-.87-1.12-1.71-.69-.45-1.72-1.12-2.57-1.81-.36-.29-.83-.11-.69-.79-.48.69-1.07-.3-1.47-.14-.1.04-.06.3-.2.32-.07.01-1.27.02-1.33,0-.17-.03-.03-.54-.46-.35.34.74-.41,2.19.69,2.08.06.34-.5.77-.51.82-.33,1.29.28,2.44,0,3.69l.53.09-.33,2.26c.82.32-.17,1.07.52,1.54l-.55,1.23.53.68c-.83.64-.86,2.66.17,3.12-.57.31-.95,2.14-1.24,2.33-.1.06-.37-.15-.55-.11-.22.05-.41.38-.71.3-.38-.11-1.36-2.46-1.32-3.04.02-.34.73-.28,0-1.2.88-.35.5-1.15-.34-.96l.51-1.83c-.86-.33-.32-.72-.32-1.38,0-.8.01-.8.1-1.53.08-.63-.44-1.39-.42-1.97.02-.47.74-1.43.47-2.13l-.34.17c-.27-.49.14-.75.17-1.13.04-.69-.76-2.02,0-2.25l-.52-.27.69-.81c.12-.49-.51-.88-.51-1.18,0-.27.29-.51.31-.73.03-.27-.32-.61-.33-1.02,0-.29.91-.48.02-.86.64-.42.16-.91.17-1.4.03-.76-.03-1.76,0-2.41.02-.31.4-1,.34-1.37-.03-.15-.88-.3-.43-.99.11-.16,1.02-.26.11-.58.19-.47.42-1.24-.19-1.4.73-.5.1-.89.07-1.22-.07-.68.63-1.97.64-2.43.02-.65-.56-.92-.04-1.73l-.32-.34c.79-.48.22-.84.26-1.4.02-.24.24-1.47.3-1.69.11-.4.44-.73.49-1.16.33.04.65.14.97.24ZM51.87,14.28c-.5.28-.69-.4-1-.54-.29-.13-1.32.18-1.74-.1-.17.4.26.76.29.98.04.28-.19.62-.12,1,.04.27.35.48.35.71,0,.24-.32.44-.35.7-.06.53.7.97,0,1.55l.51.09c.19.89-.49,1.17-.34,2.08l.34-.18c-.26.6.33.72.33.77-.02.39-.25.77-.68.62v.52s.69,0,.69,0c-.09.33-.49.63-.52.96-.09,1.14.31,2.58.3,3.6,0,.57-.52,1.37-.24,2.12l.2.21c.84-.19,1.4.2,2.32-.07.24-.07,1.82-.55,1.9-.61.13-.09.07-.46.33-.67.35-.29,1.63-.37,2.09-.74l.37-.91c1.17.09.8-.48,1.1-.74.19-.16.76-.07,1.08-.39.06-.06.88-1.2.97-1.34.11-.17-.02-.46.15-.66.23-.28.83-.47,1.05-.86l-.52-.17.7-1.22c.1-.28-.28-.23-.32-.34-.09-.25.25-1.14.15-1.53-.06-.24-.73-.13-.36-.81l-.34.18c.11-1.18-1.08-1.16-1.34-1.44-.14-.14-.55-1.08-.6-1.13-.2-.17-.76-.02-.93-.08-.08-.03-.07-.22-.22-.28-1.18-.47-2.41-.77-3.42-1.58l-.09.52c-.74.08-1.14-.66-1.97-.51-.13.02-.1.26-.14.29Z"/><path d="M14.74,10.23c.11.08.2.46.31.46l.43-.34v.87s.35-.52.35-.52c.52.13.42.71.62,1.03.63.97,1.61,1.91,1.63,3.13l.44-.02c.19.32.2,1.42.3,1.65.11.24.38.22.44.31s-.17,1.07-.11,1.25c.07.23.4.24.45.32.12.22.05,1.09.12,1.36.1.38,1.23,1.11.62,1.98l.34.17c-.67,1.12.7,2.04.19,3.05l.5.02c-.19.54.35.73.37.8.12.51-.23,1.01-.14,1.48.05.28.54,1.69.83,1.77l-.52,1.48.65.26c-.23.53-.1,1.26-.17,1.69-.06.36-.72,1.42-.39,1.87.09.13.37.14.41.19.05.07.04,1.62,0,1.69-.09.16-1.28.72.03.98-.35.51-.73.7-.94,1.32-.11.31.18.69-.27.94l.36.18c.04.66-.61.94-.85,1.42-.23.45,0,1.15-.55,1.51.87.55-.03.8-.29,1.12-.21.27-.55,1.15-.75,1.52-.5.96-.11,1.07-.2,1.51-.06.27-.55.2-.64.31-.1.11-.53,1.68-.72,1.93-.1.14-1.08.48-1.33.81l.2.52c-1.14,1.04-1.93,1.81-3.57,1.38.23,1.35-.87.24-1.68.19-.36-.02-1.35.24-1.44.15-.04-.04.08-.34-.11-.52-.38-.36-1.25-.24-1.63-.42-.18-.09-1.05-1.26-1.26-1.43-.58-.47-.33.01-.99-.83-.34-.44-1.04-.87-.7-1.48-1.18.41-.54-.78-.78-1.22-.21-.39-.49.27-.61.17l-.34-2.66-.53-.11.35-1.04h-.52c.28-.89-.33-1.8-.45-2.6s.14-1.71-.24-2.48c-.05-.1-.31-.08-.35-.24-.02-.07-.01-1.43,0-1.5.04-.13.33-.11.33-.18-.02-.37-.43-.94-.16-1.48l-.52-.09c.39-.63.58-1.15.84-1.75l-.33-.33c.61-.5.02-1.2.54-1.91l-.52-.51c0-.51.54-.95.64-1.26.5-1.55.55-3.38.75-4.96.05-.38,1.7-4.49,1.95-4.92.1-.17.55-.31.72-.76.13-.37.78-2.83.88-2.95.25-.27.49,0,.83-.7.6-1.24.29-2.15,1.56-3.4.53-.52,1.12-.36,1.29-.43.07-.03.95-.76,1.19-.82.86-.22.69.06,1.11.24.66.28,1.16.22,2.02.83ZM13.17,13.01c-.22-.17-1.25-.87-1.41-.87-.07,0-1.2.64-1.25.69-.09.09-.06.32-.16.45-.23.3-.57,0-.24.71-.96-.12-.64.8-.79,1.2-.13.37-.45.65-.57,1.19-.06.27.13.58.05.74-.05.1-.6.3-.69.69-.05.21.17.31.17.43,0,.64-1.12,2-1.38,2.71-.11.32-.27,1.18-.12,1.47l-.32.08.3.2-.99,2.33.33.32c-.18.21-.46.38-.6.62-.19.32-.4,2.35-.42,2.86,0,.09.31.06.33.18.12.54-.39.88-.5,1.36-.29,1.24.03,3.91-.11,5.45-.02.24-.22.39-.27.61l.53.36-.35.6h.52c-.67.8.07,1.43.25,2.07.12.43-.14,1.06-.03,1.61.05.23.37.5.31.83l.34-.17c.26.36-.04.77,0,1.1,0,.07.68.41.35,1.15l.52-.17c-.2.62.84,2.9,1.24,3.09.11.05.47-.25.65-.13.2.87.92,1.12,1.49,1.55.33.25.97.96,1.21,1.02.6.13.61-.41,1.14-.33l-.35-.52c.72.04,1.32-.18,1.82-.7.44-.46,1.54-1.81,1.31-2.41l.68-.2c-.14-.33.05-1.42.53-1.38l-.34-.25.51-1.54.53-.11c-.72-1,.53-1.54.67-2.03s-.42-.8-.23-1.28c.17-.44.67-.88.94-1.29l-.52-.17c-.1-.64.95-1.82.84-2.08-.08-.17-.42-.15-.47-.36-.09-.35.45-1.04.46-1.34,0-.26-.22-.63-.25-.95-.13-1.41-.5-2.85-.67-4.37-.06-.53.2-2.37-.24-2.7l-.52.1.35-1.04h-.7c-.24-.61.35-.67.37-.95.04-.85-.47-.93-.5-1.05-.04-.14.07-.76.13-.95l-.44.12-.24-.22c.09-.67.07-1.42-.17-2.06-.31-.84-.6-2.1-.83-2.64-.09-.21-.38-.2-.41-.34-.07-.36.17-.97.09-1.1-.1-.17-.7-.36-.94-.8s0-.71-.03-.74c-.04-.05-.68-.46-.92-.64Z"/><path d="M28.14,9.83l-.08.35.42.17v.34s-.35.09-.35.09c.56.73.47,1.54.17,2.34l.52.1c-.58,1,.04,2.03-.06,2.92-.05.51-.91,1.03-.12,1.23l-.35.53.36.19c-.43,1.18.28,2.12-.38,3.28-.08.27.37.25.37.35.01.39-.47,1.37-.36,1.86.05.2.51.23.53.38,0,.05-.35.46-.36.88,0,.34.4.17.38.51-.02.36-1.23,2.45-.02,1.83.05.48.02.84-.52.87.4.44.21,1.15.17,1.73l.67-.2.03-.67.51.16c.19-.62.68-.73.26-1.38.64-.7,2.51-1.36,1.66-2.42.31-.12,1.01-.41,1.21-.62.72-.74,1.07-2.01,1.83-2.68.34-.3,1.14-.15.43-1.03l.87-.1c.39-.29.16-.72.19-.75.11-.11.54-.09.71-.2.22-.15.29-.54.66-.52l-.35-.6c.04-.15,1.09-.58,1.22-.73.34-.39.34-1.11,1.03-1.36l-.35-.6,1.02-.02.02-1.19.68.16c.05-.42.49-.71.63-1.04.09-.2-.09-.46-.07-.49.09-.13,1.54-.39,1.63-1.06.24,0,.87.81.92.99.14.52-.24,1.19.38,1.35-.26.26-.55.5-.73.83-.43.79-1.03,2.48-1.51,3.14-.17.23-1.35,1-1.74,1.4-.94.96-1.99,2.82-2.98,3.45-.32.21-.62-.08-.37.41l-1.44,1.43.27.51-1.39.35.18.93c-.29.17-.9.43-1.12.64-.52.49-.68,1.39-1.33,1.95-.15.13-.45.13-.59.28-.07.08.02.38-.08.58-.08.16-.57.08-.32.62.89.14.68.97.85,1.23.03.04.3-.33.69.43.17.34.75,1.96.85,2.06.39.37.96,0,.36,1.16.87,0,.6.52.88.94.41.61.98.83,1.28,1.83.05.17-.12.46-.07.52.06.08.54.04.71.3s.1.69.32,1.02c.56.83.36.19.84,1.41s.97.62,1.22.76c.32.18.47,1.79,1.4,1.73l-.18.74c.51.32.8.46.71,1.16l.52-.18c.02.65.71,1.57.69,2.15-.03.83-.62,1.49-.95,2.19-.63-.38-1.35-.46-2.01-.77-.92-.44-.4-.75-.61-1.27-.09-.21-.39-.27-.54-.51-.29-.49-.4-1.01-.65-1.43l-.43.34c-.44-.49-.16-.65-.27-1.03-.09-.33-.42-.42-.54-.57-.13-.17-.03-.9-.93-.47l.17-1.11c-.63-.49-.47-1.16-1.48-1.14.15-.93-.23-.67-.5-1.06-.46-.65-.62-1.23-.91-1.85-.14-.3-.71-.33-.58-.91l-.17.35c-.2.17-1.02-1.16-.17-1.3-.11-.28-.58-.55-.64-.66-.05-.08-.33-.64-.35-.68-.05-.11.46-.53-.39-.13-.14-1.2-.63-2.29-1.3-3.3-.64.57-.14.79-.11,1.16.02.23-.29.37-.28.64,0,.36.45.92.47,1.03.05.5-.45.77-.46.91-.02.19.4.49.45.74.08.34-.37.52.2.64l-.19.6-.67.11.31.11c0,.17-.12.95-.09.99.08.11.44.05.49.46.07.47-.46,1.1-.45,1.55.01.77.43,2.05.45,2.61.01.41-.31.89-.54,1.22l.34.16c-.26.66-.49,1.22-.44,1.92.03.4.52.69-.07,1.22l.69.51-.64,1.48c-1.16.44-1.97,0-3.01-.44l-.26-1.14.44-.6c-.67-.19-.23-.99-.35-1.53-.79-.27.53-1.89-.35-2.11.73-.52.47-1.52-.18-1.91.51-.03.57-1.76.48-2.08-.03-.13-.36,0-.3-.32.1-.46.62-.57.68-.76.34-1.13-.17-1.9-.52-2.92l.35-.5-.32-.11c.38-.71-.32-1.05-.02-1.75.06-.14.31-.13.31-.21,0-1.37.18-1.75-.33-2.82-.25-.53.1-1.21.36-1.71-.31-.28-.21-.48-.24-.55-.02-.05-.46-.03-.28-.47.07-.18.48-.19.53-.38.12-.5-.25-.83-.28-1.18,0-.04,0-.59,0-.69,0-.46.64-.4-.25-.9-.15-.6.54-1.09.35-1.84-.04-.15-.37-.04-.35-.36.03-.44.38-.83.53-1.23l-.52-.09c-.06-.36.34-.95.34-1.13,0-.26-.39-.47-.35-.85.03-.31.35-.49.43-.77.15-.51-.23-1.09-.21-1.29.03-.32.58-1.21.59-1.43,0-.16-.2-.34-.23-.54-.04-.28-.2-1.16-.15-1.37.38-1.41.64-2.83.99-4.32.2-.83-.12-.63.77-1.31l1.11.18Z"/><path d="M136.16,14.22c.45.18.29.78.44.94.05.05,1.05.71,1.11.72.22.03.41-.3.5-.3.36-.01.6,1.4.88,1.7.31.34,1.28.92,1.51,1.43.19.43.11,1.06.3,1.52l.52-.35.19,1.55.5.11c-.47.73.34,1.15.35,1.22.02.62.15.81.18,1.2.03.44-.33.99,0,1.53.06.1,1.08.28.61.98-.23.34-.45-.04-.51,1.03-.05.82.65.8.75,1.17.16.56-.56.81.36,1.18l-.48.87.84.54c.04.58.03,1.01-.36,1.45h.35s-.35.43-.35.43l.35.17v.35c-.97.4-.33.83-.26,1.39.01.1-.21.24-.16.57.07.43.74.46.33,1.08-.16.25-1.06.14.09.77-.29.45-.3.76-.14,1.28l.49.11-.69,1.04.32.16c-.17.96.37,2.75-1.02,2.87.6.88-1,2.31,0,2.86-.2.49-.87.46-1.03.71-.14.22-.38,1.82-.58,2.37-.1.27-.5,1.24-.61,1.47-.31.66-.97,1.28-1.13,2.08-1.69.48-3.7.66-4.9-.82l-.43.34-.87-1.31-.69.27-.17-1.04h-.7c.45-.94-.94-1.32-1.05-1.5-.26-.4-.4-1.43-.53-1.86-.08-.27-.5-.34-.68-.54s-.13-.83-.21-1.05c-.04-.1-.3-.08-.31-.19-.05-.37.32-.65.34-1.01.03-.58-.53-1.28-.15-1.91l-.33-.18.16-.44h-.52c.52-.93.4-1.86.41-2.84,0-.18.21-.37.21-.54,0-.39-.42-.79-.37-1.15.06-.42.5-.7.46-1.29-.02-.32-.32-.25-.33-.28-.07-.19.43-.42-.21-.58l.83-1.07-.33-.85.36-.69-.52-.51c.72-.68.22-1.34.38-1.88.07-.25.45-.41.48-.58.03-.19-.25-.36-.27-.5-.02-.17.46-.88.3-1.29h.5c-.66-.67-.07-.7.07-1.21s-.05-1.19.23-1.88c.1-.24.38-.21.38-.29-.01-.26-.36-.9-.24-1.15s.56-.31.59-.35c.03-.04-.18-.36-.15-.58.05-.33.39-.82.44-1.25.04-.31-.11-1.03-.07-1.18.08-.23.4-.22.46-.31.1-.15-.12-.43-.04-.66.16-.5.66-.97.74-1.17.2-.47.25-1.93.34-2.04.33-.37,1.16-.25,1.07-1.11l1.67.23ZM136.34,19.25c-.58-.6-.8-.29-1.46-.02-.08.65-.41,1.41-.53,1.99-.52,2.66-.58,5.08-.93,7.74-.14,1.06-.25,2.2-.43,3.24-.06.34-.45,1.15-.42,1.45.01.11,1.15.43,0,1.05l.53.7c.08.35-.52.36-.55.54-.03.21.2.56.2.85,0,.76-.55,1.75.33,2.08l-.02.41c-.96.19.02,1.79.03,2.38,0,.36-.28.55-.29.67s.53,2.22.58,2.35c.31.7,1.36,1.1,1.17,2.08h.42s.02.52.02.52l.34-.17.18,1.03.59-.19c.22.78.74-.33.71.8,0,.12-.55.6.17.6.07,0,.65-1.02.84-1.17.11-.09.38-.01.45-.06.05-.03-.02-.8.19-1.03l-.69-.09c.35-.75,1.72-2.34,1.66-3.13-.02-.23-.27-.47-.27-.51.01-.18.83-.06.93-1.16.05-.5-.15-1.37-.05-1.93.09-.53.24-1.04.51-1.5h-.51s-.02-.59-.02-.59l.35-.11-.3-.2c-.18-.48.48-.69.49-.76,0-.19-.24-.53-.26-.86-.05-.82.28-1.44.26-2.24l-.53-.1c.16-1.08.5-2.4-.52-3.03.36-.57.61-.83.49-1.56-.07-.42-.3-2.1-.34-2.23-.08-.23-.4-.19-.49-.41-.22-.58-.12-1.84,0-2.47l-.69.17c-.09-.34.31-.72.34-.96,0-.07-.27-.07-.33-.21-.14-.32-.04-.79-.11-.92-.16-.28-1.3-1.41-1.41-1.6-.15-.24-.29-1.1-.62-1.45Z"/><path d="M151.43,14.39c.65.46.48,1.17.59,1.76.08.46.63.67-.19,1.05.61.83.34,1.15.36,1.9.04,1.68-.18,3.32,0,5.03.04.39-.42.52.18.7v.33s-.53.52-.53.52l.52.09c.02.52-.39.75-.37,1.3,0,.18.5.39.37,1.2-.05.32-.55,1.1-.6,1.75-.08.89.27,1.03.28,1.2.03.6-.41,1.39-.29,2.35s.63,1.38.61,1.46c-.03.14-.32.35-.34.7-.03.52.53,1.02-.18,1.21l.02.25.34.09v.35c-1,.37-.1.84-.51,1.57l.34.16-.37.86c1.02.51.63,1.7.71,2.41.01.13.29.1.39.32.3.64.43,1.96.8,2.87.18.45.38.92.36,1.42l.52-.18.9,1.88c1.63.12,1.3-2.11,1.84-3.21.29-.59.98-.47.83-1.35-.08-.46-.25-.51.04-1.06.61-1.15.83-.51.9-.58.12-.12.16-2.15.19-2.5.06-.62.02-1.12.07-1.58.11-1.01.6-2.11.79-3.11l-.53-.18c-.07-.76.48-1.56.47-2.28,0-.39-.29-.7-.28-1.01.01-.33.6-.97.61-1.38.02-.67-.86-1.93-.45-2.69l-.52-.09.83-.81c-.33-.6.23-1.38.23-1.78,0-.08-.8-.49-.36-1.31-.8.15-.76-.77,0-.79-.04-.54-.19-1.06-.29-1.59-.06-.31.36-.5-.25-.67l.7-1.56-.52-.35c.77-.99.12-1.94.73-3,.48.25,1.42-.92,1.59-.88,1.04.47,1.21,1.74,2.02,2.32l-.67.69c0,.42.39.97.45,1.27.06.32-.14.76-.09.99.01.07.86.71-.38.78,1.09,1.17.34,1.2.25,1.99-.06.57.18,1.72.2,2.25.01.36-.82,1.14.24,1.3l-.36.77.36.17c-.22.27-.36.62-.46.96-.12.4.34.78-.24.7l.51.42-.69,1.23.71.86c-.37.45-.16,1.14-.27,1.48-.11.31-.51.58-.45.94.01.07,1.33.77.03.8.33.99-.39,1.84.11,2.72.12.21.41.23.4.3,0,.06-.34,1.07-.38,1.11-.1.09-.43-.07-.49.13-.15.47-.23,2.43.36,2.58-.51.34-.7.93-1.04,1.35-.13.17-.34.11-.34.13-.06.11.28.26.29.43,0,.07-.25,1.18-.29,1.35-.02.08-.84,1-.92,1.2-.23.58-.11,1.23-.49,1.76-.42.59-1.34.69-.5,1.67l-1.02.2-.19,1.28c-.47.24-.98.4-1.45.65-.23.12-.27.45-.42.48-.24.06-.57-.06-.82,0-.34.09-.76.53-1.11.31-.08-.05-.09-.34-.2-.41-.14-.09-1.19-.13-1.31-.23-.22-.19-.27-.63-.5-.9s-.73-.4-.88-.69c-.1-.2-.04-.53-.12-.65-.1-.14-.53-.08-.68-.32-.25-.4-.44-1.81-.59-2.33l-.78-.16.15-.79-.34-.18c.18-.37,0-1.98-.21-2.28s-.86-.14-.13-1c-.25-.38-.52-.25-.86-.08-.39-.78.22-1.23.31-1.99s-.57-1.46-.13-2.17h-.52c-.08-.05.18-1.59.18-1.82,0-.43-.26-.82-.27-1.22-.02-.83.63-2.05.56-2.75-.02-.23-.26-.5-.3-.88-.09-.84.51-1.6-.51-1.74.52-.76,1.19-1.16.17-1.82.96-.19.45-1.77.52-2.33.07-.62.92-1.16.69-2.06-.05-.18-.16,0-.27-.83-.15-1.12-.03-.68.08-1.15.22-.89.22-1.84.54-2.72l-.36-.21c.34-.46-.11-.89-.08-1.11.05-.39,1.55-3.73,1.75-3.79.22.04.53.08.71.21Z"/><path d="M177.17,13.45c.15.14.69-.18.86-.08.12.07.17.39.35.51.27.18.85.18,1.27.47.32.22.4.57.58.68.22.14.64.1.74.18.02.02-.16.29.02.57.19.3,1.14.99,1.3,1.33s-.45.56.6.69c-.51.8,0,.78.18,1.56l.52-.18c-.02.79-.14,1.34.18,2.08l.86-.17c.22.51-.27,1.08-.26,1.4,0,.42.35.88.43,1.3s-.08.96.01,1.35c.03.13.35.12.35.19-.02.25-.49.72-.48,1.02,0,.21.37.5.13.8h.7s-.52.96-.52.96l.35.17c-.23.83-1.64,1.29-.52,1.74l-1.2,1.05.34.51c-.6.31-.98.93-1.47,1.31-.22.17-.58.12-.77.27-.25.19-.99,1.2-1.17,1.25-.42.13-1.87.19-2.2.37-.2.1-.05.42-.22.54-.26.19-.83.1-1.16.2-.24.07-.37.39-.55.41-.99.14-2.83-.12-3.75-.02-.14.01-1.29.26-1.35.3-.23.15-1.21,2.21-.38,2.31l-.52.52.35.17c.01.06-.9.2,0,.52-.29.34-.52,1.33-.5,1.75.02.31.28.51.29.71.01.16-.44.91-.31,1.27l.52.1c.1.74-.53,1.62-.54,2.07s.45.87.35,1.2c-.07.22-.49.22-.53.39-.05.26.18.58.17.85,0,.2-.23.36-.24.51-.03.37.19.79-.09,1.21l.52.09-.36.95.35.26c-.69,0-.29.59-.38.91-.15.51-.78,1.15-1.35.82l-.09.52-1.63-.71c.27-.69-.63-1.72-.64-2.16,0-.19.25-.39.25-.56.03-.73-.07-1.62-.06-2.29,0-.53.51-1.31-.08-1.83l.69-.26c-1.04-.59-.13-1.15-.07-1.64.03-.29-.26-.67-.22-1.01s.48-.85.48-1.43c0-.34-.34-.06-.36-.67-.02-.8.41-1.04.49-1.44.06-.28-.16-.54-.12-.81.05-.41.44-1.48.44-1.58,0-.16-.41-.56-.42-.9,0-.24.31-.47.33-.84.01-.31-.3-.24-.33-.34-.03-.09,0-1.77.04-1.91.14-.61,1.32-1.33.09-1.65l.35-.43-.35-.17c.81-.33.74-1.78.8-2.63.02-.32-.18-.67-.11-.99.06-.28.17.3.17-.72,0-.97-.04-.38-.13-.69-.08-.27-.13-.95.31-.79l-.36-.26c.52-.75.06-1.1.1-1.67.04-.61.76-1.6.76-2.14,0-.31-.27-.62-.26-.87,0-.2.26-.43.27-.71.03-.92-.55-1.74-.51-2.22.05-.52.75-1.36.84-1.8.07-.35-.17-.63-.06-.9.49-1.27,2.01-.18,2.17-.35v-.7c.48,0,.95.28,1.45.17.12-.03.12-.28.15-.29.11-.04.28.11.48.04.16-.06.28-.38.44-.39.09,0,1.01.53,1.57.44.06,0,.3-.6.95-.32l-.09-.35c.68-.09.74.8.79.85ZM174.9,15.89c-.47.6-1.46-.35-2.13-.18-.2.05-.16.43-.4.5-.35.1-.33-.55-.57.49-.19.85.06,1.98.11,2.79.02.3-.11.59-.09.9.02.28.25.53.22.72-.06.37-.49.26-.45.58.05.41.44.64.46,1.05.04.58-.5,1.06-.46,1.65l.52.09c-.04.32-.6.89-.63,1.04-.05.34.38,1.02.38,1.39,0,.44-.51,1.78-.58,2.29s.08,1.07-.21,1.52l.39.08c.54.44-.39.67-.41.8-.04.27.65,1.24.83,1.28.73.16.91-.27,1.21-.31.11-.02.88.4,1.46.22.38-.12.57-.56.92-.58.3-.02.76.28,1.14.16l-.17-.69,1.13.33c.46-.49.74-1.2,1.51-1.03.33-.51.91-.39,1.27-.93.48-.71.68-1.71,1.12-2.45l-.35-.16c.61-1.61.29-3.41-.35-4.98-.08-.19-.37-.19-.47-.41-.12-.29-.05-1.19-.2-1.55-.06-.15-.65-.66-.76-.72-.09-.04-.29.13-.3.12-.12-.13.02-.92-.08-1.04-.15-.18-.51-.17-.71-.35-.25-.23-.07-.55-.14-.66-.04-.06-.27-.09-.35-.2s.03-.31-.1-.43c-.09-.08-.77-.1-.98-.26-.17-.13-.2-.44-.29-.5-.1-.08-1.65.2-1.53-.55Z"/><path d="M122.23,10.81c.68.51,1.4.41.78,1.76-1.42.34-3.06-.15-4.41.54-.33.17-1.74,1.4-1.98,1.7-.44.54-.09,1.15-1.03,1.51l.34.43-1.02.2c.2.78-.39,1.03-.53,1.33-.19.42-1.1,2.09-.37,1.94l-.35.17c.87.86-.09,1.23-.14,1.68s.12,1.33.1,1.9c-.01.35-.35.82-.21,1.47.08.34.35.26.41.45.17.52.37,2.16.58,2.42.07.09.31.09.39.22l.17-.36.61.27v.6c.39.18,1.15-.07,1.43,0,.06.01.68.52,1.05.73.52.29.31.68,1.06.15.15.07.59.82.64.83.15.05.47-.24.64-.12.06.04.09.39.36.57.42.28,1.54-.08,1.22.97l.26-.35c.47.71,2.2,1.02,1.82,1.91l.59-.16.27.26-.16.67.85.37c-.37,1.11.12.84.33,1.15.08.12-.1.6,0,.93.08.28.54.42.62.76.05.23-.09.43-.07.58.02.13.3.1.34.24.23.75-.1,3.64-.11,4.67,0,.22.23.39.23.49,0,.36-.68.66.07.86-.11.14-.35.27-.41.43-.49,1.29-.62,2.52-1.49,3.74-.11.16-.43.2-.53.37-.16.27-.09.73-.2.89-.17.24-.94.05-.82,1.17l-1.56.27.16.33c-.11.15-1.66.39-1.92.46-.43.13-.52.54-.68.64-.07.04-1.47.53-1.55.55-.18.04-.95-.34-1.63-.2-.55.11-1.05.54-1.41.56-.75.04-1.36-.72-2.27-.65-.42.03-.11.4-.42.36-.05-.68-1.51-.88-1.86-1.25-.16-.17-.04-.62-.21-.92-.23-.39-.82-.79-1.11-1.14-.22-.26-.08-.81-.63-.5v-.57c-.42-.08-.41-1.56-.53-1.68h-.69c-.07-.07.19-1.69.15-1.97-.05-.37-1.03-1.17-.15-1.16l-.32-.19.67-2.32-.36-.17,1.65-1.12c.11.25.85.92.91,1.07.08.19-.15.46-.13.73.03.46.6,1.52.65,1.76.07.41-.52.66.39.59-.11.32-.14.66-.04.98.18.58.94,1.79,1.05,2.26.07.32-.15.6-.11.71.13.4,1.88.69,2.14,1.41l.34-.5,1.82.51v-.52s1.39.52,1.39.52v-.52s1.39.17,1.39.17l.09-.52c.6-.13.46.12.78.35l.11-.53h.59s-.17-.68-.17-.68c.41-.12,1.32-.14,1.51-.56.04-.09-.14-.31-.04-.48.34-.53,1.36-.79,1.41-.86.06-.09.27-1.7.37-2.06.31-1.19.06-.48.04-1.33-.01-.52.4-1.18.35-1.9-.03-.45-.13-1.23-.18-1.74-.06-.56-.62-1.08-.8-1.63-.11-.34-.08-1.19-.28-1.38-.07-.07-.31-.02-.4-.1-.92-.84-.89-.96-1.98-1.42-.43-.18-.31-.82-1.04-.32-.28-.13-.56-1.1-1.01-1.3s-1.01-.18-1.55-.5c-.68-.4-.05-.31-1.15-.57-.94-.23-.49-.03-1.03-.02-.15,0-2.2-1.37-2.36-1.64-.23-.39.02-.29-.43-.94-.34-.5-.22-.98-1.15-.86.39-.73-.02-1.09-.16-1.67-.12-.48-.5-1.91-.51-2.22-.02-.99.73-2.23.82-3.32.04-.45.25-1.58-.32-1.47v-.17c.24-.02.48-.14.6-.35.21-.34.87-2.61.63-3.04l.31-.16-.14-.42c.93-.35,1.65-1.51,2-2.36.14-.33-.34-.37.38-.94.89-.7,1.94-.91,2.68-1.39.34-.22.93-1.1,1.43-1.22l.09.34.42-.48c.81.19,1.66.32,2.49.44.22.03.47-.12.63-.09.31.06.33.46.51.6Z"/><path d="M77.38,59.45c.07.05.69.79.74.92.1.25.34,1.51-.18,1.3l.86.69c-.52.38-1.33.21-1.81.51-.14.09.08.29-.08.44-.57.54-.81-.08-1.11-.05-.51.04-1.46.47-1.96.6-.42.1-.97-.16-1.54.42l-.5-.35c-.34.32-1.46.96-1.89.85-.14-.03-.07-.49-.54-.35-.78.61.04,1.34,0,1.75-.05.52-.93,1.35-.11,1.63l-.15.44.52.09c-.58.76-.59,1.48-.6,2.44-.01.88-.13,1.26-.19,2.06-.03.38.23.8.15,1.29-.06.39-.52.49-.58.89.58-.19,1.71.23,2.13.14.26-.05.71-.54,1.05-.69.58-.26,1.09-.15,1.58-.67l1.33.78c-.03.29.32,1.11.32,1.22,0,.29-.53,1.04-.17,1.64-.69-.18-.98.7-1.39.79-.21.05-.33-.2-.42-.18-.71.13-1.54.9-2.48,1.09-.35.07-1.71.08-1.79.13-.16.1.1.53-.34.53l.35.26-.35.09c-.12.38.32.19.36.36.09.42-.07.75-.53.77.32.46.43,1.44.36,2-.04.34-.39.18-.38.5.02.66.46.84,1.06.79.08.28-.26.12-.29.2-.06.12-.32,1.36-.33,1.54-.02.65.63,1.06.27,1.72l.71.09v.78c.26-.02.53.15.77.18.56.06-.21-.52.36-.68l.93.16c.09-.84.46-1.31,1.21-1.56l-.34-.51,1.22-.08c.3-.15.3-.67.52-.88.24-.23.64-.17.82-.31.27-.22.54-1.66.39-2.03l2.25.18.02.49.84.31-.17.66c.41.16.66.74.61,1.16-.01.1-.76,1.6-.83,1.66-.16.17-.58.16-.82.31s-.28.47-.4.55c-.57.38-1.65.4-1.49,1.36l-.72.25.18.52c-.39,0-1.5.6-1.66.87-.15.24.17.61.1.69-.1.11-.93-.01-1.2.09-.5.19-1.12,1.03-1.71,1.1-.51.06-.66-.65-1.25.02.11-.66-.83-.18-1.03-.37-.04-.04.01-.3-.08-.42-.26-.38-.81-.81-1.31-.61l-.2-.67-.69.35c-.09-.43.13-.88.11-1.28-.03-.67-1.25-1.25-.8-2.36h-.7c.15-.45,0-.75.52-.97l-.07-.95-.62-.16.34-.25c-.63-.65.17-1.22,0-1.88-.03-.13-.31-.1-.35-.24-.12-.45.3-1.05.3-1.32,0-.37-.21-1.48-.47-1.77l.34-.26c-.59.12-.16-.88-.21-1.3-.07-.7-1.08-2.64.38-2l.17-.87h-.39c-.55-.5.54-.81.58-.99.01-.07-.02-1.29-.04-1.35-.03-.1-.32-.07-.33-.17-.01-.33.55-.84.55-1.39,0-.32-.3-.23-.34-.34-.14-.4.7-.78-.03-.87.25-.43.72-.6.77-1.1.1-1.08-.6-.48-.6-.98.08-.41.19-.85.33-1.23.1-.28.36-.28.44-.85.11-.77-.24-1.55-.23-1.91,0-.31.48-.7.48-1.07,0-.29-.38-.46-.3-.8.05-.19.34-.32.39-.47.15-.39-.1-.77.47-.98l-.18-.58c.77-.1,1.34.08,1.82.69.31-.73.49-.41,1-.52.15-.03.21-.62,1.07-.52.32.04.57.33.85.31.2-.02,1.72-.46,2.02-.55.72-.21.24-1.02,1.1-.8.21.82,1.3-.11,1.41-.13.09-.02,1.71-.05,1.79,0Z"/><path d="M39.9,58.76c.42.17,1.13,1.85,1.88,1.85l-.09.42.34.19c-.08.28-.76,1.05-.81,1.17-.04.09.1,1.41-.48.64-.22-.29-.74-1.54-1.25-1.69-.27-.08-.59.03-.83-.04-1.02-.28-1.57-.6-2.75-.33-.13.03-.1.3-.23.33s-.34-.15-.63,0c-.12.06-1.25,1.06-1.34,1.18-.38.51-.51,1.24-1.04,1.69l.69.09c-.13.74-1.72,1.76-.17,1.91l-.52.78.52.26-.35.17.36.42-.34,1.39c.65.35.63.63.33,1.31l.69-.34,1.04,1.83.7-.1v.52s.79,0,.79,0l-.09.87.31-.13c.45.81,1.1,1.18,1.77,1.79l.43-.26.17.16c.19.83,1.14,1.6.95,2.43h.7s-.18.78-.18.78l.63.25c-.21.94.35,1.04.75,1.83l.7-.09c.16.23.02,1.29.04,1.36.49,1.03.91,2.01,1.13,3.21.06.35-.25,1.25-.3,1.67h.39c.51.45-.46.73-.62,1.09-.19.45.02,1.55-.65,2.12l.36.34c-.25.5-.45.69-1.05.61.2.12-.26,1.37-.32,1.48-.37.55-1.28.24-.88,1.3-.65-.26-.85.49-.99.53-.6.14-.44.05-.97.28-.79.36-.87,0-1.63-.07-.35-.03-1.91.5-2.39.48-.12,0-.08-.38-.42-.43-.73-.12-1.61.57-2.29-.18-.33-.36.11-.75-.7-.52l-.26-.26c-.2-.44.1-1.01.03-1.44-.03-.18-.28-.34-.28-.38,0-.13.42-.24.52-.36s.18-.68.57-.88c.88-.46,2.65.53,3.59.11l-.17-.34c.88-.21,1.7.19,2.57.3.39-.42.49-.92.75-1.4.14-.26.49-.44.57-.63.09-.21-.07-1.05.13-1.37l.49-.02c-.36-.39-.01-.92-.05-1.14,0-.06-.76-.4-.38-.95.18-.26.63.04.22-.66l-.66-.03c.19-.29-.03-.94.04-1.13.05-.13.51,0,.31-.42-.33-.35-.64-.16-.67-.19-.37-.3-.57-1.8-.87-2.14-.14-.15-.4-.07-.48-.16-.13-.15-.59-1.07-.4-1.16h-.52s-.02-.87-.02-.87l-.65-.04-.38-1.11-.7.1-.08-.71-.89-.32c-.36-.38-.05-.65-.1-.79-.03-.09-.25-.07-.27-.12-.04-.08.12-.26.1-.29-.12-.15-1.09-.42-1.36-.38.34-.59-.36-.9-.47-1.08-.21-.35.18-1.02-.91-.65l-.17-.62.33-.16c-1.03-1.35-1.24-1.7-1.2-3.29.01-.59-.53-.65.34-1.05v-.35s-.53-.36-.53-.36l.38-1.03c.05-.55-.37-.42-.36-.51.16-1.37.65-3.2,1.65-4.25.21-.22.51-.24.67-.38.6-.55,1.17-1.28,2.01-1.36l-.35-.26c.48-.83,1.17-.19,1.63-.25.12-.02.08-.31.19-.33,1.33-.21,2.16.1,3.38.41.46.12,1.01-.02,1.36.12Z"/><path d="M60.9,58.59c.26.13.7.39,1.18.46.61.08,1.26-.27,1.9.35.05,1.37-.27,2.67-1.83,2.61l.17.52c-.72.07-1.44.22-2.17.25-.82.03-1.32-.59-1.75.45-.54-.13-1.17-.35-1.72-.37-.87-.02-1.19,0-2.08-.08-.15-.01-.32.44-.78-.08-.01.26.14.48.14.73,0,.56-.26,1.61-.27,2.09-.01.4.41.91.42,1.08,0,.24-.34.44-.38.68-.04.3.23,1.56.32,1.97,0,.04.24.03.26.12s-.32,1.46-.38,1.71-.38.34-.28.64l.43-.02c.52.84-.3,1.31-.27,1.83,0,.1.28.08.32.18.12.34.04,1.02-.48.96l.34.25-.34,1.31h.7s0,.59,0,.59l-.35.28h.52c.11.52-.52.92-.53.98-.05.32.2.65.15.98-.05.29-.39.51-.42.73-.05.38.41,1.17.37,1.56-.03.29-.54.56-.44.95l.35-.08c-.1.62-.14,1.24.02,1.86.03.14.26.14.3.22.13.39-.73.95-.48,1.47h.52c.07.06-.46.84-.46.96s.25.27.26.51c.01.19-.14.42-.12.67.03.46.57.45.6.9l-.46.86c.27.57.88-.25.87.35,0,.51-.15.9-.7.78l.34.25-.65,1.22.3.43c-.63-.1-1.32.73-1.82.78s-1.36-.15-2,.08c.33-.7-.21-.78-.3-1.27-.11-.59.48-1.44.46-1.57-.03-.15-.33-.29-.42-.54-.14-.4.06-2.17.09-2.69l-.69.17.44-1.56c-.96-.09.16-1.5.08-1.55h-.52s.35-.61.35-.61l-.31-.11.14-.39-.35-.2.2-.75.67-.19-.51-.28.17-.76-.52-.09.33-.17v-2.24s.55-.21.55-.21c-.16-.4,0-.79-.02-1.17-.06-.88-.14-1.59-.17-2.47-.03-1.11-.04-2.25,0-3.36l-.52-.09.33-.1c-.42-.62.26-.95.32-1.31.06-.34-.3-1.13-.25-1.38.05-.28.79.07.25-1.19-.06-.14-.43-.03-.27-.5l.67-.46c-.39-.54-.17-.87-.23-1.27s-.49-.42,0-1.15c.15-.23.59-.11.41-.7-.42.19-.57-.36-.61-.36-.27,0-.43.39-.85.36-.27-.02-.51-.28-.75-.31-.51-.06-1.18.17-1.49.13-.12-.01-.09-.32-.23-.35-.6-.15-1.69.31-2.06-.53-.22-.49.52-1.58.97-1.81.26-.13.5.05.68.02.21-.04.38-.23.61-.25.31-.03.76.21,1.01.12.3-.11.38-.63.56-.67.13-.03,1.65.8,1.72,0,.15.21.86.39,1.04.32.14-.06.48-.63,1.05-.65s1.38.53,2.12.22c.37-.16.33-.78,1.35-.05l.19-.36,2.48.18.19-.69,1.13.69c.43-.19.02-.57.09-.67.06-.09.66-.22.83-.14Z"/><path d="M12.37,63.39l.34-.17c.17.39,0,.78.13,1.16.17.5.85.77.74,1.18-.02.09-.34-.02-.34.87,0,.54.32,1.54.3,1.87-.02.48-.58.74.01.9.06.71-.74.41-.35,1.11l-.32.11.52.69c-.54.09-.76,1.3-.68,1.72.06.33.35.46.31.84-.1.95-1.1,1.82-1.32,3.03-.06.35.36.63-.21.57.47.53.4,1.27-.35.87.2.37.05,1.62-.35,1.56.61.59-.03.68-.25,1.23-.47,1.16,1.33,2.04.11,2.66.09.91.69,1.47,1.07,2.2.45.84,1,1.44,1.31,2.02.13.24.08.7.26.91s.57.14.61.17c.05.04-.41.77-.1,1.22l.21.15c1.2-.56,1.9,1.59,1.49,2.39-.23.45-.51.41-.69.63-.1.11-.01.42-.05.45-.06.06-1.26-.13-1.34-.2-.08-.07-.08-.45-.28-.67-.47-.53-2.2-1.55-2.44-1.9s-.15-1.06-.28-1.42c-.08-.24-1.06-1.07-1.12-1.17-.12-.19.12-.48.02-.69-.11-.23-.52-.28-.58-.38-.14-.25.11-.77-.3-1-.59.33-.13.79-.45,1.28-.25.39-1.05.86-1.29,1.51-.1.28.06.55,0,.69-.07.15-.86.62-.9.71s.15.33.05.48c-.14.23-.77.31-.98.6-.4.57.1.97-1.13,1.12-.85.11-1.43.03-1.6-.91l1.71-2.11-.35-.17v-.43c1.03.09.62-.81.78-1.04.36-.51.86-1.02,1.06-1.74.06-.24-.14-.57-.03-.71.13-.16.5-.11.59-.2.12-.13.11-.93.22-1.22.04-.11.59-.65.75-1,.07-.15-.1-.39-.04-.48.07-.1.4-.09.44-.28.12-.58-.08-2.01-.13-2.62-.05-.66.52-.73-.52-1.05-.13-.43.14-1.04.13-1.41-.02-.63-.3-1.29-.46-1.74-.39-1.11,0-1.08,0-1.85,0-.83-.52-.8-.43-2.09.08-1.19.2-1.83.43-2.96.11-.53.47-1.94-.15-2.01l-.03-.23c.47-.35.96-1.16,0-1.21l.69-.78h-.35s0-.26,0-.26l.86-.78-.52-.43,1.04-.61-.34-.85c1.11-.64,1.85-1.18,3.21-1.18.24.04.55,1.19.77,1.44s.54.08.62.23c.09.17.02,1.09.26,1.4ZM10.1,63.57c-.39-.13-.3.13-.38.2-.1.09-.82.86-.81.92,0,.14.17.38.15.7-.04.97-.24,1.93-.34,2.78-.07.66-.18,1.32.51,1.55-.61.49-.34.65-.43,1.04-.24,1.11-.37,1.4.44,2.43-.17.47-.45.11-.18.78l.69-.79-.34-.34c.47-.68,1.15-.86.52-1.74l.34-.16c-.26-.89.23-2.13.37-2.97.03-.21-.62-.35-.17-1.01.17-.26.67-.26.47-.88-.04-.11-.26-.07-.29-.21-.18-.76-.16-1.57-.53-2.31Z"/></g></svg>