<?xml version="1.0" encoding="UTF-8"?>
<svg id="Layer_1" data-name="Layer 1" xmlns="http://www.w3.org/2000/svg" viewBox="0 0 358.26 482.06">
  <defs>
    <style>
      .cls-1 {
        fill: #fff;
      }
    </style>
  </defs>
  <path d="M311.04,53.84c2.75.51,1.58-.68,2.16-2.11,3.18-7.73,5.63-15.86,11.79-21.93.33,2.67-2.22,4.63-3.1,7.49-1.44,4.7-1.06,9.87-2.19,14.64,4.3-2.99,10.65-17.98,17.33-13.97,4.94,10.16-.57,27.78-6.36,36.98-2.23,3.55-12.94,13.92-12.88,16.93.06,3.05,5.84-2.16,7.26-2.4,9.24-1.53,6.54,10.06,3.72,15.32-5.6,10.44-15.46,19.18-20.79,31.17-15.07,33.89-.72,41.76,17.46,65.63,58.23,76.47,38.24,200.36-54.18,240.23-29.56,12.75-62.64,12.44-93.99,17.16-.81,2.55,1.49,1.75,2.33,2.91,2.3,3.16,4.15,10.13,2.29,13.73-1.57,3.03-6.8,2.31-9.68,2.83-1.36.24-2.59,1.57-4.14,1.7-5.3.42-15.79-15.38-22.89-16.26-4.29,5.42-10.21,2.04-15.02,4.25-3.77,3.76.78,12.89-6.76,13.93,3.02-3.33,1.74-7.37,1.92-11.54l-5.76.49c.69-1.91,6.06-4.07,5.81-5.78s-2.2-3.16-3.58-3.26c-1.93-.14-2.58,3.01-4.17,4.21-2.12,1.61-5.9,1.82-8.04,3.5-2.66,2.09-2.1,6.41-6.38,5.64,1.75-2.18,2.19-5.01,3.84-7.22,2.65-3.55,8.94-4.38,8.2-8.16-3.04,2.87-7.97,3.53-12.03,3.83l7.69-4.82c1.06-1.52-5.05-5.42-6.24-5.43-6.59-.06-4.87,18.63-13,17.95,4.13-3.47,2.13-7.48,3.9-11.97l-1.97-1.01,5.75-7.7c-9.43-6.47-13.45,8.71-14.94,15.84-.36,1.73.77,3.42-.08,5.57-.87,2.21-4.64,2.99-5.15.27,3.49-.06,1.58-8.09,2.15-11.81.61-3.99,3.36-8.42,4.57-12.26l-6.74,9.62c-1.76.24-.74-1.97-.54-2.94.41-1.94,1.5-3.69,1.5-5.71-6.4,4.82-13.13,6.66-21.16,5.76l8.35-2.7c6.25-2.64,12.21-7.79,12.78-15.01l-2.36-1.52c-4.14,5.29-5.8,10.64-13.96,9.61l6.75-4.3c.77-2.77,2.47-4.58,3.82-6.78.74-1.22,1.18-2.1-.49-2.39-1.19-.21-2.83,1.91-4.3,2.42-7.18,2.49-14.05,1.76-21.17-.5l19.61-4.73.58-1.97c-5.7-3.74-8.47-7.17-16.35-6.76l7.5-3.32c-2.58-20.31-42.59-8.73-22.96-35.7l5.82-3.78c-15.24-20.7-33.35-40.55-39.57-66.29-17.65-73.07,46.12-150.8,110.14-177.83,37.86-15.99,76.03-11.81,115.6-12.31,7.67-.1,15.14-2.33,21.61-6.38,24.06-15.05,20.84-43.09,30.41-66.79,3.02-3.33,7.82-3.88,10.56,0,1.6,2.25.82,5.49,3.37,6.72,4.42-14.82,2.68-32.07,10.42-45.88,2.34-4.17,7.82-9.78,12.93-8.82,10.18,1.92-.15,18.3-1.9,23.7-3.21,9.94-3.77,19.78-5.08,30.03ZM317.77,3.81c-15.87,4.24-14.29,25.75-16.78,38.54-1.16,5.97-3.23,12.58-6.04,17.93l4.56,10.89c6.09-7.56,4.89-19.62,6.03-29.08.22-1.85.77-6.73,2.61-7.48-1.2,12.37-2.92,23.09-5.74,35.16-.17.73-1.66,3.42.46,3.31,3.4-.17,6.01-33.98,6.9-38.3,1.71-8.29,5.85-15.53,7.8-23.01.2-.76.63-3.23-.75-1.69l-1.93,4.79c-1.33,1.55-1.03-.94-.77-1.71,1.08-3.16,3.8-5.77,3.65-9.34ZM335.1,41.35c-2.53-2.01-7.62,7.9-9.13,9.63-3.34,3.81-15.27,13.28-16.59,16.13-.44.94-1.55,5.67-1.22,5.99,3.3.74,8.77-1.94,10.1,1.93l2.4-1.92-1.91,4.81,2.87.47-1.91,3.38c7.24-5.46,11.24-14.31,12.49-23.09-1.49-.68-2.09,6.67-2.85,2.45,3.75-6.31,2.56-13.91,5.74-19.77ZM208.08,143.34c-8.22,3.49-17.58,6.31-25.21,7.95-3.31.71-5.47.77-6.54,4.55,3.36.67,5.84-1.71,8.62-2.46.76-.21,5.07-1.19,4.84.54l-14.92,4.8c-2.96-1.87,1.37-2.41,1.42-5.33-4.75-1.55,1.18-.74.99-4.27-6.22-.13-7.42,3.04-7.7,8.65l3.85.96c-3.7.63-7.59,2.16-11.31,2.66-1.04.14-3.33,1.05-3.12-.71,6.92-.68,10.62-1.89,10.57-9.63-.37-.39-5.04,1.44-6.07,1.92-.63.29-.67,1.71-.79,1.75-.38.14-5.37-1.11-7.9.13l-.63,2.92-1.45-1.97-4.31,2.46,1.91,1.43-7.95,1.02c-2.7,2.67-2.07,4.46-6.47,2.83l3.84-2.4c-2.63-.87-7.77,1.02-6.74,4.33l-1.03-1.81-1.3-.07c-21.22,12.16-41.89,23.15-58.3,41.79-32.22,36.6-45.76,87.37-35.12,135.25l2.42,8.63c-2.34-22.65-4.36-44.96.31-67.53l5.46-20.03c-.83,7.42-3.43,14.44-4.65,21.8-4.64,27.94-2.27,56.55,4.22,84.01l6.2,14.47c-8.72-34.3-12.18-70.05-4.33-104.9.4-1.77.81-5.87,2.41-6.72-8.81,37.44-6.56,75.65,3.37,112.59l6.26,14.42c-.55-11.02-5.39-21.92-7.42-32.5-3.53-18.39-5.35-42.67-3.03-61.2,1.4-11.25,5.03-24.65,9.04-35.24.26-.69.44-2.96,1.44-1.43-6.78,19.71-10.83,39.64-10.6,60.63l1.92,1.42c1.84-42.37,25.28-80.03,53.88-109.7l-21.56,31.84c-22.65,33.45-32.81,73.49-25.32,113.69l4.54,17.1c-1.49-17.54-3.13-34.74-.82-52.3,1.64-12.43,6.24-31.37,10.94-42.94.65-1.59,1.84-5.01,3.34-5.78-8.7,24.22-15.29,49.54-14.42,75.53.34,10.15,1.64,22.47,3.01,32.59.41,3.03,2.52,19.49,4.21,19.86l2.26-1.4c-4.38-26.38-3-53.25-.71-79.78l5.64-22.73c-6.66,31.46-9.25,66.54-4.7,98.53.29,2.06.76,4.84,2.31,6.35-.14-15.97-1.37-31.54.61-47.49,2.81-22.64,11.1-47.54,18.63-68.94,2.21-6.28,3.42-5.47,6.69-8.67,1.93-1.89,6.44-10.31,8.78-13.39,7.3-9.63,15.08-19.4,23.49-27.98-.47,2.42-2.56,5.05-4,7.06-25.68,35.7-41.84,63.42-48.64,108.22-2.08,13.68-2.48,25.84-1.23,39.65l2.88-8.66v17.32l3.02-28.25c2.44-17.62,6.43-34.89,12.39-51.61,1.79-.22.76,1.96.52,2.93-1.11,4.66-3.57,9.63-4.86,14.39-4.55,16.78-8.24,37.93-9.18,55.29-.06,1.02-.31,9.31,1.96,6.3l2.88-16.36-1.91,15.39c2.61-1.2,2.33-5.31,2.89-7.69v6.73c1.01,1.3,3.2-6.4,2.89-7.69v6.72s2.39-3.85,2.39-3.85l.96,3.85c4.2-4.64,5.09-11.01,7.91-16.1,11.11-20.12,25.78-45.33,38.37-64.64,11.52-17.67,26.75-33.41,38.41-51.08,1.28,1.33-1.06,3.78-1.81,4.92-12.97,19.73-27.21,38.51-39.25,58.9-3.74,6.33-6.65,13.2-10.25,19.58-9,15.92-19.82,30.57-25.18,48.42,2.78.54,1.54-.8,2.17-2.11,3.06-6.32,5.86-13.76,10.33-19.05-.36,4.41-10.3,18.37-9.54,21.51.15.6,1.43,1.85,1.83,1.58l1.94-2.89-.95,3.84c3.44.9,2.55-1.63,4.8-2.88l-.48,4.81,4.33-4.81-2.88,5.76,4.8-2.88-1.9,3.37,1.48,1.39c3.5-2.25,1.33,2.34,4.3.55,24.43-34.99,52.57-66.94,79.84-99.61-8.82,21.27-26.4,36.73-40.38,54.4-12.21,15.43-23.62,31.54-35.63,47.13l3.74-.38,1.55,2.76,7.21-6.72-4.78,6.25c3.2,5.66,13.22-10.41,14.41-9.14l-8.66,11.06c5.84,2.24,8.19-7.35,13.48-8.16l-8.66,9.14,4.81-1.44-1.92,4.8,3.84-.48c-1.36,1.26-4.02,3.27-2.41,5.29,5.64-3.26,11.19-6.59,16.34-10.61,27.38-21.36,51.35-46.51,71.54-74.73,2.56-3.58,4.4-7.72,7.06-11.22.68-.89,1.94-3.03,1.77-.16-10.95,22.03-26.25,43.78-44.24,60.66-18.06,16.95-39.51,30.97-57.37,46.6-1.49,1.3-3.84.87-4.23,3.9l12.08-4.77c4.25.36-4.32,2.99-4.37,2.87-.22,1.79,1.96.76,2.93.52,8.09-1.93,16.54-6.62,24.54-9.17,4.06.55-2.04,1.57-2.32,2.03l-.13,3.71,10.48-2.98.1-3.75.96,2.89,7.56-2.07.14-5.64.96,4.8,8.52-3.01-.36-9.54c7.43-5.2,14.25-6.14,12.05-17.27l1.44,9.14c-2.17,3.08-1.4,6.51-1.44,10.09,7.23-1.42,5.9-6.61,5.76-12.5l-3.83,1.45c3.75-2.64,4.56-3.17,3.85-8.18l.96,3.84,5.76-3.84c-2.18,4.32-7.37,3.85-5.77,9.62,4.04,1.21,2.99-2.03,5.75-1.92l1.46,2.86c3.09-3.9,8.56-4.46,7.23-10.56l1.43,2.88c18.77-18.16,36.79-40.05,47.5-64.12,12.27-27.57,16.15-61.92,19.38-91.76l-2.72,1.6-3.35,27.44-3.54,12.33c4.29-21.53,7.49-43.63,4.79-65.43-.17-.13-3.01,1.36-3.36,1.92-.68,1.08-1.02,21.17-1.56,25.38l-4.68,19.85c3.56-18.18,5.47-36.3,4.81-54.84l.96,8.66c1.61-.77,3.63-2.59,3.87-4.38.31-2.35-2.1-13.82-2.8-17.3-.2-.97-.79-2.2-1.29-4.53-.89-4.21-2.41-8.37-2.68-12.74l3.86,6.24c.7-5.85-2.34-11.1-2.87-16.85-1.18-12.76,2.3-26.5,4.8-38.95-2.67-.47-1.63.54-2.17,2.1-10.4,29.68-7.69,72.11-12.52,103.96-2,13.18-7.11,24.38-12.98,36.11-.73,2.35-1.42,1.88-1.2-.23.77-7.45,6.22-19.1,8.03-27.6,6.33-29.8,4.56-61.85,8.48-91.6,2.05-15.6,9.15-28.42,10.44-43.92l-8.41,19-11.77,35.38c-7.49,17.6-14.11,37.17-22.88,54.11-1.07,2.06-1.21,2.32-1.16-.2l32.92-94.13,21.9-47.86-5.67,2.5-37.25,71.49c-5.82,6.09-9.96,14.47-14.98,21.58-7.54,10.67-16.43,20.34-23.4,31.45-1.18-1.31.96-3.87,1.64-5.09,4.93-8.87,12.07-17.87,17.53-26.74,14.96-24.35,30.32-50.54,43.4-75.92,1.92-3.72,10.74-19.93,10.08-22.61-.49-2-1.79-1.25-2.75.11-6.42,9.16-11.57,26.94-17.92,37.9-17.49,30.18-35.5,40.85-64.3,57.91-4.16,2.46-8.01,5.53-12.12,8.09-.82.51-2.09,2.41-2.98.87,13-10.97,27.95-19.42,41.29-29.92,16.38-12.88,31.15-29.74,39.37-49.16.37-.88,2.09-2.45.65-3.2-15.13,27.8-37.52,47.91-67.35,58.71-9.81,3.55-23.09,7.87-33.17,10.14-.98.22-3.13,1.29-2.92-.52,21.06-9.67,44.61-14.64,63.4-28.5,20.52-15.12,34.99-35.4,43.66-59.3,1.5-4.13,7.04-19.47,5.78-22.58-.48-1.19-1.78-2.24-2.68-3.17-4.22,22.61-10.53,44.93-25.96,62.56-1.5,1.71-6.13,6.69-7.72,7.68-2.5,1.54.61-3.26-1.9-1.91-15.39,8.33-21.76,16.42-40.91,21.16,3.79-1.61,9.66-4.02,13.5-6.27,1.25-.73,2.43.17,1.89-2.39-1.87,1.11-4.03,1.27-6.01,2-1.3.48-1.61.68-3.6,1.33-4.17,1.38-8.1,3.28-12.52,3.88l-.95,3.37c2.49-1.19,5.17-1.3,7.69-1.92ZM285.05,86.56c.98-6.67,7.74-12.81,6.74-19.24-1.65.26-1.69,1.92-2.18,3.1-1.61,3.81-3.77,9.35-5.04,13.25-.31.94-1.32,3.09.49,2.9ZM296.62,108.7l17.54-23.38c.55-1.57-.13-6.72-1.68-7.41-6.02,9.8-11.54,20.08-15.86,30.79ZM300.44,142.37c4.1-9.53,9.81-21.46,15.6-30.12,3.93-5.88,10.79-10.1,10.39-17.99-.18-.23-2.46,1.17-2.91,1.68-4.6,5.17-15.16,27.54-19.37,35.22-.79,1.43-2.46,2.29-3.14,3.59-.56,1.07-2.7,7.12-.57,7.62ZM310.64,109.28c1.03-2.24,2.28-4.82,2.31-7.32-4.48,4.87-8.28,12.77-9.6,19.24,3.59-2.43,4.2-7.31,5.86-10.76.32-.67,1.29-.87,1.43-1.16ZM199.41,126.02h-16.36l7.69-1.91c-39.49.42-74.71,9.17-107.11,31.92-29.25,20.54-52.42,47.11-65.4,79.51-.07.17-2.03.61-2.6,2.61s.5,1.42,1.61.65c1.75-1.22,1.72-2.61,3.17-3.07,1.81,3.94-.27,2.3-.95,3.54-.51.92-2.15,5.2.47,4.15,2.47-1.67,2.7-4.06,3.08-6.73l4.14-6.72-5.29,17.31,2.42-3.84c1.58-.26.93,1.2.74,2.17-.73,3.75-2.96,7.52-3.65,11.29l-.96-2.88-2.96,6.16,2,1.52c-4.63,1.11-3.99,11.45-4.33,15.41.85-1.58,3.69-1.47,4.36-2.6.87-1.46,2.25-11.73,3.13-14.92.49-1.75,1.1-5.64,2.61-6.52-4.66,19.59-8.42,42.98-4.75,63,.31,1.69-1.08,2.88,1.87,2.42-3.05-24.87.63-49.84,10.42-72.82,2.73-6.4,6.64-14.09,10.74-19.56-3.51,9.18-8.75,17.5-12.26,26.7-8.87,23.25-11.51,51.12-5.52,75.31,2.31.79,1.25-2,1.16-3.09-.26-3.12-1.48-6.89-1.64-9.92-.85-16.09,1.76-32.86,4.81-48.58,1.66-.25,1,2.25.85,3.26-.98,6.63-3.04,13.45-3.74,20.33-.99,9.76-1.16,21.95.1,31.63.14,1.04.37,4.5,1.8,4.44,2.54-12-.97-23.98.02-36.07,2.38-28.92,16.62-55.83,32.87-78.76.96-1.35,4.56-4.32,3.68-5.46l-2.87,1.92c.03-.46-.17-1.01,0-1.43.72-1.82,14.83-14.38,17.39-16.3,13.66-10.22,32.61-22.5,47.81-30.14,3.03-1.52,5.01-3.32,6.14-3.93.35-.19,5.99,1.12,7.46-1.24,2.31-3.7-2.32-1.83-2.77-3.73,3.24.83,3.38-2.32,3.97-2.75.49-.36,6.66,3.19,8.04-3.05.52-2.35-4.69.55-6.12.15l-.12,2.74c-1.63.44-.45-1.91-1.49-1.98-1.94-.14-8.4,2.87-10.96,3.49-.97.23-3.15,1.26-2.93-.53,7.29-2.31,14.67-4.36,22.08-6.32,2.83-.75,6.59.65,6.8-3.31l1.52,2,6.16-1.05-2.88-2.87,26.47-2.89c5.79-.38,21.24,1.08,25.5-1.44.46-.27,1.6-1.42.46-1.46-19.14,2.13-39.23.67-58.26,4.29-7.35,1.4-14.79,4.54-21.83,6.08-.97.21-3.38.97-3.13-.73l38.02-8.66,46.65-1.95c.22-1.68-2.18-.9-3.35-.95-6.48-.27-13.77-.25-20.26-.05-3.95.12-7.22,1.14-11.51,1.01-1.16-.04-3.58.71-3.35-.95l49.07-.98c.22-1.68-2.18-.9-3.35-.95-24.1-.99-51.09-.19-74.79,4.13-5.23.95-10.06,2.96-15.16,4.1-.98.22-3.13,1.29-2.92-.52,15.91-4.79,32.9-7.61,49.56-8.66,5.1-.32,10.29.2,15.4,0,1.18-.05,3.57.73,3.36-.96ZM212.41,124.1c-6.27-.61-13.36.45-19.73,0l19.68,1.97,5.35-.53c0-.27-4.82-1.4-5.3-1.44ZM202.3,135.65c-7.67.98-17.04.03-24.46,1.06-1.67.23-4.13.43-3.44,2.78,8.39-2.64,17.85-.82,26.47-1.92,1.33-.17,3.01-.72,1.42-1.92ZM185.94,146.23l-7.13,1.83-.56,2.97c3.67-.56,7.87-.07,7.69-4.8ZM303.34,190.49l-5.76-17.31c.73,4.72,1.66,11.02,3.4,15.39.62,1.55-.09,2.35,2.36,1.92ZM314.87,207.82c-4.35-.14-2.28,6.09-1.9,8.66l3.69-3.5-1.79-5.15ZM305.28,223.21c4.09-1.82,4.33-5.34,1.44-8.64l-2.48,1.59,1.04,7.05ZM314.9,224.18l4.67-4.53c.46-1.79-.96-3.89-2.27-5.07-4.41,2.95-2.97,5.08-2.4,9.6ZM338.95,258.81c5.97-.21,2.35-9.52,1.45-13.48-1.96-8.58-4.85-20.13-10.11-26.93l5.75,19.24-2.89-1.43,3.87,14.9,3.84-.95c-3.33,3.17-2.55,4.39-1.92,8.65ZM312.95,219.37l-2.77,1.59.87,7.07c3.94-1.53,3-5.61,1.9-8.66ZM321.89,226.88c-.29-.65,1.13-4.31-1.7-5.58-3.1,2.88-5.46,4.13-3.36,8.64l3.84-1.91c-3.52,3.39-3.03,5.11-1.91,9.61.29.3,5.33-4.41,5.62-5.5,1.12-4.13-2.34-4.92-2.49-5.26ZM306.24,232.84c4.72-2.32,4.42-6.13,2.87-10.58-5.32,2.57-3.42,5.87-2.87,10.58ZM310.31,237.47c-.21-.47,1.48-4.98.72-6.56-3.24,1.62-7.75,7.23-2.88,9.13-2.94,2.22-1.79,5.9-1.91,9.14,1.84.28.52-1.94,1.02-2.83.06-.1,1.29.72,2.34.03,2.51-1.65,3.06-5.33,2.39-8.11-.17-.71-1.62-.67-1.68-.81ZM317.05,240.37c-.15-.35,1.08-5.74-.24-7.53-3.89,1.47-6.02,8.38-2.03,10.04l-.84,6.31c3.9-.36,5.64-4.54,4.8-8.02-.17-.69-1.63-.66-1.69-.8ZM324.51,242.46c2.4-3.46,4.25-4.31.48-8.64-3.47,3.21-6.38,5.23-5.29,10.56,1.81-.15,2.92-1.27,4.81-1.92-2.45,3.53-7.1,7.51-.97,10.6-3.13,3.05-.21,6.53-.94,10.57l3.45-3.32-.56-7.26,2.4,6.71c6.57-4.11-.61-11.81.47-18.27-.23-.24-3.13.72-3.84.97ZM312.96,246.31c-6.64,1.2-3.85,5.92-4.29,9.18-.53,3.89-2.61,8.19-1.49,12.95l-1.91-9.61c-3.53,38.87-13.7,78.25-36.36,110.39-3.53,5.01-7.39,9.97-11.27,14.72-2.35,2.88-12.62,12.57-13.47,14.44-.96,2.13-.42,4.5-.49,6.72l3.83-1.45c-3.18,2.19-6.46,7.76-1.92,9.62-2.95,2.23-1.79,5.91-1.91,9.15,5.08-2.22,8.46-4.7,6.73-10.93-.25-.89-1.85-.57-1.91-.65-.36-.54,1.38-1.35,1.48-2.32.32-3-1.93-8.37-.53-12.08l.96,2.88,3.84-1.91c-3.69,3.86-4.6,5.15-2.88,10.57l3.84-1.91c-.16,1.89-3.56,2.42-3.86,3.56-.23.87-.83,7.87,1.44,7l10.02-7.37-.85-17.63.96,6.73,3.84-1.91c-5.12,4.39-3.09,6.5-2.88,12.5,6.51-2.72,9.5-9.16,3.84-13.94,1.66-.75,1.52-3.49,2.08-4.16.14-.16,1.53.56,2.25-.12,3.69-3.45,8.18-6.32,6.27-11.62,1.57-.26.7,1.37,1.31,2.58.19.39,1.45.31,1.43.72-.08,2.16-2.85,5.61.98,6.73l-.84,5.35c.96.22,1.25-.08,1.93-.46,1.13-.64,10.88-11.58,12.47-13.52,19.84-24.11,31.88-56.13,35.68-86.53.14-1.11-.1-2.3-.05-3.42l-3.83,1.45c3.39-3.02,5.79-5.06,4.8-10.1l-4.8,1.92c-1-2.99,3.12-1.8,4.34-3.83.94-1.57.36-4,.46-5.78l-8.7,5.44c.6,13.91-1.82,28.01-5.47,41.48l-4.09,9.84c5.16-16.39,8.21-32.71,8.52-49.91-8.11-1.63-1.17-5.26-.75-9.24.2-1.94-.36-14.47-1.05-14.95l-2.88.96c3.53-2.91,3.12-6.68,1.45-10.57-4.47,3.14-6.89,5.9-5.3,11.88.26.98,2.28.32,1.93,1.1-.21.46-1.42.92-1.49,1.88-.18,2.41,1.08,5.56-.43,8.22l6.73-3.36c-1.27,2.33-5.66,3.86-6.31,6.17-1.02,3.62.36,6.15.02,8.89-1,8.23-3.47,18.85-5.53,27-1.67,6.6-4.01,14.16-6.44,20.51-.56,1.47-1.32,4.8-2.9,5.27,7.45-22.52,14.66-45.74,13.55-69.84l-2.01-1.84c3.14-2.44,1.67-6.61,1.91-10.11l-2.87.48c2.63-1.89,3.33-3.98,2.88-7.22ZM267.74,433.96c-.07,1.43-1.86,4.4.47,3.84,2.33-2.2,5.66-2.84,5.32-6.72l2.37,1.9c3.93-1.47,3.69-4.89,4.41-5.72.11-.13,1.36,1,3.34.1,3.29-1.49,7.55-7.41,10.57-8.79.42-.19,1.58-.24,1.43.47-2.19,2.95-7.96,4.42-6.26,9.14,47.44-27.98,65.53-82.2,63.99-135.18l-1.9-7.22c.4,14.95-1.97,29.74-4.16,44.44l-2.57,9.44c3.48-23,7.6-46.31,4.68-69.64-.46-3.67-1.29-9.77-2.3-13.15-.5-1.69-.19-2.26-2.38-1.89-.12,1.1-.71,2.05-.67,3.19.42,11.26,3.5,22.41,3.18,34.66-.23,8.6-1.31,17.16-2.54,25.65-1.73.21-.93-2.16-.84-3.24.78-9.15,2.87-18.08,1.8-27.55l-2.87.48c4.2-1.67,2.81-4.24,2.88-8.18-6.52.86-2.89,12-3.36,16.85-.08.78-1.19,1.73-1.35,2.93-1.65,12.57-4.11,24.21-8.77,36.02-1.75.24-.8-2.01-.54-2.94,1.41-4.96,3.77-9.83,5.08-15.14,2.02-8.19,2.39-16.57,4.11-24.78.73-3.37-4.87.83-5.27,1.49-1.09,1.78-.31,4.69-.48,6.73l3.83-1.45c-6.3,3.38-5.07,9.16-6.8,15.33-16.32,58.25-50.12,96.48-104.48,120.7-5.39,2.4-11.03,4.31-16.7,5.94l.96,1.88-8.66,1.95c-.23,1.74,2.09.87,3.12.71,8.88-1.37,17.8-6.03,26.7-7.45l-7.7,2.88.9,2.79-3.78,2.5c3.65,1.35,7.87-3.48,10.57-4.68.92-.41,2.4.14,4.17-.69,7.9-3.68,15.72-8.07,23.28-12.42,3.25.13-2.92,3.34-3.68,5.09-1.53,3.54.26,1.02-2.49,5.07-.59.87-2.33,4.4-.11,3.77,4.59-1.29,3.26-2.71,5.79-5.29-.03,1.54-1.91,4.37.46,3.83,4.41-1.56,5.1-4,7.24-7.68ZM330.27,268.43c1.8-3.6,2.65-5.62.97-9.61-.74.58-3.42,1.78-3.62,2.12-1.08,1.82.36,9.38,2.66,7.49ZM323.56,272.29c4.04-1.66,2.79-6.04,2.87-9.62-4.39,2.21-4.48,5.35-2.87,9.62ZM5.03,274.21c4.84-.25,5.34-3.49,4.8-7.69-4.48,1.1-3.47,4.15-4.8,7.69ZM339.9,268.45c-4.26-.01-5.75,7.16-1.92,8.17-2.44,1.77-2.04,4.48-1.92,7.22,9.09-1.07,1.59-9.43,3.84-15.39ZM8.73,280.8l-.33-6.58c-3.87,1.63-3.68,3.83-3.37,7.69l3.69-1.11ZM19.46,276.14l-2.89,3.84-1.9-1.91v5.28s2.87-.47,2.87-.47c-2.51,2.18-3.76,3.48-3.92,7.11l1.97.61c-2.85,5.08.03,13.18.03,19.21l2.92-1.61c-1.42-10.74-.61-21.36.91-32.07ZM5.04,289.61c4.22-.17,4.12-4.44,3.83-7.69-4.26,1.23-4.2,3.72-3.83,7.69ZM340.87,283.84c-5.46.93-5.24,3.78-4.8,8.66,4.2-2.01,5.59-3.76,4.8-8.66ZM45.49,386.74c2.33-3.57-2.14-5-4.87-3.32-1.22.75-5.29,9.32-4.37,11.07,1.83,3.46,14.06,5.56,17.85,7.7.24-2.97-3.25-3.53-4.8-5.29h3.84s-6.73-4.81-6.73-4.81l4.8,1.45v-1.91s-5.76-1.95-5.76-1.95h3.38s.46-1.9.46-1.9l-3.8-1.04ZM271.6,403.16c3.21-1.94,6.39-4.24,8.5-7.44l-.82-9.89-8.52,8.4.84,8.93ZM238.87,409.9c3.48-3.69,4.8-3.4,3.84-9.62-3.25,3.46-9.18,5.26-7.68,10.58.22.26,3.13-.72,3.84-.96-2.31,2.45-7.44,6.94-1.93,8.68v.93c-2.76,1.41-5.41,3.48-8.65,3.87,3.77-3.54,7.03-3.12,5.76-9.62-2.05,1.28-3.16,2.51-5.76,2.89,3.18-3.69,7.11-2.91,5.76-8.66l-8.64,7.23c-.8,1.94,1.82,1.58,2.88,1.43-1.71,1.98-3.5,3.86-2.89,6.73.94-.05,1.95.12,2.89,0-.8.75-2.53,1.92-2.74,2.53-.51,1.49.72,4.3-1.1,4.2l-.72-3.86-1.23-.47c2.96-.74,1.88-2.61,1.93-5.29-7.52.41-3.58,8.34-4.8,13.47,3.63-2.71,20.85-7.66,22.62-10.57,1.15-1.89.21-5.48.46-7.71l-2.87.48c4.19-1.67,2.81-4.25,2.87-8.18-1.36.96-2.26,1.39-3.84,1.92ZM130.13,417.6h-14.43l7.7-.97c-2.37-3.73-8.75-1.22-12.5-1.92l6.73-1.91c-9.48.06-15.08-6.33-24.54-5.54-1.79.15-4,.25-3.36,2.64,2.21.29,5.74.47,6.74,2.89l-9.71-3.42c-3.23,2.96-7.28,3.51-10.51,6.78-.93.94-2.68,1.77-.95,2.89l8.08,2.49,1.53-2,1.93,1.92-3.83-5.76,4.38,2.85,1.37-1.88c-1.09,4.04,2.39,5.13,5.52,6.52,15.5,6.89,19.2-.64,32.55-.79,3.19-.04,6.6,1.72,10.05,1l-.46,1.9c-8.21-3.11-16.45.72-24.55,1.95-.23,1.36,2.61,1.83,3.36,1.78,4.1-.26,9.22-3.88,13.95-2.75-.69,1.91-4.6,1.27-6.32,1.77-1.32.38-2.98.32-3.3,2.06,7.46-2.04,21.25,3.62,25.55-4.81,1.9-3.72-7.39-5.52-9.68-5.76-11.06-1.12-21.97,3.54-33.18,1.9-.23-1.68,2.19-.91,3.35-.95,3.17-.12,6.35.23,9.52-.12l15.03-2.77ZM202.31,424.33c7.64-2.15,11.17-5.01,9.61-13.47-5.87,4.48-11.67,4.49-9.61,13.47ZM218.66,423.38c-.68-.77-8.31,3.9-6.73,6.73,3.64-.73,7.71-2.27,6.73-6.73ZM80.1,427.22c1.63.64,8.26,2.23,7.69-1.43-.42-2.7-2.87.28-3.88.06-.93-.2-2.02-1.62-3.31-1.52-1.4.25-2.71,6.26-.51,6.74l.02-3.85ZM202.31,434.92c3.45-2.32,9.88-1.81,8.64-7.7-3.45,2.32-9.88,1.81-8.64,7.7ZM217.54,434.76l-.31-5.61c-3.13,2-6.09,2.08-5.31,6.72l-.96-2.89c-3.05,1.03-9.56,1.63-8.67,5.78-2.95-3.13-4.98.17-8.65,0,.98-2.3,5.88-1.8,7.25-3.8.76-1.11,1.13-3.52-.88-2.82l-7.23,2.9c1.37,6.34-4.7,9.59,4.72,7.11,2.69-.7,19.48-6.48,20.03-7.39ZM133.97,433.96c-3.59-.59-5.6.61-7.68,3.36,1.61,5.12,8.92-2.29,7.68-3.36ZM93.56,440.68l1.91-5.76c-3.64.63-2.38,5.85-3,6.62-.27.33-6.41,1.01-6.62,3.96,6.55-2.72,18.05-.39,17.32-10.57-4.51-.61-4.75,6.21-9.62,5.76ZM154.18,439.74c-5.44.61-10.73,2.53-15.42,5.3-1.24.73-2.43-.17-1.89,2.39l17.31-7.68ZM114.72,457.05c.09-2.57-.37-5.23.44-7.75.21-.65,6.25-7.69,1.98-7.62-.92.01-5.16,6.61-5.27,8.21-.1,1.43,1.16,6.45,2.86,7.16ZM99.35,454.16c2.62-3.29,9.71-3.57,9.62-8.23-.04-2.02-3.05-3.57-3.83-1.71.72,4.81-5.66,5.1-5.79,9.94ZM156.11,444.55c-3.04-1.26-4.71,2.5-4.99,2.62-1.51.67-4.87.53-8.51,2.68-1.24.73-2.43-.17-1.89,2.39l14.83-4.72.56-2.97ZM129.18,454.16c1.22-11.29-8.47-9.1-2.9-.01-2.64.49-6.8,1.38-6.72,4.82,6.28-3.53,12.32-1.66,16.34-9.15-5.01-2.54-3.41,2.62-6.72,4.33ZM169.58,466.66c-5.47-1.34-9.37-6.05-15.39-5.76-.53,2.56.64,1.66,1.89,2.39,2.21,1.29,5.49,1.9,6.76,4.33-2.49.52-6.7-4.87-8.65-1.93,4.06.39,10.45,10.85,13.11,11.37,1.12.22,3.99-1.34,5.72-1.66,4.61-.86,7.78,1.95,7.08-5.26-1.02-10.44-8.56-8.85-16.29-9.24-2.09,1.69,6.01,3.95,5.77,5.76Z"/>
  <path class="cls-1" d="M135.27,22.72c1.45-1.93-.22-3.32,2.22-4.45-1.04,2.59.11,6.79-2.22,8.35.47-1.6.2-2.45,0-3.9-.03.04-.43-.08-.48.06-.4,1,.68,2.96-.9,2.72-1.97-1.88-1.8-4.89,1.38-5,.08.72-.1,1.52,0,2.22Z"/>
  <path d="M226.36,398.34l20.2-20.2c.42,1.8-1,2.29-1.91,3.37-3.64,4.32-10.6,11.27-14.92,14.92-1.08.91-1.57,2.33-3.37,1.91Z"/>
  <path d="M214.81,395.45l17.31-17.31c.42,1.8-1,2.29-1.91,3.37-2.96,3.52-8.51,9.06-12.03,12.03-1.08.91-1.57,2.33-3.37,1.91Z"/>
</svg>