<?xml version="1.0" encoding="UTF-8"?><svg id="Layer_2" xmlns="http://www.w3.org/2000/svg" viewBox="0 0 289.48 107.99"><g id="oven_baked"><path d="M79.89,4.95l.23,2.11-.39.3.39.1c-.23.72-.58,1.6-.67,2.34-.02.18.17,1.22.17,1.43.03.8.19,1.24-.45,1.88l.74.3c.08.81-.57.93-.72,1.14-.04.05.22.5.17.79-.02.12-.29.13-.31.19-.27.72-.39,2.88.31,3.23-.94.82.42,2-.75,2.83l.56.29-.37,1.12.57.11c.35,1.17-.55,1.4-.56,1.49-.01.66.54.93.55.99.04.27-.1,1.48-.38,1.66l.36.17-.18.67.75.19c-.67.76-1.35,2.98,0,3.01-.61.74-.5,1.27-.34,2.17.01.06.55.18.11,1.01l-.53.02.18.67-.35.16c.16,1.8.04,4.89-.57,6.61-.16.44-.51.76-.58.95-.19.53.66,0,.56.56-.07.37-.38.57-.75.48l-.06.89c-.78.36-2.01.93-2.88.9-.67-.03-1.62-1.9-1.62-2.52l-.73-.03s.16-.28.15-.46c-.03-1.39-1.3-3.17-1.8-4.47-.03-.09.22-1.21.1-1.42-.03-.05-.25-.07-.34-.18-.12-.16-.1-.48-.23-.58-.35-.26-.9.31-.18-1.04-.64-.84-1.34-1.72-1.27-2.87.03-.47.75-.64.01-.67l.14-.51c-.77-.27-1.12-1.26-.72-1.99l-.4-.22.21-.64-.52-.03-.47-3.59c-1.15-.8-.44-.89-.57-1.69-.04-.23-.44-.65-.37-1.06l-.52-.03c-.1-.09.47-2.52-.57-2.44.43.92-.64,1.75.19,2.74l-.37.27.38.1c-.68,1.12.03,2.43-.55,3.58l.35.27-.38.28.56.29c-.27.4-.54.88-.51,1.39.03.54.68.31.52,1.34-.11.74-.46.54-.55.75-.06.15.54,1.61.55,2.08.02.94-1.13,2.45.18,3l-.95.57c.07.9.81,1.09.4,1.95l.55.31-.72.57c.4.59.15,1.26.21,1.67.04.25.42.47.46.8.05.4-.33,1.02-.23,1.42.06.24.4.46.41.64.02.4-.43,1.47-.55,1.84-.1.29.13.57-.14.8-.61-.29-.58.28-.68.28-.15,0-.38-.18-.58-.18-.69-.01-1.16.26-1.47-.75-.1-.35.14-1.08.08-1.4-.03-.14-.29-.13-.31-.23-.32-1.19.07-2.28-.16-3.32-.08-.38-.42-.3-.46-.48-.23-1.01,1.07-2.75,0-3.16l.53-.76c-1.06-.76-.24-1.3-.19-1.91.02-.25-.09-1.63-.11-2.05,0-.17.2-.43.15-.46h-.43c-.56-.48.21-.8.23-.88.12-.41-.44-1.49.02-2.03l-.39-.19c.28-.36.58-.8.64-1.27s-.25-.53-.25-.81c0-.22.48-1.06.47-1.51-.01-.59-.86-.24-.09-1.49l-.73-.58c.81-.92.08-2.12.71-3.02l-.38-.35c.02-.42.41-.87.47-1.22.28-1.67.17-4.34.2-6.08,0-.45.66-.75-.28-.91.15-.37.42-.68.51-1.08.14-.6-.19-3.21-.1-3.4.02-.05.7-.18.34-.79l1.62.17,2.22,4.16c.09.79-.19,1.85.68,2.17v.28s-.38.1-.38.1c.95.74.64,1.74.85,2.64.1.41.64.81.47,1.42l.75-.19c.16.22-.21,1.26-.16,1.6.25,1.65,1.17,4.22,1.74,5.92.09.27.06.66.12.96l.37-.19.21,1.01-.39.12.53.48c-.37.64.29.96.35,1.33.08.47-.46.98.61,1.22l-.35,1.37c.76.51,1.01,1.5,1.01,2.38h.47c-.26.59.32,1.3.35,1.63.01.22-.26.38-.27.53-.02.29.35,1.31.87,1.04l-.38.66.56.09-.38,1.32.37-.19.85,1.88c.15,0,.38-1,.38-1.11.02-.47-.45-.41.28-1.24l-.56-.29.23-1.28.52-.03c-.23-.51-.5-1.32-.48-1.87.01-.31.34-.48.28-.57-.04-.06-1.08-.53-.17-.86-.23-.59-.47-1.32.36-1.41v-.28c-.65-.15-.15-.46-.28-.67-.08-.13-.37-.1-.45-.27-.14-.32.42-2.15.46-2.45.03-.22-.65-1.54-.11-2.16l-.57-.1c-.1-.67.53-1.25.56-1.48.08-.6-.38-.83-.47-1.14-.07-.25-.15-2.95-.08-3.18.25-.87.26-1.75.55-2.7.14-.45-.14-1.8.2-2.42l-.57-.1.59-1.79-.41-.38c.27-.87,1-1.64.96-2.61,0-.12-.3-.09-.33-.2-.17-.62.06-1.91.27-2.5.09-.23.37-.24.43-.37.31-.64.63-1.15.61-1.91l.79-.39,1.59.96Z"/><path d="M104.36,6.87c1.07.66,4.97,3.06,5.43,4.08.13.28.03.63.11.79.73,1.58,1.99,3.4,2.18,5.23.05.45-.3,1.15-.38,1.67-.13.82.08,1.81-.49,2.39l.37.46c-1.33.13-1.35,1.25-1.99,1.87-.29.28-.67.31-.9.58-.32.36-.45,1.22.34,1.15l.2-.39c.67.26.45.88.49.92.15.12.76.08.98.21.09.06.92,1.28,1.46,1.6,1.32.8.87-.03,1.82,1.57.1.17.36.24.38.27.08.16-.01.84.24,1.16.14.18.41.06.53.15.33.24.08,1.87.1,2.28.02.52.27,1.22.27,1.58,0,.32-.28.53-.25.83s.62.33.58,1.01c-.01.24-.53,1.95-.65,2.28-.15.41-1.21,1.33-.21,1.4v.18c-.67.1-1.15.82-.38,1.04-.37.41-1.26.85-1.4,1.41-.07.28.13.55.08.82-.02.13-.28.13-.3.18-.06.11.09.34-.06.43-.43.23-1.07-.07-1.43.67-.25.51.14.75-.78.92l.11.57c-1.4-.63-2.01,1.49-2.29,1.67-.54.34-3.71-.1-3.56,1.35-.5.09-.74-.23-1.03-.56l-.18.38c-.65-.61-1.14-.12-1.7-.09-.22.01-1.25-.54-1.42-.74-.35-.41-.4-.91-.84-1.2-.57.37-1.15.45-1.8.25-.4-.12-.57-.66-1.12-.29-.09-.41.22-.85.18-1.22-.03-.27-.31-.48-.36-.77-.12-.69.18-1.38.13-1.85-.03-.29-.38-.56-.33-.95.01-.1.59-.05.39-.75-.04-.13-.37-.11-.39-.23-.05-.34.35-1,.39-1.48.07-.74-.24-1.42,0-2.17l-.56.19c.35-.78.03-1.78.06-2.51,0-.13.28-.34.29-.6.04-.88-.6-1.76-.54-2.26.04-.36.39-.48.48-.75.19-.52-.09-1.65.1-2.26l-.58-.19c.16-.19.71-1.18.71-1.35,0-.29-.29-.43-.29-.54,0-.11.72-.47.52-1.49-.1-.53-.67-.57,0-1.23-.85,0-.13-1,.19-1.42l-.56-.09c-.23-.66.47-.66.54-.78.03-.06-.21-.98.03-1.29l-.39.09c.32-.79,1.02-1.68,0-2.26l.57-1.22c-1.18.11-.25-.68-.1-1.13.51-1.45-.18-1.74-.19-3,0-.27.29-.42.25-.63-.03-.16-.29-.31-.3-.42,0-.13.46-.33.52-.76.08-.56-.34-1.42-.36-1.89-.02-.52.32-1.02.35-1.52.03-.47-.23-1.68-.15-2.01.05-.19.3-.32.41-.51.06-.1-.06-.33-.04-.35.71-.56,1.15.26,1.41.31.95.17,2.04.04,3.08.52.24.11.38.48.58.56.31.13.84-.22,1.44.16ZM101.18,8.92l-1.66-.05c-.23.48.36.31.39.49.03.2-.14.61-.14.92,0,2.02.11,4.28.22,6.12.08,1.27-.14,6.11.14,6.87.04.11.34.03.36.37.03.62-.41.86-.41,1.13l.34.12-.15.54c.54.04.47-.51.96-.83.15-.1,1.09-.71,1.16-.73.49-.17,1.6.1,2.21-.33-.38-.89.91-.75.77-1.85,1.05.17.59-.4.85-.6.23-.17.92-.18,1.22-.45.24-.22-.11-.57.07-.84.11-.17.65-.31.66-.47,0-.03-.29-.26-.3-.56,0-.34.41-.91.29-1.49-.17-.86-1.19-1.95-.36-2.74l-.6-.55-.53.17c.21-.73-.4-.71-.48-1.3-.04-.27.13-.57.07-.72-.03-.07-1.03-1.02-1.09-1.05-.23-.14-.91-.2-1.46-.49-.51-.27-1.78-.79-2.12-1.05-.26-.19-.32-.53-.42-.6ZM105.91,27.88c-.15.1-1.15-.51-1.4-.54-.76-.09-.76.49-1.08.62-.08.03-1.65.23-1.73.23-.61-.01-1.85-1.13-1.98.39-.05.56.31.86.31,1.11,0,.27-.46.64-.3,1.11l.55.31-.38.28c.82.17-.02.92-.13,1.47-.2.96.5,1.09.5,1.15-.04.55-.56.72-.56.77.01.29.41.5.41.94,0,.48-.21,1.15-.17,1.88.03.64.39.99-.23,1.6l.57.1c-.28.53-.44.67-.18,1.29l-.4.22c.36.65.07,1.18,0,1.85l.39.21c-.54.66-.62,1.18-.38,1.98.93.07.43-.82,1.56-.53.52.14,1.61,1.44,1.93,1.48.91.12,1.18-.71,1.25-.73.12-.04.44.23.78.13.11-.03,1.91-.96,2-1.03.4-.33.41-.94.94-1.05l-.17-.53c1.63.25,1.44-1.4,1.53-1.49.13-.14.77-.11,1.02-.39-.24-.89.24-.7.39-1.03.47-1.06.09-1.15.89-2.37.09-.14-.17-.44.31-.38-1.17-1.05-.08-1.12,0-1.79s-.32-1.28-.37-1.71c-.04-.35.21-.72.16-.91-.06-.25-.52-.3-.64-.49-.05-.07-.12-1.21-.45-1.6-.65-.76-1.87-.78-2.09-.95-.42-.32-.62-1.1-1.55-1.63-.35-.2-.97.04-.89-.52-.18-.13-.35.51-.4.54Z"/><path d="M121.82,56.66c.06.1.34.14.48.37.05.08.5,1.65.51,1.74.02.2-.42,1.19-.41,1.42.02.27.47,1.63.45,1.85-.02.33-.75,1.19-.71,1.26.01.02.28-.1.41.27.15.42-.09.89-.04,1.32.03.26.33.49.34.58,0,.15-.43.35-.5.6-.1.38.49,1.67.49,1.85,0,.22-.58.41-.52.75l.75.56c-.05.41-.69,1.07-.72,1.36-.03.35.47.51.49.72.04.47-1.34,1.39.24,1.7-.4.36-.33,1.24-.94,1.23l.57.84-.36.75.15,4.71.58.1c-.18.41-.2.93-.75.94l.75.84-.57.95.39.37-.76.76.39.19c-.45.4-.15,1.17-.2,1.22-.07.06-1.34.35-1.61.77h-.18c-.17-.66-.38-.17-.85-.29-.43-.11-.62-.66-.75-.73-.17-.09-.39.13-.66-.1-.45-.39-.44-.79-1.29-1.5-.71-.59-.85-2.31-1.26-3.22l-.36.18c-.36-.37-.16-1.27-.3-1.49-.47-.74-1.09-1.05-1.62-2.12-.12-.24-.53.02-.17-.71h-.57s.21-.63.21-.63c-.61-.36-.83-1.33-1.16-2l-.75.19v-1.13s-.57.19-.57.19c-.22-.6-.25-.82.19-1.32-.65.07-1.09-.62-1.04-1.23.02-.19.31-.34.26-.7-.08-.55-.68-1.48-.55-2.22h-.94c-.11.33.26.42.29.65.08.57-.38,1.42-.39,1.89,0,.54.16.92.13,1.71,0,.07.58.28.46,1.13-.08.32-.41.45-.68.27l-.14,1.24.52.36c-.6.57-.5,1.26-.75,1.98h.57s-.14.35-.14.35l.33.12c-.71.38-.46,1.46-.94,1.42.07.54.64-.06.56.46-.09.61-.87.93-.75,1.89l.57.19-1.45,1.99-1.64-.36-.11-.59-.75.1-.15-.45.34-.12v-.37s-.76-.57-.76-.57c.08-.27.7-.8.7-.94,0-.16-.27-.37-.26-.56,0-.23.68-.94.5-1.42l-.75-.19c.53.09.22-.4.38-.83.12-.34.43-.65.48-.86s-.36-.5-.3-1.03c.04-.39.47-1.37.76-1.72l-.57-.1.56-1.23-.37-.74c.79-.22.92-1.86,0-1.61-.07-.44.5-.88.54-1.06.05-.23-.26-.53-.28-.82-.04-.45.33-1.04.26-1.45-.1-.61-.94-1.72.24-1.95l-.34-.27.34-1.99h-.57s0-.28,0-.28c.83-1.02.28-2.61.51-3.64.03-.13.74-1.76.81-1.84.39-.46.82.18.77-.44l.46.17c-.2.57.19.27.4.44.85.69,1.34,2.31,1.82,2.72.11.09.42,0,.48.07.11.12-.03.45.04.58.1.2.97.78,0,.9v.18c1.07.16.42,2.28,1.49,2.08.15.15-.19,1-.1,1.22.17.43.62.42.67.49.02.04-.22.44-.14.78.11.45.89,1.29.73,2.03h.66c.18.3.01.7.09,1,.05.18.54.05.18.5.86-.17.64.7.89,1.28.1.23.41.21.44.36.12.63-.44,1.17.19,2,.17.22.41.1.5.18.17.15.14.44.27.59.39.45.86.37.54,1.24l.56-.19c.13.47-.06.96.17,1.42.12.25,1.45,1.59,1.63,1.59.49-.01-.04-1.23.28-1.5l-.57-.19.38-.11c-.44-.83.78-1-.38-1.49.57-.49.77-1.3.19-1.89.69-.13.09-.78.08-1.13,0-.22.28-.44.26-.72s-.39-.6-.44-.87c-.07-.36.73-1.24-.46-1.15.45-.6.04-1.16.02-1.61,0-.09.31-.05.33-.17.14-.7-.61-1.99.41-2.27-.77-.24-.07-1.11-.06-1.61s-.29-.98-.26-1.38c.04-.54.69-.95.28-1.6l-.53-.03c1.01-.67.22-1.91.27-2.08.05-.19.31-.36.38-.55s-.12-.5-.07-.55c.05-.07.6-.1.79-.21.1-.06.82-.55.86-.58s-.19-.4.13-.53c1.23.19.78.54,1.09,1.07Z"/><path d="M16.01,5.7l.04.7,1.69.5v.65c1.43-.35,1.06.88,1.55,1.27.26.21.7.16.9.34.35.3-.12.69.91.7l.03.52.56-.19c-.3.68.08,1.08.13,1.46.26,1.87,1.11,2.87,1.63,4.61.37,1.25.32,2.13.4,3.24.04.49-.37.94.47,1.05-.45.76-.33,1.5-.14,2.35.02.1.32.07.32.17-.03.47-.62,1.78.39,1.43.21.35-.87,1.16-.58,2.16l.58.19c-.22.91-.37.51-.75.66-.05.02.18.33.18.48,0,.3-.18.54-.18.72,0,.11.29.11.37.26.25.49-.19,1.66-.38,2.2l.39.18c-.36.5-.41,1.11-.58,1.65-.27.83-.1,1.01-.28,1.68-.22.83-.82,1.96-1.21,2.57-.6.91-1.24,2.17-.75,3.25l-1.11.21-.11,1.69c-.46.35-1.22.59-1.61,1.02-.3.32-.34.73-.57.94s-1.49.67-1.87.79c-.48.15-.7-.36-.85.27l-1.11-.4-.39.58c-.45-.32-.44-.85-.85-1.22s-.93-.26-1.09-.35c-.63-.35-.89-.48-1.54-.79-.88-.43-1.26-1.32-1.61-2.16l-.66.37-.11-1.7c-.55-.12-.56-.75-.7-.89-.11-.11-.4.02-.53-.16-.46-.62.17-3.06-1.11-2.9.35-.44-.11-.34-.17-.52-.28-.74-.43-1.6-.51-2.24-.07-.55-.37-2.84-.12-3.42.09-.22.41-.2.44-.36.26-1.38-.28-4.53.25-5.67.04-.09.38-.11.46-.34.24-.73.4-3.79.47-4.65.03-.49.68-1.35.78-1.64.15-.41-.33-.82.67-1.23l-.38-.19c.35-.44.31-.99.48-1.4.11-.25.61-1.44.69-1.57.16-.29.57-.31.64-.68.1-.5-.35-.87-.17-1.28s1.08-.74,1.28-1.38c.11-.34-.2-.69-.02-.94.1-.14.61-.23.87-.46,1.38-1.19,2.08-3.1,4.49-2.14ZM15.8,9.5c-1.16-.38-2.84.91-2.62,2.19l-.52.03c-.02.74.11,1.32-.59,1.78l.56.19c-.11.39-.58.52-.72.79-.18.34-.5,1.67-.68,2.13-.73,1.84-1.65,3.99-1.9,5.92-.02.2-.34.4-.28.66l.55.28c-.47.54-.22,1.1-.28,1.62-.03.21-.26.47-.28.83s.21.97.18,1.01c-.05.06-.36.08-.43.2-.3.57-.26,1.25.07,1.79l-.75.29c-.07.3.27.08.37.32.03.07.33,1.39.33,1.46-.03.21-.42.34-.44.56-.05.35.47.96.12,1.42h.55c.08.89.16,2.3.69,3,.14.19.56.26.63.51.06.23-.18.53-.14.71.06.26.59.3.7.61.1.29-.05.87.05.99.05.06.56.05.79.2.34.22.9.89.7,1.33l.57-.12c.06.77.53.59.68.73.26.25.22.65.73.7.61-.08,2.8-.63,3.01-1.12.12-.29-.37-1.04.66-1.14l-.38-.28c.73-.57.33-.76.41-1.11.06-.27.71-.41.71-.58,0-.08-.36-.22-.28-.47.25-.74,1.16-1.12,1.01-2.18l-.35-.18c1.21-.82.93-1.55,1.04-2.73.03-.32.26-.67.27-.86,0-.09-.38,0-.38-.35-.01-.93.59-1.28.74-1.76.11-.36-.12-2.11-.05-2.77.15-1.33-.02-.53-.11-.98-.13-.7.67-2.01-.36-2.15-.03-.04.35-.76.37-1.04.02-.35-.32-.22-.35-.35-.24-1.13.43-3.78-.79-4.71l.31-.57c.03-.44-.45-.47-.46-.5-.02-.05-.07-.66-.18-1.06-.08-.3,0-.64-.08-.86-.13-.39-.65-.25-.71-.32-.16-.17.14-.66.15-.84,0-.05-.59-.6-.67-.75-.04-.07.07-.39-.03-.54-.05-.08-1.32-.75-1.49-.91-.1-.09-.43-.95-.66-1.02Z"/><path d="M139.81,7.23c.09.1.06.37.16.48.18.21.47.27.57.49.2.5-.22,1.82.02,2.52.14.41.43.47.44.52.03.26-.19.61-.2.92-.01.85.08,1.7,0,2.54l.56-.19-.48,3.11c.24.45.3.73.11,1.22l.57.09-.73.74c.36.6.02,1.61.73,1.89l-.73.74c.6,1.14-.19,2.1-.02,3.31.92.17.68-.59.88-.94.83-1.48,1.58-3.14,2.5-4.38.14-.19.4-.19.53-.46.38-.76.02-1.93.13-2.13.13-.26.64-.35.76-.57.22-.38.07-1.08.21-1.53.18-.59.85-1.25,1.04-1.77.11-.29-.03-.67.07-.85.15-.26.51-.31.65-.49.79-.99,1.03-2.41,1.57-3.51.3-.62,1.06-1.06.99-1.84l.2-.16c.46.19,1.15.11,1.55.29.36.16.18.86.79.82l-.02.36c-.72.11-.4,1.21-.17,1.71-1.6.12-.57,1.25-.57,1.42,0,.12-.66.4-.83.65-.14.2.07,1.05.08,1.32l-.56.09.36.54c-.22.34-.63.54-.79.92-.23.54-.41,1.78-.81,2.39-.21.31-.59.34-.64.41-.09.13.28.63.16.99-.02.06-.93.93-.93,1-.02.25.27.57.11.82-.1.16-.5.22-.58.37-.1.17.16.56.11.83-.02.14-.39.11-.4.23,0,.19.23.46.21.72-.01.12-.29.12-.31.16-.07.15.09.33-.15.52-.22.17-1.04.5-1.18.8-.09.18.14.72.02.9-.17.27-.96.46-1,1.06-.02.37.84.72-.46,1-.55.13.95,1.58,1.04,1.64.12.07.71-.06.89-.12l.2.75.76-.11c.41.69,1.1,2.4,2.06,1.8-.13,1,.52.81.7.99.27.26.94,1.1,1.27,1.46.67.73,1.3,1.56,1.25,2.62l1.12.21c.07.49,0,.48-.38.65.16.87.98.83,1.25,1.3.22.39.44,1.63.56,1.83.19.31,1.57,1.65,1.69,1.88.1.21-.09.51-.02.76.11.41.6.6.68,1.04.01.08.02,1.56,0,1.64-.1.44-1.78.88-1.52,1.65l-.75-.19.19-.75h-1.13c.07-.7-.32-.99-.52-1.46-.22-.52.02-1.44-.99-.99-.14-.3.19-.99.15-1.1,0-.02-.24-.04-.33-.17-.94-1.25-.89-1.63-1.43-2.87-.2-.47-2.02-2.65-2.47-3.28-.56-.8-1.1-1.58-1.68-2.37-.4-.55-1-.89-1.5-1.33l-.19.56c-.56-.32-.62-1.06-1.02-1.43-.74-.68-2.01-.58-2.92-.81-.42.11-.44,2.11-.39,2.46s.47.34.48.45c.02.38-.31.59-.32.75-.02.37.63.8-.25,1.5l.58.2-.39,2.34h.57c0,.78-1.08,1.44,0,1.98l-.57.85h.76c-.32.93-.13,1.96-.76,2.74.27.17.47,0,.38.46-.48.2-1.1.24-1.55.39-.22.07-.12.81-.82-.21l-.64.19c-.12-.39-.01-.85-.17-1.23-.27-.64-1.65-1.61-.21-1.88-.91-1.13-.17-1.92-.23-3.16-.03-.55-.53-1.45-.54-1.54-.09-.89.7-2.7.59-3.96s-.57-3.26-.39-4.51c.04-.29.36-.5.37-.77.03-.54-1.02-1.06-.18-1.89l-.38-.17c.65-1.03.04-2.28.57-3.4l-.38.09c.29-1.14-.32-2.52.37-3.49-1.2-.74-.19-.81-.07-1.12.05-.12.11-2.4.07-2.61-.03-.18-.42-.05-.39-.4.04-.43.42-.66.52-1.01.13-.42-.14-1.17-.09-1.6.07-.73.72-.73-.23-1.17.71-.55.25-1.15.26-1.32.08-.75.3-1.91.7-2.58.27-.44.8-.74,1.25-.29Z"/><path d="M127.67,5.42c.36.31.78.23,1.02.56.43.6.36,1.51.63,2.17.21.51,1.37,1.73,1.45,1.98.12.39.02.87.16,1.34s.68.83.73,1.33c.05.42-.62,1.82.65,1.72l-.39.84.39.21c-.26,1.18.24,2.09.27,3.38s.44,2.9.12,4.35l.37.19-.39,2.14.68.18-.03.77.68.18-.17.67.37.2v1.39s-.97.32-.97.32c-.16,1.14-.54,1.89.04,2.99l-.4.36c.6.5.22,1.11.31,1.63.21,1.33.22,1.99.17,3.35-.02.5-.32,1.07-.09,1.71h.75c-.16.31-.11.82-.56.76l.38.29-.27,3.68c-.46.72-1.33,1.41-2.25,1.09-.39-.14-.31-.7-.5-.97-.33-.49-.96-1.03-1.1-1.79-.07-.4.34-.63.37-1.08.03-.56-.32-.73-.36-.98-.01-.08.02-1.13,0-1.51-.01-.35.15-1.48.11-1.64-.07-.25-.52-.23-.55-.41-.06-.34.39-.87.48-1.29.26-1.26-.21-2.5.1-3.76l-.57-.11c.01-.51.25-1.85.1-2.26-.19-.53-.3.24-.63.28-.43.05-1.09-.13-1.64-.1-.94.05-2.26.28-3.2.21-.37-.03-.26-.32-.37-.34-.45-.09-1.1,0-1.6-.23-.05.04-.2,1.12-.18,1.2.05.14.36.12.37.23,0,.1-.25.99-.33,1.17-.1.24-.39.23-.4.26-.03.08-.21,1.39-.22,1.59-.07.89.87,1.46-.2,1.86v.37s.58.38.58.38v.38s-.39.2-.39.2l.21.54-.39.11.37.47-.58.41c.08.43.26.85.23,1.3s-.44.12-.4.46l.38.09c-.06.31-.49.48-.51.51-.32.75-.37,3.34-.46,3.5-.04.07-.34.09-.43.23-.2.33-.2.75-.48,1.04-.14.11-.27.08-.43.05-1.17-.18-1.09-.87-1.65-1.56.98-2.38.87-4.9,1.31-7.37l-.36-.19c.14-1.38.29-2.7.55-4.02l-.55-.1c.76-1.23.28-2.72,1.14-3.97l-.38-.27.35-.47c-.88-.54-.07-1.44.1-2.27.24-1.13.26-2.32.68-3.4l-.38-.35c.84-.95.4-2.08.48-3.03.08-1.03.67-2.75.8-3.8.05-.42-.21-1.25-.02-1.7.15-.37.63-.02.23-.87.66-.22.4-.73.6-1.1.16-.31.98-.6.17-.8.13-.61.6-.4.73-.49.09-.07.47-1.83.63-2.11.28-.49,1.15-.62.72-1.63.64.42,1.67-1.32,1.81-1.33.38-.02.61.32.74.32.15,0,.36-.39.72-.3.31.07.38.52.57.68ZM126.62,9.3c-.12-.1-1.03-.29-1.08-.24.14.88-.64,1.28-.9,1.84s-.03.99-.14,1.36c-.48,1.7-1.4,2.81-1.25,5,.02.35.36.25.4.4.08.36-.67,1.95-.74,2.81-.1,1.29-.33,2.3-.47,3.57-.04.4-.15.96-.13,1.32.02.4.48.15.4.55l-.56.57,1.04.46c.5-1.69,2.11-.41,2.59-.74.12-.08.14-.33.16-.34.06-.02.88.13,1.24.09.99-.1.63.02,1.27.05.14,0,1.02-.38,1.04-.47.2-.48-.39-.47-.39-.58-.03-2.12-.25-4.15-.33-6.23-.07-1.93-.3-2.58-.71-4.39-.03-.15.41-.8-.1-1.32l-.36.18c-.25-.4,0-1.02-.1-1.34-.12-.37-.43-.33-.46-.48-.1-.47,0-1.71-.43-2.08Z"/><path d="M179.56,7.05c1.21.91,2.85,2.43,3.9,3.54.28.29.76.7.83.77.28.34-.09.97.99.52l.03.53.53.03-.09.76c.66.3,1.73,1.49,2,2.14s.51,1.77.81,2.5c.25.6.43,1.1.48,1.85.08,1.17-.27,2.84.74,3.57l-.54,1.13.38.18c-.1.1-.25.23-.28.37-.26,1.35.45.8.47.95.14.96-.8,3.26-.56,4.12.02.07.85.52-.2.88l.37.27c-.26.74-.99,1.27-1.19,2.04-.12.44.26.56.25.61,0,.14-.45.18-.56.43-.24.54-.91,2.72-1.05,3.34-.06.28.15.62.07.89-.12.38-.75.78-.86,1.22-.21.85.1,1.36-.53,2.3-.19.29-.52.31-.64.53-.26.49-.19,1.66-.37,1.97s-.54.19-.72.37c-.35.35-.53,1.3-.59,1.38-.24.32-.59.04-.77.18-.14.11-.15.47-.3.48-.48.06-1.26-.93-1.68-.2l-.28-1.31c-.07-.04-1.01.14-1.17.2-.18.07-.17.32-.38.42-.42.18-1.51.14-2.02.32l.02-1-.77-.32c.38-1.04.42-1.26.18-2.34-.08-.38-.41-1.71-.37-2.06.04-.33.37-.64.35-.93-.03-.32-.5-.67-.5-.79,0-.13.5-.35.54-.76.05-.47-.51-1.14-.57-1.71-.07-.79.66-2.07,0-2.23.66-.63.07-1.31-.01-2.06l.39-.3c-1.22-.23-.15-1.65-.03-2.36.13-.79-.44-1.39-.46-1.7-.02-.27.49-.84.58-1.2.14-.58.16-1.88-.66-1.82l.39-1.87-.38.09c-.31-.77.35-.96.35-1.02-.02-.77-.56-.89-.54-.95.04-.17.47-.52.49-.76.02-.21-.29-.98-.32-1.51-.03-.65.15-1.47.39-2.06l-.56-.29v-.28c.12-.29.75-.14.56-.66h-.57c.76-1.16.58-2.55.76-3.95h-.57s.32-.47.32-.47l-.32-.38.75-.29-.74-1.23c.87-.31.46-.92.56-1.29.8-2.92,1.66-2.33,3.69-.8ZM179.84,12.04c-.27-.25-.48-1.45-.97-1.66.06.48-.15.93-.16,1.4-.02,1.11.37,2.77.33,3.98l-.36.17.14.47.61.28c-.27.32-.42.71-.39,1.14.02.35.38.25.4.4.18,1.01-1.47,2.54,0,3.17l-.57.84h.57s0,.28,0,.28c-.64.84-.12,1.14-.08,1.7s-.41,2.89-.31,3.55c.02.13.33.1.38.24.08.25-.29.87-.31,1.12-.11,1.5.31,3.34-.25,4.69.9.43.36.39.26,1.16-.03.27-.09,1.54-.04,1.67.07.17.45.16.5.38.06.26-.41.78.21,1.12l-.56.28.39.28c-.13.87-.63.51,0,1.12l-.55.94.9,1.14c-1.13.47-.06.65-.06,1.13,0,.08-.82,1.62-.21,1.6.79-.28.76-1.01,1.06-1.39.15-.18,1.28-1.27,1.3-1.38.07-.34-.21-.89-.15-1.13.09-.4.46-.55.47-.72,0-.09-.24-.25-.23-.38.09-.96,1-.9,1.05-1.16-.6-1.67-.1-1.05.49-1.8.05-.06.7-1.36.72-1.44.08-.41-.3-.9-.24-1.23.05-.26.61-.56.76-.92.29-.67.16-1.65.34-2.27.05-.16.36-.13.38-.25.03-.24-.2-.54-.15-.87.08-.6.54-1.37.51-1.91-.02-.39-.35-.79-.36-1.16-.02-.6.64-.89,0-1.3.97-.35.01-.47-.01-.59-.09-.47.04-1.61.57-1.85l-.58-.4.19-.55-.35-.34.55-.58c-.31-.97-1.09-1.14-.76-2.16-1.26-.09-.65-.95-.85-1.54-.12-.35-.47-.61-.56-.92s.15-.55-.1-1.01c-.36-.66-.74-.25-.92-.4-.4-.31-1.07-2.09-2.03-2.74-.42-.29-.92-.19-.96-.22Z"/><path d="M25.53,56.26c.02.06.28.07.31.2.07.38-.24.77-.2,1.07,0,.08,1.2.86-.18.87l.38.28-.38.28.56.09c-.13.57-.23,1.83-.19,2.44.03.47.32.87.34,1.17s-.61,1.21-.52,1.76l.47-.56,2.27.94-.1-.56c.71-.31.94.56,1.06.58.21.03.51-.2.74-.19.35.01.46.44.84.36-.59-.65,1.27-1.21.2-1.59.14-.26.24-.55.26-.84.08-1.43,0-3.08.1-4.45.03-.37.4-.26.4-.39.01-.29-.34-.78-.3-1.12.03-.22.41-.51.48-.95.12-.77-.51-2.11.33-2.57l-.14-.33c.61.02,1.04-.31,1.42-.76,0,.41.57.3.66.5.22.5.18,1.44.34,1.87.11.29.41.28.42.38.04.39-.33.71-.32.91.04.47.27,1.58.28,2.07.02.96-.16,2.04-.17,3.01l.58.1-.57,1.41c.39-.08.61,1.67.58,1.86-.02.13-.37.09-.38.23-.01.12.16.33.11.52-.05.2-.32.59-.28.78.02.09.25.08.28.14.06.14-.27.27.26.42-.45.58-.59,1.56-.47,2.25.11.61.82,1.13.09,1.8h.75c.08.06-1.12,1.4,0,1.51v.18c-.57-.11-.22.71-.39,1.18-.06.17-.36.13-.36.25-.02.53.02,1.12.51,1.28-.52.89.22,1.07.21,1.13-.02.64-.51.92-.54,1-.29,1.03,1.08.9.18,1.94l.56-.19c.04.06,0,1.26-.04,1.42-.1.4-.38,1.16-.46,1.75s.08,2.7-.37,2.84l-2.51-.06c-.69-.6-.72-1.53-.96-2.22-.07-.2-.6-.15-.36-1.14.07-.31.19.1.23-.96.03-.76.46-2.2-.6-2.27l.19-1.04.37.19c-.32-.51.35-1.43-.37-1.32v-.18c.92-.19,1-1.75,0-1.89l.37-.37h-.57s.57-1.04.57-1.04l-.53-.36.44-1.62c-.98-.22.11-1-.65-1.2l.17-.86c-.5.28-1.41.34-1.98.28-.33-.03-.64-.73-.85.28-.78-.51-1.5-.67-2.45-.56v2.26s.75.1.75.1c-.22.47-.26.99-.4,1.45-.04.12-.46.19-.31.61.04.12.27.1.28.19.18,1.43,0,3.34.04,4.81l.94-.19c-.23.81-.15.94-.94,1.22l.75.66c-.72.83-.47,1.37-.17,2.3.05.16.27.15.31.24.24.71-.4.76-.47.88-.03.06.13.24.09.29-.83,1.02-1.85,1.41-3.1.9-.06-.02-.37-.81-.71.09-.26-.1-.36-.75-.37-1.03-.02-.94.14-1.73.25-2.59.13-1.04-.72-.91-.73-1l.4-1.5-.39-.2.52-.56c-.52-.74-.7-1.67-.62-2.55.03-.37.34-.85.3-1.19-.02-.12-.32-.11-.37-.27-.03-.1-.18-1.03-.17-1.08.03-.11.41-.12.45-.45.03-.26-.22-.57-.24-.95-.04-.76.75-.8-.24-1.24.7-.16.95-1.78.36-2.07-.24-.12-.5-.02-.76-.23-.18-.14-.78-1.23-.72-1.46l1.64-.71c.37-.34.03-.9.09-1.16s.43-.38.49-.63c.11-.42-.39-1.47-.54-1.66,0-.18.33-.02.38-.22.24-.92,0-3.21.02-4.31l.35-.18-.53-.31-.04-.43c.58-.17,1.03-1.43.38-1.51v-.37c1.09-.57.52-3.12,2.35-2.55.43.86.43,1.49.51,2.37.02.24.25.42.26.56.05.59-.63.72-.22,1.72Z"/><path d="M41.24,5.16s.24.4.62.44c0,.75.27,1.49.27,2.24,0,1.39-.82,3.48-.86,4.71-.01.36.41.18.42.55,0,.26-.15,1.21-.23,1.46-.06.18-.8,1.16-.84,1.55-.06.54.36,1.17.43,1.67.08.61-.41,1.07-.44,1.36-.05.63.22,2.68.13,3.36-.02.13-.34.08-.36.2-.04.25.06,1.42.17,1.65.08.18.79.17.08.72-.2.16-.46-.04-.47-.02-.07.13.12.69.11.95-.02.43.05,1.51.03,1.63-.17.89-1.07,1.66-.14,2.79-.86.42-.63,2.01-.83,2.98-.08.38-.54,1.07-.59,1.45-.04.34.58.49-.28,1.04l.38.18c-.12.43-.68,1.39-.71,1.74s.45.76.35,1.25c-.04.19-.53.18-.72.64-.38.91.12,1.96-.23,2.56-.07.12-.38.11-.38.24,0,.24.27.49.17.89s-1.03,1.14-.75,2c-.24-.04-.95.33-1.01.32-.19-.02-.31-.31-.54-.27-.18.03-.36.34-.41.34-.11,0-.2-.4-.35-.51-.13-.1-.4,0-.52-.17-.14-.2,0-.95-.16-1.26-.13-.23-.54-.13-.69-.31-.13-.16.12-.47.08-.55s-.44-.09-.52-.33c-.1-.31.13-.54.16-.74,0-.08-.4-.1-.47-.45-.09-.43.41-.58.11-1.18-.09-.17-.72-1.32-.74-1.41-.09-.41.05-.94,0-1.38l-.56-.09.38-1.1-.76-.6.37-.36c-.45-.49-.17-1.17-.21-1.53,0-.07-.68-.32-.16-1.22h-.57s.19-2.15.19-2.15c-.56-.3-.42-1.86-.6-2.34-.66-1.7-.29-1.33-.35-2.92-.05-1.28-.89-1.77-.94-2.1-.1-.61.26-.83.29-1.13.05-.41-.71-3.81-.85-4.49-.02-.11-.94-.39,0-.78-1.12-.58-.12-2.6-.19-2.73,0-.02-.24.05-.36-.16-.72-1.29-.1-1.54-.19-2.59-.03-.37-.37-.25-.4-.41-.09-.47-.19-2.79-.11-3.26.12-.74.6-1.45.86-2.14l.38-.11c.08.46.58.58.71,1.08.31,1.16.25.94.71,1.94.32.7.4,2.44.55,3.44.08.53.52,1.2.6,1.63.15.81.16,1.88.25,2.71l.57.12c-.34,1.08-.15,1.98.02,3.09.09.59.12,1.16.21,1.67.07.44.39,1.57.9,1.28-.48.92.41,1.33.39,1.4-.21.61-.38,1.26.05,1.93.16.26.72.06.31,1.03-.07.17-.36.16-.35.23.03.3.41.99.49,1.52.06.41-.13.67-.12.92,0,.12.42.13.49.48.08.42-.41.71-.12,1.14l.37-.18.15.71-.34.14.89,3.04.05,2.02.37.21-.17.48c1.05.15,1.3-1.79.57-2.16,1.26-.6.39-1.15.56-2.06.08-.4.54-.65.56-1.14l-.56-.09c-.05-.49.52-.57.57-1.04.04-.36-.2-.68-.18-.94.02-.28.36-.45.33-.71-.02-.15-.32-.29-.26-.51.19-.79.94-1.85.79-2.81-.28-1.84-.05-1.06.21-2.51.08-.42-.32-.82-.28-1.13s.38-.6.36-1.17c-.02-.33-.98-.53-.02-.93-.77-.52.1-.94.25-1.65.11-.49-.39-.95-.05-2.07.32-1.02.06-.44.06-1.18,0-.24.31-.47.31-.75,0-.09-.35-.08-.39-.22-.21-.73.31-.61.46-.82.37-.51.13-1.95.11-2.36-.02-.48.51-.74.11-1.75-.02-.06-.34,0-.31-.13.09-.41,1.01-.82.91-1.33-.05-.27-.59-.15-.53-.46l.75-.47-.38-.18c.16-.67.6-.38.79-.49.28-.16.78-.41.97-.54.29-.19.24-.82.84-.52Z"/><path d="M160.59,62.93h.57c-.27.79-.8,1.05-.77,1.98.02.81.39.73.54,1.17.18.5-.35,1.48-.15,2.12.47.2.32-.35.5-.38.37-.07.76.17,1.08.14.72-.07,2.42-.74,2.84-.68.55.08,1.02.53,1.79.16.31-.71-.43-1.48-.48-1.99-.04-.42.19-1.41.08-1.86-.03-.12-.35-.08-.35-.19,0-.08.23-1.43.27-1.6.1-.45.48-.69.49-1.12l-.75-.09c1.57-1.15.04-2.92,1.98-3.86.16.49.97.84,1.12,1.12.08.14-.04.61.15,1,.22.45.68.59.82,1.17.06.25-.39,1.69-.3,1.79l.75-.19c-.04.38-.19,1.07-.16,1.41.07.66.54,1.05.53,1.12-.04.53-1.07,1.96.19,2.18-.66.76-.36,1.33-.38,2.26l.58.08c.17.23.13,1.08.19,1.31.04.16.66.1.27.5-.17.17-.55.12-.68.3-.27.38-.28,1.3-.17,1.76l.37-.19c.29.51-.19.96-.12,1.33s.45.37.46.39c.04.12-.2.33-.13.5.01.03.41.05.46.39.04.29-.37.86-.25,1.24.02.06.54.26.35.83l.55.02c-.39.6-.67,2.05.38,1.88l-.57,1.5h.75s-.55.86-.55.86l-.56-.11c.11.6-.41.63-.53.79-.07.09.18.61.13.77-.03.12-.56.24-.37.69-.13.17-2.39-1.29-2.58-1.56-.25-.36-.15-.92-.26-1.31-.05-.19-.52-.07-.17-.51h-.57c.53-.65.1-1.01.09-1.53-.02-1.16,0-1.66-.42-2.8-.31-.85-.22-1.24-.37-1.65-.08-.21-.4-.21-.43-.36-.12-.52.08-1.06.1-1.57l-.95-.37-.18.38c-.59-.41-1.26-.23-1.7-.94l-.37.38c-.55-.48-2.49-.61-2.72.13l-.02,1.94h.94c-.33.66.08,1.33-.76,1.6l.38.1-.37.37c1.27.46,0,.97-.01,1.05-.02.28.53,1.36.54,1.52.01.45-.96,1.1.23,1.01.11.36-.4,1.07-.37,1.12,0,.02.26-.04.38.13.59.88-.18.79-.33,1.09-.06.12.15.5.08.63-.03.05-.66.52-.7.9-.38.03-2.55.37-2.63.26-.05-.07.07-.39-.04-.51-.1-.11-.47-.04-.62-.23-.52-.66.22-1.31.1-1.95-.03-.14-.34-.13-.44-.35-.47-1.04.3-.85.35-1.26.04-.33-.37-.7-.11-1.15l-.94.19c-.07-.09.19-.83.29-.94.31-.33.73.01.66-.47-.05-.38-.64-.66-.19-1.22l-.76-.19c-.07-.47.57-.79.56-.84-.07-.35-.43-.98-.35-1.52.09-.6,1-1.32-.41-1.41l.2-.65-.36-.18c.31-.64-.27-1.65.73-1.81-.64-.71-1.08-1.49-.73-2.52.1-.28.5-.16.55-.58.06-.46.02-2.19-.4-2.28l.38-1.13-.37-.16c.02-.48.6-.74.68-1.04.36-1.38-.29-2.33.28-4.01.07-.2.51-.07.17-.52.49-.29,2.3.5,2.43.87.1.29-.13.71-.1,1.01.14,1.19.6,2.45.78,3.67.02.16-.17.6-.1.66Z"/><path d="M200.17,58.22s-.19.35-.15.6c.06.38.3.77.28,1.16-.01.21-.63,1.92-.72,1.97h-.7c.03-.52-.54-.69-.63-.99-.11-.36.1-.8-.05-1.06-.04-.07-1.32-.4-1.48-.37-.14.03-2.02,1.78-2.1,1.9-.04.07-.51,1.35-.55,1.48-.15.51.43,1.04-.87.95.3.72-.29,1.12-.2,1.99.03.29.57.34.31.75-.48.76-.91.49-.87,1.87.02.72.26.99.3,1.33,0,.07-.33,1.29-.27,1.39.08.13,1.35.52-.02.97.55.51.05,1.13.18,1.78l.58.1c0,.5-.41.89.19,1.03-.91.86.49,1.42.63,1.97s.14,1.01.63,1.52,1.59,1.3,2.32,1.31c-.32-.66.25-.77.48-1.31.12-.28,0-.7.13-.91.05-.09.45-.2.62-.41.69-.83,1.02-2.01,1.04-3.09-.84-.28-1.1-1-1.98-.49l-.21-.4-.83.19c-1.04-2.94-.04-2.29,2-2.79,1.35-.33,1.91-.71,3.51-.52,1.05.12,2.01.59,3.07.65.31.22.18.7.32.92.08.13.49.19.51.33,0,.07-.51,1.26-.55,1.32-.31.46-.98.65-1.24,1.23l-.65-.38v.75s.37-.19.37-.19c.34.51-.04,1.03,0,1.39.01.13.33.11.35.21.13.6-.29,1.5.8,1.42-.15.37-.17,2.1-.05,2.4.27.69,1.09.38.63,1.63l.51.16c.92.82-2.04,3.22-.53,4.1-.37-.16-.87.06-1.18-.03-.08-.02-1.32-.65-1.38-.71-.21-.21-.21-.54-.35-.69-.28-.3-1.09-.76-1.19-1.07-.08-.25.18-.74-.04-1.14-.11-.2-.38-.09-.5-.18-.22-.17-.35-.87-.82-.38.06.62-.14.86-.76.82l.19.37c-.61.17-1.84.4-2.34.74-.22.15-.07.52-.11.59-.04.05-1.11-.23-1.27-.32-.39-.22-.11-.82-.9-.09-.4-.09-.41-.82-.5-.88-.21-.17-.74.24-1.02-.76l-1.96-.77.19-.94h-.54c.23-1.86-2.53-.89-1.15-3.2h-.55c.26-.73-.35-.97-.36-1.03-.02-.18-.17-2.06-.15-2.17.05-.31.4-.55.31-1.01-.02-.12-.3-.09-.34-.21-.13-.43.41-1.29-.23-1.32.36-.18.6-.38.57-.85h-.75s.58-1.4.58-1.4l-.57-.4.56-1.49-.39-.28c1.65-.29.92-1.93.81-3.13,1.31-.68.7-1.95,1.63-2.81l-.75-.28c.43-.18,1-.73,1.3-1.07.71-.81,1.44-1.96,2.14-2.65.11-.1.96-.77,1.02-.78.28-.06.53.17.7.17.12,0,.08-.35.23-.38.13-.03,2.45.17,2.58.21.26.08.3.5.51.63s.54.08.76.2c.18.1,0,.48.25.67s.66.16.68.18Z"/><path d="M168.28,5.15c.1.06.11.44.34.51.31.09.7-.32,1.03-.09.09.74.44,1.02.9,1.55l.03.32-.75.8.18.45c-.36.16-.87.1-1.18.21-.09.03-.65.57-.79.57-.62,0-.96-.57-1.33-.58-.42-.01-.77.5-.95.5s-.32-.44-.66-.32v.57c-.61-.21-.73-.11-.86-.77-.4.07-.92-.08-1.28.01-.21.05.07.74-.97,0-.38-.03.39,3.7.08,4.02l.38.21c-.99.89.63,2.58-.57,3.02,1.18.91.13,1.6.04,2.29-.03.25.64,1.86.62,2.61-.01.43-.44.86-.44.94.03.84,2.14-.1,2.5.48.08-.71,1.97-.2,2.41.03.48.25.9,1.76,1.26,2.22-1.24-.06-.99.42-1.6,1.32l-.37-.75c-.68.72-1.36-.24-1.7.75-.83-.75-1.68-.52-2.36.29l.56.37c-.15.26-.44.53-.51.8-.52,1.87-.03,3.87-.33,5.79-.05.28-.38.46-.4.76-.02.4.46.79.5,1.15.04.42-.32.69-.33,1.08,0,.63.52,1.06.61,1.43.08.34-.22.76-.18,1.18.08.84.79,2.93,1.12,3.65.17.38.52.81.67,1.22l.19-.57c1.05.37,1.13-.64,1.69-1.23l-.37-.47c.28-.08.76-.28.95-.48.17-.17,0-.4.03-.43.17-.17.74-.09.92-.34.19-.27.16-1.01.34-1.28.15-.21.54-.07.58-.11.08-.08-.51-.86.63-1.37.95-.42,1.7.46,2.02,1.27-.8.18-.06,1.1-.19,1.66-.04.19-.42.22-.56.43-.28.45-.15,1.16-.77,1.5l.57.28c-.04.65-.74.64-.89.8-.15.14-.08.58-.29.85-.16.2-.73.33-.98.63-.14.17-.3.6-.59.99-.39.53-.02.94-1.2.5v.54c-1.49.14-2.62,1.37-3.7-.33l-.82.35c-.16-.28-.04-1.01-.17-1.19s-.73-.17-1.12-.81c-.42-.69-.28-1.33-.45-1.86-.14-.44-.7-1.35-.89-1.88-.3-.81,0-1.29-.06-1.71-.03-.17-.43-.08-.56-.7-.04-.18-.26-2.1-.25-2.21.04-.33.42-.35.45-.46.05-.17-.24-.86-.26-1.13-.02-.22.57-.39-.27-.94l.03-.26.34-.03v-.37s-.38-.11-.38-.11l.59-1.68-.4-.37.59-1.69c-.74-.18.03-.94.14-1.52.21-1.09-.47-1.71-.48-2.23,0-.33.56-2.07.7-2.49.04-.12-.27-.06-.38-.22-.17-.25.28-2.27.31-2.82.13-2.5-.14-5.06-.09-7.48.02-.99.51-2.55.56-3.61,0-.1-.72-.89-.86-1.04-.19-.19-1.08-.35-.13-.58-.46-.92.35-.85.56-1.16.29-.45-.39-.6.87-.31.22-.63.42-.29.94-.27.4.01.59-.41.78.26.63-.43,1.98-1.02,2.45-.22.6-.8,1.16-.33,1.7-.39s2.17-.51,2.51-.3Z"/><path d="M71.06,53.89c-.27.96.3.86.53,1.25.6,1.04-.26,2.03-.16,2.58.02.12.3.13.36.27.23.57.45,2.17.35,2.75-.04.21-.38.37-.33.49.02.04.64.23.71.48.18.6-.41,2.14-.29,2.45.56,1.43.26.88.15,2.27-.03.41.29.93.18,1.41.68.16.08-.45.43-.72.63-.49.74-.31,1.13-1.36.56-1.47,1.18-3.17,1.97-4.65.47-.88,1.36-1.93,1.93-2.79l-.38-.18c.83-1.17,1.56-2.31,3.21-2.17.1,1.4-.63,2.59-1.05,3.9-.08.23.05.6-.07.85-.13.26-.53.26-.67.53s.07.66-.06,1.04c-.2.55-1.12,1.32-1.31,1.64-.09.15.41.68-.41.71l.56.28c-.18.3-.66.42-.83.67-.2.28-.38,1.12-.61,1.49-.52.86-.27.52-.52,1.53-.09.36-.56.38-.59.72-.02.24.26.38.21.59-.1.43-.71.7-.49,1.56.03.12,1.98,1.03,2.27,1.14.18.07.47-.12.54-.06.08.06.1.55.31.75.29.27.84-.01.66.75.31.07.07-.7.57-.29.64.52-.04.88.08,1.04.22.41,1.28.69,1.38.8s.06.44.23.62c.14.15.9.64.92.69.07.18-.17.38-.13.5.01.04.62.56.65.58.33.21.61-.02.63.01.33.65.5,1.28,1.01,2,.11.15.5.24.5.35,0,.08-.48.23-.25.8.2.48.88.28,1.11.61.17.25.11.89.25,1.25.09.26.32.25.36.35.26.7-.3.67-.4.85-.17.29-.1.75-.37.96-.24.19-.6.09-.81.22-.42.26-.16.86-1.28.52s-.85-.83-1.36-1.66c-.32-.51-1.06-.91-1.13-1.04-.1-.17,0-.46-.1-.65-.21-.35-.98-.39-.7-1.19l-.56.38v-1.69s-.76,0-.76,0l.17-.55c-.24-.29-1.04-.39-1.08-.44-.28-.27-.19-.97-.26-1.18-.02-.07-.58-.25-.33-.85l-1.12.18c-.19-.67-1.23-2.22-1.79-2.64-.27-.2-.5,0-.67-.1-.3-.16-.68-.7-.37-1.01-.36-.05-.46.1-.53.43-.04.22.34,2.27.43,2.67.07.32-.45.55.47.47-.46.9-.26,1.3-.19,2.16.02.24-.19.53-.15.73.05.24.46.4.48.58.02.26-.63,1.3.03,1.89-.02.25-.69.26-.83.45-.08.11.26.82-.57.91-.49-.61-1.24-.67-1.77-1.19-.2-.19-1.01-.95-1.05-1.02-.18-.27.1-.87-.46-.76l.34-.27c.2-1.05-.35-1.76-.15-2.74h-.56c.35-.65-.31-1.32.38-1.79-.97-.43.18-1.08.2-1.16.09-.36-.46-1.59-.48-2.23-.03-.78.71-1.82.09-2.26l.36-.17c-.29-.78-.28-1.8.02-2.56l-.57-.1c-.1-.77.64-1.93.59-2.23-.03-.17-.4-.14-.53-.39-.13-.26.54-1.2-.24-1.32.04-.28.66-1.23.68-1.31.09-.58-.51-1.62-.11-2.36h-.54c-.34-.91.63-1.02.51-1.84-.06-.42-.34-.68-.34-.89s.27-.4.28-.56c.03-.61-.16-1.37.16-1.99.55-1.03.97-.9,2-.75Z"/><path d="M222.36,57.14c.14.12.12.44.24.56.29.3.78.6.98.95.48.83-.34,2.39.9,2.87-.95.74-.19.99-.25,1.51-.03.29-.67.44.02.5-.28.5.56.36.39,1.04l-.53.52c.44.31.42.59.19,1.04h.57c.1.49-.41.75-.38,1.21.04.62.73,1.29.75,1.37.04.17-.26.92-.17,1,.2.16.12-.26.64.49.06.09.26.1.29.21.03.13-.14.53-.14.76,0,.83.07,1.8.06,2.51,0,.25-.38,1.03-.29,1.11h.57s-.38.94-.38.94h.57s-.29,1.52-.29,1.52c.55.18.53.39.48.93h-.76c.32.5-.12,2.02-.38,2.49-.25.45-.99.27-.93,1l-1.71.09c.22-.68-.33-.7-.45-1.16-.2-.79.06-1.83-.25-2.75-.12-.35-.62-.08-.24-1.22.05-.15.35-.14.35-.23-.09-1.26-.46-2.25-.61-3.41-.07-.53.13-1.08,0-1.61-.14-.19-2.56-.4-2.89-.23-.29.15-.22.64-.7.43-.21-.09-.22-.45-.32-.52-.04-.03-.7.12-.91-.04l-.09.56-.37-.54-1.2.64.36.76c.01.38-.65.05-.22,1.13.15.37.89.64-.16,1.04l.52,1.66-.34.21.38.12-.2,1.01.58.1c.08.55-.29,1.08-.29,1.53-.01.77.51.86-.19,1.57-.9.9-1.89.44-2.93.09-.11-.56-.2-1.09-.39-1.64-.05-.15-.45-.72-.54-.86-.31-.48-.42-1.1-.23-1.66.12-.34.85-.45-.13-1.1.16-.3.1-.73.54-.67l-.71-.66.52-1.98h-.57c.27-.42-.13-.94-.1-1.14.05-.37.43-.37.44-.39.04-.1-.16-.37-.14-.6.06-.66.5-1.36-.39-1.72l.54-.59c-.37-.48-.17-1.17-.36-1.62-.07-.17-.39-.13-.37-.23.08-.44,1.27-1.12,0-1.05-.2-.66.42-1.94.38-2.32,0-.06-.58-.23-.54-.97.02-.39.29-.68.32-.99.04-.35-.09-1.52-.07-1.64.19-1.13.99-1.83,2.06-1.02.54.41.55,2.06,1.24,2.34l-.57.66.39.12c0,.45-.08,1.88.02,2.19.13.44.72.45.74.62.06.43-.53.66-.35,1.44.22.95,0,.7.04,1.1.04.35.51.69.31,1.1l.55.02-.18,1.12c.64.48,1.09-.5,1.24-.54.64-.14,2.17-.02,2.42-.58,1.4.84,1.48-.17,1.98-1,.1-.17.37-.11.38-.13.04-.06-.63-.88-.72-1.27-.2-.91.12-3.01-.03-4.07-.02-.14-.32-.1-.35-.21-.18-.74.75-2.26.34-3.11.81.03.87-.19,1.16-.93.07-.05.78.14.87.22Z"/><path d="M90.89,56.48c.11.09.98-.26,1.19-.25.68.03,1.1.67,2.04.26.29-.13.26-.48.41-.49.55-.06,1.04.16,1.41.53l.09-.56c.89.82,1.89-.02,2.55,1.03.42.67.34,2.13-.57,1.98l.37.37c-.5-.07-1.35.49-1.64.53-.22.03-.42-.26-.68-.29-.41-.05-.92.3-1.28.24s-.34-.46-.43-.45c-1.15.11-2.33.13-3.5.17.87,1.01.18,1.68.42,2.92.01.07.41.05.29.75s-.65.82.18,1.5c-.79.74-.31,1.44-.44,2.44-.05.35-.53.71-.19,1.25l2.05.18c.27-.62,1.05-.62.89.18h.83c.39-1.66.92,1.08,1.8.38.31.77-.57.77.34,1.23l-.07.47c-.63.21-1.35.91-1.03,1.5-.86-.37-1.45.23-2.36.33-.14.02-1.34.02-1.51,0-.06,0-.31-.63-1.03.04-.07.29.33.17.46.36.14.2.05,1.09-.46.96v.18c.38-.26.38.84.35,1.04-.07.43-.55.83-.35,1.41h.76c.08.05-.4,1.56-.39,1.8.01.75.95.77-.36,1.5.33.92,1.07,1.17,1.59,1.8.49.59-.09.88,1.04.55l-.19-.37,1.51-.39-.35-1.1c1,.09,2.19-2.2,3.05-2.06.35.05,2.05,1.23.88,1.29v.18c.42-.08.54.52.53.85,0,.11-.36,2.01-.39,2.11-.15.38-2.32,1.53-2.18,2.23.05.27.59.15.53.46l-.94.19.19.56c-.77-.1-.81.16-1.31-.56,0,.77-1.89,1.03-1.98.37l-1.33.56-.19-.37c-.86.53-.81-.47-1.27-.63-.38-.13-.59.38-.96.05-.35-.27-.43-1.25-.65-1.81-.25-.64-.85-1.51-1.01-2-.09-.27.03-.6-.1-.83-.18-.35-.56-.4-.59-.46-.03-.05.02-1.05.05-1.1.1-.17.64-.29.65-.47-.33-.71-.76-2.21-.68-2.99.03-.26.36-.59.31-.67-.02-.03-.49.04-.48-.48.01-.42.41-.76.42-.95,0-.18-.25-.38-.25-.56,0-.15.42-.51.5-.97.13-.79-.25-2.08-.28-2.8l.66-1.32c.12-.57-.65.02-.57-.56.06-.42.8-1.36,1.13-1.69l-.75-.58c-.04-.66.57-.88.57-.94.01-.34-.5-1.55-.5-2.28,0-.53.07-1.33.49-1.66l-.38-.09.38-.28-.38-.1v-.27c.96-.71-.3-1.44-.19-1.89.65-.17.37-.89.88-1.2.39-.23,1.13-.36,1.57-.22l-.19-.37c.2.05.39-.17.51-.17.4-.02.33.38.47.5Z"/><path d="M56.06,5.97c1.18,1.07.56,1.12.09,2.31-.14.13-.85-.04-1.17.03-.14.03-.11.34-.26.38-.18.04-3.32.11-3.55.08-.34-.04-1.06-.32-1.41-.46.04.58-.3,1.44-.33,1.94-.05.86.39,2.02.32,2.85-.03.36-.36.63-.36.95,0,.35.4.64.37,1.12-.02.28-.26.52-.29.77-.18,1.5.16,2.67-.19,4.24-.09.39.31.5-.27.66v.27s.38.1.38.1v.38s-.38.18-.38.18l.38.66h.28c.22-.69,1.56-.33,2.27-.41.29-.03.48-.29.76-.34,1.8-.33,1.81,1.22,1.93,2.52-.12.45-1.35.42-1.73.66-.28.18-.23.79-.62.94-.91-.52-1.32.02-2.04.02-.38,0-1.43-.51-1.58.11-.05.21.35,1.05.36,1.49,0,.54-.35,1.19-.34,1.7.01.68,0,1.22,0,1.88,0,.57.86,1.48-.02,1.69.33,0,.55,1.04.56,1.34.02.66-.28,2.1-.09,2.93.05.24.89,1.47,1,1.8.21.67-.21,1.9.79,1.37-.18.21.11,1.03.21,1.11.03.02.3-.16.53-.07.21.08.48.44.68.43.62-.05,1.04-1.27,1.33-1.64.31-.39,1.1-.39.64-1.14.99.27,2.06-2.05,3.01-1.61.2.09.73.68.74.94s-.69,2.37-.85,2.73c-.29.64-.9.62-.73,1.52h-.67c.08.27-.51,1.78-.6,1.85-.14.1-.81.11-1.14.24-.12.05-.15.27-.19.29-.27.13-.85-.13-.9.63h-.27c-.49-.95-1.36-.28-1.79-.46-.22-.09-.42-.53-.66-.67-.88-.55-2.27-1.54-2.69-2.49-.11-.26,0-.61-.05-.71-.03-.05-.58.4-.72-.52-.05-.33.15-.64.1-.86-.36-1.67-.67-1.15-.6-3.05.04-1.02-.81-1.96-.8-2.07s.34-.32.33-.74c0-.45-.46-.93-.39-1.5.01-.11.63-.18.38-.69l-.56.19c-.2-.47.54-.78.54-.83-.02-.3-.29-.76-.27-1.15.02-.44.69-.64-.27-.84.99-.87-.03-1.67.02-1.95.02-.13.77-.98.74-1.34l-.57-.1c.42-.73-.17-1.9.08-2.55.07-.19.83-.58.66-1.3l-.54-.39.56-.76-.37-.09c-.28-.73.42-.75.49-1.11.37-1.93-.07-4.67.28-6.5.14-.72,1.02-1.14-.01-1.52.82-.52.35-1.2.44-1.67.1-.53.33-1.02.4-1.62.22-1.76-.6-2.04,1.7-2.37.34-.05.51-.54.95.1.42-1.07,1.07-.31,1.87-.38.26-.02,1.31-.42,1.33-.75.94.53,2,.51,2.81,1.24Z"/><path d="M237.24,57.33c.36.31.3,1.03,1.18.51.12.08.22,1.11.31,1.32s.46.38.54.55c.05.12-.37,1.75-.48,1.93-.81,1.29-1.27-.42-1.75-.73-.25-.16-.67.13-.79-.43-.42.85-1.2-.14-1.4.01-.03.03-.04.32-.21.44-.58.4-1.35.39-.56,1.34l-.18.19c-1.23-.06-1.08,1.72-1.3,2.64.6.17.1.78.73.93l-.74,1.58c.89.15.62,1.43,1.21,1.9.4.32,1.51.43,1.62,1.31.18.14.69-.65.55.38l.28-.75c.37.36.8.56.49,1.11l.46.2.28-.38c.05.69,1.18.76,1.64,1.01.09.05.05.3.06.31.13.08.28-.69,1.13.09.32.29,1.14,1.48.93,1.79h.57s-.17.54-.17.54c.45.05.47.39.56.78l.56-.1c.1.1.18.22.24.35.04.09-.22,1.73-.24,2.01h.76c.01.94-.94,1.34-1.03,2.42-.04.39.18.7.18,1.07,0,.33-.51.69.1,1.22-.42.08-1.29.54-1.53.85s.12.84-.73,1.3c-.37.2-.65-.2-.93-.15-.83.14-1.34,1.13-2.03.98-.51-.11-.54-.49-.82-.62-.2-.09-.42.09-.52.05-.06-.03-.89-.9-.95-1.01-.15-.25-.21-.54-.21-.82l-.56.19c-.13-.74.45-1.67,1.09-2.01.75-.41,1.48-.19,2.06-.56s.35-1.01,1.37-.63l-.18-.81-.57-.13c-.06-.34.34-.1.52-.22.52-.35-.4-1.75.03-2.39l-1.78-1.15-.47.56c-.07-.3-.78-1.09-.99-1.18-.45-.2-1.04.29-1.36.22-.2-.05-.24-.42-.43-.56s-.62,0-.99-.26c-.07-.05-1.23-1.2-1.28-1.28-.11-.22,0-.54-.08-.67-.09-.14-.58-.1-.69-.26-.19-.25,0-1.38-.46-1.8-.26-.24-.95-.17-1.17-.61l.09-.94h-.76s.56-2.82.56-2.82l-.56-.1.94-1.7-.75-.09c.09-.83.3-1.05,1.09-1.35l.04-.6-.38-.12.94-.57-.37-.82c.89-.41,1.06-1.61,1.6-2.18.12-.13,1.62-.79,1.93-.9.19-.07.48.11.75,0,.29-.11.44-.46.74-.56.17-.05,2.15.08,2.27.19Z"/><path d="M17.43,52.46c-.63.66-1.03.4-1.54.73-.27.17-.37,1.1-.71.13-.75.62-2.44,1.15-2.06,2.27-.98.14-.74.77-1.08,1.19-.94,1.21-2.52,2.34-1.89,4.15l-.91.97.37.36c-1.54,1.47-.38,3.43-1.32,5.1l.36.17c-.02.82-.57,1.97-.57,2.65,0,1.3.57,2.75.19,4.14l.58.1c-.44.64.02.94.15,1.46.08.31-.04.74.08.95.05.08.34.1.42.23.16.28.08.63.21.93.44.97.77.5,1.2.86.28.24.53.95.61,1,.04.03.73-.19.98-.1.69.26.72.26,1.41.44.36.1.67.49,1.05.45.09,0,.12-.26.27-.37.16-.11.45-.08.62-.28.33-.38.07-1.37.74-1.24.3.77.87,1.84.7,2.7-.1.5-.71.27.24.79-.88.23-.28.87-.6,1.19-.17.17-.94-.01-1.19.78l-.47-.37.19.56c-.78.21-.87-.33-1.51-.37l.19.75c-.41-.07-1.01.02-1.39-.06-.34-.07-.52-.35-.7-.4-.68-.18-1.89.05-1.87-1.04-.58.57-.51.1-1.13,0l-.19.37-.56-.66.37-.66-.75.56c-.2-.53-.55-1.34-.94-1.75-.18-.19-.49-.14-.66-.33-.37-.41-.04-1.25-.1-1.31h-.56c.18-.75-.49-1.21.18-1.98l-.94-.28c-.11-.58.38-.82.39-.87.1-.68-.33-1.45-.38-1.87-.04-.35.03-2.1,0-2.22-.04-.14-.32-.09-.34-.21,0-.05-.04-.84-.04-.93,0-.17.58.02.38-.48l-.75-.09c.49-.86,1.08-1.97.94-2.99-.11-.78-.76-.68.18-1.14-.83-.93.08-1.35.13-1.69.14-.96.22-1.6.51-2.78.09-.37-.31-.79.31-.72.06-.35-.47,0-.37-.46.08-.38.48-.44.55-.62.29-.76.4-1.22.59-2.02.03-.11.32-.92.35-.96.26-.29.53-.08.55-.11.15-.14.07-.83.19-.98.16-.19.49-.11.76-.42.48-.57.36-1.9,1.34-1.77l-.19-.75c.74.17.54-.37.77-.64.72-.8,2.14-.69,3-1.35.24-.18.53-.82.66-.82.07,0,.21.25.38.28.13.02.46-.34.9-.23.21.06,1.93.87,2.02.96.56.61.02.8-.3,1.12Z"/><path d="M149.09,55.59l-.19.36c.34.11.44-.27.68-.32.55-.11,2.08.73,2.15-.23h.27c.39.68.96,1.28.87,2.06h.55s0,.57,0,.57c-.9-.09-.8.99-1.7.95l.19.75c-.75-.51-1.34-.37-2.18-.52l-.46.7c.15-.41-1-.74-1.24-.74-.07,0-.4.9-1.21.55l.18,4.4.39.21-.37.57.74.56c-.53.24-.64,1.22-.5,1.67.09.28.45.44.47.59.02.21-.44.55-.49.79-.09.52,1.05,1.22.15,1.94h.57c-.21.88,0,1.67-.06,2.59-.02.25-.28.42-.28.67,0,.41.51.94.48,1.32-.03.34-.48.87-.44,1.36.03.37.7,1.46,1.05,1.69l-.76.58c.76.87-.54,2.46.57,2.72l-.09.38-.66.19.38.56c-.48,0-.91.29-1.22-.18l-.09.56c-.55.31-1.45-.92-2.08-.86-.61-.79-.28-1.96-.51-2.67-.14-.45-.63-.76-.63-1.28.68-.63.1-.3.11-.86s.51-.53.5-.83c-.03-.66-1.44-1.14-.02-1.89-.36-.29-.34-.65-.46-.99-.02-.05-.3-.04-.29-.13.05-.45.88-1.07-.19-1.24v-.18c.65.05.31-1.01.75-1.42l-.54-.11c-.55-1.26-.1-1.9.35-3.11l-.37-.17c.39-.79.15-2.33.09-3.33-.04-.56-.3-1.89-.28-2.31.01-.35.43-1.33.57-1.71-.66-.89-2.54.23-2.64-.66l-.29.38c-.56-.5-1.39.1-1.68.09-.46-.01-.86-.48-1.41-.38-.55-.46-.24-1.08-.38-1.67.05-.21,1.86-.73,2.21-.82.91-.22,2.18.19,2.12-.99.45-.02.68.2.84.56.18-.14.39-.31.61-.35,1.63-.24,2.03-.14,3.57.12.07.01,1.11-.31,1.28-.34l.09-.57.94.39Z"/><path d="M59.52,52.63s.04.25.17.29.58-.12.82.02l-.19-.37c1.51.02,3.65,1.81,2.14,3.21l-1.86-.56c-.67.2-.94.77-1.79.74l.38.56c-.72-.03-1.58.32-1.96.96-.14.22-.11.58-.29.84-.19.28-.66.39-.72.5-.13.23-.22,1.35-.36,1.65-.25.52-.64.62-.75.8-.16.24-1.71,5.22-1.73,5.5-.02.27.22.6.17.92-.02.14-.39.05-.41.4-.03.83-.13,2.84-.1,3.56.02.47.75,2.63.95,3.12.05.12-.09.37-.07.38h.56c-.33,1.24.06.79.28,1.13.29.46-.08.91.76,1.52.18.13.48.01.56.17.12.22.08.55.2.78.15.3,1.25-.19,1.05.71,1.01-.05,2.07.95,3,.13.25-.22.11-.59.23-.8.15-.26,1.42-.49,1.56-1.18l.5.54.35-.16c-.32.81.38.97.38,1.03-.04.42-.8.91,0,1.16v.36c-.39.3-.25.72-.37.9-.2.3-.67-.15-.09.88-.49,1.09-1.63.16-1.64,1.28-.63,0-.83.47-1.57.41-.48-.04-.92-.36-1.37-.5-1.86-.56-2.28-.86-3.84-2.03-.32-.23-1.95-1.17-2.01-1.27-.04-.06.14-.34.06-.53-.26-.64-.62-1.95-.85-2.35-.08-.15-.42.16-.56-.19.82-1.22-.41-1.45-.54-1.88-.07-.21.11-.77.04-1.06-.13-.56-.8-.58.09-1.39l-.73-.48c.32-.67.57-2.22.47-2.91-.04-.26-.41-.47-.44-.78-.02-.17.43-1.16.48-1.44.07-.42-.47-.98.43-1.07-.6-.26-.76-1.4-.17-1.78.17-.11.51-.07.55-.11.05-.04-.25-.89-.19-1.18.03-.16.33-.17.44-.36.71-1.32.65-2.45,1.2-3.68.19-.42.99-1.16,1.3-1.74.2-.39.07-.7.1-.73.23-.22,1.71-.86,2.22-1.45.33-.38.44-1.14.63-1.35.14-.16.43-.12.57-.23.47-.37.39-.82,1.46-.58l-.19-.37c.25-.01.46-.04.7.06Z"/><path d="M42.95,53.36c.44.76,1.01,1.28.59,2.22h.56c.1.75-.32,1.51-.3,2.19.01.49.35.87.12,1.39h.57c.12.49-.46.41-.56.71-.51,1.44.37,2.44,0,3.72l.56.09-.38,1.23.36.17c-.56.52,0,1.51-.02,1.67-.05.32-.55.68-.35,1.35l.43.1.14.47-.55.31c.21.52.02.99.06,1.48.09,1.02.45.24.68.38l-.16.83-.59.21.94.28c.02.37-.16.78-.56.76v.37s.37.08.37.08c-.15.28-.28.64-.28.96,0,.45.6,1.88-.09,1.79v.18c.56-.1.28.4.39.61.13.26.54.18.18.81l.56.09c.03.27-.28.17-.44.42-.7,1.06-.08.72.12,1.13.15.32.72,1.68.72,1.94,0,.69-1.3,1.02-.4,1.3-.06.65-.54.67-.77.95-.14.17,0,.42-.02.45-.46.51-1.78-.42-2.16-.48-.21-.03-.49.17-.7.11-.89-.23-.97-4.02-.73-4.8l-.52-.36.4-.21c-.43-.85.04-1.17.17-1.96h-.54c-.17-.56.21-1.46-.4-1.6l.36-.12-.18-.99.37-.2c-.28-.4-.08-.92-.17-1.3-.02-.07-.85-.37.19-.97-.43-.37-.54-1.07-.38-1.6h-.57c.64-1.01.08-.88.03-1.04-.14-.39.56-1.2.66-1.54.32-1.12-.55-3.23.05-4.5l-.35-.17c.72-1,.67-2.58.19-3.67h.57s-.38-.66-.38-.66c.66-.18.23-.42.29-.76.08-.44.48-2.99.58-3.11.11-.13,1.16-.87,1.37-.71Z"/><path d="M181.2,60.05c.04.07.33.04.31.15-.02.12-.3.3-.31.57-.02.41.77,1.3-.07,1.23l.76.68-.38,1.01s.44-.25.56.1c.21.62-.5.32-.38.75l.74.68c-.91,1.4.66,2.82.2,4.32l.37-.19c.25,1-.56,1.14.34,1.98-.95.66.11,1.98.22,2.83.03.22-.13.48-.12.72.03.51.51.71-.06,1.25l.57.09c.18.85-.44.67-.57.94v.28s.56.29.56.29c-.62.91-.77,1.22.38,1.88l-.77.59.39.92c-.71-.01-.16,1.79-.42,1.95-.09.06-.38-.03-.48.06-.12.11-.06.5-.22.63-.04.03-.63-.06-.93,0-.42.1-.65.7-1.24.62-.42-.1-.55-1.82-.88-2.32-.16-.24-.49-.27-.52-.32-.07-.09.58-1.77.55-2.13,0-.12-.35-.09-.38-.23-.1-.39.22-1.31.56-1.57-1.09-.49-1.05-2.13-.75-3.2h-.76c.1-.73.53-1.63.51-2.34-.02-.62-.25-2.68-.5-3.19-.07-.14-.38-.11-.37-.21.12-1.04.65-2.02.58-3.4-.03-.56-.51-.81-.56-1.17-.06-.38.29-.57.29-.71s-.36-.37-.32-.74c.03-.28.4-.49.36-.73-.03-.19-.4-.38-.36-.79.01-.1.32-.08.36-.19.11-.32-.5-1.36-.48-1.51,0-.11,1.21-1.7,1.31-1.74.25-.1,1.52-.09,1.62.27.16.54.05,1.4.29,1.89Z"/><path d="M89.66,23.06c.13.12.52.75.44.88l-1.87,1.05c-.87-.41-2.03-.35-2.75-1.05-1.47-1.44,2.99-1.92,4.18-.87Z"/></g></svg>