<?xml version="1.0" encoding="UTF-8"?><svg id="Layer_2" xmlns="http://www.w3.org/2000/svg" viewBox="0 0 289.48 107.99"><defs><style>.cls-1{fill:#fff;}</style></defs><g id="salmon"><path d="M70.53,7.06s.01.21.1.22c.12,0,.26-.2.51-.05.92.53.72,2.66.44,3.55l.58.15c.06.08-.46.66-.54.84-.13.3-.36,2.01.25,1.92v.14c-.58-.06-.28.9-.36,1.02s-.35.16-.43.28c-.06.09.12,1.18-.36,1.38l.29.14c-.39.35-.08.82-.14,1.14,0,.05-.6.6-.44.82.04.06.6.02.58.29-.78.26-.55.57-.64,1.09-.03.19-.2.38-.23.59,0,.08.78.9.43,1.43l.44.08-.71.59.28.56c-1.03.38.22.9.26,1.09.08.35-.36,1.26-.55,1.6l.28.13-.14.52.43-.14c.03.51.07.91-.29,1.3l.29.14c-.79.08.11.56.12.6.05.14-.27.26.19.63-.26.55-.37,1.42-.31,2.01.01.11.28.1.34.27.13.37-.33.79.24.91l-.29.07v.29s.29,0,.29,0l-.25.17-.08.53c-.58-.05-.34.34-.54.75l.58.15c.07.09-.39,1.19-.42,1.39-.14.84.09,2.04-.11,2.79-.17.63-.87.99-.89,1.06-.03.09.14.23.09.37-.01.04-.53.52-.54.58-.06.24.01.52,0,.76-.27-.06-.84-.03-1.09.03-.08.02-.05.26-.15.26-.35,0-.52-.28-1,.15-.18-.26-.29-.56-.52-.79-.34-.33-1.15-.63-1.4-.86-.07-.06-.03-.28-.14-.38-.4-.38-1.07-.98-1.36-1.42-.1-.16-.19-1.19.15-1.12-.29-.18-.45-1.14-.5-1.23-.09-.15-.65-.47-.62-.95.01-.24.75-.5.14-.53l.1-.26-.57-.23c.63-.65-.03-.79-.14-1.06-.27-.64-.02-1.51-.3-2.21l-.43.15c-.42-.66.45-.95-.16-1.11.29-1.19-.57-1.96-.78-2.95h-.35s0-1.94,0-1.94l-.44-.09.14-.71-.57-.16c.27-.19.27-1.18.14-1.3-.06-.05-.44.03-.62,0-.11-.02-.13-.47-.53-.29l.57.79-.57,1.38.72.16c-.09.13-.04.41-.13.51-.23.23-.57.1-.59.35l.44.08c0,.24-.27.32-.29.58-.05.54.14,1.1.73,1.01-.43.1-.15.26-.26.46-.14.27-.4.38-.47.7-.15.72.2.4.39.53.33.22-.29,1.33-.37,1.68-.1.47,0,1.31-.15,1.83l.56.31c-.37.3-.03.96-.58.95l.29.14c.03.26-.26,0-.3.35s-.1.79.3.88l-.29.51.29.14-.58.29c.13.17.31.61.26.8-.02.09-.26.07-.27.15-.04.3.46.98.15,1.51h.58c.03.54-.45.71-.45,1.08,0,.4.22.68.24.94.01.17-.16.3-.16.37.06.57.16,1.11.49,1.57l-.86,1.55c-.49-.18-.77-.25-1.29-.14l-.02-.56-.99-.38c.56-.62-.14-.8-.15-.89-.01-.16.13-.36.11-.54-.03-.24-.29-.48-.17-.82l-.65-.14c0-.47-.08-1.18.43-1.37l-.44-.3c.25-.28.12-.69.16-.84,0-.04.35-.22.28-.53l-.58-.07c.42-.12.06-.6.73-.51l-.16-1h-.57c.23-.31.18-.8.32-1.07.11-.23.35-.21.39-.26.04-.05-.15-1.05-.14-1.27l-.57-.09c.22-.03.61-.88.53-1.02-.13-.24-.42-.06-.4-.56.04-.72.44-.63.59-.92.03-.06.14-1.19.13-1.25-.04-.18-.34-.18-.39-.25-.04-.06.14-1.18.12-1.35l-.29.07c-.04-.05.11-.78.16-.91s.28-.12.27-.18c-.02-.16-.23-.41-.26-.74-.03-.43.26-1.24.2-1.6-.03-.18-.37-.27-.39-.72-.03-.51.44-1.52.59-2.04l-.29-.14.03-.25c.11-.49.75-.62.38-1.24l-.4-.02c.27-.27.48-.7.41-1.09-.02-.08-.4-.02-.12-.36l-.44-.08c.61-.68.26-.98.31-1.58.08-1.11.25-2.24.42-3.33-.59-.25-.47-.72.15-.67-.32-.42-.25-.68-.15-1.16h-.44s.73-1.23.73-1.23l-.29-.14c.53-.37.29-.68.38-.95.04-.11.52-.86.57-.86.44.45,1.03.36.97,1.14l.41.02c.14.38-.24.24-.26.36-.12.9.38.75.52.98.06.1.28,1.18.43,1.53.17.42.12.34.26.75.06.18.55,1.08.8,1.02l-.29.29.44.1c-.15.56.32.53.41.65.03.03-.23.64-.12.85l.58-.14c-.16.6-.12,1.37.15,1.92.22.45,1.1,2.53,1.13,2.93s-.24,1.14.61.8l-.13.37.28.13-.41.85c.01.35.42.37.49.66.1.39-.07.73.01.99.05.15.43.29.54.62.1.3.04.61.16.86.18.41.94.33.64,1.15l-.42.15c.9-.06.41.66.45.71.02.03.3.07.47.3.32.44-.02,1.2.38,1.53l-.29.22h.43c.06.26-.24.97-.23,1.03.04.16.28.33.34.54.09.3-.13.84-.07,1.01.05.13.67.63.66.68,0,.35-.37,1.01-.13,1.53l.29-.29c-.03.34.39.42.49.58.12.17.05,2.09.52,1.74.02-.88.86-1.54.54-2.39-.04-.1-.73-.34.17-.67-.13-.28-.02-.76-.41-.71.33-.31.22-.82.11-1.23-.02-.08-.25-.02-.27-.28-.04-.57.34-1.1.3-1.74-.02-.34-.22-.64-.22-.87,0-.25.25-.52.24-.72,0-.05-.19-.38-.29-.88-.09-.46-.44-.51-.02-.93l-.29-.08.44-.88c-.62-.2-.24-.92-.28-1.28-.01-.12-.27-.02-.3-.3-.08-.66.91-.23.39-.91-.06-.07-.23-.04-.23-.05-.04-.05.43-.45.29-.72l-.44-.07.53-.72c-.15-.2-.25-1.4-.21-1.58.16-.62.16-.1.18-.97.01-.45.29-.89.3-1.08.01-.16-.31-.54-.08-.86l-.44-.08c-.06-.23.2-.1.24-.17.04-.06-.03-.18,0-.26.07-.14.28-.25.29-.36.02-.13-.15-.34-.18-.51-.05-.29.24-.49-.21-.44v-.14c.66-.04.4-.72.53-1.02.07-.18.37-.33.43-.57.08-.29-.22-.68.06-1.02l-.44-.07c.1-.25.33-.54.4-.77.05-.17-.11-.37-.08-.44,0-.02.28-.01.33-.29.1-.57-.37-.63-.36-.67.03-.12.34-.39.4-.62.09-.32,0-.68.13-1.02.14-.36,1.14-.52.77-1.19h.58s0-.44,0-.44c.15,0,.26-.02.4.05Z"/><path d="M88.12,7.58v.44s.73,0,.73,0l.07-.43c.66.4,1.4.48,2.15.52s.63.04,1.18.17c.15.03.62-.09.85.03.07.69.52.3.75.59.08.1.03.37.08.42.14.13.6-.09.79-.07.08.01.77.58.89.7.03.03-.08.19-.05.22.19.21.66.39.68.76l.36-.43c.27.23.55.5.36.87h.57c-.17,1.01.81,1.7,1.06,2.36.08.19-.05.38-.03.45.04.12.41.06.19.53-.08.17-.31.25-.34.43h.58c.09.41-.41.77-.43.82-.1.38.19.98-.08,1.58-.08.18-.31.17-.35.28-.02.05.18.56.1.83-.07.22-.35.37-.45.59s.03.42,0,.51c-.07.18-.96.45-.56.83-.45.13-.11.37-.19.51s-1.07.54-1.25.82c-.09.14,0,.35-.02.4-.05.1-.25.06-.31.38-.03.18.07.53.05.56,0,.01-.2-.1-.29-.06s-.77.49-.88.57c-.14.1,0,.29-.04.32-.23.22-.7.37-.83.75l.58-.29.08.4.19-.09.32.7.49-.29c.35.52.63.6,1.18.86l.36-.58.43.5-.28.44.14.15c.49-.21.41.2.53.21.08,0,.22-.14.32-.11.09.02.42.73.52.84.33.37,1.13,1.29,1.46,1.58.45.39,1.3.7,1.44,1.33.06.27,0,.44-.06.7l.43-.15c.36.64-.3.89-.29.95.02.25.47.75.15,1.23l.43-.14c-.05.27.02.71-.03.94-.01.07-.23.05-.25.17-.12.57-.11,1.18.12,1.71l-.56.58.43.29c-.46.66-.91,1.33-1.29,2.05-.19.37-.44,1.34-.58,1.55s-.59.2-.74.46l.29.14c-.24.28-.46.54-.87.51l.22.43-1.24.58.15.29c-.6-.07-.98.03-1.49.3-.09.05-.1.28-.2.29-.46.06-.44-.34-.9.21-.65-.12-1.33-.19-1.99-.22-.82-.04-.39-.03-.75-.13-.33-.1-.73.01-1.05-.15v.44s-.15-.29-.15-.29l-.14.29c-.66.17-.82-.39-1.06-.49-.3-.12-.6.22-.54-.23l-.36.43c-.35-.28-.58-.54-.51-1.01l-.59.07-.21.66-.71-.15-.15.29c-.62-.07-.43-.38-.55-.53-.13-.15-.48-.12-.68-.43-.16-.24,0-.43-.02-.54-.04-.15-.94-.91-.12-1.19-.63-.63-.11-1.72-.18-2.02-.02-.09-.25-.05-.25-.13.02-.41.36-1.03-.45-.95l.59-1.79-.59-.24.17-.56.56-.02v-.43s-.44-.07-.44-.07l.4-.44c.11-.43-.41-.51-.4-.57.02-.13.2-.31.22-.5s-.2-.3-.16-.45c.11-.44.66-.67-.21-1.22.76-.68.65-1.53.54-2.49-.03-.3-.34-.8-.33-1.13,0-.18.29-.62.2-.87-.03-.08-.26-.07-.26-.13.02-.33.4-.55.42-.61.07-.24-.07-1-.06-1.29.02-.51.32-.74.07-1.55-.05-.15-.33-.06-.29-.32.05-.32.42-.42.45-.73.03-.33-.22-1.19-.22-1.53,0-.42.33-1.61.33-1.92,0-.42-.5-.9.04-1.34l-.29-.13c.47-.75.03-1.7.44-2.46-.64-.22,0-1.53-.19-2.04-.03-.09-.56-.08.03-.72l-.29-.14c.14-.51.55-.62.58-.66.04-.06-.31-.3-.29-.64s.39-.66.39-.88c0-.16-.22-.32-.21-.55.04-.49.59-1.24,1.11-1.33.42-.07.87.38,1.32.07ZM90.55,10.51c-.08-.05-1.53-.23-1.79-.24s-.49-.39-.6,0c-.17.56-.04,1.24.68,1.24-.26.67-.16,1.55-.58,2.1l.58.14-.58.58c.78.27.14.73.39,1.31l-.4.29.15.69.44.1c-.43.79-.53,1.48-.57,2.37l.72.31-.27.14.07.52c-.93.19-.31.43-.23,1.1.05.39-.13.84.01,1.26l-.3.17.42.23-.13,1.58c.39-.68.9-.57,1.38-.86.51-.31.55-1.19,1.37-1.03-.07-.58,1.51-1.37,1.81-1.88.08-.14-.04-.32.06-.5.15-.26.63-.43.7-.54.14-.22.04-.7.47-.9l-.43-.36c.46-.32,1.49-1.15,1.53-1.73.02-.25-.33-.36.07-.8-.62-.16-.2-1.87-.44-2.1l-.43.15-.21-1.17c-.71,0-1-.74-1.39-.93-.21-.1-1.04-.52-1.1-.52-.2-.01-.37.18-.63.08-.29-.11-.7-.74-.76-.77ZM89.24,26.92c-.14-.04-.94-.09-.98-.06.03.57-.26,1.35.11,1.81l-.4.43c.38.06.2.76.22,1.16,0,.17.18.33.18.46.02.28-.3.52-.25.7.06.21.87.23,0,1.09l.58-.14c-.21.51.21.68-.43.94l.29.21c-.32-.02-.29,0-.17.26-.12.08-.3.08-.35.24-.08.24.11,2.26.39,2.47-.66.15.08.46.12.58.14.46-.43.68-.55,1.02-.1.3-.11,1.48-.1,1.86,0,.43.39.7-.05,1.11l.59-.07v-.35c1.37-.57,1.98-1.17,3.47-.45l.14-.58.42.46-.13.41h.36c.07-.46.33-.08.51-.2.09-.71.77.03,1.23,0,.13,0,1.37-.51,1.51-.61.57-.38.63-1.13.87-1.44.11-.14.35-.16.45-.32.21-.31-.17-.45-.06-.72.08-.21.32-.22.39-.33.59-1.03.4-1.93.82-2.97v-.22s-.44,0-.44,0l.43-.79-.43-.22.29-.5-.85-.23-.22-1.29c-.19-.28-.64.03-.86-.13-.13-.09-.06-.3-.14-.39-.22-.25-.45-.43-.65-.74-.1-.15-.15-.47-.17-.48-.07-.05-.35.14-.51.13-.29-.02-.52-.47-.94-.13l-.15-.73c-.36-.16-.27.27-.36.29-.55.16-.41-.7-.87-.87l-.43.43-.38-.7-.71.2.08.22c-.62-.19-1.18-.44-1.78-.64-.03-.01-.04-.16-.07-.16Z"/><path d="M107.73,50.88s.32.42.37.71c.04.25-.68.78.17,1.28-.63.25-.34.5-.46.98-.06.21-.34.29-.26.54l.58.14c-.41-.1-.12.26-.28.36-.12.07-.33.04-.41.1-.02.02.06.19.02.26-.28.46-.55.61.11.96-.14.4-.04.75-.59.64.01.24.4.21.44.39.01.07-.07,1.21-.09,1.36-.05.37-.42.93-.3,1.37.05.2.33.17.38.22.06.08-.52.99-.25,1.91.06.2.34.32.36.46.04.38-.44,1.76-.39,2.3,0,.11.25.1.3.19.23.4.2,1.29.14,1.78h.43s-.15,3.4-.15,3.4l.45.08c0,.49-.64,1.77-.44,2.07.13.19.4-.06.16.52.44.1.47.33.43.74h-.58c.15.34.32.71.31,1.09,0,.34-.43.07-.31.5h.44s-.45.94-.45.94l.45.51c-.64.1-.63,1.13-.83,1.56-.08.18-.39.28-.42.63-.27.22-2.06.14-2.4-.02-.21-.1-.29-.62-.84-.29v-.87s-.28.14-.28.14c.03-.63-.86-.92-1.09-1.3-.15-.25-.15-.71-.26-.83-.1-.11-.38-.09-.51-.21-.66-.64-.4-1.81-.91-2.57l-.58.43c.01-.34-.37-.67-.4-.96-.02-.25.17-.55.11-.82-.02-.08-.97-.81-1-1.36-.01-.24.35-.33.17-.73-.14-.31-.64-.18-.34-.76l-.43.15c-.17-.62-.59-1.14-.56-1.81.01-.32.58-.75-.27-.83l-.12-.25c-.04-.32.12-.81.05-1.1-.02-.07-.25-.05-.26-.16-.04-.29.16-.82,0-1.26-.02-.05-.76-.46-.87-.39.12-.25.19-.52.16-.8-.03-.32-.52-.09-.16-.64-1.44-.11-.49,1.78-.86,2.55l.28.13c-.59.67-.37,1.66-.58,2.46l.44.07-.27.16c.53.81-.47,2.89-.15,3.5.06.12.29.12.29.19,0,.43-.62.62-.29,1.4.42.99.03,1.76.02,2.9,0,.29.08,2.35.12,2.47.07.2.56,0-.14.77-.1.27.28.11.3.41.02.37-.14.64-.31.95l.44.07c-.13.35-.44.44-.64.66-.06.06.08.21-.03.29-.35.26-.8.19-1.12.29-.12.04-.19.63-.57-.13l-.41.13c.14-.6-.45-.75-.59-.97-.16-.26-.11-.75-.41-1.01l.42-.54-.32-1.08-.41-.02c.52-.48-.07-1.13.44-1.52-.2-.15-.37.03-.29-.36l.29-.07c-.42-.17-.57-.11-.51-.73.03-.3.17-1.09.36-1.3.05-.13-.25-.02-.27-.14-.01-.06-.03-1.16-.03-1.31,0-.12.02-.7.03-.73.05-.13.32.03.26-.21l-.28-.07.44-.59-.44-1.37.41-.02.16-.65-.27-.12c.48-.69-.17-.83-.16-.88.27-.88.59-1.1.59-2.32,0-.49-.26.03-.44-.15l.58-4.22c-.3-.3-.19-.38-.29-.77h.58c.09-.92.02-1.88.07-2.8.04-.62,0-.65-.01-1.19-.01-.32.59-.87.25-1.31l.27-.07c.06-.25-.25-.07-.27-.21,0-.05.12-.95.15-.99.04-.08.88-.63.94-.65.34-.07,1.14.43,1.29.69.12.21-.24.4.2.49l-.13.52c.84-.18.92.89,1.59.43.18.53-.02,1.24.73,1.16-.34.57.32,1.01.13,1.66l.43.09.03.56c.05.05.33-.05.43.1.25.35.62,2.44.57,2.96,1.09-.42.14,1.01.43,1.64l.43.1c-.16.83,0,.73.28,1.24.11.19.14.52.24.64.15.17.41.1.5.16.04.03-.17.85-.14,1.05.02.11.36.1.41.49.12.8-.22,1.52.81,2.06l.55,2.16c.94.22.52.13.69.67s.49.99.66,1.53c.43-.13.83-.95.78-1.38-.07-.58-.11-1.08-.13-1.73,0-.19.11-.39.16-.58l-.52-.22c-.22-.37.29-1.01.23-1.23-.05-.16-.37-.18-.41-.25-.14-.23.1-.48.1-.64,0-.05-.5-.09-.14-.83.05-.1.29-.09.3-.2.01-.17-.14-.38-.13-.56.08-1.62-.28-2.97-.67-4.5-.19-.74.29-.8.32-1.01.02-.12-.58-.67-.63-1.09-.08-.64,1.13-1.78.23-2.03.46-.41.04-.55.05-.79,0-.08.67-1.17.66-1.47l-.28-.27.58-.87c-.41-.12-.15-.22-.2-.33-.02-.04-.2-.04-.21-.1-.12-.76.55-.65.72-.9l.56-1.93c.77.39,1.37-.07,2.18.22l.13.16c.02.14-.17.31-.1.47Z"/><path d="M15.64,5.21c.51.12.73.16,1.21.49l-.08.73.44-.09c.05-1.44.72.61.9.77.23.22.86-.02.58.45.69.79,1.47,1.98,1.6,2.96.1.71.22,1.97.52,2.35-.36.44.11.78.14,1.05.02.23-.32.39-.27.48,0,.01.21-.04.29.1.23.39.11.96.58,1.15l-.44,1.15c.19.3.3.13.58.07.15.08-.55,2.47.15,2.53l-.29.36.58.37c-.84.6-.19.79-.17.87.03.14.02.73.05,1,.24,2.07.14,4.34.29,6.54-.34.4-.39,1.04-.47,1.59l.59.58c-.73.51-.71,1.51-1.16,2.17l.43-.07c.16.57-.41.86-.49,1.01-.39.77-.77,2.37-.92,3.24-.03.16.11.45.07.51-.04.06-.25.07-.3.17-.1.19-.11.67-.38.58l.43.36c-.13.48-.7.66-.83.83-.04.05.07.29-.02.45-.19.3-.72.59-.85.73-.06.06,0,.29-.08.35-.39.32-1.47.52-1.99.48v.37c-.14.09-.34.09-.51.08-.19,0-1.05-.24-1.26-.32-.13-.04-.11-.21-.23-.26-.18-.08-.49-.03-.66-.15-.26-.17-.23-.83-.27-.86-.09-.07-.33-.04-.48-.16-.64-.53-1.39-.98-1.23-1.89l-.29.15-.07-.87c-.17-.27-.67-.22-.79-.31-.02-.01.11-.23,0-.35-.12-.14-.36-.16-.43-.24-.05-.05.32-1.05-.46-1.2l.29-.65c-.6-.05-.44-.17-.65-.56l-.37.13c.1-.38.38-1.15.29-1.5-.06-.26-.14.25-.14-.59,0-.09-.27-.06-.3-.18-.05-.22.09-.8.15-1.05l-.58-.23c.46-.65-.25-1.01.29-1.45l-.29-.22-.15.22.55-1.89-.4-.22c.29-.55.36-1.21-.29-1.51v-.28c.38-.04.82-1.28.65-1.52-.11-.16-.41-.17-.49-.39-.26-.71.71-1.58.7-2.37h-.58c-.05-.05.12-1.32.18-1.49.17-.49.9-.61.4-1.55h.44c-.58-.56.45-1-.44-1.16l.4-.35c-.12-.33-.15-.68-.12-1.03.02-.26.34-1.63.7-1.39-.17-.55.99-1.59.03-1.43l.17-.56.56-.02-.29-.14c-.13-.75.77-1.06.98-1.33.03-.04-.07-.38.06-.6.14-.25.82-1.02.93-1.26.06-.14-.15-.24-.16-.36-.06-.49.4-.31.51-.37.09-.05,0-.74,1.15-1.45.02,0-.09-.24-.02-.38.24-.48.83-.77,1.34-.69v-.5s.36-.16.36-.16c.06,0,.08.23.1.23ZM16.34,9.18l-1.28.04c.05.37-.35.43-.41.67-.07.29.07.63.01.74-.04.08-.65.47-.7.57-.15.32-.04,1.03-.67,1.38.45.12.17.29.28.64h-.43s.15.59.15.59l-.45.09c-.13.38.13.54.1.97-.06.85-.69,1.77-.88,2.49-.08.3-.01.81-.2,1.15l.57.23c.03.55-.86.75-.47,1.16.84-.03-.23.72-.24.79,0,.16.2.52.2.8,0,.37-.35.81-.2,1.37.1.37.47-.11.42.3s-.28.7-.72.66c.32.38.18.77.3,1.19,0,.02.13.24.19.37.02.04.2.04.22.1.02.1-.16.73-.15.92l-.41.11v2.81s.59-.14.59-.14l-.44,1.66.29-.07c-.01.47.54.93.45,1.36-.02.09-.3.09-.29.15.02.4.86,1.12.87,1.19.04.27-.19.57-.13.82s.47.38.53.64c.05.21-.17.56,0,.82.69.16.83.17.74.96l.29-.43.27,1.5,1.53.68.66-.95-.11-.37-.33-.14c.49.08.09-.25.21-.43.11-.17.54-.25.64-.51-.9-.95.48-.9.23-1.82,1.02-.35.44-.37.43-.94,0-.74.61-1.22.72-1.66.07-.29-.23-.69.23-.95-.7-.19.17-.71-.15-1.26-.12-.2-.39-.18-.43-.4l.28-.06-.14-.44c.59-.07.71-.41,0-.37-.06-.07.1-.89.15-1.04.21-.64.25-.81.33-1.61.01-.12.2-.24.21-.31,0-.13-.56-.37-.26-.79l-.43.14c.13-1.03.61-2.23.12-3.24-.11-.22-.35-.22-.38-.26-.16-.27.29-1.57.26-1.92-.05-.51-.41-.55-.41-.58.01-.15.17-.32.14-.58-.06-.47-.31-.94-.15-1.39-.22-.12-.37.48-.5-.22-.11-.59.55-.38.32-1.01-.13-.35-.88-.27-.39-1.24l-.29.15c.02-.25-.05-.54,0-.77.03-.13.61-.12,0-1.01-.09-.13-.28-.1-.29-.11-.03-.04.35-.51.29-.92,0-.06-.34-1.04-.37-1.09-.19-.4-.93-.52-.5-1.17Z"/><path d="M126.74,9.85c.07.1.3.11.35.28.06.19-.11.84-.08,1.01.01.09.22.05.25.16.03.11-.11.44.01.63l.29-.15c-.02.49.15,1.04-.29,1.38l.43.22-.29.29h.72c.06.24-.22.11-.24.17-.04.08.04.23-.01.36-.2.48-.57.58.05.76l-.08.44h.44c-.13.39-.18.63-.58.8l.27.09c-.39.52.26,1,.28,1.08.15.63-.4.97-.4,1.03-.02.39.39,1.27.38,1.58s-.35.71-.16,1.23c.13.36.57.55.52.94-.5.15.02.69-.44,1.16l.42.08c.25.56-.21.7-.23.75-.05.17.13.55-.19.84.3.15.77.09.97-.17.03-.04-.05-.24.01-.36.44-.81,1.11-1.05,1.49-2.01.2-.51-.11-1.23.86-1.23l-.29-.29.28-.02c-.24-.53.06-.39.09-.46.33-.72.88-1.47,1.29-2.14.22-.36.08-1.09.11-1.13.66-.9,1.32-1.94,1.42-3.24l1.3-1.5-.29-.07c-.13-.58.51-.55.59-.67.11-.16.08-.59.27-.72.06-.04,1.18.01,1.46-.21-.04.35.27.61.34.9.06.23-.06.42-.04.62.03.21.24.35.22.52,0,.06-.35,1.01-.38,1.06-.15.24-.46.17-.42.66l.43.08c-.05.29-.51.43-.56.6-.07.23.05.62-.06.75-.05.06-.71.11.04.39-.09.35-.54.49-.56.53-.02.05.15.85.09,1.07-.03.1-.28.09-.35.35-.06.25.09.55.07.57-.03.04-.68.63-.72.66-.31.23-.57-.2-.26.57-.63.22-.29.57-.34.65-.39.67-.4.83-.69,1.55-.35.85-.84.95-1.07,1.37-.14.26.12.94-.38.88l.44.14-.15.58-.25-.11c-.05.42-1.31.59-1.19,1.05.05.19.48.12.43.36l-.87.51,1.24.78.36-.42c.11.47.42.6,0,1.01.71-.08.46.39.59.61.19.31.65.56.57,1.13l.43-.15c.09.3.59,1.25.76,1.42.27.27.8-.05.42.69l.55.3c.06.24-.12.51-.04.75s.47.08.19.47c1.07-.21,2.14,1.34,2.18,2.32l.58-.15c.04.43.68,1.23,1.01,1.53s.67.35.88.57.38.87.46.92c.12.07.37-.03.52.06.06.03.85.87.91.95.46.58.83,1.82.14,2.35l.58.29-.96.73c-.54-.19-1.09.03-1.63-.1-.3-.07-.31-.32-.66-.33-.23-.22-.3-.99-.4-1.13-.05-.07-.99-.52-.7-1.04-.68.1-.42-.64-.95-.73l-.28.28c-.49-.21-.41-.99-.6-1.17-.28-.27-.85-.13-.89-.15-.23-.15-.66-.98-.32-1.28l-.74-.06c-.03-.93-1.28-.99-.86-1.97l-.87.29c.02-.65-.52-.85,0-1.45-.44.08-.56-.4-.76-.48s-.55-.05-.66-.13c-.04-.03-.41-.86-.41-.91,0-.13.35-.38.24-.65h-.58s.08-.73.08-.73c-.45-.24-.79-.19-1.02-.72l-.36.29c.03-1.25-1.33-.33-1.45-.43l-.22-.58c-.09.34-.64.32-.66.36-.22.39-.03,1.45-.03,1.86,0,.15-.2.32-.22.48-.07.68.99,2.23.11,3.02.56.15-.01,1.03-.14,1.45l.43.08c.12.54-.38,1.05-.43,1.38,0,.04.27.04.34.37.07.37-.13.76-.04,1.13h.42s-.29.67-.29.67l.29.14-.43,1.02c-.32.26-.79.17-1.13.31-.22.09-.08.45-.68.3-.07-.02-.51-.48-.55-.49-.31-.18-.89.07-.54-.62l-.58-.23c-.17-.36.3-.38.3-.44.01-.48-.49-1.29,0-1.95l-.58-.15c.11-.4.19-.61.58-.8-.39-.05-.35-1,.14-.94l-.3-.23.16-.98-.3-.16c.22-.38.49-1.5,0-1.61.32-.85.7-2.6.55-3.45-.06-.35-1.12-1.02.03-1.61-.46-.13-.49-.86-.45-1.31.03-.32.31-.23.41-.43.02-.05-.04-.83-.03-1.02.02-.47.44-.93-.22-1.16.65-.67.03-.74-.01-1.01-.11-.73.3-.69.3-.74.02-.35-.39-1.02-.15-1.51h-.43c.12-.56.54-.67.43-1.37-.04-.24-.28-.4-.28-.59,0-.33.57-1.24-.3-1.6l.3-1.08h-.42c-.14-.56.44-1.13.22-1.68-.08-.2-1.05-.58.2-.79.12-.37-.36-.36-.42-.45-.07-.11.56-2.21.27-2.59h-.58c-.05-.46.5-.74.56-.97.05-.22-.21-.67-.12-.76.02-.02.33-.02.51-.14.23-.15.32-.53.39-.57s.92,0,.98.05c.26.16.22.41.34.61Z"/><path d="M114.22,9.16c.2.21.94.17.99.19.06.04.07.25.16.32.09.06.28-.07.29-.06.03.04-.1.35-.05.55.06.21.26.39.3.58.15.73-.45,1.69.91,1.77l-.27.16.12.27-.73.07c.78.41.4.54.53.91.12.33.33.65.48.98l.44-.22c.14.37-.35.78-.37.93-.1.65.45,1.33.38,1.96l.43-.14c-.02.34.16.79-.29.73l.26.16c-.14.64.39,1.07.34,1.8-.02.3-.35.13-.31.42.03.21.29.38.16.65h.42c-.59.88-.19.78-.07,1.3.04.18-.14.43-.05.57.05.09.74.21.31.61h-.33c.31.49-.32,1.24.44,1.3l-.29.23c0,1.11.26,1.79.99,2.62l-.35,1.28c-.02.33.36.29.39.57.06.63-.32,1.23-.27,1.71.06.51.61.66.11,1.12l.58.22-.58.87.44.29c0,.11-.26-.02-.34.38s-.14,3.07-.01,3.3c.12.21.41.32.48.55.1.35-.08,1.11-.12,1.49l.43-.14c-.03.5-.05,1.02-.07,1.53-.02.42-.11,1.09-.09,1.44.03.4.34.82.28,1.29l.6.16c-.28.12-.34.17-.29.51l-.72-.29.15.43-.87.15.15.29c-.69.15-.84-.08-1.31-.34-.09-.05-.25.04-.26.03-.12-.11.01-.94-.57-1.14-.14-.05-.38.04-.47,0-.06-.03.13-1.11.28-1.24l-.39-.24c.2-.64-.24-1.19.27-1.63l-.39-.74.39-.43c-.16-.31-.19-.43-.58-.37-.06-.05.69-.68.36-1.16-.16-.24-.61,0-.21-.86l.28.14c-.33-.94-.27-1.97-.17-2.96-.78-.4-.05-.4-.14-.99-.03-.2-.36-.98-.55-1.06l.11-.33-.25-.08.43-.95h-.43s0-.51,0-.51l-.29.07c-.05-.51.44-.07.16-.7.28-.03.31-.02.27-.31-.51.46-.68.04-1.09.02-.44-.02-1.01.41-1.09-.31h-.14s-.29.72-.29.72c-.66-.27-1.33-.41-2.03-.38-.25,0-.5.21-.82.19-.38-.02-.89-.36-1.35-.25l-.27,1.08.38.44-.04.29c-.65.53-.32.72-.4,1.14-.03.18-.34.27-.4.6-.04.26-.06,1.19.28,1.15-.76.55-.47,2.16-.67,2.83-.14.46-.62,1.52-.83,2.07-.28.73-.79,2.02-1.79,1.66-.43-.15-.46-1.07-.42-1.46.02-.2.19-1.18.38-.97v-.29s-.29-.07-.29-.07c.46-.3.12-.81.17-1.01.04-.17.31-.17.37-.25.12-.15-.12-1.21-.04-1.5s.48-.68.46-.86c0-.1-.2-.24-.21-.43-.02-.49-.05-1.04.26-1.46l-.29-.14c.54-.39.14-.58.05-.94-.06-.25.27-.37-.2-.5.52-.6.67-2.15.59-2.88-.01-.1-.25-.08-.28-.16-.1-.28.64-1.1.55-1.44-.03-.14-.62-.13-.35-.82.18-.44.6-.6.72-1.07.09-.34-.22-.76.21-1.02l-.45-.43.6-1.38-.44-.07c-.03-.54.44-.65.59-1.01.27-.65-.13-1.09-.09-1.45.02-.24.8-1.15.8-1.9l-.28-.13c.53-.64.6-1.05.73-1.88l-.3-.15c.4-.55.34-1.41.55-2.06.04-.13.17-.41.25-.49.05-.06.91-.03.09-.3l-.02-.2c.68-.35.54-1.43,1.3-1.38.11-.5-.51-.27-.58-.58.45-.03,1.11-1.29,1.34-1.42.06-.03,1.28-.34,1.35-.34.07,0,1.27.29,1.42.33.67.2.36.79.4.82ZM112.77,12.08c-.64.04-.46.51.15.43l-.15-.43ZM112.91,12.66c-.89.17-.54.97-.89,1.5-.2.31-.57.35-.7.74l.72.36c-.42-.09-.1.37-.43.51l-.59-.07c.29.46-.13.5-.25.82-.08.22-.01,2.07-.08,2.27-.09.25-.41.35-.4.6,1.01.07-.11.75-.15.91s.04.36,0,.52c-.04.14-.27.09-.28.11-.06.08.76.84.15.95v.68s.28.24.28.24c-.77.23-.17,1.46-.87,1.81l.58.14c-.88.37-.31.8-.33,1.13,0,.13-.34.57-.26.82l.51-.58c.48.34,1.16.46,1.09-.29l.57.29.21-.4.44.11-.07.29c.36.03.37-.29.74-.37.77-.17,2.96,1.3,2.72-.54-.1-.75-.51-.59-.55-.62-.41-.34.13-1.22.14-1.66-1,.07-.15-.48-.14-.53.04-.23-.16-.52,0-.77l-.72-.22c.62-.74-.21-1.53.14-2.39l-.44-.07c.7-.2.1-.85.07-1.16-.02-.18.25-.99.19-1.06-.25-.31-1.25-.22-.26-.97-.36-.21-.37-.19-.43-.58l-.29.07c-.12-.39.19-.24.29-.39.43-.63-.1-.59-.2-.81-.07-.17.01-.41-.05-.54-.13-.29-.45-.51-.49-.87Z"/><path d="M58.68,59.03c-.31.8.28.88.28.93-.02.4-.42.53-.5.8-.19.59.18,1.21.2,1.69,0,.07-.21.06-.28.17-.23.36.42,1.25.45,1.71l-.31.3c.19.69-.06,1.45-.15,2.16l.3.22c-.48-.03-.41.28,0,.36-.77.79.13.62.14.72-.15.28.03.68-.43.65l.29.21c-.43.68-.5,1.53-.14,2.25l-.58.16c.28.41-.15.79-.16,1.07,0,.08.23.08.29.19.36.75-.25,1.13-.11,1.81.11.5.69.84.69.89-.01.21-.27.82-.38,1.06-.07.17-.3.18-.31.21-.09.2.11,1.49-.42,1.6l.1.26c-.41-.05-.97.09-1.35,0-.1-.02-.1-.21-.15-.23-.32-.14-1.11-.33-.82-.78h-.44s.29-1.45.29-1.45l-.58.14c-.06-.48-.12-.68.1-1.12.11-.21.42-.16.28-.58,0-.03-.23-.04-.24-.12-.04-.28.21-.49.25-.73.13-.8,0-1.41-.07-2.18-.02-.16.37-.74.4-.99l-.57-.07c-.04-.39-.02-.7.43-.73-.49-.41-.35-.77-.15-1.34.03-.08.24-.1.27-.14.26-.5-.05-1.72.03-2.04.03-.11.3-.1.3-.17,0-.19-.25-.44-.29-.73-.03-.22.15-.82.1-1.01-.03-.1-.27,0-.26-.27.02-.38.2-.61.58-.53l-.42-.91c.68-.74.1-.76.05-1.18-.04-.32.22-.68.37-.94h-.42c-.09-.58-.02-1.06.14-1.63.03-.11.23-.1.27-.22.21-.69.02-1.24-.27-1.86l.28-.2c-.07,0-.21.02-.25-.03-.06-.07,0-1.68.04-1.88.08-.39.74-.66-.09-1.08.05-.26.14-.52.44-.5v-.14c-.28.04-.38-.06-.27-.34.2-.53,1.24-.4,1.31-1.24h.84c-.04.64.6.62.7.74.09.1.09.65.18.84l.43-.15c-.4.89.34.79.49,1.2.08.22-.04.48-.02.51.09.14.7.31.55.89.33.23.3-.46.43-.29.02.03.03.25.15.37.32.32.57.52.87.94-.07-.54.59-.16.85-.31.05-.03.32-.78.54-.99.14-.14.41-.11.47-.18.1-.11.06-.65.41-.97.24-.22.79-.31.94-.55.19-.32,0-.67.06-.77.13-.22,1.21-.49,1.37-.93l-.43-.36,1.29-.17c-.04-.58.38-.45.55-.6.14-.13.16-.37.34-.47.35-.19,1.13.39,1.23-.21.29.8.56.07,1.02.43,0,.58.4.75.78,1.09v.28c-.63.23.21,1.4-.13,1.95h.58c.1.51-.57.88-.57.94,0,.05.39.59.37.88-.02.25-.54.8-.38,1.23l.58.07c.02.39-.58.84-.58.9-.03.19.01,1.12.29.92.03.26-.28,0-.31.35-.04.5.24.72.26,1.02.03.47-.51,1.36-.48,1.52.05.25.27.33.32.51.15.5-.52,1.13.47,1.59-.03.36-.58.52-.65.72-.15.49.24,1.4.2,1.62-.08.39-.51.75-.39,1.29.08.38.4.29.43.45.04.2-.15,1.52-.19,1.82-.09.72-.49.56.42,1.19.2.55-.52.97-.53,1.03-.04.35.11,2.01.19,2.2.02.05.23.02.31.31.13.46-.19,1.31-.09,1.55.15.33.42.35.43.38.09.17-.5,1.5-.42,1.93.04.2.62.58.43.79-.17.19-1.95-.15-1.59.88-.78-.16-.96-.75-1.31-1.34-.09-.15-.46-.15-.29-.69l-.43.29c-.07-.61-.39-.8.29-1.09-.52-.39-.91-1.15-.14-1.45-.33-.26-.45-.38-.29-.8h-.44c-.03-.43.28-.59.58-.8l-.44-.07c.52-.51.04-1.13.06-1.52.03-.68.02-.41-.05-1.02-.03-.28.18-1.59.13-1.66l-.29.15c-.35-.81.88-1.13.16-1.51l.13-.52-.29.15c.13-.5.02-1.04.58-1.23l-.38-.44.24-.65h-.44s.44-1.59.44-1.59l-.43-.07c.29-.55.37-1.04.58-1.59l-.44-.15.56-.57c0-.69-.74-.37-.64-.97.05-.32.92-.42-.07-.92.79-.4.3-1.17.58-1.81h-.58c.21-.44.27-.91-.14-1.23.16,0,.63-.87.58-.94l-.29.07-.22-.65c-.37.3-.19.86-.8.72l.29.29c-.39.19-.49.42-1.01.29l.14.87c-.7-.29-.69.51-1.01.78-.05.05-.22,0-.29.05-.33.22-.54.52-1.02.48l.29.29c-.44-.08-.38.54-.53.59-.1.03-.96.13-1.14.14-.39.02-.74-.42-.86.14-.26-.36-1.32-.1-1.38-.14-.03-.02-.05-.37-.19-.53-.35-.41-.91-.44-1.12.1.15-.15-.28-.58-.43-.43s.29.58.43.43Z"/><path d="M164.94,13.34l.1-.26.65.3v-.44s1.6.44,1.6.44c-.08-1.14,1.02.28,1.19.39.04.03.18-.09.22-.05.61.46,1.02,1.14,1.92,1.4l.14-.43c-.05.31.38.36.42.53.03.13-.22.6.2.74s.97-.28.68.76c.55-.08.64.55.87.67.18.09.45-.13.59-.02.1.08.56.92.43,1.1l.22-.29c.56.24.34.74.39.83.11.2.69.6.97.48.07.06.23,1.69.33,1.85.07.11.51.12.55.18.04.05,0,.9.12,1.23.08.23.3.21.32.3.08.41-.3.64-.27.82.14.77.3,1.66.37,2.47.04.5-.48.96.04,1.04v.29c-.5.07-.09.74-.08,1.28.01.51-.35.87-.36.92-.09.35.6,1.44-.29,1.64l.29.29-.26.02c.1.28.09.45-.17.64l.43.14c-.1.61-.6.68-.7.83-.03.05.04.86-.45,1.06l.57.43c-.49.33-.36.61-1.01.36l-.11.81.4.42c-.28.33-.41.56-.87.37.3.45-.15.52-.26.84-.14.4-.2.57-.32.86-.13.33-.46,1.51-.65,1.65-.22.17-.47-.04-.6.12-.06.08.04.33-.06.49-.11.18-.53,0-.15.68h-.58c.32.89-.4.8-.7,1.04-.05.04-.02,1.09-.75.41l.29.58c-.67-.09-1.17.37-1.82.38-.17,0-.31-.15-.42-.16-.67-.01-1.38.05-2.04-.08l.07-.29h-.29c-.14.91-1.51.04-1.53,1.01-.26-.11-.34-.69-.37-.72-.02-.03-.43.3-.65-.15l.06-.66c-.56-.42-.8-1.73-.72-2.61.02-.25.75-.41.01-.71l.44-.45c-.27-.55.11-1.21-.58-1.43.16-.34.46-.77.41-1.16-.05-.42-.24-1.02-.7-1.02l.58-.58-.29-.14.29-.44-.3-.16v-.27c.63-.65.27-.88.32-1.46.02-.28.38-1.79.37-1.89,0-.14-.33-.26-.37-.45-.03-.14.15-.33.09-.46-.01-.03-.2-.04-.26-.14s.14-1.78.15-2.15-.18-.74.03-1.05l.4-.03c-.45-.34-.14-1.15-.22-1.31-.09-.2-.48-.21-.52-.38-.06-.29.24-1.07.24-1.27-.01-.61-.19-1.37-.15-2.13.01-.26.18-.5.2-.77l-.41-.29c0-.41.55-.67.57-.76.04-.13.08-1.02.05-1.18-.06-.33-.34-.32-.34-.39,0-.23.25-.58.22-.86-.02-.19-.32-.43-.31-.73,0-.32.53-.92.38-1.38-.16.07-.33.29-.29-.07.06-.5.56-.82.33-1.31l.19-.2c.44.23.31,0,.57-.3l.92.4ZM166.61,16.25s.1-.32-.12-.4l-.5.29c-.07.24.28.07.3.23.02.18-.15.48-.17.72-.01.32-.1.96-.1,1.12,0,.63.66,1.44.54,2.04-.02.1-.47.12-.29.53h.44c-.33.81-.7,1.54-.04,2.25-.62.49-.3.68-.27,1.17,0,.08-.23.04-.26.13-.03.08.07,1.59.16,1.64.12.08.43-.05.4.1-.43.09-.2.51-.22.87-.01.18-.18.33-.19.46,0,.19.19.29.2.42.03.27-.39,1.53-.38,1.73,0,.08.24.08.25.11.18.64-.29.54-.37.9-.21.96.55.82.57,1.53h-.58c.13.27.54.85.55,1.11,0,.18-.2.3-.21.41,0,.14.19.29.19.43,0,.16-.34.43-.39.59-.02.07.22.06.24.11.12.29-.08.5.34.61-.58.53-.19,1.4-.73,2.1h.58c.14.36-.22.63-.26.84-.06.31.26.73-.03,1.11l.31.3-.3,1.24c.52-.14,1.15-.44,1.59,0-.04-.43.42-.36.54-.48.09-.09.04-.35.18-.46.19-.15.66-.07.84-.25.17-.17.32-1.13.69-1.42.25-.2.6-.11.64-.16.06-.06-.03-.34.01-.46.06-.16.57-.52.57-1.07l-.28-.2c.62-.02.1-1.08.87-.87l-.29-.22.58-.51-.29-.29c.41.09.12-.27.28-.36l.44-.08c-.37-.72.75-1.48-.15-1.95l.58-.58-.43-.36c.42-.08.79-.42.73-.87l-.43-.07.87-1.31-.44-.07c-.09-.47.56-.73.58-.81,0-.04-.08-.71-.1-.74-.08-.19-.33-.16-.34-.27-.05-.56.38-1.28.39-1.43,0-.08-.19-1.39-.21-1.46-.07-.21-.73-.96-.76-1.3-.03-.31.28-.48.3-.72.05-.46-1.02-1.23-1.45-1.39l.08-.56c-.36-.06-.58-.46-.7-.54-.04-.03-.2.1-.23.08-.3-.23-.19-1.09-1.19-.7.21-.5-.3-.7-.72-.43-.07-.38-.29-.96-.73-.72v-.58s-.86.14-.86.14c.01-.75-.56-.86-.84-1.18Z"/><path d="M25.76,6.42c-.24.39.18.33.29.55.17.36.07,1.02.18,1.38.1.31.61.52.64.75s-.19.93-.23,1.24h.43c-.18.34.12.63.14.96.04.7-.31,1.3.31,2.02l-.3.43.44.3-.3.64.43-.14c.05.26-.12.54-.1.78.02.22.35,1.08.34,1.32-.01.25-.32.82-.23,1.22,1.16-.1.11,1.44.28,1.61h.44s-.13.86-.13.86h.42c.11.51-.29.53-.58.8.65.36.23.79.36,1.23.17.56.73.7.22,1.31l.72-.14-.17,1-.41.02c.3.42.02.87.09,1.28.04.24.52.91.59,1.06.11.22-.4.84.29,1.05-.35.99.38,2.05.33,3.12l.43-.14c-.25,1.25.1,2.42.29,3.62l.28-.14c.13.46.42.6.01,1l.65.29c.46-.29-.05-.48-.01-.73.07-.41.91-1.07.23-1.22l.44-.95.43.15c.11-.31-.15-.7-.14-.93,0-.08.21-.08.27-.2.39-.71-.31-.41-.36-.82-.1-.76.69-.29.53-.88,0-.03-.42-.2-.43-.43l.72-.22c.06-.25-.24-.07-.27-.21-.03-.17.1-.73.27-.88l-.3-.28c.27-.67.64-1.38.44-2.11l-.43.15v-.29c.4.06.15-.22.27-.37s.96-.56.6-.94c-.07-.08-.61.16-.58-.14.39.07.17-.22.23-.3.08-.1.69-.25.24-.43l-.33-.07c.22-.22.22-.54.37-.79.07-.11.3-.13.33-.17.03-.05-.14-.3-.11-.47.05-.29.3-.86.28-1.02,0-.04-.43-.38-.45-.59-.07-.67.37-1.15.44-1.6,0-.04-.56-.2-.42-.7.03-.11.23-.08.25-.17.1-.56-.06-1.25.33-1.74l-.44-.36.43-1.44-.58.14c0-.56-.18-1.01.44-1.23-.47-.11-.24-.65-.44-1.01l.29-.14c-.09-.21-.24-.52-.22-.74.02-.34.53-.49-.2-.65-.02-.43.55-.69.58-.73.04-.06-.44-.82-.36-1.32.05-.27.33-.3.49-.5.09-.11.1-.33.21-.45.15-.15.63-.3.66-.35.03-.04-.25-.43.11-.55.73-.23.43.35.5.42.27.08.37-.29.59-.23s.39.41.7.25c-.02.7.33,1.37.23,2.08-.02.16-.26.29-.22.36.02.02.3,0,.4.22.03.07-.08.26-.05.36.14.6.43,1.39-.2,1.81l.58.29c-.64.15,0,.94-.03,1.13-.03.3-.52.54-.54.63-.19.68.17,1.55.24,2.13.05.47-.17.87-.25,1.32l.43.3c-.33.38-.46,1.1-.43,1.59.01.18.22.33.23.45.01.16-.29.5-.34.76-.12.54.48,1.44-.12,2.14l.39.57c-.06.38-.47.43-.56.87-.08.39-.11,1.84.41,1.89l-.58.73.43.29c-.21.42-.37.58-.87.51.2.45.35.87.16,1.37-.11.3-.38.26-.42.61-.06.56.34,1.94-.47,2.08.59.58-.58,1.15.15,1.88l-.29.14.29.07c-.58.36-.27,1.05-.32,1.21-.02.06-.49.74-.6,1.07s.06.72-.05.94-.53.18-.33.47c.02.03.24-.04.26.07.08.42-.13.78-.31,1.1-.05.08.04.24.02.26-.24.26-.95-.08-.26.82l-.72.22.07.58-1.34.69c-.15,0-1.83-.43-1.91-.48-.41-.27-.04-.85-.71-.51-.5-.46-.08-1.17-.17-1.49-.16-.56-.68-1.32-1.01-1.75-.26-.35-.28-.69-.14-1.1h-.72s.13-.37.13-.37l-.28-.14c.32-.47.25-.51.1-1.01-.01-.05-.41-.67-.41-.72,0-.41.41-.84.16-1.38l-.58.14c-.22-.34.09-.59.08-.8,0-.09-.14-.19-.15-.29-.01-.7.37-1.96-.65-1.98-.13-1.2-.12-2.4.14-3.6l-.58-.15c-.06-.22.21-.1.29-.24.28-.49-.12-1.32-.26-1.91-.06-.29.29-.41-.19-.54.38-.57.2-1.39,0-1.99-.05-.13-.28-.11-.29-.19-.03-.33.48-.65.02-1.28-.12-.16-.41,0-.46-.17l.08-3.11c-.54-.15-.33-.59-.22-1.02h-.44c.1-.32.27-.78.28-1.1.01-.6-.59-1.68.02-1.87-.46-.28-.05-.41-.07-.66-.02-.36-.32-.75-.32-1.08,0-.27.21-.48.22-.73.02-.8-.2-1.66.18-2.45l-.31-.16.03-.27c.15-.44,1.02-.6,1.43-.67Z"/><path d="M83.74,52.18l.1-.26.37.07.41,1.3.46.09c-.53.91.66,1.19.43,2.03h.58c-.5.65-.04.95,0,1.52.03.31-.14.88-.13.92,0,.02.29,0,.33.29s-.15.71-.07,1.04l.58-.43.16,1.73h.42c-.22.38-.19.86-.73.73v.29c.49-.04.38.94.29,1.31l.72.15-.36,1.02c.01.42.3.39.41.6.31.64-.33.66-.33.76,0,.05.51.4.14.8h.58s-.44,1.02-.44,1.02l.44.07-.58.8h.58c-.16.23.02.71-.08.88-.16.25-.48.18-.5.43l.57.16c-.2.39-.12,1.47-.57,1.44l.29.22-.45.87c.33.28.27.89.08,1.38-.14.36-.39.31-.45.42-.1.17.08.4.04.62-.09.49-.49.66-.54.8-.1.28.02.74-.15,1.05l.44.14c-.56.04,0,.74-.87.29-.23.26.02.91-.02.99-.02.04-.24.08-.33.18-.19.23-1.07,1.1-1.26,1.22-.17.1-.46.06-.58.15-.22.16-.05.54-.23.67-.2.15-1.07.13-1.28-.02-.27-.21-.14-.53-.52-.42l-.22.43c-.23-.43-.93-.41-.94-.87l-.43.43c.05-.81-.69-.59-.84-.75s-.1-.56-.21-.67c-.13-.13-.64-.08-.81-.21-.14-.11-.02-.47-.16-.63-.13-.14-.42-.2-.43-.22-.02-.03.19-.35.12-.61-.09-.29-.71-.99-.71-1.06-.01-.18.24-.52.15-.78h-.72c-.06-.12.29-.86.21-1.18-.05-.2-.33-.37-.36-.64-.03-.24.15-.6.14-.63-.13-.19-.99-.28.01-.81l-.72-.07c-.07-.77.63-.56.28-1.22l.3-.09v-.29s-.43,0-.43,0c.25-.4.44-1.17-.14-1.37.25-.24.55-1,.57-1.31,0-.06-.23-.05-.27-.17-.37-1.26.05-2.34,0-3.57l-.44-.09c.13-.77.65-.58.71-1.54.03-.44-.14-.75-.13-.98,0-.09.25-.09.29-.2.36-.98-.07-.64-.29-.76-.04-.02.1-.74.12-.81.06-.22.29-.19.29-.27,0-.09-.15-.26-.11-.42.05-.17.32-.18.38-.27.04-.06-.12-.3.12-.4l.5.15c.21-.55-.57-.43-.43-.94.12-.42.7-.05.72-.07l-.29-.51c.51-.52.8.1.87-.87.01-.18-.15-.4-.12-.48.01-.04.45-.23.55-.53l-.29-.14.87-.51-.14-.28h.44c-.45-.93,1.69-2.19,2.36-2.01.2.05,1.32,1.13,1.67.96ZM82.51,57.1c-.07-.25-.01-1.15-.09-1.52-.07-.3-.32-.55-.25-.91l-.46.4-.26-.11v.29s.28.06.28.06l-.15.43.3.23c-.63.12-.87.3-1.08.89l-.37-.02c-.09,1.16-.14,2.54-.73,3.55l.29.14-.3.72.3.15c-.35.43-.56.73-.58,1.3l.29-.07c.03.31-.2.56-.22.86-.01.24.2.41.16.61-.06.26-.44.46-.48.66-.09.49.41,1.93.35,2.13l-.64,1.64c.36.45.26,1.14.41,1.53.07.18.31.15.38.32.08.2-.25.96.2,1.31v.22c-1.17-.04.35.53,0,.87l-.44.14.28.09v.42s.73.07.73.07l-.29,1.01.58-.29c.28.67-.29.9-.3.95-.04.51.63.78,1.02.5-.07.35.09.83.51.82.07,0,1.1-.62,1.15-.67.04-.04.46-.96.47-1.02.05-.25,0-.37-.09-.58h.44c-.65-.72.08-.84.09-1.65,0-.3-.33-.86-.24-.96.04-.04.34.13.49-.18.18-.39-.2-.86.24-1.2l-.26-.09.12-.33-.29-.15c.13-.51.55-.62.58-.66.04-.07-.27-.28-.29-.51-.04-.49.22-.79,0-1.55-.04-.12-.27-.11-.26-.17.02-.28.36-.8.29-1.17l-.3-.35c.35.04.21-.1.26-.36l-.4-.29c.57-.84.38-1.2-.02-1.99-.06-.12-.25-.12-.25-.18,0-.22.26-.63.11-.94l-.43-.09c0-.39-.11-.6.3-.72-.73-.49.05-1.04-.36-1.68-.42.08-.5-.36-.47-.77.02-.21.22-.34.25-.45.02-.07-.22-.06-.24-.11-.1-.25-.28-.54-.29-.58Z"/><path d="M156.02,9.27c.47.34.75.05.98.13.33.13.26.69.86.27.28.18.28.64.5.82.16.14.51-.11.66.2l-.43.22.14,1.15c-.15.08-.47.02-.58.09-.63.41.2.41-.95.36-.06,0-.43.38-1.01.36-.23,0-1.02-.42-1.08-.37l.14.43c-.3-.05-.71-.11-1-.09-.51.03-1.66.03-1.83.39l-.5-.15v.43s-2.11-.42-2.11-.42c-.28.48-1.03.35-1.51.13.26.49-.21,1.62.58,1.45l-.58.65c.13.28.42.69.5.96.16.5.36.98.5,1.4.28.85-.21.99-.23,1.26,0,.15.3.49.33.8s-.18.48-.19.67c-.01.36.28.69.1,1.07h.44c.02.39-.54.7-.56.75-.02.07.13.3.13.49,0,.82.13.44.15.58.07.55-.71.91.36,1.64l.94.02-.08-.29.29-.15,1.01.45.14-.29,1.1.13.07-.58c.27.34.6.11.93.22s.46.49.63.55c.38.14.76-.16.93.31l-.24,2.1-.26-.1-.12.25-.71-.29c-.23.59-.96.48-1.58.59-.52.1-.72.52-1.24-.01l-.37.45c-.5.05-.41-.33-.53-.42-.05-.04-1.13.12-1.22.25-.08.12.33.72-.35.74.49.42.02,1.24.72,1.3.06.23-.21.1-.24.17-.04.07.06.24-.03.34-.12.14-.41.19-.43.23-.02.03.2.5-.02.71l.45.08-.16,1.51h.44c-.26.42.09.81.08,1.03-.02.36-.43.87-.46,1.08-.04.31.36.35.38.46.12.71.19.57.27.84.03.09-.17.71-.12,1.01.06.33.39.45.42.61.04.21-.22.39-.22.56.01.45.8,1.25.67,1.67l.42-.13.52.67c.16-.24.57-.08.62-.12.07-.05.17-.39.27-.52s.31-.18.33-.27c.08-.34-.31-.58.37-1.06h.21s.07.29.07.29c.18-.5.63-.49.78-.59.02-.01-.09-.22,0-.35.24-.34.56-.27.71-.4.19-.15-.04-.59.27-.68.44-.11.99.47,1.14-.16.28.12.42,1.05.52,1.34.05.13.27.12.28.21.02.12-.16.84-.22.92-.13.16-.43.06-.51.24-.15.33-.05.85,0,1.2-.46,0-1.21.29-.87.87-.88-.1-.87.77-1.06.99-.13.15-.56.21-.69.42-.11.18-.08.5-.16.6-.02.03-.35-.03-.64.15-.37.22-.53.59-1.09.67l-.06.51c-.44-.17-.94.01-.8-.58l-.66.28c-.15-.58-.8-.41-1.01-.56-.43-.29-.38-1.19-1.03-1.45l-.49.28c0-.52-.5-.75-.52-1.3,0-.26.29-.31.22-.59h-.58s.29-1.45.29-1.45l-.58-.22c.44-.74.17-.62-.03-1.13-.11-.28.15-.37-.4-.6l.29-.21c-.61-.16-.54-.87-.28-1.34.09-.17.33-.03.28-.25l-.57-.24c.22-.52-.13-1.13-.09-1.58.02-.15.25-.3.23-.57,0-.08-.23-.07-.26-.15-.08-.22.02-.71.23-.88-1.23-.61.2-1.73.13-2.59-.03-.43-.52-.68-.24-1.11h-.58s.72-.94.72-.94c-.47-.18-.33-.87-.44-1.28-.04-.16-.5.05-.05-.67.08-.12.28-.11.36-.24.05-.38-.45-.52-.44-.56.02-.19.31-.52.36-.82.15-.87-.39-2.31-.29-3.2.03-.28.3-.57.3-.78,0-1,.08-.47.19-.89.19-.74-.33-.85-.36-1.06-.02-.19.21-.3.2-.49-.01-.28-.58-1.03.17-1.11v-.21s-.56-.43-.56-.43c.19-.35.41-.77.42-1.17.01-.49-.32-.77-.31-1.16,0-.32.31-.92.31-1.45,0-.26-.18-.62-.16-.65.02-.02.38-.06.57-.23.41-.35.46-1.27,1.17-.94l-.29-.58c.56-.38.97.07,1.24.09.46.04,1.22-.5,1.29-.5.15,0,1.33.18,1.38.12v-.43c.36-.08,1.19.29,1.36.26.35-.07.48-.75,1.33-.11l.28-.3,1.23.29.15-.58c.22-.06.1.18.19.23Z"/><path d="M30.8,50.26c.17.08.52.38.73.47.13.06.32.02.46.04v.57s.58-.29.58-.29l.29,1.45h.44c-.48.95,1.3,1.42.43,2.39.48,1.06.9,3.07,1.1,4.52.04.26.12,1.08-.21.93v.28s.72.65.72.65c-.45.6.1,1.7,0,2.47-.05.39-.35.57-.3,1,.04.37.39.6.42.76.03.18-.42.58-.27.92,1.03-.42.23.74.33.94l.54.23c.07.55-.48.62-.56.73-.05.07.17,1.65.27,1.72l.43-.15.1.52-.53.5c.41-.04.15.17.2.26.27.54.36,1.43.64,2.14.12.31-.28.73-.25.86s.56.19.58.74c.01.27-.26.17-.29.3-.1.37.23.99.58,1.06v.14c-.4.04-.6.35-.43.72h-.44s.29.51.29.51l-.24.19-2.29.31-.17-.29.08-.72c-.21.1-.45.23-.56-.09-.23-.71.28-.48.27-.92l-.43-.23c0-.33.21-.65.14-.98-.03-.13-.33-.04-.3-.3.04-.41.85-1.64.15-1.9l.29-.36c-.45.02-.11-.6-.72-.44l.12-.5-.27-.29c.65-.41.24-.81.3-1.44l-.44-.08.13-.42c-.97-.24-.04-1.06-.31-1.67-.08-.19-.33-.21-.36-.26-.05-.1.07-.47-.18-.63l.43-.22c.08-.38-.09-.22-.29-.36l.29-.58c-.01-.06-1.17-.45-1.24-.46-.14,0-.34.21-.57.21-.53,0-2-.18-2.3-.13-.11.02-.02.26-.3.31-.31.05-.91.1-.81-.3l-.15.27-.57-.13-.44,1.59.43.07c-.08.55-.69.53-.58,1.44.02.19.24.33.22.53-.03.24-.32.29-.33.31-.03.08-.21,1.52-.19,1.61.03.11.29.1.3.18.01.25-.44,1.03-.51,1.49-.03.23.09.52.06.81-.01.19-.23.34-.24.45-.01.18.22.33.24.43,0,.04-.37.04-.36.64,0,.19.18.32.17.37-.01.13-.39.38-.51.62-.24.47.02,1.42-.97,1.35-.66-.05-.21-1.69-.51-2.23l.29-.16c-.63-.62-.04-.82-.03-.87.04-.19.07-2.31.04-2.46l-.44-.15c.72-.67.12-1.6.14-2.46l.44-.08-.29-.51.28-.08v-.28c-.76-.07-.27-1.36-.19-1.83.03-.17-.09-.34-.05-.52.03-.15.47-1.07.4-1.13h-.33s-.11-.36-.11-.36l.44-.29v-.29s-.3-.14-.3-.14c.16-.39.59-.65.58-.94h-.29s.29-.43.29-.43l-.3-.08.3-.8-.29-.14c.45-.02.44-.79.72-1.09l-.29-.21.43-.22c.19-.55-.41-.26-.43-.43.16-.23.16-.97.27-1.13.1-.14.43-.21.44-.32,0-.06-.19-.23-.21-.36-.11-.76.14-.49.22-.68.1-.23.1-.46.18-.66.18-.43.6-.41.11-1.06l.24-.1c.04-.1-.25-.31.19-.26l-.3-.22c.38-.38.29-1.29.38-1.52s.77-.74.84-.9c.25-.63-.26-1.13.86-1.6.43-.18,1.08.14,1.32-.52.87.07,1.36.29,2.08.63ZM29.59,52.89c-.08-.09-.02-.28-.13-.23l-.74.58c-.05.11.3.4.09.78-.1.18-.61,0-.44.31.11.2.46.12.43.36l-.72.44.44.15c.11.49-.57.91-.59.97-.05.2.05.46,0,.67-.03.13-.45-.06-.13.71.07.16.33.07.27.31-.09.33-.69,1.46-1.01,1.62l.03.33c.7.26.21.27.15.57-.07.38.33,1.12-.47.9v.85s.36.16.36.16l.16-.3,1.71.16.16-.31c.83.51,1.51-.14,2.39.15.07-.72-.38-1.07-.31-1.81.03-.34.38-.25.41-.42,0-.05-.09-.9-.11-1-.01-.05-.53-.38-.16-.9l-.26-.13c.01-.45,0-1.17-.07-1.69-.04-.29-.31-.72-.42-1.04-.15-.44.12-.96-.66-1.14l.13-.27-.43.14c-.2-.52.03-.54.14-.8.05-.11-.15-.04-.23-.13Z"/><path d="M48.22,6.84c.38-.79.54.25.61.29.28.18,1.71-.23,1.72.45l.43-.29c.42.64.1.92.07,1.44,0,.18.17.28.15.45-.06.42-.36.21-.47.32-.25.24.16.7-.8.39-.12-.04-.12-.23-.14-.24-.15-.06-2.41,0-2.78.01-1,.05-1.03.74-1.26,1.54l.44.08c-.1.23,0,.54-.1.75-.09.2-.34.18-.33.25.1.73.07.59.06,1.31,0,.1.22.24.2.4-.05.3-.73.75.17.68-.11.32-.12.86-.58.87.61.36.24.71.44,1.37-.99.28-.35.5-.33.58.03.08.03,1.56.02,1.75-.01.27-.55.78-.21,1.24l.52.13c.05.22-.19.08-.28.25-.41.75.29.74.28.83-.1.3-.35.9-.38,1.18-.02.2.13.4.11.55-.02.17-.37-.01-.3.23.43-.16.91.27,1.21.26.35-.02,1.59-.53,1.73-.51.26.04,1.06.58,1.47.56.16-.01-.02-.36.22-.3.18.26.21.76.33.97.07.12.39.08.4.39,0,.05-.25.85-.28.88-.26.31-.75.33-.93.49-.15.12-.03.37-.19.45-.94.49-2.66-.08-3.61.58l.07,1.53-.27.07v.28s.57.22.57.22l-.29.14c.57.49-.02.74-.15,1.17-.23.75.03,1.18.09,1.73.09.89-.06,1.58.18,2.46.12.44-.75,1.17.46.8l-.38,1.67c.71.47.66.87.59,1.67l1.02.28c.02-.61.53-.95.88-1.37.1-.12.03-.44.35-.37l-.43-.36c.4-.39.55-.8,1.15-.51l.39-.71c.22.12,1.15.17,1.21.2.37.21.36,1.91.3,2.33-.03.19-.75.81-.59.93l.58.07c-.39,0-.23.43-.29.51-.03.04-.43-.4-.87.22-.17.23-.09.55,0,.8h-.58c.28.73-.56.43-.77.56s-.17.48-.26.58c-.05.05-1.11-.21-.42.89-.2-.01-.45.05-.64-.02-.25-.09-.13-.44-.38-.42l-.07.58c-.2-.04-.56-.58-.6-.59-.21-.01-.45.19-.68.13-.37-.09-.32-.97-1.19-.31-.52-.15-.21-.69-.3-.83-.29-.48-1.44-1.27-1.07-1.94l-.29-.14c.41-.62-.1-.63-.15-.78-.05-.12-.24-1.19-.24-1.27.03-.47.64-.42-.34-.66.41-.86-.08-1.7.43-2.45h-.44s.15-.29.15-.29h-.44c.06-.54.03-.71.58-.94l-.3-.16c.23-.49,0-.69-.06-1-.04-.24.29-.57-.22-.51l.27-.15c-.22-.66.69-2.06-.42-2.23l.26-.09c-.33-.78.11-.76.23-1.03.1-.23-.09-.58.24-.76l-.29-.15c0-.42.31-1.09.25-1.47-.23-1.41-.31-1.2-.15-2.73.06-.58-.21-.95-.22-1.01-.07-.51.27-1.03.18-1.82-.03-.29.23-.04.24-.22.01-.44-.25-.07-.44-.07.16-.36,0-.95.03-1.24.01-.09.23-.06.31-.25.31-.73-.35-.85-.34-.9.41-.11.17-.2.26-.46.17-.47.73-1.04-.11-1.21v-.14c.39.07.33-.45,0-.51l.87-1.75-.29-.14c.54-.3.2-.78.58-1.16l-.29-.16c-.17-.58.3-.47.29-.56l-.31-.29c.47-.92-.07-2.04.53-2.97.14-.21.38-.23.46-.32.03-.04-.08-.19.04-.32.52-.55,1.27-.12,1.92-.38.18-.07.17-.31.25-.36.17-.11,1.3.27,1.17-.22l.56.27Z"/><path d="M18.65,66.13l.58-.15c.22.81.04,1.51.08,2.31.02.37.2,1.07.27,1.35.04.17.23.3.21.44-.02.17-.36.26-.27.53l.43-.15c.13.13.03,1.37-.05,1.54-.09.18-.32.17-.36.22s.11,1.35.41,1.14v.14c-.44-.1-.5.7-.43.93.04.12.3.08.28.16-.12.5-.71.45-.91.84-.18.35.12.76-.03,1.11-.23.46-.62.13-.65.16-.04.03-.04.4-.19.54-.71.64-2.42.97-3.36,1.24-.08.02-.06.22-.18.24-.27.05-.9-.1-1.2-.14v.44c-.69.06-.5-.46-.58-.58-.02-.03-.32.17-.66.02-.42-.18-.38-.81-.79-.26-.29.4-.35-.95-.39-1.02-.14-.26-.4-.29-.44-.36-.03-.05.14-1.22.18-1.27.48-.68,1.5-.31,2.07-.18.3.07.42-.31.54.17.27-.17.12-.32.07-.58l1.16.29-.14-.43c1.62.51,1.49-.22,1.99-1.42.08-.19.32-.16.34-.27,0-.04-.04-.71-.05-.74,0-.02-.19-.06-.22-.15-.17-.54-.61-1.12.27-1.26-.21-.56-.4-.93-.15-1.52h-.44s.15-.65.15-.65h.29s-.43-.43-.43-.43l.43-.51c-.47.06-.31-.53-.47-.69-.08-.08-.5-.07-.54-.26-.04-.17.28-.32.23-.51-.05-.22-.71-.99-.78-1.25-.08-.29.04-.7-.06-.88-.08-.15-.87-.24-.99-.56l.29-.76c-.64-.53-1.82-.93-1.44-1.89l-.58.14c.14-.41-.72-.97-.83-1.2-.15-.31.2-.66-.48-.54l.3-1.36-.59-.31c-.15-.42.27-.32.29-.43v-.21s-.44-.22-.44-.22c.37-.31.26-1.39-.04-1.63-.14-.12-.68.15-.17-.75.06-.11.32-.12.36-.25.08-.31-.12-.62-.11-.87,0-.2.21-.32.22-.4,0-.13-.41-.29-.4-.58.01-.35.57-.35-.12-.87.34-.24.25-.53.33-.77.43-1.18.98-1.25,1.77-2.2.21-.25.47,0,.2-.59.77.31.98-.41,1.34-.68.04-.03.23.18.35-.2l1.41.15c.11-.52,1.08-.38,1.47-.23.11.04,1.91,1.17,2.04,1.28.53.47.8,1.49,1.65,1.33l.12.14c-.44.77.32.57.32,1.16,0,1.49-.6,1.43-1.75.95.36-.73-.49-.63-.69-.77-.08-.06-.13-.27-.27-.36-.79-.5-1.62-1.03-2.6-1.01-.6,0-.5.47-.79.63-.17.09-.44.03-.55.1-.18.12-.09.67-.21.81-.02.03-.57.22-.69.32l.34.32-.04.46-.45.09c.24,1.01.43,2.06.3,3.1l.2.19.36-.1-.56,1.12c-.09.51.91,1.18.85,1.78l.28-.14.15,1.3.43-.43c.04.75.95.62.44,1.45,1.15-.19.77,1.71,1.89,1.74l-.28.57c.54,0,.25.69.5,1.02.26.35.41-.05.65-.14v2.17Z"/><path d="M41.27,50.62l.14.37.43-.08c.1.31.14.68.25.98.07.18.28.18.3.21.04.08-.13.68-.11.84l.29-.15c.14.38.06.54-.14.87h.44c-.1.52-.56.67-.51,1.24.04.49,1.02,1.05.08,1.38v.28s.44.36.44.36c-.46.51-.14.82-.18,1.28-.02.24-.24.48-.26.62,0,.06.22.06.28.18.13.26-.08,1.56-.14,1.92l.44.07c-.55.6-.11,1.11-.58,1.66l.3.08-.15.64c1.1-.04.21.96.2,1.24-.01.3.57.91-.04,1.45l.56.45-.57.86c.55.14.19.92,0,1.3.39.21.7,1.39-.14,1.24.47.49-.12.81.58,1.1.08.27-.7.99.29.93l-.29.29c-.06.24.23.08.27.21.05.18-.14.7-.42.73.53.47.53.83.74,1.41.06.16.44.24.16.81.4.09.95.6,1.28.69s.49-.18.73-.18c.43,0,.91.17,1.36.1l.32-.58c.39.17.8-.05,1.13-.01.22.02,1.5.54,1.26.85h.35c.15.25,0,1.02-.13,1.28-.02.04-.52.72-.56.75-.03.02-.2-.12-.23-.08-.26.24-.52.91-.9.69l.14.43c-.38.14-.74-.36-.94-.38-.44-.04-1.53.73-2.11.62-.26-.05-.61-1.01-.5.04-.63.14-.79-.41-.9-.44-.4-.1-.58.2-.84-.43h-.21s-.07.29-.07.29l-.87-.84c-.26.26-.46.3-.77.09.1-1.32-1.06-1.61-1.33-2.8.08-.16.39-.15.43-.31.02-.1-.17-1.33-.21-1.5-.06-.27-.49-1.74-.56-1.84-.04-.05-.17-.05-.25-.04l.29-.43h-.44c-.08-.39.44-.62.45-.67.02-.17-.27-.52-.27-.74,0-.69.14-.22-.09-1.2-.17-.72.22-.77.29-1.09.03-.12-.02-1.19-.08-1.24l-.29.15c-.16-.24.45-1.91-.29-2.1l.44-.94-.58-.07c-.03-.75,1.38-1.48.15-1.74l.72-.87-.44-.14.3-.58-.29-.14c.51-.43.07-.71.06-1.01,0-.2.22-.64.24-1.02.05-.87-.41-1.65-.14-2.42.05-.13.73-.46-.01-.76l.43-.44-.41-.29c-.06-.33.35-.57.38-.74s-.13-.39-.11-.56c.06-.49.23-.96.19-1.46l.19-.18c.24.15.69-.18.8-.45l.27-.02Z"/><path class="cls-1" d="M112.77,12.08l.15.43c-.6.08-.78-.39-.15-.43Z"/></g></svg>