<?xml version="1.0" encoding="UTF-8"?>
<svg id="Layer_1" data-name="Layer 1" xmlns="http://www.w3.org/2000/svg" viewBox="0 0 485.24 200.23">
  <defs>
    <style>
      .cls-1 {
        fill: #fff;
      }
    </style>
  </defs>
  <path class="cls-1" d="M254.99,2.89v1.06s1.77,0,1.77,0c-.95-1.62,1.94.07,2.91-.06,1.02-.14.93-1.01,1.14-1,.7.02.8.7,1.25.88.49.19,1.12-.1,1.5.16s0,1.03.94.72l.18-.69c.98,2.17,2.28,1.27,3.62,1.89,1.06.49,3.02,2.44,4.06,3.12,1.16.77,1.93.2,2,.28.12.13-.01,1.1.89,1.78.42.31,1,.08,1.33.3.57.37,1.43,2.4,1.84.74,1.36.51,1.85,2.32,2.66,2.98.4.32,1.82,1,2.5,1.39.89.52,1.27-.32.66,1.26,1.33-.51,1.97,1.49,2.8,2.3s2.57,1.14,2.46,2.46c-.04.48-1.03,1.81.08,2.61.15.11.67-.26,1.01-.13.25.1,2.49,3.02,2.62,3.32.83,1.92,1.27,4.18,2.79,6.21.3.41,1.06.68,1.29,1.38l-1.06.17.71.88-.71.52h1.41s-.67,1.89-.67,1.89c.12.64,1.16.77,1.31.99.06.09-.29.48-.22.57.14.19.75.15.94.65.11.29-.43,3.74-.2,4.96.15.82.89,1.42.85,2.33-.08,1.58-1.57,3.81-1.27,5.71l.66.67-1.76.89c.82,1.31.1,3.94-.26,5.56-.11.48-.49.84-.61,1.32-.28,1.11.77,2.62-1.6,2.63l.31,1.37-1.02.57.7.17c.54.65-1.19,2.61-1.47,2.72-.21.08-1.15-.49-1.52.43-.14.36.24.85.19,1.19-.04.26-.56.22-.6.3-.1.18.25.64.09.98-.12.24-2.61,1.69-2.97,2.19-.15.22.39.9-.15,1.58-.91,1.14-2.9,1.11-3.02,1.22-.15.13.02.85-.41,1.18-.79.61-3.06,2.47-4.15,2.98-.63.3-1.44-.16-1.79.53.45,1.28.71,2.59,1.37,3.8.06.11,1.38,1.88,1.48,1.94.44.26,1.76.08,2.38.45l.18,3.19.87-.03c-.34,1.47.69,1.43,1.09,2.01,1.02,1.46,1.42,2.55,3.15,3.44l-.69.67c0,.63.95,1.55,1.49,1.85.17.09.55-.26.59-.23.16.12,1.2,3.29,1.42,3.68.84,1.48,3.21,3.11,4.25,4.67l1.41,4.31,1.58-.69c1.34.72.21,1.83.33,2.1.64,1.48,2.49,1.38,2.61,1.48,1.01.88.6,3.27.82,3.91.2.59,1.26.78,1.67,1.51.3.53,1.04,1.88,1.22,2.25.63,1.29-.17,2.59,2.34,2.11l.16,2.13,1.24-.02c-.32,1.25.81,1.91,1.03,2.39.76,1.65.18,3.48,2.85,2.54l-.7.7.7.18-1.05,1.41c.76.9,1.66,1.57,2.81.88v2.11c2.26-.31,1.65,1.25,2.15,2.55.16.4,2.09,3.76,2.61,4.16.4.3.92-.02,1.23.52l-.6.24.15.57-.6.07v.7s.7.18.7.18c-.33.39-.91.49-1.22.91-.56.76.47,1.31-1.42.67l-.2,1.03-1.74.38v-1.06c-2.45.69-1.77-.09-2.86-.85-.56-.39-1.28-.39-1.76-1.08-.37-.54-.03-1.05-.24-1.48-.65-1.36-1.48-2.43-2.14-3.49-.74-1.16-.34-2.29-2.17-1.91.7-1.07-.5-1.69-.56-1.85-.23-.59.01-1.17-.68-2.01-.88-1.06-2.06-1.28-3.33-1.43.96-1.75-1.6-2.42,0-3.86l-1.76-.36c1.02-1.84-.23-3.3-2.1-2.46-.06-1.79-.85-1.13-1.4-1.43-.06-.03.28-.77-.03-1.45-.12-.26-.52-.3-.65-.57-.9-1.84-1.2-3.4-3.19-4.52l.68-1.36c-1.98-.7-2.14-2.14-2.85-3.77-.19-.44-.89-.09-.31-.98-2.47.88-1.29-1.96-1.41-2.11-.04-.06-.89-.1-1.31-.46-.95-.81-1.18-2.53-1.48-2.9-.35-.41-1.06-.55-1.4-1.08-.4-.63-.27-1.48-.72-2.1-.95-1.3-3.75.14-2.17-2.95-1.13-.07-1.19-1.38-1.43-1.72-.08-.11-2.43.14-1.36-1.48l-.99-.04c-.29-1.43-.01-2.73-1.83-2.78.5-.92.05-1.9-.68-2.57-.4-.37-.88-.17-1.02-.27-.13-.1.08-2.43-2.17-1.37l-.67-4.33c-1.37-1.4-3.06.15-4.46.43-.46.09-1-.33-1.59-.18-.53.14-1.05.94-1.75.92l.7,1.4-3.3-.29-.79,1.37-1.53-.02-.19-1.05-.18,1.05c-.91-.04-3.85-.11-4.18.94-.09.3.18.74.12,1-.38,1.94-.22,4-.31,5.98-.04.86.53,2.9-.56,2.65v.34c1.3.2,1.74,2.33.35,3l.73.37-.37.85,1.05-.35c.67,1.32-.12,1.98-.32,3.02-.23,1.18-.43,1.8-.67,2.9-.36,1.63,1.08,3.42-.07,4.65,1.43-.16.57,2.35.7,2.47h1.41c-.88,1.22-1.68,2-1.65,3.65.02,1.41.93,1.27,1.19,1.8.09.19-.38,3.52-.25,4.18.06.28.69.23.73.46.11.67-.84,2.38-.95,3.43-.2,1.98,1.15,3.37,1.23,4.34.08.9-1.53.54-.28,3.02.2.39.98.07.68.96-.17,0-.51,0-.58.12-.35.52-.74,3.33.24,3.23l-2.46,1.61.35.68c-.33.23-1.92-.69-2.44-.85-.41-.12-1.02.3-1.44,0-.73-.53-.68-2.19-.78-2.26-.31-.21-1.05-.02-1.33-.59l.7-.88-1.05.35c-.59-1.32.66-1.86.69-2,.19-.78-.15-1.89.36-2.74l-1.05-.18c-.27-.41.63-2.63.63-2.94-.02-.78-.83-.95-.85-1.02-.73-1.89.58-3.21-.46-5.05l.65-.3c-.62-.95.41-4-.13-4.77-.28-.4-1.24-.17-.8-1.59.07-.23.53,0,.58-.62.02-.2-.26-1.53-.39-1.61l-.98-.06,1.06-2.28-1.07-.19c1.31-3.1-.17-6.02.35-9.15l-1.05.35c.38-.72-.19-1.54.04-2.22.18-.53.97-.57,1.25-1.11s-.62-1.81-.56-1.92c.04-.06.5.04.6-.19.33-.74-.32-3.32-1.33-3.53,1.77-2.09,2.11-3.71.66-6.15l-1.02.34.7-2.11h-.7s.73-.57.73-.57c-.6-1.49.23-2.33.34-3.77l-1.43-.59c.5-.54.77-1.59.62-2.29-.05-.23-.51-.16-.56-.35s.68-3.7,1.36-3.52l-.64-.22c-.08-.08.28-1.9.23-2.25-.02-.16-1.02-1.2-.57-2.82.05-.18.61-.14.64-.39.18-1.48-1.59-3.87-.38-5.05l-.73-.22.39-1.55.7.17-1.06-1.4,1.4-1.58-.6-.07c.21-.62.31-.7-.45-.64l.7-.35-.35-.53-.7.18,1.05-2.29-.72-.38.37-.85h-1.06s.31-1.55.31-1.55l1.1-.21v-.7s-.72-.24-.72-.24l.37-2.01-.7-.38c1.22-1.91.62-3.32.76-5.31.05-.6.56-1.18.55-1.4-.02-.24-1.76-2.34-.66-3.54l-.67-.32c1.28-1.17,1.24-2.1,1.01-3.85-.2-.74-1.43.08-1.59-1.44-.18-1.74.89-2.37.92-2.51.06-.32-.37-1.35-.26-1.71.03-.1.77-.45,1.05-1.33.11-.37.24-2.5.11-2.71-.15-.23-.65-.27-.78-.43-.12-.14.3-2.19.19-2.85-.2-1.23-1.39-.5-.65-2.47.14-.38.23-.4.52-1.3.36-1.11,1.4-2.13-.16-2.99.51-.65,2.13-3.46,0-2.29-.99-1.53.51-2.3.64-3.06.04-.25-.94-2.19-.88-2.76.05-.4,1.3-.96.85-2.46-.04-.12-1.08-.43-.62-1.58l1.36-.04.46-2.01c.74-.48,1.91.1,2.52-.1.73-.24,1.12-2.15,1.98-1.37l.38-2.11h1.75ZM261.95,11.44c-.64-.28-4.3-.94-4.94-.76-.58.16-1.17,1.33-2.32,1.05l-.35,1.56,1.35,1.37-1.06,2.14.71.87-.72.19c.73,1.25,1.04,2.97-.69,3.35.94,1.1.55,2.99.35,4.36l.71.38-.7,2.98c1.02-.16,1.82.72.96,1.37-.24.18-.89-.01-.96.06-.12.11.65,2.16-.35,2.98l1.04.58-.65,1.56c1.51.79.71.54.68,1.75-.05,1.51.32,1.23-1.06,2.63,1.44,0,.38,2,1.4,2.65-1.16.42-1.49,1.64-.35,2.11-1.25.63-.31,1.88-.43,2.24-.02.06-.5.02-.56.21-.15.44.04,2.81.96,2.8l-.34,1.4.73.38c-1.18.67-.31,1.51-.41,2.14-.31,2.13-.74,4.99-.59,7.04.03.46.5.82.5,1.04.01.31-1.01,1.45-.94,2.08,2.22,1.1.26,1.5.2,3.13-.06,1.54,1.02,1.8,1.18,2.19.35.85-.96,3.36-.98,3.86-.07,1.41.52,4.94.55,6.35,0,.25-.68.95-.75,1.75-.21,2.23,1.3,1.21,1.59,2.65h.34c-.07-1.32,1.99-.06,3.57-.5.19-.05,2.11-1.52,2.34-1.58,1.21-.32,2.44.23,2.56.17.93-.47.16-2.08,1.88-1.6.28.08.25.78.91.88.07.01,1.41-.33,1.47-.38.35-.3-.12-.73.16-.88,1.63-.92,3.81.54,3.71-2.8.55.13,1.37.31,1.91.26,3.22-.3,1.39-3.24,4.77-3.09l.02-1.72,2.05-.06c-.02-1.75,1.69-2.65,3.18-3.17l-.24-.6c.92-.66,1.05-2.23,1.83-3.14.45-.51.66-.9,1.25-.45.25-1.21.61-4.44.99-5.53.56-1.6,1.15-1.11,1.71-1.64,1.36-1.27.44-3.52.51-5.01.05-1,1.24-2.65.89-4.93-.07-.45-.81-.69-.89-1.08-.03-.12.37-1.58.45-2.37.07-.63.95-.64-.12-1.83-.29-.32-.9-.43-1.01-.58-.2-.28.3-1.26.25-1.51-.07-.34-1.66-2.8-1.77-3.13-.36-1.02.1-1.73,0-2.13-.08-.31-1.98-1.34-1.16-3.02l-1.61-.19-.62-.68.64-1.23-1.39-.57.33-1.9-1.05,1.05-.53-2.12c-2.14.42-2.99-3.38-3.72-3.86-.88-.57-.48.84-1.05.69l-2.13-3.52-1.05.7-.73-2.1-1.36.32c-.55-1.25-1.78-3.36-3.12-3.76-.91-.27-1.73.36-2.02-.8-1.59,1.44-1.35-.1-2.21-.71-.36-.26-3.51-2.26-3.71-2.35Z"/>
  <path class="cls-1" d="M399.85,2.53l.36,1.41.35-.7c2.46-.99,2.71,2.69,5.29,1.41l-.16,1.43-1.25.33c.53,1.17.84,2.07,0,3.16h1.07c-.57.64.03,1.54-.06,1.92-.03.14-1.66,1.43-1.35,2.31l1.4-.35c-.04,1.09.11,2.56-1.06,3l.02.51.58.08c-.23.63-.15.53.4.81l-1.34,2.82,1.05.7c-2.37,2.16-.56,3.36-.45,5.34.04.69-.72,2.37-.6,3.08.02.12.93,1.13.92,2.15,0,.82-.99,1.84-.86,3.1.1.93.97.98.96,1.1-.05.82-1.96,2.6-1.39,4.07l.69-.35.37.88c-.56.29-.88,0-.71.87,1.79-.17,2.27,2.28,0,1.77l1.06.35c.11.87-1.07,1.47-1.05,1.57.11.63.71,1.97,1.4,2.12l-1.44,1.44c.56,1.4.68,1.24.03,2.61h1.06s-.26.64-.26.64l.6.24c-1.31,1.4-.85,2.72-.72,4.4l-1.05.18,1.78,1.75c-1.46,1.8-1.03,3.53-1.16,5.56-.03.52-.55,1.17-.52,1.5.05.49,2.81,1.48.26,2.81,1.96.94.47,1.52.43,1.63-.09.28.35.62.22.94-.03.07-1.02.29-.94.96l2.05,1.05c-.94.39-1.12,1.21-1.43,2.14l.75.68c.08.91-1.02,1.28-1.03,1.38-.01.23.03,1.88.05,2.07.05.38.78.82.6,1.45l-1.06.55,1.07,1.57-.72,1.59h1.06c-.43.81-1.22,2.68-1.27,3.53-.07,1.05,1.17,1.99-.14,3.16l.98.06c.64.71-.09,1.21-.12,1.71-.09,1.53.25,1.96-.85,3.35l1.05.38.37,1.01-1.07.72.89.52-.17.87-1.07.37,1.41,1.41-1.41,3.17,1.06.18c-.34,1.12.13,1.78-.97,2.63l.61,2.3.71-.18c-.79,1.42.17,2.28-1.76,1.94l.68.37-.33,1.04h1.06c-1.44.93-.32,3.18-2.12,2.82l.7,1.05c-1.23.17-1.72.37-1.36,1.72l1.36.75c-1.31-.07-.61,1.11-.78,1.56-.29.75-1.53.29-.43,2.33-.34.37-.79.63-1.05,1.08-.43.73-1.94,3.64-1.94,4.38,0,.53.52.97.54,1.4.09,1.69-3.17,4-3.73,5.64l1.05.87c-1.87.34-1.83,1.32-2.46,2.59-.11.22-.61.23-.63.29-.1.24.58,1.02-.18,1.95-1.03,1.26-2.24.39-2.34.46-.09.06-.19,1.38-1.09,1.92-.95.56-2.35.12-2.45.19-.04.03.36.52.03.87-1.13,1.18-1.16-.19-1.25-.17l-2.12,1.4.17.72-2.12-.35v1.4s-1.76-.35-1.76-.35l.35,1.05c-.5.27-1.6-.05-1.89.03-.25.07-.17.53-.49.66-.74.31-1.56-.4-2.05,1.1l-2.27-1.43.35,1.41c-1.47.48-1.37-.65-1.91-.92-.69-.34-2.49-.25-2.33.92l-1.57-1.04c-.67.07-1.31.28-1.25,1.04h-.34c-.08-1.43-3.22-1.59-3.18,0l-.39-.63c-1.55.76-1.8-.96-2.52-1.25-.82-.33-4.76.16-5.03.04-.36-.17-.5-.59-.52-.96l-.52,1.4c-1.46-.6-2.32-1.57-2.65-3.17l-1.76.7.17-.7c-1.43.81-1.63-.87-2.15-1.01-.72-.2-1.92.85-2.43-.75l-.52.02-.18.69-1.22-.75.34-1.01c-1.03.72-2.15-.71-2.12-1.76-1.73.86-2.1-1.88-2.58-2.74-.1-.18-.76-.29-1.03-.86-.23-.49-.18-1.55-.29-1.65-.16-.15-.98.06-1.38-.2-.66-.42-.26-2.52-2.11-2.31l.35-1.75-1.41-.18c0-.91.24-1.43,1.06-1.76-.37-.66-1.53-.08-.85-1.96l-1.28-.56c-.53-.97.17-3.94.03-4.46-.1-.38-.74-.32-.97-.76-.12-.23-.02-4.23-.23-5.24-.18-.84-.73-1.75-.74-2.73l-.89.04c-.17-.65.56-1.06.57-1.58s-.59-1.18-.55-1.78c.03-.5.61-.82.61-1.33,0-.62-.74-1.56-.89-2.27-.2-.97.39-2.22.27-3.01-.04-.29-.72-.17-.88-.89-.23-1.08.04-3.08.12-4.13,0-.12-1.98-1.2.13-1.56.86-.15-.05-1.98-.79-1.93l1.42-1.42c-.77-.96-.59-1.93-.91-2.97-.12-.39-.72-.75-.79-1.3-.07-.6.54-1.39.6-2.1.08-.91.19-4.9-.03-5.56-.17-.49-.82-.44-.95-.75-.11-.26,1.18-4.58.99-5.59-.31-1.65-2.16-2.73-.34-4.27l-.7-.52.72-.2c-.35-1.09-.23-2-1.43-2.44l1.4-2.84c-1-.38-1.08-3.11-.68-4.12.11-.28.67-.27.65-.42-.1-1.2-.76-2.47-.57-4.03.12-1.02.86-2.09.88-2.74,0-.39-.82-2.73-.88-3.55-.05-.59.18-1.2-.02-1.8l.62-.39c-1.74-.12.32-1.87.35-2.01.45-1.91-2.81-2.49.36-3.45-.68-.07-1.09-2.54-1.09-3.2s.68-.44.74-.74c.3-1.56-.19-3.78-.56-5.02-.6-2.04.76-3.69.58-4.72-.06-.35-1.61-.23-1-2.43.36-1.31.38-.95.6-2.5.05-.36,1.11-.01.73-.93l-1.27-.33c.21-.66-.37-2.27-.34-2.52.12-.9,1.08-1.78,1.07-3.11,0-.79-.72-1.45-.55-2.28.08-.39.88.02.73-.56h-1.41s0-1.76,0-1.76h1.06c-.61-1.98.67-3.02-.34-5.03-.13-.27-1.02-.46-.98-1.14,1.4-.93.69-3.34,2.73-2.64l-.35-1.05c2.07-.69,4.25-.27,6.35,0l-.7,1.58c1.31.59.59,3.36,0,4.58l.34.36c.59-.31.99.14,1.01.76.04.92-1.04.5-1.01,1.16l1.4.53c-.41.77-.42,1.04-1.4.88,1.68,1.67.45,4.12.46,6.12,0,.51.51,1.06.52,1.52.01.51-.72,1.04-.68,2.06.02.56,1.1.5.66,1.75-.08.22-.65.06-.65.68,0,.85.73,1.77.65,2.43-.35,2.99-.28,6.13-.52,9.15-.06.77.78,1.99.52,2.87-.07.24-.49.21-.58.45-.59,1.63-.25,1.93.98,3.06l-1.37,2.13h1.06s-1.06,2.28-1.06,2.28h1.41s-.35,3.87-.35,3.87h-1.41c.34.72,1.06,1.87,1.09,2.64.04,1.14.29,3.76.24,4.49-.08,1.18-1.04,3.64-1.01,4.65.03,1.12.95,1.84,1.05,2.57.11.78-.68,1.18-.69,2.02s1.07,2.36.67,3.19c-.15.31-.8-.12-.64.69l.74.38c.09.53-.64,2.45-1.43,2.27.66.77,1.04.58,1.05,1.74l-1.05.02c.3,1.15.76,1.68,1.76,2.28l-1.32,2.12.85,1.6-1.28,1.39,1.06-.17-.35,2.99.7-.36c.74,1.29-.54,1.85-.59,2.28s.77,2.46.78,2.82c.05,2-2.02,3.85.77,5.98.09.68-.96.97-.95,1.05.11.8,1.14,1.26-.01,2.3l1.07.87-1.06,3.01,1.05-.35c-.74,1.31.32,2.35.38,3.33.08,1.26-.13,1.8-.26,3.09-.17,1.67.68,3.74.63,5.51l.99.05c-.25.42.06,1.08-.15,1.38-.27.39-1.1.11-.89.88l1.76.54-1.06,1.59c1.83.71.89,3,1.11,4.14.17.91,1.69,2.36,1.91,3.42.13.65-.35,1.38-.16,1.71.05.09.83.28,1.19.76.51.67.53,1.8.86,2.25.22.29.74.12,1.09.48,1.45,1.46,1.64,3.31,3.85,2.58-.39,1.62,2.64,2.2,3.13,2.88.18.25,0,.79.09.95.05.08,1.23-.32,1.74.37v-.7s.58.72.58.72c1.94-.37,3.94,1.26,6.12,1.03l-.36-.7c1.95-.86,1.88.88,2.56,1.31s4.04,1.47,3.79-.25l.35.7.7-.7.05.65.64-.28.38,1.39c.59.16.16-.68.55-.73.71-.09,1.35.64,1.74.62s.89-.82,1.47-.88c.53-.05.95.51,1.35.51.17,0,3-1.08,3.25-1.2.91-.47,1.02-1.27,1.25-1.41.33-.19.86.02,1.22-.18.17-.09.17-.67.78-.82.85-.21,1.37.28,1.92.24.26-.02.23-.61.46-.73.27-.14,2.31-.92,2.39-1.02.23-.31-.21-.92.93-1.6.87-.52,1.89-.13,2.64-.89l-.21-1.41,1.41-.36-.7-.52c.11-.57,1.07-1.47,1.15-1.67,1.44-3.53,1.19-7.97,4.48-10.66l-.65-.23c.58-1.34-.26-.89-.35-1.17-.27-.77.56-2.17,1.72-1.59v-1.75s-1.77-.18-1.77-.18c.92-.27.38-.39.69-1.05l1.07-.2c-.41-1.87.52-3.08-.37-5.02,1.22-.45,1.05-2.29,1.03-3.53-.01-.79-.91-1.74.4-1.64l-1.04-.73c-.11-.16.8-1.53.9-1.98.49-2.24-.13-4.34-.47-6.33-.11-.63.59-1.35.58-2.06s-.82-1.36-.7-2.07c.04-.22.72-.17.73-.41.02-.28-.12-3.33-.17-3.5-.14-.48-.73-.73-.77-1.04-.06-.48.75-1.5.91-2.16.12-.48.78-5.26.75-5.61-.04-.48-1.3-1.54-1.33-1.64-.09-.28.33-.58.19-.9-.03-.08-1.01-.42-.95-1.33l1.72-.52c.13-.54-.48-.2-.69-.61-.54-1.03.54-3.79.59-5.28.04-1.12-.64-3.92-.58-5.17.05-1.04.99-2.02.33-3.37l-1.41.17c-.07-1.88,1.24-1.44,1.41-1.58.08-.07-.33-1.48-.26-2.01.17-1.35,1.37-.74-1.14-2.04l.68-1.07,1.08.18-.36-1.4-.69.35.06-4.16.64-.07-.7-.52c.81-.68.96-2.77.95-3.83,0-.54-.54-1.09-.5-1.75.03-.59.64-1.29.63-1.79,0-.21-.75-.05-.77-.71-.04-.94.57-1.41.6-1.78.04-.51-.55-1.13-.53-1.77.05-1.66.54-4.11.52-6.01-.01-1.33-.41-2.77-.18-4.17l-1.08-.21c-.19-.98,1.02-1.41,1.07-1.64.1-.5-.56-1.41.33-2.22l-.7-.35.7-.18c-1.39-.5-.65-2.1-.75-2.23s-1.32-.44-.95-1.28c.31-.72,2.5-.99.67-3.54l.97-.56c-.09-2.14-1.37-4.17.41-5.94l-1.05-.18c.22-1.66,1.53-1.11,1.96-1.94s-.75-2.39,1.21-2.47Z"/>
  <path class="cls-1" d="M106.52,5.43c.06.03.03.58.84.77,3.14.77,8.48,1.94,12.15,2.17,2.11.13,5.37.78,7.64,1.93.26.13.3.42.26.69l1.19-.69c1.06.44.31,1.32,1,1.49.45.11.92-.03,1.4.03.53.06,1.36,1.16,1.72-.43l2.26,1.72.34-.71.88.37-.34.69,1.26.33.33-.69.65.06c.89.29,1.12,1.85,1.81,2.46.25.22,2.48,1.33,2.6,1.44.42.42,1.32,2.47,1.98,3.11,1.35,1.29,2.55.59,2.65.69.05.06.14,1,.42,1.53.44.82,1.19,1.25,1.45,1.73.59,1.11,1.25,2.62,1.89,3.87.09.18-.22.61-.06.97.35.76,1.19.26,1.59.88l-.7,1.23c1.37-.87,1.89,1.14.71,1.06v.34c1.1-.06.26,1.43,1.74,1.09-.27,1.19-.45,2.38.23,3.49.16.26.71.32.77.42s-.19,2.04-.28,2.41l1.4.02c.62.6-1.71,7.67.35,8.99v.51s-.69.18-.69.18l.63.22c.31,1.64-.72,1.21-.97,2.42l1.05.17-.32,1.06-1.08.18.89,1.01c.09.64-.2,1.18-.89,1.1l.7.88c-1.67.46-.74,2.54-2.11,2.65l.7.35c-.53.82-1.18,2.4,0,2.63-.34,1.37-1.1,1.08-1.57,1.59-.22.24-.25.86-.54,1.23-.72.88-2.65,2.45-2.49,3.5.06.39.89-.04.73.55-.69.83-2.35.3-2.46.36-.05.03.24.48.12.69-.94,1.8-1.17,3.02-2.72,4.46-1.43,1.33-.93,1.19-1.72,2.15-.25.3-1.19.35-1.69.96-.9,1.07.26,2.22-1.94,2.65l-.51-.7c.19,1.75-1,1.1-1.66,1.52-1.29.82-1.93,2.79-3.62,3.61-1.25.61-2.32.09-3.55.69l-.34,1.58-3.17-.71-.02,1.05-1.41.17c-.28.28-.03,1.53-.73,1.91-.21.12-.63-.45-.96-.48-.72-.07-1.4.36-2.16-.18l.7,1.76-1.61.27-.85-.97-.15.67c-1.52-.77-2.9.83-4.56.43l-1.45,1.93-2.65-.92v1.05c-.51-.26-1.62.06-1.89-.01s-.19-.71-.4-.7c-.32,0-1.92.43-2.99.51s-1.3,1.07-2.82-.49l-.02,1.03-1.34.07c-1.05,1.62,1.02,4.03-.75,4.72l.02.51.69.18-1.07,1.76c1.47.44.14,2.04.13,2.82-.02,1.87-.01.96-.39,2.75-.15.74.58,1.82.57,2.53s-.68,1.44-.57,2.05c.05.31.55.63.59,1.12.09,1.05-.95,1.21-1.02,1.47-.27,1.02,1.44,3.56,1.4,4.69h-1.06s.66.88.66.88l-1,1.06c1.83,1.17.54,1.76.52,2.46-.07,2.35.19,2-.47,4.23-.57,1.89,1.02,3.92,1.04,4.22.1,1.19-.61,2.1-.6,2.83,0,.35.45.73.44,1.04-.01.4-.49.77-.53,1.12-.07.77,1.62,1.21-.41,2.06l1.76.53c.15.57-.48.24-.58.41-.13.21.37,1.01-.83,1v.34c2.08.35-.25,2.91-.01,4.35.03.19,1.08.5.99,1.13-.05.34-.81.64-.92,1.12s.31,1.12.17,1.88c-.41,2.19-2.95,3.03-4.64,4.07-3.52-.97-2.15-1.96-2.44-4.26-.2-1.6-1.49-3.2-1.07-4.76.12-.46.66-.81.72-1.22.25-1.74-1.17-2.61-1.07-4.26.06-.93.8-.77.88-1.09.43-1.71-2.07-5.12.72-5.93-.98-.18-.56-1.26-.57-2.11-.03-1.95.52-1.58.52-1.74.04-1.73-1.74-3.44.04-4.96l-.7-.18.66-.38c-.55-.75.02-1.66-.07-2.21-.14-.83-.82-1.7-.86-2.22-.05-.65.65-1.1.65-1.68,0-.18-.57-.18-.7-.46-1.04-2.2.48-5.85,0-8.17l.99-.04.06-1.52-1.43-.75c.91-2.03.84-4.43,1.19-6.62.18-1.12,1.34-.89-.83-2.19l1.32-1.75c-.96-1.31-.46-1.87.1-3.17l-1.06-.18.72-3.34-1.08-.71,1.42-1.76c-1.83-.5.09-2.51-.01-2.64-.04-.05-.5.06-.59-.08-.1-.16.46-.54-.39-.81l.63-2.29-1.06-.18c.83-2.22,1.06-4.51,1.06-6.85l-1.05-.03c.2-1.04.08-1.9,1.06-2.63l-.7-.35c.74-.62,1.67-1.49.54-2.22l-1.24.28c.08-1.07.41-1.85,1.41-2.29l-1.06-.7c1.82-1.91-.25-4.21,1.05-5.81h-1.42c.35-.5-.07-1.11.01-1.52.03-.17,1.26-1.28,1.29-1.37.69-1.71-.21-2.15-.41-3.07-.12-.55-.32-4.17-.2-4.36.16-.24.71-.21.71-.46.01-.51-.59-1.21,0-1.9l-1.72-.52c.04-.86,1.06-2.89,1.05-3.53-.01-.77-.11-2.29-.16-3.22-.04-.82-.53-1.62-.56-2.09-.01-.18.57-.13.61-.32.13-.64.28-2.06-.53-2.03l.25-.62h-1.41s.66-.39.66-.39l-.31-1.38h1.06c-.33-.9-.78-2.77-.34-3.61.16-.31.72-.25.71-.45-.05-.72-1.22-1.16-.37-2.28h-1.41s.7-.7.7-.7l-.59-.07c-.34-.75.9-1.73,1.02-2.19.3-1.11-.53-2.21.99-2.33v-.34c-.72.17-1.47-1.81-1.43-2.28.06-.73.92-1.01,1.03-1.49.13-.53-.43-1.24-.28-1.47.1-.15,1.26-.35,1.3-.92s-1.3-2.77.08-3.89l-.7-.33c1.1-1.55,2.73-.49,2.48-2.64,3.12,1.09,5.69.16,8.8-.36l-.36-.7c.6.18,1.63-.46,2.04-.28ZM115.46,16.21c-.12-.08-.11-.66-.55-.88-.29-.15-2.99.28-3.79.15-1.65-.27-3.7-1.54-5.24-1.83-.69-.13-2.51.96-3.69-.48-.85.17-.54,1.22-.6,1.27-.23.19-1.6.49-2.04.77l1.08.54c-.32,1.23.16,3.48-.02,4.53-.09.53-.79,1.14-.7,1.25.04.05.55-.08.64.17.25.72-.93,1.56.77,2.13l-1.05.88.04.67c1.22.02.29,2.39.3,3.36,0,.75.61,2.44.3,3.2-.13.32-.78-.08-.63.51h1.06c-.78.69-1.26,2.11-.82,3.08.2.44.69.39.74.62.1.42-.29,1.67-.54,2.11l1.28.92c-.47.83-.2,1.74-.34,2.58-.09.51-.53.87-.64,1.43-.18.97.94,3.43.66,4.87-.05.28-1.12.28-.71,1.29h1.42c-.22,1.37-1.4,2.03-.71,3.51l-1.06.02c.27,1.88-.48,3.34,1.76,4.05.2.73-1.03.71-1.09,1.1-.1.65.59,1.25.66,1.8.12,1-.4,4.69-.27,5.16.09.34.81.11.71.39-.98.75-.56,2.1-1.77,2.47,1.74.66.69,1.24.77,2.4.03.36.52.77.51,1.12-.01.37-.89,1.19-.82,1.78.05.39.78.65.83,1.04.04.34-.94,3.61-.95,4.41,3.05-1.38.03,6.45.35,6.69,1.19.63,2.92-.29,3.71-.2.68.07,2.59,2.16,2.65-.49l2.1.34v-1.06c.79.06,2.32.39,2.98.34,1.68-.14,3.33-.83,4.5-1.68.21-.15.86.34,1.47-.08.42-.29.55-.96.61-.99.13-.07,2.05.59,2.93.33.4-.22-.02-.86.42-1.1,1.66-.91,7.11-.96,5.76-3.5,1.02-.29,1.83-.61,2.82,0l-.7-1.4c.62-.18,2.23.09,2.66-.31.47-.43.39-1.25.73-1.49.42-.29,1.32-.17,1.87-.52s2.34-2.46,2.84-2.77c.08-.05,1.97.22,0-.73.91-.28.4-.38.7-1.06,2.29.29,1.33-.62,1.5-.81.21-.22,1-.24,1.49-.78.1-.11,1.59-2.19,1.61-2.34.04-.35-.32-.81-.18-1.19.09-.24,2.39-2.14,2.63-2.97l-1.4-1.06c.41-.99,1.96-1.17,2.06-1.28s.32-2.53.31-2.91-.55-.85-.53-1.1c.02-.41,1.42-.91,1.84-1.89.25-.58.07-3.43-.11-4.11l.68-.35c-.35-.86-.07-1.79-1.07-2.09l.64-1.07-1.35-.88c.96-1.29,1.3-2.51.77-4.07-.19-.57-1.06-.65-.77-1.56l-1.4.35,1.05-2.64c-.59-.86-1.3-.51-2.1-.17-.53-.85.76-2.34.69-2.45-.02-.02-.4.04-.55-.16-.79-1.1-.61-2.02-2.61-1.62.44-.43-.24-1.39-.71-1.57l1.41-1.59-1.4-.02c0-.87-.17-1.93-.89-2.49-.33-.26-.82.03-.85,0-.19-.25-.06-1.08-.5-1.63-.1-.13-1.97-1.9-2.11-1.96-1.1-.51-1.4.64-2.33-.92-.13-.22.01-.68-.04-.74-.09-.1-.92.35-1.42.21-.85-.23-.89-1.06-1.12-1.2-.21-.13-1.18.42-1.51-.41l-.33.7c-1.75-.07-3.57-3.8-4.43-1.41-.56.09-.4-.89-1.05-1.24-.98-.52-1.63.2-2.27.19-.2,0-.2-.57-.48-.7-.76-.36-1.64.33-1.49-.71h-.69c.08,1.57-2.97-.07-3.81-.28-.43-.11-.98.3-1.09.22Z"/>
  <path class="cls-1" d="M195.64,4.08c.08.04.12.39.26.45,1.81.75,2.99.39,4.82.83l-.17-.7c1.5.08,2.64.85,4.18.94,1.18.06,3.09-.72,4.12-.42.65.19.7.72.78.75,1,.4,2,.18,3.07.16l.02,1.04c.99-.51,1.91-.6,2.64.35.69-1.55,2.42-.11,3.33.2,1.39.48,1.97-.58,1.83,1.53,1.7-.08,1.7,2.07,2.02,3.36-.13.48-1.25.63-1.74,1.06-.38.34-1.8,2.32-1.95,2.32-.73.02-1.76-.94-2.08-.94s-.92.85-1.58.58c-.19-1.83-.55-1.93-2.31-2.02-.95-.05-3.2.86-2.98-.44l-.91,1.04-1.15-.26-.22.63c-.97-.24-1.7-1.42-1.81-1.43-.45-.03-.96.37-1.39.35-.82-.03-1.31-1.55-1.74.02l-.54-1.05-.34.7c-.42.34-4.83.16-5.42-.05s-.68-2.09-2.15.05l-1.77-1.41c-.36,1.16-.32,1.3-1.54,1.37l-.4-1.37c-.68.49-1.57.2-2.21.37-.33.09-.13.74-.76.73-1.38-.02-1.97-1.58-3.19.31-.33-.74-.31-.82-1.23-.7l.05,3.36.65.32c-1.97,1.86,1.43,3.37-.35,4.24.22.69,1.38-.22,1.06.7-.12.34-.5.11-.58.25-.09.17.07.46-.12.79-.22.38-1,1.07-1.07,1.43-.04.25.51.11.72.42.71,1.04-.91,2.51-.75,3.41.04.23,2.65,1.23.03,2.51l1.06,1.22-.6.07c.49,1.02-.4.29-.45.99h1.41c-.3.8-.22,1.84-.69,2.57s-2.13,1.1-.02,2.53c-1.41,1.28.23,2.41.18,3.89-.03,1.15-1.09,3.66-1.08,4.92.01,1.16,1.33,2.43-.52,2.65.86.75.29,1.24.38,1.91.07.49.5.81.53,1.08.08.73-.9,1.71-.83,2.4.03.26.51,3.1.56,3.26.11.3,1.26,1.08.67,1.83-.75.96-1.85.22-.58,2.7l-.74.71c.09.59.82,1.01.74,1.76-.02.14-2.26,1.56.33,1.6-.46,1.93-1.08,3.01.56,4.58,1.34-.68,2.83-.09,3.81-1.08l1.27.37-.35.69c.89.38.62-.65.91-.72.86-.18,1.54.16,1.56,1.07l.55-.72c.9-.11,1.5.09,1.56,1.07l.52-.71.34.7c1.5-1.44,6.13.79,7.18-.43.19-.22-.01-.79.08-.97.07-.13,2.86.22,2.46,1.05.64-.12.58-.58.35-1.05,1.31-.57,1.81.61,2.04.68,1.01.29,3.28.78,3.94.02l.35.86.7-.14c-.31,1.08.95,2.64.94,3.33,0,.16-1.01,2.86-1.11,2.98-.72.87-2.87.48-2.28,2.48-2.43-.62-3.78-2.68-6.79-2.04-1.77.37-.68.6-2.9.44-1.37-.1-2.88-.64-2.83.9-1.48.08-1.5-1.01-1.59-1.06-.2-.12-.56.55-.93.63-1.39.29-1.1-1.23-1.18-1.33-.06-.08-1.72.1-1.55.66l-3.37-1.02v1.06s-1.21-.39-1.21-.39l-.39.75-1.76-1.07-.32.67-1.97-.32c-.41.99,1.32.53.7,1.4-.04.06-.55-.1-.64.17-.32.97.52,3.73.52,4.24,0,.27-.66.67-.58,1.05.07.34.96.36,1.06.77.02.08-.23,1.57-.29,1.73-.47,1.32-1.16.35-.56,2.85.16.66-.84.92.84.84.27,1.47-.7,1.91-.97,2.71-.1.28.14.7.08.96-.21.96-.98,1.27.16,2.49l-1.38,1.22c1.84.2.31,2.36.58,3.08.22.57,1.74.84,1.12,1.81-.1.15-.77.1-.88.56-.08.34.28,1.36-.13,1.95l1.02.02c.49,1.28-.52,2.35-.66,3.36-.35,2.37-.1,4.52.03,6.65.06.96-.97,4.48,1.02,3.7l-1.03,2.95c.34.61.74.91,1.38.57-.66,1.21.37,2.08.38,2.98,0,.59-.43,1.21-.39,1.72.01.17,1.67,1.26,1.73,1.36.17.34-.36,1-.33,1.48.02.25.61.23.73.46.86,1.65.3,1.89,2.77,2.27l.05,2.42.52-.26.25.5c.33.17.81-.9.64.82l.7-.7.23.73,1.21-.22c.65.6.51,1.19.34,1.96,1.55-1.47,2.59,1.44,4.22-.7.18.94,1.23,1.75,2.18,1.58.64-.11.61-.73.82-.8.41-.14,3.75-.54,3.52.22,1,.22,1.96-1.24,2.13-1.3.81-.29,2.61,1.25,2.29-1.47.6-.14.22.49.39.63.1.09.54-.22.78-.16.5.14.99.55,1.42.52,1.57-.13,4.51-3.54,6.35-3.12.32.07.06,1.07.93.71l.36-3.87,2.99,1.41-.18-1.05c2.07-.04,1.38,1.46,1.5,1.69.18.35,1.94,1.3,2.2,2.2.23.81-.18,2.05.52,2.98l-1.05.18c1.04,2.23-3.04,3.19-4.58,2.46l-.03,1.38-1.73.03.35,1.05-2.3.39-.72-.75-1.69.35-.24,1.07-1.58-.68c-1.56,3.21-5.51-.34-6.7,3.51l-.69-.02-.61-.99c-1.74.35-3.68-1.65-3.28,1.36l-.24-.6-1.3-.19-.06-.98c-.93.26-2.38.71-3.31.67-.6-.02-3.63-1.2-3.73-1.03-.16.29.33,1.16-.35,1.06.15-.93-.47-.4-.87-.69-.85-.62-1.82-1.23-2.49-1.74-.49-.37-.58-1.49-1.74-1.46-.38,0,.06.88-.54.73l-.56-1.03-1.21.33-.16-2.47-.88-.33-.19.68c-1.41-.52-.43-2.34-.53-2.46-.1-.13-2.59-1.08-2.78-1.63-.22-.64.12-1.6-.11-2.36-.12-.4-.63-.63-.79-.99-.75-1.66-1.23-3.5-2.18-4.98-.13-.2.27-.7-.31-.96l-1.59.69c.05-1.39,1.62-3.89-.35-4.23v-.34c.45.43,1.26-2.06,1.27-2.3.07-.87-.98-.88-.92-1.05l1.06-1.76-1.76-.54c.58-1.05,1.32-1.85,1.06-3.17l-1.42-.18,1.77-1.24c-.65-.22-.75-4.09-.65-4.39.06-.2.54-.12.62-.4.46-1.67-.97-1.8-1.03-2.07l.67-1.35c-1.76-1.16,1.73-1.45-.25-2.04l.29-.8-.71-.21.7-.35-.73-.53c-.1-.79.66-1.24.87-1.89s.36-3.82.23-4.37c-.08-.34-2.54-1.39.34-2.2-.81-1.58-.04-3.66-.37-5.21-.06-.26-.53-.18-.61-.42-.39-1.16.58-1.29.73-1.68.8-1.95-.84-2.36-.8-3.27l.94-.65c-.52-1.01-.1-2.68-.34-3.56-.05-.19-.64-.15-.65-.35-.03-1.41,2.63-2.88-.68-4.74,1.26.05.7-1.13.92-1.77.1-.28.62-.51.76-.96.17-.54-.09-2.16.43-2.91h-1.06c-.17-.71.41-1.15.55-1.75.44-1.91.18-3.65.27-5.12.03-.5,1.42-1-.12-1.41.62-.68,1.39-3.38,1.37-4.24-.06-2.12-2.41-.67-.31-2.98-2.66.41-.86-1.46-1.02-2.79l1.02-.03c-.58-1.17-.28-2.49-.53-3.7-.12-.6-1.62-2.08-.43-2.91.57-.4,1.13.61.92-1.26-.14-1.31-.42-1.87-1.73-2.15l.71-.35-.68-.2c.28-1.33.86-1.09,2.09-1.03-.48-1.91-.2-3.89-.67-5.83-.14-.6-.64-.52-.66-.57-.13-.35.89-1.16-.43-1-.14-.54.51-.26.71-.58.51-.82.62-1.46-.36-1.7.21-.82,1.29-1.2,1.35-1.29.35-.61-.53-3.91-.51-4.36.02-.57,1.33-1.97.91-3.32l-1.07-.21c.12-.75-.13-1.67.03-2.38.06-.25.58-.21.67-.51.28-.97.38-2.64-.09-3.53-.16-.3-.9-.12-.9-.9,0-.98,1.26-1.33,2.08-1.29-.95-2.15,1.74-1.44.7-3.52.81-.54,1.49.23,1.93.22,1.29-.04,3.33-1.75,5.12-.93l-.35-1.05c.85-.3,1.47.48,2,.59.81.16,1.45-.9,2.06.82.26-1.02,1.09-.62,1.94-1.06v1.06c1.49-.84,5,1.27,3.18-1.76.73,0,1.31.2,1.97.48Z"/>
</svg>