<?xml version="1.0" encoding="UTF-8"?>
<svg id="Layer_1" data-name="Layer 1" xmlns="http://www.w3.org/2000/svg" viewBox="0 0 385.8 108.06">
  <defs>
    <style>
      .cls-1 {
        fill: #fff;
      }
    </style>
  </defs>
  <path d="M268.88,8.83l.03.58.46.02-.16-.63c.67-.49,1.93,1.94,1.9,2.51l.62-.62c.32.68.57,2.07.93,2.61.7,1.03.79.37,1.58,2.2,1.01,2.36,2.39,6.05,3.32,8.88.16.49-.2,1.57-.1,1.86.2.59,1.25.13.57,2.07h.94c-.71,1.85.2,1.39.42,1.95s.08,1.18.23,1.59c1.05,2.8,1.16,4.85,1.7,7.77.28,1.51,1.41,2.66,1.64,3.23.34.84.54,3.77.73,4.09.22.37.94.54.94.72,0,.07-.48.36-.55.68-.16.74.98,1.75.87,2.63l.94-.32c-.03.48.28,1.04.11,1.5-.19.51-.82.19-.74.7l.87.06.27.74-.77,1.88c.8.21.27.61.35.71.34.48,2.62,1.85.92,2.32l-.06.42,1.23.83-.91,1.37c.51.34.3,1.09.43,1.34.66,1.28,2.42,1.44.82,3.23,2.65-.13,1.41,2.26,1.56,3.59.02.23.53.17.6.35.07.2-.35,1.73.05,2.42.25.44,1.17.62,1.21,1.41.02.39-.49.68-.5,1.14-.02,1.08,1.15,3.08,1.19,4.31l.62-.32c.13,1.9.97,3.46,1.42,5.35.16.68-.05,1.67.21,2.31.24.6.85.41,1.2.7.32.26,1.08,1.71.96,2.15-.09.35-.77-.02-.64.5l.79.32c1.79-1.83-.13-2.32-.2-3.61-.08-1.63.3-3.93.44-5.61.1-1.26,1.09-.95-1.03-2.25.34-.69.39-.93,1.25-.79-.56-1.07-.46-1.93.31-2.82-1.89-.28-.23-2.8-.31-3.61-.04-.37-.14-1.5-.15-1.59-.08-.54-.74-1.72-.74-2.26,0-.81,1.24-.89-.06-1.18.63-.85.54-1.74.31-2.69h.95c-.73-.63-.29-1.63-.63-2.27-.46-.86-1.73-.65-.02-2.62l-.62-.61.63-.63-.59-.3c.17-.88,1.13-2.64.62-3.4-.25-.37-1.03-.37-.98-1,1.31-2.03.47-1.44.14-2.67-.08-.28.56-.93.53-1.74-.02-.67-.56-1.25-.56-1.59,0-.56,1.06-1.13.85-2.17l-.66-.36c-.09-.81,1.2-1.52.36-2.53l.6-.29c-1.64-.8-.01-2.4-1.26-2.83l1.27-2.83c-.86,0-.82-2.5,0-2.52v-.63c-1.6-.37,1.07-3.88-.65-4.4l.02-.62c1.21-.63,2.08-2.43.29-2.53-.06-1.21,1.05-1.56,1.14-1.87.12-.41.13-1.69-.51-1.59l.63-.78-.61-.44c.41-.89,1.58-3.25,1.56-4.1,0-.07-1.03-.59-.93-1.1,1.44-.22,1.79-2.51,2.35-3.18.42-.5,1.43-.31,1.87-.6.34-.22-.02-1.34.65-.98.46.25.37,1.03.55,1.19.44.39,2.93-.06,2.96,1.49.01.62-1.28,1.5.09,1.86l-.32.94.66.34c-.64.7-.89,1.22-1.89.79-.09.07.54,1.85.94,1.71-.55.58-.4,1.59-.69,2.16-.22.45-.72.45-.82.6-.36.53-1.05,7.93-.91,8.96.07.52.25,1.9.84,1.67v.46c-1.47.65-.62.87-.76,1.72-.34,2.13-.74,4.64-.74,6.81-.01,4.29,1.75,7.71.06,11.92-.22.55.64,1.04-.44,1.26l1.26.48-.63,1.88.94-.31c-.25.38-.02,1.36-.09,1.51-1.09,2.4-.4,3.3-.32,5.62.02.41-.25,2.75-.16,2.89.19.27.88.05,1.13,1.09.36,1.51-1.14,1.51-1.2,1.67-.58,1.66.98,3.71-.62,4.68l1.59.97-.02,1.08h-1.26c.4.51.02,1.64.09,1.83.03.07.73.11.76,1.21.02.92-.75,2.38-.84,3.11-.01.12,1.37.45.31,2.03l1.26.31c-1.17-.16-.19,1.9-.46,2.52-.22.53-2.07,1.63-.49,2.35l-.93,2.55.59.57c-.03.16-1.6,2.59-1.72,2.7-.35.33-.96.3-1.25.64s-.23.99-.46,1.35c-.21.32-.91.43-.96.7-.06.32.85,1.01.31,1.72l-1.13-.96-2.74.87c-.69-.55-1.56-.49-2.3-.83-.69-.32-.74-1.16-1.67-.99.24-.4-.4-3.02-.51-3.14-.8-.87-1.65-.19-2-2.38-.08-.49.14-1-.14-1.62-.04-.09-.52-.08-.51-.22l.41-1.67-1.28-.85c.65-1.02-.28-1.53-.4-2.24s.29-1.32.26-1.87c-.07-1.32-1.2-4.31-2.78-4.25l.31-.75c-.26-.15-1.19-1.55-1.22-1.66-.21-.73.01-1.98.91-2.15-.78-.8-.6-2.22-1.18-3.23-.33-.57-.9-.63-1.12-1.1-.25-.57.18-1.75.1-1.79-.59-.33-.93.43-1.4-1.28-.34-1.23-.26-1.8.77-2.51-.46.34-1.49-2.43-1.47-2.68.03-.35.64-.64.84-.94-1.1-.61-.97-1.48-1.36-2.26-.16-.32-1.13-.43-.52-1.67h-.95c-.18-.17.77-1.76.62-2.32-.07-.24-.52-.17-.56-.36-.04-.17.23-.75.11-1.27-.15-.62-.7-1.39-.72-1.94s.5-.97.48-1.21c-.02-.3-.71-.55-.79-.98-.41-2.11-.44-3.03-1.31-5.09-.41-.97-.22-2.57-1.6-2.28.43-1.46.78-4.42-1.25-4.42.39-1,.33-1.89-.95-1.23.06-.53-.12-1.2,0-1.69.09-.37.77,0,.64-.51l-.96-.17.33-2.35-.62.32v-2.83s-1.54.49-1.54.49c.68,1.19-.23,2.05-.25,3.06-.01.85.73,2.19.72,2.57-.01.28-.69,1.43-.78,2.25-.13,1.07.17,2.49-.04,3.37-.06.24-.59.2-.59.34.03,1.26,1.33,1.64.9,3.01l-.94.16.65,1.24c-1.7.61-.54,3.58-.73,4.8-.09.54-.64.91-.57,1.5.02.16.52.17.54.23.21.7-1.11,3.19-.77,4.51.05.2.58.14.57.29-.02.21-.48.82-.56,1.35-.34,2.24-.7,4.43-.71,6.69h1.27c.24,1.18-.91,1.58-.96,1.8-.02.1-.01,1.98,0,2.08.05.25.58.19.64.42.39,1.58-.85,1.54-.95,1.89-.38,1.25.91,1.22.95,1.51.05.43-2.64,2.02.32,2.21-.21.1-1.13,1.15-1.18,1.27-.57,1.28.34,2.88-.7,4.09.95.21.03,1.28,1.25.77-.62,1.44-1.04,1.07-.31,2.84l.94-.32c-.36.91.07,2.65-.95,2.99v.79c1.15-.95.36,1.17.13,1.55-.15.26-.62.22-.74.54-.08.21.21,1.62.17,2.11-.03.36-.5.81-.45,1.39.09,1.12,1.03,1.17.9,2.27l-1.26.16,1.57.63c-.39,1.65-.96.9-1.26,1.11-.09.07.76,1.4.18,2.22-.3.42-2.23.1-2.54,1.55l-.47-.94-1.88.64c.38-1.19-.8-1.2-.63-2.21l-1.26.31.94-1.88c-1.33-.06-1.09-2.1,0-2.37-2.3-1.05-.1-2.89-.39-4.72-.03-.2-.49-.14-.52-.31-.05-.26.35-.94-.05-1.42l.95-.16-.6-.18c.28-.57.34-2.21.06-2.73-.3-.56-.83-.22-.72-.7.97.15.28-.58.6-1.05.22-.33.79-.04.65-.52l-.65-.17.67-1.88-.65-.31.95-1.88-.94-.65c1.28-.76.56-1.58.95-2.67l-1.23-.03c-.61-.91.28-1.2.43-1.84.27-1.17.26-2.77.77-4.04-1.48-1.22,1.21-1.6.05-3.1-.51-.67-1.33.09-.62-1.77.25-.66.22.29.29-.99,0-.07.94-.94.94-1.01.02-.51-.41-2.43-.51-3.19-.13-.91-.46-1.4-.47-1.49-.03-2.46,1.66-3.68.63-7.17-.08-.29-.66-.17-.64-.71.03-1.03,2.6-3.53,1.31-4.73-.17-.16-1.36.17-1.27-.47.97.04.24-1.88,1.89-1.9l-.63-1.88-.63.16c-.17-.62,1.26-1.51,1.28-1.62.1-.88-.87-1.91-.86-2.16,0-.28.66-.58.53-.77-.03-.04-.51.07-.58-.16-.21-.61.56-1.69,1.22-1.9l-.66-.61.98-3.49c-1.78-.78.41-1.78-.22-2.91-.31-.56-.83-.22-.72-.7.15,0,.45.03.52-.06.28-.42,1.27-3.02,1.32-3.62.03-.44-.55-.7-.52-1.16.03-.4.51-.59.38-1.41-.09-.59-.98-.99-1.05-1.8l1.87-2.81-1.26-.47c.32-.37.21-1.34.39-1.52.14-.15.69.1.89-.25.39-.69.5-2.15.31-2.94.85.62,1.9-.66,2.21-1.57l.6.03Z"/>
  <path d="M171.92,7.25l-.27.76.42.46c.38-.25.78-.36,1.24-.31,1.16.14,4.15,1.56,4.43.32l1.41.65-.31.61,2.97.64,1.44-1.26c.1,1.09,1.64.78.95,2.2.4-.02.96.11,1.29-.13.42-.31.01-1.19.6-1.12.39,1.2,1.21.59.67,2.15.52.79,2.42.82,2.61.95.26.19.13.6.3.87.09.14.92.1.5.73-.06.1-.91-.24-.61.64l1.57-.31c-.42,1.81.5,1.41,1.13,2.17.7.83,1.29,1.81,2.03,2.63.26.28,1.35,1.09,1.38,1.17.34.74-.57,3.07,2.06,1.9-.11.97.25,2.37.71,3.24.28.52.74.48.82.58.06.07-.42,1.06-.29,1.63.08.32.67.31.81.52.39.61-.37,2.94-.1,3.63.21.53,1.66.17-.05,1.89.36,1.03,1.73-.35,1.56.62-.31,1.8-1.76.94-1.57,2.21l.94.63-1.89,2.21.63.3c-.2.78-.91,1.36-1.19,1.98-.17.37.05,1.02-.11,1.29-.1.16-.8.16-1.13.45-1.42,1.24-.43,3.26-1.66,4.48l.63.46c-.42.48-1.77.62-1.84.69-.12.11.04.63-.11.8-.29.33-1.42-.04-1.2,1.19.05.3.78-.06.64.47-.94.06-1.46.41-2.2-.31l-.63,2.37c-1.08-.32-5.71,1.83-5.69,2.82.32,1.09,1.37.35.65,1.73h.95s-.32.63-.32.63l1.28-.17c.51.28.37,1.64.91,2.14,1.01.94,3.48,1.41,2.86,3.38l1.57-.32c-.4,1.16.51,1.23.64,1.49.2.39.46,1.76.71,2.2.46.82,2.45,1.88,1.48,3.24h1.57c-.14.46-.33,1.67-.25,2.05.03.12.7,1.72.88,2.14.12.27,1.24.89,1.26,1.07.03.36-.3.82-.23,1.16.09.42,1.42,3.97,1.55,4.22.11.2,1.12.46,1.37,1.03s-.14.85-.12,1.1c.01.18.48.14.55.39.16.61.12,2.1.35,2.4.42.55,1.07.46,1.4.81.22.23.03,2.15.16,2.62.09.31.65.3.88.75.43.87-.13,2.31,1.33,1.99-1.37,2.06-.43,1.89.1,3.51.23.72.08,1.36.22,1.93.06.23,1.18.46.02,1.64l1.48,1.25c-.76.75-.97,1.62-1.5,2.43-.19.29-.71.42-.93.76-.42.66.12,1.22-.5,1.69-.64.15-.63-.76-.83-.88-.12-.07-2.46-.15-2.82-.24s-.66-.31-.9-.61l.93-.94c-.74-.39-.58-.9-.76-1.33-.03-.07-.45-.05-.47-.27-.04-.38.39-1.09-.02-1.7l-1.26.31.64-3.55-1.52-.91c.53-1.9.19-2.75-.54-4.35-.47-1.03.31-1.39-1.72-1.58l.6-.44c-.03-2.06-2.62-2.97-.92-4.9-1.7.26-1.46-2.27-1.26-3.46l-.92.29c-.38-.55-.46-1.44-.7-1.93-1.19-2.39-2.89-6-4.69-8.5-.7-.97-1.17-1.6-2.38-1.8.11-1.2-.89-2.19-.44-3.17-1.62.32-1.04-.39-1.46-.9-1.07-1.27-.99-.86-2.63-.68l.31-1.25c-.64-.19-1.49.31-2,.23-.39-.07-.81-.68-1.37-.8-.14-.03-2.48-.23-2.62-.21-.49.07-2.18.93-2.34,1.4-.13.36.2.77.16,1.06-.04.24-.54.17-.62.42-.33.99.89,1.36,1.12,1.82.43.84-.78,2.06-.75,2.8.03.78.85.86.84.97-.09,1.16-1.24,2.39.02,3.81l-.91.9c.25,1.58.56,3.09.73,4.69.14,1.34-.11,1.83-.04,2.53.06.56.78,1.84.84,2.59l-.6.44h1.26c.09.94-1.23,1.52-1.25,2.01-.01.35.29,3.89.36,4.08.14.41.73.45.91.73.7,1.09-.11,1.94-.18,2.91-.03.36.33.6.32.99-.04.91-.67.86-.76,1.15-.24.72.02,2.4-.09,2.73-.13.4-.66.38-.78.57-.1.15.29.64-.25.83-.53.07-3.68-.6-4.06-.87-.41-.29-.28-1.22-.53-1.68-.2-.36-.61-.43-.98-1.28-.71-1.64.05-3.75-.91-4.48.2-1.06,1.37-3.87,1.28-4.69-.02-.24-.61-.27-.77-.52-1-1.5.58-2.26.45-2.97l-1.58-.48c.19-.83.2-1.48,1.26-1.57-1.16-1.14-.18-2.15-.12-3.14.05-.8-.44-1.72.08-2.66-1.05-.3-2.69-2.18-.6-2.06,0-.73-.62-.87-.65-1.71s.65-1.86.62-2.83c-.04-1.8-.97-.66-1.23-.81-.28-1.15.96-1.64.97-1.75.01-.4-.51-1.04-.55-1.59-.07-.96.79-2.22-.73-2.79l.6-.19c-.85-1.56.35-1.93.36-2.05.15-1.13-.73-4.47-.6-4.98.1-.39.82-.34.91-.71.26-1.07-.88-2.77-.83-3.4.08-.92,2.11-1.63.19-3.47l.66-.33c-.55-.99-.44-2.2-.66-3.07-.07-.27-.63-.22-.63-.36.03-.56,1.04-.93,1.2-1.3.25-.62-.49-4.32-.38-5.17l-1.13-.3c.54-.53.35-1.58.65-2s.89-.33.96-.98c.14-1.27-1.54-2.94-.04-3-1.12-1.04-.15-1.23-.1-1.78.02-.22.05-2.07,0-2.16-.15-.33-.65-.35-.84-.71-.46-.84-.21-2.54.94-2.59l-.85-.93c.28-1.63,1.5-2.93,1.16-4.73-1.48.88.1-1.4.02-2.01-.03-.19-.47-.19-.51-.27-.17-.33.21-.7-.77-1.02l1.26-1.26c-.33-.77-.49-.76-1.26-.94.35-.48.28-1.09.61-1.6.77-1.18,1.74-.03.72-2.14l.87-.99-.94-1.26c1.54-1.03,3.09-2.25,5.03-1.39ZM178.73,15.53c-.74-.32-3.44-1.32-4.12-1.27-.57.05-.95,1.1-2.05-.12-1.36,1.72.42,3.17.29,4.91-.09,1.25.08,2.12.02,2.79-.1,1.15-.65,1.69.06,3.42.15.37,1.23.67.86,1.57-.15.38-.73.3-.89.73-.1.27.15.74.09,1.11-.17,1.22-.53,1.68.46,2.95l-1.2.93c.63.74.65,1.3.33,2.19,1.84,1.04.43.95.15,1.74-.79,2.22.3,2.38.44,3.65.15,1.39-1.24,2.55.27,3.75l-.89.95c-.13.68.57.24.66.92.12,1.01-.37,1.93-.35,2.52,0,.21.54.19.65.41.6,1.16-.36,1.45-.47,2.63-.12,1.35.66,2.09-.8,2.65.83.24.69.6.63,1.42.82-.56,1.54.07,2.36.03.43-.02,2.66-1.08,2.9-1.37.36-.44.26-1.22.47-1.43.3-.31,1.36-.07,1.45-.14.17-.13.22-.68.5-.89.84-.61,2.28-.82,3.03-1.06,2.21-.71,1.26-2.02,1.87-2.55l1.9-.15-.63-.94.52-.06c-.14-.64.09-.73.68-.94l-.25-.57c2.16-.04,1.13-.68,1.6-1.38.19-.28,1.64-1.55,1.8-1.85.12-.23-.15-.87,0-1.36s.68-.45.69-.63c.02-1.11-.77-1.67.95-2.49-1.15-.36-.73-1.31.31-1.42l-.94-.62c1.09.18-.06-1.32,1.25-1.27v-.31c-.75.38-.64-1.1-.52-1.51.02-.06.52-.06.54-.24.09-.88-.86-1.76-.88-1.87-.29-1.5.99-2.13-1.05-3.44-.41-.26-1.35-.36-1.49-.56-.17-.25.01-.9-.35-1.39-.22-.29-.81-.34-.93-.5-.17-.23.35-1.14.1-1.52-.3-.45-.91-.54-1.21-.97-.36-.51-.96-2.12-1.22-2.4-.28-.31-.88-.18-1.11-.49-.14-.19.08-.68-.27-.86-.81-.43-2.47-.29-2.58-.36-.12-.08-.18-.68-.49-.91-.14-.1-2.75-1.26-3.14-1.43Z"/>
  <path d="M137.9,4.72c.09,1.67,2.08.56,2.19.65.49.37-.02,1.29,1.92.6v2.52s.63-.31.63-.31c.3,1.58.11,2.03,1.87,2.23l-.29,1.55h1.43c.62,1.02-1.31,3.93,1.41,3.46,0,.76-.34,1.91.05,2.61s1.13.38,1.23.72c.4,1.35-.66,1.48-.67,1.58-.12.9.9,3.19,2.22,2.33.25.44-1.08,2.18-1.13,2.69-.02.21.47,1.44.48,2.18.02,2.24-1.1,4.15.9,5.99l-.56,1.1h.94c-.41,1.7-.81,3.34-.54,5.1.07.49.81,1.57.83,2.32,0,.16-.48.1-.54.28-.08.26.26,1.56-.06,2.05h1.27c-.4.48,0,1.17-.05,1.42-.03.17-.49.11-.52.3-.15,1.26.63,2.85.54,2.98-.04.07-.64-.16-.65.48,0,.91.83,1.62.85,2.21s-.62,1.34-.71,1.95c-.1.68-.01,4.95.24,5.11l1.23.02c0,.97.26,2.03-.63,2.68,2.09.98.4,1.68.32,1.93-.16.51.54,1.36.55,1.58.01.6-.31,2-.07,2.97.2.82.71,2.55,1.72,2.18-.37,1.03-.72,2.12-.31,3.21.16.43.9.45.92.71s-.99,2.96-.61,4.67c.05.21.5.23.51.28.2.84.42,1.88.42,2.76h1.27s-.64,1.74-.64,1.74l.61.59-.61,1.28.91.52c.08.11-.63,1.57-.61,1.99.01.21.85-.08.63,1.25-.16.97-1.26,1.58,0,1.92l-.66,1.25c-.08.69,1.19.89,1.29,1.28.08.34-1.08,1.31-.98,2.5-.16.58.95.65.97.94.04.43-2.35,2.13.28,2.41.35,1.11-.9,1.6-.91,1.71-.02.19.27.61.27.95,0,.51-.22,1.95-.16,2.18.13.52.93.23.84.77-1.24.97-1.51.16-2.05.13-.4-.03-2.49.76-1.73,1.45-.36.23-1.98-.61-2.29-.92-.44-.43-.4-1.06-.62-1.22-.24-.17-.8,0-.87-.06-.15-.15.34-1.2.26-1.66-.09-.56-.77-.99-.83-1.38-.06-.36.38-.86.42-1.39.07-.97-.44-1.63-.5-2.62-.08-1.36.39-2.55.31-3.74-.15-2.29-2.83-5.25-.92-7.6l-.6-.29c.94-1.21-.47-2.19-.58-2.54-.33-.98.94-2.52-.41-2.85.14-1.06,1.09-1.89.65-2.97l-.62.32.31-2.83-.94.31c-.67-.81.81-2.17.58-2.67-.24-.53-1.39-.35-.62-2.31l-.9-.52c.6-.49.72-2.2.55-2.84-.05-.2-.56-.14-.58-.34-.14-1.33.46-.34-.29-1.61-.63-1.05.27-1.43.24-1.83-.02-.23-.5-.48-.66-.79-.1-.18.1-.52.05-.57-.17-.17-.69-.16-.99-.35-.27-.17-.13-.66-.37-.65-.45.02-.73.58-1.4.52-.98-.09-2.22-1.27-3.3-1.14-.14.02-2.63.58-2.77.64-.42.19.06.87-1.5.31l.32.62c-.71-.2-1.19-.26-1.74.32l-.15-.63c-.82.72-1.19.66-2.2.31l-.19.96c-1.64.57-5.43-.93-5.93-.34-1.4,1.09.33,4.42.09,5.2-.06.19-.51.19-.59.38-.1.26-.63,1.72-.63,1.81,0,.17.91.21.83.94l-1.45,2.21.65.34c-.6,1.88-1.5,3.38-.63,5.28l-.96.68c1.59,1.13-2.96,3.55.31,3.94l-1.58,3.62.64.31c-.95,1.04-.32,1.68-.42,2.46s-1.52,1.69-.21,1.94v.63s-.64.31-.64.31v.63s.64.31.64.31c-.41.81-1.32,1.68-1.64,2.47-.42,1.03-.3,3.37-2.29,3.54-2.89.25-1.21-2.54-1.13-4.13.05-1.04-.69-1.96-.63-2.48.02-.18.58-.13.64-.39.16-.65.47-7.96.3-8.35-.1-.23-.53-.23-.59-.46-.24-.86.89-1.92.94-2.48.08-.87-1.25-1.38.3-2.5l-.95-.63c.84-1.24.76-2.73,1.12-4.09.17-.65.93-1.57.96-2.2.02-.54-.61-1.28-.19-2.04l-.94.31c.28-.9,0-2.74,1.26-2.83l-.63-.31.62-1.1-.94-.62,1.57-1.89-1.26-.16,1.26-1.42-.66-.34c.53-1.61.5-1.94-.55-3.12l1.52-.94c-.68-.88-1.47.42-1.43-.95,0-.26.12-.51.2-.75l1.23-.03c.23-.67-.87-1.05-.87-1.41,0-.15.5-.55.56-.97.1-.65-.28-1.33-.24-1.58.06-.34.73-.3.82-.61.37-1.19-.36-3.97-.16-4.97.12-.63,1.01-1.86,1.07-2.33.06-.5-.48-.82-.42-1.39.02-.17,1.21-1.41,1.4-2.06l-.6-.89c-.03-.66,1.17-1.18,1.19-1.57.01-.26-.46-.62-.44-.93.01-.23.47-.56.52-.98.17-1.31.27-3.99.64-5.27.09-.33,1-.09.47-.86-.33-.48-1.08-.41-1.11-.93.31.02,1.46-.95,1.51-1.03.12-.23-.2-.63-.09-.88.2-.45,1.04-.48,1.12-.84.12-.57-.41-1.6-.05-2.09.25-.34.91-.21,1.31-.66.08-.1,1.27-2.03,1.34-2.17.03-.07-.1-1.51-.13-1.58-.1-.27-.6-.21-.59-.35.17-2.46,2.21-1.86,2.49-2.09.11-.09.21-2.06.58-2.71.44-.77,1.15-.92,1.34-1.29.5-.98-.68-2.1,1.88-2.27-.94-1.45-.51-2.46,1.26-1.57-.47-2.55,2.35-3.22,4.07-4.39ZM140.99,19.55c-1.73-.13-1.2-5.07-2.87-4.76-.18.03-2.66,1.88-2.86,2.21-.89,1.43.08,4.25-2.35,4.09-.27.72.39,1.66.24,2.27-.08.34-.63.66-.82,1.09-.35.81-.92,3.11-1.23,3.55-.34.48-.9.54-.99.67-.05.07.24.92-.08,1.59-.13.28-.59.3-.71.64-.26.75.31,2.05-.55,2.91l.58.32-.09.81-1.11.3c.97.94.94,1.51.41,2.76s-.51,1.51-.85,2.67c-.48,1.63-.2,1.72-1.05,2.81-.17.22.22,1.61.14,1.95-.11.45-.56,1.28-.8,2.27-.34,1.42-1.55,3.61.25,4.37-.37.68-.38.94-1.26.79l.31,2.61,1.11.84.15-.62c2.08-.98,5.79.55,7.55-.81.29-.23.53-1.03.8-1.04.12,0,2.01.77,2.26.8,1.07.11,2.04-.26,2-1.47.66-.07,1.33,1.28,1.43,1.28.42,0,.99-.59,1.58-.66s1.34.38,1.38.32c.12-.15-.12-1.27.92-1.31l-.26-.88.6-.33-.58-.14c.13-.27.28-.58.21-.88-1.11-4.25-.41-9.38-1.18-13.7-.32-1.81.37-2.86.31-3.66-.01-.17-.56-.14-.71-.63-.47-1.49-.39-4.15-.96-5.7-.07-.19-.55-.15-.57-.33-.06-.6.49-.96.6-1.55.15-.84-.54-1.74-.55-2.2-.01-.94,1.5-2.81-.66-2.69l.25-.56Z"/>
  <path d="M228.22,7.96c.06.01.06.47.28.52.12.03,2.31,0,2.43,0,.23-.03.12-.95.97-.63.43.18.39.96.64,1.24.39.44,2.17,1.34,2.6,1.55.49.25,1.28.43,1.65.84.16.17.78,2.52,1.02,2.89.15.24,1.38.5.81,1.31-.1.14-.71-.18-.58.35h1.57c-.35.77.04,1.51.63,2.05-.65.31-.74.27-.63,1.1l.78-.62c.84.63.61,1.31.47,2.2l.94-.31-.29,2.99.6.32.95-.48c-.37.6.18.99.19,1.41.03.61-.21,2.28-.09,3.11.2,1.37.34,1.35,1.46,1.94-1.25,1.64.32,2.4.34,2.55.09.58-.34,1.09-.33,1.49,0,.13.41.2.59.45.41.57-.07,1.24,1.29.69.14.99-.96,1.64-.96,1.75,0,.27,1.14,5.02,1.27,5.25s.38.27.63.24v.31c-1.41-.05.23,2.65.94,2.98l-.94,2.06.94.02c.17.09-.53,2.7-.54,3.04-.02.48.88,2.1.84,2.77s-1.05.96-.19,1.94c.47.54,1.04.06.52,1.35l-.62-.32c.43,1.07-.21,2.04-.23,2.81s.69,1.2.73,1.75c.04.61-.56,2.45-.5,3.13.02.28,2.16.82,0,1.45,1.09,1.07.07,1.15-.16,1.91-.2.65.28,1.26-.47,1.7l.95.16-.33.76.66.34c-.44.54-.41,1.34-.63,1.82-.1.21-.63.2-.66.42-.12.87.84,1.5.85,1.85,0,.45-1.23,1.93.11,2.2-1.56.93-.9,2.03-1.12,3.03-.35,1.6-1.48,3.24-.14,4.67l-1.26.8,1.26,1.09c-.37.06-2.13,1.64-2.17,1.78-.12.44.37,1.09.24,1.77-.11.59-1.02,1.56-1.21,2.28l.94.16c-.6.98-.48,2.65-1.89,2.53.73,1.29-.18,1.44-.36,1.99-.24.71-.19,2.02-.28,2.06-.18.09-.68-.09-.87.06-.29.24-.06,1.4-.22,1.55-.3.29-.89.2-1.04.36-.11.12-.88,2.19-1.33,2.86-.32.47-1.26-.06,0,1.48-1.66-.25-1.61,1.31-2.13,1.59s-1.46-.12-2.09.32c-.37.25-.45.89-.72.94-.17.03-3,.12-3.41.13-1.68.02-1.26-.66-2.11-1.18-2.08-1.25-1.5-.96-3-2.45-.6-.59-1.8-1.06-2.6-.62.42-1.46-.56-1.74-.64-2.83l-.62.32-.04-1.22-1.47-.42c.37-1.13-1.13-2.18-1.26-2.62-.08-.28.31-1.38.03-1.95-.22-.45-.76-.4-.91-1.01-.35-1.38.51-3.92-1.7-3.48,1.45-1.22-.35-4.35-.26-4.82.12-.66,1.27-.54-.53-1.46-.25-.41.77-1.61.17-2.62-.13-.21-.64-.21-.65-.4-.06-.69.64-1.08.64-1.55s-1.1-2.52-1.88-2.37v-.31c.28.32,1.12-1.31,1.14-1.41.1-.67-.86-2.43-.81-3.18.05-.67,1.29-1.17.71-2.26-.34-.64-.94-.36-1.23-.69-.09-.1.3-2.04.21-2.72-.08-.63-1.02-.15-.31-1.77.55-1.25.22-.75.46-1.88.39-1.83,1.09-3.11.42-5.05-.1-.29-.65-.17-.64-.7.02-.73.54-1.17.6-1.66.07-.51.38-2.31.39-2.45.01-.24-.45-.09-.55-.32-.12-.28-.37-2.51-.37-2.84,0-.13,1.16-.34,1.06-2.08-.06-1.03-1.11-.91.48-1.68.15-.76-.12-.68-.65-.95.1-.56.31-1.14.96-1.11-1.6-1.4,2.19-3.43.33-4.23.9-.54.47-1.42.64-2.14.04-.15,1.07-1.85,1.19-2.67.11-.72-.32-2.77-.2-3.06s.62-.22.77-.61c.09-.25-.06-1.21.14-1.82.11-.34,1-.12.33-1.04l.59-.15c.14-.51-.45-.21-.54-.37-.45-.79-.07-1.47.85-1.2-.2-1.37-.34-2.48-.18-3.86.06-.54.85-1.07.19-2.11,1.31-.04,1.58-.78,1.26-2-.07-.26-.66-.19-.63-.36.2-1.25,1.17-.76,1.23-.83.26-.32.74-3.56,1.6-4.23-.95-.35-.79-1.37-1.54-2.14.93-1.52,2.53-3.01,4.38-3.04l-.31-.94c.63.38,1.57.29,2.13.42ZM230.99,16.48c-.46-.22-.91-.44-1.44-.45.16,1.76-1.18,2.61-1.75,4.09-.12.32.17.79.1.89-.09.14-.72.15-.86.56-.2.57.34,1.24.29,1.84-.06.74-1.14,3.42-1.2,3.78-.08.45.54,1.4-.37,1.9l.94.63c-2.14,1.01-1.51,2.53-1.89,4.4l1.26.47c-.9-.17-.26.54-.62.78-.28.19-.75.05-.99.37s-.22,3.21-.75,3.9l.23.57.87.05v.31c-.48.07-1.55,1.61-1.83,2.13-.73,1.37.56,3.21-1,3.69,1.19.87.15,1.76-.63,2.52,2.59.71.26,1.27.05,1.93-.52,1.61-.04,4.87-.03,6.56,0,1.22-.91,3.52.61,3.63l-.86,2.05c2.36.81.1,1.63.48,3.26l-.56.35c1.37-.07.24,1.33.17,2.05-.1,1.03.23,1.87.37,2.84-1.43.86-.56.47-.36,1.4.16.77-.58.76.7,1.4l-.56,2.7c.74-.19,1.08-.48,1.26.48.27,1.45-.92,1.23-.95,1.56,0,.05.44.38.5.77.08.53-.15,1.47-.12,1.54.02.05.47.07.57.26.2.4.21,1.16.38,1.31.19.17.73-.02.87.06.1.05-.59,1.73-.57,1.99.05.44.6.82.58,1.31,0,.19-1,.03-.64.79,1.71-.66.51,2.16.61,2.95.03.22.6.16.65.41.07.34-.23.87-.06,1.54.25.99,1.56,1.02,1.63,1.09.04.04-.3.53-.25.75.12.48.85.5,1.04.82.3.49,0,1.3.21,1.52.1.11.61.06.84.25,1.53,1.29.59,1.78.72,1.96.05.08.53.12.7.38.26.41.69,1.8,1.05,1.88l3.21-.35c-.27-.94.7-.97.86-1.38.11-.28-.31-1.2-.04-1.72.19-.37.69-.59.9-.96.24-.43-.21-1.35.82-1.27l-.63-.47c.28-.92,1.84-1.73,2.12-2.11.13-.17-.21-1.54-.06-1.85.25-.51,1.35-.44,1.32-1.76-.02-.58-.55-1.01-.39-1.36s1.73-1.91,1.73-2.04l-.89-1.2c.69-1.08,1.6-2.6,1.82-3.86.13-.77-.46-2.15-.21-3.12.04-.14.48-.15.53-.4.29-1.45.87-3.35-.61-4.16l.94-.63c-2.11-.7-.53-1.11-.2-1.58.35-.5.78-3.76.49-4.47-.09-.21-.48-.26-.49-.32-.55-1.85.75-2.05.83-2.34.12-.44-.5-1.29-.53-1.76-.04-.67.45-1.66.22-2.53-.09-.33-1.96-.84-.01-1.48l-.03-.6-.61-.18.64-1.41-.94.31c-.54-1.3.64-1.64.64-1.75.02-.53-.82-1.97-.65-2.75.04-.2,1.42-.33.19-1.82-.31-.37-1.05-.56-1.1-.63-.12-.17.64-2.96.3-4.21-.18-.65-.92-.67-.9-1.31.02-.68.92-.84.19-2.1-.24-.42-1.2-.76-1.11-1.32.06-.36,1.31-1.07.86-2.04-1.17.82-1.28-2.98-.63-3.63l-.6-.28c1.13-1.52-1.03-2.35-1.25-2.75-.1-.18.29-1.01.22-1.61-.09-.89-1.72-1.22-1.03-2.76l-1.43-.77c2.2-2.76-.07-1.78-.62-2.92-.32-.66-.15-3.03-.33-3.21l-.94.32c.33-1.67-.59-2.96-2.02-3.64Z"/>
  <path d="M5.34,0c-.02.78.74.71,1.27,1.1.24.18.25.75.51.78.92.08,2.93-.61,3.43-1.58.54.52,1.75,1.11,2.48.92.24-.06.19-.48.36-.53.68-.21,3.28.99,4.53.26l.32,1.1c1.25-.45,1.72.79,2.45,1.02,1.29.4,1.24.43,2.27.86.96.39,1.86.17,2.55.36.99.27,1.18,1.47,1.9,1.83.32.16.77-.07,1.14.09,1.14.5,2.68.97,2.34,2.23l1.53.39.38,1.8,1.83-.26-.25.57c.29-.02,1.09,1.37,1.12,1.47.15.52-.07,1.91.35,2.5.29.41,1.03-.06,1.34.36.26.35,1.2,2.76.91,3.28,2.06-.58,1.19.79,1.31,1.43.01.06.76.88.9.96l-.32,1.39h1.26c.26,1.66-1.48,1.97-.29,3.44l.91-.29c-.35,1.52-.65,2.61-.57,4.26,0,.08.22.24.41,1.25.17.94.76,1.8.51,2.97l.92.18c.12,1.31-1.19,1.04-1.27,1.1-.06.05.27.5.25.77-.06,1.36-.46,2.57.36,3.92l-.94.8.55,1.59c-.12.51-.98.34-1.13.51-.26.3-.42,2.9-.59,3.41-.49,1.46-2.41,3.41-2.8,4.72-.19.65.15,1.4.05,1.6-.32.59-1.29.32-1.37.39-.36.29-.17,1.25-1.31.55.04,2.16-3.63.75-2.53,3.45h-1.88c.06,1.66-.78,1.02-1.67,1.27-.13.04-1.04.94-2.12.62l.27.58c-1.05.06-1.44,1.67-2.06,1.89-.47.16-2.22-.45-2.8-.16-.62.31-.04,1.18-1.39.52v1.26c-1.85-1.82-2.71.21-4.59-.6l-.56.6c-1.52-.43-3.74-.95-4.76-1.85l-.8.27c.9-1.31-1.32-3.06.6-3.5l-.29-1.21c2.72-.47,5.86-.14,8.54-1.14,1.56-.58,2.71-2.23,4.37-1.69v-1.57s5.35-.63,5.35-.63l-.63-.62c.31-.22,1.75-.96,1.82-1.04.2-.23,0-.77.08-.85.09-.1.58.24.79.2.34-.05.46-.96,1.09-.84l-.63-.47c.9-.31.99-1.23.63-2.04.53.35,2-.72,2.12-1.03.2-.53-.02-1.09.14-1.6.14-.43,1.36-.89,1.52-1.63l-.94-.16.02-1.23c2.11.14.64-2.11.72-2.85.06-.53.53-1.02.53-1.4,0-.16-.47-.16-.52-.28-.13-.3-.69-1.61-.7-1.7-.08-.5.6-.68.75-1.19.17-.59-.29-1.96.15-2.67h-.95c-.13-.67.53-1.47.53-1.98.01-1.46-1.76-2.27-.58-3.96l-1.27-1.26-.88.27c.1-1.28.62-3.59-1.26-3.47l.18-1.09-5.28-6.7-1.85.1c-.97-2.33-2.64-2.32-4.79-2.75-.44-.09-.75-.45-1.32-.52-.33-.04-2.84.3-2.97.23l-.71-1.8-1.21-.05v1.26c-.61-.48-.66-.87-1.57-1.09-1.01-.25-3,.65-2.84-.47h-.62s-.05.89-.05.89l-.89.05.32,5.98.62-.32c.82,1.73-2.44,3.5.32,4.26l-.95,3.46.63.29c-.61,1.07-1.06,1.75-1.26,3.01h1.26c-.16,1.67-1,1.07-1.26,1.26-.06.05.36,1.42.4,1.49.14.22.8.29.86.56s-.47.73-.55,1.18c-.11.65.24,1.56.25,2.27.02,1.19-1,1.92.61,2.52-1.56.71-.92,1.22-.81,2.19.09.77.58,2.81.5,3.11-.06.23-.64.19-.64.38-.05,2.8,1.22,4.61.57,7.45-.07.31-.69.76-.56.86h.95c.41,1.03-.83,1.54-.87,1.63-.21.48.09,2.27,1.17,1.86.28.95-1.21,2.33-1.24,2.95-.03.75.94,1.88.31,3l1.58.16c-.05,1.39-1.26,1.76-1.26,1.88,0,.11.61.49.74.78.44.97-.35,2.86-1.06,3.63,1.38.36-.3,2.3.95,2.51-.68.61-1.17,3.12-.83,3.8.3.61,1.86,1.13-.13,2.19.88,1.34.64,2.58.56,4-.06,1.04-.39,2.67-.44,3.63-.14,2.76.78,1.77,1.04,3.12.02.12-.07,1.82-.1,1.92-.15.41-.74.36-.74.57,0,1.78.31,3.48.76,4.94.14.45.76,1.05.46,1.45-2.59.9,1.96,2.99-.26,3.51v.31c1.66.31-.31,1.67-.34,1.8-.15.61.4,1.69.01,2.44l.95.17v1.25s-1.25.01-1.25.01l-.64,3,.62.15c.3.4-1.54,1.58-1.87,1.69-.41.14-.85-.26-1.28,0-.33.21-.08,1-.78.81-.02-1.51-1.43-1.65-1.82-2.62-.31-.76.54-.92.4-1.15-.03-.05-.52.21-.79-.62-.19-.59.06-1.44-.01-2.05-.05-.43-.53-.82-.5-1.6,0-.09.3-.52.4-1.53.08-.78.56-1.71-.36-1.92,1.02-.66.07-.91-.01-1.88-.19-2.15.87-2.72.16-5.69-.07-.28.29-.76.12-1.03-.1-.18-1.05-.27-1.11-.83-.01-.1.24-1.92.29-2,.11-.15.58-.15.76-.52.17-.35-.19-2.37-1.16-1.75-.14-.53.59-.14.65-.51s-.24-.87-.19-1.23c.13-.9.4-1.97.49-2.97h-.72c-.93-.82.59-1.1.71-1.49.66-2.08-.73-4.17-.47-5.72.19-1.14,1.53-2.87.5-4.25-.38-.51-1.1.47-.96-1.43l.94-.18c-.23-1.81-.9-3.32.02-5.03-.06-.8-.99-.69-.99-.96-.01-.56,1.25-1.75.9-3.14-.03-.11-.93-.72-.84-1.9.04-.52.61-.75.55-1.49s-.78-.84-.83-1.01c-.18-.57,0-2.52.56-2.99l-1.21-.36c-.36-2.17,1.45-3.47.28-5.44l.92-.63c-.95-1.21.07-2.59-.92-3.8l.9-.63-.26-2.8L0,33.65c.29-1.27,1.55-1.92,1.27-3.3l-.96-.16.63-2.2L0,28.3c-.07-1.13.81-1.14,1.1-1.57.4-.6-.39-3.03.15-4.08l-.94-.16c1.02-.92.42-1.66.35-2.54-.01-.15.49-.12.69-.53.27-.56-.12-1.51.22-2.12l-.95-.32,1.57-.64c-.2-1.32-1.06-2.63-.01-3.76l-.64-.21c.07-.4.21-.76.22-1.18.02-.57-.69-1.22.42-1.16-1.38-1.63.39-3.55-.31-5.34h.94s.02-1.68.02-1.68l-.65-.36c1.67-.4,1.37-2.39,3.13-2.66Z"/>
  <path d="M375.29,7.91l.07.84c2.16.13,4.19,2.66,5.88,4.12,1.12.96,2,.62,1.67,2.83l.92.02c-.38.66.07,2.16.34,2.91.1.29.54.23.6.46.39,1.42-.63,1.42-.63,1.53,0,.39.47.85.28,1.48-.23.81-2.15,3.85-2.78,4.8-1.67,2.55-3.84,1.43-2.52-1.82.09-.23.61-.24.63-.44.06-.77-.91-1.22.3-1.52-1.31-1.56.04-3.26-1.12-4.87-.29-.41-2.48-2.46-2.97-2.69s-1.19-.26-1.71-.49l-.18.65c-.52.14-.14-.55-.51-.64-.73-.18-1.6.19-2.31.33l.3.6c-.53.09-1,.29-1.41.64-.24.21-2.18,2.26-2.33,2.47-.41.58-.89,2.42-.87,3.11s.48.93.54,1.2c.03.12-1.24.74-.76,2.05l-1.13.31c2.15,1.36.59,1.83.61,2.98,0,.16.91.07.49.95-.22.46-.8.79-.8,1.25,0,.38.54.76.63,1.28.07.42-.45,3.43-.26,3.56.15.11.64.01.89.2.34.26.29.77.53,1.08.2.26.74.3.78.54.11.66-.9,1.42-.35,2.39.32.55,1.22.49,1.26.56.06.08-.88,1.27-.31,1.88l.62-.32.05,1.71.87.22c.16,1.6.26,2.78,2.24,2.8-.77,1.14.06,2.52,1.26,1.89l-.63,1.88c1.1-.14,1.17.65,1.73,1.27.62.69,1.03-.14.47,1.87l1.22.37c.1.49-.04.96.13,1.45.04.1,1.3,1.17,1.49,1.52l-.32,1.08.75-.26.49.46c-.51,1.57.33,2.43.65,3.89l1.25-.31c-.17.83.45,1.65.49,2.35s-.57,1.65-.32,2.41c.19.59.62.55.75.84.63,1.42-.05,1.87,1.6,2.43-.77,1.34.01,1.94-.32,3.3h.95s-.94,1.72-.94,1.72c2.08,2.17.57,6.04,1.23,8.8l.97.19c-.27.78,0,1.44-.95,1.72v.79s.72,0,.72,0c.78.12-.1,1.6-1.03,1.27l.89,3.01c-.07.45-1.23.23-.89,1.08l.94.16c0,1.29-.99.9-1.21,1.15-.17.2.05.92-.11,1.29-.24.56-.79.83-.99,1.55-.34,1.19.75,1.19.76,1.38.06,1.27-1.4,1.22-1.55,1.45-.15.24.06.79-.14,1.11-.04.07-1.09,1.18-1.17,1.22-.44.22-1.01-.29-1.21-.15-.05.03-.57,1.02-.57,1.08,0,.41,1.29,1.16-1.26,1.3-2.18.11-2.17-.43-4.45.64-.85.4-.73.3-1.56.62-.41.16-.37.69-.53.7-1.63.05-1.25-.81-1.65-1.23-1.27-1.35-2.56-.05-3.4-.12-1.03-.09-3.8-1.53-4.58-2.29-.74-.72-.83-2.35-2.18-1.67.18-1.21-.88-1.26-1.27-1.75-1.54-1.95-1.22-4.58-2.51-6.53-.29-.44-.85-.38-1.27-.56l.21-2.97-.86-.15.64-1.73-.64-.31c1.1-1.22,2.27-2.24,3.79-.94.15.13.61,1.71.75,1.96.16.26,1.06.69,1.11.94.11.56-.12,1.23.06,1.77s1.72.79,1.26,2.36c.37.34,1.64.24,1.8.41.11.11.61,2.24,1,2.87.42.67,1.21.81,1.73,1.17.32.22.36.74.52.87.06.05,1.47.27,1.55.26.75-.1,1.55-1.01,2.01-1.01.54,0,1.23.96,1.93,1.06,1.63.23,3.52-.52,4.43-1.89.22-.34.06-.95.38-1.35.56-.7,1.26.1,1.83-1.95.74-2.64-.78-1.91-.88-2.47-.18-1.06.88-1.35.95-1.6.43-1.47.31-2.87-.61-4.04l.64-.3c-1.09-2.01-1.06-2.59-.02-4.55l-1.22-.36c-.36-.58.57-2.35-.67-2.16l.56-.35c.11-1.52.57-2.98-.24-4.47-.2-.37-1.14.06-1.22-1.07-.05-.77.59-.98.54-1.74-.04-.57-2.24-2.57-1.21-4h-.95s.22-.57.22-.57c-.04-.09-.38-.05-.45-.22-.64-1.51-1.11-3.1-1.89-4.31-.12-.19-.27-1.9-.57-2.43-.42-.77-1.51-1.04-2.03-1.76l.94-1.09c-1.56.34-1.21-1.68-1.67-2.43-.09-.14-2.04-2.41-2.19-2.49-.2-.11-.93.08-1.15-.14-.02-.02.18-.37.07-.59-.73-1.52-.61-2.25-1.07-3.55-.13-.37-1.02-.05-.29-1.18l-.94.31c-.13-.1-.42-2.88-.61-3.25-.22-.42-.9.11-1.15-.82s.28-1.58-.08-2.72c-.22-.7-1.43-1.05-1.75-2.08-.07-.24-.54-3.69-.47-3.87.12-.31.71-.3.9-.63-1.11-.16-1.5-2.69-1.11-3.3.19-.29.81-.31,1.03-.83.28-.64-.26-3.26-.13-4,.1-.57.97-1.63.84-2.53l-1.25-.67c.62-1.35.92-1.04,2.2-.79-.19-.86.06-1.73-.95-2.04.37-1.28,1.17-.48,2.07-1.09-.36-1.01.48-2.88,1.25-3.47.5-.38,1.05-.22,1.31-.42,1.61-1.23,2.21-2.47,4.53-3.49.4-.17,1.67-.8,1.77-.82.62-.14,1.75.35,2.45.33l.17-.95,1.53.38Z"/>
  <path d="M345.42,9.74l1.1-.63c.95.4.83,2.87,2.37,1.88l.31.79c-1.32.52-.59.95-.94,1.85-.3.76-.8,1.35-.94,2.22-1.71,1.21-4.14.38-5.26,2.35h-.52c-.96-1.14-1.98-.98-3.37-.92l.31.94-.96-.18-.61.8c.13-.86-.41-.3-.78-.61-.33-.28-.36-1.01-1.02-1.21-.78-.24-1.46.11-2.16.09-1.28-.04-2.95,0-4.32-.21-.46-.07-.75-.43-1.17-.57-.5,1.97,1.19,3.97.86,5.78-.06.35-.65.63-.54.82.05.09,1.78.63.34,1.08,0,.98.83,1.51.86,1.6.16.52-.91,2.75-.91,3.77,0,1.11.87,2.41.85,2.83-.01.15-.65,2.77-.72,2.94-.21.49-1.72.5-.08,1.19l-.32,1.25.61.28c-.85,1.19-1,2.43-.87,3.84.04.43.48.73.49,1.16.01.72-.87.84-.89,1.04-.08.6.37,1.2.34,1.5s-.81.26-.88.63c-.19,1.02,1.31,3.68,1.09,4.13l-1.17.47.95.32-.62,2.81c1.79,1.13,2.26-1,3.94-.91.91.05,1.36,1.56,2.2-.34.51-.13.74.65,1.08.78.38.15.96-.32,1.23-.1.17.13-.17.72.35.58.34-1.15,1.81-.79,2.06-2.2l1.26.62.61-.92c1.25.67,2.51.27,3.48,1.56l.63-1.25.79.78-.63.31c.7.32,1.01,1.58.82,2.22-.12.41-.67.36-.84.68-.79,1.5-1.04,2.94-3.01,3.55-.98.3-1.91,0-2.74.13-2.18.36-5.5,1.56-7.92,1.14-.83-.14-2.03-1.3-3.32-.94v1.1s-.63-.16-.63-.16c-.13.19.87,2.53.8,2.85-.17.86-1.91,2.11-1.78,3.29l1.6,1.56c-2.29,1.09-.4,2.62-.59,4.73-.05.58-.57.42-.64.67-.08.27-.1,3,.61,2.78l-.96.66,1.3,3.67.61.24-1.26,1.41.16.48c1.05.31.96.83.5,1.75l.6.13c.14.5-.43.22-.51.37-1.2,2.22.89,2.58.52,4.14-.04.16-1.71.44.29,1.17l-.93,2.49.89.04c-.15,2.64,2.13,3.57,3.86,1.71.2-.22.05-.66.27-.97.4-.55,1.17-.27.97-1.71.82-.11.8-.01,1.09.63,1.49-.48,1.58-2.9,3.31-1.89v-.72c1.12-.75,1.62,1.01,3.15.4-.08,1.29.06,2.09,1.26,2.68v.47c-1.6-.14-.88.83-1.27,1.38-.66.92-1.27,0-.4,2.26l-.2.29c-.6.52-2.26.63-2.47.88-.13.14.02.63-.14.78-.26.25-1.13-.26-.89,1-2.23-.83-1.89,2.14-2.97,2.23-.19.02.02-.99-.78-.63l.3.91c-1.08.66-1.94.7-3.14.35l-.03.9-1.23.05v-1.26s-4.07-.02-4.07-.02c-.19-.77-.39-2.19-.82-2.8-.49-.7-1.26-.44-1.52-1.03-.24-.55.03-1.1-.08-1.52-.33-1.17-1.33-2.38-.74-3.44-2.12.05-.77-1.57-.92-3s-.58-2.47-.55-4.34c.03-1.47.19-2.71-.11-3.8l-.65-.35,1.29-2.51c-.68-.5-.9-1.03-1.9-.79l.63-2.51h-.95c.08-1.21.69-1.38,1.56-2.04-1.93-1.87-.47-2.15-.3-4.25l-1.26-.16,1.57-3.47-.62-.15c-.68-1.35.77-1.78,1.08-2.8.43-1.39-.72-2.55-.72-2.71,0-.27,1.04-.81,1.17-1.33.17-.65-.3-1.22-.27-1.8.03-.53.52-.94.56-1.33.03-.32-.6-2.41-.53-3.07l-1.29-.19,1.26-1.41-1.26-1.42c1.09.18.22-1.09.68-1.84l1.52-.52-.63-.35c-.32-1.12.45-1,.63-1.29.78-1.28-.41-1.67-.31-2.12.08-.36,1.13-.57,1.19-.95.03-.2-.62-1.55-.51-1.91.07-.24.8.04.58-.62l-1.57-.48c.42-.54.38-1.5.63-1.96.22-.39.88-.47.94-.72.07-.31-.45-.68-.51-.99-.25-1.36.32-3.42.51-4.81l-1.26-.31c.9.19.26-.58.61-.79l.96-.16c.18-.53-.53-.81-.53-1.09,0-.41,1.46-1.4-.42-1.74v-.3c2.17-.78.99-3.1.63-4.72h.94s0-1.89,0-1.89l-.94.32c-.57-1.56,1.1-2.44.63-4.2-.07-.26-.65-.17-.64-.37.03-.73,1.13-.85.05-2.15l1.07-2.4c1.83.88,3.64-.38,5.5-.01l-.18-.96c.91-1.06,2.82-.16,3.49-.36.19-.05,1.13-1.79,1.42.69.09.1,1.65-.86,2.07-.93,1.71-.28,3.48,1.06,5.96.22.28-.09.56-1.5,1.55.32l1.63-.54c-.27-1.21.09-.85.91-1.58l.16.94Z"/>
  <path d="M97.61,4.39l.32,1.26,3.48-1.12c.73.21.9,1,1.45,1.39,1.39.99,2.24,1.09,3.71,2.27.78.63,1.39-.24,1.16,1.85l.85.06c.41,1.33,1.32,4.36-.34,5.09-1.74.77-2.5-1.66-3.77-2.4-.89-.52-1.6-.39-2.16-.68-.29-.15.08-.91-.44-1.1-.95,1.07-1.32-.05-2.21-.04-.65,0-1.02.55-1.58.63-2.25.31-4.17-.39-6.31.98-.28.18-.34.73-.54.86-.69.44-2.02.12-2.64,1.63l-1.68-.6c.19.88-.2,1.41-.91,1.85-.36.23-.87-.33-.68.83l.64.31c-.19.15-.23.41-.37.58-.54.69-1.97,1.37-2.32,2.12-.04.1-.31,1.74-.37,2.07s.3.84.19,1.01c-.1.16-1.44.53-1.7.99-.46.8.3,2.39-1.42,2.52l.63,1.4c-.33.85-1.46.03-1.57.16-.15.17,0,1.6-.07,1.74-.1.22-.53.11-.56.15-.13.19.62.49.56,1.04-.1.96-1.21,1.86-1.22,1.98-.09,1.11.07,1.12-.22,2.56-.41,2.07-.71,4.14-1.02,6.22l.94.15c.4.37-2.07,4.03-.31,4.25l-.63.47.63.31c-1.85.33.58,2.69-1.27,3.31.93,1.06.07,1.49.09,2.59.03,2.51.12,5.21.24,7.5.09,1.65.09,4.95.44,6.44.17.7.9,1.19.84,1.99l-.97.67c.75.54.8.87.77,1.74l.76.03c.3,1.08.02,2.19.11,3.28.01.16.47.13.51.3.08.38-.37,1.6-.13,2.69.27,1.26,1.11,2.46,2.07,3.29l-.65.64c-.11,1.39,1.53,2.33,1.55,2.49.03.26-.53.83-.43,1.48.08.51.63.52.78.83.32.65,0,1.47.21,1.95.28.65,2.48,3.68,3.11,3.69.22,0,.44-.56.79-.4.72.34,1.06,2.84,2.73,3.61.64.3.95-.02,1.27.1.15.05.99,1.43,1.35,1.64,2.41,1.38,5.04.3,7.55.17l-.18-1.57c1.32-.93,3.05-1.02,3.49-2.84-.27-1.66,1.67-2.27,2.51-3.45.97-.16.81.11.79.94l2.2-.31c-1,1.85,1.8,1.56.95,3.14l1.26-.31-.02,2.01-1.21.54c.42.94-.47,1.24-.78,1.85-.14.27.21.73-.18,1.1-.58.56-1.4.19-1.61.32-.32.21-.95,1.91-1.65,2.14-.56.18-1.09-.12-1.48.05s-1.11,1.16-1.88,1.59c-1.22.68-3.84.66-3.53,1.68-.59.53-1.2-.22-1.52-.13-.47.14-1.02,1.05-1.73,1.08-1.53.06-3.22-1.74-4.73-1.41-.31.07-.62.59-.78.49-.02-.01.05-.4-.1-.52-.6-.46-2.48-1.24-2.59-1.34-.57-.52-.6-1.69-.84-1.86-.53-.37-1.95.17-1.85-1.63l-1.48-.1-2.48-4.63c-.53-.55-4.81-5.19-4.84-5.56-.04-.46.42-1.01.3-1.47s-1.04-.63-1.36-1.14c-.28-.45.1-2.65-.03-3.2-.19-.78-.96-.82-1.04-.95-.1-.17.34-2.93.14-3.83-.1-.43-.59-.77-.68-1.16-.37-1.67-.55-3.4-1.1-5.04l-.62.32c-.18-.68.52-1.1.55-1.67.04-1.1-.39-5.65-1.1-6.36l.23-5.03-.95-.32c1.77-2.58.27-5.53,0-8.32l.95-.19c.21-.59-.51-1.94-.51-2.19,0-.72,1.24-1.79-.08-2.83l1.52-.79c-.73-1.45-.89-3.02-.55-4.56.14-.62.85-2.28,1.02-3.3.2-1.2-.18-2.18-.13-3.02s1.27-.91-.03-1.23c.53-.88,2.09-2.87,2.13-3.84.02-.43-.43-.64-.41-1.07.02-.37,1.23-3.18,1.5-3.86.24-.6,1.15-.32.89-1.31-.03-.1-1.36-.41.08-1.6.12-.1.56.17.71-.12.16-.32-.19-.69-.1-1.03.36-1.33.93-2.53,2.39-2.8.07-1.03-.25-1.39-.89-2.15l2.21-.64-.29-.91c.57,0,.92-.69,1.26-.83.6-.25.99.17,1.19.1s2.76-2.73,2.9-2.92c.24-.33.31-.7.31-1.1l1.74.02.14-1.6c2.08.9,3.53-.11,5.66,0l.18-.9c.52-.05,2.45.33,2.75.26.28-.07,1.77-1.81,2.1-1.55Z"/>
  <path d="M56.04,2.82c.37.21.32,1.8,1.89.94-.31.53.09,1.32,0,1.68-.06.26-.6.2-.6.34.01,1.45,1.52,1.84,1.57,3.18.02.53-.53.4-.64.7-.65,1.73.22,2.43.3,3.67.08,1.17.19,3.07.21,4.15s-1.14,2.2.1,2.47c-1.48,1.27.35,2.04.32,2.49-.04.53-.35,1.17-.64,1.62l.61.28c-.86,1.33.14,1.35.24,1.52.81,1.52-1.23,1.36-1.16,1.65l1.25,1.57-1.26.8.97,1.1c.08.73-.27,1.06-.97,1.11.94.85.17,1.09.16,1.72-.05,2.29.5,4.29.45,6.59l.97.18c.07.92-.97,1.56-1.11,2.16-.23.96,1.23,1.43-.48,2.1.92,1.28.15,1.65.02,2.97h1.57c-.62,1.12-1.12,1.94-.93,3.29.06.39.46.71.49.96.08.63-.65.71-.74.94-.27.67.61,1.28.48,2.2-.19,1.4-1.6,3.38.38,4.08l-.94,1.26c1.28.42-.37,2.56-.29,3.8.04.71.86,1.05,1.23,1.55l-1.25.8c.87,1.36,1.39,1.65.9,3.42l-.91.19c.23.52.1,1.37.36,1.82s.94.53.9.68c-.05.18-.37.44-.44.76-.26,1.27-.43,2.56-.82,3.81l1.57.16c-.02,1.14-1.43,1.6-1.55,1.76-.04.06.35.8.29,1.35-.08.73-.97,2.55-.24,3.27.43.43,2.95.95-.07,1.65l.93.65c-.42,1.11-1.02,3.1-.97,4.24,0,.18.85,1.15.67,2.49-.06.47-.72,1.01-.64,1.11.04.05.65,0,.86.47.19.42-.79,1.36.4,1.58-1.35,1.22.21,1.71.22,2.77s-.71,1.94-1.49,2.59l.92.82-.33.87-1.53-.6c-.02.49-.51,1.75-1.1,1.57-.29-.08-.35-.72-.53-.86-.05-.04-.83.09-1.28-.13-1.05-.53-1.84-1.45-3.07-1.53.63-1.04.56-1.81.29-2.95l.65-.2c.13-.52-.41-.19-.57-.37-.58-.68.59-1.29.59-1.37.01-.47-.6-2.23-.61-3.16,0-.64.28-1.19.3-1.82l-1.29-.52c-.13-.17,1.14-2.45,1.13-2.68,0-.19-.39-.43-.38-.61.01-.27.51-.53.45-.89-.05-.32-.67-.63-.59-1.3.05-.42.56-.78.56-.97,0-.55-1.26-.38.32-1.24-.36-.81.01-2.02-.86-2.22-.17-.91.57-.07.63-.15.52-.71-.68-.58-.63-.79l.63-.31-.63-.63.56-.2.08-1.53h-.95c.85-1.57,1.39-3.26.93-5.02l-1.24-.17c1.5-1.42-.31-3.36,1.57-4.09-.99-.27.05-.66-.94-.94,1-.98.04-2.66,1.26-3.78-.8-.19-.94-1.74,0-1.88l-1.53-.83c-.17-1.21,2-1.55.26-2.31v-.63s.61-.17.61-.17v-.6c-1.77-.5.02-1.65.02-1.77,0-.23-.25-.57-.25-.92,0-.95.76-.86-.69-1.57l1.25-1.89-.94-.31c.15-1.19,1.18-1.42.68-2.33l.57-.19c-1.69-1.26-.43-2.75-.42-3.47,0-.29-.87-.89-.83-1.57.02-.38.83-2.56.89-3.2.04-.41-.31-.65-.58-.89l.63-.31c-.69-.67-.59-1.23-.31-2.05l.62.32-.28-1.44.61-.28c-.16-.81-.91-.74-.95-.8-.11-.19.4-.41.46-.64.11-.45-.1-.78-.04-1.03.12-.53,1.22-1.2-.11-1.16l.62-.94-.57-.15-.31-5.46c2.11-.53-1.24-3,.89-3.21l-.64-.48c.45-1.71,1.31-3.68-.3-5.02l.64-.33v-2.03s-.64-.15-.64-.15c1.7-1.65-.08-3.21.41-5.43.19-.83.85-1.47,1.04-2.19.12-.48-.16-1.42.13-2.06.21-.47,1.2-.57,1.67-.87.27-.17.15-1.02.84-.62Z"/>
  <path class="cls-1" d="M178.73,15.53c.4.17,3,1.32,3.14,1.43.31.23.37.82.49.91.11.07,1.78-.07,2.58.36.35.19.13.67.27.86.23.31.83.18,1.11.49.25.28.86,1.89,1.22,2.4.3.43.91.52,1.21.97.25.38-.27,1.28-.1,1.52.12.16.71.21.93.5.36.48.18,1.14.35,1.39.14.2,1.08.29,1.49.56,2.04,1.31.76,1.94,1.05,3.44.02.11.97.98.88,1.87-.02.17-.52.18-.54.24-.12.41-.23,1.89.52,1.51v.31c-1.31-.05-.16,1.45-1.25,1.27l.94.62c-1.04.11-1.46,1.06-.31,1.42-1.72.81-.93,1.38-.95,2.49,0,.19-.53.15-.69.63s.11,1.13,0,1.36c-.16.3-1.61,1.58-1.8,1.85-.46.7.56,1.34-1.6,1.38l.25.57c-.59.21-.81.3-.68.94l-.52.06.63.94-1.9.15c-.61.53.35,1.84-1.87,2.55-.75.24-2.19.44-3.03,1.06-.28.2-.33.75-.5.89-.09.07-1.15-.16-1.45.14-.2.21-.11.99-.47,1.43-.24.29-2.48,1.35-2.9,1.37-.82.04-1.54-.59-2.36-.03.06-.81.19-1.17-.63-1.42,1.46-.56.68-1.31.8-2.65.11-1.18,1.06-1.47.47-2.63-.11-.22-.64-.19-.65-.41-.02-.59.47-1.51.35-2.52-.08-.68-.79-.24-.66-.92l.89-.95c-1.5-1.2-.12-2.37-.27-3.75-.14-1.27-1.22-1.44-.44-3.65.28-.79,1.69-.7-.15-1.74.32-.89.3-1.46-.33-2.19l1.2-.93c-.98-1.27-.63-1.72-.46-2.95.05-.37-.19-.84-.09-1.11.15-.43.73-.35.89-.73.37-.9-.71-1.2-.86-1.57-.71-1.73-.16-2.27-.06-3.42.06-.67-.11-1.54-.02-2.79.13-1.74-1.66-3.19-.29-4.91,1.1,1.22,1.48.16,2.05.12.67-.05,3.38.95,4.12,1.27Z"/>
</svg>