<?xml version="1.0" encoding="UTF-8"?><svg id="Layer_2" xmlns="http://www.w3.org/2000/svg" viewBox="0 0 289.48 107.99"><g id="pisco_sour"><path d="M223.22,17.01c.19.11,1.11.48,1.26.48.4,0,.88-.9.93-.02l.49-.18c-.24-.72,1.11-.81.91.21.24-.1.44-.2.71-.2,1.06,0,3.46-.1,4.32.14.19.05,1.69.6,1.77.65.37.22.81.95,1.21,1.23l.2-.81c.53.41.88.42.71,1.22l.36-.16c.71.78,1.19.86,1.45,2.1.79-.3.57.21.82.36.18.11.56-.01.73.33.19.4-.34.48-.18.96.05.15,1.16,1.12,1.22,1.32.05.17-.2.48-.02.92.12.3.55.3.65.59.31.89-1.51,2.32-.36,2.81-.66.93-.25,1.38-.2,2.24.04.71-.59,1.03.39,1.41-.17.71-.78.59-.99.74-.02.02.1.31.01.51-.12.29-.73,1.41-.65,1.49.39-.09.83.27,1.01.61-.87.05-.86,1.03-1.21,1.48-.21.27-.6.34-.83.65-.26.34-.35,1.25-.79,1.64-.25.22-.47.28-.79.32-.27.79.21.72.58,1.19-.15.22-1.61.84-1.89,1.02-.12.08-.13.29-.19.32-.09.05-.32-.06-.47.06-.38.32-.02.87-.34,1.18l-1.18.25.17.37-1.19.94c.25.11.33.59.44.67.08.06,1.52.59,1.74.73.48.31,1.07,1.51,1.58,1.35l.3-.41c0,.43.71,1.28,1.03,1.51.39.28.69.13.75.17.09.06,1.02,1.25,1.33,1.58.65.69,2.7,2.76,2.74,3.52.01.23-.24.63-.18.72,1.25.06.85.43,1.22,1.08.11.19.49.02.27.5.73.04-.18.55-.08,1.14.03.16.66-.01.22.6.56.21.38.82.2,1.34l.81.11-.41,1.31,1.22.21-.23.99-.58.03.39.28c-.58,1.02-.06,1.59.24,2.55h.99c.08.35-.28.14-.36.23-.05.05.22,1.02-.24,1.3l.42.21c-.49.67.14.97.19,1.43s-.19,1.06,0,1.57l1.02.43c-.74.79-.04,1.15.01,1.64.04.41-.74,1.62-.21,2.32-.97-.24-3.62,1.27-4.24.17-.18-.32.64-2.06-.64-1.79.43-.47.41-1.09.2-1.67-.06-.16-.4-.16-.41-.29-.02-.23.24-.6.2-.66-.03-.05-.52-.09-.7-.43-.53-1.01-.49-2.66.1-3.65l-1.02-.21.39-1.3-.6-.42.4-.61-.81-.31c.13-.38.46-.89.42-1.29-.02-.14-.36-.12-.48-.38-.27-.62-1.21-3.07-1.33-3.5-.02-.07.05-1.06-.06-1.3l-.54-.05c.23-.82-.76-1.04-.82-1.31-.04-.19.23-.48.15-.65-.14-.27-1.51-1.02-1.56-1.1-.13-.22.03-.69-.04-.76-.05-.05-.49.04-.75-.07-.3-.13-.7-1.17-.87-1.28-.19-.12-.49.12-.57.07-.07-.04-.83-1.06-1.15-1.17l-.81.81-.92-1.42-.6.61c-.08-.54-1.4-1.65-1.83-1.42l-.1.4-1.23-.59c-.02-1.08-.32-.76-1.2-1.03-.29.03-.29,2.59-.25,2.92.08.7.64.32.54.94l-.4-.21c-.14.51-.31.8.4.81l.2-.4c.01.64.2,1.37-.61,1.43.63.68.08.91.06,1.34-.04.92-.12,2.57.55,3.01-.34.91-1.19,2.42,0,2.85l-.4,1.12h.81s-.76,2.4-.76,2.4c.27.58-.17,1.3-.18,1.56-.02.65,1.16,1.1.32,1.92h1.01c.08.34-.26.1-.36.3-.22.41.35.56.35.6-.02.45-.28.9-.8.72l.21,1.62c.74-.37.99.19.81.88-.04.15-.93.15.2.84l-.81,1.22.81.21c-.2.78-.8.56-1.05.72-.33.21-.36.72-.98.6l.2.4-1.9.37c-.67-.12-.63-1.53-.8-1.95-.02-.05-.4-.14-.57-.53-.19-.43-.19-.98-.18-1.45l-.41.1c.14-1.3.76-1.95.34-3.29-.11-.34-.46-.59-.51-.91-.11-.72.38-2.24-.64-2.59,1.05-.89.3-1.03.25-1.87,0-.15.42-1.29.33-1.59-.05-.15-.8-.13.03-1.21l-.61-.41.38-.2c-.25-.99-.38-1.78.02-2.74h-.81s1.16-2.34,1.16-2.34c-.28-.34-.33-.79-.48-1.12-.06-.13-.37-.14-.43-.3-.02-.06,0-1.18.03-1.24.17-.35.72-.13.54-.69l-.4.21c.12-.48-.12-.77.4-.91l-.81-.31.59-.94-.39-.58.81-1.84-1.01-.31c-.07-.32.28-.09.4-.35.27-.61-.29-2.1-.31-2.79,0-.11.11-1.93.13-2.04.14-.63.8-.68.38-1.78-.1-.27-.81,0,.01-1,.18-.21.51-.3.61-.46.24-.43-.48-.23-.57-.33-.52-.54.09-1.61.13-1.94.04-.45-.17-.45-.02-1.44.11-.73.72-2.49-.14-2.48l.4-.49c-.53-.63-.71-1.19-.62-2.03l.62-.11c-.23-.42.02-1.02,0-1.3-.02-.16-.49-.01-.42-.63.06-.46.41-.3.57-.6.04-.07-.07-1.31.06-1.53l-.4.2c-.37-.76.52-1.03.41-1.83l-.61-.1c.73-.5.26-.95.22-1.44,0-.1.35-.06.39-.22.11-.53-.3-1,.41-1.19-.67-.92-.67-1.48-.13-2.47.07-.12.41-.15.5-.41s-.04-.69.06-.85c.13-.2,1.04,0,.79-.84.31-.09.14.26.26.33ZM230.67,22.77c-.13-.54-.88-1.34-1.38-1.57-1.14-.52-2.51.46-3.61-.87l-.72.52c-.28.94.34,1.09.38,1.2.15.4-.5.85-.54,1.04-.05.27.61,1.11-.04,1.79.79.23.24.68.27,1.24.04.89.08,2.42.17,3.23.04.38.54,1.17.51,1.63-.03.54-1.12,1.39-.12,2.44l-.4.09v.4c.59-.07.21.25.27.36.04.07.35-.01.36.34.01.75-.58.61-.64.86-.18.71.31,1.87.34,2.4.02.3-.46.55-.48.97,0,.18.1,1.47.13,1.66.03.15.79-.06.81.84,0,.09-.3.08-.33.2-.15.59-.11,1.22-.27,1.82l.41-.1.11,1.01c.4.17.73-.95.84-1.03.36-.26.83.11,1.2-.17.52-.39,1.03-1.59,1.52-1.95.44-.33.78,0,1.22-.38.38-.33,1.21-1.24.8-1.74h.82s-.02-.52-.02-.52l.83-.1c-.18-.42-.12-.84.4-.81v-.2c-.74.2-.26-.97-.01-1.28.27-.32.67-.25.8-.37.07-.07-.33-1.49.86-1.51-.53-1.13.53-1.59.54-2.45,0-.39-.33-.68-.28-1.08.06-.5.51-.88.65-1.42.17-.68-.34-1.37.08-2.03h-.81c.09-.32-.04-1.68-.18-1.89-.24-.36-1.2-.24-1.05-1.15l-.39.2c.18-.9-.61-.65-1.22-.82l.18-.37c-.46-.17-.84-.32-.58-.84h-1.09s-.33.4-.33.4Z"/><path d="M180.78,16.21s.72.74.76.77c.27.17,1.3-.23.8.91l1.01-.4c.32.78-.17,1.69.51,2.23l.71-.6c.32.64-.26,1.44-.15,1.93.01.05.52.59.59.79.52,1.44.38,3.66,1.39,4.6-.57.77-.76,1.53.4,1.63l-.4,1.2,1.01.1-.4.3c.93-.08-.24,1.79,0,2.03h.61c-.61,1-.27,2.15-.2,3.24h.8s-.4.72-.4.72l.6.1c.18,1.01-.83,1.5-.18,2.52.25.39.86.13.37,1.18-.12.25-.45.09-.39.25l.61.1c-.64,1.22-.15,1.07.11,1.84.15.46-.5.68.51.6l-.18.89-.64.12c.57,1.03-.49,4.13,1.22,3.65.11.92-.58,1.48-.56,2.32.02.68.39,1.83.76,2.04-.67.78-.39,1.15-.41,1.82,0,.06-.71.25-.41.93h.81c-.45.51.02,1.15-.04,1.5-.05.24-.47.4-.52.65-.07.35.34,1.39.28,1.81-.05.29-.5.44-.62.7-.45.95.42,1.49.3,1.92l-.81.31.72.39-.11,1.03-.61-.2.18.52c-.53.2-.25,1.26-.51,1.9-.7,1.77-1.58,2.12-1.95,4.13-.11.6-.86.77-.57,1.36l-.61-.2c.13.57.21.89-.41,1.11l.37.61-1.38.71.4.49c-.18.67-.68.65-1.06.93-.17.13-.76.7-.89.77-1.1.56-2.48-.16-2.21,1.46-.82-.03-1.01-.63-1.62-1.03-.21-.14-.48.02-.49,0-.16-.16-.03-.73-.06-.76-.63-.66-3.19-.76-2.4-2.47l-1.22.4c.09-.76-.12-1.4-.41-2.09-.05-.12-.37-.12-.4-.28-.25-1.19-.9-3.01-1.58-3.96-.04-.06.16-.28.12-.33-.09-.13-.66-.22-.74-.54.78-.79.2-.89.05-1.17-.25-.5-.35-.46-.5-.71-.68-1.14.15-1.18.1-2.11-.03-.47-.79-.96-.72-1.68l.41-.11-.4-.32-.18-2.8-.63-.12.4-.2-.41-1.22h.61s-.15-1.07-.22-1.26c-.08-.22-.53-.09-.39-.66.02-.07.64-.08.41-.61-.15-.35-.69-.32-1.01-.31-.04-.42.78-1.09.8-1.16.42-1.48-.33-2.69.21-3.81l-.37-.12.16-.46-.4-.21c0-.71,1.24-.92.19-1.23.66-.63-.02-1.46.8-2.03l-1-.61,1.22-1.02-.61-.3.41-.51-.41-.19.61-1.12-.81-.1c.26-.46.41-.77,1.01-.71-.74-.72-.09-.77,0-1.33.05-.29-.14-.6-.12-.8.05-.34.39-.52.32-.9l-.81.1c-.02-.61.68-.9.78-1.26s-.27-1.76-.08-2.08c.18-.3.6-.33.68-.51s0-2.23.05-2.61c.12-.79.41-1.51.6-2.26l-.41.1.41-.51-.41-.3c.29-.03.78-.48.94-.68.23-.3,1.11-2.42,1.1-2.67,0-.11-.26-.08-.28-.11-.35-.43-.08-.5.27-.2-.04-.81.26-1.19.49-1.81.05-.15-.08-.41.02-.62.29-.58,1.17-.47.7-1.03.81.16.56-.32.81-.68.21-.3.83.05,0-.95,1.09-.34,1.3-.39,1.41-1.52l1.21-.34.02-.57,1.73.39c.7.38.55,1.05.77,1.38ZM179.57,21.08c-.16-.24-.08-.68-.47-.75-.17.25-.02.81-.05.91-.01.05-.25.59-.34.83-.26.66-.79.42-.84.61-.09.35.13.95-.02,1.38-.09.26-.46.26-.58.49-.24.45.16,1.32-.81,1.77.67.24.56,2.1-.41,2.03l.61.71-.61.2.61.1c-.08.45-.77.94-.85,1.21-.19.61.27.87.11,1.28-.06.16-.34.5-.54,1-.03.07-.34.08-.35.18-.06.78.84.69.82.79l-.61.51.4.2-.39.29c.5.79.53,2.44-.62,2.35.73.72.11.99-.06,1.63-.25.95.41,1.13.42,1.31,0,.09-.25.28-.3.47-.18.74-.26.97-.38,1.69-.16.97-.2,1.97-.44,2.93l.96.39c-.54.83-.29,2.61-.64,3.42-.16.37-.55.31-.57.34-.06.07.29.34.36.56.17.54.45.94.46,1,.26,1.28-1.02,2.35-.17,3.99.14.27.48.29.54.44.09.22-.2,1.01-.58,1.01.7.62.34,1.19.43,1.81.21,1.46.49,3.52.83,4.84.15.6,1.02,1.39.57,2.19l1.01-.2c-.12.53-.39,1.38.22,1.54-.33.48.38,1.53.81,1.96.41.41.64.74,1,1.09.29.29.71-.08.62.47h.3c.04-.68.63-.75,1.03-1.21-.54-.89-.03-.5.22-.88.41-.61,1.38-1.6,1.55-2.01.12-.3,0-.82.35-1.17l-.61-.1.83-2.11.8-.02v-.68s-.41-.23-.41-.23c.15-.24.4-.48.5-.73.13-.31.15-1.16.22-1.41.03-.11.6-.88.69-1.11-1.14-.16-.62-.84,0-1.32h-.61c-.07-.06.52-1.17.52-1.33.02-.45-.35-1.05.3-1.81-.73-.19-.23-.51-.32-.81-.12-.45-.43-.92-.46-1.45l.54-.31-.19-.47.41-.22-.61-.1c.18-1.01.52-2.01.19-3.03l-.79-.02.62-1.52c0-.14-.37-.07-.38-.19-.16-1.77-.1-4.75-.68-6.51-.04-.11-.38-.09-.37-.19l.39-.83-.57-.32.19-.47c-.79-.25.25-1.02-.81-1.14l.4-.4h-.4s.81-1.01.81-1.01c-.72.11-.08-.98-.3-1.64-.16-.5-.62-.48-.65-.68-.04-.27.18-.97.09-1.44-.01-.06-.55-.53-.55-1.01,0-.34.47-.59.4-.7-.01-.02-.28.05-.41-.14-.25-.35,0-.83-.8-.68.48-.77.57-1.77.4-2.63l-.4.4c-.16-.83.14-1.81-.59-2.33l.38-.5c-.73.04-.36-.6-.47-.88-.21-.57-.59-1.19-.89-1.62Z"/><path d="M108.81,15.92l.13.36.2-.41.71,1.01.3-.4c.41.33,1.29.48,1.64.8.92.84.12,2.16,1.01,2.85l.5-.41-.18,1.51.79.34c-.04.93-1,1.37-.38,2.3.18.27.7.42.73.62s-.25.66-.24,1.04c.01,1.13.43,2.18.66,3.3.18.85-.54,1.32,1.06,1.46.08.11-.54.95-.53,1.11,0,.25.7.98.17,1.63l.27.3.7-.2c.12.77-.17,1.25-.61,1.82l.59.02c.08.68.15.89-.59.8.09.35.04.7.07,1.05.07.77.63,2.28.95,3.06.07.17.4.12.4.25,0,.41-.48.51-.58.86-.12.44.17.99-.03,1.47l.62.11-.02.77c-.73.27-.33,1.75.41,1.66-.55.13-.22.34-.39.61-.37.59-.74.26-.33,1.27.02.05.32.05.32.17.01.27-.46,1.06-.42,1.1h.61s-.23.99-.23.99l-.58.03.37.22-.17,2.21.41-.1-.61,1.52.61.2c-.48-.02-.32.71-1.01.91.72.54.67,1.68.17,2.42-.16.24-.58.3-.6.45-.05.33.26.62.33.89.1.4-.32.54.3.7l-.61.41.8.4-.39,1.04-.62-.12v.61s.61.1.61.1c-.14.35-.57.65-.71.93-.1.2.09.45.04.55-.04.09-.69.76-.75,1.16l.59.11c.34,1.11-.35.92-.69,1.4-.26.37-.44,1.25-.58,1.58-.04.09-.57-.05-.15.65l-.39.21.4.2c-.49-.11-.34.43-.46.55-.32.31-2.24.96-1.77,1.69l-.59.02c.22.86-1.5,1.6-2.25,1.61l.4.3c-.42.5-.94.8-1.62.71l-.11-.61c-.45,1.06-1.9.58-2.64,1.39l-.7-.58c.07.51-.59.7-.92.57-.16-.07.03-.54-.5-.36l-.2.4c-.1-.84-1.12-.88-1.43-1.31-.42-.6-.8-2.53-1.62-2.14.1-.2.01-.68.06-.78.05-.09.43.09.34-.24l-.42-.13c-.07-.64-.2-2.38-.41-2.95-.1-.26-.78-.57-.86-.83-.03-.12-.33-1.6-.34-1.69-.06-.74.96-1.55-.21-1.72.66-.64,0-.99.03-1.27.03-.2.36-.38.38-.84.04-.94-.74-2.8-.82-3.88l.39-.17c-.24-.52-.09-.86-.81-.73.4-.58.25-1.03,1.03-1.12.13-.73-.47-1.87-.2-2.37.12-.23.55-.11.4-.67-.02-.09-.34-.08-.38-.2s.09-2.27.17-2.4c.09-.15.42-.13.41-.23-.02-.16-.29-.45-.31-.7s.3-.43.28-.69c-.02-.32-.46-.75-.47-1.25s.44-1.8.7-2.25v-.29s-.39,0-.39,0l.25-.21.16-.5-.81-.31.41-.81-.4-.2c.59.02.56-.8,1-1.13l-.41-.41c.47-.85-.33-1.71.62-2.01-.53-.33-.21-.69-.25-1.05-.03-.26-.3-.45-.26-.68.07-.47.87-1.13.84-1.71-.02-.35-.45-.69-.45-1.01,0-.29.62-1.84,1.14-1.73l-.37-1.11c.8-.46,1.43-2.49.37-2.84.99-.3.78-2,.86-2.1.31-.42.28.12.5-.85.03-.14.24-.23.26-.3.07-.18-.29-.03-.36-.19-.43-.99,1.15-1.65,1.18-1.87.04-.33-.21-.71-.17-.85.02-.06.69-.46.91-.81.34-.53.85-2.39.95-2.48.27-.2.69-.15.92-.31.85-.56,1.42-1.29,2.65-1.43.47-.06.7.42,1.2.17ZM108.23,21.14l-.71-1c-1.16.36-.67,1.52-1.53,2.12l.4.3c-.54-.08-.23.26-.33.41s-.39.13-.47.36c-.34.93-.33,2.47-1.02,3.4l.41.2c-.36.33-.9.89-.82,1.4.02.13.34.11.38.22.14.38-.94,1.35-.57,1.72.1.1.68-.19.61.2-.7-.11-.11.38-.28.62l-.73.2c-.09.34.33.11.38.3.02.07-.17.52-.15.62.03.12.31.08.34.2.2.72-1.56,1.7-.59,2.83l-.6.32c.6.46.76,2.36,0,2.43.79.78-.21,1.8-.41,2.74l.81.2c-.71.33-.51,1.53-.76,2.25l.56.39-.61.1c-.07.31.27.16.4.34.58.83-.6.66-.4,1.68l.81-.1c-.72.15-.13.34-.23.77-.06.26-.46.4-.55.69-.15.54.44,1.78-.24,2.19l.61.1c.08.67-.03,1.22-.81.81-.21.49.53.8.55.85.13.27-.43.96.26,1.07l-.81,1.02,1.01.41c-.86.96.05,2.56-1.03,3.08.28.86.49,1.55.03,2.42l.39.39c-.79.47-.72,2.1-.36,2.81.25.5.77.05.36,1.15h.81c-.2.81-.34.82-1.01,1.12l.61,1.93c1.35-.67.9.75,1.05.97.07.1.39.13.44.24.13.29.14.88.33,1.22.21.2,1.21-.89,1.35-.97.33-.18,1.32-.38,1.44-.5.12-.12.14-.7.45-1.07.67-.81,2.64-.97,1.63-2.32l.81-.51-.41-.2c.5-.24.21-1.04.24-1.09.12-.19,1.45-.57.86-1.25l-.69-.1,1.02-1.03-.72-1.74.91-1.08c-1.3-.65.24-1.15.32-2.12.03-.38-.53-.48-.54-1.12-.01-.8,1.5-2.86.03-3.44.46-.63.23-1.64.42-2.22.11-.33.66-.24.69-.83.05-.78-.64-.17-.86-.82l.55-1.73-.61-.1.81-1.62-.61-.2c.11-.61.23-.74.81-1.01-.56-.37-.87-.23-.98-1.02l.78-.4-1.22-.71.4-.2-.41-.3,1.01-1.32h-1.02s.62-1.32.62-1.32l-.4-.19.19-.72h-.61c.16-.92-.31-1.16.41-2.12-1.16-.54-.39-.93-.25-1.69.28-1.54-2.25-3.02-.96-4.71-.34.17-.92.09-1.01-.31-.14-.57.83-.32.81-.7-.84-.01-.57-.78-.68-.97-.07-.12-.56-.27-.64-.85-.06-.39.79-1.82-.51-1.64l.41-1.21h-.81s.41-.21.41-.21Z"/><path d="M198.74,18.86c-.84,1.52.17,7.19.38,9.19.05.43-.18,1.54-.12,1.91.02.16.41.09.41.22,0,.31-.42.5-.43,1,0,.56.49,1.38.42,2.04l.4-.1-.41,1.01.61.1c-1.21.9-1.37,1.37,0,2.23l-.81.91h.81s-.82,2.15-.82,2.15c.6.62.61,1.14.62,2.01.02,1.15-.67,3.24-.59,3.86.02.11.31.07.34.2.1.43-.42,1.3-.57,1.73l.81-.2-.02,1.41-.58.02v1.22s.52,0,.52,0c.22.88-.59,1.5-.69,2.35l.38.2-.41.2c.59.19.88,1.26.78,1.83-.02.1-.28.08-.31.14-.04.09.13.28.09.33-.1.11-.44-.11-.36.23h.61c.07.05-.5,1.16-.54,1.36-.28,1.27-.04,3.23-.21,4.68-.03.28.03.56-.04.83l.78.33-.78.8c0,.83.78,1.18.8,1.27.07.32-.21.79-.01,1.36.26.74,1.07,1.08.41,2.14l.82.21c-.61.83.35,1.31,0,2.03,1.16-.34.63.75,1.36.98,1.49.47,1.03-.5,1.13-.74.02-.04.27-.07.35-.19.72-1.21.92-.58,1.52-1.29.36-.42.44-1.13.93-1.51l-.4-.4c.57-.3.17-1,.33-1.33.32-.67,1.2-.51.57-1.62l.72-.4c.16-.57-.41-.25-.43-.7-.02-.59.28-.98.39-1.49.07-.31-.13-.61-.1-.77.03-.22.48-.23.62-.55.16-.38-.06-1.03.04-1.46.16-.69.58-1.2.66-2.1.06-.64.08-2.72-.57-2.98.34-.44.92-2.07.2-2.23.3-.82.33-1.64.61-2.64.04-.15-.32-.06-.36-.19-.25-.79.37-1.44.37-1.83,0-.11-.31-.09-.36-.21-.53-1.4.38-1.56.52-2.48.07-.51-.38-.8-.37-1.17,0-.24.41-.76.51-1.21.13-.58-.28-1.58-.25-1.83.03-.21.42-.35.49-.63.18-.73-.34-2.09-.57-2.81l.63-.61c-.94-.34-1.1-1.7,0-1.83-.64-1.05-.22-1.82-.22-2.82,0-.31-.29-.57-.3-.83-.06-.86.9-1.37-.49-2.03l.81-.85c-.64-1.5-.14-2.74.15-4.19.16-.77.26-.77.4-1.28.09-.33-.33-1.31.47-1.29l-.61-.3c.52-1.11,1.2-2.17,2.56-2.27,1.59-.12,1.19.41,1.64,1.31.08.16.65.73.67.79.21.76-.38.66-.41.82-.04.19.14,2.02.21,2.09l.4-.21-.19,1.49-.59.15-.44,2.21h.81c-.06.2-.81.89-.81.95-.06.45.42,1.14.39,1.6-.02.36-.52,1.51-.53,1.98-.01.66.86.79.35,1.81-.12.24-.48.03-.41.35l.81.51-1.02.31c.37.49,0,.98.08,1.44.07.37.78.38.45,1.15-.02.04-.4.1-.45.43-.07.49.69,1.39.31,2.3-.07.15-.36.15-.39.29-.07.46.09,1.43.52,1.69l-.34,1.12.44.4c.01.86-.59.92-.62,1.06-.08.32-.07,1.49-.21,2.21-.01.08.37.04.47.53.12.61-.36,1.97-.23,2.31.05.15.6-.06.14.75-.1.17-.39.19-.39.28,0,.49.85,1.19.02,2.02l.79.33c-.05.68-.29.91-1,.99-.08.1.52,1.27.42,1.68-.06.25-.53.21-.57.43-.01.09-.08,1.73-.06,1.82.02.14.34.11.38.23.08.22-.64,1.64-.73,2.08-.09.41.09.71.06.97-.03.24-.76,1.16,0,1.12.33-.02.8-.44.71.09-.05.82-1.06,1.01-1.17,1.16-.27.36-.33,1.65.16,1.98-.7.02-.86.76-.82,1.33.03.52.45.12.41.5-.55-.09-.23.3-.32.41-.21.26-1.14.31-.08.7l-.41.92-.8-.2.4.3-1.01.91.39.09c-.24.41-.2.94-.49,1.34-.21.28-.62.35-.68.44-.04.05.17.28.13.33-.4.57-1.82,1.27-2.33,1.73-.23.21-1.23,1.69-1.33,1.72-.19.07-.39-.18-.54-.13-.04.01-.01.28-.12.32-.49.17-1.69.02-1.53,1.06-.45-.19-.98-.45-1.02-1.02-.57-.05-.29,1-.7.81-.1-.05-.86-.62-.94-.7-.15-.18.17-.7-.53-.67-.45.02-.52.45-.87.57-.23-.46-.02-.98-.04-1.33,0-.12-.34-.07-.38-.23-.09-.43.51-1.23-.6-1.08l.19-.78c-1.18-.23-.49-1.09-.82-1.71-.17-.32-.29-.4-.54-.88-.29-.57-.6-1.15-1.04-1.62l.39-.58c-.33-.09-1.23-1.34-1.18-1.64.04-.21.53-.2.58-.43.05-.22-.17-2.42-.22-2.76-.21-1.28-.35-2.37-.37-3.91-.01-.57.48-.8-.24-1l.41-1.31h-.61c.67-.79.16-1.66.24-2.3.04-.34.45-.69.48-.95.04-.28-.33-.43-.29-.68.03-.19.37-.33.38-.64,0-.14-.45.07-.44-.6.01-.94.94-1.13-.19-1.64.63-.84.15-.98.09-1.51-.07-.61.56-.78-.48-.91.48-.22.53-.99,1.02-1.42l-.81-.31c.22-.54.09-.96.82-.81l-.21-1.82c-1.58.53-.02-.86,0-.94.03-.11.03-2.23-.41-2l.43-1.01-.42-.2c.51-1.1.33-2.52.22-3.68,0-.07.81-.18.29-1.12-1.01-.08-1.14-1.13.09-1.09l-1.02-.2.34-.14.11-.75.56-.03v-2.03s-.81-.1-.81-.1c1.51-1.6.21-1.97.2-3.24,0-.98.73-2.25.73-3.46,0-.32-.38-.65-.12-1.1l-.61-.1c.41-.66.98-.78,1.01-1.65.02-.58-.29-.76-.3-1.1-.01-.58.46-1.27.44-1.71-.01-.33-.32-.57-.32-.61,0-.11,1.47-1.35,1.62-1.43.43-.22,1.18.77,1.31,1.14.05.13.52,2.45.46,2.57Z"/><path d="M12.54,12.28c.09.14.05.37.05.54.38.05.5-.28.87-.36.43-.09.91.35,1.26.35.85-.01.43-.18,1.63,0,.6.09,1.25-.29,1.41.42l.4-.61.82.57.81-.57c.47,1.06,1.47.75,2.42,1.02l.32-.41.31.61.3-.4.92,1.62.5-.61.42.54-.22.68c.73.07,1.19.31,1.83-.2l.21,1.42.2-.61c1.01.4,1.41.63,1.22,1.83.41-.22,1.09-.09,1.42.21.23.2-.72.13-.4.61l.61-.2c.19.33.12,1.22.24,1.39.1.15.81.08.82.59l.37-.16c-.08,1.04.81,1.84.41,2.84l.41-.1c-.45,1.08.8,1.64.97,2.03.45,1,.24,3.16.13,4.26-.05.46.45.82-.29,1.01l.59.12c.49,1.5-.9,2.86-.99,4.18-.03.48,0,.38.4.57l-.61.82.41.2v.39c-.44.74-1.01.21-1.22.32-.02,0,.13.23.06.4-.14.33-.35.6-.43.98-.14.66.46.83-.64,1.37l.4.3c-.71.67-1.38-.11-1.65.99l-.37-.18.39,1c-.68.25-.96,1.16-1.82.62v1.22c-.52.07-1.22-.12-1.7.03-.28.09-.27.51-.58.64-.63.28-2.35.31-1.98,1.35-.45-.05-1.1.12-1.5-.03-.3-.11-.28-.57-.42-.57-.61-.01-1.31,1.39-2.45.38l-.19.4c-.43-.4-2.66.06-2.87-.04-.25-.12-.54-.81-1.31-.75.31.71-.42.86-.42.92.02.3.33.44.36.64.07.37-.37,1,.06,1.49l-.78.23.17,2.2.61-.2c-.17.86-.89,1.85.2,2.33-.44.84-1.94,2.32-.61,2.85-.5,1.21-.69,2.48-.28,3.75.08.25.68.49.48,1.01h-.61c-.09.34.34.09.4.33.25,1.06-.56,1.87-.58,2.84-.02.72.02,1.46,0,2.2-.01.57.48,1.05-.23,1.22l.41.41-.41.2c.89.21-.26,1.6.58,1.82l-.38,2.33,1.02.31c-.15.12-.23.11-.38.28-.47.54-.44.73-.75,1.24-.18.3-.91.13-.3,1.22-.68.15-1.35.16-2.02-.12-.15-.06-1.69-1.39-1.74-1.49-.1-.17.21-.88.11-1.29-.06-.26-1.43-.53-.02-1.25,0-.52-.59-.79-.59-.84-.04-.76.99-1.79-.2-1.8-.02-.57.47-.62.54-.75.08-.14.05-1.41.46-1.69.05-.26-.7.17-.6-.4.09-.52.7-.41.61-.81l-.81-.1.4-.81-.42-.11c.1-.53.25-.81.83-.7-.7-.7-.05-1.23-.06-1.68,0-.18-.11-1.74-.14-1.83-.04-.15-.78-.35-.58-.85.04-.11.33-.07.36-.24.11-.6-.1-1.49,0-2.09h-.61c.2-.66.24-1,1.02-1.02-.22-1.3-.51-2.62-.19-3.93l-.43-.22c.63-.13.25-.83.33-1.34.19-1.24.72-2.09-.25-3.12l.74-1.02c-.91-.24-.05-1.53-.2-2.19-.08-.38-.36.29-.21-1.26.04-.45-.5-.75.39-.93l-.39-.9.42-.21c-.41-.7-.02-2-.6-2.2l.18-.93.4.2.41-1.22h-1.02c.13-.49.22-1,.43-1.47.07-.16,1.05-.67-.02-.77l.81-.91c-1.28-.86-.02-.92.02-1.42.02-.33-.25-.52-.29-.72-.19-.86-.1-.33-.34-.74-.35-.6.51-2.91.43-4.03-.02-.27-.65-.39-.23-1.31h-.61c.75-.82.31-.96.31-1.52,0-.71.08-1.43.1-2.14l-.81.2c-.05-.49.82-1.06.83-1.14.04-.4-.31-.68-.34-1-.03-.29.42-.97.48-1.26.09-.44-.43-.75.25-.66v-.2c-.58.1-.45-.63-.66-.78-.15-.11-.49,0-.56-.04-.04-.03.05-.84.06-.88.07-.25,1.02-1.1,1.37-.94l-.17-.58.37-.12-.4-.61.81-.3-.21-.61c.45-.33,1.55.11,1.78.47ZM14.16,16.75c-.19-.11-.36-.07-.55-.07-.23.57-.04,1.12-.07,1.69-.08,1.27-.15,1.6.29,3.03.06.19.31.15.35.26.08.67-.42.62-.67.91-.41.46.27.37.31.54.15.61-.37,2.01.61,2.1l-.4.2c.63.55.12,1.39.2,1.9.02.15.34.11.37.23.1.38-.43,1.12.25,1.21l-.71,1.76.91.68c-.25.68-.91,1.56-1.01,2.25-.07.52.1,2.22.6,2.44l-.18.47.39.11c-.46,0-1.12,2.44-1.02,2.54h1.02c-.32.99-.97,1.67-1.02,2.84.61.27,1.04-.56,1.15-.59.67-.17,3.59.52,3.73.39v-.81c.34-.08.1.26.3.36.42.22.56-.35.6-.35.57.05,1.16.44,1.94.26.61-.15,1.12-.75,1.26-.82.07-.04.93.09,1.18-.06-.55-1.22,1.34-.95,1.95-1.61.29-.31.1-1.08.47-1.5.17-.19.46-.07.63-.26s.87-2.12,1.06-2.45c.06-.11.37-.13.51-.4.19-.38.13-.94.06-1.35l-.62-.13.34-.23c-.08-.52.58-1.48,1.08-1.59l-.41-.3c.7-.96.26-1.02-.23-1.89l-.37.17c.47-1.27-.67-1.84,0-2.92l-1.03-.54c.59-1.05-1.26-1.36-.62-2.62l-.79-.24.19-.79c-.83.16-.49-.33-.65-.55-.05-.07-.81-.75-1.1-1.05-.92-.97-1.31-1.09-2.66-1.41-.24-.06-.55.17-.63.13-.1-.05-1.19-1.31-1.76-1.38l-.1.4c-.89-.1-1.4.19-2.32-.21l-.22.42c-.82-.8-1.52-.64-2.41-.82-.15-.03-.15-.32-.19-.33Z"/><path d="M156.69,12.91c.12.08-.04.41.27.32-.24-.62,1.75-.54,1.85-.5.26.12.45.99,1.08.92l.52-.62c-.07.76.87.69,1.04.94.19.27-.07.73,0,.84.2.27,1.52,1.07,1.62,1.2.23.32-.01,1.5.17,1.95.11.26.67.13.91.54.07.12-.03.51.05.77.32,1.05.69,3.31.09,3.99.26.48.27.98,0,1.45l.39.18c-1.12.49-1.26,2.22-2.54,2.15-1.61-.09-.74-2.19-.94-2.92-.24-.87-.54-1.71-.74-2.74-.12-.62.01-1.93-1.03-1.88l-.03-1.4c-.74.56-.97-.27-1.31-.33-.3-.05-1.01.26-1.42.14l-.11-.62c-.44.4-1.11-.06-1.42.09-.41.19-.33.8-.53,1.11-.27.43-1.21.8-1.26.87-.35.47.27,1.75-.85,1.69l.81.61c-.17.71-1.08.71-1.18,1.03-.04.13.14.4.1.56-.09.37-.33.6-.34,1.04-.01.68.5,1.55.54,2.04.04.59-.69.33-.53.91l.61.1-.38.12c.69,1.41-.24,2.28-.23,3.63l.61.1c-.14.22-.4-.06-.4.38,0,.31-.03,1.27,0,1.4.02.15,1.75,2.42,1.88,2.5s.48-.13.87.29.14,1.34.35,1.58c.06.07.37,0,.49.1.46.37,1.23.71,1.27.78.1.16-.03.59.06.85s1.3,1.1,1.35,1.18c.03.05-.05.37.33,1.01.11.19.09.53.13.58.05.05.69-.34,1.22.31.26.32-.02.93.12,1.27.13.31.48.3.57.46.35.63-.35.98,1.12.81l-.4.3c.38.63.54,1.43.84,2.17.07.19.32.19.42.45.23.64-.16,1.3.47,1.74l.51-.4c.14.78.2,2.23.44,2.91.11.29.45.27.53.37.04.05-.18.85.04,1.22.14.24.49.24.58.5.03.1.09,1.61.13,1.99.1.92-.66,1.69,1.12,1.53.1.07-.97,1.68-1.01,2.14-.05.67.45,1.62.42,2.43-.02.52-.32.8-.33,1.13-.02.65.45,1.38.44,2.11,0,.45-.35,1.43-.45,1.93s-.11,1.11-.22,1.58c-.12.51-.61,1.28-.89,1.77l.6.5c-.59.19-.43.69-1.21.21l-.02,1h-.8s.38.76.38.76c.07.38-1.2,1.02-1.55,1.05-.42.04-.56-.27-.76-.3-.43-.06-.52.51-.59.51-.5-.04-1.43.01-1.9.27-.1.05-.1.38-.33.48-.19.09-.95,0-1.24.08l.1.4-.71-.4-.23.42c-.71-.2-1.53-.27-1.71.59h-.2c.21-.56-1.29-.62-1.53-.57-.13.02-.08.31-.2.34-.09.03-1.85-.24-1.93-.17l.21.4c-.46.59-2.5-1.47-3.17-1.6l-.28-.02-.31.81-.92-2.03-.9.2-.23-.2c.19-.83-.17-.83-.45-1.37-.11-.21-.22-.83-.26-.86-.07-.05-.37.14-.49.11-.6-.17-.84-.94.1-.72l-.42-.5c-.12-.5.54-.77.61-1.06.1-.39-.52-.75-.18-1.28h1.63s-.21-.4-.21-.4c.34.04.76-.08,1.07,0,.47.12,1.85,2.83,2.72,2.99l.68-.14.04.76c.48.45,1.19.19,1.46.26.14.04.23,1.03.65-.02l.89.22v-.61c.44-.07,1.08.39,1.32.4.32,0,.56-.32.81-.32.22,0,.97.52,1.53.12l-.2-.81,1.83.6c-.09-1.53.53-.74,1.09-.8.06,0,.27-.72.94-.42l-.39-.69c.57-.64.56-1.99,1.41-2.16v-.2c-.7.05-.34-1,.41-.82l-.2-.51-.61.11c-.08-.1.15-1.29.24-1.49.19-.39,1.34-.54-.04-.85l.61-.3h-.81c.3-.76.59-1.54.19-2.33l.42-.2c-.61-.96-.25-2.41-.4-3.45-.08-.57-.86-.66-.41-1.33l-.61.2-.18-.92.38-.1v-.4s-.41-.12-.41-.12c.3-.77.13-2.8-1.01-2.73.51-.69-.21-1.17-.01-1.81l-1.21-.22.18-.57-.75-.75c0-.29.88-.29.23-1.26-.42-.62-.75-.81-1.25-1.1-.05-.03.01-.81-.35-1.19-.22-.23-.6-.16-.67-.24-.12-.14.05-.56-.06-.74-.21-.35-1.2.23-.58-1.25h-1.21c0-.7-.65-1.16-.21-1.83-.51-.09-.99.06-1.02-.61l-.4.4c.07-.56-.56-.45-.81-.71-.33-.33-.15-1.04-1.01-.93.5-1.07-.58-1.28-.9-2.04-.26-.6.04-1.93-.83-1.8l-.09-1.43h-.81s.42-.91.42-.91l-.42-.31c1.61-.82.29-1.09.23-1.33-.13-.5.64-1.57-.44-1.31-.09-.59.5-.98.56-1.11s-.49-2.04-.28-2.8c.1-.38.49-.75.74-1.05l-.41-.4c.93-.48.09-1.24.81-1.42l-.39-.11.18-.57-.6-.33c.6-.3.46-.89.67-1.26.24-.44,1.54-2.07,1.57-2.22.05-.29-.19-.59-.09-.89.03-.09,1-1.42,1.09-1.52.25-.29.68-.2.62-.5l-.61-.31.23-.48c.94.25,1.99-.67,2.55-.8.68-.15,1.56-.21,2.34-.46.28-.09-.03-.74.89-.11Z"/><path d="M61.32,14.85l.3-.41,1.62.64c.44.85.48,1.6,1.52,1.91-.91,1.86-1.77,1.89-3.56,2.34l-.3-.1c-.19-.78-.76-.33-1.42-.51l.2.81-.3-.4c-.36.56-.95.04-1.47.46-.63.52-2.64,4.26-1.27,4.72l-.21.7.4.1c-.22.78-1.26.77-1.01,1.6.06.2.65,0,.2.63h.41s-.61.91-.61.91h.61c-.17.63-.41.87-.24,1.55s.45,1.59,1.26,1.3c-.27.61-.45,1.18-.2,1.83l.61-.21c-.16.69.38,1.1.5,1.44.21.6-.05,1.88.92.59.13.07.8,1.55.89,1.63.39.37.96.44,1.34.97.26.36.28.86.5,1.05.32.29,1.07.44,1.25.82.1.22-.11.5-.07.57.1.16.83.21.57,1.05.55-.55,1.45,1.79,1.54,2.23.18.82.04,1.69.35,2.67s1.17,1.44,1.04,2.61h.72s-.14.37-.14.37c.79.2-.21,1.08,0,1.53.24.52,1.55.74-.05,1.24.97.33.56.95.63,1.08.07.11.54.16.59.35s-.72.9-.2,1.52l.81-.2c-.11.37-.42.98-.39,1.33.02.29.37.47.34.77-.04.36-.4,1.29-.57,1.66l.59.4c-.09.96-.63.61-.78.73-.07.05.17,1.46.14,1.69-.11.77-.76,2.47-.91,3.32-.18,1.07.33,2.15-.86,3.2l.81.5c-.18,0-.36.1-.5.21-.55.44-2.85,2.17-1.53,2.44v.2c-.69-.21-.69.62-1.21.73-.23.05-.38-.24-.55-.26-.58-.09-.62.43-.72.49-.06.04-.25-.11-.3-.07-.53.45-.27.67-.3.7-.91,1-1.21.3-1.68.32-.4,0-.74.72-.86.74-.36.07-1.41-.17-1.79-.1-.34.06-1.9.86-2.03.86l-.91-.76-.02.59c-.77.37-.9-.51-1.09-.54-.22-.03-.52.27-.89.1-.09-.04-1.22-1.07-1.41-1.24-.09-.09,0-.4-.19-.56-.14-.11-1.02-.09-1.09-.18-.01-.02.2-.25.14-.35-.32-.56-.89-.84-1.06-1.68-.08-.41.08-.68.02-1.02s-.5-1.16-.48-1.32.43-.25.57-.45c.34-.46.64-1.66,1.12-1.67.09,0,.07.37.23.4,1.17.26.47.14,1.26.56.72.38,2.32.25,1.25,1.68l.79-.19c.32.47.46,1.85,1.02,1.92.44.06.58-.33.83-.39.55-.13,1.85-.2,2.34-.38.11-.04.37-.62.86-.72.19-.04,1.6,0,1.65-.06l1.04-1.72-.4-.3c.6.03.49-.7.9-1.03.22-.18.66-.1.73-.32.1-.34,0-1.04.11-1.52.08-.33.41-.52.5-1.08.04-.28.05-1.15,0-1.4s-.5,0-.41-.33l.42-.12c-.5-.87.23-.6.3-1.08.03-.26-.28-.43-.29-.71-.01-.57.48-1.47-.24-1.63.98-.91-.12-1.3-.18-1.65-.04-.25.45-.53.4-.98,0-.05-.16,0-.3-.72-.28-1.4-.45-1.46-.94-2.52-.61-1.31.32-3.97-1.61-3.98-.24-.87.22-.84.4-1.31l-.58-.13c-.27-.51.09-1.23-.05-1.67-.05-.17-2.15-2.21-2.46-2.49-.14-.12-.34-.05-.89-.67-.12-.14-.41-.19-.45-.26-.16-.28.23-.74.19-1.04-.02-.15-.71-.32-.63-.74l-.3.4-.61-1.01-.7.41v-1.42s-.81.2-.81.2c.04-1.03-.23-2.38-1.41-2.44-.18-.19,1.01-2.62-.62-2.43v-.2c.56.19.32-.97.23-1.33-.09-.32-.36-.33-.37-.36-.21-.87-.1-1.95-.08-2.85l-.8-.34c.19-.73.63-1.24,0-1.93.77-.34.4-.44.6-1.11l-.61-.1c.77-1.08,1.4-1.89,1.57-3.31.08-.64-.54-.62.66-.87-.31-.81-.21-1.3.51-1.81l.3.4,1.12-2.43.91.21v-.61s.72,0,.72,0l.1-1.01c.58.09.94.03,1.31.6l.3-.53.61.12v-.81c.91-.1,1.57.51,2.23,1.01Z"/><path d="M86.91,15.26l-.2.61.51-.4c.38.33.89.76,1.37.89.4.1.74-.11.76-.08.04.06-.07.41.04.56.13.18.58.12.73.3.13.16.41,1.44.65,1.78-.89-.12-.75.78-1.11.95-.24.12-1.22-.23-1.33-.14l.2.61c-.75,0-1.24,0-1.32-.81-.79.48-1.19.07-1.93.21l.2.61c-.61.18-1.39-.25-1.78-.07-.34.16-.22.46-.38.65-.75.92-.28.4-.54,1.18-.1.31-.94.42-.95.56.25.54.43,1.05-.22,1.22l.4.5c-.56-.05-.53.6-.75.97-.18.31-.89,1.11-1,1.31-.07.13,0,.54-.28.76l.41.2-.41.11v.3s.41,0,.41,0l-.36.23s.14.34.05.56c-.19.48-1.29,2.25-1.32,2.39-.06.34.14.66.22.97l-.42.31c.73-.14.8.4.81,1.02l-.62.13c-.28.71-.14,1.53-.23,2.15-.04.29-.4.59-.38.86,0,.06.65.54.65.81,0,.45-.41.74-.45,1.22-.06.78.33,2.51.23,3.24-.07.45-.55.65-.56.82-.01.22.59.76.2,1.3l.35.03-.36.91.57.6-.6,2.75.4-.21-.41,1.83h.61c-.11.31-.33.6-.34.94-.06,1.12.55,2.87.68,4.06.02.21-.2.63-.14.68h.81c-.43.89-.77,1.14-.37,2.2l.57.03c-.45.53-.48,2.11-.2,2.69.25.53,1.61-.12.86,1.74.48.71,1.19-.09.81.6l.37.17-.22,1.7h.82s.2,1.43.2,1.43l.61-.21c.14.94.92,1.68,1.93,1.83l.21-.2c-.21-1.09,1.58-.3,2.23-.31.22,0,1.23-.21,1.38-.29.25-.14.09-.6.44-.77.09-.04,1.58.39,1.94.27.22.6,1.36,1.25,1.01,1.7l.62.1-.03.69-.59.02.21.49c-.66.23-.19.4-.28.72-.12.4-.42.74-.34,1.22-.42-.11-.96-.12-1.38-.07-1.17.14-1.56.29-2.4.67-.76.34-1.49.03-2.3.21l.1.61c-.84-.19-1.18-.85-1.93-1.11-.33-.11-1.84-.65-1.95-.67-.29-.06-.73.28-1.16.14-.31-.1-.34-.56-.55-.69-.18-.12-.5.08-.61,0-.25-.17-.59-1.55-.39-1.93l-.82.11c-.48-.54-.44-.8,0-1.32-.59-.01-.48-.91-1.22-.41-.12-.12-.22-2.14-.3-2.45-.09-.4-.48-.36-.52-.53-.24-1.12-.48-1.7-.69-2.53-.14-.56.23-1.52-.34-1.89-.28-.18-.87.03-.6-.61.09-.21.54-.26.59-.33.04-.05-.3-1.08-.38-1.26-.07-.15-.42-.11-.41-.23.02-.16.28-.44.31-.7.05-.42-.57-.89-.11-1.44l-.81-.21c.27-.46.24-.79-.2-1.11l.41-.2-.39-.19.19-.72-.81-.21c.18-.6.45-.74,1.01-.91-.33-.14-.33-.77-.46-.87-.15-.12-.48,0-.55-.05-.05-.03.06-1.16.08-1.23.1-.41.54-.3.55-.69.03-.81-.97-1.87-.44-2.61.16-.22.57,0,.42-.54l-.56-.04c-.45-.56.1-.95.23-1.38.07-.23-.11-.51-.05-.68.09-.26.71-.32.58-1.14h-.61c.79-1.36.17-2.87.25-4.11.04-.57.37-1.88.47-2.68.03-.24.27-.45.3-.82.06-.73-.78.29-.61-.41.07-.31.62-1.99.75-2.29.11-.26.41-.26.42-.28.27-.63-.66-2.41-.26-3.02.09-.14.44-.12.5-.33.06-.24-.09-1.36-.2-1.69h.61s-.19-1-.19-1c1.24-.08.78-1.23,1.01-2.1.04-.15.3-.16.33-.2.06-.12-.31-.36.47-.66l-.81-.3c.58.09.13-.33.51-.59s.69-.31.88-.79c.1-.24.22-.48.23-.75.01-.17-.65.31-.41-.2.3-.62,1.13-.45,1.2-.53.07-.08-.04-.49.07-.74.04-.1.99-1.16,1.06-1.28.17-.28-.3-.83.65-.95,1.18-.15.34-.09,1.02-.42.11-.05,2.12-.61,2.23-.61.25,0,.97.48,1.47.35l.02-.58,1.41-.02Z"/><path d="M42.17,21.41c.11.13.19.27.19.44l-.74,1.22c1.26.5.02,1.9.19,2.83l.61.21c-.1.74-.27.84-.81,1.32,1.09.14.14,2.73.34,3.2.56.58.89-.13.36,1.08l-.5-.02c-.12.56.18.4.61.41.08.45-.64,1.08-.6,1.29.05.23.59.41.6.83,0,.33-.93,2.11-.8,2.61.07.26,1.31.92.01,1.45-.01.13.5,1.48.5,1.64,0,.41-.21,1.54-.22,2.01-.02.67.13,1.45-.09,2.13l.8.32c-.59.54-.06,1.28-1.01,1.62l.61.62c-.23.38-.51,1.15-.42,1.59.05.26.5,0,.41.33l-.61.31.61.11c.18.93-.98.99-.46,1.61h.46c-.15.45-.09,1.65-.31,2.02s-.67.38-.7.43c-.1.14,1.31,2.15.19,2.32v.41s.82.41.82.41c-.06.21-.57-.08-.25.47-.08.11-.45.09-.55.37-.18.5.17,2.83.09,3.62-.02.24-.16.43-.31.61l.82.44c.23.93-1.31,2.32-.21,2.83.32.79-1.55,1.25,0,1.3.07.06-.49,1.13-.51,1.32-.06.56.49,1.84.47,1.99-.03.24-.32.47-.34.68-.02.26.31.43.34.61.04.26-.73,1.11.04,1.68l-.61.31.4.2c-.36.68-1.03.49-1.48.7-.13.06-.14.42-.26.43-.52.03-.63-.5-.86-.61-.37-.17-2.13-.62-2.27-.93-.2-.76.4-.37.71-.7.02-.02.06-.56.05-.59-.07-.1-.44.1-.35-.24l.4-.1c-.39-.45-.29-1.08-.45-1.58-.1-.3-.49-.49-.51-.66-.06-.37.55-.55.57-.64.08-.54-.35-.83-.34-.99,0-.32.85-.53-.28-1.01.52-.11.57-.9,0-1.01.99-.32.39-1.44.42-2.22.02-.74.65-.95-.14-1.84l.74-1.01-.59-.42.49-2.13-.92-.5.41-.2-.4-.4.8-.72-.61-.21.61-2.22-.61.2c-.22-.65-.22-1.92.61-2.03.12-.2-.52-.3-.6-.54-.12-.34.44-2.64.8-3.01-.73-.31-.6-.95.22-1.02.07-.65-.11-1.33-.11-1.95,0-.67.66-.91-.31-1.29l.61-.81c.14-.54-.92-.41-1.02-.51l.4-.91-.61-.1.4-.29c-.67-.89-.13-.87-.09-.97.26-.67.64-.94.7-1.67l-.79-.13c-.49-1,1.23-1.86.53-2.97-.18-.28-1.39-.9.06-1.17l-.61-.3c.82.08,0-1.29,0-1.7,0-.72.88-2.72.48-3.19-.47-.55-.59.19-.08-1.21l-.61-.2.36-.1c-.27-.5.1-.7.45-1.02l-.4-.1.42-.32c-.32-.89-.5-1.43-.41-2.41.03-.31.32-.6.32-.82,0-.31-.46-.79-.45-1.22.01-.37.46-.77.42-1.34-.03-.45-.42-.93-.42-1.09,0-.41.92-1.61.94-2.04.04-.73-.54-.59-.58-.8-.34-1.76,1.67-3.03,3.21-3.14-.1.63.43,1.11.56,1.58.4,1.47.45,3.81.6,5.38.05.46-.18,1.23-.12,1.44.06.24.41.26.52.39Z"/></g></svg>