<?xml version="1.0" encoding="UTF-8"?><svg id="Layer_2" xmlns="http://www.w3.org/2000/svg" viewBox="0 0 289.48 107.99"><g id="rechta"><path d="M13.99,15.41l.11.37c.53-.27,1-.14,1.47.18.4-.95,1.59.31,2.2-.37.6.6,2.74.33,3.7.21.89-.12,1.61.51,2.45.8.29.1,1.71.29,1.87.39.27.17.28.75.55.91.42.25,1.52.13,1.93.83l.09-.55c.96-.17,1.29.86,1.91,1.41.06.05.85.65.9.67.76.37.4-.26.6-.24l.12.34.32-.13c.17.25.3,1.09.44,1.22.65.64.33.11.98,1.14.29.46,1.22.34.45,1.11.81.3,1.5,1.56,1.11,2.4l.74-.18c.34.49-.1,1.18.02,1.54.09.28.54.33.63.48.08.13-.17.78-.09,1.16.03.17.9.47.9,1.35,0,.1-.27.06-.31.17-.21.58-.29.53-.36.68-.12.25.32,1.22.25,1.45-.07.24-.53,1.19-.85,1.11l.38.29-.57,1.28.36.35c-.59.5-.63,1.37-1.47,1.39l.16.52-.89.68.37.27c-.66-.01-.38.5-.4.53-.06.07-1.19.37-1.59.69-.49.39-.85,1.42-1.5.99l.18.53c-.44.01-.67.56-.92.67-.45.21-.78-.11-.89-.07-.07.03-.88.78-.99.84-.4.23-1.76-.06-.88.97-.62.35-1.22.1-1.47.83.92.1,1.04.81,1.56,1.2.17.13.52.04.66.24.25.39.11.9.2,1.01.06.07.44.04.62.2.21.18.27.47.45.66.44.46.96.29.56,1.19l.55-.37c.04.7.95,0,.37,1.1.6-.27,1.17.12,1.49.64.2.34-.11.61,0,.8.05.08.65.23.82.6.13.28-.07.58,0,.74.09.2.58.37.8.66.07.1,1.07,1.92,1.1,2.04.09.39-.34.92.13,1.54h.82c.08.31-.3.08-.33.26-.13.76.3,1.84.34,2.6.02.29.02,1.59,0,1.83-.03.3-.42.56-.37.65.01.02.25-.02.29.04.34.55.35,1.53.26,2.17l.73-.18-.33.27.07.47-.48.18v.36c1.01.17.17.99.19,1.55s.76,1.14,0,1.31c.28.49.59,0,.92.18-.25.38-.02.78-.55.92l.36.56-.91,1.1.42.09c.55.5-.31.65-.39.78-.09.14.33.47-.49,1.07-.31.23-1.41.87-1.66.55-.05-.06.05-.33-.08-.47-.16-.17-.51-.23-.55-.3-.09-.16.14-.63.12-.94-.04-.71-.64-.59-.41-1.24l-1.03-.3c0-.6-.07-1.22.56-1.45v-.27s-.35-.09-.35-.09l.17-.47h-.74c.17-.36-.02-.97.55-.93-.29-.42-.5-.46,0-.83-.45.04-.44-1.93-.38-2.18.05-.21.47.03.38-.4l-.39-.36.31-.85-.66-.63.37-.18-.36-.17c.12-.55.28-2.24.13-2.74-.18-.6-1.38-1.29-.88-2.25l-.56-.1c-.08-.3.27-.13.31-.21.01-.03.06-.56.05-.59-.05-.22-.44.01-.36-.3l.37-.18c-.74-.14-.21-1.38-1.47-.92.36-.9-.77-.73-.92-1.25-.18-.62.39-.91-.75-.79l-.03-.88c-.44-.4-.68.25-.98-.03-.44-.41-.56-1.54-.63-1.58-.08-.05-.38.07-.65-.07-.63-.31-.71-1.07-1.07-1.25-.49-.26-.84.21-.88-.97-1.08.35-1.21-.24-1.84-.48-.23-.08-.5.09-.52.08-.06-.04-.09-.6-.39-.82-.11-.08-1.28-.05-1.67-.17-.35-.11-.31-.38-.5-.47-.24-.11-.65-.02-.79-.11-.65-.42-.85-1.91-.9-2.64,1.28-.34,2.64-1.43,3.96-1.15l.08-.34.92.55v-.54c.38.09,1.24-.39,1.6-.62.14-.09.19-.42.42-.57.21-.13.68.07.93-.04.41-.18,1.76-1.09,1.98-1.17.5-.18,1.32-.1,1.87-.57l-.17-.72.74-.09.03-.62c1.03-.31,1.62-.89,2.07-1.89.1-.23-.02-.48.11-.76.24-.56.93-.42,1.11-.51.06-.03-.06-.95.55-1.2l-.55-.38.37-1.09-.55-.1c.29-.61-.09-1.06-.12-1.57s.15-1.35.05-1.76c-.12-.49-1.72-2.35-1.76-2.5-.06-.22.18-.5.14-.59-.02-.04-.53-.52-.57-.54-.13-.08-.63.14-.86-.06l-.09-.92c-1.1-.06-1.59-1.4-2.32-1.91-.54-.38-1.67-.52-1.98-.7-.11-.06-.14-.42-.46-.56-.34-.16-1.45.26-1.43-.5l-.2.36-.53-.16v.35s-.65-.36-.65-.36l-.2-.57c-1.4.55-2-.63-3.28,0-.43-1.03-1.19-.29-1.85-.45-.44-.1-1.08-.43-1.7-.61-.43-.12-.4-.73-.98.05l.37.2c.17.87-.05,1.86-.01,2.75.01.37.46.95.38,1.26-.04.14-.57.13-.36.67h.55c.18.69-.35.97-.38,1.18-.02.15-.02,2.43,0,2.56.05.22.65.21.58.59-.89.92-.39,1.42-.3,2.39.23,2.51.28,5.62.22,8.11,0,.15-.34.35-.3.55.03.17.61.23.66.63.03.28-.21.52-.23.8-.03.7.14,1.44-.23,2.08l.37.19-.2.81.55-.09c-.62,1.51-.83,2.19-.36,3.81.05.18.5.06.24.7-.07.17-.38.32-.39.46,0,.07.36.42.35.93-.01.33-.36.25-.39.4-.08.38.1.74.1,1.08,0,.2-.24.41-.23.54.02.24.63.52.64.73s-.45.55-.48.77c-.03.2.33.48.36.88.03.44-.38,1.9-.36,2,.04.23.46.39.48.58.02.21-.44.64-.44.92,0,.24.35.51.31.91-.03.33-.45.47-.37.84l.36.18c-.43-.06-.36.36-.54.66l.37.19c-.15.69-.2,1.65,0,2.34.05.19.43.08.37.21-.16.36-.44,1.09-.5,1.5s.46.72-.24.89c.58.47.07.78.1,1.21.06.94.66,1.91.09,2.56l.37.1-.3.85.47.53-.38.11c-.1.45.32.76.31.91s-.34.35-.31.72c.02.3.63.93.56,1.02l-.55.28.37.27c-.29.04-1.16.84-1.3,1.06-.12.18.01.51-.16.71-.05.06-1.15.61-1.31.55l-.49-1.03h-.97c-.16-.44.28-.89.29-1.19.01-.39-.41-.89-.38-1.41.03-.56.48-1.11.42-1.73-.05-.54-.61-1.28-.15-1.93l-.56-.1c.64-.86.35-1.08.39-1.83.07-1.14,0-1.19-.16-2.03-.07-.39-.11-1.08.33-1.11-.47-.66-.2-.54,0-1.19h-.74c.21-.49.08-.87.74-.74l-.13-.37-.42-.09c.84-1.01-.02-2.53.18-3.47.03-.14.36-.12.38-.24.05-.37-.32-.79-.34-1.12s.34-.6.32-.89c-.02-.45-.69-.42.14-1.1.01-.45-.49-.44-.51-.47-.06-.1.29-.31.34-.5.08-.32-.11-.58-.12-.88-.02-.39.5-.49-.4-.46-.2-.7,1.11-1.41.18-1.74.86-.79.36-1.09.22-1.71-.08-.37.37-.52-.2-.68l.16-.35c-.93-.54.23-.89.35-1.05.03-.05-.14-1.02-.17-1.14-.04-.16-.36-.13-.37-.23-.04-.38.65-1.13.19-1.81l.37-.21-.74-.19c0-.15.13-.53.24-.6.51-.35.52.39.29-1.13l-.53-.02.17-.98c.13-.25,1.34.05-.17-.95,1.06-.62.2-1.28.27-1.77.05-.35.47-.34.47-.46,0-.18-.18-.42-.17-.7.04-.99-.06-1.76-.05-2.95,0-.46-.36-1.52.22-1.4-.48-.51-.19-1.23,0-1.83h-.56s.38-.82.38-.82c-.52-.11-.2-.39-.24-.44-.09-.1-.4.1-.32-.21l.33-.03c-.41-.7.4-1.31.41-1.39.03-.25.16-2.23.14-2.34-.05-.23-.4-.34-.44-.56-.1-.6.45-1.42.47-1.86.03-.51.02-.74.09-1.29.1-.87.06-4.28.79-4.66.47-.25.98.03,1.22-.03.2-.05,0-.56.49-.37Z"/><path d="M150.71,20.07c.65.52,0,.86.11,1.23.05.18.31.36.36.55.16.54.03,1.14.68,1.4l-.18.7.73.3-.19.55.37-.19c.27.52-.14.9-.13,1.35.02.8.77,1.47.5,2.15l.74-.18c.09.13-.17,1.65-.16,1.94,0,.31.27.51.27.73,0,.25-.46.19.08.87.13.16.35.13.35.15.04.08-.67,1,0,1.71.17.18.83,0,.53.9-.14.42-.69.43-.31,1.04l.9.02-.21,3.41.39.45-.37.37.55-.18c.12.59-.25,1.25-.29,1.57s.34.77.41,1.14c.06.33-.23,1.61-.12,1.72h.74c.26.2-.99.96-.63,1.48.1.14.46.14.44.26l-.52,1.3.35.19-.21.71.39.29-.36.08c.37.33.13,1.13.22,1.34.17.39,2.51,1.17.32,1.34.41.56-.23.69-.29,1.01-.06.3.1,1.14-.08,1.57h.55c-.32.76-.8,1.75.18,2.12l-.55.82.91.64c-1.06.99.39,2.36-.73,3.32.95.33.05,1.55,0,2.03,0,.05.59.16.39.81l.54.11c-.19.6-.04,1.25-.07,1.81-.02.33-.75,1.09.43,1.05-.41.75-.79,1.49.37,1.29-.2.56.15,1.17-.03,1.73-.11.35-.68.13-.53.66h.74c.15.5-.29.83-.37,1.21-.12.62.34,1.56.1,2.2s-1.19.7-1.03,1.28l.37.27c-.52.1-.99.49-1.21-.19l-1.01.11c-.42-.68-.57-.98-.8-1.71,0-.03-.27-.03-.3-.17-.09-.53.48-1.74-.55-1.53l.19-.37h-.56s.56-2.21.56-2.21l-.51-.03c-.36-.5-.02-1.1-.07-1.51-.09-.79-.64-1.48.02-2.14l-.74.18c.08-.73-.07-1.57.55-2.12l-.53-.36c.63-.96.34-1.89-.39-2.59l.37-.56-.55-.09.35-.2-.18-.61c.86-.34.05-1.29,0-1.69-.04-.43.44-.79.48-1.17.02-.23-.24-.41-.26-.66-.02-.26.13-.79.08-.93-.1-.28-1.83-1.88-1.78-.64l-1.1-.37v.55c-.94-.75-1.53.23-2.3-.38l-.46.56c.07-.61-.65-.32-1.11-.37l.18.73c-1.17.28-1.15-.87-2.17-.42-.15.07-.98,1.21-.96-.13l-.63.56-2.5-.56v.74c-.41-.23-.79.2-1.11.46l.37.18-.37.18c.21.38.24.55.74.46l-.55,1.02.37.27c-.39.16-1.14.96-.36,1.01-.34.33-.39,1.01-.92,1.02l.38.45c-.06.56-.72.75-.37,1.43.08.15.36.15.35.23-.06.51-.86,1.82-1.09,2.41-.21.52.42-.16.37.37-.09,1.01-.9,1.54-.7,2.64l.32.21-.33.03c.08.49.25.83-.41.9l.53.61c-.25.59-1.12,1.96-1.19,2.51-.04.31.37.45.29.56-.37.03-1.2.44-1.53.36s-.41-1.09-1.05-.54c.02-.39.16-.66.07-1.08-.1-.48-.58-.35-.44-.86.02-.09.3-.08.33-.18.21-.81-.23-1.95-.15-2.56,0-.07.99-.52,0-.95l.38-.73-.38-.18c.21-.44.45-1.02.48-1.5.04-.58-.31-1.16-.27-1.4.05-.3.39-.51.47-.81.07-.26-.12-.8-.06-1.21.12-.78,1.27-1.46-.06-1.7.19-.6.85-1.27.92-1.86.08-.75-.1-.46.14-1.09.19-.48-.51-.44-.32-.92.07-.17.4-.21.49-.34.5-.74-.95-2.71.24-3.54l-.37-.18.74-.74-.37-.73c.89-.37.36-.57.46-1.04s.57-.48.62-.56-.18-1.34.39-1.72l-.55-.09.56-1.55-.38-.19,1.04-1.85-.41-1.76,1.01-1.94-.54-.36v-.36c.47-.3,1.17-.88.37-1.1l.91-1.49-.55-.18.92-.92-.74-.37.89-.5c-.2-.38.2-.73.18-.94-.04-.47-.66-.96.03-1.7l-.36-.27c.51.08.19-.27.35-.47s1.03-.75,1.12-.92l-.55-.37c.22-.4.21-.55.73-.46l-.55-.55.34-.03c-.44-1.09.6-1.38.74-1.76.12-.32-.23-.91.05-1.41.29-.52.86-.63,1.11-.95.22-.28-.06-1.16.9-1.21l-.36-.64c.02-.21,2.97-1.68,2.76-2.49l.55.19v-.65c.81-.23,1.19-.21,1.66.46l.04-.32c.45.23.32-.12.61-.42.48.27.37.83.65,1.19.25.31.88.34.92.38.2.2.16.53.36.72.06.05.28-.07.33-.03ZM147.32,23.83c-.09-.33-.01-.64-.16-.87-.3.67-1.04.88-1.4,1.24-.14.15-1.21,2.62-1.26,2.78-.16.52-.48.91-.21,1.5h-.55s.03.89.03.89l.34.13-.37.27.36.09c-.3.57-.17.96-.92.65.17.16.41.94.32,1.07-.61.88-.17.28-.36,1.04-.03.11-.27.1-.32.24-.16.43.02,2.11-.05,2.22-1.21,1.79-.56,1.73-1,3.5-.07.28-.36.52-.4.73-.03.11.32,1.73.12,2.22-.01.03-.27.04-.32.16-.28.57-.89,3.1-1.06,3.88-.11.46.2,1.25.04,1.73-.12.36-.44.35-.43.42.12,1.29-.15.66-.21.96-.08.4.28,1.23.69,1.33.12.03,2.04-.24,2.38-.31.27-.05.26-.34.35-.37.25-.07,1.65.62,1.75.52v-.74c.48-.03.72.57,1.2.55.44-.02.32-.27,1.3-.2.09,0-.03-.54.68-.31.19.06.41.38.5.33.02-.01-.04-.27.13-.37,1.02-.62,1.93-.02,3.01,0-.02-.53-.1-1.04.37-1.38l-.37-.18.55-1.29c-1.04-.45-.23-.62-.23-1.26s-.65-1.42-.32-2.2c.1-.23.51,0,.36-.5h-.74c0-.41.05-.94.55-.92v-.18c-.56.07-.19-.23-.24-.33-.09-.17-.37-.04-.22-.78l-.45-.2c-.07-.09.87-1.42,0-1.54l.37-1.02-.74.18c-.06-.03.19-1.24.19-1.37,0-.08-1.07-.76,0-1.03v-.36c-.62.05-.16-.37-.31-.7s-.59-.38-.62-.54c-.09-.46.18-2.13.21-2.7l-.32-.16.13-.33h-.92c-.07-.32.26-.12.33-.21.04-.05-.1-.26-.07-.4.23-1.03-.07-.53-.17-1.14-.19-1.12.22-2.08-1.19-2.95l.35-.17c-.24-.33-.1-.75-.18-1.08,0-.04-.46-.51-.47-.55Z"/><path d="M92.31,18.17c.41.89.16,1.85.22,2.64.14,1.89.11,3.76.44,5.25.08.37-.23,1.06-.09,1.56.06.23.65-.11-.11,1.04l.49,2.47-.38.28h.74c.07.05-.79,1.25-.84,1.47s.21.38.21.56c0,.27-.15.6-.11.8.01.06,1.02.7,0,.86l.37.18-.37.73.92.09c-.52.11-.19.35-.36.56s-.62.22-.67.62c-.03.25.27.74.3,1.21.06.96-.12,2.17-.21,3.14l.57.55-.73.92c.63.02,1.11,1.2,1.2,1.2.07,0,.6-.64,1.2-.18l-.18-.73c1.02.09,1.94.62,2.95.18l-.19-.36h2.4s-.19-.37-.19-.37c.88.09,1.59-.47,2.58,0v-.74c.47-.06,1.14.56,1.38.56.55,0,.35-.55.48-.78.47-.86.11-.72.31-1.36.09-.28.4-.26.4-.37s-.1-1.26-.13-1.32c-.11-.25-.34-.41-.61-.42l.37-.64c0-.15-.29-.05-.34-.18-.03-.08-.03-1.57,0-1.64.11-.27.51-.24.54-.4.04-.26-.25-.54-.29-.83-.07-.46.24-.87.22-1-.02-.15-.32-.31-.43-.64-.04-.12.13-1.16.16-1.38.03-.19.18.21.18-.74,0-1.24,0-2.22.09-3.47.05-.64-.36-1.68-.33-1.86.03-.18.47-.15.51-.38.1-.52-.26-1.83-.22-2.41.01-.18.32-.38.29-.73-.01-.13-.43.11-.3-.72.16-1.05,1.33-4.85,2.31-2.23.33.88.74,2.69.56,3.59h.55s-.39,1.2-.39,1.2c.04.46.56.4.59.57.04.33-.29.54-.32.76-.02.15-.06.89-.06,1.05,0,.11.52.18.51.6,0,.3-.38.47-.31.85.05.3.43.55.46.78.03.27-.23.63-.21.93.02.38.54.8.49,1.26l-.55.54c.38.5.33,1.4,1.09,1.23l-.92,1.93c.58.12.17.54.26,1.01.16.79.55,2.86.39,3.51-.06.25-.44.45-.46.8-.04.74.46,1.75.22,2.83-.08.37-.45.9-.42.95.02.03.4-.07.47.35.04.28-.31.79-.25,1.03.02.1.28.08.29.18.14.93-.17,1.82.34,2.77l-.67.54.58,1.36.71.02-.37,1.17.37.3c-.55-.09-.02.56-.73.56v.27s.38.21.38.21c-.06.68-.21,2.09,0,2.69.07.2.35.2.44.33.3.47.33,1.35-.26,1.55v.27c.94.15.3,1.03,0,1.58l.35.16c-.48.66.18,1.93.19,2.41,0,.21-.51,1.02-.48,1.28.06.53.92.93.09,2.04.92.83,0,.96.02,1.26.02.49.25.77.74.67-.38.61-.18,1.22-.25,1.75-.13,1.07-.43,1.28.08,2.53.1.26.63-.02.06.68-.11.13-.39.18-.41.22-.03.06.09.53-.28,1.27-.07.15.08.35.06.36-.1.05-.43-.06-.69.05-.31.14-.76.86-.42,1.24l-1.49-.86c-.39-.72-.69-.96-1.1-1.77-.2-.4-.48.12.01-1.06h-.55c-.19-.2,1.01-2.72-.17-2.84.64-1.08.4-1.56.27-2.65-.05-.46-.29-2.94-.11-3.21.64-.98.08-1.86.24-2.77.04-.21.35-.38.33-.76,0-.09-.36-.08-.48-.46-.15-.49.1-1.6-.03-2.2-.09-.43-.41-.41-.41-.47,0-.29.3-.87.31-1.3,0-.98-.54-2.19-.61-3.2-.03-.43.57-1.08-.45-1.31l.37-.55h-.56c.2-.54-.06-1.07.74-.92l-.35-.2c.3-.72.08-1.51-.21-2.19-.46-.15-.31.26-.5.36-1.2.57-1.29.23-2.13.24-.57,0-1.04.6-1.55.65s-.9-.12-1.21-.08c-.76.09-1.66,1-2.61.49l.09.37c-1.27-.53-2.2-.24-3.5-.18.54.97-.07,2.13-.02,3.04.02.37.45.22.48.72.01.19-.06.9-.1,1.08-.04.14-.91.39,0,.77l-.55.64c.7.04.35.42.47.72.09.22.38.41.39.66,0,.21-.5,1.39-.56,1.92-.08.65.17.96.19,1.42.04.77-.66,1.66.61,1.73l-.48.64c.25.54.14,1.09.85,1.11l-.56.09c.68.92-.46,1.12-.5,1.37,0,.06.15,1.03.18,1.12.02.08.41.14.42.63,0,.3-.33.49-.29.84.01.1.29.06.34.19.18.57-.35.72-.51,1.2.19.05.71.11.75.3.17.77-.46.71-.54.83-.09.13.49,1.72-.03,2l.72.08-.22.62c-1.37-.04.77,1.68-.69,1.51l.37.27c-.35.3-.47.75-.73,1.12-.28.39-.66.13-.57,1.18h-.9c.04-.81-.4-.43-.67-.87l-.26.13c-.13-.58-.44-1.84-1.11-1.66l.19-.36h-.56c.2-.33,0-.76.13-1.06.52-1.2.22-.99.33-2.24.03-.39.68-.94-.45-.57.2-.66-.24-1.64.55-1.93l-.39-.2.38-1.37-.55.18.35-1.58c-.66-.23-.19-1.19-.08-1.72.07-.34-.33-.51.29-.66-.85-.36-.75-1.01.18-1.02-.4-.36-.27-1.23-.45-1.48-.21-.29-.92.13-.65-.97.04-.14.29-.12.32-.22.04-.13.21-2.34.22-2.58.01-.27-.51-1.61-.56-2.02.5-.27.66-.4.56-1.03l-.73.18.19-.63-.38-.1.73-.74v-.36s-.54.18-.54.18l.16-.91-.35-.11.74-.27-.74-.28c.34-.26,1.17-1.34.37-1.47l.37-.56-.32-.11c.34-.79-.42-1.36-.61-2.08l.67-.64c.11-.34-.42-.66-.42-.84,0-.16.71-.88.69-1.28,0-.09-.31-.07-.37-.24-.25-.73.09-1.96-.55-2.73l.33-.16c-.44-1.01.73-1.65.77-2.59l-.92-.1c-.06-.38.54-.8.54-.85.04-.26-.28-.8.01-1.17h-.56s.55-1.11.55-1.11l-.55-.09c.01-.58.67-1.18.66-1.66,0-.18-.33-1.39-.66-1.2v-.18c.54.08.33-.51.49-.89.12-.27.44-.18.43-.32-.02-.4-.52-.7-.39-1.66.08-.57.39-.6.48-.91.15-.5-.1-1.65.25-2.22-.57-.12.08-.52-.53-.45v-.18c.85-.03.32-1.13.43-1.53.25-.93.28-1.41.43-2.43.04-.25-.17-.69-.1-.79.12-.21,1.91-.95,2.18-.76Z"/><path d="M55.65,18.16l.38.12-.09,2.1-.23.16c-.98-.12-1.44-.16-1.99.72-.42-.47-2.6-.36-3-.11-.12.07-.17.49-.32.5-.05,0-.56-.4-.81-.45-.66-.13-2.26.02-2.53-.47h-.61s-.1.55-.1.55c-.27-.37-.77-.25-1.06-.38-.13-.06-.43-1-.61.2-.13.84.19,1.62.21,2.31.02.81-.31,2.67-.25,3.31.06.56.65,1.06.33,1.74h.74s-.33.21-.33.21c.24.53-.22.86-.24,1.37-.03.63.57,1.23.57,1.86,0,.44-.35.62-.36.89-.02.39.61,2.29.64,3.03.02.48-.58,1.69-.35,2.04.08.12.34.14.4.21.04.05-.17.67.04.88h-.56c.23.73.28,1.37.02,2.11l.9.29-.09.92,3.22-.37-.18-.55c.66.31.93-.6,1.11.37h.36c-.04-.61,1.63-.77,2.07-.7.19.03,1.27.49,1.43.61.49.37.13.84.92.46l.37,1.76c-.8.25-.26.44.18.73-.52.42-1.32.07-1.9.32-.26.11-.28.39-.45.51-1.22.85-.78-.36-1.7.09-1.16.57-.53.1-1.12.17-.79.09-.92.68-1.11.83-.06.05-.87-.54-1.2-.55-.59-.02-.73.63-1.65-.19l-1,.56c.6.71.17,1.5.24,2.09.03.28.51.74.27,1l-.32.04.32.46-.32.64h.74s-.16.81-.16.81l-.58.2v.53c.86.25-.61,1.06.56,1.22-.07.22-.69.38-.37.73.16.18.85-.48.73.09l-.94,1.11c.19.79.38.96.16,1.79-.15.55-.68.28.23.79l-.55,1.01h.46s.09.64.09.64c-1.36.21.16.67,0,.83-.58-.04-.13.77-.92.56v.37c.44-.03.4.15.37.55h-.55c0,.64.81,1.36.84,1.83.02.26-.28.4-.3.65,0,.12.43.07.48.44.04.32-.25.51-.24.66,0,.13.55.55.62,1.01.06.41-.26.54-.26.65,0,.17.71.46.33,1.01.7-.27,1.56.13,1.79.86.09.28-.45.4.38.56.38.07.76.07,1.15.05l-.02-.47c.86-.46,1.52.14,1.94.11.06,0,.47-.72,1.03-.57v-.81c.52-.28,1.7-.61,2.04-1.1.2-.29.15-.81.34-.94.07-.05,1.46-.25,1.59-.25.8.04.45.75.5.87.02.04.3.04.38.26.11.34.4,1.52.22,1.8-.08.12-.35.13-.46.33-.19.36-.21,1.21-.47,1.51-.14.16-1.45.94-1.75.93l.19.55c-.41-.03-1.39.15-1.71.37-.24.16-.13.52-.31.66-.25.2-.59-.12-.72-.07-.11.04-.44,1.09-1.22.33l-.21.39c-1.07.18-1.61-.22-2.42-.35-.34-.06-.86.13-.97.06-.15-.08-.22-.51-.59-.69-.42-.21-1-.15-1.45-.25-.17-.04-.4-.26-.44-.25-.22.02-.16.61-.46.55l-.19-1.47-1.64-.39.16-1.45-.55.18c.33-.9-.09-.85-.16-1.07-.21-.63-.2-1.3-.57-1.79.45-.15.24-.23.35-.62l-.9-.21.37-1.47-.47.02c-.21-.74-.05-1.56.46-2.13l-.73-.46c.79-.32,1.04-.7.72-1.52-.07-.17-.36-.14-.37-.25-.02-.25.21-.51.2-.7,0-.06-.62-.12-.39-.92l.75-.39-.55-.46.55-1.38-.74-.18.92-.83-.57-.48c.01-.51.45-1,.57-1.45.13-.54-.4.05-.37-.18l.37-.92-.74-.28.37-.73-.37-.18c.48.06.21-.21.36-.54h-.55c.21-.36.46-1.39.36-1.74-.04-.15-.39-.1-.36-.2.38-1.31.21-2.83.53-3.88.12-.37.4-.23.4-.36l-.67-.92c.8-.86-.15-1.75.48-2.4l-.37-.18c.62-.31-.03-1.48.02-1.55.11-.13.55-.08.52-.67l-.72-.36c.57-.43.06-.78.07-.92.05-.49.69-1.48-.08-1.66l.37-.46h-.55c-.1-.44.37-.62.37-.66,0-.18-.2-.44-.18-.71.03-.4.34-.77.37-1.14.02-.31-.27-.22-.36-.4-.3-.57.19-.95.35-1.5l-.54-.29c.4-.45.4-1.09.45-1.66.07-.82-.25-1.76-.27-2.21,0-.32.47-.6.51-.95.05-.4-.49-1.19-.43-1.63.03-.24.39-.44.41-.73s-.33-.57-.18-.97c.09-.24.44-.22.44-.33,0-.27-.32-.52-.32-.73,0-.24.36-.5.45-.79.17-.56-.47-1.99.58-2.27l-.16-.53c1.11.07,2.38.45,3.45.49.71.03,1.84-.33,2.46-.57.52-.2,5.15-.36,5.92-.24.18.03.36.29.61.32.35.03.96-.45.92.19l-.46.55Z"/><path d="M77.37,16.66l.03-.32h.26c.36.78.41.33.83.44,2.13.55,2.85.51,1.65,3.04-.27.2-1.41-.7-1.9-.69-.54.01-.78,1.17-1.78.77l-.18.67c-.92-.48-1.37,0-1.96.62-.09.09-.03.35-.11.43-.29.29-1.54.14-1.06,1.34-1.43-.28-1.53.46-2.21,1.39-.55.76-1.23,1.59-1.44,2.62-.05.25.16.56.15.59-.02.03-.49.08-.73.29-1.05.93-.34,1.25-.59,1.99-.08.26-.48.2-.62.66-.16.51-.46,1.81-.54,2.31-.12.8.23,1.78-.11,2.36-.54.92-.16.49-.27,1.33-.03.23-.59.93-.65,1.29.31,0,.58,1.05.56,1.26-.01.11-.3.12-.36.26-.58,1.28.37.9.36,1.42.06.41-.74,1.07-.75,1.14-.08.7.55,1.88-.36,2.74l.55.09c-.55.91.15,1.72-.37,2.39,1.25.52.11.8,0,.94-.03.04.18.85.22,1,.03.1.27.08.29.18.24,1.37-.33,1.72-.64,2.67-.2.65.32,3.94.3,4.88,0,.23-.23.79-.18.83.05.05.9,0,.93.83,0,.14-.29.06-.34.18-.08.19.22.58-.41.74l.55.55c-.33.14-.43,1.52-.36,1.56.13.07.42-.1.55.13.25.44.11,2.59-.01,3.19l.51.03.05,1.17.55.09c.08.3-.27.1-.33.26-.02.06-.06,1.32-.01,1.37.15.15.77.13.88.23.03.03-.25.48.2.8,1.24.89,3.44,2.04,4.89,1.96l.16.32c.67-.27,1.31.28,2.07.38,2.16.28,1.44-.5,2.07-1.35.22-.3.77.16.43-.44.54-.38.8-.45,1.44-.22-1.01-.78,1.03-.84,1.44-.8.37.03,1.16.16,1.29.56.15.46.21,2.25-.03,2.72-.21.4-.72.43-.8.53-.09.1-.04.35-.11.43-.37.43-.84.2-.5,1.17l-.2-.35-1.07.18-.02.9-1.19-.19-.21.39-1.08-.37-.3.72c-.89-.32-2.19.35-2.85-.36l-.36.54c-.75-.23-1.05-.45-1.48-1.09l-.55.51-.74-.51-.37.55c-.61-.22-.78-1.04-1.38-1.21-.45-.13-.84.22-1.25.07-.05-.02-.49-.67-.67-.81-.3-.23-.81-.24-1.11-.64-.29-.38-.34-1.18-.66-1.57-.19-.24-.48-.09-.64-.25-.4-.42-.44-1.43-.84-1.74-.09-.07-.45.24-.66-.66-.12-.52.33-.66-.27-.83.28-.6.36-1.72-.55-1.56.23-.44.24-.71-.18-1.01l.37-.18-.35-.17c.36-.75-.07-1.6-.11-2.38-.01-.29.19-.67.18-1.13-.01-.57-.5-1.25-.08-1.94h-.74c.62-.92-.15-2.12-.16-3.04,0-.84,1.04-2.05-.02-2.39l.53-1.12-.54-.27.37-.36h-.37c.71-.98.14-.79.01-1.06-.48-1.08.26-1,.45-1.8.12-.51-.27-.96-.24-1.26.03-.31.43-.65.46-.98s-.22-.71-.22-1.08c0-.74.45-1.66.42-2.08-.05-.77-.56-1.06.22-1.88-.16-.11-.96.21-.92-.18.56.1.2-.7.4-1.17.12-.28.43-.24.48-.4.15-.46-.38-1.59-.33-2.02.05-.47.95-.89-.18-.84.02-.5.34-.99.92-.91l-.2-.63.39-.2-.22-.44-.71-.03c-.13-.1.7-.92.72-1.04.04-.22-.32-.39-.27-.63.07-.32.57-.59.63-.86.13-.53-.71-1.54.4-1.35l-.38-.29c.11-.19.13-.68.24-.78.19-.17.67.22.51-.49l-.37-.18c.08-.43,1.22-1.4,1.25-1.49.03-.13-.1-.33-.07-.51.05-.34.47-.32-.07-.86.78-.05,1.03-.68,1.47-1.2l-.37-.18c.32-.59,1-.59.55-1.28.16-.16.5-.49.63-.66.08-.11-.1-.3.02-.38.39-.23.94.04,1.1-.16l.09-1.12.55.18.02-.72c.29-.24.89.06,1.06-.04.38-.23.35-1.67,1.33-1.27l-.19-.37c.75.19.48-.43.73-.65.05-.04.74.05.94-.09l-.19-.55c.9.22,2.67-.02,2.21-1.11.47-.01.89.27,1.37.19.4-.07.62-.52.75-.52s.39.49.62.3Z"/><path d="M123.47,18.53l-.37-.55h1.36s.12.74.12.74c.62-.1-.13-.79.46-.74.74.06,1.87.64,2.95.71.38.02.91-.48.83.22l.27-.55c1.03.33.7.75.83.92.03.04.81-.25.82-.55l1.3.73.18-.37c.45.2.62.42.65.92l.36-.37c.36.64.56,1.85,1.29,2.03.06.08-.43.5-.48.72-.06.28.38.31.12.66-.57.76-1,.04-1.44.21l-.31.41c-.37-.17-.78-.2-1.17-.29-.72-.16-1.26-.28-2.12-.47-.57-.12-1.13-.94-1.33-.14l-.75-.38-.35.38c-.84-.57-2.26-.44-2.46.66l.52.27c-.81.81-.24.85-.2,1.39.06.62-.34,1.45-.17,2.16.02.06.58.89.73.96-.72.88.06,2.63-.02,3.7-.02.26-.28.41-.3.69-.05.68.41,1.13,1.06,1.24v.36c-.74,0-.12.72-.74.83l.73.46c-.57-.13-.14.53-.41.71l-.51.03c.22.43.1,1.1.74,1.11-.6.93-.34,2.24-.55,3.31h.74c-.31.37-.22.8-.36,1.16-.04.11-.34.1-.38.26-.07.32.17.78.14,1.1-.04.47-.64,1.41.03,1.62l-.17.47.74.1-.74,1.66.55.18c-.37.22-.23.61-.36.89-.07.14-.39.11-.37.21.02.12.22.37.27.63.03.18-.14.52-.09.58.03.04.41-.25.74.27-.91.76-.58,1.4-.74,2.49l.74-.09c.08.36-.47,1.45-.48,1.83,0,.14.29.28.23.65s-.43.64-.49,1.01c.08.21.31-.12.55-.01.37.18.39,1.48.34,1.55s-.4.06-.49.32c-.2.57.68,2.42-.22,3.21h.55c.08.31-.26.1-.33.27-.32.78.49,1.25.51,1.33.11.47-.53,1.71.2,1.83.05.67-.58.85-.56.91.46,1.09.15,1.47.17,2.58,0,.53.52,1.3-.17,1.2l.37.18c-.82.74.13,1.18.18,1.55.08.64-.4.81-.51,1.17-.09.3,0,2.15-.07,2.23l-.71.21.74.92-.84.14-.27-.69c-.64.64-1.46-.17-2.21.19.11-.6-.44-1.24-.94-1.58.53-.6.95-2.87-.17-2.29-.23-.56.53-1.16.54-1.23.09-.34-.46-.74.2-.91-.26-.4-.15-.99-.21-1.25-.02-.1-.58-.21-.17-.85l-.56-.1.33-.11c-.18-.77.64-1.18.59-2.1l-.73-.09c-.08-.53.55-.97.55-1.03.03-.44-.49-1.43-.48-1.83.02-.6.79-1.51.49-2.57l-.58-.21v-.78s-.35-.13-.35-.13c.79-.21.5-1.24.58-1.47.04-.12.36,0,.36-.35,0-.64-.22-1.23-.94-1.21l.74-.91-.36-.12c.22-.41-.11-.84-.1-1.16.04-1.21.31-2.42-.07-3.47-.64-1.77.18-1.7.16-2.72,0-.34-1.3-1.38,0-1.75.08-.3-.27-.13-.31-.21-.22-.42.81-1.04.68-1.71h-.56c-.58-.4.22-1.86.29-2.4.03-.23-.21-.48-.2-.74,0-.21.29-.47.25-.91-.1-.98-.71-1.21-.7-1.29.07-.68,1.04-.89,0-1.76l.55-.09c-.07-.53-.56-.69-.55-.73.02-.1.26-.27.29-.46.28-1.78.16-1.81-.27-3.43-.24-.91-.03-1.27.08-2.01.11-.81.53-1.47-.28-1.93.65-.15.7-1.91.69-2.57,0-.49-.51-.6.04-1.12l-.34-.04-.12-.89-.36.68c-.56.15-.56-.43-.79-.5-.28-.09-.76.08-1.08-.17l-.18.36c-.69-.21-1.64-.55-2.36-.38-.16.04,0,.63-.8.12s-.63-.3-1.27-.57c-.6-.26-.78-1.05-1.56-.28,0-.42-.14-.81.36-.74l-.38-.29.38-1.46c.3-.33,1.58-.21,2.03-.09l.09-.56c.95.37,2.08-.38,2.76.38l.19-.37c.79.09,1.6.47,2.28-.02l-.08-.53c.52,0,.98.77,1.37.84.27.05.63-.41,1.03-.4.28,0,.63.41,1.01.29Z"/></g></svg>