<?xml version="1.0" encoding="UTF-8"?>
<svg id="Layer_1" data-name="Layer 1" xmlns="http://www.w3.org/2000/svg" viewBox="0 0 385.8 125.85">
  <path d="M29.69,4.46c.1.06.09.57.48.72,1.48.56,4.63.45,6.06,1.72.92-1.55,1.84.82,3.04,1.11l.14-.55c1.15,1.07,2.63-.43,2.49,1.93l1.93-.28c-.19.52,1.12,2.68,1.46,2.96,1.04.87,3.59-.09,2.69,2.01l1.1-.15.41.42-.14.84c1.11-.32,1.15.55,1.6.82.29.17.95.14,1.13.31.06.06-.04,1.27.32,1.63l.82-.28,1.11,3.04.55-.28.03,1.09.8.02c-.6,1.55.45,1.7.81,2.43.3.61-.06,1.72.8,1.24.68.76,1.04,1.29.89,2.41,1.16.34.86-.58,1.65-.55.48.96-.07,2.39.12,3.19.28,1.13.81,2.7.92,3.57.15,1.16-.26,2.08-.49,3.19l.55-.28-.27,1.38,1.1-.28c.87,1.64-1.67,3.87.56,4.7-.51.35-.47,1.46-.61,1.61-.12.12-.59-.06-.8.21-.42.55-.69,2.66-1.24,3.41l.99,1.12c-.9.5-1.19.98-2.34,1.1l-.88,1.8.73.96c-.94.08-1,1.23-1.1,1.94l-1.38-.28c-.17.13-1.05,3.55-1.36,3.98-.23.32-1.15-.15-.86.99l-1.1-.28.83.82-3.58,1.4.21.48c-.52,1-2.12,1.46-2.35,1.76-.1.13-.13.6-.82,1.43-.14.17-.02.58-.25.75-.48.35-1.1.02-1.49.15-.3.1-.72.85-1.37.67l.27,1.37h-1.66s.21.5.21.5l-.69.75c.88.54.58,1.48.91,2.06.1.17,1.98,1.86,2.03,1.99.1.26-.04.24.29.99.2.45.33,1.35.65,1.66s1.3-.01,1.58.75l-.83.96h1.66s-.83,1.38-.83,1.38c1.31.13,2.34.88,1.66,2.21l1.27.26c-.08,1.41-.17,1.46.78,2.39s1.84,2.28,2.58,3.63c.66,1.2.21,2.39,2.24,2.59l.04,1.07,1.1-.55c.86,1.11,0,1.38,0,2.06,0,.17.49.15.57.33.85,1.8,1.92,2.59,2.55,4.04.15.34-.06.79.13,1.21.34.76,1.12.85,1.43,1.36.29.47.21,1.12.44,1.51.15.25.6-.02.81.25.84,1.06.76,1.53,2.09,2.59.15.12.44-.14.56.05.67,1.04-.37,1.68-.28,1.78l.47.06c-.33.63.81,1.01,1.18,1.54.94,1.33,1.63,3.02,2.35,4.49l1.8.28-.55,1.1c2.83.16,1.13,1.38.89,2.69-.2,1.11.73,1.07-1.08,1.99-.2.1-1.03.53-1.1.54-.54.16-1.75-.59-1.48.85l-1.11-.7.55-1.24c-.78.38-2.82-.27-2.42-1.24.1-.24.81.04.21-.75-.17-.22-.46-.29-.64-.53-.17-.21-.14-.56-.38-.8-.42-.42-1.66-.79-1.75-.92-.32-.49-.24-2.3-1.01-2.39-.35-.04-.7.38-1.05.02-.84-.88.31-1.31-.14-2.23l-.82.82-.81-.96c1.05-1.16-.17-1.42-.66-2.08-.42-.56-.82-1.68-1.08-2.14-.1-.17-.62-.24-.85-.7-.25-.51.12-.98.08-1.02-.09-.11-1.07-.13-1.31-.36-.15-.15-.13-.63-.34-.89-1.13-1.41-1.23-1.63-1.48-3.28-.16-1.01-.75-1.83-1.84-1.86l.55-1.63c-.68-.06-1-.21-1.24-.83l-.97.82-.2-2.4c-.29-.72-1.92-1.67-1.97-1.8-.14-.39.07-.19-.3-.99-.24-.52-.34-1.16-.61-1.69l-1.35.24c-.26-.48.02-1.64-.13-1.93s-1.34-1.04-1.76-1.84c-.72-1.36.01-2.52-1.98-2.58l.55-.55c-1.03,0-.83-1.03-1.12-1.44-1.54-2.15-1.32-1.98-2.3-4.4-.19-.47-.61-.47-.7-.72-.42-1.14.47-.67-1.01-1.57-.11-.07-.12-.41-.31-.44-.36-.06-.74.18-1.06.16-.86-.06-.83-.94-1.67.69-1.73-1.02-2.5.09-4.01.67l.03.69-3.04-.55-.05.76-1.34-.09.28-.94-.95.29-.43-.57c-.57,1.2.17,2.72-1.1,3.17l.31.64.74.19c.14.69-.66,1.34-.73,1.71-.07.4.47.82.48,1.32.01.55-.54,1.11-.46,1.61.05.29.47.57.51,1.15.05.79-.66,2.24-.53,2.83.15.71.79.41.81,1.03.04,1.51-1.3,3.52-1.32,5.33,0,.49.64,2.64.64,2.98,0,.35-.46.65-.39,1.05.16,1.01,1.33.66-.21,2.54.48.44.05,1.17.28,1.52.15.21.66.19.67.4.02.68-.43,1.43-1.07,1.67,1.24.56.5,2.28.53,3.32.04,1.4.31,2.84.03,4.27h.83c-.09,1.21-1.01,1.46-.83,2.76l.83.28c-.89-.12-.22.36-.4.82-.1.25-.61.44-.63.7,0,.13.35.36.37.55.07.74-1.12,1.01-1.25,1.43-.14.45.55,1.98-.33,2.55-.07.05-.59-.28-.91-.23-1.02.15-3.28,1.5-2.65-.56l-1.38.28c-.41-.67-.17-2.65-.44-3.05s-1.18-.58-.94-.81c.1-.09.73-.09.97-.55s.12-1.27.3-1.81l-1.27-.82.52-.16-.24-1.08h.83c-.61-1.87.46-3.5.3-5.4-.04-.54-.62-.28-.61-.8.02-.99,1.42-2.08-.25-2.37v-.41c1.05-.3.86-1.7.82-2.74-.05-1.22-.35-2.77-.17-4.12.06-.47.67-1.21.65-2.04-.02-.91-.98-1.55-1.03-2.17-.04-.52.42-.83.43-1.08.03-.74-.3-1.67-.3-2.46,0-.93.48-1.88.43-2.5-.04-.54-.57-1.01-.58-1.68,0-.5.46-.35.52-.54.16-.55-.33-2.02.08-2.73l-.57-.44c.75.11,1.05-1.21.71-1.67s-1.38-.07-1.27-1.64h.83c.25-.82-.63-.32-.58-.96.06-.9,1.64-2.75.03-2.91l.51-.32c-.35-.94.34-.96.59-1.72-.3-.47-.57-.7-1.1-.44.09-.61.3-1.19.42-1.8.12-.65-.46-.88.41-1.1l-.83-.27c1.13-.9.48-1.64.6-2.43.07-.49.66-.86.73-1.21.12-.66-1.31-1.78-.23-2.44l-.82-.14v-2.21s.83,0,.83,0c-.9-1.63.5-1.71.58-2.35.07-.53-.65-1.46-1.13-.96.23-.64-.02-2.31.14-2.8.19-.56.63-.48.67-.69.12-.65-.6-2.1-.8-2.75l.45-.16c-.36-.97.35-1.19,1.19-1.34-1.02-1.58-.49-2.71-.28-4.4l-1.36-.32c.02-1.27.79-1.14,1.64-1.77-.31-.71-.64-.87-1.34-1.1-.21-.45.78-1.48,1.34-1.53l-.84-.95c.46-.87,1.27-3.21.83-4.07-.19-.36-.88-.02-.27-1.04h-1.38c-.07-.87.81-1.26.97-1.8.41-1.34-.67-1.54-.67-1.64-.02-.55.43-1.25,1.08-.98v-.82s-1.1-.42-1.1-.42l.56-1.1c-.88-.24-.54-.9-.59-1.65l.85-.15-.83-.69c.77-.76.04-1.25.14-1.51.71-2,.08-2.57.26-3.34.08-.32.54-.6.59-.94.12-.9-1.08-2.09-.99-2.48s1.13-.22.83-.97c-.5.29-1.73-1.02-1.66-1.1.47.35.99-1.41.99-1.52-.02-.37-.42-.66-.39-1.07.04-.47.7-.89.74-1.2.07-.49-1.54-2.06.89-2.15l-.02-.69c.7,0,1.39-.21,2.08-.26,1.28-.1,3.39-.49,4.91-.86.22-.05.19-.55.34-.56.81-.05,2.44,1.3,3.07,1.35.43.03.93-.77,1.43-.46ZM25.24,10c-.11-.05-1.5.2-1.55.26-.16.17-.71,2.85-.57,2.97l1.36.31c-.13,1.21-1.42.46-1.11,1.52.07.23,1.83.58,0,1.68l.58,1.63-.57.55.83.69c-1.78.4-.57,1.15-.82,2.2h.83s-.83.98-.83.98l.55.26c-1.59,1.95.71,3.29-.55,5.4h1.11c.1,1.04.12,1.35-.83,1.8,1.05.21.07,1.01.12,1.37.04.3.47.59.47,1.11,0,.82-1.02,1.44-.01,2.75l-.58.29c.85.83-.11,2.24.84,2.48l-.84.14c.27.7-.07,1.4-.02,2.06.11,1.4.97,2.44.02,3.45.79-.08.29.34.37.49.05.11.49-.03.47.46-.03.91-.85,1.05-.86,1.15-.05.69.91,1.14.34,1.93.88.18.15,1.53.09,2.18-.03.42.26.93.16,1.36l-.56.18v.54c1.51.21-.52,2.23-.54,2.39-.05.33.44.59.49.84.05.29-.39.58-.42,1-.12,1.72.66,5.04.42,6.68-.12.76-.69,1.12-.73,1.43-.05.38.69,1.91,1.33,1.47-.66.89-1.49,1.29-.81,2.46l1.46.03c.27-.2,1.19-.92,1.47-1.06.77-.4,2.2-.24,3.1-.51.66-.19.67-.9,1.66-.69l.04-.78c1.38-.14,1.61.33,2.74.82.12-1.95.02-1.03,1.18-1.72.75-.45,1.98-.95,2.15-1.59l1.09.55c.24-1.62.45-.79.93-.91.66-.17.8-.76.46-1.3,1.36.32,1.51-.68,2.11-1.06.9-.57,3.06-1.56,3.62-2.31.06-.08-.14-1.15.21-1.61.21-.28.69-.19.89-.34.63-.51.45-2.17,2.57-1.58-.48-.75.37-.71.67-1.1.13-.16,0-.76.22-1.16,1.59-2.95,3.32-4.53,4.26-7.96.09-.33.57-.71.66-.97.03-.08-.94-.36-.76-1.4,1.94-.85-1.5-1.43.72-2.38-.28-.58.2-1.13.2-1.45,0-1.02-1.46-1.7-.16-2.91l-.81-.02c.37-.99-.97-.42-.31-1.74-.14-.52-1.22-.07-.52-1.34.19-.34.62-.07.53-.49-1.04.13-.24-.5-.33-.79-.02-.06-.91-.51-.98-.67-.1-.23.14-.54.03-.75-.45-.91-.8-2.25-2.02-2.23.4-2.3.23-1.19-.85-2.05-.66-.53-.36-1.09-1.65-.98v-1.09s-.55.27-.55.27c.07-1.51-1.44-1.19-1.82-1.63-.09-.1.07-1.79-.65-2.61-.39-.44-.99.34-1.42-.27l-.26-1.55-1.12.14c-.68-1.86-1.35-1.17-2.69-1.71-.16-.07-2.69-1.58-2.91-1.73-.39-.27-.39-.85-1.11-1.19-.5-.23-1.28-.02-1.83-.22l-.02-1.09c-1.83.81-3.6-.45-5.15-.73-1.45-.26-1.61.22-3.2-.58Z"/>
  <path d="M230.14,2.42c.58.35.99-.36,1.47,1.18,1.59-1.46,2.91.99,3.86-1.11.17.38,1.24.98,1.68,1.11,1.46.44,2.9-.95,2.88,1.37.46.12.16-.48.41-.56.79-.25.63,1.11,1.77.3.67,2.16,1.14,1.73,2.73,2.38.78.32-.05.21,1.31.47.31.06.89.49.96.44.1-.08-.23-.66.27-.55.06.35,1.35,1.81,1.46,1.87.25.12,2.05-.06,2.62.41l1.53,2.34c.71.72,2.07.81,2.44,1.32.29.39,0,.84.1.99.24.32,1.14.27,1.39.81.2.43.02,1,.2,1.32.2.36,1.77.86,2.13,1.34.51.68.23,2.19.29,2.29.08.13,1.57.4,1.66.75.27,1.02-.6.97-.57,1.07.08.25.56.63.65.97.19.72-.04,1.61.27,2.15.06.11.7.21.69.8,0,.42-.46.68-.51,1.08-.07.63.45.99.51,1.43.06.39-.31,1.1-.23,1.18.06.05,1.06.23,1.38.56-1.06.96-.06,1.3-.17,2.15-.07.6-.86.71-.86,1.63,0,.5.54,2.18.75,2.43-1.46.93-.65,2.64-1.44,3.81-.31.46-.93.65-1.04.89-.51,1.12,1.21.1.84,1.62-.06.24-2.71.86-.85,2.92-1.1.16-.41,2.55-1.92,1.67l.55,1.24-1.38.42c.73,1.2-1.03,1.11-1.09,2.36,0,.11.41.13.44.19.54.98-.52.96-1.28.76l.52.69-.69.67-1.21-.53-.42,1.68-.97-.02c.66,1.15-.68,1.3-1.22,1.96-.57.71-1.53,2.56-2.17,3.23-.32.33-1.02-.09-1.31.47,1.49,1.5-.36,1.73-1.66,1.24v1.11s-1.38,0-1.38,0l.27,1.1-.5-.22c-.04.91-2.64,1.07-2.82,1.32l.28.82-2.56.29-.76,1.37-.69-.55-.14.82c-.22.13-2.28-.28-2.91-.22-.17.02-.11.47-.25.47-.74-.03-1.52-.41-2.52-.26-.73.11-1.15.68-1.91.59-.7-.1-.61-.82-.82-.82-.48-.01-2.75.56-2.65,1.35l-.44-.55-2.87.28c-.11.5.46.17.55.28.1.11-1.93,1.65,0,1.94-1.24,1.02-.42,2.09-.84,3.41l.57.3c-.94,1.01.08,3.13.17,4.16.03.32-.72,1.18-.45,1.79l.53-.26c.75.81.09,1.66.14,1.93.14.77,1,.5-.39,1.23l.56.54-.84,2.35h1.11c.06.73.11.97-.54,1.29l-.15,3.12c.37.74.86.33,1.51.29l-.84,1.8.14.41c1.66.4-.34,2.1-.34,2.33,0,.16.55.51.5,1.1-.01.14-.41.16-.44.22-.25.58-.21,3.29.4,3.36-.58,1.55.31,3.22-.8,4.73l.55.25c-.48.44-.88,3.22-.55,3.46l.83-.28c.25,1.16-.51,1.91-.17,3.06.17.58.83.79.73,1.5l-.58.31c.78,1.39-.95,2.1.3,3.29-.83.16-.43,1.26-.71,1.77-.3.55-.93.81-1.51,1.75-.52.85-1.17-.26-1.24-.28-.4-.11-1.54-.09-1.78-.22-.82-.43-.91-2.09-1.17-2.98-.13-.43-.61-.85-.65-1.15-.07-.54.39-1.3.4-1.69,0-.12-.4-.1-.43-.18-.06-.15.16-.36.11-.43-.18-.23-.9-.45-1.03-1.03-.04-.16.61-.26.85-.53.34-.39.69-4.86.67-5.56-.03-.86-.87-2.47-.85-3.02.06-2.01,1-3.85.55-6.52s-.7-5.47-.69-8.4c0-.74.25-1.83.3-2.62l-.83.14c-.17-.99.15-1.88.25-2.8s-.06-2.77.09-3.61c.09-.52.57-.66.49-1.19h-1.11s1.07-3.18,1.07-3.18l-1.35-.82,1.35-.87c.03-.18-.64-1.64-.73-1.97-.14-.54.56-.82-.32-1.01.86-1.22-.25-1.47-.31-1.94-.16-1.07.45-.66,1.12-.71.26-.74-.44-.48-.5-.58-.09-.16.31-.48.18-.74-.07-.13-.98-.06-.21-1.51.15-.28,1.37-.33-.03-.92.47-1.59-.83-2.59.58-4.12l-.56-.27c1.26-1.39-.34-2.12-.49-3.38-.12-1,.95-2.15-.61-2.7.69,0,1.04-1.76.99-2.2-.03-.28-.47-.53-.45-1.09.03-.78.89-1.13.84-1.82l-1.1-.42c.56-.67,1.37-1.44.27-1.93.9-.53.1-.92.12-1.37.02-.72.48-1.35.42-2.2-.04-.57-.87-1.72-.82-2.48.06-1.01.95-3.47,1-4.71s-.54-3.39-.61-4.71c-.01-.28.38-.61.36-.82-.04-.47-1.31-1.55-1.31-1.66,0-.57,1.23-1.12.83-2.07l-1.1.27c-.17-.8.8-1.47.82-1.56.04-.16-.28-1.49-.23-1.62.04-.12.64-1.17.69-1.7.07-.65.15-2.44-.73-2.3v-.54c1,.13,1.17-2.49,1.1-3.16-.13-1.23-.4-2.26-.28-3.59.08-.92,1.4-1.49.58-2.53-.37-.47-1.18-.41-1.11-1.47.88.08,1.49-1.14,1.64-1.8l-1.1-.99c.5-.5,2.56.05,2.71-.08.54-.43.81-.66,1.35-1.04.5-.34,1.12-.02.91-1.1l.4.2c.59-.88,2.07-.42,1.25.9l.71-.56.65.26.29-.53.72,1.05,2.32-.22-.28-.54c.81-.12,1.27-.2,1.11-1.11.45-.12.16.38.33.48ZM227.64,9.05l-.16-.47c-1.09,0-1.28.8-1.59,1.02-.1.07-1.7-.17-2.16.75.64.84,1.26,1.03.58,2.24l.54.26c-.38,1.6-1.36,2.82-1.12,4.55l.83-.28c.72,1.93-.51,2.01-1.05,3.47,1.46.57.03,1.36.74,2.58l-.77.46c.18,1.33,1.08,1.18.79,2.73-.07.37-.42.67-.46.93-.11.68-.36,3.05-.1,3.45.18.27.64.32.84.61l-.82,1.11,1.1.83-.56.82.55.26c-.19.55-.84,2.31-.84,2.76,0,.17.44.17.56.35.47.69-.23,1.96-.83,2.43,1.84,1.16-.99,3.76.82,5.25l-.82.42c1.1,1.04-.89,4.23-.03,5.35.27.34,1.33-.15.83,1.11-.19.47-1.11.31-.79,1.27l.83-.28c.73,1.52-.2,1.27-.54,1.87-1.03,1.82.81,2.21.82,2.41-1.05.31-1.29,3.63-1.11,3.72.26.13,1.09-.15,1.39.42-1.19-.32-1.1.33-.41,1.24l.28-.83.68.28v-.83c.73-.07,1.74.71,2.13.77.47.08,1.33-.85,2.17.04l.68-1.08.27.55c.98-.96,1.74.11,2.61,0,.26-.03,2.08-.53,1.94-.84h.56s.41.56.41.56c.3-1.81,2.84-.54,3.56-1.14.03-.02-.2-.38,0-.67.97-1.3,3.04-1.62,3.26-1.87.07-.08,1.17-1.59,1.21-1.69.17-.4-.06-.74.04-.92.08-.16,1-.28.49-1.17.9-.53,4.01.81,2.49-1.94l1.93-.28-.57-1.21c.45-.85,1.75-.61,2.09-.99.29-.33.42-2.45.96-3.04l.55.55c.57-1.18.05-.75-.27-1.51.37-.67,1.34.24,1.82-1.8.15-.64-.47-1,.35-1.24-.64-.93.26-.65.45-.95.14-.21-.17-.63-.09-.92.26-1.01,2.38-2.96,1.35-4.51l.53-.25-.78-.83.79-1.8-.83-.14,1.11-1.66-.53-.25c.5-1.39-.61-2.76-.03-4.3h-1.1c-.04-.68-.16-1.56-.5-2.14-.27-.46-.89-.64-.9-.78-.04-.83.47-1.25-.55-2.32l.55-.27c-.88-.11-.9-1.27-1.93-1.13l.27-1.36-.83.28c-.31-1.42.36-1.87-1.35-2.34-.25-.07-.71.2-.82.11-.13-.1-.24-1.04-.72-1.39-.31-.23-.71.06-.97-.11-.33-.21-.5-.96-.84-1.13-.09-.05-1.26.56-1.94-.12l.55-.82c-1.52-.02-1.89-1.24-3.58-.86l-.02-.8c-.55-.17-1.33.38-1.76.25-.3-.09-.33-.57-.55-.72-.2-.13-.52-.04-.74-.27-.24-.24-.42-1.03-.6-1.14-.65-.38-2.33.56-2.45-.88-.6-.05-.78.76-.83.79-.38.22-.97-1.05-1.77.23-.89-.4-1.06-1.24-2.24-1.25-.77,1.75-1.64-.44-3.11.42Z"/>
  <path d="M89.37,3.25l.16-.47c1.36.18,1.63,1.43,3.06,1.37l.15-.84,1.21.24.17,1.14c.68.28,1.15-.79,1.22-.79,1.29-.02,1.98,1.3,3.6-.03l.55.81,1.4-.82c.28.82,1.22.27.97,1.38.68.16,1.19-.5,1.78-.52.44-.01,3.29,0,3.56.06.59.12.61.97.85-.07.58.29,1.35.35,1.97.27.49-.06.39-.45.62-.56,1.13-.51,3.55,1.28,5.03,1.09l.14-.83c1.22.17,1.18,1.29,1.26,1.36.76.69,1.41-.83,1.5-.81.86.2,1.01,1.78,2.35,1.1v.83s.83-.28.83-.28c.24.73-.39.47-.48.6-.17.24-.4,1.51-.53,1.89-.63,1.9-1.46,1.51-3.14,1.66l.28.55c-1.45.41-2.54-.35-4.02-.48-.92.13.35,1.54-.53,1.31-1.6-.42-2.11-1.62-3.93-1.55-.83.03-1.79.66-1.89.65-.24,0-.66-.99-1.61-.78l-.6.84-2.21-1.65-.44.8c-1.61-.96-1.7.46-2.05.58-1.18.39-.54-1.3-1.52-1.1v1.38s-.3-.52-.3-.52l-1.08.24-.43-1.11-1.37,1.11c-.93-1.47-3.1-1.12-4.52-.52.23.97-.16,1.75-.59,2.58.44.74.83.18,1.39.29-.22.36-.28.85-.4,1.17-.39.97-.97,4.34-1.12,5.74-.11.98.75,1.87.7,2.46-.04.49-.87,1.51-.85,2.21l.83.57c-.84.72-.23,1.51-.31,2.22-.04.34-.17,1.32-.22,1.6-.06.31-.57.26-.7.46-.56.82.58,1.55.58,2.36,0,.47-.47,1-.45,1.37,0,.16.45.13.52.29.28.68-.79,1.01-.8,1.13-.05.43.33.68.39.95s-.14.63-.03.76c.25.28.91-.33-.06.89,1.74.09-.45,2.35,0,2.77l.8.02c.27,1.16-.18,1.5-1.08,2.06l.53.16c-1.04,1.05-.05,1.7-.04,2.06,0,.21-1.35,1.03-1.03,2.74.07.39.46.68.5.9.08.47-1.52,1.97.33,1.74.21.88-.61,1.1-.94,1.68-.98,1.68.5,1.52.36,2.54l-1.34,1.72c.79.88,2.59,1.29,3.73,1.2.44-.03.7-.47,1.09-.49,1.37-.07,2.29-.22,3.62-.35.11-.01.97-1.31,1.65.33l.58-.82,1.89.56.28-.57c.45.22,2.67,1.08,3.01,1.06.53-.03.92-.73,1.43-.92,1.1-.4,1.15.6,1.42.68s2.65,0,2.87-.13c.27-.18.2-1.17,1.1-.55.52.35.32,1.47,1.78.71l.3.26c-.25,1.09.27.69.5,1.16.7,1.47-.89,1.33-1.15,1.64-.18.2.07.79-.08,1.02-.15.22-3.37,1.87-3.75,1.93s-1.07-.94-2.36-.23c-.51.28-.29,1.06-.65,1.13-1.06.19-1.27-.95-1.67-1.08-.68-.23-4.23-.71-3.7.78-1.19-1.24-2.59.04-3.41-.06-.47-.06-.86-.66-1.15-.67-.27-.02-.79.49-1.39.49-.97-.01-.84-.87-2.43-.03-.2.11-.16.54-.31.53-.71-.06-3.23-1.31-2.43.56l.35.15c-1.25.37-.14.99.27,1.51-.56.03-1.37,1.31-1.37,1.79,1.08.36.62,1.04.89,1.46.11.17.6-.11.48.33-.84-.13-.28.4-.35.49-1.38,1.86-.79,1.44-.91,3.69-.03.57-.48,1.65-.37,2s.67.3.79.62c.3.81-.79,2.49-.77,3.29,0,.07.69.16.65,1.09-.05,1.21-1.1.19-.97,1.24l.83.14c-.64.49-.25,1.06-.34,1.59-.14.84-1.01,1.62.62,2.14l-.55.28c.51.68.81.88,0,1.52l.84.58c-.59,1.53-1.28,2.82-.8,4.51l.79.16c.22,1.06-.47.95-.5,1.11-.02.1.24,1.77.29,1.94.07.22.98.38-.07,1.67l.5.18c-.45,1.02.27.69.34.95.28,1.19-1.05,3.95.27,4.65l-.5,1.11c1.05.38.67,1.53.89,2.15.4,1.08.93,2.14,1.27,3.24l.82-.28.05.77c1.65.19,1.46,1.82,3.27.73l.56,1.26c.88-.47,2.11.36,2.37-.57,2.02.43,4.05-.14,5.99-.31.9-.08,1.44-1.18,2.41-.5l-.27-1.38c.76-.04,1.58.72,1.79-.28h.56c.18.78,1.31.2,1.94,1.11.21-.94.67-.23.98-.42s.25-1.13,1.64-.69l-.55-2.48c.12-.13,2.07.45,2.42.49.83.08,1.92-.35,2.93.11.16.07,1.43,1.82,1.29,2.16l.82-.28c.52,1.16-.54,1.73-.56,1.84-.04.28.32,1.66.26,1.72-1.91.21-3.29,2-5.04,2.58-.3.1-3.2-.2-3.45,0-.87.68-.81,1.1-2.45,1.5-.62.15-1.96-.63-1.75.93-1.69-1.07-1.84-.48-3.3-.12-.61.15-1.33.08-1.89.31-.32.13-.28.59-.53.64s-4.53-.5-5.18-.57c-.44-.05-.88-.45-1.12-.44-.38.02-.92.9-1.52.73v-1.38c-.71-.26-.48.5-.73.56-1.37.31-1.35-.66-1.54-.75-.6-.27-2.21-.14-2.45-.23-.4-.15-1.06-1.38-1.92-1.24l.15-1.09-.44-.43c-1.5.22-1.13-.12-1.68-1.01s-.15-.71-.28-1c-.03-.06-.45-.07-.53-.25-.32-.73.1-1.11-1.11-1.65l.28-4.21c-2.9.05-.39-2.05-.55-2.62-.07-.28-.67-.26-.82-.64-.35-.91.19-2.14.27-3.1l-1.1.27c-.12-.73-.3-1.59.05-2.3.21-.41.74-.44.75-.59.02-1.18-1.1-.98-1.08-1.12l1.11-1.38-.83-.84c.76.13.59-2.45.51-2.56-.13-.17-.66-.17-.75-.49-.11-.42.62-1.9.54-2.43-.04-.25-.98-.34-1.01-1.15.17-1.02,1.12-1.8,1.14-2.88,0-.61-.72-1.24-.83-1.69-.08-.32.3-.5.29-.67-.05-1.04-.45-.91-.31-2.79.13-1.7.72-2.96-.67-4.13l1.12-.58c.33-1.24-.98-3.01-.32-3.87.37-.47,1.14-.09.79-1.28-.19-.65-.99-.55.06-.92-.53-.85.28-1.39.3-2.2.01-.5-.53-.35-.58-.59-.1-.44.14-1.06-.06-1.42-.08-.14-.69-.2-.77-.48-.11-.41.74-1.09.83-1.67.17-1.17-.89-1.62.55-2.19l-.51-.26c0-1.09.54-2.21.21-3.25-.07-.22-.43-.23-.45-.27-.07-.2.31-.92-.08-1.32l1.1-.43c.15-.8-.5-.03-.69-.4-.56-1.1.56-1.39.6-1.8.04-.33-.59-1.5-.41-1.91.17-.38.59-.36.7-.5.05-.06.32-1.4.31-1.48-.03-.28-1.03-.27-.69-1.1l.98-.44-.49-3.99c.68-.26.84-.78.8-1.5l-1.38-.14,1.03-1.39c.21-.64-.41-.72-.43-.82-.31-1.44,2.82-2.04-.6-2.48.06-1.46.95-1.14,1.13-1.41.21-.3.13-.92.27-1.29.09-.24,1.26-.51-.29-1.04-.12-.49.47-.18.55-.27.07-.08-.97-1.3-.27-1.93l-.84-.14c-.22-1.12,1-1.51,1.06-2.25.03-.46-.42-.78-.45-1.11-.06-.59,1.42-2.73-.06-3.82,1.2-1.51.8-4.39.5-6.29-.13-.83-1.25-1.45.62-1.59-.03-.82-.97-1.14-.85-1.79s.62-.55.76-.77c.54-.85.26-2.64-1.02-2.41v-.27c1.24,0,.4-2.04.58-2.59.24-.76.64.1.85-2.26.01-.16.3-.05.44-.27.05-.08-.47-.7,1.17-.69l-.55-1.1,3.27.49Z"/>
  <path d="M347.8,1.11c.17-1.75,3.07.05,4.02.55l.27-.56c1.02.19.94,1.46,1.15,1.67.55.55,2.87,1.34,3.69,1.38-.84,1.62.77,3.03,1.05,4.36.12.55.13,1.78.08,2.42-.03.32.14.62.21.92l-2.38,1.49c-.42,2.3-2.72,1.16-3.4,2.67h-.52c-.11-.96-1.97-.74-2.79-.82.24-.5-.1-2.48.08-2.71.14-.19.71-.24,1.01-.77.45-.8.54-2.18.6-2.29.08-.14,1.05-.16.8-.85-.69-.01-.71-.79-1.37-1-.47-.15-1.43.1-2.17-.02-1.26-.2-2.18-.67-3.69-.3-.59.14-1.31.94-2.16.77l.83.82-2.36.25c-.81.48-.36,1.11-.53,1.4-.44.71-1.21.22-1.24.28-.07.13-.02.78-.26,1.26-.36.72-.96.76-1.13,1.22l.57.17c.31,1.37-1.31,2.24-1.37,2.49-.16.59-.05,2.88-.49,3.9-.16.36-.6.3-.63.52-.14.87.27,1.99,1.09,2.45l-.56.97.83.14c-.8.65-.3,2.03-1.38,2.08v.27c.89-.01.7.74.55,1.39l.51-.24c.28,1.03,1.32,2.71,1.52,3.62.15.66-.36.71-.39,1.17,0,.08.99.28.57,1.25l.83-.28c-.21.71.43.75.58,1.25s0,1.66.04,1.73c.32.56,1.86,2.27,2.05,2.63.16.3,0,.79.13.97.08.1,1.22.3,1.61.75.31.36.24.89.3.95s1.06-.51,1.53.27l-.17,1.53c.68.61,2.1.32,2.21.43.06.06.02.81.13,1.11.03.09.72,1.49.77,1.57.14.24,1.61.67,1.74,1.45l.41-.55c.15.62.72,1,.29,1.64l2.2.57-.28,1.1c1.21-.6,1.2,1.02,2.36,1.38l-.42.69c1.19.42.61,1.08.96,1.8.16.33.87.57,1.21,1.01.38.49,1.09,2.19,1.2,2.26.25.16.7-.12,1.08.22.94.85,1.4,3.21,1.75,3.7.23.32.9.22,1.25.41.76.41.53,1.49.84,2.12.07.15,1.29,1.3,1.32,1.39.15.38.29,1.97.76,2.69.29.44.77.45.91.61.07.08-.2,1.8.05,2.16l1.1-.28c.14,1.09,1.13,2.92.78,4.02-.04.13-1.17.3.02.42l-.25,2.74h1.11c-.47,1.67-.03,3.02.11,4.66.08.85-.63,1.66.58,1.96l.13.42-1.36,1.68.53.52c-.99.57-.24,1.38-.34,1.91-.06.35-.66.57-.73.9s.77,1.53.77,1.62c-.02.27-.93.44-1.06.87-.14.46.26.96.19,1.3-.1.55-1.22.61-.28,1.41l-1.59,1.11c-.32.71,1.15,1.27,1.1,1.37-1.06.69-1.56,1.71-1.68,3.01l-2.07,2.38.43,1.1-1.13.19c-.35.71,0,1.66-.14,2.33-.24,1.13-1.69,1.76-2.44,2.75-.06.08-.91,1.46-.97,1.58-.17.34-.02,1.02-.36,1.38l-2.53.31-.42,1.3c-.26.07-2.14.07-2.2.16-.11.17.12.59-.21.79-.46.28-1.36-.08-1.86,0-.46.07-2.4.26-2.52.31-.13.05-.31.88-1.25.51l.27.54c-.34,0-.66.25-.99.29-.58.06-.38-.51-.79-.8-1.57.65-2.97.67-4.6.63-.56-.02-2.34.11-2.54.07-.49-.11-1.64-.89-2.23-.72-.23.07-.09.6-.59.58-1.31-.06-2.89-1.32-4.01-1.7l.27-.54c-1.58.05-1.46-1.15-2.32-1.82-.56-.44-1.26-.65-1.88-.98-.56-.29-1.63-.98-2.09-1.41-.16-.15,0-.59-.24-.78-.87-.68-1.98.39-2.04.3-.11-1.04-.12-1.34.82-1.8l-.82-.55c1.37-.8-.02-1.98.98-3.17.91-1.09,2.04-.03,2.98.32s2.57.91,3.52,1.47c.19.11.23,1.3.83,1.64.39.22.99.13,1.53.4.67.34,1.39,1.37,1.76,1.52.29.12,1.16-.04,1.96.29.62.25.97,1.07,1.17,1.16.71.31,1.98.62,1.59-.46.73-.27,1.21.53,1.29.54.9.17,4.07-.13,3.68-1.37.54.27,1.07.69,1.74.56.18-.03.17-.45.56-.6.91-.34,1.61.02,2.12-.12.31-.08,3.58-1.42,2.79-1.73,2.27-.46,1.41-1.48,1.96-2.46.26-.46,1.59-.51,1.81-.69.08-.07,1.1-1.71,1.13-1.81.5-1.48.28-1.93,1.25-3.29.12-.17.61-.37.71-.77l-1.1-.14c.02-1.82,1.44-2.07,2.44-3.23l.37-4.03,1.31-.78c-.06-1.04-.38-1.19-1.35-1.48.56-.73.57-1.19,1.66-.97-.62-1-.11-2.28-.28-3.13-.04-.21-.46-.17-.51-.32-.04-.12.3-.88-.04-1.24.42-.24,1.24.74,1.11-.14-.15-.99-.68-1.37-1.66-1.25l.29-2.47.81-.02c.38-1.15-.59-1.16-.76-1.42-.09-.13-.32-2.77-.35-3.1-.02-.21-.55-.15-.56-.32-.03-.56.45-1.71,0-2.59l-1.37-.02c-.09-.05.5-1.27.49-1.47-.02-.63-.64-.74-.67-.8-.6-1.49-.66-1.59-1.79-2.8-.64-.68-2.6-1.66-1.07-2.24-.49-1.63-1.66-1.36-2.9-2.07l-.11-2.06-1.14-.16c.31-2.01-.53-2.04-2.08-2.47l.15-1.67-.66.27c-.65-.7-.87-.63-.45-1.65-1.46.28-1.12-.63-1.67-1.23-.72-.79-2.02-1.48-2.52-2.33l-.78.25c.22-.92-.42-1.21-.74-1.84-.28-.55.52-.97-1.5-1.06.11-2.57-1.1-1.66-1.34-1.82-.09-.06-.16-.99-.58-1.24s-.98.31-1.39-.23c-.52-.68.15-1.42.02-1.54-.06-.06-.57.09-.76-.05-.4-.3-.04-1.91-1.73-1.61l.28-1.38-1.1.27.16-1.39-.99-.27c.82-1.48-.85-1.39-1.11-1.84-.33-.58-.11-1.86-.34-2.24-.08-.14-.55-.13-.71-.52-.42-1.02.06-1.71-1.44-2.44l.56-.28c.17-.62-.59-.34-.78-.86s.51-1.48.45-1.85c-.08-.46-1.07-1.65-.82-2.64l-.78-.04c-.1-.44.39-.12.54-.48.31-.74-.02-1.67.22-2.43l-.34-.4-.97.26c-.18-.11,1.02-2.74,1.06-2.97.24-1.3-.66-2.59.87-3.8l-.83-.27.03-.94.8-.03c-.52-.28-.33-1.79-.13-2.19.21-.42.83-.68,1.06-1.11.19-.34.44-1.61.74-2.26.2-.44,1.09-.7.83-1.87,1.52.29.87-.64,1.48-1.15s.97.24,1.05-1.29l1.32-.35c-.75-2.47.83-1.66,1.76-2.45.52-.45-.12-.93,1.77-1.36.65-.15,1.2.58,1.21-.26l.79.21-.55-.82c1.2-.63,1.65.13,2.76.27v-.83s3.03,1.11,3.03,1.11Z"/>
  <path d="M301.88,6.84l.19-.49c1.47.73,1.89,1.6,2.65,2.89l-.84,1.25c.49,0,1.21.1,1.1.83l-1.51-.56c-.16,1.09-2.46.82-2.58.9-.35.24-.17,1.02-1.52.67-.61-.16-.59-.92-.86.06-1.57-.62-2.88.29-4.16.54-1.01.2-3.46-.45-4.71-.49-1.83-.05-3.76.4-5.51-.03l-.29.58c-1.05-.63-1.96-.55-3.06-.03-.69.49.47,1.5-.66,1.4.35.84,1.16-.27.83,1.2-.06.27-.85.01-.56.73,1.89-.03.36.88.34.96-.67,2.11.47,3.38.22,4.65-.04.2-.46.16-.54.4-.14.46-.04,1.09-.3,1.58l1.11.14-1.11,4.41.8.03c.12.92.2,1.22-.8,1.08l.57,5.12c-1.05,1.69.39,3.33-.86,4.97l.87,1.09c-1.09,1.44-.08,3.04-.14,4.15-.05.84-1.06.65.38,1.37-.19.27-.46.57-.51.9-.36,2.33,0,5.08-.1,7.39-.02.51-.29.99-.22,1.52h1.11c-.24.58.14.75-.56.97l.96.89c.47-.07,2.09-.94,2.22-.95.3,0,.95.94,1.52.75l.41-1.38c1.52,1.54,2.76.66,4.44.58.32-.02.58.4.81.41.83.05,2.53-1.35,3.52-1.23.85.11,2.52,1.13,3.46,1.38-.08.59.45,1.44.32,1.99-.06.24-1.27.7.3,1.42l-.72.7-1.21-.56-1.3,1.66c-1.52-.15-1.69-1.53-3.21-.03l-.75-.25.2-.48c.23-.88-.71.1-.93.14-2.61.42-5.05.79-8.23.63-.44-.02-.82-.25-1.26-.28l.02.94-.85.17,1.38.69-.83.83.55.41c-.67.07-1.16,1.24-1,1.88.01.05.43.04.46.24.06.43-.48.94.27,1.34l-.57.29.57,1.38-.55.4c1.5.16-.22,1.92-.29,2.91-.1,1.4.57,1.83.58,1.94.07.58-.52.9-.51,1.32.02.81.13.95.09,1.98-.08,2.27-.24,5.69.69,7.2l-.28,1.5h.83s-.23.8-.23.8l.5.03-1.41,1.51c0,.58.76,1.95.74,2.21-.06.73-1.33,1.68-.13,2.48.37.25,1.27.11.55,1.34-.14.24-.6.12-.58.33.04.39.46.63.46.82,0,.13-.37.5-.41,1.03-.05.58.46,1.03.47,1.44.03,1.66-1.29,2.75-.49,4.64.09.22.51.13.56.62.06.66-.31,1.58-.24,1.91.04.2.9,1.53,1.02,1.77.11.21-.1.55.2.91.47.56,1.41.18,1.96.44.51.24.58.96,1.15,1.07s1.09-.26,1.49-.18c.28.05.26.7.63.83.72.24,1.24-.44,1.63-.44.43,0,.86.7,1.4.75s.87-.44,1.38-.55c.97-.2,2.01.88,3.16-.03,0-.48-.67-.87.14-.83,1.04.06,2.13,1.28,2.99,1.13.19-.03.28-.63.84-.88,1.02-.46,1.55.03,2.22-.06.45-.06,1.7-.71,1.91-.68.3.05.68.5,1.09.6.54.14,1.11-.21,1.47.16.1.39.69,2.52.64,2.64-.07.2-.48.09-.51.14-.17.21.87.53.27.97-.08.06-1.31.19-1.72.42-.34.19-.37.72-.67.8-.62.17-.76-.79-1.34.57l-1.62-.78c-1.02.86-4.22,1.51-5.6,1.52s-3.48-1.22-4.1.34c-.76-.19-2.42-.68-3.1-.72-.51-.03-.96.39-1.34.38-.17,0-2.71-.62-3.29-.75-1.89-.41-2.01-.56-3.28-1.55s-1.66.07-2.14-.21c-.44-1.1-.61-2.23-1.05-3.38-.35-.93-1.2-1.59-1.01-2.59l-.99-.4v-.79s.57-.31.57-.31l-.55-1.52.83-.14c-.99-.66.04-2.01-.26-3.03l-.85-.15c.72-1.11-.27-1.46-.29-1.55-.13-.65.76-1.69.55-2.41-.07-.23-.82-.14-.53-.87.15-.39,1.05-.24.83-.82-.28-.74-1.26-.04-1.38-.14.76-.85.44-1.82.61-2.54.18-.75,1-1.08.48-2.21-.13-.28-.8-.18-.54-1.14.06-.21.44-.21.55-.38.18-.29-.02-6.09-.11-6.71s-.61-1.1-.67-1.58c-.09-.64.43-1.54.22-2.29l-.82.28c-.46-1.92,2.15-1.67-.25-3.21.08-.74.31-1.08,1.08-.94l-.58-1.76.85-.58c-.94-1.23-.86-2.5-.25-3.85l-.85-.58c.15-.99,1.67-.49.9-1.25l-.63-.14,1.05-3.09c-.67-.77-.09-1.78-.22-2.37-.05-.24-1.41-.77-.28-2.12l-1.1.27c.43-.67.31-1.58.57-2.28.17-.47.89,0-.03-1.71,1.77-1.46,0-3.78-.2-5.04-.27-1.75-.03-4.73.08-6.45.12-1.9.68-2.67-.11-4.34-.24-.51-.03-2.67.08-3.38.12-.78.6-1.22.72-1.92h-1.38s1.1-2.07,1.1-2.07l-.77-.18c-.69-1.12.48-1.94.51-2.84.08-2.98-.93-4.28.19-7.11.52-1.31-.51-5.38-.14-7.27.01-.07.79-.29.43-1.11-.09-.19-.67-.01-.49-.54l.82-.84-1.1-.82.78-.83c-1.12-1.03-.74-2.43.32-3.32l-.55-.68c1.31-.07.75-1.06.83-1.1s1.4-.2,1.59-.2c.51,0,1.87.61,2.37.66.68.07,1.73-.28,2.21-.19.2.04.16.5.37.56.99.24,6.77.42,7.88.22.97-.17,1.62-1.01,1.73-1.01.55,0,1.93.7,2.22.68.95-.06,2.81-.46,3.86-.6.37-.05.95.26,1.39.16l.15-.84,2.7.76Z"/>
  <path d="M160.37,4.53s.18.67.58.23l.05.49.4-.55c1.11.74,2.62.46,3.88.35l.55,1.02.26-.54.92.33c.41.33,0,1.07.12,1.25.08.12.45.16.6.36.19.25.19.62.32.82.22.32.65,0,.94.13,1.13.54.08,1.15.08,1.38,0,.22.75.53.77,1.09.01.48-.63,1.05-.55,1.38.09.38.91.24.83.7-.87.41-1.23.69-2.21.28l.28.55c-.19.26-2.19.03-2.5.16-.48.2-.79,1.34-1.37.12l.55-.14c-.4-.91-1.33-1.25-2-1.8-.29-.24-1.01-1.28-1.09-1.31-.12-.05-2.53-.02-2.66.02-.32.09-1.41,1.45-1.51,1.49-.73.26-1.87.12-2.7.64l.28.82c-1.38-.09-.81.6-1.04,1.04-.65,1.24-2.88,2.59-3.95,3.87-.29.35-.27,1.05-1.09,1.31l1.1.42c.12.45-.38.19-.46.32s.14.46-.07.64c-.52.45-1.54.34-1.65.45s0,.71-.18,1.05c-.2.37-.74.69-.84,1.1-.11.51.51.92.4,1.09-.04.08-.86.7-1.07,1.28l.56.27c-.24.67-1.54,1.33-1.61,1.99-.03.25.84,1.27.21,1.74-.12.09-.83-.5-1.09.15l.56,1.09c-.35.4-.94.52-1.18,1.04-.5,1.08.39,1.85-1.05,2.05-.25.58.1,1.3-.04,1.81s-.8.9-.79,1.46c0,.09.89.15.56.83l-1.12.57.02.95,1.1.27c-1.48.38-1.2,1.63-1.5,2.64-.2.69-.88,1.11-.7,2.44.02.16,1.11.19-.01,1.55l.83.14c-.15.95-1.23,1.34-1.5,1.8-.71,1.2.28,3.25-1.54,4-.03.99,1.65.53.92,2.01-.23.47-.78.15-.64.74l1.1.69c-.84-.12-.26.48-.52.91-.2.32-1.2.86-1.41,1.45l.55.14c-.75.74-.24,1.09-.15,1.89.04.33-.19.75-.14.96.06.26.78.06.56.59-.14.32-.91.42-1.06.87-.12.36-.41,2.58.17,2.37l.07.9.83-.14v.55s-1.38.97-1.38.97l.85.57-.57,1.22h1.1c.12.46-.43.16-.5.4-.13.43.36,1.14-.6,1.39l1.1,1.66-1.38,1.66.82.55-1.1.69.85.71c.05.45-.75,1.38-.52,1.91.22.49,1.62.42-.35,1.68.88,1.37-.17,3.64,1.67,4.26l-.57.45c.39.63-.07,2.36.08,2.73.09.22.59.27.76.59.34.63.74,1.97.02,2.46.91.23.34,1.35.28,2.07h1.38c-.38.82-.94.92-.83,1.93.7-.15,1.57.23,1.63,1.01.07.97-1.57.09-.79,1.47l1.1-.27c.09.97-.37.9-.55,1.65h1.38c-.1.9-.36,2.71.13,3.52.32.52,1.26.7,1.4.9.2.29.05.78.2,1.04.09.15,2.23,1.44,2.35,1.55,1.03.86,2.11,2.45,3.46,2.99,1.43.57,3.71.44,5.17,1.34l.14-.84c.36-.06.69.03,1.04.09.46.08,2,.25,2.5.1.8-.24,2.29-1.73,3.15-1.8.41-.03.83.72,1.18.48.05-.03,0-.39.08-.42.33-.14.58.13,1.19-.37s1.69-2.23,2.42-2.58c2.3-1.1,2.91,1.22,5.18.92.07.07-.18,1.75-.29,1.99-.15.31-1.67,1.9-1.86,2.22s.02.95-.07,1.04c-.1.11-.86-.14-1.07.04-.12.11,0,.69-.3.93-.33.26-1.13.14-1.5.39-.46.3-.33,2.03-1.96,1.13l-.15.82c-1.68-.43-2.23,1.29-3.59.83v1.11s-2.21-.83-2.21-.83c.11.61-.09.95-.7,1.1-.76.18.08-.78-.68-.82l-.14.83c-.97.05-1.71-.86-1.92-.87-.79-.03-1.29.57-1.61.52-.55-.08-1.57-.53-1.76-1.06l-1.89.84-.42-.82-.3.52-1.18-.23-.18-.84-.69.55c-.81-1.95-1.6-1.46-3.11-2.12-.55-.24-.02-.87-1.13-.38-.24-1.39-1.15-.4-1.7-.66s-.56-1.47-.91-2.15c-.33-.64-1.51-1.86-1.92-2.49-.17-.26-.11-.87-.25-.99-.42-.35-1.73.38-1.33-1.7h-1.09c-.17-.16-.04-1.34-.15-1.67-.17-.52-.48-.44-.61-.64-.35-.52.39-.99-.92-.45v-1.38s.83-.14.83-.14c-1.67-.54-.26-1.8-1.39-2.24l.56-1.76-1.38-.42.56-.28c-1.69-.62.6-.9.55-1.1-.26-.97-2.12-.7-.54-1.38v-.55s-.82-.45-.82-.45c.62-1.18-.82-1.86-1.4-2.87l.82-.55-1.1-.42c-.24-.86,1.13-1.37.08-1.43.31-.61-.53-.8-.92-1.21,1.74-2.29.59-4.14.56-6.34-.01-.82.4-1.59.31-2.48-.05-.51-.53-.37-.58-.59-.33-1.44.8-1.39.85-1.65.19-1.05-1-1.31-1.1-1.66-.16-.55.44-1.15-.3-1.75,1.08-.15.86-2.17.27-2.9,1.49-.61.85-.51,1.18-1.58.1-.31.48-.58.48-.91,0-.41-.82-1.12-.55-1.8l-.55.28c-.46-1.04.55-1.4.57-1.79.06-.86-.43-.61-.51-.84-.29-.86,1.01-1.65,1.17-2.59.12-.74-.57-1.2-.59-1.55-.03-.47,1-1.21.99-1.93,0-.5-.52-.89-.52-1.62,0-1.08,1.26-1.54.76-2.8-.16-.4-1.09-.12-.47-1.21l1.35-.03-.55-.41.55-.27c-1.13-1.1.72-2.36-.79-2.67l-.05-.37c.42-1.38,1.5-1.95,2.22-3.06-.64-.22-.84-.87-.71-1.53.17-.86,1.24-.36,1.23-1.19,0-.67-1.04-.96-1.07-1.14.37-1.3,1.93-.44,1.09-1.92.64-.15,1.5-2.58,1.4-3.03l-.58-.31c-.02-.65.98-1.52,1.09-1.99.13-.6-.83-1.15-.24-2.01l.82.28c-.02-.93.09-2.12.5-2.96.37-.75,2.11-1.79,1.68-2.53l-.78-.45c1.43-.48,1.33-1.72,1.79-2.35.24-.34.93-.27,1.12-.53.16-.21-.63-1.56,1.1-1.66-.08-.44.69-2.18.98-2.62.38-.57,1.2-.16.53-1.26h.83c.27-.72-.47-.47-.5-.68-.15-1.09.6-2.72,1.88-2.36l-.2-.49c.79-.16,1.14-1.4,1.38-1.64.1-.1,1.82-.66,2.1-1.22.07-.14-.33-.61-.23-.76.14-.21,1.31-.39,1.4-.46.36-.3-.31-1.43,1.64-.67.32-.64-1.13-.85-.83-1.1.61-.51,1.76,0,2.49-.11,1.19-.19,3.03-1.82,3.22-1.84.38-.03.76.3,1.04.3.16,0-.07-.88,1.47-.46Z"/>
  <path d="M195.19,5.04c.06.03.05.38.28.47,1.28.5,1.62-.12,1.73,1.95l1.37-.27c.44,1.12-1.26,2.06.02,2.35l-.57,1.11.55.27c-1.54.88-1.62,1.95.26,2.37l-.26,1.64c.86-.4.8.21.7.84l-.99.41c.55,1.17-.24,4.27.29,5.18.16.27.81.08.54.87-1.41.61-.58,1.91-.4,3.04.04.28-.22.71-.15,1.06.03.14.96.23.3,1.65-.1.21-.57.17-.56.32.04.43.71,1.32.7,1.95-.01.86-1.09,1.89.4,2.49l-.53.16c.71,1.25-.71,1.96-.58,3.28l1.38.29c-.25.87-.46.95-1.38.83,1.01.99.98,2.81,0,3.86h.83s-.27.81-.27.81l.54.16c-.82.2-.3.51-.5,1.13-.38,1.2-1.36,1.7.5,2.18-.79.18-.12.81-1.04,1.01l.45,1.71c-.05.27-.51.47-.63.75-.75,1.79.03,1.2.12,1.54.19.73-.01,1.45-.82,1.49.45,1.12.79,1.21-.02,2.33.8.34,1.13,1.1,1.14,1.96,0,.41-1.57,1.27-.29,1.67l.02.53c-.04.56-.87.35-.58,1.24l1.11.14c-.24.62-1.28,1.1-1.39,1.65-.19,1,.66,2.3-.27,2.08l1.38,1.23c-.14.75-1.35,1.25-1.39,1.44-.22,1,.72,3.41.29,4.04-.2.29-.78,0-.56.74,1.01-.21.86.45,1.12,1.23l-.57.16c-.11.49.44.18.53.29.14.17-.53,1.15-1.09.81,1.22,1.08-1.2,4.91,1.11,4.97v.55s-.56.14-.56.14l.56.28-.84.14-.27,4.14,1.38.27-.83.28.4.27-1.51.84c.17.63.84,1.75.81,2.35-.04.87-1.81,2.09.02,2.75-.9.74.74,2.64-1.38,2.77.05.58.87,1.02.78,2.01-.06.68-.47,1.14-.48,1.57-.02,1.13.48,2.42.74,3.32.27.97-.37,2.28-.21,3,.05.21.56.18.58.33.05.49-.38.78-.42,1.1-.06.47-.23,2.4.4,2.06-.86.84-.03,1.61,0,2.64.04,1.3-.2,2.68-.28,3.98l1.38.14c-.34,1.05-.5.99-1.38,1.39l.57.29c-.29.8-.34,1.99-1.4,2.07l.55,1.1-2.5.19c-.65-.7-1.54-.98-2.25-1.59-.19-.17-1.33-1.44-1.34-1.54-.07-.54.43-.95.5-1.41.03-.18.1-2.41.03-2.52-.06-.09-1.29-.33-.75-1.1.08-.12.63.16.5-.3l-.57-.18c-.15-.6.32-1.21.3-1.6,0-.08-1.05-.31-.5-1.21.23-.38,1.08-.1.44-1.67l-.78-.04c.16-.47.54-1.05.56-1.55s-.53-.33-.56-.55c-.09-.68.21-2.78.55-3.42h-1.11c.12-1.06.64-1.65.83-2.76l-1.11-.14c.81-.17.34-.91.57-1.63.6-1.81,1.41-3.7.8-5.79-.06-.21-.53-.18-.55-.33-.08-.55.98-1.61.57-2.33-.03-.06-.81.39-1.06-.41l1.45-2.68c-.15-2.82,1.47-6.03.5-8.64-.19-.52.73-1.54-.33-1.66l.56-.27c.25-.81-.62-.54-.59-1.1.03-.49.2-.81.58-1.11l-.55-.27c.6-.35.79-1.8.48-2.3-.09-.15-.6.13-.48-.32,1.52-.1-.29-.84-.29-1l.3-.94,1.1.13-.59-3.13c-1.47.25-.37-1.14.61-1.31l-.02-2.04h-1.38c0-.89.75-1.38.93-1.97.53-1.71.6-4.6.83-6.57.23-1.86-.66-2.27-.67-2.4,0-.36.41-.92.47-1.41.23-1.99-.25-4.11.1-6.16h-1.38s1.1-1.65,1.1-1.65l-1.11-.14.71-.99,1.23.02c-1.2-1.05-.19-2.46-.46-3.25-.14-.42-1.48-1.01-.73-2.49.24-.46.69-.17.64-.62l-.83-.28h.55s-.53-.39-.53-.39c.14-1.23,1.35-1.52.55-2.81l.51-.23-.27-1.37.56-.45-.52-.03.24-2.01.56-.32-.83-.14c.44-1.15-.56-2.31-.41-3.46.07-.56.94-1.61.84-2.48-.04-.34-.52-.77-.59-1.23-.14-.89.51-3.23-1.22-3.07v-2.2s.83,0,.83,0v-.4c-.86-.63-.22-1.54-.32-1.93-.06-.25-2.36-1.29.59-1.54l-.28-1.65,1.27-.27-.16-.83,2.42.07Z"/>
</svg>