<?xml version="1.0" encoding="UTF-8"?><svg id="Layer_2" xmlns="http://www.w3.org/2000/svg" viewBox="0 0 289.48 107.99"><g id="roasted_pork"><path d="M15.14,18.67c.17.08,1.11.84,1.25.83l.45-.54c.06.83,1,.37,1.17.87.55-.38.41.13.54.18.05.02,1.04,0,.9-.34l.56.36-.09.52,2.33.92-.36.36.63-.36c.34.56,1.15.18,1.37.27.57.25.44,1.56,1.42,1.55l-.17.53h.64c.08,1.04.48,1.12.99,1.76,1.01,1.26.64.8.73,2.1.04.56.46,1.18.34,1.81l.55.11c-.36.68.11.5.14.63.07.27.19,1.1.1,1.31-.08.2-.34.15-.44.5-.16.56.15.81.1.99-.04.16-1.02,1.24-1.24,1.65-.33.61-.59,1.92-1.19,2.25-.31.17-.66-.25-.9.17l.27.45c-.31.92-1.01-.13-1.72.54l.54.9c-.88.7-1.61-.62-1.45.63l.72.09-.18.9c.38-.22.63-.42,1.06-.15l.21,1.23c.65-.57,1,.72.86.89-.08.09-.4-.1-.32.2h.71c-.14.76.46.49.75.85.74.92.04,2.29.85,2.8l-.13.32c1.46.07.44,1.44.57,1.9.04.15,1.22.91.87,1.53h-.54c.47.59.12,1.82.21,2.26.03.15.31.13.41.27.12.18-.37.36.47.46-.53.13-.21.32-.33.74-.31,1.09-.66,1.47.26,2.51l-.66.72c1.08.51-.11,2.05.02,3.09.06.48.38.9.35,1.23-.03.3-.37.47-.36.89.01.44.23,1.55.72,1.65-.19.45-.41.59-.9.64-.07.47,0,.46.36.62l-.45.63-.54-.53-.53.71c-1.05-.47-1.86-1.04-2.81-1.62.69-.6.32-.8.35-1.52.02-.6.58-.91-.35-.83v-1.08s.36.18.36.18v-1.44s-.54-.18-.54-.18c.62,0,.46-1.3.56-1.88s.74-1.83-.03-2.19c.54-.66.05-.67,0-1.25-.08-.8.54-1.6-.53-1.55l.36-.36h-.54c-.26-.6.55-.94.55-1-.03-.27-.29-.39-.33-.58-.09-.37.4-.51-.22-.68.53-.71-.27-1.51.01-2.5-.08-.35-.96-.07-.6-.62-.59-.23-.47-1.12-.49-1.67-1.37.4-.57-1.07-.72-1.26l-.67.24c-.31-.11-.59-.9-.96-1.06-.12-.05-.92.56-1.35-.62-.22.73-.99.61-1.59.32-.24-.12-.24-.39-.45-.49-.52-.25-1.3-.01-1.62-.13s-.2-.7-1.31-.24v-1.8s-.54.18-.54.18c-.1-.52.03-1,.51-1.25.12-.06.42.04.54-.04.22-.14-.11-.99.54-1.23.48-.17.83,0,1.12-.1.64-.2.75-.91,1.88-.45.09-.4.61-1.07,1.01-1.19.37-.11.6.07.91.01.33-.06.68-.76.75-.79.29-.11.69.21.99-.08.51-.49.09-1.65.95-1.4l-.36-.27c.49-.13.39-.35.37-.81,1.12.35.48-1.34,1.45-1.08-.4-.4.45-2.35.35-2.51-.35-.1-1.06-.58-1.24-.87-.48-.79-.8-2.08-1.49-2.69-.06-.05-.26.06-.41-.05-.29-.22-.13-.76-.62-.38.31-.26-.78-.98-.87-1-.26-.04-.55.14-.81.1-.14-.02-.11-.28-.21-.32-.21-.09-.8.15-.82-.58l-.72.54c-.03-.35-.27-.63-.56-.8-.62-.38-.94.23-1.09-.8-.11-.07-.78-.07-.94-.03-.18.05-.03.51-.39.36-.32-1.11-2.11-.19-1.9-1.26-.76.07-1.62.28-2.34,0-.27.78-.37,1.61-.34,2.44.01.27.3.45.32.71.03.45-.4,1.54-.32,1.99.06.36.42.59.34.99h-.54s0,.18,0,.18c.39-.03.36.01.22.33.91.23.17,1.15.14,1.84h.54s-.55,1.16-.55,1.16c1,.44.26.98.26,1.28,0,.15.44.48.3.81l-.55.45.53.53c-.38.64-.26,1.22-.17,1.91l.36-.09v.99s-.53.01-.53.01l.03.5.69.21c-.25.37-.55,1.05-.02,1.16l-.15.71-.55.21c.93.56-.07,1.52.38,2.42l.52.11c-.17.57-.1,1.03-.72,1.26l.55.09-.32,1.9c.01.08.23.08.25.13.28.77-.02.52-.17,1.22-.07.34-.34,2.19-.27,2.31.26.42.81-.08-.04,1.21.79.29.03.87.02.93-.07.41,0,1.31.52,1.42l-.72,1.71c.31,0,.72.04.73.45,0,.14-.25.06-.3.15-.31.61,0,1.22-.23,1.84l.34.17c-.11.13-.47,1.01-.47,1.08.04.44.63.78-.07,1.27l.69.3c.16.57-.78.67.03.7.03.31-.73.78-.73.84-.05.51.49.95.18,1.73-.06.16-.35.15-.34.22.1.78,0,.85.03,1.24.01.19.27.39.26.57-.02.68-.81.6-1.16.77s-.43.66-.86.77h-.27c.35-.52-1.44-1.2-1.44-1.35.77-.82.08-2.06.37-3.06-1.13-.16-.23-.57-.06-1.14.19-.66-.44-1.77.21-1.92-.28-.99.19-2.23-.49-3.08l.69-.54-.52-.11c-.44-.85.06-1.47.12-2.09.13-1.42.16-4.72-.31-5.79s.37-1.31.36-1.56c-.01-.65-.36-1.51-.21-2.26l-.53-.1.31-.18.41-.81-.72.09.91-1.62-.36-.2c.31-.59-.25-1.23-.29-1.61-.06-.48.65-.39.47-.72l-.53-.29.5-1.53-.51-.26v-.26c.6-.41.93-1.47.09-1.71l-.09-.28c.97-.27.16-1.13.24-1.54.07-.34.42-.48.43-.63.01-.14-.25-.35-.25-.54,0-.76.69-2.05-.06-2.9l.34-.17c-.45-.73.82-1.63-.16-1.99.65-2.36.15-4.23,1.28-6.63.5-1.07,1.48-.17,1.63-1.03.87.65,1.48.05,2.27,0,.45-.03.82.17,1.33.1.7-.1.9-.61,1.73-.22Z"/><path d="M43.55,19.88c.4.39.22,1,.31,1.25.16.45.95.88,1.06,1.08.17.28.01.66.13.86.08.14.87.28.69.94l.54-.18c.07.07-.24,1.24-.16,1.5.06.21,1.59,1.02.16,1.03.28.25.17.88.23.99.28.61,1.12.29.71,1.64-.08.26-.31.25-.35.35-.25.64.31.59.42.98.1.35,0,1.02.1,1.51.24,1.24.47,2.25.83,3.28.11.31-.04,1.79.04,1.9l.54-.18c-.52.86-.56,1.59-.49,2.57.02.27.52.33-.05.85.7.05.86,1.62.83,2.23-.02.42-.58,1.15.07,1.29l-.36,1.18.72-.18c-.13.23-.05.59-.19.79-.36.5-.81-.01-.17,1.01l-.36.18c.62-.09.1.68.7.8l-.52,1.45.72.46-.34.09.04.46-.24.17.32.03c.16.56-.6.89-.65,1.17-.04.21.61,1.82.3,2.83-.07.24-.91,1.05-1,1.26-.08.17.1.39,0,.61-.28.62-1.6,3.13-1.48,3.56.09.3.57.16.53.47l-1.26.18.36.27c-.21.51-.89.52-1.06.66-.08.06-.31,1.79.15,1.96-.48.14-1.03.19-1.49.41-.56.26-.81.93-1.4.86l.18.36-.52-.16c-.33,1.04-1.75.37-2.53.68l-.92-1.17-.45.24c-.45-.14-.24-.67-.55-.85-.4-.24-.78.07-.95-.03-.1-.06-1.08-1.63-1.29-1.88-.23-.28-.69-.44-.81-.62-.24-.36.57-2.22-.8-2.61.25-.58.42-1.2.24-1.82-.28-.98-.87-.52-.99-.63-.13-.12.28-1.33.3-1.68.01-.33-.03-1.59-.47-1.39v-.18c.53.1.13-.49.53-.82l-.89-.55.36-1.7-.72.18c.57-1.61.13-3.37.33-5.03l-.7-.21.36-.82-.35-.16c.21-.35.02-.91.52-.83l-.35-.25,1.07-2.9-.36-.36c1.24-.52.13-1.4.54-2.44h-.54s.72-1.44.72-1.44c-.21.08-.73.17-.72-.18l.9-.82-.54-.09c.29-.71-.08-1.64.09-2.34.09-.38,1.27-.6.1-.54-.34-.88.7-1.26.82-1.79.06-.29-.31-.99-.25-1.19.03-.11.29-.09.38-.32.25-.63-.25-1.42.31-1.85l-.36-.27c.46-.05.94-.77.91-1.17-.01-.2-.46.03-.37-.28,1.02-.13.75-.7,1.07-1.19.19-.28,1.55-1.08.56-1.43.26-.72,2.64-1.31,3.13-1.89.15-.18.13-.32.13-.54.16-.15,3.39.86,3.95.37ZM40.9,24.5c-.24-.19-.23-.64-.87-.66l-.43.09c-.23.14-.57,1-.64,1.3-.12.47-.05,1.28-.15,1.69-.17.69-1.36,1.7-.11,1.98v.17c-.33.03-1.06.77-1.06,1.02-.01.58.69.22.7.61-.54-.07-.18.2-.29.53-.09.27-.54,1.3-.54,1.37,0,.23.52.55-.25,1.08,1.32.32.25.77.05,1.49s.31.83.32.88-.04.98-.06,1.03c-.15.54-.78.42-.85.49-.11.11.49,1.7.18,2.04l.37.2c0,.38-.68.72-.5,1.14.02.05.49.09.27.8-.3.97-.58,1.65-.68,2.75-.02.21,0,.42,0,.63l.53.08c-.08.67-.89.72-.54,1.41.05.1.28.13.3.17.28.74-.07,1.02-.05,1.46.04,1.1.64,2.13.3,3.19h.55s-.36,2.71-.36,2.71l.72-.18c.05.87.24,1.23-.18,2.16.26.09.15-.72.54-.36.12.11.16,1.11-.03,1.23l-.5.12c.47.36.5.92.72,1.41.09.21.51-.08.18.84,1.09-.96.61.69.88,1l1.56.44-.18-.54c.96-.32,1.42-.48,2.07-1.39.39-.54.82-2.85.97-3.09.08-.13.98-.75.98-1.03,0-.09-.27-.32-.31-.55-.12-.85.32-1.22.55-1.96-.02-.18-.95-.07-.17-1.27.14-.21.46-.26.49-.31.03-.06-.13-1.06-.14-1.32,0-.36.35-.88,0-1.1l-.73-.08c-.07-.31.25-.11.32-.2.04-.05-.11-.26-.07-.39.05-.18.23-.32.25-.44.04-.23-.68-.86.22-.96-.44-.45-.2-1.08-.13-1.67.05-.48.05-3.36-.05-3.8-.03-.14-.34-.05-.38-.38-.06-.51.19-1.08.14-1.43-.06-.44-.62-1.25-.31-1.92h-.54c.36-.45-.16-.34-.19-.48-.07-.39.2-.72.51-.89l-.05-.46-.63-.18.37-1.33c-.68-.19-.2-.57-.27-1.01s-.34-.95-.29-1.44l-.54.36c-.19-1.08,1.69-1.95-.18-2.36l.12-.31-.31-.12c.23-.29.4-1.28.35-1.61-.01-.08-.99-.73-.53-1.37h-.55s.14-.33.14-.33c-.7-.1-.48-.81-.59-.95-.12-.16-.35,0-.41-.05Z"/><path d="M217.5,23.51c.1.19-.04.54.07.66.08.09.61-.03.6.39l.18-.36c.3.23.94.57,1.09.91.22.49-.16.88-.07,1.04.03.05.29.08.4.23.17.23,1.01,1.29,1.03,1.37.05.21-.14.54-.09.8.15.79.73,1.25.46,2.12l.71.2c-.25.25-.19.96-.29,1.09-.14.19-.6.08-.44.63.02.07.37.09.38.19,0,.24-.61,1.63-.56,1.7l.72.36c-.68.09-.01.81-1.08.36.33.76-.09.85-.26,1.26-.07.17.1.37.04.5-.15.31-1.22.7-.14,1.4-.23.39-.76.6-1.02.88-.11.12.01.57-.42.48-.08.3.23.12.32.21.18.17-.88,1.66-1.07,2.01-.25.47-.07,1.15-.87,1.21l.36.36c-1.25.26-.85,2.38-1.99,2.35v.27c.64.7,1.22,1.42,1.81,2.17.29.37.37.36.71.9.23.37.67.35.37.99l.63-.36c.48.15-.02.97.1,1.07.03.03.32-.04.53.14.31.26.64.73.74,1.13l.53-.18c-.24.87.87,1.33.97,1.8.06.27-.12.63-.07.73.03.05.61-.25.9.45l-.36.45.53.02c-.11.44.38.97.62,1.45.13.26.14.56.26.82.35.74.97.76.57,1.68l.54-.18.03,1.34-.57.2c1.22.48.85,1.52,1.14,2.22.07.17.99.86.86,1.2,0,.31-.14,1.11-.3,1.35-.35.54-1.49.4-1.35,1.28l-.18-.54-.81.37c-.4-.77-1-.55-1.54,0l-.14-.83.5-.26-.55-.9-.35.18c.08-.34-.18-.73-.17-1.01.03-.63.93-.37-.52-1.01.15-.49-.02-1.56-.22-1.99-.12-.24-.68-.31-.54-.86l-.35.17c-.11-1.39-.09-2.21-1.09-3.34-.34-.39-.91-.7-1.16-1.01-.32-.41-.35-1.11-.52-1.37-.13-.2-.69-.3-.9-.82-.18-.45-.04-.96-.3-1.32-.13-.19-.54-.29-.74-.53-.39-.47-.8-1.66-1.44-1.17.16-1.11-1.36-1.04-1.42-1.12-.1-.15.01-.58-.32-.66l-.79-.02c.22.79-.07,1.62.16,2.44.1.34.39.24.4.54.02.56-.38.83-.38,1.09,0,.23.29.81.26,1.44-.02.33-.4,1.37-.39,1.44.02.18.33.28.4.54.12.42-.22,1.07-.21,1.26.02.31.38.5.41.73.05.35-1.3,1,.06,1,.05.27-.28.88-.28.99,0,.21.27.51.29.91.02.29-.17,1.71-.3,1.9-.3.45-.84.18-.43,1.07-.61.05-1.19-.34-1.69.17-.34.36.24.83-1.02.37l.36-.9c-.54.33-.57-.07-.91-.24-.32-.16-.56,0-.7-.77-.1-.54.32-.93.32-1.23,0-.93.05-1.18.13-2,.03-.3-.39-.79-.29-1.24.04-.18.65.08.08-.82-.09-.14-.38-.15-.43-.31-.02-.05.16-.94.2-1.02.17-.29.7-.3.45-.99-.01-.04-.31-.04-.31-.13,0-.25.33-.54.31-.9-.01-.28-.3-.49-.26-.68.13-.65.36-.09.06-1.13-.08-.27.43-.52-.45-.45.06-1.02.78-1.48.73-2.59l-.73-.29.36-.18c-.84-.77-.09-1.65-.07-2.25.01-.31-.33-.68-.29-1.08.05-.44.73-.65.04-.66l.15-.41c-.76-.33.02-.76.15-1.15.14-.44-.38-1.55.22-2.03l-.56-.46c-.04-.47.39-.58.48-1.01s-.24-.68-.26-.97c-.03-.43.5-.74-.2-.91,1-.72.17-1.02.17-1.09-.01-.27.38-.79.38-1.25,0-.09,0-.18,0-.27h-.54c-.06-.05.52-.76.55-1.01.06-.51-.29-.71-.3-.89s.28-.43.29-.73c.03-.92-.12-2.78.04-3.6.07-.38.48-.85.51-1.09,0-.09-.29-.07-.37-.21-.45-.77.24-.84.33-.98.03-.05-.24-.61.22-.79l-.36-.09c-.23-.45.36-.31.37-.47.03-.3-.3-.68-.18-1.03.02-.06.79-.81.85-.83.44-.18,1.19-.04,1.63-.13,1.57-.34,1.96-.35,3.53-.48.21-.02.44-.26.57-.25.17.01.33.4.58.47.32.09,1.79-.3,2.18.42ZM213.88,26.05c-.19-.09-.37-.08-.57-.05-.21.61-.33.13-.74.18-.45.05-.88.22-1.35.2-.14.95-.47,1.94-.33,2.91.11.78.7,2.39.67,3.14-.02.44-.6.52-.53.98h.72c-.12.68-.22,1.06-.91,1.35.82-.02.64,1.13.63,1.81,0,.4-.37.31.29,1.08.07.35-.44.36-.51.49-.14.24.06.84-.2,1.15l.33.15c-.15,1.08-.27,2.13.02,3.17l.36-.18-.36,1.63c1.59.1.82-.39.89-.97.01-.11.29-.11.31-.16.03-.08-.1-.23-.07-.27.18-.26,1.14-.91,1.18-.97.02-.04-.15-.33-.02-.63.16-.38.78-.93.85-1.14.08-.24-.16-.53-.06-.7.13-.22,1.29-.52,1.07-1.54-.98-.41.24-.84.41-1.24.11-.27-.12-.59.03-.86.07-.14.85-.87.99-1.22.55-1.42-.04-1.59.06-2.48.06-.49.39-1.23.32-1.62-.03-.18-.34-.04-.49-.14-.54-.4-.23-1.33-.46-1.9l-.87-.22c.34-.44-.08-.3-.24-.58-.13-.21-.3-.79-.34-.83-.13-.1-.57-.06-.83-.16-.21-.09-.21-.35-.26-.37Z"/><path d="M63.76,19.44s.04-.2.06-.28l.25-.02c.2.84,1.21,1.14,1.49,1.49.26.32.46,1.27.57,1.45.12.19.43.21.56.39.23.3.17.75.69.86l-.15,1.23.54-.18-.18,1.44h.54c.1.08-.37,1.08-.37,1.17,0,.15.29.06.33.18.05.14-.11.67.09.95.08.12.48.18.49.31,0,.1-.46.53-.48.73-.01.22.38.63.45.95.08.4-.04,1.31.03,1.72.03.18.96.41.18,1.29l.54.29c-.85.88-.05,1.51-.06,1.88,0,.14-.33.35-.31.71,0,.09.27.1.35.24.47.85-.09.75-.1.8-.03.1-.24.9-.25.95,0,.15.29.05.34.18.09.25-.24,1.72-.16,2.17l.55.1-.36.18.36.45c-.78.23-.59,1.42.19,1.45l-.37,1.08.36.18-.36.63.72.27c.16.68-.44.33-.72.72.32.35.38.8.56,1.22.06.14.28.14.31.23.09.3-.79,1.31.22,1.99l-.54.63.72-.36-.54,1.99.54-.18c-.3.68.2,1.6.17,2.09-.03.58-.79.4.19.89.24.54-.52.54-.53.72,0,.06.23.25.26.43.05.35-.3.48.28.65-.53.41-.12,1.54.54,1.36l-.54,1.26c.39-.28.39.08.72.3.08.68-.47.94-.5,1.05-.12.37.02,2.49-.07,3.02l-1.07,1.39c-.47-.26-1.04-.24-.89-.89l-.54.18.1-.73c-.65-.08-1.05-1.02-1.28-1.62-.16-.41.26-1.05-.64-.9l.18-.9h-.54c.53-.81-.13-1.65.54-2.35l-.71-.49c-.05-.38.26-.79.3-1.09.05-.45.15-1.58-.31-1.58.23-.09.37-.74.32-.9-.02-.06-.56-.36-.6-.98-.02-.27.27-.39.29-.64,0-.05-.53-.24-.55-.74l.35-.26h-.54s.66-1.53.66-1.53c.04-.64-.8-.48-.83-.73l.09-1c-.11-.2-3.5-.16-3.89-.53l.18.72c-.6.08-.76-.03-.99-.54l-.18.55c-.86.17-1.9-1.68-2.26-.36h-.17c.04-.78-1.25-.09-1.81-.36.67,1.32-.02,1.57-.27,2.53-.3,1.13-.32,3.06-.44,4.25-.3,2.86-.49,5.66-1.15,8.39-.31,1.26-.69,2.11-1.21,3.25h-1.44c.09-1.27-.23-2.82-.11-4.04.07-.73.81-2.46.64-3.07-.03-.12-.88-.37.02-.75v-.27s-.36-.09-.36-.09l.54-.72-.55-.37c.02-.43.5-.68.55-1.09.06-.49-.25-.64-.29-.89-.02-.18.59-1.77.62-2.15.05-.67-.15-1.92-.09-2.45.07-.63,1-1.94.11-2.26.5-.47.27-1.72.4-2.29.06-.27.47-.74.5-.97,0-.06-.2-.07-.22-.1-.45-.71.42-.61.41-.81-.02-.27-.48-.74-.37-1.22.04-.14.3-.14.35-.27.25-.67.36-.7.51-1.06.04-.09.22-.97.22-1.04,0-.11-.33-.09-.36-.22-.24-.9.51-.9.55-1.09s-.15-.63-.03-1.05c.34-1.15.71-2.22.92-3.44.06-.32.06-1.64-.36-1.6.28-.48.7-1.16.9-1.66.34-.85.25-1.85.73-2.68.07-.15-.25-.03-.32-.17-.39-.86.47-.59.5-.64.27-.4-.39-.36-.36-.45.69-.71.68-1.62,1.07-2.36l-.35-.35c.65-.57.67-1.6,1.45-1.99l-.36-.18c.51-.14.68-.86.76-.94.15-.16,1.02-.22,1.19-.46.1-.15,0-.45.04-.49.02-.03.4.18.64.19s.52-.13.72-.1c.33.04.95.57,1.49.22ZM62.85,23.7c-.1-.08-.8-.26-.92-.24l-.29.48c-1.03-.28-.43.59-.71,1.03-.12.19-.48.23-.56.4l.38.2c-.27.43-.04,1.05-.11,1.36-.11.5-.8,1.18-.92,1.9-.08.47-.03,1.75.26,2.14l-.85.72c.88.75.04,1.15,0,1.29-.11.39,0,1.71-.13,2.24-.15.63-1.43,1.4-.07,2.07l-.2.44-.7.02c.59.52-.19,1.3-.27,2-.04.36,0,.71.27.98l-.35.16c.46.71-.26,1.16-.56,1.73,1.55.51,3.21.02,4.8.32l.44-.49c-.08.59,1.44.33,1.85.16.13-.05.13-.31.27-.34.35-.08.77.03,1.14,0-.55-.74-.3-1.85-.18-2.7h-.72s.54-1.62.54-1.62h-.54s.52-2.71.52-2.71c-1.27-.06-.18-.74-.18-.81-.02-.54-.34-1.42-.33-1.98,0-.66.51-1.99.11-2.78-.06-.12-.78-.28-.49-1.03l-.36.09c.26-.38-.13-.8-.11-.99.01-.16.29-.31.26-.51-.03-.19-.45-.56-.57-.84-.21-.51.06-1.08-.27-1.74-.11-.21-.34-.83-.44-.92Z"/><path d="M230.54,22.75c.05.45.47,1.13.75,1.52.15.21.53.29.53.39,0,.46-.89,1.44.53,1.53l-.34,1.33.25.24.45-.13c.09.73-.08.82-.72.99.35.43.61,1.5.64,2.06.02.31-.35.46-.28.55.02.02.24-.03.32.05.03.04.2.91.21.96.03.45-.28,1.11-.27,1.26.01.25.34.56.29.63-.05.06-.44-.14-.36.18.7-.23,1.17,1.13.18.91-.07.63.55.07.21.87l.33.12c-.43.51-.74,1.07-.46,1.73l.64.17c-.25.4-.16,1.11-.72,1.08l.38.63c.13.55-.43.33-.38.72l.54.55-.36.27c.53.23.92-.04,1.36-.35l-.09-.91c.69.21.56.09,1.08-.18l-.54-.18c-.08-.3.3-.08.36-.29.03-.14-.16-.56,0-.84.09-.16,1.63-.67.55-1.12.31-.8,1.88-.81.9-1.9l.89-.39-.11-.61c.77-.36.45-.76.66-1.27.17-.38.52-.43.53-.47.19-.48-.24.04.3-.68.1-.13-.12-.43-.07-.62.02-.08.79-.85.95-1.38.06-.19-.12-.5-.07-.54.05-.04.36.06.49-.04.12-.1.12-.65.41-.78l-.35-.16c.02-1.23,1.42-1.22,1.7-2.1.11-.34-.21-.92-.07-1.06.04-.04.28.03.37-.03.19-.13.16-.37.42-.36.06,0,1.04.23,1.09.25.19.09.44.76.98.52-.03.51.05.59.56.51-.15.42-.22.6-.7.56l-.17,1.17.86.44c-.53-.06-.1.73-.9.73l.36.36c-1.36.07.04,2.26-1.26,1.63-.58,1.1-1.09,1.83-1.28,3.15l.37.28c-.52-.07-.2.24-.32.49s-.61,1.43-.67,1.49c-.23.24-.58.27-.8.47-.54.48-.74,1.8-1.1,2.46-.12.21-.44.24-.51.44-.09.28.02.59-.03.85-.04.19-.54,0-.37.48l.54.18c-.2.14-1.15.66-1.19.72-.12.16.11.45.08.52-.04.07-.62.18-.64.48-.01.15.37.49.13.81.42.23.35-.36.44-.36s1.12.61,1.28.71c.13.09.41.34.62.49.72.53,1.62.87,1.82,1.86l.54-.54c.13.24.25.79.36.95.15.21.4.07.55.24.67.76-.05,1.26,0,1.33.01.02.23-.05.36.13.32.42.54,1.31,1.09,1.23.32.53-.03.98.07,1.53.11.62.71.79.78,1.01.08.24-.16,1.01-.13,1.23.01.08.88.67.53,1.38l.36-.18c-.23.45.08.68.13,1.02.08.5.26.82.26.87.03.85-.53.81.52,1.49v2.21s.72-.36.72-.36c.31.41-.17,1.21-.15,1.32.03.21.42.45.48.8.17.97.43,1,.74,1.82.23.59-.2,1.24.55,1.3-.47.74-1.41.73-1.9,1.45-.54-.5-1.86-.13-2.3-.36-.05-.03-.49-.85-.62-1.05-.1-.16-.34-.24-.35-.27-.09-.18-.06-2.41-.24-2.67l-.72.18.43-1.59c-.83-.76-.57-1.16-.84-2.06-.17-.57-.84-.71-.13-1.4l-.53-.28c.33-.84.15-1-.55-1.43l.36-.63-.72.18.16-.33-.52-.3.36-.45-.54.18c-.14-.47.21-1.1.15-1.5-.08-.47-.74-.7-.33-1.39l-.68-.04c-.3-.42-.1-1.44-.26-1.73-.06-.11-1.67-1.67-1.77-1.75-.53-.4-2.37-1.13-2.62-.27l-.1-.22c-.53-.4-.65-.09-.35.4-.71,0-1.26.2-1.81.64v.36c.72.17.11.61.04,1.14-.06.45.07,1.06-.02,1.55l.89.3-.4.68c-1.13.15-.07.3-.26.72l.31.13c-.87,1.1-.13,2.05-.19,3.16h.72c.11.2-.4.97-.72.91l.72.18c.17.88-.42,1.65-.55,2.26-.02.07.27,0,.37.35.21.72-.23,1.06-.1,1.73-.58.09-.97.89-1.35,1-.77.22-1.39-1.03-2.17.07-.25-.74.09-1.43-.91-1.45.56-.88.52-1.73.72-2.7l-.89-.2c-.23-.85.42-.96.47-1.14.09-.34-.37-1,.24-1.09-1.53-1.27-.32-3.39-.35-5.22l-.37-.18c1.02-1.04-.47-2.57-.46-2.97,0-.53.81-1.62.65-2.44-.02-.12-.85-.12-.74-.83h.72c-.31-.52-.43-.6,0-1.08-.67.12-.44-.18-.62-.47-.05-.09-.28-.09-.27-.16,0-.06.31-1.1.36-1.23.06-.16.36-.13.36-.23-.01-.28-.34-.43-.37-.72-.05-.51.24-1.56.29-1.99.03-.32-.47-1.28-.49-1.62-.02-.41.23-.77.2-1.17l-.54.18c-.3-.99.64-.88.54-1.62h-.72c-.07-.28.25-.1.36-.32.17-.32.03-.73.08-1.04.05-.34.45-.62.2-1-.08-.12-.36-.1-.43-.27-.04-.09.17-1.85.2-1.94.09-.29.47-.41.51-.77.03-.24-.64-2.57-.69-3.09-.03-.32.4-.52.43-.87.03-.44-.39-.97-.39-1.27,0-.24.22-.5.25-.76.04-.33-.28-.65.04-.87l1.8-.08Z"/><path d="M194.11,21.42c.53.35,1.48.26,2.15.44.14.04.13.31.27.34.23.05.69-.06.77.01.04.03.06.75.16,1.01.1.28.33.25.45.47.13.24.05.68.16.82.06.08.72.2.93.39.12.11-.03.26.04.37.09.13.34.15.37.22.03.06.09.96.23,1.33s.61.87.65,1.16c.02.16-.45,1.11-.24,1.71.09.25.86.19.86.82l-.72.36.47.36.43-.18c.25.79-.2,1.71-.09,2.43.08.47.59,1.29.63,1.64,0,.05-.48.04-.31.71.03.12.27.07.28.18.08.71-.51,2.01.75,1.72l-.72,1.18.36.35-.36.45.37.11c-.39.55.18,1.35.14,1.57-.03.18-.4.37-.33.48.02.02.26-.04.32.09.11.24-.06,1.43.03,1.79.04.17.35.1.36.12.05.06-.53.57-.36.9l.54.18c-.2-.06-.84.86-.83.99.04.61.86.82.84.9-.64.03-.1.78-.21,1.08-.04.1-.32.07-.34.21-.08.43.35,1.17.19,1.74-.04.15-.62.3-.55,1.29,0,.13.3.08.33.19.02.08-.15,1.03-.13,1.09.04.11.33.07.32.16,0,.07-.18,1.22-.2,1.28-.06.15-.63.27-.8.81-.12.38.49,1.74.26,1.97-.11.11-.5.07-.65.25-.11.13-.29,1.15-.22,1.22l.54.09c-.09.47-.79.73-.91.96-.18.36-.22,1.16-.63,1.67-.09.11-.8.12-.99.63-.16.49.76.06.54.54-.13.28-2.06,1.23-2.49,1.48-.19.11-.23.41-.34.43-.44.07-1.1-.47-1.78-.28-.31.09-1.12.67-1.17.63-.07-.05-.06-.7-.54-.54l-.27.72c-.35-.33-.85-.48-1.22-.73-.16-.1-2.36-2.39-2.43-2.57-.11-.27.01-.59-.14-.85-.17-.28-.94-.77-1.09-1.43-.08-.34.3-.7.19-.93-.12-.26-.79-.37-.91-.87s.57-1.3.41-1.74c-.04-.1-.31-.07-.3-.16.02-.38.35-.94.14-1.43l-.88-.3c.01-.69.77-1.5.7-2.13-.06-.55-.51-.91-.33-1.55.04-.14.37-.12.36-.2-.02-.17-.43-.86-.31-1.1.14-.27.47-.24.49-.27.06-.08-.98-1.52.18-1.63-.29-.48-.45-.71,0-1.17l-.38-.35c.51-.66.03-.97.05-1.24.03-.44.96-1.13-.39-1.21l.36-.65.54.11-.72-.36c.89-1,.26-2.2.46-3.51.07-.45.63-.49-.28-.91.56-.47-.21-1.28.72-1.36l-.54-.45c.18-.45.41-.6.9-.64-.77-.71.18-1.26.17-1.34-.07-.52-.65-.82.19-1.45l-.37-.19.38-.98-.54-.18,1.18-.53c-.27-.78.46-1.06.62-1.8l-.63-.57c.14-.2.3-.71.39-.88s.39-.22.5-.36,0-.97.47-1.18l-.36-.09c-.09-.1.39-.39.46-.55.16-.37-.47-.61.43-.55-.27-.57.39-.58.63-.9.67-.89.87-1.8,2.18-2.15.14-.03.05.23.14.29ZM194.96,26c-1.09-.33-.74.25-.83.36-.15.2-.49.21-.59.49-.05.13.05.72,0,1.05-.06.35-.38.72-.38.9,0,.26.33.46.33.54,0,.21-.64.43-.77.62-.09.14-.07,1.14-.45,1.37l.34.34-.36.36.53.36c-.32.12-.18.59-.21.61-.16.11-.52-.04-.66.32-.11.31-.2,1.99.33,1.87v.18c-.75.1-1.07,1.09-.74,1.73-1.09.47,1.06.52-.35,1.29-.02,2.19-.05,4.45.24,6.62.04.29.37.59.32.91-.02.11-1.59.9-.2,1.56-.62.77-.21.4-.06.59.54.73-.73,1.84-.66,1.93l.37.1-.19,1.34h.72s-.36.27-.36.27l.36.18c-.7.5-.86,1.4-.36,2.07l-.54.27.9.27-.55,1.16.32.14-.13.32h.54c-.33.8.68,1.38,0,1.99l.72-.18c-.05.16-.01,1.03.03,1.06.09.06.37,0,.5.12.13.1.45.97.67.99,1.01.1.95-.6,1.2-.84.31-.3.76-.44,1-.9.32-.6-.03-1.13.92-1.15-.21-.61-.45-.65,0-1.26l-.36-.18c.39.03.35,0,.22-.33.72-.13.24-1.26,1.04-1.3l-.09-.36-.44-.08c.01-.49.61-.74.71-.96.2-.43-.2-.93.37-1.03-1.06-.52.14-2.21,0-3.25l-.36.09c-.14-.57.29-1.22.28-1.72-.01-.37-.52-1.18-.43-1.44.03-.09.29-.07.32-.22.1-.48.33-1.87-.35-1.86l.36-.45c-.8-.24.42-1.31-.04-2.04-.24-.38-.51-.55-.61-1.3-.13-.95-.11-1.13.08-2.07.02-.1-.15-1.9-.18-1.99s-.32-.07-.34-.2c-.02-.19.29-1.78.19-1.87l-.54.18c-.39-.59.24-.91.19-1.34s-.23-1.16-.31-1.66c-.11-.71.09-1.21-.95-1.52l.18-.6-.38-.28c.75.06.24-1.17-.36-.91l.36-.27-.18-.46-.54.18.18-.72Z"/><path d="M136.28,21.98c.63.37.73-.33.77-.31.51.82.7.21.99.27.5.1.76,1.36,1,.09.51.08.45.7.62.82.28.19,1.16.04,1.51.26.05.03.6,1.02.7,1.05.14.05.6-.27.86-.13,0,1.02.64.89,1.01,1.25.19.19.2.63.3.69.35.22.82-.33.87.93.71-.31,1.38.06.72.72.68.12.75,1.2,1.62.73l-.18,1.62c.63-.28.61.73.94.85.14.05.38-.22.6.05.27.34.2,1.22.17,1.64l.8.46c.07.4-.03.82.04,1.22.14.77.07,1.47.86,1.65l-.34,1.71.5.03c.41.65-.12.77-.23,1.14-.17.56.26,1.08.21,1.35-.05.24-.3.4-.3.63,0,.11.31.06.36.21.07.22-.13,1.05-.17,1.33l.55.09c-.92.63-.51,1.6-.56,2.52,0,.14-.25,1-.53.83l.72.36c-.13,0-.29.02-.37.13-.62.85-.7,1.24-1.03,2.22-.14.41-.64.57-.05,1l-.64.62.28.55-.31.03.14.33h-.55s.15.33.15.33l-.51.3.36.18-.54.38.17.79c-.87,0-.57.43-.66.54-.55.68-1.35,1.27-.25,1.99-.7-.32-.45.05-.69.16-.42.2-1.54.49-.58.83-.32.43-.57.54-1.06.29-.34.97-.52,1.92-1.42,2.55.45.74-1.55.52-1.67.69l.18.72c-1.02-.15-.98,1.15-1.99.72l-.04.87c-.65.16-1.27.1-1.95.31-1.01.31-.51.56-.71.71-.93.69-2.17-.82-2.45.64-.23-.48-.66-.19-.8-1.02-.68.11-.63.09-1.1-.37.38-1.1.29-1.87,1.27-2.68l-.36-.27.89-.39c-.39-.67.15-.93.19-1.34.03-.32-.22-.91-.07-1.36l-.65-.18c.01-.72.59-1.62.56-2.25-.01-.28-.28-.2-.4-.53-.04-.11-.2-1.86-.17-1.95.04-.18.37-.17.45-.3s-.12-.66.28-.82l-.54-.27.36-.36-.37-.11c-.18-.61.3-.63.32-.7.23-.74-.47-1.88-.44-2.35.02-.3.68-.36-.06-.53.7-.75.1-1.32.06-1.84-.02-.31.16-.98.1-1.21-.04-.14-.48-.18-.49-.6,0-.34.33-.58.29-.84-.04-.23-.45-.48-.45-.75,0-.25.38-.5.44-.77.13-.54-.13-1.78-.22-2.37-.06-.4.34-.66-.29-.85-.05-.54.67-.71.72-.91.08-.27-.51-1.46-.46-1.87.08-.76.59-1.54.75-2.08.2-.67-.3-1.88.27-2.62l-.72-.19.73-1.35c-1.12-.49.39-1.24-.09-2.25-.26-.55-.57-.15-.08-1.18l-.38-.19c.14-.45.68-1.49.56-1.95-.01-.05-.86-.4-.06-.61.28-.07.31.36.71-.39.57-.15.91.6,1.02.66ZM139.55,26.13c-.18-.18-.16-.55-.41-.74-.09-.07-.86-.13-1.09-.23-.19-.07-.31-.35-.45-.42-.41-.2-.13.64-.27.94-.07.15-.36.15-.35.22.03.23.46.74.47.92.01.29-.47.52-.4.82.08.33.58.61.62.83.02.09-.42,1.39-.43,1.78,0,.31.18.66.18,1.02,0,.83.01,1.67-.08,2.5h.54c.08.07-.61.99-.64,1.17-.08.56.39,1.04.42,1.31.02.12-.3,2.13-.51,2.31.68.17.07,1.06.16,1.82.05.39.52.08.23.76l.33.12c-.38.65-.94,1.85,0,2.17-.78.77-.35.52-.28,1.09.08.68.13,1.4.17,2.08l.64.19c-.07.59-.21.89-.9.9.24.41-.08,1.3.54,1.26-.77.63-.1,1.38-.36,2.34l.54-.18c.1.06-.36,2.01-.34,2.26.03.38.48.73.42,1.37s-.62.98-.25,1.67l-.38.2.46,1.17c.06,0,1.1-.34,1.15-.38.03-.03-.11-.33-.03-.47.12-.22.33-.21.37-.32.07-.18.04-.93.08-.97.36-.37,2.41-.57,2.33-1.74l-.37-.27.55-.54.54.36c.02-.19-.06-.42,0-.59.32-.87,1.19-2.24,1.69-3.14.18-.31.84-1.02.93-1.32.08-.26-.24-.47-.23-.79.01-.44.45-.47.46-.51.03-.07-.14-1.05,0-1.52.09-.28.35-.26.35-.29.03-.09-.16-.43-.11-.73.08-.49.65-1.15.69-1.5,0-.08-.33,0-.38-.35-.07-.52.64-1.05.55-2.01-.04-.39-.31-.65-.31-.7,0-.09,1.09-1.06-.04-1.35.64-.81-.29-2.3-.72-3.16l.54-.27-.71-.2.17-.7h-.72s.17-.78.17-.78l.55-.21-.82-.27c-.16-.24.2-.8-.36-1.28-.27-.23-.49-.02-.63-.1-.74-.42-.3-2.86-1.62-2.79l.12-.32-.31-.15c.37-.62-.05-.35-.27-.61-.32-.37-.32-.82-.98-.55.08-.82-.19-.37-.37-.48-.16-.1-.72-.53-.85-.66Z"/><path d="M170.17,19.37c.1.14,0,.45.04.49.05.06,1.43-.11,1.35-.54.65.86,1.37.39,1.8.42.3.02,1.3.9,1.9.48v.54c1.11-.42,1.2,1.53,2.54,1.17l.17.63.9-.18c-.11.55.21,1.5.73,1.72.22.09.51-.11.52-.09.05.04.25,1.04.43,1.21.11.11.4-.06.55.27s-.04.72.03.87c.16.34.67.28.77.39.11.13.11.8.22,1.04l.36-.18-.18.72.45-.12.25.24c-.24.7.12,1.11.19,1.62s.02,1.47.09,1.97c.06.4.48.74.15,1.27l.69.37c.02.16-.21,1.69-.26,1.8-.12.25-.48.2-.56.59-.2.99.44,2.27-1,2.74l.54.27c-.17.66-.71.52-.89.65-.03.02.15.66.13.79-.01.1-.24.08-.26.13-.04.09.11.24.07.28-.13.19-.74.1-.32.75l-.68.23-.04.67c-.8-.18-.82,1.24-.71,1.82l-1.44.18.36.54-1.34.02-.56,1.07c-.32-.44-.55-.3-1-.17l.18.36c-.73-.31-1.01.03-1.3.69l-1.59-.33-.09.72-.91-.54c-.48.43.04,1.08-.81.9-.07.28.24.1.35.31.47.88-.15.75-.16.88-.09.59-.09,1.42-.18,2.15,0,.06.48.11.37,1.07-.07.6-.89,1.97.35,1.54-.2.72.07,1.8-.9,1.89l.68.36-.5,1.89.54.09c-.15.65-.62.91-.62,1.63,0,.63.38.62.41.72.1.47-.35,1.12-.32,1.17.02.03.3-.05.33.09.02.08-.14.52-.11.77.08.6.8.64-.42,1.07-.28.35.2.6.11.78-.16.32-.69.29-.79.41s0,.39-.05.48c-.06.11-.93-.28-.98-.28-.23,0-.42.32-.63.21-.2-.09-1.01-1.23-.71-1.55-.75.1-.69,0-.89-.64.53-.12.08-.85.53-1.34l-.72.18c-.2-.66-.18-1.72.72-1.63-.51-.39-.16-1.18-.2-1.36-.19-.7-.07-1.13-.18-1.62-.02-.1-.26-.07-.29-.18-.19-.66.31-.68.43-.87.5-.81-.09-.62-.12-.78-.12-.54.32-1.23.36-1.6,0-.08-.33-.06-.36-.2-.14-.59.65-1.39-.35-1.52l.54-1.07h-.54c-.28-.63.65-1.44.69-1.75.03-.21-.25-.36-.26-.51-.02-.26.32-2,.29-2.13-.02-.07-1-.7,0-1.12l-.72-.27c.43-.26.18-.91.23-1,.11-.22.44-.19.49-.38.01-.04-.01-.83-.03-.87-.03-.09-.54-.08-.34-.88.05-.21.44,0,.36-.29l-.54-.09c.32-.63.51-.99.54-1.71l-.91.09.34-.11-.16-.71h.72c.06-.39-.35-.62-.35-.99s.52-.85.35-1.35h-.46c-.24-.47.28-.6.28-.64.01-1.08-.14-2.14-.08-3.23,0-.13-.14-.29-.11-.46l-.36.09c.06-.42.3-.77.44-1.16.11-.3-.33-.48.43-.81-.31-1.06-1.04-2-.14-2.99l-.55-.09.03-.62.52-.12c-.26-.74-.02-1.67-.06-2.31-.03-.44-.73-1.26.05-1.2v-.18c-.85-.12-.02-.79,0-.85.22-.77-.28-.77-.32-.87-.04-.12.22-1.52.33-1.61.37-.32,1.77-.92,2.13-.41ZM171.83,22.21c-.87-.09-.41.13-.46.64-.05.57-.32,2.03-.28,2.52.04.64.75.83.02,1.53l.55.11c.28.73-.33,1.8-.3,2.51.03.6.64.94.29,1.53l.73.09c-.66.13-.15,1.02-.23,1.42-.05.24-.46.41-.46.56,0,.1.35.3.32.71-.01.22-.47,1.09-.49,1.31-.03.33.22.57.22.86,0,.61-.34,1.14-.37,1.45-.02.27.38,1.83.51,2.03.04.07.22.06.31.04l-.36.18.36.26c-.16.39-.43.89-.53,1.28-.16.56.39-.19.36.36-.03.49-.11.76-.37,1.17l1.99.18c-.26-.87,1.19-.5,1.68-.75s.39-1.47,1.75-1.05c.19-.5-.34-.27-.36-.45.09-.11.68-.13.36-.45-.06-.06-.43.14-.36-.18.43-.06.64-.57,1-.91.14-.14.46-.12.58-.23.21-.18.33-.88.58-1.14v-.24s-.35-.02-.35-.02l.72-.63c-.67-.09-.11-.75.36-.81.07-.3-.23-.11-.32-.21-.04-.04.12-.22.08-.29-.03-.05-.25-.04-.27-.13-.08-.37.18-1.04.69-.81-.27-.38.07-.82,0-1.15-.01-.06-.11,0-.21-.72-.05-.38-.1-2.02-.18-2.08-.06-.04-.71-.13-.86-.46.87-1.64.14-1.24-.46-2.1-.16-.23-.95-1.88-1.04-1.95-.02-.02-.24.15-.29.1-.7-.55-.13-.88-.22-1.03h-.9s0-.72,0-.72l-.54.18c0-1.52-2.22-.8-2.17-1.99l-1.08.18v-.72Z"/><path d="M86.53,17.92c.06.04.04.22.04.31l.21-.32c.66-.08,1.13.76,1.73.84.45.06.61-.44.95-.26.74.39.31,1.15.36,1.19.04.03.31-.05.48.06,1.1.74,1.8,3.3,2.01,4.6.06.38-.34.52.21.65l-.17,1.01h.73c.13.5-.36.81-.46,1.18-.07.25.11,1.07.07,1.45-.05.47-.48,1.1-.33,1.77.03.14.37.13.37.21-.03.46-.59.43-.67.51-.55.57-.1,1.69-.64,2.25-.24.25-.95.11-1.13.77l-1.49-.94.33-.87-.54-.09c.49-.62,1.23-1.1.18-1.62l.53-.54c-.44-.6-.36-1.1-.43-1.73-.03-.26-.36-.42-.11-.77.11-.15,1.05-.44-.18-.49-.07-.33.3-.11.36-.18.05-.05-.33-.39-.37-.64-.07-.43.15-.66.17-.91,0-.04-.18-.29-.3-.56-.36-.77-.91-1.46-1.12-2.32-.43-.36-.35.26-.44.26-.71-.54-1.88.34-1.75,1.08h-.53s.1.74.1.74l-.82.18.36.36c-.34-.06-.41.37-.55.45-.26.15-.46-.2-.68.21-.35.65-.14,1.39-.26,1.92-.06.25-.32.41-.4.66-.1.33.26.83-.46,1.2.53.13.45,1-.18,1l.9.81c-.27.52-.91,1.02-.82,1.63.16,1.07.86.84.99,1,.04.05-.37.81.38.99l-.37.71c.74.34,1.41.58.9,1.53.55-.06,1.07.02,1.33.55.06.13-.08.34-.06.35.17.1.96,0,1.09.11.28.24.39,1.07.64,1.34.75.83,1.73,1.87,2.43,2.65.37.4.26,1.02.52,1.44.12.19,1,.73,1.04.84.14.39.17,1.59.24,2.12l.9-.18c-.02.25.05.54,0,.78-.04.19-.54,0-.36.48l.55.11v1.77s.9.29.9.29l-.08.91-.65.18.18,1.8.36-.18c.13.43.22.9-.36.91v.18c1.01.22,0,.76,0,.83-.01.45.32,1.71.9,1.79-.02.59-.93,1.24-.99,1.53-.13.57-.21,1.59.46,1.73-.46.48-.64,1.22-1.44,1.18l.54.45c-.18.39-.88.34-1.03.5-.2.2-.57,1.14-.63,1.19-.04.04-.89.41-1.04.39l.17.35-.51.04-.04.48-.88.04-.3.87c-.41.1-1.19-.21-1.42-.12-.47.17-1.2.53-1.87.59-2.31.21-2.57-.24-4.31-1.12-.37-.19-.92-.12-1.15-.34-.28-.26-1.2-1.97-1.45-2.44-.08-.14-.33-.16-.34-.27-.18-1.15,1-1.13.55-2.04l1.88.16c-.08,1.24,1.31.66,1.55,1.46l.27-.36c1.01.55.34,1.28,1.8,1.07.37-.05,2.22-.64,2.64-.79.55-.19.7-.9,1.25-.64-.36-.58.35-1.15.9-.72-.18-.54.5-.68.54-.84.01-.04,0-.83-.02-.88-.04-.11-.34-.07-.34-.19,0-.06.08-1.09.1-1.19.15-.84.83-1.45.48-2.43-.13-.35-.67-.17-.21-1.02.11-.21.42-.04.35-.31l-.35-.08c.56-.87-.22-.75-.34-1.23s.49-1.52.47-1.82c-.04-.66-1.2-1.75-1.29-2.28-.06-.31.15-.66.03-.87-.04-.07-.31-.1-.4-.22-.17-.24-.23-.53-.38-.71-.37-.47-.32.41-.63.36-.28-.28-.38-1.32-.47-1.44-.1-.14-.39-.2-.51-.38-.18-.28-.31-.83-.52-1.02-.26-.23-.63-.04-.65-.07-.18-.17-.11-.86-.25-1.02-.1-.11-1.19-.49-1.39-.6l.17-.7-.7-.03-.21-.69-.72.18.18-.9-.65-.17c.29-1.01-.51-1.1-.68-1.49-.26-.62.08-2.03-1.02-1.58l.17-1.51c-1.42-.7-.51-.58-.18-1.04.08-.11-.19-.51-.17-.78.05-.5.74-.73-.18-1.45l.36-.27-.54-.09c.96-1.03.91-2.22.34-3.44l.36-.34c-.53-1.29.26-1.11.71-1.67.21-.27.72-1.31.04-1.14l.33-.2-.11-.3c.93-.16.64-1.06.86-1.39.36-.55,2.39-.87,2.18-2.07l.33.16c.16-.6.51-.76,1.11-.7l-.09-.72c.85.72.99-.19,1.89-.18l-.18-.72c.26.03.66-.09.87.05Z"/><path d="M120.53,20.95c1.95,1.71.93.01,1.08-.18.96.26,2.04.96,2.97.73l.23.26-.13.45c.92-.5,1.17,2.26.9,2.53-.7-.36-1.57.47-2.08.54-.07,0-.07-.28-.22-.34-.74-.33-1.14.17-1.49.07-.24-.07-.54-.52-.84-.57-.26-.04-1.01.11-1.43.09-.32-.02-.66-.4-1.17-.14.39.54-.17,1.14-.09,1.65.06.35.46.33.46.43.02.38-.33.57-.33.86,0,.38.3.95.28,1.47-.03.58-.5,1.67-.51,1.99,0,.07,1.04.67.19.91l.56.39c-.14.85-.89,1.8-.2,2.59-.89.24-.75.83.18.81l-.2.61-.7.03c.19.62.36,1.29.47,1.93.05.3-.14.71-.11.83.03.1.53.21.36.66l.27-.36.46.54h.35s.08-.34.08-.34l1,.15v-.53c.6-.09,1.11.35,1.58.49.18.05.47-.17.57-.11.04.02.27.59.41.78.38.5.66.08.41,1.2l.65.26c-.54.16-.88,1.21-1.22,1.36-.44.19-.68-.04-1.05.17-.3.22-.05.54-.08.55-.4.26-1.25-.56-1.35-.56-.8-.03-1.45.86-1.99.2l-.31.87-.49.03c.39,1.12-.25,2.18-.34,3.15-.03.35.18,1.01.13,1.44-.07.58-.54.75-.22,1.51.09.21.38.19.42.34.06.27.03,1.07-.36,1.05,1.04.38-.26,2.46-.29,3.07-.01.32.4.84.29,1.26l.36-.09-.54,1.18c1.31.56-.17,1.7.78,2.56.77.7.99.16,1.46-.25.09-.08.35-.03.42-.1.14-.14.08-.55.28-.82.04-.05.98-.84,1.04-.87.36-.17,1.29.3,1.46.59.15.26-.02.55.03.82.09.5.75.85-.22,1.04.61.78.04.82-.25,1.46-.14.3-.14.67-.31.96-.26.44-.44.21-.71.89-.1.24-.29-.15-.35-.06-.28.37.74.56.54.72-.45.3-.85,0-1.16,0-.06,0-.3.47-.91.5-.32.02-1.59-.25-1.71-.14-.1.1.17.6-.18.53.08-.52-.31-.14-.55-.43-.79-.98-1.79-2.84-2.23-3.86-.04-.1-.56-.08-.12-.95l-.7-.03c.14-.7-.74-.67-.76-.8-.1-.55.33-.85.38-1.08.02-.1-.29-.04-.35-.22-.08-.22,0-.61-.14-.87l.85-.35c-.3-.28-.56-.57-.36-.99h-.54c.69-.79-.36-1.37.36-1.9l-.34-.17c.49-.75.06-1.68.25-2.35.07-.26.41-.52.42-.75s-.3-.4-.3-.66c0-.37.43-.74.47-.97.03-.21-.23-1.58-.14-2.11.07-.41.52-.8.53-1.27l-.71-.29.54-1.17-.36-.19c.16-.22.01-.58.04-.71.03-.12.26-.09.27-.18.09-.59-.39-1.23.22-1.63l-.72.09c.07-.47.11-.96.31-1.4.11-.26.45-.16.43-.49-.02-.44-.74-1.87-.51-2.36.11-.23.42-.21.47-.28.08-.1-.65-1.1.38-.88l.18-1.26c-1.26.12-.06-1.05,0-1.55s-.21-.88-.18-1.24c.03-.28.36-.68.42-1.21.07-.64-.18-1.44-.15-2.06.02-.53.45-1.09.27-1.77-.04-.15-.82-.11.19-.76l-.37-.71.36-.18c-.83-.53.52-1.61.55-2.34,0-.14-.28-.07-.37-.22-.44-.72.12-.92.3-1.45.04-.13-.13-.38-.11-.41.1-.15,1.21-.25,1.49-.16.4.13.43.61.66.77.5.33,1.87-.47,2.26.46l.27-.72Z"/><path d="M110.59,18.24v.9c.79-.23,1.3,1.34.9,1.98l.72.19c.06.73-.75.3-1.14.71-.16.17-.1.41-.17.49-.41.47-1.1-.05-1.47.07-.24.08-.22.5-.4.53-.1.01-.31-.14-.49-.12-.77.12-2.46.58-2.74-.24l-.21.37h-1.15c.03.85.11,1.76.07,2.61-.02.56-.62,1.38.29,1.18-.08.64-.31,1.23-.35,1.88-.03.53-.08,2.08-.02,2.55.04.37.43.18.39.51-.05.44-.74,1.15-.52,1.82.03.1.25.1.31.23.42.96-.24.86-.32,1.24-.06.29.71,1.1-.2,1.42l.69,1.05c-.99,1.12-.4,1-.33,1.84.04.5-.32,1.43-.33,1.98,0,.66.36,1.37.15,2.31-.04.15-.34.03-.37.39-.03.45.32,1.15.3,1.45-.02.23-.28.43-.26.69.03.3.44.58.45.75.01.22-.69.81-.3,1.53.76-.52.24,1.08-.36.72.43.38.13.8.3,1.22.09.22.37.2.39.31.12.67-.35,1.19-.35,1.26.03.57.54.78,0,1.64-.03.35.43.16.39.52-.05.5-.81,1.43,0,1.64l-.54.73c.6.18.14,1.17.16,1.81.02.54.06,1.78.13,2.23.08.48.54.31.43.83-.02.09-.39.09-.48.44-.09.38.16.83-.05,1.15-.25.38-1.74.67-1.28,1.75l-1.45-.1-.53-1.09c-.26-.36-.97.24-.9-.71.02-.26.3-.45.34-.74.14-.96-.36-1-.36-1.06.07-.54.39-1.61.46-2.17.05-.47-.4-.98-.42-1.29s.29-.52.28-.84c-.01-.35-.36-.74-.33-1.3.01-.31.41-.9.35-1.08-.03-.1-.32-.02-.35-.35-.04-.49.09-1.33.08-2.02-.02-.96.19-1.37.48-2.28-.17-.05-.38-.44-.4-.45-.24-.11-.55.45-.5-.12.06-.64.79-1.29.89-2-.29-.11-.84-1.49-.89-1.8-.02-.12.32-.04.42-.31.07-.19-.02-.58.02-.86.04-.29.26-.66.27-.83,0-.09-.27-.06-.31-.16-.08-.21.23-.55-.4-.73.14-.08.79-.82.81-.96.13-.77-.43-.99-.44-1.05,0-.05.11-.99.14-1.07.11-.34.57-.23.39-.79l-.71-.27c.28-.51.73-1.58,0-1.8.44-.37.18-.98.9-.82.08-.3-.25-.11-.32-.21-.05-.07.3-.3-.22-.42.33-.35.66-1.39.68-1.84.01-.25-.29-.44-.25-.77.08-.58.5-1.63.64-2.27l-.51-.36c.41-.87-.21-1.77.34-2.53l-.36-.16.36-.74-.35-.16.71-3.06c-.69-.74-1.57-.05-2.34-.29l-.09.54c-.9-.38-1.38-1.11-2.36-.56l-.17-.34-.18.36c-.34-.35-.65-.79-1.17-.54l.16-.46-.35-.33c0-1.04,1.52-1.59,2.35-1.37v-.54c.82.34,1.76-.37,2.71,0v-.54s.9.54.9.54l.09-.54c.27.18.78.4,1.09.37.42-.04.36-.45.54-.52.25-.1,1.14.24,1.43.34.52-1.35,2.22.03,3.02-.29.48-.19.36-.56.79-.63.09-.01.94.72,1.36.55l-.18-.36,1.63-.36Z"/></g></svg>