<?xml version="1.0" encoding="UTF-8"?><svg id="Layer_2" xmlns="http://www.w3.org/2000/svg" viewBox="0 0 289.48 107.99"><defs><style>.cls-1{fill:#fff;}</style></defs><g id="rooti_farmajo"><path d="M150.48,23l-.14.83.66.03c.03.8,1.09.93,1.46,1.56s.68,1.89,1.24,2.36c.21.18.55.15.59.19.06.06-.04,1.28,0,1.62.06.44.18,1.12.67.96-.24.46.25.4.34.59.14.31-.5.98-.5,1.2l.34.16-.17.51c.49.15.3,1.17.48,1.65.2.55.65.41.56.85l-.51.52.69-.17c.22.72-.24,1.35.52,1.81l-.35.17.34.17c-.44.64-.35,1.43-.34,2.16l.52.09c-.67,1.01-.05,1.95,0,3.01l.68-.34c.02.63.15,1.04-.52,1.29l.36.2c.06.29-.14.66-.1.95.05.31.37.3.4.4.09.3-.7,1.08.33,1.72l-.47.44.34.17c-.54.68-.19,1.42-.05,2.2.15.86.1.32.27.76.12.32.11.69.29.99h-.52s.33.25.33.25l-.33.96h1.03s-.31.19-.31.19c.39.69-.58.85-.37,1.17.02.03.42-.04.42.51,0,.28-.29.41-.26.7l.69.18-.52.94.68.53.02.33c-.89.3.16,1.68.31,2.28.43,1.74-.17,1.54.85,3.34.04.08-.25.27.18.39.06.5-.12.71-.45,1.06l-.02.31.52.35c-.44.32-.42.62-1.03.26l-.52.96c-.34.17-.68-.16-1.07-.07-.23.05-.56.47-.74.45-.62-.05-.21-.95-.26-.99-.08-.08-.48.17-.78-.52-.21-.5-.06-.83-.13-1.24-.27-1.52-.59-3.18-1.15-4.71l.51-.07.16-.76-.67-.27c.07-.77.26-1.93.14-2.66,0-.04-.23-.53-.29-.65-.09-.19-.53.06-.18-.63h-.52s.35-.86.35-.86l-.52-.09.51-1.12-.51.17c-.04-1.12-.39-2.14-.28-3.27.03-.33.54-.72.12-1.27-.13-.17-.31-.07-.41-.11-.23-.08.12-.28.06-.34-.32-.29-.35.3-.43.32-.04.01-.83-.07-.91-.1-.67-.19-.71-.82-1.16.12-.93-.92-1.6.32-1.75.35-.38.07-1.66-.29-2.03-.28-.42.01-.8.39-1.06.41-.22.01-.41-.27-.66-.29-.6-.04-1.22.23-1.87-.04l-.19.36-.95-.34c-.17.48.05.91-.04,1.42s-1.21,2.09-.66,2.46c.24.16.72-.08.69.25-.51-.08-.17.35-.35.73-.04.08-.2.41-.22.44-.04.07-.4.2-.46.48l.35.17-.35.17v.43s.4,0,.4,0c.53.2-.16.37-.23.47-.16.22-.08.53-.51.67.04.46.44,1.04.43,1.47,0,.47-.17,1.62-.77,1.36.14.37.69.22.52.86h-.69c-.07.31.29.11.34.17s-.23.34-.27.51c-.18.83-.19.4-.31.68-.23.52-.35.95.24,1.12-.23.55-.96.8-1.22,1.21-.16.26-.01.47-.14.69-.05.08-1.06,1.25-1.13,1.3-.14.09-.87.18-.92.14-.68-.52.15-1.91-.07-2.48-.35-.92-.03-.42-.03-1.03,0-.21-.33-.44.09-1.03l-.53-.51.33-.7.35.08-.08-1.39-.44-.07.21-.92.48-.03c-.19-.42.12-.83-.51-.86v-.17c.45.09.4-.52.01-.59.12-.67.37-.55.85-.87-.58-.46-.33-1.18,0-1.73l-.35-.16.2-.41.66-.03c.06-.27-.22-.07-.33-.3-.42-.89.15-.68.29-1.01.29-.63-.29-.78-.29-.83.01-.74.68-.99.68-1.06.04-.35-.32-.72-.7-.59v-.24c.29-.26.2-.64.31-.91.22-.55,1.19-1.43.56-1.94l.34-.25-.49-.51.15-1.13h.69c.06-.05-.19-.77-.14-.83.2-.25.77-.04.18-.63l.47-.52-.34-.33c.09-.54.62-.61.51-1.13l-.69-.17c.49.1.14-.32.33-.43l.53-.09c-.43-.57.28-1.16.31-1.28.15-.58.24-1.96.4-2.55.11-.4.76-.29.83-1.25.04-.53-.52-.01-.51-.42l1.01-.54-.14-.58-.7-.08v-.17c.51.07.18-.25.3-.46.34-.63.81-1.19,1.08-1.86l-.34-.17c.74-.35.86-.47,1.03-1.29h-.52c-.18-.67.45-.82.63-1.07.16-.23,1.11-1.74,1.17-2,.05-.22-.16-.49,0-.71l.93-.28c-.15-.55-.08-.81.53-.92l-.34-.34c.46-.16.78-.29,1.12.17l.18-.17c-.1-.96,1.87-.36,2.46-.56l.03-.48.65.38ZM149.27,27.65c-.59-.34-1.45.07-1.85.56l.25.95c-.21.5-.91.48-.95.52-.03.03.18.59.14.9-.07.59-.68,1.33-.79,1.81-.2.86-.57,1.9-.7,2.59-.1.53.28.94-.21,1.41l.29.04c.14.65-.6.83-.77,1.3-.22.64-.1,1.65-.29,2.3-.11.4-.54.38-.6.61-.06.21.15.48.08.76-.13.52-1.12.91-.64,1.69-.93.14.07,1.38-.15,2.08.67-.03.99-.52,1.7-.19.27-.86.37-.25.82-.2.52.06,2.03-.37,2.84-.05,1.1-.53,2.45-.32,3.64-.6.13-.03.13-.26.17-.28.08-.04.23.11.27.08.05-.04.63-1.07.64-1.16.03-.2-.19-.34-.19-.43.07-.74.63-2.17-.6-2.15.1-.31.56-.23.47-.74-.01-.06-.42-1-.45-1.05-.18-.25-.69.16-.46-.57.01-.03.26-.04.28-.16.03-.25-.24-.6,0-.92l-.53-.09c.12-.73-.15-1.57.36-2.14-1.34-.29-.36-1.53-.7-1.97-.96-.41-.53-.46-.61-1.33-.03-.35-.2-2.26-.27-2.36-.11-.16-.67-.12-.81-.22-.04-.03,0-.74-.41-.97Z"/><path d="M207.76,25.44c.06.04.73.71.75.76.11.29.13,1.07,0,1.41l.65.26c-.2.36-.05.86-.16,1.18s-1.59.92-.31,1.58c-.13.26-.47,1.05-.34,1.28.02.03.55-.26.62.25l-.13.76-.49.02c-.08.05.44,1.35.46,1.47.03.31-.65.67.06.6.07.28-.24.09-.31.25-.1.23-.03.67.31.69l-.34.52.51.17c-.04.61-1.03,1-.17,1.8l-.34.17.35.09v.17c-1.1.74.05,1.49-.35,2.49l.69.09c-.46.1-.25.65-.53,1.03,0,.1.3.08.33.17.07.2-.46,2.33-.31,2.49l.51.09-.69,1.89.35.17-.35.78.52.09c-.07.28-.77.74-.8.85-.02.09.15,1.73.19,1.82.12.25.52.27.59.43l-.32,1.46h.69s-.17.62-.17.62l-.52.07.02.83.67.28c-.54.21-.56,1.38-.6,1.97-.02.29.45.45-.09.78h.52c.38.23.04,1.06-.17,1.38l.35.19c.05.98-.77,2.2-.49,3.08.04.12.34.03.31.16-.1.43-.94.61-.68,1.35.07.19.67.27.5,1.05-.15.69-.83.44-.02,1.39-.21.47-.77.36-1.11.59-.26.18,0,.72-.47.69l-2.17-.34c.37-.95-.26-.77-.48-1.06-.03-.04.12-.19.08-.27-.02-.05-.29-.04-.3-.13-.02-.32.55-.85.54-1.19,0-.1-.29-.08-.32-.17-.12-.34.38-1.14-.2-1.2l.87-1.2c-.16-.32-.14-.96-.22-1.21-.03-.1-.32-.07-.32-.17,0-.22.26-.48.29-.77.05-.42-.47-.55.06-1.03l-.32-.03c.28-.48-.45-.68-.16-1.27.04-.09.84-.2-.04-.5l.34-.95-.51.17.34-.43-.36-.34c-.11-1.24,1.23-1.67.18-2.92.61-.13.49-1.12-.16-1.12.81-1.06.66-2.46.48-3.7-.01-.09-.3-.06-.29-.15.02-.23.23-.44.16-.86-.05-.29-.41-.55-.36-.86.03-.16.41-.12.47-.35.03-.11-.1-2.15-.14-2.25-.04-.12-.29-.06-.31-.08-.05-.06.52-.66.35-1.45l-.51-.1c-.35-1.33.36-2.52.51-3.83l-.7-.29c-.04-.52.6-.79.66-.89.07-.11-.19-.57.03-.82l-.69.34c-.04-.48.02-.96.18-1.41.04-.1.24-.12.27-.19.15-.3-.1-.6.4-.72l-.68-.27c.29-.12-.23-.69-.27-.69-.36.02-.79.74-1.45.35l.51.51c-.05.07-1.3.41-1.49.45-.41.08-.92-.34-1.18.42l-1.19-.53c-.69.06-.41.7-.53.7-.35.04-.63-.45-.89-.49-.2-.03-.37.23-.57.25-.52.06-.88-.33-1.2-.37-.22-.03-.35.23-.44.22-.16,0-.3-.37-.56-.44-.22-.07-.49.09-.65.05-1.19-.26-1.4-.52-1.28,1.21.06.88.53.97.52,1.03-.02.11-.33.41-.41.62-.33.87.18,1.59.4,2.48l-.5.42c.91.08.21.89.21,1.15,0,.33.52.67.13,1.26l.86-.17-.2.83-.66.03.49.6c-.24.73-.21,1.47-.25,2.23,0,.15-.22.32-.22.51-.01.53.77,2.74.66,2.85l-.51.09.7,1.72-.36.19.16.4-.5.28.34.09-.34.28c.36.91-.04,1.66.36,2.63l.67.02c-.31.93-1.05,1.34-.67,2.39h.49c-.22.71-1.07,1.87-.17,2.34l-.31.11-.04.67h.52c-.36.91-.76.7-.02,1.67-.89.95-.26,1.48-.32,2.46l.69-.08-.26.78h-.42s.02.66.02.66l.5.1-.08.62h-.43s.09,1.54.09,1.54c-.89.11-.97.67-1.56,1.02-.22-.7-.96-.55-1.31-.94-.1-.11-.02-.32-.09-.44-.15-.24-.59.04-.24-.68l-.34.17c-.23-.32.46-1.72-.16-1.8l.17-.51c-.4.04-.66-1.97-.65-2.09.02-.17.52-.48.43-.86-1.25-.65-.07-1.09-.13-1.72l-.53-.51.51-.95h-.69c.38-.8,1.39-1.41,0-1.81,1.3-.48-.83-1.78.69-1.81l-.52-.68c.54.06.35-.83-.16-.94.61-.76-.4-1.19.5-1.73l-.51-.34.51-.87c-.41-.12-.49-.78-.33-1.15.05-.13.28-.12.32-.25.04-.15-.12-.75.02-1l-.52-.09c.2-.41.03-.87.09-1.28.08-.54.62-.65-.26-1.04,1.03-.51.41-.89.41-1.38,0-.25.23-.45.28-.69.08-.35-.41-.23-.43-.22-.17.1.03.37-.26.3.27-.66-.18-1.36.27-1.89.13-.16.41-.16.42-.18.05-.07-.26-.36-.27-.59-.01-.21.34-1.42.28-1.47h-.69c.39-.67-.14-1.84-.1-2.32.02-.23.28-.44.27-.69-.01-.44-.81-.74.18-1.38-1.22-.67.11-1,0-1.72l-.52-.17.64-.86-.47-.44c.39-.48.24-1.14.28-1.73,0-.16.23-.35.23-.59,0-.56-.51-.96-.51-1.02.01-.2.44-.69.48-.91.08-.47-.47-.68.3-.89l-.09-.53c2.46-.56,2.35,2.45,3.87,3.44l.34-.34c.42.17.57.99.62,1.03.08.05.37-.16.56-.12.49.1,1.18.42,1.72.42.33,0,.77-.28,1.15-.23.68.08.97.49,1.49-.24l1.6.18c-.09-.72.35-.73.59-1.03.06-.08-.06-.31-.05-.32.21-.17,1.11,0,1.69-.46.13-.1,1.09-1.07,1.22-1.24.16-.21-.03-.77.68-.99l-.34-.6c1.08.18,1.18-.87,2.35.06Z"/><path d="M171.79,24.76c.05.02.09.22.2.26,1.33.47,2.53.24,3.83.79v.6c.55.12.15-.49.66-.2l.19-.31c.07.83.55.68.78.85.45.33.57.98,1.29.53l.16,1.44.5.13.04.65.81.06.35.92-.32.17.86.61-.52,1.2.86-.17c-.16.24.04.57-.02.75-.09.26-.68.24-.49,1.13,1.74.08-.1.83-.28,1.04-.19.23-.03,1.93.08,2.33l-.3.16.08.62-.62.16.69.86c-.29.23-1.04.22-1.22.42-.12.14,0,.35-.04.4-.09.12-.38.14-.54.37-.08.13.02.42-.08.57-.14.21-.49.22-.62.47-.3.57.1,1.49-.78,1.03l-.34.34.34.17-.5.36.16.5c-.03.05-.96.27-1.16.4-.32.21-.85.97-1.09,1.23-.17.19-.54.24-.66.52.13.78,1.39.91,1.66,1.15.03.03-.09.25-.03.31.88.93,1.72,1.54,1.79,2.93.67-.52,1.02-.25.69.51l.51-.17.25,1.39.79.16-.17.69h.52s-.17,1.38-.17,1.38c1.59-.44.19.83,1.03,1.13-.45.91.65,1.96,1.21,2.58l-.35.76h.86c-.3.33.4.59.3,1.13-.05.25-.53.13-.47.41.46.18.99.53.69,1.04l.34-.17.25,2.06,1.05.84c.05.37-.41.88-.43,1.15,0,.05.67.17.31.74-.04.07-1.38.84-1.47.85-.17.03-.9-.31-1.35-.27-.28.02-.6.29-.92.29-.2-.93-.95-1.79-.54-2.73h-.69s.17-1.89.17-1.89l-1.02-.18.34-.77-.31-.1.13-.56c-.44-.32-.63-.33-.51-.97l-.69.17c.2-.37-.06-1.07.51-1.03v-.17c-.48.08-.35-.33-.34-.69h-.85s.16-1.2.16-1.2l-.34.17v-.69s-.69.17-.69.17c.46-.7-.34-1.08-.35-1.15-.03-.25.17-.55.09-.75-.11-.29-.63-.41-.72-.55-.13-.21-.1-.7-.23-1.02-.03-.08-.89-1.06-1.02-1.29-.32-.54-.09-1.19-1.2-.74v-.67c-.79.23-.64-1.04-.89-1.19-.15-.09-.51.03-.71-.06-.48-.22-1.04-1.09-1.34.04-.13.1-.85-.83-1.03-.26-.05.15.3.02.35.19.14.54-.65,1.76-.48,2.22.04.1.46.03.31.66-.03.12-.27.1-.3.19-.2.66.3,1.29.29,1.73-.02.79-.11.54,0,1.53.06.56-.47,1.47.02,1.9l-.34.08c.69.67-.5.97.02,1.87l.67.02c.1.52-.62,1.04-.63,1.11-.06.34.27.67-.4,1.04l.51.26-.35.26c.47.13.38.37.35.84l-.35.28.34.08c-.41,1.04-1.07,1.68-2.14,1.99-2.03.59-1.3-1.89-1.76-2.89-.1-.22-.36-.19-.39-.33-.1-.38.32-2.07.31-2.18-.04-.46-1.22-1.37.37-1.32-.03-.23-.34-.32-.43-.52-.44-.95.53-3.16.52-4.21,0-.65-.54-.37-.61-.43-.1-.09.49-1.56-.16-1.62.19-.45.07-.72.67-.61l-.34-.25c.52-.68.51-1.13.17-1.86-.05-.11-.31-.08-.33-.23,0-.05,0-.93.02-.98.07-.24.41-.38.43-.55.02-.13-.44-1.44-.81-1.3.41-.63.73-.72.69-1.54l-.52-.17.69-.6-.52-.35c.4-.75.1-.68.04-1.06-.05-.31.51-1.59.48-1.69-.02-.07-.28-.07-.31-.17-.12-.39.13-1.07.08-1.35-.07-.45-.27-1.43-.25-1.89s.62-.92-.21-1.23l.52-.87-.35-.16c.67-1.05.47-2.36,0-3.45v-.17s.52-.09.52-.09c.08-.29-.34-.07-.36-.27-.02-.19.18-.43.14-.65-.06-.3-.67-.42.22-.63l-.36-.27.17-.69-.33-.15c.75-.59.2-.94.22-1.21,0-.15.37-.31.44-.55.17-.6.16-.67.37-1.22.06-.16-.04-.51,0-.56.18-.21,1.11.25,1.38.28,1.35.15,3.28-.87,4.59-.39ZM171.46,28.42c-.54.27-1.6-.97-2.63-.47s-.33.95-.49,1.8c-.04.21-.31.58-.28.62.03.03.66.11.48.61-.03.1-.26.07-.29.2-.08.34.19,1.24-.02,1.69l.52.09-.52.94.69.26c-.26.5-.16,1.1-.86,1.11l.34,1.64.51-.34c-.04.34.08.77,0,1.09-.04.16-.36.04-.34.35.02.38.17.76.53.89l-.7,1.36c.93.44.21.45.03,1.2-.15.67.29,1.19.32,1.73.03.42-.47,1.53.16,1.46l-.34.17c.04.36.73.35.99.22.29-.15.34-.45.43-.51.55-.32.5-.21,1.1-.72.17-.14.53-.19.67-.37.38-.48-.55-.3-.43-.86l1.69-.37-.15-.31c.53.11.68-.11,1-.44l-.23-.77,1.3-.51-.17-.76.38-.23.47.13c-.7-.69.4-1.26.75-1.91.28-.51.57-1.58.73-2.17.12-.47-.31-.85.59-1.09-.05-.31-.62-.47-.86-.34l.51-1.12c-.11-.29-.45-.1-.49-.13-.2-.18-.24-1-.37-1.23-.1-.19-.39-.07-.48-.15-.16-.14-.06-.62-.27-.79-.13-.1-.55.05-.47-.38l-.17.34c-.61-.06-.58-.66-.81-.87-.38-.35-1.21-.38-1.27-.42-.26-.2-.08-.74-.9-.99-.61-.19-.57.27-.68.33Z"/><path d="M12.53,22.5c.14-.09.33-.02.48-.04v.69c.18-.1,1.08-.2,1.17-.14s.1.31.2.38c.18.13,1.92.18,1.92.94l.67-.5c.03.23.1.53.26.69.31.31,1.38.72,1.65.94.15.13-.01.39,0,.41.14.16.96.06,1.14.23.18.18.2.79.28.95.11.21.59.82.76,1.2.26.59.32,1.45.86,1.85.12.56-.31.87-.41,1.29-.16.66.46,1.9.16,2.67l.63.34c-.27.92-.8.73-.85.78-.2.21.29,1.22.5,1.46-1.41.48-.47,1.11-.53,1.68-.05.44-.57.84-.72,1.16-.2.42-.14,1.19-.22,1.38-.16.4-1.14.9-1.29,1.15s.06.79-.19,1.05c-.16.17-.54.04-.66.13-.25.19-.23.59-.38.72-.29.28-1.5.36-1.33,1.32.16.41.6.09.66.13.06.04.1.38.27.5.25.19.63.12.79.24.15.11.7,2.19,1.2.78.69.3.51.78.34,1.38.23-.29,1.05.58,1.14.73.07.11.13.81.26.96.02.03.31-.08.44-.03.4.16.94,3.04,1.37,3.58l-.29.42c.18-.13.8.31.82.38.12.31-.6,1.14.72.99.22.48-.31.97-.31,1.26,0,.45.36,1.94.44,2.26.23.92-.08,1.17-.09,1.55,0,.07.73.89.78,1.24.13.82-.01.74.3,1.76.21.68.02,1.01-.01,1.82-.01.34.66,1.03-.59.76v1.2s-1.21-.17-1.21-.17l.18.34h-.34c.05-.38-.44-.56-.76-.53-.11.01-.06.54-.53.35-.66-.25.13-.99.08-1.03h-.52c.43-.38-.65-.76-.69-.98-.01-.07.07-1.22.09-1.43.02-.24.25-.5.26-.61,0-.08-.28-.05-.31-.16-.07-.28.23-1.44.1-1.73-.06-.13-.29-.13-.37-.26s.18-.41-.28-.35v-.17c1-.23,0-.9,0-.97-.03-.31-.1-.92-.12-1.2-.02-.31.2-.66.13-.98-.08-.36-.81-.29-.84-.33-.19-.2-.03-.82-.51-.86.39-.74-.64-.4.11-.73-.13-.54.16-1.16-.14-1.69-.08-.14-.74-.41-1.02-.78-.41-.55-.75-1.94-1.03-2.34-.12-.16-.4-.06-.49-.14-.24-.23-.02-1.05-1.09-1.59-.27-.13-.6-.06-.85-.18-.29-.15-.42-.8-.96-.94l-.33.34c-.24-.72-.99-.49-1.61-.39l-1.32-1.33c-.37-.02-.59,2.22-.44,2.45.56.85.06.8.25,1.58.11.45,1,1.27-.25,1.3.72.88.35.51.21,1.26-.05.25.21.73.14,1.03-.03.14-.35.11-.35.21-.01.21.25.62.18.92l.68.09c-.09.28-.62.7-.66.89-.08.39.76.84-.2,1.52.4-.15.35,1.26.31,1.37-.03.09-.29.06-.31.2-.07.38.32.84-.17,1.34l.52.09-.52,1.11.5.34c0,.56-.45.82-.47.87-.02.05.13.47.06.77-.21.88-.62,1.23-1.5,1.45-.64.16-.39-.05-.97.25-.43.22-.8.13-.83-.41,0-.16.22-.34.22-.51,0-.32-.55-.86-.56-1.21,0-.29.36-1.31.37-1.55,0-.38-.35-1.18-.35-1.47,0-.59.41-1,.45-1.45s-.19-.81-.12-1.3c.07-.52.47-.87.45-1.37h-.5c-.12-.58.05-.96.5-1.29l-.32-.16c.25-.36-.09-.9-.03-1.18.03-.14.31-.1.34-.23.03-.14-.03-1.67-.51-1.44.53-.49.07-.55.06-.8-.01-.22.09-.42.06-.62-.07-.61-.65-1.16.2-1.36-.3-.45.16-.93.15-1.09-.01-.18-.41-.32-.43-.51-.02-.22.62-.91-.22-1.2.27-.32.36-.72.43-1.12.17-1.03-.2-1.92-.05-2.97.07-.48.74-.42-.37-1.07.56-.2.15-1.37.2-1.44.46-.6.18-.27.36-.68.02-.04.26.03.31-.28.12-.84-.25-.69-.35-.92-.31-.67.34-2.08.68-2.7-.86-.59-.65-2.07-.44-3.19.09-.49.91-1.71.1-1.96.54-.45.18-1.62.21-2.24.06-1.07.16-2.52.48-3.44l-.36-.17c.19-.61.66-.93.37-1.6l1.28-.54c.22.44.32.58.81.73.1.03,2.02.27,2.13.26.18-.03.2-.39.28-.44ZM11.57,25.63c-.63-.27-.69-.22-1.29.12.27.68.12,1.41.16,2.12.02.26.27.51.27.7,0,.27-.44.85-.46,1.38-.02.75.49,1.51.18,2.32l.51-.17-.5,1.47.51.34c-.5.13-.19.25-.31.54-.09.22-.33.37-.38.67-.1.58.31,1.09.28,1.37-.02.19-.37.3-.28.6h.52s-.16.62-.16.62l.33.15c-.03.55-.84.97-.84,1.04,0,.05.27.48.23,1.03-.09,1.15.05,2.49.04,3.62,0,.29-.41.9-.11,1.46.67.1.51-.63.55-.66.25-.19,1.01-.28,1.09-.35.17-.13.23-.46.44-.62.29-.22,1.09-.19,1.54-.53.19-.15.04-.44.18-.65.23-.34,1.52-1.63,1.88-1.67-.02-.26.49-1.2.74-1.66.12-.23.74-.17.37-1.09l.6-.18-.15-1.08.33-.17c-.56-.73.26-1.1.32-1.41.11-.54-.63-.85-.46-1.33.05-.13.27-.12.28-.17.17-.67-.07-1.12.06-1.75l-.35.08c-.11-.3.26-.39.27-.6,0-.11-.33-.46-.1-.77-1.41.21-.71-1.24-.93-1.85-.2-.57-.89-.15-1.2-.37-.05-.04-.33-.71-.47-.85l-.66.32c-.2-.15-.03-1.89-.78-.69-.7-.64-.29-1.04-1.35-1.14-.61-.06-.28.1-.86-.15Z"/><path d="M58.34,22.73c.14.14.31.19.45.33l-.34.43c1.27,0,.53,1.86,2.06,1.21-.56.94.19.79.4,1.25.14.3-.06.58.04.97.1.43.63.92.75,1.18.21.46.34,1.37.59,1.88.05.1.31.11.41.3.11.22-.25.61-.25.73-.01.39.37,1.48.44,1.69.12.35.42,1.31-.13,1.12l.36.28c-.39,1.18.74,2.34.5,3.5l.51-.17c.23,1.03-.51,1.81.37,2.66l-.36,1.12.51.09c.07.5-.5.84-.51.89-.03.15-.03,2.89,0,3.03.04.14.61.17.15,1.04l.36.18c-.16.33-.7,2.4-.66,2.59.03.11,1.05,1.16.16,1.36.26.48.26.9-.36.96l.5.76c-.41.25-.84.84-.94,1.3-.15.69.79,1.26-.42,1.98l.51.51c-.18.33-.65.48-.85.7-.14.16-1.15,1.93-1.15,2.05,0,.14.29.23.2.43-.02.04-.39.75-.43.77-.15.08-.35.08-.52.1l.14.31-.31.19.34.09c-.1.36-.57.53-.69.74-.29.54-.21,1.31-.87,2.32-.17.26-.46-.08-.17.81-1.04-.17-1.09.2-1.46,1.03-1.47-1.06-3.12-.5-4.34-2.03h-.37s-.36.49-.36.49c.04-.63-.58-1-.77-1.53-.14-.39.4-1.31-.61-.87l.16-.5c-1.04-.32-.94-1.03-.33-1.73h-.69c0-.45.06-1.06-.16-1.46-.08-.13-.38.14-.5-.18l.32-.77-.67-.19c-.02-.66.45-1.28-.36-1.63l.18-.59-.34.18c.16-.28-.05-.74,0-.92s.52-.02.35-.46c-.24,0-.34-.1-.48-.29-.36-.52-.02-1.08-.73-.92l.34-.28v-1.27s-.34.17-.34.17c-.01-.45.38-1.18-.17-1.28.11-.25.34-.55.41-.8.34-1.11-.51-.3-.34-1.02l-.42-.17.52-.51h-.52c.32-.64,0-1.53.52-1.98l-.34-.16c.08-.39.52-.77.62-1.04.05-.13-.06-.35-.03-.52.23-1.25-.05-.57-.07-.87-.05-.55.52-1.47-.34-1.71l.69-.69c.05-.13-.3-.04-.35-.19-.02-.06.03-1.17.04-1.32.01-.19.24-.38.26-.58.06-.56-.36-1.09.39-1.7-.46-.1-.44-.61-.35-1.03s.4-.34.49-.46c.1-.14-.38-1.58.37-1.77l-.35-.17.87-1.55-.34-.25c.52.08.16-.3.33-.57.23-.34.68-.66.94-1.18.15-.29.15-.82.18-.85.17-.17.52-.12.58-.18.11-.13-.07-.57.06-.8.05-.09.62-.24.73-.54.07-.19-.16-.51,0-.7.12-.15.44-.11.56-.22.42-.37.26-.28.75-.57.19-.11.06-.58.51-.23l.02-.5c.14-.12.77.2.68-.36.54.61.72-.26,1.37.17l.35-.95-.35-.26c.74-.18,1.9.52,1.89-.69.25-.06.13.16.24.27ZM56.03,26.92c.1-.3.26-.74-.17-.86-.16.92-1.32,1.88-1.64,2.59-.21.48.16.89.08,1.36h-.51c.48.79-.79,1.56-.81,1.8-.03.33.4.76-.07,1.38l.36.17-.32,1.02-.54.1c-.13.47.22.28.3.38.32.36-.33.99-.42,1.29-.05.19.09.5.05.74-.14.72-.27,1.44-.45,2.15h.35s-.35,1.11-.35,1.11l.52.09c-1.05.76-.37,1.57-.69,2.67,1.31.03.14.56.04.72-.03.05.09.95-.03,1.18l.51-.17c-.04,1.36-.4,2.5,0,3.87l.34-.09c.19.27-1.2,1.23-.03,1.64-.21,1.06-.49,1.6.03,2.67l.69-.17-.31.19.07.5-.44.25c.18.41.66.06.69.09.1.12.01.89.03,1.13s.24.4.25.51c.01.42-.44.92-.1,1.84.09.24,1.21,1.61,1.25,1.72.13.37-.1.65-.04.88.01.04.56.61.6.61.16.03,1.51-.1,1.58-.19.09-.11-.02-.48.11-.66.12-.17.7-.12.78-.6l-.69-.09c.03-1.08.79-.67.84-.7.26-.18.19-1.37.71-1.44v-.25c-.99-.23-.12-.48.15-.98.22-.4-.03-.89.15-1.22.2-.38.63-.41.81-.98.11-.35.28-1.27-.25-1.13v-.17c.27.23.5-.84.48-.92-.03-.18-.37-.35-.31-.45,0-.02.23.04.34-.12.23-.34.27-.83.52-1.18l-.35-.16.35-.6h-.52c.29-.35.03-.78.09-1.06.09-.42.6-.47.61-.6.06-.69-.66-.55-.7-.59-.22-.19.61-1.62.63-1.8.04-.42-.66-.35-.46-1.01l.35-.19-.69-.43c.44.04.91-1.58.68-1.9l-.34.17c.04-.54.48-.91-.18-1.14l.35-1.27-.66-.02-.17-.44.65-.74c-.94.24-.17-1.15-.86-1.29l.34-.94-.66-.2c-.1-.54.16-1.18.15-1.62,0-.39-.25-.58-.3-.88-.03-.19.15-.44.11-.65-.06-.32-.59,0-.8-.58-.19-.5-.01-1.09-.07-1.33-.02-.1-.26-.07-.28-.17-.19-.78-.19-1.71-.56-2.49-.67.43-.51-.53-1.2-.35Z"/><path d="M39.28,22.88s.06.17.11.19c.31.17.58.01.85.64s.87,1.77.67,2.29l.27.11-.12.31.53.09c-.03.27.04.59-.02.85-.1.5-.64.52-.02.69l-.15.6h.69c-.48.55-.47.85-.34,1.55l.69-.34-.17,2.06.69-.17-.17,1.89h.52c-.6.72.22,1.16-.35,1.72l.5.27c-.2.68-.39,1.32.53,1.28-.54.7-.12.94-.06,1.46.04.3-.12.72-.09.85.06.22.39.19.47.36.05.11-.3,1.76-.27,2.27.02.43.61,1.61-.05,1.69l.51.6-.69.77.5.28c-.11.34-.26.67-.23,1.04.07.85.44,0,.11,1.65-.18.91-.15,3.29-.43,3.89-.15.31-.51.3-.57.53-.13.48.38,1.46.21,1.91-.11.28-.77.45-.62,1.37l.52.17c-.11.59-.68.51-.84.63-.19.14-.48,3.03-.6,3.47-.15.57-1.82,3.49-2.2,3.8-.68.55-1.44.43-1.19,1.48-.05.09-1.71-.37-1.98-.31-.1.02-.07.26-.17.28-.35.09-1.12-.57-1.38-.59-.44-.03-.85.65-1.03-.08l-.6.52c-.31-.62-.41-1.52-1.18-1.75l.15-.32c-.92.09-1.29-.8-1.03-1.55h-1.03c.12-.33.37-1.03.22-1.34-.15-.33-.52-.36-.54-.41-.04-.07.19-.3.12-.46-.12-.26-.76-1.01-.96-1.28-.08-.1-.13-1.9-.33-2.52-.12-.39-.3-.68-.74-.72l.36-.27-.19-.58-.34.17-.13-.96c.03-.2.67-.13.47-.82-.05-.19-.42,0-.35-.28h.52s-.51-.6-.51-.6l.51-.77h-.52s.35-.86.35-.86h-.69s.16-.61.16-.61l.71-.08-.51-.35c.02-.38.49-.45.52-.76,0-.08-.04-1.17-.06-1.22-.1-.2-.36-.2-.42-.27-.03-.04-.05-.85-.05-.89,0-.06.45-.61.52-.89l-.32-.16.49-1.9-.86-.17c.17-.63,1.53-1.45.34-1.81v-.17c.55.04.95-1.11.35-1.04v-.25c1-.36.08-1.45.51-2.32-.15-.09-.63.19-.52-.26.5-.52.68-1.03,1.16-1.55l-.65-.69.87-.88c-.09-.53-.22-.56-.7-.67l.36-.59.49.16c.04-.46.03-1.36.18-1.76.08-.21.37-.19.46-.38.06-.12-.18-.59-.09-.84.14-.4,1.74-1.05.49-1.58.69-.23.35-.54.37-.57.06-.08.39-.1.57-.38.22-.34.19-1.01.34-1.21.27-.33.93.12.8-.65l.68-.11c.03-.97,1.42-.66,2.15-.94.5-.19.9-.87,1.4-1,.61-.17,1.46-.17,2.05.04ZM37.28,26.07c-1.47-.34-1.66.9-2.51,1.72l.27.68c-.82-.07-1.41.91-1.39,1.64.01.36.32.6.32.68,0,.11-.88,1.33-.94,1.91-.05.48.35,1.45.26,2.05-.1.63-.92,1.94-.94,2.05-.05.4.48.94-.07,1.46,1.32.45.29.71.05,1.07-.35.53-.33,3.18-.17,3.54.02.05.31.02.29.12-.19.34-.61,1.24-.64,1.57-.04.48.53,1.8-.22,1.79.12.41.37.31.69.17.19.51-.52.88-.51.94.23,1.33.07,1.95.15,3.3.03.43-.32,1.03.34,1.1v.24s-.85.69-.85.69c-.02.17.23.03.31.11.03.03.1.55.18.78.11.32.46.42.21.91l.51-.17c0,.88-.44,2.4.69,2.41l-.34,1.03.34-.09c.08.22-.18.61-.14.74.01.04.65.38.65.48,0,.21-.27.52-.15.73.03.05.3.08.41.2.39.43.98,1.31,1.69,1.17.31-.06.45-.61.89.04-.01-.6.51-.55.67-.85.1-.18.2-1.02.46-1.46.12-.2.42-.23.47-.31.1-.15-.15-.75.02-1.06.92-.2.34-.3.41-.86.07-.61,1.16-2.16.63-2.93-.17-.25-.52-.18-.51-.45l.33-.08-.15-.44.34.17c-.18-.41.33-.56.33-.59-.04-.61-.74-1.79.53-1.82l-.33-.24c.13-.74.64-1.38.49-2.15h-.5s.34-.27.34-.27c-.7-.32-.42-.4-.31-1.1.83.07.6-.73-.03-.96l.85-1.03-.83-.86.32-.69-.35-.16c.21-.4.65-1.34.65-1.76,0-.24-.26-.38-.26-.62-.01-.43.47-.88-.22-1.07,1.12-.94-.68-1.96-.7-2.09-.08-.71.71-.61.53-1.52l-.53-.09c.6-.67.09-.8.04-1.16-.04-.26.14-.5.11-.64,0-.04-.23-.22-.38-.58-.02-.05-.27-.03-.27-.11,0-.24.28-.7.25-1.05-.03-.33-.4-.59-.51-.92-.19-.54.35-.96-.28-1.15l.18-.41h-.52s-.08-1.55-.08-1.55h-.6s-.14-.61-.14-.61l.48-.33-.52-.09.18-1.2Z"/><path d="M226.57,26.93c.05.04.05.51.22.64.16.13.54.07.77.26.13.11.32.58.49.8.25.32,1.13.57.24.96.96.21-.12,1.02.7,1.22l.51-.27c.07.65.08.83-.51,1.12.65.36.66.58.7,1.28h.68c-.49.76-.89,1.82.35,1.9-.47.8-.57,2.21.52,2.5-.32.88-.62,1.22.17,1.97l-.52.44c.95.48.46,1.3.51,1.87.01.15.57-.05.34,1.2-.11.63-.29,1.2-.16,1.88.01.06.38.47.45.98.1.74-.28,1.9.76,1.9l-.15.6.32.25c-.69-.08-.06,1.41-.06,1.64,0,.26-.39.5-.4.69-.01.18.46.87.31,1.28h.5s-.18.43-.18.43l.35.1c-.57.54-.05,1.05-.34,1.72h.5c-.16.76.33.66.36.69.06.09-.31.28-.31.56,0,.66.59.95.62,1.01.17.38-.4,1.68-.03,2.21.18.25.67.32.73.81.05.43-.52.64-.14,1.29.1.18.32.12.33.14.05.08-.88,1.56.35,1.03l.1.87-.62.17c-.07.29.3.07.35.28.01.05-.09,1.06-.11,1.11-.27.95-.7.71-1.06,1.08-.06.06-.25.7-.49.81l-1.28-.43c-.11-.08-.79-1.84-.9-1.95-.08-.08-.35.03-.48-.14-.35-.43,1.1-2.07-.5-1.44l.34-1.13-.31-.15c.04-.79.07-.79.66-1.3h-.5c.25-.47-.24-.41-.33-.61-.07-.37.39-.67.42-.85.15-1.02-.86-1.1-.87-2l-.43.02.52-1.72h-.52s.35-.86.35-.86l-.86-.09.69-.6c-.46-.41-.24-.84-.35-1.26-.03-.13-.56-.11-.17-.98-.73.25-1.38-.5-2.19-.47-.32.01-.59.37-.9.4-.24.02-.39-.27-.61-.27-.27,0-.86.5-1.6.29-1.1-.31-.5-.11-1.48-.16-.41-.02-.96-.46-1.49-.3.23.52-.29.73-.3.77-.1.35.01,1.29.47,1.38l-.51.26c-.07.3.26.11.32.19.12.15-.3,1.01-.84.67l-.16,1.12.49.11.02.83-.52-.17.33.58c-.16.25-.42.41-.55.68-.15.32-.18,1.19-.09,1.33.34.54-.06.79-.55.5l-.17,1.72.52.17c-.14-.05-.77.71-.79.76-.12.26.08.68.08.88,0,.12-.5-.02-.32.42l.34.09c-.83.51-.71,1.33-1.02,2.07-.2.47-.73.83-.52,1.28h-.92c-.1-.2-.58-1.22-.58-1.29,0-.26.65-.35-.04-.5.22-.58.17-1.41.14-2.06-.05-1.37-.03-2.78.25-4.23.1-.52.44-.88.45-1.37l-.51-.09.85-.86-.34-.26-.18.09c.1-.66,1.26-1.93.36-2.4.52-.82.3-1.94.42-2.7.05-.32.51-.92.43-1.24-.03-.13-.22-.1-.22-.11-.25-.42-.11-.4.22-.17l.69-1.47c-.49-.14-.18-.26-.23-.39-.02-.05-.29-.04-.28-.12.01-.12.25-.37.27-.6.03-.37-.53-.49.42-1.13l-.51-.34.52-.26c-.54-.48-.07-.61-.07-.94,0-.11-.21-.24-.2-.34,0-.07.19-1.19.21-1.25.13-.34.72-.04.12-.99l.61-2.21c-.97-.64.27-.73.36-.8.02-.01-.14-.26-.11-.4.09-.45.31-.95.45-1.4l-.69-.43.84-.37c-.29-.47.15-.99.12-1.27-.02-.15-.26-.29-.26-.34,0-.14,1.54-.84.33-1.46.53.04.37-.41.46-.52.13-.16.4-.21.49-.34.22-.33.01-.88.09-1.25.03-.13.31-.16.4-.34.35-.67.38-1.1.98-1.76.74-.83,1.53-.75,2.57-.95l-.17-.69c.52-.12,1.01.56,1.32.64.13.03.37-.13.39-.12ZM225.25,31.19c-.13-.08-.15-.39-.31-.47h-.26c.21.43-.09.63-.52.69.47.51.29,1.42-.49,1.39.17.4-.23.7-.2,1.09.03.36.61,1.01-.34,1.3l.34.34c-1.17.41-.47,2-1.2,2.85l.33.31-.67,1.23c.79.01.49.57,0,.86-.07.38.23.2.3.29.14.16-.47,1.79-.12,2.27l-.35.11c-.04.31.34,0,.36.42.04.94-.88,1.39-.2,2.4l-.51.35,1.72.6.19-.69c.46.3,1.48-.04,1.8.05.18.05.23.61.93.45.06-1.26.71-.16.79-.16.28,0,.77-.58,1.29-.35.14-.46-.25-.31-.42-.51-.34-.42.28-.61.35-.77.28-.59-.16-1.1-.79-1.15.21-.58-.15-1.07.51-1.45l-.34-.16.52-1.12h-.52c.33-.41-.11-.32-.14-.43-.08-.28.43-.78.31-.95-.86.38-.95-.48-.16-.79l-.19-.58-.33.17c-.25-1.13.14-1.94-.19-3.14-.11-.39-.1-.36-.2-.86-.23-1.13-.29-2.27-1.12-3.14l.3-.43c-.15,0-.34.04-.47-.04Z"/><path d="M270.45,27.27c.1.07,0,.31.14.28l.34-.51.44.86,1.19-.17v.69s.32-.15.32-.15c.26.65.65,1.39,1.05,1.97.11.16.43.19.48.28.23.4-.25,1.14.91,1.09.42.72-.17,1.08-.11,1.29.1.36.69.92.44,1.19.52-.09.61.14.69.62.02.25-.64.4-.35.76.32.39.3-.44.51-.34.17.65.09.95-.17,1.55h.69c.18.71-.94,1.3.17,1.21l.02,1.61.84.58c-.18.39.07,1.04.01,1.31-.03.12-.89.18,0,.57.09.37-.2.81-.18,1.17.03.42.46,1.12.49,1.21.09.31-.59.93.37.78-.02.8-.73.88-.52,1.72l.69-.34c.19.77-.49,1.03-.52,1.14-.04.15.17,1.31,0,1.61h.86s-.51.17-.51.17l.32.19-.15.58-.34-.08.34.43c-.95.39-.38,2.77-.71,3.16-.08.09-.47-.02-.87.59-.54.82-.36,1.53-.56,2.36s-.68.61-.78.8c-.2.35-.08.99-.17,1.32-.06.2-.51,0-.34.46l.52.09-1.38,1.12.34.68c-.9.05-.88.29-1.38.78l.35.17c-.42.26-.69.86-1.21.78l.13.3c-.53.09-.26,1.29-.98.89v.52c-.27.26-1.48-.79-1.64,0-.47-.09-1.23-.61-1.53-.72-.49-.18-1.09.1-1.46-.06-.44-.19-.75-.79-1-.94-.64-.4-1.14-.35-1.77-1.16-.23-.29-.45-.71-.52-1.08l-.51.18c-.04-.5-.41-1.01-.46-1.49-.03-.25.17-.56.13-.81-.04-.2-.71-.34-.84-.5-.03-.04.12-.18.08-.27-.02-.05-.27-.02-.27-.11,0-.5.12-1.06-.02-1.65l-.34.17c0-.26.15-.49.15-.76,0-.21-.12-1.2-.17-1.36-.06-.18-.54-.01-.15-.8h-.52c.47-.75-.18-1.98-.08-2.66.15-1.11.08-.16-.09-.71-.04-.13.39-2.04.33-2.4l-.34-.17.18-.42-.52.08c.15-.42.17-1.09.29-1.46.04-.12.27-.27.36-.48.41-1.05-.03-.8-.08-.98-.25-.79.29-.8.29-.85,0-.24-.29-.71-.25-1.05.03-.31.38-.52.39-.68.01-.23-.4-.5-.41-.69-.02-.38.75-.97.77-1.03.11-.36-.44-.69-.41-.95.03-.35.43-.7.54-1.02.32-.99.26-1.65.65-2.45.29-.58-.07-1.24.81-1.17v-.43c-1.03-.39.94-1.13-.17-1.29l.36-.27-.18-.57c.33-.11.81-.34,1-.64.27-.42.15-1.34.47-1.4.41-.08.72-.14,1.18-.55.39-.36.6-.96.71-1.05.57-.43,1.02.22,1.09.18.01,0-.03-.18.07-.27.7-.65,1.46.1,2.09-.71.15.03.26.11.38.19ZM270.34,32.19l-.18-.94-1.52-.24-.37.93.34.16c-.44.67-1.36.48-1.17,1.43l.31.12-.35.17.35.17c-.26.52-.59.79-1.2.78.19.33.73.44.7.93,0,.05-.63.26-.44.8l-.61.16.19.58-.53.37c.58-.09.58.48.3.74-.1.09-.36,0-.46.05s-.31,1.74-.34,2c-.06.49.18.95-.19,1.51.09.24.68-.36.52.17-.1.31-.4,1.24-.68,1.12l.34.17c-.36.8-.46,2.24,0,3.02-.27.14-.42,0-.35.42l.52.09c-.62.13.16.76-.69,1.2l.51.27-.51.67c.83.07.24.72.25,1.3,0,.25.2.49.21.73.03.48-.21,1,.22,1.33l-.51.34c.16.37.65.03.69.09.1.14-.23,1.36-.13,1.63.03.09.43.18.43.72,0,.37-.38.63-.12,1.09l.34-.17c.04.79.9.99.52,1.89,1.17-.35.55.62.67.95.2.56,1.25.78,1.49,1.45.37.1.4-.49.43-.52.08-.05.49.53.84.32,0-.73,1.36-1.6,1.5-1.87.04-.08-.53-1.3.57-1.22-.18-.73.17-.85.43-1.19.06-.08-.07-.31-.04-.33.19-.14.72.11.68-.78l-.36-.27c.36.05.34-.19.36-.49l.67-.03-.34-1.03h.51c-.22-.64-.5-1.14.34-1.38l-.32-.19,1.01-1.62-.44-.25.07-.5-.32-.03.35-.28c.04-.45.11-.7-.35-.83.68-.5.54-1.4.23-2.12-.09-.21-.35-.2-.37-.24-.06-.13.11-.34.09-.54-.02-.14-.22-.27-.22-.37-.02-.33,1.08-1.12-.41-1.29.55-.75.01-1.27-.01-1.8-.01-.28.21-1.05.15-1.21-.04-.1-.3-.06-.31-.18s.22-1.08.17-1.1c-1.02.11-.49-.17-.62-.35-.09-.13-.39-.12-.43-.29-.07-.27.13-.66.12-.97-.03-.97-.73-1.07-.76-1.17-.03-.11.16-.34.11-.54-.11-.46-.72-.34-.14-1.38l-.87-.46.17-.69c-.6.26-.82-.47-.51-1.03h-.52Z"/><path d="M134.19,22.59c.5.31,1.3-.54,1.6.56l.69-.63,1.04.48.33-.36c.41.48,1.3.31,1.12,1.03.41-.34.53-.35,1.03-.17-.6.69-.08.81-.03,1.15.03.21-.24.33-.27.51-.06.34.4.52-.22.66l.52.6c-.74-.37-.96.17-1.35.26-.2.05-.42-.11-.59-.09-.11.02-.06.58-.85.31-.3-.1-.41-.5-.72-.49l-.11.31-.46-.1-.11.31c-.43-.27-2.13-1.07-2.48-.67-.02.03.24.36-.24.54-.32.12-.6-.1-.87-.05-.12.02-.11.27-.26.33-.71.31-1.17-.23-1.84-.24-1.36-.02-1.53.32-2.92-.07-.12-.03-1.01.36-1.38.29-.47-.08-1.44-.41-1.91-.44s-1.13.12-1.62.12c.43.55-.21,1.47-.17,1.54,0,.02.23-.04.35.12.4.54-.29.92-.26,1.45.02.41.33.79.37,1.13.06.48-.15,1.17-.08,1.64.28,1.83.41,3.59.43,5.44.01,1.09-.11,2.2-.12,3.29.58-.6.64-.1,1.09-.04s.99-.41,1.49-.3l-.17-.51c.55.12.91-.13,1.37.34v-.52c.89.54,1.25-.23,2.08-.26.51.08.26.5.35.58.11.1,1.06-.04,1.28.37l.35-.17c.03.72.58,2.45-.26,2.84-.27.13-.6.05-.9.14-.19.05-.35.25-.57.28-.79.13-1.5-.06-2.23-.34l.09.34c-.38-.23-.68.12-.94.11-.38,0-.91-.26-1.41-.23-.34.02-.62.4-1.1.2l-.68,1.21.34.09c.08.28-.31.08-.35.28s-.04,1.49.35,1.27c-.67.56.2.94.17,1.46-.01.24-.29.4-.31.55-.03.21.26.37.26.48,0,.14-.35.36-.38.68-.08.68.66,1.63-.25,1.9.85.54.25,1.47.35,2.04.02.13.44.12.46.56.02.41-.39.86-.3,1.33.03.13.34.04.37.37.11,1.33-.75,3.47-.07,4.69.12.22.4.22.4.3l-.64.68c.34.85-.42,1.63-.06,2.5-.41-.17-.54.33-.63.35-.15.02-.35-.11-.48-.09-.4.07-.6.37-1.12.09l.17-.34c-.85.09-.8-.23-1.11-.8-.04-.07-.27-.08-.28-.17-.05-.52.86-.85-.15-1.12l.16-.4-.35-.18c.51-.68.45-1.76.36-2.6-.02-.2-.5-1.58-.62-1.97-.11-.33.3-.47-.25-.6.59-.14,0-.66.69-.86l-.35-.2c.1-.45-.15-1.06-.1-1.44.08-.71.79-.85.09-1.46v-.33c.45-.08.38-2.21,0-2.27l.35-.86c-.64-.36-.7-1.64,0-1.97-.88-.11-.12-.88-.15-1.47-.02-.31-.32-.22-.36-.36-.09-.31.52-1.58.16-2.29l-.51-.09c.82-.73.17-1.79.25-2.52.03-.29.47-.82.39-1.09-.04-.12-.66-.64-.65-.69.03-.12.27-.32.32-.56.11-.63-.2-1.51.38-2.19l-.52-.35.51-.52-.52-.26c-.05-.53.5-.26.5-.95,0-.59-.58-.56-.58-1.1,0-.73.74-1.56.78-2.01,0-.09-.61-.99-.52-1.73.02-.17.49-.8.52-1.36.04-.62-.34-1.86-.33-2.04.02-.19.27-.39.29-.57.02-.25-.37-.4-.26-.75.17-.52,1.11-.73.97-1.37.67.25,1.63.08,1.97.86.54-.53,1.28-.12,1.97-.36l.1-.5c.9.51,1.5-.22,2.49.17l-.17.34h.43c.28-.7,1.47-.72,1.98-.17.42-1.31,1.83.67,2.34-.87l.76.53.26-.68.69.68.54-.53.5.18.08-.51c.28-.07.11.24.2.3Z"/><path d="M241.99,27.5s.04.23.18.27c.33.08,1-.31,1.18.36l.53-.53c.69.38,2.83,1.21,3.58,1.04.13-.03.09-.72.89,0l.34-.51c.49.38.94.73,1.56.36,0,.43,1.45.55,1.68.51.3-.06.03-.95.98-.1.13.12.14.39.17.43.17.21.06-.55.59-.33.32.14.52.91.64.99.03.02.59-.18.8.06.02.02-.1.24-.04.32.18.23.55.19.6.6.03.32-.12.82-.52.78l.43.67.43-.15c.02.42-.44.66-.51.82-.12.26.22.7-.35.81l.69.6c-1.4.48-.77,2.08-1.04,3.17-.09.36-.37.47-.33.79l.34-.17c.29.67-.18,1.14-.28,1.84-.11.78,0,1.66.62,2.2-.4.1-.75,1.08-.78,1.44-.03.39.46.82.09,1.39h.52c-.24.9-.97,1.87.33,2.26l-.18.65-.67.02.08.86h.61s-.34.34-.34.34l.32.25c0,1.01-.51.66-.67.78-.06.04.46,1.02.17,1.37l.52.09c.12.85-.55.7-.78.93-.06.06,0,.42-.07.61-.09.24-.34.45-.36.71-.03.36.42.87.42,1.18.01.98-.89.3-.6,1.29h-.51c-.1.63.51.77.21,1.34-.32.6-.8,1-1.16,1.77-.26.56-.34.59-.61,1.11-.13.25-.03.49-.14.7-.44.82-1.16,1.01-1.04,1.97l-.86-.17.51.36c-.18.86-.68.42-1.18.59s-2.07,1.28-2.2,1.29c-.3.04-.59-.18-.84-.16-.23.01-.4.27-.51.27-.16,0-.4-.39-.68-.4-.42-.02-.81.56-1.39-.05-.22-.24-.17-.58-.37-.7-.27-.18-.98-.14-.91.35l-.19-.32-.32.14-.19-.85h-.51s.17.34.17.34h-.34c-.23-.59-.45-.6-.08-1.2-.29-.37-.85-.44-1.15-.77-.03-.03-.26-.46-.38-.65-.45-.68-.68-2.02-1.49-1.16l-.17-.75.68-.45c-.59-.16-1.1-.85-.34-1.12l-.36-1.01c.46-.13.19-.36.23-.41.21-.31,1.15-1.33,1.46-1.58s.74-.44,1.07-.7c-.33.87.02,1.04.27,1.72.2.54.31,1.25.64,1.93s1.1,1.09.81,1.85l1.03-.34c-.06.63.66.75.35,1.38l.51-.17v.5c.65-.18.7.4,1.02.46.38.08.96-.13,1.32-.26.49,1.15.38-.6.45-.68.09-.09.46-.13.73-.38.29-.28.61-1.11.66-1.15.12-.1.37,0,.46-.05.05-.03-.22-.76.53-.93l-.51-.6c.49.06.1-.29.51-.6.2-.15.67-.24.69-.28.05-.07-.17-.43-.1-.68.11-.42.56-.47.6-.54.07-.12-.14-.37-.1-.54.28-1.15.46-2.11.55-3.3.04-.58.6-1.19-.26-1.29v-.17c.08,0,.26.01.28-.03.08-.15.63-1.82.65-2.01.07-.54.02-1.18-.6-1.14l.37-.34-.36-1.04.34-.25-.34-.09.52-.86-.36-.18.18-.59-.34.08-.15-.69.67-.6-.3-.03.12-.3-.68-.27.86-1.37-.7-.37c.12-.32.02-.65.06-.96.1-.74.38-1.33.6-1.98.11-.33.02-.81.21-1.16l-.52-.09c-.14-.64.3-.86.64-1.28l-.47-.52.49-1.04c-.77-.57-1.61-.52-2.48-.51-.11,0-.26-.21-.33-.2-.62.06,0,.46-1.59.16-.42-.08-.76.33-1.17-.38l-.09.52c-.44.04-.82-.49-1.1-.51-.19,0-.44.17-.69.16-.45-.02-1.35-.75-1.56,0-.24-.51-.91-.48-1.19-.67-.18-.12-.03-.42-.21-.55-.15-.1-.69.03-.84-.32l-.26.69-.55-.99c-.22.08-.46-.15-.57-.14-.15.01-.5.48-.6,0-.03-.15.15-.42.12-.66s-.43-.48-.12-.97l-.86-.09c.09-.49.6-.38.71-.53s-.02-.48.03-.55c.03-.04.68-.5.72-.5.14-.01.63.34.94.38.79.12,1.35-.15,2.18.15Z"/><path d="M82.21,22.95l.6-.14.08.33h.34s.08-.34.08-.34c.76.15.86.77.98.84.14.09,1.26-.35,1.01.7l.51.1c-.43.37-.18.88-.59,1.31-.48.51-1.28.58-1.71.83-.38.23-.27,1.04-1.06-.16-.6.73-1.4-.32-1.72.68-.52-.53-1.35-.48-2.03-.34-.51.63-.17,1.34.1,1.98.07.16.44-.06.12.6l.35-.08c.03.86-.34,1.22-.7,1.88l.7.27c.05.34-.47.73-.48.77-.09.36.32,1.14.3,1.54-.01.3-.38.96-.31,1.39.02.13.33-.06.32.49-.02.78-.51,1.01-.52,1.07-.02.13.15.32.09.58-.16.66-.85.7.07,1.11-.63.54-.04.82-.04,1.17,0,.39-.21,1.32-.22,1.75,0,.19.08.4.11.59l.84.02c.08.28-.25.12-.29.2-.09.2-.19,1.13-.24,1.42-.09.53-.57,1.07.54,1.13v.86s-.69,0-.69,0c-.25.61.35.73.35.78,0,.27-.4.65-.37,1.2.02.3.27.23.32.34.21.46-.42.53-.46.69-.01.05.23.84.27.94.04.09.32.12.36.2.05.09-.26.27.19.39l-.67,1.71c.04.55.63.54.69.62.07.09-.43.77-.46.96-.05.3.22.79.26,1.17s-.46.69.2.86c-.44.58-.77,1.46.17,1.64l-.34.43c.51.1.16.69.34,1.12h-.69c-.07.35.32.46.35.78.01.13-.49,2.05-.35,2.14h.52s-.34.52-.34.52l.5.08c.21.86-.39.8-.48,1.06-.05.15.11.38.05.58-.13.43-.95.65-.58,1.03l-.96-.15c-.38.85-.76.05-.81.03-.18-.06-1.5-.15-1.5-.48l.34-.51c-1.1-.39.04-1.18-.69-1.72.37.1.52-1.3.49-1.38-.03-.1-.33-.08-.33-.18-.01-.27.23-.93.2-1.69-.01-.37.44-.53-.19-.7.49-.49.75-1.27,0-1.55.98-.98-.08-1.75.16-2.82l-.68-.19.34-.43-.34-.34c.39-.42.34-.54,0-.95.72-.02.31-.89.36-1.27.23-1.82.24-2.82.01-4.31-.02-.13.13-.73.14-.94-.21-.12-.66.25-.52-.44.09-.44.44-.36.5-.45.07-.11-.13-.37-.09-.55.09-.52.59-1.23-.23-1.32l.34-.42-.52-.69.35-.43h-.52c.03-.41.76-1.12.66-1.46-.01-.05-.4-.17-.28-.86.09-.49.77-1.12-.03-1.37l.34-.26-.29-.03c-.46-1.14.09-2.07.08-3.15,0-.5-.69-1.77.38-1.64l-.04-.66-.3-.02.35-.27c-.1-.35-.25-.69-.28-1.05-.06-.64.21-.92-.26-1.34l.54-1.64c-.13-.13-2.63,0-2.88.32-.63-.37-1.32.37-1.61.3-.16-.04-.33-.27-.52-.34-.17-.07-.4.04-.5-.02-.35-.22-.45-.79-.63-1.11-.06-.11-.31-.13-.36-.2-.03-.05-.02-1.03,0-1.09.01-.06.71-.91.76-.93.05-.01.93-.04.98-.03.21.04,0,.43.28.35v-.69c.62.23,1.29.02,1.79.05.22.01.45.32.68.27.17-.03.32-.35.57-.44s.77.14,1.01.1c.48-.08.7-.66,1.2.02.27-.67.44-.34.56-.4.05-.02.04-.29.13-.3.39-.03,1.47,1.22,1.72-.17l1.46.35-.17-.34,2.13.17.28-.34.02.32Z"/><path d="M92.58,28.6c.03.07.3.04.28.14s-.25.26-.26.41c-.03.61.16,1.31-.06,1.98l.83.28c.06,1.25-.84,2.19-.88,3.35-.02.74.5,2.7.19,3.22-.1.16-.57.12-.34.47.01.02.26-.07.37.25.26.79-.5,1.51.66,1.74-.53.11-.16.36-.34.65-.15.23-.71.06,0,.9-.47.12-.22.35-.26.77l.44.08c.15,1.19-.52,1.97-.53,3.09l.53.09c.07.31-.29.11-.34.17s.78.82,0,1.37h.69c-.07.86-.77.79-.86.87-.32.28.34.71.34.76-.02.12-.24.35-.25.58-.03.73.18,1.54-.09,2.26l.69.18c.08.1-.49.61-.48.92.04.86.81,1.86.84,2.44.05.94-.53,1.29-.17,2.53.04.15.48.17.16.99l-.51-.17v.69s.69-.17.69-.17l-.19.84-.68.02.15.6-.32.08c-.04.42.64-.05.69,0-.03.58-.09,1.03-.52,1.46l.33.15-.31,1.21.5.44c-.36-.04-.78.74-.82.99-.07.39.39.7-.16.76.31.69-.5.1-.74.05s-.47.09-.68,0c-.31-.13-.63-.74-1.21-.6l.17-.41c-.95-.36.15-1.36-.86-1.48l.52-.6c-.94-.47,1.11-2.31-.69-2.49-.04-.05.38-.65.43-.86.16-.66-.06-1.98-.6-2.32.63-.5.05-.98.06-1.38.01-.25.31-.43.34-.6.08-.44.24-2.1-.4-2.07l.31-.19c-.2-.51.16-.94.15-1.41-.01-.5-.38-1.09-.45-1.6-.08-.64.29-1.95.17-2.53-.03-.14-.34-.11-.34-.19.05-.94.61-2.18.28-3.27-.03-.1-.28-.08-.29-.21-.08-.58.44-1.6.5-2.22l-.29-.1c.26-.65-.13-.43-.18-.57-.09-.24.39-1.2.66-1.38l-.86.09.07-.87.62-.16c-.53-.97.6-1.76-.69-2.32.7-.33.48-1.29.51-1.88.02-.29.22-.64.19-.85,0-.04-.13-.1-.26-.62-.09-.37-.63-.87.08-.87-.49-.69-.16-1.8.29-2.49.03-.39-.44-.44-.43-.51.01-.26.16-1.1.23-1.4.04-.17.3-.3.35-.51.08-.29-.08-.7.05-1.06.19-.54.82-.86,1.01-1.45,2.46-.6,1.51,2.71,2.01,3.92Z"/><path class="cls-1" d="M11.57,25.63c.59.25.26.09.86.15,1.06.11.65.51,1.35,1.14.75-1.2.58.54.78.69l.66-.32c.14.14.42.82.47.85.31.22.99-.19,1.2.37.22.61-.48,2.06.93,1.85-.23.32.11.67.1.77-.01.21-.39.31-.27.6l.35-.08c-.12.63.11,1.08-.06,1.75-.01.04-.23.04-.28.17-.17.48.57.79.46,1.33-.06.31-.88.68-.32,1.41l-.33.17.15,1.08-.6.18c.37.92-.24.86-.37,1.09-.25.47-.75,1.41-.74,1.66-.37.04-1.65,1.33-1.88,1.67-.14.21.02.5-.18.65-.44.35-1.25.31-1.54.53-.21.16-.27.49-.44.62-.08.06-.84.16-1.09.35-.04.03.12.76-.55.66-.3-.56.11-1.17.11-1.46.01-1.13-.12-2.47-.04-3.62.04-.55-.23-.97-.23-1.03,0-.07.81-.49.84-1.04l-.33-.15.16-.61h-.52c-.1-.3.26-.41.28-.6.03-.28-.38-.78-.28-1.37.05-.3.29-.45.38-.67.12-.29-.19-.41.31-.54l-.51-.34.5-1.47-.51.17c.31-.8-.2-1.56-.18-2.32.02-.53.46-1.11.46-1.38,0-.19-.25-.43-.27-.7-.05-.71.11-1.44-.16-2.12.6-.34.66-.39,1.29-.12Z"/></g></svg>