<?xml version="1.0" encoding="UTF-8"?><svg id="Layer_2" xmlns="http://www.w3.org/2000/svg" viewBox="0 0 289.48 107.99"><defs><style>.cls-1{fill:#fff;}</style></defs><g id="ropa_vieja"><path d="M14.45,17.43c.59-.49.58.08,1.01.24.49.19,1.61-.21,1.55-.89l.11.37c.87-.37,1.59.31,2.58.34.7.02.95-.39,1.41-.45.13-.02,1.99.06,2.07.11.43.26.08.92.13.98.05.05.46.02.69.19.19.14.23.52.31.56.23.14.65-.11.96-.06.29.05.79.44,1.14.58.2.08.49-.11.55-.07.09.06.16.53.32.54.06,0,.21-.43.62-.25.64.29.31.75.49.99.16.2,2.45,1.4,2.85,1.41.2,1.04.72,2.15,1.17,3.13.12.27.73.21.2,1.3h.78c.05.05-.18.32-.18.5,0,.86.03,1.26.38,1.77.45.66-.34.81-.36.86-.06.16.46.9-.23,1.23,1,.35.01.5-.16.71-.07.08.55,1.51-.62,1.52l.77.58c-.97.08-.57.34-.76.69-.48.86-.93.45-.96.5-.14.23-.37,1.14-.46,1.28-.29.49-.95,1.08-1.32,1.5-.34.39.12.31-.61.69-.62.33.22.64.31.77.19.26.3.73.51.87.22.14.94-.24.97.67.91-.71.74-.09,1.03.32.15.22.61.14.32.65l.77-.39.2,1.73.94.23.04.94c.6-.08.98.89,1.37,1.44.62.88.34.57.72,1.39.2.43.92.94,1.1,1.54s-.95,1.15.46,1.27c-.26.98.01,1.94.09,2.86.06.65.21,1.03.26,1.45.06.6-.34,1.55.04,2.13.1.16.35.05.39.23.14.56-.63.05-.58.48h.77s-.18,1.81-.18,1.81l-.58.13c-.08,1.12.75,2.46-.2,3.38l.96.48c-.87.2-1.12,1.47-.92,2.23.01.05.47.34.63.87s.08,1.72.12,1.85c.04.11.35.07.34.18-.01.64-1.16,1.58-.18,1.94-.24.24-.22.75-.37.96-.13.18-.43.07-.54.16-.19.15-.1.56-.38.75-.44.3-1.28-.16-1.71.31l-.3-.22c.03-.73-.72-1.02-.85-1.47-.19-.62-.21-1.62-.5-2.37-.1-.24-.71.04.01-.82l-.36-.18c.1-.68.23-1.86.16-2.5,0-.05-.56-.23-.33-.78.16-.38.68-.14.54-.7l-.77-.1c.26-.47.08-.82.77-.68.06-.41.01-.42-.39-.39l.38-.48-.97-.29c.3-.51.25-1.13.97-.97-.54-1.47-.67-2.97-.19-4.45h-.58s.58-1.16.58-1.16h-.78s.77-1.07.77-1.07l-.78-.58c.66-.28.95-1.24.03-1.08.06-.55-.33-1.77-.8-2-.12-.06-.38.09-.39.08-.07-.1.21-1.73-.3-2.32-.2-.23-.82-.2-.96-.77l-.29.39v-1.55c-.38.26-1.24-.5-1.43-.77-.1-.15,0-.43-.14-.65-.42-.67-2.85-1.68-3.58-.91l-.28-.38.19.77c-.59,0-1.11-.09-.97-.77h-.77s0,.58,0,.58c-.46-.24-.92-.03-1.06-.59l-.12.35-.33-.12-.32.54c-.69-.9-2.07,0-2.44-.08-1.03-.22-1.83-2.32-.95-3.11l-.39-.19c.34-.47.83-.72,1.27-1.07.18-.14.24-.5.32-.54.34-.19.85.23,1.03-.4l.46.15c.52-.94,1.91-1.07,2.66-1.91l.47.38-.1-.78c.26-.44,1.46-.48,1.61-.61.07-.06.28-.96.69-1.12-.19-.79.76-.37,1.1-.5.69-.27.34-.97.56-1.3.21-.31.71.14.01-.71.79-.04.7-.63.9-.97.09-.15.41-.12.46-.33.1-.43-.04-1.07-.58-.84l.59-1.82c-.57-.43-1.17-1.13-.98-1.85-.96.43-1.13-.95-1.74-1.48-.36-.31-.57.14-.88-.84l-.1.77c-.81-.18-.74-.96-1.16-1.55l-.29.39c-.55.15-.41-.29-.72-.45s-.86-.24-1.06-.39c-.18-.14-.27-.65-.57-.7-.18-.03-.38.25-.56.28-.88.13-.66-.79-.98-.86-.26-.06-.97.43-1.44-.02.13,1.41-1.1-.15-1.66-.19l-.19.4-1.16-.34-.38.52-.49-.77-1.34.7c.31.97-.16,1.77.39,2.68l-.4.39c1.05.42.29,1.99.42,2.67.07.37.52.64.54,1.01.02.39-.4.88-.39,1.37.01.45.41.7.4.96,0,.2-.07.72-.09,1.08-.04.72-1.09,1.8.48,1.93-.29.32-.28,1.29-.37,1.43-.18.28-.76-.14-.6.5h.78c-1.26,1.37.5,1.56.18,3.09h-.57c.35.46.03.85.05,1.24.02.33.74.41-.05.6l.58.1c-.06.92-.15,1.82-.15,2.75,0,.37.27.74.27.83-.02.27-.31.5-.31.78,0,.39.55.62.55.77,0,.1-.46.47-.52.82-.11.69.56,1.64-.23,2.48l.58.1c.13,1.23-1.31,2.3.19,3-.19.51-.74.46-.58,1.07l.58.09c-.07.52-.59.74-.59.79,0,.21.23.55.29.83.16.76.11.35.28.75.57,1.31-.25.98-.31,1.29-.01.06.05,1.17.07,1.23.09.26.46.23.45.33-.03.18-.31.48-.33.81-.02.37.28.68.24,1.06-.04.35-.39.72-.4,1.04-.03.53.4,1.93.41,2.52.01,1.36-.51,3.2-.48,4.67l.36.16-.16.87.76.5-.78.3c.3.7.02.82-.25,1.36-.05.1.05.31.02.35-.14.12-1.58.59-1.82.6-1.14.03-1.33-1.25-1.53-2.12-1.07-.2.47-1.61-.44-1.78.17-.47-.21-.84-.41-1.42l.55-.31c.08-.38-.49-.79-.51-.85-.17-.53.66-1.28.53-2.03l-.77-.1c.22-.84.87-2.32.96-3.11,0-.08-.32-.05-.37-.23-.4-1.29.13-1.77.12-2.63s-.8-2.09-.82-2.74c-.01-.56.4-1.42.42-2.11.02-.54-.31-1.17-.27-1.55.07-.64.86-.59-.4-.92-.09-.6.4-.54.44-1.1.04-.51-.27-1.05-.22-1.46.03-.24.28-.49.32-.81.08-.72.12-1.45-.38-2.02l.39-.19-.4-.12.41-1.33-.58-.19c.08-.6.73-.89.74-.96.03-.25-.38-1.12-.75-1.17l.59-1.35c-.05-.48-.61-.59-.71-1.07s.39-.78.43-1.06c.07-.52.42-2.78.39-3.1-.02-.27-.46-.76-.45-1.21.02-.85.44-2.59.49-3.5.01-.2.06-1.58.04-1.66-.05-.21-.96-.51-.17-1.57l-.39-.19c.54-.75.06-2.2.27-2.92.08-.26.52-.52.47-.96l-.55-.39c1.35-.55.16-1.57.17-1.74.02-.5.51-2.05.69-2.6.06-.17-.14-.49-.08-.57.15-.21,1.21-.22,1.25-.8.36.55.41.97,1.09,1.24.72.3.72-.17,1.01-.4Z"/><path d="M240.54,17.55l-.39.77.96-.19c.09,1.12,1.58,1.52,1.17,2.69l.77.31-.39,1.06.77.09-.38.87h.59s-.32.68-.32.68c.12.65.73.28.32,1.06l.78.29-.39.19.4.38c-.84,1.24-.3,2.15,0,3.46l-.59.51c.49.12.42.69,1.16.87l-.38.59.36.19c.02.75-.55.79-.54,1.44l.54.03c-.2.59.35.8.37.85.08.33-.15.96.05,1.35l-.58.11c-.08.34.33.13.39.19.06.07-.31.42-.32.67-.01.43.42,1.89.47,2.37.12,1.11-.19,1.18-.27,1.69-.04.24.22.74.12,1.07l.77-.19c-.26.5.08,1.1-.03,1.59-.08.35-.48.66-.49.83-.02.39.9.85.6,1.86-.45,1.5-.16.86-.18,2.22,0,.31-.28,1.12-.29,1.52.32.31.74.57,1.16.31.16.19-.5,1.38-.97.97-.2.45.51.77.54.87.2.64-.54,2.43.43,2.42l-.38.38.4.12-.21.76.58.09c.08.33-.36.08-.4.32-.02.16.14.39.12.56-.03.22-.23.42-.23.57.01.49.59.5-.26,1.26,1.43-.1.47,1.74.59,2.2.06.23.54.14.58.61.06.74-.26,2.27-.14,3.12.01.08.86.73,1.01,1.25.09.33-.12.58-.06.82.1.41.88.58.36,1.49,1.2-.74,1.16,1.18.19.97l.2.77.77-.19c-.34.3-.35,1.05-.47,1.27-.11.2-.34.2-.44.34s-.02.43-.08.48c-.07.07-1.48.15-1.81.62-.39-1.24-2.44.42-1.85-1.55l-.97.19.39-.29c-.24-.26-.72-.88-.74-1.2-.03-.37.51-.55.51-.73,0-.09-.53-.79-.5-1.41.02-.45.31-.93.25-1.23-.12-.61-.88-1.42-.49-2.3l-.77.19.38-1.74-.77.19.38-2.18-.77-.53.39-.19c.08-.33-.3-.12-.36-.21-.33-.44,1.02-1.21.94-1.34-.99-.17-.49-1.58-.57-2.01-.03-.17-.62,0-.21-.59-.83-1.33.35-3.08-.52-4.91-.19-.41-.85-.42-.44-1.4-.19-.19-1.55.41-1.94.32-.35-.08-.48-.43-.7-.47-.3-.06-.81.32-1.24-.05v.44c-.82.7-.99-.64-1.07-.64-.09.92-2.88.29-3,.39l.19.58c-.59.09-1.02-.24-1.46-.58-.24.38-1.17.86-1.79.93-.57.07-.96-.2-1.28-.17-.13.01-.11.32-.21.35-.14.04-.77-.05-.88.05-.01.01.19.25.14.34-.13.22-.86,1.43-.91,1.69-.11.58.22,1.26.11,1.65-.17.61-1.26,1.16.27,1.25-.46.46-.41,1.02-1.16.68v1.44c-.42.18-.58.08-.78.6,1.08.53.21.84.08,1.11-.21.43-.59.94-.65,1.07-.14.33-.31,1.31.19,1.3l-.03.36c-.13.39-1.7,1.02-.56,1.57-.38.48-1.12.53-.97,1.26l.58-.1c-.35.38-.52.88-.77,1.31-.1.17-.41.21-.48.34-.21.39-.01.96-.49,1.26l.58.19c-.31.42-.48.46-.97.29.24.58,0,.68-.38,1.09l.37.56-.19.19c-.61.19-1.36.69-2.01.46-.23-.08-.34-.67-.91-.66-.16-.82.54-1.89.59-2.53.04-.43-.25-.87-.21-1.12.03-.17.43-.14.56-.45.23-.51,0-1.25.09-1.78.13-.83.36-2.32,1.11-2.55l-.39-.48.39-.1c.08-.32-.27-.1-.35-.28-.09-.22.34-1.36.47-1.64.07-.15.42-.14.47-.35.19-.78.29-1.27.48-2.09.04-.15-.15-.38-.09-.48l.58-.1c-1.16-.58-.4-.84-.11-1.47.31-.66,1.39-2.62.5-2.97.31-.38.17-1.12.77-1.08l-.02-.37-.38-.13v-.37c.09-.51.96-.51.79-1.55l-.58-.19c.3-.38.39-.97.97-.68.11-.59-.04-2.33.16-2.82.43-1.07.95-1.54,1.3-2.99.25-1.04.22-2.26.67-3.2l-.58-.48.77-.49-.39-.19c.73-.31,1.07-1.9,1.07-2.67,0-.45-.34-.91-.19-1.33.17-.46.9-1.14,1.05-2.03.08-.47-.22-1.05-.06-1.43.3-.73,1-.85,1.3-1.36.04-.08.56-1.1.58-1.17.22-.58-.29-1.18.82-1.34l-.09-.56.36-.13c-.89-.21.23-1.95.97-1.84l-.39-.58c.64-.47,2.14-1.08,2.62-1.55.53-.51.38-1.38,1.45-1.17-.46-.82.57-1.22,1.16-.58l.34-.43-.14-.34c.12-.08,1.43.57,1.87.57.47,0,.69-.47,1.23-.19ZM238.22,22.01l-.19.39h-.78c-.08.36.33.13.39.2.28.32-1.01.93-1.1,1.03-.58.57-.51,1.47-1.42,1.83-.33.5.29.71.2.82l-1.35.4v.56s.76.3.76.3c-.39.44-.83.59-1.35.29l.35.84-.55.71c.41-.33.34.95.29,1.19-.08.32-.42.49-.55.75-.2.4-.91,2.17-1.01,2.32s-.43.14-.48.34c-.02.08-.16,1.35-.18,1.52,0,.06.72.33.19.95l-.58.1c-.15.16.92,1.78-.39,1.55.35.67-.19,1.28-.33,1.89s.15,1.35-.63,1.89l.4.19c-.26.34-.13.97-.59.87l.38.29-.77.49.12.38c1.35.69,1.13.35,2.39.08.55-.12.68.45,1.07-.47.67.47-.06,1.09,1.08.68.12-.04.25-.05.35-.13l.03-.75c1.13-.17.29,1.22,1.55.58l-.19-.77.78.08.19.69c.77-.09,1.59-.66,2.23,0,.2-.79.23-.06.77,0,.41.04,1.33-.24,1.83-.2v-.64s-.38-.22-.38-.22l.39-.29-.58-.1c.26-.58.99-1.9.19-2.13v-.19c1.01-1.02,0-1.65.4-2.81l-.48.02-.3-.79c.39-.01.69.15.58-.39l-.55-.09c.41-.88-.73-.27-.2-1.3.08-.16.3-.17.32-.26.07-.24-.33-.73-.34-.98-.04-.46.15-1.22.14-1.77,0-.51-.1-.1-.34-.06l.39-.48c-.79-.75-.31-.96-.19-1.84h-.58s.36-.29.36-.29l-.46-1.47c-.12-.17-.78.31-.43-.86.03-.1.3-.08.34-.22.2-.78-.48-.59-.55-1.17-.04-.41.18-.75.12-1.07-.1-.58-1.04-1.53-.73-2.47Z"/><path d="M101.43,17.69c.09.06.4-.09.6.04.15.1.87,1.13.94,1.15.27.09,0-.19.59.17.11.07.37-.22.65.05.26.26.12.71.24.93.17.32.49.37.57.5.3.51.4,1.1.26,1.67l.77.3c.25.52-1.23.82.21,1.15-.1.69.61,1.5.67,1.95.08.65-.24,1.73-.09,2.52.09.48.78.91.87,1.44.1.62-.85,1.69.39,1.74.38.58-.62,1.41-.07,1.92.05.05,1.03-.17.53.8l-.75.02c-.01,1.04,1.25,2.2.2,2.81,1.04.46,0,1.68.04,2.1.08.84,1.29.94.8,2.21-.1.26-.59.28-.6.75,0,.22.32,1.58.43,1.62l.29-.39c.25.95-.36,1.25-.58,1.93,1.01-.19.77.4,1.08.76.36.42.47.73.51.76.2.22.93.05.87.91-.49.61-1.31.21-1.31,1.25l-.37-.19c0,.2-.02.39-.12.56-.94,1.71-.46,1.45-.37,3.3.01.21.02,1.49.01,1.66-.02.28-.38.61-.32.94.02.09,1.3.91.23,1.37l.17,1.08.58-.58c-.03.63.27,1.49-.58,1.55v.19c.77-.02.68,1.71.19,2.04l.4.39-.39.87h1.16s-.33.23-.33.23c.13.59-.78,1.46-.61,2,.03.09.28.05.37.38.13.47-.02,1.29,0,1.36.02.06.94.37-.02.77.73.6.53,1.41.39,2.23l.77-.19c.11.87-.78,1-.77,1.55l.58.1-.39.6-.58-.12-.21,1.15c-.36-.13-.74.04-1.1-.11-.32-.13-.22-.44-.24-.45-.06-.03-.52.59-1.1.13-.07-.05-.94-1.24-1.04-1.4-.59-.95-.22-2.15-.37-3.25-.02-.16-.45-.14-.5-.49-.05-.37.26-.69.24-1.06-.04-.83-.76-2.63-.91-3.72-.09-.62.43.05.58-.09v-1.23s-.37-.2-.37-.2l.37-1.66-.47.18-.28-.27c.37-.58-.17-1.37.56-1.56v-.29s-.58-.29-.58-.29c.82-.52-.62-1.46.38-1.74l-.78-.78v-.19c.62-.16.42-1.13.51-1.74.02-.18.29-.38.26-.56-.07-.39-1.54-.71-.76-2.05-1.12-.53-1.58-.15-2.62.2l-.38-.41c-.47.92-1.15.06-1.35.75-.29-.33-1.02.04-1.06,0-.08-.06.13-.45-.21-.36l-.21.97c-.64-.26-1.34.26-1.64-.59l-.77.4-.11-.37c-.67.44-.78.37-1.43-.02l-.68.97c.1-.55-.33-.16-.48-.37s-.1-.61-.39-.78c-.23.58-1.01.12-1.17.38-.14.24.1.41.05.55-.02.05-.6.34-.71.73l.38.37c-1.06.97-.49,2.2-.79,3.26-.05.17-.36.17-.38.23-.25.79.94.12.59,1.26h-.78c.56,1.22-.18,2.07-.46,3.11-.09.34-.04.82-.18,1.25-.25.79.06.57,0,1.36-.04.46-.54.93-.14,1.55l-.57.1c.33.69-.55,1.08-.37,1.62.07.21.5,0,.33.56-.32,1.12-1.05,1.83-1.61,2.68-.25.38-.09.99-.62,1.12-.23.06-1.4-.4-1.52-.56-.15-.2.12-1.54-.47-1.36v-.19c1.02-.12.38-.91.45-1.44.11-.94.65-2.65.72-3.52.04-.45-.43-.65-.37-1.1s.81-1.4.94-1.79c.17-.51-.61-.15-.58-.38.31-.49.12-1.08.32-1.61.1-.26,1.05-.47.06-.91.92-.77.21-1.6.43-2.28.08-.27.44-.41.47-.62.01-.08-.09-1.41-.12-1.53-.03-.14-.33-.13-.34-.16-.06-.14.23-.4.14-.53-.07-.09-.46.12-.37-.21.53-.13.94-.38,1.16-.88l-.4-.19c.18-.45.58-1.31.59-1.77.01-.38-.28-.55-.3-.86-.03-.63.3-1.61.51-2.21l-.6-.68c.49-.09,1.26-.99,1.14-1.44-.06-.22-.43-.24-.5-.34-.34-.48.92-1.11,1.07-1.44.03-.07,0-1.34,0-1.56,0-.24-.3-.42-.26-.65.05-.27.91-1.48.88-1.83l-.77-.48c.25-.02.89-.58.98-.73.21-.35-.05-.63-.02-.89.03-.16.32-.14.4-.27.14-.23.65-2.27.58-2.64-.03-.16-.55-.01-.39-.8.1-.5.47-.56.67-.9.12-.21.05-.49.17-.71.05-.1.5.06.33-.44h-.58c-.28-.66.89-1.29.94-1.38s.16-1.63.32-2.11c.3-.86,1.11-2.48,2.04-2.71l-.38-.77c.32-.29,1.08-.49,1.3-.64.36-.27.58-1.35.69-1.45.09-.08.39.01.49-.08.18-.19-.26-.75.82-.54-.53-.83,1.39-1.58,1.37-.79l.37.02.18-.49.6.11-.2-.38c.95-.14.97-1.17,2.23-.58l.1-.58c.32-.08.13.27.22.33ZM101.3,23.86c-.12-.2-.58-.94-.66-.99-.63-.39-.63.29-.84.42-.62.38-1.18.94-1.5,1.13-.23.14-.58.05-.72.14-.1.06-.55,1.37-.49,1.67l-.33.03.39.58c-.34-.09-1.57.88-1.55,1.07.01.12.74.27.55.84l-.94.23c.38,1.27-.65,2.17-.2,3.47-1-.07-.36.18-.44.66-.03.16-.28.32-.3.45-.05.31.94.99-.81,1.03.26.48-.21,1.13.39,1.26-.54.83-1.38,2.53-1.48,3.58-.04.49.37.68.31.77-.01.02-.32-.07-.45.24-.23.54.26,1.14-.32,1.6l.39.19c-1.46.7-.3,1.75-.37,2.92-.04.63-.39.87-.4,1.44l1.05-.4.3.4c-.04-.67.67-.42,1.01-.59.19-.1.2-.36.4-.44.45-.17.64.23.82.21.17-.02.33-.36.58-.46.21-.08.59.15.75.12.14-.03.12-.38.24-.4.42-.07.8.41,1.14.39.38-.02,1.83-.38,2.23-.48.49-.13.96-.31,1.44-.48.48.85.31.39.8.41.96.04,1.2-.01,2.02-.71-.52-.2-.63-.54-.35-1.03l.54-.13-.59-.1.39-1.94-.39.1c.27-.7.58-2.18.39-2.87-.04-.16-.42-.11-.39-.22.07-.21.31-.28.3-.71-.02-.51-.4-.55-.44-.66-.26-.74.39-.75.5-.89.07-.09-.14-2.18-.21-2.27-.05-.07-.4-.13-.55-.31-.72-.87-.17-2.71-.19-3.79h-.78s0-2.71,0-2.71l-.77.19.39-2.13-.56-.02c.13-.63-.2-.64-.32-.84Z"/><path d="M53.15,18.13l.85-.18c.29.08.24.55.45.78s1.09.49,1.18.61c.11.17,0,.54.22.84.24.33.65.58,1.11,1.23.23.32.95.21.08,1.08.32.47.72.29,1.16.1-.15.67-.06,1.39-.09,2.04-.03.42-.44.51-.1,1.12s.4,1.12.7,1.69c.06.12.43.13.47.33.02.07.01,1.41,0,1.48-.05.24-.48,0-.4.32l.39.11c-.15.23-.15,1.55-.1,1.64.11.18.54.2.65.51.18.52-.31,1.14-.27,1.43.06.52.48.87.6,1.25s.34,1.21.44,1.6c.08.33-.2,1.7-.15,1.77l.94.5c-.51.51-.93,2.51.12,2.08.49.04-.13,1.23-.07,1.41.04.11.36.08.37.21.04.29-.18,1.18-.1,2.12.02.19-.62.64.27.96-.67.77.19,2.17.18,2.92,0,.41-.7,1.21-.76,1.74l.44.09c.56.53-.17.77-.18.82-.06.19.19.58-.26.93h.78c.03.58-.29.54-.45.83-.12.22.26.61-.33.53l.38.29-.77,1.16.38.1c.08.34-.39.09-.4.3s.26.68.29,1.03c.03.29.05,1.1.02,1.38-.03.4-.24.97-.33,1.59-.11.7-.62,1.25.23,1.32v.19c-.42-.02-.73.62-.87.97-.2.5-.11,1.09-.15,1.13-.16.17-.63-.24.05.61-1.53,0-.87,1.7-1.2,2.09-.15.18-.61.13-.7.27-.15.24-.17,1.39-.8,1.33l.58.77c-.31-.27-.99.14-1.24.4-.79.82-.97,2.07-1.38,2.69-.31.47-.9.48-1.02.65-.1.15,0,.48-.04.53-.04.05-.48-.15-.73-.06-.23.08-.21.42-.38.45-.34.07-1.16-.16-1.61-.12-.3.03-.55.34-1.07.33-.1,0-1.71-.97-1.78-1.04-.18-.16-.2-.49-.25-.73l-.77.19.1-.39c-.75-.03-.34-.21-.55-.5-.32-.45-.6-.32-.33-1.24l-.58.19c.25-1.2-.21-1.54-1.25-1.93l.08-1.17c-1.48-.02-.47-1.61-1.01-2.59-.22-.41-.52-.09-.54-.12-.05-.07.18-.44.06-.73-.15-.35-.7-.42-.75-.8-.04-.32.27-.58.3-.91.03-.47-.16-.96,0-1.43l-.58.19-.2-.97h.58s0-.19,0-.19c-.63.13-.26-.59-.41-.76-.08-.1-.38.15-.61-.26-.42-.74.43-1.16.44-1.24.01-.06-.12-1.04-.15-1.16-.05-.18-.62-.78-.68-.9-.44-1.06,1.31-2.19-.33-2.28l.54-.7c-.34-.52-.01-1.22-.53-1.31.64-.98.09-1.7-.02-2.7l.78-.41c-.55-.3.11-.97-.58-.87v-.19c.92-.12.31-.99.29-1.37-.03-.43.1-1.58.03-1.84-.08-.3-.89-.15-.32-.92.35-.47.45.25,0-.98.96-.44.57-1.15,1.15-1.77l-.4-.2c.74-1.22-.36-2.96,1.18-3.58-.89-.38-.69-2.2.39-2.13v-.39c-1.08.47.12-.77.14-.83.07-.15-.1-.35-.03-.53.26-.68.61-.59.11-1.64.45-.23.29-1.14,1.13-.68-.57-1.44,1.2-1.28.41-2.5.5.07.17-.41.34-.51l.8-.09-.38-.48c.94-.39.5-.75.62-1.02.17-.39,1.86-1.04.77-1.3-.14-.76,1.29-1.54,1.42-1.83.15-.33-.5-.94.29-1.08l-.37-.19.07-1.47h1.27s-.13-.47-.13-.47c.1-.68,2.15.5,2.74-.09l.1.58ZM53.49,23.98c-.05-.07-1.28-.99-1.36-.98-.77.11-1.11,1.45-.91,2.1-1.27-.13-.55.22-.71.93-.11.49-.57.81-.71,1.2-.22.62-.75,3.57-.92,3.67-.12.07-.44-.1-.58.14-.32.56.06,2.03-.57,2.01-.11.57.45.46.77.67l-1.12.9c.31.67-.2,1.07-.33,1.68-.05.25.16.59.07.87-.05.14-1.07.91-.92,1.58.02.1.28.08.31.19.11.46.08,1.09-.53,1.07.57.56-.15,1.13.76,1.44l-.27.9-.48-.02-.2,1.93h.78s-.58,2.13-.58,2.13l.77-.19c-.04.54-.35,1.04-.97.97v.38c1.17.23.06,1.48.02,2.24,0,.1.4.06.46.44.1.59-.24,1.35-.01,2.18.12.43,1.26.74-.08,1.43.62.47.17,2.09,1.16,1.84-.71.87-.22,1.74-.78,2.51.87.11.73,1.45.78,2.14l.75.02c.05,1.15.17,2.08.58,3.16l.8.11-.39.38.58.1-.19.88.38-.2.59,2.13.38-.19.2,1.36h.77c-.39-.79.1-.5.21-.72.3-.64.19-.76.7-1.49.1-.14.03-.43.08-.48.16-.14.71.08.93-.05.29-.17,0-.96.06-1.1.16-.35,1.46-.67,1.31-1.29-1.31-.66.18-.79.53-1.13.16-.16.2-.84.64-1.01-.47.02-.34-.83-.2-1.11.12-.24.46-.03.39-.33l-.77-.39c.76-.1.57-1.31.97-1.84v-.29s-.58-.1-.58-.1c.37-.51.23-.91.97-.97-.14-.82-.85-1.61,0-2.32l-.39-.19.39-1.84-.58-.1c.3-.49.49-.93,1.16-.88-.03-.57-.75-.91-.69-1.45.04-.35.4-.54.46-.82.02-.11,0-2.09-.06-2.18-.12-.15-.49-.16-.5-.3l.59-1.05-.97.09c.17-.57.31-1.12.97-1.16-.17-.55-.07-1-.77-.88.22-.38-.14-.76-.13-1.05.02-.31.33-.58.32-1.15-.01-.73-.43-1.49-.42-2.22l-.56-.02c-.21-.92.37-5.37-.5-5.59l-.86.17.17-.85c.2-.28.77.12.6-.5l-.58-.29.39-.87h-.78c.55-.74.5-1.33.18-2.18-.07-.18-.33-.15-.37-.27-.23-.82.65-.42.17-1.27-.15-.26-.64-.12-.19-.85l-.37-.18.39-.59c-.77-.18-.56-.94-.63-1.03Z"/><path d="M154.11,15.42c.29.58-.14.64-.19,1.16l.58-.19c-.38.58.16.81.29,1.25.08.27,0,.66.11.92.07.17.39.16.39.25.02.42-.45.68-.6.96-.22.4-.06.96-.57.88l.77.38c-.67-.03-.08,1.41-1.16,1.17l.34.22c.21.97-.8.8-.51,1.79l.75.5c-1.02.23-.77,1.28-1.05,1.95-.25.58-1.36,1.29-.49,2.22-.29.18-.49-.02-.39.48.05.06.81-.48.77,0-.59-.09-.18.35-.36.64-.13.21-.46.24-.62.42-.17.2.16.57-.37.49l.4.87c-.54.56-.68.85-.62,1.75.03.42.5.17.39.55-.23.79-.87.65-.94.71-.08.07-.12,1.92-.13,2.19-.01.23.18.53.14.77-.03.17-1.23.51-.02.91l-.38.31c.17.29-.06.72-.01.91s.58.03.39.51l-.58.39.58.1-.17.59-.79.09c-.16.63.86.33.93.87.06.51-.53.58-.93.49l.19.66-.58.31.77.68-.97.29c.66,1.06-.37,1.56-.39,2.52l.58.09-.2.87h-.77c-.06.37.38,1.49.35,1.62-.03.2-.36.44-.46.71-.1.3.12.89.02.98-.19.18-.6.09-.7.32-.04.1-.34,1.38-.36,1.56-.04.32.27.2.35.39.54,1.2-.57,1.36-.57,1.5s.75.42,0,1.06l.39.1c-1.06.69-.44,1.08-.47,1.55-.06,1.07-.78,2.09-.78,2.8,0,.48.65,1.28-.3,1.37l.39.57c-.84.02-.3.84-.37,1.22-.04.21-.52.22-.68.51-.1.18.09.65,0,.89s-.37.36-.45.62c-.22.69.14,2.27-.63,2.38l.38.19v.38c-.34-.08-.98.71-.96.88.02.2.83.19.57.77-.15.34-.87.33-1.17.59-.17.14.03.47-.29.66-.35.21-1.22-.03-1.7.37-.48-.42-1.01-.81-1.46-1.25-.4-.39.03-.25-.6-.59-.2-.11-.67-1.77-.96-2.26-.12-.2-.5-.2-.57-.45-.08-.27.27-.75,0-1.11-.19-.25-1.72-.56-.39-1.2.05-.52-.6-.7-.59-.75.18-1.28.32-1.06-.28-2.42-.05-.11.08-.34.05-.37-.12-.13-.7-.16-.74-.23-.09-.13.17-.58.13-.84-.03-.19-.16-1.32-.19-1.39-.11-.23-.42-.21-.49-.38-.16-.37.24-1.73.17-2.34-.02-.22-.98-1.04-.02-1.34l-.9-1.36.7-.97c-.67-.17-.32-.89-.41-1.53-.13-.83-.88-1.27-.56-2.25l-.38.2c-.42-.64.28-2.89.18-3.17-.08-.24-.7-.31-.72-.61,0-.11.31-.42.3-.91-.02-1.18-.86-1.15-.73-2.16l.39-.32-.56-.09c.4-.78-.58-1.72-.61-2.15-.03-.36.31-.61.35-1.03s-.45-1.37-.5-1.86c-.06-.58.35-.92.35-.97-.01-.17-.53-.2-.59-.43-.1-.42.28-2.38.15-3-.14-.68-.77-1.37-.84-2.08-.08-.75.83-1.75-.66-1.56.29-.52-.25-1.11.39-1.25-.24-.27-.41-.61-.4-.98.01-.55,1.14-1.94-.15-1.85-.03-.61-.25-1.05.16-1.64-.77-.52.18-2.3-.06-3.29-.07-.29-.55-.13-.52-.55.07-.84.93-2.18,1.92-1.83.09.77.85,1.08,1.15,1.66.15.29.2.99.24,1.02.07.06,1.42-.57.39.96.66-.08.27.87.55,1.25l.6.11c.02.39-.59.82-.59.88,0,.06.29.98.36,1.19.32,1,.36,1.99.63,3.25.11.5.67.79.18,1.46h.59c-.13.43-.49.92-.49,1.38,0,.11.37,1.95.42,2.06.13.31.63.16.46.9-.05.19-.58-.01-.39.51h.78c.14.59-.37.94-.41,1.45-.03.4.22,1.38.34,1.82s.38.42.39.45c.12.3-.36,1.09.65.93v.87s-.58.09-.58.09l.78.39c-.26.85-1.01.97-.68,1.95.15.43.45.37.46.4.17.46-.31-.02.3.76,1.03,1.33-.02,1.33-.02,2.17,0,.37.37.82.17,1.27l.75.22c-.44.56-.34,2.49.58,2.13.13.26-.39,1.55-.41,1.85-.02.38.43.18.43.56,0,.43-.34.87-.33,1.18,0,.21.48,1.11.59,1.63.21.98-.2,2.63.12,3.58.38,1.15,1.75,1.36.57,2.83l.96.49-.28.87,1-.95.65.18c.11-.62-.21-.79-.77-.78.6-.81,1.03-1.22.97-2.32l-.58-.19,1.16-.39c.09-.34-.34-.95-.3-1.18.06-.36.44-.34.48-.5.07-.3-.16-1.11.16-1.54l-.53-.36.57-1.18c-.54-.03-.45-.75-.16-1.02.05-.04,1.3.02.16-.72l.58-.58-.58-.19c.18-.27.16-.71.28-.98.06-.15.28-.35.48-.77.24-.52.93-.99-.18-.78.24-.92.32-1.78.96-2.53l-.38-.47.77-.3-.58-.97c.69-.39.62-.5.85-1.01.02-.04.3-.05.31-.17.05-.39-.39-1.12-.35-1.34.01-.08,1.31-.81.15-1.05l.56-.49c.12-.54-.54-.93-.55-.98-.08-.46.26-1.35.75-1.44-.59-.63-.38-1.43,0-2.12l-.58-.19c.53.07.17-.26.47-.59.11-.12.44-.15.48-.21.04-.06-.18-1.31-.56-1.24.5-.36,1.67-1.26.58-1.46v-.19c.52.08.23-.82.49-1.45.13-.32.52-.59.6-.86s-.39-.47-.31-.59c.02-.03.31.04.36-.09.09-.26-.56-.81.56-.92,0-.83.83-1.69-.15-1.99.46-.47.19-1.02.52-1.6.19-.33,1.01-.5.05-.92l.4-.97-.4-.19c.74-.41.36-1.38.41-1.56.03-.1.35-.07.37-.22.28-2.01-.54-1.54,1.1-3.4.05-.06-.13-.33.05-.45.2-.13.51.05.74-.03s.21-.43.37-.46c.47-.08,1.17.22,1.8-.19ZM142.1,62.29c-.83-.08-.29,1.06-.97.97l.29.38.45-.23.23-1.12Z"/><path d="M74.46,19.3v-.58c.24-.23,1.44.81,1.93.88.32.04.5-.25.81-.21.35.05.4.48.69.65.77.43,2.75.77,3.11,1.27.17.24.11.44.59.69.52.28,1.23.58,1.79.8l-.2.58c.23.01.53-.07.73.04.47.26.75,2.05,1.19,2.39.12.09.38-.13.54-.06.48.21.38,1.16.57,1.5.1.17.74.54.78.68.23.77-.39.75-.49.9-.21.33.25,1.24.31,1.66.09.65,0,2.02.12,2.58.07.37.47.36.47.45.01.75-.63,1.58-.67,1.94-.05.57.41.67.45.78.26.74-.42.78-.5.89-.04.06.18.37.13.61-.14.63-1.43,1.74-.16,2.17-.17.87-.77.81-1.1,1.12-.19.18-1.03,1.19-1.3,1.5-.57.65-1.34,2.06-1.94,2.52-.27.21-1.37-.12-1.11.67l-.55.09.38.38-.35.02.16.36c-1.12.01-2.12.28-2.81,1.16l-.59-.39c-.26.84-1.67.08-1.45,1.16-.69-.16-1.43,0-2.15-.11-.94-.16-1.25-.1-2.08-.2s-1.85-.86-2.74-.84l.58.39c-.08.84-.98.87-.78,1.74l.38-.2c.29.66-.71,1.7-.71,2.03,0,.27.43,1.62.3,2.13-.02.07-.89.58.22.87l-.39.29c.42.55.2.94.26,1.55.15,1.5-.25.87-.37,1.54-.05.3.18.9-.1,1.33,1.04.55.28.51.14,1.09-.24.98-.23,2.19.08,3.15.04.11.97.54-.2.92v.38s.58.1.58.1c-.19.6-.77,1.76-.78,2.32-.03,1.3.71,3.32.28,4.57-.06.17-.58.58-.67.86l.39.29c-.51.09-.84.51-1.35.19l-.1.77c-.61-.1-.45-.73-.49-.77-.06-.06-.54.22-.82.16-.17-.03-1.48-.92-1.5-1.07-.13-.45.29-.82.34-1.17.08-.58-.11-1.31-.54-1.5.92-.79.39-1.4.41-2.15.02-.62.19-1.41.19-2.08l-.78-.33.57-2.12-.56-.1c.07-.68.58-.93.58-.99,0-.43-.43-.68.19-1.24l-.39-.12v-.36c.85-.91.37-1.12.41-1.94.02-.56,1.09-1.48-.4-1.27l.08-.78.7-.19c-.87-.73.11-1.68,0-2.02s-.8-.04-.42-1.02c.08-.21.27-.37.41-.54l-.78-.61.6-1.33c-.99-.36.23-1.71.21-2.12,0-.07-.72-.33-.24-1.17l-.55-.09v-.29c.93-.25-.07-1.89.97-2.04l-.36-.28.36-.88-.58-.1c.06-.77,1.32-.96.38-1.75l.39-.19-.39-.21c.31-.76-.29-1.4.58-1.92-1.14-.54-.64-1.39-.36-2.33l-.4-.37c.16-.51.28-.73.77-.98l-.4-.21c-.1-.48.34-.78.31-1.06-.04-.36-.46-.71-.48-1.04-.02-.46.5-1.33.76-1.75-.77-.29-.56-.79-.38-1.49.04-.14.31-.13.34-.25.06-.23-.2-1.27-.32-1.55l.75-.29c-.74-.76-.33-.8-.28-1.34.07-.75.2-1.5.28-2.25.1-.9-.46-1.27.58-1.93-1.07-.47.75-.5.56-1.55l1.18-.09-.2-.38c.86-.15.99.43,1.62-.58.12-.2-.41-.69.81-.22-.02-.33.99-.47,1.27-.46.81.02.55,1.28,1.24-.29l.58.75.87-.17ZM77.57,25.1c.01-.26-.14-.4-.32-.55-.19-.16-2.02-1.32-2.15-1.36-.43-.11-.86.33-1.13.3-.17-.02-.34-.38-.63-.47-1.2-.37-1.46-.06-2.51.07-.5.06-.95-.32-1.29.26-.05.09-.62,1.94-.62,2.04,0,.15.78,1.09.83,1.58.06.6-.62,2.28-.31,2.56l.76.02c.08.46-.95,1.49-.92,1.65.03.22.53.37.53.77,0,.25-.59,1.21-.59,1.54,0,.13.33.1.4.24.35.62-.21,2.47-.3,3.24-.06.53.25,1.2-.29,1.76,1.01.34-.01.51,0,.57l.37.18-.18.89-.38-.2c-.08,1.54.63,2.93.39,4.45l1.07-.9c.44.14.78.55,1.25.63.57.1.81-.27,1.08-.31.06,0,.13.57.92.39.22-.05.19-.78.98-.6l.41.59.29-.77c.55.33.99.16,1.55,0l-.19-.97,1.41.37c.63-.15.91-1.32,1.1-1.44.29-.19.82,0,.95-.11.04-.03.15-.69.3-.96.22-.39.89-1.05.97-1.34.07-.27-.16-.65-.08-.77.05-.08.65-.09.74-.24.26-.41.32-2.49.8-3.06l-.58.38c.23-.51-.04-1.34.11-1.77s.47-.26.48-.64v-1.26s-.59-.1-.59-.1l.7-1.27c-.69-.45-.45-1.06-.65-1.49-.14-.3-.69-.27-.45-1.02l-.77.19c-.15-.71-.14-1.76-.96-1.93l-.2.38-1.41-1.81c-.58-.27-.8.34-.91.26Z"/><path d="M216.2,17.66c.26.23.58.39.8.67l.39-.58.58.77.19-.39.49.2c-.43.95.34.84.4,1.1.07.29-.19.82-.04,1.32.11.35.43.3.42.39-.04.73-1.25,1.87-.4,2.8l-.78.2.17.49c-.56.14-.15.7-.25,1.25-.08.43-.49,1.16-.47,1.66,0,.07.66.86.94.77-1.07,1.26-1.12,2.58-.81,4.14l-.36.21.56.09c.14.92-.58.97-.38,1.94l.59.2c-.02.74-.62,2.1-.54,2.72.02.13.29.08.32.19.11.37-.41,1.14-.74,1.36l.38.38-.53.81c-.07.56.47.64.5.75.21.68-1.31,1.64-.25,2.42l.48-.29c.22.63-.58,1.16-.59,1.55,0,.06.61.19.56.98-.02.43-.46.77-.36,1.25l.39-.1-.53,3.49c.99,1.18.46,1.93.15,3.12-.21.8-.24,1.69-.59,2.48l.59.4-.61,1.04-.36-.17c.49,1.16-.12.85-.32,1.24-.13.26.08.94.03,1.18-.13.6-1.15,1.56-.1,1.93l-.23.46c-1.02-.16-2.05,1.03-1.32,1.96h-1.16c.36.82.06,1.84-.7,2.3-.85.51-1.36.02-1.33,1.39-.82.51-.88-.12-1.06,1.07-.4.22-.83-.18-1.24-.11-.14.02-.12.34-.36.46-.61.3-1.29-.09-1.12,1.1-.31.08-.14-.26-.23-.31-.86-.5-1.04.2-1.22.27-.46.16-1.31-.26-1.75-.25-.54,0-1.52.67-1.85.6-.66-.14-.49-.78-.58-.88-.02-.02-.3.16-.44.12-.41-.11-.74-.66-1.3-.52l-.1.58c-.61-.13-.58-.81-.81-.99-.13-.1-1.15-.1-1.56-.61-.34-.42-.13-.98-.3-1.26-.1-.17-.81-.33-.88-.47-.12-.22.02-.55-.04-.79-.04-.18-.35-.14-.44-.38-.08-.19-.16-1.33-.33-1.5l-.77.19c.35-.45-.13-.79-.13-1.07s.42-.51.32-.87l-.58.19.37-1.07-.76-.76.78-.69c-1.1-.77-.02-1.36-.08-1.83-.03-.23-.32-.45-.36-.72-.17-1.23.18-2.33.26-3.53l-.57-.56c.33-.66.89-1.95,1.72-1.49l-.19-.58c.36-.06.56.25.9.32.43.08,1.06-.05,1.48.11s1.23,1.91,1.06,2.25c-.02.04-.28.05-.35.18-.42.74.21,2.21,0,3.04l.38.31c-.48-.05-.52.59-.58.97l.58-.19c-.34.81.49,1.43.56,1.88.06.42-.38.67-.39,1.12,0,.7.45.55.56.71.15.2-.61,2.06.53,2.58.59.27.45-.33.58-.29.78.61.49,1.73,1.76,1.72.06,0,.18-.49.99-.54,1.08-.07,3.88.73,3.95-.79l.38.2-.19-.58c.94.06.85-.32,1.23-.89.09-.14.36-.17.43-.27.15-.22-.12-.52-.09-.56.04-.06.69-.11.85-.39.14-.25-.4-.93.88-.79-.29-.69.04-1.2.38-1.79.48-.84.36-.87.72-1.65.11-.23.39-.21.48-.51.21-.7-.11-2.23.1-2.99.13-.46.41-.42.44-.55.04-.16,0-1.84-.38-1.7l.39-.68h-.77s.38-.28.38-.28c-.63-1.05-.1-1.25.4-2.05l-.77.19c.13-.35,0-1.19.07-1.45.12-.42,1.29-1.34-.08-1.26-.08-.45.34-.92.38-1.27.01-.09.03-1.61.01-1.69-.03-.15-.36-.11-.39-.27-.06-.24.16-.82.13-1.16-.02-.3-.52-1.09-.08-1.38.36-.24.73.13.63-1.11-.04-.57-.54-.27-.42-.99.1-.62.17-2.09.3-2.49s.49-.23.43-.77l-.6-.68c.6.07.14-.3.33-.72.11-.26.59-.6.59-.73,0-.1-.31-.33-.35-.6-.07-.54.41-1.18,0-1.83l-.58.2v-.49c.62-.11.08-.48.4-.95.21-.31.88-.28.47-.7-1.22.54-.03-.88.04-1.09.31-.89-.04-2-.08-2.77-.03-.56.8-2.18-.23-2.42l-3.02-.31.29.58c-.1.13-1.26.22-1.47.12-.36-.18-.44-1.22-1.14.07-.74-.59-1.58-.69-2.5-.55l-.15.53c-.36.42-3.3-.11-3.75-.56l-.1.58c-.44,0-1-.06-.97-.58l-.3.4c-1.04.02-1.16-.75-1.68-1.03-.34-.18-1.03-.16-1.26-.38-.27-.26-.52-1.54-.4-1.96.14-.44,1.65-.9,2.16-.83,1.15.14.63.28,2.01-.01.34-.07.56.43.74-.26.55.71,1.27.08,1.74.03.38-.04.92.18,1.14.16.15-.02.04-.4.4-.4.6,0,1.44.7,2.24.41l-.2-.38c1,.38.76-.19,1.01-.34.55-.35,1.31.28,1.61.27.72-.01.5-.08,1.39,0,.81.08,1.21-.28,1.38-.32.18-.04,1.2-.2,1.28-.17.27.11.25.5.45.55.38.1.99-.07,1.42,0v-.78c.29-.07.15.2.27.3Z"/><path d="M189.16,17.4c.08.05.96,1.46,1.02,1.61.14.35.02.93.18,1.33-.51.42-1.2,2.02-1.65.9-.68,1.06-1.01.13-1.84.39l.39.97c-.68.02-1.41.05-1.45-.77-.58.48-1.21.85-1.94.39l-.26.28.17.49c-.46.21-.83-.58-.89-.58-.23,0-.86.27-1.2.35-.39.09-.55-.4-.72.24l-.67-.39c-.07.61-.95.99-1.46.59l-.09.57-3.49-.58c.35.46-.15.73-.18,1.07-.07.73.1,5.56.23,6.19.02.1.33-.05.36.57.04.85-.36.64-.4.82-.27,1.09.25,1.64.21,2.28-.03.51-.83,1.33-.02,1.55l-.39.19c.92.91-.57,1.44.05,2.37.09.13.48.17.5.33,0,.07-.31,1.14-.37,1.32-.06.17-.38.16-.37.23.02.19.36.63.45.88.07.19-.11.49-.06.55.04.06,1.26.44,1.42.42.13-.02.1-.32.21-.35.71-.21,1.52-.23,2.23-.05l-.2-.38h1.36s-.19-.58-.19-.58l1.16.19.09-.38.68.38.19-.5c.89.27.74-.21.91-.26.6-.18,2.17.29,2.65.19.18-.04.05-.52.42-.39.44.29.17.56.1.97l.58-.19v.97s.53.03.53.03c.26.17-.05,1.68-.12,1.78-.13.17-.39.08-.53.18-.41.29-1.08.91-1.72.9-.49-.01-.7-.79-1.34.34-1.42-.53-2.79.83-4.1,1.03-.35.05-.59-.16-.77-.17-.05,0-.54.61-.86.65l.38.48c-1.24.26-1.88-.81-3.01,0-.67.48-.69,1.48-.45,2.21.14.43,1.05.08.23,1.43-.12.2-.45.25-.44.32.02.15.24.42.3.68.08.39-.31.51.28.68-.53,1.19-.56,2.85-.66,4.19l.66.56c-.18-.01-.22-.05-.33.11-.01.02-.18.3-.18.32-.08.26.37.67-.45.75.5.52-.07,1.09.58,1.25-.35.45-.62.7-.39,1.26l.38-.2c.22.49-.39.34-.39.48l.52.77c.04.36-.46.79-.48,1.01-.03.24.61.8.16,1.41l.58-.19c-.69,1.39.14,1.99.77,3.2l.39-.29.22,1.13h.64s.12.46.12.46c.34.64,1.15-.63,1.16-1.01l.2.37.55-.17.21.37c.16-.99,1.49-.94,2.15-1.44.29-.22,1.54-1.74,1.63-2.06s-.14-.64-.08-.73c.21-.33,2.1-.5,1.34-1.58.52.13.79-.45,1.11-.54.78-.23,1.67.62,2.49.53.19.14.27.88.24,1.08-.06.38-.72,3.03-.84,3.19-.31.43-.81.43-1.06.69-.43.44-1.05,1.39-1.64,1.85-.2.15-.45.19-.69.18l.2.38-1.74.6.11.58c-.85.29-1.09.17-1.08,1.15l-.77-.39c-.14,1.05-.89.16-1.61.58-1.05.61-1.91.53-3.16.46-.61-.03-1.22.04-1.82-.08l.19-.77c-.43.04-.81-.49-1.1-.54-.21-.04-.56.2-.64.14-.09-.06-.55-1.68-.72-2.08-.16-.35-.75-.44-.44-1.41l-.58.19-.18-.66c1.33-.71-.04-1.46-.33-2.1-.05-.1.1-.31.02-.52-.22-.64-1.13-1.29.08-1.84l-.92-2.11.55-1-.58-.39c.18-.52,1.28-.36.96-.87-.02-.03-.29.05-.34-.09-.04-.12.11-.68-.08-.85l-.54-.03.58-1.45-.58-.29.94-2.03c-.03-.1-.3-.07-.33-.22-.13-.76-.45-2.31.54-2.42.09-.15-.32-1.07-.29-1.43.06-.65.21-.29.18-1.35,0-.24.37-1.3.31-1.72-.01-.11-.57-.25-.53-.61l.53-.67c-1.25-.22-.27-1.3-.25-1.8.03-.64-.61-1.43-.45-2.07s.6-.81.69-1.27c.07-.34-.24-1.17,0-1.63h-.58c-.09-.37.33-.61.35-.91.03-.38-.96-1.7.42-1.62-.01-.31-.46-.27-.54-.48-.31-.78.42-2.17.27-3.19-.04-.29-.37-.53-.33-.86.02-.17.47-.14.57-.42.3-.87-.61-2.43.61-2.88l-.77-.87.97-.59-.58-.19c.31-.51-.05-1.09.58-1.26-.93-.79.12-1.49-.04-2.47-.14-.81-.65-.45-.73-.53-.07-.07.24-1.87.3-1.95.21-.28,1.45-.37,1.56-1.36.68.37,1.05.48,1.74.03.41,1.26,1.61.02,1.73.02.15,0,1.28.27,1.58.28,1.31.03.99-.39,1.57-.48s.96.17,1.48.15c.99-.04,2.01-1.04,2.94-.6l.2-.38.66.21v-.78c.24-.24,1.97.41,2.21.4.31-.02.58-.33.84-.36.13-.02,1.13-.03,1.18,0Z"/><path d="M161.82,17.8s.6.65.67.67c.21.07.43-.12.54-.05l.16.23c.11,1.21.03,2.42.1,3.62.08,1.34.19,1.5.12,2.94-.06,1.31.46,1.67.51,2.13.04.28-.34.64-.39.88-.12.62,0,1.39-.33,2.03l.56.12.03.75h-.78c-.04.36.21.71.19,1.06-.04.74-.85.67.39,1.37-.41,0-.73,1.52-.7,1.75.04.31,1.16,1.24-.07,1.06l.38.38-.77.68c1.04,1.03-.18,1.95-.01,3.1l.59.2c.04.7-.65.96-.69,1.23-.05.36.24.65.23.9-.01.24-.66,1.28-.51,1.84l.77.1c-1.17,1.01-.43,1.59-.56,2.72-.03.23-1.19,1.12.18,1.05v.29c-.35.33-.34.78-.52,1.21-.09.22-.39.21-.43.37-.06.19-.09,1.31.37,1.04l-.38.31c.12.47.06,1.05.2,1.51.12.39.51.68.52.79.02.25-1.1,2.09-1.08,2.91,0,.52.37.79.46,1.16.04.19-.16.51-.12.74s.55.23.6.43-.34.49-.39.78c-.13.78.39,1.93-.38,2.79l.77-.1c.07.75-.71.94-.78,1.36-.1.59.3,1.22.53,1.74-.8,1.04-.44,1.89-2.11,2.25l-1.02.56c-.44-.43-1.05-1.13-1.64-1.18l.38-1.25-.36-.18.17-.87h-.78c-.08-.32.27-.14.32-.23.05-.09-.04-.24,0-.34.1-.2.37-.34.41-.52.05-.23-.2-.55-.25-.82-.03-.17.1-.39.08-.48-.02-.07-.69-.18-.08-1.09.16-.24,1.1-.28.08-.68.84-.82.02-1.6.05-2.09s.2-1.3.25-1.97c.04-.51.69-.63-.49-1.17.51-.29.15-.67.23-1.1.05-.23.34-.42.37-.83.05-.72-1.04-1.96.17-2.23l-.39-.29.58-.78c-.51-.28-.99-1.54.19-1.45l-.78-.29c.74-.17.23-.56.28-.97.04-.3.71-1.07.5-1.64l-.78-.1c.1-.71.94-1.59.79-2.3-.03-.14-.38-.12-.38-.2.01-.32.27-1.59.75-1.47l-.38-.38.58-.49c-.8-.23-.34-.89-.43-1.36-.02-.1-.29-.09-.3-.19-.1-.6.22-2.53.41-2.96.03-.06.27-.05.29-.14.09-.37-1.05-2.46.22-2.62-.87-.69.53-2.91.52-3.18-.01-.2-.47-.64-.48-1.01,0-.23.67-.88.55-1.67-.02-.11-.58-.26-.54-.62,1.41-.95.55-1.83.63-2.82.05-.64.57-1.16.67-1.85.1-.73.08-2.02.16-2.92.03-.29-.18-.62-.12-.88.1-.44.67-.54.88-.78.1-.11-.04-.94.79-.46Z"/><path class="cls-1" d="M142.1,62.29l-.23,1.12-.45.23-.29-.38c.68.09.14-1.06.97-.97Z"/></g></svg>