<?xml version="1.0" encoding="UTF-8"?><svg id="Layer_2" xmlns="http://www.w3.org/2000/svg" viewBox="0 0 289.48 107.99"><g id="sabaayad"><path d="M76.9,19.84c.94-.55,2.24-.12,3.19-.19.62-.04,1.41-.68,2.33-.05,1.05.71.54.19,1.06.37.02,0,.04.29.22.36.83.36,1.73.74,2.5,1.13.4.21.54,1.01,1.48.42v1.09s.39-.17.39-.17c.06.38.51.49.64.66.04.06.23,1,.35,1.19.32.48,1.58.89,1.02,1.82h.64s.02,1.09.02,1.09c1.33-.46.5,1.32.66,1.53l.87-.22c.1.37-.37.1-.4.32-.01.09.14.29.08.55-.14.6-.84,1.03.3,1.34l-.19.5c.56.24.48.5.45,1.1l-.88.46.39,1.09c-.76.33-.43,1.48-1.49.99-.17.58.28.35.39.54.12.21-.74,1.47-.96,1.64-.17.13-1.38-.06-.61.46.2.14.78.04.75.42l-1.48.29c-.07.67-1,.39-.91.9.16.83,1.01.18,1.08,1.22l.22-.44.55.65.11-.66c1.04.16.58,1.3,1.42,1.1l.54-.65c-.12.67.49.09.63.57l.03.96.39-.17c.13.54.53.61,1.01.41l.35-.68.44,2.18c1.02-.14,2.95.9,2.51,2.19h.77c.33.58-.15,1.26-.13,1.64.06.98.86,2.53,1.23,3.5.06.15-.39.05-.44.25-.23.88.23,1.32,1.1,1.18.05.36-.36.12-.51.49-.24.57-.1,1.46.73,1.26-.01.5-.69.75-.81.94-.49.79-.32,1.17.59,1.14-.07.41-.76.71-.82.82-.14.27-.03.71-.15,1.05-.11.3-.48.57-.52.79-.09.49.84,1.08.61,1.38-.43-.29-.74.36-1.44.43l.12.65c-1.13.06-.6.55-.95.9s-.8.34-.97.48c-.24.21-.04.62-.13.77-.22.37-1.1.69-1.24.83-.09.09-.23.86-.66,1.07-.52.26-1.2-.02-1.54.22-.2.14-.13.58-.26.72-.33.35-1.64-.06-1.04.71l-.55-.43-.33.65.44.22c-.74-.26-1.09.52-1.47.63-.74.22-1.21-.98-1.93.43l-.84-.17-.69,1.08-1.63-.44v.65c-1.18-.06-2.53.1-3.62.58-.65.04-.87-.87-1.01-.97-.05-.03-.68.18-1.11-.05-.21-.12-.25-.44-.41-.52-.86-.45-1.53-.44-2.28-.57.21-.72-1.17-.7-.99-1.75l-.87.44c.2-.33-.08-1.1.03-1.27.08-.13.53-.13.57-.35.03-.16-.2-.58-.19-.9.01-.39.4-.28.45-.46.06-.22-.14-1.12.04-1.48l-.81-.45-.02-.51c1-.34.35-1.25.19-1.9-.22-.89.12-1.03.19-1.97.04-.59-.29-1.99-.88-2.19l.43-.24-.24-2.61.46-.54-.85-.02c-.2-.63.14-1.13.12-1.87-.02-1.03-.12-2.15-.18-3.19-.03-.52-.67-.93.04-1.38l-.45-.22.45-.88-.39-.13.17-.5c-.85-.11.06-1.55-.01-1.64-.11-.14-.82-.15-.62-1.02.18-.77.88-.4.86-.65l-.45-.25c.24-1.15-.89-2.99-.58-4.08.62-2.22-.13-3.31.19-4.86.02-.11.98-.29-.2-1.33.54-2.42,0-4.86-.05-7.3l.43.22-.19-2.7c.12-.37.74-.48,1.07-.71.18-.13.2-.5.24-.52.1-.07,1.74.73,2.07.77.09.01,1.72-.15,1.8-.19ZM77.36,23.81l-.84-.39c-.13.68-1.36.74-1.34,1.62.01.7.04.81.68,1.1-.12.56-.63.52-.65.55-.03.05.45.68.52,1.12.08.55-.24.87-.21,1.16s.52.65.35,1.29l-.45.35c.8-.12.15.93.44,1.58.14.32.68.26.67.72,0,.42-.6.64-.61.87,0,.11.52,1.88.61,2.13s1.08.69-.23,1.37c1.02.41.13,2.44.98,2.53,1.23.14,1.36-.56,2.24-1.09.77-.46,1.52-.17,2.04-.34s.54-.63.82-.77c.53-.27,1.54-.05,1.8-.88l-.44-.22c.4-.1.93-.38,1.22-.66.04-.04.58-.88.6-.93.16-.4-.1-.78-.07-.81.25-.31,1.2.32,1.29-1.2.04-.73.13-1.4.17-2.1.04-.8-.3-1.94-1-2.21.4-.97-.12-.46-.68-.96-.11-.09-.21-.71-.47-1.05-.42-.56-1.18-.8-1.24-.85-.17-.15-.13-.71-.61-1.02-.53-.35-1.03-.02-1.19-.13-.15-.09-.14-.54-.33-.56-.39-.05-.97.63-1.93.17-.3-.14-.27-.46-.52-.58-.16-.08-1.28-.27-1.44-.24l-.17.41ZM78.19,43.82c-.26-.21-.59-.34-.8-.62-1.18.33.33,2.33.35,2.63.03.4-.44.79-.47,1.1-.06.58.71,1.59-.1,1.75,1.23.84.28,1.13.21,1.77-.05.43.51,1.07.54,1.5.04.46-.22,1.01-.1,1.51.04.17.43.14.44.27.02.32-.44,1.08-.4,1.31s.57.21.62.46c.1.53-.47,1.53-.42,1.88.1.68.8.65.87,1.15.12.86-.33.69-.45.94-.43.94.38,1.45.38,1.69,0,.19-.51.39-.54.65-.04.35.49.96.5,1.32.01.53-.72,1.17-.13,1.76.3.3.79.13,1.04.25.33.15.2.58.59.51.71-.14,1.49-.78,2.53-.45l-.22-.43,1.53-.22-.22-.65c.59-.2,1.48.19,1.63-.41l.55.19c-.23-1.05.81-.66,1.34-.98-.05-1,.45-.31,1.2-.35,1.31-.07.8-.52,1.3-1.07.41-.45.9-1.02,1.42-.66l-.44-.65,1.52-.23-.04-.61-.38-.25c.18-.16,1-.43,1.04-.47.05-.04-.11-.32-.03-.41.32-.4,1.43-.94.3-1.42l.66-.88-.43-.54.39-.03-.13-.38.39-.25c-1.19-.49-.68-1.71,0-2.52l-.39-.13-.05-.96-.88.11c.5-1.17.29-1.65,0-2.84-.51-.25-.67.89-.87.65-.45-.53.29-1.74-.77-2.18-.8,1.51-.89-.22-1.43-.54-.49-.29-2.06-1.06-2.52-.8l-.1-.4-.44.15v.5c-.97-.23-1.02-.17-1.42-1.09l-.43.65c-.71-.84-1.79-.36-2.36-.48-1.69-.37-.59-.06-1.19.05-.14.03-2.47-.03-2.59-.08-.42-.19-.4-.54-.62-.72Z"/><path d="M50.66,20.3c.06-.03-.02-.59.58-.39l.54.65.11-.87.9.43-.13.88.76-.22c.4.15.08.64.11.65.52.31.32-1,1.19.02.77.9.21,2.2,1.89,2.3l-.14.96c.2.41.82.35.95.47.04.04-.12.3-.04.41.12.17.44.17.49.24.03.04-.21.58-.1,1.08.15.69.83,1.19.97,1.69.09.34-.03,1.69.1,2.35.02.11.35.08.38.25.09.47-.08,1.45-.44,1.82l.87-.21c-.25.39.22.69.18.94-.05.28-.52.4-.4.8h.63s-.21,2.08-.21,2.08c-.04.44.55.45.63.65.17.42-.3,2.17-.15,2.59.12.36.65.35.77.69.33.98-1.35,2.56.08,3.07l-.65.76c.61.03,1.14,1.53.44,1.86l1.09.33-.66,1.2.66-.11c-.06.43.17.92.14,1.31-.04.47-.89.78.28,1.12l-.63,1.28.87-.22c.43.58-.79,1.98-.65,2.17.04.06.56.06.63.35.11.45-.78,1.11.45.98.13.55-.38,1.31-.38,1.59,0,.52.57,1.16.77,1.63.17.41-.19.87.5,1.02l-1.09,1.98c1.11.4.36,1.59.65,2.51l.43-.22c.47.95-.49,2.27.88,2.62v.21c-.34-.12-.68.87-.83,1.25-.25.65-.67,1.59-.48,2.25l-3.28-.65c.4-.88-1.23-2.15-1.25-2.28-.03-.19.22-.55.17-.86-.03-.16-.41-.11-.41-.24,0-1.03-.1-2.47-.5-3.44-.07-.17-.32-.18-.37-.29-.15-.39.53-1.74.35-2.4-.04-.13-.79-.3.05-1.32l-.41-.21c.01-.15.18-.59.16-.66-.07-.2-.77-.08.04-1.31-.77-.21-.16-1.69-.28-2.36-.06-.32-.94-1.38-1-1.58-.04-.13.09-2.13.4-2.29h-1.31s.11.44.11.44h-.32s-.03-.4-.03-.4l-.74.18-.11-.66-.98.36-.55-.57h-.42c-.04.89-1.77.24-2.49.43-.25.06-.24.58-.49.64-.21.05-.6-.2-.88-.21-.4-.01-.27.38-.42.41-.14.03-.67-.18-.88-.13-.08.02-.28.6-.77.39l.22.65c-.06.05-1.26-.28-1.48-.37-.27-.11-.24-.45-.42-.5-1.09-.3-.98,1.05-.71,1.8.05.14.72.38.19,1.13-.19.26-.58.33-.61.38-.27.45.34,2.77.32,2.92-.03.2-.76,1.7-.78,1.8-.32,1.54-.27,3.52-.48,4.94-.05.37-.95,1.7-1,2.04-.06.39.34.77.05,1.39-.25.54-1.21.51-.99,1.31h-1.31c.2-.61-.26-1.19-.42-1.87-.09-.4.07-.88-.02-1.26-.04-.17-.43-.14-.45-.28-.06-.46.44-.84.36-1.2-.06-.24-.43-.48-.47-.74-.08-.58.56-1.2.56-1.54,0-.31-.41-.56-.45-.89-.05-.46.4-.72.45-1.09s-.22-.78-.18-1.05c.06-.32,1.5-1.32-.05-1.23l.44-2.51-.44.11v-1.17s.87-.58.87-.58h-1.09c-.02-.76.73-.96.85-1.12.07-.09-.37-.65-.33-.96.03-.24.43-.35.35-.65l-.88.11.44-1.09-.44-.22.45-.12-.35-1,.57-.55-.21-.64c.85-.28.26-.91.63-1.52l-.65-.21c.39-.42.39-.91,1.09-.77l-.66-.65c1.12-.16.71-2.01.68-2.75,0-.06.57-.5.63-.86l-.87-.22c0-.64.55-.84.74-1.2.14-.26-.08-.58,0-.76.18-.45.7-.64.79-1.33.14-1.09-1-1.52.22-2.61l-.44-.21.66-1.1-.65-.22c.06-.39.76-.72.8-.81.05-.09.5-1.98.49-2.09-.04-.35-.69-.38-.42-1.15h.88c.07-.47-.41-.7-.39-1.16.04-.86.97-1.43,1.16-1.9.1-.23-.26-.37-.25-.54,0-.05.23-.95.25-1,.24-.44.92-.41,1.21-.74.39-.44-.51-.67.84-1.11l-.44-.21c.2-.85.8-.41,1.06-.58.06-.04.47-1.11.8-1.29.97.94,1.06.25,1.66.32.43.05.9.65,1.25.51ZM52.07,26.65c-.06-.07-.26-1.43-.5-1.71-1.69.22-2,1.12-3.06,2.08,1.31.59-.51,1.08-.66,1.37-.12.22-.37,2.2-.53,2.68-.15.43-.53.63-.68.98-.19.45.04,4.34-.11,5.23-.1.62-.65.99-.65,1.33l.46.22-.45.98.44.11-.66.88c1.65-.29-.09,1.12-.21,1.38-.21.45,0,.96-.05,1.25-.02.14-.37.08-.37.2.01.32.31,1.18.15,1.56-.08.2-.48-.05-.39.31h1.09s-.11-.44-.11-.44c.46.03,1.15.4,1.54.42.11,0-.01-.37.41-.43,1.13-.17,1.03.44,1.11.46.65.17.51-.43.68-.45.39-.05,1,.31,1.71.22,1.01-.13,1.66-1.04,1.99-1.1.85-.16,1.13.44,1.53.46.13,0,.09-.33.28-.43.34-.18.94-.12,1.13-.58.25-.6-.39-.53-.63-.88-.51-.73.49-1.76.42-1.83-.04-.04-.33-.01-.43-.13-.19-.22-.04-.36-.1-.48-.04-.07-.33-.07-.35-.16-.12-.87.86-.58.66-1.09l-.87-.11c-.24-.58.34-1.17.33-1.55-.02-1.24-1-3.02-.55-4.35h-.66s0-1.97,0-1.97l-.65.22.2-.56-.42-.2c.27-.28.77-1.15.61-1.51-.13-.3-.49-.28-.56-.39-.04-.06.18-1-.11-1.43-.15-.23-.82-.35-.97-.54Z"/><path d="M112.56,19.99c.12.06,0,.44.17.36.93-1.12,1.03.35,2.08.44l.22-.87,1.75,2.09.88-.34v1.51s1.31.23,1.31.23c.02.31-.06.65,0,.94.03.12,1.47,1.62,1.51,1.82.07.31-.1.93.04,1.45.08.3.69,1.49.81,2.08.16.77-.25,1.81.52,2.64l.4-.19c.07.08-.16,1.69-.11,2.01.07.4.48.36.53.54s-.16.78-.13,1.1c.03.29.41.86.3,1.07-.14.26-.48.25-.55.36-.04.06.04,1.15-.26,1.48h.66s-.2.78-.2.78c.38-.14.42.97.39,1.08s-.33.1-.34.14c-.07.3.24.79-.28,1.17l.65.43c-.66.9-.31,2.39-.24,3.48l.91.13c-.09.52-.53,1.32-.43,1.84.22,1.09.4,1.34.34,2.61-.07,1.72.42,1.92.48,3.33.03.78-.71,3.42.47,2.94l-.22,1.53.87-.44-.21,1.97.43-.22c-.11.5.17,1.12.11,1.57-.07.53-.55.77-.54,1.28l.44-.11-.13,1.87.79.22-.03,1.2-.42.21.68,1.3c-.94.23-.36,1.18-.54,1.43-.12.16-1.56.68-1.93.89-.25.14-.16.4-.18.42-.06.04-1.2-.58-1.36-.67-.49-.26-.1-.83-1.26.23-.13-.63-.2-1.22-.11-1.86s.65-.62-.12-.89v-.61s.44-.24.44-.24c-.72-.49-.38-2.13-.65-2.62-.07-.13-.78.18-.9-.67-.13-.44.66-.44.66-.65,0-.05-.34-.23-.35-.44s.27-.43.27-.65c0-.42-.47-1.01-.35-1.53l-.43.11.61-1.21c-.92-.67-.11-1.06-.18-2.06l-.64-.02c-.12-.12.22-2.65-.05-3.34-.12-.29-1.17-.71-.72-1.25.18-.21.6-.09.54-.43h-1.31s-.22-1.75-.22-1.75l-.76.87c-.47-.05-.72-.79-.8-.84-.05-.03-.45.18-.71.17-.74-.02-.47-.42-1.21.36-.36.04-.8-.52-1.41-.49-.8.04-.39.67-.85.88-.69.31-1.54-.66-2.63-.06-.23.13-.15.41-.17.42-.11.07-.3-.29-.54-.32-.59-.09-1.45-.04-2.08-.11l.44.87-.44.22c.6-.25.49,1.05.39,1.43-.04.13-.56.03-.39.65.02.08.44.12.44.2-.03.65-.82.98-1.09,1.55l.44.32-.65.34c.2.65.79,1.96-.23,2.07l.43.32-.87,1.33c-.21.7.78.91.23,1.69-.16.23-.55.03-.45.37l.45.12c-.23.87-.45,1.34-1.11,1.96l.44.21c-.81.64-.36.82-.47,1.27-.06.27-.79.85-.76,1.49-.99.06-2.01.13-2.34-.95-.36-1.18.28-2.28-.59-3.13l.44-.21c-.89-.76.43-2.64.42-3.3,0-.17-.47-.07-.57-.52-.17-.75.84-1.81.59-2.64l-.43.22.2-.56-.43-.22c-.06-.63.57-.96.6-1.02.08-.18-.25-.82.5-1.16-.93-.29-.75-1.41.02-1.76l-.44-.96.86-.88-.41-.11.41-.99c-.89.14-.46-1.5-.16-1.71.47-.33.61.38.6-1.13l-.66-.11c.36-.91,2.38-2.3.43-2.52.67-.95.78-1.88,1.1-2.97l-.66-.75.66-.11c-1.08-.49.16-.96.38-1.24.07-.08.48-1.94.49-2.06.08-1.08-.7-.92-.65-1.07.07-.2.57-.83.87-.77l-.43-.43c.2.03.84-.5.87-.59.2-.83-.41-.72-.41-.81.01-.47.34-1.24.63-1.65l-.66-.22.58-.21.07-.33.64-.14c.22-.72-.09-1.21-.4-1.81,1.01-.8,1.86-.85,1.32-2.4.1-.39.68-.26.83-.38.04-.04-.13-.34-.07-.41.2-.23.62-.1.77-.36.21-.37,0-.89.04-1.05.04-.14.3-.06.37-.25.03-.09-.19-.39-.1-.53.12-.18.71-.23,1.01-.52.34-.34.33-.87.88-1.31.61-.48,1.59-.87,2.33-.49ZM113.28,25.81l-.58-.86c-1.54.32-.65,1.19-.86,1.74s-1.43,1.14-1.43,2.28c0,.07.82.2.29,1.15-.22.4-.56.41-.65.54-.08.1.16.78.03,1.05-.38.78-1.25,1.96-1.4,2.97-.09.63.23,1.35.09,2.17-.1.6-.57,1.33-.53,1.96.05.71.82.82-.22,1.54-.09.2.94.67.19,1.38-.03.03-.64-.1-.84.04l.65.32c-.26.75-.24,1.63-1.09,1.97.64,1.12,1.82,1.48,3.05,1.18v-.63c.5-.16.88.45,1.22.44.3,0,.51-.37.7-.41.25-.04.44.31.61.32s.92-.58,1.32-.68c1.33-.31,2.22.83,3.46.55.17-.04.15-.38.18-.4.16-.07.53.26.62.17.54-.55-.59-.67-.66-.8-.46-.82.21-1.1.37-1.75s-.51-1.4.04-2.15c-1.17-.28-.4-2.45-.45-2.62s-.54-.22-.53-1.21c.01-.82.08-.44-.09-1.42,0-.05.84-.3.44-.76-.05-.06-.95.54-1.01-.55-.02-.46.83-2.08.35-2.95h-.88c.13-.73.25-1.74-.13-2.4-.09-.16-.43-.15-.52-.4-.1-.28-.09-1.43-.25-1.56l-.84-.04v-.63c-.52-.34-.45.69-.67.44Z"/><path d="M143.29,21.84l.39-.18.26.84,1.83.47.32-.43c.09.34.32.86.56,1.1.13.13,1.45.78,1.74,1.09.45.5-.05,1.19.66,1.47.75-.79,1.19.4.55.93l.65-.22c.08.55.61,1.38-.22,1.32.94.79.03,1.15.67,2.18l.86-.21-.19,1.41.63.34-.66,1.09h.66s-.23.75-.23.75c.83.31,1.11,1.53.01,1.55l.66,1.64.87-.22c-.37.38-.18,1.2-.26,1.43-.05.15-.37.07-.39.1-.05.08.71,1.5.87,1.41-.46.39-.76,2.1-.65,2.6.04.16.34.13.37.25.15.56.27,1.24-.17,1.64h.66c-.61,2.09.1,4.36-.87,6.44l.87.45c-1.31.8-.68,2.07-.66,3.39l.65-.22c-.15.23-.04.6-.2.77-.24.26-.7.2-.68.54l.87-.22c.51.77-.43,1.15-.43,1.22,0,.19.09,2.06.13,2.24.1.45.61,1.16.52,1.44-.11.35-.85.03-.67,1.34.06.41.38.32.4.43.2,1.11.21,1.47.48,2.44.1.36-.54,1.72.22,2.26-.82-.02-.61.95-.94,1.27-.04.04-.81.53-.86.56-.58.28-1.24-.18-1.05.81-.76.07-.72-1.09-1.15-1.47-.56-.49-1.09.15-.6-1.15-1.76-.17-.21-1.09-.23-1.19-.07-.55-.84-1.28-.21-2.09h-.66s.4-.32.4-.32c-.27-.34.03-.83-.02-1.08-.07-.29-.47-.42-.51-.67-.06-.34.3-1.17.13-1.65l-.65.22.03-2.6.62-.35c-.77-.65-.1-1-.09-1.32,0-.13-.26-.3-.25-.43,0-.55.62-1.9-.53-2.08v-.21c.64.05.33-1.47.89-2.07-.94-.16.22-1.87-1-1.24-.24-.44-2.2-.59-2.86-.61-.12,0-.08.33-.2.37-.67.19-2.47-1.12-2.52.04l-.22-.44-.22.44c-.77-.75-1.1-.09-1.42-.08-.18,0-.88-.58-1.11-.55-.21.03-.22.59-.47.65-.73.17-2.27-.76-2.91-.34-.3.2-.08.81-1.09.33.46,1.09-.02.72-.21,1.03-.59.96.41.82.41,1.03.01.93-.84.75-.87.9-.09.46.2,1.06.12,1.44-.05.26-.43.5-.46.74-.06.58.96,1.13-.52,1.21.64.62.11,1.16.09,1.9-.01.5.16,1.18.07,1.65-.14.69-.53,1.04-.76,1.63-.37.94-.11,1.89-1.27,2.03-1.35.16-2.21-.98-2.35-2.22-.09-.83.62-1.93-.1-1.96l-.04-.28c.96-.74.34-1.35.41-2.2.06-.69,1.1-1.6.02-1.96.77-.44.38-.95.66-1.64h-.65c-.05-.06.07-1.34.15-1.48.22-.41.67-.12.49-.7l-.43-.11c.19-.34.89-1.67.85-2.02-.03-.33-1.28-.9.45-1.16v-.54s-.65-.44-.65-.44c-.12-.44.57-.55.85-.57l.24-1.86c0-.43-.86-.34-.6-1.45.18-.75.7-.65.79-.95.26-.9.37-3.66.55-4.79.06-.35.64-.52.7-.86.06-.4-.38-1.2-.36-1.52.01-.13.4-.1.44-.26.05-.18-.24-.61-.1-.97.12-.32.6-.72.54-.96-1.77-.82.59-1.32.65-1.54l-.41-.13.41-.85-.44-.22c.97-.27,1.73-.84.88-1.75.69.07.37-.97.6-1.7.06-.17,1.05-2.21,1.13-2.31.24-.3.65-.25.89-.48s.22-.62.45-.87c.55-.59,1.58-.4,1.91-.61.12-.08.12-.44.4-.56.25-.1,3.71.06,3.62.8ZM143.41,27.21c-.25-.14-1.39-.64-1.63-.69-1.96-.41-1.17,1-1.69,1.48-.26.24-.76.24-.9.44-.17.22.49,1.59-.96,1.1.16.83-.48,1.6-.6,2.26-.06.33.18.8.03,1.42-.2.87-.92,1.19-.09,2-1.45.39-.7,1.8-1.3,2.74l.87.54c-.79.06-.26.74-1.09.99l.65.22c-.96,1.16-.2,2.63-1.31,3.72l.42.2-.2.78,3.71.22c-.03-.3.12-.99.55-.88.49,1.05.53.42,1.09.48.76.08,1.51.3,2.3.18l.11-.88c.62.58,1.23.2.99,1.31.62-.53,1.01-.57,1.64,0,.33-1.05,1.15.83,2.03-.82.41-.76-.17-.83-.17-1.44,0-.68.74-1.95-.23-2.22.84-.29.29-2.07,0-2.8-.05-.13-.36-.12-.42-.3-.25-.91.93-1.72.86-1.82-1.17-.15-.76-2.07-1.02-2.79-.08-.22-.5-.35-.67-.68-.27-.51-.34-1.23-.75-1.75l-.4.19c.54-1.79-.75-1.94-1.43-3.28l-.22.44c-.19.03-.05-.29-.17-.36Z"/><path d="M22.56,15.46c.46.33.87.64,1.33.29l.12.45c.31.15.18-.68.43-.43.02.02-.09.19.2.4.46.35,1.54.84,2.12.8.48-.03.32-.72,1.08.54l.54-.65c0,.55.83.85,1.03,1.16.34.52,1.84,2.92,2.03,3.35.17.38.07.87.13.96.15.22.64.27.74.57.12.39-.35.78-.36,1.24-.03.74.65.72.62,1.34-.03.75-.45,1.08-.58,1.75-.16.83.6,1.61-.53,1.44.39.69-.51,1.38-.6,1.57-.05.12.15.42,0,.76-.44.98-2.89,2.13-3.72,1.1-.91-1.15.06-1.37.34-1.82.57-.9.72-1.65.24-2.59.82-.22.23-.59.3-1.07s.41-1.08.32-1.51c-.06-.27-1.46-2.31-1.74-2.64-.97-1.15-1.95-1.5-3.41-1.84-.26-.06-.59.16-.8.11-.28-.06-.42-.47-.67-.52-1.22-.21-1.3,1.31-1.91,1.61-.1.05-.37-.2-.61-.05-.04.02-.62.55-.64.59-.13.32.59.5-.47.95l.87.87c-.72.48-.39,1.24-1.33,1.32.15.54-.24,1.96.45,1.85l-.45.34c.33.68.1,1.99.74,2.45.36.26.87-.33.37.82.17.38.51.07.66.25.27.33.21.78.29.91.42.68,1.12,2.16,1.44,2.58.26.35.78.36,1.04.6.46.43.37,1.1.57,1.4.37.56,1.47.15.81,1.81l.68.13-.02.96.65-.44c.47.53.68,2.31,1.08,2.68.49.45,1.11.02,1.26,1.04h1.17c-.36.92.72,1.57,1.07,2.09.29.44.98,1.44.72,1.72.57,1.04,1.3,2.08,1.6,3.28.34,1.35.86.86.99.99.17.17-.2.93-.19,1.21.02.3.36.58.43,1.08.05.41-.12,1.2-.23,1.64l.65-.22c.17.31-.03,1.01.01,1.18s.46.13.43.24c-.1.42-.82,1.08-.88,1.55s.25.94.21,1.5c-.01.21-.4,2.18-.48,2.57-.14.74-.99.88.26,1.7-.87.1-.9,1.09-1.22,1.52-.39.54-1.24.28-.31,1.32-.68-.06-.59.79-.88.99-.06.04-1.2.72-1.27.76-.2.1-1.08.14-1.14.23l.22.65c-.48-.1-1.18.57-1.43.58-.27.02-.48-.31-.66-.36-.12-.04-.06.39-.25.44-.34.08-.89-.12-1.19.09l-.2.78-1.31-.44v.66c-1.39-.03-1.37-1.11-2.9-.43-.2.09-.14.45-.27.43-.13-.03-.34-.31-.54-.35-.26-.04-.42.27-.56.27-.28,0-1.21-1.02-1.86-.58v-.66s-.75.24-.75.24c-.18-.69-.72-.33-.97-.48-.1-.06-.24-.86-.47-1.18-.06-.08-1.49-1.3-1.59-1.34-.18-.09-1.16.03-1.26-.08-.07-.07.06-.69-.07-1.03-.14-.37-1.24-.82-1.45-.95-.08-.05.03-1.15-.52-1.65-.33-.3-1.33-.42-1.45-.87-.06-.24.17-.55.13-.8-.04-.21-.33-.4-.36-.7-.03-.24.28-1.59.21-1.63l-.65.22c-.16-.76-.26-1.62.22-2.31l-.44-.21c.24-.4.74-.56,1.03-.85.11-.1-.02-.47.21-.58.41-.21,1.61-.34,2.15-.65l.12.64,1.08.34-.44.65c.52.35.81.35.66,1.1l-.66.11c.28.31.02.93.12,1.1.07.12,1.69,1.72,1.96,1.96.28.26.8.33.93.49.29.34.02,1,.07,1.02.12.07.4-.08.66.16.23.21.57,1.03.65,1.39l.87-.21c-.34.89,1.55,1.14,2.08,1.96l.33-.65c1.09.91,2.44.24,3.6,1.1.17-.71,1.58-.94,1.97-.45l.24-.44-.35-.64c.83-.42,1.02,0,1.75.21-.25-.37-.06-1.09.21-1.39.19-.21.51-.09.61-.19.18-.18.29-1.32.71-1.6l-.43-.11.44-.32-.66-.66c.2-.18.37-.4.46-.66.45-1.31.23-2,.19-3.48,0-.08-.75-.56-.78-1.34-.02-.58,1.07-3.06-.74-1.85l.22-2.41-1.09.22c.11-.94.3-1.94-.86-1.98.37-1.4-.12-.87-.41-1.44-.12-.23-.19-1.11-.27-1.16-.66.37-1.6-.3-1.85-.88-.16-.36-.05-.96-.14-1.06-.07-.09-.57-.06-.79-.18-.88-.49-.55-1.05-.83-1.59-.52-.99-1.5-1.49-1.92-2.25-.19-.34-.54-1.94-.65-2.07-.17-.23-.7-.3-.89-.49s-.1-.51-.2-.6c-.36-.34-1.05.05-.85-1.34-1.43-.33-.79-.19-1-.85-.25-.81-1.14-2.06-1.17-2.18-.06-.27.1-.64-.04-.89-.07-.12-.6-.2-.73-.47-.14-.3.54-1.2-.11-2.03-.36-.46-1.06-.12-.78-1.49l.78-.21c.07-.07-.84-.72-.6-1.42.04-.13.44-.12.49-.75.03-.41-.56-1.31-.55-1.65,0-.12.36-.1.44-.29.28-.67-.24-1.88,1.1-1.8v-.43c-1.07-.25-.24-1.05.65-.66.04-.48.09-.71-.43-.66v-.21s1.09-.44,1.09-.44c.09-.4-.37-.14-.44-.22-.31-.36,1.28-1.23,1.75-1.1l-.19-.4c.58-.45,1.35-.45,1.99-.7.18-.07.21-.41.43-.49.49-.19,1.2-.05,1.44-.2.38-.22.11-1.13,1.46-.17l.34-.66c.33-.08.13.24.3.36Z"/><path d="M230.12,26.25v-.66c1.04,0,.62.77,1.43,1.1l.22-.45.4.04c.35.12.53.61.8.72.34.14,1.83.47,2.17.68.55.34.68,1.06,1.55,1.19l.22-.44v1.53s1.54,0,1.54,0c-.39.55.14.37.2.6.21.72-.1,1.41.88,1.8.06-.38.2-.74.66-.65l.39.77-.6.65c.41.59.45.05.87-.11l.33.66.32-.44c.55.94-.59,2.45.66,2.19-.24.31.33,1.75.48,1.91.05.06,1.49-.01.23.74l.72,1.01.77-.39c-.04.64.29,1.23-.43,1.42.79.9,2.09,2.11.66,2.95.73-.17.24,1.48.44,1.75l.52-.18.35.31c-.53.95.2,1.69.2,2.4,0,.46-.83,1.1.02,1.3-.92.95.4,2.34-.45,3.49l.45.23c-.28.26-.49.56-.61.92-.18.51-.81,2.24-.05,2.04-.51.37-.21.96-.3,1.2-.18.46-.86.72-.98,1.14-.15.53.13.74.16,1.06,0,.1-.45.1-.55.52-.12.5.23.95.04,1.32-.27.55-1,.33-1.18.48-.11.09-.13.9-.38,1.26s-1.05.64-1.31,1.11l.24.87c-.41.43-2.38.73-2.3,1.42.03.24.85.29.65.54-.35-.09-.44.42-.59.45-1.05.15-2.09-.79-2.03,1.31l-1.31-.43c.04.68-1.49.25-.88,1.31-1.28-.84-1.4.11-2.16.32-1.14.32-2.92.24-4.04.4-.31.04-.94.62-1.43.62l-.03,1.07-1.42-.05c-.55-.49-.8-1.12-1.21-1.74-.24-.36-.58-.21-.75-1.02-.02-.12-.1-2.25-.08-2.37.13-.64.78-.61-.05-.83l.45-.87-.45-.22.44-.22-.44-.22.8-1.31c-.95-1.16-.87-1.93-.13-3.27-.5.03-.52-1.14-.45-1.5.03-.19.46-.06.46-.46,0-.48-.39-.99-.37-1.33.06-1.14.31-2.62.37-3.93.06-1.2.28-2.42.3-3.5.01-.69-.64-1.82.12-1.97-1.54-.3-.3-.71-.06-1.02.09-.11-.15-1.19.06-1.48h-.66c.48-.92-.04-1.89,0-2.72.03-.56.38-.98.33-1.76-.04-.59-.47-1.76-.46-1.89.04-.37.46-.74.48-.97.03-.45-.93-2.01.09-2.18l-.43-.13.18-.54-.41-.1.39-.24.03-2.72-.42-.2.44-1.64-.87-.11c.29-.53.1-.92.88-.77l-.18-.4c.8-.07.73-1,1.05-1.25.11-.09,2.48-.35,2.85-.41.27-.04.47-.32.76-.33.32,0,1.09.5,1.42.64ZM232.3,32.81c-.1.07-1.91-1.19-2.06-1.33-.58-.57-.22-1.01-.67-1.51-.95.73-1.28,1.79.33,1.09.18.63-.86,1.32-.89,1.64-.1.93.46.76.46.89.01.28-.36.78-.22,1.18h.66c-.24,1.17-1.54,2.77,0,3.39-1.05.56-.03,1.67-.46,2.78-.07.17-.35.18-.4.35-.08.25-.25,1.41-.13,1.57s.53.17.57.34c.11.59-.63.79-.67,1.3s.34,1.54.34,2.2c0,.22-.26.46-.26.67,0,.88.26,1.88-.07,2.71h.66s-.44,1.75-.44,1.75h.88c.05.48-.86,1.17-.88,1.25-.07.3.28,1.02.18,1.24-.14.32-.52.29-.59.38-.05.06.16,1.39.2,1.57.04.18.35.14.39.26.14.39-.49,1.07-.52,1.31-.14,1.1.2,3.4.13,4.8-.02.35-.21.65-.23.99h.66c-.64,1.46,1.48.69,2.31,1.07l1.82-1.1-.19-.4c.08-.06.42.17.66.09,1.54-.49,4.52-3.78,5.19-5.23.06-.12.12-1.08.29-1.2l.65.22c.08-.1-.21-1.84-.17-1.94.03-.08.92-.58,1.03-1.29.08-.52-.41-.78-.41-.83,0-.08.99-.44.81-1.33l-.57-.41.64-1.76-.66-.45.45-1.95-.66-.12.43-.54c-.78-.44-.38-.81-.49-1.26-.07-.28-.3-.53-.33-.76-.15-1.18.69-2.36-.7-3.03.72-1.05.17-.6-.31-1.19-.64-.79-1.08-2.24-1.79-3.26-.31-.44-.94-.36-.75-1.11l-.43.22v-.88c-.83.5-.97-1.21-1.3-1.43l-.9.03-.87-1.66c-.58-.2-.58.59-.66.65Z"/><path d="M203.86,25.38c.59-.05,1.07-.02,1.1.66l.87-.66.44,1.97.65-.22.76,1.76h.77c-.28.42-.1,2.07.34,2.16l.75-.2-.16.4.34.14c-.21.42.05,1.81.24,2.17.15.27.58,0,.68.27.26.75-.36,2.42.65,2.49v.21c-.78-.13-.39,2.27,0,2.54l.66-.02c.02.75-.75,2.15-.62,2.79.08.36.6.71.7,1.03.07.22-.14.61-.09.66.07.06.49-.11.68.13s.48,1.82.42,2.12c-.04.18-.37.16-.5.43-.29.59-.59,1.2-.82,1.82l.45.42-.44.11.41.32-.38,2.71,1.07.36c.02.6-.8,1.05-.85,1.34-.04.24.3.48.33.73.06.59-.18,1.86.52,2.08l-1.09.98c1.09-.04.11,1.77.47,2.16l.84.36-.83,1.76,1.05.32-.44.33.44.32c-.67-.1-.97,2.27-1.13,2.37-1.16-.06-2.94,1.08-3.97.43-.93-.58.59-2.15-1.02-2.26.61-.31.44-1.54.49-1.61.07-.1.57.11.38-.47-1.87.49.36-1.4-1.07-1.56,0-1.08.76-.77.85-.85.2-.19-.36-1.16-.39-1.47-.07-.81.13-2.16.03-3.1-.06-.58-.37-.97-.94-1.13.9-.92.01-1.63.04-2.24.02-.46.57-1.08.38-1.67l-4.28-.62c-1.1-.1-2.17.35-3.25.26-1.28-.11-1.36-.52-2.86-.38-.26.02-.56-.36-.65-.36-.36.01-.15.93-.54.87-.45-.57-.89-1.66-1.64-1.75l.11.66-.44-.11c.38.37-.43,1.43-.22,1.63.11.1.73-.21.66.22-.58-.07-.21.27-.52.66-.13.16-.55.23-.67.43s.09,1.64.05,1.72c-.03.06-.62.28-.77,1.07-.12.64.25,1.7-.49,1.59l.41.23c-.4.41.07,1.24.03,1.29-.06.08-1.33.17-1.1,1.31l.66.11c-.36.45-.56.62-1.09.33l.16,1-.6.32.66.54c-.36.46-.55.62-1.09.33l.19.85c-.86.12-.4.67-.53.91-.11.19-.9.38-.75,1.08-.4-.21-.88-.18-1.29-.36-.89-.38-.64-.94-1.12-1.72l.44-.33-.44-.11c.71-.46.61-1.18.94-1.91.13-.29.51-.4.53-.43.09-.21.11-1.24-.37-1.16.89-.55.27-2.52.3-2.84.04-.35.74-1.02,1-1.32l-.65-.44c.41-.36.36-.88.58-1.37.42-.93,1.27-2.89,1.56-4.15.11-.49-.04-1.04.25-1.5l-.42-.2c.28-.49.46-.84,1.1-.77-1.08-1.46,1.27-2,.46-3.59l.85-.35c.12-.61-.23-.42-.66-.44-.04-1.3,1.22-1.96,1.69-3.01.43-.96-.27-2.42.93-2.24-.52-1.07.22-.85.45-1.25.08-.14.6-1.24.61-1.31.08-.57-1.07-.45.82-1.38.15-.3-.61-.86.21-1.75.19-.2,1.1-.7,1.34-1.15.08-.16-.12-.63.13-.98.42-.58,1.86-.6,1.34-1.83l.78-.22c-.19-.39-.3-.58.11-.86,1.09,1.08,1.8-.49,2.84.43l.44-.88c.73.39,1.23.91.77,1.75ZM202.11,29.32c-.4-.08-.52.17-.72.44-.3.4-1.34,1.95-1.58,2.2s-.66.15-.75.23c-.08.07.23,1.14.16,1.37-.09.29-.63.41-.88.85-.19.33-.1,1.38-.27,1.91-.2.64-1.09,1.63-1.15,1.88-.07.32.23.68-.03,1.31-.19.46-.59.49-.69.68-.44.85-.57,1.96-1.09,2.81l.03.29c1.57.87,3.22-.03,4.89.02l.12.66c.84.26,1.48-.62,2.07-.76.37-.09,1.41.14,1.73.1.09-.01.39-1.08,1.34.22l.13-.39.96-.04.33-1.53c-1.33.13-.21-.53-.27-1.36-.07-.98-.77-1.5-.8-1.59-.03-.1.19-1.53.14-1.61-.11-.16-1.62-1.11.05-1.13.22-.55-.28-.35-.38-.48-.07-.08.34-.36-.28-.5l.43-.66c-1.38-.6-1.23-2.45-2.62-2.95l.44-.33c-.59-.16-.48-.41-.44-.98-.64.61-.62.2-1.31,0l.44-.65Z"/><path d="M166.79,21.32c1.1.81,1.22,1.92,1.28,3.2l.79.33c-.03.62.23,1.1-.45,1.29.3.75,1.31,1.03,1.33,1.12.07.28-.1.75-.03,1.08.34,1.72.51,3.26,1.4,4.84.05.08,1.24,1.29,1.33,1.3.28.04.84-.25,1.22-.14l-.22-.43,1.3-.03.13-.65h1.19s-.65-.64-.65-.64c.32-.1,1.07-.5,1.25-.72.36-.46.06-.77.13-.98.03-.1,1.47-1.17,1.59-1.36.15-.23-.15-.62-.12-.65.07-.06.89-.15,1.28-.8.41-.69-.29-.77-.19-.95.01-.02.28.06.44-.16.21-.3.27-.8.66-1.05l-.43-.32c.83-.05,0-1.13,1.31-.44l-.21-1.09c.76.21,1.21-1.06,1.58-1.27.58-.33,1.51.59,1.7.39l.22-.87.62.78-.18.53.77-.17c.96.79-.35,1.98-.12,2.87.04.17.48.12.44.24-.17.51-.18.87-.24,1.07-.03.1-.81.89-.85.97-.32.61.03,1.31-.1,1.58-.16.33-.77.37-.95.81-.44,1.1-.37,2.09-.53,2.99-.03.15-.87,1.02-1.01,1.58l.41.41c-.86.75-.33,1.71-.54,2.51-.25.94-1.16,1.3-.99,2.2l.43.1-.87.88.65.32c-.53.31-1.7.97-1.83,1.53-.15.6.54,1.42-.35,1.65l.84.58c.18.83-.7,1.26-.93,1.98-.14.45.06,1.05-.12,1.33-.1.17-1.27.98-1.3,1.06s.23.7.18,1.15c-.06.49-.47.94-.56,1.43-.56,3.11-1.02,6.78-2.28,9.3,1.19,1.13-1.77,2.2.22,2.96v.21c-.99.14-.76,1.32-.97,1.99-.12.39-.39.67-.49,1.01-.06.19.2.55.05.74s-.59.13-.73.27-.06.54-.27.72c-.07.06-1.53.45-1.71.48-.09.02-1.82-.03-1.91-.04-.88-.15-.15-.79-.16-1.05-.03-.59-.11-1.94-.19-2.47-.05-.35-.46-.68-.41-.75.02-.03.41-.02.65-.36.17-.25.01-.57.08-.69.03-.05.3-.07.36-.2.21-.43.23-.95.66-1.27l-.65-.44.43-.11v-.44s-.43.22-.43.22c.06-.27.08-1.15.27-1.27.4-.26.9-.64,1.18-1.19.03-.07.41-1.19.43-1.25.17-.84-.56-.91-.55-.98,0-.1.29-1.38.33-1.45.2-.32.64-.31.81-.7.13-.3.25-1.42-.28-1.35.3-.7.91-1.35.22-1.98.65-.15.21-.42.27-.5.07-.11.53-.21.74-.46.5-.59.66-2.49-.13-2.75,1.1-.78.81-1.68,1.19-2.64.09-.22.77-.41.54-1.05-.07-.19-.46-.13-.43-.25.13-.54,1.02-.89,1.06-1.12s-.22-.57-.2-.83c.01-.15.41-.11.45-.28.12-.51.01-1.49.11-2.16.04-.29.31-.54.33-.65,0-.05-.68-.22-.44-.76l-.99.03-.2.4c-1.07-.32-2.83-.95-3.73-.22-.46-.88-1.77-.71-2.42-1.75-.15-.23.15-.63.13-.65-.15-.13-1.02.22-.88-1.1-1.47.74-.4-1.55-.76-1.98l-.99-.32c-.13-.52.61-.98.59-1.31-.04-.58-1.21-1.46-1.24-1.55-.13-.42.39-.67.39-1.03,0-.31-.37-.84-.41-1.36-.03-.34.24-.91.21-.95-.07-.09-.5-.06-.59-.37-.04-.14.14-.43.1-.61-.13-.53-.46-.87-.14-1.45h-.65c-.05-1.18.88-1.93.09-3.07,1.07-.8,1.47-1.43,2.66-.55Z"/></g></svg>