<?xml version="1.0" encoding="UTF-8"?><svg id="Layer_2" xmlns="http://www.w3.org/2000/svg" viewBox="0 0 289.48 107.99"><g id="shaah_somali"><path d="M205.63,26.83c.1.06.37-.14.52-.07.05.02.7.72.72.77.29.53-.16,1.22.36,1.59l-.72.09c.78.58.34.38.38.82.15,1.57-.51,1.22-.5,2.19,0,.39.24.77.21,1.06-.04.39-.68.88.26,1.27-.85.57.04,1.75-.73,1.99.89.55,0,1.33.73,1.63-.8.79.48,1.77-.54,2.36l.37.2-.2.87c.75.35-.04,1.72-.12,2.41-.13,1.06.23,2.2.3,3.23.1,1.58.06,3.1,0,4.71-.02.47-.22.93-.1,1.44l.48.08-.36.54.54.27-.89,1.25-.02,1.91h.73c.07.54-.58.83-.66,1.27-.07.37.44.83.41,1.18-.02.2-.39.43-.43.74-.06.44.34,1.24.33,1.8-.02,1.37-.23,2.91-.22,4.34,0,.61.52.98.22,1.59-.7.45-1.23.66-1.97.92-.06.02.06.44-.82.25-1.44-.32-.79-.87-.9-1.68-.01-.1-.29-.08-.31-.22-.19-1.26-.05-2.33.18-3.56l-.72-.39c.06-.56.22-.81.71-1.07.1-.35-.48-.49-.73-.45.45-.71-.39-1.63.73-1.72l-.34-.11.15-.34c-.65-.16-.37.22-.72.36.05-.6.19-1.46.47-1.99.18-.35,1.18-.38-.28-1l.72-1.18-.72-.27.91-.64c-.37-.99-1.13-1.94-.18-2.8-.81-.35-.32-.45-.43-.99-.12-.61-.65-.9.07-1.63h-.55c.17-.27.06-.74.18-.95.1-.18.92-.25,0-.59-.09-.51.5-.7.54-.93.05-.27-.71-.65.19-1.08-.26-.7.44-1.74-.71-1.34.17-.27.12-.66.28-.9.13-.21.55-.06.44-.45-.18-.45-.7-.06-.72-.09-.09-.1-.18-1.27.04-1.42l.5-.03c-.3-.37-.15-.86-.22-1.18-.1-.43-.29,0-.07-1.14.08-.39-.33-.87.47-.94-.77-.66-.29-.79-.26-1.43,0-.23-.23-.38-.22-.46.02-.25.69-.52.67-.9l-.72-.54.54-.73-.36-.09.36-.27-.27-.45c-.73.24-.45.76-.81,1.14-.17.18-1.67.72-.55.85l-.33.2.15.34c-.57.09-.8.04-1.27.37l.24.18c.47.38-.52.6-.72.79-1.17,1.05-1.91,1.9-3.28,2.46-.61.25-1.05.18-1.59.2-.32.01-.7.53-1.16.34v-.52s-1.08-.04-1.08-.04v-.52c-.36-.02-.76.16-.74.54h-.18c.15-.7-.52-.73-.68-.94s.52-2.03-.95-1.05v-1.09s-.28.14-.28.14l-.27-.32.36.63-.38.2c-.12.56.67.91.01,1.44l.36.09c-.57.56-.08.55-.04.84.04.22-.25.41-.28.66-.07.7.44,1.1.13,1.76h.72c.09.07-.61,1.39-.64,1.62-.07.51.36,2.22-.27,2.82l.37.19c-.56,1.19-.02,2.3.09,3.5.02.22-.22.34-.19.56.11.67.66,1.33-.09,2.08,1.11.5.01,1.02,0,1.11-.09.51.33.85.36,1.24.04.61-.32,1.91-.53,2.54l.35.26-.36.18.54.18c-.76-.04.06.21-.11.68-.09.25-.38.58-.4.71-.03.23.29.4.29.51,0,.13-.33.29-.38.45-.29.82.36.95.39,1.18.04.39-.79.46.22.91-1.21.71-.44,1.66-.46,2.45-.01.74-.57,2.41-.56,2.8,0,.23.57.32,0,.61-.95-.26-2.21,1.06-2.64-.12l-.33.15v-.55s-.54.18-.54.18c.21-.45-.38-.59-.36-.63.18-.57.75-1.14-.18-1.63.87-.66.3-1.47.41-2.39.04-.3.33-1.11.49-1.42-.91-.36-.37-1.15-.36-1.81,0-.3-.21-.62-.19-.9.04-.39.49-.56.5-.72,0-.14-.29-.41-.3-.72s.48-1.39.34-1.55l-.54.18c.14-.51-.27-1.56-.16-2.09.03-.13.52.02.34-.45l-.36-.09.91-.9c-.31-.4-.57-.66-.36-1.18h-.55c.1-.84.74-1.13.7-2.1,0-.22-.24-.37-.25-.63-.01-.36.3-1.14.25-1.34-.06-.22-.42-.2-.49-.37-.1-.23.09-2.12-.04-2.53l.56-.1v-2.44s-.55-.1-.55-.1l.36-.81-.54-.28c.74-.93.78-1.73,1.03-2.81-.56-.76-1.05-.02-.66-1.25l-.37-.29c.8-.03.23-1.55.35-2.06.03-.12.96-.22,0-.57l.36-.82-.73-.09.73-.73c-1.16-.54-.03-.95,0-1.12.04-.2.29-1.34.29-1.42,0-.21-.3-.4-.21-.63.04-.1,1.04-1.21,1.11-1.24.5-.16.98.07,1.43.06.13,0,.51-.5.62,0,.08.41-.33.52.37,1.26.32.33,1.17,1.41,1.26,1.46.11.07.35-.12.5-.06.62.26.12,1.07.25,1.21.02.03.31-.02.46.08.77.51.42,1.26.67,1.88.04.11,1.6,1.63,1.71,1.68.6.3,1.49.07,1.68-.64l-.54-.45c.4-.21,1.02-.31,1.37-.54s.76-1.17.99-1.36c.57-.49,1.58-.23,1.08-1.72.35,0,.81.03.91-.36l-.36-.09c.25-.73,1.45-.35,1.59-.86.08-.28-.24-.7-.14-1.04l.88.17.56-.99-.35-.44.72-.19-.18-.72c.98-.12,1.46-.92,2.54-.55l-.36-.54c.99-.34,1.08.55,1.3.7Z"/><path d="M33.92,25.91c.14.18.48.13.68.04l-.16,1.19.36.18c-.26.9,0,1.68.48,2.28.13.16-.15,1.38-.05,1.69.05.15.3.9.33.95.04.06.31.05.3.12,0,.47-.59.74-.62.98s-.06,1.28-.05,1.53c.02.58.21,1.19.32,1.76l.54-.18c0,.67-.73,1.5-.71,2.09.02.49.57.62-.02,1.17l.54-.18c.22.29-.42,1.84-.47,2.29-.1.83.29,1.9-.25,2.7,1.26.65-.92,2.76,1.16,2.99l.18-.35.46.16v-.52c.51.1,1.05-.26,1.42-.29.43-.03.79.23,1.18.21.45-.02.45-.46.6-.49.77-.16,1.84.13,2.67-.38l.19.38,1.43-.56.2.38.72-.55.27.55c.48-.06,1.25-.34,1.08-.96-.03-.12-.28-.11-.34-.26-.15-.4-.02-.88-.06-1.03-.02-.08-.52-.27-.43-.73.04-.22,1.3-1.53.29-1.98l.36-.55-.36-.17c.94-1.11-.76-2.1.18-3.17-.67-.06-.5-.52-.37-1,.27-1.07.18-1.81.17-3.05-.02-1.39-.05-1.78-.27-3.13-.13-.81.29-1.05.41-1.51.09-.35-.11-.61-.07-.8.01-.06.51-1.09.55-1.15.08-.12.82-.5.97-.76,1.13.32.77,1.69,1.09,2.49.09.23.43.21.43.32.03.42-.46.74-.19,1.61.15.47.49.41.51.54.04.33-.25.93-.26,1.11-.04.7.12,1.52-.07,2.24.41-.29.34.08.71.26l-.54,1.09c.8.27.38,1.28.39,1.82,0,.11.27.06.31.17.04.12-.62,1.72-.53,2.54.03.32,1.09.94.2,1.71l.72.28c-.58,1.56-.36,3.17-.36,4.79l1.09.37-.32.2c.34,1.21-.9.61-.38,1.83.1.23.49-.02.17.86l.54-.36c.21.29-.46,1.88-.72,2.26l.37.18-.37,1.72.56.1-.37,1.89.52.02c.39.78-.16,1.29-.24,1.77-.06.39,0,2.15.63,1.65.22.55-.63.89-.66,1.17s.56,1.59.5,2.36c-.03.36-.38.25-.39.37-.02.65.79,1.57.87,1.8.11.33-.24.74-.24.91,0,.15.39.85.28,1.18l.72-.36c.06.78-.47,1.27-.9,1.81,1.18.26-.36,2.47,1.09,2.36l-.21.7-.7.03.36.72c-.33.27-.79.16-1.03.23-.04.01-.05.28-.18.32-.3.07-1.23-.25-1.32-.18l.18.36-.55.1-1.21-2c.38-.94.75-3.08-.6-3.17-.07-.05.38-1.4.37-1.53,0-.11-.36-.02-.39-.36-.08-.9.6-1.51.07-2.59-.14-.28-.85-.5-.49-.95.16-.19.54-.05.44-.44l-.54-.45.54-.36c-.67.25-.98-.86-.61-.91l.61-.09c-.4-.26-.23-.68-.37-1.04-.05-.14-.36-.14-.36-.25-.03-.59.84-1.27-.35-1.54l.17-.42c-.41.09-.34-1.9-.27-2.12.11-.35.37-.32.41-.43.05-.14-.13-2.58-.17-2.9-.01-.11-.3-.07-.33-.21-.1-.46.1-1.01-.03-1.48-1.22-.8-2.34.27-3.59-.39l.18.36c-.61.05-1.32.25-1.81-.18l.18.72c-.77-.28-1.58-.63-2.29-.06l-3.14.06v1.08s-.55.1-.55.1l.33.17c-.13.52.35,1.1-.31,1.26l.16,1.01.36-.36c.98.89-1.02,1.72,0,1.99v.18s-.36.36-.36.36l.54-.18c.64,1.16-.13,1.78-.3,2.84-.05.31.25.82-.07,1.23l.37.28c-.85.07-.37.7-.54,1.26h.54c.05.37-.49.78-.5.82-.02.08.21.55-.04.81h.55c.16.63-.71,1.1-.71,1.17-.02.23.78,1.52.53,2.51-.02.1-.14.15-.28.76-.23,1.06-.5,1.99-1.01,2.96-.61.04-.91-.07-1.15.57-.83-.32-.72-.75-1-.99-.18-.15-.48-.05-.7-.41-.05-.08-.49-1.68-.5-1.77-.02-.52.78-2.81.66-2.99l-.36.18c-.02-.39-.34-.77-.32-1.15.03-.47.44-.47.45-.5.04-.1-.12-1.68.23-2.04l-.38-.2c.12-.42.11-.74.55-.89-.4,0-.55-1.15-.53-1.46.02-.28.33-.44.34-.71,0-.22-.31-.47-.31-.83,0-.52.8-2.49-.41-2.34l.38-1.37-.38-.44c.54.11.23-.77.37-1.18l-.56-.19c-.03-.4.48-.88.51-1.12.03-.26-.69-1,.03-1.77l-.54-.1v-.71s.72,0,.72,0c-.62-.58-.04-1.19-.04-1.75,0-.25-.29-.49-.33-.86-.03-.27-.03-1.91,0-2.19.03-.35.4-.25.38-.35-.03-.31-.56-.44-.57-.72-.02-.51.42-.95.39-1.08-.08-.29-.71.07-.43-1.14s.52-.8.3-2.15c-.09-.52.32-2.21.32-2.68,0-.54-.54-1.51-.54-1.81,0-.28.26-.52.28-.82.05-.49-.48-1.18.43-1.27-.53-.51-.52-1.35-.36-2.04.04-.15.33-.05.37-.39.09-.73-.29-.61-.33-.73-.14-.38.64-1.44.36-2.17.51-.18.23-1.04.79-1.14.89-.17.98.74,1.2,1.01Z"/><path d="M225.65,26.57c.11.06,1.12.67,1.16.73.14.2-.02.42.03.53.02.06.45.73.59,1,.18.34,1.11,1.66,1.15,1.76.2.64-.65,2.07.92,1.7l-.54,1,.72-.09-.54,1.99h.91s-.36.64-.36.64l.36.09-.34.2.16.71-.72.18c.71.33,1.74,1.28.36,1.54.8.68-.2,2.26.9,2.45v.17c-.6-.09-.47,1.14-.35,1.5.06.17.35.09.37.4.03.41-.16.68-.18.92,0,.09.34,0,.36.34.03.41-.15.79-.21,1.18h.54s-.36.36-.36.36h.55c-.39.84.44,2.25-.55,2.63.45.44.25,1.27.48,1.9.07.18.36.29.43.64.11.53-.33.4-.37.56-.15.68.05,1.58.58,2.01l.32-.14c.19.77-.65,1.2-.55,1.9.08.59.67.33.75.57.22.74-.3,1.39.17,1.87-1.28.43-.09.62,0,.74.03.05-.24.48-.27.69-.11.75.43.47.63.58.08.04,0,1.81-.03,1.9-.07.16-.4-.04-.33.26l.72-.18c.3.63-.44,1.12-.47,1.35-.04.26.27.75-.06,1.11l.33.15c-.21.33-.01.91-.53.83v.18c.61-.06-.06.32.54.45l-.36.82c1.11-.1.94.45.6,1.22-.09.21-.37.22-.39.32-.03.13.25.7-.03.99l.54.09c-.07.37-.61.56-.69.68s.09.35.05.51c-.18.71-.61.31-.63.35-.09.2.22.71-.32.76l.13.32c-.59-.24-.98-.43-1.63-.18l.18-.72-1.06-.03c.03-.66-.3-1.27-.37-1.89s.48-.71-.56-1.26c.87-1.08.15-2.09.27-3.35l-.64-.27c.41-.78-.22-1.67.37-2.35l-.36-.18.36-.18-.54-.18.72-1.81-.9-.27c-.08-.3.26-.1.33-.26.06-.15-.12-.82-.09-1.07.02-.19.3-.36.3-.39,0-.14-.41-.2-.49-.3-.03-.04.02-.87-.05-1.05l-.54.18c-.14-.65.52-1.09.49-1.69-.03-.68-.62-.39-.67-.57-.21-.64.37-.67.37-.74,0-.1-.19-1.85-.22-1.94-.06-.21-.27-.34-.42-.49-.16.47-1.16.72-1.63.7-.24-.01-.43-.27-.55-.27s-1.42.94-1.98.83l-.29-.71c-.3-.08-.08.33-.29.37-.23.04-.55-.14-.82-.1-.34.05-.24.43-.6.47-.43.04-2.81-.06-3.28-.1-.41-.04-.87-.71-1.51-.27-.14.54.16,1.55-.11,1.98-.08.12-.35.13-.41.21-.07.08-.1,1.97.68,1.68-.31.3-.15.91-.29,1.18-.3.6-1.33.8-.95,1.88.11.3.62.2.53.56-.6.66-.31.73-.36,1.24-.02.18-.58.01-.37.48l.54.09c-.41.54-.93.85-.91,1.61l.38.37c-.04.47-.67,1.18-.77,1.44-.21.59.04.96-.77,1.49h-1.56c.07-.63-.66-1.01-.69-1.14-.09-.29.35-.87-.2-1.25l.53-.38-.19-.87.38-.21c.05-.63-.56-.85-.56-.9,0-.45,1.2-2.63,1.06-3.06-.03-.11-.3-.1-.39-.31-.41-.95.21-.85.23-.98.02-.09.15-1.66.14-1.75-.02-.47-.47-.97-.33-1.66l.56-.1c-.22-.3-.1-.69-.19-.95-.06-.17-.36-.14-.35-.21.02-.17.31-.47.32-.77,0-.23-.48-.65-.09-.93.12-.09.42.07.5-.15.03-.09.1-.87.08-1-.05-.33-.38-.31-.42-.42-.19-.63.67-1.02.69-1.09.17-.51-.78-.13-.72-.36.18-.7.76-.7.73-1.27l-.37-.18.47-.27-.11-.54.72-.28c-.51-.39-.01-1.26-.09-1.99-.02-.2-.31-.38-.28-.71,0-.1.28-.1.3-.15.05-.12-.05-.28.06-.41.22-.27.55-.22.76-.71.31-.72-.49-1.05-.23-1.64.19-.44.49-.42.64-.63.28-.4.24-1.12.3-1.34.05-.2.39-.23.47-.35.25-.42.25-.95.6-1.3l-.72-.45.33-.02-.06-.34c.59-.39.93.25.99.18l.17-1.15-.71-.47c.84.14.32-.26.52-.46.25-.26.73-.27.95-.53s-.15-.88.71-1.11l-.37-.8c.24-.27,1.01-.36,1.06-.4.09-.08-.08-.62.39-.51l-.36-.18c.23-.95.74-.46,1.45-.72.09-.27-.7-.13-.36-.54.04-.05.76-.27.94-.38.31-.19.34-.74,1.06-.53v-1.09s.72.18.72.18l-.18-.54c1.23.14,2.24.04,3.39.62ZM224.23,30.85c-.48-.58-1.26.65-1.79.53l.11.54-.65.18.19.54c-.72-.05-1.11.78-1.46,1.31-.17.25-.73.94-.86,1.17-.43.8-.38,2.43-1.12,3.04l.36.18c-.79.38-.36.34-.41.71-.08.66,0,1.19-.68,1.46l.36.45c-1.33.29-.5,1.29-.65,1.97-.09.38-.36.4-.37.43-.08.28-.06,1.08-.18,1.36-.11.26-.54.28-.58.72,0,.11.35,1,.41,1.1.04.06.27.02.29.04.06.09-1.33,1.21-.19,1.9l.74-.1-.18-.71c.11-.07,2.36.4,2.63.32s-.24-.11.7-.16c.55-.03.81-.4,1.38.19l.11-.38c1.04.51.73-.21,1.09-.33.34-.12,2.43.43,2.88.29.61-.2-.24-1.44.63-1.66l-.88-.84.16-.41-.37-.19c.97-1.14-.04-2.04.36-3.36l-.36.18c-.06-.29.17-.56.16-.83-.02-.6-.38-.99-.61-1.34-.57-.9.38-1.18.45-1.55.02-.09-.29-.08-.3-.12-.06-.19.03-.63-.15-.97s-.75-.32-.44-1.15c.48-.02.6.1.53-.47l-.34-.17.16-.46c-.48.13-1.06-.47-.6-.73l.6-.27c-.77-.31-.33-.5-.41-.69-.11-.27-.65-.91-.67-.97-.06-.23.07-.66-.02-.76Z"/><path d="M117.74,27.4l.55.09c.12.63-.36.99-.34,1.24.04.39.09.89.14,1.27.02.13.34.09.37.24.17.72-.8,2.44.9,2.59v.18c-.55-.08-.17.31-.35.6-.08.12-.38.12-.38.23,0,.24.26.54.29.79.06.49-.16,1.47.12,2.25.09.24.39.24.56.53.39.65-.25.72-.33.85-.12.18.17,1.77.64,1.64l-.36.54.36-.09.18.91-.72.09.09.36.64-.18c0,.52-.53,1.02-.64,1.36-.14.42.27,1.23.25,1.68s-.36.94-.31,1.55c.03.41.32.9.33,1.12,0,.08-.29.05-.32.16-.09.39.53,1.79.49,2.37-.03.4-.82,1.42.38,1.35-.61,1.09-.39,1.86-.46,2.92-.02.28-.3,2.04-.24,2.12.04.05.35.07.43.19.45.68-.28.77-.28.82.02.26.29.39.31.57.05.32-.17.84-.06,1.21s.49.61.61.99c.27.9-.27,1.6.41,2.89.29.55-.29,1.5,0,2.22l.72-.18c.31.78-.42,1.31-.18,2.23.06.22.62.2.55.57-.14.32-.47.89-.35,1.25.11.3.55.25.52.39-.25,1.02-1.74.11-1.28,1.34-1.18.95-1.97-.61-3.06-.6-.19-1.13-.28-.86-1.08-1.46-.08-.38.49-.35.55-.58.15-.6-.45-1.1.15-1.23-.43-.9-.09-1.23,0-1.94s-.84-1.22-.33-2.13h-.55c.51-.68.4-2.04-.72-1.81l.36-1.45h-.55s.36-.82.36-.82l-.36-.16c0-.53.71-.85.72-.91.01-.11-.54-.59-.54-.91,0-.22.27-.37.27-.65,0-.45-.37-.45-.47-.8-.17-.6.2-1.69.14-1.82-.11-.22-.4-.18-.45-.36-.28-.85,1.23-1.58-.04-2.17.59-.14.17-.3.24-.72s.34-.71.12-1.18l-.27.36-.81-.54-.45.67c-.47-.05-1.01-.61-1.45-.59-.15,0-2.57.45-2.86.51-1.15.25-.45.69-2.32.57-.82-.05-1.49-.21-2.43.09-.32.1-.35.51-.81.39l.18.36h-.55c.84,1.06.24,1.76.22,2.76,0,.21.46,3.27.52,3.43.05.12.29.12.33.26.16.54-.2,1.28-.35,1.77.74.28.23,1.95.22,2.54-.01.87.33.5-.03,1.64-.02.08.26.04.35.23.1.2-.16.67.37.59l-.36.72.54.28-.69,1.45.69.27-.54.82.36.35c-.13.8-1.02,1.24-1.23,1.59-.03.05.08.86-.31,1.04-.27-.35-.71-.34-1-.48s.06-.11-.6-.3c-.85-.25-.62-2.62-.97-3.33-.18-.38-.54-.38-.58-.43-.08-.11.82-1.23-.01-1.33l.67-1.65-.66-.54v-.35c.63-.13.05-1.07.08-1.63.02-.44.8-1.03-.63-1.18l.55-.99c-.64-.17-.26-.58-.37-1.06-.03-.14-.35-.11-.37-.23-.05-.37.37-.95.35-1.07-.03-.18-.42-.18-.5-.36-.09-.22.2-1.11.7-.81l-.33-.2c.04-.22.18-.81.11-.98-.05-.12-.51-.03-.22-.82l-.46-.17c.75-.92.7-2.11-.72-1.62-.31-1.14-.7-1.83.31-2.71.15-.13.48-.12.56-.21.03-.03-.14-.61.2-.8-.88-.4-.92-2.01,0-2.35l-.72-.09c-.03-.37.66-.93.68-.99.13-.38-.34-2.82-.68-3.27l.36-.17c-.54-.24-.64-.45-.35-1.04.13-.27.68.02-.01-.59.75-.28-.04-.58.14-.97l-.32-.03.37-.28c-.54-.72.12-1.19.15-1.61.03-.39-.37-.99-.36-1.43l.56-.39-.72-.27c.44-.37.19-.65.25-.96.04-.2.27-.36.28-.59.06-.77-.74-1.82.19-1.89-.47-.33-.14-.96-.21-1.18-.04-.14-.5.02-.33-.44.72.07.91-.71,1.51-.54.15.5.85.39,1,.59.21.28-.29.52.76.5,0,.2-.15.41-.12.6.12.87.16,2.09,1.21,1.93.07.31-.25.11-.32.2-.02.03.1.33.06.53-.2,1.14.11.99.17,1.98.01.23-.24.37-.19.56.07.3.64,1.7.65,1.88.09,1.05-.41,3.09-.46,4.17-.04.76.68,1.64-.09,2.36l.36.27-.36.09.53.36-.53,1.18.72-.18c.03.53.12,1.05-.54,1.09.45.64,1.69.09,1.09-.73,1.27.35,2.34.2,3.62,0l-.09-.36c.26.02,1.07.41,1.27.34.15-.05-.08-.51.63-.16l-.09-.36c.36-.04.67.47.94.51s.48-.27.69-.26c.12,0,.27.25.36.24s1.16-.54,1.59-.69c.12-.04.14-.29.17-.3.57-.22,2.26,1.13,1.92-1-.17-1.04-.99-1.3-1.05-1.41-.05-.11.25-.28.28-.45.06-.3-.21-.77-.03-1.01l.65-.17c-.32-.31-.08-.81-.54-.72l.36-.18c-.31-.3-.09-.8-.54-.73v-.27c1.02-.36.16-1.43.18-2.27l-.36.18-.19-.81.73.09-.72-.45.34-.18c-.33-.5.12-.87.14-1.24.06-1.06.05-1.46.21-2.55.11-.76-.52-1.55-.51-1.64.02-.22.58-.15.54-.45l-.72-.27c.12-.62.64-.39.72-.45.03-.02-.16-.41-.14-.71.02-.27.25-.56.24-.65,0-.21-.25-.41-.24-.54,0-.05.49-.74.53-.77.38-.29,2.75.37,1.96,1.58Z"/><path d="M64.3,27.41l.11.36,1.71-.29c.36.59,1.26.42,1.09,1.19l.45-.36c.41.24.17.83.35,1.1.23.32,1.06-.18.45,1.15l.38.19-.36.18c.22.35.55,0,.81.26.57.57.19,1.09.3,1.51.16.55,1.23.9.5,2.19l.38.21c-.84,1.38,1.3,1.74.17,2.97h.55c-.39.5.4.84.09,1.28-.07.11-.39.13-.43.19-.02.04,0,.92,0,.96.06.23.46.2.52.41.14.54-.2,1.63.36,1.77-.77.76.1,1.71-.18,2.62h.55s-.19.45-.19.45l.37.11c-.33.32-.64,1.51-.5,1.9.04.11.37.11.42.44.03.2-.3,1.64-.24,2.1.02.11.43.1.44.54l-.47.54c.38.15.24.86.4.97.13.08.41,0,.5.04.05.03-.03,1.06-.53.9l.34.26c-.26.99-.45,2.22-.14,3.22.04.12.51.53.5.58,0,.12-.18.33-.16.55.06.65.42,1.25,0,1.9l.54-.18c.07.86-.8.8-.42,1.59.13.28.65.23.41.93l-.53.1.53.29-.17.53.36-.09-.15.42.33.12-.36.89c.7.42.92.94.18,1.46.84.52.36.91.4,1.45.06.83.55,2.65-.22,3.08l.37.54c-.2.33-.84.37-.99.64-.23.39.14.92-.92.89-.32,0-1.03-1.21-1.51-1.37-.29-.47-.27-1.35-.4-1.76-.05-.15-.33-.11-.35-.24-.05-.29.24-.94.36-1.25l-.33-.16c.33-.4-.1-.69-.12-.91-.04-.43.44-1.24-.27-1.18l.36-.72-.9.18v-.9s.54,0,.54,0c.11-.34-.31-.45-.34-.66-.03-.22.64-.86-.03-1.42l.36-.17c-.1-.3-.73-.7-.73-.75-.02-.24.18-.52.15-.85-.03-.45-.58-.44-.6-1-.01-.39.23-.63.23-.88s-.25-.39-.26-.51c0-.16.42-.51.3-1.09l-.55-.09.34-.26-.11-.6.31-.04v-.36s-.54,0-.54,0c.35-.86.61-1.28.18-2.17l-.54.18c.53-2.03-1.08-.89-1.91-.8-.38.04-.43-.42-.57-.46-.54-.15-.98.73-1.04,0-.52.49-1.28.04-1.57.07-.36.04-.8.33-1.26.38-.74.09-1.71-.57-1.62.98l.54.09-.72,1.45.54.36-.72.64.34.6-.34.48.54.27c-.09.39-.71.86-.79.99-.07.12-.02.93-.3,1.19l.56.54v.35c-1.05.49-.14,1.36-.56,2.5-.11.31-.22.81-.24.86-.13.24-.52.28-.6.4-.11.14-.25,2.22-.31,2.51-.17.75-.58,2.65-1.55,2.35l.18.36-.97-.17c-.33-.57-.31-1.22-.12-1.82l-.36.18c.08-.51.04-1.17.11-1.65.09-.64.76-1.88.07-2.09.2-.29,0-.88.05-1.05.04-.14,1.22-.79.14-1.01v-.18c.54.08.17-.3.35-.6.08-.14.46-.18.47-.48.02-.27-.29-.41-.28-.65,0-.26.35-.44.33-.7s-.4-.53-.34-.93l.54-.09c.04-.3-.52-.23-.54-.45,0-.03.25-.32.28-.54.06-.41-.31-.71.43-.83.04-.35-.5-.53-.51-.57-.1-.26.43-.45-.21-.59.93-.61.21-1.55.26-1.73.07-.27.55-1,.65-1.35l-.37-.18.38-.72c-.73-.18.11-1.19-.73-1.45l1.05-1.48c-.36-.85-.3-1.88-.06-2.78.18-.66.18-.77.3-1.37.07-.35.34-.66.33-1.05l-.36-.12.72-1c-.62-.14-.72-2.32.18-1.9-.29-.91.46-1.55.54-2.27.06-.54-.53-.08-.72-.35.58-.41.36-1,.48-1.36.14-.43.59-1.18.72-1.51.12-.28.71-1.65.61-1.75l-.54-.18c.27-.34,1.04-.33,1.08-.37.05-.05-.06-.7.03-.97.06-.19,1.15-1.17,1.25-1.33.23-.36-.04-.74-.01-.77.03-.03.6-.12.84-.26.48-.29.56-1.12.64-1.17.23-.14.75.18.97-.57h.26ZM65.45,33.87c-.07-.18-.36-3.16-1.14-2.49-.03.02-.03.41-.17.64-.43.68-1.04,1.01-1.31,1.79-.16.47,0,1.21-.51,1.65,1.06.49-.16.24-.36.72,1.06.16.33.38.14.87-.4,1.04.12,2.12-.69,3.11l.36.17c-.39.63-.21,1.55-.35,2.15-.43,1.77-.81,2.99-.98,4.92-.04.47-.47,1.02-.09,1.71.44.08.83-.11,1.22-.3.55-.26.55-.18.74-.26.04-.02.02-.37.36-.43s2.23.14,2.65.19c.16.02.37-.09.54-.1.09-.04-.19-.91.97-.42.31.13.08.56.58.42l-.18-.54c.72.35,1.18-.49.18-.37l.16-.83-.35-.16.73-1.18h-.55c.5-.78-.27-1.15-.37-1.54-.03-.12-.18-1.45-.14-1.51.04-.06.34-.07.42-.2.51-.76-1.6-3.56-.45-4.53-.72.05.2-.44-.55-.67.43-.94-.13-1.06-.25-1.53-.09-.38.06-.74.03-.85-.01-.04-.59-.35-.62-.44Z"/><path d="M175.46,28.36c.23.24.5.79.63,1.11s-.05.62.02.77c.04.09.86.61.87.72-.24.82-.44,2.6.09,3.31.1.13.38.16.41.22.07.12-.17,1.75.47,2.63.08.1.28.05.29.07.05.07-.53.57-.36.9h.55s-.54,1-.54,1c.3.44.67.27,1.08.09l-.37,2.07.37.1-.37.43c0,.82.93,1.19.6,1.87-.11.22-.35.22-.37.27-.16.37.2,1.55.36,1.99.14.39.62.5.5,1.1-.02.11-1.26.96.18,1.03-.2.33-.55.37-.68.87-.09.35.19.75-.05,1.12l.54-.18c.23.66-.6,1.53-.55,2.06.01.14.66.23.65.74,0,.61-1.06,1.52-.31,1.63l-.32,1.62.53.37c-.48.14-.19.2-.36.54l-.55.09c-.11.11,1.31,2.73-.18,2.53-.09.36.4.65.34.97-.05.24-1.26,1.11-.36,1.46l-.16,1.01-.36-.18v.55s.36-.18.36-.18v.89s-.55.13-.55.13c-.13.76-.28,1.49,0,2.23h-.73s.54.27.54.27c-.25.86-.84.62-.88.67-.13.18.01.73-.57.69l.36.54c-.47-.12-.72.47-.81.5-.56.21-1.81-.03-1.99.59l-2.36-1.45-.36.54-.38-.36-.41.16c-.23-.62-.95-.61-.75-1.42l-.36.18c-.02-.32-.09-.66-.22-.96-.1-.23-.65-1.49-.72-1.54-.27-.22-1.26.23-.69-1.01-1.01-.49-.46-.96-.8-1.75-.17-.4-.42-.35-.43-.38-.03-.08.16-1.47.15-1.78l-.9-.27.54-.54c-.68-.59-.15-1.23-.19-1.8-.02-.28-.27-.52-.29-.76-.1-.85.38-.81-.6-1.42l.72-.81-.73-.28c0-.61.68-.75.73-.94.26-.91-.36-1.01-.36-1.07,0-.12.18-.28.14-.41-.02-.05-.53-.17-.13-.91l.71-.02c-.29-.66.3-1.3-.72-1.45l.68-.82c.11-.63-.66-.47-.45-1.26.03-.1.24-.08.27-.18.15-.59.13-1.2.45-1.78.16-.3.85-.37.39-.85h-.61c.14-.92,1.95-1.64.54-2.17v-.17c.4-.12.77-.24.94-.63.15-.36.12-2.42-.58-2.27v-.17c.67-.09,1.13-1.6.18-1.64l.42-.91.48-.18-.54-.36.54-.46-.36-.27c1.06-.26.26-2.02.7-2.61.14-.19.44-.06.54-.12s.23-1.66.56-2.02c.27-.29.81-.3,1.01-.68.15-.29-.18-.9.02-1.09.32-.31.73-.16.96-.27s.35-.44.56-.53c.71-.33,2.82.13,3.38.69ZM172.8,33.37c-.7-.14-.35.72-.42.96-.17.54-1.07,1.45-.12,1.84-.65,1.24-.74,2.57-1.03,3.85-.1.44-.4,1.06-.42,1.42-.05.7.59.77,0,1.33l.54.09-.19.81h-.72c.54.54-.04,1.14.34,1.8l-.48.28.18,1.53.32.02c.06.28-.23.08-.41.4-.41.74.1,1.79-1.03,2.23l.52,1.63-.52.35c-.22.71.86.35.73.9-.09.4-.91.33-.9.55.84.68.21,1.1.18,1.64-.02.5.39,1.03-.01,1.61.62.19.19.39.27.83.25,1.36.71,2.62.83,3.98l.72-.54c-.12.75.29.75-.29,1.46.05.29.7.66.89.92.31.42.48.84.72,1.28.5.94.59-.2.73-.49.09-.18.62-.7.64-.75.21-.59-.22-1.88.74-2.07l-.35-.62.36-.09-.34-.2.15-.77.54-.12c.28-.49-.53-1.45-.53-1.53,0-.13.41-.2.49-.32.24-.35.05-1.08.1-1.18.02-.04.55-.2.51-.65l-.55-.38.36-.45-.53-.27.36-.9-.38-.19c1.23-.54.01-1.41.72-1.99l-.54-.45c.57.07.18-.23.25-.41.26-.67.67-1.82.45-2.55-.06-.21-.4-.22-.52-.44-.27-.47.02-1.12-.03-1.4-.02-.11-.44-.1-.44-.54s.47-.44.48-.56c.05-.48-.95-2.26-.2-2.88l-.54-.27c-.08-.31.29-.08.32-.26.11-.66-.28-.68-.29-.73-.09-.61.14-1.23-.25-1.97-.16-.3-.73-.4-.68-.92l.54-.29v-.27s-.38-.2-.38-.2l.2-.62-.73-.27c-.17-.81.55-.14.54-.72-.02-1.28-.54-.85-.72-1.01-.06-.05.02-1.17-.19-1.44Z"/><path d="M87.61,27.84c.59.28.87.1,1.37.29.25.09.24.48.5.63.29.16,1.09-.25.72.81.89-.55,1.95.95,1.27,1.63h.55c-.48.64.12.93.18,1.37.04.3-.14.63-.1,1,.05.55,1.24,1.27.1,1.7.84.6.79,2.14.54,3.05-.05.17-.41.09-.36.21.32.83.81.64.67,1.77-.09.74-.21,1.08-.14,1.83.52.04.3,1.18.19,1.62-.06.23-.51-.14-.15.89.06.16.28.15.31.23.05.19-.26.63-.25.72.08.58.33,1.18.23,1.97-.06.46-.66.23.41.95l-.49,1.13c.73.08.02,1,.03,1.39,0,.3.23.54.21.84-.05.7-.68.94.26,1.34-.17.22-.29.44-.29.73,0,1.05.55,2.8.58,3.7.01.38-.72.65.44.74l-.36.71h.54c-.36.69-.38,2.06-.3,2.85.05.53.61,1.13.56,1.52-.07.54-.36.78-.45,1.25l.36-.18c.33.65.06,1.47.19,2.05.03.15.36.06.38.39.06.88-.44.69-.54.86-.06.1.14.44.08.71-.06.33-.4.34-.43.39-.08.15.16.46-.05.75-.13.19-1,.6-1.2.62-.4.03-.58-.47-1.15-.04-.44-.66-.91-1.31-1.09-2.09l-.36.18.16-1.01-.35-.16c.84-.58.06-1.23.03-1.66-.02-.31.25-1.64.14-2.31-.07-.43-.47-.54-.51-.76-.1-.47.8-.66-.21-1.06l.51-.7c-.91-.81-.42-.88-.39-1.51.04-.76-.12-1.53.07-2.29l-.74-.3.55-.63-.5-.55.5-.63-.54-.27.36-.55c.03-.1-.28-.07-.31-.13-.34-.59.6-2.38-.24-2.58l.55-.18-.54-.18.18-.45c-1.16-.39-2.62,1.3-3.17,0-.64.86-1.68.08-2.53.03-.31-.02-.73.3-1.1-.01l-.16.34-.82-.36.1,1.1-.47.44.36.2c-.18.25,0,.69-.05.86-.08.27-.35.35-.41.48-.09.19.22.32.22.45,0,.17-.56.7-.61,1.11-.02.22.11,1.77.15,2.15.01.1.27.07.31.18.05.16-.8,2.58-.86,3.1-.06.49-.17.72.34.88-.63.38.09,1.88-.72,1.9-.07.37.58.04.54.27-.13.69-.76.67-.86,1.63-.09.82-.26,1.83-.52,2.63-.33,1.01-1.26,1.04-2,.46-.25-.57.15-1.81.12-2.35,0-.12-.34-.12-.37-.2v-.36s.55-.37.55-.37v-.27s-.36-.09-.36-.09c.92-.55.31-1.05.36-1.63.05-.54.86-.6-.15-1.08l.51-1.47-.35-.16c.36-1.27.7-2.47.17-3.45.48-.11.62-.8.55-1.24-.02-.14-.38-.09-.38-.21,0-.26.29-.39.34-.71.18-1.19-.9-2.42.21-3.45-.61-.2-.57-1,.18-.81-.45-.75.18-1.12.26-1.61.08-.46.09-1.51-.07-1.94l.35-.08-.36-.54c.6.13.12-.67.25-1.01.1-.26.62-.19.56-1.08-.03-.5-.46-.44-.45-.53.93-1.28.66-2.64.75-3.99.04-.51.48-1.5.52-1.66.09-.36-.29-1.23-.18-1.33.05-.04.77.19.73-.8-.54-.29-.53-.89.2-.93-.06-.67.84-1.54,1.06-2.03.13-.28.09-1.13.23-1.27.09-.1.45-.03.61-.21.1-.11-.04-.4.02-.55.03-.08.5-.85.53-.9.34-.41.96-.31.61-1.09,1.49.4,1.43-1.14,2.72-.91l-.18-.54c.16-.14.82.35,1.02.44ZM87.54,33.15c-.25-.4.28-2.11-.86-1.76-.42.13-.09.67-.29.96-.1.14-.62.83-.71.93-.13.15-1.03.79-1.06.85-.17.42.51,1.26-.4,1.5.74.75.03.96-.07,1.22-.31.79-.45,1.67-.83,2.63-.15.37-.01,1.39-.06,1.45-.06.08-.32.09-.4.21-.45.7.3,1.43.18,1.98-.08.39-.45.68-.6,1.24-.04.15-.25,1.25-.21,1.3.07.08.42-.12.34.19-.62-.03-.31.71-.72,1.09.76.32,1.09-.31,1.22-.35.6-.19,1.45-.22,1.95.18.26-.88.58.37,1.18-.37-.04.36.28.51.61.51l.66-.51.64.72.27-.72.72.18.36-1.45-.54-.09c.04-.51.46-.88.49-1.35s-.62-1.12-.63-1.19c-.06-.42.32-1.38.29-1.45-.03-.09-.31-.07-.34-.21-.1-.53.24-1.5.15-2.1-.07-.49-.52-.5-.52-.59-.03-.39.3-.55.34-.75.02-.12-.46-1.07-.43-1.41.02-.29.39-.57.28-.89-.83-.34-.2-.84-.58-1.61-.13-.26-.41-.27-.45-.34Z"/><path d="M20.8,23.75c.09-.05.16-.51.3-.51.45.66,1.12,1.13,1.66,1.68.26.27.33.35.56.55.13.12.67.61.7.65.16.31-.12.65-.09.71.02.04.38.1.53.28.48.58.48,1.43.17,2.09l.65.17-.42,3.55.49.09c-.31.61-.36,1.39-.59,2.04-.13.37-.59.82-.67,1.33-.04.29.19.71.1.81-.19.23-1.16.31-1.01,1.26l-1.42-.75c.39-.89.97-3.34.5-4.18-.18-.33-.6.18.02-.77v-.17c-.75-.21-.12-.79-.22-1.41-.26-1.67-1.34-2.53-2.28-3.64-.09-.1,0-.4-.07-.45-.1-.09-.52,0-.75-.07-.26-.09-.35-.4-.68-.32v.72s-.97-.35-.97-.35c-.37.13-1.16,1.52-1.25,1.58-.16.1-.46-.02-.63.08-.28.16-.9,1.45-.23,1.49-.2.49-.71.62-.92,1.07-.7,1.45-.47,4.2-.86,5.63.2,0,.44,1.49.45,1.8.02.49-.47.75-.45,1.06,0,.11.5,1.99.56,2.08.19.27,1.05.43.31,1.03l.72.09c-.27,1.05-.42,1.03.24,1.93,1.1,1.48,1.97,2.76,3.18,4.15.5.57,1.03.37.56,1.52l.72-.18c-.1.52.03,1.32.63,1.26l.09.56.54-.18.2.8-.38.11.58.68.33-.14c-.1.41-.23.94,0,1.33.11.19.39.07.49.16.41.36.88,2.06.69,2.67h.46c.14.25-.22,1.21-.14,1.53.02.09.65.67.65.72,0,.27-.22.62-.17,1.1.07.65.72,1.58.37,2.44h.73c.09.07-.64,1.03-.65,1.18,0,.09.18.22.2.35.04.45-.36.92.46,1.01v.18c-.57-.03-.33,1.05-.57,1.51-.11.2-.72.51-.69.76.03.22.6.16.54.45-.15,0-.35.07-.45.18-.54.55-1.66,1.54-1.98,2.19-.11.22-.07.65-.11.69s-.6,0-.88.11c-.47.18-.93.98-1,.98-.05,0-.24-.39-.68-.33-.27.04-.72.39-1.06.43l.02.45c-.76-.36-.98.27-1.36.38-.72.22-1.45-.22-1.97-.15-.43.05-.6.65-1.24.31-.19-.1-.26-.9-.59,0l-1.09-.9-.36.54c-.45-.91-.7-.51-1-.64-.36-.15-.4-.79-.59-.95-.09-.07-.35,0-.43-.09-.12-.12-.07-.48-.22-.61-.11-.09-.43.14-.62.08-.33-.1-.78-1-.96-1.22-1.13-1.31-1.89-2.35-2.02-4.16.82-.4.82-1.05,1.88-.59.71.31.49.71.88,1.11s1.34.62,1.78.9c.14.09.88.65,1.05.78.24.19,1.16,1.27,1.3,1.36.1.07.36-.1.52-.05.29.1,1.09.51,1.36.38.21-.1.44-.69.99-.67l.09.54c.28-.61.93-.1,1.18-.27v-.63c1.43-.1,2.94-.15,3.05-1.98l-.33-.2c.86-.27.9-.96,1.27-1.54.02-.05-.57-.01-.36-.88.04-.19.55,0,.36-.48h-.54c.02-.93.35-1.82,0-2.72l-.54.36c.06-.27-.13-.59-.1-.82.03-.32.64-.36-.08-.53l.34-.8c-.64-.09-.24-.95-1.06-.75l.36-.18-.37-.27v-.37c.02-.07.29-.08.32-.13.21-.41-.51-1.82-.68-2.31l-.72.54-.18-1.81-.72.18c.11-1.25-.59-1.26-1.09-1.94-.11-.15-.34-.64-.52-.93-.17-.28.28-.53-.56-.2.19-.54-.53-.7-.55-.85-.09-.52.04-1.07-.72-1.58-.09-.06-.32.07-.34.05-.08-.09-.42-1.89-.66-2.15-.17-.18-.4-.16-.63-.18.12-.43.14-1.09-.04-1.5-.14-.32-.86-.48-.69-1.21l-.54.18c.42-.63-.38-1.54.36-1.72-.43-.38-.53-.83-.36-1.36l-.36.18c-.24-1.02-.79-2.49,0-3.35l-.32-.11c.19-.4-.04-.76,0-1.11.02-.23.16-.93.21-1.28.05-.32.41-.89.4-1.29-.01-.62-.83-.17-.18-1.34.13-.23.44-.38.51-.55.06-.15,0-.92.18-1.24.03-.04.82-.15-.05-.49l.16-.82.36.18-.18-1.09.72-.19c-.46-.62.61-.91.86-1.31.23-.35.29-.91.87-1.4.45-.38,1.16.12.81-1.09.67.38,1.11-.39,1.32-.49.18-.09.41-.02.52-.07.33-.18.77-.91.97-.16l.09-.72.32.13.14-.31c.33-.04,1.32.29,1.44.29.13,0,.27-.24.36-.23.12,0,1.02.93,1.51.64Z"/><path d="M154.27,23.13c.16.07.35.31.85.42,1.17.26.73.24,1.56.86.12.09.46-.09.8.12.23.14.95.94.84,1.25l.54-.19c.26.29.36,1.53.41,1.6.08.1.46.14.5.31.02.1-.82,1.79-.02,1.72v.35c-.58.02-.43.74-.79,1.28-.3.44-1.05,1.01-1.52.51-.09-.1-.21-2.48-.03-2.75-.61-.75-1.52-.48-2.09-1.39l-.54.54c-.16-.64-1.15-.51-1.18.18l-.29-.37-1.52.19c.31.48-.34.96-.35,1.02-.04.19.16.54.14.7s-1.04,1.07-1.11,1.22c-.2.47-.31,1.47-.37,1.99-.04.31-.51,2.62-.46,2.77.03.09.31.06.33.2.06.38-.06,1.57,0,2.06l.54-.18-.13.32.33.13-.56.99.65.17-.11.92c.87-.17.61.8.86,1.4.17.41.88.92.9.99.17.48.65,1.6,1.09,1.47l.58.58-.35.63.53-.17.38,1.8.72-.18c-.19.26-.11,1.23.01,1.43,0,.01.21-.1.34-.04.94.44,1.08,2.07,1.55,2.95.21.4.68-.28.81-.18-.16.84.5,1.32.66,1.81.17.54-.32.71.61,1.2l-.35.7.54.1c-.25.87-.51,2.25.72,2.36l-.53,1.24c.2-.01.34.04.42.24.31.75-.04,1.86.18,2.55.12.38,1.03.91-.05,1.21l.53.44c-.2.49-.74,1.3-.7,1.83.03.35.51.61.17,1.17l.36-.18c.39.98-.53,1.83-1.04,2.67-.4.67-.69,1.45-1.27,2.05-.4.42-1.47.06-.96,1.25-.29-.04-1.36-.57-1.54-.51-.1.03-.07.3-.21.33-.33.07-.72-.07-1.03,0-.14.03-.12.37-.2.36-.39-.05-.92-.47-1.55-.18l.18.54c-.68.16-1.87.07-2.43-.34-.17-.13-.05-.45-.14-.52-.11-.1-.49-.01-.69-.13-.39-.23-1.01-1.09-1.37-.27-1.3-.87-2.93-1.23-3.36-2.9l-.54.18c-.17-.41.02-.78,0-1.16-.02-.55-.5-.9.19-1.11-.41-.78-.01-.51.24-.82.33-.4.59-.86.93-1.25.31.32.3,1.17.55,1.44.21.24.77.18.85.68,1.08-.29,1.72-.39,1.97.95.85-.41,1.17.17,1.71.72l.09-.53,1.06-.15c.12.55,1.52,1.21,1.3.15l.2.33.33-.14.2.71.18-.54.9.18c-.29-.57,1.74-1.16.55-1.45l.88-1.18-.7-.62.32-.03-.11-.31.32-.2h-.36c.73-.8-.19-.88-.19-1.36,0-.39.83-.7,0-.9.08-.42.88-.42.37-1.41-.12-.24-.63-.04-.19-1.03h-.72c-.07-.3.23-.09.32-.27.26-.55.21-1.61-.21-2.1-.55-.63-.83-.05-.33-1.53l-.66-.28c.08-.98.28-2.25-1.11-1.79l-.18-1.63-.54.18.17-.53c-.99-.18-.52-.77-.66-1.25-.33-1.12-.91-1.96-2.05-2.21l.18-.36h-.55s.1-.74.1-.74c-.93-.06-.47-.51-.65-.94-.07-.15-.53-.4-.52-.79l-.54.1c-.26-.45-.09-1.12-.22-1.51-.09-.26-.49-.23-.53-.42-.06-.28.2-.64.04-1.06-.15-.39-.44-.37-.58-.57-.05-.07-.55-1.2-.64-1.39-.05-.12-.54-2.42-.54-2.55.01-.28.25-.41.29-.55.04-.13-.28-.05-.34-.17-.14-.32,1.12-1.45-.03-1.81.65-.54-.12-.85,0-1.45l.55-.09-.54-.54c.62.06-.07-.33.54-.45l-.72-.45,1.09-.55c.18-.67-.38-.5-.54-.9,1.39-.11.64-1.34,1.27-2.09l-.36-.27.54-.27-.36-.27c.44.1.3-.39.41-.5.21-.21.86-.03.68-1.14l.55.09c.24-.09.46-1.04.52-1.09.35-.34.9-.08.75-.8,1-.08,3.38.19,3.45-1.09.3.05.54.12.83.25Z"/><path d="M240.91,28.49l-.36.45.73.09-.18.36h.73s-.13.33-.13.33l.29.11c0,.72-.53.86-.53.92.03.33.49.45.51.49.03.07-.2.94-.1,1.48.11.57.69.36.51,1.29l-.55.1.34.26-.53,1.44.32.14-.13.32h.73s-.35.83-.35.83l-.55-.11-.18,1.09h.73c.1.35-.38,1.37-.33,1.54.02.07.52.24.47.55-.04.27-.69.32-.31,1.03.16.29.59.04-.01.96l.36.16c-.63.85-.62,1.5-.5,2.55.01.09.27.07.3.17.15.59-.32,2.1-.3,2.32.03.34.5.67.44,1.21-.09.81-.92.93.07,1.36l-.37.9.37.18-.55,1.44.55.38c-1.21.73,0,1.66,0,2.35,0,.33-.33.58-.35.91-.02.29.23.65.17.88s-.47.21-.52.41c-.08.3.22,1.96.32,2.36.24.96,1.2,1.8.21,2.59.52-.08.42.63.72.83.28.18.69-.08,1-.02.17.04.35.34.45.28.02,0-.05-.24.14-.35.7-.38,1.56-.59,2.22-1.1l-.36-.72c.44-.07.74-.44,1.14-.58.49-.18,1.55.02,1.58-.68.63-.07.33.86,1,.38l.17.32.46-.17c-.22.52.52.92.48,1.18-.03.21-.42.53-.54.82-.14.36-.15.91-.41,1.25-.41.53-1.45.97-.98,2-.12-.03-.22-.1-.35-.05-.78.26-.2.22-.82-.13-.69,1.09-1.84.16-1.74,1.8-.5-.2-1.29.32-1.52.31-.66-.03-2.67-.77-3.19-.44-1,.63-.48-.71-.53-.76-.17-.17-.9-.09-1.09.18l-.45-1.46h-.81s.17-1.43.17-1.43l-.64-.18.12-.61c-.9-.36-.47-1.78-.27-2.57l-.47-.63.33-.03-.11-.31.5-.3-.72-.27.36-.82-.36-.17c.18-.44.69-.44.54-1-.32-.14-.69.47-.73-.09-.06-.81.44-1.45.46-2.18.02-.54-.67-1.8.07-1.97-.35-.43-.03-.79,0-1.11,0-.1-.27-.06-.3-.17-.22-.72.52-.83.51-.92,0-.23-.28-.46-.3-.71-.04-.6.84-1.55-.26-1.36l.36-.54-.54.09v-.27c.14,0,.27-.01.35-.15.75-1.36.53-4.95.13-6.34-.01-.04-.25-.03-.27-.12-.1-.33.75-1.31-.03-1.45l.36-.45h-.72c-.11-.08.78-1.05.83-1.26.04-.18-.18-.32-.18-.46-.01-1.43-.13-3.03-.03-4.34.04-.45-.03-1.82,0-1.92.18-.71.34-.06.19-1.16-.05-.33.38-.56-.26-.73.35-.15,1.21-1.01,1.45-1.08.3-.08,1.19.64,1.63.27Z"/><path d="M257.88,30c.06.03.09.22.19.3.18.13.58.16.6.18.07.09-.21.55-.19.79,0,.05.68.42.67.75,0,.12-.26.29-.28.53-.03.56.4,2.03,1.08,2.01.26.4-.2,2.06-.17,2.16s.36.02.35.35c0,.49-.38.74-.38,1.18.25-.02.83,0,.9.27.16.58-.43.53-.52.66-.04.05.05,1.08.07,1.25.03.23.06.47.12.7l.51.02-.31,1.73c.7.29.42.66.53.89.05.11.27.08.29.18.04.18-.22.68-.23.91-.07,1.11-.01,2.25-.28,3.34l.72.27c.03.36-1.14.65-.23.85-.21.4.18.31.2.42.07.28-.45,1.4-.15,1.9l.72-.18c-.27.25-.17.65-.23.81-.44,1.2-.11.85-.21,1.81-.02.2-.33.4-.39.62-.2.75.38,1.49.42,2.32.02.44-.2.86-.13,1.31l.9-.18c-.29.41-.2,1.14-.37,1.5-.08.18-.68.14-.26.5h.63c.12.07-1.17,2.3-.18,2.44l-.36,1.18c1.28-.23.28,1.25.27,1.91-.01.4.18,1.87.82,1.53l-.21,1.07-.47.05c0,.77-.64.66-.12,1.23l-.2.37-.9-.36c-.21.71-1.15-.02-1.72.36-.39-1.23-2.03-1.92-1.17-3.46-.75-.7-.2-.39-.16-.8,0-.1-.23-.29-.23-.53,0-1.29.2-2.62.29-3.9l-.72.18c-.18-.73.27-.97.54-1.53l-.67-1.28.64-.53c-.48-.57.18-1.29-.51-1.45.9-.92.33-1.13-.19-2l.37-.37c-.37-.79.43-2.27-.73-2.43.4-.7.76-2.33.02-2.79l.53-1.37h-.55c.12-.67.43-1.26-.37-1.55l.05-.42.46-.28-.13-1.19-.54.18c-.03-.65-.16-1.1.54-1.35-.49-.82-.35-2.11-.17-2.99-1.01-.01-.99-.86-.84-1.69.09-.49.72-.46-.23-.93.74-.95.14-1.73.06-2.72-.03-.41.11-1.88.09-1.97-.08-.27-.56-.15-.55-.56,0-.47,1.14-1.74.93-2.63.56.25,1.18.17,1.75.43Z"/></g></svg>