<?xml version="1.0" encoding="UTF-8"?><svg id="Layer_2" xmlns="http://www.w3.org/2000/svg" viewBox="0 0 289.48 107.99"><defs><style>.cls-1{fill:#fff;}</style></defs><g id="smoothie"><path d="M20,4.17c.05.04.05.17.05.25h.23s.16-.31.16-.31c.25.09.49.17.76.18,1.18.02,2.33.34,3.56.59,1.28.26,2.46.28,3.6,1.02.23.15.46.54.63.61.29.12.97-.34.63.52,1.01,0,.88,1.42,1.68,1.25-.33.85.54,1.17.77,1.65s.13,1.11.61,1.51l-.29.15c.07.49.03,2.49-.08,2.78-.1.27-.9.95-.09,1v.15c-.93,0-.54.67-.76,1.01-.3.47-.99.38-1.08,1.14l.3.08c-.54.28-.88.9-1.24,1.22-.29.25-.86.45-1.18.75-.14.14-.09.41-.31.58-.15.12-2.44.69-1.9,1.22.28.28.47-.34.68-.31.06,0,1.07.32,1.12.35.35.26.11.83.89.26.25.85.79.69,1.39,1.08s1.31,1.37,1.91,1.24l.33,1.07.61-.15.02.75c.58,0,1.07.81,1.24,1.3.14.4-.05.78,0,.94.06.2.39.18.44.35.08.33-.04.78.13,1.22.08.22.32.22.34.31.09.46-.31.7-.31.75,0,.13.52.24.59.49.12.4-.11,2.16-.09,2.73.02.43.65.97-.51.86.17.36-.23.83-.26,1.17-.02.19.16.61.1.68-.02.02-.28-.05-.41.04-.12.08-.23.44-.36.62-.28.37-.16.37-.18.39-.16.22-.87.18-.45.94-.29.3-1,.25-1.18.36-.09.06-.09.35-.29.41-.16.05-.43-.14-.53-.07-.13.09-.15.47-.29.63-.34.4-.9.26-1.28.39-.13.04-.1.26-.22.29-.21.04-.67-.37-.36.47-.03.05-.66-.27-.78-.24-.37.09-1.18.72-1.26.75-.26.09-.56-.11-.78-.04-.24.08-.25.43-.49.55-.12.06-2.12.06-2.61.23-.21.07-.44,1.03-.87-.02-.11-.07-.32.65-.82.45-.12-.05-.1-.27-.21-.29-.42-.1-1.24.18-1.51.08-.23-.08-.34-.3-.54-.45-.06-.05-.26.06-.29.03-.03-.04,0-.23-.08-.37-.04-.08-.23-.04-.26-.29-.07-.59.23-1.18.01-1.78.5-.02,1.05.01.93-.62l1,.71c.22-.07.4-.2.63-.24.65-.13,1.31-.28,2-.32.62-.04.97.42,1.38-.46l.46.46c.69-.66,1.69-.41,2.54-.78v-.53c.32-.25.82-.19,1.15-.4.17-.11.2-.41.35-.45.31-.08.85.11,1.09-.03.05-.03.21-.42.41-.59s.66-.28.69-.32c.05-.06-.15-.4,0-.64.11-.18.61-.35.79-.64.06-.09.49-.84.5-.89.13-.34-.2-.5-.14-.74s.47-.48.41-.82c-.03-.15-.58-.12-.34-.54h-.45c.44-.82.36-1.97-.61-2.24l.46-.46c-.05-.24-.39-.39-.46-.5-.32-.56-.51-1.26-.78-1.78s-1.87-1.12-2.11-1.39c-.1-.1-.04-.38-.19-.49-.39-.31-1.19.19-1.08-.7-.45.36-.68-.11-.99-.14-.36-.03-1.12.27-1.58.25-.25-.01-.96-.35-1.36-.27l.08.31c-.45.15-.88-.23-1.23-.25-.53-.03-1.4.22-1.93.18-.23-.02-.44-.58-.61.07-.26-.13-.46-.38-.7-.52-.11-.06-.29.06-.3.05-.27-.42-.01-2.54.92-2.15l-.16-.46c.87-.22,1.65-.11,2.42-.67.13-.09.17-.4.36-.5s.42.04.62-.02c.55-.15.45-.65.6-.75.33-.22,1.03.19,1.11-.52l.44.14-.15-.77c.43,0,1.02-.17,1.37-.4.59-.38.73-1.35,1.4-.99l-.16-.46c.79.07.77-.63,1.08-1.01.55-.67.48-.86.65-1.11.05-.07.29-.09.41-.3.25-.42-.13-1.37.18-1.9h-.62c.56-.46.43-1.46,0-1.94-.34-.38-1.32-.28-.63-.99-.89.09-1.06-.38-1.64-.75-.73-.46-1.31-.89-2.21-1.03-1.02-.15-.74-.17-1.55-.43-.57-.18-1.52-.14-2.12-.38l-.44.44c-1.01-.58-2.1.2-2.84-.62l-.15.39h-.63c.12.29.04.6.07.89.21,2,.35,3.7.08,5.72-.13.99.69,2.2,0,3.09l.32.15c-.24.35-.38,1.5-.17,1.82.08.13.33.07.32.19-.02.24-.39.61-.31,1.09.05.3.26.19.3.31.08.25-.29.83-.3,1.07-.01.29.22.44.23.61.06.98-.47,2.51.24,3.23-.95,1.01-.03,2.94-.18,4.01-.05.39-.39.71-.28,1.16,1.09-.13,0,.51-.01.57-.09.41.33.78.29,1.02-.03.18-.32.37-.37.55-.07.27.71,1.63-.07,2.09.62.15,0,.78.62.92-.64.47-.53,1.48-.3,2.15l-.3.15.07,1.47c-.31.31-.63.36-1.01.16l-.08.62c-.19-.58-1-.6-1.24-1.09-.09-.18-.04-1.49.23-1.61l-.32-.16.33-1.21-.32-.18c.39-.66-.27-1.21.32-1.76h-.45c-.13-.75.03-1.26.45-1.85h-.47c.55-.76.29-1.14.3-1.93.01-1.34.14-2.61.17-4l-.32-.16c.48-.38.05-.61.07-.86.03-.32.4-1.77.37-1.91-.04-.16-.59-.14-.52-1,.05-.6.55-2.07-.09-2.42-.08-.4.27-.72.26-.9-.02-.32-.56-.38.07-.92,0-.49-.41-.58-.45-.8-.05-.23.23-.54.25-.79.03-.31-.14-.68-.14-1.04,0-.56.42-1.09-.15-1.25.32-.72.44-1.31.42-2.12,0-.35-.24-.83-.19-1.18s.63-.8-.06-1c.89-.71.27-2.31.39-3.34.03-.23.66-1.45.8-1.52.2-.11.53.01.71-.04,1.02-.32,1.54-.24,2.46-.47.39-.1.5-.58.98-.2Z"/><path d="M80.01,5.64s.3-.86.47,0l.24-.32c.57-.1.89.47.94.48.24.04.52-.15.78-.06.24.09.25.46.43.49.44.09.09-.16.66.16s1.57,1.21,1.88,1.33c.23.09.39-.07.61-.08-.1,1,.89,1.11,1.09,2l.45-.15c-.16.64.63.8.58,1.28-.08.75-.11,1.38-.2,2.12.59.41.05.7.55.82-.32,1.22-1.39,1.75-1.99,2.8l.45.44c-.85.51-1.44,1.12-2.11,1.83-.07.07-.02.29-.09.36-.18.19-.98.02-.73.58.2.46.89.06,1.19.18.22.08.23.36.35.44.18.11.46-.06.66.06.3.18.51.67,1.19.87.21.06.44-.1.46-.09.07.05.09.76.31,1,.36.38,1.03.35,1.06.4.13.18.16,1.26.01,1.53h.61c-.11.67.33.78.42.96.37.69.35,1.32.58,1.9.06.16.5.37.52.94,0,.2-.2.31-.2.52.02.71.48,1.97.35,2.67-.04.24-.49.4-.56.67-.08.3.19.59.03.93-.14.29-.45.31-.49.37-.05.06.44,1.12-.31,1.44l.29.38-.92.31c-.04.51.47.6.08,1.07-.25.29-.53.25-.64.36-.25.25-.58.76-.83,1.07-.41.51-.07.43-.16.56-.04.07-1.04.86-1.23,1.01-.48.38-1.3.29-.92,1.16-.84-.09-1.13-.25-1.83.33l.13.28c-.59.28-1.16-.09-1.78,0-.14.02-1.19.41-1.55.46-.28.04-1.89.28-1.99.26-.11-.01-.9-.7-1.23-.71-.12-.9-.43-.98.24-1.77.57-.67,1.44-.88,2.15-.39.05-1.35,1.4-.29,1.93-.36.19-.03.31-.36.48-.39s.31.24.53.23c.29-.02.35-.42.55-.54.37-.23,1.38.08,1.14-.93.75.47.87-.53,1.54-.62.06-.24-.3-.42-.24-.61.24-.66,1.23-1.31,1.54-2.17.39-1.09.15-1.25.99-2.32.04-.06-.26-.97-.13-1.42.04-.15.3-.09.31-.1.04-.05-.28-.32-.31-.54-.05-.34.15-.64.11-.89-.03-.22-.44-.61-.26-1.03l-.31.16c-.16-.44-.16-.56.15-.92-.72-.04-.53-.73-.79-1.15-.1-.17-.34-.2-.45-.36-.4-.58-.75-1.33-1.31-1.73l-.15.32-.28-.03c-.52-.95-2.24.31-2.1-.9-.35.23-1.08.11-1.29.16-.13.04-.03.31-.31.3-.72-.02-.72-.54-1.2-.67-.29-.08-1.41.03-1.53-.03-.25-.11-.18-.54-.45-.54.07.37-.26.7-.62.77.28.5.6,1.15.46,1.74-.02.1-.24.07-.32.34-.05.15-.38,2.9-.37,3.08.02.45.37.86.36,1.06-.01.22-.34.64-.36,1.01-.01.25.19.41.18.55-.06.74-.05,1.49-.12,2.3s-.42,1.88.02,2.48l-.31.15.46.09c.1.59-.38.7-.44.84-.01.04,0,.74,0,.77.03.1.32.01.29.29-.03.23-.22.43-.28.66-.11.42-.05,1-.61,1.27-.73.36-1.17-.21-1.38.31h-.52s.16-.53.16-.53c0-.14-.39-.11-.46-.34-.17-.55.19-2.22.11-2.45-.25-.71.02-.57,0-1.27-.01-.51-.15-.31-.05-1.03.03-.25-.32-.59.22-.55l-.3-.38c.89-.37.26-.81.19-1.42-.06-.49.19-1.47.12-1.79-.03-.11-.3-.09-.3-.17.02-.7.59-.87.59-.93,0-.02-.19-.15-.22-.31-.08-.53.19-1.43-.39-1.69l.73-.93-.42-.46c.73-.45.27-.76.31-1.23.02-.2.24-.34.25-.47,0-.13-.42-.41.06-.77l-.46-.08.47-.69-.48-.47c.36-.68.19-1.28.22-2.04s-.12-1.05-.12-1.59c0-.88.59-2.13.55-3-.01-.28-.25-.21-.29-.3-.16-.41.75-1.35-.03-1.85.91-.33.23-1.01.22-1.54s.54-1.37.55-1.87c0-.34-.24-1.46-.24-1.82,0-.1.64-1.72.71-1.82.09-.15.27-.09.4-.17.07-.04.08-.24.16-.25.37-.05.57.34.82.4.18.05,1.74-.36,1.94-.33.16.02.27.29.37.24ZM78.91,7.78l-.9-.28c.17.46-.11,1.01,0,1.44.03.12.32.08.31.18,0,.22-.26.36-.31.63-.06.32.13,1.02.11,1.4-.01.33-.38.6-.08.95l.42.03c-.46.76-.71,1.78-.61,2.69.02.21.24.35.26.59.04.59-.49.71-.38,1.25l.58.25-.46.61.31.1c.08.48-.1.78-.47,1.06.47.13.31.42.31.85.62.03.81-.68,1.54-.46l-.15-.46,1.22.29c.17-.34.57-1.1.83-1.32.33-.28,2.19-1.36,2.34-1.58.06-.08-.09-.32,0-.46.15-.24.7-.34.87-.58.2-.3.82-2.4.84-2.8,0-.05-.19-.97-.22-1.02-.22-.33-.61-.29-.75-.42-.1-.09-.6-1.07-.65-1.11-.12-.11-1.12-.97-1.19-1-.9-.43-2.6-.41-3.54-1.06l-.23.27Z"/><path d="M118.75,6.53c.22.23.66.32,1.02.94.46.79.32.37.45.52.22.25.37,1.55.5,2.01.04.13.24.12.27.2.03.1-.17.56-.13.74.05.23.56.11.47.65-.02.13-.44-.18-.14.72.02.07.42.28.24.56-.05.07-.33-.07-.26.18l.3.07c-.14.12-.09.43-.19.52-.21.2-.7-.22-.29,1.02-.05.23-.55.32-.68.55-.18.34.05.49.06.7,0,.07-.2.04-.27.19-.06.13,0,.35-.09.51-.07.14-.33.03-.46.14-.52.43.16.67.08.78-.04.06-.95.25-1.2.65l.12.27c-1.13-.11-.77.56-1.3,1.09-.36.36-1.38.54-1.01,1.22,1.02-.54,1.39,1.28,2.43,1.03.2.46.56.19.8.43.21.2.44.85.47,1.16l.61-.16c-.2.59.26.59.36.81.33.77.86,1.98,1.09,2.82.1.37.02.89.21,1.41.1.27.94,1.44.96,1.53.08.42-.28.71-.24.99.05.32.42.34.47.44.04.07.15,1.13.29,1.52.01.03.25.03.26.12,0,.22-.32.53-.33.92-.02.52.45,1.54.48,2.01.03.38-.41.78-.1,1.27.07.12.41.07.39.39,0,.15-.19.37-.22.57-.03.21.12.51.02.63-.1.13-.4.13-.54.25-.36.3-.51.62-1.16.68l-.15-.3-.56.07c-.06-.04-.49-1.17-.53-1.33-.12-.55.16-1.44-.39-1.61.22-.17.62-1.29,0-.85-.09-.19.18-1.44.13-1.61-.02-.07-.2-.11-.37-.7-.48-1.71-.59-3.39-1.11-5.05-.05-.18-.3-.17-.33-.26-.04-.12.13-.56.04-.7-.15-.23-.6-.22-.66-.33-.07-.12.02-.36-.04-.46-.29-.55-.22-.76-.41-1.17-.11-.22-.34-.25-.45-.4-.08-.09-.03-.29-.15-.41-.56-.53-1.56-.47-1.87-.64-.21-.11-.06-.68-.79-.82s-1.21.17-1.85-.36c-.24.38-.5.74-.56,1.21-.02.17.17.3.16.39-.22,2.31-.43,4.91-.33,7.16,0,.2.2.4.2.54,0,.21-.25.41-.25.46.01.15.64.11.46.74-.03.11-.28.09-.3.21-.09.38.1.74.08,1.06-.03.52-.48.39.21,1.09l-.44.37c-.04.05.44.96.46,1.16.05.63-.86,1.5-1.5,1.58-.73.09-.73-.4-1.35-.59l-.08-1.53-.61-.24c.71-.71.19-.94.16-1.38-.07-1.05.39-2.34.44-3.25.04-.72-.34-2.07-.4-2.9-.06-.75-.07-1.81.41-2.4h-.62c.18-.42.05-.73.62-.62v-.15c-.54.08-.18-.66-.45-1.02l.27-.14c-.47-.73.59-1.89-.14-2.16.53-1.08.65-2.58-.17-3.24.47-.88.35-1.57.39-2.53.01-.3.1-1.66.07-1.76-.04-.12-.3-.05-.31-.32-.03-.52.45-1.77.47-2.32.02-.51-.25-1.43-.23-1.84,0-.12.36-1.14.35-1.23-.02-.19-.41-.28-.39-.59.03-.48.6-1.26.29-1.86l.98-.97c1.4.1,2.45-1.01,4.05-.77,1.17.18,2.02,1.04,2.82,1.27.31.09.72-.08.78-.03.13.11.09.41.19.51ZM115.89,7.84c-.39-.28-.87.06-.96.05-.34-.03-1.33-.55-1.71-.54-.32.01-.7.56-1.15.45l.32,1.07.29-.15c.09.32-.2.73-.16.98,0,.05.44.31.31.92-.02.12-.32.05-.32.32-.02.53.36.82-.14,1.39.96.38.15,1.02.14,1.71,0,.3.36.15.34.45s-.52,1.25-.48,1.31c.01.02.36-.04.39.3l-.24.62h.46s-.16,1.93-.16,1.93l.25.37.53-.06v-.69c.25-.06,1.22-.4,1.35-.5.21-.18.77-1.06.96-1.27.57-.63,1.03-1.06,1.52-1.71.05-.07.2-.31.16-.35l-.29-.09c.83-.59.59-1.26.93-2-.75-.23-.02-.74-.04-1.05-.01-.28-.55-1.01-.56-1.29-.01-.21.27-.33.21-.51-.05-.14-.81-1.18-.93-1.24l-.46.46-.57-.89Z"/><path d="M116.39,49.09c-.02.22-.13.42-.12.65.04.8.31,2.09.27,2.81-.01.27-.46,1.01-.44,1.39.02.41.45,1.12.43,1.99-.02.79-.01,1.66-.08,2.39-.06.68.38.79.38.84,0,.44-.29.96.03,1.53l-.32.18c.38.68-.41,1.2.62,1.38-.76.51-.61,1.71-.46,2.54.22-.35,1.57-.21,1.67-.34.18-.24.23-1.12.87-.43l.1-.26c.35.19.64-.15.84-.15.7,0,1.73.21,2.42.21.52,0,.53-.49,1.03-.42l-.45-.56c.5-.55.02-2.01.75-2.22v-.15c-.57-.03-.29-.39-.46-.77h.45c.2-.55-.22-.55-.31-.85-.17-.54.2-.8.01-1.31l-.31.08.62-1.39-.31-.15c.08-.33.59-.54.62-.65.05-.21.11-1.33.12-1.66.01-.28-.2-.6-.13-.9.04-.18.38,0,.32-.25l-.61-.08c.35-.42.66-1.15.63-1.7-.04-.65-.67-.51.11-.91l-.12-.55,2,.31c.08.3-.28.36-.24.62.04.32.47.8.54,1.16.07.33-.06.71.04,1.04.06.21.4.38.4.49,0,.06-.26.31-.29.62-.07.71.22,1.92.17,2.7l.46-.07c.18.46-.47.73-.47.78,0,.21.26.45.27.83.02.44-.44.66-.42,1.09l.31-.08.16.31c-.53.58-.29,1.15-.62,1.84l.61.32c-.51.11-.66,1.14-.59,1.54.02.08.61.17.27.88s-.1.24-.16.95c-.03.34-.26.8-.22,1.1.04.37.6.36-.21.76.01.77.97.58.75,1.09-.08.19-.71.19-.46.85.04.06.87-.68.3.99-.09.27-.39.59-.4.77-.01.39.5.68-.05,1.16.36-.05.3.31.45.55l-.31.17c.37.58-.3.87-.31.93-.05.36.28.83,0,1.28.16.22.95-.16.77.23-.07.14-.22.05-.25.11-.04.08.04.21-.05.35-.17.27-.6.37-.47.85h.46c.08.06-.44,1.15-.45,1.3-.01.21.33.76-.11.84-.13.03-.4-.2-.5-.13-.38.28-.29.25-.79.53-.28.16-.26.66-.54.53l-.7-1.54-.92.15c0-1.01.77-2.14.15-3l.31-.15c-.44-.11-.28-.44-.45-.78l.29-.37-.46-.08c.72-.42.14-1.9.18-2,.04-.11.3-.16.43-.33.1-.14-.04-1.1-.07-1.14-.08-.11-.36-.1-.36-.21-.02-.64.56-1.9.75-2.55-.15-.15-1.29.36-1.54.4-.22.04-1.98.21-2.08.19-.09-.02-.1-.36-.49-.4s-.66.23-.89.21c-.21-.02-.72-.44-1.16-.24v.62c-.2-.13-.47-.56-.78-.39-.05.03-.52.74-.54.83-.06.26.18.49.18.73,0,.5-.32,1.41.21,1.51l-.47.47v.3s.45.3.45.3c-.05.53-.51.47-.45.85.58-.03.52.17.62.62l-.6.02-.18.67.31-.08v.52s-.31.17-.31.17l.31.18-.12,1.84.43.3c-.49.09-.14.93-.23,1.38-.04.2-.3.28-.23.54l.61.15c-.15-.04-.6.54-.61.58-.09.41.27,1.09.24,1.34-.09.78-.23,1.44-.49,2.19-.08.21.12.7-.36.82,0-.13.03-.18-.09-.26-.38-.26-.61-.05-1.03-.08-1.84-.12-.91-1.55-1.04-1.66h-.46c.14-.29.44-.5.47-.85.04-.44-.4-.09-.47-.31-.17-.54.53-.64.42-1.21-.02-.11-.4-.89-.54-.95l.32-1.58-.51-.34.26-.03c-.21-.64.57-.5.28-.9l-.38-.07.46-.62c-.72-.13.2-1.1.15-1.15l-.59-.18c-.19-.55.44-.78.44-.84.03-.31-.22-.86-.62-.68.06-.92.47-1.63.6-2.55l-.29-.07.31-.23-.46-.08.31-.31-.31-.08c.46-.2.15-.72.23-.86s.53-.04.39-.53c-.02-.06-.31-.08-.32-.16-.04-.31.26-.55.26-.76,0-.15-.22-.31-.19-.55.03-.27.37-.27.4-.4.01-.06-.02-1.14-.03-1.2-.02-.1-.23-.06-.26-.15-.09-.28.56-1.57.53-2.01-.01-.19-.46-.99-.7-1.07l.3-.85h-.46c.4-.36.12-.89.26-1.19.17-.36.58-.26.51-.96h-.46s0-.23,0-.23c.25-.49.58-1.33.58-1.88,0-.27-.23-.44-.2-.68.02-.13.55-.56.54-.99,0-.21-.24-.34-.25-.47,0-.06.01-.58,0-.76,0-.24.31-.57.26-1.09-.03-.3-.34-.22-.33-.3.03-.29.42-.38.43-.41.06-.18-.37-.36.19-.53-.49-1.1.89-1.83,1.85-1.45Z"/><path d="M129.03,6.57c-.06-.43.3-.24.57-.36.05-.02.05-.24.15-.26.5-.09,2,.43,2.13-.16l.92.47.15-.32h.3c.17.43.67.44,1.03.64.38.21.54.18.59.21.16.09.24.52.45.61.13.06.36-.1.61,0,.42.17,1.36,1.08,1.09,1.62l.46-.15v.76s.71.15.71.15l-.09.62.62-.15c-.29.66.44.91.47,1.03.14.59.06.52.29,1.1.25.63.57,1.89.48,2.56-.02.11-.25.07-.27.17-.06.27.23.83-.19,1.16,1.28.06-.13.66-.17.71-.17.24.02.67-.08.94-.08.21-.68.52-.82.9l.29.43c-.03.11-.75,1.1-.84,1.18-.21.19-.4-.05-.5.01-.18.11-.36.95-.48,1.12-.05.07-1.14,1.02-1.32,1.17-.49.42-1.79.96-1.79,1.62l1.25,1.31c.75-.66.53.15.68.42.05.1,1.01,1.35,1.09,1.44.19.21.48-.05.62.13.16.21.2.67.23.94l.46-.16.34,1.37.44.02-.12.89.73.35c-.59,1.24.49.92.56,1.05.12.22.01.5.08.67.08.22.72.76.83,1.04.22.58.02,1.38.09,2,.96-.36.72.75.85,1.07.09.23.65.63.64,1.01,0,.21-.28.4-.36.65-.04.1.11.32.09.34-.03.04-.37.07-.52.18-.17.14-.21.42-.35.45-.05.01-.95-.02-1-.03-.67-.15-.77-.77-.98-1.32-.59-1.52-1.87-3.23-2.5-4.92-.07-.2-.03-.45-.03-.66l-.38.11-.21-.2c.19-1.28-.26-1.52-.82-2.41-.15-.23-.15-.67-.31-.84-.12-.13-.5-.18-.74-.42-.27-.26-.71-1-.92-1.09-.28-.12-.55.1-.59.07-.06-.04-.61-1.03-.79-1.14-.25-.14-.6-.01-.75-.1-.11-.07-.1-.49-.19-.58-.07-.07-1.44.39-1.53-.78-.21.05-.34.72-.37.9-.09.59.09,1.21-.05,1.8l.58.32c-.06.88-.4,1.34-.33,2.31.17,2.23.37,4.4.18,6.62l.3.14c-.16.52-.45.39-.7.54-.21.13-1.01.73-1.07.73s-1.13-.47-1.16-.53c-.39-.7-.03-1.07-.06-1.35-.01-.13-.25-.26-.22-.43.02-.15.27-.26.28-.62,0-.31-.12-.87-.46-.95l.46-.85-.63-.25c-.07-.4,1.01-1.55.16-1.83.75-.95.08-2.1-.01-3.08-.05-.58.38-1.71-.15-1.85.71-1.05-.55-1.98.32-3h-.46c.58-.58.02-1.29.06-1.62.03-.23.55-.37-.01-.41l.11-.28h-.47s.31-1.02.31-1.02c-.34-.28-.28-1.08-.16-1.52.11-.41.56-.38.48-1.39-.07-.81-.06-1.57-.15-2.45-.18-1.81.13-3.81.45-5.85l-.32-.18c.38-.61.06-1.15.07-1.52,0-.4.84-1.48.4-2.23.84-.25,1.19.02,1.7.69.14.18-.02.5.3.54ZM135.25,11.14c-.28-.19-.74-.43-.9-.56-.31-.25-.39-.97-.71-1.3-.27-.28-1.83-.95-2.23-.93-.84.03-.54-.09-1.14-.16-.29-.03-.66.37-1.09.09-.3.52.16,1.04.14,1.47-.01.28-.59.72.17.84l-.31.3c.48-.2.36,1.66-.15,1.54v.15c.35-.15.43.66.4.86s-.33.28-.37.47c-.05.22.33.77.29,1.21-.03.34-.29.53-.31.76-.03.46.21,1.48.23,2.04.01.29-.14.59-.1.9l.47.08-.62,1.46c1.06.16.2.71.19.77-.02.07-.05,1.29-.04,1.36.02.1,1.06.65-.15.73.71,1.32.5.31.81.04.4-.34,1.51-.39,1.04-1.27l.92.15v-.77c.47.06,1.46-.41,1.85-.7s.43-.88.89-1.03l-.11-.27c.42-.12.78-.47,1.15-.77.72-.57.29-1.27.48-1.7.12-.27.52-.51.62-.87.14-.51-.08-1.32-.09-1.8s.24-1.15-.01-1.79l-.46.15c.11-1.05-.25-1.02-.87-1.44Z"/><path d="M51.76,51.29c.24.36.5,1.47.05,1.8.49-.05.23.36.31.67.04.15.34.06.32.33-.03.52-.48.93-.2,1.71.09.26.97.86-.12.83.31.64-.25,1.85.62,2l-.3.54-.47.08c.36.51.57.66.15,1.23l.61.16-.31.25c.08.39.3,1.29-.31,1.29.99.57.1.98.02,1.49-.05.35.64.44-.02.58.46.69.71,1.99,0,2.47.19.01.58.82.59.95.03.29-.52.61-.44.98l.62.08-.29.15c.53.58-.53,1.84-.48,1.93.03.05,1.01.45.17.84.01.67.44.9.45.96.03.24-.2.66-.17,1.05.03.47.46,1.04.41,1.55-.03.28-.32.43-.35.63-.05.26.23.73.26,1.07.02.26-.17.52-.15.73,0,.07.21.09.3.23.14.21-.25.47.48.18-.32.57.15,1.1.17,1.62.01.5-.54,1.44-.62,2.01l.3.07c-.43.26-.12.83-.16.9-.03.04-.81.46-.86.46-.2.01-.34-.24-.47-.26-.2-.03-.33.23-.46.26s-.7-.44-1.13-.13c.28-.6,0-1.16-.31-1.69l.31-.15c-.21.13-.65-.97-.69-1.16-.13-.54.26-1.1.23-1.15,0-.01-.18.03-.25-.05-.44-.52.02-.36.07-.49.11-.28-.63-1.03.02-1.46h-.46c.16-.36.4-1.15-.15-1.08l.58-.99c-.73-.3-.18-1.14-.89-1.39.42-.09.18-.29.25-.39.11-.14.38-.1.38-.23,0-.21-.25-.34-.28-.5-.01-.05-.12-.97-.12-1.04-.01-.21.38-.67.35-.93-.02-.18-.41-.3-.41-.61,0-.28.37-.84.3-1.39-.09-.71-.65-.88.16-1.23l-.61-.23c.38-.37.11-.7.15-.97.02-.11.25-.08.3-.22.08-.2-.05-.54.16-.74l-.47-.16c-.23-.78.37-1.22.42-1.53s-1.06-.71.05-1.23l-.32-.17c.02-.39.4-1.13.32-1.5-.01-.05-.51-.3-.15-.87l-.47-.08.62-.77-.08-.23c-.51-.02-.48-1.43.07-1.4.04-.06-.54-.9-.22-1.38.07-.1.3-.11.35-.18.02-.02-.01-.59-.04-.59-.37-.06-.71.23-.92.24-.12,0-.23-.25-.39-.17-.26.13-.23.54-.36.66-.04.04-.9.46-.95.5-.26.26-.27.67-.68.88-.31.16-.59.03-.62.05-.06.05-.1.43-.25.6-.17.19-.4.19-.58.32-.1.07-.12.24-.15.25-.33.14-1.1-.05-1.43-.03-.13,0-.28.21-.47.24-.29.05-.18-.27-.32-.3-.2-.05-1.05.03-1.28-.09-.2-.1-.39-.48-.55-.49-.1,0-.26.36-.6.1-.3-.16-.2-.53-.34-.75-.24-.4-1.07-.36-.69-1.24l-.45.14-.48-.45c-.01.65-.13,1.44-.08,2.08.08,1.17-.22,1.47-.31,2.62-.03.39.36.82-.23,1.39l.31.3c-.85.62-.27,2.14-.31,3.07-.02.36-.38,2.16-.3,2.24l.46.08c-.76.61-.4,1.67-.78,2.46v.23s.47.08.47.08c-.96.27-.04,1.45-.16,1.83-.04.14-.29.08-.31.1-.06.09.25.23.26.38.02.31-.81,1.44-.1,1.54-.62.53.23,1.03-.31,1.39.8.26-.11.44-.21.73-.13.38-.2,1.54-.33,2.05-.04.17-.31.28-.33.45-.04.25.18.66.09,1.06-.02.11-.26.11-.3.23-.14.49,0,1.07-.47,1.5l.31.15c-.56.37-.22,1.05-.93,1.39-.15.07-.32-.07-.42-.03-.03.01-.03.24-.12.26-.4.09-.73-.13-.76-.54-.02-.23.21-2.48.28-2.74.09-.39.46-.79.51-1.19s-.21-.75-.16-1.11c.06-.41.5-.88.53-1.46.02-.49-.5-1.61.16-1.6l-.46-.15.31-.23-.31-.15c.31-.25.6-.69.61-1.1s-.26-.58-.28-.78c-.02-.22.42-1.66.45-2.13.11-1.76-.1-3.23.15-5.07.05-.35.23-.63.27-1.1.03-.34.02-1.72-.29-1.68.57-1.48.42-3.19.63-4.76.14-1.1.62-2.05.55-3.32,0-.15-.2-.29-.21-.51,0-.5.41-.61.41-.67,0-.14-.17-.3-.08-.52.03-.08,1.03-1.19,1.11-1.22.14-.04.95.03,1.14.08,1.24.33.18,1.63,1.37,1.29-.07.75.48.92.69,1.24.14.21.08.51.3.78.46.55,1.74.75,2.33,1.17l1.16-.72-.31-.61c.76,0,1.76-.1,1.39-1.08.6-.16.29.4.77.31-.15-.89.41-.65.83-.94.21-.14.28-.45.4-.53.21-.13.51.09.87-.03.29-.09,1.17-.7,1.56-.92.33-.19.18-.64,1.07-.24.07.03.89.65.92.7Z"/><path d="M85.1,48.78v.44c.58-.16.62.31.81.38.17.06.41-.08.57.03.03.02.58.53.6.57.1.19-.21.48.04.94.21.39.56.43.76.65.08.08.46.76.6.93s.42.19.46.24c.09.13-.12.42-.09.65.05.35.43.89.49,1.1.12.41.31,1.82.53,2.01.08.07.33-.24.39.23.12.85-.04,1.69.33,2.63.02.06.54.19.35.82-.04.13-.37.07-.3.32l.48,1.84-.3.11-.02.29.46.39c-.82.24.18,1.26-.06,1.71-.11.2-.39.18-.39.29-.01.72.25,2.23.38,3.02.05.3-.27.39.21.53l-.62.47v.3c.73.3.24.66.2,1.12-.07.8-.17,2.8-.45,3.39-.09.18-.31.19-.33.27-.03.1.19.53.11.75-.07.2-.35.2-.4.29-.15.25-.33,1.03-.41,1.35-.04.14-.14.27-.24.38l.46.08c-.28,1.11-2.4,1.51-2.02,2.9l-.91.34.16.3c-.77-.13-.92.71-1.7.62l.15.46c-.5.17-.95-.28-1.32-.3-.62-.05-1.06.73-1.38-.16l-.15.46c-.87-.14-.82-.61-1.33-.97-.29-.21-.85-.32-1.05-.5-.45-.41-.29-.84-.34-.96-.02-.05-.6-.46-.75-.72-.2-.33-1.18-2.26-1.16-2.47.02-.16.25-.27.21-.58-.05-.36-.46-.98-.71-1.27l.44-1.09c-.5-.37.07-.6-.48-.76l.31-.7-.47-.08c-.04-.4-.05-.49.31-.61-.47-.61-.19-1.57-.16-2.31s.05-.55.13-.93c.08-.4.3-1.58-.27-1.47v-.15c.47.11.42-.98.3-1.27-.05-.12-.29-.12-.29-.19.02-.32.37-.83.41-1.12.07-.47-.07-1.5.11-2.04.26-.77.95-1.57.25-2.36.01-.37.86-1.77.86-1.88,0-.12-.36-.33-.24-.53.02-.02.21,0,.23-.05.21-.45.55-1.06-.09-1.05v-.15c.57-.01.46-.54.63-.81.67-1.05.26-.92.53-1.65.23-.63.8-.96,1.31-1.32l-.32-.17.17-.52.3.15-.09-.47,1.16-.47-.15-.45,1.82-.18c.4-.42.37-1.23.96-1.05ZM86.33,55.41c.37-1.01-.1-1.06-.53-1.71-.15-.22-.15-.57-.32-.77-.11-.13-.38,0-.46-.14-.16-.27-.08-.77-.38-1.02-.43-.26-.78,1.01-1.03,1.24.49.52,0,.34-.22.65-.08.12-.04.48-.23.77-.13.2-.42.28-.45.34-.09.17.11.38.09.52-.01.07-.62.78-.75,1.14s-.17,1.06-.35,1.48l.47.33-.78.65c0,.28.02,1.87-.02,1.97-.14.35-1.17.41,0,1.54.03.35-.53.52-.56.57-.17.3.12,2,.07,2.44-.07.61-.5.71-.56,1-.03.15-.09.89-.07,1.03.09.58.7.69.07,1.44l.31.14-.46,1.17h.46c.04.66-.77,1.91.31,1.85-.32.55-.66,1.11-.53,1.77.14.76.86.75.53,1.62l.3-.16c.16.82.45,2.71,1.23,3.15.19.1.68-.1.83-.06.09.03.19.51.72.3l-.15-.46c1.04.25,1.64-.25,2.47-.62l-.31-.23c.25-.58.59-.86,1.08-1.23l-.31-.15,1.08-2.63v-.28s-.31-.17-.31-.17c-.02-.48.76-.85.79-1.24.03-.33-.26-.48-.29-.64-.03-.18.29-.4.3-.74,0-.36-.31-.63-.29-.9.03-.38.5-1.31.43-1.7-.02-.11-.26-.11-.32-.21-.15-.25.03-.47,0-.56-.04-.12-.23-.09-.26-.18-.02-.05.14-1.08.17-1.13.03-.07.33.07.26-.18l-.46-.24c-.09-.32.46-.32.47-.47.04-.41-.47-.56-.47-.6.02-.11.19-.3.21-.53.1-.94,0-2,.09-2.95l-.46.15c.03-.76.61-1.42-.16-1.95l-.23-2.21h-.54s.15-1.22.15-1.22h-.61Z"/><path d="M57.97,5.03c.07.51.27,1.11.48,1.58.08.17.74.34-.02.66.35.53.36.77.15,1.37.56.25,0,1.32,0,2.02s.39,1.42.41,1.7c.01.2-.29.46-.32.67-.16.91-.07,2.27-.02,3.17.03.57-.15,1.02.25,1.54l-.33.16c.54.73.02,1.46.16,2.15.08.4.45.33.48.48.04.21-.22.74-.24,1.06-.06.73.2,1.15-.39,1.85l.48.47c-.54.75.12.93.1,1.46-.02.45-.1.92-.13,1.47-.03.61-.06,1.22-.14,1.83l.47.08c-.45.63-.06,1.16-.06,1.74,0,.29-.24.78-.21.96.02.15.33.18.43.33.36.52-.17.94-.13,1.33.03.25.34.45.4.68.14.51-.33,1.15.03,1.73l.3-.15c.25.88-.08,1.36.85,1.82l.38-.28c.09.81.8.57,1.24.72.18.06.46.46.88.31.35-.21.67-.71.88-.88.26-.2.73-.19.87-.4.2-.32.3-.98-.17-1.05l.91-.95.02-.29-.3-.28c.13-.88.96-1.97,1.15-2.72.06-.22-.55-.6.06-1.08l-.31-.08.47-.77-.31-.15c.06-.22.42-.66.44-.81.02-.19-.53-.9.04-1.5l-.33-.17.16-.84-.46-.08c-.01-.15.24-.01.28-.15.11-.35.48-1.55.03-1.54.2-.46.62-1.73-.16-1.47l.31-.23-.31-.14c.08-.44.51-.65.53-.83.09-.67-.31-1.49.25-2.26l-.33-.31.32-.77c-.46-.03-.27-.83-.15-1.2.04-.14.29-.12.3-.21.06-.41-.84-2.09-.02-2.43-.66-1.08.26-2.51.32-3.55.03-.46-.01-.41-.47-.39-.11-.5.14-.44.46-.69l-.46-.08.29-.16c-.37-.46.1-.8.11-.99,0-.12-.33-.4-.18-.77s.71-.62.72-1.14c.32.19.75-.1.83-.1.06,0,.97.43,1.01.47.18.19.09.44.16.58.08.15.27.13.29.23.05.25.04,1.39-.31,1.36.13.43.38.77-.15.91.41.61.15,1.48,0,2.16.11.22.58-.34.46.15-.09.37-.39,1.04-.45,1.4-.34,2.07-.17,4.24.14,6.31.07.5-.06,1.66-.6,1.83l.32.77-.31.3c.5.54.09,1.68.03,2.37-.06.73.23,1.58-.35,2.11,0,.15,1.28.55.15.85l.31.38c-.04.19-.21.34-.25.53-.14.73-.17,1.36-.3,1.93s-.41,1.26-.56,1.86l.32.45c-.3.59-.93,1.6-1.15,2.26-.09.27.04.66-.07.81s-.39.01-.49.19c-.23.43-.13,1.36-.75,2.1-.19.22-.56.12-.75.29-.16.14.05.44-.27.71-.23.2-1.42.7-1.72.76-.13.02-1.99.04-2.09.02-.18-.05-.3-.31-.42-.34-.29-.08-.78.03-1.04-.14-.12-.08-.19-.44-.42-.59-.24-.16-.56-.09-.67-.17-.12-.09-1.52-2.14-1.63-2.45-.23-.6-.39-1.34-.4-1.99l-.46.16c-.56-.88.22-1.51.1-2.26-.04-.27-.24-.43-.27-.75-.04-.36.19-.88.09-1.18-.11-.31-.37-.28-.39-.39-.03-.32.12-1.08.16-1.44h-.46c.07-.44.27-1.04.24-1.47-.02-.36-.58-.73.05-.91-.29-.76.24-1.7-.44-2.32l.32-.17v-.27c-.06-.32-.34-.59-.33-.94,0-.52.68-.67-.14-.85.14-.35.46-.59.48-1,0-.2-.28-1.42-.48-1.37.69-.88.31-.89.18-1.71-.07-.42.29-.72.29-1.07,0-.42-.31-.8-.33-1.24-.02-.61.41-1.88.31-2.44-.03-.17-.4-.15-.45-.34l.45-1.07-.31-.14c.06-.33.58-.98.59-1.11.01-.08-.33-1.12-.29-1.49,0-.07.51-.07.31-.76-.04-.13-.33-.05-.32-.33,0-.37.29-.63.32-.94.03-.27-.14-.53-.11-.74.05-.32.69-.77.75-1.17l.42.12c0-.31.01-.32.33-.28Z"/><path d="M68.24,50.69c.26.13.5.24.78.37,1.05.5.8,1.03,1.28,1.77.12.18.57.44.72.63.26.35,0,.76.76.86l.09,1.38h.44s-.31.71-.31.71l.31.17v.43s-.31.17-.31.17c.85.59.21,2,.48,2.57.05.11.24.11.28.24.13.4.13,1.08-.14,1.42.79-.13.77,1,0,1l.62.62-.46.38.47.08c.04.53-.34,1.21-.31,1.69.04.55.21,1.34.24,1.94.04.74-.02,1.47-.08,2.21l.3.17-.46.46c.63.18.03.76,0,1.08-.04.46.41.96.15,1.65-.13.35-.2.14-.39.9-.31,1.23-.44,1.84-.57,3.1-.11,1.01-.6,1.08-1.02,1.91l.3.29c-.48.5-.74,1.2-.69,1.94-.83.13-.54.27-.79.59-.22.28-.6.07-.22.78-.41,0-.73.15-.84-.31l-.39.16.16.46c-.63-.28-.82.36-1.06.4s-.4-.2-.65-.17-.39.58-.82.56c-.12,0-.11-.34-.33-.44s-.93.09-1.2.06c-.36-.04-1.7-.78-1.87-1.02-.14-.19-.03-.51-.23-.7-.39-.34-.92.13-.84-1.01l-.7-.15c.1-.67-.09-1.02-.32-1.58-.35-.85-.38-1.82-.77-2.52v-1.19s-.46-.1-.46-.1c.01-.35.26-.64.25-1,0-.33-.24-1.42-.71-1.15.14-.28.32-.52.32-.85,0-.29-.31-.2-.33-.32-.08-.46.54-1.19-.15-1.36l.31-.38-.46-.08c.18-.22.08-.6.46-.54-.49-.49-.08-.76.31-1.15l-.46-.31c.53-.39.08-.97.06-1.31-.05-.81.27-2.32.71-3.01l-.31-.15c.64-.48-.28-1.41-.1-1.86.08-.2.36-.17.41-.33.18-.67.19-1.83.2-2.45,0-.34.17-.69.1-1.05l.47-.09c.24-.39-.49-.23-.31-.54.14-.23.51-.15.62-.34.25-.41.71-1.74.46-2.2.7.07.46-.34.52-.43.47-.67.24-.82.33-.97.09-.16.5-.22.69-.39.89-.8,1.03-1.54,2.35-1.97.16-.05,1.36-.35,1.44-.35.22.01,1.43.47,1.72.61ZM67.35,52.97s-.36.15-.52-.19c-.12-.24.18-.67-.16-.76-.47-.12-1.34.44-1.55.8-.06.1.09.39-.09.54-.64.55-.69.27-1.26,1.29-.15.26-.92,1.59-.95,1.68-.06.18.23.29.2.51-.03.29-.34,1.03-.4,1.3-.09.42.27,1.16-.5,1.51l.48.74c-.14.55-.69.98-.73,1.57-.03.41.14.97.1,1.52-.05.79-.63,1.09.31,1.54-.64.37-.29.68-.37,1.06-.15.81-.59,1.23-.08,2.03l-.32.38h.46c-.38.52-.21,1.15-.17,1.75l.47.1c.05.25-.19.06-.3.27-.05.1-.33.95-.33,1.03-.02.59.61,1.03.64,1.4.03.42-.61.72-.01,1.23l.47-.08c-.14.51.12.59-.46.85l.63.64-.31.9c.09.26.4.07.44.11.29.36.42,1.54.5,1.64.04.05.64.26.87.67.12.21-.04.5.07.7.02.04.68.44.82.5l.3-.32c.43.57,1.34-.27,1.54.47.22-.45.48-.7.99-.78-.35-1.02.09-.78.44-1.48.56-1.1.42-2.1.72-2.97.14-.4.59-.55.66-.66.03-.05-.13-1.03-.05-1.28.08-.24.36-.32.38-.6.03-.5-.6-1.68.32-1.79l-.31-.53.6-.46c-.34-.67-.27-1.57-.88-2.16l.56-.77-.6-.47c.62-1.12.14-1.94.03-2.96-.06-.54.42-1.24-.49-1.42.8-.79-.19-1.26.31-2.15h-.45c-.06-.07,0-1.19-.05-1.47-.01-.07-.25-.05-.27-.18-.1-.49.42-1.12.36-1.71-.03-.29-.24-.63-.21-.95l-.31.16c.35-1.19.1-.71-.27-.95-.3-.2.04-1.06-.05-1.18-.02-.03-.63-.28-.68-.27-.14.01-.27.25-.31.25-.19,0-.19-.5-.25-.58Z"/><path d="M162.21,5.01l.43.03c-.44,1.32-.75,2.75-1.53,3.95l.3.29c-.4.37-1.07,1.11-1.03,1.67,0,.12.22.2.18.41-.06.31-.52.65-.85.62l.16.37c-.46.16-.2.36-.15.77l-.31.17.31.23c-.53,0-.42.62-.57.92-.7,1.49-.86,2.64-1.62,4.06-.15.29-.52.19-.51.8,0,.25.52.41-.37.71.24.6.04,1.69-.4,2.15-.22.22-.51-.37-.3.62l-.39.15c.93,1.09-.47,1.32-.47,2.07,0,.18.17.5.15.53s-.34.07-.52.33c-.26.37-.22.96-.53,1.32l.29.28-.47.93.32.15c-.87.78-.68,1.63-.98,2.57-.2.62-1,2.29-1.02,2.83,0,.06.46.03.3.45-.06.15-.36.14-.49.45-.2.49.03,1.52-.06,1.64-.09.13-.35.16-.45.31-.35.54.07,1.57-.7,1.38.28,1.45-1.66,1.25-2.62,1.23-.03-.46.06-1.12-.46-1.31.99-.4.66-1.74.84-2.39.28-1.01,1.54-3.17,1.55-4.09,0-.18-.22-.33-.17-.55.09-.38.72-.69.72-1.46l-.32-.3.77-1.08-.44-.44c.49-.41.41-.99.63-1.39.11-.21.42-.22.43-.35.03-.26-.1-1.18-.08-1.3.03-.26.33-.3.34-.33.05-.11-.06-.32.04-.47.12-.19.52-.18.48-.49l-.64-1.31-.6.14.45-.85c-.12-.3-1-.96-1.05-1.1-.16-.5-.06-.51-.32-1.1-.22-.49.11-.75.04-1.23-.11-.75-.54-.95-.71-1.31-.14-.31.02-.77-.06-1.05-.1-.35-.5-.42-.57-.79-.12-.64.39-1.08-.33-1.04l-1.01-3.29c-.53-.25-.34-.92.17-1.12l-.77-.23.32-.83-.33-.17.47-.92-.46-.15c.07-.56.91-.69.15-.92.39-.21.22-.62.32-.89.06-.17.42-.06.14-.42.44.09.46-.15.69-.44l1.48.85c-.28.6.15.83.24,1.28.28,1.38.12,2.76.68,4.2.2.51.38.87.52,1.49.13.58-.28,1.06.78,1.08l.19.87-.42.37.32.1c-.26.59.09,1.21.39,1.72.13.21.46.28.49.43.06.3-.38.98.26,1.43l.67-.16c-.13-.62.4-.66.47-.77.06-.09-.12-.35-.07-.59.08-.37.58-.87.74-1.28.15-.36.64-1.89.65-2.19,0-.22-.52-.4.37-.71-.29-1.03.14-.71.47-.91.12-.07.35-1.88.87-2.61.1-.13.35-.14.37-.17.11-.16-.32-.37-.2-.72.03-.09.56-.72.7-1.02.36-.79.65-1.49,1.06-2.29.2-.39.54-.53.81-.73.15-.11.19-.41.33-.43.67-.1,1.58.54,1.51,1.32ZM154,18.9v-.23s-.31-.23-.31-.23l-.16.46h.46Z"/><path d="M156.58,48.99c.09.05-.05.32.19.26v-.31s.31.31.31.31l.39-.46.33.63.51-.02c.28.54-.18,1.97.31,2.39,0,.08-1.23.66-1.34.67-.3.04-.44-.2-.66-.23-.13-.02-1.14.11-1.45.09-.11,0-.08-.27-.2-.3-.33-.08-.77.1-1.13-.16v.46c-.35.15-.67-.23-.85-.24-.24-.02-.54.27-.76.25-.09,0-.07-.27-.19-.31-.27-.09-1.08.2-1.34.16-.08-.01-.68-1.11-1.34-.78v1.69s.46,0,.46,0c-.2.57-.38,1.58-.41,2.21-.02.59.48.82-.05,1.33l.46.08-.62.63c-.02.36.28,1.13.3,1.37.04.58-.52.39-.45.85l.46-.08c-.16.29.03.72-.46.7-.07.25.22.11.26.18.3.56-.59.71-.42,1.21l.62.15c-.52-.08-.08.26-.22.47-.05.08-.68.26-.39.61.02.03.67-.08.73-.11.2-.09.18-.35.29-.36.5-.06,1.59.88,1.76-.14l.84.61.39-.77c.36.12.54.2.46.62.43.05.75-.41.8-.43.17-.06.38.36.51-.19.48.1.41.58.62.77.15.15.44.11.51.18.19.2.15,1.59.34,1.97-.31.27-.73-.18-.77-.15-.09.06-.32.75-.16.92-.48.09-.48-.14-.69-.46l-1.85.73-.84-.58-.24.62-.53-.46c-.18.78-1.12.45-1.7.31v.62s-.54,0-.54,0l-.08-.47-.47.41c.57.84.02,1.12-.07,1.73-.06.4.21,1.82.16,2.26-.03.29-.6.57.07.77-.8.63.34,2.03.4,2.46.04.25-.19.69-.1,1.06.04.16.38.15.44.36.15.46-.26,1.18.57,1.15.22,0,.21-.12.26-.28l.27.11-.31-.61c.59.01,1.29-.03,1.84-.25.35-.14.39-.39.52-.47.17-.11.45-.04.66-.19.16-.12.18-.43.23-.47.09-.06.36.14.53.13.27-.02.5-.39.89-.3.93.87-.05,1.67.23,2.56l-.59.14c-.2.12.19.73-.46.7l.46.3c-.72.38-1.29,1.05-2,1.44-.1.06-.32-.05-.45.03-.22.11-.33.44-.58.51-.56.16-1.43-.22-1.84-.26-.17-.02-.31.19-.43.2-.66.05-.68-.67-1.16-.92-.22-.11-.52-.04-.61-.08-.04-.02.19-.41-.08-.77-.11-.14-.34,0-.46-.14-.14-.16-.14-.46-.27-.59s-.39-.09-.59-.3c-.05-.05-.57-1.26-.6-1.36-.15-.53-.11-1.36,0-1.91h-.62s.46-.69.46-.69c-.47-.16-.44-.72-.47-1.15h.62s-.77-.31-.77-.31c.11-.17.11-.43.21-.57.3-.42.45.02.2-.94,0-.03-.2-.03-.22-.11-.03-.11.28-2.04.59-2.16l-.31-.3c.09-.11.2-.23.22-.37.05-.32.13-.85-.21-.85.26-.33.08-1.17.2-1.41.07-.15.89-.67.1-.84v-.15c.52,0,.48-.68.45-1.07-.87.09-.35-.66.18-.71.17-.71-.19-.6-.39-.84s.88-2.32.99-2.7l-.46-.3c0-.1.68-1.6.69-1.85.02-.41-.01-.55.03-1.05.03-.31-.25-.87.35-.88l-.62-.53c.09-.5.57-.34.62-.39.03-.02-.17-.3-.13-.5.05-.22.4-.44.38-.66-.01-.13-.25-.27-.25-.31,0-.11,1.28-1.45,1.7-1.23-.13-.86,1.88-.85,2-.93.1-.06.1-.34.25-.39.45-.13.6.03.52.47.45-.2-.12-.69.67-.46.34.1-.26.11.64.14.57.02,1.42.4,1.31-.45l.77.46-.14-.45c.26-.37,1.45-.14,1.8.03Z"/><path d="M103.69,5.09s.3.48.83.25c.18.48-.33.39-.32.69-.04.46.22.56.63.55-.19.66-.75.29-.9.35-.18.07-1.38,1.02-1.59,1.17-.07.05-1.38-.38-1.46.35-1.22-.8-2.04,0-3.29-.32-.2.34-.04.66-.07.98-.09,1.1.2,1.85-.39,2.81.77.21-.35,1.17.45,1.37-.71.68-.07,1.21,0,1.71.06.47-.16,1.27-.15,1.67,0,.07.73.57.27,1.14l-.43.03c.24.58.25,1.34.01,1.94l.28.13-.14,1.63.27-.07.11-.23,1.39.61.07-.46c.46-.17,1.24.54,1.46.56s.47-.25.74-.21c.18.02.64.38.89.48.22.09.61-.15.6.31-.01.53-.72,1.21-.15,1.78-.46-.1-.94.31-1.31.32-.5.02-1.18-.15-1.77-.1-.31.02-.61.24-.87.25-.44.02-.8-.66-.85-.04-1.36-.2-.99.49-.75,1.42h-.46c.06.54-.1.76.45,1-.48.61-.08,1.56-.16,2.29-.06.59-.73,1.15.32,1.18-.37.45-.51,1.37-.43,1.93.01.09.25.06.27.19.07.39.21,2.19.27,2.32.15.3.64.2.2.96l.46-.15c.32.98.68,1.74,1.79,1.83.47.04,1.83-.11,1.29-.75,1.04.26,1.86-.23,2.81-.63.14-.06.09-.32.35-.31.9.03,1.22,1.4.7,2.06-.13.17-.37.21-.48.34-.12.15.01.36,0,.37-.09.07-.45.04-.65.16-.23.14-.3.62-.45.73-.07.05-.52-.22-.28.35-.53-.06-1.02.15-1.51.23-.22.04-.49-.12-.69-.05-.26.08-.33.57-.5.6s-.34-.27-.58-.27-.54.22-.81.21c-.1,0-1.7-.6-1.77-.65-.28-.2-.33-.53-.53-.68-.22-.18-.53.05-.71-.2-.13-.17-.2-1.24-.38-1.62-.28-.59-.69-.65-1.14-1.01l.42-.46c-.46-.42-.26-1.12-.37-1.43-.09-.24-.55-.25-.6-.79-.02-.25.19-.4.19-.57.02-.52-.35-.93.2-1.45h-.46c-.16-.33.25-.72.25-.85s-.3-.42-.34-.68c-.06-.47.56-2.03-.07-2.56l.32-.16c-.09-.25-.17-.49-.17-.76,0-.54.37-1.59-.15-1.69l.46-.85-.46-.08c.5-.34.75-1.43.61-1.98-.03-.13-.32-.05-.32-.32,0-1.27.39-2.7.39-4.17,0-.55.4-.73.4-.78.04-.39-.76-.61-.44-1.39.05-.12.64-.06-.03-.3.67-.61.2-.73.17-1.23-.02-.34-.06-1.44-.04-1.71.03-.29.32-.21.33-.31.01-.31-.32-1.42-.31-1.98,0-.11.27-.08.36-.28.15-.34.42-1.68-.05-1.74.57-.51.17-1.15.2-1.68s.59-.88.41-1.33c.75-.06,1.62.09,2.24.46.4-1.06,1.2-.02,1.67-.03.38-.01,1.35-.43,1.86-.41l.17-.48c.7.28,1.47.29,2.17.52Z"/><path d="M24.18,49.6c.66.38.33.08.89.13.4.04.96.46,1.52.16.27.6.74,1.26,1.47,1.05l.08,1.7-.46.14c-.16-.05-.19-.35-.35-.47-.1-.07-2.09-.57-2.26-.59-.51-.06-1.23.26-1.79.14v.62c-1-.66-2.29.46-3.06,1.1l.14.43c-1.12-.18-.76.15-1.09.52-.58.64-1.2,1.39-1.29,2.33-.04.41,0,.87.21,1.24l-.3.07.29.22c-.26.66-.28,1.19.02,1.83.05.1.3.08.31.21.01.16-.17.38-.09.52.06.11.69.44.77.76l.38-.31c-.05.68.41.67.81.93.11.07.95.68,1.01.69.44.06.74-.4.64.39.62-.3.48.16.72.32.29.18.79.05.83.6l.53-.29c.48,1.2,1.14.72,1.85,1.38l.15-.31.53.33-.13.43c.24.11.72.35.87.53.08.1.01.33.05.4.01.02.39-.15.57.04.12.14.15.51.28.73.63,1.09,1.04,2.38,1.44,3.64.05.16,0,.36.01.53l.61-.15c-.24.42.13.93.12,1.13-.01.18-.22.39-.19.86.02.24.2,1.21.19,1.33-.02.25-.65.28-.11,1.07-1.04.16-.74,1.82-.81,1.91-.04.05-.27.07-.35.17-.16.17-.24.42-.4.54-.29.21-.65-.16-.33.63l-.74.23.16.46c-.19.12-.58-.01-.67.02-.12.04-.09.24-.22.28-.38.11-1.11.12-1.48.31-.18.1-.04.37-.2.48-.12.08-.39.04-.49.18-.08.11.06.37-.13.43-.56.19-1.7.1-2.14.22-.27.07-.44.46-.8.52-.3.04-.69-.17-1.05-.14-.32.02-.16.39-.45.33-.22-.04-.35-.26-.59-.27-.52-.03-1.35.44-1.57.43-.08,0-.06-.29-.18-.32-1.36-.31-1.04.07-2.17-.93-.71-.63-1.57-1.07-2.3-1.9-.25-.29.03-.71-.83-.48-.15-.54-.99-1.06-1.14-1.47-.22-.59.13-1.46-.55-1.78l.49-1.12,1.05-.03c-.06.69.51.95.84,1.4.61.85.99,1.52,1.9,2.15.15.11.43,0,.51.07.22.2.32.8.84,1.15.48.32,1.18.36,1.54.92l.08-.46c.34-.03.49-.06.46.31.45-.8,1.02-.18,1.72-.17.08,0,1.48-.28,1.55-.32.28-.14.29-.48.53-.56.17-.06.71.11.97-.03l-.16-.31c.43,0,.93-.13,1.33-.29.06-.02.78-.38.82-.41.43-.27.04-.92.78-.54l-.14-.29c.32-.1,1.14-.7,1.3-.95.14-.22-.06-.45,0-.63.15-.46.47-.96.38-1.58-.01-.11-.28-.08-.31-.2-.12-.48.6-1.22-.3-1.51l.61-.38-.47-.08c.38-.74-.36-.63-.54-1-.11-.22-.02-.47-.08-.66-.04-.14-.3-.11-.31-.2,0-.15.21-.36.14-.5-.02-.04-.49-.42-.62-.55-.25-.23-1-.94-1.22-1.25-.1-.14,0-.34-.02-.36-.25-.21-1.38-.56-1.71-.65-.1-.03-.22-.51-.73-.3v-.62s-.78.09-.78.09c-.11-.9-.69-.3-1.15-.86l-.31.46c-.19-.53-1.5-.74-1.69-.93-.85-.85-1.38-1.44-1.92-2.55-.13-.26-.5-.58-.57-.84-.08-.31.1-.55.07-.69-.05-.19-.42-.18-.45-.34-.09-.43.62-1.33-.3-1.44l.47-1-.35-.08c-.5-.48.4-.51.47-.87.06-.29-.32-.76-.21-1.15s.54-.42.56-.56c.04-.21-.15-.45-.08-.67.07-.2,1.09-1.55,1.46-1.38l-.16-.46c.67.1.9-.57,1.13-.72.46-.29,1.26-.67,1.8-.82l-.16-.46.53.14c.34-.72.48-.28.87-.38.47-.11,2.5-.92,2.73-.79Z"/><path d="M109.3,49.87c.09.09-.17.53-.13.68.05.22.65.17.44.7l-.44.02-.17.69c-.48-.06-.9.11-1.36.18-.8.12-.5.09-1.2.35-.42.15-1.01.08-1.46.15l.15.61c-.22.02-.44,0-.66-.03-.83-.16-1.61.03-2.53,0-.24-.01-.45-.33-.82-.11l-.15,1.3.61.32c-.4.48.07,1.09-.45,1.22.41.53-.12,1.04-.16,1.4,0,.06.23.06.29.19.28.54-.18.82-.23,1.26-.02.18.18.3.16.48-.05.58-.46,1.2.08,1.77l-.32.29.16,1.17.46-.23c-.13.75-.15,1.63-.62,2.23h.46s-.17.53-.17.53l.31.15c-.3.6.15,1.13-.6,1.4.44.12.16.24.21.35.02.05.22.04.23.11.09.6-.45.73-.44.78,0,.25.38.53.16.84h.62c-.45,1.31-.52,2.79-1.08,4.01l.46-.15-.15,1.85.46-.15-.13.6.29.17-.46.08.16.6-.33.17c.31.62.79,1.47-.14,1.77-.06.27.25.1.3.16.03.04-.31.69-.31,1,0,.28.28.19.32.32.14.48-.79,1-.64,1.72l-1.05.49c-.14-.78-1.64-.69-1.39-1.7l-.31.16c-.24-.43.12-.67.14-1.01.02-.46-.23-1.02-.24-1.4-.02-.49-.15-1.71.25-1.82l-.16-.39-.46.16c-.18-.61.49-.98.56-1.15.13-.34-.27-2.06.04-2.53l-.45-.4c.21-.37.48-1.45,0-1.55v-.15c.28-.34.29-.8.63-.93-.27,0-.36-.5-.39-.77,0-.1.17-.22.17-.31,0-.28-.43-.53.07-.93l-.31-.15c.53-.47-.22-.85.31-1.4l-.3-.14.12-.53-.29-.09.32-.17c.15-.54-.26-.52-.28-.6-.16-.46.56-.67.59-.8.05-.22-.02-.73-.31-.74l.31-.54c-1.17-.39.17-.63.15-.7-.18-.32-.19-.46-.61-.39l.31-.23-.31-.23c.64-.08.45-.99.49-1.43.02-.17.23-.35.23-.5,0-.31-.51-.5.05-1l-.46-.08c.79-.46.29-1.03.35-1.52.03-.27.34-.45.38-.65.29-1.7-1.91-1.35-2.89-1.52-.49-.08-1.23-.77-1.39.07l-1.39-.88.31-1.74c.06-.07,1.64.55,1.76-.13l1.99.11.26-.6c.32-.1.67.42.84.41.05,0,.65-.12.9-.15.31-.04.63-.31.92-.23.23.06.37.48.63.43.33-.06.87-1.1,1.56-.15.37-.22.06-.43.08-.77l.16.29.98.03.15-.3c.81.42,2.29-.34,2.93-.41.42-.04,1.26.14,1.7.24l.08-.47c.41.07.4.69.62.85.14.1.42.05.45.08Z"/><path d="M41.47,4.58c-.02.58.58.82.55,1.36-.01.25-.22.37-.22.68-.01,1.15.45,2.56.42,3.6,0,.31-.33.38-.37.57-.12.73.17,2.45.04,3.17-.04.22-.2.28-.25.46l.6.23c.03.38-.43.57-.43.61,0,.14.17.35.15.63s-.35.77-.3.92c.03.09.37.08.43.63.07.68-.66,1.68.32,1.61.07.06-.56.68-.57.85s.27.35.23.58c-.03.14-.25.27-.27.5-.05.4.37,1.01-.16,1.38l.46.08c-.2.97-.58,2.01.15,2.85-.77.29-.26.71-.21,1.23.01.15-.2.32-.19.46.03.41.57.71-.21,1.39.81.38,1.03,1.28.15,1.62v.3s.32.1.32.1l-.17.89.32.19c-.11.79-.48,2.46-.31,3.19.02.11.25.09.29.22.09.26.03.67.17.96l.3-.15c.07.22.03.81.14.97.23.33,1.04.17.63.88l.53-.31c.38.11,1.21.57,1.57.57.42,0,.84-.29,1.21-.25.28.03.5.4.85.31l.08-.46c.4.05.59.46.63.46.06,0,1.11-.16,1.19-.18.24-.08.36-.43.64-.43.24,0,.44.25.65.28.11.01,1.74-.4,2.06-.2.12.07.13.55.61.39.08.26-.19.35-.23.53-.07.29-.01.62-.09.9-.04.16-.41.05-.16.4-.29.33-1.17.22-1.22.25-.1.06-.1.32-.16.36s-1.19.19-1.29.19c-.3.01-.61-.18-.76-.17-.12,0-.18.54-.63.56-.35.02-.39-.39-.45-.39-.45.03-1.11.22-1.59.24-.6.03-1.39-.09-2.01.1-.05.02.03.3-.24.24-.31-.07-.52-.44-.72-.53-.38-.16-.54-.14-1.11-.42-.93-.45-1.13-.46-1.75-1.18-.31-.36-.9-.66-1.04-1.12-.11-.38.05-1.19,0-1.66-.08-.67-.41-1.23-.53-1.62-.04-.14.31-.74.31-1.08,0-.57-.51-.79-.17-1.31h-.47s.48-1.93.48-1.93l-.33-.3c.28-.47.39-1.96.24-2.47-.05-.18-.31-.29-.33-.45-.05-.38.04-.86-.06-1.56-.01-.07.28,0,.32-.29.1-.79-.16-1.63-.16-2.33,0-.48.3-1.51.25-1.77s-.28-.34-.35-.6c-.14-.52.15-1,.11-1.48-.02-.28-.3-.21-.32-.32,0-.04,0-.84.02-.88.09-.22.42-.19.45-.35.12-.7-.22-2.1-.18-2.75.03-.56.63-.62.01-.76l.32-.62-.32-.31c.08-.17.42-.15.47-.34.1-.45-.19-2.01-.17-2.59.28-.93.03-2.55.18-3.37,0-.05.45-.29.44-.8l-.29-.22c.71-.19.48-1.15,1.53-.92Z"/><path d="M136.56,49.58c1.04,1.41.25,3.2,1.11,4.67-.64.17-.26,1.65.15,1.85l-.47.47.15,1.05.47.09c.07.57-.54.69-.6.79s.16.68-.17.97l.62.16-.47.61.31.15-.29.09c.21.52.04,1.05.04,1.58,0,.55.26,1.65.22,2-.05.51-.38,1.46-.24,1.96.09.32.41.19.43.53.05.7-.56,1.48-.57,1.85,0,.19.42.9.09,1.31h.46c-.54.79-.36,1.48-.47,2.37l.32.17-.31.38.77.08c-.21.42-.19.74-.76.71l.1.27-.26.11.16.39.62-.08c-.15.53-.12,1.05-.62,1.39l.31.3c-.36.54-.83.59-.38,1.31l-.86.31.16.31c-.67-.23-1.21,0-1.85.16.18-.67-.24-.57-.45-.87-.37-.51.54-1.21-.17-1.37l.31-1h-.62c.42-.73.53-1.2.15-2l.63-.25c-.13-.88-1.02-.8-.32-1.84l-.3-.14c.77-.9-.61-1.88.46-2.32l-.29-.15c.19-.51-.11-1.04-.11-1.55,0-.61.55-1.98-.23-2.32-.03-.36.42-.62.32-1.05,0-.04-.56-.19-.22-.72.06-.1.28-.13.37-.27.64-.95-.1-.61-.16-.89-.02-.13.6-1.41.55-1.85-.03-.34-.46-.68-.34-1.36.35-2.03.75-4.26.87-6.34.01-.2-.2-1.4-.15-1.46.09-.13.76.03.54-.47l.98-.13Z"/><polygon points="148.45 42.01 148.45 42.47 146.91 42.08 148.45 42.01"/><polygon class="cls-1" points="154 18.9 153.54 18.9 153.7 18.44 154 18.67 154 18.9"/></g></svg>