<?xml version="1.0" encoding="UTF-8"?><svg id="Layer_2" xmlns="http://www.w3.org/2000/svg" viewBox="0 0 289.48 107.99"><defs><style>.cls-1{fill:#fff;}</style></defs><g id="smorgastarta"><path d="M43.87,24.14c-.11.89.53,1.02.72,1.31.16.24-.05.35.41.73.12.09.37.03.47.18.13.18,0,.56.03.81.02.15.25.31.27.44.04.23-.26.37-.29.53-.08.41.79.9,1.2.76-.33.41-.29,1.57.05,1.89.15.15.66-.16.58.73-.03.31-.24.61-.2.91.04.35.76.46.54,1.82-.07.44-.62.68.08.87l-.35.53c-.02.1.27.07.29.12.1.23.26,1.42.19,1.84-.04.28-.31.46-.3.49,0,.06.68.49.7.88l-.35.2v.59s.7,0,.7,0c.08.28-.26.13-.3.2-.11.25-.17,1.11-.39,1.45l.53.39-.2.84.36.18-.35.18c-.12.39.33.2.36.36.15.74-.48.69-.54.9-.28,1.07.64,3.29.01,4.55l.17.33.52.1c-.04.67-.3,1.59-.33,2.21-.02.32.18,1.79.16,1.88-.05.18-.41.04-.35.2.88.58.22,1.01.26,1.89s.27.89.43,1.3c.19.48-.38.66-.42.91-.05.31.16.69.2,1.02.03.21-.15.5-.11.67.11.62.63-.38.84.18.25.69-.48,1.19-.49,1.26-.01.08,0,1.54.04,1.61.02.05.36-.04.45.64.06.43-.06,3.13-.13,3.49-.03.12-.79.15,0,.99-.28.3-.98.19-1.03.22-.29.19-.06.66-1.08.36-.89-.27-1.1-1.12-1.43-1.96l-.86-.03c.28-.41-.24-.97.35-.88v-.17c-.78.01.27-.91-.7-1.14l.48-1.42-.49-.34c.68-.23.36-.92.35-1.49l-.53.17c.25-.35.09-.79.18-1.11.04-.15.35-.12.35-.22.02-.53-.35-1.45,0-2.09l-.52-.18c0-.45.48-.86.53-1.24.1-.75-.66-1.17,0-1.91l-.35.09c-.26-.47.11-1.08.11-1.32,0-.31-.36-1.21-.39-1.79-.14-2.3.08-4.57.02-6.82-.01-.62-.49-1.03.26-1.58-1.38-.76-.19-1.1-.18-1.23,0-.03-.38-.33-.18-.6l-.51-.02c-.04-.38.72-.74.71-.8-.05-.57-.42-.84-.88-1.04.29-.66,1-.49.54-1.31l.33-.19-.8-.69c.1-.81.26-1.73.09-2.55-.2-.98-1.16-1.88-.69-2.91l-.32.15c-.86-.97-.64-1.4-.55-2.61-.73-.21-1.78.36-2.02,1.07-.08.23.08.48.07.5-.05.07-1.2.45-1.04,1.24l.53.17-1.74,1.08c.37.36-.88.82-.03.87v.34c-.67.11-.82,1.29-1.27,1.71-.16.15-.44.12-.67.35-.21.22-.23.73-.26.76-.05.05-1.32.5-1.41.52-.75.1-1.54-.61-2.01-1.14-.18-.21-.18-.61-.43-.81-.17-.14-.51-.11-.59-.2-.14-.16-.18-.95-.04-1.19l-.88.17.53-1.4c-1.08-.22-.95-1.92-1.91-2.32l.16-.5c-.61-.1-.77.37-1.05.79l.7.35c-.42.55-.65,1.44-.68,2.13-.02.56.55,1.34-.2,1.56v.26s.53.27.53.27c-.17.58-.66.5-.7.53-.38.32,0,.79-.06,1.22-.04.34-.27.56-.3,1.04-.07.94.05,1.05-.16,1.79-.26.97.33,1.44.4,1.84.08.44-.14.98-.05,1.45l-.71.37c-.09.19.77-.16.51.51-.22.56-.97.16-.48,1.31l.5.11v.35c-.81.36-.31.43-.38.7-.1.42-.39.79-.31,1.29l.69.29c-.21.7-.77.53-.88.62-.04.03.2.59.19.96-.02,1.01-.45,2.5-.47,3.34,0,.26.27.57.27.89,0,.45-.08,1.19-.17,1.65h.53c.15.1-.82,1.37-.82,1.67,0,.21.37.51.45.88.13.58-.55,1.5-.63,2.15-.02.15-.02,1.94,0,2.04.15.61.37-.05.23,1.14-.13,1.09-.37.77-.44,1.02-.14.51.42,2.09.34,2.17h-.53c.29.47-.16.89-.35,1.32l.35.17c-.56.2-.88,1.22-1.41.86-.41-.28-.24-.53-.37-.81-.53-1.11-.44-2.29-.55-3.59-.06-.7-.2-1.44-.24-2.16-.04-.8.09-1.64-.07-2.46l-.53.17c.25-.81.04-1.86.53-2.55l-.32-.17c.33-.83-.37-.69-.01-1.53.41-.95.12-.57.19-1.46.04-.5.82-1.53-.38-1.49.21-.47.07-.83.7-.7.09-.27-.44-.17-.49-.42-.17-.85.84-1.01.85-1.08.05-.48-.13-1.68-.88-1.48l.7-.79-.64-.61.63-.88-.51-.02-.15-.75.66-.73-.52-.61c.51.07.2-.27.31-.63.37-1.22.28-2.48.61-3.79.09-.37.67-.54-.06-.76.52-1.03.55-1.67.3-2.77-.04-.19-.28-.32-.29-.56,0-.14.27-.05.32-.17.07-.18-.1-.82.38-1.06l-.52-.35c.52-.7.23-1.39.88-2.02l-.7-.09c.42-.65,1.08-1.14.85-2l-.67-.29c.31-.41.85-1.64,0-1.67v-.17c.52.07.09-.7.88-.71l-.35-.26c.56-.61,1.75-1.55,1.05-2.37.64-.41.93.13,1.31.16s1.89-.41,2.11-.49c.2-.07.59.39.69-.2l1.43.7-.1.78c.74.32.92,1.67,1.28,2.16.49.67.58-.65.67.2l.33-.15c.27.74-.32,1.44,0,2.16.1.23.49.11.63.29.11.14-.17,1.02.34,1.06.28.02.11-.59.17-.69.2-.31,1.17-1.21,1.34-1.66.1-.27-.04-.6-.02-.62.04-.04.33.05.47-.05.95-.68,1.03-2.26,1.14-2.38.06-.07.42-.06.59-.19.18-.15,1.14-.96,1.24-1.05.22-.23.2-.57.29-.67.08-.08,1.81-.74,2.06-.57v-.7c.81.21,1.44.2,1.68,1.05l.61-.35Z"/><path d="M90.95,27.31c.09.15-.01.49.02.69l.88.17v-.53c.79.22.92,1.03,1.33,1.57.44.58.86.98,1.24,1.3.78.63.36.54.45,1.05.03.18,1.44,1.75,1.55,1.81.18.09.36-.05.53-.1-.28.63.3.91.31.96.17.68,0,1.5.22,2.2l.7-.18-.19.61.37.18c-.4.5-.69,1.33.18,1.15-.24.49.08,1.13-.53,1.31l.49.47c.3.7-.29.64-.54,1.07-.23.39.16,2.8-1.01,2.59l.35.62c-.34.26-.87.74-.54,1.12-.71.22-1.29.79-1.49,1.51-.05.18.11.49,0,.62-.34.45-.83.13-.93.2-.37.25-.59,1.44-.56,1.91l.35-.18c-.16,1.49,1.06.53,1.6,1.49.16.27-.05.49,0,.58.1.15.84.24.69.91h.44s.26-.35.26-.35c.08,1.15.69,1.87,1.23,2.81l.52-.53.88,1.14-.52.35c.29.36.48.99.79,1.31s.6.28.74.41c.23.22.44,1.02.4,1.35l.52-.18-.1,1.06c.92.14.58.65.85,1.26.32.7.9,1.36.91,2.25h.62c.06.03-.38,1.09-.36,1.3.04.5.97.67.19,1.41l.71.36c.08.51-.39,1.07-.38,1.39,0,.06.59.15.36.62-.82-.05-.63.63-.94.9-.41.35-1.28.1-1.79.08-.11,0-.25.22-.44.18-.45-.1-.83-.54-.52-.97l-.7.17c.06-.25.03-.51.07-.75.25-1.64-.41-2.9-.99-4.61-.03-.1-.32-.07-.33-.19-.02-.24.2-.5.19-.67,0-.07-.88-.67-.89-.75-.05-.33.2-.61.18-.93l-.32.15-.58-1.72c-1.62.47-.74-.49-.85-1.12-.03-.19-1.06-1.06-1.18-1.23-.1-.14,0-.44-.1-.6s-.72-.35-.68-.91l-1.19-.03c.01-.6-.51-.7-.72-.99-.17-.23-.22-.73-.39-.88s-1.31-.59-1.6-.74c-.19-.11.03-.57-.64-.19l-.18-.33c.08.53-.32.18-.63.31-.68.3-.96.3-1.58.53-.35.13-.2.53-.68.37-.28-.64-1.25-.58-1.15-1.4l-.51.17-.45-.87-.44.62.7-.09c.03.79-1.27,1.46,0,1.67l-.22,2.17-.31.2.52.09-.17,1.15h.71c-.27.84-.47,1.19-.35,2.1h.53c.02.44-.4.76-.47,1.06-.11.49.56,1.11.6,1.52.03.32-.25.59-.23.85,0,.12.23.27.23.49,0,.82-.75.98.4,1.65.06.54-.75,1.22.17,1.55-.58.44-.34,1.07-.17,1.67l.35-.18c-.01.24.11.49.08.73-.09.73-.64.46-.61,1.03l.53.09c-.66,1.36-2.46,1.15-3.75,1.33-.19-.77-.52-1.54-.73-2.3-.09-.31-.21-.57-.22-.61-.01-.05-.07-.59-.05-.61.11-.09.58.17.53-.18l-.7-.18.53-1.05-.52.18.16-2.91-.35-.18c.06-.4.25-.79.2-1.21-.08-.6-.51-.24-.53-.27-.3-.42.59-.25.35-.7h-.7s.35-.44.35-.44c-.43-.03-.43-1.02,0-1.05-.32-.48-.38-.71,0-1.15-.12-.13-.6.48-.52-.08.09-.64.46-1.29.54-1.94l-.54-.61c.58-.03.74-1.08,0-1.06l.35-.87h-.7s.7-.88.7-.88l-.53-.09.36-.53c-1.1-.57.58-1.99-.71-2.46.5-.12.07-.51.66-.64l.04-1.73-.35-.08c.91-.58.14-1.21-.18-1.94-.05-.28.97-.44-.17-.79l.52-.79-.7-.35.53-.26h-.53c.1-.85.93-.79.71-1.82-.03-.13-.3-.12-.31-.15-.06-.12.41-1.3-.75-.85-.1-1.06.91-1.51.26-2.65l-.44.02.35-.7-.53-.09c.46-.13.19-.19.35-.52l.54-.2c.11-.52-.5-.79-.52-1.22,0-.05.51-.2.33-.76l-.69-.2.35-.61-.35.09c.04-.48.42-.62.51-1.16.08-.46-.29-.98-.29-1.04.02-.16.35-.31.43-.57.09-.28.4-2-.13-1.8v-.17c.68-.2,1.17-.45.88-1.23l1.99.16.57-.68.77.34.27-.7.44.53c.07.06.94-.26,1.11-.35.13-.07.11-.36.21-.36.32,0,.59.38.91.47.26.08,1.71.12,2.14.15.28.02,1.64-.12,1.77.11ZM89.67,31.4c-.32-.26-1.09-.87-1.46-.9-.34-.03-1.94.59-2.26.43-.28-.14-.27-.57-.61-.59l-1.57.31c-.14.23.26.93-.35.88v.34c1.13.37.04,1.01.01,1.08-.03.09-.12,1.73-.11,1.92,0,.44.38,1.32.44,2.34.01.23.28.42.29.55.02.22-.39.47-.29.78h.7c-.64.61-.21,1.94-.39,2.38-.05.12-.31.02-.32.17,0,.34.4.57.71.62l-.53.17c-.14.47.25.27.34.48.37.86-.44,2.18.36,2.33l-.35.52c.59-.02.57.78.41,1.19-.08.2-.34.18-.37.31-.13.45.32,1.14.84,1.14l-.7,1.22c.13.11,2.99-.46,3.37-.58.4-.14,1.69-.95,1.92-1.25.21-.27-.02-.47.03-.59.04-.09,1.27-1.23,1.47-1.41.49-.43,1.08-.29,1.29-1.18l-.35-.08c-.12-.22.33-1.02.53-1.14s.52.15.69-.18l-.35-.17c.82-.68.24-2.07,1.41-2.03-.07-.9-.59-.61-.7-.7-.04-.03.02-.93.05-.97.12-.23.47-.21.49-.36.1-.85-.89-.92-1.06-1.27-.15-.29,0-.75-.07-1.09-.11-.51-.57-.76-.28-1.4h-.7c.38-.73.06-.91-.7-.89v-.87c-.37.27-.44.34-.89.18l.1-.88c-.52-.15-.75-.57-1.05-.81ZM85.29,50.09c.12-.33.1-.62-.21-.83-.48-.2-1.21.89-.52,1.23.18.17.72-.35.73-.39Z"/><path d="M224.39,29.37c.53.52,1-.33,1.46-.32s.54.73.69,0c.51.07,1.37.64,1.8.65.78.03.57-.3,1.8.15.99.36,1.15.93,1.6,1.21.25.15.75-.35.7.61l.25-.35c.65.24,1.24.66.98,1.4l.7-.35c.16.71.35,1.85,1.23,1.58-.35.93.19,1.16,1.05.88.22.43-.13,1.28-.06,1.54.09.35.44,1.15.77.74v.53s.35-.18.35-.18l-.35,1.58c1.4-.15-.08,1.59.19,2.35.15.41.69.1.68.46-1.43.48-.92,2.11-1.75,2.9l.35.34c-.1.71-.88.99-1.24,1.41-.22.26-.4,1.43-.74,1.63-.17.1-.47.02-.67.13-.06.03-.4.97-.5,1.07-.23.24-.62.19-.74.37s.02.55,0,.56c-.26.21-1.26.16-.89,1.05-.94.22.03.86-.67.99v.35c1.25.34.92.81,1.43,1.71.12.22.56.33.53.83l1.01.04.37,1.38.7-.35.53,1.76.7-.18.18,1.41.8-.02c.13.87.73,1.03,1.03,1.44s.66,1.15.97,1.49c.41.44,1.25.54.54,1.31,1.42,0,.74,2.93,2.27,2.29-.09.82.88,1.53.98,2.09.07.38-.6.83.27,1.16l-1.36,2.37c-.49-.12-1.2-.1-1.64-.26-.35-.12-.55-.51-.81-.57-.15-.03-.39.14-.41.13-.07-.07-.07-.93-.15-1.17-.16-.53-.62-1.36-.86-1.77-.48-.85-.96-1.19-1.36-1.8-.28-.42-.04-1.03-.8-.88l.18-.35h-.71c.09-.88-.09-1.56-.7-2.21l-.7.27c0-.78-.6-1.12-.18-1.93l-.88.18-.18-1.06-.7.17-.04-.66-.83-.5.34-.77h-.53s.15-.32.15-.32l-1.46-1.08-.09.35c-.28.08-.12-.25-.21-.29s-.26.07-.32.02c-.27-.21-.23-.9-.61-1.13l-.09.53-.86-.45.16-.6-.77-.19-.64,1.24.52-.17c-.3.9,0,1.58.12,2.4.09.59.08,3.42.24,3.79.07.15.33.14.35.25.04.31-.4,1.34-.33,1.56.03.1.31.07.33.19.12.62-1.1,1.48.52,1.65-.54.59-.58,1.79-.35,2.5.08.24.66.17.43,1.21-.08.35-.39.29-.43.45-.16.77.13,2.49-1.05,2.76-1.41.32-2.07-1.06-2.96-1.68-.14-.39.43-.8.44-.93.01-.21-.55-.68-.13-1.14l-.7-.09.71-1.57-.34-.17c.28-.69.21-1.78-.72-1.51-.06-.06.24-1.6.29-1.71.11-.26.43-.13.41-.46-.07-1.12-.61-.73-.7-.81-.19-.18.31-.81.29-.96-.01-.17-.32-.36-.37-.6-.09-.45.03-1.14.08-1.6l-.35.18c-.17-.47-.17-.98.01-1.45s.17,0,.24-.93c.01-.16.26-.3.26-.34,0-.06-.78-.48-.7-.96l.7-.09c-.2-.42-.67-.07-.7-.09-.39-.3.52-2.09-.16-2.19.13-.97.17-2.91-.38-3.53l.18-.95h-.53c.39-.74-.29-2.02.53-2.37-.59-.1-.53-1.51-.35-1.89.07-.15.36-.13.35-.22-.08-.46-.92-.84-.18-1.49h-.7c.04-.63.63-.95.48-1.5-.03-.1-.24-.04-.28-.17-.01-.05.16-.29.11-.49-.09-.37-.7-.63-.32-1.18h-.53s.18-1.4.18-1.4c.18-.11.66.22.52-.36h-.7c-.29-.66.52-.87.54-.99.09-.61-.46-1.85-.47-2.43,0-.17.22-.37.22-.54.01-.58.09-1.23-.48-1.39.39-.49.32-1,.47-1.49.04-.13.34-.27.39-.47.09-.38-.36-1.29-.23-1.64.08-.22.55-.42.67-.69.07-.16-.13-.48.1-.63l1.86.26c.27.13.24,1.16.29,1.21ZM225.93,33.09l-1.05-.35v.71s-.35.08-.35.08c.39.36.53.63.35,1.14h.53c.12,1.09-.66,1.67-.34,2.68.03.1.57.43.42,1.03l.44-.02.18,2.1c-1.12-.16-.16.94-.06,1.35.07.29-.19.92-.09,1.17s.41.22.48.38c.06.14-.53,2.47-.5,2.9l.52-.17c-.26.59.15,1.33.11,1.75-.05.58-.69,1.13.42,1.32l-.7.96.52.35c0-.53.63-.55,1-.76.1-.06.14-.32.24-.38.28-.17.59.15.79-.07.21-.24.18-.73.44-.98.43-.42,1.6-.59,1.05-1.49,1.37-.03.97-.12,1.31-.88.16-.35.31-.96.33-1.01.21-.42.88-.79,1.07-1.11.12-.2.67-1.84.64-1.99l-.36-.19.36-.88-.37-.18c.17-.25.56-.97.54-1.22,0-.06-.5-.33-.39-.95l-.42-.02-.08-.89-.52.35-.18-1.58-.52.18c0-.52-.15-.93-.67-1.09l.14-.31c-.69-.1-1.13-.31-1.25-1.05l-1.03.33v-.7c-.79.53-.82-.66-.97-.71-.59-.18-.62.31-.69.32-.06.01-1.11.09-1.14.04-.08-.15.16-.58-.18-.53v.35Z"/><path d="M115.17,27.87c.05.02.08.27.17.31.5.18,1.19.2,1.64.61.15.13-.11.52.43.61l-.1,1.49c-.06.36-.95,1.11-1.23,1.24-.56.24-1.02-.35-1.82.45-1.11,1.1-.77,2.07-1.1,3.28-.05.19-.33.21-.35.26-.02.04-.09.6-.11.62-.03.04-.85.15.04.46-.26.32-.16.75-.25,1.08-.05.18-.3.3-.34.42-.09.27.13.58-.1.94-.16.26-1.14.54-.19.91l-.35.26.52.09c-.13.79-.54.53-.79.78-.09.09.05.67-.01.9-.17.6-.76,1.02-.59,1.81.07.35.43.57.35.98h-.53s.12.31.12.31l-.29.15c.09.5-.31,1.23-.25,2.03.03.44.35.93.35,1.29,0,.52-.67,1.79-.63,2.1.04.34.37.44.45.71.11.37-.2.94-.19,1.05.02.26.27.49.28.88.02.76-.82,1.36-.67,1.94.02.06.86.5-.04.88l.71.88-.7.7c.13.29.42.09.48.14.89.7-.39.76-.13,1.17.02.03.24-.05.31.09.51,1.02.69,1.95,1.31,3.12.32.6.24,1.55.44,2.19l.78.69.31-.12c-.1.86.81,1.31.71,2.11l.7-.35.35.53c-.26-.89.74-.63.35-1.4l.88-.26-.35-.26c.26-.2,1.08-.66,1.24-.83.65-.67,1.22-2.77,1.55-3.26.12-.18.47-.21.49-.38.03-.2-.23-.46-.09-.77.02-.04.24-.07.3-.17.29-.46.4-.99,1.06-.92l-.35-.26c.53-.41.88-.99,0-1.15l1.23-1.67-.35-.33.71-3.27-.53-.09c.14-.28.98-1.31.17-1.06l.35-1.14c-1,.12-1.99.61-2.99.35l-.09.7c-.32-.04-.64-.7-.74-.71-.26-.04-.55.17-.82.13-.19-.02-.52-.31-.85-.37-.78-.14-2.56.06-2.07-1.23l-.36-.1,1.58-1.05-.35-.52c.21.03.43-.1.62-.09.62.03,1.63.01,2.26-.1.59-.1,1.34-.68,1.95-.86.17.4.28.44.71.5.73.09,1.72-.21,2.41-.28.37-.03.53.47.48-.4.49-.08.69.48.81.52.1.03.52-.11.75-.08.8.09,1.59.17,2.39.27l.17-.7c.54.42,1.33.55,1.15,1.4l.7-.18c.67,2-1.56,3.68-3.34,2.81v.87s.52.18.52.18c-.16,0-.2-.05-.3.1-.28.42-.13,1.31-.26,1.71-.08.26-.42.4-.44.57-.01.12.25.41.24.71,0,.34-.29.76-.23,1.38.05.55.62.59-.41,1.08.53.28.07,2.66.22,2.87.1.14,1.29.89-.04.91.6.6,0,1.44.7,2.02l-.35.17.53.27c.01.39-.66.68-.7.82-.15.55,0,2.33.88,2.16v.17c-.79.01-.1,1.49-.34,2.09l.65.27c-.1,1.36-.54,2.28-1.65,3.08l-2.7-.18c.25-.34-.4-.71-.36-1.31l.36-.27-.33-.08.14-.43-.34-.1c.59-.13.11-.93.53-1.41l-.53-.09s.42-.88.45-1.05c.03-.21-.2-.34-.2-.44.01-.22.49-.7.28-1.15-.4.28-1.53-.06-1.58,0-.02.03.03.34-.1.52-.11.14-.39.15-.43.31-.18.73.26,1.23-1.05,1.28l.53.52c-.5-.12-.15.35-.33.45-.89-.01-.58.28-.82.59-.41.51-.55.13-.25,1.25l-1.42.08c-.43.29.23,1-.26,1.14-.43.13-.57.03-.69-.34l-.88.99c-.4-.31-1.13-.09-1.44-.25-.66-.33-1.33-1.31-1.98-1.09.15-.67-.3-.43-.52-.65-.25-.23-1.57-1.7-1.64-1.85-.12-.27-.01-1.1-.3-1.64-.31-.58-.63-.39-.79-.6-.23-.31-.26-1.49-.31-1.55-.39-.49-.79-.68-.98-1.57-.12-.57.16-.87.14-1.17,0-.05-.55-.23-.35-.63l-.35.18v-.88s-.53.17-.53.17c.18-.62.61-1.34.45-2.02-.08-.34-1.08-1.17-.1-1.58l-.88-.44c.63-.16.59-1.56.71-2.19l-.53-.1c-.22-.59.49-.61.52-.81.12-.74-.82-1.29.37-1.76-.14-.65-.42-1.55-.32-2.22.09-.57.48-.31.48-.74l-.7-.53.7-.62-.35-.18.35-1.05c-.24.13-.55.13-.51-.24.24-.49.68-.85.75-1.43.06-.48-.2-.99-.16-1.15.07-.31.58-.63.58-.77,0-.17-.92-1.12.22-.97l-.53-.26c.52-.22.23-.86.7-.79l-.53-.17.35-.62-.35-.17c.13-.26.4-.47.53-.71.49-.88.02-1.22.19-1.72.07-.22.37-.23.45-.35.48-.76-.05-.62-.09-.73-.23-.63.74-.73.77-.78.04-.07.02-1.36.24-1.66.13-.18.4-.06.51-.14.2-.15.03-.52.1-.63.14-.23,1.22-.87.3-1.18.78-.33.51-.76.75-1.09.21-.29,1.16-.9,1.27-1.11s.06-.66.09-.69c.08-.08.7.09,1.01-.05.52-.24.7-1.29.76-1.34.08-.07.98-.05,1.17.03ZM121.54,64.7c-.77-.14-.11.74.18.52l-.18-.52Z"/><path d="M272.31,28.9l-.16.68c.25.16.7.01.84.06.46.16.3,1.25.61,1.74.2.31.53.36.63.6.18.47-.13,1.45.56,1.72.16.06.95-.27.59.76-.08.23-.46.16-.43.47l.37,1.32.88-.18-.33.19.17.76-.37.21c.1.52.25.81.72,1.06l-.35,1.55c.8.41.66,1.12.78,1.87l.44-.02c.12.39-.34.67-.34.97,0,.19.22.36.25.53.14.92.12,1.99.41,2.66.09.2.25.35.39.5l-.35.61h.7c-.53.88.02,1.01.14,1.54.05.22-.12.47-.08.63.12.52.62.95.3,1.52l.53-.17c-.14,1.27-.71,2.44-.03,3.64-.39.85.73,1.03.21,1.98l.7-.35c-.08.35.23.82.15,1.11-.1.39-.61.38-.28,1.31.02.05.3.05.3.13-.02.24-.4.7-.37,1.25.02.39.27-.14.21.88,0,.04.4.42.48.52.1.66-.5.84-.5.89,0,.11.21,1.15.26,1.31.24.69.95.92.27,1.58l.54.1c.11.54-.14,1.28-.1,1.75.06.73.87.71.47,1.56l-.73.11.12.31c-.27.2-.31.53-.82.83l.35.17c-.12.33-1.54.07-1.93.27v-.7c-.34.34-.93.04-1.04-.31-.08-.25-.17-1.69-.22-1.76-.06-.08-.32-.11-.39-.22-.36-.53-.3-1.99-.1-2.63h-.7s.35-1.58.35-1.58l-.7.17c-.08-.55.78-1.3.81-1.48.05-.34-.09-1.42-.63-1.33l.52-.79-.67-.29c.1-.44-.21-.63.33-.77l-.53-.09.35-.26c-.72-.22-.28-1.26,0-1.76l-.35-.25c.54.08.33-.45.35-.88l-.35.18v-1.58s-.32.14-.32.14c-.06-.36-.89-.8-1.18-.77-.21.02-.42.38-.7.39-.39.02-.82-.57-1.14-.02l.35.17c-.86.84-1.96-1.28-2.39.45-.98-.07-2.04-.82-2.62.34-.34.09-.47-.46-.44-.7-.75.31-1.38.33-2.1,0,.09.79-.63.59-.76.92-.16.4.08,1.51,0,1.9-.06.28-.32.39-.38.6-.36,1.17.29,2.6-.32,3.73-.06.11-.38.12-.41.3-.15.84.25,1.77.26,2.33,0,.22-.53,1.64-.67,1.99l.53.09c-1.26.67-.75,1.09-.97,1.93-.12.43-.45,1.6-.6,1.95-.13.3-.6.8-.93.75-.58-.1-1.61-.48-1.69-1.15-.07-.53.35-.5-.21-1.01.77-.85.25-1.07.24-1.59,0-.2.94-1.56.12-1.75.63-.51-.02-1.33.7-1.94-.24.08-.47-.93-.47-1.05,0-.22.58-.67.58-.88,0-.33-.75-1.29.06-1.94l-.34-.16c0-.69.67-1.01.7-1.1.18-.63-.36-.61-.36-.67.02-.26.51-.46.53-.57.09-.44-.05-1.06-.53-1.19l.88-.44c-.25-.35-.1-.78-.18-1.11-.04-.15-.33-.12-.33-.2.02-.93.89-1.56.94-2.36.03-.51-.47-1.03-.43-1.07.02-.02.24.02.28-.04.05-.09-.04-.25.06-.4.19-.3.68-.43.54-.97-.06-.09-.6.48-.53-.09.1-.82.58-.51.71-.73.21-.38.25-1.33-.35-1.29l.35-.25-.34-.72.86-.88c.12-.27-.41-.22-.43-.75,0-.14.16-1.38.21-1.57.18-.77.74-.83.93-1.54l-.35-.17c.44-.87.34-1.91.71-2.9-1.06.22-.23-1.05.35-.88l-.52-.52c.53.07.18-.28.29-.48.06-.11.3-.55.33-.57.2-.22.65-.14.76-.46.14-.39.13-.95-.33-1.03.29-.14.4-.59.57-.74.07-.06.37.14.49-.14l-.35-.26c.2-.04.95-.68,1.01-.76.2-.29-.24-.74.75-.29.2-.56.23-.77-.17-1.23.48-.19,1.38-.07,1.76-.26.34-.17.27-.66.39-.75.82-.68,2.4.38,2.86-.57l.6.37ZM270.89,33.65c-1.02-.28-1.24.23-1.91.77l.53.26-.32.19.15.33h-1.05s.02.69.02.69l.51.19c-.22.02-.79.52-.87.67-.24.54.12.68.07.91-.11.46-.68.57-.87.88-.42.72.29,1.35-.62,1.66l.52.35-.7,1.41c.16-.06.56.9.52.95-.01.02-.3-.04-.34.11-.07.23.29,1.4-.04,1.62l-.49.03c.31.69-.18,1.71-.46,2.39.12.8-.42,2.3.5,2.59.58.18,1.57-.06,2.25.29v-.7c.35.03-.01.47.5.22l.12.3c.79-1.07.93-.17,1.22-.16,1.02.03,2.23-.88,3.44-.37l-.15-.32c.92-.17.11-.94.33-1.43l.35-.17h-.53s.35-1.05.35-1.05h-.7c.29-.43.01-.92.14-1.33.11-.37.41-.13.39-.42-1.06-.16-.48-.27-.58-.97-.06-.41-.48-.64-.12-1.14h-.53c.15-.5-.23-1,.52-1.06.06-.24-.25-.16-.42-.36-.8-.93.19-.98-.28-1.8-.31-.53-.2-.67-.41-1.13-.33-.72-.08-.4-.17-.99-.14-.95-.48-1.69-1-2.49l.35-.33-.19-.6Z"/><path d="M206.31,29.51c.57.35.91.36,1.4.59.19.09-.03.59.64.18-.06.32-.13.59.01.91.48,1.11,1.15,1.21,1.3,2.7.14,1.35.33,2.18.7,3.57.14.52-.15,1.2.8,1.43-.5.6-.65,1.64.35,1.58l-.7.79c.65.49-.02,1.02.33,1.77s1.07.54.39,1.9l.68.54-.54.7c-.03.55.3.39.34.56.2.71-.32,2.28.9,1.64-.14.91.65,2.52-.35,2.9l.35.17c-.65.67.53,1.87.54,2.82,0,.33-.33.15-.38.51-.08.54.38,1.01.33,1.89-.07,1.24.04.91.17,2.02.07.58-.53,1.41.74.93.26.52-.32,1.52-.31,1.81,0,.06.23,1.07.26,1.12.17.34.38.42.76.41-.49.67.18,1.55-.7,1.84.31.45.56,1.38.62,1.93.05.44-.42.92.27.71.55.4.27,2.82-.89,2.37l.15.32-2.61.73c.09-.24.11-.49,0-.74-.09-.18-.98-1.37-1-1.46-.21-.79.89-2.08-.58-2.19.31-.41.37-2.56.19-2.87-.11-.2-.36-.11-.54-.11l.7-1.05-.31.14-.56-.57.7-.7c-.38-.95-1.89-.65-.36-1.78-.67-.71.17-2.54-1.05-2.53.74-.82.23-.88.19-1.51-.03-.52.42-1.06-.17-1.2l.16-.62-.7.17.33-.26-.15-.62h.51s.02-.88.02-.88h-.7c.1-.2.39-.78.32-.96-.03-.1-.29-.07-.32-.21-.09-.43.06-1.01,0-1.46l-1.23-.18v.53s-1.26-.27-1.26-.27l-.76.74c-.55-.08-1.24-.52-1.73-.59-1-.15-3.42.38-4.44.47-.52.05-1.1-.43-1.55.17-.15.2.08.79.04.85s-.33.09-.46.32-.47,1.67-.38,1.82h.44s.08.88.08.88h-.52c.07.47.07,1.41-.53,1.41l.35.35-.36.09.33.87c-.94.31-.18,1.15-.44,1.62-.15.28-.49.29-.52.48-.12.68-.11,2.11-.24,2.61-.04.16-.38.18-.49.42-.45.91-.74,2.16-1.09,3.14-.27.75.09,1.12.01,1.54-.03.16-.68.32-.8.64-.07.19.13.43.05.67-.04.12-1.63,1.27-1.81,1.27l-.18-.17c.24-.54-.3-.25-.54-.52-.14-.16-.18-1.7-.1-2.04.11-.52.69-1.72.73-1.94.12-.58-.32-1.25,0-1.88l.54-.12-.53-.45c.11-.18.12-.65.22-.74.25-.22.56.36.4-.74h-.44c-.02-.8.31-1.4.65-2.1.23-.48.75-.33-.12-.79l.68-.73c.14-.48-.3-.57-.32-.8,0-.1.13-.81.18-.89.18-.3.5-.19.5-.47l-.52-.27c.41-.41.32-1.08.54-1.53.09-.19.57-.38.66-.8.1-.48-.84-1.79.38-1.27l-.52-.7.33-.08-.14-.42c1.01-.21.03-1.06.5-1.77l-.33-.19.32-.03-.11-.3c1.43-.62.17-.95.21-1.35.02-.37.55-.58.64-.75.1-.18.02-.42.11-.57.23-.4.82-.9.91-1.36.11-.59-.45-1.17.2-1.1v-.26s-.36-.2-.36-.2l.19-.95.53.18c-.18-.62.38-1.19.46-1.49.07-.26-.12-.7.25-1.06l-.36-.34c.47-.74.78-1.53,1.24-2.29.42-.69.27-.27.64-.66.26-.27.48-.79.75-1.09-1.22-.57.04-.71.7-1.14l-.34-.78c.16-.4.97-.37,1.15-.62.1-.15-.09-.39-.05-.49.19-.44.92-.33,1.17-.48.46-.26.83-1.85,2.11-1.32l-.17-.7c.49.3,1.48.18,1.86.33.34.13.38.41.49.48ZM205.54,33.97l-1.41-.17.18.35c-.39.06-.75.16-1.06.44-.29.26-1.02,1.84-1.23,2.25-.1.19-.6-.02-.17.73l-.36.27.7.09c-.33.72-.97.63-.89,1.48h-.69c.47.83-.11.67-.32.92-.03.03.11.64.07.84-.07.36-.48,1.96-.62,2.16-.56.82-.22.39-.45,1.03-.28.79-.98,1.19-.61,2.26l1.03-.2.03-.68c1.2,1.15.96.44,1.89.21.56-.14.9.27,1.53-.39.47-.12.18.44.27.53.61-.15,1.32-.08,1.23-.88.28-.08.1.24.21.3.25.15.76-.15.67.39l.28-.36c1.03.28,2.2.39,1.93-1.04-.06-.32-.41-.67-.38-.97.03-.37,0-2.41-.15-2.81-.1-.25-.41-.36-.46-.71-.08-.54.36-1.18.35-1.73-.11-.32-.57-.16-.7-.41-.18-.32.01-.92-.02-1.01-.03-.11-.7-.31-.33-.97l-.35.18-.18-2.11Z"/><path d="M67.48,28.28c.99.74.68.63,1.13,1.6.56,1.22,1.02,2.82,1.8,3.96.09.13.35.12.36.24.04.36-.29.63-.32.88-.04.41.47.92.13,1.47l.7-.17-.35,1.75.88-.35c-.09.53-.43,1.52-.29,2.03.06.22.37.19.43.28.04.06-.12.33-.06.5.14.42.54,1.08.46,1.47l-.37.2c.4.48.13.95.22,1.35.12.58.77,1.06.83,1.31.08.31-.25.52-.27.83-.05.72.62,2.2.29,3.07h.53c-.08.52-.42.95-.47,1.47-.06.59.41.86.39,1.18,0,.2-.39,1.59-.62,1.39v.35s.36.1.36.1l-.19.42h.53s-.18.42-.18.42l.36.21v.33c.04.39-.53.44-.63.61-.13.22.42.79-.26.71.88.57-.04,1.39.7,1.66-.11.42-.65.6-.68.65-.17.3.48.77-.2.67l.53.18-.35.25c.78.95-.21,1.11-.33,1.44-.15.43.4,1.56-.73,1.47.16.19,0,1.81-.05,1.9-.02.04-.25.05-.3.15-.56,1.24-1,2.48-1.83,3.32-.14.14-.58.43-.6.46-.12.27.17.62.14.66-.05.07-1.33.51-1.52.53-.54.05-1.49-.13-2.06.02-.21.05-.61,1.04-1.08-.36-.34.53-.49.09-.73.07-1.18-.1-.62-.1-1.44-.73-.23-.17-.5-.07-.52-.08-.09-.1-.6-1-.56-1.19l-.7.52.13-.31c-.69-.09-.04-.78-.16-1.06-.02-.05-.69-.83-.73-.87-.1-.08-.38,0-.44-.07-.08-.09-.02-.7-.15-.99-.19-.45-.93-.18-.24-.91-.77-.07-.58-1.27-.75-1.85-.03-.09-.27-.09-.34-.34-.12-.4-.09-.93.03-1.33l-.7.17c-.14-.4.23-1.01.19-1.29-.03-.17-.46-.16-.53-.4-.09-.29.13-.51.14-.69,0-.07-.51-.61-.61-1.25-.11-.7.18-.86.21-1.21.02-.22-.39-.9-.28-1.36.02-.1.51-.16.32-.74-1.15-.5.45-1.48-.56-2.13-.16-.1-.42,0-.46-.15-.04-.8.81-.81.71-1.49h-.7s.35-.18.35-.18l-.35-.61.35-.17-.35-.17.53-.88-.35-.17c.28-.27.56-1.25,0-1.15v-.17c.41.03,1.15-1.56.17-1.23.38-.74.7-1.24.79-2.12.06-.61.15-.87-.44-1.12.37-.38,1.15-1.57.38-1.7l-.03-.23.78-.62c-.24-1.17-.27-1.31.62-2.2l-.35-.09.35-.53-.35.09c-.04-.55-.31-.99.35-1.23l-.36-.2c-.19-.75.67-1.25.87-1.94l-.34-.32c.54-.41.56-1.46.75-1.81.05-.09.39-.14.53-.43.12-.25.09-.76.15-.82s1.81-.27.68-.81c.39-.83,2.11-.43,1.58-1.49.81-.25,1.88-.44,2.72-.27.22.04.32.34.55.4.17.05.42-.14.72,0,.09.04,1.3,1.05,1.52,1.21ZM64.65,31.82c-.17-.29.02-1.11-.21-1.28-.58-.19-.93.48-1.24.88l.52.43c-.5-.12-.16.35-.33.45l-.72.08c.31.62-.22.69-.4,1.11-.16.37.23.79-.47.83v.17c.52-.09.38.47.33.86-.97.22-.51.27-.6.63-.2.8-.4,2.38-.45,3.18-.01.23-.18.35-.3.52,1.29.75.18.94,0,1.62-.07.25.1.49.07.67s-.34.34-.27.43c.03.04.6-.03.22.66-.16.29-.45.21-.53.7-.1.64.31,1.62.26,2.27-.06.72-.6,1.99-.56,2.79s.37,2.12.61,2.89l-.7.27.7.09c-.12.29-.41.43-.45.78-.1.83.61.98.62,1.06,0,.04-.25.18-.26.34-.01.19.04,1.67.08,1.74.18.31.77-.15.36.46l.53-.17-.21,1.03-.49.02.72,2.09.68.02c-1.33,1.62.24,1.77.35,2.23s-.05,1,.18,1.45l.7-.35c-.28.5.2.4.32.56.1.14-.18.79-.14,1.01.68-.33.44.06.66.16.46.2,1.17.31,1.36.72.24-.43.83-.18.94-.22.09-.04.55-.8,1.26-.48-.5-1.14-.14-.68,0-1.01.1-.25.02-.85.06-.89.15-.19,1.03-.34.13-.65l.53-.27-.52-.44c.54-.39.51-.89.69-1.37.04-.1.29-.12.31-.16.09-.18-.19-1.56-.1-1.78.09-.24,1.08-.5-.02-.99l.32-.2-.11-.3.49-.3-.7-.61c.86-.06.26-.85.43-1.42.12-.37.45-.35.45-.43,0-.36-.49-.71-.48-.87,0-.24.64-.67-.06-1.23l.34-.16c-.21-.81-.48-1.73.02-2.47-.59-.12-.09-.65-.26-1.15-.57-.05-.41-.05-.58-.62l.49-.25c-.62-.65-.61-.92,0-1.57-1.34-.21-.42-.53-.39-.61.1-.24-.19-1.43-.66-1.33l.34-1.05-.7.18c-.24-.76.58-1.85-.35-2.28l-.18.35-.16-1.33.33-.16c-.61-.47.03-1.09,0-1.15-.02-.04-.67-.02-.35-.7l-.53-.1c.02-.4-.15-.83.35-.8v-.25c-.88-.35-.18-.57-.33-1.2-.04-.16-.39-.21-.54-.38-.73-.83.04-.99-.06-1.51,0-.05-.54-.84-.58-.87-.15-.16-.63-.25-.72-.38Z"/><path d="M140.52,28.7l.18.88c.73-.6,1.69-.22,2.54-.17l.09-.53h.88s-.18.7-.18.7l.7.19-.13.3c.74.33,1.02,1.45,1.9,1.27-.21.87-.42,1.17.18,1.93l.52-.35.35,2.28.52-.18c-.59,1.24.07,2.29-.18,3.51h.53s-.35,1.05-.35,1.05h.53c-.35,1.28.4,2.68,0,4.03l.7.19c.08.28-.26.13-.3.2-.09.2-.04.89-.4,1.2l.54.1-.19,1.31h.53s-.17,1.93-.17,1.93l.44-.13.24.21c.04.12-.19,1.36-.14,1.56.03.13.28.1.31.2.15.43-1.25,1.68.03,1.49.08.28-.25.12-.29.21-.04.07.07.32-.05.48h.52c.02.5-.08.79-.53.98l.33.1c0,.47-.21,2.67-.11,2.89.21.43.89-.03.54.79-.51,1.21-.18,1.75-.09,3.07.05.77,0,.64.17,1.45.07.32-.23.61-.02,1.05.24.49.58.3.75.41.15.1-.45,1.06-.48,1.17-.02.07-.02,1.46,0,1.54.01.1.23.07.25.14.12.34-.03.6.38.74l-.03.36c-.44.26-.43.59-.63,1.04l.53.09c.09.96-1.39,1.54-.18,2.37l-.62.4c-.52-.88-1.5.29-2.28-.3-.49-.37-1.31-2.14-1.17-2.79l-.32-.03.52-.79c-.75-.22.34-.95-.7-.79.19-.51-.05-1.01.7-.88.03-.3-.42-.16-.52-.46-.06-.19-.02-1.68.52-1.47v-.17s-1.05-.53-1.05-.53l.7-.97-.52-.27.45-.51c-.24-.81,0-1.05-.8-1.51.47,0,.6-1.05.53-1.37-.03-.14-.34-.1-.36-.23-.04-.22.21-.83.14-1.03-.03-.1-.31-.03-.33-.34-.05-.66.38-1.25.37-1.93l-.53-.1.18-.7-1.83.36c-.19-.73-1.33.03-1.77.08-.78.08-2.52-.81-2.74.43l-1.67-.69-.34.34-1.24-.53c-.14.45-.34.38-.79.35.26.47-.23,1,.35,1.14l-.36.7.36.26c-.37-.06-1.16,1.2-1.17,1.32-.03.27.41.89.29,1.57-.07.39-.7,1.28-.79,1.68-.11.48.06,1.12-.2,1.72-.1.22-.4.2-.41.32,0,.08.16,1.08.19,1.17.07.19.39.09.34.21-.23.59-1.19,1.01-1.23,1.09-.16.28-.08.86-.19,1.15-.13.33-1.29,1.56-1.66,1.54-.07-.41-.54-.68-.58-1-.09-.69.05-1.62.34-2.25l-.37-.52c.82-.66.58-1.92,1.05-2.81l-.54-.37c.51-.59.16-1.06.22-1.53.1-.72,1.04-1.16-.03-2.15,1.27-.39.53-.99.69-1.73.03-.13.79-.16-.14-1.08l.47-.76c-.45.04-.4-.79-.32-1.14.03-.14.35-.11.35-.22,0-.21-.25-.52-.19-.84.02-.1.65-1.33.73-1.6.11-.37.46-2.03.33-2.2l-.53.08c-.1-.4.74-1.47.88-1.93l-.53-.1.07-.7.81-.17c-.44-.54.09-.87.09-1.23,0-.53-.37-.14-.54-.34-.07-.09.14-2.08.22-2.24.15-.32.71-.45.76-.92l-.7-.35c.66-.03.86-.53,1.23-.97.06-.15-.35.04-.37-.34,0-.12.47-2.17.53-2.27.11-.2.36-.11.54-.11-.2-.51-.46-1.02.35-.88l-.53-.18c-.09-.91.73-.95.79-1.04.07-.11-.23-.44.27-.36l-.35-.35h.53c-.47-1.17.87-1.4.86-2.56l-.33-.16c.54-.12,1.01-1.25,1.08-1.29.16-.1.51.03.73-.03.16-.04.06-.56.83-.25.26-.2-.03-.79.52-.63ZM142.46,32.92c-.35-.32-1.82.39-1.91.55-.11.2.17.6.13.9-.02.11-.65,1.78-.72,1.9-.23.36-.52.66-.83.95.58.21.4,1.09-.35.97l.52.44c-1.08.6-.36.66-.54,1.21-.08.24-.71.58-.78,1.68-.06.88.51.83-.21,1.8-.02.03.03.47-.06.71-.04.12-.27.11-.3.22-.1.35.06,1.26.29,1.59-1.16.52-.08,1.68-.33,2.54l-.52-.18c.03.51-.23.99.35,1.14l-.71.72.29.78c1.13-.04,2.11-.68,3.23-.36v-.53s1.5.53,1.5.53c.21-.38.24-.49.7-.49l.53.5h.34s.19-.33.19-.33l.41.12c.09-.75.49.05.79,0,.9-.15.4-.96.69-1.17.13-.09.42,0,.48-.03.05-.03-.05-1.18-.07-1.24-.1-.38-.48-.36-.58-.59s.38-.71-.23-.62v-.17c.52.07.19-.26.3-.48.12-.26.42-.15.42-.47,0-.83-.53-1.19-.65-1.67-.08-.32-.15-1.63.1-1.86-1.27-.55-.15-1.59-.53-2.41-.29-.61-.12-.41-.25-.86-.12-.41-.54-.75-.45-1.28.03-.17.56,0,.36-.46h-.7s.35-1.23.35-1.23h-.52c.23-.31-.16-2.54-.7-2.11l-.17.35.17-1.05Z"/><path d="M14.4,22.68c.56.43,1.43-.45,1.09.59.47.46,1.22.37,1.15,1.22l.7-.18c-.26.59.12.72.37,1.14l-.37.71.52.35c-.87.52-.07,1.78-1.21,2.05l.15.32c-2.07.3-1.22-1.49-1.67-2.11-.13-.18-.47-.14-.62-.27-.2-.17-.12-.48-.29-.62-.07-.05-1.48-.67-1.56-.68-.06,0-.06.27-.21.33-.42.16-1.86.1-2.15.29-.04.02-.62.6-.65.64-.04.07.11.86-.04,1.28-.36,1.03-1.71,1.89-1.76,3.35.68.23-.08,1.57.01,2.25l-.55.11c.56.58.03.78.04,1.11.01.47.78,1.22-.04,1.44.56.38.59.85.53,1.49l.52-.18-.33,1.32c.53.47.53,2.19.87,2.93.08.18.49.33.62.84.08.32-.09.54-.05.67s.77.57,1.01.38l-.18.52c.82-.11.69.53.94.82.18.22.67.3.78.44.04.05.05.99.13,1.2h.79s.04.49.04.49c1.09.39.93,1.78,1.98,2.68.47.4.56.27.96,1.01.2.37-.26.66.89.74l-.35.26.35.97.52-.18c.27.42-.08.97.02,1.29.06.21.78.37.78,1.26,0,.12-.24.28-.23.35.02.27.52.35.61.47.04.05-.06.9.13,1.2h.79s-.16.45-.16.45l.34.16-.53,1.32.7.09-.2.76-.49.12.7.09c.08.7-.33.95-.48,1.35-.12.33.19,2.11-.75,1.81l.53.26c-.74.38.23,1.23-.53,1.14l.35.26c-.16.67-1.42,1.71-.53,2.11-.19.72-.99,1.09-1.35,1.56-.23.3-.71.95-.92,1.29-.15.24-.03.53-.05.55-.11.12-.71.16-.85.47-.21.46.6.08.52.43-.36-.07-.48.45-.56.5-.11.07-.42-.13-.68-.08-.09.02-1.31.81-1.43.86-.83.34-1.21.23-1.95.32-1.42.16-1.67-.07-3.01-.08-.39,0-.47-.47-.97.06-.08-1.06-1.5-.39-1.59-.43-.56-.24-.13-.92-.18-.98l-1.22.16c-.09-.2-.3-.95-.38-1.03-.03-.02-.23.15-.29.11s-.07-.36-.38-.4c-.39-.05-.22.54-.88-.17s-.32-1.28-.91-2l-.68.16c.05-.75.2-1.41-.01-2.15-.04-.14-.29-.13-.31-.17-.08-.16.15-.35.11-.46-.01-.03-.46-.05-.43-.46.03-.36.54-.69.29-1.13l.5-.02.02-.69c.28-.03.57-.02.84-.13.46-.19-.2-.6,1-.05l.26-.36c.3.69.62,1.41,1,2.07.22.37.65.1.23,1.09,1.17.05.74.45.99.88.11.2.37.32.48.52.08.14,0,.41.12.59.63.89,2.23.46,3.03.64.14.03.09.29.23.33.04.01.81.12.85.12.41.02.36-.62,1.19-.41.39.1.69.79.68-.2l1.21-.02-.18-1.05.51-.02c-.15-.86.86-1.08,1.22-1.7.24-.41,0-.95.15-1.23.18-.36.59-.03.22-.81.46-.16.68-.79.53-1.23-.08-.24-.41-.22-.48-.38-.08-.19.13-1.62.67-1.14.28-.92-.8-.63-.33-1.44.09-.15.35-.14.34-.23-.02-.46-.91-1.14-1.02-1.8-.12-.71-.64-1.96-1.16-2.62-.15-.19-.54.18.06-.58l-.69-.19c.51-.65-.69-.92-.7-1.13,0-.09.47-.3.34-.61l-.66.14-.4-.23.35-.78c-1.09.02-.81-1.16-1.31-1.59-.32-.28-.93-.23-1.11-.38-.14-.11-.22-.81-.38-1.11-.29-.55-.9-.63-.89-1.31l-.52.18c.09-.62-.63-.79-.76-1.1-.16-.37-.09-.76-.34-1.22-.22-.4-.68-.46-.88-.89-.25-.56-.28-1.97-.35-2.51-.02-.12-1.14-.67-.48-1.48l-.53.17c-.3-.74.36-.91.36-.97,0-.17-.68-1.47-.78-2-.07-.37-.3-4.11-.24-4.32.06-.19.83-.7.14-1.32,1.02-.37.25-2,.88-2.73l-.34-.33c.41-.31.65-1.41.91-1.64.19-.17.52-.15.62-.25.03-.03-.09-.6.39-.76l-.35-.17c.45-.86,1.42-.67,1.24-1.84,1.07.17,1.78-.58,2.68-.92.75-.29,1.95-.85,2.58-.32-.07-.74,1.41-.45,1.76-.26.24.13.26.45.4.56Z"/><path d="M166.39,27.07c.26.16,1.5.83,1.68.98.29.24.58,1.52,1.27,1.01v1.41s.36-.09.36-.09c-.31.65.2,2.87-.16,3.3-.16.19-.52.14-.75.37-.12.13.01.38-.02.42-.1.11-.64.23-.83.38-.65-.74-.79-2.55-1.33-3.17-.17-.2-.43.04-.7-.15s-.46-.74-.61-.83c-.18-.1-.39.19-.64.22-.46.05-.99-.08-1.39-.09-.1,0-.05.29-.2.32-.23.05-.59-.07-.74.02-.1.06-.08.44-.18.57-.12.17-.39.06-.49.15-.11.09-1.27,2.38-1.29,2.52-.06.5.28,1.45.29,1.74,0,.35-.61.55-.64.88s.17.8.18,1.14l.35-.09c-.22.26-.02,1.06-.04,1.11-.03.06-.51.1-.45.86.07.99.03.88-.02,1.7,0,.07.21,1.36.23,1.43.19.47.53.6.89,1.66.15.45.59.56.28,1.2l1.37.4.02.86.26-.35c.49.21.5.88.61.96.4.29.88.1,1.19.23.26.11.52.51.67.52.09,0,.24-.27.45-.23.52.1.56,1.01,1.22.8l.08-.35.64,1.04h1.03s-.18.54-.18.54l.43-.34c.35.02.94.55,1.05.87.07.2-.1.44.01.7.16.35.69.46.77.58.12.18-.07,1.94.91,1.37l-.33,1.38c.89.18.35,1.17,1.38.9l-.35,1.49.7.09c.26.35-.6,2.08.18,2.2l-.35.44c.5.03.44.3.51.68l-.86.2.26.71h.44c.06.09-.21,1.99-.28,2.24-.11.4-.43.43-.42.46.06.61.99.28.7.88-.14.3-.6.28-.88.27.07.39.2.92-.03,1.28-.14.22-.41.26-.46.34-.12.21.03.56-.13.83-.1.18-.71.39-.79.8l.36.19c.04.78-.35,1.07-1.06.77l.15.32c-.68,0-.77.94-.89,1.04-.27.23-1.47-.09-1.02.91-.97-.36-1.14.52-1.57.63-.71.19-1.46-.34-1.84-.29-.05,0-.24.61-.81.26-.84-.52-.29-.09-.93-.26-.13-.03-.13-.27-.26-.33-.49-.22-1.83-.21-2.41-.19l-.09-.53-.52.53c.02-.6-.69-.53-.9-.82-.24-.31.05-.44.09-.58.21-.73-1.07.04-1.13,0-.14-.35-.11-.94-.27-1.23-.2-.37-.64-.25-.81-.47-.04-.05-.25-1.1-.37-1.34-.14-.27-.46-.27-.49-.43-.02-.1,0-1.93.04-2.03.1-.32.49-.44.59-.66.08-.18-.27-.8.7-.8.26,0,.52.49,1.05-.25.21,0,.55,1.11.78,1.33s.62.22.68.29c.09.11,0,.44.13.67.08.13.34.14.39.21s-.23,1.26.52,1.74c.43.28,2.32-.37,1.81.86.42-.43.7-.17,1.27.02.24.08.09.47,1.06.14.16-.05.13-.32.25-.34.25-.04.56.17.77.09.32-.12.49-.74.54-.77.06-.04.45.28.7.09.22-.52.13-.84.71-1.09l-.19-.59c.78-.18,1.17-.49.87-1.27-.07-.17-.35-.13-.33-.22.03-.16.3-1,.52-.8v-.17c-.6.1-.17-.79-.2-1.15-.09-1.04-.28-1.89-.15-2.95.01-.12.3-.09.35-.23.04-.11-.26-.95-.32-1.03-.12-.17-.43-.2-.51-.29-.05-.06.15-1.23.11-1.46-.01-.08-.23-.07-.26-.12-.04-.08.11-.24.08-.28-.12-.14-.75-.31-.81-.42-.14-.25.14-.6.05-.86-.25-.72-1.05-.32-1.11-.36-.19-.13-.51-1.28-.73-1.47-.37-.32-1.08-.16-1.46-.3-.08-.03-1.12-.91-1.29-.99-.48-.23-.7-.28-1.24-.56-.78-.4-.91.28-.93-1.04l-.69-.02.15-.32c-.58-.49-1.08-.19-1.73-.39.45-.89-.59-1.21-.46-2.28-.29-.54-.72-.07-.94-.17.03-.37.13-1.1.06-1.41-.17-.74-1.39-2.13-.59-2.72-.84-.32-.21-.87-.22-1.19-.01-.36-.43-.85-.42-1.08.02-.25.72-.84-.01-1.01l.12-.31h-.53s.18-.88.18-.88h.71s-.54-.46-.54-.46c-.07-.44.38-.71.46-.95.06-.19-.2-.32-.2-.43,0-.26.8-.71-.42-.8l.36-.78-.36-.26.52-.09-.16-.41c.76-.24.75-1.29.97-1.95.18-.54.95-.87-.1-1.33.8-.45.72-1.72,1.75-1.32l-.27-.7c.33-.41.92-.4,1.27-.59.14-.08.3-.52.72-.6.25-.05.5.12.75.06.57-.14.92-.91,1.93-.45l-.18-.35c.51.28,1.32-.01,1.65.05.18.03.34.3.38.3.06,0,.27-.77,1.03-.5.24.08.24.39.33.44Z"/><path d="M193.07,29.05l.76-.16c.51-.02.25,1.89.17,2.04-.18.34-.5.42-.75.67l.35.61h-1.41s.18.35.18.35c-.74.31-1.4.12-2.11-.17l-.27.71c-.58-1.21-1.68-.38-2.64-.44-.29-.02-.5-.28-1.02-.26-.31.01-.86.3-1.12.4-.05.02-.05.29-.14.3-.11,0-.85-.27-1.01-.36-.17-.09,0-.51-.47-.35v.94s.34.19.34.19l-.69,1.15.7.09-.21.76-.49.03c.16.44.07.67-.17,1.05l.53-.17c.15.55-.44,1.35.18,1.49-.85.53-.2.75-.22,1.06-.01.21-.55.39-.49.7l.41.31c.2.29-.2.58-.19.75s.39.29.43.7c.04.44-.41,1.1-.45,1.59l.5.34-.35.79h.53s-.7,2.28-.7,2.28l.53.09c.05.56-.11,1.03-.54,1.4.62.29.38.98-.17,1.31.95.04-.53,1.61.68,1.42-.28.46.36.47.36.59-.2.48-.24.87-.87.8.3.51.42.58,0,1.05h.7c-.31.55-.12,1.09-.67,1.49l.67.88-.36.19c.31.51-.09,1.43.05,1.92.05.18.17.17.32.85.02.11.51.1.23.64-.22.41-.79.45.11.71l-.32.68c.44-.04.26,1.47-.03,1.77l.7.18c-.23.36-.03.8-.14,1.15-.1.32-.52.19-.39.68.02.07.27.07.3.13.27.49-.17,1.53.06,2.13l-.36.2.88.35c-.19.76-.72.82-.88,1.1-.17.32.02.98-.53.92-.05.08.63.57.08.7-.63.14-.58-.7-.79-.52-.12.49-.46.74-.95.66-.22-.5-.69-.78-.93-1.17-.3-.47.04-1.05-.76-.9l.14-.26-.49-.09c-.08-.29.26-.12.29-.2.17-.35-.02-1.57-.05-2.1-.01-.2-.21-.44-.21-.63,0-.65.54-.13-.03-1.25-.22-.43-.14-1.32.52-1.09v-.35c-.61-.01-.24-.47-.67-.62-.1-.63.49-.85.5-.91.08-.46-.33-1.09-.33-1.55,0-.39.29-.67.32-.88,0-.07-.65-.29-.66-1.15,0-.52.4-1.16.41-1.48.02-.57-.08-2.46-.16-3.02-.06-.42-.56-1.33-.43-1.72.05-.16.39.04.32-.26l-.52-.09c.22-.37.24-1.01.19-1.42-.05-.34-.37-.25-.37-.33.04-.32.47-.75.54-1.4.08-.74-.75-1.93-.52-2.47.08-.17.39-.12.44-.34.11-.44-.06-1.51,0-2,.09-.72.6-1.07.23-1.78l-.34.17c.17-.49-.32-.74-.33-.79-.16-.7.21-1.21.42-1.68.61-1.35-.17-2.96-.18-4.19,0-.47.74-1.79-.02-1.93-.39.04-.62.53-1.03.5-.22-.02-.38-.27-.53-.27-.22,0-.38.01-.72,0-.37-.02-.71.13-1.11-.07l-.27.7c-.4-.22-.67-.36-.62-.88l-.27.36-1.24-.35c-.14-.88-.64-1.23-.95-2.03.18-.4.55-.04.67-.11.07-.04.2-.49.47-.69.36-.27,1.16.08.97-1.04l.88.35v-.53s2.21.61,2.21.61c1.01.37,2.83-.39,3.47-.39.56,0,1.45.84,2.15.82.28-.69,1.1-.24,1.4-.22.77.05,2.13-.28,3.13-.12.08.01.06.51,1.09.37.32-.04.24-.28.34-.32.3-.1.98.05.97-.57l.8.52.08-.34c.36.28.92.44,1.36.23.31-.14.15-.73.74-.76.2.52.13.77-.17,1.23Z"/><path d="M251.38,31.21c.07.03-.07.49.75.21.12.09.09.43.27.45.17.02,2.08-.12,1.83-.53.37.43,1.53.88,1.23,0,.45.09,1.05,0,1.46.07.36.05.86.72,1.09-.07h.35c.27,1.05,1,.54,1.5,1.32.25.4-.11.93.7.79.4.23-1.91,2.1-2.2,2.2-.37.13-1-.11-1.23-.44,0,.36-.72.36-1.05.34-.24-.02-.4-.26-.54-.28-.19-.02-.71.43-1.06.31l-.34-.37-.27.53c-.27.06-.12-.24-.29-.36-.41-.27-.88.26-1.35.02-.73.67.5,1.13.57,1.3.16.42-.53,1.65-.69,2.1l.54.36-.36.7.36.17c-.67.77.3,1.6-.18,2.55l.53.09-.36,1.67h.53c-.52.96-1.3,2.19.18,2.55l-.36.2c-.22.5.15,1.81.07,2.13-.2.77-.91.7-.13,1.88l-.44.66c.12.76,1.33,1.18.59,2.05-.43.5-.61.26-.61,1.24h.53c-.28.43-.18.86-.25,1.28-.03.17-.27.35-.28.56,0,.38.68.82.69,1.23,0,.25-.26.47-.27.7,0,.14-.03,1.17-.02,1.23.01.18.46.35.49.71.02.29-.47,1.03-.31,1.62.01.05.62.63.64.69.17.68-.5,2.38-.17,3.64.07.26.55.67.68.94.57,1.2.26.76-.17,1.39-.17.25-.21,1.58-.54,1.95-.1.06-1.62.22-1.82.18-.12-.03-1.22-.49-1.27-.54-.32-.31.13-1.43-.73-1.2-.12-.6.27-1.2.29-1.62.03-.64-.71-1.79.05-1.97l-.32-.11c.02-.17.11-.31.04-.49-.27-.76-1-.36-.24-1.86-.05-.43-.46-.38-.51-.46-.08-.13.11-2.61.16-3.02l-.36-.2c.57-.78.06-1.83.35-2.73-1.35.5-.07-1.18-.88-1.31.58-.49.43-1.26.53-1.93l-.54-.1c.6-.87-.52-1.43.53-1.84v-.35c-.91-.24.83-1.17-.35-1.32.64-.69.34-.67.26-1.22-.11-.77-.22-.48-.26-.64-.18-.62.28-.55.34-.72.23-.67-.1-1.07-.08-1.36.03-.35.34-1.04.45-1.41l-.7-.09c.06-.54.37-.92.37-1.5,0-.64-.88-1.8-.02-2.1l-.53-.61c.51.05.82-1.01.18-.88l.35-.26c-.06-.18-.53-.77-.53-.87,0-.12.22-1.53.25-1.6.07-.16.78-.4.46-.77-.03-.04-.92-.16-.97-.15-.1.03-.09.29-.31.38-1.07.41-1.01-.28-1.32-.4-.66-.25-2.17.17-3.03.1-.35-.03-.76-.3-.96-.29-.1,0-.07.3-.18.33-.62.16-2.29-.96-2.87-1.22l-.17-1.29c.5-.68,1.18-1.6,2.25-1.14v-.53c.6-.11.91.39,1.5.37.36-.01.17-.44.51-.38.28.06,1.65.53,1.74.52.24-.04.4-.58,1.24-.5.53.05,1.05.23,1.75.15.74-.08.64-.58.92-.66.11-.04,2.22-.21,2.32-.16Z"/><path d="M144.04,16.94l-.09-.35c.81-.2.89.6,1.18.84.04.03.21-.12.27-.08.54.4,1.1,1.26,1.81.99-.15.5.06,1.23,0,1.65-.07.5-.53,1.6-.67,2.17-.04.17-.37,1.52-.42,1.6-.11.17-.74.09-.31.73l-1.06.08c-.26.17,0,.64-.15.86-.03.04-.86.54-.91.56-.28.11-.57-.12-.91-.05-.43.08-1.08.44-1.31.46-.42.04-.49-.72-.67.03-.64-.8-1.74-.38-2.03-1.4l-.52.35-.35-.97-.35.18c-.7.08-.11-1.08-.17-1.14h-.53s.19-1.31.19-1.31l-.54-.1c-.08-.29.32-.08.36-.29.06-.27-.15-.72-.09-1.13.04-.26.56-2.16.64-2.24.09-.08.35-.02.49-.03-.36-.39,1-1.29,1.37-1.36.42-.09.76.09,1.19,0,.57-.12,1.16-.61,1.83-.67.49-.04,1.54.79,1.76.63ZM142.42,19.61c-.18-.1-1.34-.07-1.6,0-.82.24-.67,1.45-.93,2.09l.66.83,2.07-.15-.18-.35c.71.24,1.49-.84,1.07-1.46-.12-.18-.56-.28-.81-.46-.15-.11-.2-.44-.29-.49Z"/><path d="M58.81,21.15v-.7s2.37.7,2.37.7l.35-.52c.25.02.5.52.56.53.52.08.86-.51,1.02.17.23-.08,1.02-.68,1.08-.69.2-.03.37.28.64.29.39.02.94-.23,1.51-.19.69.05,1.41.32,2.04.6l.36-.54c.46.81,1.26-.05,1.31,0,.13.11-.06.72.71.35.27.41-.55.35-.35.52.14.12.86.54,1.05.35l-.18.95.53.54-.63.6.28.54-.77.19-.19-.37c-.66.17-.27.89-1.58.69-1.09-.16-2.12.1-3.17-.02-.6-.07-.9-.92-1.23-.14l-.18-.36c-1.02.73-1.84-.67-2.45.71-.84-1.06-1.87-.69-3.08-.7l-.18.88-.63-1.07c-.96.14-1.94.28-2.89-.07l-.15-.19c.37-.77-.08-.52-.26-.78-.05-.08.03-.22-.01-.3-.05-.1-.38,0-.29-.66.03-.27.83-.78.89-1.25.54.13,1.25-.15,1.06-.77.43-.09.65.41.99.47.18.03.43-.13.64-.09.31.05.49.38.83.32Z"/><path d="M205.72,15.18v.53c.49-.26.79.17,1.19.31.17.06.43-.1.57-.03.22.1.44.68.69.89.22.19.47.11.54.17.3.28.77,1.53.8,1.92,0,.06-.08,1.13-.09,1.2-.02.12-.65.1-.2.89-.78.28-.52.46-.63.62-1.01,1.41-1.48,1.08-2.75,1.76-.14.08-.11.34-.13.35-.21.14-.9-.72-1.49-.63-.28.04-.41.59-.78.46l-.45-.7-.35.35c-.79-.2-.76-.91-.96-1.15-.31-.35-.93-.28-.54-.96-.42.15-.51-.27-.57-.3-.09-.05-.28.13-.3.12-.28-.21.03-3.05.65-3.42l-.31-.43c.9.25,1.37-1.28,1.7-1.38.34-.11.82.03,1.19-.03.31-.05.58-.31.86-.3.26.01.66.31.74.3.22-.02.15-.72.61-.52ZM204.66,17.64l-1.54.74c-.15.15-.2,1.38-.06,1.59.17.25.57.2.85.35.1.05.12.37.34.44.5.17,1.43-.06,2,.03l-.1-.54.64-.26c.11-.64-.61-1.34-1.24-1.31l.18-.52-1.05.17v-.7Z"/><path class="cls-1" d="M85.29,50.09s-.56.56-.73.39c-.69-.34.05-1.42.52-1.23.32.22.33.51.21.83Z"/><path class="cls-1" d="M121.54,64.7l.18.52c-.28.22-.95-.66-.18-.52Z"/></g></svg>