<?xml version="1.0" encoding="UTF-8"?>
<svg id="Layer_1" data-name="Layer 1" xmlns="http://www.w3.org/2000/svg" viewBox="0 0 485.24 200.23">
  <defs>
    <style>
      .cls-1 {
        fill: #fff;
      }
    </style>
  </defs>
  <path class="cls-1" d="M225.22,25.85c.17.94-.56,2.57-.48,3.18.08.58,1.03.68,1.02,1.37l-1.17,1.72,1.24.34c-.12.39-.27,1.01-.23,1.4,0,.07.87.92.88.99.01.1-.11,1.88-.15,2.02-.16.68-1.23.63-.8,1.86l1.26.16c.03.7-1.12,1.09-1.22,1.61-.08.43.52.92.55,1.51.04.92-.78,2.2-.25,3.29l1.23.03-1.54,2.32,1.2.97c-1.02.84.17,2.05.19,2.84.02.88-.76,2.15-.16,3.3l.94-.31-.14,1.9-.8.3.58.46-.59,1.73.95.16c-1.55.48.49,2.84-.94,3.77l1.56.47-1.26,2.04c1.56.48.06,1.78.07,2.45,0,.74,1.22,2.22,1.15,3.53-.04.74-.87,1.27-.27,2.16l-.63.19c.76,1.09,1.4,1.66.31,2.82h.95s-.63.31-.63.31c.48.66-.23,1.64-.22,1.73.03.36,1.21.91.85,1.73h-1.25c.41,1.4-.24,2.43,1.26,3.3l-.94,1.73,1.58.49c.13,1.22-.91,1.4-.96,1.61-.03.13.1,2.44.15,2.62.19.7,1,1.7,1,2.03,0,.58-1.35,1.53-1.1,2.2.08.23.84,0,.53.89-.18.53-1.07.9-1.11,1.31-.01.14.32.41.34.63.09,1.35.03,2.62.51,3.93l1.57-.31c-.32.38-.21,1.35-.38,1.52-.15.15-.69-.11-.9.25-.53.95-.18,2.72,1.28,1.68.31.82-.84,1.57-.91,1.78-.04.11.14.46.09.76-.22,1.32-.67,1.42.81,2.65l-1.19.93c.65.74.21,1.79.39,2.38.19.62.86.93,1.02,1.45.29.98-.71,3.29.73,3.26l-.64.51-.14,2.68,1.41,2.31-.63.31.63.47-.62.14c-.02.85.94,1.18.93,1.27-.2,1.07-2.84,2.61-.94,3.46-.85.67-.53,2.28.62,1.74.54,1.22-.63,1.66-.64,1.77-.1.7.74,1.73.36,2.59l1.22.51-.57.19.24.88-.61.19.95.16c.2.11-.84,2.19-.84,2.35,0,.62,1.24,1.21.7,2.05-.24.38-3.14,1.68-3.81,1.51-1.01-.25-.72-.71-1.19-1.11-.22-.19-.72-.12-.99-.4-.07-.07-.23-1.58-.51-1.88l-.6.3c.15-2.18-1.64-3.87-.32-5.81l-1.26-.48c.46-1.25,1.67-2.43,0-3.3l.8-.46.14-.64-.56-.05c.87-1.25-.55-1.88-.6-2.31-.01-.12.36-.46.37-.81.06-1.16-.54-3.02.48-3.28l-.69-1.36-.57.26c-.56-1.29.26-1.58.56-2.43.43-1.23-.6-.13-.83-.91-.44-1.49.58-1.26.62-1.84.06-.86-.44-4.69-.86-5.43-.19-.32-.65-.4-.68-.47-.15-.33.12-.69.08-1.03-.03-.24-.32-.46-.32-.62,0-.57.72-1.14.75-1.63.03-.44-.59-.67-.46-1.37.09-.5.72-1.15.71-1.41,0-.44-.97-2.75-.99-3.59,0-.4.45-.97.51-1.74.13-1.67-.67-1.48-.67-1.59,0-.4.73-1.49.58-2.19-1.39-.66.89-5.34-1.51-4.24v-1.88c1.23.29,1.12-.91,1.25-1.89l-.9-.03c.12-1.34-1.89-2.22.59-2.49l-.97-.8c-.13-.87,1.44-1.24.64-3.35-.21-.56-1.91-.85-.3-2.6-.97-.2-.56-1.62.31-1.88l-.65-1.85,1.28-.82c-1.61.2-.12-.5-1.26-.78.47-.56.72-2.74.62-3.43-.14-.93-1.06-1.83-1.11-2.54-.08-1.26,1.1-2.94.73-4.33-.28-1.03-1.16-1.3-.68-2.76l-1.13-.3.63-1.88h-.95s.95-3.14.95-3.14l-.94-.16,1.25-2.51-1.57-.17,1.53-1.73c-.44-1.7-.8-3.78-.8-5.52,0-1.13.74-1.57.19-2.88-.43-1.03-.83-2.58-.83-4.05,0-1.01.21-2.15.54-3.1l-1.25-.34c.42-1.45.12-1.84-.83-2.83l-2.01.34.32.62c-1.71.05-2.1,1.67-3.63,2.2-.24.33.34,1.1.8.95v.3c-.95-.16-.43.89-.93,1.42-.95,1.01-4.06,1.53-2.21,3.92-.59-.12-.64.52-.94.75-.17.12-.57-.11-.59-.08-.42.48.05,2.24-.05,2.59-.06.22-.5.21-.52.29-.13.43.32.95-.4,1.33l.94.31c-.93,1.01-2.39.81-2.63,2.36-.1.67.37,1.05.33,1.42-.02.23-1.4,2.32-1.78,2.51l.95.16c.06.78-.75,1.33-.88,1.79-.1.33.19.78.08,1.05-.29.7-1.74.7-2,.96-.08.08-.17,1.77-.3,2.37-.1.45-.56,1.03-.56,1.21,0,.27.7.79.53,1.53-.07.32-.77.25-.86.66-.07.34-.29,1.57-.32,1.9-.31,3.27-1.01,6.7-1.81,9.62-.15.57-1.97,1.59-.49,2-.44,1.66-1.75,1.44-2.07,2.05s.16,1.2.01,1.59c-.19.52-1.06.71-1.3.99-.07.08.2.51-.22.88-.57.5-1.85.82-2.6.91-.84.1-4.34-.51-4.84-1.06-1.13-1.25-.59-3.2-1.99-4.14-.26-.17-.75-.08-.8-.13-.28-.3.31-1.32.24-1.51-.01-.04-.51-.02-.67-.43-.31-.74-.21-1.78-.55-2.52-.12-.27-.58-.3-.72-.63-.38-.96.52-2.39-1.15-2.12l.32-1.88h-1.57c-.13-.52.43-.22.53-.37s-.1-.55,0-.81c.21-.55.89-.18.72-.86-.28-.69-1.18-.06-1.25-.16-.5-.67,1.21-2.13-.04-3.89-.63-.89-1.52-.41-.89-2.2l-.61-.33.28-1.43h-1.26c-.29-.79.55-1.45.56-1.98,0-.87-.9-2.25-.56-3.36l-.94.32c-.52-.52.58-6.86-1.86-7.26l.61-1.08c-1.06-.79-1.68-3.01-.94-4.23l-.88-.06c-.04-.87-.06-1.01-1-.88l.58-.34c-.16-1.76-.49-3.7-1.83-5-.59,1.25-.22,2.57-.78,3.79-.35.76-.98.51-.8,1.39l.63.29c-.22.24-.2.62-.34.86-1.35,2.37-.72,5.04-1.42,7.51-.32,1.12-1.35,1.61-1.39,1.77-.12.49.23,3.06.65,3.54l-1.25.8.93.94-1.25,1.41.65.21c-.46.71.09,1.94-.01,2.42-.02.09-.83.54-.62,1.57-1.46.44.16,1.04.01,1.92-.02.14-1.27.6-1.24,2.24,1.11.28,1.03,2.37.68,3.2-.17.41-.64.4-.66.44-.44,1.12-.01,4-.13,5.46-.06.74-.97,4.26-.81,4.71.13.35.76.07.34,1.73-.48,1.9-.08,1.12-.17,2.3-.04.57-.64,1.23-.51,2.26.06.48.55.84.53,1.2-.03.44-.68.88-.81,1.39-.24.91.11,2.46-.71,3.37v.47s1.26.31,1.26.31c-.8-.11-.4.34-.6.79-.4.89-1.47,1.5.29,1.43.14,1.46-.65,1.27-1.09,1.89-.2.28-.55,3.44-.47,3.85.05.24.86.3.88,1.05,0,.13-.46,2.19-.54,2.46-.32,1.16-1.61,1.95.61,1.73-.14.45.02,1.4-.08,1.73-.05.15-1.19,1.13-1.12,1.84.04.35.49.7.52,1.04.04.48-1.3,1.83.36,2.46l-1.57.95,1.57.16c.42,1.3-.6,1.23-.83,1.7-.18.37,0,1.89.2,2.38h-.95c.26.96-.09,2.16-.62,3,1.51.63.56,1.39.42,2.35-.15,1.09-.08,1.32-.64,2.52-1.36,2.89-.52,2.11-.76,5.16-.02.21-.49,2.74-.54,2.88-.21.54-1.29.52-.38,1.2.32.24,1.25-.32.95,1.44h-1.26c.59,1.62-.19,1.16-.55,1.63-.34.44.56,3.1.56,3.53,0,.15-2.19,1.2-.64,2.38-1.28-.04-.95,1.14-1.01,1.21-.85.93-1.83-.08-1.51-1.2l-.78.94-.51-.92c-1.14.74-1.2-.8-1.98-1.14-.45-.2-1.29-.02-1.75.18l.13-1.59,1.12-.29c-.95-1.12-.12-1.96.62-2.98l-.94.16.96-3.6-.66-.32c.77-.77.21-2.05,1.58-1.74.05-.92-1.24-.99-1.25-1.09-.12-.79,1.15-1.54,1.36-2.42s-.7-2.28.52-2.15l-.62-.62c2.13-.57-.62-2.93,1.25-4.25l-.93-.78c1.28-.47,1.73-3.86,1.6-5.19-.06-.67-.56-.51-.97-.94l.94-.94-.63-.47.94-.48-.94-.17.31-1.4.95-.16c-.37-.63-.66-2.2-.46-2.86s.92-.92.98-1.7c.06-.72-.54-1.57-.66-2.53-.15-1.15.46-1.7.43-2.77l-1.55-.67c.6-.73.37-1.67,1.57-1.42-.57-.72.17-.56.29-.87.44-1.16-.21-1.11-.27-1.81-.07-.86.68-2-.64-2.5l1.24-1.89-.94-.48c.54-.76,1.36-2.71.95-3.54-.1-.2-.52-.19-.58-.38-.15-.53.32-1.84,1.21-1.41l-.95-3.13c1.66-.1,1.15-2.52.98-3.75l.59-.34-.63-.16c1.69-1.22.39-1.67.32-1.94-.42-1.64,1.77-1.94.3-2.45,1.59-1.57-.53-2.01-.65-2.84-.16-1.09,2.19-3.28.33-4.08.27-.89,2.1-2.03,1.41-2.99-.25-.34-.89-.12-.8-.79.07-.5,2.33-3.3.65-3.31l.61-.78-1.24-.94c.43-1.64,1.51-1.01,1.57-1.1s-.18-.61-.12-.99c.07-.48.78-2.14.74-2.3-.08-.32-1.15-.22-.95-1.88.04-.36.65-.04.88-.23.75-.66.33-2.94.49-3.8.25-1.37,1-2.84,1.13-4.19.14-1.43-1.39-3.56.98-3.59l-.63-.47c1.06-.67.38-1.94.67-2.78.17-.51,1.26-.61,1.21-1.62l-.94-.16.63-.62-.94-.16c.67-.98.38-1.73,1.88-1.42l-.94-1.41c.62-.46.64-1.21.94-1.83.17-.35.87-1.16,1.17-1.53.07-.09-.14-.59.11-.99.53-.85,1.81-1.57,2.81-1.48v-1.56c.84-.3,1.15.6,1.56.76.3.12.71-.15,1.02-.04,1.4.5,2.94.73,2.77,2.42l.78-.62c.88.95,1.47,2.78,2.22,3.77.29.39,1.1-.04,1.54.63.51.78.08,1.58.19,1.99.06.24.5.2.53.35.2.92-.12,2.3.41,3.3l.76-.27.46.43c-.44.56-.74,1.97-.38,2.59.48.84,1.47.64,1.02,2.28l.62-.63c-.34.8.64,1.03.64,1.1,0,.47-.65.91-.82,1.56-.04.17.25,3.24.28,3.41.11.53.94,1.71,1.48,1.96l-.33,1.08c2.34-.11.68,2.72.77,3.49.06.54.75.59.91.99.28.69-.05,1.4.14,1.99.11.33.99,1.48,1.01,1.59.26,1.06-1,2.84.62,3.4-1.71,1.55.76,2.39.88,2.73.08.25-.42,1.06-.24,1.52l.78-.62c.58,0,.51,2.57.66,3.31.19.97.81,1.75,1.29,2.59.54.3-.22,2.13.57,1.95,1.24-.29,1.14-2.46,1.72-3.32l-.63-.33.25-.71-.57-.21c.28-.65.44-1.77,1.27-1.73v-.62s-.57-.16-.57-.16c.06-1,.44-1.44,1.52-1.42l-.61-1.06c.72-.63,1.08-1.28.85-2.25-.02-.09-.94-.42-.26-1.55l.96-.33-.49-1.42c.26-.89.89-1.02,1.75-.93-.69-1.53.28-1.93.44-2.5.38-1.36.18-1.17.79-2.44.54-1.12.95-1.56.1-2.76l1.48-2.19.64.15c-.08-.77.43-2.04-.62-1.89v-.31c.39.04.52-.07.72-.39.92-1.51,1.3-4.41,1.95-5.89.19-.42,1.29-1.08,1.6-1.68.29-.55.54-2.01.59-2.11.16-.29.88-.42,1.1-.78l-.62-.61c.88-.77,1.41-2.26,2.05-3,1.39-1.62,4.11-2.95,4.55-5.04l.89.29c.86-1.86,2.91-2.12,4.75-2.33.35-.04.63.36.79.34.28-.03.57-.44.98-.47,2.87-.24,3.84,3.87,6.73,3.12Z"/>
  <path class="cls-1" d="M280.17,20.58c.38.43-.51.99,1.63.87l-.32.62c1.73-.93,1.95,2.05,2.49,2.7.39.47,2.13.99,2.22,1.08.08.08-.32,1.26-.02,2.04.57,1.52,2.67,4.07,3.02,5.35.14.5-.18,1.18.21,1.81.25.42.79.45.89.76.34,1.06-.1,2.79.02,3.66.03.22.56.17.61.4.23,1-.61,1.93.95,1.68l-.63,2.51.94-.32c.52.93-.33,1.93-.32,2.65,0,.13.6.16.76.86s-.07,1.17-.13,1.83h1.26c-.18.85-.1,1.69-.13,2.52-.06,1.77-.04,8.05.34,9.7.17.73.73.71.73.85.01.56-.5,1.2-.31,2.1.12.55,2.49,1.93.31,3.21l.63.31-.65,1.25c1.3.41.4,3.7.74,4.5.03.07,1.08.59,1.06,1.16-.01.24-.55.55-.49.9s.85.7.85.98-.78.55-.56,1.1l.58-.27c.67.43.67,4.45.85,5.44.3,1.64,1.19,3.81,1.15,5.15l.58.22-.34,1.08,1.25.47c-.17.95-1.05.69-1.19.83-.17.18-.06,1.14-.38,1.52h.95s-.62,1.1-.62,1.1l1.56.95c-1.27,1.49.19,2.25.21,2.82.01.33-.56.75-.48,1.21s1.11.92,1.13,1.3c.01.25-.47.64-.47,1.21,0,.98,1.06,2.37.85,3.47l.96.2-.64.49.35.91-.66.33.64.94-.63.47c1.65.25-.27,2.07.63,3.46l.62-.32c-.25.78.49,1.55.54,2.08.12,1.32.06,4.04.62,5.4.16.38.71.34.74.59.11.76-.45,1.29,0,2.38.11.25.57.23.57.38,0,.37-.37.73-.22,1.51.29,1.55,1.56,1.26,1.83,1.5.03.03-.29.41-.21.54.05.08.43.11.51.32.45,1.16-.27,1.34-.17,2.27.1.88.59,2.01,1.44,2.35l-.94.47c1.71-.36.85,1.81,1.09,2.66.79,2.77,1.03,1.33.63,4.61-.1.84.75,1.64-.22,2.41-.07.06-.35-.21-.49-.14-.16.07-.68,1.57-1.36-.39-1.68.68-3.28.8-3.78-1.24l-.58.28c-.16-.47.39-1.69.31-1.99-.09-.33-.76-.29-.91-.72-.19-.56.21-1.19.12-1.73-.06-.34-.67-1.65-.89-2.42-.02-.07-.78.03-.2-.69h-1.57s.6-.34.6-.34l-.31-1.05.64-.2.02-.45c-1.72-.68-.46-1.31-.62-2.5-.13-.98-.95-.87-1.19-1.18-.55-.71.73-5.03-1.97-4.34.24-.39.09-1.03.29-1.35.19-.3.77-.04.65-.53l-.96-.18c-.18-1.12.1-4.68-.28-5.26-.4-.62-2.04-.88.3-1.63l-1.57-1.12.94-1.55-.94.31c.18-.56.14-1.42-.02-1.97-.03-.12-.33-1.05-.35-1.11-.04-.08-.45-.04-.52-.21-.16-.39.81-1.93.58-2.36-.57.24-1.18.15-1.47-.46.16-.67,1.02-2.88.8-3.47-.12-.33-2.12-1.18-.57-1.59-.26-1.25-.92-2.72-.32-3.91l-1.23-.51.28-2c-.94.12-1.5-.22-2.04-.94l-.63,1.25c-1.02-.26-1.54-2.72-2.83-.32l-1.21-.88-1.63,1.15c-.51-.29-.78-.67-.47-1.2l-2.94-.34-1.68,1.6c-1.45-.63-2.7-.39-4.04-.47-.73-.05-1.83-1.23-2.36.78l-.62-.62-.16.94c-.87-1.15-2.29-.67-3.3-1.57-.7,2.52-2.46.74-3.77.43-.64-.15-1.26.25-1.89-.12l.31.94-2.83-.31-.16.94-2.36-1.25.32.62c-.36.07-.95.14-1.19.39-.14.15-1.56,3.35-1.73,3.8-.46,1.21-.31,2.22-.37,3.52-.03.68-1.32,1.01.78,1.56-.36.31-.38.86-.62,1.2-.42.59-1-.34-.02,1.28-.43.57-1.27,1.33-1.39,2.05-.15.94,1.8,3.06-.47,2.23.88.73.2,1.69.34,2.31.02.08.86.39.51,1.09-.07.15-.67-.15-.53.37l.95.16c.36,1.8-1.52,1.7-1.29,3.11.07.46,1.32.19,1.28.81l-1.88.95c.65.6.78,2.01.41,2.75-.18.36-.79,1.3-.99,1.48.62,1.32-.29.98-.61,1.64-.39.79.21,1.89-.69,2.45l1.57.47c-.84-.12-.35.39-.6.79-.22.34-.71.57-.94,1-.43.81-.04,2.58-1.28,2.62v.31c.53.02.97-.01,1.18.51.44,1.11-1.47,1.61-1.2,3.07.05.26.85.02.65.97-.02.1-1.42.87-1.26,1.57l1.19,1.27-1.51.8c.83,1.42-.76,1.5-.92,2.07-.04.15.57,2.77-.99,1.47-1.21-1.01-.83-.41-1.94-.81-1.02-.37-1.22-1.43-2.43-.24l.02-1.55.92-.02v-.31c-1.04.04-1.06-2.81-.31-3.46l-.94-.16c.55-.7,1.44-1.64,1.56-2.54.15-1.05-.38-3.03-.21-4.01.22-1.26.48-1.9.68-3.51.06-.49.82-1.25.81-1.87,0-.33-.79.05-.65-.48h1.26c-.08-.97-.25-1.14-.63-1.73,1.68-.77-.09-2.73,1.57-2.99l-.62-.47,1.76-2.52c-.75-1.58-.84-3.26.11-4.84l-.92-.5c.8-.74,1.18-2.37.93-3.4-.03-.13-1.95-1.54.32-1.47.35-.85-.85-.67-.95-1.1-.07-.31,1.16-1.88,1.15-2.51,0-.57-.82-.96-.84-1.56,0-.15.54-.1.7-.6.15-.47-.11-1.25-.01-1.37.14-.18.73-.17.86-.58s-.44-2.05.29-2.81l-.89-.76c1.05-.2,1.46-.73.93-1.71l.63-.19c.02-.81-1.22.04-.94-.77.21-.61,1.04-1.14,1.19-1.64.41-1.42-.49-3.44,1.33-4.02l-1.57-.31c.1-1.28,1.07-1,1.28-1.29.45-.63.61-3.16,1.26-4.06l-.64-.9c.55-.61,2.08-3.59,2.07-4.12-.02-.73-1.38-1.13-.21-1.88l-1.25-.63,1.57-1.89-1.25-.46c.81.1.31-.35.76-.95.64-.85.58-1.03.89-1.49.09-.13.97-.04.53-.71-.03-.05-.48.08-.57-.15-.17-.46.16-2.66,1.2-2.06l-.32-1.37.63-.35-.59-.31c-.42-1.36,3.23-2.87.6-3.01l.62-1.39-.63-.16,2.2-1.89c-1.21-1.12-.44-1.74-.44-2.35,0-.35-.39-.64-.38-.93.03-.77.99-1.4,1.77-1.11-.21-.76-.36-1.9,0-2.6.66-1.32.26-.8.48-2.39.34-2.47.9-1.8,1.74-3.31.61-1.11.6-2.95,1.26-4.1l-.63-.47c1.73.03,1.24-2.18,2.2-3.3l-1.25.16c-.08-1.28.75-1.4,1.07-1.88.2-.3.23-1.73.69-2.5,1.4-2.34,2.1-4.06,3.75-6.3.59-.81.07-1.87,1.41-1.58l-.62-.62c1.11.05.55-1.06,1.26-1.41.36-.18.83.06,1.18-.06.14-.05,2.17-1.11,2.28-1.19.48-.34-.23-1.47,2.04-1.27.27.02.58.42.97.46.67.07,2.67-.22,3.22.4ZM277.07,26.79c-1.43-.07-1.79,1.64-2.28,2.12-.3.3-1.1.29-1.36.71-.17.28.17.71.09.87-.03.06-.42.09-.5.31-.7,1.91-.09,3.24-2.23,4l.03.44c1.4.09-.14,1.81.2,2.69-1.02,1.29-2.99,4-3.31,6.07-.1.64.02,3.71-.38,4.15l-.62-.32c-.11.81-.01.81.63,1.09l-.63,1.42-.94-.32.22.95,1.03.47c-.37.46-2.49,2.85-2.5,3.14,0,.18,2.2,2.35-.32,2.36l.54.37-.07.91-1.11.3.96,1.08c-.14.96-1.04,1.62-1.42,2.4-.14.29.12.63.05.86-.02.07-.41.05-.46.22-.27.86,1.37,1.2.7,2.05-.25.31-.86.14-.76.62l.63.16c-.81.75-.45,2-.97,3.06-1.42,2.89-.78,3.19-1.65,5.95-.17.54-.59,1.15-.84,1.68l.63.29-.94,1.58.93.78c-.86-.16-.26.69-.94,1.11l.63.3-1.44,1.89c-.08.97.92,1.25.5,2.68,1.08-.3,1.82-.09,2.68.63l.31-.63c1.84,2.09,1.82-.26,2.88-.25l2.48.88.28-.61.94.32.35-.67c.91-.14,1.17.83,1.61.91.4.07.85-.44,1.27-.48.93-.1,1.37.42,1.88.45.44.02,1.06-.58,1.86-.53.75.05,1.21.45,1.86.48,1.56.09.99-1.02,1.11-1.14.32-.33,1.43.52,1.79.57.73.1,1.8-.48,2.75.05l.39-.46-.22-.79,3.62,1.17.94-.86c.26,1.07,1.45.56,2.34.61.36-1.7.8-2.03.3-3.82-.07-.26-.5-.25-.54-.4-.12-.37.74-1.31-.68-1.42.67-1.02,1.36-1.42.32-2.5l.59-.43c-.64-1.12-.08-2.01-1.86-1.78.35-.91-.1-1.81,1.26-1.57l-.94-.78c1.36-1.74-.31-.36-.63-2.21-.06-.34,1.27.16.94-.62-.37-.86-1.36-.05-1.57-.16l1.25-4.71-1.25.32-.34-1.39.65-.66c-1.72-.79-.52-.93-.4-1.92.13-1.09-.89-2.49-.22-3.57h-1.26s1.28-1.45,1.28-1.45c-.44-.9-.32-2.15-1.29-2.49l.64-1.09h-.94s.34-2,.34-2c-1.94-.89.09-2.14-.15-3.76s-1.32-1.17-1.45-2.72l.94-.32c-.31.18-1.25-1.23-1.3-1.38-.65-1.95.67-3.75-1.19-4.79l.3-1.06h-1.26s-.16-3.77-.16-3.77l-1.58-.94c.36-2.38-.19-1.33-1.31-2.03-.37-.23-1.79-2.18-1.66-2.69Z"/>
  <path class="cls-1" d="M113.28,21.18l.5.82,1.94-.48.45.87.62-.63.16.63.78-.63c-.25,1.83,2.85,1.46,3.69,1.78.38.14.39.62.62.75.56.33,1.06-.34,1.5.93l.31-.63c.99.29,1.51,1.84,2.37,2.04.59.14,1.23-.3,1.57-.02.25.2.26.81.51,1.1,1.56,1.8,2.45,3.04,3.89,4.9.62.8-.21,1.08,1.51,1.15-.14,1.89,1.27,2.61,1.62,4.04l.94-.32c-.23,1.13,1.1.76.31,1.89,1.03-.22,1.25.51,1.28,1.43.04,1.22,0,2.74.56,4.12.83,2.06.91,1.11,1.79,1.98.12.12-.12,2.54.14,3.29.6,1.75,2.75,2.12,1.89,4.42l.63-.16c-.99,1.91.92,2.96,1.2,4.33.43,2.15.52,5.24,1.01,7.4.05.24.6.2.59.34-.03.41-.48.84-.25,1.54.17.51,1.13.64,1.16.98.03.25-.51.98-.52,1.58,0,.83.21,6.09.32,6.4.03.1,1.23.47.83,1.78-.09.29-.71-.06-.57.46h.95s-.32,5.65-.32,5.65l.94.02-1.27,2.68.95.78-.62.62.61.14c-.56,1.19-1.2,4.71-.91,5.95.06.24.48.18.55.36.22.57-1.18,1.71-.82,2.51.16.35,1.01.31.85.89-1.79,1.61-.77,2.68-.99,4.05-.12.75-1.14,2.13-1.31,3.14-.11.67.47,1.08.29,1.65-.28.91-1.41,1.28-.78,2.43.2.36,1.12.22.29,1.29-.27.35-.92.06-.61.84l.61.16c-.85.48-1.81,1.49-1.76,2.52.02.41.6.96.51,1.09-.06.08-.73,0-.84.46s-.18,2.05.53,1.9l-.39.17-.24.93.62.15c-.43,1.01-.95,1.24-1.9,1.61l.02,2.95h-1.26c.27.75.38,1.11,1.26.95v.31c-1.41.46-1.01,3.11-2.82,3.46l.62.62-.52.06c.14.77-.28,1.09-1.05,1.2l.62.62-1.54.66-.67,3.73-2.19.02.3,1.54c-1.41.02-1.02.84-1.46,1.3-.91.96-1.46.29-2.12.31-.15,0-.18.41-.45.6-.41.29-1.13-.41-.37,1.28l-1.88-.62c-.66,1.28-1.18,2.34-2.61,2.91-.41.16-.8-.1-.96-.06-.24.07-.18.56-.42.61-1.4.31-3.59-.49-4.7-.55-.57-.03-1.06.41-1.72.38-.52-.02-1.08-.42-1.4-.45-.13,0-.1.54-.34.6-1.57.43-3.38-2.94-4.51-.46l.42.16c.63.4-.28.35-.51.25-1.3-.54-1.41-1.59-2.44-1.95-.76-.27-1.5.12-2.26.03-2.34-.27-1.48-2.71-3.68-3.08l.31-.91-.94.48c-.79.34-.7-1.29-.31-1.73l-1.57.31c.09-.82-.38-2.43-1.41-2.2-.41.09-.28,1.04-.79.94.08-.82-1.05-1.81-1.12-2.35-.23-1.67-.39-1.92-1.51-3.49-.56-.78-.74-1.34-1.12-1.88-.32-.45-1.37-.62-1.56-1.3-.17-.63.28-1.07.28-1.48,0-.12-1.47-.91-.63-2.07l-.94.31c-.19-.14-.4-4.06-.65-4.79-.14-.41-1.77-1.27-.92-2.44l-1.24-.02-.03-3.11-.94-.03c.25-1.1.36-1.96-.61-2.7l.61-1.06-1.57-.32c1.01-1.26.01-1.72-.03-2.66-.08-1.64-.02-2.38-.21-3.77-.07-.51.19-1.85.08-2.08-.19-.41-.9-.47-1.04-.67-.35-.52.35-4.42.05-5.2-.14-.36-.58-.36-.65-.46-.06-.09.22-.42.16-.5-.17-.22-.97-.21-.9-.84-.13-1.09.8-.96.91-1.14.06-.1-.17-1.74-.08-2.32.1-.62,1.02-.64-.45-1.13-.2-1,.92-1.58.9-1.68-.07-.37-.51-1.56-.94-1.57.53-.41,1.08-2.56.94-3.1-.09-.36-.7-.19-.85-.82-.31-1.32.82-1.15,1.07-1.34.82-.65.41-3.87.33-5.03-.07-1-1.13-1.34.71-2.28v-.46s-.94-.48-.94-.48c3.36-1.2,1.12-5.02,2.51-7.38l-.94-.16,1.25-1.58-.93-1.23c.09-.34.72-.39.83-.56.67-1.04.6-1.39.92-2.37.47-1.44,1.58-3.26,1.41-4.64l.91-.15c.25-1.12-.8-.34-1.26-.78.1-.82,1.34-1.58,1.47-1.8.17-.29-.12-1.93,1.04-1.82l-.62-.46c.44-1.47,1.61-2.42,1.57-3.94l.94.31-.63-1.57c.39,0,.82,0,1.1-.31.14-.16,1.58-3.38,1.78-3.87.93-2.35.73-2.14,2.03-4.37.34-.59-.09-2.12,1.37-2.13l-.63-1.25c.66-.14,1.43-.63,1.89-1.1s1.79-3.12,1.94-3.23c.24-.17.6-.06.88-.08l-.62-.62,1.49-1.01-.24-.56c1.46.06,4.25-1.2,5.36-2.06.34-.26-.1-.65.15-.79.31-.17,2.73-.69,2.93-.56ZM118.98,30.87c-.8-.46-.85-1.41-1.81-1.8-1.19-.49-5.88-1.1-4.79,1.17-1.46-.21-2.72,1.17-3.57,2.2-.1.12-1.32,2.04-1.59,2.23-.55.39-1.69.1-1.75,1.08,0,.1,1.02.05.58,1.21-.12.33-1.36,1.39-1.84,1.15l.62.62-2.2,1.11.62.47c-1.54.31-.92,1.35-1.34,2.26-.28.62-1.65,2.69-1.68,3.07-.07.75.48.93.44,1.37-.05.59-1,1.1.06,2.09-.89-.11-.33.47-.4.56-.74.91-1.79,1.26-1.97,2.89-.05.47.5.74.49.81-.02.24-.71.34-.84.53-.07.11.06,1.1-.73,1.35l.63.31-.63.32c-.2.83,1.06-.05.28,1.48-.52,1.02-.13.39-.35,1.27-.2.81-.96,1.51-1.82,1.5.35,1.05.79,1.11.03,2.17l.6.18c-.34.7-1.32,1.23-1.61,1.87-.19.4-.35,1.96-.42,2.06-.14.22-.63.2-.75.47-.28.66.3,3.5.21,4.02s-.69.92-.82,1.4c-.29,1.04.1,2.31-.09,3.36-.23,1.28-1.85,2.71.33,3.79-1.57.99-.43,1.56-.44,2.51-.01,1.14-1.99,2.39-.6,3.05l-.22.56c1.59-.43.72,1.45-.31,1.58l.63,1.09-1.26.64c1.05,2.26.24,4.92.64,7.38l.94-.32c.67,1.04-.12,1.53-.18,2.06-.05.45.73,1.7.79,2.2.05.43-.27.89-.23,1.25.11,1.14.38,2.25.29,3.42l1.2.53c.14.16-.35,2.14-.32,2.64.03.42,1.11,4.47,1.25,4.67.34.49,2.27.41,1.27,2.52l.65.34c-.99,1.2-.23,1.78,0,3l.94-.32c.02.89.42,4.24,1,4.68.45.34,3.13-.96,1.83,3.17.36.04.92-.13,1.21.05,1.03.63,1.54,6.75,4.77,5.61-.55,1.08.73,1.69,1.57,2.06.46.2,1.75.46,2.5.94.51.32.41,1.44,1.44.83l.15.57.31-.63c.88.92,1.06.17,1.92.16l3.89,1.38c1.07.02,1.13-.92,1.28-.93.61-.04,2.09.97,3.28.33l-.21-.78.39-.46c1.18.25,1.86.24,2.92-.36l-.27-1.53h1.88c-.46-.12.43-1.55.51-1.6.48-.34,1.49-.15,2.03-.44.25-.14.06-.65.28-.94,1.2-1.6.84-2.29,1.09-2.66.36-.53,1.27-.27.93-1.59,2.31-.22.14-2.96,2.07-3.61.17-.74-1-.25-.62-1.25.33-.86,1.4-.04,1.57-.16l-.17-3.16,1.12-.3c-.63-1.2.26-1.78.47-2.66.07-.28-.27-.79-.13-1.21s.84-.39.92-.73c.08-.3.05-2.5-.04-2.59l-.91-.17c.23-1.27,1.69-.97,1.92-1.29.69-.96.31-2.74.45-3.63.1-.62.52-1.23.63-1.83.15-.78-.6-2.15.77-2.22v-.31c-1.02.17-.34-1.29-.42-1.99-.04-.35-.6-.67-.54-1.29.04-.4.5-.72.54-1.02.11-.93-.54-2.87.42-3.08l-.94-.63,1.27-1.29-.96-2.17.62-.16-.61-.45.62-4.58h-.95c.22-1.6,1.25-1.4.6-2.9-.1-.23-.47-.24-.53-.41-.27-.81,1.04-1.46,1.12-1.91.12-.61-.8-2.31-.27-3.23-2.55-.43-.31-1.57-.6-3.26-.05-.29-1.26-.91-1.26-1.02.44-.94,1.14-.58.9-2-1.98-.37-1.01-.91-.94-2.1,0-.14-.47-.13-.57-.38-.44-1.09.36-3.05.26-3.18-.08-.1-.6-.12-.75-.34-.39-.59.06-2.06.15-2.83-1.9.23-.68-1.53-.76-1.91-.21-.91-1.67-1.75-1.74-2.68-.01-.17.97.03.62-.76-2.64.94-.93-1.17-1-1.67-.14-.97-.64-2.33-1.02-3.34-.08-.22.21-.6.14-.65l-1.57.63c.3-1.72.05-3.89-.61-5.52-.48-1.18-1.86-1.49-.65-2.96h-1.26s.63-1.89.63-1.89c-2.22-.16-1.69-2.92-3.77-3.88s-.91-.62-2.38-2.07c-.9-.9-2.3-1.22-2.81-2.84l-.31.63-1.58-1.58h-.63s-.16.63-.16.63Z"/>
  <path class="cls-1" d="M458.33,25.95c.96,1.03,1.04,2.23,1.97,3.43.28.36,1.47,1.19,1.58,1.42.27.56-.08,1.02.06,1.26.12.22,1.4,1.31,1.82,1.03l-.28,1.22c1.97.48.65,1.99,2.48,2.39v.63s-.63.3-.63.3l1.25,1.56c-1.33,1.33.25,2.82.26,3.4,0,.43-.74,1.95-.57,2.11l1.91.5c-.38,1.02-.63,3.82-.27,4.69.12.3,1.14-.15-.07,1.55,1.37.42.77,2.36.82,3.67.03.99.74,1.27-.49,2.45l1.51,1c-.9,1.32.53,2.4.56,3.25.03.7-.79,1.74-.78,2.53,0,.32.73,1.92.82,2.59.09.62-.27,1.47-.21,1.74.05.19,1.28,1.32,1.24,1.47-.67-.05-.97.65-.94,1.26h1.26c-.61,1.06.44,1.87.31,3.13l-.94.17,1.57.48c-.53.77-.07,1.44-.13,2.22-.03.42-.46.85-.49,1.09-.02.16.46.11.53.3.52,1.55.3,3.74.42,5.3.01.13.95.41.62,1.14l.62-.32-.63,2.37.66.33c-.73,1.68.05,1.19.29,1.6.79,1.35-.84,3.87,1.26,4.19-1.86,1.73.26,2.69.32,3.04.08.48-.31,1.06-.11,1.59.18.5.71.36.73.39.07.12-1.31,1.53-.94,2.19l1.25-.31c.24,1.02-.2,1.89-.18,2.83.03,1.31,2.23,2.55-.13,2.98.81.77,1.93.97,1.23,2.17l.62.33-.28.8h.94s-.32,4.85-.32,4.85c.95.2.34,1.81.46,2.71l1.13.3-.96,1.7c.68.88.69,2.01.98,2.78.11.3.61.24.63.4.13,1.03-1.56,1.34.31,2.21-.27.75-.61,1.96-.16,2.65.15.23.78.24.8.48.06.61-.56,1.02-.55,1.24,0,.09.62,1.51.73,1.73.08.17.56.24.62.37.68,1.41-.72,2.27.43,3.38l-.64.17c.37,1.26.96,2.93,1.22,4.16.28,1.36,0,3.29.64,4.99.17.44,1.12.68.67,1.36-.16.24-1.61-.06-1.25,1.59-1.77-.24-4.04-.16-5.09-1.81l-.56.24-.36-3.1-1.19-.39c-.05-.07,0-1.47.05-1.71.03-.16.47-.08.5-.29.06-.39-.25-1.74.05-2.37-.63.53-.69-.2-1.27-.48l.62-1.21c-1.44-.92-.57-1.89-.76-2.75-.09-.41-.67-.77-.78-1.39-.19-1.07.31-2.75-.01-4-.04-.14-1.45-1.38-1.47-2.32-.01-.43.4-.72.39-1.07-.03-1.04-.48-1.77-.16-2.8h-1.26c-.15-.88.89-1.26.95-1.48.66-2.35-1.36-2.49-1.54-3.13l.26-2.29-.92-.03c.11-.28.19-.56.11-.87-.22-.86-.72-2.95-.68-3.62.02-.27,1-2.34.89-2.41-.1-.07-.61.14-.87-.08-.14-.12-1.48-3.18-1.51-3.36-.09-.57,1.55-3.26-1.08-3.16l.16.63c-.78,0-1.28-.21-1.55-.93l-1.27.6.16.64c-1.66-.83-3.05.35-4.4-.63l-.32,1.57-.94-.94-.31.63-.47-.63-.94.94-1.58-1.26-.61.63c-1.68-.86-3.67-1.01-5.52-.94l.3.6c-1.24.43-2.69,1.26-3.3-.31-1.8,1.08-2.51.66-4.07.02-.22-.09-.05.49-.38.61-1.25.46-2.64.02-3.86-.3l.63.78c-.29.6-.97.08-1.25.3-1.67,1.29-.18,3.7-.39,4.69-.08.36-1.31,2.25-1.21,3.16l.66.35c-.15,2.58-.43,5.28-1.28,7.85l.64.6c-.87,1.43-.51,3.32-.82,4.78-.14.66.66.77-1.07,1.04.99.69-.47,3.4.31,3.92l.94.16-.94,1.41.6.29-.31,1.25.64.2c.07.09-.96,1.29-.91,2.04.03.5.61.88.61.93,0,.19-.65.34-.83.57-1.1,1.47-.14,3.06-.8,4.39-.11.22-.98,1.11-1.16,1.29l.3,1.86c-.15.61-2.05.5-2.53.21v1.26c-1.72.02-1.47-1.09-1.76-1.29-.41-.29-1.57-.15-1.89-.59.19-1.29.07-1.8-1.37-1.93-.19-1.19,1.93-2.44,2.06-3.09.27-1.33-1.44-1.95.72-3-.29-.29-.45-1.22-.67-1.36-.31-.2-.97.2-.87-.37l.63-.19c-1.14-1.67,1.19-2.55,1.26-2.86.08-.34.18-2.26.14-2.65-.1-.91-.93-1.95-.93-2.81,0-.34.73-3.61.87-4.13.32-1.23,2.14-2.22.23-2.91.66-1.03.97-1.37.93-2.65l-.94-.18c-.09-.96,1.26-1.42,1.28-1.62.05-.35-.29-.85-.32-1.26-.05-.98-.4-2.24-.38-2.79.02-.59.66-.42.68-.66.03-.36-.3-.8-.24-1.17.09-.59.79-1.5.84-1.94.01-.12-1.08-.32-.72-1.98.25-1.14,1.08-.5,1.33-1.18.48-1.3-1.61-2.51.66-2.96-.6-.72-.83-3.4.3-2.51-.1-.59.45-1.06.55-1.51.08-.36.17-3.03.06-3.27-.15-.35-.85-.18-.61-1.02,2.09-.97,1.69-3.47,2.21-5.39-.38-1.3-2.23-.66-1.44-2.34l1.12-.29-.94-.46,1.25-1.58-.62-.29c.98-1.34.7-1.42.7-2.83,0-.89.79-1.59-.39-1.9l.63-1.1-1.25-.31c.33.01,1.53-1.03,1.58-1.13.5-1.11-.68-.31-.91-.92-.06-1.75,1.15-1.02,1.52-2.33l-1.24-.96c1.46-.34,1.37-1.79,1.59-2.96.39-2.08,1.66-3.81,2.11-6.08.11-.54.43-4,.31-4.33-.08-.22-.88-.23-.72-1.14.1-.57.7-.58.81-.82.3-.63.08-1.92,1.24-1.97v-.31c-1.01.13-.33-.57-.61-1.24l.93-.02c-.45-1.21.85-2.29.46-3.77-.33-1.26-.99-.12-1.41-.94l2.2-1.42-.64-.34c-.28-1.2.86-1.43,1.1-2,.29-.67.59-2.09,1-3.11.17-.4.48-.8.74-1.14l-.63-.31c.74-.71,2.2-2.85.54-2.67l-.22-.62c.52-.32,1.66-.9,2-1.26.08-.09-.08-.38.01-.55.05-.09.41-.07.44-.23.17-.82-.86-2.93,1.62-2.04-.24-.53.69-2.26,1.02-2.44.38-.21,1.16-.07,1.74-.29.38-.14.71-1.08,1.88-1.3.57-.1,5.32-.07,5.65.04ZM457.28,35.17c-.29-.43-.37-.92-.73-1.29l-2.37-.5c-1.01.12-.76,1.46-1.4,2.09-.47.47-1.23.41-1.28.46-.12.12.61,2.15-.46,3.17-.22.21-.7-.03-.75.02-.1.12-.92,2.8-.93,2.98-.04.47.58.74.52,1.15-.06.48-1.5,2.65-2.14,2.9-.32.86.5.67.59.97.52,1.73-1.49,1.9-1.56,2.19l.02.86c1.28.36-.38,2.24-.54,3.44-.09.66.3,2.31.17,2.83-.17.66-1.01.69-1.13.92-.23.4-.07,1.67-.71,2.28l1.26.63-1.86,1.29c-.17.63.34,3.37.22,4.02-.08.42-.84.63-.78,1.47s.87,1.71.17,2.75l-.88.06c.46.35,1,2.97.91,3.1-.08.11-.75.17-.91.51l.63.31-1.88,1.58,1.26.16-1.29,3.59c1.59.8.59.76.19,1.91-.08.24-.21,1.36-.16,1.41l.94.16-1.26,2.21.63.3c-.61,1.42-2.1,3.37-.31,4.4-.09.61-1.1,1.02-1.18,1.16-.07.11.07,1.98-.09,2.55-.08.28-.6.24-.62.38-.17,1.09,1.88,2.04,2.53,1.54.29-.23.39-.77.62-.93.55-.38,2.04.71,3,.79.78.07.28-.24.14-.62,1.49-.4,2.38.42,3.49.77,1.54.49,5.82.2,7.68-.02.63-.07,2.02,1.32,2.35-.75l1.1.62.16-.93c.2-.12,2.48.32,2.92.25,1.65-.25,1.46-.37,3.34-.09.55.08,1.02.75,1.28-.02.21-.61-.51-.41-.58-.62-.19-.54,1.15-1.88-.43-2.9l-.56.23-.24-1.44.88-.61c-.02-.87-1.9-2.09-.65-2.82l-1.25-.48.94-1.88c-1.85-.4-.04-2.12-.65-3.53-.14-.32-.74-.19-.62-.7.76-.59.29-2.88-.07-3.56-.08-.15-.55-.17-.74-.52-.59-1.12.84-1.49.82-1.59-1.22-1.03-.73-2.75-.96-3.73-.06-.24-.5-.19-.53-.35-.16-.85-.26-1.8-.08-2.67h-.95c.84-1.15.46-3.23-.63-3.92l1.26-1.26-.33-.78-.61.31c-.04-.74.36-1.72-.63-1.58v-.31c1.03.19.29-1.27.49-1.93.15-.49.86-.99.77-1.37-.07-.27-.7-.38-.84-.57-.34-.48-.46-1.05-.74-1.57-.11-.21-.63-.2-.64-.4-.02-.62.79-1.57.82-2.18.1-1.77-1.08-5.97-1.59-7.84-.21-.77-.21-.95-.44-1.68-.39-1.22-1-2.22-.98-3.52l-.62.32c.11-.85.37-2.04.13-2.88-.19-.63-.52-.52-.64-.69Z"/>
  <path class="cls-1" d="M49.29,22.97c.08.06,1.66.05,1.93.03.62-.03,2.42-.53,2.87-.52.26,0,.57.71,1.26.85,1.79.36,3.77-.63,5.81.86.32.24,1.21,1.54,1.39,1.56.36.05.92-.4,1.55-.18.12.04,1.92,1.51,1.99,1.61.46.66,1.22,1.56,2.39,2.29.29.18,1.92.58,2.06.82l-.27,1.53.94-.31c.6.71-.03,2.37.05,2.68.05.19.87.03.26.78l.93.02c.22,1.22-1.95,1.5-.3,2.01-.21.85-.84.67-1.13.91-.32.26-1.96,1.83-2.1,1.88-.9.31-1.38-.6-1.64.52-1.03-1.84-1.71-3.65-3.04-5.29l-.58.27c.42-2.16-2.1-1.17-1.58-3.15-1.28.71-2.07-.48-2.36-.57-.63-.2-.89.78-1.92-.98l-1.19.6c-.52-.3-.84-.68-.51-1.24-.56.02-1.1.04-1.66-.08-.45-.09-2.15-.86-2.27-.85-.13.01-.82,1.55-2.18,1.2-.39-.1-.33-.8-.69-.89-2.33-.53-4.86.03-7.09.95-.27.11-.28.54-.64.69-1.81.75-5.31-.31-5.58,2.11l-.61-.31c.1,1.85-2.11,1.2-3.13,1.74s-1.08,1.69-1.6,2.18c-.55.53-1.7.32-2.24.93v1.69c-.57.78-1.76.32-1.83.39-.14.14-.96,2.67-1.14,3.11-.24.33-2.18,2.16-2.25,2.31-.03.06-.26,1.25-.26,1.32,0,.19.41,2.05.81,1.89.02.79-1.19,1.43-1.24,1.62-.03.11-.21,2.23-.18,2.35.09.42.79,1,.78,1.06,0,.15-1.23.4-.92,1.52.11.38.72.27.82.66.08.29-.24,1.24-.08,1.84.26,1.01,1.75,2.77,1.77,2.94.05.49-.52,1.24-.29,1.63.05.09.64.21.9.51.44.51.69,1.09,1.24,1.61.47.44,1.38.29,1.28,1.07l.78-.62c.22.89,1.07.83,1.3,1.03.56.5,1.34,1.75,2.09,2.19,2.12,1.24,3.99,1.08,5.96,1.82.23.09.23.6.42.61.59.03,1.75-.66,2.44-.54.26.04,3.21,1.5,2.4,2.11,1.49-.41,3.28-.02,4.78.39.44.12.64.66,1.33.83.4.1,2.51.22,2.07-.58h.3c-.2.88.84.54.94.63.17.16-.61,1.31.32,1.73.85.38,1.15.04,1.27-.79h.3c-.16.76.63.53.83.73,1.2,1.13,1.58,2.28,3.74,2.44.63.05,1.62-.36,1.69-.31.46.32,2.38,4.43,3.65,2.17l1.1.64-.61,1.23c.6-.14,1.51,1.5,1.62,1.54.31.13.76-.34,1.2-.13.09.04,1.23,1.28,1.38,1.47.33.41.2,1.97.97.34l.96.23c.04,1.81.46,2.97,2.02,3.97l.02.62-.64.31c.39.94,2.2.85,2.54,1.31.52.69-.26,1.88.36,3.04.28.54,1.7,1.35,1.81,1.49.09.13-1.03,2.23-.3,3.12l1.25-.32c.2,1.41.79,2.88-.31,4.08l.6.13c-.79,1.91-.3,4-.45,5.99-.03.44-.42.83-.46,1.3-.12,1.39.81,3.26-.64,4.37l.65.31-.65,1.26.63.3c-.13.66-1.69,1.55-1.82,1.89-.06.16-.51,2.46-.58,2.89s.04.92.2,1.33c-2.23-.19-1.33,1.73-1.73,2.24-.25.32-.9.16-1.13.49-.63.92-.47,3.77-2.48,3.58l.94.62c-.64-.08-.72.7-1.13.86-.26.1-.77-.18-1.16.05-.66.4-2.03,2.27-1.8,3.18-1.49-.68-1.47,1.09-2.68,1.57l.17,1.26-.93.15.3,1.1c-1.3-.69-1.3.67-2.8.35-.28,2.86-1.54,1.41-2.93,1.61-.87.13-1.49,1.1-2.11,1.35-1.31.52-2.43,0-2.97.17-.6.2-.26,1.09-.91,1.35-.5.21-1.83-.04-2.58.53-.15-.02-.16-.52-.23-.56-.78-.39-1.86.75-1.97.78-.37.09-2.19.36-2.58.38-.99.05-2.06-.82-2.46-.8-.88.06-1.36,1.4-2.51.97-.48-.18-.7-.75-1.26-.8-1.15-.1-1.4-.13-2.54-.3-1.26-.19-2.48.86-3.47-.62l-1.05.61c.05-1.13-1.26-.59-2.02-.94l-.34.63c-.84-.66-2.63-1.89-3.18-.63l-.73-.29-.96,1.55c.04-1.02-1.32-.19-.95-1.57l-.51.63-4.21-1.08-.33-1.42c-.87-.14-3.46-.39-4-.74-.21-.14-.29-.82-.68-.99-.29-.13-.86.28-1.28.02-.17-.11-1.24-2.03-1.92-2.53-.64-.47-1.08-.21-1.62-.47-1.16-.58-1.13-3.15-3.36-2.21l-.81-1.88-.47.63c-.23-1.1.04-2.87-.31-3.87-.14-.39-.67-.23-.94-.37-.97-.5.75-.27,0-1.1l.94.31c-.64-2.24,2.3-4.04,3.3-5.96.13.68,1.81,2.03,1.88,2.18.15.29-.22.84-.1,1.35.14.62,1.18,1.31,1.23,2.11l.92-.3c-.13,1.23.9,1.95.32,3.14,1.19-.59,1.55-.61,2.48.51.53.64-.06,1.42,1.11.74l.34.65,1.1-.64c.64,3.06,2.5,3.12,4.88,4.4l.62-1.25c1.03.26,1.24,1.77,1.62,1.86.49.11,2.21.13,2.15-.61l2.83,1.26.16-1.26c1.52-.36,1.4,1.23,2.99,1.25l.31-.93c1.58,1.09,2.39,2.65,4.41,1.27.55,1.49,1.67.58,2.98.93l-.15-1.57c1.01-.26,1.66.81,1.8.88.26.13,1.2-.28,1.8.69l1.11-1.25.95.94c.18-1.06,1.02-.2,1.57-.38.17-.06.1-.51.34-.55.57-.09,2.07.34,2.75.33l.52-1.29c.63.2,1.56.69,2.21.5.74-.21.75-.86.99-1.03.13-.09,2.37,0,3.1-.57.39-.3-.29-1.13.49-1.38l1.95.26.65-2.04c2.32-.58-.45-.54.82-1.69,1.43-1.29,2.73-.59,3.68-2.64.2-.44-.04-.9.11-1.16s1.56-1.47,2.01-1.25l-.62-.62.57-.04-.25-.57c1.74-.07.97-.95,1.32-1.51.12-.2.73-.19.82-.57.07-.28-.36-.81-.13-1.09s.86-.19,1.05-.37c.22-.21.28-1.4.47-1.89.37-.92,1.95-2.41.23-3.22l.94-.95-.63-.61.62-1.28-.62-.45c.94.13.3-.51.61-1.04.13-.23.58-.22.75-.63,1.08-2.56.25-3.14-.04-5.17-.07-.48.28-.93.26-1.15-.03-.29-.64-.24-.86-.64-.15-.29.74-1.7-.71-1.11.29-1.16-.4-2.09-.57-3.06-.08-.45.26-.86.24-1.15,0-.18-1.37-.81-1.51-1.67s.17-1.22.26-1.98l-.94.94c-.96-1.04.05-2.08-.01-2.19-.01-.02-.38.05-.5-.13-1.02-1.52-.71-.67-1.61-1.27-1.36-.9-.7-1.94-1.01-2.24-.86-.32-2.44-.49-3.09-1.17-.31-.32-.32-1.1-.41-1.17-.04-.03-.4.29-.54.21-.08-.05-.1-.44-.32-.53-.46-.18-1.24-.03-1.5-.29-1.16-1.18-.32-1.25-2.64-2-1.71-.56-4.37-.93-6.06-1.55-.6-.22-1.78-1.83-1.82-.25h-.31c-.14-1.4-2.05-1.63-2.53-2.04-.37-.32-.22-.9-.34-1.07-.08-.11-2.26-.12-2.79-.19-.5-.07-.99-.21-1.43-.46l-.58.59-1.76-.92.32-.62c-1.01-.6-1.41.59-2.24.49-.18-.02-2.24-1.58-3.11-1.84-.95-.29-2.22-.4-3.16-.71-.76-.25-1.27-1.02-2.13-.39l-.05.87h-.31c-.23-1.23-2-.58-1.26-2.5-.42-.31-1.23-.03-1.42-.08-.21-.06-.08-.39-.31-.48-.09-.03-.5.27-.78.11-.67-.39-.32-1.34-.37-1.39-.18-.19-.88-.17-1.21-.52-.28-.29-.21-.83-.4-1.02-.17-.17-.66.02-.88-.27-.49-.64.63-2.36-1.19-1.95l-.35.57c-.86-1.09-.22-2.57-.46-3.47-.21-.8-.92-.7-1.24-1.22-.24-.38.13-1.28-.05-1.6-.44-.78-1.51-.41-2.01-1.09,1.71-1.75.88-.94.72-2.78-.08-.95.39-2.14.39-2.88,0-.6-.6-1.26-.17-2.04h-1.26s.95-2.83.95-2.83l-1.25-.31c.24.01.38.07.54-.16,1.38-1.93,1.58-3.11,2.25-5.34.33-1.09,1.67-1.32-.59-1.57l.67-1.07,1.21.29v-1.57c.09-.1.58.22.78.18.95-.17,1.05-2.65,1.28-3.02.35-.56,1.29-.42,1.63-.7.63-.52,1.13-2.72,1.45-3.08.74-.82,2.68-1.01,3.33-2.34l-.93-.78,2.51-.63-.31-1.24c.85-.65,1.7-.24,2.3-.33.25-.04.2-.51.37-.55,1.29-.29,2.7.2,3.61-.87l-.62-.78c1.05-.65,2.65.11,3.26.02.21-.03.18-.55.26-.59.44-.23,3.22-.7,4.17-.85.53-.08,1-.49,1.59-.5s.42.66.63.67c.91.03,2.71-.68,3.91-.33l-.32-.94,1.26-.17c.19.18.22.63.38.75Z"/>
  <path class="cls-1" d="M323.87,20.14c.07-.05-.03-.45.19-.51.18-.05,1.01.21,1.41-.06-.14,1.52,1.44,2.79,1.69,3.83.18.73-.3,1.81-.33,2.67-.02.54.41,1.07.4,1.52-.02,1.16-.79,3.51-.44,5,.07.31,1.14.66,1.2,1.28l-1.24,1.01-.3,2.15.62.31c-1.21,2.24.59,2.78,0,5.01-.18.69-.41,1.39-.96,1.89l.6.29-.94,6.26c1.85.85.6,1.74.51,2.88-.13,1.51.58,2.44-.8,3.61h.95c-.39.92-.03,1.9-.08,2.73-.04.71-1.31,2.45.7,2.3l-.63.31.62.45c.01.71-.92,1.26-.94,1.34-.17.95.72,1.92-.31,2.77,1.39.51.03,1.51,0,1.62-.21.94.18,1.84,1.25,1.51-1.65,1.92.81,3.66-1.57,4.72,1.23.33-.11,1.79.25,2.85.17.49.69.48.7.63.07.71-.75,1.14-.66,1.85.04.33.79-.06.64.47l-.94.63.95.16c.15.98-.83,2.07-.89,2.57-.08.67,1.35,2.36-.39,3.71v.3c.66-.11.73,4.21.66,4.68-.05.28-.89.05-.65.99.03.13.53.13.58.31.18.54-1.78,3.56-1.53,4.71l1.26.48c-.95.99-.88,2.26-.82,3.59s.6,4.3,1.14,5.03c-.81,1.47-.09,1.51-.7,3.1-.21.54.34.75-.56,1l.59.31-.58,1.58.94.63c-1.14.3-.5,2.08-.91,3.11l.91.19c-.51,1.22.29,2.56.33,3.33,0,.14-.38,2.35-.44,2.65-.12.56-.89,1.42-.82,1.7s1.54.77,1.2,1.59c-.06.14-1.4.51.37,1.1l-.66.5c.7,1.18-.09,1.63-.21,2.43-.16,1.05.81,1.98,1.24,2.82.2.39.21,1.12.25,1.16.08.08,1.18-.65,2.11.43.16.18-.03.66.3.84.13.07,2.49.45,2.78.48.16.02.44-.38.63-.36.7.08,2.17.26,2.05,1.12l.47-.64c1.17.86,2.46-.12,2.87.97,1.37-.55,3.16,1.09,3.41-.97,1.11-.2,1.6.71,2.46.87.49.09.88-.3,1.3-.37,1.28-.21,3.83-.46,5.04-.34.66.06,2.72,1.31,2.67-.14,1.11,1.19,1.66-.11,2.98-.04.62.04,1.03.57,1.44.53.5-.05,1.53-1.74,2.91-1.44.26.06.2.6.34.59.46,0,2.73-.44,3.11-.66.47-.26.49-.94,1.1-1.04,1.71-.28,5.17,1.34,4.93,3.46-.02.14-.81,2.47-.88,2.59-.06.1-1.62,1.53-1.72,1.59-.75.4-1.88.39-2.12-.56-.3.78-1.11.61-1.35.75-.19.11.24,1.1-.85-.12l-.34.62c-.72-.03-2.19-.42-2.79-.33-.82.13-1.51,2.33-3.3.65l-.15.57c-1.17.13-3.03-.04-4.08.08s-2.09,1.4-3.16-.02l-.33.64c-1.24-.38-2.62-.07-3.91-.13-.37-.02-1.52-.54-1.72-.46-.34.14-.22.92-.94.92-.37,0-.7-.5-1-.55-.49-.09-1.14.36-1.78.23-.18-.04-.16-1.02-1.57-.63-.29.08-.07.66-.64.62s-1.78-.32-2.42-.46c-.28-.06-.56-.3-.78-.49l-.3.63c-.98-.23-.89-1.5-1.73-1.24l-.16.61c-.31-.28-.58-.76-1.01-.88-.47-.13-3.66-.39-3.86-.52-.32-.2-.33-.88-.85-1.07-.42-.15-1.28.25-2.19-.17-.55-.25-.83-1.46-1.19-1.81-.22-.21-.6.02-.74-.06-.33-.2-.08-1.15-1.32-.53.6-.67.23-2.72-.38-3.1-.21-.13-.9.51-1.18-.21v-1.08s.93,0,.93,0c-1.53-1.57-.08-2.59-.32-4.4l-1.25.63c-.5-1.34.68-2.86.56-3.92-.09-.84-.16-1.74-.25-2.5-.03-.24-.64-.14-.64-.34,0-.51.73-.81.66-1.54-.02-.16-.49-.17-.62-.42-.74-1.5.21-1.65.26-2.41s.04-3.99-.59-4.09c.71-.74-.02-1.68.94-1.9-.67-.73-.81-1.49-.31-2.36l-.94.31c-.46-.61,1.57-4.34,1.03-5.58-.18-.41-.72-.37-.74-.58-.11-.97,1.98-3.53.34-4.04l.65-1.57-.67-.34c.24-.64.93-2.05.5-2.67-.36-.51-1.17.11-.44-1.32.36-.71.53-.33.51-1.73-.03-1.51-.16-3.41-.12-4.97,0-.35.3-.68.52-.94l-.64-.31.96-3.75-1.13-.48c.14-.78-.14-2.31.18-2.93.09-.18.49-.22.61-.47.23-.48.46-3.17.35-3.64-.08-.32-.95-.04-.64-.83,1.14.04.62-1.28.94-1.97.14-.29.66-.21.63-.39-.08-.39-1.06-1.7-1.54-1.87.86-1.72.68-3.39.29-5.19l1.25-.33c-.2-.55-1.07-2.24-1.12-2.65-.14-1.32,1.07-2.98.91-3.87-.24-1.35-1.29-.09-1.04-1.47.14-.79,1.02-1.18.3-2.37l-.62.15c-.75-2.86,2.65-5.11.62-7.55l.66-.63c0-.59-.9-1.82-.87-2.19.02-.3.92-.87,1.05-1.4.17-.64-.41-.86-.41-1.11,0-.53,1.46-.98-.75-1.58-.01-1.2.97-1.46.95-1.55-.06-.27-.58-.51-.49-1.14.07-.5.67-.53.78-.84.56-1.51,1-2.6-.56-3.39-.08-.9.77-1.81.89-2.52.04-.25.24-3.9.22-4.1-.18-1.36-2.07-3.57.1-3.89l-.56-1.81c.58-.26,1.14-.65,1.53-1.16.23-.31-.02-.72.01-.75.84-.64,1.84.42,2.13.22Z"/>
  <path class="cls-1" d="M393.74,29.83c.12.09.55-.2.72.08.71,1.18,1.48,4.61,1.1,5.99l.95.16c.06.29-.44.08-.52.22-.1.19-1.04,3.1-1.06,3.27-.16,1.63,1.97,1.72,0,3.11l.59.3c-.33,1.21-1.01,2.13-.28,3.41.13.23.65.17.62.35-.28,2.01-1.57,2.5-.92,5.3.06.25.51.18.56.37.08.35-.12,2-.88,1.73v.31c.58-.31.7.79.61,1.05-.13.35-2.53,1.57.33,1.47l-.94,1.42.63.34-.32,1.69h.95c-.49.83-.4,1.81-1.56,1.59l.31,2.49,1.24.33-.55.16-.14.56c-1.2.68-1.21,2.27-.86,3.48l-.65.34c.9,1.85,1.3,7.16.88,9.03-.1.47-.76,1.08-.82,1.68,2.11.91.35,3.33.61,5.03.05.3.61-.02.59.3-2.38,1.24.07,2.94-.92,4.74l.6.29-.95,1.28v.57c.45-.17.84,2.09.84,2.23-.02.35-.75,2.32-.78,2.83-.05.95.49,1.63.56,2.22.01.09-1.26.59-.93,1.4l1.26.16c-.42.06-1.15,1.62-1.19,1.93-.08.64.51,1.2.55,1.54.02.13-.56.11-.62.35-.25,1.03.17,2.74,0,3.88,2.83-.31.11,1.6.01,2.68-.01.12.5.09.6.37.36,1.02.15,2.93-.92,3.38l1.57.63c-.15.48-1.18,1.34-1.22,1.62-.06.37.53.67.53,1.16,0,.74-.89,2.2-.91,2.89-.02.56.55.38.64.67.29.92-.61,1.17-.62,1.25-.09.9.71,2.51.64,2.63-.01.02-.41-.05-.51.1-.6.86-.41,3.61-.75,4.77l1.26-.15c.17,1.29-.13,1.41-1.26,1.73l.95.63-.63,1.4,1.24.51c.04,1.08-.2,2.04-1.24,2.47l.94.63-.63,1.1.94.31c-.71.14-1.42,1.12-1.97,1.45-.17.1-.62-.03-.97.15-.84.42-.82,1.1-1.77.92l.31-.94c-.08-.09-1.27,1.29-2.06.31.42-1.48-.87-1.9-1.02-2.74-.21-1.13.44-2.57-.15-3.7-.1-.19-1.01-.19-.54-.78.05-.06,1.28-.19.82-1.11-.36-.71-1.46-.66-1.45-.94,2.35-.96,1.19-3.35,1.91-5.31l-.65-.34.63-2.05h-1.57c-.02-.79.79-1.55.88-2.11s-.31-1.53-.19-2.14c.26-1.25.33-3.69.46-5.51.19-2.85.14-5.36.17-8.23,0-.42.45-.89.42-1.32-.03-.57-.68-1.81-1.44-1.42,2-1.57.43-3.13,1.57-4.88l-.63-.15.63-.78-.63-.31c-.02-.11,1.94-.5-.61-1.13.4-1.1.08-2.78,1.26-3.28l-.64-1.83.59-.33c-.63-1.29.43-3.51.39-4.75-.02-.54-.54-.46-.56-.53-.5-1.58.55-2.76.48-4.51l-.49-.2.22-.57-1.26-.16c2.06-1.67,1.43-2.83,1.57-5.18-.15-.16-1.16.35-.95-.48.56-1.01,1.57-2.93,1.61-4.07.02-.44.03-3.14-.07-3.27-.08-.11-.6-.08-.81-.49s.57-2.22.85-2.68c-.48-.09-.91.8-.95-.16-.07-1.8.85-1.59.95-1.74.09-.14-1.28-2.03,0-2.98l-.62-.46.65-.17c-.91-1.53-.19-2.8-.19-4.39,0-1.05-.43-4-.36-4.72.03-.32.79-.6.86-1.26.08-.73-.56-1.19-.6-1.62-.07-.72,1.28-.92-.02-1.17l.6-3.64-1.25.16c.39-.58,1.43-2.35,1.51-2.89.03-.22-.64-3.57-.57-4.33.05-.55.65-.75.64-1.26-1.11-.31-1.09-.35-1.27-1.42h1.25c-.22-1.43,1.11-2.16,2.21-2.69.27-.13.61.15.88.07.07-.02.19-.93,1.19-.4.35.18.35.59.51.71Z"/>
</svg>