<?xml version="1.0" encoding="UTF-8"?><svg id="Layer_2" xmlns="http://www.w3.org/2000/svg" viewBox="0 0 289.48 107.99"><g id="spinach_soup"><path d="M85.67,27.2s.27-.03.33.1c.15.32-.27,1.68-.28,2.14,0,.65.81,2.06-.44,1.97.13.45.43.34.76.19-.07.55-.04,1.28-.76,1.34l.57.47-.39.19.36.19c.07.51-.53,1.01-.54,1.34-.02.43.48.71.54,1,.02.11-.27,1.07-.15,1.64.03.14.29.1.32.22.06.28-.02,1-.34,1.15l.38.1c-.94,1.03.46,2.57-.38,3.62h.57c.08.08-.19,1.07-.13,1.25.09.26.44.22.49.3.08.11-.42.77-.46.94-.05.22.21.34.2.46-.02.27-.5.37-.09.94.15.21.53.28.56.44.08.38-.42,1.68-.37,1.75l.55.31c-.85.56-.23,1.41-.27,1.71-.18,1.45.19,2.57.28,4,.07,1.05.17,1.99-.2,2.96h.76c.04.5-.78.99-.77,1.06,0,.24.26.45.29.64.11.87-.53,2.39-.26,2.92.08.16.37.16.36.23-.05.47-.61.99-.9,1.34-.04.42.69.65.73.81.1.48-.18,2.03-.96,1.77.35.65-.13,1.11-.16,1.46-.03.39-.05,1.33.34,1.29l-.38.67.57.09-.37.79-.58-.12c-.24.51.38.61.37.66-.01.28-.9,1.34-1.14,1.52-.1.08-1.85.04-2.1-.08l-.1.57c-.25-.48-.81-.14-1.07-.46-.23-.29,0-.75-.15-.95s-.44-.01-.6-.24c-.13-.19-.33-.96-.19-1.2l-.95.19c.22-.74-.65-1.01-.74-1.27-.06-.19.1-.51.03-.79-.2-.8-.66-1.58-1.39-.8-.42-.93.8-2.05-.55-2.12.23-.95-.32-1.25-.52-1.78-.1-.26.11-.67.05-.82-.03-.08-.94-.6-1.05-1.14s.18-.87.11-1.24c-.02-.08-.58-1.42-.63-1.48-.19-.22-.63-.1-.68-.3-.06-.22.07-.59,0-.9-.01-.08-.82-.83-.38-1.46h-.57s.19-.57.19-.57l-.57.19c.1-.33-.3-.68-.32-.87-.02-.24.37-.54.3-.65-.02-.03-.27.03-.33-.1-.11-.24.3-.8-.59-.68-.13-.47.17-.94.13-1.38-.04-.49-.48-.48-.52-.64-.1-.37.46-1,.35-1.19-.01-.03-.31-.02-.5-.37s-.03-.69-.23-.89-.73-.23-.87-.48c-.18-.3-.06-.88-.22-1.3-.1-.26-.69-.18-.44-1.05.05-.19.54-.03.35-.57-.09-.24-.84-1.06-.86-1.13-.12-.35.4-1.36-.45-1.29.4.6-.5,1.12-.53,1.24-.03.08-.05,1.61-.04,1.7.02.13.35.1.38.24.11.48-.33,1.67-.3,1.79.06.23.36.43.42.69.09.42-.07.95.26,1.39h-.57c.29.5-.15,1.04-.11,1.36.05.37.53.29.51.64-.03.54-.65.94-.59,1.61l.68.19c.44.54-1.05,1.4.27,1.44-.51.12-.19.3-.38.56-.08.11-.38.15-.48.29-.07.1-.26,2.38.64,1.94-.06.58.08.77-.55,1.02l.69,1.34-.69,1.05h.95s-.39,1.04-.39,1.04l.4.38c-.16.61-.76,1.22-.58,1.89.04.14.33.12.34.16.08.19-.45.45.24.66l-.39,1.22.57-.38c.26.74.01,1.04-.19,1.71l.57.09c-.47.47-.23,1.12-.2,1.7l-.56.11v.67c-.57-.24-.3.26-.56.58-.22.27-.56.31-.83.47-.29.18-.17.71-1.09.19l-.1.76c-.93-.36-.64-1.17-.92-1.8-.07-.16-.67-.71-.67-.76-.01-.56.53-1.47.53-1.72,0-.1-.19-1.66-.22-1.86-.08-.47-.46-1.49-.68-1.96l.52-.66-.76-.29c.03-.63.72-.62.29-1.43l-.1.29-.38.09s.07-1.16.13-1.29c.13-.26.45-.24.45-.34,0-.2-.49-1.41-.49-1.71,0-.32.33-1.34.3-1.69-.01-.14-.38-.04-.41-.4-.05-.55.33-1.23.22-1.69-.03-.14-.39-.13-.4-.22-.02-.5.63-.59.35-1.91-.02-.11-.29-.07-.31-.18-.07-.42.29-1.35.27-1.72-.05-.71-.15-1.15-.18-2-.02-.49-.27-1.26-.22-1.63.02-.19.37-.36.3-.46-.02-.03-.31.04-.36-.09-.03-.1.32-.93-.02-1.24h.76c.07-.05-.23-.32-.28-.47-.14-.43-.41-2.46-.39-2.87.02-.5.49-.84.51-1.34.01-.35-.38-.25-.41-.4-.11-.59.61-1.88.67-2.45.09-.85-.66-2.37-.58-3.25.05-.55.76-.56.1-1.32l.39-.22c-.36-.88.55-1.84-.57-2.26.31-.34.63-1.53.67-1.98.03-.32-.24-.52-.24-.7.02-.8.2-1.26.56-1.93,1.03-.61,1.43.6,2.22.55.45.4-.55,3.41.79,2.25v1.33s.49-.02.49-.02c-.09,1.09.94,1.18.85,2.3l.57-.38c.3.84.48.84-.19,1.52,1.47.06.6,1.11.65,1.35.09.39,1.06.96,1.07,1.08.04.31-.15.6-.14.9s.58.7.61,1.06l.67-.18c-.11,1-.46,2.4.95,2.49.03,1.16,0,2.31.48,3.43l.48-.02c-.16.77.05,1.85.42,2.54.14.26.5.27.54.45.06.26-.03,1.55,0,1.96l.58-.1c.6.45.06.85.07,1.15.05,1.07,1.06,1.83,1.07,1.94.02.18-.25,1.36-.19,1.4l.48-.13.26.25c-.01.89-.09,1.51.22,2.36l.76-.19c-.24,1.06-.04,1.24.29,2.1.07.17-.06.46,0,.58.18.29.78.31.84.39.09.12-.12.53-.08.77.03.22,1.11,1.24.67,2.07h.77c-.17.87.19,1.77.95,2.1l-.38.28.48.09c.56-.47-.05-.82-.47-.85.31-.4.4-.7.95-.76-.47-.42.06-.72-.76-.76l.96-1.34-.38-.22.19-.83-.58-.1c.14-.59.23-1.1.95-1.06-.1-.45-.34-.7.19-.84l-.76-.67.38-.57-.57.09c-.14-.69.69-1.13.58-1.52-.02-.08-.38-.09-.4-.2-.05-.38.3-.68.36-.99.1-.54-.3-1,.41-1.47l-.55-.3.16-.53c-.94-.15-.28-1.99-.36-2.78-.04-.38-.11-.69-.39-.96l.38-.18c-.86-.73-.15-3.3-.49-3.92-.16-.28-.55-.29-.63-.47-.02-.05.08-.95.1-.99.18-.34.63-.31.64-.7s-.46-.82-.19-1.25h-.77c.38-.73.63-1.95.59-2.77-.03-.64-.61-1.6-.6-1.69.12-1.04,1.21-1.96-.11-2.68l.5-2.58-.76-.19.57-.19-.39-.12c-.06-.53-.03-1,.58-1.03l-.57-.47c.39-.62,1.16-.21.95-1.05h-.57s.34-.22.34-.22l-.12-.32,1.28-.82-.18-.74c1.25-.78,2.1.55,3.05-.57.66.6-.03,1.45.01,1.52Z"/><path d="M156.19,26.87s.02.28.16.32c.09.02.31-.12.46-.07,1.05.34.51.36.71.78.17.35.56,1.53.62,1.59.03.03.55-.39.76.1l-.39,1.42h.58c-.57.67-.11.97-.02,1.64.03.22-.16.5-.12.72.11.67,1.34,1.57.51,2.5l.33.14-.13.34h.58s0,.76,0,.76h-.58c.6,1.07.87,2.02.57,3.24l.53.03c.56.65-.32,1.36-.34,1.44-.1.47.01,2.45.58,2.63l-.39.57.38.18c-.68.98-.11.77-.01,1.01.11.28.1.62.24.88.16.28.57.3.63.67.13.8-.64.96-.67,1.1-.08.48.18,1.79.95,1.6l-.57,1.9h.95c.28.76-.31,1.62-.33,2.16-.02.71.92.83.72,1.94-.1.55-.55.3-.58.66l.57.1-.18.73c.98.37.03,2.1.01,2.9,0,.06.4.17.58.55.21.44.23,1.75-.03,2.2h.58c-.11.51-.46,1.09.19,1.24l-.55.8c-.06.33.48.5.5.72.02.24-.55.81-.53,1.14,0,.1.3.09.33.15.04.09-.1.24-.07.29.58.96.78,1.64,1.27,2.58.09.18.38.06.49.6.02.11,0,.95-.02,1.07-.02.07-.47,1.24-.52,1.34-.37.67-.59.63-1.12.95-.4.24-.23.71-1.11-.02v.57c-.84-.01-.71-.67-.88-.78-.31-.22-1-.05-1.32-.36-.42-.65-.41-1.32.1-1.91l-.76-.29.38-.19c-.89-.84-.17-1.58-.19-2.67-.01-.89-.42-1.68-.39-2.57l-.38.19c-.34-.64.09-1.31.11-1.72.08-1.77-1.19-3.4-.68-5.24l-.57-.1c-.08-.32.27-.1.34-.28.03-.09-.06-.66.04-.87h-.76c-.07-.63.57-.98.57-1.05,0-.06-.64-.24-.53-.97.05-.28.74-.14.52-.65-1.51.02-.14-1.27-.18-1.8-.61-.18-.2-.35-.27-.77-.1-.62-.35-.6.06-1.43l-1.15-.19.57-1.52-.37.19v-1.33c-.75.33-2.09.17-2.73.39-.17.06-.15.38-.24.38-.36.01-.64-.47-1.04-.39l.19.76c-.46-.27-1.44.35-1.8.31-.21-.02-.39-.35-.76-.31-.07,0-.24.58-1.16.55-.57-.02-1.04-.61-1.08-.03-.49-.25-.32.21-.53.36-.2.13-.43-.1-.54-.06-.07.03-.46.81-1.18.53.76,1.11-.66,2.56.57,3.14l-.58,1.33.4.21c-.34,1.09-1.23,3.07.38,3.42l-.77,1.14.66,1.83.48-.02c-.06,1.29-.47,2.57,0,3.81l.76-.19c.1.56-.65,1.21-.68,1.42-.1.63.6,1.66.64,2.44.04.7-.68,1.3-.15,2.05-1.09-.28-1.93.26-2.97.29-.35.01-.77-.34-1.23-.09.23-.58-.69-1.68-.71-1.81-.03-.29.12-1.69.14-2.09l-.39-.2c.4-.44.38-1.94.29-2.49-.04-.28-.43-.52-.46-.79-.03-.3.43-.52.36-.63-.02-.03-.29.04-.34-.09-.29-.81.34-2.74-.01-3.23-.23-.32-.89.24-.38-.72.12-.23.53-.15.36-.72h-.76c.66-.82-.25-1.95-.12-2.86.06-.44.39-.63.47-1.05.09-.45-.32-.83-.33-1.13,0-.46.32-1.09.16-1.63l-.76.19.38-1.52c-.71.55-2.14-.6-2.76-.58-.07,0-.12.72-.48.39-.04-.71-.57-1.74-.02-2.35.17-.19.46-.11.67-.34.13-.15.53-.89.51-1.12l2.08.37c-.1-.8-.36-1.77-.37-2.56-.02-1.73-.05-3.13-.47-4.73-.05-.19-.24-.34-.27-.46-.03-.2.71-1.28.15-1.97l-.76.19.77-1.23c-.57-.6-.17-1-.23-1.5-.04-.34-.5-.61-.16-1.09l-.57.19c-.07-.35.25-.55.3-.85.05-.33-.16-1.05-.07-1.34.03-.1.32-.07.35-.22.05-.3-.16-.65-.12-1.03.08-.77.87-1.34.49-2.08.47-.01,1.02-.03,1.46.17.57.25.32.93,1.21.4.25.38-.04.94.03,1.2.07.25.39.36.48.64.22.66-.66,2.27.82,1.59.13.65-.24.88-.57,1.33.12-.06.75.61.75.67-.06.41-.43,1.14-.31,1.69.07.3.45.6.56.94s.29,1.81-.24,1.75c.12.1.24.22.28.38.15.54.65,2.27.47,2.62-.12.22-.53.1-.36.79.02.09.58.51.5,1.27-.07.66-.71.9.23,1.16-.52,1.4.85,1.03,1.74.93l-.19-.38c.54-.23,1.23-.21,1.72-.32s.73-.7,1.33-.06c.04-.85,1.57-.48,2.1-.19l-.19-.76.95-.19.29.76c.48-.14.67-.75.95-.89.18-.09,1.56.36,2-.08-.2-.72.38-2.43-.75-2.27l.19-2.09h-.57s.2-.66.2-.66l-.39-.11c-.08-.31.28-.14.32-.22.07-.13,0-.82.44-1.11l-.76-.52c-.06-.56.39-1.33.33-1.84-.11-.93-.51-2.29-.77-3.26-.23-.86-.05-.48-.04-1.25,0-.37-.29-.88-.23-1.2.04-.19.32-.37.32-.41,0-.12-.41-.23-.51-.34-.64-.72,1.05-2.58,1.8-2.18Z"/><path d="M104.69,28.78c.16.16.15.55.33.72.2.19.52.13.63.22.04.03,0,.46.5.86.26.21.69-.19.31.44l.57-.19c-.27.56.25.83.2,1.41-.03.3-.41.8-.37.86.02.03.26,0,.29.05.16.37-.05.55.66.83-.47.62-.08.95-.09,1.13,0,.17-.32.34-.29.55.02.14.46.49.6.75.22.43.23,1.13.72,1.09v.18c-.67-.08-.13,1.06-.38,1.53l.57-.19.19,1.32-.76.3c.98.77.91,1.18.58,2.27l.76.31c-.28.38-.1.87-.19,1.2-.04.17-.65.09-.38.51.02.03.29-.05.34.09.04.12-.14.65-.12.77.02.11.27.06.33.23.15.37-.22.98.58,1.02-.95,1.2.45,2.1,0,3.23h.57c.16.16-.71.98-.2,1.77.04.06,1.15.77.44.9-.33.06-.51-.18-.43.38h.76c-.48.75.17.97.17,1.04-.02.37-.34.75-.14,1.32.14.4,1.55.71.2,1.3l-.04.44c.72.32.4,1.63.7,2.35.17.41.94.04-.13,1.18.82.03.3.92.38,1.39.02.14.61.43.69.59.2.38.06.63.11.8.03.1.27.08.29.18.11.47-.04.88-.33,1.24h.57s-.38.38-.38.38l.76.3c.02.1-.15.56-.23.62-.18.12-.58-.12-.52.22.37.03.82.74.57.95l.55-.18c.23.16.43,1.62.34,1.8-.19.38-1.12.73-.7,1.61-.71.22-2.06-.36-1.91.77-.65-.05-.65-.73-.82-.9s-.77-.24-1.03-.78c-.28-.59-.06-1.53-.61-2.23-1.1-.35-.14-.86-.2-1.5,0-.08-.95-.5-1.07-1.25-.03-.22.22-.36.22-.48-.01-.25-.5-.7-.13-1.32-.39-.13-.68-.8-.67-1.16.02-.52,1.3-1.52-.46-1.81.28-.68.49-1.23.08-1.89-.18-.29-.67-.12-.26-.96h-.58c.08-.54.66-1.52.39-1.98l-.58-.12c.59-.99-.15-.91-.34-1.17-.02-.03.02-.72.04-.75.21-.25.71-.01.68-.36-.65-.17-.59-.98-1.47-1.11-.2-.03-.64.34-.99.43-.41.1-.84-.14-1.24-.08-.59.09-1.16.62-1.84.57l.19.57-1.03.2c-.36-.87-.71-.31-.31.37-.06.05-1.26-.31-1.63-.28-.43.03-.71.32-1.02.37-.37.07-1-.3-1.27.09-.43,1.22.23,2.76-.66,3.73l.39.37c-.53,1.38-.56,2.96-1.16,4.37l.39.39c-.6.9-.49,2.09-.7,2.98-.09.39-1.33,3.27-1.49,3.42-.49.44-1.07,0-1.62,0-.16-.18.84-1.92.03-2,.22-.95.54-2.27.54-3.25,0-.58-.34-1.31-.2-1.86.06-.21.46-.18.55-.45.02-.05.14-1.05.14-1.11,0-.75-1.03-1.13.08-2.11l-.39-.2.22-.92-.4-.21c.36,0,.64-1.24.58-1.5-.03-.13-.34-.09-.36-.21-.05-.33.37-2.94.4-3.66.02-.45.75-1.07-.24-1.21v-.18c.86-.13.43-1.67.95-2.2l-.76-.18.96-1.53-.39-.38c.97-.62.26-.86.26-1.14,0-.18.62-.66.14-1.16l.35-.16-.18-.68.68-.18.46-2.87h-.57s.38-.29.38-.29l-.38-.28.34-.03c-.25-.45.42-.47.56-1.07.18-.73-.15-2.17.81-2.34l-.57-.19c-.07-.34.23-.42.32-.7.04-.12-.13-.35-.09-.41.03-.05.43-.14.62-.42.92-1.31,1.48-2.77,2.39-4.05.09-.13.23-.16.38-.14l-.29-.57c.3-.44.76-.41,1.25-.38l-.19-.57c1.08-.02,4.02-.47,4.72.24ZM102.9,33.81c-.13-.15-.47-.78-.64-.69-.23.59-1.01,1.13-1.24,1.73-.1.27.11.52.09.55-.04.05-.48.06-.64.18s-.73,1.37-.7,1.61c.02.15.41.02.39.38-.04,1.23-1.05.63-.95,1.83.52.02.66-.12.54.45-.09.43-.8,1.66-1.02,2.23-.19.52.02,1.22-.47,1.14v.38c.96.23.32.34.25.71-.05.29.11.63.09.72-.01.05-.59.7-.73.78v.37s.38.28.38.28l-.95.86c.97.43-.01.7,0,.76,0,.33.38.57.35.92-.05.67-.82.49-.72,1.08l.68-.18.17.37c.99-.38,1.24-1.46,2.46-1.35l.4.39c.49-.98.67-.55,1.39-.69,1.2-.23,2.35-.46,3.28-1.22l-.38-.38c.65.14.12-1.1.07-1.53-.08-.67-.45-2.42-.43-2.77.02-.39.36-.6.32-1.08-.06-.7-.71-1.34-.73-1.42-.11-.51.15-.81.17-1.12,0-.09-.33-.07-.36-.2-.2-.7.36-.64.39-.77.13-.62-.46-1.07-.63-1.63-.36-1.19.44-1.24-.83-2.7Z"/><path d="M219.56,30.45c.09.06.29-.28.5-.32.8-.16,2.05.17,2.72.63.4.27-.12.74.96.08l.28,2.11.87.18-.38.95c.74-.06.22.68.28,1.06.15.94.87,2.06.67,2.85l.57.1c-.27.87-.1,1.16.22,1.94.36.87.19,1.58.36,2.69.02.15.35.12.35.22-.02.45-.16,1.49-.11,1.89.09.62.8,3.1.71,3.62-.02.14-.39.12-.4.22.23.53.27,1.2.96,1.05l-.18,1.43.56.09c.09.31-.28.14-.32.22-.05.11.06.3-.02.48-.43.96-1.34,1.89.53,1.78.08.31-.27.13-.32.22-.05.1.08.31-.05.45-.18.2-1.12.43-.39.94.2.14.62-.04.56.29-1.09.17.06,1.38-.96,1.63,0,.35.59.69.57,1.14-.01.3-.38.54-.38.57,0,.16.5.19.54.38.14.81-.41,1.54-.92,2.1l.74.37c-.55,1.34-1.45,2.29-1.48,3.82l.35.28c-.62.03-2.04,2.76-1.72,3.05.1.09.64-.18.57.19l-.34.09c.14,1.1-.31,2.27-1.56,1.82.16.32.14.53.03.87-.28.91-2.49,1.1-3.33.96-.41-.07-.75-.74-.99.08l-1.55-1.32-.46.55c-.12-.02-.44-.36-.49-.44-.02-.03-.13-.62-.14-.66-.06-.15-.71-.16.07-1l-1.06-.38c.02-.56.08-1-.18-1.54-.16-.33-.49-.42-.49-.49-.02-.26.22-.48.11-.82s-.99-1.74-1.43-1.74l.33-.85c-.99-.58-.51-.54-.53-1.12,0-.13-.32-.08-.35-.2-.07-.28.3-1.11.25-1.45-.07-.52-.58-.74-.6-.79-.2-.46.04-1.52-.83-1.29l.17-2.2-.36-.09.38-.38c-.94-.07.29-2,.35-2.42.04-.3-.72-.73.24-1.11-.55-.58-.07-.96-.1-1.41-.06-1.05-1.09-1.57-.1-2.6l-.39-.2.17-.37-.33-.18c.26-.48.04-.91-.21-1.35l.75-.47v-.37s-.38-.1-.38-.1c.82-.76.08-2.03.96-2.48l-.58-.95.58-.29-.57-.48.57-.48-.57-.09c0-.75.46-.78.68-1.13.05-.07-.05-.36.09-.56.15-.22.52-.26.57-.44.18-.69-.26-2.59-.18-2.7.05-.07.46-.07.71-.54.38-.72.04-1.23.21-1.87.22-.8,1.02-1.03,1.26-1.63.1-.24-.1-.51-.07-.54.12-.18,1.09-.27,1.13-.31.24-.22.22-.79.56-.96s1.04.44,1.15-.85c.5-.17.52.53.57.57ZM220.35,35.57c-.06-.08.27-.42.08-.74-.03-.05-.75-.55-.8-.56-.78-.12-.08.8-.16,1.15-.1.42-.54.45-.68.7-.13.24-.05.95-.38,1.27l.76.48c-.54-.11-.25.54-.38.96l-.76-.38c-.08.37.31.43.29.77-.02.64-.67,1.19-.67,1.61,0,.34.36.58.33.92-.02.3-.51,1.06-.63,1.46-.13.43.22,1.01-.47,1.43,1.28.56-.25.82,0,1.81l.96.1c-.34.14-.63.94-.76,1.34-.19.57.5-.2.37.37-.1.45-.63,1.57-.58,1.9.02.12.34.11.35.14.06.13-.23.4-.14.52.07.09.45-.12.37.21l-.36.09c.46.59-.54.49-.42,1.32l.4.23-.39,1.52c.01.41.49.33.66.81.19.56-.45,1.25-.42,1.61.03.42.42.75.45,1,.02.17-.27.6-.23,1.1.09,1.36.77,2.46,1.17,3.56.15.4-.04,1.51.18,2.29s.93,2.28,1.35,2.87c.12.16.35,0,.41.06.22.21.37.66.72.69.1,0,.81-.6.87-.67.12-.14.01-.31.07-.43.02-.04.29-.05.31-.17.11-.69-.18-.25.17-.98.19-.4-.02-.95.78-1v-.19c-1.06-.11.13-.85,0-1.24l-.76-.19c.28-.57.1-1.14.95-1.05l-.2-.56-.37.18c-.13-.18.38-1,.45-1.32.12-.6-.07-1.33.01-1.75.07-.37,1.16-.82-.06-1.4l.56-1.33c-.83-.23-.13-.84-.19-1.32-.02-.13-.32-.1-.37-.21s-.04-2.05-.02-2.27c.05-.52.54-.7.18-1.31-.08-.14-.39-.12-.38-.22.03-.19.34-.51.34-.81,0-.41-.6-.69.05-1.49l-.4-.21.39-1.33-.38-.17c.61-.99-.35-2.17-.19-3.34l-.28.38c-.49-.37.16-.72-.48-.85.4-.73.24-2.93-.02-3.76-.05-.15-.33-.15-.36-.28-.08-.36.04-.82,0-1.2l-.38.19c0-.35.16-.56.08-.94-.11-.6-.79-1.07-1.01-1.37Z"/><path d="M250.88,30.21c.24.28.81.07.91.14l.18.21c-.27.59.13,1.33-.37,1.7l.39.19v.38s-.58.57-.58.57l.76.38-.33.47c-.64,1-.46,2.55-.81,3.72l.57.1c-.02.9-.95.85-.96,1.8l.77-.09c-.09.24-.12.48-.09.73.16,1.31.22,2.87.03,4.09-.06.36-.42.7-.33,1.17.03.16.86.03.77.77l-.57.1c-.11.62.39.81.39.87.01.21-.23.57-.22.94s.44,1.01.36,1.53c0,.05-.38.37-.46.94-.06.44.35.92-.26,1.44l.95.2-.75,2.59.37.36c-.45.41-.71,1.3-.57,1.87.04.16.42.06.4.41-.03.52-.07.85-.09,1.33,0,.19-.5.64-.31,1.05h.77s-.21.94-.21.94l-.75.02c.25.46-.11.79-.1,1.17.02.52.39.51.47.7.48,1.26-.19,1.44-.73,2.26-.26.41-.11.88-.78,1.12l.57.47c-.19.11-1.01.51-1.05.56-.09.12.23,1.29-.86.77l-.09.78-.67.27.38.85-1.32.21-.04.92c-1.34.2-2.66,1.49-3.98,1.16v.58s-1.44-.68-1.44-.68c-.45-.05-.47.51-.56.49-.4-.07-1.61-1.4-1.05-1.9l-1.14.19v-1.32c-1.16,0-1-1.29-1.34-2.11l-.57.19c-.21-.54-.05-1.24-.21-1.76-.04-.13-.72-.79-.73-.85-.08-.65-.09-1.52-.25-2.22-.17-.77-1.1-1.78-.34-2.61l-.76.19c-.18-.46.27-.81.32-1.08.04-.24-.16-.5-.15-.71.01-.15.54-.03.4-.6-.02-.08-.3-.07-.34-.19-.53-1.47-.44-2.43-.6-4.02l.37-.36c-.29-.46-.82-2.5-.52-2.9.15-.2.82-.26.42-.78l-.59-.32c-.15-.87.31-1.37.42-1.95.16-.81.19-2.29-.28-2.82l.16-.36-.39-.21c1.06-1.4.49-2.23.11-3.72l.14-.35.53-.03c-.14-.37-.4-.56-.76-.38l.2-.66-.39-.19.76-1.34c-.86-.38-.43-.76-.19-1.43l-.76-.2c-.03-.5.69-1.41.73-1.65.05-.3-.33-.53-.26-.84.13-.6,1.19-1.6.87-2.27,1.06-.11,1.37.7,1.98,1.28.09.08.38.02.45.09.12.12.72,2.43.77,2.79.11.93-.04,2.29.05,3.27l.46-.2.15.34.34-.14c.19.45-.5.98-.52,1.05-.19.72.05,3.42.09,4.24.02.48-.12,1.08-.14,1.57.15.11.99-.22.95.19-.56-.08-.21.27-.33.52-.28.54-.84.75-.62,1.58h.77c.04.49-1.03,1.25-.58,1.72.1.1.81-.21.76.19-.46-.03-.36.8-.95,1.05l.38.19c-.66.61-.42,1.19-.36,1.99h.55s-.13.35-.13.35c.58.13,0,1.39-.05,1.87s0,.95-.01,1.41c.45-.37.36.36.95.19-.16.63-.85,1.77-.56,2.33.08.16.37.16.36.23-.05.38-.59,1.05-.37,1.63l.76-.19c-.33.99-.19,1.66.01,2.66h.75s-.18.57-.18.57l.37.2-.37.08c.25.53.34,1.14.58,1.68.07.15.36.14.38.28.04.43-.55,1.22.56.44.22.66.6.72,0,1.33l.76.19.02-.55c.57.09.92-.46,1.51-.02l.19-.48c-.29-.14-.47-.03-.38-.47.42-.22,1.02-.09,1.38-.21.23-.07.77-.95,1.09-.56l.15-.68c-1.01-.47-.15-.97,0-1.56.07-.27.16-1.43-.33-1.19l1.1-1.04c-.42-.76-.31-1.64-.24-2.48.11-1.42.19-1.93.02-3.41-.13-1.17.49-2.46.4-3.3-.11-1-.02-.72,0-1.57.02-.71-.78-1.45-.13-2.2l-.39-.1.38-.38h-.57c.14-.61.1-.97.77-1.24-.58-.12-.26-.9-.39-1.43l-.57.19c.32-.4.03-.85.1-1.17.22-1.02.5-.36.17-1.89-.04-.17.11-.43.09-.47-.07-.22-.71.19.02-.66-.67-.07-.81-1,0-.77-.11-.36-.12-.77-.11-1.14,0-.75.33-1.91-.09-2.57l.36-.18c-.33-.53.06-.85.23-1.34l-.55-.38.54-.78c-.04-.34-.95.1-.76-.38.28-.72,1.07-.72,1.24-1.05.23-.44.38-1.73-.1-2.1.61-.21.83-.26,1.33.19l.21-.75c.8.31.83-.25,1.41-.58.28.14.21.56.33.71Z"/><path d="M14.93,21.85c.93-.26,2.83.62,3.65,1.15.23.15.26.53.52.68.21.12.53-.14.78.18.21.27-.01.56.16.79.46.59,1.83,1.07,1.35,2.18l.48-.13.27.25-.13.94c.03.28.54.2.68.31s.05,1.21.08,1.26c.09.19,1.07.46.16,1.37l.39.12-.19.76.37.17c-.8.48-1.04,2.92-1.43,3.33-.22.23-.49.25-.72.4-.19.12-.2.71-.91.28-.58-.35-.08-2.34,0-2.96h-.58s.19-1.53.19-1.53l-.57-.11c.51-1.56-.43-1.56-1.07-2.45-.5-.69-.69-1.57-1.46-2.13-.1-.07-.66-.02-.86-.33-.11-.17-.02-.48-.05-.51-.05-.06-1.03.38-1.43-.17l-.28.36.57.1c-.27.66-1.04.54-1.3.7-.18.12-.07.84-.2.99-.21.26-.17-.15-.54.49-.77,1.33-1.09,1.39-1.49,3.07-.12.52-.3,1.51-.22,2.09.07.48.64.41-.08.68.24.58-.02.86-.37,1.31l.76.47c-.71.12-.75,1.66.19,1.72-.6.6.2,1.44,0,2.28l.95-.19c.5.84-.55,1.87.21,2.38.18.12.48.07.55.11.06.04-.28.59.14,1.27.16.26.44.65.61.91.51.76,1.11,1.48,1.47,2,.85,1.21,1.43,2.32,2.24,3.55.38.57.82.61,1.45.64-.39,1.06-.2.7.04,1.4.06.18-.02.43,0,.47.13.17.82.43,1.09.42l-.16.74c.79.14.48.9.64,1.56.11.45.87,1.22.99,1.62.19.63-.02,1.03.06,1.48.02.12.27.13.4,1.15,0,.05.61.8.75.7l-.38.19v.38c1.04.12.43,1.51.47,2.2.02.3.61.79.11,1.35l.37.17c-.71.93-1.13,1.19-.57,2.38-.77.06-1.59.69-.57,1.05l-1.86,1.66.15.34h-.58s.19.57.19.57l-1.15-.19.19.38c-.45.07-1.05.03-1.19.52l-.34-.14c-.19.5-.08.71.19,1.14-.59.14-1.22-.24-1.76-.16-.1.02-1.58.52-1.64.58-.1.12,0,.44-.04.53-.12.22-1.33-.74-1.43-.76-.08-.02-.05.3-.36.42-.97.38-1.52-.12-2.15-.19-.22-.02-.43.26-.72.28-.57.04-1.32-.47-1.8-.72l.18-.73h-.95s-.19-1.15-.19-1.15l-.76.19c-.39-.63.56-.94-.13-.99.22-.42-.21-.31-.24-.47-.03-.14-.15-1.25-.14-1.31.02-.11,1.15-.93,1.28-1.17.16-.31-.04-.6-.01-.62.09-.05.96-.13,1.16-.11.74.08.7.89,1.24,1.42.29.28.65.33.93.6.21.21.45.86.53.91.31.17.74-.1,1.02-.07s.62.37.92.31c.19-.03.14-.46.39-.52.23-.06,1.14.15,1.33.08.39-.13.05-.78.87-.34l-.19-.38c.71.23,1.09-.7,1.29-.77.19-.06.5.07.67,0,.18-.08.23-.55.72-.37l-.16-.54c.26-.35.58-.67.92-1.07.49-.56.2-1.13.38-1.82l-.34.13-.14-.27-.28.14.19-1.52h-.57c.34-.42-.08-1.07,0-1.4.03-.15.37-.12.37-.21,0-.16-.31-1.05-.46-1.06l-.67.38.17-.49c-.51-.24-.46-1.09-.17-1.61l-.57.19c.38-.84.36-1.93-.76-1.91l.38-.28c-.82-.36-.65-.87-.76-1.62h-.86c-.25-.39.06-1.13-.14-1.48-.34-.6-2.1-1.31-1.88-2.32l-.55-.02c.47-.77-.15-.92-.38-1.52l-.19.38c-.69-.24-.51-1.04-.76-1.58-.03-.06-.69-.95-.75-.99-.1-.06-.38.08-.49-.09-.42-.67,0-1.59-.31-2.28l-.93-.02c-.04-.66.47-1.5-.38-1.81l.38-.55-.73-.53.17-1-.39-.11.38-.38-.93-.22c-.22-.77.29-.93.35-1.08.37-1.05-.5-3.02-.55-4.15,0-.04.65-.19.36-.64-.06-.09-.8-.04-.76-.38l.95-.39c.27-.28-.96-.55-.4-1.38.45-.67,1.29-.49.24-1.57.11-.44.77-.39.9-.5.05-.05-.16-1.04,0-1.42s.48-.39.6-.61c.19-.36.39-1.62.43-1.71.07-.14.95-.71,1.09-.9.22-.29.31-.96.41-1.03.14-.09.47.04.68-.07,1.02-.57,1.49-1.05,2.68-1.53.14-.06.61-1.2,1.02.04Z"/><path d="M29.56,24.19s0,.25.08.29c.22.11.49,0,.66.11.08.06.12.89.56-.06l1.67.4.21-.4c1.5.52,3.75.68,5.2,1.42.55.28.1,1.04,1.09.3.17.13.19.39.36.52.45.34,1.34,1,1.45,1.49l.55.12.03.93.76-.38c.34.6.29,1.33.47,1.91s.78.87.48,1.52l.76-.57c.51,1.11-.74,1.34.56,2.01l.02.37-.39.38.4.21c-.39.88.35.98.35,1.91,0,.65-.55,1.12-.15,1.76l.73.03c-.25.42-.37.89-.95.76l.76.38-.17.67-.78.09c.12.67.69,1.93.26,2.48-.46.6-1.33.23-.83,1.33h-.56c.29.79-.64.67-1.07.95-.67.44-.83,1.07-.89,1.12-.11.09-.73.08-.72.32,0,.25.91.18.37.57-.11.08-1.52.6-1.67.63-.5.1-1.24-.04-1.77.11-1.58.45-1.88.53-3.54.26-.21-.03-.18-.4-.37-.48-.17-.07-1.13-.06-1.24.25.64.12.16.65.22.96.09.41.36,1.34.33,2.07-.01.43-.49,1-.17,1.64l.38-.19c-.51,1.54.08,2.86-.19,4.38h.95c.07.05-.65,1.38-.68,1.63-.02.21.43,2.31.42,2.66,0,.28-.32.56-.5.76.61.18.37.47.46.63.04.07.29.02.3.04.07.11-.27.27-.29.46-.17,1.44.46,3.82.49,5.15.01.48-.27,1.32-.39,1.82l.95.38c-.71.34-.56.73-1.53.39l.19.38c-.41.04-2.54.44-2.65.37-.07-.05-.1-.44-.31-.55l-.28.38-.22-1.32-.56-.12c-.18-.87.34-.87.36-.95.04-.18-.23-.72.04-1.05h-.58c.23-.39.03-1.03.57-.96-.68-.4.17-1.15,0-1.33-.4-.44-.33.64-.57.28l.35-3.21-.73-.31.34-.28-.17-1.23-.55-.02c-.08-.32.24-.13.34-.22.07-.07-.15-.53-.11-.64.02-.07.68-.44.7-1.14.03-.77-.63-2.54-.54-3.04.01-.07.65-.12.19-1.13-.1-.22-.4-.06-.52-.18-.11-.1,0-.54-.44-.61.3-.44.78-1.02.74-1.58-.01-.16-.52-.59-.46-.9.07-.36.4-.66.43-1.27.04-.78-.22-1.69.06-2.53l-.77-.59.76-.67-.54-.28.35-1.43-.76-.3c-.19-.59.34-.45.48-.67.54-.81-1.31-2.86.09-3.34-1.23-.59-.5-1.08-.42-1.9.07-.75-.38-1.42.23-2.01l-.4-.11.21-.65-.57.09.02-.84.75-.21c-.39-.5-.05-.88-.02-1.25,0-.11-.27-.05-.32-.17-.08-.21.04-.65-.37-.96l.7-.86-.76-.48c0-.15,1.08-.74.19-.67l.57-.19-.57-.28c.11-.41.74-.68.76-.79.1-.66-.26-1.94-.38-2.62.66-.47.84-1.51,1.35-2.22l.35.03ZM32.64,27.59l-1.14.29.57.19c-.06.46-.57.71-.59.95s.09,1.5.17,1.73c.18.48.85.72.42,1.66-.46,1-.23,1.49-.36,2.72l.34.16c-.44.74.05,1.5,0,2.28l.58.12-.38.38.38.09c-.22.37-.2.86-.76.87-.08.32.24.11.34.22.04.04-.12.22-.09.3.02.05.28.04.31.18.03.15.16,1.07.15,1.12-.01.09-1.35.83.24,1.03.03.42.09.62-.38.57l.38.28c-.41.49-.68.96-.57,1.62.88-.59,1.7.09,2.67-.19l-.19-.38c.74-.33,1.01.38,1.07.39.43.08.64-.21.98-.31.27-.08.98,0,.62-.65l.95.19c-.37-.74.69-.74.91-1,.05-.06.69-1.08.8-1.26.49-.82.49-1.49.19-2.38l.58-.41-.56-.3c.69-.85-.24-1.53.38-2.18-.61-.14-.15-.38-.28-.66-.17-.36-.59-.76-.65-1.09-.08-.46.39-.9.33-.98-.01-.02-.26,0-.35-.17-.15-.3-.1-.58-.39-.91-.39-.46-1.34-.6-.97-1.6-.36-.31-.81.17-.95.1-.36-.19-.23-.88-.73-.52l-.7-1.11c-.32-.02.06.83-.38.57-.81-.48-1.01-2.21-2.96-1.33v-.57Z"/><path d="M268.9,29.18c.21.08.93.81,1.42.96.75.23.99-.45.93.48.7-.13,1.02,1.07,1.89,1.16l.19-.38c-.05.29.27.34.36.54.24.5.56,1.47.9,1.93s1.3,1.1,1.53,1.71-.44.16-.3.78c.43.04.89.81.57,1.15h.57c.3.75-.51.89-.57,1.08-.12.42.49,1.31.5,1.5,0,.1-.16,1.62-.19,2-.05.49-.54,1.08-.29,1.7l.55.11c-.1.6-1.02.66-1.13.98-.06.17-.07,1.6.36,1.49-.49.69.14,1.19-.95,1.25-.05.31.74.12.19.47-.9.57-.92-.06-1.22,1.41-.05.26.07.85.02.93-.34.58-1.79,1.12-1.65,2.24-1.97.04-3.37,1.64-5.54,1.23l.38.76c-.66.06-1.19-.77-1.43-.78-.42-.03-.9.27-1.4.04-.07.2-.22.38-.29.57-.16.4-.56,1.49.07,1.32-.56.82-.48,2.4.77,2.57-.66.2-.18,1.59-.21,2.27-.02.43-.38,1.41-.38,1.9,0,.26.23,1.37.34,1.59.17.33.62.43.62.51,0,.18-.38.63-.44.87-.05.21.05.42.02.62-.1.55-.6.65.05,1.29l-.38.19.55.09-.36,1.82.76.1-.09.49c-1.11.03-.96.91-1.52,1.34-.32.24-.98-.05-1.34.36-.23-.25-.17-.67-.52-.87-.14-.08-.43.08-.72-.17-.18-.15-.83-1.99-.88-2.32-.08-.53.32-1.59-.27-1.69.21-.19.4-1.47.35-1.59-.02-.04-.51-.03-.53-.71s.53-1,.56-1.6h-.76s.38-.38.38-.38l-.38-.1.39-.48h-.57s.97-1.43.97-1.43c-.26-.61-.37-.94-.21-1.62l-.57.19c.2-.8.95-1.91-.38-1.91-.17-.5.29-.32.34-.47.31-.9-.27-1.56.21-2.3-1.11-.41-.29-1.55-.25-2.27s-.7-1.06.47-1.53l-.75-.31c-.06-.45.4-.77.47-1.03.11-.44-.2-2.16-.2-2.86,0-.21.23-.41.21-.56-.02-.17-.32-.32-.28-.54.09-.56.79-.28-.6-.99,1.13-.95.21-1.93.58-3.04l-.4-.2c.58-.07.49-1.03,0-1.14.22-.3.53-1.03.55-1.35,0-.1-.29-.08-.36-.21-.52-.88.73-1.36-.19-1.4.75-.72.04-1.46.1-2.31.05-.67.56-1.16.59-1.4.05-.38-.44-.47-.47-.57-.13-.35.63-2.51,1.31-2.19l-.2-.57.75-.17.21.36.12-.38.44.17c.31-1.15,1.29-.52,1.94-.63.39-.07,1.45-.62,1.63-.67.09-.03,1.8.04,1.89.05.24.05.28.44.47.59.18.14.53-.1.71-.03ZM265.74,33.06c-.05-.04-.02-.23-.03-.32h-.19c-.17.89-.84.69-1.53.66-.08.05-.36,1.54-.36,1.74.01.58.27,1.13.26,1.59,0,.31-.39,2.19-.28,2.3l.57-.19c.3.74-.73,1.35-.54,2,.03.1.27.1.33.25.11.26.53,1.03.53,1.09,0,.2-.59.83-.48,1.14.04.12.33,0,.37.38.09.92-.56,1.98-.4,2.96l.57-.19-.38,1.52h.57s-.39,1.33-.39,1.33h.77s-.19.38-.19.38c.62.33,1.28-.11,1.62-.11.3,0,.64.29.98.31.43.02.82-.5,1.41-.19l-.16-.54c.79-.36.83-1.29,1.88-.99l-.38-.28c.51-.28.5-.93.63-1.2.05-.1.43-.12.46-.31.03-.17-.21-.56-.14-.93.02-.13.34-.18.45-.36.22-.37.24-.96.7-.92l-.38-.19.4-.3-.22-1.66.77-.41c-.22-.55-.37-.54-.95-.48l.38-1.52h-.56c.12-.39-.07-.54.38-.67v-.38s-.57-.39-.57-.39l.38-.84c-.67,0-.34-1.1-.75-1.63-.27-.35-1.24-.63-1.63-1.04-.28-.28-.46-.89-.51-.92-.07-.05-1.39-.39-1.67-.47-.23-.06-1.63-.14-1.69-.19Z"/><path d="M199.83,25.96c.08.06.06.3.19.3.49,0,1.54.09,1.98.28.69.3.83,1.4,1.91.86.06.39.22,1.6.32,1.86.09.22.36.19.43.38.19.51.04,3.05-.18,3.52-.16.34-.82.21-.37.91-.61-.29-.83.38-.89.39-.37.07-.82-.23-1.21-.2.4-1.03-.06-3.58-1.03-4.01-.4-.18-2.97-.6-3.36-.5-.35.09-.29.4-.52.52-.39.2-1-.17-1.26.37-.09.17.08.53-.1.82s-.77.37-.92.56c-.04.05-.16.85-.26,1.15-.05.14-.3.15-.33.25-.09.31.44,1.42-.56,1.66l.11.31-.34.03.38.28c-.62.81-1.09,2.56-.87,3.53.13.6.66,1.2.91,1.78.23.53-.16,1.2.72.7.25.98,1.01,3.3,2.29,2.86l-.15,1.6.7.53-.17.35.95-.19c.23.65.49.91.72,1.62.11.35.15.4.23.62.27.76-.37.52.96.62-.42.68.06.86.13.99.34.74.77,1.89,1.16,2.76.24.53.94.86,1.17,1.32.31.61.64,1.88.99,2.44.17.27.59.31.71.62.03.08.33,1.57.33,1.68,0,.12-.44.77-.11,1.24l.57-.38.2,1.02-.37.2c.02.66.74,2.18.71,2.3-.03.11-.28.08-.3.19-.08.33.08.86-.23,1.24l.57-.09c.12.69-.53,1.26-.66,1.61-.03.07-.24,1.33-.26,1.47-.04.35.4.72.34.82-.01.02-.31-.06-.44.25-.2.47.1,1.56-.89,1.67l.37.47c0,.12-.66.57-.83.68-.75.45-1.51.63-2.25.96-.5.22-.93,1.97-1.58.75-.6.71-1.49.2-2.1.28-1.08.14-.92-.02-1.53-.02-.3,0-1.19.97-1.05-.26l-.95.38c-.12-1.25-.76-.77-1.42-.96-.59-.18-1.11-.59-1.83-.56l.19-.76c-.84.25-1.04-1.31-1.43-1.52l-.47.38c-.51-.78.07-2.78-1.15-2.67.24-.4.16-.9.32-1.29.13-.3,1.04-.64.25-1.28l.29-.28.46.18c-.19-.36,1.09-1.53,1.25-1.51l.49,1.78,2,2.03-.29.48.54.14c.05,1.15.89.42,1.17.73.04.04-.3.51.4,1.04.82.62,1.4-1.05,1.99.1.11-.58.56-.13.96-.57l.09.38.3-.4c1.09.58.76-.62,1.8-.36l-.15-.34c.45-.1.5-.4.33-.79h.57c-.66-.64,0-.75.12-1.34.06-.27-.01-2.36-.5-2.1l.57-.38h-.57c.69-.69.63-3.06.45-4.01-.13-.68-.38-.08-.45-.18,0-.79-.91-.81-.57-1.91l-.75.19c-.42-.54-.32-1.39-.43-1.76-.07-.24-.73-1.42-.94-1.89-.26-.6-.91-.62-1.39-1.31-.56-.8-.4-1.83-.7-2.35s-.9-.45-1.22-.88c-.39-.51-.29-1.43-.33-1.49-.22-.28-.91-.16-.52-.99l-.34.14-1.09-2.23-.47.38c-.46-.44-.22-1.37-.29-1.54-.09-.21-.78-.4-.95-.95-.1-.31.07-.65,0-.76-.55-.85-.45-.84-.51-2,0-.12-.29-.06-.31-.18-.04-.2.12-.75-.04-1.05l-.57.19c.15-.72-.32-1.88.11-2.47.11-.15.45-.17.47-.31.04-.45-.22-1.2-.77-1.13.74-.73.71-1.93,1.04-2.68.1-.22.4-.2.48-.42.2-.54-.14-1.27.48-1.77s1.11-.71,1.53-1.7c.12-.29.03-.68.19-.95.22-.37,1.09-.31.47-1.34,1.13-.07,1.92-.27,2.87-.82.28-.17.31.16.68-.7.46-.14.84.45,1.13.48.89.1,1.37-.85,2.5-.02Z"/><path d="M132.88,31.7c-.28.39-1.51,1.46-1.93,1.6-.48.16-.17-.17-.13-.32.17-.67.5-1.05-.24-1.58-.5,1.12-1.74-.08-1.66,1.68l-1.1.03-.94,1.97-.59.13c.57.56.24,1.3-.57.95.31.72-.75.85-.24,1.34l.43.09-1.13,1.07c.41.85.34,1.66-.77,1.51l.2.46c-.61.21-.29.75-.58,1.25l.76.29c-.68.85-1.82,1.52-.57,2.48-.39.5-.39.82-1.15.67-.1.44.39.64.39.68.04.63-.69.94-.68,1.4,0,.35.4.62.3,1.05l-.39.3c.86.19.22,1.95.57,2.67h-.76c-.06.35.25.53.3.85.03.2-.17.51-.12.73.04.21.79.2.47.9-.62,1.34-.07,1.31.09,2.42.08.58-.6.92.42.82-.1.35-.24.89-.21,1.24.03.32.79.58.39,1.24h.77s-.19,1.91-.19,1.91h.56c.13.41-.16.87-.12,1.22.11,1.06,1.01.48,1.07.52.15.09.38,1.07.51,1.3.49.86,1.17,1.12,1.59,1.69.22.3.35.85.44.94.24.23,1.74.77,2.05.24l.19.38.96-2-.38-.28c.42-.36,1.84-.86,2.06-1.18.03-.05-.38-.36.55-.7.34-.12.21.05.3.21.3.48.28.94.9,1.19l-.38.19.76.1c.08.12-.21,2.32-.3,2.49-.38.65-.92,1.17-1.29,2.14-.11.28.06.58.02.68-.07.15-.87.26-.14.99-.3.32-1.06.21-1.11.24-.08.05-.09.34-.22.43-.35.23-2.74-.02-3.25-.21-.17-.07-.3-.38-.47-.39-.49-.03-.39.39-1.51-.27-.44-.26-.74-.61-1.45-.85-.21-.07-.49.11-.54.07-.25-.15-.41-1.28-.59-1.41-.27-.19-.77.06-.99-.2-.19-.23-.19-.76-.3-1.03-.18-.46-.28-.93-.37-1.15-.1-.25-.58-.66-.64-1.06l-.58.12c-.16-.49-.12-.56.19-.95l-.94-.21v-1.51s-.39.19-.39.19c.32-.78-.13-.87-.32-1.19-.04-.06.23-.35-.43-.64l.37-1.21-.94-.31c.34-1.09.35-1.33-.03-2.41-.09-.27-.74-.96-.75-1.04-.07-.38.3-1.07.32-1.33.04-.64-.22-1.46.07-2.16l-.74-.31c.27-.42.14-1.43.24-1.71.09-.26,1.39-.7-.24-1.06-.03-.43.26-.88.27-1.25.02-.84-.66-1.09.63-1.63l-.35-1.01.38-.19c-.43-.39-.36-.97-.17-1.47.06-.16.32-.15.35-.28.15-.57-.13-.18.26-1.06.23-.52-.47-1.84.7-1.67l-.38-.67c.56-.14.19-.34.24-.43.05-.09.31-.1.4-.23.09-.14-.2-.46.31-.38v-.18c-.39.23-.59-1.07-.55-1.13.04-.05.41-.08.56-.29.29-.4.23-1.04.94-1.06l-.57-.28c.1-.39.55-.53.69-.71.05-.06-.09-.24.06-.42.14-.17.55-.23.69-.49.2-.38-.1-.77-.01-.97.03-.06.89-.72.99-1,.09-.23-.13-.54.03-.77.11-.15.93-.32,1.17-.98l-.38-.19c.14-.71,1.3-.77,1.61-1.06.35-.33.33-.97.59-1.12.14-.08,1.63-.77,1.72-.79.41-.07.98.21,1.02.18.26-.19.16-.91,1.24-.73,1.28.22,1.49,1.41,2.69,1.49l.39,1.83c-.05.24-.24.4-.38.58Z"/><path d="M52.34,25.45c.09.12.41.15.53.31.21.28.42,2.62.39,3.07-.03.41-.4.68-.36.91.08.51.81,2.18.84,2.51.03.3-.61,1.2-.42,2.1.05.24.34.33.4.48.09.23-.09.43-.04.53.02.05.32.04.33.14.04.34-.57,1.46-.6,1.89-.07.94.81,1.94-.19,2.3l.41,1.12-.4.2.52.57-.33,1.05.95-.1c0,.48-.68,1.17-.72,1.36-.12.57.83,1.43-.43,1.88.62.13.18.88.23,1.47.04.45.26.79.28,1.16.03.41-.27.98-.13,1.54.04.15.38.13.37.21-.07.64-.6,1.4-.38,2.26.04.15.38.12.38.24.01.24-.47,2.29-.39,2.37h.76c-.53.7-1.09,1.12-.76,2.1l.76-.38c.2.65-.58,1.17-.58,1.24,0,.23.38.63.48,1.02.11.42-.16.87-.09,1.22.03.16.37.05.4.41.12,1.16-.63,1.84-.69,2.49-.03.29.14,1.79.68,1.62.09.11-.39.38-.46.56-.39.99.73,1.37.52,2.26.64.04-.13.78-.23,1.29-.19.91.52,1.8.54,2.73-.65-.07-.87.73-1.18.84-.09.03-1.82.15-1.92.13-.27-.06-.64-1.58-1.46-1.35.21-.57-.07-1.32-.01-1.78.04-.33.35-.47.32-.97,0-.13-.33-.98-.37-1.01-.14-.12-.48,0-.52-.04-.17-.16.26-.8.29-1.04.14-1.04.11-1.85.1-2.66-.57-.19-.45-1.51-.01-1.93l-.4-.2.22-.74-.38-.19c.31-.82.54-1.51-.4-1.92l.57-.57-.4-.36c.36-.69.08-1.18.04-1.74,0-.09,1.17-.62-.4-1.13.93-.31.27-1.23.26-1.53,0-.42.8-.77-.17-1.04l.48-1.34h-.58s.14-.35.14-.35l-.33-.04.54-1.24c-1.65-.76.13-1.99.15-2.66.01-.45-.49-.72.08-1.34-.82-.2,0-1.74,0-2.09,0-.11-.32-.08-.36-.19-.27-.73,1.94-2.4-.03-3.05l.76-.29c-.36-.97.51-1.4-.39-2.38l.57-.48-.59-.11c-.32-.4.77-1.69-.18-1.89.53-.56.82-1.33,0-1.72l.74-.98c-.47-.95-.77-1.54.17-2.26-.72-.86-.36-.45-.25-1.15.2-1.33-.15-3.44,1.25-3.96,1.06-.4.91.46,1.01.59Z"/></g></svg>