<?xml version="1.0" encoding="UTF-8"?>
<svg id="Layer_1" data-name="Layer 1" xmlns="http://www.w3.org/2000/svg" viewBox="0 0 892.48 644.84">
  <path d="M494.64,206.82c5.64,2.81,16.03,9.07,22.43,12.63.91.5,1.4,3.13,3.54,4.12,5.53,2.57,10.18-.41,13.92.35,6.4,1.32,33.75,24.21,38.31,30.18,50.59,66.12,8.13,149.18,1.49,223.78-10.94,23.48-12.02,70.36-25.38,90.25-3.63,5.41-24.01,22.69-30.09,26.03-7.93,4.33-10.41,4.15-18.42,10.21-.76.58-13.6-.35-16.49,3.39l1.35,4.04c-9.86,3.74-22.49,2.81-32.96,1.4-27.96-3.8-55.48-16.35-78.73-30.62-9.59-5.88-18.69-7.02-28.48-13.74-3.01-2.08.2-4.53-8.33-2.08-.85-6.17-5.67-4.24-8.25-5.82-.58-.38-5.21-6.99-6.38-7.66-1.52-.88-4.18.15-5.03-.61-.53-.47.18-2.75-.5-3.57-.5-.61-11.96-8.16-12.66-8.51-1.52-.79-4.88,1.17-6,.64-3.13-1.52-3.48-8.69-11.29-3.89l-1.49-2.75c-6.67,1.7-13.22-4.56-17.61-8.01-1.43-1.14-14.07-.03-12.46-7.34-5.35,2.66-4.36-1.49-5.79-2.37-.67-.41-2.4.91-4.04-1.08-.94-1.14,0-2.9-.32-3.28-.76-.97-3.33-1.11-4.39-3.04-2.28-4.12-1.29-18.95-2.84-23.28-.7-1.99-3.19-2.87-3.66-5.56-.5-3.04,3.63-1.64,4.36-5.56,1.49-8.01-6.11-20.35-1.9-31.32,1.49-3.89,2.6-3.07,4.18-5,.61-.76.23-2.63.82-3.22,1.02-.99,3.66-.79,5.32-2.46,4.06-4.09,9.33-8.95,9.77-14.83l2.75,1.4c5.61-8.6-4.39-10.62-5.12-12.9-5.67-17.02-9.8-26.96-9.01-46.82,0-.61-4.39-5.47-2.34-11.14,3.89-10.7,5.47-23.66,10.82-36.5,6.4-15.35,16.55-21.11,22.34-32.61,2.16-4.3,7.02-21.26,8.86-23.86.58-.82,3.63-1.05,5.23-2.51,11.55-10.53,18.45-20.94,32.43-30.65,8.98-6.26,21.44-14.77,32.17-16.2-.38,1.87-2.34,2.92-3.77,3.95-22.23,16.14-47.43,29.98-61.94,54.51-6.02,10.18-8.8,22.66-17.05,32.02,4.65,1.08,7.98-9.07,11.73-12.84,10.88-10.97,38.16-30.3,51.53-38.95,2.34-1.52,9.45-4.62,12.49-4.33-3.63,2.16-6.29,7.81-8.8,10.12-14.51,13.31-27.69,21.29-41.7,35.82-10.15,10.53-20.38,20.97-30.06,31.96-6.67,4.36-3.42-3.33-7.11-.09.15,8.39-5.85,15.82-7.37,23.48-2.69,13.51-.64,37.08,4.15,49.77,5.64,14.86,16.79,26.58,23.98,39.33,5.82,10.32,6.84,14.77,14.39,24.83,13.42,17.84,24.62,36.73,41,50.51,21.96,18.48,42.02,30.79,59.19,54.39,1.17,1.61,1.2,4.5,2.81,6.73,5.88,8.16,33.66,22.87,43.19,27.23,8.45,3.83,33.4,9.36,42.78,7.11,1.05-.26.85-2.34,2.02-2.69,2.08-.61,4.71-.06,7.14-1.02,18.13-7.11,39.07-22.34,53.58-35.15,9.39-34.36,19.92-68.72,26.2-103.91,1.52-8.48,1.32-18.37,2.6-25.68,8.71-49.39,21.61-83.02,8.63-133.47-2.43-9.42-7.81-21.2-11.58-29.86-6.81-15.65-6.49-11.52-19.24-20.35-5.61-3.89-18.66-14.77-26-15.09-6.17-.26-14.1,1.02-20.56.73-5.64-.26-19.1-.99-21.2-3.92l-13.22,1.46c-1.61,1.4,13.74,25.27,16.08,28.07,4.77,5.67,11.41,6.14,9.12,16.82-6.87-4.09.41,6.7,0,6.99-.64-.06-1.52.29-2.08,0-1.49-.76-8.04-15.09-9.94-18.1-7.69-12.22-15.53-21.9-24.48-31.93-2.25-2.51-11.61-12.84-11.17-15.15,1.37-7.16,13.66,7.72,16.11,7.69,5.61-3.74,10.5-3.36,16.84-3.45,2.11-.03,6.67-.18,8.36-.15,3.36.09,16.64,4.3,17.58,3.57-1.29-4.59-5.12-2.95-7.75-4.12-12.72-5.59-24.13-11.87-37.17-16.14-19.92-6.52-39.25-7.37-58.93-12.6-3.33-.88-7.84-2.52-4.62-6.38,2.75-.5,5.06-1.49,7.98-1.32,18.51,1.08,51.56,10.73,69.63,16.06,4.77,1.4,11.9,1.7,16.38,3.95l.09-.06Z"/>
  <path d="M477.36,277.38c-12.34-9.09-29.95-23.37-44.42-29.22-2.6-1.05-5.44-1.26-7.98-2.54,1.87,5.12-1.05,8.63-1.4,13.39-.82,11.81,5.18,39.04.61,48.28-.64,1.29-2.52,3.25-4.12,2.87l-9.01-15.94c-5.03-2.22-11.58-11.08-14.74-16.44-4.33-7.34-7.84-17.28-11.35-25.15l-6.29-.67,4.97-3.6c3.36-.32,8.28,5.09,10.47,7.75,5.67,6.84,9.1,16.55,13.98,24.24.97,1.49,7.9,13.8,9.83,11.55-1.32-19.27-7.4-43.57,4.91-60.3,5.35,8.16,14.13,8.86,21.67,13.39,9.07,5.44,32.08,22.25,39.39,29.36,1.11,1.08,8.33,8.1,3.45,9.15-2.92.64-7.49-4.3-9.97-6.14Z"/>
  <path d="M368.83,226c2.05,7.81-3.19,7.25-5.64,10.47-3.25,4.3-16.84,33.1-18.66,38.87-.7,2.22-1.17,4.42-.94,6.76l25.59-25.74c2.25-1.84,10.47-5.06,9.45.47-6.67-.7-7.19,7.14-10.29,10.79-5,5.82-8.54,6.9-12.55,14.56-2.49,4.8-1.7,1.46-5.26,4.77-4.53,4.21-12.28,20.82-15.94,26.88-1.29,2.11-5.44,4.65-5.09,8.98l-6.73-3.68c-.73-1.78,8.22-30.03,9.97-34.51,3.83-9.74,22.26-48.28,29.13-54.98.94-.91,6.08-4.59,6.93-3.63h.03Z"/>
  <path d="M374.56,151.54c.29.5,3.95-.67,7.95,6.78,2.22,4.15,10.21,22.61,11.26,26.61.76,2.87.29,5.88.32,8.77l-6.2-4.3c-6.84-11-14.36-22.93-14.83-36.38h-6.99c-1.17-6,7.93.41,7.02-5.59,2.69-.44.73,2.84,1.49,4.09h-.03Z"/>
  <path d="M288.06,386.85c2.49,4.33,1.08,2.84,2.08,8.22.94,5,4.09,7.93,1.32,14.45-11.26,5.94-17.81-10.5-15.79-20.09,1.7-8.16,3.51-5.44,10.41-7.72-.12,2.16,1.02,3.45,1.99,5.15Z"/>
  <path d="M380.06,315.81c-3.8,5.73,2.87,9.97,2.87,10.56s-2.54,10.26-2.81,10.76c-1.35,2.51-7.9,3.13-10.32,2.28-6.61-2.28-7.31-22.69,0-26.5l10.26,2.9h0Z"/>
  <path d="M287.3,318.76l5.26,18.8c-3.68,7.22-4.71,8.19-13.39,9.04-4.77-8.36-3.92-15-1.37-24.16.38-1.35,4.21-1.26,1.26-3.86l8.25.18h0Z"/>
  <path d="M470.46,547.87c-3.92,4.15-6.99,3.95-11.49.18,2.13-6.67-4.74-24.57,6.58-25.44,2.37-.18,6.38,5.56,6.84,7.52.56,2.43-.82,4.45-.64,6.4.76,7.52,3.77,6-1.29,11.35Z"/>
  <path d="M398.28,412.58l1.08-2.51c-9.86-5.03,1.84-33.57,9.91-17.46.29.58,2.28,12.02,2.19,12.66-1.14,8.74-5.91,8.51-13.19,7.31Z"/>
  <path d="M361,427.5c.2.32,1.43.29,2.08,1.67,2.54,5.47,7.37,19.04-3.22,18.51-5.64-.26-5.97-4.04-8.01-7.31-.7-1.14-2.28-1.26-2.31-1.37-.53-1.61,3.39-3.39-1.73-4.62l2.84-10.56,8.39-1.4c-.12,2.13.99,3.42,1.99,5.09h-.03Z"/>
  <path d="M436.07,354.97c-10.06,2.11-13.42-16.55-13.36-23.72.03-3.89,5.59-3.33,8.25-2.57,6.99,2.08,8.39,20.21,5.12,26.26v.03Z"/>
  <path d="M360.41,153.04c2.66,2.9-3.92,5.59-4.68,7.34-3.45,8.07,7.08,27.2,8.19,35.97.15,1.17-.29,4.47-1.52,4.45-7.4-.82-5.26-7.28-7.16-12.4-1.11-2.95-5.15-10.41-5.35-12.19-.61-5.12,1.75-14.33.88-20.21l9.65-2.95h0Z"/>
  <path d="M535.53,297.74c2.78,1.64,8.25,28.57-4.45,26.55-9.12-4.94-5-32.08,4.45-26.55Z"/>
  <path d="M468.06,430.6c-12.28,11.29-16.35-11.05-12.34-20.18,3.22-1.23,7.69-1.32,10.06,1.4l2.28,18.77h0Z"/>
  <path d="M522.83,394.04c-1.64.91-4.65.41-6.58.18-1.61-4.97-2.81-26.5,2.05-27.9,8.54-2.49,10.44,24.48,4.53,27.72Z"/>
  <path d="M406.32,493c3.25,1.17,2.05,5.15,2.52,6.43,1.78,4.77,7.46,11.55,2.54,17.02-13.04,4.85-20.03-28.83-5.09-23.45h.03Z"/>
  <path d="M437.16,467.82c3.62.2,3.52.89,3.53,4.04,0,.53-.57,1.03-.53,1.41.11,1.08,1.73,1.52-.97,3.06-4.02-.79-3.08-5.71-2.03-8.51Z"/>
  <path d="M470.98,358.07c5.53,5.64,6.38,13.31,5.91,21.32-14.65,7.55-11.26-7.25-15.38-16.46l9.48-4.85h0Z"/>
  <path d="M320.05,353.89l9.42-4.42c.64,2.66,2.4,4.71,3.3,7.28,8.89,25.18-16.08,20.24-12.72-2.87h0Z"/>
  <path d="M328.15,472.91c-6.61-.12-12.34-.91-14.86-7.72-.53-1.43.79-3.66.61-4.21-.23-.76-2.16-.44-2.43-1.61-.2-.88-1.81-8.45-1.49-8.77,7.95-8.33,21.06,19.21,18.16,22.31h0Z"/>
  <path d="M536.08,480.98c-2.66-2.66-.35-20.06,2.49-21.44,14.18-6.87,10.5,34.3-2.49,21.44Z"/>
  <path d="M511.57,503.44c-1.14,1.14-5.64,2.16-7.16,1.84-5.73-1.2.09-20.91-.91-25.38,2.75.03,7.22-.91,8.22,2.31s2.25,18.83-.15,21.23h0Z"/>
  <path d="M368.69,502.51c.58.44.67,3.42,1.67,4.59,2.11,2.37,3.95,2.19,5.5,5.76,6.08,14.07-8.45,15.62-13.66,1.02-.99-2.75-.56-7.05-1.78-10.12l8.28-1.29v.03Z"/>
  <path d="M514.62,421.09c2.22,5.18,5.26,24.86-3.42,25.18-.35,0-4.56-4.8-4.68-5.15-1.81-5.53-1.9-23.31,8.07-20.06l.03.03Z"/>
  <path d="M433,462.06c2.81,3.39,6.9,21.09-.29,21.7-6.52.56-5.53-10.97-6.4-14.07-.32-1.14-2.34-.91-2.63-1.93-.47-1.58,1.2-6.87,1.32-8.89.61-.44,7.28,2.31,8.01,3.19Z"/>
  <path d="M470.34,483.32c-.91.79.2,2.75-1.9,2.19-1.61-8.04-9.15-14.59-2.05-22.34,8.54-9.33,7.63,10.5,9.97,14.65-.15,1.96-4.42,4.07-6.05,5.5h.03Z"/>
  <path d="M510.52,252.64c5.03-4.94,14.62,15.35,13.42,19.68-.56,2.08-2.78,4.07-4.33,5.53-6.9-3.92-4.15-7.14-5.47-11.2s-5.82-7.34-3.63-14.04v.03Z"/>
  <path d="M453.41,299.96c-.99-1.55-2.05-10.94-1.35-12.72,5.85-14.74,18.69,17.63,8.66,17.37-.85,0-6.93-4.09-7.31-4.65Z"/>
  <path d="M537.13,538.86c-9.94,1.08-4.97-24.95-3.36-25.33,1.2-.29,3.89-.03,4.88.67,3.77,8.07,1.02,16.61-1.52,24.65Z"/>
  <path d="M490.64,313.27c4.15,2.4,9.56,21.9.91,23.25-3.36-.47-6.38-13.8-6.08-17.37s.79-8.42,5.18-5.88Z"/>
  <path d="M549.07,402.78c3.36,0,8.45,32.84-3.63,23.22-3.04-3.33.61-23.19,3.63-23.22Z"/>
  <path d="M389.54,457.82c2.46,2.46,1.78,10.12,1.64,13.6l-8.22,1.46c-4.36-7.22.44-10.09-1.52-16.79,2.31-.06,6.4.06,8.07,1.73h.03Z"/>
</svg>