<?xml version="1.0" encoding="UTF-8"?><svg id="Layer_2" xmlns="http://www.w3.org/2000/svg" viewBox="0 0 289.48 107.99"><g id="sushi"><path d="M115.59,20.43l.21.79.73-.28c.27.42.57.85.85,1.27.22.32.62.12.26.98-.05.11-.31.13-.33.16-.11.24.04,1.31.67,1.09-.14.38.09.77.02,1.15-.41,2.29.13,4.18-.23,6.36-.04.27-.31.52-.33.8-.02.4.33.62.33.72,0,.15-.4.3-.44.54-.04.24.2.84.13,1.19h.53s-.53.99-.53.99c.35.39.64.63.53,1.21h-.73s.19,2.27.19,2.27c-.39-.11-.38,1.75-.34,1.86.06.14.72-.03-.04.81.73.1.64.79,0,1.01l.34.18c-.01.46-.27,1.03-.28,1.44-.05,1.11.49,2.61.41,3.51-.07.82-1.33,1.96.27,2.37-.22.08-.94,1.25-.92,1.46l.55.1c-.27.29.21,1.04.17,1.08-.06.08-.43-.13-.36.19h.55c.07.31-.3.07-.37.32-.04.17.07.48-.02.58l-.54.11c-.23,1.14.41,1.92.4,2.74-.01.99-.43.63.03,2.01.4,1.2.09,1.99.11,3.3,0,.34.36.17.4.54.07.55-.24.86-.75,1.01v.18c.77.03.58,1.48.19,1.93.51.13.65.78.54,1.24-.06.25-.16-.14-.22.9-.09,1.47-1.33.64-1.24,2.15-.28-.21-1.3.05-1.42-.03-.32-.22-.17-1.09-.95-.33-.09-.6-.85-1.52-.19-1.92l-.38-.19c.59-.86-.5-1.27-.37-2.16.01-.1,1.47-.98-.35-1.03l.33-.2c-.21-.49.15-.85.15-1.32.01-.5-.23-1.03-.21-1.42.02-.35.32-.81.28-1.14-.02-.12-.27-.12-.3-.16-.09-.18.22-.58-.44-.32v-.36s.35-.08.35-.08c-.54-.97.04-.88.27-1.2.24-.35-.47-.87-.07-1.46l-.55.18c.02-.92.86-1.51.72-2.45-.02-.13-.33-.1-.36-.24-.06-.25.13-1.44.12-1.61s-.38-.35-.3-.45c.02-.02.35,0,.48-.26.18-.36-.14-1.41-.08-1.66.01-.05.59-.25.33-.82l-.36.19c.2-.86-.65-.59-.12-1.41.15-.23.7-.12.4-.79-.24-.53-1.25-.6-1.75-.48-.37.09-.35.48-.46.48-.1,0-1.11-.16-1.23-.19-.16-.04-.13-.34-.25-.37-.51-.09-1.68.35-2.37-.16l-.17.35c-.5-.71-1.1-.15-1.71-.1-1.04.07-1.91-.39-3-.07-.13.04-.27.6-.87.36l.11.56-.47.17.56.28-.19,2.82h.54s-.75,1.75-.75,1.75c.53.48.29,1.27.16,1.96-.12.6-.85,1.16.41,1.24l-.38.99.38.19-.37.64.55.09c-.66.59-1.07,1.1-.72,2.09.71-.23.85.61-.03.66v1.08s.56.1.56.1c-.28.99-1.31,2.46.18,2.83-.65.79-.57,1.83-.78,2.7-.11.48-.7.54-.22,1.24-.25.54-1.91.75-2.09.96s.25.65-.45.47c-.85-.22-1.37-1.79-1.96-2.26.47-.93.29-2.02.4-2.91.19-1.46.73-2.85.44-4.47-.05-.26-.29-.43-.29-.46.01-.16.48-.22.52-.29.03-.04-.14-.84-.17-.94-.06-.17-.36-.14-.35-.22.11-.86.18-.79.16-1.84-.01-.58.5-.93-.17-1.09.26-.26.45-1.11.37-1.44-.04-.18-.58.03-.17-.74l-.38-.2c.63-.51.78-2.09-.18-1.92v-.18c.53.08.32-.56.55-.92h-.55c.68-.64,0-1.07.03-1.34.02-.18.61-.85.7-1.13l-.37-.18.37-.18-.36-.63c1.17-.46.68-1.22.7-2.18l-.9-.3.34-.11c-.24-.51.16-1.76.76-1.82l-.37-.27c0-.18.31,0,.37-.2.1-.4-.01-1.76-.73-1.63.18-.55.26-1.16.29-1.74.03-.53-.34-1.76.45-1.82.07-.32-.28-.11-.34-.19-.03-.04.06-1.05.07-1.11.09-.38.61-.6.65-.99.05-.48-.38-.6-.49-.99-.23-.83.65-1.62.49-2.25-.05-.21-.54-.24-.55-.4,0-.05.26-.33.28-.55.06-.45.27-1.75.28-2.02,0-.16-.57-.54-.39-1h.74s-.73-.37-.73-.37c-.08-.3.25-.13.31-.21.05-.08-.07-.33.05-.57.06-.12.3-.09.36-.25.09-.25.02-.89-.35-.88l.34-.37-.46-.65c.49-.61.79-.96.68-1.81h.53s-.11-.75-.11-.75l.76-.35.17.36.92-.54c.71,1.69,1.99,3.65,1,5.48h.55c.14.56-.34,1.09-.34,1.56s.48.86.5.91c.03.11-.19.57.02.81l-.73.2c-.11.72.73-.03.56.83-.1.47-.47.37-.54.48-.08.12.18.35.13.49-.01.04-.67.13-.21.58h.62c-.17.4-.2.9-.73.91v.18c.72-.02.04,1.39.17,1.92l.56.1-.21.89-.53.11.74.37-.73.64.13.36.41.09c-.37.6-.15,1.32-.92,1.66l.2.52-.38.19.91.73c-.27.64-1.38.76-.23,1.56.29.2.85.03.78.55l.18-.55,1.28.55v-.55c.63.22,1.22-.04,1.55.71.53,0,1.4-.51,1.66-.52.39-.02.65.43.91.46.44.05.95-.41,1.1-.41s.4.33.64.41c.41.13.7-.08,1.04-.06.24.01.44.32.66.29s.62-.5,1.04-.33c-.32-.97.03-1.43.38-2.29l-.39-.36.73-.65c-.2-.43-.49-.87-.48-1.36.02-.47.36-1.51.4-2.01,0-.12-.26-.45-.19-.91.06-.35.63-.52-.1-.74l.37-.91-.55-.37.55-.46-.73-.46.37-.18-.37-.27h.37s-.35-.2-.35-.2c-.08-.53.63-.84.69-1.01.11-.37-.25-1.61-.16-2.08l-.37.09.38-1.27-.39-.22c.3-.77-.3-1.43.38-2.07-.79-.03-.26-.79-.56-1.36l.67-.28c-.32-.89.16-1.18.44-1.93l-.73-.82,1.65-.19c-.32-.59-.19-1.11.52-.69Z"/><path d="M43.36,21.86c2.01-.6.54,2.62,2.01,2.56.12.57-.82,1.23-.83,1.44-.02.28.28.5.34.79.18.96-.03,1.63-.6,2.43l.37.18c-.45.25-.67,1.2-.32,1.52.13.12.76-.16.51.67-.02.08-.76.1-.74.64l.73-.18c.28.62-.43,1.24-.47,1.55-.02.14-.04,2.46-.03,2.72.01.51.59,1.12-.05,1.68l.36.2-.15,1.27.34.17c-1.04.71-.3,1.38-.04,2.24.09.31-.38.72.41.78l-.35.25c.11.72.64,1.46.65,2.21,0,.65-.64.86-.66,1.27-.02.49.59.91.36,1.38l.73-.18-.54,1.01-.37-.09v.36s.33.03.33.03c.08.59.07.98.08,1.76,0,.94.23,1.93-.23,2.78l.93.29c.18.72-.48.97-.52,1.08-.05.15-.15,1.47-.04,1.56l.73-.18c-.2.41.03.93-.21,1.34-.27.45-.73.22-.32,1.21l.9.02c-.24.34-.14,1.13-.19,1.35-.04.15-.36.12-.35.2,0,.06.43,1.1.48,1.2.07.13.35.14.4.2.06.08-.36,1.59-.15,1.99.39-.1,0-.69.55-.09l.76,1.98c.15.17,1.17.9,1.35.96.2.07,3.74.28,4.03.23.46-.08.9-.54,1.55-.34-.06-.65.27-1.28.92-1.46l-.36-.36c.44.07.36-.39.54-.64.4-.54,1.02-.54.37-1.19,1.08-.16.69-.89.84-1.29.12-.32,1.26-1.13.16-1.12-.62,0,.78-1.18.85-1.33.35-.78-.3-1.36-.16-1.84.02-.06.55-.49.69-.92l-.74-.39c.04-.63.12-1.18.75-1.43l-.54-.48.53-.81c-.73-.31-.68-.78-.38-1.48l-.35-.08c.49-.44.16-.88.33-1.39.09-.26.34-.25.38-.38.12-.42-.06-2.05.02-2.62l-.36.19v-.36c.54.08.03-.56.73-.55l-.34-.27c-.05-.6.61-1.53.62-1.94,0-.48-.4-1.06-.38-1.28.03-.26,1.34-1.24.13-1.72l.53-2.56-.67-.91.66-.82-.34-.03c-.18-.74.28-.86.4-1.12.15-.34-.1-1,.13-1.41h-.55s.18-.55.18-.55l-.55.18.37-.46-.37-.09.34-.27-.16-.64h.73c.06-.49.01-.47-.37-.64.52-.37.78-1.58.53-2.15-.06-.15-.34-.14-.33-.22.04-.64.67-1.36.46-2.18-.08-.34-.9-1.68-.85-1.76.01-.02.26.04.38-.13s-.01-.46.05-.56c.52-.82.94-.49.88-1.6,0-.04.45-.26.44-.65l.83.09.18.65c.3-.3,1.31.32,1.52.53.1.11.66,1.63.65,1.9-1.31.93,0,2.35-.04,2.97-.02.31-.4.52-.41.73,0,.08.37.69.23,1.09-.1.26-.48.42-.48.73l.74.55-.7,1.35c.9.25-.2.93-.23,1.21-.12.92.17,2.38.87,3.02.04.54-.35.75-.86.74.36.59,0,1.14.02,1.56.01.27.32.46.32.54,0,.23-.62.37-.69.57-.16.48.35,1.95.31,2.32-.03.27-.38.55-.33.92.01.12.3.09.34.2.12.31-.25.8-.25.92,0,.79.03.6-.07,1.48-.05.4.24.88,0,1.36l.37-.09c-.12.68.04,1.49-.55,2.01l.37.17-.37,1.2.55.09c-.55.12-.19.38-.31.59-.06.1-1.27,1.41-.24.96-.2.71,0,1.62-.06,2.26-.14,1.47-.85,3.04-.96,4.42,0,.1.2,1.01.47.91l-.92.77.19,1.51h-.73s.15.34.15.34c-.55,0-.86,1.76-.69,2.08.08.16.37.15.36.23l-.37.57-.54-.1c.11.55-.57.87-.65,1.25-.05.23.17.55.07.72-.18.3-.82.42-1.07.04-.16.74.21.68.55,1.09-.42.42-1.07.18-1.24.24-.06.02-.78.72-.89.88l-.61-.2.18.91c-.64-.39-1.14.17-1.71.17-.46,0-2.8-.71-3.02-.51l-.21.7-1.08-.2-.02-.53-.27.36c-.5-.11-.91-1.38-1.66-.74l-.18.74c-.18-.56-.82-.16-.64-.92h-.36s-.09.37-.09.37c-.96-.24-.65-1.98-1.73-1.47.12-.54-.47-.88-.54-1.06-.25-.64.22-1.71-.93-1.32l.18-1.28c-.72.46-1.63-1.17-1.28-1.83l-.36.19c-.05-.37.08-.82,0-1.16-.03-.14-.36-.12-.35-.2.02-.21.52-2.16.35-2.3l-.91.18c-.07-.06.65-1.43.69-1.6.12-.53.01-2.54-.87-2.25l.55-2.01-.55.18c-.29-.67.32-.94.33-1,.02-.11-.14-1.65-.17-1.83-.02-.1-.27-.07-.3-.18-.09-.34.36-2.03.13-2.72-.09-.27-.52-.25-.52-.38,0-.39.28-.82.72-.65.17-.57-.72-.47-.73-.64.61-.21.54-.92.72-1.45l-.71-.29c.41-.84.14-1.53.37-2.37l-.55-.09.55-.73c-1-.4.04-1.19-.18-2.01l-.56-.1c-.08-.3.27-.13.31-.21.2-.41-.26-.57-.27-.6-.04-.33.15-1.35.11-1.47-.05-.13-.31-.06-.33-.09-.06-.08.78-1.07.35-1.87-.09-.17-.38-.13-.36-.23.13-.61,1.1-.84,0-1.92.88.12.77-.63,0-.18-.4-.85.38-1.17.52-1.78s-.4-1.46.22-1.6l-.19-.46-.36.18c-.38-.54.3-.98.31-1.19,0-.37-1.01-1.49.06-2.2-.77-.24.08-1.07.24-1.59.27-.89-.15-.34.5-1.37.35-.55.65-1.71,1.46-1.33l-.18-.91.45-.18.27.91Z"/><path d="M30.32,22.83c.09.05.55.75.63.8.07.05.72-.17.95.02s.03.5.15.71c.14.26,1.34.48,1.63.86.26.34.01.97.16,1.38l.36-.18.02.72h.54c-.37.42-.22.82-.33,1.23-.09.35-.88.92.14,1.16v.27c-.5.37-1.1.65-.73,1.37h-.91s.18.73.18.73l-.91-.19v-.73c-.73.18-2.49-.85-1.5-1.55l-.88-.46.39-.45c-.05-1.39-.65-1.04-1.3-1.31-.73-.3-1.01-.54-1.93-.6-.38-.03-1.69-.06-2-.03-.13.01-1.61.71-1.82.77-.45.11-1.14-.04-1.19-.02-.02.01.12.23.02.46-.14.32-.44.41-.49.5-.48.81-.94,1.4-1.5,2.18-.03.05.18.82.09,1.11-.1.35-.53.68-.6,1.05-.04.2.37,1.14.41,1.4.09.68-.34.33.22,1.14.07.1-.01.36.02.39.07.07.38-.19.52-.14.26.08.31,1.03.85.86.18,1.1.44,1.18,1.32,1.59.41.19.79.29,1.22.54.4.23.64.09.65.81l.55-.19v.91s1.57.33,1.57.33l.44-.51.28.73.53-.35c.66.82,1.56,1.22,1.95,2.18l.36-.36c-.02.45.53.41.56.82.02.24-.27.76-.2.83.06.06,1,.02.92.73l.54-.37c.25.67.51,1.34.87,1.96.12.22.41.25.42.36.04.27-.2.63-.1.8.21.38,1.26.31.46,1.08l1.08.57s-.18.39-.15.6c.14.97.57,1.78.37,2.59l.36.19-.18.7.9.29c-.14.25-.06.56-.17.78-.08.16-.52.04-.38.4.11.28.36.16.55.09-.25.77-.55,1.16-.46,2,.08.78.61,1.42.09,1.93l.38.19c-.16.52-.46.91.17,1.08-.53.59-.95,1.17-1.11,2l.74.38c-.14.29-.63.31-.79.44-.17.14-.12.38-.23.54-.22.31-.61,0-.26.75h-.55s-.04,1.24-.04,1.24c-.7.15-1.2.64-1.71,1.13-.46.44-.05.78-1.17.37v.53s-.92.02-.92.02l-.09.54-.64-.18.55.73c-.66.54-1.06,0-1.47.07-.24.04-.62.73-1.41.82-.4.04-.7-.17-.85-.16-.07,0-.41.84-1.18.39l-.32.73c-.91-.48-1.74.31-2.34.33-.33,0-.7-.25-1.08-.16-.13.03-.13.38-.2.37-.3-.04-.86-.57-1.34-.52-.54.06-2.09.82-1.87-.39l-.35.02-.1.35c-.93-.11-.69-.8-.85-1.07-.06-.1-1.56-.68-1.71-1.13l-.18.37c-.82-.22-1.08-1.01-1.38-1.2-.21-.13-.45.27-.97-.5-.32-.48.2-.57-.86-.31.04-.98-.5-.78-.81-1.11-.65-.69-.23-1.3-.34-1.6-.01-.03-.26-.05-.3-.17-.16-.5-.02-1.08-.56-1.24.47-.12.22-.38.49-.78.17-.24.61-.44.62-.53.04-.34-.35-1.14-.01-1.71,1.29.26,1.4-.33,2.6.56.74.55.59.76.74,1.59l.87.24c0,.26-.19,1.37-.15,1.43s.34.06.43.2c.15.23.04.63.11.71.06.07.49,0,.71.11.39.19.36,1.08,1.28.64l.18-.36c.12.28.49,1.18.68,1.3.3.19.61,0,.7.02.12.04.06.26.21.31s.55-.11.89.2l.27-.55c-.1.38,1.33.85,1.59.86.37.02.66-.28.92-.28s.42.29.52.29c.22,0,.47-.88,1.1-.14l.12-.32.33.14v-.73c.68.33,1.25.28.92-.55l1,.54,1.01-.96c.8-.33,1.57-.69,2.19-1.31l-.37-.18c-.01-.16.24,0,.36-.24.28-.54-.26-.32.92-.22l-.55-.45c.14-.38.79-.4.87-.5.09-.11.05-.46.14-.67.24-.54.5-2.05.25-2.62-.06-.15-.34-.15-.34-.22.01-.18.53-1.16.71-1.02v-.36s-.36-.09-.36-.09c.88-1.15-.31-2.21,0-3.39-.97.44-.87-.58-.36-1.09l-.72-.2c.17-1.15-.1-3.01-1.45-3.11l.12-1c-.14-.23-.89-.84-.96-.99-.42-.83.23-.42-.76-1.16-.17-.13-.86-.66-1.02-.73-.92-.36-.76.12-1.33-1.22l-.37.35-.56-.69-.81.08-.37-1.02h-.54s0,.55,0,.55c-.84.05-1.01-1.01-1.11-1.08-.08-.06-1.18-.2-1.62-.67-.16-.17-.13-.46-.25-.57-.6-.58-1.59,0-1.3-1.34l-.74-.35.09-.56c-.71.16-.68-.59-.98-1.14-.23-.41-.64-.99-.85-1.38-.1-.2-.53-.85-.54-.9-.04-.27.35-.44.45-.69.19-.49-.53-1.64.26-1.56.08-.29-.25-.13-.3-.22-.56-1,.05-.83.2-1.06.2-.31.34-1.66.6-2.16.19-.37.96-.83,1.11-1.46s-.72-1.41.76-1.32c.08-.29-.26-.13-.31-.21-.24-.48.77-1.04,1.22-1.07l-.18-.73h.64c-.18-.64.69-.67,1.19-.64v-.63s.62-.19.62-.19l.38.54c.21-.06.98-.84,1.05-.86.14-.04.36.15.55.09.32-.1.61-.45,1-.46.53-.03,1.77.53,2.23.59,1.13.17,2.52-.41,3.64.16Z"/><path d="M80.63,21.36c.05.02.07.26.17.31.65.32,1.09.56,1.79.32.11-.04.08-.33.19-.33.37,0,1.12.52,1.73.19v.73s1.63.2,1.63.2v.53s.92-.36.92-.36c-.07.37.48.43.54.66.07.27-.23.6-.14.77.1.19,1.08.91,1.44.77l-.19,2.46.57.2v.69c-.59.44-1.89.8-1.85,1.58-.31-.29-.98.04-1.15-.04-.54-.24-1.09-1.18-.85-1.79l-.36.19c.29-.6-.13-.64-.32-1.05-.1-.22-.37-1.07-.44-1.11-.3-.17-1.2.17-1.53-.58l-.09.36-.27-.34c-.51.3-1.18-.14-1.47-.14-.95,0-1.86.86-2.84.48-.28.42.57.36.36.55-.64.55-2.47.71-2.71,1.38-.03.08.17.53.12.6-.07.09-.4.11-.52.3-.33.49-.52,1.18-.91,1.66l.55.55c-1.16.4-.62.65-.8,1.24-.14.44-.86,1.17-.17,1.26l-.13.33h.73c-.11.51-.12.8-.71.94v.4c.46.46.65,1.11,1.15,1.51.1.08.36.04.43.12.27.33-.41.69.96.32l.09.93c1.42.11.87,1.2,1.84,1.63.32.14.54.03.77.12s.23.36.27.38c.15.07.91-.3.88.41h.36s.18-.36.18-.36c-.03.68,1.11.51,1.47.82.21.19.09.58.3.65.37.11,1.09-.05,1.41,0,.12.02.12.28.15.29.13.05.36-.16.52-.05.22.15.21.79.55,1.11.15.14.41.17.59.28.12.08.12.34.26.37.47.09.94-.36,1.24.17l-.09.56.27-.13c.15.47.4.11.44.14.07.05.13.84.46,1.1.56.43,1.73.12,1.53,1.15-.05.24-.47.42-.47.57s.56.61.14,1.19c.48-.03.56-.48,1.08-.16-.13.44.22.65-.35.8,1.23.36.63,1.05.93,1.96.07.21.6.43.71.66.12.27.01.57.08.72.03.07.58.4.6.45.14.3-.44.67.42.96-.49.21-.82.98-.18,1.09-1.04.87.19,2.85-.08,3.84-.11.39-.6.35.08.54-.72.92-.94,1.45-1.21,2.59-.35,1.46-.26.57-.99,1.29-.22.22-.35.76-.55,1.01-.66.83-1.44,1.46-1.46,2.7-1.17-.6-1.27.72-1.83.99-.33.16-.68.07-1.01.27-.28.17-.43.7-.46.72-.08.04-1.3-.47-1.08.57-.15-.31-.98.15-1.05.23-.2.23.25.85-.88.34l-.16.35-.9-.38-.19.38c-.73-.83-.9-.18-1.28-.18-.23,0-.41-.28-.6-.31-.99-.17-1.42,1.16-1.96-.05l-.72.37c-.45-1.16-2.27-.57-2.91-.8-.35-.13-.56-.58-.97-.63-.19-.02-.56.19-.62.13-.04-.04.1-.36-.12-.56-.49-.45-1.68-.28-1.35-1.27l-.46.54c-.08-.21-.73-.71-.76-.79-.31-.63-.43-2.03-.96-2.4l.16-.46-.55.09c.05-1.02.47-1.96.93-2.87.1-.2.56-.25.35-.88.55.13.75-.1,1.01.55l.64-.55c0,.56,1.24.26.92,1.28l.55-.28c.69.68.01.97.08,1.39.15.84,1.05,1.29,1.16,1.49.16.3-.21,1,.59,1.15.24.05.35-.22.45-.22.13,0,1.04.92,1.55.68l.09-.55c.62.58,2.27-.24,2.11.91h1.46s-.19-.36-.19-.36l2.24-.23c.73-.45,1.47-.66,2.34-.69l-.18-.55h.91s-.17-.89-.17-.89c.39-.19,1.58-.74,1.81-1.05.24-.33.01-.71.05-.77.18-.29.97-.26.4-1.13.64-.36.71-.6,1.04-1.13.09-.14.29-.17.29-.18.04-.12-.19-.75.05-1.06l.36.19c.19-.45-.52-.74-.54-.86-.07-.34-.03-1.46.55-1.34-.54-.38-.16-1.17-.23-1.43-.01-.05-.67-.39-.74-.63s.07-.46.05-.57c-.14-.55-.7-1.62-1.03-2.17-.04-.07.3-.39-.23-.33l.36-.45c-.95-.23-.45-1.44-.64-1.73-.07-.11-.34-.15-.47-.32-.58-.74-.3-.37-.88-.81-.02-.02.12-.41,0-.59-.03-.04-.78-.5-.83-.51-.65-.2-.56-.18-1.06-.39-.23-.09-.69.07-.94-.11-.2-.14.01-.48-.34-.63-.42-.19-.83.11-1.19-.06-.33-.16-.37-.53-.45-.58s-.94.14-1.21.09c-.06,0-.68-.49-.84-.6-.55-.35-1-.54-1.44-.72-.62-.26-1.86-.57-1.42-1.36l-.54.37c-.04-1.04-.95-.79-1.3-1.18-.3-.33-.51-1.19-.7-1.48-.18-.27-.62-.36-.7-.49-.29-.49.18-1.06-1.15-.87l-.36-1.64-.91.18.55-1.55-.55-.1c.6-.94.55-1.86.37-2.92-1.15.38.22-.84.26-.91.05-.08.13-.98.3-1.19l-.38-.18c.59-.61.88-1.13,1.19-1.93.23-.59.35-1.18.75-1.81.22-.35.67-.59.79-1.05l-.53-.61c.3-.15,1.55-.14,1.63-.21.06-.05-.06-.37.13-.54.13-.12.55-.15.75-.3.77-.55.38-.74.42-.78.07-.1.99-.08,1.16-.17.22-.12.03-.44.24-.57.3-.18.85-.17,1.16,0l-.09-.56.39-.33c.58-.2.37.4.52.34.33-.57,1.31-.74,1.88-.5Z"/><path d="M129.92,22.92l.33-.15c.2.62-.15,1.88.73,1.65-.45,1.44-.32,2.94-.56,4.46,1.14.27.85,1.03.02,1.48.52.36.3.68.18,1.19l.36-.19c.4.58-1.36,1.91.37,2.29l-.54.38c.2.69.58,1.25.17,1.97-.06.11-.32.09-.36.25-.2.84,1.03,2.53-.19,3.35.94.2.22.87.1,1.26-.25.85-.18,1.03-.16,1.71,0,.25-.14,1.62-.09,1.75.01.03.52.16.47.49-.04.29-.65.42-.68.47-.03.06.16.31.13.44-.08.34-.33,2.47-.25,2.74.09.28.45.4.46.73.01.4-.57.75-.48,1.19.08.42.53,1.01.48,1.64l-.73.19c.82.78-.78,1.33.91,1.65l-.88,1.21c-.1.48.48.6.51.74.24,1.07-.72,1.36-.73,1.44-.04.44.34,1.18.36,1.46.01.17.04,1.87.01,1.96-.06.22-1.17.56-.01,1.14l-.51,1.06c0,.4,1.35,1.05-.04,1.31-.04.91.32.77.43,1.04.26.67.09,1.49-.43,1.97,1.71-.12.04.84-.09,1.09-.09.17.19.72.06,1.16-.13.41-.59.41-.67.52-.03.04.15.25.12.3-.44.65-1.79.11-2.16.3-.32.17-.23.63-.55.64-.2-.23-.35-1.19-.41-1.25-.11-.11-.62.1-.68-.68l.37-.18c-.58-1.15.03-1,.27-1.36.21-.32-.04-1.09-.46-1.19l.55-.64-.73-.28.91-.46c-.27-.63,0-1.08-.73-1.37v-.37c.69-.15.08-.61.18-1.18h.55c-.26-.75-.39-1.58-.46-2.37,0-.09-.03-1.58-.02-1.71.08-.8.77-1.66-.26-2.04l.91-.92-.55-.09c-.06-.42.48-.84.52-1.03.06-.28-.28-.63-.29-.92,0-.07.06-1.23.07-1.3.07-.43.45-.43.45-.5,0-.29-.37-.58-.38-.92s.39-.92.33-1.63c-.04-.43-.29-.74-.32-.92,0-.07.3-.05.35-.21.4-1.19-.03-2.04.08-3.22.07-.81.44-1.85.46-2.78,0-.1-.32-.06-.35-.2-.03-.12.06-2.24.08-2.35.04-.2,1.65-1.26.11-.82l.38-1.35-.38-.2c.88-.94-.3-2.35.55-3.3l-.37-.18c1.08-.85-.35-2.14-.3-2.56.03-.23.55-.38.5-.91l-.56-.55.68-.91c-.46-.43-.09-.82-.2-1.38-.06-.29-.38-.61-.4-.82-.06-.65.92-2.01-.63-2.1v-.18c.62,0-.03-.97,1.1-.92l-.19-.91c.42.08.92-.14,1.3-.08.34.05,1.78.58,1.84.96Z"/><path d="M237.1,54.62c.15.5.32.94.12,1.45-.23-.04-.2-.25-.25-.42-.03-.11-.27-1.44.12-1.03Z"/></g></svg>