<?xml version="1.0" encoding="UTF-8"?>
<svg id="Layer_4" data-name="Layer 4" xmlns="http://www.w3.org/2000/svg" viewBox="0 0 841.92 616.1">
  <path d="M474.65,152.34c.79.45,6.8,5.71,4.34.6,5-.93,8.91,3.8,13.46,4.88,10.38,2.44,11.89.39,23.4,6.14,8,4.01,11.02,7.73,17.51,14.39,4.09,4.2,6.47,8.08,10.52,12.34,4.4,4.63,9.08,9.61,13.42,14.57,1.01,1.16,1.8,4.47,2.94,5.52.97.91,2.5.48,2.81.83.41.48,2.29,10.11,3.06,12.34.48,1.36,1.8,1.41,2.05,2.17,2.15,6.76,2.25,17.49,6.14,23.42.85,1.3,3.72,2.34,3.78,3.06.04.56-1.86,1.76-1.49,4.51.48,3.6,2.85,5.27,3.45,6.74,2.29,5.77,4.44,11.93,5.91,17.55,1.96,7.46,4.01,16.25,6,25.84,5.17,24.85,2.6,51.43,4.13,77.29.21,3.45,1.96,8.12,2.01,9.9.06,2.71-1.9,9.59-1.86,13.66.02,2.27,1.88,4.47,1.76,4.67-.06.1-1.65-.35-2.29,1.2-.87,2.07-.45,4.67-1.12,6.8-5.13,16.35-8,26.19-17.36,40.39-1.57,2.38.76,5.11-4.03,3.68-2.65,5.48-8.41,8.1-13.58,11.16-8.6,5.09-17.86,13.56-29,17.59-10.21,3.7-13.97,3.27-22.57,8.48-10.4,6.31-19.18,10.52-30.22,15.86-14.16,6.86-17.9,9.16-34.65,8.58-6.35-.23-23.57-2.83-28.86-1.7-.76.17-.6,1.8-1.34,1.98-8.12,1.88-19.04,2.52-26.58,3.41-1.26.14-3.58,2.01-5.46,1.57l.99,1.94c-3.18-.91-7.15,3.97-7.59,4.05-1.92.29-3.93-1.22-5.75-1.03-1.63.17-2.63,2.07-4.88,1.98-13.29-.48-27.16-1.53-40.77-1.49-15.48.06-18.73-1.26-33.18-6.02-3.64-1.2-16.33-3.6-18.71-6.59-.5-.64.1-2.38-.5-3.47-.83-1.53-4.24-2.42-5.09-3.29-1.39-1.43-1.72-4.32-3.06-5.91-6.86-8.1-11-11.68-17.1-20.57-4.57-6.64-6.49-8.72-12.38-13.15-2.87-2.17-4.65-10.46-6.28-13.81-16-33.08-22.31-69.32-30.14-103.73l1.94-.91c-.87-1.84-1.67-4.18-1.88-6.18-2.11-21.02-4.01-41.68-2.65-63.13.99-15.32,14.97-42.5,24.39-54.45,14.39-18.25,38.95-37.09,62.27-44.14,1.51-.45,3.45.72,5.44-.41,1.67-.97,2.03-3.29,3.35-3.72,2.01-.66,5,1.43,7.28.89l-1.01-1.96c3.45-.25,4.32-3.33,8.93-2.01l-.97-3.95c3.2.27,4.51.7,6.9,2.96-.43-3.14,3.49.06,2.19-3.8l1.76-.66c4.13,1.39,5.87-1.43,8.89-2.07,6.72-1.45,16.77-.79,24.1-3.43,11.33-4.11,28.28-6.74,42.65-8.91.81-.12.64-1.74,1.18-1.78,2.6-.19,12.94,1.86,14.43.83l-1.01-1.96c2.71-.85,6.18,1.22,8.39.97.29-.04,5.11-1.03,5.33-1.18.5-.31.81-2.67,1.63-2.75.25-.02,1.78,1.59,3.1,1.72,10.07.81,14.64-3.99,22.12-6.08,5.17-1.43,13.69-1.26,18.5-.64,5.95.76,7.07-3.85,10.94-1.55l-.02-.04ZM452.02,189.88c-2.11-1.05-3.72,1.36-5.23,1.39-2.29,0-8.81-2.65-12.9-2.13-1.43.19-3.29,2.17-5.21,2.36-2.11.21-3.04-1.53-3.72-1.53-.93,0-2.36,2.27-3.95,2.32-1.51.02-3.87-2.5-4.98-2.38-.7.08-1.51,1.55-2.5,2.03-.5.25-1.16-.12-1.7.12-.43.21.17,2.81-4.03.89-1.7-.79-.5-3.08-3.16-2.29,1.05,2.94-3.62,5.73-3.99,3.25v-2.25c-3.89,1.78-9.39-1.3-12.96-.58-1.98.39-2.79,4.94-8.33,1.55l-.52,2.98c-1.7.43-.43-1.61-1.45-1.78-3.78-.64-3.76,1.74-4.13,1.82-1.8.35-3.89-1.1-5.77-1.01l-1.22,1.47.68,2.5c-.33.48-4.84-2.03-5.44-2.03s-.33,1.76-1.2,2.01c-1.43.41-7.5.29-8.25,1.03l.99,1.96-5.54-.89c-1.03,3.25-6.1.48-10.58,1.14-4.07.58-4.63,2.71-5.91,3.39-6.02,3.18-9.55,2.83-15.86,4.57-2.69.72-4.34.66-5.56.97-.23.06-1.96,3.51-2.85,3.7-2.05.39-4.26-.31-6.49.27-1.67.43-2.89,2.63-5.23,2.73-1.51.06-3.02-1.05-3.82-1.01-.54.04-1.12,2.29-2.81,3.25-1.43.81-6.57.62-9.24,1.65-3,1.18-6.14,5.54-7.03,5.83-3.16,1.05-11.7.1-9.24,6.14-2.15-.35-6.28,1.2-7.36,2.98-.35.58.43,1.86.35,1.92-.5.31-2.56-.12-3.89.58-6.45,3.39-15.3,12.26-19.2,18.32-.5.79,0,2.42-.58,3.25-.72,1.07-2.4,1.2-3.33,2.98-1.22,2.36.54,6.8.12,7.46-.23.37-1.98.64-2.69,1.78-3.04,4.86-6.2,11.74-7.69,16.93-1.86,6.47-5.35,23.9-4.94,29.54.08,1.28,2.36,3.22,2.42,5.95.04,1.78-1.26,3.7-.85,5.79.14.72,1.7.66,2.29,1.92,1.03,2.15.33,7.98.93,10.19.14.54,1.67.54,1.78.97.76,3.12-3.04,1.9-2.01,5.44l3.87,1.65c.25,2.54-1.14,7.63-.95,9.67.06.7,2.58.48,2.15,2.07l-2.09,4.47c5.42,1.41,3.43,5.17,4.18,9.26.87,4.8,7.86,17.24,10.61,22.26,5.66,10.34,8.06,19.85,12.51,31.9.91,2.46,4.03,4.44,5.21,6.76,1.51,2.91.54,7.55,1.2,10.44.08.33,4.57,4.61,4.71,4.9,1.12,2.34,3.7,10.67,6.1,12.98.93.89,2.46.45,2.79.83.91,1.08,1.86,8.27,2.69,9.82.48.89,2.29-.1,2.98.85.83,1.16.7,3.14,1.53,4.3,3.25,4.53,3.56.81,5.23,8,.35,1.51,2.85,2.58,2.71,4.61,4.69-4.38,3.74,1.41,4.53,2.03,3.35,2.6,7.03.66,9.08,1.63,7.13,3.45,11.04,3.66,18.56,4.75,1.43.21,2.58,1.34,4.03,1.47,1.61.12,3.58-1.28,4.82-.91s1.34,2.56,1.7,2.79c.25.17,4.11-1.98,5.35,1.14.74-2.67,1.98-2.19,4.49-1.55,2.69.68,13.46,5.56,14.28,5.56.37,0,.43-1.96,2.69-2.42s3.95.62,5.17.43c.74-.1.54-1.96,1.26-2.07,1.39-.19,2.81,1.28,5.06.39,1.65-.64,1.12-4.2,6.1-1.45l1.65-2.85c2.34-.04,3.39,1.74,5.85,2.05.83.1,15.73-.41,16.54-.64,3.33-.97,1.47-.72,6.06-1.55,2.73-.5,10.69-4.42,14.14-3.62.62.14.14,3.1,5.5,1.34s2.56-.64,5.95-.99c2.77-.29,5.58-3.6,8.37.43.85-2.96,1.3-1.03,3.45-1.45,5.97-1.18,3.49.37,7.4.54,2.17.08,4.82-1.45,7.13-1.72,1.59-.19,3.33.93,5.58.5,3.29-.64,10.48-8.64,11.18-8.77,2.07-.41.76,3.39,7.67-1.01,3.12-1.98,3.14-.76,3.56-1.03.35-.23.41-2.09,2.38-3.14,1.84-.99,6.9-1.24,7.65-1.82.1-.08-.66-1.41-.19-2.58,2.29-5.56,6.99-9.88,13.13-8.25l-1.96-2.96c9.67,1.22,11.99-10.25,21.81-6.97l-.85-1.82c1.9-.66,6.16-4.03,6.64-5.83.56-2.03-.74-4.03-.31-5.29s4.47-3.82,5.4-5.42l-2.96-1.96c1.86-2.44,3.16-3.04,5.93-1.49.39-.45.45-7.24,1.26-8.68.5-.89,5.23-4.16,5.68-6.72-5.46-1.76.99-2.98,1.92-5.25s-.08-5.11,1.22-7.44c4.01-7.11,7.5-13.09,9.47-21.02,1.39-5.56-.76-12.42,4.22-14.86-6.24-3.37-.19-5.13.5-6.39.56-1.01-1.36-4.07.48-5.54l-3.95-.5c-.43-1.59,1.32-.7,1.61-1.18,2.44-4.3-.19-6.41-.31-9.34-.08-1.82,1.14-7.21.45-8.7s-2.6-1.32-2.63-2.01c-.04-1.14.95-5.37,2.85-4.53v-.97c-4.36.35-.54-5.02-1.14-7.26s-3.12-6.28-3.45-10.27c-.27-3.18,1.78-6.37,1.67-7.69-.06-.85-2.4-.72-2.91-2.17-1.2-3.39,2.15-6.2-.7-11.2-.72-1.28-2.54-2.17-2.96-3.08-.64-1.41.6-2.52.54-3.35-.04-.7-1.88-.5-2.01-1.22-.21-1.18.95-3.16.7-4.84-.45-2.85-3.18-6-1.65-9.39l-2.98-.06,1.98-8.91-2.96.97c2.27-4.75-1.05-4.92-1.98-6.7-3.58-6.86-3.41-17.14-5.75-23.71-.68-1.92-5.19-13.64-5.66-14.24-.62-.79-1.55-1.12-3.1-2.96-4.88-5.81-1.7-2.73-2.56-8.19-.97-6.04-8.21-4.49-10.46-6.31-1.65-1.32-1.01-2.54-1.47-3.04-4.4-4.75-11.58-1.03-16.48-4.49-.41-.68,1.7-2.87-.74-3.64-4.51-1.39-4.49,1.74-4.8,1.72-1.98-.08-4.9.1-6.04,0-2.73-.27-5.97-3.16-8.72-2.87-.39.04-3.74,5.44-6.59,4.01l-.04-2.98c-5.29.04-12.28-.89-17.03-3.08-.76-.35-.81-1.55-1.01-1.63l.06.02Z"/>
  <path d="M424.25,251.38c3.49,1.49,8.21,5.48,13.13,7.05,1.01.33,2.63-.6,2.87-.33.14.14.29,2.54,1.49,4.01,5.42,6.7,10.79,6.2,15.36,16.33.97,2.15,2.85,2.38,2.91,2.56.45,1.45-.93.6,1.03,4.65s2.36,7.98,4.16,12.32c.29.7,1.74.72,1.88,1.45.5,2.36-.66,4.78.58,7.24,1.8,3.58,16.91,10.89,21.58,17.86,7.36,10.98,8.7,21.38,6.31,33.9-3.35,17.43-13.75,36.32-27.78,49.06-8.81,7.98-29.73,25.57-41.01,27.91-6.72,1.39-12.88.12-19.47,5.09-1.03.79-.31,2.58-2.29,3.89-4.94,3.25-13.21,2.6-18.69,2.34-4.44-.21-7.92-.68-12.3-1.45-10.77-1.84-22.02-3.18-32.83-6.31-1.9-.83-16.27-12.49-17.28-14.31-3.04-5.42-4.36-13.58-9.43-19.04-2.94-3.16-9.61-5.64-12.9-9.18-4.69-5.04-7.52-15.24-8.97-21.6-.17-.7-5.23-3.27-2.05-7.24l-1.82-.83c3.43-6.12.35-14.14.39-19.89,0-1.88,2.19-8.5,2.15-8.95-.1-1.03-1.94-1.86-1.61-2.46.04-.06,1.16.23,1.57-.37,2.73-3.8,1.92-9.8,3.45-13.73,3.29-8.37,21.23-33.14,28.05-40.06.91-.93,5.68-3.31,6.31-4.65,1.3-2.77-1.82-4.2,4.18-3.8l.66-2.96c4.84-1.61,9.03-4.55,13.5-6.93,4.96-2.65,10.98-5.15,16.85-7.17,2.67-.91,6.93-.81,9.05-1.88,1.55-.79,1.47-2.4,1.78-2.65.27-.21,2.19.95,3.35.89,6.88-.41,13.48-2.25,20.3-1.03v-2.98l25.55,3.25h0ZM376.87,259.05c-.81-.76-8.19,2.63-9.24,3.91s-.54,2.85-.68,3.02c-.37.41-6.74-1.12-10.81.6-1.86.79-3.64,3.64-4.38,4.03-13,6.88-16.15,8.23-25.47,19.66-13.58,16.62-27.43,36.14-28.76,58.5-.54,9.2,1.55,26.63,4.47,35.27,1.05,3.12,5.21,7.34,8.35,8.35.99.33,2.46-.7,4.01,0,2.67,1.24,4.36,7.01,8.91,5.4,1.76-2.11,1.1-9.88,1.59-10.89.62-1.24,2.67-1.43,3.16-2.19.76-1.16.54-4.13,1.32-5.91.39-.89,2.03-.85,2.48-2.69.25-1.05-.52-2.65-.37-2.87.31-.48,3.22-1.24,4.11-2.09,10.29-10.07,20.94-20.61,34.67-26.83.62-.29.54-1.67,1.34-1.9,1.2-.33,4.59,1.05,5.68.89.23-.04,1.92-2.38,3.58-2.44-3.39-1.84-4.82-7.88-6.93-10.67-4.53-5.97-9.55-8.23-13.93-16.08-5.44-9.76-8.77-18.81-3.85-29.5.95-2.09,5.6-6.62,6.37-8.79.48-1.36-.54-2.73-.45-2.85.27-.35,3.12-.35,3.74-1.26.48-.7.14-2.67,1.14-4.3,2.38-3.91,9.16-3.68,9.96-8.39l-.02.04ZM413.73,262.92l-1.59-2.77c-1.36.17-8.37,2.85-8.83,2.77-1.07-.19-1.8-2.27-3.06-2.48-3.68-.62-14.9,3.8-17.2,2.29-.29-.19-.21-1.14-.29-1.59l-1.88-.1c-.41,3.39-4.28,3.82-6.43,6-1.67,1.7-8.46,11.89-9.65,14.12-2.81,5.19-5.21,11.62-4.28,17.57.52,3.2,4.63,14.57,6.37,17.16.35.54,8.37,6.35,9.72,7.9,3.93,4.59,5.62,10.94,9.24,16.08.72,1.01.74,2.85,1.18,3.22.68.58,5.13,1.07,6.45,1.63.21.08.39,1.47,2.15,2.15,1.45.58,3.72,0,4.84.64.72.43.91,3.16,2.89,3.62,1.18.27,2.73-.93,3.14-.72.5.25,2.81,4.18,6.59,5.25,5.54,1.57,5.75-2.05,8.1-3.43,5.91-3.45,12.98-6.8,18.67-10.85,8.91-6.35,9.53-10.56,5.71-20.63-.41-1.07-1.78-1.16-1.94-1.53-1.34-2.94-1.41-7.26-4.94-9.51-11.76-.39-23.61,8.43-34.77,2.09-4.13-2.36-9.14-8.1-8.81-13.09.56-8.19,6.37-25.68,17.45-20.82l-6.26,6.18c-3.93,6.35-6.22,11.1-3.18,18.63,1.45,3.56,10.03,7.19,13.91,6.88,3.06-.23,6.33-2.17,9.14-2.69,1.61-.29,11.12-1.88,11.7-1.82.43.04,6.7,4.28,7.11,4.75.23.25-.27,1.3,0,1.72,4.38,6.47,9.28,16.06,7.28,24.15-.25,1.03-2.27,1.14-3.06,2.13-5.06,6.47-9.94,10.4-16.87,15.88-1.12.89-1.51,2.79-2.19,3.25-.81.54-8.95.83-6.66,3.22,1.57.48,6.99,2.36,7.67,3.25s.45,2.89,1.22,4.01c9.1,13.07,9.88,11.51,14.97,28.71.25.85,1.82.72,1.78,1.18-.08,1.03-1.01,2.13-.87,3.99.37,4.84,1.07,9.65,2.01,14.43,1.41,1.18,9.45-5.87,10.96-7.4,11.39-11.43,21-24.7,27.18-40.23,2.03-5.11,3.62-18.98,2.09-24.06-3.35-5.13-4.75-11.39-8.17-16.46-1.3-1.94-14.62-11.68-17.3-13.44-.89-.58-2.63-.41-2.85-.62-.14-.12.85-1.72.33-3.64-3.35-12.57-16.68-34.81-28.2-40.35-4.16-2.01-4.18-2.48-6.84-4.07-.52-.31-9.36-2.96-10.56-3.18-1.03-.19-2.58,1.01-3.16.6l.02.04ZM385.06,354c-.87-.89-.17-3.72-2.91-4.55-5.19-1.57-13.85,1.41-18.13,4.34-2.38,1.63-6.99,6.49-9.39,8.39-10.65,8.5-13,8.02-18.79,21.89-4.34,10.4-4.01,13.79-3.93,24.37.04,3.66-1.45,11.56.31,14.51,4.05,2.07,7.15,7.75,11.43,9.1,8.56,2.71,22.14,3.12,31.3,3.89,7.69.66,23.55,2.91,30.68.08,3.2-1.28,6.06-3.76,9.94-4.92,5.23-1.57,23.63-4.11,26.32-8.41.48-.79-1.55-4.42-1.57-6.47,0-2.52,1.61-5.42,1.49-7.96-.21-4.57-5.79-26.03-8.66-29.02-.72-.74-2.71-.74-3.7-1.72-1.43-1.41-1.82-4.9-3.29-6.16-4.22-3.6-15.11-6.8-19.56-8.83-3.31-1.51-12.61-7.55-14.64-8.14-1.7-.5-5.52,1.05-6.95-.41l.04.02Z"/>
  <path d="M442.69,463.03c.41.41,1.74.19,2.25.6,1.07.89.91,2.38,2.79,3.25,3.31,1.53,6.28-1.82,6.49-1.55.39,5.75-6.37,10.29-11.54,8.17-1.1-.45-9.47-6.68-9.98-7.38-.23-.31.37-1.65-.06-2.46-2.87-5.44-8.83-16.77,1.8-14.78,2.11,5.02,4.36,10.23,8.25,14.14v.02Z"/>
  <path d="M501.09,294.46c2.34,1.47,10.32,2.98,12.61.27.7.74-3.78,7.5-4.16,7.71-.95.56-10.15.48-11.43-.06-.45-.19-6.95-6.02-7.15-6.45-1.78-3.87-5.58-17.65,2.36-16.08,5.27,1.03,2.15,5.17,3.02,7.96.21.64,4.42,6.43,4.78,6.64l-.02.02Z"/>
  <path d="M341.48,469.13c.27.35,1.98-.19,1.7.64-1.57,1.1-1.53,3.18-2.73,4.51-1.47,1.61-10.77,5.15-13.09,5.5-4.18.62-8.91-2.42-11.95-5.04-.45-2.56,1.88-.91,3.7-1.8,3.51-1.7,4.26-.79,8.56-1.78.72-.17,5.31-1.74,5.54-1.94.1-.1-.87-1.28-.66-1.67.14-.27,1.36-.35,1.63-1.01.97-2.58,0-4.47.12-7.09l3.45-.95c.58,0,3.47,6.62,3.93,7.83.37,1.01-.52,2.42-.23,2.79l.02.02Z"/>
  <path d="M527.47,386.85c-.06.1-1.47.04-1.82.85-.79,1.84-.37,4.18-2.09,5.66-1.43,1.24-8.29,4.71-9.86,3.51-.83-2.67,1.49-1.51,1.94-2.71,1.55-4.01,4.53-15.57,1.03-18.63l1.84-.95-3.82-10.44c3.1-3.25,11.1,10.96,11.7,13.66.43,1.96-.56,3.78-.39,5.68.1,1.22,1.76,2.83,1.45,3.33l.02.02Z"/>
  <path d="M303.51,251.13c.85,3.06-2.5,3.66-3.56,6-4.71-1.98-12.47-2.03-10.32-8.99h-3c1.28-5.37-.58-14.37,5.95-16.87,1.18,7.05,2.46,18.34,10.92,19.87h0Z"/>
  <path d="M244.03,367.13c-.39,9.08,7.42,15.38,15.88,10.92-.56,17.18-21.62,6.55-20.84-6.41.23-3.85.89-5.19,4.98-4.51h-.02Z"/>
  <path d="M485.69,441.26c-.21.31-5.81,3.93-6.18,3.91-1.01-.04-3.29-2.79-6.45-.68,6.55-6.99,6.02-14.66,1.98-22.78,8.77-2.11,14.39,13.87,10.65,19.56Z"/>
  <path d="M242.02,316.56c.37.25.29,3.27.6,4.07.52,1.34,1.65,2.27,2.15,3.64.35.93-.68,2.46-.25,3.25,1.12,2.03,7.55,2.38,8.33,6.41l-5.54,4.4-7.28-.95c1.88-3.51-2.34-5.27-3.04-7.4-1.3-3.97.7-16.21,5.02-13.42h0Z"/>
  <path d="M454.95,210.7c.19.37,2.03,7.59,2.01,8-.17,4.18-5.44,11.56-10.15,10.58-3.06-.62,1.65-5.97,2.21-7.71.74-2.4.83-5.19.35-7.65l-7.05-8.43c3.41-.81,5.31-1.01,8.29,1.14.45.33,4.2,3.8,4.34,4.07h0Z"/>
  <path d="M525.47,421.83c5.19,11.54-5.89,18.54-15.73,13.73-1.14-3.99,9.36-7.83,9.67-9.08.19-.72-.89-1.61-.58-2.58.37-1.18,5.06-3.33,6.62-2.07h.02Z"/>
  <path d="M505.77,228.29l-3.08,7.81-8.81,1.1.5-1.98c-6.08.89-10.69-7.28-9.41-12.88,2.65.31,3.99,2.69,6.53,3.87,3.82,1.76,10.36,4.26,14.26,2.09Z"/>
  <path d="M295.19,396.32c5.11,3.33.14,15.55-6.9,15.15-1.3-.08-7.07-2.09-7.59-3.18l9.92-7.96c-2.73-.93-2.77-3.78-2.98-6.43,3.16.41,4.75.6,7.52,2.42h.02Z"/>
  <path d="M505.04,268.71c-1.55-1.61-1.47-7.52-.25-8.68,1.74-1.61,2.27,1.9,2.94,2.4.43.31,1.45-.31,1.8-.08,1.24.85.91,3.8,5.48,2.67l5.64-8.95c3.04,10.11,2.32,13.73-8.27,16.68-.41-.04-7.05-3.74-7.34-4.05v.02Z"/>
  <path d="M265.45,273.54c-.12.29-1.16.45-1.49,1.18-2.87,6.43-6,12.67-5.06,20.03,2.91,2.17,9.92-4.71,10.89-3.97,4.28,3.25-8.66,12.9-12.01,4.51-.23-.56-.87-10.71-.81-11.8.21-3.22,5.33-18.25,8.52-18.34l2.34,1.36c-.85,2.32-1.36,4.8-2.38,7.05v-.02Z"/>
  <path d="M524.91,335.15c.1.27,3.62,2.77,4.34,3.62,1.03,1.18-1.05,3.6,4.3,2.6.91,6.66-10.71,4.59-12.67,1.76-.56-.79-.19-2.6-.68-3.74-.6-1.36-1.92-2.44-2.19-3.64-.31-1.3.83-8.62,1.74-9.22,6-.81,3.95,5.62,5.17,8.62h0Z"/>
  <path d="M341.15,223.41c.1.06-.7,1.2-.04,2.44,1.92,3.56,4.18,6.93,6.12,10.61.5.91,1.74.81,1.78.89,1.53,3.37-6.72,3.62-8.81,2.38-3.37-2.03-8.41-16.31-3.51-16.95l4.47.66v-.02Z"/>
  <path d="M397.71,211.44c-1.55,6.86,6.2,13.87,12.9,11.91-1.49,5.23-3.97,5.62-8.46,7.65-3.72-.08-15.46-20.28-4.44-19.56h0Z"/>
  <path d="M477.94,243.2l2.58,7.79c-.95,5.6-6.68,10.07-12.38,7.57-3.78-1.65-.02-6.16,2.89-6.57l-.87-2.77c4.07-.62,1.61-2.58,2.13-3.78.64-1.49,4.03-2.4,5.64-2.23h0Z"/>
  <path d="M388.51,465.57c.23.1.25,1.32,1.05,1.65,1.05.41,4.94.79,5.17,1.1-4.73,5.48-8.23,3.37-13.62,2.15-1.18-.27-2.73.85-3.08.64-.25-.12-.43-1.74-1.16-2.25-2.71-1.94-5.87-2.27-5.93-6.99,1.22-1.55,1.24-1.49,3-1.08,3.18.76,8.58,4.51,10.75,5,1.26.29,2.48-.83,3.82-.25v.02Z"/>
  <path d="M546.18,385.73c-.64,1.14-5.13,2.67-6.68,2.21-.56-.48,4.44-13,0-13.38l3.49-2.27c3.76,2.15,5.19,9.96,3.2,13.44h-.02Z"/>
  <path d="M277.75,316.58c-3.14,7.96-16.97.99-10.94-6.55,5.25-1.03,5.83,6.72,10.94,6.55Z"/>
  <path d="M291.35,433.86c.54.64.64,2.6,1.16,3.58l-7.5,3.87-6.26-5.23c3.49.43,10.05-5.33,12.63-2.21h-.02Z"/>
  <path d="M506.12,324.15c1.01,1.26,4.22,1.61,3.62,4.3-3.53,1.53-6.53-.39-9.96-1.49l-.95-7.42,4.01-.52c1.34,1.55,2.01,3.56,3.27,5.13h.02Z"/>
  <path d="M269.64,358.07c-4.03.21-8.91,2.54-10.34-2.81-1.98-7.42,6.62-1.96,10.03-1.05l1.22,1.51-.93,2.36h.02Z"/>
  <path d="M530.57,301.68c-.52-.43,2.13-7.86,2.54-8.89.35-.87.1-2.73,1.9-2.01,6.33,2.6,2.69,12.98-4.44,10.89h0Z"/>
  <path d="M476.84,465.61c.27.1,1.92,3.22,4.63,2.69,2.09,4.59-10.19,4.3-11.33,2.94l1.39-5.02c.35-.27,5.06-.68,5.31-.6Z"/>
  <path d="M364.99,484.18c-.93,2.34-8.62,1.49-10.17.97-.97-.31-1.98-3.64-4.69-3.45l3.41-3.51,11.45,6Z"/>
  <path d="M408.6,484.16c3.08,3.12-11.8,6.72-13.87,1.47-.41-2.23.97-1.36,2.46-1.47,4.01-.29,7.57,1.12,11.41,0Z"/>
  <path d="M309.21,279.64c-2.58,2.05-7.96.56-8.6-3.12l2.56-2.44,7.07,3.29c-.39.66-.52,1.86-1.03,2.25v.02Z"/>
  <path d="M496.86,399.87c1.26,1.26-1.7,9.53-4.96,8.91l-.89-8.83,5.85-.1v.02Z"/>
  <path d="M397.71,271.95c.52.74-.21,2.69-.91,3.53-1.26,1.55-8.14,2.96-9.67,4.65-.25.29-3.85,5.97-4.05,6.43-2.13,4.69-2.75,16.29-.43,20.78,4.3,8.31,10.77,11.7,19.66,13.07,1.2.19,17.82-.04,14.24,3.12-9.9-.37-22.31-.06-29.75-7.71-10.48-10.79-13.35-29.38-2.03-40.41,2.29-2.23,10.85-6.39,12.92-3.41l.02-.04Z"/>
  <path d="M458.18,358.22c-1.61,1.7-12.47-14.41-1.63-10.77,4.09,1.36,2.81,7.73,1.63,10.77Z"/>
  <polygon points="428.43 339.36 429.44 342.34 426.47 342.34 426.47 339.36 428.43 339.36"/>
  <path d="M390.21,373.64c1.41,1.3,2.83,2.5,3.53,4.4-6.33-.99-9.51-3.18-16.08-1.7-13.11,2.98-25.24,14.9-28.82,27.7-1.86,6.72-.89,13.31-3.18,19.62-1.86-2.11-2.11-7.46-1.94-10.07.54-8.14,3.8-19.74,8.68-26.32,1.36-1.84,10.11-10.61,11.87-11.93,4.26-3.22,4.69-2.07,8.87-3.33.81-.25.81-1.53,1.26-1.65.7-.21,10.87-.27,11.68-.08,2.52.56,2.71,2.01,4.13,3.35h0Z"/>
  <path d="M397.36,395.24l4.32,5.6c-4.38.12-12.26.04-16.27,1.08-2.11.54-3.08,2.05-4.53,2.46-2.96.85-7.55.76-10.61,3.72-1.36,1.3-1.43,4.28-3.27,4.65l-.97-8.25c2.6-.81,1.01-2.27,1.18-2.46.39-.48,1.67-.56,2.27-1.18.93-.97,1.3-2.44,2.19-3.04.56-.37,12.03-4.44,12.71-4.49,1.34-.08,2.85,1.32,4.18,1.34,2.87.02,6.12-1.43,8.85.56h-.06Z"/>
  <path d="M351.09,415.73c-3.06-1.2-1.8-5.31-1.96-7.94,1.72-.27.74,1.36.99,2.44.41,1.8.91,3.64.97,5.48v.02Z"/>
</svg>