<?xml version="1.0" encoding="UTF-8"?><svg id="Layer_2" xmlns="http://www.w3.org/2000/svg" viewBox="0 0 289.48 107.99"><g id="suuqar"><path d="M120.32,16.66c.17.19.16.6.27.67.17.12,1.53.16,2,.35.44.18,1.12,1.45,1.79,1.88.07.04.28-.13.31-.11.12.11.27.92.44,1.06.05.04.42-.19.52.16.16.27-.19.9-.14.99.11.23,1.24.8,1.38.98.29.38.22,1.17.47,1.56.66,1.04,1.24,2.23,1.77,3.46.08.18.71.28-.06,1.1.47.14.63.74.67,1.21.03.38-.69.62.08.58l-.38.28.75.1-.2,1.62c.62.44.08,1.27.28,1.87.14.41.78.52.3,1.22h.57c.07.06-.47.87-.49,1.04-.03.41.1,1.6.19,2.07.03.16-.13.37-.09.47.91-.49.07.72.04.89-.19,1,.19,1.97.27,3,.03.34-.22.72-.1,1.07.08.24.45.25.51.34.18.29.03,1.37-.52,1.28l.38.19-.38.28c1.09.85-.02,1.73.19,2.6.03.14.29.13.31.18.06.11-.32.4.25.33v.18c-.93-.03-.06,1.44-.75,1.32l.56.37c-1.04.38-.23.78-.22.84,0,.05-.02.95-.03,1.1-.06.79-.86,2.11-.15,2.22l.02.27c-.51.34-.75.46-.75,1.11l.37.12-.56.66.57.09c-.7.95.29,1.81-.94,2.54l.38.19c-.77.61-.43,1.69-.37,2.55.67-.55.25.55.09.76-.33.41-.24-.56-.54.8-.04.2-.29.37-.31.6,0,.1,1.48.76-.35,1.06l-.37,2.52c.05.32.55.11.74.37s.03.52.1.68c.12.26.53.47.72.76.56.87,1.02,1.83,1.71,2.62l.28-.27c.7-.01.22.68.22.95,0,.05.5.71.53.75.49.5,1.41.46,1.33,1.41l.28-.38c.38.26.34.73.54,1.07.06.1.33.13.42.32.06.12-.27,2.41-.35,2.51-.12.14-.8.32-1.08.52-.4.29-.25.86-1.01.66-.17-.05-.04-.56-.49-.38l-.19.75c-1.03-.18-.48-.95-.61-1.27-.02-.04-.21-.05-.25-.12-.5-.87-.54-.45-.62-.53-.39-.41-.04-.62-1.05-1.45-.18-.15-.07-.43-.16-.53-.11-.12-.43-.05-.69-.35-.38-.43-.22-1.1-.39-1.43-.14-.26-.94-.74-1.03-.91-.15-.29-.07-.7-.1-.75-.04-.07-.49.13-.66.1s-.37-.32-.55-.28c-.63.12-.23,1.44-.3,1.5-1.1-.17-1.33.95-1.89,1.6-.27.31-.93.38-.75.94.08.25.61.16.56.47l-1.7.38c.41,1.07-1.08,1.92-2.07,1.5v.57c-.77-.41-1.29.17-1.99.2-.57.02-1.32-.27-1.91-.37s-1.15.18-1.83-.37c-.23-.18-.04-.52-.16-.73-.13-.23-1.09-.5-1.34-.65-.51-.31-.82-.95-.88-1s-.24.12-.39-.02c-.39-.38-.15-.8-.28-1.18-.19-.56-.91-.56-.66-1.33l-.37.37c-.19-.45-.71-.58-.94-1.22l.56-.47-.72-.47.35-.56-.55-.31c.77-1.2-.81-1.4-.02-2.24-.63.02-.5-1.04-.37-1.51l-.94.19c-.12-.68.68-1.1.73-1.23.02-.06-.16-1.14-.2-1.19-.09-.1-.58-.03-.72-.32l.11-.47.64-.09c-.48-.63-.24-1.31-1.14-1.72,1.06-1.48-1.11-2.48.2-3.94-.62-.15-.15-.46-.22-.94-.05-.34-.26-.62-.28-.95-.04-.74.65-2.47-.63-1.97-.35-.77.19-1.08.28-1.48.06-.27-.15-.58-.1-.84.03-.14.36-.11.38-.24.07-.46-.33-1.55-.29-1.87.02-.19.37-.35.3-.46-.01-.02-.25.06-.37-.14-.2-.37-.04-1.36.06-1.8.07-.31.72-.7-.06-.7v-.36c.9-.03-.12-1.32.18-1.89h-.57c.15-.59.87-1.05.93-1.62.15-1.45-1.23-2.13.2-3.38-.91-.39.18-2.06.37-2.83l-.56-.37.38-.56-.37-.37.57-1.13-.4-.2.03-.35c.13-.37,1.7-1.02.54-1.53l.75-.67v-.37c-1.04-.22-.24-.99-.08-1.51.07-.25-.12-.56-.02-.76.14-.26.53-.29.62-.41.09-.11-.16-.82-.13-.98.02-.13.28-.11.3-.16.17-.42.17-.28.32-.56.6-1.15.24-1.66.69-2.79l-.56-.09c.27-.23.71-1.68.8-1.76.36-.31.11.09.45-.41,1-1.46,2.04-2.98,3.28-4.2.48-.48,1.3-.96,2.07-1.27l-.16-.34c.52-.3,1.01-.46,1.59-.57s1.31.28,1.49-.41l1.03.39v-.57s.47.19.52.24ZM117.87,21c-.4-.21-1.87.74-1.7,1.42l-.52.03.19.75h-.93c-.14.46.11.68-.39.87l.19.55-.55.11c0,.63-.52,1.73.17,1.96-.98.6-1.39,1.71-1.14,2.83l-.55.09c-.15.67.48.2.75.47.03,1.17-.91,1.04-1.12,1.24-.02.02.17.22.12.33-.02.03-.38.16-.31.59l.56.1c-.05.35-.74.68-.76.79-.09.55.6,1.62-.56,1.76l.39.47c-.4.46-.13,1.2-.22,1.48-.08.25-.44.24-.51.4-.12.28.27,1.74-.24,2.25l.39.29c-.63-.09-.32.67-.38,1.13l.75.09c-.19.55-.68,1.08-.85,1.61-.21.67.23,2.35.1,2.88-.05.2-.66.25-.54.79l.9.57c-.35.45-.22,1-.94.85l.76.19-.28,1.33-.67.18c.32.63.47,1.39.19,2.07l.75-.19c.29.96-.39.94-.54,1.16-.08.11.15.4.11.59s-.3.36-.32.6c-.03.42.5.73.53.98.03.22-.57,1.32-.53,1.38.01.02.27-.04.38.13.24.36.14,1.12.56,1.48l-.37.28h.57c0,.61-.77,1.63-.4,2.13.14.18.43.22.49.32.2.31-.55,1.69-.47,2.27l.75-.19c.13.81-.03.85-.56,1.32l.36.08-.17.67h.75c.08.32-.25.12-.33.21-.07.08-.02,1.99,0,2.09.12.48.51.71.87.99l-.53,1.14c.27.46.53.07.94.1l-.02.93h-.54c-.11.76.47.98.71,1.47.39.77.44,1.34.66,2.08.04.13,1.38,1.19,1.8,1.88.15.24.03.59.2.71.05.04,1.2.42,1.27.43.42.05,2.71-1.16,2.71-1.38,0-.16-.27-.56-.19-.64l1.47-.42c.14-.79.22-1.34.72-2.01.24-.31.85-.33.61-.94l-.34-.21c1.71-.12,1.72-1.73.19-2.08l.18-1.12c-1.04-.03-.8-.97-1.14-1.75-.07-.15-.36-.15-.36-.26,0-.21.23-.48.21-.72-.02-.21-.48.02-.39-.3.8-.32,1.93-.17,2.69-.39.16-.05.35-.87,1.2-.01.65-.03.17-.88.82-1.02.1-.5-.62.05-.25-1,.2-.59.63-.73.83-1.26l-.58-.47.39-.84-.39-.28.35-.02-.15-.34c1.35-.04.61-1.9,1.5-2.56-.65-.17-.18-.37-.27-.85-.12-.59-.66-.78-.65-.83.01-.15.27-.93.36-1.11.06-.14.39-.1.38-.21-.02-.18-.32-.47-.3-.76.02-.26.52-.56.5-.94,0-.06-.47-.07-.38-.93.02-.18.59,0,.37-.49h-.75c.1-.84.97-.85.76-1.7l-.76-.1c.13-.57.12-1.25.76-1.5v-.38s-.38-.18-.38-.18l.38-1.04h-.76s.39-1.22.39-1.22l-.39-.29c.57.09.18-.42.38-.81.11-.22.45-.03.38-.33l-.55-.02-.2-1.02.56-.1-.57-.2.4-1.4c-.04-.46-.83-.33-.48-1.21.07-.18.39-.31.41-.48.01-.13-.44-.79-.14-1.22h-.56c.38-.86-.31-1.21-.39-1.8-.06-.43.56-.09.39-.65l-.58-.11c0-.93-.09-1.89-.09-2.82,0-.2.25-.42.24-.55-.02-.19-.78-.73-.32-1.41h-.57c.59-.68-.09-1.11.19-1.89h-.66c-.16-.25.06-.69-.05-1.05-.09-.28-.36-.28-.37-.3-.03-.07.13-1.1-.24-1.47l-.56.38-.08-1.33-1.16-.36-.08-.96-.75.56c-.22-.61-.31-1.87-1.14-1.7.54-.59-1.34-1.05-1.41-.37h-.38s-.13-.32-.13-.32Z"/><path d="M168.99,16.82c.07.04.15.36.34.5.7.52.6.65.87.91.38.37.86-.19.52,1.18,1.29.51,2.61.17,3.82.24.29.02,1.46.45,1.55.44.18,0,.36-.37.72-.29.26.06.44.49.69.62.31.15,1.18-.12,1.33,0l.2.66.91-.17.3.75c.52.14.03-.71.09-.75,1.03-.3,1.4,1.17,1.5,1.22,1.71.94,3.63,2.02,4.68,3.81.36.61-.09,1.16,1.19,1.31.06.66.39,1.42-.39,1.67l.55.3c-.14.38-.25.8-.18,1.21.06.32,1.47,1.22,0,1.22v.27c.51.57-.05,1.24.94,1.33-.24.42-.39.72-.94.66-.07.37.33.47.34.81,0,.54-.78,1.35.04,1.55-.15.31-.58,1.17-.64,1.41-.15.54.52.76-.65.97l-.54,2.68.51.68c-.96.05-.53,1.37-1.13,1.33l.37.28c-.73.29-.56.81-.86,1.4-.21.42-.8.44-.46,1.14h-.57s.15.34.15.34l-.91.41c.97,1.04-.48,1.01-.44,1.85l-.31.04.37.56h-1.13s.17.73.17.73l-1.3.4.13.34-.32.15.15.43-.33.03.56.93h.37s.1-.38.1-.38c.76.22.51.74.71,1.08.37.63,2.11,1.23,2.53,1.62.31.29.98,1.38,1.01,1.82l.54-.17c0,.6.81.61.92.78.22.32.75,1.97.98,2.27.09.11.82.58.94.33-.36.72.28.74.48,1.14.17.34.2.95.65,1.55.16.22.57.3.67.51.07.16-.15.51-.09.57.03.03.32-.03.49.08.56.35.71,1.21.45,1.81.57-.03.8.18.76.76l.36-.18.22.82-.39.21c.3.38.49.54.94.28-.28.59.37.82.37.87.05.79.06.24.18.59s.14.81.21,1.18h.94c.07.74-.6.41-.16,1.29l.7.05.6,1.86.56-.19c.18.87,1.03,1.21.19,2.07h.56c-.18.47.23.71-.38.85l.38.19c-.39.83-1.02.72-1.76,1.04-.12.05-.13.33-.16.34-.08.03-1.55-.17-1.63-.2-.38-.17-.74-1.2-.98-1.51-.19-.24-.76-.44-.87-.71-.09-.21.31-.34.21-.56-.25-.58-1.14-1.38-1.39-1.83-.16-.29-.05-.73-.08-.78-.09-.12-.47-.14-.62-.42-.17-.31.09-1.16-.49-1.95-.47-.65-.53-.66-.97-1.39-.1-.16-.81-.44-1.06-.92-.22-.43-.14-.91-.31-1.2-.12-.19-.49-.25-.66-.47-.15-.19-1.26-1.82-1.29-1.93-.07-.28.23-.67.15-.79-.07-.11-1.11-.47-1.39-.79-.6-.71-.33-2.16-1.24-1.68.18-1.05-1.04-1.7-1.7-2.36-.48-.48-.49-.31-.52-.34-.51-.48-.43-1.17-1.29-1.25-.23-.02-.51.18-.62.15-.07-.02-.78-1.11-.97-1.21-.37-.19-.22.19-.9-.26-.36-.24-.99-.52-.99-.95-.81,1.01-1.36-.03-2.33.36-.33.24.36,1.3.39,1.82.03.57-.26,1.66-.22,1.98.05.42.51,1.31.57,1.78.05.35-.3.92.07,1.34l-.36.17c.23.35.42.16.75.1l-.2,4.04.58.2c-.91.35-.57,1.91.37,1.41-.55.91.74,2.27-.38,2.73l.56.94.38-.09c.2.48-.31.32-.35.47l-.03,1.79h.57s-.16.36-.16.36l.34.21c-.17-.19-.67.78-.68.84-.03.24.2.61.13.92-.05.2-.46.17-.54.43-.05.18.15.89-.04,1.21-.65-.31-2.09-.64-2.35.19-.85-.31-.45-1.19-.5-1.28-.03-.05-.78-.53-.86-.65-.08-.11.49-.45-.43-.34l.38-.37-.38-.1.34-.18c-.13-.5.14-1.04.12-1.52-.03-.78-.69-1.21-.09-1.78-.75-.04-.35-1.45-.53-2-.09-.29-.35-.27-.38-.36-.11-.37.47-1.39.45-1.62-.03-.31-.41-.32-.47-.5-.14-.42.12-1.19-.58-1.18l.39-.3c-.21-.59-.23-1-.02-1.58l-.74-.31c.07-.84.38-1.79.38-2.62,0-.48-.36-2.74-.43-2.88-.02-.05-.32-.03-.35-.17-.1-.49.03-1.88-.07-2.34-.07-.34-1.2-.88.08-1.58-1.02-.88-.28-2.27-.38-3.49l-.75.38c-.15-.72.44-1.27.51-1.86.05-.39-.2-1.8-.7-1.72,1.23-1.08-.5-1.95-.19-3.45.03-.15.36-.12.39-.26.04-.24-.14-.52-.11-.72.04-.25.41-.49.29-.85h-.57c-.13-.44.38-.85.34-1.2-.03-.31-.45-.58-.47-.79-.02-.34.86-1.26-.06-1.51.13-.18.49-.36.51-.57.03-.3-.76-1.87-.79-2.56-.03-.74.51-1.31.47-2.05l-.75.19.17-.48c-.64-.12-.4-1.23.21-1.22v-.18c-.7-.06-.81-1.11,0-1.14-.6-.71-.11-1.44-.16-2.17,0-.08-.49-.89-.51-1.31,0-.09.41-.8.25-1-.1-.12-.48-.15-.62-.42-.06-.11-.4-2.16-.36-2.35.11-.49,1.05-1.73.09-2.08.92-.91-.03-1.3.28-2.37.19-.66,1.62-2.06,2.33-1.65ZM173.62,23.87c-.16-.14-.11-.45-.53-.51-.46-.07-2.23.04-1.98.85l.56.29-.38.28.38.28-.34.02c.3.57-.37,1.1-.33,1.58.02.22.35.62.4,1.03.09.89-.16,2.77.07,3.47.08.23.42.02.59.23.29.36-.2.77-.17,1.26.02.28.31,1.19.72,1.08l-.37.37.38.09-.75,1.13c1.17.09.12.69.04.94-.01.04-.01.89,0,.94.04.13.84.91.86.97.02.04.02.88.01.92-.03.14-.57,0-.35.47l.56-.19c.13.16-.63,1.94.19,1.97-.46.8-.67,2.59-.58,3.58.07.76,1.09,1.13.58,1.85-.12.18-.45.03-.38.32l.34.09-.15.28h.75c.08.31-.25.13-.32.22s.1.55-.1.69c-.18.13-.78-.16-.52.5.09.22.61.34.75.57-1.01,2.02.72.24,1.18.04.25-.11.53.09.81-.13s.04-.48.19-.59c.29-.22,1.18-.52,1.59-.56.29-.44-.59-.37-.38-.56.46-.41,1.27-.24,1.33-.28.23-.15.21-.8.46-1.05.18-.18.55-.1.67-.32.18-.32,0-.86.05-.96.01-.03.28-.09.39-.27.37-.63.12-1.09,1.07-.9-.17-.38.18-1.25.4-1.58s.63-.44.69-.54c.38-.66.72-1.95,1.05-2.72.03-.07.31-.07.32-.17.05-.41-.44-.68-.39-1.09,0-.05.59-.71.76-.69l-.37-.37h.57c-.34-.86.45-1.6-.56-1.98.68-.72.78-.85.76-1.88l-.57-.1c-.05-.38.53-.81.55-.88.03-.1-.28-2.06-.36-2.13-.4-.38-.29.48-.56.38.61-1.48-.95-1.63-1.62-2.43-.4-.48-.02-.96-1.02-.77v-1.13c-.51.24-.83.14-1.03-.38l-.57.38c-.61-1.1-2.74-.29-2.73-1.89-.93.49-1.23.55-1.79-.38-.16-.06-.1.9-.79.31Z"/><path d="M150.49,18.36c.16.14.2.5.43.62.19.1.42-.09.53-.05.2.08.51,1.13,1.35.33-.14.6.34,1.02.46,1.49.1.4-.24,1.19.44,1.38l-.14.33c.09.06.98-.42,1.2.25.13.38-.22.46-.21.76,0,.08.37,1.49.41,1.56.14.26.54.28.59.63.08.54-.79.77.29,1.27l-.21.82h.57c-.55.75.3,1.56.31,1.98s-.58.79-.51,1.3c.02.12.33.11.35.2.12.55.35,1.96-.15,2.27.65.15.09,1.01.1,1.63,0,.31.3,1.8.37,2.14.18.85.2,1.47,1.04,1.88-.04.33-.51.47-.52.51-.02.05-.04,1.12-.03,1.18.07.62.49,1.18.64,1.79.13.54-.11,1.22-.08,1.6,0,.12.34.09.38.24.14.55-.07,1.57.19,2.23l.37-.09c.05.46-.4.7-.49,1.13-.11.58.47.88-.05,1.58.09.48.93.13.72,1.33-.04.24-.28.44-.29.58-.05.67.66,1.79.7,2.44.04.6-.16.6-.06,1.55.25,2.3.23,2.97.93,5.04.1.3-.2,1.35-.14,1.41h.57c-.61,1.27.45,2.72,0,4.15l.75-.19-.16.83-.59.21.74.58.02.37c-.54.04-.4.74-.2,1.1.09.16.75.02.74.79,0,.09-1.49.92.02.75-.25.8.05,1.74-.76,2.26.93.41.21,1.08.32,1.76l-.32.03c.37.41.27.62.18,1.13l-.34-.09-.13-.28c-.39.29-.54.5-.28.94l-3.02-.65-.02-.94-.56-.41c-.11-.47.35-.77.37-1.09.03-.42-.47-1.68-.45-2.19.04-.84,1.09-2.32-.48-2.44-.08-.07.51-.92.53-1.07.04-.29-.38-.53-.45-.8-.15-.56.57-1-.65-1.23l.34-.11-.12-.43c.08-.31,1.38-.44-.19-.89.07-.41-.1-.48.34-.63-.82-.75-.75-1.95-.38-2.92l-.56.19c-.04-.48-.04-.92.37-1.23-.9-.31-.29-.91-.38-1.68-.06-.49-.87-1.65,0-1.9-.37-.29-.27-.75-.39-1.09-.06-.17-.35-.14-.34-.23.03-.48.57-.74-.39-.68v-.93s-.75.47-.75.47l.37.66c-1,.36-1.53-1.45-1.91-.21-.7-.46-1.03.28-1.44.38s-.58-.36-.86-.32c-.51.07-1.85.4-2.45.54-.16.04-.14.3-.22.32-.32.07-.94-.02-1.31.03l-.11.58c-.62-.15-2.89-.81-3.35-.33-.06.06-.02.3-.11.45-.08.12-.78.11.26.45-.62.6-.04,1.36-.18,2.16l-.58.2.57.19c-.68.66.21,1.39-.75,1.7.53.15.19.3.26.42.03.05.29.04.3.16,0,.05-.07,1.03-.08,1.1-.15.65-.9.93.09,1.33-.62.28-.33,1.01-.42,1.18-.04.07-.51.1-.52.72,0,.4.31.62.31.92s-.37,1.47-.41,1.87c-.1,1.14-.17,2.34.01,3.4s-.55.71-.84,1.16c-.23.36-.03.84-.11,1.09-.09.28-.77,1.77-.99,1.8l-1.38-.29c-.1-.09-.48-1.42-.48-1.5.13-1.67.38-1.46-.15-3.11-.34-1.06.76-1.32.6-2.71-.09-.85-.82-.94-.24-1.81.13-.2.76-.14.37-.57-.09-.1-.36-.12-.44-.21-.06-.07.12-.37.08-.53-.31-1.35-.01-.9.03-1.83s-.05-1.29.14-2.41c.06-.35-.38-.57.28-.76l-.75-.94c.8-.53.23-1.31.75-1.89l-.57-.09c.8-.8.15-2.19.56-2.89.14-.24.44-.07.56-.13.07-.04.15-1.52.12-1.59-.09-.25-.32-.38-.49-.57l.94-.56c-.13-.36-.71-.74-.71-1.09,0-.63.62-1.43.68-1.78.06-.4-.86-1.02.42-1.47l-.56-.29c-.21-.17.78-.22.37-.56-.2-.17-.86.49-.75-.09.03-.85.87-.79.94-.86.1-.09-.28-.72-.33-1-.14-.92.5-2.73.47-3.39-.03-.53-.64-1.1-.52-1.73l.57-.19-.21-1.21-.55-.2c.66.09.13-.34.19-.76h.75c.08-.31-.26-.13-.32-.22-.18-.26.17-1.02.48-1.19l-.35-.47c.81.03.29-1.08.42-1.42.04-.1.32-.07.34-.21.04-.27-.02-1.38-.39-1.29.45-.12.82-.93.72-1.32-.04-.16-.41.07-.31-.52.1-.55.48-.48.62-.71.54-.87.53-1.44.77-2.24.09-.3.62-.78.85-1.05l-.75-.47,1.24-.56c.06-.19.07-1.25.11-1.3.13-.13.64-.13.71-.24.04-.06-.07-.97.3-1.47.04-.05.79-.81.84-.85.06-.04,1.01-.22,1.09-.52.06-.23-.45-.42.23-.65-.39-.52.24-.49.47-1.01l.56.51c.53-.68,1.31-.2,1.51-.23.29-.04,1.01-.28,1.33-.4.16-.01.3.06.41.16ZM150.53,23.8c-.1-.13-1.1-.61-1.21-1.16l-.94.56.09.37c-.96-.13-.73.32-1.06.75-.21.28-.72.81-.9,1.15-.09.17-.04,1.3-.29,1.76-.12.22-.45.05-.59.24-.4.54.3,1.21,0,1.76h-.74c-.19.75.71.11.75.58-.57-.08-.2.3-.32.52-.63,1.2-.31,1.45-.58,2.07-.21.49-.9.97-.96,1.67l.56.38c.09.51-.6.79-.69,1.2-.05.23.37,2.23-.45,2.27v.38s.37-.19.37-.19l.15.67-.71.28,1.13.56-.34.09.08.48-.49.19.37.37-.75.57.34.21-.72,2.33c.13.34.54.07.56.09.28.39-.39.38-.38.47.02.25.23.35.26.47.12.55.27.62.28.66.21.92-.77,1.4-.71,2.06.04.54.8,1.3.75,1.52l-.75.29.08.85.96.65.37-.56c.52.91,1.07-.36,1.51-.52.46-.17.99.01,1.13.52.46-.53,1.66-.83,2.35-.85.25,0,.4.24.63.24.91-.01,2.16-.84,3.15-.52v-.47s.75.09.75.09l-.19-.56.75-.28c-.36-.53-.32-1.25-.62-1.88-.06-.12-.32-.1-.33-.21-.08-.58.8-1.06.33-2.43-.04-.11-.33-.1-.33-.21,0-.3.36-.65.3-1.05-.05-.32-.39-.36-.41-.4-.08-.2-.11-.81-.26-1.09l.57-.09c-.75-1.02-.51-2.2-.94-3.3.4-.04.62.16.55-.26-.06-.34-.37-.81-.4-1.22l-.53-.03.58-2.53-.4-.21c.29-.57.2-1.02,0-1.59l-.37.19c-.03-.41.17-.84.04-1.24-.09-.29-.42-.29-.41-.35.04-.31.59-.97.33-1.39-.06-.09-.42-.09-.51-.34-.15-.44.18-.8.17-1.09,0-.05-.65-.63-.69-.74-.03-.07-.38-1.31-.4-1.4-.08-.48.17-1.29.14-1.34Z"/><path d="M47.82,16.54c.07.11.34.15.4.25.44.82-.44,1.7-.28,2.54l.57.1c.03.77-.78.86-.38,1.76l.57.12c.02.36-.16.78-.56.76v.28s.38.2.38.2l-.2,1.02h.56s0,.93,0,.93l-.74.3c.4.36.02.82.55.93l-.35.97.37.19-.18.44.55.3-.69,1.13c.41.5-.08,1,.5,1.13l-.37.93.56.31c-.21.42-.44.76-.54,1.24-.09.39-.15,3.12-.12,3.57.06.9,1.05,2.19.29,2.91l.95.1c-.57.11-.13.56-.57.95l.34.12-.12.5.35.13c-.13.52-.69.83-.71.88-.08.19.43,1.23-.23,1.1.38.18.68.86.54,1.22-.07.19-1.27.84-.34,1.16l-.2,1.58.37-.19c.39.64-.36,1.7-.29,2.09.07.4.65.84.66,1.21,0,.08-.38.99-.46,1.22-.06.21.08.49.03.54-.05.06-.3,0-.32.03-.07.09.44.45.52.7.16.49-.42,1.58-.32,2.03.14.63.96.72.17,1.51l.37.17c-.19.27-.1.74-.56.68v.18c.58-.1.26.45.42.71.06.1.34.12.42.23.43.66-.36,2.83-.06,3.74l.34.22-.39.11c.14.47.21.95.75,1.05l-.34,1.17c1.18.61.46,1.03.57,1.53.04.19.42.21.54.44.68,1.28-.16,1.88.11,2.71.17.51,1.26.77.27,1.2.21.09,1.04.49,1.11.78.07.26-.17.52-.17.71,0,.05.59.25.38.68l.56-.19c-.19.47,1,1.36,1.31,1.43.21.05.37-.25.63-.25.44,0,.91.29,1.26.52l.04-1.29,1.4-.59-.11-.94c.97-.13,1.44-1.14,1.17-1.99.46-.76.64-2.32.84-3.44.05-.26.34-.51.36-.71.05-.52-.79-1.39.46-1.6l-.56-.37c.54.1.15-.32.37-.47.33-.22.59.12.66-.64.06-.7-.88-.55-.29-1.45l-.36-.17c.25-.73.85-.6.94-.67.03-.02-.02-.69-.04-.72-.07-.11-.37-.03-.46-.4-.12-.46.51-1.06.63-1.45s-.12-1.11.07-1.57l-.57-.19c.7.09-.2-.74.75-.76v-.37s-.56-.29-.56-.29l.75-.75c-.29-.28-.62-.49-.58-.94.05-.57.73-.26.58-.85l-.75-.28c.77-.58.25-1.43.75-2.17l-.57.1-.19-.29.38-.19-.38-.1.78-1.51c0-.36-.38-.3-.55-.6-.38-.63.22-1.3.53-1.85-.94-.39.33-1.22.17-1.89-.1-.42-.43-.54-.47-.75-.05-.31.42-.58-.27-.76.49-.79.62-1.46.77-2.35l-.75-.09.94-.94-.38-.19c1.04-.38-.12-.51-.19-.76s.42-.9.34-1.31c-.04-.17-.94-.54-.14-1.52l-.38-.35.38-1.71-.58-.1.57-1.04-.56-.37c.43-.62.73-1.26-.2-1.33.18-.49-.05-.97.04-1.45s.59-1.15.53-1.77c-.03-.27-1.06-1.06-.19-1.02v-.37s-.39-.11-.39-.11c.61-1.12-.26-2.24.39-3.48l-.75-.19c.52.17.42-1.2.58-1.31l.93-.02-.18-.36c.59-.29,1.28-.39,1.93-.16.56.2.59.99,1.46.52-.24,1,.74,1.71.19,2.64h.57c-.22.93-.79,1.23-.76,2.26l.56-.19c-.4.82-.11,1.9-.22,2.55-.21,1.34-.03.76.02,1.69.02.29-.26.61-.28.94-.03.73.39,1.79.85,2.07l-.75,1.33.54.37c-.06.47-.57,1.1-.57,1.52,0,.39.32.6.38.96.06.33-.16.88-.11,1.27.08.68.51,1.62.35,2.37l.34.02-.38.56h.57c.07.5-.76,1-.77,1.07-.06.29.19.64.18.92-.01.33-.32.59-.34.95-.01.15,0,1.41.02,1.47.11.28.51.26.51.39.02.55-.7.88-.71.94-.03.25.58,1.16-.02,1.72l.37.17-.38.85.56.09-.58,1.71c-.04.65.45.41.39.55-.62.5-.65,1.73-.52,2.46.02.09.23.07.29.18.11.24-.15.74.61.94-.48.4-1,1.88-.91,2.46.02.13.36.01.36.36,0,.63-.44,1.32-.57,1.9s-.52,2.83-.51,3.39c0,.27.36.55.3.65-.01.02-.31-.06-.44.25-.43.99.06,2.61-.69,3.44l.39.2-.02.34c-.27.2-.24.99-.29,1.06-.24.35-.87.22-.65,1.19.04.17.44.05.39.4-.06.43-.71.98-1.14,1.05l.11.38.83.36c-.65.53-1.39.46-1.64,1.28-.17.54.11,1.7-.81,1.17l.15.34c-.25.17-.99.91-1.11,1.11-.14.22.02.57,0,.59-.2.17-1.89.71-2,.83-.1.1-.06.37-.16.49-.53.67-1,.1-1.48.22l-.2.18c.18.9-1.32.48-1.87.17-.22-.12-.25-.45-.33-.5-.07-.05-1.2.28-1.1-.42l-.19.38-.19-.38-.19.37c-.95.1-1.25-.74-1.54-1.49l-1.07-.06c-.22-.25-.57-1.74-.64-1.81-.12-.12-.87.13-.53-.78-.4.36-.88-.08-.87-.47,0-.12.28-.29.28-.7-.01-.65-.52-.73-.59-.94-.16-.49.41-1.63-.69-1.47.57-.85-.95-1.24-.75-2.14.03-.14.65-.11.37-.5-.04-.05-.47.47-.37-.09l.38-.47-.75.19c0-.45.3-.93.33-1.3.04-.59-.86-1.54.05-1.81l-.76-.38c.52-.73.73-2.41-.38-2.35l.19-.37-.57-.1.38-.28-.55-.28c.91-1.02.02-1.71.37-2.74l-.57-.1c.11-.3.6-.83.66-1.04s-.22-.35-.2-.47c.07-.55.39-.74.1-1.45-.07-.17-.56-.14-.38-.78.07-.22.88-.21.44-1.4-.3-.81-.12-.41-.29-1.22-.12-.55-.64-1.27-.44-1.94.06-.22.34-.35.41-.57.13-.36-.44-.79.26-.94l-.76-.38c.14-.11.69-.67.76-.81.15-.3-.03-.83.19-1.17l-.52-.03c-.43-.75.19-1.01.33-1.66l-.73-.31-.02-1.57h.42c.22.04.18-.37.15-.48-.09-.27-1.3-.29.14-1.5-.46-.28-.15-.92-.23-1.06-.2-.31-.81.18-.1-.93l-.37-.19c.53.07.61-1.02.58-1.42-.05-.69-.46-.54-.55-.75-.11-.27.28-1.07.27-1.32-.01-.35-.5-.76-.49-1.14,0-.54.73-.25.57-.84h-.55s.32-1.28.32-1.28c.16-.62-.14-.13.23-.74.53-.89-.13-.76-.37-1.15-.17-.26.02-.86-.57-.8v-.18c.53.1.24-.51.39-.99.42-1.3.03-1.63.21-2.65s.49-.16.25-1.82c-.21-1.38.47-2.74.76-3.95.07-.3-.13-.59-.06-.73.02-.05.29-.05.35-.17.12-.24.12-.66.23-.77.04-.05,1.11-.42,1.19-.42.59,0,.68.71.91,1.06Z"/><path d="M76.5,19.53c.97,1.04,1.12,2.56,1.21,3.97.05.78-.1,1.88-.06,2.56.03.56.46.56.48.66.07.51-.85,1.18-.34,1.55.24.17.55-.21.52.31-.03.41-.58,1.06-.57,1.6l.75-.19-.19.75h.57c-.3.56-.24.97-.95,1.04-.14.73.47.85.55,1.17.09.35-.48.67-.16,1.42.07.17.37.16.37.25.01.38-.52,1.04-.95,1.03l.57.38-.56,1.57c.54.47.89,1.43-.01,1.73l.76.1-.35.2-.03,1.68.56-.19c-.34.42-.12,1.27-.23,1.6-.04.11-.45.14-.47.59-.02.37.27.67.29.96.04.65-.57,1.86.6,1.75-.78.88-.76,1.31-.56,2.45h.94s-1.07,1.22-1.07,1.22l.18.64.52.03c.2.44-.57.81-.57.87-.04.44.18,1.24.76,1.01-.59.66-.35.9-.39,1.57s-.29,1.76.39,2.1c-1.37,1.02.74,3.33.71,3.59-.01.13-.66.64-.46,1.47.06.26.36.45.41.68.2.96.24,3.08.65,3.9.19.39.31.45.55.95.42.89.75,1.09.23,2.14h.57s-.38.56-.38.56l.56-.19c.47.52-.23,1.43-.18,1.5.01.02.25-.03.37.14.2.27.26.56.4.85s.49,0,.17.9l.75-.38.39.85-.39.18c.24.18.26.64.43.81.27.26,2.79.89,3.21.79.13-.03.15-.28.29-.35.23-.11.81-.29.93-.44.04-.06.22-1.2.42-1.38.3-.26.66-.1.72-.14.16-.12.44-.84.79-.99l-.38-.19c.42-.54.68-1.43,1.51-1.42-.32-.83-.19-1.08.38-1.69l-.56-.09c.24-.42.39-.72.94-.66l-.49-.84.1-.36.58-.11-.75-.37c.32-.05.88-.58.98-.84.06-.15.23-1.27.25-1.52.01-.11-.23-.27-.21-.49.04-.42.98-2.37,1.05-2.92.05-.35-.32-.23-.35-.37-.18-.8,1.15-1.95.9-2.92h-.56c.86-.9.2-1.64.57-2.64l-.76.09c.12-.27.11-.78.25-.98.23-.35,1.09-.47-.25-.9.58-.22.36-.96.94-1.41l-.75-.19.38-.94h-.57s.76-1.88.76-1.88h-.94c.81-1.29.08-2.38.57-3.67l-.38.09.18-.68-.37-.17c.47-.51.96-1.22.38-1.79l.38-.19-.37-.09c.24-.25.6-1.23.53-1.5-.04-.17-.84-.48-.83-.94.02-.6.71-1.04.63-1.73-.06-.48-.44-.81-.22-1.39l-.69-.28c-.17-.72.62-.61.39-1.41l-.37.19c-.16-.88-.05-1.48.38-2.26h-.57c-.06-.05.53-1.08.52-1.23-.02-.19-.46-.32-.49-.74-.02-.18.13-.47.13-.72,0-.85.43-2.03,0-3.02-.11-.24-.35-.38-.48-.61l.7-1.32c-.12-.34-.89-.12-.75-.56.06-.18.27-.06.31-.13.1-.2.03-.6.45-.9l-.57-.38,1.1-.79c-.16-.55-.44-1.09-.14-1.65l1.87.17.09-.75c.54.27.75.48.66,1.13l.75-.38c.34,1.1-.67,1.77.74,2.54-1.14,1.32-.17.88-.17.95,0,.51-.3.94-.36,1.33-.04.22.1.45.07.68-.06.51-.55.19.2.91l-.29.57.32.04c.53.79-.98,1.18.06,1.56l-.57,1.04h.56c-.12.57.1.79-.56,1.04l.34.18c.16,1.18.08,2.34.14,3.52.05,1.02-.05,1.86-.02,2.63s1.26,1.9.1,2.52c1.1.46.41,1.08.57,1.85.03.14.95.56-.38,1.16l.56.38c-.28.43-.67,2.61-.53,3.02.04.11.35.08.34.17-.02.17-.33.45-.3.76.02.23.37.51.4.94.02.39-.31,1.08-.26,1.31.09.35,1.12.35.51,1.21l-.72.03c.31.36.26.82.39,1.18.06.17.35.15.35.23-.02.29-.31,2.43-.37,2.62-.05.17-.41.12-.37.22.12.37.4.48.4,1.15,0,.59-.33.43-.36.55-.06.32.06,2.4.17,2.53l.54.02c.25,1.15-.84,1.58-1.05,2.25-.34,1.11-.04,2.19-.65,3.45-.55,1.14-.61,2.76-1.04,4.08-.17.53-1.18,1.21.29.77-.18.23-.11.63-.2.79-.14.27-1.25,1.21-1.4,1.47-.27.46-.18,1.86-.32,2.04l-1.27.62.16.52c-.78.04-.54.89-.58.94-.11.12-.57.12-.81.41s-.17.71-.42.95c-.48.48-2.57,1.05-2.67,1.16-.19.19.13.16-.65.71-.13.09-.12.37-.25.39-.5.08-1.1-.57-2.03-.21l-.12.57c-.31.08-.13-.26-.22-.31-.09-.05-.26.09-.43-.06s-.22-.54-.48-.67c-.23-.12-.6.15-.99-.08-.24-.14-2.62-2.38-2.98-2.74-.15-.15-.11-.51-.23-.62-.1-.1-.4.04-.52-.17-.27-.49-.31-1.67-.59-2.21-.19-.36-.62-.1-.82-.49l.11-.75c-1.38.04-.59-1.25-.66-1.51-.05-.19-.72-1.13-1-1.16l.15-1.48-.56.19c.36-.63-.29-.61-.38-1.32l.57-.09-.38-1.42-.37.19.17-.48-.37-.18.38-.75-.94-.28c-.08-.3.27-.14.32-.22.32-.6-.7-1.5-.14-2.15l-.37-.35c.19-.45.75-1.37.48-1.8-.08-.12-.38-.15-.5-.32-.12-.18.01-.44-.02-.53-.04-.11-.31-.05-.31-.17,0-.06.07-1,.09-1.05.05-.21.4-.48.45-.66.04-.11-.35-.06-.39-.21-.11-.43.23-.94.2-1.39h-.57c.52-.55.19-1.36.25-2.02.04-.43.26-1.21.26-1.65,0-1.35-.85-1.55-.86-1.7,0-.17.41-.49.45-.75.03-.19.05-.87.07-1.15,0-.1-.31-.06-.32-.17-.08-1.16.05-2.4.16-3.56l-.77-.31c-.08-.3.26-.13.31-.22.09-.15.41-1.57-.12-1.29v-.37s.38-.1.38-.1c-.85-1.18-.25-1.59-.03-2.65.04-.18-.1-.41-.05-.65.04-.22.38-.48.37-.85s-.59-.93-.6-1.32c-.01-.37.35-.74.38-1.02.08-.69-.09-1.63.12-2.37l-.58-.19c.15-.26.96-1.06.93-1.32-.02-.17-.46-.18-.52-.38-.03-.09.32-1.51.35-1.87.03-.45-.2-1.56-.16-1.71.02-.07.9-.81-.04-1.14l.39-.75-.38-.18v-.38c1.36-.46-.37-1.72.55-2.06-.46-.58.46-1.33-.35-1.52l.51-.57-.25-.47c.79-.63,1.13-1.08,1.89-.27Z"/><path d="M25.87,11.9v-.57c.32-.08.09.31.28.34.51.09,1.11-.33,1.43-.27.48.19.72.76.75,1.25l1.22-.38.12.55,2.16.58.66,1.89.75-.11c.21,1.05.23.65.75.96.2.12-.01.41.03.44.13.1.62,0,.71.33.05.2-.15.53-.1.84s.64.39.66,1.22c0,.33-.21.66-.18.91.01.13.33.1.36.21.19.55-.97,3.18-1.46,3.6-1.54,1.31-1.85-1.76-1.72-2.75h-.57s.36-1.24.36-1.24c-.5-.06-.46-.76-.56-.83-.07-.05-.39.16-.56.09-.34-.15-.33-.78-.56-.95-.14-.11-.44.06-.58,0-.26-.12-.28-.5-.4-.6-.22-.17-2.1-.92-2.46-1.04-.58-.19-1.22-.38-1.75-.7l-.29.75h-.93s0-.56,0-.56l-1.1.05c-.42.39-.31,1.07-.98.89l.15.34c-.69.51-1.44.12-2.03.89l.38.28-.38.28.38.47-1.32.19.56.75-.35.02.15.35c-1.09-.02-.66,1.02-1,1.66-.05.09-.4.11-.48.35-.07.19-.08,1.75.34,1.66,0,.97-.82,2.04-1.02,2.75-.06.22.21.31.21.46,0,.41-.45.78-.17,1.56.08.23.35.21.39.33.16.43-.48,1.1-.33,1.6l.56-.19c.14.44.16.92-.02,1.36-.08.21-.59.14-.33.97.18.58.84.03.91.12,0,.49.18.88-.36,1.03l.18.67h.93s-.35.92-.35.92c.24.1.65.43.78.64.41.67.84,1.9,1.11,2.37.11.19.78.07.34.79l.94-.1c.49.57.24.98,1.05,1.37.71.34,2.3.41,2.66,1.31.31.77.8.88,1.15,1.43.22.35,0,1.13.99,1.08l-.09-.38h.28c.07.31.26.72.49.94.84.81,2.56,1.96,3.25,2.96.35.5.28,1.17.59,1.45.27.25.73.46.95,1.02.06.17-.01.42,0,.61l.94-.38c-.23,1-.05,1.04.23,1.76.58,1.48,1.52,2.54,1.69,4.18.01.11.27.05.34.23.18.49-.37.73.76.62,0,.56-.42,1.04-.35,1.56s.51.49.54.64c.07.34-.27,1.27.03,1.73l.54.02-.19.94-.37-.19c-.17,1.04.8.66.44,1.89-.08.27-.62.33-.23.92l.73.02c-.37,1.18-.95,1.86-.38,3.1l-.56,1.61.75.19c-.49-.1-.29.44-.49.59-.18.13-.66-.08-.83.26l.38.18c-.31.18-.21.72-.3.86-.4.55-2.35,1.51-1.02,1.97-.21.24-.54.34-.76.56-.31.31-1.87,1.99-2.07,2.08-.4.17-.88.05-1.28.23-.52.25-.18.84-.98.43.07.9-1.35,1.15-2.03,1.46-.22.1-.19.35-.38.42-.38.14-1.57.17-1.88.34-.89.49-.27.91-1.98.75-.4-.04-.67-.1-1.16-.14-.16-.01-.02-.52-.39-.38l-.38.75c-.57-.65-1.73-.08-2.37-.29-.48-.16-1.03-.64-1.6-.83-.86-.29-2.3-.05-2.54-.95l-.27.37c-.82-.09-.62-.55-.91-.88-.57-.63-2.76-.19-2.02-1.56-.34.13-.94.07-1.2-.18-.35-.32.27-.78-.86-.4-.26-.36-.17-1.2-.28-1.45-.1-.23-.93-.38-.5-.79h-1.13s-.15-.68-.15-.68l.52-.46h-.76s0-.76,0-.76h.76c.09-.08-.29-.3-.31-.47-.05-.5.87-1.29.12-1.32.33-.87,1.5-.43,1.51-1.61l.26.02c.19.3.78.4.94.54.18.16.07.44.17.53.11.1.41-.03.53.17.19.31.08,1,.17,1.27.08.22.41.05.52.15.33.29-.14,1.23.8.72v.57s.57-.19.57-.19v.57s.28-.38.28-.38l.58.57-.3.94c.85.28,2.37.46,2.47,1.5l.44-.16.21.56c.57.35.98-.01,1.46.03.28.03,2.13.82,2.21.71v-.76c.64-.28.81.38.86.38.19,0,.46-.21.74-.2.37.02.69.24,1.09.17.29-.05,1.52-.71,1.46-1.1l.74.37c.16-.88,1.6-.54,2.27-1.04.32-.24.33-.78.41-.83.09-.06.56.32.73-.1l-.19-.65h.57s-.16-.35-.16-.35c.87-.25,1.16-.85,1.66-1.45.18-.21.56-.3.66-.47.31-.51-.06-2.08.66-2.07l-.57-.19c.15-.21.07-.69.17-.82.26-.35.49.38.71-1.02s-.2-.79-.45-1.01c-.53-.47.23-.99.3-1.23.04-.14-.1-2.24-.14-2.39-.06-.21-.39-.05-.53-.15-.38-.24.14-1.35.09-1.79-.09-.77-.65-.86-.61-1.38h-.66s.38-1.51.38-1.51l-.94-.21.16-.65-.35-.28.38-.38-.56.19c.59-1.24-.56-1.23-1.04-1.89-.29-.39-.06-.65-.19-.92-.18-.35-1.03-.63-1.21-.88-.31-.42.05-.84-.04-.98-.03-.06-.3-.09-.42-.25-.1-.13-.08-.4-.17-.49-.67-.66-1.39-1.38-2.12-2.13-.37-.38-1.09-.58-1.6-.57l.38-.94c-.53-.23-.65.08-1.13.19-.12-.28-.32-.94-.49-1.13-.18-.2-.47-.15-.59-.24-.37-.31-.17-1.36-1.37-.7l-.19-1.13c-.37.27-1.25,0-1.41-.37-.07-.16.13-.43.07-.53-.04-.06-.46-.2-.64-.41-.41-.44-.82-1.26-1.48-1.16-.22.03.02.48-.3.39-.52-.62.16-1.35-.38-1.61-.39-.19-.46.21-.75.29v-2.26s-1.13,0-1.13,0l.37-.85-.75-.28.37-.37-.35-.09c.29-.56.04-.86-.1-1.34-.22-.73-.41-.56-.47-.76-.09-.28.29-.84.17-1.2l-.94.19c.07-.31.16-1.02.06-1.27s-.44-.22-.43-.32c.07-.57.72-2.11.77-2.84.05-.79-.91-2.47-.02-3.21l-.38-.28.7-.47c-.66-.67.54-2.08-.31-2.18v-.37c.55.07.17-.37.41-.73l.53-.03-.38-.56c.44.15.69-.83.57-.95-.09-.09-.63.18-.57-.19.54.07.22-.24.34-.5.46-.99,2.17-1.45,1.55-2.7l1.14-.19v-.83c.13-.4.82-.22.92-.32.1-.09-.06-1.05.98-1.39.68-.22,1.51-.32,2.27-.76.04-.03.14-.36.56-.75s.17-.52,1.13-.47v.76s1.11-.41,1.11-.41l.02-.53,1.88.57Z"/></g></svg>