<?xml version="1.0" encoding="UTF-8"?>
<svg id="Layer_1" data-name="Layer 1" xmlns="http://www.w3.org/2000/svg" viewBox="0 0 267.17 142.52">
  <path d="M233.05,13.95c1.47.61,3.48,1.08,4.84,1.95.47.3.76,1.25,1.01,1.75l.66-.32c-.69,1.42.37,1.09.62,1.49.27.43.12,2.14.75,2.89.41.49,1.23.04,1.44.23.09.08.06,1.68.36,2.29.53,1.08,1.68,1.53,1.74,1.64.14.25-.49,2.4.04,3.13l1.06-.35-.03,1.21,1.09.22c-.04,1.22-.9,2-.34,3.17l.7-.36c.05,1.06.47,1.64-.35,2.47,1.86.23.98,2.53,1.43,3.63.13.31.7.29.68.43-.09.7-.79.98-.54,2.32.21,1.12.72.13,1.25.89l-.35,1.58h1.07c-.89,1.44.27,1.78.34,2,.06.2.34,3.36.34,3.81,0,.33-.41.83-.33.91l1.1.21c.48,1.28.3,3.12.94,4.31s1.88.25.42,2.39l1.04.92c-.64,1.22-.13,2.26.04,3.5l1.06-.35c.14.08-.08,3.01-.02,3.29.08.37.85.43,1.12.76.29.36-.25.87.67,1.06l-.71,1.96h1.06s-.73.57-.73.57c-.04.19.49,2.5.63,2.88.17.44.7.33.94,1.21.31,1.1-.23,2.16-.13,2.55.06.27.58.21.64.4.08.24-.84,3.19-.65,3.36h1.07s-.28.54-.28.54l.98.18c.15.58-.49.25-.6.41s.16.69-.09,1.11c-.15.25-.71.22-.7.4.03.42.71,2.4.93,2.95.31.78,1.16-.1.42,1.57-.13.29-.55.3-.6.47-.03.09.23,1.87.29,1.94.02.02.45-.34.62-.25,1.74.91-.44,1.75-.47,2.34-.03.47.45.73.52,1.25.15,1.12.13,2.4.23,3.79.03.4.32,1.57.49,1.88.15.27.86-.27,1.07.39-.81,1.34.56,2.35.58,3.17.02,1.06-1.21,3.11.8,3.87-1.25,1.53.14,2.03.3,2.91.24,1.33.21,2.85.47,4.52.18,1.2,1.26,3.09.67,4.52-.11.28-.64.27-.64.43-.01,1,1.19,2.55.31,3.73l1.4.02c-.28.92.63,1.48.64,1.57.23,1.22-.67,3.41-.58,4.92.04.64.41,1.3.32,1.99l1.06-.36v3.52c-1.23.05-2.25.94-1.41,2.14-.96.12-2.05.34-3.01.04-.51-.16-1.9-1.07-1.33-1.38-1.1-.63-2.54-2.29-2.55-3.58-.01-1.16,0-2.59-.42-3.85-.15-.45-.83-.42-.85-.63-.1-1.42.95-.24-.14-2.67-.39-.87.24-1.6-1.23-1.41-.2-.98.77-1.12.86-1.68.04-.26.15-3.25.1-3.41-.05-.17-.46-.21-.58-.47-.37-.82-1.61-2.96-1.11-3.7.16-.24.7-.24.73-.48.17-1.46-1.27-2.49-1.37-2.78-.24-.7,1.54-2.05.87-3.21-.34-.6-1.07-.42-1.46-.85-.72-.78.88-1.2.51-1.77-.06-.1-1.1-.46-1.33-1.7-.28-1.54.92-1.41.98-1.5.06-.1-.85-1.3-.99-2.04-.35-1.85,1.17-2.61-1.48-3.45-.18-.9,1.92-.46,1.05-3.08-.03-.08-.48-1.21-.54-1.35-.2-.45-1.08-.79-1.17-1.28-.05-.3.87-2.86.87-3.14,0-.22-.46-.51-.48-.97-.02-.4.35-.93.28-1.48-.02-.13-.86-2.18-.92-2.3-.8-1.46-2-.55-2.98-1.44l-.54,1.06c-.96-1.31-1.72-.93-2.74-1.15-.53-.11-.94-.57-1.5-.59-1.08-.03-3.31,1.71-4.23.33-.12-.17.15-.63.11-.67-.23-.27-3.58-.41-3.14.67l-.52-.7-1.06,1.06c-.96-.92-1.88-.75-3.01-.34l.35.7c-.82-.58-2.43.35-2.61.32-.43-.08-.77-.93-1.1-.94-.16,0-2.51.98-2.84,1.32l-.7-1.05c-.69,1.95-2.73.48-4.4,1.11l-.03,1.02c-.95-.41-1.67-.13-1.42-1.42-.32-.03-.44.42-.69.48-2.39.54-6.58.67-9.04.15-.22-.05-.02-.57-.68-.66-.37-.05-2.13-.04-2.28.07.19,1.04-1.25,1.99-1.3,2.41s.41.65.38,1.12c-.06.84-.43,4.05-1.6,3.15l.67,2.08c-2.19,1.43-2.39,4.77-3.13,7.25l1.04.75c-1.36.51-2.62,3.39-1.06,3.88l-2.47,6.07.7,1.55c-2.71.07-.94,3.94-1.77,5.76-.28.61-1.1.27-1.43.89-.29.53.03,1.38-.07,1.94-.3,1.6-.52,3.93-1.68,5.05l.67.32c-.53.7,0,1.62-.2,2.24-.12.37-.64.38-.79.72-.37.81-1.47,4.11-2.03,4.29-.62.2-1.26-.22-1.74-.17-.43.05-.62.77-1.22.55v-1.77s-1.01-.18-1.01-.18l.3-1.24c-.16-.11-1.52.76-1.77-.18-.3-1.17.91-1.09,1.02-1.27.07-.11-.37-.79-.35-1.21.05-.74.58-1.12.61-1.47.06-.54-.31-2.07-.21-2.35.14-.4.71-.23.93-.92.37-1.16-.81-2.54.16-4.07.24-.38.81-.41,1.01-.84.15-.34.69-3.1.57-3.27-.23-.33-1.02-.14-.91-.7l1.06-.18-.71-.53c.55.08,1.62-1.3,1.72-1.67.21-.78-.56-1.26-.6-1.75-.04-.62,1.2-2.71,1.24-3.52.05-.87-.36-1.55-.16-2.71s1.31-2.66,2.04-3.62c-2.66-1.38.23-1.56.51-1.92.65-.81.45-4.68,1.27-5.86l-.71.18c-.05-.07.17-1.48.25-1.68.28-.7,1.14-.04.43-2l.73-.22c-.75-.66-.44-1.94-.14-2.86s1.71-2.85,1.87-3.4c.2-.71-.31-1.21-.32-1.66,0-.23.56-.21.71-.46,1.47-2.48-.22-2.28-.34-2.82-.33-1.39,2.14-4.63,2.32-6.08.19-1.52-.7-.07.48-2.4.34-.68-.27-1.31.73-1.18l-1.41-.52c1.8-1.21,1.39-4.19,1.9-5.34.19-.42.85-.43,1.05-.94.24-.62-.29-1.67-.12-2.49.05-.25.6-.21.77-.75.36-1.12-.71-2.18,1.7-1.98-.35-.77-.54-1.76-.35-2.58.04-.15,1.36-1.61,1.66-2.61.1-.33-.35-.85-.2-1.11.07-.13.65-.18.78-.41.79-1.47-.04-2.27.04-2.48.47-1.17,3.24-2.42,1.61-3.89l1.73-.77-.32-1.71h1.07c-.83-1.13,1.29-1.92-.36-2.29l.73-1.77-.71-.35.39-1.21c1.92.35,1.57-1.56,2.28-2.86.21-.38,1.99-.77.12-1.61-.05-1.36,3.12-2.81,4.27-3.36l-.71-1.05c.64-.32,2.13-1.45,2.5-1.94.33-.44.1-1.11.29-1.38.23-.33.79-.11,1.12-.45.42-.43.47-1.37.81-1.79.32-.39,2.63-1.01,2.71-1.35l-.71-1.23c.96-.27,2.47.42,3.29.24,2.11-.46,3.02-2.14,5.41-1.15ZM232.04,21.31c-1.33-.56-3.2.9-2.03,2.39-1.84.06-3.28.73-4.95,1.44,1.26,2.5-.91,2.34-1.79,3.67-.41.62-.35,1.43-.74,2.09-.65,1.08-2.32,2.48-2.6,3.09-.35.74.21,1.74-.04,2.45-.54,1.48-1.35,2.31-2.25,3.35-1.53,1.76.39,2.01-.36,3.73-.94-.76-1.2.26,0,.52l-.73,1.59-.68-.34-.33,1.62c1.79.38-1.47,2.27-1.79,2.91-.38.76-.21,1.59.34,2.19l-1.41.54.71.35c-1.6,1.04-.46,1.29-.52,1.97-.16,1.81-.87,2.71-2.31,3.7,1.83.71,0,1.83-.43,2.76-.47,1.03.35,2.93-1.7,2.73.78,1.65.44,2.93-.07,4.55l-.99.05c.43,1.93.06,3.78-.36,5.65,1-.05,2.28.02,2.65-1.06l1.59,1.06c-.11-1.21.99-1.99,1.7-.96.19.28,0,.87.08.96.08.1,1.69-.47,2.29.59l1.42-1.31c1.11,1.09,1.97.34,2.77.47.33.05.67.64,1.07.58.31-.05.85-.91,1.46-1.21.95-.47.86.48,1.12.53s.67-.21,1-.16c.31.04.53.4.91.35.67-.07.8-1.32,1.93-1.23.46.04.77.52,1.07.55.4.04,2.64-.71,3.16-.76,2.41-.22,5.02.8,7.09.55.79-.1.56-.85,1.64-1.18,1.02-.31,2.02.08,2.95.47-.09-2.05.62-.02.71,0,1.06.25.86-.73,1.08-.74.83-.02,2.95,1.52,3.54.12l.51.26v-1.19s-.71-.39-.71-.39l1.06-1.59c-1.33.01-.83-1.13-1.16-1.69-.14-.24-.82-.24-.87-.6-.24-1.59-.24-.88-.43-1.49-.2-.66-.75-4.51-.94-5.66-.14-.87.31-2.46-.2-3.41-.42-.8-1.43-.5-1.68-1.18-.33-.92.35-2.14.34-3.13,0-.5-.78-3.58-1.07-3.93s-.87-.4-1.02-.57c-.07-.08.3-1.13.23-1.53-.19-1.08-1.12-1.92-.65-3l-1.06-.02c.95-1.41.49-2.4-.95-2.99.6-1.94-.91-2.98-.11-4.79l-1.06.35v-2.48c-2.82.95-.61-2.18-.72-2.63-.09-.36-.84-.44-1.07-.8-.86-1.33-.12-4.43-2.82-4.36l.36-1.06h-1.07c.69-.72-.73-2.58-1.15-2.75Z"/>
  <path d="M78.9,6.72c.13.09.2,1.81.37,2.2.17.42,1.15.05.34,1.33l1.11.22c1.15,1.82-.42,4.15-.06,5.55.15.59,1.64.22.59,1.55-.16.21-.85-.1-.57.82l.71-.17c.06,1.8-1.94,1.85,0,3.18l-.64.22c.73,1.09-.19,1.69-.26,2.26-.14,1.17,1.79,3.11-.16,3.36l.71.56-.36,2.62h1.42c.15.57-.48.25-.58.42-.08.15.07.43-.02.63-.39.84-1.6,2.13-.1,2.66-1.23.89-1,3.71,0,4.25-.7,1.03-1.37,1.28-.36,2.3l-.7.35c.27-.04.56,0,.69.27.37.73-.4,3.38-.69,4.33l1.06.54v.7c-1.77.76-.78,1.31-.86,2.5-.03.52-.46.76-.55,1.05-.09.27.55.09.72.4,1.18,2.2-.64,3.25.23,5.36.2.47,1.3.42.84,1.98l-1.44.75c1.01.28.36.55.48.8.05.1.59.08.58.24-.02.27-.59,1.14-.69,1.83-.08.55.3,1.18.26,1.39-.09.51-1.09.26-.98.85l1.05.17-.35.68c1.01.31.55,1.03.3,1.92l-.99.06,1.09.94c.1,1-.74,1.84-.64,2.83.06.56.53,1.13.52,1.36-.03.56-2.1,1.11-.96,3.08.27.47,1.02.4,1.05,1.13.04.8-.73,1.46-.87,1.99-.1.39.38.64.35,1.07-.05.78-.76,1.67-.76,1.93,0,.21,1.08,3.32,1.19,3.95.1.59-.85,2.12-.49,2.79.25.48.83.43.92.54.11.14-1.21,2.67-.68,3.5l1.06-.35c-.08.96-.64,1.63-.71,2.65-.06.84.17.43.71.18.31,1.41.58,2.24-.2,3.57l1.64,2.27c-1.07.09-.51,2.98-.2,3.73.46,1.11.57-.75.89-.36.68,1.37-.45,2.81-.28,3.35.06.18,1.4.93.64,2.1l1.06.21c.15.58-.61.16-.71.58-.29,1.17-.07,3.19,1.41,2.26-.36.87.71,1.14.7,1.22-.04.4-.66.96-.6,1.73.12,1.39,2.43,4.9,2.77,6.56l2.04.08c-.34.65.73,1.98,1.22,2.32.84.58,3.28,1.1,4.04,1.98.32.37.57,2.58,1.33.61l2.35,1.89c.89-.4,5.39-.03,5.78-.18.08-.03,1.01-.98,1.14-1.14.27-.33-.22-1.2,1.3-.91.37.07-.01,1.03.93.69l-.29-.99.65-.28-.34-.82c1.77-.07,1.94-2.69,3.52-1.8l-.7-1.76c3.25.31,1.25-3.81,3.54-2.83.19-1.32-1.04-1.88-.35-3.19l1.41.36c-.45-1.16,1.4-1.05.46-1.78h-.81c1.19-2.03,1.52-3.5,1.6-5.86.02-.47-.6-.89-.25-1.78.32-.83.97-.33,1.44-1.09.12-.2,1.26-4.11,1.28-4.34.09-1.53-.89-1.86-.9-1.98-.02-.77,2.9-4.84.07-4.81l-.07-1.2c1.51-.09.98-1.37,2.13-2.12-1.78-.78-.8-2.24-.08-3.54l-1.69-1.06c.82-.62,1.46-1.75,2.12-2.83l-1.05-1.06,1.06-1.23h-1.42s.36-2.82.36-2.82c.36-.22,1.33.45,1.06-.72l-1.41-.18c.17-.51,1.26-1.45,1.3-1.76.05-.49-1.16-2.22-.86-2.59.14-.17.68-.23.96-.64s.02-.97.14-1.13c.09-.12.54-.03.58-.07.13-.18-2.2-3,.39-3.74-.14-.63-.35-1.27-1.09-1.21l.7-.52-1.06-1.05c.53-.59.45-1.68,1.41-1.61v-.34c-1.96-.22,0-2.45.2-3.18.16-.62.01-1.88.41-2.68l-.96-.69c.88-.97,1.96-3.18,0-3.18-.02-1.11.82-1.03,1.01-1.3.07-.1-.43-1.6.4-2.23l-1.02-.24c-.64-2.09.86-3.83.97-6.16,0-.13-.87.06-.7-1.41.08-.73,1.87-.58-.32-1.75.17-.57,1.31-1.47,1.37-1.83.06-.37-.87-1.12-.31-1.89l-1.06.35c-.11-.13.72-2.64.68-3.39-.05-.84-.66-1.63-.55-2.27.13-.71.88-1.18.93-1.97.06-.85-.65-1.33-.61-2.04.04-.76,1.81-3.59.26-3.95.64-.39,1.11-2.87.63-3.31l-.98-.22c.1-.95,1.3-2.34,1.32-2.48.03-.33-.8-1.12-.63-2.07.05-.27.6-.26.74-.49.26-.43-.01-1.03.05-1.11.21-.23,1.61-.64,2.06-.77l-.36-1.05c.6.25,2.51-.11,2.84.15.31.24.22.92.59,1.29.44.45,1.5.48,1.9.93.77.86.79,3.41-.38,3.82l.73.4c-.44,1.24.65,4.43.29,5.57-.14.47-.88.4-1.02.83-.22.67-.43,3.83.08,4.28l.97.23c-.67,1.34-.18,2.8-1.41,3.9.95.26.83,2.35.71,3.34l1.06.19c-1.46,1.85-1.26,3.45-1.59,5.49-.29,1.75-1.15,3-.47,4.92l1.01.03-1.31,6.3c2.21.94.06,1.51.26,2.01.36.91,2.52,2.25-.71,2.31-.42,1.04.7,1.93.74,2.28.21,1.72-.21,3.45-.07,5.35.01.2-.56.15-.68.4-.59,1.28.38,1.83.37,3.11l.7-.18-.71.89.63.22.08,1.72c-1.18-.27-1.28.6-1.37,1.64-.07.83-.17,2.8.68,2.81-.08.82-.77,1.5-.98,2.21-.44,1.5,1.93,2.64-.46,3.27.31.52.74,1.75.65,2.3-.06.35-.8-.09-.65.51l.7.18c-1.27.75-.81,2.67-1.76,2.66v.7s1.05-.36,1.05-.36c.73,1.53-.19,1.65-.34,2.04-.18.49-.07,1.37-.11,1.43-.15.2-.9.28-.94.59-.01.13.72,2.35,1.38,1.96l-.7.7.66.17c-.34,1.39-.97,2.63-1.22,4.07-.11.64.29,1.25.13,1.87-.3,1.17-1.7,2.99-1.36,4.63.03.13,1.89,1.08,0,1.84l.63.23.05,1.15-1.39.57.36,3.53h-1.06c-.12.96-.02.9.71,1.24-.23.23-.51.49-.62.8-1.06,2.84-4.51,11.71-6.94,13.42-.25.18-.63.13-.93.11l.31.89-.7.37.39,1.21-1.42.36.71,1.41c-.68-.01-1.3.33-1.97.38-1.34.11-2.21-1.2-1.57,1.39-2.18-.93-3.21,1.19-4.53,1.75-.34.14-.94-.07-1.14.02-.1.05.22,1.55-.35,2.12-1.56-1.41-2.8-.72-4.59-1.06l.17.71c-1.89,1.27-1.81-1.34-3.91-1.38-.18,0-.1.56-.32.61-.68.16-3.06-1.03-4.08-.64,1.1-2.55-3.71-1.93-3.88-2.13-.07-.09.09-.63-.12-.92-.24-.34-1.01-.45-.96-1.18l-.67.03c.35,1.29-2.19.11-2.3-.03-.56-.71-1.03-2.28-.91-3.2l-1.71-.06c.28-1.38-.86-1.49-1.13-1.97-.66-1.17-1.28-2.65-1.41-3.99l-1.41.35c.58-1.26.33-3.02-.96-3.68l.25-2.33c-2.23.62-.51-2.24-.73-3.32-.06-.3-.61-.25-.7-.47-.58-1.31-1.11-4.04-1.39-5.29-.13-.58.06-1.28,0-1.89h-1.42s0-2.82,0-2.82h1.06s0-.71,0-.71c-1.7-.68-1.57-4.57-1.04-6.18l-.69-.36.32-.89-1.77-.54c1.49-2.13.52-4.07.37-6.66l-1.08-.23c1.24-1.29-.05-1.89.29-3.02.17-.57.64-.54.76-.77,1.24-2.34.09-1.71,0-2.1-.25-1.08.62-2.55.55-2.98-.11-.69-.78-1.26-.83-1.64-.09-.6,1.27-1.3.29-3.4-.37-.8-.31.38-.51-1.48-.25-2.33.34-5.62.89-8.12l-.76-.4c0-.9.76-1.53.76-2.45,0-.79-.66-1.39-.58-1.99.09-.63.82-.62.89-.9.1-.39-.55-2.27-.39-2.92l-1.01-.2c1.1-.87.23-1.85.37-2.78.22-1.46,1.92-6.73,1.09-7.79-.28-.36-1.67.1-.92-1.61.31-.69,1.85-1.39.16-1.96,1.24-1.13.08-2.42.15-3.19.09-.97.68-2.59.4-3.92-.24-1.08-2.21-1.57.16-2.81l-1.07-.72,1.04-2.85-.68-.31.71-1.44-.7-.32,1.06-1.97-1.32-.52c-.05-1.25,1.07-1.42,1-2.85-.03-.64-.66-.47-.74-.76-.44-1.63.72-1.61.72-1.72,0-.43-.56-1.08-.63-1.9s.8-2.71.55-3.39c-.09-.25-.86-.19-.86-1.06,0-1.08.69-2.03,1.62-2.49-.12-.47-.72.2-1,.1-.05-.02-.77-.75-.77-.8.1-1.2,1.57-.8,2.25-1.23.31-.2.2-.7.24-.72.12-.07,2.15,1.19,2.46,1.26.56.13,1.3-.29,1.42-.21Z"/>
  <path d="M36.04.4l.04,1.01.52-.7c1.52,1.87,3.47.91,4.87,1.19.83.17,2.48,1.46,2.91,1.56.22.05.77-.32,1.37.03s.23,1.3.4,1.47c.42.42,1.16.25,1.63.51.33.18-.02.81.31,1.05.69.5,1.99.33,2.41.62.32.22.63,1.82.99,2.37.26.39,1.04.5,1.19.97.18.58-.36,1.38-.28,1.49.06.09.7.16.99.6.73,1.11,0,2.16,2.15,2.81-.86,1.04-1.42,1.43-1.02,2.99l1.03.02c-.36.49-.07,1.28-.26,1.68-.32.66-.95.67-1.08.87s-.51.72-.79,1.15-.97,2.19-1.1,2.26c-.12.07-.65-.37-1-.14s-.5,1.09-.9,1.26c-1.17.48-.7-.55-.97-.94s-1.59-.9-2.02-1.38c-.3-.33-.63-1.81-1.28-2.25l1.27-2.14h-1.42s-.37-4.6-.37-4.6h-1.39c.53-2.79-.12-2.41-2.2-3.23-1.31-.52-3.02-1.07-4.61-1.49-.37-.1-.67-.43-1.11-.51-.84-.14-1.99,1.01-3.06.62v-1.23s-.7-.18-.7-.18c.16,1.02-.52.37-.63.46-.42.34-.81,1.29-1.4,1.57-.93.44-2.6.48-3.53.92-1.15.55-1.75,2.99-2.84,3.77-.41.29-1.14.19-1.45.43-.33.26-.04,1.08-.4,1.53-.97,1.2-2.96,1.82-2.86,3.86.01.26,1.11.05.72.9l-1.41.37.18,2.14.88.5c-.8,1.36-.91,2.82-2.47,3.89,1.74.97.19,2.44.52,3.89.23,1.03,1.21,1.14.41,2.2-.13.18-.56.09-.57.12-.08.13,1.46,1.73.35,2.82l1.37.4c-.54,1.95.77,1.65,1.37,2.19.2.18-.03,1.14.8.96l-1.41.71c.02,1.42,2.09,1.28,2.4,1.53.81.66.61,2.12.96,2.71.3.5,1.14.45,1.5.8s.72,1.64,1.28,2.26c1.14,1.28,3.43,2.37,5.04,2.93l-.21,1.08c2.29.23,4.41,2.5,6.39,3.72.54.48,1.48-.62,1.71-.49.74.43.48,1.66.54,1.74.47.64,3.69,1.63,4.23,2.09.33.28.15.8.31.98.16.19,3.49,2.82,3.71,2.91,1.2.49,2.45-.55,1.51,2.14,1.86-.25,1.83,1.84,2.7,2.47.49.36,1.13-.02,1.17.03.19.25.23,1.72.51,2.34.16.36,3.11,3.66,3.53,4.36.37.62,1.03,2.21.59,2.83l1.24-.02.53,3.21,1.44-.19.68,1.08-1.05.54.03.47c1.03,1.33,1.58,2.99,2.19,4.55.33.84,1.1,2.49,1.22,3.37.11.81-.33,2.17-.1,2.93.3,1,1.35,1.24.55,2.83l.7.17-1.36,1.4c.98,1.48-.79,3.81,1.02,4.62l-1.06,1.23.72.21c.11.92-.09,1.49-1.08,1.58.45,1.57,1.77,4.03,0,4.94l.72.18v.35c-1.86,1.05-1.18,3.45-1.97,4.75-.34.55-1.05,1.67-1.33,2.08-.4.58-1.36-.08-.39,1.49-1.37,1.13-3.31,2.52-2.68,4.59l-2.11.38c.57,1.52-.56,2.5-2.14,2.11l.35,1.41c-.17.13-1.4-.89-2.61.71-.96,1.28-.8.98-2.23,1.68s-.8,1.39-.87,1.45c-.93.74-5.15.93-6.66,1.65-1.01.48-.96,1.84-1.31,1.95-1.49.43-3.98.3-5.26-.72-.45,1.38-2.25.95-3.35.7l-.17,1.43-.71.34c-1.01-1.64-1.99-.78-3.2-.87-.29-.02-.57-.53-1.05-.56-.16,0-.03,1.12-1.41.71-.67-.2-.14-1.02-.18-1.05-.13-.08-.74.2-1.11.15-1.43-.18-1.5-.79-2.78.55-.7-1.09-.77-2.5-2.15-2.99-.48-.17-.94.15-1.36-.03-.57-.24-4.05-1.91-4.27-2.11-.49-.44-.36-1.03-.36-1.59-.41.83-2.16.38-2.42-.06-.31-.52.32-1.6-1.03-2.43-.38-.23-.89-.05-1.16-.21-1.35-.82-.77-2.4-1.1-2.91-.16-.24-1.08-.13-1.39-.64-.94-1.51.74-1.88-2.73-2.3.37-.81-.57-1.06-.72-1.61-.18-.66.52-1.49-.25-2.57s-2.83-.55-1.23-3.04l-.66-.33c.56-1.13-.65-1.6-.33-2.91.18-.74.68-.85.81-1.19.16-.41-.15-.8-.07-.97.27-.6,2.22-.68.95-2.55,1.47-.04,2.03.24,3.55-.56.6,1.13,1.75,1.78,1.06,3.02,1.18-.22,2.25,1.62,2.38,2.61.07.52-.36,1.26-.26,1.75.04.21,1.98,1.7,1.05,2.73l1.37.05c.66.82.34,2.33.64,3.04.2.46.74.42.93.9.12.3-.11.86-.05.92.17.17.83.18,1.15.44.35.29.49.8.65.9.37.25,2.39.14,1.69,1.54l1.41-.7.42,2.06c1.03.28,1.9.07,2.07,1.47l.88-1.05c.86.64,1.08,1.14.53,2.11,1.46.24,3.82.46,4.43,1.77,1.36.46.63-.99,1.07-1.07.99-.21,1.7,1.01,2.46,1.04.38.02,6.42-1.17,7.39-1.41,1.62-.4,3.01-1.56,4.47-1.05l-.35-1.41h2.13s-.36-.7-.36-.7c1.16-.49,2.96.21,3.68-1.07.23-.4-.53-1.25,1.63-.71l.18-1.06,1.58.36c-.04-1.8,1.5-2.05,2.65-2.82l-.11-1.02.65-.41-.7-.35c.64-.08,1.38-.35,1.74-.92.52-.85,1.19-2.98,1.66-4.01.74-1.62,2.94-3.59.85-5.16l1.35-1.1c.1-.55-.55-1.21-.5-1.72.16-1.6.32-4.79.08-6.67-.13-1.03-.75-2.02-.81-3.19-.05-.85.63-1.56.58-1.63-.03-.04-.49.04-.56-.08-.29-.5.17-1.44-1.55-1.36l.37-2.98-1.09-.19c.9-1.39-.46-2.15-.82-3.61-.12-.47.17-1.28.12-1.33-.23-.23-2.31.06-1.89-1.36l-.59-.24.71-.53h-1.41s.32-1.93.32-1.93c-2.09-.83-1.01-.97-1.46-2.41-.13-.4-1.61-3.24-1.76-3.37-.49-.42-2.11.39-1.7-1.85-2.16,1.08-2.39-3.72-4.61-2.99l-.33-1.09c-2.46.73-1.71-1.45-2.64-2.31-.65-.6-1.64-.28-2.16-.66-.82-.6-1.14-1.91-2.18-2.47-1.12-.6-2.53.31-2.99-2.13l-2.01.61-.77-.85.35-.84c-2.47.59-2.29-1.44-3.19-2.3-.52-.5-2.04-.66-2.59-1.22-.3-.31-.15-.81-.33-.98-.38-.38-2.38-.94-2.44-1.8l-.64.29c.39-2.23-.4-1.48-1.2-2.17-1.51-1.29-1.12-2.32-2.13-3.72-.45-.62-1.64-1.29-2.08-1.97-1.99-3.11-1.74-5.48-2.97-8.78-.2-.52-1.44-2.16-1.46-2.29-.3-2.17,2.75-5.08.62-6.76l.06-.99c1.22-.76,1.57-2.58,1.98-4.02.12-.42-.23-.86-.17-1.09.02-.08,1.12-.59,1.3-1.04.41-1.03.34-3.11.54-3.78.33-1.1,2-2.31,2.2-2.74.48-1.02-.53-3.9,2.25-3.46-.7-1.64.93-1.51,1.6-2.11.88-.79,1.78-2.49,2.48-3.16.4-.38,5.17-2.93,5.53-2.99.69-.12,2.91.22,4.08-.12.92-.27,1.39-1.4,2.57-.8V0s1.73.4,1.73.4Z"/>
  <path d="M146.57,8.44c.12.08.62-.12.99-.06.23.04.45.46.53.46.33-.01.39-1.52,1.41-1.05.43.2,1.44,3.7,2.84,3.53.57.77-.14,1.3.9,1.63-.76,1.61.17.96.45,1.64.34.81-.13,1.42.03,2.05.17.69,1.28,1.63,1.47,2.46.27,1.18.08.9.47,2.04.68,1.96-.43,3.04,1.87,4.94.09.08.48-.26.56-.19.41.33.15,1.45,1.48.63l.39,5.3h1.73c.41.6-1.59,2.83,0,4.04.19.15.81-.07,1.09.35.49.73.53,2.21,1.28,3.37.55.85,2.25,1.51,2.44,1.81.42.66-.91,2.83,1.21,2.48l-.7.7c1.44.06.89,1.44,1.32,2.41.58,1.31,2.9,1.23,1.15,3.61h1.07s-.36,1.06-.36,1.06h1.07c-1.3,1.55-.03,4.19,1.77,4.25-1.09,1.89.24,1.6.6,2.28l-.59,2.32c1.87-.35.98-1.58,1.38-2.22.2-.33.76-.34.96-.76.3-.62-.02-2-.55-2.51,1.07-.47,1.05-1.14,1.6-1.92.47-.67,1.31-.28.52-2.11l1.4-.41c-.64-1.37.35-1.11.86-1.77.41-.54,1.72-3.95,1.63-4.37-.11-.5-1.16-.31-1.06-.89,1.59-1.07,2.67.29,3.15-1.9l-1.02-1.11c.41-.94,1.96-.91,2.4-1.3.09-.08.3-1.73.65-2.4.26-.5,1.91-1.83,2.07-2.14.34-.64.7-4.01.92-4.21l1.33-.07c.14-1.12.27-1.34-.3-2.43h1.77c.18-.35,0-1.17.11-1.35.06-.11,1.2-1.52,1.3-1.75.39-.87.69-2.74.77-2.87.15-.23.88-.17,1.14-.37.09-.07.93-1.31,1.22-1.68.95-1.24-.07-.43-.29-1.18h1.07s-.27-.52-.27-.52c1.16-.36-.02-1.23.58-2.08l2.14-1.16-.69-1.54c1.64-.06,1.45-1.2,1.76-1.58.49-.61,2.38-2.92,2.85-3.22.5-.32,2.3.79,3.17-.51-.19.82,1.03.91,1.25,1.38.15.34-.24.88-.17,1.25.38,1.85.11,1.03.11,2.14,0,.66,1.44,1.46-1.15,2.34.97,1.83-.22,1.61-.74,2.29-.65.84-.56,2.09-.86,3s-1.77,1.99-1.86,2.2c-1,2.31-.35,2.64-2.72,4.39-.27.2-.82.05-.91.14-.07.06-.05,1.84.68,1.4v.34c-1.3,0-.87,1.28-1.38,1.98-.28.38-1.08.52-1.29.86-.23.38.23.96.18,1.03-.06.08-1.31.29-1.78.9-.27.36.04,1.39-.66,2.08-.36.36-.77.04-1.2.68-.49.72-.25,1.9-.38,2.05-.35.39-1.02.24-1.23.39-.05.03.25.62-.06,1.14-.44.74-1.46.91-1.78,1.79-.3.82.24,1.8-.68,2.52l.72.34-.04.86c-.4.2-1.92.61-2.06.8-.09.12.16.55.11.82-.06.28-.36.57-.34.71.05.56,1.41,1.57-.27,1.91l-.77-.65c-.55.26-.21.77-.4,1.06-.16.23-.66.26-.77.43-.12.18.16.6.07.99-.14.58-1.16.46.41,1.04l.17.54c-1.58.53-.98,1.57-1.23,1.94-.4.6-1.74,1.91-2.1,2.47-.47.73-.14,3.14-.95,4.05-.67.75-2.61.66-.68,1.42-.36.53-.2,1.39-1.05,1.27l.7.52c-1.04.9-.44,2.48-2.12,2.32.41,1.47-1.21,2.62-1.91,3.92-1.98,3.68-1.55,5.43-4.37,8.89-1.37,1.68-1.35,5.22-2.37,7.37-.46.97.16,1.67-1.62,1.75.24.56.52,1.28.37,1.89-.1.4-1.29-.2-.01,1.63l-1.77.72.7.35-.71.53.71.53h-1.06s.68.85.68.85c-.31,1.12-1.21,1.87-1.72,2.62-.23.34-.16,1.01-.56,1.49-.46.55-1.31.54-1.53.76-.08.08.13,1.44-.15,2.15-.25.64-1,1.21-1.32,1.87l1.06.18c-.26,1.56-.18,2.11-2.06,2.19-.31,2.18-2.45,4.2-1.84,6.43.08.29.47.26.71.23v.34c-.97-.16-.35.52-.69.87-.42.43-1.37.64-1.67.98-.11.13-.13,1.97-.82,2.22l.7.52c-1.89.24-1.41,1.93-1.83,2.95-.22.53-.81.5-.92.65-.08.11.37,1.44.1,1.73-.39.4-1.09.22-1.54.93-.52.83-.52,2.51-.87,3.38-.41,1.02-1.53,2.47-1.81,3.43-.23.79.19,1.8.12,2.29-.03.24-.56.16-.68.49-.39,1.04.72,1.36-1.78,1.15.41.92-.34,1.71.71,1.94-1.36,1.36-1.77,2.12-1.6,4.08-.74.97-1.49.23-2.06.34-.28.05-.18.62-.4.66-.14.02-2.22-.24-2.42-.35-.4-.22-.47-.67-.73-.88-.28-.22-.82-.15-1.1-.48-.72-.85-.1-2.33-2.31-2.3.51-1.02.9-1.41,2.13-1.24-.83-1.1.55-1.44.66-1.99.1-.48-.54-.95-.53-1.36.02-1.35,3.29-2.89,1.28-3.54.22-.84,1.3-1.18,1.59-1.62.27-.4-.16-1.53.26-2.02.54-.66,1.63-.02,1.68-.09s-.07-.56.14-.92c.09-.15.54-.16.59-.38.19-.93-.91-2.52-.63-3.46.02-.08.94-1.33,1-1.4.18-.2.76-.1,1.06-.44.43-.47.57-1.88.89-2.56.95-2.03,1.98-3.64,2.95-5.86.55-1.26,2.74-4.51,1.09-4.96,1.81-1.09,2.14-2.28,2.93-4.07.12-.27-.12-.69,0-.97.26-.59,1.6-.92,2.09-3.05.31-1.34-.48-2.91-.39-3.03.08-.1.65-.11.81-.38.85-1.37,1.77-2.86,2.69-4.37.39-.64,1.36.34-.34-1.64,1.66-.15,1.2-2.44,2.47-2.49.37-.41-1.43-.39-1.06-1.58,1.52-.46,1.21-1.01,1.74-1.69.26-.34.82-.43.91-.59.19-.35-.27-1.02-.2-1.56.03-.26.67-.24.85-.67.43-1.04-.33-1.36.8-2.72.38-.46,1.13-.16.84-1.08-.73.05-.94-.58-1.07-1.21,1.03-1.13,2.76-1.15,2.2-2.99l1.36-.41-.34-1.2,1.02-.62-.18-1.38,1.27-.52c-.6-2.18-3.02-3.19-3.17-5.31l-2.12-.54c.58-2.14-.36-3.62-.38-5.64l-.7.36v-2.12s-1.77,0-1.77,0l.71-1.05c-2.59.21-.24-2.5-.81-3.82-.26-.6-2.27-1.54-2.41-1.72-.16-.2-.13-1.49-.54-2.14-.92-1.43-3.19-4.87-3.64-6.37-.2-.67.03-2.04-.37-2.68-.34-.55-1.43-.29-1.71-.68-.06-.08-.54-1.61-.65-1.94s-.7-2.92-.8-3.06c-.27-.37-1.02-.19-1.28-.58-.22-.33-.07-.9-.2-1.14-.19-.34-.65-.31-.68-.51-.19-1.02,1.23-1.9-.17-3.66-.69-.87-1.88.09-1.94,0l.32-4.91-2.77-1.84.68-2.09-1-.05c-.3-.24-.44-5.36-.41-6.1.03-.57.56-1.04.57-1.46s-.79-1.03-.23-1.74c.8-1,1.34.7,1.49.81Z"/>
</svg>