<?xml version="1.0" encoding="UTF-8"?>
<svg id="Layer_1" data-name="Layer 1" xmlns="http://www.w3.org/2000/svg" viewBox="0 0 485.24 200.23">
  <defs>
    <style>
      .cls-1 {
        fill: #fff;
      }
    </style>
  </defs>
  <path class="cls-1" d="M453.33,1.28l-.67,1.72c.85.25,1.65.1,1.16.98,2.15.88-.03,4.03,0,4.49.03.55,1.35.71-.11,1.05v.71s1.06,1.06,1.06,1.06l-1.75.17c-.29.44.43,2.97.33,3.68-.38,2.64-.41,3.49-.37,6.05,0,.58-.09,1.42.15,1.82.09.16.71-.06.59.24-1.17.67-.24,1.68-.58,2.56-.16.41-.76.38-.81.66-.02.11.08,2.12.12,2.27.17.73.97.54.95,1.19-.04,1.3-.86,3-.77,4.6.08,1.44,1.87,3.29.79,3.5.37,1.08,0,2.65-.76,3.54,1.36.53.91,1.96-.35,2.46,0,.25,1.56.3,1.05,2.06-.07.23-1.81.47-.04,1.08-1.11,1.43.77,3.88.6,4.97-.06.37-1.3,1.55-1.28,2.8l1.06.7c-.13,1.66-1.94,1.2-1.12,2.6l-.64.05.59.87-.95,4.05,1.07-.16.62.69-.98.89.66.87-.93,1.05c.87.69.42,1.71.64,2.4.03.09.83,1.05,1.03,1.11l-.95,2.85.93.55c-.8,1.25-.36,2.24.05,3.57.09.29.57.29.59.33.12.32-.59.65.47,1.5.04,1.28-.53,1.01-1.44,1.42,1.08.36.33,2.47.42,2.59.13.17.8.15.93.61.1.36-.42,2.17-.29,2.73.07.31.61.24.82.67.36.74-.15,1.6.95,1.86-.77-.07-1.55,3.54-1.39,3.66l1.3.56c-.48,1.37.82,2.58-.97,3.18l1.41.53c-.98,1.77-1.31,3.57-.15,5.3l-.87.83c1,2.35-.15,4.96.03,7.43l.65.34c-1.73.38-.01,3.45-.16,4.44-.1.63-.81.61-.88.9-.29,1.19.79,2.48.34,3.43l1.04.91-.63.05c.46.85-.28,1.59-.27,2.25,0,.75.84,1.89.77,2.47-.05.39-.77.61-.56,1.23l1.05.52c-.23.32-.71.56-.88.88-.72,1.37,1.21.73.16,2.27l.73.36-1.06,2.87.72.99c-.93,1.02-.23,1.99-.52,3-.35,1.21-1.77,2.16-.9,3.53-2.21-.38-3.19-.16-5.18.65l-.81-.99-.89.7-.58-.6-.64.26c.37-1.43-1.18-1.46-.71-2.46l-.88,1.4c-.49-.83-.14-1.11-1.24-1.59l.71-1.58-.67.34c-.27-1.06-1.08-1.71-.38-2.8l-1.39.56c-2.01-.61.47-2.78-1.82-2.89l-.34-2.58-1.02-.03c.89-1,.69-2.28-.7-1.4-.57-.79.28-1.62.26-1.94-.03-.39-1.64-2.06-1.78-2.39-.67-1.57,1.18-2.67-1.65-2.72l.71-.52-.36-.89-1.05.36c-.47-1.8.71-2.76-.36-4.66-.26-.47-.93-.51-1.22-.98-1.87-3.1-2.75-6.41-3.36-9.86l-1.05.36c.37-1.46-2.2-2.98-.97-3.81.33-.22,1.08.23.97-.42l-1.07-.22c.48-2.33-.99-1.97-1.32-2.3-.21-.21-.03-1.47-.6-2.09l-1.23.03c.33-.89-.05-1.6,1.05-1.93-.53-.78-1.38-.19-2.11-.18,0-.78.28-2.62.14-3.18-.18-.72-1.71-3.03-2.05-3.86-.28-.69-.15-1.62-.19-2.23,0-.11-1.44-1.47-1.53-1.72-.52-1.35-.99-3.94-1.3-5.32-.04-.16-1.18-.52-.7-1.65h-1.41s.38-1.91.38-1.91l-1.27-.54-.06-.91,1.3-.86-.71-.23c.2-1.42,0-1.86-.7-2.94l-1.04.7c-.13-.91-.79-2.34.34-2.64-.8-1.01-.31-1.85-2.12-1.59l.71-2.46h-1.41s.35-1.41.35-1.41c-2.41.65-.28-2.39-.7-2.81h-1.06s.35-1.77.35-1.77l-.7.36c.42-1.82-1.23-2.94-1.92-4.25-.28-.54-.1-1.27-.37-1.74-.31-.54-1.41-.55-1.53-.75-.2-.34.06-1.23-.13-1.8-.29-.84-1.64-3.67-2.73-2.73v-2.11s-1.76.35-1.76.35c.24-1.14.41-4.75-.53-5.28l-1.22.7-1-3.49.64-.38-.63-.06c.32-1.69-.33-4.04-2.54-3.47.33-.63-.23-2.95-.55-3.51-.13-.23-.65-.3-.74-.47-.4-.78-.66-2.08-1.36-2.72-.39-.36-1.35.12-1.75-.69-1.37,1.15,1.21,2.25-.53,3.7.87.03,1.04,4.3.95,4.86-.06.39-.63.74-.64,1.47-.01,1.38,1.57,2.72-.32,4.58.61-.02.9,1.58.93,2.11.04.82-.81.82-.88,1.11-.02.08-.04,1.56-.03,1.64.07.31.55.27.7.5.53.81-1.59,5.64-1.4,7.11.28.12.72.14.95.28,1.51.96-.22.56-.26.63-.38.64-1.12,3.48-.02,3.49-.02.75-1,3.36-.93,3.54.09.22.52.15.58.41.36,1.68-.96,1.69-1.05,2.4-.16,1.18-.25,2.31,1.09,1.96l-1.05,2.64.34.36c.51-.36,1.03.29,1.06.7,0,.13-.53.15-.58.25-.15.35-.45,1.13-.13,1.47l-.7.21c-.15.59.63.14.72.58.42,2.07-2.39,1.95.31,2.75.16.97-1,1.21-1.06,1.48-.13.59.41,1.25.4,1.68,0,.12-1.79.65-.02,1.43-.83.47-.55,3.09-.8,3.64-.03.07-.53.11-.6.31-.96,2.62-.19,5.08-.17,7.82.02,3.08-.37,5.93-.31,9.02.01.52-.75,1.13-.78,1.77-.01.26.84,1.67.56,2.28l.7-.36c.05,1.39.34,2.05-1.05,2.64l.65.34-.64,1.58c.73-.23,1.27,1.84,1.26,2.31-.03,1.09-1.19,1.15-1.26,1.25s.62,2.06,1.05,1.92l-1.05,1.06c.94.22,1.2,1.49.83,2.29-.6,1.3-1.17.24.24,2.29l-1.07,1.41.69.32-.7,2.14,1.41.18-.72,2.98,1.08.18c-.79.53-.11,3.28-.41,3.49-.36.24-1.27-.41-1,.74l1.05.17c-.68,1.13.19,2.47.19,3.53,0,1.13-.73,3.73-.54,4.88.04.26.61.18.69.46.07.25-.29,1.18.24,1.7-.55,2.29-2.52,2.7-4.36,3.65l-3.89-1.42c-.43-.49.15-3.08-1.12-2.05-.31-.45.96-2.15.99-2.71.02-.37-.81-1.59-.57-2.77.04-.18,1.2-.2.63-.86-.06-.07-1.4-.28-.99-1.23.16-.37,1.15-.43,1.2-1.43.1-1.95-1.89-2.26-1.9-2.44-.14-1.3,2.48-3.89-.08-3.72,1.23-1.69.99-3.82.94-5.81-.01-.63-.48-2.99-.44-3.51.03-.42.8-.93.56-1.59l-1.06-.35.45-.35-.37-.05c-.23-1.29.82-1.84.9-2.29.06-.33-.26-.7-.26-.97,0-.24.57-.23.67-.49.29-.74.1-1.47.37-2.18h-1.06s.35-1.06.35-1.06l-1.76-.18c1.06-1.67,4.06-4.18.7-4.76.21-.47.88-1.47.9-1.94.04-1.25-.45-3.57-.48-4.64-.01-.51.63-1,.81-1.69.29-1.13-.66-4.7-.44-5.95.06-.35.76-.75.62-.92l-1.41-.19c-.12-1.63,1-2.16,1.66-3.07.06-.09-.21-.36-.13-.54.04-.1.64-.03.59-.24-.06-.23-.49-.53-.54-1.07-.05-.51.23-1.49.17-1.71-.07-.26-.65-.2-.65-.37.01-1.59,1.26-1.88,1.34-2.18.17-.62-.87-1.34.37-1.2-2.59-1.47,1.27-7.91-.34-9l-1.06.03c-.03-1.62,2.59-2.42.7-3.17l.7-.88-.91-.88.29-.83.97-.06v-.7s-.71-.17-.71-.17c1.11-1.02.16-2.3.37-3.49.13-.74,1.48-2.99,1.39-3.56-.05-.35-.67-.03-.96-.23-.89-.64.95-2.62,1.18-3.44.19-.7-1.35-.94.11-1.22-.79-1.59.02-3.36.4-4.94l-.69-.34c.7-1.69.09-3.55,0-5.3-.08-1.37.89-2.65-1.08-3.53l1.4-1.25-.74-1.94.74-.86-1.02-.16c-.34-2.68,1.06-2.01,1.37-2.31.13-.13-.35-.89-.33-1.25.09-1.25.19-.6.08-2.15-.05-.76.34-3.7.23-4.12s-1.56-.43-1.05-2.88c.18-.89.79-.69.99-.93.05-.06-.21-.95-.12-1.45.14-.74,2.44-4.83,2.82-5.2.78-.76,1.88-.49,2.24-.75.27-.19.18-.86.39-1.12.26-.33,1.09-.12,1.25-.89.59.28,1.37.21,1.25,1.01l.7-.7c.05.69.42,2.02.89,2.48.24.24,3.56.2.52,1.75.72.78.52,2.37.83,3.08.15.33,1.81,2.35,2.14,2.93.49.83,1.29,3.16,1.7,3.75,1.11,1.58,3.92,1.55,2.73,3.97l.63-.26c.2.56.75.73.99,1.29.52,1.16.66,3.38,1.23,4.68.2.46,1.27.93,1.34,1.23.31,1.3.64,2.17,1.43,3.48.62,1.03,1.95,3.76,3.19,2.98-.99,1.83.91,2.56,1.22,3.54.23.75.23,2.74.43,3.42.09.31.97.72,1.3,1.52.51,1.21.51,1.39,1.03,2.43.2.39.3,1.48.67,1.69.99.57,1.36-.85,1.33,1.83l1.05-.36c-.23,1.07.99,2.69,1.02,3.33.06,1.21-1.23,1.81.76,2.18.34.6-.01,1.55.1,2,.45,1.69,1.72,3.81,2.82,5.41.18.27.87.37.93.66.07.33-.5.79-.57,1.21-.31,1.76,1.28,3.65,1.73,4.94.75,2.14,1.16,4.36,2.04,6.42.12.29,1.05.47.72,1.65l1.02.03c-.54.31.06,2.97.2,3.18.25.37.99.39,1.16.94.11.34-.26.88-.12,1.19.21.48,1.1.6,1.18.73.06.1-.36,2.1-.2,2.36.44.72,2.21,1.2.61,2.88,1.24-.23.98.35,1.39,1.26l-.68.5c1.8.18.94,2.17,1.6,3.16.26.39.92.51,1.22.9.92,1.2,2.66,2.94,1.42,4.23l1.39.54c-.74,1.82.12,1.95.56,3.14.32.85-.24,1.63.88,1.99l-.38,1.19c.82.55.7-1.1,1.05-.7,1.29,1.46.05,1.89-.01,2.63.97.73,1.72,1.76,1.43,3.01l.88-.24c1.19.58.43,2.11.6,2.8.28,1.13,1.09,2.65,1.46,3.89.19.64.73,1.16.59,1.99l1.39.02c-.37.49.09,1.17,0,1.53-.07.29-1.2.18-.71.93.02.03.46-.04.56.13.31.54.51,1.55.96,1.9.21.16.78.02.88.13.28.32-.38,2.28,1.11,2.08l-.17-4.58-1.6-.17.6-.23c-.43-1.23.88-1.29.98-1.99s-.06-4.3-.3-4.85c-.18-.4-.74-.37-.86-.67-.38-.95-.23-2.66,1.16-2.62.45-1.1-.52-1-.65-1.83-.23-1.48.37-3.7-.24-5.41l1.07-.35c-.89-.58-.24-1.55-.4-2.06-.17-.55-1.22-.48-1.22-1.46,0-.87.89-.86,1.03-1.32.21-.66-.39-1.54.23-2.21l-1.05-.17c-.1-.08,1.19-1.69,1-2.28-.07-.22-.72-.19-.82-.82-.04-.27-.22-3.53-.2-3.72.03-.24.57-.16.64-.39.05-.18-.21-1.13.07-1.57l-1.39-.55c2.23-1.86.19-2.39.08-3.16-.09-.63.92-.96.93-1.04.02-1.32-1.11-1.8-1.18-2.25-.13-.81.51-2.28.43-2.73-.07-.35-.71-.36-.85-.57s.49-1.21-.81-.63c.1-2.82,1-5.37.34-8.21-.06-.27-1.05-.16-.7-1.44.08-.31,1.07-.04.71-.92l-1.02-.22c.29-.79-.04-2.55.13-3.13.15-.51.72-.64.88-1.42.22-1.11-.5-3.11.01-4.39l-.99-.04-.37-2.26.63-.32-.33-1.26h1.06c-.14-1.57-1.37-6-.82-7.31.2-.46.8-.39.82-.67.06-.56-.47-1.45-.01-2.24l-.71.18.71-4.4h-1.06c1.21-2.92-.22-5.58.71-8.27l-.71.18-.03-1.57,1.08-.37-1.42-.7.63-.23c-.61-.8.96-1.08,1.1-1.6.3-1.11-1.28-2.07-1.27-2.75,0-.49.65-.87.74-1.22.16-.62.61-3.88.48-4.43-.05-.21-.67-.02-.63-.66.05-.72.53-1.64,1.06-2.15l-1.38-1.09,1.02-2.08-1.4-.53.41-1.36,1.34-.06v-3.14s-1.39-.19-1.39-.19c.25-.82,1.3-1.72,1.56-2.31.35-.8.22-2.18.74-2.78.1-.11,2.35-1.66,2.49-1.69.49-.09,1.46.53,1.87.25l.39-1.38,1.37.74Z"/>
  <path class="cls-1" d="M91.24,10.04v1.41s1.05-.7,1.05-.7c-.08,1.72,1.38,1.84,2.46,2.64-.59.75-.98,2.62-1.01,3.55,0,.18.52.08.59.32.24.96-1.86,3.12.43,2.65-.09.86-.2,1.63-1.05,1.93,1.54,1.45.49,3.04.35,4.76,1.99-.86-.32,1.53-.34,1.65-.29,1.37-.3,6.54.22,7.76.18.43,1.37.7.45,1.99-.32.45-.93.52-1,.61-.06.08.54,1.44.55,1.95.02.64-.43,1.15-.44,1.69-.02,1.38.51,3.69.13,5.3-.06.26-.98-.04-.64.87l1.41.35-.64.17c.57.98-.43,1.43-.65,2.19-.19.67.39,2.02-.82,2.76l1.76.35c-.22,1.59-1.65,1.5-1.74,1.6-.11.11.41,2.39-.39,2.98l.74.39-.37.85h1.06c.08.06-.51,1.7-.52,1.94-.02,1.34,2,1.59-.19,3.17l1.06.7c.17,1.1-.12.89-1.05.89-.34.94.66,1.53.69,1.63.16.7-.86,1.41.38,1.71,0,.48-.51.73-.62,1.15-.1.37-.41,1.82-.4,2.04,0,.14,1.79.94.3,2.46l.7.33c-1.61,1.43-.63,2.68-.37,4.28.2,1.21-.88,1.43,1.07,2.41l-1.06,1.09c.11.46.38.9.37,1.38-.04,1.4-.24,2.65-.3,3.87-.08,1.35.9,2.43.29,3.88l1.06.18c.15.56-.48.25-.57.42-.37.65-.64,4-.13,4.33l1.06.18-1.06,1.57,1.03,1.04c-.87,1.28-.37,2.29-.35,3.5,0,.45-.38.95-.33,1.4.01.13,1.06.67,1.08,2.16l-1.06.88,1.06.18-.36,1.4.71-.18-.69,1.96c2.2,1.11.3,3.17,1.05,5.09l1.4-.35c.17,2.11-.71,2.02.37,4.32.03.07.61,1.09.66,1.13,1.08.93,2.3-.03.73,2.64h1.41c.13.13-.13,1.74-.01,2.22s1.77.45.71,2l1.06-.18c.68.42-.03,1.27.17,1.62.22.39,1.76.81,2.29,1.22.49.37.68,1.14.76,1.18.19.11,4.09.06,4.31.02.12-.02,1.66-2.12,1.63.37l.52-.65,1.23.3c.42-1.39,1.53-3.06,2.48-4.4l-.7-.7c.29-.79,2.62-1.11,3.41-2.05.71-.85.39-2.33,1.88-2-1.18-1.65,1.3-2.11,1.72-2.88.31-.57-.61-.03.84-1.72.28-.33.22-.8.49-1.05.71-.64,2.77-1.17,3.73-.98,1.87.37,1.56,3.49,3.78,2.41-.49,1.96.38,1.79.85,2.48,1.15,1.71,1.13,1.19,2.22,2.2,1.18,1.09,1.21,3.63,2.12,4.19l-.23.6c.92-.22,1.49,1.09,1.59,1.09.97,0,1.39-.66,2.71.34s.71.9,2.63,1.88c.18.09-.09.9.8.59l.35-.7c-.24,2.29,2.16,1.1,2.72,1.29.6.21,1.42,1.25.81,1.88l.71-1.41c.85.42,2.47.19,3.34-.09.19-.06.09-.45.4-.58.16-.07.61.39,1,0,.96-1,.53-2.33.6-2.44.12-.19,1.55-.58,1.86-1.12.37-.63.21-1.8.78-2.71.6-.97,1.86-2.51,2.55-3.49.34-.48.23-1.73.63-2.5.27-.52,1.26-.77,1.18-1.67,0-.1-1.1-.14-.52-1.63.27-.69.83-1,1.03-1.53.36-.94-.06-1.23.49-2.57.94-2.29-.48-1.52-.35-2.74.06-.63.55-.49.61-.61,1.18-2.52-.08-5.47.59-7.43.25-.74,1.81-1.91.24-2.52l.7-.88c-1.01.11-.37-.44-.47-.63-.06-.11-.47-.09-.52-.25-.11-.44.58-2.12,1.34-1.94l-.74-.86.73-2.86-.69-.32c1.2-.84-.12-1.76.15-2.47.22-.57,1.07-.92.94-1.77l-.73-.87,1.78-.9c-.46-1.56.07-2.92.14-4.56.03-.77-.63-1.72.19-2.99l-1.41-.53,1.73-1.45c.11-.46-1.26-2.5-1.26-3.49,0-.56.42-.99.42-1.41,0-.28-.44-.63-.42-1.06.08-1.54,1.02-1.99,1.22-2.47.23-.53-.31-3.58-1.69-3.02-.1-1.03,1.08-1.72,1.22-2.38.11-.49-.28-1.07-.19-1.57.05-.27.67-.21.72-.47.22-1.01-.39-4.17.24-5.67.26-.63,2.06-.57-.21-1.53l.69-2.23-.73-.36c1.16-.98.25-2.68.51-3.72,1.11-4.53.76-9.33,1-13.84.05-.98,1.43-2.12-.1-2.51.2-.78,1.27-1.18,1.36-1.42.07-.18.17-3.97-.65-3.34v-.34c1.26.02.82-.98,1.09-1.49.17-.34.65-.3.64-.43-.06-.72-.84-1.67-.32-2.66-2.94.04-.29-1.46-.08-1.84.23-.43-.02-1.03.1-1.48.13-.48.53-.87.58-1.15.16-.92-2.46-3.55.81-2.93-1.47-3.45,5.58-3.01,5.89-1.7.07.28-.29.73-.19,1.08.72,2.41,1.68,3.55.98,6.36-.07.28-.66.22-.71.48-.32,1.69-.84,4.91-.74,6.59.02.33-.32.79-.27,1.07.13.72,1.43.21,1.37.9-.49-.14-1.69,1.43-1.72,1.64-.06.41.54.74.54,1,.01.35-1.51,1.68.12,1.59v.34c-1.44.22-1.62,1.73,0,1.43-.05,1.48-.75,1.16-1.75,1.92l1.06,2.44c-.03.36-1.35.25-1.07,1.44.23.96,1.58-.42,1.41.71-.21,1.42-3.01,2.96-1.06,3.86l-.72,2.47,1.07.18c.03.72-.93-.05-.71.87.09.37.58,0,.71.35l-1.41,4.41c.22.21,1.84-.41,1.76.35-.38-.1-1.93,1.95-1.95,2.09-.07.45.79,3.35.79,4.03,0,.09-.4,1.58-.45,1.64-.28.34-.96.15-.85.69l1.4.53-1.74,2.81c-.08,1.05.98,1.27.99,1.4.04.67-.18,2.14-.65,2.65h1.06c-.75.91-.32,3.33-.42,3.7-.13.46-1.39,1.95-1.51,3.29-.07.83.3,1.64.42,2.44.14.95-.82,1.4.78,2-.81,1.65-1.45,2.65-1.24,4.53.13,1.17.07,1.26,1.26,1.47l-1.76,1.76,1.05.34c-.65.87-.04,2.66-1.4,2.65l.03.67.67.24.02.68c-.59.81-1.3,3.05-1.34,4.07-.07,1.88,1.59,3.95-.44,4.72l1.42.71-1.07,2.82.7.51c-1.56.11-1.15,3.16-1.48,4.07-.09.24-.6.12-.63.17-.13.22.53.5.57.88.03.23-.83,3.99-.95,4.49-.44,1.76-1.88,3.84-2.35,5.81s-.25.71-.96,1.83c-.49.76.55,2.89.47,3.27-.17.78-1.33,3.11-2.41,2.75.72,1.09-1.25,2.11-1.92,3.17-.45.71-.64,1.99-.99,2.36s-1.84.71-2.27,1.24c-.67.81-.12,4.76-2.92,3.42l-.03,1.01-4.88,1.13.34.67-3.11-.06-.56-.91c-3.14,1.81-3.99-.07-6.3-1.23-.69-.35-2.8-.95-3.58-1.41-.67-.4-1.54-.89-1.24-1.67l-1.03.34-.71-1.89-3.01-1.25c.49-.44-1.15-2.71-1.3-2.76-.23-.08-.61.36-.93.24-.42-.17-.99-2.4-2.18-1.36-.03-.88.28-1.87-.53-2.46-1.2.95-2.9,1.99-3.71,3.33-.74,1.21-1.14,3.94-2.8,4.42-.13.59.31.24.48.35.83.55-1.69,1.15-1.87,1.27-.47.33-1.04,1.43-1.81,1.72-.64.24-2.3.09-3.14.53l.35,1.4c-1.21.28-2.03-.71-3.05-.93-1.23-.27-3.15,1.27-3.29-.47l-.87,1.05c-1.21-.25-.74-1.22-.89-1.41-.03-.03-.53.3-.81.23-1.11-.27-2.34-1-3.77-.95l.19-1.05c-1.14-.21-1.43-.53-1.61-1.75-2.12,1.26-2.56-2.17-3.25-2.74-.23-.2-.76,0-.94-.1-.05-.03.24-.75.05-1.22-.28-.7-.78-.6-.95-.88-.22-.34.13-.84,0-1.05-.1-.18-3.15-.17-.89-1.57-.48-.35-.81-1.59-1.14-1.84-1.45-1.09-.27-.25-1.04-1.62-.5-.89-2.16-1.13-1-3.06h-1.06s.32-1.26.32-1.26c-1.23-.24-.29-1.71-.38-2.46-.02-.14-.97-1.48-1.03-2.45-.05-.82.6-2.5.17-3.36-.21-.43-.84-.67-1.01-1.05-.46-1.02.44-2.08-1.23-1.76-.15-.58.51-.19.63-.51.31-.79-.46-3.56-.28-4.21.08-.3.46-.23.7-.22l-.64-.51c-.14-2.25,1.43-3.41-1.11-4.59.23-.78,1.69-.81,1.76-.88.05-.05-.32-.6-.33-.91-.01-.91.72-1.01-.4-1.42l.21-2.61-1.6-.17c.09-.96.56-1.8.85-2.71s-.5-1.37.92-1.86l-.63-.23c.61-.89-1.2-1.08-1.14-1.85.77-1.53.71-2.95.91-4.48.17-1.31,1.09-.33-.88-1.93l.68-1.54-1.05-.53.7-1.23h-.7s.7-.7.7-.7l-1.41-.18.71-.53c-1.73.04.41-1.24.61-1.49.08-.1-.59-.77.44-.63-1.69-1.63-1.23-3.17,0-4.92l-1.06-.54.71-.34c-.62-.83-1.48-2.83-.88-3.72.17-.26.86-.24.89-.55.06-.58-.88-3.68-.66-4.19.14-.32.77-.26.92-.74.42-1.36-.62-1.68-.64-1.78-.13-.69.45-1.44.38-2.02-.03-.22-.52-.22-.57-.31-.18-.33.25-.8-.86-1.14,1.33-.57.91-2.66,1.69-3.89l-1.33-1.04,1.05-1.41c-1.59-.54-.78-2.94-.27-4.15.22-.52.81-.5.92-.77.33-.82-.89-4.49-.48-5.11.15-.23.69-.22.82-.52s-.06-2.11.07-2.65h-1.42c-.19-1.06.93-1.72.96-1.83.16-.49.54-3.52.47-3.97-.14-.86-1.56-.85-1.35-2.76.11-.94.93-.89.99-1.19.08-.42-.42-1.06-.02-1.63s1.51.04-.02-1.46c.8-.84.16-2.52.21-2.65.45-1.24,1.66-1.39-.52-2.64,1.16-1.09.79-1.86,1-3.2l1.81-.51-.02-1.25c.47-.28,1.1-.04,1.54-.16.42-.12-.01-1.01.94-.7Z"/>
  <path class="cls-1" d="M266.94,9.11c1.85.95.83.28,2.31.61.45.1,2.05,1.68,2.37,1.89.69.44,1.71.43,2.26,1.26l.18-.7,1.58,1.05.52-.7,1.77,3.16,2.09-.69c.03,1.93,1.62,1.89,2.32,2.44.31.25.41.79.79,1.09,1.05.83,2.69.53,3.93,1.24.65.37,3.08,3.11,3.45,3.77.23.4-.02,1.01.13,1.27s1.2.03,1.57.37c.68.62.14,1.27.46,1.63s.98.37,1.31.66c.68.57.94,1.58,1.18,1.77.14.11.59-.17.67-.08.83.98.64,3.27.83,3.71.03.07.45.1.58.38.2.4,1.07,2.36,1.18,2.45.3.24,1.17-.06,1.54.41.1.13-.34,2.12.34,3.2.28.45,2.37-.11.87,1.91l1.42.54c-.31.64-.39,1.62-.27,2.29.03.15.48.16.49.23.23,1.11.11,3.34,1.88,2.4-.12.45-.34,2.95-.27,3.11.04.1,1.28.84,1.32,1.65l-1.05,1.05,2.11.54c.13.07-.59,2.45-.54,2.87.09.69,2.21,1.47.54,1.88l1.02.57c-.23.83-.7,2.47-.49,3.29.26,1.01,1.37,1.14.17,2.3l1.09.89c-.84,1.25-.21,1.6-.21,2.31,0,3.08.38,5.87.13,8.91-.06.77-.5,1.41-.66,2.15l1.41.19c-.42.41,0,1.6-.07,1.69-.13.16-.64.15-.87.58-.17.32,1.01,2.69.84,4.03-.18,1.41-2.03,3.91-.56,5.13-.51.74-.38,1.71-.51,2.23-.02.07-.46.07-.5.24-.27,1.07,1.53,2.88-.79,3.87l1.07,1.07-.71,1.22.7.16c-.34,1.84-1.68,2.18-2.02,2.75-.21.35-.03.99-.24,1.33-.32.49-1.22.17-1.53.41-.19.15-.67,2.2-1.13,2.58l.71.33c-.02.27-1.27,2.38-1.53,2.56-.3.21-.89.04-.94.09-.17.18.41,1.13.18,1.74-.49,1.29-4.84,3.68-1.94,5.12l-2.11,1.77,1.05.52c-1-.22-.31.66-.67.88-.42.26-1.12.15-1.66.51-.22.15-.85,2.66-2.24,2.13,1.47,1.66,0,2.18-1.41,2.99,1.7.53,0,1.49-1.06,1.23,1,1.43-.54,2.48-1.62,3.48-.58.53-1.2-.07-1.17,1.29-2.77-.33-.69,4.23-3.91,2.99.46,1.34-.66,1.52-1.76,1.06.41,1.16-2.16,2.99-3.17,3.18l.35.69-2.44.03-.03,1.38-2.11-.36c.23,1.3-1.36,1.21-1.07,2.47-.32-.19-1.97.32-2.45.55-.95.45-.77,2.23-2.37,2.18-.67-.02-.96-.65-1.51-.8-.44-.12-.96.07-1.34-.06-.98-.35-1.8-1.09-2.89-1.17l.7-2.11c-1.91.98-3.68-1.06-4.07-2.81-.26-1.2.82-2.65-1.57-2.83.55-.64,1.55-1.47,1.7-2.36.02-.15-.32-2.75-.4-3.05-.13-.5-.81-.79-.86-1.1-.1-.63.97-.94.97-1.1,0-.28-.29-.65-.28-1.01.06-1.75-.05-4.59-.81-6.24-.23-.49-1.38-.55-.68-1.8.27-.49,1.05-.18.35-2.09-.15-.42-1.71-.78-.6-1.62.29-.22,2.23.01.24-.99-.08-.62.5-2.25.35-2.72-.08-.27-.61-.21-.67-.46-.05-.19-.13-4.05.69-3.3v-.34c-1.26.02-.69-1.77-.91-2.76s-1.12-1.94-.85-3c.07-.26.63-.21.7-.46.05-.18.02-3.52,0-3.8-.07-.71-1.09-1.9-.76-2.85l-1.34-.17,1.05-.37c-.22-1.46,1.2-3.63-.7-4.38l.71-1.94h-1.41c.78-1.36,1.48-3.15,0-4.04.29-1.57,1.59-1.53,1.8-1.81s.16-1.62.32-2.06l-.71.18c.15-1.03-.03-1.22-1.06-1.06.37-1.84,3.01-2.32,0-3.38v-1.17s1.05-.02,1.05-.02c-.28-1.25-.11-1.71.35-2.81l-1.4.35.31-1.73-.67-.21c.84-.26.83-.5.71-1.41l.7.18c-.17-1.01-.31-1.77.35-2.65l-1.05-.17v-2.8s1.05-.36,1.05-.36c-1.33.19-.02-.7-.5-1.43l-.9-.51c1.09-.75,1.59-3.06,1.33-4.23-.05-.23-.6-.01-.66-.69-.09-1.01.51-2.42.42-3.54-.05-.71-.77-.35-.77-1.02,0-.97,1.53-2.6,1.45-4.22-.01-.2-.67-.16-.73-.43-.16-.71.36-1.59.08-2.44-.19-.57-.81-.51-.77-.66.05-.22.56-.63.63-1.14.2-1.34-.2-2.62.69-3.81l-1.68-.88.69-1.38-1.05-.03c.42-1.91,1.93-2.64,1.42-4.93h-1.41c.94-1.69,1.78-1.21,1.04-3.5l-1.39-.02c.56-.67.85-.58.96-1.67.21-2.07-1.04-5.45.45-6.59-.94-1.55-1.24-2.75,0-4.25l-.71-.34,1.76-2.48-.7-.7c.94-.78,1.21.53.87-1.24l1.19-.07c1.35-1.83,6.16-1.5,8.08-.51ZM266.77,18.38c-.37-.24-.71-1.42-1.67-1.27-3.84,3.02-.33,3.67-.2,5.82.04.67-.62,1.85-.82,2.67-.25,1.01.28,1.73-.94,2.93l1.41,3.54c-1.86.67-.62,2.97-.2,4.32,1.24.13-.01.47-.04.95-.04.64,1.24,1.04-.45,2.11l1.44,2.12-.74.52.7,1.05-.73.22c.96,1.78-.79,3-.87,4.33-.09,1.55,3.24,4.07.54,6.2l.71.35-.71.35c1.41.95-.11,1.38,0,2.64h1.76c-2.62,2.56-1.53,4.75-1.77,7.92-.07.9-.64,2.23-.64,2.84,0,.09,1.22,1.2,1.27,1.4.02.07.03,1.46-.01,1.52-.4.71-.32,1.25-.27,2.68.02.52.4,1.15.38,1.4-.02.19-1.45.45-.99,1.79.56,1.61.12.87.12,2.59,0,1.54.49,3.08.15,4.63l1.06-.17c-.27,1.27-1.27,3.33-.98,4.64.15.66.61.97.78,1.49.49,1.53-2.87,4.33.19,5.87l-.64,2.09.67.69-.66,1.07,1.35.88c.16.59-.61.19-.71.52-.3,1.02.76.86.72,1.05l-1.06,1.59,1.76.36-1.41.7c-.2,1,.34.62,1.02.72.58,1.82-.32,3.38.04,4.91l-1.06.2c.55,1.38.31,5.1,2.12,4.73-1.06,1.95.47,4.02-.71,5.98l1.02.02c.07,1.02-.24,2.02,1.09,2.1.01.59-.76.17-.87,1-.15,1.04.95,2.64-.88,2.9,1.8,1.88.34,2.13.34,4.2l1.4-.7c.32,1.26.41,2.88,1.76,3.52-.24-1.33,2.87-.64,3.15-1.08l.03-1.38c1.42.23,2.01-1.16,3.52-1.59l-.7-.87c.48.02.94.02,1.39-.2.8-.39,2.98-2.23,3.19-2.88.13-.41-.14-1.1.15-1.52.16-.23,2.47-.93,3.02-1.04l-.71-2.11c2.17.33,1.77-.85,2.35-1.43.31-.31,1.35-.55,1.48-.76.12-.18-.24-.68-.11-.99.22-.53,1.72-1.42,1.92-2.28l-.7-.52.62-.06c-.48-1.51,1.79-1.74,2.03-2.04.68-.85.18-3.73,2.28-3.54-.93-.83.12-1.64-1.05-1.93.41-.75,1.46-.77,1.93-1.24.29-.29.31-.82.53-1.15.17-.25.63-.26.64-.3.08-.22-.46-.89-.27-1.49.14-.44.79-.45.94-.64.11-.14.47-2.97.79-3.55.16-.29,1.71-1.93,2.12-1.32-.29-.86-.15-2.71.18-3.52.31-.76,1.18-1.29,1.21-1.91.02-.43-.35-.95-.35-1.46.01-.78.75-1.38.63-2.16-.07-.44-.53-.86-.52-1,.01-.33.97-.81,1.2-1.46.06-.15.17-2.14.09-2.22-.08-.09-1.54.39-1.2-1.48.12-.68.85-.6.89-.89.13-.96-.76-1.55.68-2.4l-1.06-.74c.27-1.67,1.15-4.11.01-5.42l.7-.71-1.05-.17c.72-1.37,1.09-4.62-.7-5.28l1.05-1.41c-1.92-.76-.84-2.15-.75-3.55.01-.19-.61-.12-.78-.58-.26-.71-.84-3.57-.49-4.08.09-.13.54-.04.58-.09.5-.67-.44-.66-.54-.81-.33-.48-1.19-1.43-1.21-1.53-.2-.8.38-1.85.08-2.77-.23-.72-1.07-3.76-1.19-3.94-.15-.22-.7-.17-1.04-.94s.05-2.12-.3-3.02l-.7.7c-.17-.5.03-1.58-.09-1.94-.05-.16-.44-.14-.49-.27-.28-.69.15-1.22-.83-1.48l.73-1.39c-1.18-.77-1.92-1.43-1.44-2.99-1.08,0-1.48-.33-1.4-1.44l-.88.36-.17-1.77-.7.36-.76-2.41-1.69.28-.4-1.88.73-.92-1.71-.05-.05-2.07c-1.31-.36-.99.75-1.76,1.05-.14-1.93-1.48-2.66-2.3-4.22h-.51s-.18.7-.18.7c-.43-.51-1.47-.74-1.84-1.16-.55-.61-.78-2.61-1.87-.26h-.34c-.01-1.6-2.51-2.49-3.87-3.01-1.18-.45-1.98.42-2.14-1.56l-.61.24c-.11-1.24-1.06-.17-1.44-.31-.1-.04-1.34-.88-1.7-1.11Z"/>
  <path class="cls-1" d="M48.57,8.33l.41,1.36c.83-.71,3.14.09,3.7-.05.2-.05.14-.54.34-.59.24-.06,4.54.07,4.94.15,1.84.37,2.12,1.47,3.46,1.98.95.36,1.67-.52,1.67,1.31l2.09-.35c-.57,1.95,1.16,1.19,1.61,2.12.25.5-.24,1.05-.22,1.53,0,.16,1.61.8,1.17,1.87-.99,2.12-4.38,1.65-3.8,4.34-.8-.45-1.33-.72-1.24-1.76l-.7.7-.05-.62c-1.93.76-1.95-1.37-2.07-1.49-.14-.15-.78.38-1.01.3-.03-.01-.07-.49-.31-.64-1.67-1.05-3.91-1.04-5.55-1.78l-.18,1.06c-.58.15-.15-.61-.58-.71-.83-.19-6.89,0-7.69.21-1.05.28-1.25,1.18-1.69,1.33-1.21.42-4-.38-3.81,1.63-2.09-.56-3.18.59-4.76,1.41l.22,1.07c-.76.02-2.33-.02-2.95.34-.44.26-.13.83-.25,1.05-.03.05-.61-.27-1.13,0-1,.52-2.03,3.11-4.14,2.84l.36,1.05-1.75.39c-.02.26.21.62.15.82-.93,3.03-.55,5.36-1.04,7.77-.22,1.07-1.17,2.55-1.24,3.17-.12,1.04,1.04.3,1.42.53l-.71,1.75.7.35-1.41,1.24.18.54c1.44.38.56.94.64,1.92.15,1.84.29,2.73,1.18,4.37.05.09,1.02,1.1,1.06,1.28.28,1.06-.02,2.28.22,2.89.04.1,1.21,1.25,1.3,1.7l1.73-.17.03,2.08,1.2-.7c1.51,2.88,2.66.7,4.21,1.03.26.06.19.68.44.71.42.04.91-.5,1.65-.02.34.22.39.92.83,1.05.78.23,1.95-.75,2.77.38l.35-1.4c1.69.68.58,2.25,2.8,1.74,1.19-.27,2.01-1.67,2.67.72,1-.48,2.14-.69,3.26-.33.38.12,1.99,2.2,2.54.32,1.36.21.85,1.64.94,1.71.59.51,2.2.46,2.68.64.2.08,1.4.57,1.49.62.51.26.59,1.06.77,1.18.51.35,3.45-1.83,2.41,1.48l1.92-.35c.41,1.71,2.39,1.58,3.54,2.81l.52-.7c.09,1.36.83,1.73,1.55,2.51.2.22.14.78.3.93.26.24,1.57.12,2.26.91.5.57,1.02,2,.47,2.69l1.74.02c.14.58.18,2.4.45,2.72.17.2,1.63.43,1.94.85.09.11.07,2.1.45,2.83.33.62,2.17,1.87,2.46,2.92l-.68.32c0,2.07,2.02,4.39,2.06,4.66.06.38-.5.7-.54,1.02-.17,1.58,1.22,4.96,1.23,6.71l-.67.32c.18.9,1.02.83,1.06.89.11.18-.46.48-.52.87-.34,1.98.31,1.91.5,2.52.46,1.42-1.77,2.81-.33,4.19l-.72.35c1.17,2.02-1.63,1.71-1.01,4.18.15.77,1.28-.21,1.03.73-.17.62-1.92,2.02-2.05,2.89-.16,1.02,1.73,1.02-.53,3.86-1.23,1.55-.86,1.23-1.75,2.83-.51.92-2.99,2.23-.6,3.45-.44,1.1-1.95.69-2.48,1.05s-.18,1.96-1.39,1.25c.45,1.12-.57,1.42-.62,1.59-.16.49.54,2.12-.79,1.22l-.05,1.01-1.01.06.7.7c-2.31-.14-3.71,2.96-5.38,3.62-.85.34-2.51.41-3.62.94-1.72.82-3.6,2.17-4.9,3.54-1.75-1.63-1.7.29-3.35,0l1.05.7-2.81.71-.53-1.41-1.79,1.43-1.38-1.08c-.89,2.07-2.26.94-4.05.7l-.18,1.06c-1.35.26-1.85-1.18-2.97-1.26-.5-.04-.8.51-1.27.54-1.22.09-2.93-.28-3.88-.33-.61-.03-2.74-.1-2.28.68h-.34c.33-.76-1.97-1.24-2.46-1.25-1.47-.06-2.29,1.29-2.17-.43-.34-.49-1.62.3-1.36-.77l-.35.69-1.76.36-.03-1.37c-1.42-.74-.82.16-1.73.66-.12-2.51-3.56-1.99-5.7-2.85-1.31-.52-1.27-.5-2.72-.88-1.23-.32-1.83-1.52-1.96-1.53-.18-.01-.68.62-1.07.59-.58-.05-.68-1.35-1.05.1l-1.76-1.07-.53.71-.17-1c-1,.53-1.16-1.38-.2-1.11v-.7c-2.35.05-2.14-2.72-4.22-2.47l-.02-2.46c-.59.14-.98.47-1.39-.18.91-2.77.5-4.03,3.76-4.62,2.35-.42,5.03.35,3.64,3.04l.64-.28c.55,1.24,2.51,1.5,3.7,2.04.22.1.25.63.29.65.32.12,2.67-1.16,1.71,1.12l1.96-.31c.7,1.51,2.06.18,2.98.44,1.42.4.83,1.6,1.1,1.93.33.41,2.62-.23,2.42,1.1l.35-.7.52.71.18-.7h.52c.5,1.22,2.27.69,2.49.8.43.21.39.88.76.97,1.23.31,3.77.47,4.86.47.64,0,1.69,1.91,2.12.21h.71c.4,1.76,1.96-.23,2.11-.26.96-.2,2.41.57,2.77.56s.68-.5,1.32-.47c.99.03,2.7,1.13,3.59.55.22-.15.23-.69.49-.73.77-.13,1.52.54,2.32.32.66-.18,2.04-1.69,2.18-1.67.43.05,1.02.5,1.58.49.35,0,2.61-.56,2.83-.71,1.36-.94.13-1.72,3.27-2.74.96-.31.42.22,1.64-.56.43-.28,1,.4.48-.67.75-.25.99-.65,1.01-1.44l2.07.66c.43-1.28,1.76-1.04.71-2.81,1.86-.07,1.11-.81,1.44-1.49.54-1.11,2.05-1.7,2.26-2.04.32-.52.15-1.43.41-2.03.22-.5.83-.51.97-.77.16-.28-.17-1.27.56-1.77l-1.06-.71c.87.03,1.19-1.05,1.43-1.75l1.03.34c-.32-.85-.16-1.08.35-1.76h-.7s.63-.4.63-.4c-.2-1.04.14-2.51.46-3.56.09-.31.71-.19.72-.79.01-.64-.39-1.3-.36-1.79.02-.31.92-2.39.88-2.79-.09-.88-2.04-1.68-.56-3.19l-.71-.33c1.62-1.45.75-3.46.71-5.29-.01-.61.43-1.28.38-1.71-.05-.36-2.38-.9-1.44-2.34l-.7.36c.48-1.13-.59-1.46-.63-1.59-.12-.34.31-1.39.26-1.72-.04-.28-3.16-2.46-2.1-4.1l-1.05.35-.36-2.11-.7.36-.05-1.39c-1.81.2-.6-2.02-2.78-1.44.36-.16-.5-2.11-.66-2.32-.45-.59-1.28-.32-1.71-.59-.3-.19-1.11-1.86-1.16-2.37l-1.77.55-2.19-2.24c-1.06.28-1.49,0-1.68-1.12-1.21-.27-.65,1.25-1.4,1.4l-2.3-2.46-.34.66c-1.03.26-2.04-1.37-2.17-1.38-.56-.05-3.24.56-3.83.26-.54-.28-.57-1.07-1.11-1.26-.2-.07-3.29-.48-4.1-.64-1.15-.22-1.67.61-2.52.62-.14,0-2.65-.44-2.78-.48-.65-.23-1.2-1.55-2.73-2.15-1.67-.65-2.49-.69-4.27-1.55-.26-.13-.68.21-.98.08-.79-.33-4.52-4.87-5.03-5.79-1.18-2.13-.92-5.24-3.76-6.36.94-1.2.32-1.58-.2-2.8h-1.22c-.09-.06.87-2.08-.35-1.75v-.34c.1-.07.52.12.63-.17.33-.89.9-3.32.79-4.23-.23-1.78-2.04-3.12.34-4.24-1.46-.34-.33-1.5-.44-2.14-.07-.4-1.44-.15-.76-1.96.25-.67,1.12-1.72,1.41-2.77.34-1.27-.73-2.45,1.57-2.1-.49-1.33.99-2.18,1.19-3.6.1-.71-.39-.92-.33-1.34.31-2.21,1.42-.86,1.95-1.19l.71-1.09-.71-.34c.21-1.27,1.71-.96,2.05-1.33.15-.16,0-.71.14-.87.3-.32,1.82-.18,2.77-1.32,2.26-2.72,1.43-1.59,4.46-3.09.83-.41,1.63-2.82,3.97-2.02-.58-.95,1.08-1.97,1.25-.68l1.57-.38-.36-1.05c.19-.28,4.3-.29,4.52-.44.13-.08.18-.61.43-.76,1.91-1.17,3.67.12,4.68-.26.77-.29.53-2.48,2.65-1.67Z"/>
  <path class="cls-1" d="M207.73,8.39c.22.18.21.65.68.85.76.33,1.82-.48,2.07-.47.56.02,1.3,1.43,1.76-.14,1.1,1.43,4.72.06,5.65.43.2.08.14.65.35.65.42,0,.9-.47,1.37-.56,2.45-.43,6.28-.3,8.77-.14,1.29.08,3.19.64,4.62.69l.54-.72c.06.98.67,1.19,1.56,1.07l.55-.72c.35,1.01,1.17.77.36,2.11h1.06c-1.18-1.54,2.46.02,2.46.53l-1.4.53c-.32.91.51.61.61.76.05.07.14,1.61.09,1.68-.07.1-.83.13-1.15.37-1.82,1.35-1.24.45-2.18.77-.18.06-.14.49-.45.61-.79.31-1.72.15-2.41,1.06l-.5-.15c-.09-1.14-2.86-1.24-2.97-.18l-2.09-.72c-.47,1.36-1.18.43-2.16.44-1.27,0-2.1.89-3.17-.77-.9,2.79-1.24.61-1.94.17-1.16-.73-3.7.35-5.06-.17l-1.1,1.05c-1.59-2.48-4.18.58-5.64-1.76l-.74,1.78c-1.11.18-1.32-.73-1.67-.95-1.71-1.05-1.38.47-1.86.59-1.39.34-1.4-.93-2.11-1.4-2.44-1.61-3.98,2.18-4.37,4.02h.72c.44,3.1-1.56,5.61-.71,8.63h-1.06c.42.65.69,1.9.64,2.66,0,.07-.96,1.02-.97,1.09-.21,1.77.27,4.28.19,5.6-.03.52-.67,1.05-.58,1.72.03.2.56.2.6.3.1.23-.46.52.41.79.24,1.15-.84,1.53-.92,1.68-.09.17-.97,3.56-.97,3.75,0,.55.59,1.05.58,1.98,0,.82-1.05.17-.75,1.22h1.06c.01,1.05-1.37,2.13-.98,3,.11.25.86.01.62.69-1.32,1.18-2.27,3-1.05,4.6l-.7.17c1.19,1.18.11,2.6.01,3.71-.01.18.56.12.61.32.38,1.53-1.5,5.39-1.49,7.55,0,.81.42,1.48.49,2.27l3.18,1.29v-1.76s1.72.05,1.72.05l.58,1.35,1.07-1.05h.68c.51,1.46,2.54,1.42,3.82,1.05.36-.1.29-1.52,2,.02v-1.06s1.59,1.06,1.59,1.06l.34-.7,3.72.7-.35-.69,1.19-.32,1.1,1.36,1.57-1.04c.05,1.82,2.31.42,2.85.84-.1.84,1.43,2.66,1.41,2.82-.11.92-1.5,3.81-2.23,4.33-.59.42-1.33.06-1.78.21-.49.16-.71.74-1.18.88-.15.04-2.89.08-3.04.04-.19-.05-.82-1.4-1.81-1.04l.52.71c-.85-.35-2.26.06-2.91-.07s-1.04-.74-1.49-.83c-1.13-.22-2.73.41-3.84-.5l-1.26,1.75c.1-1.2-.93-.64-1.24-.78-.2-.09-.15-.64-.37-.65-.53-.02-1.25.66-2.04.63-1.32-.06-2.48-1.51-3.75-.95.21,1.32.3,1.99-.71,3,1.05.2.64,2.13,0,2.82,1.01.24.54.98.9,1.57.17.28.73.3.8.41.31.5-.64,2.99-.63,3.3.03.87.75,2.07.58,3.81-.14,1.43-1.2,6.15-1.14,7.11.03.5.56.98.57,1.74,0,.8-.58,1.75-.37,2.65h1.41s-.91,3-.91,3c-.02.78.72.79.89,1.15,1.02,2.2-1.89,6.8,1.78,7.48-.53.63-.73,2.63-.6,3.37.08.43.92.37.98.72.12.69-.78,1.42-.57,1.89.64,1.41,1.17,1.32,2.47,1.39.77,1.05.55,2.37.18,3.53,1.39-.26,1.52,1.2,2.13,1.59.44.28,1.1.13,1.59.54.65.55-.3,3,2.45,1.07.92,2.15,1.67.03,2.46.35.39.16.4,1.02.76,1.08,1.32.21,2.99-1.62,4.35.33l-.35-1.76,1.74.03.21,1.03h5.1s.02-1.03.02-1.03l2.1-.04-.36-.7c1.3-.25,1.41.09,2.27.72l1.78-1,1.05.9c.57.09.97-1.3,2.07-.95.33.1.1.79.73.69.89-.14,2.14-.83,2.15-1.8l2.63.22,1.88-2.27,3.24,1.36c.52.49.33,1.33.56,1.84.32.71.27.67.52,1.34.12.31.72.55.78.87.1.57-.8.85-.88.99-.22.38.02,1-.16,1.24-.22.29-2.86.51-2.05,1.82-1.66-.62-1.67.14-2.3,1.41l-1.05-.7-.38.72c-1.36.33-1.13-.63-1.91-1.07l-.2.72-1.21-.37v1.41s-1.57-1.37-1.57-1.37l-3.91,1.37-.33-.7c-.63,1.62-1.26.81-2.4,1.06-.14.03-.98,1.86-1.86-.03l-1.15.31-.22-.64c-1.18,1.12-3.29.46-4.94.78-.24.05-.14.6-.32.6-1-.02-3.29-.9-4.18-.69-.43.1-.48,1.56-1.61,1.03l-.57-1.01-.33.7c-1.08-1.1-2.87-.53-3.79-.77-.45-.12-.83-.64-1.33-.81s-3.18-1.16-2.11.17c-1.46.74-2.66-1.99-3.31-2.68-.4-.43-2.08-1.73-2.23-1.99-.21-.39.01-1.04-.16-1.25-.15-.18-.94-.02-1.19-.4s-.01-1.07-.24-1.37c-.09-.12-1.79-.4-1.96-1.72-.06-.42.28-.99.22-1.11-.29-.56-2.56-1.24-1.34-3.21l-1.41-.36c1.48-1.63.22-2.71.11-3.75-.07-.65-.03-4.49-.22-4.88-.32-.66-2.44-1.28-.24-2.45l-.36-.89-1.76.35-.35-1.59c1.03-.9,1.87-4.31.35-5.27,1.66-1.49-.17-2.27-.23-2.82-.1-.91,1.85-4.28.24-4.06v-.34c1.61-.1-.03-1.76-.22-2.29-.27-.75.28-3.21.24-3.88-.06-.96-1.7-.41-.92-2.65.24-.69,1.21-1.2.79-2.03-.86-1.72.03-2.76.09-4.84.06-2.42-.75-5.13.36-7.72l-.51-.45-.89.27c-.23-1.03,1.04-1.88,1.07-2,.11-.64-.37-1.76-.01-2.57l-1.76-.18c.96.14.49-1.94.79-2.23s1.22-.18,1.34-.62c.34-1.23-.6-1.21-.66-1.37-.11-.32,1.33-4.05-.41-4.58,1.25-1.02,2.34-2.31,1.43-3.9l-1.42-.33.38-1.2,1.72.32-.53-3.35c.38-3.63,1.97-8.21,1.25-11.91-.02-.1-1.22-.5-.39-1.74.43-.65,1.59-.6,1.09-2.37l-1.41-.17c-.05-1,1.76-2.34,1.76-2.5,0-.3-.32-.69-.33-1.07-.01-.44.31-1,.26-1.14-.02-.06-.64.09-.84-.92-.18-.92.81-1.8-.51-2.12,1.13-.95.78-2.52,1.11-3.48.19-.54.88-.5.96-.62s-.37-.76-.32-1.18c.08-.71,1.38-1.55,1.07-2.65l-1.05.18c.24-1.2,1.27-1.84,1.24-3.19-.03-1.05-1.09-.95-1.23-1.43-.21-.72,1.64-2.82,1.39-4l-1.05-.02v-1.05s1.41,0,1.41,0c-.61-1.2.13-1.85.76-2.73.98.3,2.94.19,3.91-.1.34-.1.28-.77.91-.87.97-.15,1.97.9,3.03.9,1.36,0,3.64-.13,5.06-.26,1.03-.09,2.21-1.1,3.12-.35Z"/>
  <path class="cls-1" d="M337.73,7.83c.1-.04.11-.62.28-.63.8-.05,1.99,1.71,2.45.02.33.38,2.77.87,3.17.88,1.09.03,2.18-1,3.35-.17l.18-1.06c1.31.32,1.27,1.26,2.86,1.38,1.47.11,1.83-.46,2.62-.5.55-.02,4.07.7,4.2.53v-1.06s.88.6.88.6l.71-.6c.5.49.29.97,1.06,1.08,1.41.2,1.22-.63,1.41-.68.26-.08,2.1.59,2.8-.01l.73,1.37.21-.66c1.43.77,2.88-.64,4.05-.77.46-.05.51,1.12,2.09.64.25-.08-.05-1.09,1.22-.27l.18-1.06c.77.11,1.21,1.09,1.89,1.25.76.17,1.64-.86,2.51-.38.4.22,2.94,2.97,2.12,3.7l1.05.02c.48.45-3.12,4.59-4.04,4.77-1.2.23-2.97-1.04-3.96-.82-1.25.27-2.37,2.65-2.58-.08-1.17,1.26-2.47,1.2-3.7,0l-.39.73-1.7-.4-.37.73c-.95-1.31-2.38-.47-3.54-.51-.69-.02-2.04-1.26-2.28.51h-.52c-.34-1.2-1.89-.54-2.99-1.05v1.06c-.99-1.16-5.26-1.69-4.94.35h-.34c.05-1.42-1.62-.63-2.22-1.02-.4-.26-.41-1.15-1.13-1.11-1.19-.04-1.84,1.05-2.88,1.32-1.16.3-2.14-.73-2.76-.81-.75-.1-.92.94-1.07.95-.86.04-2.36-2.43-3.86-.73l-.35-.71c-.82,1.96-1.91.75-3.34,1.06.94,1.93-.03,2.18-.36,4.01l.7.57-.71.18,1,1.76-1.7.88,1.1,1.92-1.09,4.06,1.05-.35c.08.9.08,1.72-.7,2.29l.71.34-.7,1.59,1.4-.18c-1.32,1.3-.44,2.16-.51,3.03-.06.68-.81,1.69-.82,2.32,0,.68.85,1.1.86,1.69,0,.45-.78,1.32-.91,2.15-.09.6.42,2.28.25,2.78-.05.15-1.04.66-.98,1.23h1.41s-.39,2.26-.39,2.26l.74.39c-2.65,1.9-1.1,6.57-1.61,9.37-.16.9-1.42,2.22-.61,3.75.32.6.78.41.81.44.05.08-.78,1.07-.87,1.7-.08.58.25,1.32.15,1.95l1.08.39-.71,2.29c.58.15.16-.6.57-.71,1.59-.41,1.56.67,1.78.71.46.09,1.56-.33,2.23,0l-.35-.69,1.27-.37c.67.73,2.86,1.42,3.67.89.46-.3.02-1.2,1.76-.66.3.09.53.69.87.73.23.03,1.63-.73,2.47-.61s1.33.68,1.76.7c.69.02,2.43-1.15,3.75-.86,1.21.26,1.55,2.35,3.47,1.23-.67,1.44,1.27,2.01.38,3.36-.13.19-2.25,2.19-2.41,2.25-.33.12-4.25,1.08-4.48,1.08-.46,0-.79-.59-1.33-.61-.74-.03-1.9.58-2.72.62l.36,1.05c-2.46,1.01-3.84-1.67-6.35-.7,1.08,1.41-1.99.44-1.94-.36l-.18.71c-.64.15-.13-.73-.53-.71-.48.02-1.39.88-2.05.71-.46-.12-.28-1.28-1.46-1.06l-1.18,2.43,1.01.91c-.4,1-.48,2.25-1.77,1.96-.16.13.92,1.24.92,1.59,0,.92-.8,3.51-.8,4.22.01,1.53.12,3.15.05,4.94-.02.44-.75,1.44-.09,1.87.33.22,1.09-.24.98.4-2.28.33-.88,3.61-1.24,5.31l1.27.54c.27,1.95-.07,3.41-.64,5.27l.97.51c-.32.68-.92.4-1.19,1.49-.19.76.9,1.62.14,2.73l1.4-.35c0,1.05-.67,1.88-1.76,1.76l.17.69.88-.35c.05,1.44.45,3.36.37,4.75-.05.87-.93,3-.63,3.82.26.69,1.15.9.78,2h1.59s-.37,2.59-.37,2.59l.72.4c-1.22.68.25,3.47.88,4.06.8.74,2.24-.01.52,2.46,1.46-.2,2.83.83,4.09,1.03.49.08,1.49-.32,1.73-.21.76.36.73,1.88,1.91,1.32l.03,1.04,2.11-.36-.35-1.4c2.28-.53,1.06,1.88,2.95,1.41l.39-.66.89.31v-1.06s1.41.35,1.41.35v-1.76s2.82.36,2.82.36l.03-1.01c1.57-.64,2.91.27,4.12-.16,1.31-3.75,4.14-1.44,6.78-.94-.61,1.01.13,1.6.19,2.27.04.51-.33,1.15-.21,1.71.07.34,1.95.92.74,1.18-2.92.63-1.39,1.69-2.36,2.62-.84.8-2.7.16-3.77.65l-.23,1.08c-1.77-1.15-4.16-.28-6.06.38-1.05.37-3.23,1.52-4.5,1.85-2.95.75-3.14-.61-5.12-.51-.7.04-.27,1.04-1.72.74-1.56-.32-1.72-2.46-4.07-.35.17-1.17-2.49-3.59-2.48-1.76l-3.01-2.45.18-1.04c-1.67-.04-1.48-1.31-2.09-1.98-.55-.6-1.93-1.66-2.3-2.26-.21-.35.31-.93.18-1.08l-.84.35c-1.48-1.02-.46-1.55-.64-2.56-.17-.92-1.55-1.62-1.64-1.85-.05-.14.6-1.58.2-2.81-.07-.22-.92-.08-.61-1.36.06-.25.55-.2.62-.39.58-1.63-1.14-5.67-1.19-6.7-.02-.33.73-1.51.5-2.11-.55-1.41.01-.67-.08-1.75-.02-.26-.46-.6-.48-1.04-.14-2.35-.2-4.6.62-6.85l-1.39-.39c0-.84.34-1.27,1.06-1.58l-1.41-1.06,1.44-1.09c-.77-1.79.89-4.43-1.08-5.25l-.02-.7c1.73-.74-.01-1.64-.01-1.77,0-.49.98-1.97.7-2.75-.13-.35-1.5-.78-1.41-1.8,1.87-.73,1.03-2.14,1.29-3.54.13-.69.81-2.31.82-2.82,0-.85-1.1-2.23-.33-3.5l-1.05-.37.39-2.97,1.02-.02c.31-.92-.53-.59-.64-.87-.41-1.06,1.14-2.4,1.02-3.15-.06-.37-1.15-.1-1.09-1.4.01-.22.49-2.64.59-3.03.38-1.51,2.41-3.51-.94-4.23l1.78-2.63c-1.6-.41.85-2.64-1.41-2.32l.05-.98,1.34-.42c-.94-1.22-.1-1.71-.13-2.27-.02-.4-.83-1.24-.77-2.14.07-1.05,1.15-1.08,1.25-1.46.06-.22-.35-1.4-.3-2,.07-.91.62-1.68.43-2.65-.16-.83-.84-.77-.85-.97-.04-.8.89-1.03-.34-1.35l1.73-1.76c-.31-.47-.59-.85-.65-1.44-.15-1.43-.03-4.01-.05-5.62,0-.5.11-.99.36-1.43l-.68-.32c1.62-.98.35-2.77.53-4.58.04-.39.64-.79.56-1.38-.05-.33-1.07-.09-1.13-1.44-.03-.72.85-3.27.99-4.23l-.6-.87.7-.35-1.4-.18c.37-.89.97-1.68,1.35-2.56.14-.33.68-1.62.73-1.76.52-1.49,1.6-3.54.38-4.66,1.74-.27,2.49-1.58,4.23-1.42l-.36-.7c.37,0,.73.2,1.11.15,2.49-.31,6.53,1.16,8.31.45Z"/>
  <path class="cls-1" d="M323.03,10.75c.09.66,0,1.22-.7,1.41v-1.41s.7,0,.7,0Z"/>
</svg>