<?xml version="1.0" encoding="UTF-8"?><svg id="Layer_2" xmlns="http://www.w3.org/2000/svg" viewBox="0 0 289.48 107.99"><g id="tataki"><path d="M127.47,22.81c.06.04.74.88.76.93.08.2-.06,1.29-.14,1.4-.07.1-.3.12-.36.21-.25.41-.2.88-.27,1.26-.08.41-.61.14-.26.79-.77-.24-.23.8-1.28.64-.05.25.28.15.39.31.35.48-.48,1.02-.72,1.38-.52.78-.64,1.33-.96,2.1-.17.42-.96.87-1.14,1.14-.32.48-.09,1.42-.95,1.34v.4s.32.24.32.24c-.86.59-1.69.63-1.45,1.93-.96-.31-.8,1.6-1.93,1.77l.48.48c-.61.28-1.18,1.17-1.68,1.62-.24.21-.54-.21-.56.71l-.32-.08.1.34.38.3c-.54.11-.66.47-1.12,0,.34.77-.11.74-.28,1-.03.05.11.22.09.26-.06.08-.33.11-.45.27-1.15,1.53.39,1.49,1.37,2.17.61.43.29.91,1.21.72.44.28-.22.6-.16.72l.72.48.08-.32.18.3.3-.14-.14.9c.44.09.14.31.18.36.06.08.33.1.45.26.43.58,1.17,1.59,1.5,2.2.1.18.69,1.29.7,1.37.03.17-.17.48-.12.54.67-.26.76.09.48.64h.64c-.26.43.29.54.43.91.15.39.27,1.58.41,2.06.09.29.86.3.44.88l.64-.16c0,.45.16.74-.32.88.39.18.44,1.04.53,1.17.07.11.42.14.51.35.06.13-.11.31-.04.44.02.04.25.04.28.16.08.34-.02.7-.16,1.01h.48s-.17,1.17-.17,1.17l.65.36c-.26.6-.51,1.49.32,1.68v.16c-.54-.13-.1,1.47.01,1.81.04.13.31.12.31.22,0,.55-.51.81.44,1.28l-.28.56.32.08-.33.64c.42.13.36.3.33.72l.48-.16c-.02.22.06.49,0,.7-.02.07-.84.29-.03.45l-.13.46.32-.16-.17,1.19c1.41.8-.78,1.24-1.07,1.59-.13.15-.12.61-.45.75-.25-.1-.19-.56-.26-.62-.12-.1-1.27.06-1.11-.83h-.56s-.24-1.28-.24-1.28l-.48.32.12-.46-.29-.1.48-1.21h-.48s.32-1.13.32-1.13l-.64.16.32-1.21-.3-.15c-.14-.65.27-1.72-.02-2.22-.41-.72-.74-1.87-1.11-2.81-.1-.25.03-.94-.25-.96l-.57.13c.22-.74.66-2.02-.33-2.17l.1-1.37-.73-.41c.31-.59-.5-1.04-.78-1.63-.3-.64.24-1.42-.83-1.49.28-.7-.17-1.08-.16-1.76l-.4.32c-.34-.17-.17-.66-.25-.8-.04-.07-1.09.24-.31-.97-1.03.07-.72-.83-.89-1.12-.02-.03-.53-.52-.57-.55-.43-.31-.46.25-.37-.74l-.98-.6-.4.28c-.14-.24-.11-1.01-.19-1.1-.04-.05-1.02-.24-1.25-.43-.3-.24-.19-.65-.49-.71l-.24.48-1.04-.31c-.04.38-.18.81-.42,1.11-.34.43-.72.13-.4.81-.83,0-1.4.08-1.67.95-.09.27-.15,1.4.22,1.38-.82.55-.13,1.82-.18,2.07-.06.3-.74.5-.17,1.32l-.46.32c.76,1.23.6,2.44.33,3.93l.48.08c-.07.53-.68.53-.34,1.03l-.45.27.16,1.19.46.09-.19.7-.45.03c.28.35-.11.95-.1,1.04.01.14.24.26.27.48.01.11-.31,0-.34.31-.11.92.51,1.91-.31,2.59l.32.08.31,1.86-.29.14c.18.38.04.57-.18.88l.48.24-.32.48c.72.39.06,1.55-.3,2.11l-.02.14.33.09-.29.18.14.3c-.39.08-1.03.05-1.35.31-.29.23.22.88-.63.66-.12-.03-.12-.25-.23-.31-.2-.11-1.04-.44-1.08-.49-.27-.34-.45-.95-.62-1.36-.04-.1-.22-.06-.23-.16-.11-.72.51-1.58.66-2.32.11-.55.23-1.01-.38-1.21l.64-.64c-.91-.71-.06-1.13.05-2.04.06-.51-.22-.84-.2-1.19.01-.33.68-.92-.34-.87l.8-.88-.48-.08.32-.73-.32-.15.34-.18c-.18-.74-.29-1.81.31-2.4-.65-.17-.45-1.08-.41-1.69.07-1.29.46-2.64.57-3.95.03-.37-.13-.69,0-1.03h-.48c.09-.49.04-.88.48-1.21l-.32-.32c.47-.31.08-.77.16-1.28.04-.24.31-.43.29-.62-.02-.17-.23-.35-.26-.55-.15-1,.43-.94.46-1.11.03-.13-.12-.88-.18-1.05-.05-.14-.33-.12-.31-.2.03-.13.34-.45.4-.71.04-.2-.1-.43-.04-.69.08-.32.46-.74.43-1.17l-.44-.27c.22-.39,0-.83.11-1.2.07-.24.34-.23.33-.3-.03-.41-.25-1.21-.44-1.62l.61-.48c-.51-.48-.04-.68-.01-.99.01-.2-.17-.85-.1-1.38.05-.33.55-.3-.19-.85.75-.52.28-.59.24-.97-.05-.46.19-.92-.41-1.12.85-.45.03-.97.17-1.43.06-.21.44-.2.48-.37.03-.14-.12-1.19-.18-1.38-.04-.15-.33-.11-.31-.19,0-.04.19-.66.2-.7.04-.06.29-.09.36-.19.16-.24-.09-1.42-.09-1.85,0-1.47-.15-3.48.28-4.61.05-.14-.24-.45.14-.6.16.02.31.12.47.11.88-.04.5.18.65.2.36.04,1.18-.27,1.68,0l-.15.47c1.59.7.52,1,.47,1.25s.15.96.12,1.28c-.04.48-.33,1.09-.29,1.74.02.47.29,1.06.26,1.45-.05.73-1.23,1.24.56.88l-.31.17.13.61-.47.42h.65c.02.45-.66,1.28-.65,1.6,0,.09.25.07.29.17.11.25-.74,1.3-.75,1.78,0,.07.25.06.26.1.03.11-.07.23-.04.33.22.74.34.59-.22,1.4h.64c-.38.58-1.23,1.32,0,1.45l-.64,1.04c.1.16.38.16.45.32.08.19-.52,1.98-.57,2.38-.09.73.41,1.46-.04,2.03.08,0,.16.01.24,0,.92-.13.34-.34.39-.71.01-.1.26-.09.28-.14.02-.05.31-.81.4-.9.17-.16,1.18.03.84-1.16.19-.31.9-.05,1.04-.18.04-.04.22-.74.5-.86l-.48-.08c-.11-.83.6-.68,1.05-.96s.54-.97,1.22-1.07c.42-.75.56-2.34,1.75-1.83l-.16-.8h.49s-.13-.29-.13-.29c.96-.3.37-1.63,1.21-1.99l-.11-.27c1.02-.11.63-1.18,1.6-1.54l-.32-.24.64-.24-.48.08c-.19-.23.96-1.46,1.28-1.45l-.32-.48.42-.24c.19-.39-.27-.44-.26-.49.08-.25.16-.74.18-.78.05-.14.54-.8.79-.59l-.64-.48c.3.04.28-.34.56-.34s.69.2.72.18c.06-.05.38-1.25.81-1.37l-.32-.16c.38.01.27-.47.34-.54.12-.12.59.07.77-.05.06-.04.53-1.01.83-1.18l-.32-.08.48-.4-.32-.4,1.83.17.18-.34c.2-.02.35.15.5.24Z"/><path d="M89.28,24.51l.48-.16c-.04.91.8.47,1,1.09l.28-.12,1.21,2.89.57.16-.47.95c.08,0,.22,0,.26.06.12.18.37,1.14.41,1.2.03.05.27.04.29.14.06.38-.57,1.2.13,1.42l-.14.41h.49s-.32.57-.32.57c.77.35.38.77.16,1.36.4-.28.25.15.64.16l-.3.23c-.03.78.44,1.36.53,2.09s-.03,1.69.13,2.42c.03.14.51-.1.03.71-.08.13-.37.14-.37.24,0,.34.24.72.63.57-.31,1.05-.55,2.82-.05,3.82.2.41.68-.07-.11.84l.63.18c.07.36-.38.7-.4.86-.01.07-.04,1.17-.03,1.26.07.71.95,1.32,1.02,1.71.04.2-.51,1.09-.51,1.38,0,.23.39.67.26,1.04l.29-.14c.49.53.09.77.09,1.18s.02.52,0,.99c-.05.96.5.89.53,1.09.06.33-.21,1.15-.2,1.29.03.38.23,1.31.31,1.81.12.76.63,2.18.67,2.68.03.33-.35,1.58-.24,1.69l.64-.16c-.05.64-.69.96-.48,1.65.03.12.81.44.49.75-.07.07-.54-.16-.48.16l.33.1c-.23.69-.16,1.09.61,1.21.09.54-.39,1.03-.38,1.45,0,.2.47.8.6,1.15.26.71.03.89.05,1.4.03.69.51,1.25.24,1.92h.36c.4.06-.13,1.05-.68.64,0,.29.02.81-.15,1.03-.18.25-.8-.2-.34.73-.55.05-1.39-.12-1.29-.8l-.24.32-.89-.4c-.23-.43-.18-.87-.43-1.33-.1-.19-.37-.2-.37-.29,0-.37,0-.95,0-1.27.01-.23.37-.72.26-1.14-.08-.32-.78-.01-.11-.8l-.28-.11.11-.28c-.6.04-.58-.3-.8-.73l.48-.08c.04-.27-.41-.18-.48-.41-.08-.25.14-.48.32-.64l-.33-.16.33-.95-.48-.25.49-.88-.65-.57s.43-.6.33-1.02c-.03-.11-.28-.1-.29-.13-.07-.17.39-.39-.2-.54l.33-.72c-1.16-.01-.34-1.08-.3-1.68.02-.26-.13-1.86-.23-2.07-.14-.29-.44-.29-.52-.42-.09-.14.16-.58.09-.86-.04-.17-.42-.17-.48-.37-.17-.53,1.26-1.42-.17-1.51-.06-.25.21-.09.31-.28.08-.15.36-1.1.33-1.22l-.64-.26.16-.8c-.45-.34-.82.16-1.01.13-.14-.02-.28-.28-.51-.29-.44-.02-.9.66-1.44-.13l-.63.45-.9-.49-.09.33-.56-.1-.16.58c-.27.03-.52-.47-.59-.49-.56-.09-1.2.09-1.7.12-.39.02-.83-.44-1,.2-.61-.67-1.21-.47-1.94-.25-.09.03-.27-.1-.35-.05-.04.02-.44.72-.45.77-.05.24.3.57.25,1.04-.02.16-.19,1.23-.23,1.38-.07.28-.43.6-.42.88l.33.24c-.16-.01-.31.03-.37.19-.36.86-.34,2.11-.59,3.02l.48.08-.47.82.31.31c-.2.21-.54.8-.57,1.04-.03.22.25.34.22.53-.05.35-.6,1.22-.63,1.64-.04.76.23,2.07.19,2.89-.03.55-.32.85-.34,1.37.95-.36-.11.66-.12.72-.05.15-.06,1.23-.05,1.46.06.89.69.93-.56,1.67.28.4,0,.96-.25,1.35-.22.35-.74.12-.3.89-.56.34-1.09-.1-1.37-.1-.19,0-.41.27-.63.28-.1,0-1.08-1.42-.73-1.78l-.64-.08c.29-.2.15-.65.2-.81.03-.09.25-.07.31-.31.21-.79-.03-2.06.77-2.42l-.32-.16.33-.16c.07-.3-.32-.54-.3-.77.02-.3.58-.73.56-.99,0-.12-.24-.29-.26-.5-.1-1.05.19-1.77.25-2.72.01-.18-.24-.36-.22-.62.02-.29.54-1.11.6-1.48,0-.05-.7-.22-.37-.83.13-.24.34-.23.43-.36.42-.57-.3-.44-.38-.49-.05-.03.26-.86.28-1.01.08-.56-.48-.62.69-.75l-.32-.23.48-1.21h-.64s.32-2.4.32-2.4h.48s-.25-.5-.25-.5c.83-.6.1-.99.16-1.45.04-.28.33-.53.36-.73.07-.44-.34-1.21.21-1.75l-.31-.3c.24-.47.72-1.06.87-1.54.07-.23.12-1-.24-.81v-.16c.69.05.16-1.29.8-1.29l-.64-.64c.6-.13.34-1.18,1.12-1.53l-.48-.48.65-.34c-.25-.97.23-1.63.42-2.42.03-.13-.12-.32-.11-.44,0-.03.43-.46.44-.5.08-.58-.27-1.7-.2-2.03.09-.44.96-.75.61-1.39-.15-.28-.45-.12-.35-.42l.48-1.05.62-.02c-.55-.75.22-1.06.3-1.39.06-.26-.25-.64-.07-.86l.58-.15-.48-.24c.39-.21.16-.75.2-.85.03-.07.43-.32.6-.93.11-.42.03-1.52.15-1.73s.7.12.89-.6c.12-.45-.22-1.14.56-1.27l-.32-.32c.41.06.29-.44.57-.64.31-.22.87-.07,1.12-.33.36-.36.14-1.17,1.27-1.27.37-.03.8.45.9-.34l.48.32v-.48c.53.19,1.01.29.97.97ZM88.38,28.95c-.24-.28-.26-.64-.75-.57-.4.06-1.45,1.14-1.09,1.65l-.32.18.48.32-.96.81v.23c.91.14-.23.79-.3,1.09-.09.37.11.76-.26,1.33-.07.11-.26.16-.4.17-.04.34.56.07.64.16.19.19-.32,1.48-.81,1.39l-.48,2.95.48.16c-.5-.11-.12.42-.36.61-.13.1-.48.04-.6.28.54.47-.12,1.27-.25,1.77-.16.58-.28,1.29-.46,1.9s-.34,1.22-.57,1.8c.83.29.05.34-.06.6-.26.61.05,1.22.05,1.32,0,.13-.45.17-.49.35-.05.24.18.69,0,1.01.19-.06.81.17.88.14.15-.05.15-.51.47-.46l1.62.48.41-.48.08.32.31-.31c.3.18.81,0,.74.47h.16c-.03-.51.67-.11.49-.8.38.44.67.1,1.02.15.12.02.1.32.21.34.31.04.79-.29,1.11-.26.37.03.67.61,1.41.42.23-.06.12-.59.68-.49.16.03-.04.4.24.32.08-.22.14-1.55.09-1.62-.11-.14-1.06-.23-.58-1.16.39-.74.09-.53.19-.84.03-.1.43.01.29-.63-.05-.22-.25-.39-.28-.54-.06-.35.32-.98-.36-1l.32-.48h-.48c.24-.38.09-.95-.04-1.37-.03-.09-.27-.07-.29-.18-.09-.68,1-1.25.05-1.54-.11-.38.36-1.24.25-1.5-.06-.14-.3-.13-.37-.24-.23-.36.01-1.24.24-1.61h-.64c-.09-.51.35-.72.64-1.05-.81-.33-.29-.51-.37-.93-.04-.22-.38-.54-.29-.9l-.47-.09.25-.89c-.03-.32-.44-.33-.53-.57-.08-.19.08-.93-.07-1.16-.08-.13-.58-.14-.62-.19-.08-.11.14-.43.11-.57-.02-.16-.29-.18-.38-.29Z"/><path d="M45.44,26.08c.16.09.44-.02.57.06.08.05.86,1.37,1.03,1.54.42.42,1.13.12.77,1.32h.48s-.11.29-.11.29l.27.11c-.66.89-.16,1.44.05,2.21.06.21-.06.41-.04.51.03.12.46.05.31.65-.03.13-.48.06-.32.5.16.41.62.05.64.08.08.1.15,2.04-.16,2.25h.48s-.32.32-.32.32h.48c-.26.84-.41,1.55-.02,2.4l-.31.17c.6-.17.12,1.07.16,1.12l.64.17-.29.56c.8.42-.03,1.45.01,1.93.02.18.45.31.45.81,0,.3-.32.2-.33.33,0,.06,0,.73,0,.76.03.16.28.14.31.2.11.21.03.3.06.35.05.08.27-.05.27.11s-.23.04-.27.11c-.03.04-.22.95-.2.99.07.23.47.27.55.42.07.11-.09.33-.07.38.06.15.25.1.28.18.05.14-.29,2.31-.24,2.88.02.32.38.77.11,1.22h.49c-.09.24-.24.45-.25.72-.01.38.31,2.47.44,2.85.08.22.3.33.41.52l-.45.49c.35.56.26.9.17,1.52l.48-.16c-.08.26-.16.8-.13,1.05.01.09.25.06.27.16.09.59-.37,1.06-.4,1.29,0,.06.23.84.24,1.13.03.63-.49,1.24.67.88-.11.54.27,1.03.08,1.61-.11.33-.39.32-.39.38.02.2.17,1.7.19,1.79.05.21.36.18.41.25.06.08-.47.76.18.86-.72.68.19,1.35.17,1.77,0,.08-.32.07-.33.18,0,.07.01,1.42.04,1.49.01.04.5.29.6.59.15.45-.67,0-.48.56l.64-.16s-.2.99-.23,1.05c-.22.38-.67.34-.72.41-.02.02.14.21.1.27-.26.38-1.05.91-1.4.36v.32s-.24,0-.24,0c-.19-.62-.81-.46-1.14-.79-.22-.23-.17-.52-.25-.62-.05-.06-1.39-.16.02-.75-.29-.3-.22-.75-.33-1.08-.05-.13-.3-.12-.31-.23-.07-.51.18-1.59.16-2.05-.01-.23-.22-.42-.24-.65-.02-.36.05-.84.08-1.2h-.48s.32-.4.32-.4l-.48-.08c-.07-.26.24-.12.27-.19.06-.12,0-.64.22-.85l-.42-.24.1-.55-.34-.18c.43-.56.54-1-.16-1.29l.32-.08-.3-.17c.19-.38-.01-.73.02-1.09.04-.47.38-.78.39-.9.01-.21-.36-.46-.4-.68-.07-.37.41-.72-.34-.86l.15-.47-.32.16c.13-.55-.27-.97.15-1.54l-.31-.14.31-.89h-.64s.16-1.13.16-1.13l-.16.48c-.38-.21-.6.16-.72-.32-.66.7-.74-.41-1.59-.14-.53.17.17.73-.34.62-.81-.17-.83-.98-1.92-.79-.23.04-.41.28-.62.28-.34,0-.72-.44-.97-.42-.37.03-.57.66-.75-.19l-.56.44c-.84-.6-1.74.08-2.65-.28l-.16.58c-.72-.27-1.49,1.26-1.57,1.79-.07.47.9,1-.04,1.65.53-.07.57.75.42,1.06-.13.27-.52.06-.43.79.04.31.82.66.17,1.44l.33.09-1.06,1.39-.22,3.26h.48s-.29.18-.29.18c.35.51-.5.25-.65.73-.17.54.4,1.17-.35,1.42.79.35-.04.78-.15,1.02-.17.39-.27.95-.33,1.38l.48.33c-.2.47-.43.64-.96.57l.32.8c-1.17.08-.29,1.12-1.53,1.12l.08.81-.79-.17v-.8c-.41.22-.57-.11-.67-.48l-.46.16c-.33-.55.25-1.27.26-1.53,0-.22-.34-.51-.2-1.05s.78-.46-.06-.88l.64-.41-.49-.88c.46-.14.29-.48.45-.84.6-1.37.22-1.1.44-2.22.07-.35.52-.31-.08-.48.51-.35.23-.92.36-1.41.11-.39.56-1.03.59-1.5,0-.07-.28-.06-.31-.17-.17-.58.3-.55.33-.65.07-.33-.17-.81-.15-.84.06-.07.37.11.3-.17l-.48-.24c.52-.32.35-.87.49-1.25.05-.13.45-.12.27-.68-.03-.09-.47-.17-.16-.84.09-.21.28-.11.38-.44.14-.48.05-1.07-.17-1.52l.49-.08-.31-1.19c.84-.2.13-1.2.79-1.86l-.48-.4.29-.02c-.03-.38-.27-.74.18-.85l-.15-.57.63-.18c.19-.34-.29-.77-.24-.96.1-.37.76-1.33.74-1.82,0-.06-.66-.35-.4-1.08.14-.39.41-.32.51-.54.04-.08-.08-.85.02-1.16.26-.83,1.16-1.41,1.29-2.42.04-.34-.26-.47-.23-.69.04-.28.35-.31.38-.35.06-.13-.08-.37-.02-.57.23-.69.82-1.23.21-1.96.46-.03.72-.62.16-.72.05-.34.57-.72.59-.76.1-.22.19-1.14.28-1.34.12-.26.52-.18.58-.8.04-.47-.61-.17-.64-.55.17-.01.38-.11.49-.23.09-.1.71-.89.74-.95.27-.51.29-1.75,1.02-1.88l-.48-.16c.07-.87.77-.88,1.23-1.18.15-.1.23-.56.7-.43.18-.38-.65-.48-.48-.64.32-.32.94-.1,1.21-.31s.3-.66.42-.78c.03-.02.31-.18.51-.31.14-.1.39-.02.43-.05.04-.04-.22-.5.08-.81.27-.25.62.06.94-.14.25-.16.24-.64.27-.66.02-.01.29.19.52.13.16-.04.33-.31.51-.28.26.04.35.54.46.6ZM44.92,30.29c-1.07-.33-.96.68-1.28,1.05-.24.27-.61.28-.77.45-.2.21-.57.98-.76,1.26l-.41-.02.48.64c-.48,0-.52.61-.74.95-.73,1.13-.47,1.16-.9,2.15-.12.29-.72.55-.71,1.32,0,.18.23.35.22.48,0,.14-.44.42-.53.72-.12.41.02,1.2-.17,1.73-.08.22-.65.38-.24,1.1l-.3.07.32.32c-.76.12-.49,1.18-.56,1.53-.16.74-.4,1.19-.67,1.74-.13.26-.05.63-.38.83l.32.16c-.54.35-.27.88-.37,1.24-.12.46-.64.94-.43,1.57h.47c-.25.48-.25.92.31.53l.17-.2c-.07.66.27,0,.72.01.38,0,1.25.77,1.37.63l.08-.48.97.8.08-.48c.42-.16.76.3,1.04.31.3.01,1.13-.32,1.62-.28.39.03.59.27,1.15.24.48-.03.75-.4.79-.41.5-.11,1.08.47,1.66.14.04-.51-.49-.46-.67-.87-.2-.46-.38-1.17.03-1.54l-.48.16.31-1.7-.31-.22c.87-.19.44-.74.4-1.2-.02-.18.09-.38.05-.6-.18-.89-.95-1.78-.29-2.61l-.47-.1c-.34-.84.04-1.76-.06-2.54-.06-.49-.49-.89-.44-1.46l.48-.08-.57-.54.25-.58-.48-.08.32-.16-.32-.48.32-.16-.32-.08c.21-.22.47-1.05.43-1.3-.04-.21-.71-.4-.73-.63,0-.1.79-1.06.45-1.53l-.8.16.29-.17c-.21-.45.22-.75-.31-.88l.33-.87Z"/><path d="M20.17,24.83c.71-.36,1.14-.17,1.88-.06.17.03.4-.12.58-.07.41.11.53.92,1.42.37l-.02-.4c.36-.07.57.32.89.41.25.07,1.41-.06,1.76-.08.33-.02.99.26.72-.48.56.16,1.53,0,2.01.14.38.11.12.35.4.34-.01-.61.88-.21,1.21-.64l.08.32c.65-.34,1.55.37,1.85-.48.56.55,1.29.57,1.94.16l.16.33c.66-.56,1.36.25,1.6.25.09,0,.41-.32.72-.1l-.32.64c.56.05.86.21,1.08.73-.2.31-.4.58-.76.4l.28.56c-.25.4-.46.6-.93.4l.12.29-.29.12.17.55-.57.11-.47-.59c-.32.74-.62-.21-1.2,0l.08.48c-.38.03-.79-.45-.85-.47-.31-.1-1.89-.46-1.87-.03l-.57-.15-.25.64c-.6-.36-1.11-.29-1.77-.12-.08.02-.06.25-.18.28-.39.09-1-.58-.87.32-.53.14-1.33-.57-1.52-.58-.22-.01-.8.43-1.12.44l-.17-.33-.41.48-.32-.32v.48c-.8.03-.96-.76-1.93-.64l.16.32h-.47c.27.77-.35.99-.35,1.05,0,.19.22.41.25.64.08.8-.02,1.45.38,2.25l-.31.17c-.04.64.65.53.66.63l-.97.8.64.08c-.44.85-.75,1.25-.48,2.25l.32-.16c.27.57-.15.72-.32,1.2l.81.32c-.51.13-.24.86-.8.56l.33.55c-.1.39-.3.73-.33,1.14-.08.98.23,2.06-.32,2.89.73.1.04,1.47.21,1.77.12.22.43.19.43.31,0,.4-.9,1.16-.15,1.29v.32s-.49.24-.49.24l.48.16c-.1.42-.1.75-.64.8v.24c.68.29.37.45.48,1.04h-.48s.04.46.04.46l.28.18c-.26-.2-.46.74-.44.86.04.35.49.53.56.63.03.05-.09.17-.05.25.02.04.21.04.23.12.08.46-.1.85-.6.89l.45.56-.47.8.48.32c-.72.72-.04,1.22-.14,1.75-.03.15-.52.01-.33.42h.48c-.17.54.32,1.21-.48,1.29.5.51.19.64,0,1.2l.33.16c-.67.16-.18.75-.21,1.16-.01.22-.22.36-.23.47-.01.35.18.69-.03,1.09l.62.25c-.09.45-.33.81-.41,1.29-.15.87-.1,3.29.14,4.09.03.08.22.08.25.21.31,1.17-.28,1.12-.31,1.27-.12.7.43.84.45.94.08.28-.16.82-.45.96l.33.17c.09.4-.27.64-.27.79-.02.32.69.74-.54.88l.16.31c-.51-.17-.9.78-.96.81-.11.05-.24-.26-.4-.27-.14,0-.31.22-.48.21-1.27-.06-.79-.77-.95-1.54-.11-.51-.56-.67-.56-.71.05-.52.47-1.43.48-1.95,0-.26-.3-.18-.39-.57-.21-.95.32-2.45-.28-2.96.59-.88,0-1.38-.1-2.21-.08-.7.46-1.28.37-1.96-.06-.5-1-1.09.05-1.6-.17-.26-.43-.71-.46-1.01-.05-.5.71-.82-.02-1.1-.07-.68.36-.99.43-1.6.06-.55-.23-1.44.21-1.91-.88-.38-.14-.78-.16-1.26,0-.26-.4-1.18-.3-1.46.04-.12,1.17-.94-.03-.89.18-.72.95-1.78,0-2.16.45-.36.36-1.06.31-1.6s-.59-.62.17-1.13c-.39-.02-.49-1.01-.46-1.29,0-.05.76-.31-.02-.62l.47-1.14c-.75-.22.1-1.22.14-1.47.02-.14-.35-.54-.31-1.09.04-.49.58-1.35.59-1.61.02-.64-.41-1.88-.09-2.68.05-.13.31-.13.3-.19,0-.13-.25-.92-.32-1.09-.05-.12-.32-.12-.32-.21,0-.27.46-.88.41-1.44-.05-.63-.54-1.04-.09-1.91-.07-.2-.38-.21-.43-.28-.31-.46.83-1.2.66-1.91-.08-.34-.72-.59-.54-1.28-.49.52-.71-.06-1.38-.14-1.15-.14-2.05.45-2.9.58-.39.06-.97-.35-1.42.2-.31-.96-1.82-.16-2.54-.2s-.76-.86-1.15.04c-.41-.21-.37-.73-.57-1-.33-.48-1.29-.91-.76-1.69.11-.16,1.21-.47,1.25-.52.05-.07-.5-1.41.73-.48l.15-.32c.9.81,1.08.05,1.62,0,.51-.05,1.48.63,1.91,0l1.13.49c.33-.14.2-.76.25-.8.06-.06,1.57.15,1.69.2.1.04.41.64.77.58.15-.03.34-.3.58-.37.59-.18,1.37.48,1.7-.57.36.2.62.34.57.8Z"/><path d="M57.41,24.4s.03.21.17.25c.07.03.73.16.77.15.13,0,.11-.38.3-.42.2-.04,1.16.17,1.3.44l.18-.32h.54s.09.48.09.48c.43-.11.93-.1,1.35-.25.62-.22.3-.82,1.12-.29.13.08.13.34.28.38.33.08,1.35-.39,1.75,0l.22-.23-.06-.4.58.22.07.58h.24s.02-.29.02-.29l.46.13v-.48c.61.19,1.41.1,2,.18.28.04.75.41,1.11.29.12-.04.12-.24.24-.29.47-.2,1.36.33,2.17.14.06-.01.29-.5.69-.43l.47.6.32-.33c.87.68,1.56.03,2.41.34l.16-.33,1.14.81.71-.26c.7.83-.57.63.57,1.11.08.03.23-.07.23-.06.1.2-.27.78.12,1.04-.82.78-1.85,1.36-3,1.45-.24.02-.34-.24-.57-.26-.04,0-.15.56-.64.33l.08.32-.32-.32-.24.33c-.45-.08-.76-.32-.72-.81l-.39.31c-.29-.42-2-.77-2.31-.59-.05.03-.02.31-.11.28l-.64-.33-.49.51-1.26-.32-.52.48-.95-.34-.16.33c-.23-.23-.42-.42-.77-.43-.67-.02-.5.32-.69.57-.1.14-.35.16-.39.29-.11.42-.06,1.72.65,1.49l-.57.72.41,1.45-.32.15c.19.32.18.73.64.73l-.32.16v.32s.32.08.32.08l-.33.18c.36.68-.41,1.43-.43,1.58,0,.06.25.32.23.57-.03.48-.45.96-.12,1.6l.48.08c-.77.64-.2,3-.32,3.18-.07.1-.3.11-.32.23-.13.64.56,1.05-.28,1.4.24.3.08,1.11.16,1.28.09.21.39.19.44.36.12.4-.53,2.52-.58,3.16-.04.5.81,1.15-.22,1.08.08.56.21,1.12.24,1.69.04.76-.15,1.31-.3,1.99-.08.36-.38,2.17-.11,2.35l.65.07c-.14.48-.35.58-.81.72l.31.09-.14.45.43.24c-.4.64.34,1,0,1.51l-.44.03c.54.63-.14,1.32-.16,2.09l.48.08c-.03.67-.91.94-.16,1.12l-.49.97c.32-.12.34,1.37.31,1.45-.08.18-.45.05-.48.64,0,.17.14,1.25.19,1.41s.37.09.38.68c.02.95-.53,1.05-.54,1.12-.02.7.64.87.63,1.13l-.49,1.13c.87.25-.71,1.71.64,1.69.13.46-.82,1.19-.6,1.42.08.08.34-.08.28.19l-.48.24.32.4c-.6.34-1.05.57-1.77.32v.64c-.9-.22-.31-1.11-1.29-.64-.3-.45,0-1.66-.48-1.61.55-.53-.06-.6-.16-1.21-.12-.76.51-1.53-.33-1.36.39-.8-.3-.69,0-1.49.27-.74.28-.95.34-1.95.02-.24.22-.44.24-.65.04-.55-.41-1.24-.08-1.91l-.33-.18.48-.8-.64.08c.14-.37.04-.79.17-1.16.06-.17.42-.18.39-.69-.01-.18-.41-.69-.54-.8-.08-.39.38-.63.44-.84.08-.32-.29-.49-.24-.7.06-.26.42-.46.52-.74.16-.45.11-1.35-.59-1.18l.28-.18c-.3-.55.56-1.34.61-1.83,0-.06-.24-.47-.23-.8.02-.7.29-1.47.12-2.22l-.46-.18c.07-.4.13-1.01.64-1.04l-.32-.16.32-.56-.45-.32c-.07-.48.52-.7.59-.99s-.21-.79.19-1.25l-.48-.08c-.02-.45.07-.71.48-.88l-.49-.16c-.12-.62.48-1.02.32-1.74-.03-.12-.26-.09-.28-.19-.11-.55-.18-1.45.44-1.61-.91-.57-.11-1.04-.06-1.44.04-.36-.34-.72-.12-1.3.12-.33.37-.13.35-.38-.93-.15.15-1.21-.32-1.93l-.32.08.64-1.2h-.64s.64-3.85.64-3.85l-.8.08c-.03-.39.45-.78.47-.83.05-.21-.28-.71.33-.7l-.48-.4.64-1.28c-.74-.39-.42-.45-.5-.79-.03-.12-.25-.08-.3-.23s.04-.47,0-.52c-.08-.09-2.29.04-1.95.79-.47-.06-.65-.05-.63-.63-.37.42-.75-.05-.88.48-.12-.1-.9-.42-.96-.41-.5.06-.95.77-1.45-.07l-.18.33-1.97-.19c.03-.52-.65-.73-.74-1.1-.08-.32.29-.53.23-.63-.02-.03-.48-.05-.43-.42l.44-.48-.33-.17.08-.57c.86-.27,1.05-.71,2.05-.58.15.02.32.24.54.27.61.09,1.86-.37,2.43-.11Z"/><path d="M137.18,24.19l.17.64.24-.64c.81.17,1.34.36,1.93.96l.08,2.24h.64s-.32.48-.32.48l.48-.16c.18.78-1.22,1.65-.32,2.17l-.33.64.33.16c-.51.39-.05.65-.07.9-.04.34-.41.62-.42.87,0,.06.63.29.33,1.04l.64-.08-.81,1.6c.47.1.53.78,0,.73l.29.19c-.17.4.16.7.15.99,0,.38-.38.4-.41.51-.08.29-.05,2.43.29,2.41-.8,1,.31,1.06.32,1.13.08.52-.67,1.48-.32,2.16l.32-.16-.46,2.96.44.32c.01.5-.48.82-.47.96,0,.55.48,1.97.46,2.07-.08.77-.38,1.9-.1,2.76.04.11.32.03.29.15l-.48.81.34.31c0,.57-.49.99-.51,1.46,0,.13.74.7.18,1.36l.64.08c-.57.38-.75,1.73-.61,2.42.03.14.34,0,.29.15-.16.18-.43.43-.45.67s.54,1.76.55,1.9c.02.32-.85,1.08.06,1.44l-.48.65.64.25-.16.79-.48-.16c-.22.25,1.27,1.44-.16,1.45-.05.4.47.87.49,1.03,0,.06,0,.9-.03.95-.14.4-.85,0-.06.91.2.23.58-.03.27.62l.29.1-.48.8-.33-.08c.42.78,0,1.41-.16,2.25l.64.32-1.12.49.12.56c-.85.77-2.43-.74-2.84-1.48-.28-.52.22-.68.16-1.08-.02-.15-.42-.14-.48-.36-.1-.36.47-1.33-.18-1.43.68-.24.34-.91.38-1.42.04-.42.36-.53.1-1.27-.12-.33-.24.25-.18-.71.01-.18-.11-.39-.09-.47.01-.08,1.14-.7-.21-.87.24-.45.1-1.31.19-1.69.02-.1.29-.07.29-.17.01-.33-.34-.84,0-1.35h-.8s.64-1.37.64-1.37l-.3-.15.45-2.65c-1.18-.12-.25-.79.02-1.38l-.48-.08c.16-.56.67-.81.16-1.28l.33-.1c.1-.54-.43-.87-.46-.95-.02-.05-.05-1.05-.03-1.1.05-.18.41-.16.46-.35.01-.05-.12-.99-.14-1.09-.05-.19-.6.03,0-.68l-.29-.15c-.09-.59.23-1.12.28-1.59.05-.61-.47-1.14.02-1.47l-.32-.16.29-.15.03-2.08-.33-.17.32-.49-.32-.31c.44-.47.72-1.02,0-1.29l.33-.64-.48-.25c-.07-.27.27-.07.29-.23.02-.14-.08-.53-.04-.81.08-.6.52-1.17-.25-1.44.65-.45.25-.98.49-1.6l-.33-.17.32-.73h-.48s.31-1.22.31-1.22l-.31-.31.33-.56-.29-.02.14-.53c-.78-.28.12-.93.14-1,.2-.81-.1-1.61-.08-2.22,0-.24.27-.67.24-.71-.04-.06-.34-.03-.42-.25-.06-.18.14-1.57.22-1.86.22-.82.15-.75.22-1.68.02-.35.29-.93.26-1.13-.04-.33-.58-.26-.59-.55l.96-.32Z"/></g></svg>