<?xml version="1.0" encoding="UTF-8"?><svg id="Layer_2" xmlns="http://www.w3.org/2000/svg" viewBox="0 0 289.48 107.99"><g id="chicken_teriyaki"><path d="M115.6,27.91c.21.32.15.29.29.63.07.17.39.12.27.91-.04.27-.23.18-.31.35-.09.21.12.46-.33.57l.31.54-.46.23.46.46c-.09.12-.2.24-.23.39-.13.66-.47,2.03-.5,2.57-.02.45.45.69-.04,1.13l.31.08c-.42.4-.28,1.14-.37,1.68-.05.31-.4.9-.4.95.02.17.52.11.46.46-.07.43-.43.33-.47.39-.05.08.25.25.28.42.04.23-.04.87-.04,1.2.02.93-.51,2.3-.38,3.08.05.28.28.42.29.75,0,.36-.32.85-.31,1.26,0,.38.38.79.28,1.34-.06.33-.34.65-.36.81-.04.42.56.87.55,1.23-.01.3-.63.9,0,1.08-.49.37-.27,1-.32,1.54l.48.09c-.26.29-.21.69-.32.96-.09.22-.67.19.3.8,0,.25-.39.83-.39.94,0,.24.51.7-.06,1.24l.28.14c-.35.63.18,1.44.19,1.86s-.33.63-.32,1.01c1.2,0,0,.82,0,.88-.03.12.1.35.07.53-.07.46-.44,1.04.09,1.14-.52.64-.8,1.17-.31,1.92-.46.26-1.34.24-1.24.93-.53.13-.84-.3-1.28-.5-.21-.09-.47.02-.57-.05-.41-.25-.34-.95-.53-1.16-.13-.13-.35.01-.37-.01-.24-.29-.62-2.35-.84-2.82-.16-.35-.82-.17-.11-1.02h-.47c.43-.61-.47-1.11-.47-1.18-.03-.56.14-1.67-.69-1.74-.1-.12-.09-.95-.13-1.06-.01-.04-.2-.4-.3-.68-.36-.97-1.37-2.91-1.45-3.78-.02-.22.21-.69.1-.82s-1.35-.35-.6-1.09c-.69-.07-.28-.66-.54-1.24-.13-.29-.67-.79-.67-.85,0-.09.27-.25.28-.47,0-.31-.57-.72-.6-.95-.03-.21.31-.35.27-.71-.07-.55-.61-1.82-.79-2.47-.08-.28-.06-.6-.11-.89-.27.01-.33-.11-.27.2.04.19.2,1.29.2,1.36-.03.4-.52,1.22-.4,1.74.03.12.32.11.31.17-.03.35-.59.64-.3,1.2.08.15.31.08.31.34,0,.43-.12,1.03-.63.86,0,.39.45.43.46.46.06.1-.25.23-.26.38-.01.13.21.3.19.56-.06.73-.81,1.92.07,2.37l-.46.78.32.16-.32.76.31.17v.3c-.69.78-.14,2.18-.19,3.23-.01.35-.23.67-.27,1.09-.1,1.11.52,2.76.45,3.7,0,.13-.55,1.21-.61,1.25-.2.13-.49.01-.67.08-.14.05-.11.24-.19.27-.16.05-.74-.18-1,.03-.24-.49-.08-1.07-.23-1.55-.12-.36-.63-.76-.69-1.31-.09-.91,1.02-2.4-.01-2.92l.6-1.92-.45-.25c.76-.47.17-.9.09-1.46-.17-1.35.2-1.91.32-3.04.1-.93-1.13-2.68.2-2.91l-.62-.61c.08-.44.61-.74.61-.79,0-.15-.15-.36-.14-.6.01-.63.29-1.44-.18-1.85l.48-2.19-.31-.28c.53-.62.29-.83.36-1.38.03-.29.2-.56.22-.83.04-.46-.22-1.02.19-1.51l-.46-.08.15-1.3.47-.09-.31-.23c.49-.85.18-1.92.15-2.78-.01-.52.79-2.38,1.36-2.51,1.09-.25,1.56,2.02,1.94,2.7.07.13.46.27.63.68.38.9.12,1.74.24,2.35.02.12.28.1.31.21.26,1.13.28,2.4.49,3.65.1.57.95,1.12.28,1.81h.47c-.24.86.31,1.76.53,2.61.28,1.07.49,2.1.82,3.18.07.22-.04.76.04,1.04.07.21,1.47,1.26.92,2.17.84.25-.12,1.41.93,1.19l.14.91-.29.17c.16.01.37-.08.48.1s.3,1.61.44,1.99.58.82.61.95c.07.28-.65,1.15.24,1.43-.14.61.29,1.14.7,1.55.17-.42-.22-.79-.25-1.03-.05-.4.15-.89-.02-1.37-.08-.23-.33-.24-.33-.29.03-.53,1.03-.84,0-1.18l.45-1.14-.46-.08.46-1-.46-.08.31-1.69h-.46c0-.43.59-.69.46-1-.09-.22-.64-.12-.46-.75.03-.11.27-.09.3-.21.19-.74.23-1.49.1-2.25-.05-.33-.47-.37.06-.88-.51.06-.33-.51-.17-.86l-.3-.16c.11-.58.46-1.55.31-2.12-.22-.87-.09-.8-.04-1.85.02-.37-.13-.88-.07-1.26.09-.62.69-.96.12-1.61.6-.06.59-.86.59-1.34,0-.57.13-.88-.44-.9.13-.49.14-.91.61-1.24-.47-.02-.5-1.6-.33-1.83.13-.17.65.05.56-.64-.12-.89.14-.89.17-1.62.04-.81-.22-.71.15-1.59.07-.18.34-.95.41-1,.11-.09.49-.05.7-.14s.23-.48.57-.46c.51.03.57.49.77.8Z"/><path d="M176.09,27.97c-.13-.39,1.11-.47.93,0l.22-.29c.35.16.72.15,1.08.31.8.36,1.12,1.03,1.2,1.81l.88.21.33.9.46-.31.15.68-.46.4c.13,0,.29-.02.41.06.64.41.11,1.79.98,1.64.06.26-.21.08-.28.22-.01.03,0,.5.04.55h.39c.06.09-.2.6-.04.88.34.58.65.14.49,1.35-.06.45-.46,1.32-.46,1.4-.01.22.27.54.28.79,0,.07-.32,1.36-.35,1.44-.12.29-.79.64-.92.93-.11.25-.02.56-.12.73-.11.19-.97.49-1.01.53-.09.11-.02.41-.12.57-.23.38-.79.44-.23.86-.61.49-1.42.27-1.7,1.16l.39.16.23-.31c-.01.11.01.24.11.31.35.25,1.65,1.33,1.86,1.59.08.09-.02.32.13.43.25.18.64-.02.66,0,.05.04.51,1.04.32,1.22h.54c.31.56,0,1.43.2,1.94.17.45.89,1.1.92,1.87,0,.26-.23.45-.22.59,0,.17.38.4.36.62,0,.16-.35.26-.26.54h.62c.06.26-.2.1-.28.18-.04.05-.09,1.11-.02,1.24.08.15.34.09.3.19-.06.16-.42.58-.39.77.04.28.18,1.13.24,1.37.03.12.33.09.31.17-.03.18-.48.63-.47.92,0,.09.87,1,0,1.42.19.41-.41,1.83-.81,1.95-.2.06-.42-.08-.54,0-.06.03-.06.25-.12.27-.57.19-.27-.35-.48-.48-.14-.09-.44.02-.5-.03s-.86-1.13-.88-1.2c-.11-.35.13-1.09.09-1.62-.03-.31-.24-.49-.26-.76-.03-.35.23-.73.24-.94,0-.08-.25-.05-.28-.14-.06-.18.15-.77.44-.77-.24-.21-.47-.35-.32-.68l-.46-.09c-.15-.73.29-.69.31-.8.08-.33-.04-.78,0-1.13l-.46.15c.06-.54.16-1.92-.46-2.01,1.16-1.47-.4-1.24-.62-1.55-.04-.05.28-.87-.17-1.21-.54.3-1.31-.89-1.96-1.06-.45-.12-1.45.11-1.96.04-.47-.06-.98-.4-1.41-.4-.29,0-.2.31-.32.33-.41.06-.89-.37-1.29.23l.62.23c-.11.2-.04.51-.16.67-.18.25-.5.18-.46.4.95.13,0,1.19,0,1.31,0,.35-.01,1.09.32,1.08l-.31,1.62.47.08c-.64.52-.21,1.11-.62,1.62h.45s.02.54.02.54l-.47.16c-.04.47.22,1,.27,1.4s-.43.58.36.52c.07.04-.29,1.28-.29,1.47,0,.38.34.95.36,1.45.07,1.5-.11,2.95-.66,4.21-.04.1.14.25.09.4s-.63.52-.82.2l-.07.45h-.62s.15-.46.15-.46l-.62.15c.08-.83-.3-.97-.92-1.31.71-.81-.43-1.18.47-2.01.05-.28-.32-.16-.4-.61s.2-1.08.19-1.53c-.01-.62-.33-1.43-.27-2.18.03-.31.28-.7.28-.77-.01-.15-.33-.26-.38-.48-.15-.63.27-1.67.26-1.99,0-.2-.23-.35-.24-.5-.05-.5-.12-1.05.25-1.43-.44.04-.16-.18-.21-.28-.02-.04-.26-.04-.25-.1.01-.12.26-.4.27-.65s-.22-.44-.24-.63c-.11-.91.48-1.57.45-2.28-.03-.58-.44-.46-.49-.65-.02-.09.12-.85.17-1,.03-.12.27-.05.31-.35.02-.19-.07-1.06-.13-1.26-.07-.22-.29-.22-.31-.29-.06-.21.23-1.24.59-1.23-.63-.13,0-.77-.62-.92.23-.28.53-.57.61-.94.06-.29.02-1.75,0-2.14-.01-.19-.21-.34-.22-.47-.03-.48.41-1.36-.23-1.54.39-.23.45-.22.44-.67l-.61-.27.48-1.06-.31-.08.31-.39-.29-.15c.22-.64-.14-1.39-.02-2.01.07-.35.45-.48.46-.77,0-.36-.96-1.56,0-1.78-.61-.58.11-.71.14-.87.04-.19-.17-.49.09-.84.1-.14.39.1.45-.29l1.16.3c-.21-.83.84-.31,1.02-.61l.07-.63.92.31-.15-.77h.76s.16.46.16.46l.09-.32c.78.47.73-.35,1.06-.3l1.32.62ZM175.27,30.8c-.56-.42-1.6.31-2.27-.04l-.15.55c-.76-.16-.32.06-.56.36-.13.16-.34.2-.45.34-.13.17-.43,2.13-.36,2.38.03.1.25.07.27.17.14.55-.22.49-.27.6-.15.33.25.42.26.49.19.94-.31.99-.32,1.2,0,.3.13.57.17.86l.46-.16c.15.15.06,1.52-.46,1.39l.62.31c-.65,1.09-.14,2.2-.45,3.32l.28.14c-.16.38-.34.79.15.93l-.14.39c.41-.23.92-.03,1.24-.09.3-.06.43-.44.57-.52.37-.21,1.18-.29,1.55-.5.09-.05.15-.35.35-.5.67-.47.79-.27,1.17-.86.15-.23.42-.24.53-.41.13-.2.08-.5.3-.74.21-.22.9-.35.92-.39.05-.08-.16-.33-.13-.44.01-.03.53-.31.54-.36.03-.1-.14-.29-.04-.43.08-.11.4-.11.41-.24,0-.23-.28-.5-.24-.86.05-.45.67-1.16.51-1.6-.03-.09-.26-.07-.36-.38-.05-.15-.16-.7-.19-.89s.12-.45.1-.49c-.03-.04-.28-.06-.37-.17-.35-.39-.14-.47-.84-.48v-.51s.3-.25.3-.25c-.75.08-1.72-2.09-2.38-2.02l-.32.47c-.22-.11-.3-.47-.43-.57Z"/><path d="M240.45,28.2s.08.15.2.22c.09.06.29,0,.32.02.06.06-.4,1.39.47,1.31.1.48-.23.73-.25.93-.03.35.41,1.25.09,1.77l.47.08c.18.53-.29.55-.31.65-.16.66.35.98.33,1.52,0,.14-.71.68-.01.93l-.17.45.32.09-.31.23.59.77c-.17.15-.67,1.08-.69,1.24-.02.17.06,3.2.09,3.37.03.12.29.09.31.21.14.63-.52,1.73.3,1.98-.04.44-.6.37-.62.47-.09.47.72,1.77,0,2,.7.77.02,1.92.31,2.86.77.06-.34-.81.62-.62l-.46-.15c-.07-.25.21-.11.26-.18s-.07-.33.03-.49c.13-.2.46-.18.65-.34.38-.32.59-1.46.88-1.89.4-.59,1.13-.9.66-1.89l.92-.16c.15-.91-.18-2.22.93-2.55-.52-.66,0-.69.18-1.2.23-.61,1.36-3.33,1.67-3.73.22-.29.68-.48.78-.66.21-.4-.09-.95.31-1.46.22-.28.64-.31.77-.43.18-.15-.59-.13-.31-.46.02-.02.39-.05.57-.2.35-.3.21-.73.34-.96.31-.53,1.22-.71,1.26-1.46l1.92.29c.06.1-.07,1.47-.12,1.61-.11.31-.92.44-.43,1.33l-.77.4c.46.6.08.58-.15,1.1-.08.2-.04.47-.15.6-.21.24-.77.35-.62.9.02.07.46.16.2.57-.22.34-.46.1-.67.38.16.21.35.49.31.76-.01.09-.23.1-.25.13-.11.26-.2.8-.42,1-.15.15-.48.13-.65.34-.11.14-.08,1.23-.23,1.47s-.9.63-.78.69l.3.02-.12.43.28.02c-.46.34-.28.83-.36,1.05-.04.12-.97.59-1,.69-.1.33.37.67-.34.74l.31.22-.46,1.01h.3s-.28.17-.28.17l.13.29-.86.15c.15.88-.24.62-.55,1-.13.16.01.37-.06.54-.09.2-.41.28-.39.55.57.31.72,1.17,1.4,1.4.22.07.28-.28.46-.16.33.22.16.65.18.67.19.21,1.81.91,2.2,1.09-.08.73,1.24.59,1.41.77.19.21.16.64.27.75.33.3,1.06.66,1.35.89.47.38.2,1.24,1.09,1-.24.43.26.66.31,1.08l.77-.46c.09.54.08,1.41.5,1.82.14.14.47.11.55.22.11.15.06.68.19.93.09.17.35.18.48.48.16.38.08.8.21,1.18h.7s-.14.82-.14.82c.55.55.99.02.92,1.19l.46-.31c-.03.26.06.59,0,.83-.04.18-.38,0-.31.25h.46s0,.15,0,.15c-.48-.11-.11.4-.34.58-.13.1-.38.02-.58.28-.18.24.12.64-.24.83-.43.15-.36-.28-.48-.31-.12-.03-.35.13-.59.08-.06-.01-1.04-.49-1.08-.54-.08-.08-.08-.32-.19-.46-.61-.75-.49-.98-.91-1.86-.21-.43-.75-.46-1-.74-.31-.33-.16-.69-.24-.82-.06-.11-.31-.13-.38-.26-.33-.61-.06-1.1-1.07-1.13l.31-.77-.46.15-.1-.47c-1.25.19-.91-.71-1.34-1.19-.03-.03-.43-.14-.66-.4-.18-.21-.23-.57-.44-.73-.17-.13-.4.04-.56-.05-.12-.07-.05-1.08-.99-.39-.35-.25-.22-.7-.24-1.08l-.77.31c.1-.23-.8-1.5-.89-1.55-.35-.2-.68.02-.87,0-.12-.02-.08-.26-.28-.35-.45-.19-1.4-.2-1.91-.18-.38.01-.9.54-1-.23-.15,0-.41.67-.43.74-.08.44-.06,1.2.56,1.13l.03.67-.47.08.31.77-.31.15.32.08-.48,1.7.47.53c-.88.32-.22.45-.19.49.03.06-.12.34-.06.6.06.28.34.29.37.37.14.43-.22,1.32-.22,1.55,0,.35,1.09.83.1,1.55l.31.07c.39.44-1.1,1.37-1.3,1.38-.06,0-1.04-.15-1.09-.18-.11-.04-.14-.3-.33-.4-.23-.12-.8-.15-.83-.18-.07-.08.13-.49.11-.67-.07-.63-.33-1.32-.42-1.88-.05-.35.38-.48-.16-.61.37-.31.48-.38.31-.85l-.31.16c.19-.38-.1-.59-.11-.92,0-.3.3-.71.36-1.08.06-.41-.16-.88.06-1.3l-.61-.34c.11-.32,0-.74.18-1.04.12-.21.43-.25.43-.33,0-.16-.26-.54-.26-.81,0-.44.83-1.97-.35-1.9-.12-.07.62-1.95,0-1.93,1.08-.86.14-1.22.15-2.16,0-.89.9-1.52-.46-2,.16-.43.27-.32.63-.47v-.69s-.63-.08-.63-.08c-.01-.15.22,0,.28-.15.05-.12.36-2.3.36-2.49,0-.26-.18-.18-.32-.29.41-.5.14-.9.05-1.43-.05-.29.38-.4-.37-.36-.01-.4.36-.79.41-1.08.04-.24-.34-.98-.15-1.51.1-.27.48-.07.36-.5h-.46s.32-2.39.32-2.39l-.47-.16c.08-.5.6-.89.61-.95s.08-.96.09-1.06c.01-.22-.69-1.29.22-1l.03-2.06c.34-.28.57-.72,1.06-.72l-.16-.3c.27-.03.48.12.71.22Z"/><path d="M228.62,29.67c-.13.3,0,.73.17,1,.16.25.36.1.4.14.67.67.91.93.5,1.87.11.27.41.05.47.16.13.24.72,1.99.15,1.78v.3c.55-.05.21.6.3.98.03.12.31.1.31.17-.02.16-.3.48-.31.8,0,.36.38.57.15.98.57-.31.68.07.61.61h-.46c.46.64.05.95-.01,1.61l.79.25v.76s-.62.32-.62.32h.62c-.31.75-.59,1.9-.31,2.69.2.58.67.62.31,1.48.48-.25.77.63,1.32.57.31-.04.26-.57.53-.57-.19.57.48.94.46,1-.02.08-.22.22-.23.37-.03.27.14.49,0,.79-.17.36-1.35.98-1.45,1.12-.02.03-.02.61-.01.64.04.12.29.09.31.2.02.19-.26.46-.02.6l.63.07c0,.63-.89,1.06-.15,1.31-.78.76.35,2.16.39,2.86.03.46-.15.85-.07,1.3l.6.33c-.27.58-.41.67-.31,1.31l.77-.15c-.08.58-.44,1.41-.43,1.97,0,.78.52,1.54.04,2.34-.34.57-1.04.69-.69,1.4-.65-.27-.8.32-.86.32-.04,0-.81-.23-.85-.25-.41-.32-.03-.91-.92-.53-.03-.34-.17-.65-.17-1,0-.42.45-.79-.14-.92.11-.12.1-.3.17-.43s.27-.14.29-.23c.09-.45-.33-.83-.39-1.3-.07-.5.35-1.38.34-1.45-.03-.26-1.32-1.38-.57-1.93l-.43-.22.11-.61-.61-.25c-.07-.26.25-.08.29-.23,0-.03-.12-.44-.11-.63.01-.21.13-1.1.1-1.22-.04-.14-.75-.61-.43-.85h-.47s.3-1.22.3-1.22c-.92-.65-1.58-.07-2.38,0-.47.04-.89-.19-1.23-.16-.47.03-.63.57-1.16,0v.62s-1.54-.15-1.54-.15v.46c-.4-.31-.22.17-.53.17-.33,0-.76-.29-.94-.27-.57.07-.84.99-.96,1.46-.11.42.08,1.19-.35,1.12.75.66.1.71,0,1.48-.05.37.11.73.06,1-.07.41-.65.88-.54,1.43.02.11.26.09.29.18.08.24-.92,2.69-1.1,3.04-.78,1.56-.85.95-2.12.2l.46-.08-.45-.56c.58-.68.02-.88-.02-1.38-.02-.32.39-1.26.39-1.91,0-.25-.26-.39-.21-.67.06-.34.54-.62.41-1.27-.02-.09-.23-.07-.24-.1-.04-.13.15-.26.09-.41-.02-.04-.22-.02-.25-.11-.17-.41.51-.64.59-.82.1-.23.29-1.39-.16-1.34l.47-.94-.47-.45c.08-.35.5-.47.58-.57s-.32-1.31.19-1.28c.16-.65-.38-.18-.47-.54l.91-.33c.04-.31-.19-.67-.21-.92-.03-.37-.07-1.74-.02-2.01.06-.32.79-.65.89-.98.16-.54-.22-1.34-.15-1.69.04-.21.38-.35.49-.55.17-.33.08-1.15.15-1.44.06-.23.39-.52.39-.65-.01-.26-.6-.28-.59-.54.15,0,.73-.45.75-.49.07-.12-.16-.36-.12-.42.04-.05.31-.06.37-.16.2-.32-.08-1.37-.06-1.45.1-.4.97-.83.3-1.65.83.04.97-.43.46-1.01l.31-.38-.31-.08c.19-.2,1.01-.81,1.09-.95.14-.23.07-.56.19-.78.06-.1,1.54-1.57,1.69-1.69.04-.03.15.08.24.05.05-.02-.03-.39.65-.1l.03-.43c.25-.11.54-.09.79-.2.13-.05.11-.27.13-.28.06-.04,1.1.49,1.33.54s1.11.02,1.43.06ZM226.13,33.09s-.65-.29-.68-.29c-.09,0-.7.91-.75,1.04-.07.17.09.42-.05.73-.14.33-.63.5-.51.97,1.25.05-.1.64-.22.78-.17.18-.58,1.41-.53,1.61l.44.24v.3c-.55,0-.39.83-.77,1.16l.31.23c-.6.12-.42,1.43-.62,1.93l.47.16c-.18.52-.74.63-.95,1.08-.18.4-.17,1.39-.45,1.86l.31-.08c.3.23-.12,1.87-.61,1.86l.07.31c.1.14,1.09.41,1.17.39.46-.1.58-.69.71-.71.26-.05.55.18.73.17.09,0,.07-.26.2-.3.3-.09.73-.05,1.06-.18l.31.33c.32,0,.83-.42,1.07-.42.27,0,.8.6.71-.35.8.15.04-.58.76-.63l-.08-.31-.54.16v-.76s.46,0,.46,0v-1.39s-.62,0-.62,0l.46-.77c-.55.28-.63-.84-.59-1.16.01-.08.21-.07.26-.2.24-.69.53-1.53-.29-1.89.7-.64.44-1.27.17-1.93l-.63-.07c.62-.69.2-.73.18-1.15-.05-1.28-.02-1.52-1.07-2.43-.03-.05.12-.23.1-.26Z"/><path d="M25.82,29c.03.06.26.04.25.12-.02.15-.27.38-.24.62.1.87.28,1.34.24,2.32-.02.47.43.63-.31.93l.32.16c-.03.15-.16.33-.15.47.06,1.32.31,2.65.31,4,0,.81-.29,1.88-.18,2.63.04.29.31.21.33.32.08.49-.53.91.29,1.2-.07.49-.58.56-.46,1.06.08.3,2.03.77,2.25.58.28-.23.08-.73.81-.37.22.11.12.39.4.36.59-.06.58-.53.93-.65.37-.13.96.05,1.32.19v-.45c.7-.22.48.35.92.29.4-.97,1.84,0,2.14-1.2.11-.45-.23-.67-.27-1.05-.11-1.04-.13-2.73.29-3.61-.79.04-.03-1.28-.15-1.39h-.47c0-.39.45-.44.46-.47.05-.09-.22-.21-.24-.38-.08-.68.26-1.33.26-1.86,0-.49-.31-.68-.33-.93-.03-.34.31-.52.29-.73-.02-.18-.27-.4-.29-.66-.02-.3.24-.46.25-.61.02-.2-.21-.45-.22-.66-.03-.7.24-1.19.3-1.87l1.3-.27c.7.31.37.98.5,1.42.15.48.45,1.41.49,2,.04.51-.47.57.31.92-.22.34-.35,1.14-.32,1.54.05.53.46.62.47.92,0,.34-.41.62-.41.77,0,.13.46.73.54,1.08.1.5-.31,1.05-.34,1.6-.04.67.27,1.05.33,1.55.07.56-.72,1.25.35,1.25-.17.41-.07.72-.61.62v.92s.3-.08.3-.08c.08.32-.22,1.13-.15,1.37.04.12.31.08.31.18,0,.22-.26.35-.26.46-.02.21.34.43.35.62.04.8-.47,2.05-.38,3.09.02.22.22.36.23.49.17,1.74.26,3.41.26,5.2,0,.21-.04,1.01-.03,1.06.04.27.39.59.41.84.01.18.01.93.02,1.22,0,.35-.1.92-.14,1.3h.46c-.19.51.08,1.01.07,1.47-.05,1.65-.12,3.09-.14,4.79,0,.09.15.2.19.3-.02.23-.93.53-1.12.54-.45.01-.77-.43-.92.16-.42-.22-.06-.62-.11-.75-.02-.05-.72-.64-.89-.65.6-.8.09-1.26.3-2.15l-.46-.08c.05-.41.45-.57.44-.61-.02-.29-.33-.71-.38-.97-.2-.98.08-2.05.03-2.9-.02-.27-.35-.47-.35-.61,0-.1.26-.24.23-.43s-.43-.56-.44-.98.17-1.31.16-1.83c-.01-.49-.3-.89,0-1.47l-.46.15c-.24-.49.31-1.07.31-1.32,0-.3-.43-.42-.47-.77-.03-.3.11-1.02.46-1.08-.77-.28-.18-.77-.62-1.38l.46-.39c-.4.08-.38-.89-.22-1.24-.1-.23-.6-.33-.82-.27-.38.09-.29.42-.45.44-.29.04-.53-.31-1.03-.01-.88.53-2.32.37-3.51.53-.89.12-1.72.63-2.77.24-.26.66.31.79.31.84-.02.21-.43.78-.52,1.19-.15.74.27,1.41-.11,2.06.66.16.01.77.17,1.31l.45.08c-.86.81-.29,1.44-.37,2.24-.03.3-.24.57-.27,1-.06.83.35,1.82.63,2.52.38.94-.25.85-.3,1.06-.18.66.44,1.48.26,2.06-.12.38-.56.56-.41,1.08l.46.08c-.54.29-.58,2.14-.76,2.32-.34.32-2.06.49-2.23.04-.2-.52.14-2.78.06-2.89l-.31.08c-.11-.34.41-.71.43-.78.12-.37-1.17-1.15.03-1.16.09-.33-.3-.51-.3-.55-.07-.83.14-1.72.11-2.33-.01-.26-.31-.42-.28-.74,0-.06.86-.26-.15-.78.38-.51.49-.85.3-1.51-.04-.13-.3-.11-.31-.21-.05-.39.51-.89-.15-1.06l.75-2.2-.59-.59.47-.33c-.2-.5-.07-.95-.08-1.44,0-.14-.19-.29-.18-.39,0-.24.31-.41.25-.69-.46.16-.48-.32-.69-.4-.16-.06-.7.1-.91.04-.06-.02-1.13-.47-1.19-.5-.07-.04-.56-.61-.55-.75.03-.51.49-.96.82-1.33l.75.32.09-.28.35.12c.12,0,.07-.3.19-.32.61-.09.55.48.81-.85l-.3-.29c.02-.22.22-.43.26-.65.04-.25.23-1.42.22-1.5-.02-.1-.24-.09-.26-.14-.05-.1.22-.22-.21-.34l.46-.78c-.94-.39-.18-1.14-.1-1.65s.23-2.06-.21-2.21c.63-1.03-.03-2.22,0-3.39,0-.23.15-2.03.18-2.14.08-.28.57-.39.45-.94-.8-.29.4-.9-.15-1.56,2.33-1.38,1.55,1.12,2.06,2.04Z"/><path d="M69.76,27.71s.47.76.47.8c0,.08-.25.26-.27.47-.07.67.35,2.18.4,2.96.03.39-.2.92-.11,1.36l.47.08-.46,1.31c.66.17.09.67.15,1.06l.33.18c-.57.89.04,1.8-.06,2.64-.1.9-.12,1.06-.12,2,0,.48-.18,1.57-.14,1.96.02.17.82.21.03,1.08.01.35,1.15.89-.03,1.11.47,1.01-.59,2.56.47,3.08-.48.33-.17.8-.23,1.23-.08.53-.44.93-.23,1.47.84-1.02.8-2.49,1.24-3.7l.61.15c.21-.4-.03-1.18.03-1.44.08-.37.63-.48.71-.61.31-.52.82-2.3.96-2.95,0-.04.16-.65.18-.69,0-.02.23-.03.33-.22.22-.38.12-.72.2-.89.09-.2.38-.65.54-.97.27-.53.95-1.36,1.11-1.7.14-.3-.06-.59-.02-.92.12-.92,1.03-1.26,1.18-1.77.08-.28-.03-.62.05-.88.02-.05.47-.44.59-.79l-.31-.15c.09-.46.54-.33.62-.49.17-.31.02-.79.11-1.09.19-.64.76-1.24.89-1.91l1.77-.14c-.23.44.11.71.12,1,.06,1.12-.86,3.21-1.27,4.39-.07.2.07.54,0,.71-.18.46-1.16,1.08-.25,1.38-.81.98-1.7,2.17-1.77,3.48h-.54c-.19.38.3.27.32.4.07.5-.47.76-.6,1.1-.15.4.23.76-.48.67.14.6-.76,1.36-.88,1.83-.06.25.13.5.07.68-.01.05-.69.67-.72.74-.04.11.14.33.11.5-.09.46-.41,1.12-.92,1.17l.31.23c-1.06,1.43-.17,2.02,1.12,2.56.12.05.11.29.22.29.19,0,.36-.23.61-.01.28.24.15.65.25.76.07.08.41.04.52.18.11.13-.1.39-.07.45.03.05.27.07.36.17.47.52.43.3.62.45.56.47.21.81.3,1.26.05.3.67.59.68.63.05.14-.11.27-.11.36,0,.11.23.05.25.15.03.13-.13.45.03.74.25.46,1.04-.14.31,1.2.9-.04.63,1.17,1.08,1.75.15.19.39.07.44.12.09.1-.05.51.1.76.07.12,1.12,1.07,1.27,1.28.1.14.42.75.45.88.08.37-.5,1.34-.82,1.51-.07.04-.84.29-.89.29-.28-.02-.46-.54-1,.06.08-.99-.31-.88-.66-1.43-.3-.47-.64-1.75-.88-2.06-.13-.16-.71-.76-.78-.95-.11-.29.02-.74-.24-1.11-.23-.34-.66-.3-.78-.47-.13-.19.08-.45,0-.63-.1-.26-.62-.35-.22-.92l-.46.15c-.18-.32.01-.7-.04-.97-.04-.21-.63-.84-.79-1.19-.06-.14.05-.34-.02-.46-.2-.32-.62-.16-.67-.2-.26-.19-.32-1.02-.48-1.13-.2-.14-.56,0-.75-.1-.29-.17-.01-.73-1.03-.11l-.23-.31-.23.46-1.78-1.08c-.06.52.17,1.01.22,1.52.04.44-.34,1.02.22,1.17l-.15,1.08.47.08-.29.22c.01.84.47,1.61.59,2.34.19,1.1-.06,2.52-.02,3.7.03.75,0,1.16-.06,1.86,0,.08.19.21.17.39-.05.7-.44.45-.51.51-.09.06-.07.28-.26.35-.41.16-1.3-.31-1.78-.09-.14-.39-.09-.46.15-.77-1.17-.21-.12-2.03-.16-2.85-.01-.23-.3-1.88-.36-2.11-.07-.27-.33-.28-.35-.33-.36-.98-.23-1.33-.11-2.29.04-.31.5-.44-.25-.6.33-.59.61-1.15-.15-1.46l.31-.46-.45-.25c.08-.73.71-1.74-.17-2.07l.47-.32c-.49-.55-.09-1.2-.16-1.66-.02-.13-.3-.03-.33-.33-.05-.5.28-.34.37-.57.13-.32.11-1.73.11-2.2,0-.11-.3,0-.33-.32-.08-1.01.24-2.07.33-2.95.02-.22.03-1.46.02-1.69-.02-.32-.45-.15-.33-.61.02-.06.31-.08.32-.16.03-.31-.24-.46-.26-.64-.04-.26.1-.62.06-.93-.07-.51-.67-.66.2-1.05l-.3-.14c.15-.36.39-1.01.31-1.38-.1-.42-.27.34-.07-.87.03-.18-.18-.27-.16-.48s.25-.8.21-.99c-.02-.08-.52-.07-.28-.38.02-.02.26.06.3-.1.27-1.04-.03-2.15.04-3.19.01-.18.23-.36.25-.53.02-.21-.36-.44-.29-.89.04-.27.5-.67.57-1.03.2-.15,1.1.05,1.25.21Z"/><path d="M199.63,29.46c.93,1.19.76,1.9,1.16,3.24.05.16,0,.36.01.53l.46-.15-.16.92.56.15c.2.24-.35.67.25,1.04.08.05.31-.33.39.32.04.34-.28.44.18.57l-.14.39c.69-.08.69.64.81.74.13.11.93.06,1.13.49.26-.11.38-.59.54-.69.25-.15.5.1.6.06.02,0,.02-.22.13-.28.15-.09.39-.09.48-.17.06-.06.26-1.27.8-1.29l-.31-.38c.37-.25,1.07-.46.93-.93l.31.31c-.03-.46.57-.38.79-.69.13-.17-.04-.38.06-.54.07-.11.3-.11.35-.23.08-.19.1-.95-.28-.93.06-.47.69-.5.79-.64.22-.3-.07-.88.45-.52l-.31-.39c.38-.15.32-.74.4-.85.11-.14.37-.18.46-.31.16-.24-.21-.56.15-.77.36-.07,1.85.97,2.39.62-.08.61.42,1.18.54,1.63.1.37-.14.65-.16.92-.01.19.47.7-.23.93.29.24.55.49.47.91-.01.05-.9.58,0,.48l.15.46c-.07.22-.52.18-.59.26s-.25,1.65-.15,1.86c.09.19.38.4.39.5.03.5-.65,1.62-.82,2.09-.1.29.16.64-.22.85.38,0,.32,1.05.23,1.32-.11.34-.36.3-.36.32-.03.1.17.25.1.41-.41.95,0,.52.01.72.01.42-.12,1.22-.29,1.63l.62.15-.61.47.31.46c-.45-.05-.34.6-.46.93l.46.08c-.33.57-.69,1.24-.7,1.92,0,.27.19.44.19.68-.03.83-.57,2.27.51,2.5-.48.15-.12.69-.77.54l.45.38c-.36.58,0,1.19-.61,1.71l.31.15-.3.14c.45.6.05.98.02,1.51-.02.28.24,1.37.27,1.75,0,.08-.24.06-.26.14-.07.4-.13,1.02.43,1.01v.15c-.44-.1-.28.9-.37,1.28-.06.25-.29.56-.4.81l.31.14c-.44.41-.11.89-.15,1.22-.01.11-.27.11-.31.22-.25.66.24.42-.56.88-.24.14-.36.19-.58.32-.33.19-.63.12-.56.69l-.62-.16.31-.92-.46.09c-.04-.46-.89-.82-.93-.87-.06-.09.64-1.75.2-2.08l.42-.61c-1.03-.59-.06-1.95-.62-2.86h.62s0-.46,0-.46l-.54-.15-.05-.39.59-.63-.31-.14.46-.86c-.58,0-.35-.7-.39-1.09l.55-.15-.43-.54c.48-.56.31-1.14-.04-1.71l.31-.3c-.5-.49-.04-.9-.03-1.27,0-.44-.14-1.02-.05-1.68.07-.48.59-.7-.21-1.07l.31-1.08-.33-.38.29-.07c-.31-.65.69-1.69-.14-2.01l1.08-2.17c0-.07-.26-.05-.28-.14-.11-.52.7-2.75.59-2.86-.71.14-.87.86-1.7.85l-.15.16.3.69-.9.02c-.16.12-.22.74-.27.77-.48.27-.81-.2-.91.29l-1.48-.08-.24.72h-.69s0-.63,0-.63c-1.23.35-1.37-.05-2.17-.69-.17-.13-.4-.15-.56-.28-.38-.32-.38-1.12-1.13-.42-.22-.66-.3-1.15-.17-1.84-.43-.21-.56-.14-.92.14l-.12-.71.43-.31c-.15-.25-.2-.64-.33-.87-.13-.26-.81-1.17-.89-1.44-.03-.08.12-.42.11-.47-.05-.15-.58.1.18-.77l-.28-.1c.16-.48.16-1.09-.34-1.29l.31-.7h-.47s.04-.75.04-.75l.28-.1v-.23s-.31-.07-.31-.07c.61-.72.07-2.02,1.43-1.44.59.26.66.6.95.98Z"/><path d="M142.35,27.58c.05.02.06.22.17.24.49.1,1.08-.22,1.36-.24.22-.02.49.22.77.22.51,0,1.4-.46,2.16-.45s.49.26.64.31c.21.06,1.05-.29,1.37-.31.44-.03,1.18.18,1.7.08.29.43,1.04.9,1.29,1.26s-.03.82.64.68v.15c-.44-.08-.13.29-.37.48-.17.13-.38-.01-.54.07-.36.17-.94.89-.63,1.31-.57.24-.91-.44-1.15-.47-.22-.03-.88-.04-1.07,0-.13.03-.08.34-.18.31-.16-.05-.36-.31-.63-.38-.18-.05-1.61.22-2,.24-.33.02-.63-.18-.92-.16-.37.02-.9.4-1.47.15l-.09.46-1.61-.15c.22.51-.31.66-.31.7,0,.13.14.3.14.47,0,.49-.37.63.32.9-.09.26-.39.6-.38.87,0,.58.71,1.19.47,1.54-.06.09-.3.09-.36.18-.04.05.28.34-.19.28l.62.61c-.67.07-.45.63-.62,1.08l.62.08c-.16.21,0,.82-.03.93-.03.08-.24.06-.25.09-.12.35-.07.24-.24.63-.24.56-.23,1.28.51,1.21.03.7-.43.98-.47,1.6.02.1.26.09.28.13.13.25-.33.69-.38.97l.39.46c-.7.68,0,1.41-.59,2.08l.62-.15-.46,1.62.62.24c-.13.43-.51.74-.58,1.2-.15,1.01.88,1.59.47,2.46-.09.19-.31.2-.32.22-.04.08.14.64-.2.9l.62.08c.01.15-.23.01-.28.15-.11.28-.18,1.51-.34,1.98-.07.19-.35.06-.3.19l.93.23c-.34.57-.12,1.5-.77,1.77l.46.63-.28.14c.47.69-.12.9-.13,1.08,0,.07.26,1.01.32,1.29,0,.04.36-.06.13.6-.14.38-.49.52-.26,1.14-.18.29-1.29.57-1.44.78-.13.18.16.75-.17.75.08-.44-.44-.1-.6-.54l.28-.54-.7.13-.16-.3-.37.16c.11-.77.11-1.57.05-2.34-.05-.69-.2-1.99-.3-2.67-.04-.28-.4-.47-.15-.86.11-.17.55-.04.39-.68-.11-.44-.51-.39-.56-.62-.08-.31.07-1.34.4-1.55-.54-.13-.15-.81.15-1.08l-.46-.08c.46-.46.06-.68.06-.84,0-.11.5-1.3.56-1.55l-.32-.16c.58-.64-.62-1.89.16-1.92v-.15c-.53.05.06-.28-.46-.39.53-.29.17-.81.23-1.08s.41-.61.39-.94c0-.17-.61-.57-.63-1.07l.32-.15-.32-.46.47-.39c.05-.3-.32-.08-.46-.16-.03-.01.06-.58.08-.6.65-.9.2-.38.22-1.33,0-.21.29-1.34.28-1.53-.01-.17-.37-.29-.38-.46,0-.11.21-.29.21-.46,0-.25-.13-.91-.4-.93l.6-.77-.16-.53-.6-.1.28-.1c-.22-.65.37-1.49.44-2.08.08-.67-.18-1.25-.22-1.71-.02-.16.39-.6.11-.97-.55-.14-1.08.04-1.61,0-.28-.02-.45-.23-.7-.25-.31-.02-2.19.08-2.16.54h-.15c.15-.13-.67-.58-.73-.6-.37-.1-.62.45-1.32.12-.12-.06-.12-.29-.21-.3-.27,0-.6.29-1.04.13-.33-.12-.61-.96-.56-1.27.04-.22,1.42-1.26,1.74-1.37.45-.16,1.02.03,1.53-.13.13-.04.11-.26.22-.29.9-.22.99.28,1.07.3.61.14.96-.36,1.11-.38.25-.04,1.94-.03,2.26-.02.28.01.43.37.71.33.25-.03.5-.3.72-.34.35-.06,1,.11,1.21.07.1-.02.07-.24.15-.25.53-.07,1.35.43,1.16-.65.19.07.37.14.56.22Z"/><path d="M156.11,28.8c.09.06.61.42.64.45.11.12-.05.41.11.43.09,0,1.07-.02,1.19-.03.68-.07.3-.13,1.12-.05.49.05,1.21-.19,1.39-.7l.37.18.03.59c.11.17,2.22-1.31,1.85-.16h.39s.15-.31.15-.31c.11.02,1.19.99,1.24,1.08.16.27-.1.54-.07.6.06.1.63.08.44.63l-.59-.13c-.44.81-.95.67-1.73.6.07.78-.37,1.03-1.06.74l-.02-.43-.31.11-.07.35-1.08-.62c-.12.59-.71.05-.95.04-.27-.01-.36.36-.71.12-.19-.13-.06-.66-.65,0l-.18-.31h-.52s0,.46,0,.46h.46s-.47.7-.47.7c.46.08.49.76,0,.7l.32.38c-.47.81-.07,1.24-.05,1.86.02.52-.32,1.58-.12,1.97.08.16.35.09.3.19-.03.07-.21.15-.23.31-.06.43.06,1.06-.08,1.54l.47.16c-.49.15-.12.69-.77.54l.33.38c.03.48-.29,1.09-.18,1.53.03.12.33.09.31.17-.03.15-.53,1.17-.4,1.32l.64.29c.14-.47,1.37-.46,1.81-.42.5.05,1.35.74,1.51-.19l.23.31c.61-.46.54-.11.93,0,.09.03.05-.27.17-.3.08-.02,1.53.12,1.65.15.1.02.34.7.88.31v.76s.78.17.78.17c.08.5-.34.8-.75.95l.13.28-.61.16.16.46h-1.38c.14.4-.6.86-.86.87-.29,0-.65-.58-1.22-.56-.4.01-.91.4-1.29.43-.47.04-1.03-.46-1.13.34-.23-.63-1.88-.22-1.7,0,.05.06.37-.13.31.15-.72-.14-.65.17-.77.77h.45s.02.54.02.54l-.47.18.16,1.44-.47.08c.08.23,0,.57.04.77.01.07.53.89.29,1.08l.26.14c-.44.78.04,2.52-.04,3.03-.04.28-.35.27-.39.39-.1.36.43,1.11.46,1.37,0,.08-.4-.03-.31.44.05.29.3.44.38.69.04.13.18.53.19.56.1.36.18.76.06,1.14l.61.17c.05-1.58,2.08-1.42,3.25-1.23-.27.47.37.77.42,1.17.02.12-.38,1.47-.46,1.65-.12.27-.93.75-.91,1.33-.95-.23-.65.09-.93.29-.04.03-.79-.07-1.1.04-.15.05-.1.31-.18.3-.26-.05-.96-.37-1.28-.43-.19-.04-.44.13-.49.1-.06-.03-.1-.41-.25-.45-.12-.03-1.16.75-.85-.46-1.18.81-.1-.78-.46-1.08l-.62.15.31-.85-.32-.17.16-1.13h-.77s.3-1.16.3-1.16l-.61-.24.32-.99-.32-.16c.86-.62-.03-1.24,0-1.39.05-.31.33-.4.41-.62.03-.07.07-1.44.07-1.52,0-.09-.24-.1-.3-.22-.34-.64.9-1.77-.16-2.12.36-.2.8-.63.78-1.07,0-.1-.25-.07-.28-.16-.09-.23.14-.79.28-1l-.46-.08c.12-.54.7-1.33.59-1.85-.01-.05-.41-.15-.24-.89.08-.35.34-.64.37-.84.08-.47-.35-1.57.2-1.67-1.38-.64.09-1.67.16-2.47.03-.38-.23-.2-.46-.23v-.23c.4-.42.19-1.2.26-1.76.04-.3.31-.74.3-.87s-.3-.33-.26-.61c.01-.07,1.11-.63.17-1.09.9-.58-.09-1.56,0-2.14,0-.05.46-.45.47-.79-.62-.19.07-1.01.07-1.55,0-.1-.15-.27-.17-.46-.01-.12.13-.37.1-.38-.13-.07-.51.14-.46-.16.63.02-.18-.44.6-.7-.31-.65.3-2.79,1.2-2.18Z"/><path d="M17.11,26.27l.1-.31c.6-.11,1.58,1.01,2.03,1.41.11.1.37.09.51.23.23.24.07.74.77.69l-.14.44c.4,0,.84,1.66.87,1.98.02.2-.24,1.93-.31,2.02l-.45.11c-.7-.17-.49-.75-.68-1.16-.09-.19-.39-.31-.46-.47-.29-.66.36-.17-.54-.87-.58-.45-.47-.87-.54-.98-.06-.09-1.5-.65-1.69-.69-1.43-.28-2.32.62-3.64.39l.15.46-1.4.23v.54c-.31.01-.65-.04-.97.03-.06.02-.97.42-1.02.45-.02.02.11.29-.03.5s-.42.3-.59.51c-.46.59-1.39,1.52-1.1,2.21l-.56.15.09.46-.62.17.3.6-.88.67c-.05.12.06.28.02.42-.09.31-1,2.62-1.19,2.89-.04.06-.18.05-.26.04l.46.38c-.11.44-.64.6-.73.74-.35.55-.72,1.96-.67,2.65.03.38.37.9.29,1.24-.12.54-.57,1.29-.53,2.01.02.39.69,1.16-.06,1.39.59.39.16,1.01.21,1.47.03.28.1.62.15.98.07.58.2.97.33,1.57.06.28.05,1.4.1,1.45l.45.1c.13.29-.02,1.18.02,1.37.02.07.43.19.28.54.92-.41.57.59.74,1.03.32.82,1.87,2.43,2.57,2.99.4.32,1.55.55,2.04.73.23.09.59.46.75.5.1.02-.01-.31.3-.33.74-.04,2.15.7,2.76.33.26-.16.01-.57.88-.07.64-.29.42-.83.47-.85.18-.1.92-.21,1.27-.47.19-.14.07-.37.2-.47.37-.27,2.59-.19,1.94.72l.29.13c-.14,1.3-.8,1.66-1.7,2.47-2.79,1.24-5.27,1.8-8.26.86-.23-.07-.35-.22-.54-.31l-.08.46c-.51-.4-.65-.23-.39-.93-.9.32-.86-.95-1.85-.31-.11-1.22-.68-.99-1.39-1.32-.47-.22-.38-.67-.56-.99-.33-.58-.46-1.04-.7-1.46-.34-.6-.34.03-.61-1.06-.03-.14-.26-.13-.3-.22-.26-.51-1.37-2.82-1.4-3.08-.03-.3.3-.61.01-1.03-.1-.15-.38-.16-.44-.35-.07-.25.09-.98.09-1.23,0-.09-.24-.05-.28-.17-.06-.19.18-.81.15-1.04-.02-.12-.31-.04-.33-.33-.03-.46.28-.77.33-1.24.05-.51-.4-1.5-.3-1.99.02-.1.68-.29,0-1.1l.46-.25c-.41-.62-.01-1.11.09-1.84.17-1.21.08-1.81.81-2.81.05-.07-.05-1.29.06-1.73.18-.71.75-.84.46-1.47,1.24-.29.15-1.33,1.14-1.72-.13-.7.19-.47.24-.93l-.31-.08c.84-.37.7-.97.97-1.42.05-.08.31-.16.46-.39.35-.55.11-1.12.15-1.17.16-.22,1.08-.58,1.29-.79.28-.29.15-.59.26-.75.05-.07,1.19-.55,1.46-.84.29-.31.36-.48.84-.79.66-.42,1.14-.51,1.68-.79.25-.13.28-.49.33-.52.04-.02.29.14.49.1.67-.17,1.08-.56,1.53-.84.14-.09,1.08.14,1.27.12.12-.01.03-.31.32-.33.57-.04,1.76.07,2.24.32Z"/><path d="M94.84,29.35c.2.14.66-.34.75-.28.02.02,0,.21.04.23.12.05.25-.05.43.12.37.35,1.01,1.17.93,1.69,0,.04-.61.59-.65.61-.59.27-1.13-.1-1.75.1-.28.09-.19.31-.46.34-.66.08-.53-.32-.64-.33-.06,0-1.04.14-1.18.17-.13.03-.11.24-.19.27-.19.06-1.29-.12-1.63-.05s-1.37.44-1.38.78l.32.17c-.25.68.08,1.34-.32,1.91l.47.08c.12.57-.4,1.23-.28,1.54.04.1.3.03.29.3-.01.37-.48.95-.32,1.53.04.14.35.04.3.32-.03.22-.26.41-.31.64-.29,1.21-.16,3.49-.03,4.77.06.57,0,.58-.07,1.1-.05.32.15.87-.04,1.28.13.18,1.65.24,1.91.15.22-.08.21-.37.27-.42.05-.04.51.15.87.04.44-.13.45-.47.61-.52.53-.17,1.31.2,1.51-.46.27.36.93.63,1.17.85.15.14-.09.65.61.54-.06.89-.4.67-.66.91-.23.21-.26.52-.61.67-.7.3-2.16.12-2.79.46-.27.14-.28.42-.42.51-.07.04-1.08.2-1.51.33-.69.23-1.26-.1-1.1,1.12h.45c-.29.46.09,1.02-.47,1.17v.23s.46.23.46.23c-.02.21-.43.42-.43.46-.04.35,0,3.89.05,4.11.05.21.33.38.38.68.08.48-.25,1.28-.1,1.66.1.27.4.39.47.56.22.57.17,1.46.87,1.85.1-.67,1.73-1.21.78-1.62.25-.13.39-.57.54-.69.09-.07,1.92-.89,2.03-.9.61-.06.87,1.04.89,1.5.05,1.02-.61,1.41-1.16,2.1-.1.12-.03.34-.08.4-.15.15-.44.1-.55.24-.14.2-.06.67-.17.8-.05.05-1.03.81-1.09.84-.13.06-1.62.55-1.71.55-.1,0-.25-.2-.41-.21-.29-.03-.68.12-.92-.13-.22-.23-.17-.55-.31-.74-.76-1.09-.78-.57-1.15-2.01-.17-.66-.78-2.04-.86-2.51s.15-.84.09-1.31c-.05-.45-.44-.46-.49-.9-.06-.63.39-1.57.09-2.07-.1-.16-.58-.04-.13-.63.13-.17.39-.21.44-.35.15-.42-.79-1.38-.15-1.83l-.33-.3c.24-.62.41-1.66.4-2.32,0-.39-.35-.98-.35-1.08.02-.16.37-.3.38-.46.01-.15-.36-.6-.36-.93,0-.22.19-.44.21-.65.05-.48.24-3.23.19-3.49-.03-.12-.28-.1-.31-.21-.16-.64.46-1.25.39-2.04-.03-.34-.34-1.5-.33-1.79.01-.34.65-.78.57-1.22-.03-.14-.33-.14-.4-.25-.23-.34.36-1.46.37-1.95l-.29-.22c.96-.16.32-1.09.35-1.66.01-.26.39-1.09.24-1.51-.03-.09-.29-.06-.28-.14.02-.15.73-1.76.86-1.93.54-.76,1.2-.08,1.66-.05.76.05.53-.52.57-.58.05-.06.52.17.7.17.28,0,.19-.27.3-.3.13-.03.71.17.9.13.23-.05.11-.57.65-.47l.31.31c.56-.85.83-.22,1.27-.18.31.03.6-.72.84.16Z"/><path d="M62.52,28.46l.04.73.59.19v1.07c-.43-.08-.7.32-1.03.42-.35.11-1.94.09-2.06.13-.4.15-2.85,2.75-2.99,3.15-.25.71-.32,1.08-.8,1.84-.67,1.07-1.04,2.13-1.73,3.14-.26.38-.05,1.75-.28,2.12-.25.4-.76,1.9-.77,2.4,0,.38.49.79-.06,1.24l.31.15c-.05.17-.43.72-.43.78,0,.21.69.34.11,1.08l.31.14c-.09.75-.48.46-.61.55-.07.05.46,1.46.46,1.62,0,.29-.44.54-.3,1.21.02.08.43.1.25.61-.26.73-.53.88-.25,1.86.04.14.33.09.31.18-.05.16-.42.48-.42.62,0,.11.37.42.42.79.05.4-.14.83-.1,1.25.08.9.55,3.51.96,4.21.16.26.5.31.68.54l-.3.54c.89-.11.99,1.06,1.35,1.4.25.24.69.24.97.39.13.07.12.37.25.38.58.04,2.04.21,2.59.14.95-.13,3.06-1.68,3.06.3l.43.02c.25,1.21-1.79,1.14-1.38,2.31l-1.85-.15.15.46c-.52.05-.78-.28-1.3-.32-.19-.02-1.25.01-1.4.04-.1.02-.08.28-.14.27-.35-.01-.59-.43-.67-.45-.35-.11-1.15.04-1.44-.24-.19-.19.06-.41,0-.52-.13-.2-1.53-.73-1.99-1.22-.11-.11-.09-.39-.18-.47-.04-.03-.44.24-.59-.58l.31-.15c-.3-.19-.35-.65-.54-.86-.12-.14-.37,0-.46-.14-.35-.59-.27-1.7-.84-2.26l.31-.3c-.17-.44-.29-.92-.38-1.38s.17-1.33-.56-1.16l.3-1.17-.31-.3.32-.62c-.75-.25-.37-1.1-.33-1.71,0-.08-.28.01-.3-.3-.07-.79.44-2.2.63-2.94-.62-.26.12-.78-.17-1.5-.45-1.09-.13-.73-.06-1.68.07-1.01-.33-2.14.39-3l-.32-.31c.63-.59.29-.91.37-1.37.21-1.12,1.15-2.48,1.31-3.3.06-.31-.11-.67-.05-.82.12-.29.81-.43.4-1l.29-.07-.31-.23.78-.65c.14-.38.08-.52-.16-.82.64-.11.59-.4.46-.93h.61s.02-.92.02-.92l.55-.16-.03-.63.56-.15-.12-.27c.46-.02.51-.71.61-.78.13-.08.41.04.56-.05.21-.12.27-.99.38-1.17.04-.06,1.12-.7,1.21-.74.47-.2.38-.03,1.02-.38.38-.21,3.27-.39,3.42-.14Z"/><path d="M267.05,30.17l.27.75h.38s0,.51,0,.51l-.31.25.32.1c-.14.48-.09,1.16.03,1.65.13.54.9.53-.04,1.42.78.28.25,1.15.22,1.73-.07,1.22.03,2.46,0,3.68,0,.45-.31.89-.08,1.35.05.1.31.1.32.21.04.35-.34.93-.32,1.2,0,.09.29.07.31.19.05.23-.05.5,0,.72.03.12.31.11.3.17-.03.35-.36.81-.77.7.2.63.52,1.2-.15,1.62l.77.31c.05.81-.57.65-.62.69-.09.08.13.43.14.55,0,.07-.24.05-.28.19-.19.59-.13,1.15.61,1.12l-.32.77-.3-.15c.09.38.09.78.07,1.16-.02.3-.23,1.14-.18,1.4.02.12.23-.01.36.68.02.11.27.21.21.3,0,.01-.22-.04-.31.11-.05.09-.4.85-.4.9,0,.2.39.58.1,1,.74-.04.84.56.31,1.01.4,0,.31.93.23,1.24-.09.36-.28.66-.54.92l.62.08c.06.26-.22.08-.28.22-.05.12.05.72.03.94-.06.69-.23,2.24-.18,2.89.03.42.32,1.08.26,1.64-.37.19-.95.29-1.28.5-.31.2-.38.68-.63.6-.37-.13,0-.66-.08-.77l-.46.31-.16-.62-.62.15c.23-.69-.03-1.52-.77-1.7v-.15c.69.01-.09-1.01.14-1.3l.47-.09c-.39-.63.36-.97-.42-1.3.42-.81-.15-.81-.2-1.25-.04-.35.26-.66.28-.95.02-.38-.64-1.53.19-1.82l-.48-.32.32-.61-.46-.24c.19-.57.79-.55.55-1.24l-.39-.07.46-1.53c-.69-.33-.66-.83.16-.86.04-.32-.54-.07-.62-.15-.02-.02-.03-.55,0-.67s.29-.09.31-.21c.03-.17-.14-.38-.05-.63.06-.18.34-.17.36-.29.1-.49-.27-.77-.24-.99.03-.25.29-.47.32-.69.06-.36-.72-.91-.55-1.15l.62-.23-.29-.09c.51-.64-.25-1.42-.27-1.76-.04-.87.81-2.27.81-2.78,0-.24-.22-.48-.22-.77,0-.62.13-1.4.23-2.02l-.72-.45c.28-.29.28-.65.77-.54-.41-.5-.5-.96-.56-1.62l.72-.38-.39-.3c.26-.62.28-.98-.38-1.33.38-.35.75-1.22.88-1.74.07-.25-.06-.46-.02-.67.05-.27.36-.69.31-.99-.03-.19-.33-.27-.24-.53l1.82.04Z"/><path d="M189.99,28.59c.11.67.27,1.42.39,2.16.12.79.06.24.31.61.14.21-.17,2.93.24,3.46l-.32.17c.51.41-.2.79.62,1.08l-.32.9.47.33c-.8.73-.3.72-.16,1.4.01.07-.02,1.44-.03,1.51-.06.32-.56.33.05.48l-.31.7.59.02c.45.69-.17.61-.26.83-.11.25.38.66.39.77.02.13-.35,1.21-.25,1.61l.61.24c-.16.31-.37,1.06-.38,1.38-.03.95.55,1.95.07,2.79l.31.14c-.6.84-.17,1.52-.15,2.19.01.32-.24.47-.25.6-.03.37.48.48.54.62.12.3-.39,1.92-.43,2.33-.07.75.31,2.71.27,3.04-.02.14-.32.59-.28.88h.62c-.66.75.01,1.32-.46,1.93l.31.14-.47.94.3.15-.14.39h.62s-.18.6-.18.6l-.6.02c.23.62-.32.96-.91.95l-.02.44h-.77s-.07-.78-.07-.78l-.66-.23.11-.37-.92-.4.3-.47-.46-.08.29-.23.02-2.7h-.46s.3-1.02.3-1.02l-.29-.22.46-.31-.46-.08c.2-.34.32-.59.77-.54-.12-.61-.36-.25-.6-.56v-.82s.44-.08.44-.08c-.24-.26-.09-.63-.16-.9-.03-.12-.26-.11-.27-.13-.06-.15.35-.38-.17-.51.47-.62-.01-1.15,0-1.36.02-.31.5-1.36.55-1.74.09-.68-.26-1.15-.27-1.22-.04-.3.38-.67.05-1.43-.15-.34-.65-.13.1-1.06l-.3-.29c.76-.75,0-1.76.03-2.79.03-1.41-.05-2.67-.06-4.01-.01-1.54.09-2.71.16-4.16.03-.49.11-1.24-.44-1.39.76-.69.08-1.38.17-2.31.07-.74.26-1.41.34-2.31.03-.33.48-.87.43-1.32h1.07Z"/><path d="M45.02,28.03c.89.56.63,1.27.72,2.01.03.23.27.41.27.63,0,.04-.64.31-.47.7h.46c-.36.78.13.76.16.88.1.43-.45,1.69-.15,2.72.04.13.3.11.3.2.01.28-.24,1.11-.31,1.45h.47c.09.45-.44.98-.46,1.04-.19.64.17,1.51-.31,1.97l.62.23c-.18.47-.06.62-.62.69l.46.46-.46.23c.38.47-.05.94.62,1.15-.69.49-.46,1.43-.78,2.15l.32.17c-.55,1.03.38,2.13-.15,3.25l.3.14c-.56.51,0,1.19-.02,1.71s-.53,1.22-.38,2.07c.13.76.65.81.54,1.93-.13,1.34-.4,1.98-.19,3.43.19,1.32-.28,2.73-.11,3.66.02.11.3.09.32.21.04.21-.12.48-.08.69.09.48.48,1.12.39,1.75l-.47.08-.02.75c-.79.28-1.44-.2-2.21-.28-.53-.74.07-1.91-.85-2.18l.3-.53-.45-.25c-.04-.06.4-1.29.39-1.45-.02-.28-.33-.43-.37-.65-.03-.17.43-1.07.44-1.52s-.31-.82-.28-1.04c.03-.25.39-.66.38-1.15-.01-.66-.56-.83-.56-.88.03-.47.53-.45.4-1.22-.05-.3-.58-.47.06-.65-.64-.76-.11-.96-.21-1.57-.04-.28-.25-.51-.25-.74,0-.18.33-.57.27-.77-.02-.08-.22-.08-.27-.2-.25-.62.18-.67.23-1.1.02-.19-.28-.45-.26-.86.03-.63.82-1.75.02-2.16l.29-.14c-.18-.68.24-1.34-.27-2.02l.43-.24c-.3-.67-.16-1.25-.14-1.91.03-.93.17-.74.27-1.26.03-.15-.02-1.67,0-2.1,0-.22.06-1.42.02-1.48s-.38-.07-.42-.26c0-.88.47-.59.6-.69.03-.02-.2-.39-.16-.68.03-.21.28-.4.28-.48,0-.13-.38-.3-.41-.48-.03-.15.21-.3.22-.44.08-1.04.04-1.32.23-2.19.05-.23-.16-.96-.11-1.23.09-.48.51-1.55,1.03-1.68.19-.06.28.05.42.14Z"/></g></svg>