<?xml version="1.0" encoding="UTF-8"?>
<svg id="Layer_1" data-name="Layer 1" xmlns="http://www.w3.org/2000/svg" viewBox="0 0 179.4 113.03">
  <defs>
    <style>
      .cls-1 {
        fill: #fff;
      }
    </style>
  </defs>
  <path d="M57.1,10.12c1.29-.58,2.08.61,3.41.7.99.07,2.01-.8,3.07-.57,1.19.26,4.17,3.33,4.07,4.66-1.57,2.41-4.13,3.35-6.33,4.76-.4.25-.47,1.12-.57,1.16-.74.3-1.83-.83-2.32-.46-.21.16-.22.93-.51,1.12-1.32.89-2.35.86-3.09,2.6l-.97-.31c-1.41-3.82-5.69.75-7.58,2.53l2.52,1.96c-1.66,3.48,1.45,6.64.05,10.06l.91.83,1.59-.49v2.14c-.89.01-1.1,6.34-1.04,7.68.13,2.9,1.81,5.02,2.16,6.36.3,1.16-.45,5.91-.39,7.66.05,1.56.98,2.95-.03,4.43l1.19.28-1.28,2.21,2.5,3.9-1.2,1.49,1.2.27c-1.24,2.49.03,5.31.63,7.71.19.75-.09,1.65.08,2.36.09.38,2.45,1.01.88,2.35-2.84-1.04-2.82,1.38-3.82,1.77-.53.21-1.52-.38-2.16-.26-1.45.29-5.02,1.95-3.94-.77l-3.07-4.52-1.16.56c-.3-1.65-1.62-3.28-1.85-4.88-.33-2.33,1.79-4.31-2.64-4.59l1.26-1.25-1.27-.4c.43-.97.52-3.73.89-4.41.49-.91,1.79-.78,1.65-1.22-.09-.28-.87-.67-1.01-1.54-1.19-7.43-2.63-15.36-1.69-21.81.25-1.73-1.9-2.96-.46-4.86h-2.54c1.15-1.44.51-3.43.83-4.67.4-1.54,2.38-1.57.48-4.57-1.68.36-3.67-.68-4.88-.71-3.2-.1-4.7,4.35-8.48,4.24l.65,1.89h-4.42s-1.03,2.48-1.03,2.48c-2.56,1-1.92-2.06-3.41-1.19-1.43,2.86-1.94,4.53-5.72,3.79l.64,1.26-6.05-.55-2.83-8.62c.78-1.15,1.43-.9,2.51-.34.22-4.79,4.92-.03,5.52-5.76l2.74.06c-2.32-4.74,6.41-4.04,9.52-5.08l-.52-1.15c2.98-.79-.12-3.25,3.66-3.26-.38,4.31,3.1-.21,4.52-.96.78-.42,4.84-1.56,5.71-1.93,1.82-.77,5.19-3.05,6.79-3.35.92-.18,3.56,1.34,6.11.56l.37-1.95c.9.75,3.5.26,4.29-.26.69-.45-.86-1.72,2.35.27l1.05-2.49c2.33.16,2.58.61,2.49,3.09Z"/>
  <path d="M85.45,32.47c.14.06.23.84.63,1.1.88.59,4.4,2.58,4.54,2.98.28.84-.48,7.7.01,10.06.14.67,2.09,3.09,1.97,4.47l-1.29,1.22,2.53,1.6-1.27,2.22c2.42.63.3,2.8.32,4.16.05,2.48,1.9,4.4.94,6.93h1.91c-.92,2.44-.32,5.51-2.54,7.3l1.26.63-1.9,2.22c2.4-1.11,1.63.12,2.13.4,1.45.8,2.44-.57.67,2.18l-3.43-1.3.64,1.89c-1.84-.81-2.33,1.74-2.82,1.81s-4-1.95-4.37-2.4c-1.02-1.26.36-2.43-1.56-1.46-.22-1.39-2.35-1.95-2.6-2.8-.2-.69.51-1.72.29-2.77-.56-2.66-1.33-1.26-1.06-5.41.02-.35-1.67.01-1.21-1.86.06-.23,1.18-.25,1.29-.73.28-1.24-1.37-5.08-1.96-6.71-.43-1.17-1.69-6.97-1.6-8.4.06-1.07,2.71-2.95-.25-3.8,2.49-4.99.07-5.93,4.36-10.87.75-.87,1.62-3.92,4.38-2.65Z"/>
  <path d="M164.2,1.26L166.71,0c1.04,1.48,1.36,3.9,1.98,5.2.54,1.14,1.05,2.28,1.63,3.54s2.11.04.84,2.67h1.91s-.57,2.26-.57,2.26l1.82,1.87-2.53.96c-.23,1.41,1.92,2.75,1.94,2.94.13,1.55-1.81,2.44.64,3.1-1.29,3.21-2.6,7.68,2.5,6.64.64,4.31-1.36,5.79-2.68,9.06-1.29,3.2.98,3.25-4.65,4.91l-5.56-4.44c-.21-2.33-1.77-1.69-2.15-2.11-.42-.47,0-1.82-1.34-1.84-.15-.4,1.7-3.25,1.77-4.03.02-.27-1.09-.18-1.23-.72-.38-1.41.17-3.21-.76-4.86-.49-.87-1.78-1.01-1.76-1.33.07-1.63,1.45-5.74,1.27-8.29-.12-1.72-2.17-1.04-1.97-2.51,3.26-3.3.49-6.63,3.2-10.18-1.01-.51-1.56.02-1.27-1.55l4.15-1.27.3,1.26Z"/>
  <path d="M176.1,65.49c.16.05,1.82,1.9,2.6,2.13l.7,6.56c-2.94-.58-4.02,3.14-6.33.64v2.12s-1.91.41-1.91.41c-.26-.71.7-2.25.56-2.46-.12-.18-2.25-.69-1.83-1.33l1.9-1.59c-1.89-2.44-2.05.35-2.2.32l-1.57-.68-.02-1.86c2.51,1.05,2.93-3.83,3.9-4.37.18-.1,4.01.04,4.21.11Z"/>
  <g>
    <path d="M134.83,26.24c.37.27-.01,1.23.51,1.02.28-.11.65-.82,1.24-.94,2.79-.54,5.46,1.1,7.65,2.84l1.25-1.26c2.18.84.78,3.31,1.21,3.83s1.6.35,2.12.8c1.82,1.6,2.47,6.81,3.95,8.85.59.82,2.14,1,2.31,2.01.29,1.68-.55,3.91-2.28,4.48l1.89.97c-3.15,3.06-.61,3.55-.27,5.66.14.84-.95,1.33-.9,2.15s1.35,1.92,1.14,2.29c-.07.13-1.81.93-2.44,1.71-1.7,2.12-3.52,7.03-5.93,8.38-.47.26-1.2-.66-1.76-.24l-.79,1.78-8.61,1.01-.42-1.75-2.77.52c-.31-1.04-.63-1.96-1.35-2.81-1.72-2.05-2.61,1.98-2.48,2.15.14.19,1.21.22,1.52.69,1.73,2.6-1.51,3.02-1.56,3.5.75,1.65,2.59,5.05,2.85,6.63.18,1.1-.93,1.83-.94,2.89,0,.43,1.59,7.91,1.75,8.31.49,1.23,1.94,1.39,1.98,1.82.04.54-1.34,3.57-.6,6.22.2.73,3.34,1.35,1.45,3l-1.44.61,2.5.72.04,2.45h-2.55c1.26,2.77-.25,2.43-1.52,3.87-1.11,1.26-.18,3.21-3.86,2.49-1.72-.34-1.54-1.74-2.53-2.62-.24-.21-4-2.15-4.58-2.65-.4-.34-1.42-2.78-1.48-3.35l1.3-1.22c-3.63-2.83-2.19-8.3-1.89-12.36l-1.91-.03c.98-1.63-.28-3.66-.36-4.74-.11-1.61.56-6.15.19-8.1-.31-1.58-2.06-2.09-2.36-3.95l1.89-.32-1.91-.64,1.27-5.7-1.16.54-1.36-2.12c.38-.68,1.68-.64,1.86-1.36.31-1.27.34-10-2.5-7.19-.84-1.63.25-2.5.4-3.81.35-3.05,1.03-5.5.09-9.21-.09-.33-1.63,0-1.11-2.47.42-1.97,2.08-1.79-.01-4.47.21-1.14,7.03-1.82,7.53-2.32.16-.16.45-3.65,1.49-4.21.76-.41,2.06.07,3.09-.44.55-.27-.18-1.83,1.22-2.53,3.17-1.59,6.1,1.39,8.53-2.07.55.09.96.38,1.4.7ZM141.37,53.89c-.8-1.97-2.32-5.22-2.52-7.31-.09-1,.74-2.07.52-3.03-.57-2.54-10.9-5.56-12.08-1.22l-1.13-.49c-.39.29-.72,9.03-.64,9.77.18,1.6,1.76,4.22,2.27,5.9.62,2.05-.53,5.67,3.03,5.82,2.61-4.1,1.15-2.34,4.3-2.78,1.1-.15,1.4-2.51,3.71-1.58l-.63-4.41,3.16-.67Z"/>
    <path class="cls-1" d="M141.37,53.89l-3.16.67.63,4.41c-2.31-.93-2.61,1.43-3.71,1.58-3.15.44-1.69-1.32-4.3,2.78-3.56-.14-2.41-3.77-3.03-5.82-.51-1.68-2.09-4.3-2.27-5.9-.08-.74.24-9.48.64-9.77l1.13.49c1.18-4.34,11.51-1.33,12.08,1.22.21.95-.62,2.02-.52,3.03.19,2.09,1.72,5.34,2.52,7.31Z"/>
  </g>
</svg>