<?xml version="1.0" encoding="UTF-8"?>
<svg id="Layer_8" data-name="Layer 8" xmlns="http://www.w3.org/2000/svg" viewBox="0 0 841.56 611.91">
  <g>
    <path d="M238.28,395.27c-1.63.25-1.04-2.32-.94-3.34.3-3.14,1.82-5.99,1.91-9.15l-1.73-.29c2.64-4.78,3.59-10.9,8.46-14.16,0,2.61-3.46,4.91-3.64,7.38-.12,1.59,1.54,2.6,1.27,4.23-.67,4.09-4.94,10.62-5.34,15.33Z"/>
    <path d="M433.66,392.39c-.08-.15-1.73.58-2.47-1.83-.3-.99-1.36-5.04.53-4.9-.81,3.36,2.01,2.96,3.35,4.82,2.01,2.79,3.17,7.12,2.92,10.57l-3.37-7.69v20.21h-.96c0-3.06.52-20.25,0-21.17Z"/>
    <path d="M420.2,453.98c-.82-5.09,2.27-9.96,5.75-13.47.33,4.62-2.38,10.25-5.75,13.47Z"/>
    <path d="M290.27,457.83c3.76-.72,1.2,6.06,1.97,8.23l-1.97,11.02v-19.25Z"/>
    <path d="M426.81,392.32c-.34.34-2.31-.24-2.67.11-.77.76.99,4.01-1.05,3.8l.96-15.39,2.64,6.48c.19,1.14.65,4.47.11,5Z"/>
    <path d="M421.15,438.59c.93,5.26-2.07,9.2-5.76,12.51,1.24-3.45,2.56-6.76,3.74-10.25.5-1.49-.84-2.75,2.02-2.25Z"/>
    <rect x="408.56" y="409.92" width="19.71" height="1.45" transform="translate(-89.28 703.8) rotate(-74.47)"/>
    <path d="M261.39,400.1l-4.8,18.27c-.26-5.35.66-11.21,2.63-16.16.58-1.46-.57-2.61,2.17-2.11Z"/>
    <path d="M306.62,472.26c-1.92-.57-.94-5.53-.7-6.97.49-2.97,1.77-6.8,2.89-9.63.4-1.02.28-2.87,1.66-2.64-.92,6.52-4.69,12.43-3.85,19.24Z"/>
    <path d="M296.03,483.81l-.94-9.12c1.16-2.91.09-8.32,2.86-10.11-.92,6.38-2.37,12.74-1.93,19.24Z"/>
    <path d="M284.48,455.9c-1.6.25-1.03-2.32-1-3.4.09-2.98.58-7.59.98-10.58.2-1.44.13-2.96,1.94-3.34l-1.92,17.32Z"/>
    <path d="M422.12,437.62l6.72-15.39c-.91,5.2-2.71,11.71-6.72,15.39Z"/>
    <path d="M428.84,432.8c-1.79.23-.71-1.94-.53-2.93.58-3.14,1.28-6.47,1.98-9.59.24-1.06.01-3.11,1.44-2.87.28,5.29-1.46,10.39-2.89,15.39Z"/>
    <path d="M418.95,425.79c-.14.22-3.31,2.42-2.6-.19l6.72-13.01c-.81,3.7-2.11,10.1-4.11,13.19Z"/>
    <path d="M410.55,381.8l-3.83-17.32c1.85.33,1.59,2.01,1.96,3.32,1.22,4.27,1.95,9.53,1.87,14Z"/>
    <path d="M348,333.69c.42,2.79-.56,1.7-2.4,1.91-3.94.46-8.07.69-12.03.96l14.43-2.87Z"/>
    <polygon points="271.01 457.83 270.17 452.66 272.93 441.48 271.01 457.83"/>
    <path d="M195.94,276.89c-2.05.05-.34-3.49-.03-4.37,1.36-3.95,3.93-8.49,6.3-11.96,2.81,2.06-1.77,5.38-2.92,7.65-1.41,2.78-2.79,5.59-3.35,8.69Z"/>
    <path d="M206.55,314.43c.89-5.38,5.57-9.29,9.61-12.51l-9.61,12.51Z"/>
    <path d="M312.39,233.61l-15.38,3.84c-.47-2.67.55-1.63,2.1-2.17,4.23-1.49,8.89-3.61,13.28-1.66Z"/>
    <path d="M245.03,216.28c1.78,1.46-1.95,2.34-2.33,2.86-.31.43.31,1.56.11,1.74-1.18,1.09-4.67,2.94-6.44,3.08,2.92-1.58,2.05-3.68,3.76-5.3.82-.79,4.05-3.07,4.89-2.38Z"/>
    <polygon points="279.67 208.58 260.44 210.49 268.62 208.58 279.67 208.58"/>
    <path d="M259.46,227.82l-13.47,6.72c2.74-3.71,8.87-6.59,13.47-6.72Z"/>
    <path d="M218.08,338.49l-1.5-2.9,4.39-8.64c.97,4.48-2.75,7.29-2.89,11.54Z"/>
    <path d="M415.38,501.13l5.76-7.69c-.78-.84-4.74,6.19-6.72,4.34l11.53-13c-1.27,7.27-2.41,14.23-10.58,16.35Z"/>
    <path d="M431.75,482.85l7.68-14.43c-.73,5.68-3.29,10.76-7.68,14.43Z"/>
    <path d="M337.42,244.19c-2.2,3.78,1.13,2.34,1.52,4.72.42,2.59-.99,4.76.4,8.29,1.03,2.6,4.28,2.91,3.84,6.23-1.65-1.83-4.37-3.55-5.15-5.91-.71-2.15-2.12-8.61-2.49-11-.3-2.01-.48-2.71,1.87-2.33Z"/>
    <polygon points="331.66 254.76 335.49 251.88 336.45 259.57 330.89 255.53 331.64 251.88 331.66 254.76"/>
  </g>
  <g>
    <path d="M455.79,417.41l-1.92-8.17-1.91-3.37c1.24,7.07.96,13.22-.47,20.24-.21,1.04-.06,3.11-1.45,2.85.55-11.32,1.11-22.37,0-33.68,1.62.27,1.72,1.88,2.19,3.09,2.17,5.69,3.33,12.94,3.57,19.04Z"/>
    <g>
      <path d="M296.04,191.25c-.6,11.97,2.73,9.43,10.84,12.74,5.11,2.08,12.32,4.67,16.98,7.08,5.58,2.89,14.09,10.99,18.88,12.89,2.31.91,1.56-5.81,1.42-7.2-.6-5.75-3.39-8.31-4.62-12.71-1.68-6.05,4.59,1.51,5.61,3.05,5.22,7.89,5.64,19.57,8.22,23.54,2.05,3.15,10.93,7.83,12.6,12.64,15.24-6.39,30-.8,45.09-.08,11.24.54,16.96-5.5,26.77-9.78,7.84-3.42,16.53-6.01,24.09-9.59,5.39-2.55,11.58-8.8,17.03-7.12,2.24.69,12.97,7.66,13.32,9.8.69,4.22-11.81,8.46-15.05,9.73-5.58,2.19-37.6,11.73-38.65,15.31-2.48,8.39,23.22,13.96,28.78,15.26,3.46.81,11.81,1.18,13.78,2.34,3.97,2.33,7.85,20.59,9.88,21.09,2.43-1.74,15.21-1.27,15.78-1.83.19-.19.39-3.8.95-5.31,1.73-4.7,10.7-18.1,14.42-21.19,1.28-1.06,2.14-1.68,3.92-1.37-2.4,3.17-5.17,6.13-7.34,9.49-.88,1.37-5.83,9.75-5.94,10.4s3.28,7.32,3.63,7.56c1.84,1.26,15.97.16,19.75.46,5.66.46,12.49,2.32,17.82,4.31,1.25.47,3.16,2.35,3.37,2.35,1,0,1.87-2.7,2.36-3.13,2.77-2.45,4.38.51,1.02,2.72,31.13,13.29,51.19,43.92,58.22,76.5,4.9,22.74-.1,41.61-9.95,62.25-23.86,50.05-96.84,75.31-147.76,54.07-6.67-2.78-10.7-7.49-16.96-10.44-13.2,24.31-34.58,39.5-62.22,43.18-75.13,10.01-135.42-16.72-147.47-96.73-.79-5.26-1.3-24.8-2.96-27.59-.81-1.35-5.55-3.13-7.27-4.52-25.3-20.49-40.51-65.88-38-97.67,3.95-50.05,56.1-99.6,107.78-92.88,1-1-2.1-10.55,1.92-9.63ZM285.45,204.72c3.05.35,5.79.05,8.65,1.92-.16-1.06.68-2.68-.64-2.87-3.91-.57-7.88-1.23-11.86-.97-.16,1.84,2.31.55,3.73,1.09.23.09.05.78.11.82-5.92-.68-11.37-1.48-17.37-.53-27.09,4.27-72.89,46.88-76.71,74.41-.39,2.83.46,5.06.22,7.12-.38,3.17-2.86,7.44-3.32,11.89-.34,3.28.19,6.78,0,10.08l2.89-13.46,1.9,3.84c.53-2.72-1.2-5.32-.79-7.93.31-1.94,4.11-11.89,5.14-14.19,1.77-3.96,4.79-8.87,8.16-11.56-.55,2.88-2.93,5.03-4.32,7.69-.6,1.15-3.51,6.6-3.66,6.98-.62,1.64-.85,6.79-1.64,8.9l5.36-9.08,3.3-1.98c-2.17,6.38-9.07,10.8-7.68,18.28,1.55.1.96-2.05,1.87-3.4.41-.6,2.66-2.67,2.92-2.37l-3.85,8.17,2.9,1c.43,2.17-1.82,4.67-1.92,5.8-.04.42,1.89.37,1.99,1.02.26,1.73-1.96,5.63-1.02,8.08l6.32-10.5,3.29-1.99c-2.99,5.12-8.93,11.75-9.65,17.78-.12,1-.51,2.68.98,2.41,1.23-4.05,2.72-9.4,5.78-12.5.33,3.14-3.24,6.89-3.85,9.16-.14.53,1.96.41,1.98.95.02.43-4.24,11.44-.07,7.21.33-.33,2.24-6.71,3.39-8.68.36-.62.78-3.54,2.39-1.89.4.41-5.25,8.21-3.84,10.58l3.36-2.88c.94,2.94-2.64,6.46-3.37,9.61l5.3-5.76c1.03,2.14-3.89,5.45-1.44,7.69.95.87,3.44-6.21,3.82-2.42-2.82,5.29-6.79,10.48-5.75,16.86l3.09-8.92c.61-1.31,2.47-3.73,3.63-2.15-1.77,2.68-3.71,6.38-3.86,9.63-.09,1.92.19,1.51,1.93,1.45-.71-6.02,2.98-5.31,5.77-8.67.37,1.77-2.99,5.33-1.91,6.74.09.12,2.61-1.03,2.7-1.15.42-.63.19-3.25,1.06-5.19.76-1.69,4.18-5.32,5.66-6.85.94-.97.95-2.73,3.08-2.2-1.8,3.09-8.93,13.85-8.73,16.76.03.39,3.5,2.02,3.43,3.44l8.18-13.47-5.76,14.44,6.72-8.66c-.23.1-3.39,12.33,0,8.66.22-.24.99-4.14,2.12-6.07.86-1.46,2.07-3.31,3.11-4.62.43-.54.87-3.38,2.48-1.81.45.43-4.19,6.15-4.58,7.44-.27.91-1.12,5.12.72,5.06-1.24-6.55,2.54-4.66,2.77-4.94.3-.37,1.14-4.15,2.24-5.94,3.46-5.62,7.74-10.97,12.81-15.1,1,3.97-7.96,6.53-6.75,11.54,4.38-5.9,10.41-11.26,14.92-16.84,1.3-1.6,2.99-8.17,4.33-3.37l5.78-5.77c.95-.36,0,2.26.95,1.92,1.96-.71,5.94-8.25,8.67-9.62.85-.31.16,2.14.94,1.93,5.72-1.54,8.46-8.31,10.14-13.47,1.78-.22.84,2.01.51,2.91-.84,2.31-2.53,4.39-3.41,6.69,1.94,1.82,7.08-7.72,8.18-8.65l-3.86,10.58c2.62-1.43,6.13-9.74,7.72-10.58.43-.23,1.64-.19,1.43.47l-3.37,8.18,6.75-8.65v3.84s3.85-4.8,3.85-4.8l-2.9,8.65c7-6.2,7.69-13.72,10.12-22.12l.96,12.5,3.37-3.84.72,1.45c6.24,1.45.41-2.35-.24-3.87-.49-1.14.29-1.92,1.42-1.42,2.74,1.2,7.87,7.95,10.61,8.65l.96-1.93,2.4,1.93v-7.69s-.97,4.8-.97,4.8c-2.02.21-.45-3.19-.96-3.84-.25-.33-2.38,1.4-2.88.95,4.42-5.23,1.91-6.8.95-12.5-1.75.81-2.01,3.58-3.28,5.4-.92,1.32-2.48,2.86-4.41,2.28,1.63-2.02,2.37-7.1,4.78-4.82l.99-5.76-6.72,6.74c-.33-2.11,1.95-2.97,2.45-4.78.35-1.26-.6-2.6-.06-3.84.86-1.99,4.63-2.89,4.33-5.81-.23-.24-4.88,3.49-5.21,3.93-1.51,2.03-1.71,8.27-4.4,6.19l4.79-11.08-7.69,8.65,6.73-11.54c-4.15,1.41-4.77,5.21-7.68,7.7l2.88-6.73-2.88.95.95-2.88c-7.52-1.08-1.96,5.04-6.74,8.18.82.97,2.43-.11,1.92,1.9-1.66,1.54-3.33,2.78-2.87,5.31,2.57-2.09,1.64,1.18,2.39.95,3.05-.93,1.88-4.66,4.33,1.92-19.43,3.13-24.96-13.09-13.47-27.41,1.66-2.07,4.49-3.04,4.8-3.39,2.2-2.5-3.45-1.24-2.88-2.86l8.65-.02-1.43-1.92,8.17,1.46-7.69-3.86,2.88-1.43-4.8-.99c.83-3.06,6.47,1.23,6.72.97l-4.06-6.11c-2.58,1.03-8.8-2.73-9.28-2.38-.21.16-.02,1.91-.58,1.76-1.07-.27-3.48-2.36-4.85-2.88-2.63-1,.74,3.31-1.89,1.9s-5.83-4.32-8.68-5.76c-1.35.42.88,2.55.48,2.87-.56.46-11.77-2.84-14.43-.96,1.16-3.37,9.55-1.14,10.58-1.92,1.01-3.92-4.36-.31-4.8-2.87,6.11.13,12.37-1.38,18.28-.02-.74-2.72-5.53-.92-3.38-3.83l2.42.47c-2.38-3.25-5.5-6.97-5.78-11.07-9.18,2.16-18.57-1.04-27.89-.97.29-1.69,5-1.07,6.3-1,4.94.26,9.81,1.7,14.87,1,.04-1.17-1.4-1.02-2.88-1.92ZM308.56,209.53l-8.18-4.81c-.86,4.4,7.62,7.76,11.03,9.18,1.76.74,3.93.14,5.78.95.5.22,8.42,6.24,8.68,6.73.23.43.19,1.64-.47,1.43-2.79-1.33-5.38-4.24-7.93-5.55-1.82-.93-4.04-.88-5.93-1.77-.8-.38-9.46-6.59-7.8-2.79.42.96,6.09,7.41,7.2,8.2.8.57,6.55,4.4,6.93,4.58,3.81,1.85,10.52.7,14.46,3.87l7.97,6.93c-.64-3.16,4.3-6.72,2.71-9.45-.43-.73-12.92-9.51-13.79-9.78-.5-.15-1.57-.27-1.42.46l9.61,8.67c.15.71-1.01.66-1.43.47-2.38-1.08-8.01-7.54-10.78-9.53-1-.72-2.6-.28-3.21-.7-4.14-2.86-7.68-7.16-12.99-8.99l-.45,1.9ZM348.98,248.99c.38-11.89,5.72-25.31-2.89-35.61,2.53,7.09-.08,25.46-5.76,30.34-2.46,2.12-2.57-3.93-3.68-5.99-4.27-7.95-8.15-7.77-16.55-8.94,5.56,3.47,6.51,9.77,9.39,14.18,1.62,2.48,5.3,3.42,5.03,6.99-10.59-5.27-20.85-7.02-28.09,4.14-2.68,4.13-8.26,16.18-.78,17.99-4.28-10.74,8.66-17.15,17.8-16.37,3.98.34,14.67,5.29,16.16,8.96,1.09,2.68-1.17,11.52.37,16.87,1.32,4.56,5.95,8.5,9.93,10.75-1.45-6.59-5.92-11.16-2.1-17.99,2.9-5.18,3.75-1.69,7.3-2.24,3.11-.48,4.95-2.02,8.77-1.98,9.47.12,19.78,6.99,29.37,2.48-12.34,1.05-21.13-7.57-31.1-11.25-8.9-3.28-7.28.61-12.79,1.14-6.43.62-7.7-8.97-6.09-10.53.13-.13,2.52-.14,3.67-.62,4.19-1.76,8.58-3.63,12.63-5.71.28-1.2-5.67-7.46-7.69-7.2l1.92,1.93c.44,1.63-2.04.46-1.99,1.49.05.92,1.28,2.12,1.02,3.32-3.61-2.55-.49,2.78-3.83,3.84ZM474.09,218.2c-1.45,1.28,4.56,5.67,5.72,6.3.98.53,8.8,4.06,8.69.91-.04-1.06-12.74-8.69-14.41-7.21ZM477.93,226.85c-6.38-10.27-5.8-5.74-13.49-2.41-9.67,4.19-19.61,7.77-29.2,12.18-6.79,3.13-15.08,9.81-22.24,9.49-7.97-.35-17.65-3.46-26.03-3.84-15.54-.72-28.73,7.11-42.82,12.52.9,1.76.97,4.78,3.32,4.81,2.69.03,16.21-7.25,20.24-8.7,5.05-1.82,14.11-4.79,19.27-4.78,3.96.01,8.33,2.57,11.63,2.91,1.84.19,2.14-5.06,2.33.93l2.87-2.88.02,3.84,1.9-1.91c-.11,2.82.09,1.38,1.44,1.2,1.14-.15.24,2.65.51,3.6l2.88-2.87c-1.96,2.27,1,1.93.95,2.35-.26,2.12-4.12,4.83.01,5.8-5.81,6.73-3.78,17.19-4.94,25.88-1.93,14.48-7.84,31.92-14.91,44.76-1.61,2.94-4.44,4.71-5.18,7.8,3.19,2.87,11.64-12.54,12.68-14.73,9.09-19.17,10.87-35.5,14.5-55.76.4-2.22,2.31-4.74,2.44-6.18.18-1.98-2.08-3.09-1.71-5.12l3.36,3.84-.48-4.8,5.29,3.82-.48-5.75,2.89,4.8.46-4.8,2.9,4.8,1.43-2.88c-.04,4.72,3.81,2.97,5.31,6.73l1.43-2.88c.53,5.93,2.66,2.62,3.9,3.34.94.55,1.25,2.97,3.55,4.18,1.93,1.01,4.05.29,5.1.77,3.26,1.5,5.25,6.25,11.52,4.23l-1.91,1.9c2.55-.22,5.04,1.75,7.32,1.92,4.69.36,1.89-1.5,5.9.94,10.59,6.46,8.11,6.34,12.28,17.36,1.09,2.89,4.26,4.87,3.36,8.66l-2.86-2.42c4.07,10.48,10.34,19.57,16.34,28.95.4.22,2.79-.43,2.89-.54.99-1.18-12.63-23.87-13.16-27.74-2.07-5.19-6.79-24.07-9.48-27.1-3.87-4.36-14.58-3.38-19.75-4.31-6.83-1.22-26.11-9.8-28.82-16.42l4.79-3.84-2.86-2.4,4.82.95-.48-1.93c1.08-.02,3.63,1.55,4.31.97,2-1.7-4.12-2.61-2.87-4.81l2.78.49c-2.31-4.32,4.98,2.31,5.86,1.43,1.16-2.31-4.75-2.9-2.87-4.81.38-.38,4.89,3.8,6.73,2.88l-3.37-4.8c.68,1.02,5.99,4.1,6.25,3.84,1.75-1.76-4.15-3.11-3.84-4.8l7.71,2.87-.47-1.94,3.35.5-3.84-3.36,7.69,2.87-4.8-5.77c2.31.86,4.07,2.91,6.44,3.66.85.27,3.44.9,3.16-.76l-4.8-2.89,7.69,2.87c1.07-4.55-4.43-2.36-4.8-6.72,3.67,1.93,2.61-.65,3.34-.82.64-.14,4.86,1.18,5.32.8ZM310.47,225.91c-.39-.4-5.56-1.5-6.26-3.86-.75,3.78-4.27.03-7.21.97l13.01,4.79c.82.13.53-1.82.46-1.89ZM363.4,245.14c1.52-3.55-9.59-12.64-10.58-11.54-1.57,1.74,5.79,8.44,7.21,9.62,1.08.9,1.55,2.33,3.37,1.92ZM399.97,305.77c2.18-9.38,5.08-19.75,5.77-29.36.26-3.56.59-18.29-.48-20.66-2.98-6.6-23.89-6.27-30.3-4.82-.43,1.66.68,1.92,1.43,2.89,1.68,2.17,12.09,15.46,13.03,15.89,3.56,1.64,6.23-1.44,8.98-2.59,4-1.68,1.42,3.41.07,4.91-1.58,1.76-6.15,2.95-6.2,5.31s4.47,9.63,4.55,12.83l3.15,15.6ZM385.54,269.2c1.45-1.43-6.32-10.51-7.72-12-1.76-1.88-3.98-5.01-6.71-5.31-1.38,1.64,4.38,9.43,5.73,10.84,1.01,1.06,2.74.89,3.94,2.07.87.86,2.37,6.74,4.75,4.4ZM478.9,292.3c0-3.63-2.26-11.48-5.48-13.28-3.78-2.11-13.48-3.53-18.56-5.5-6.64-2.57-25.07-13.57-30.83-12.6-.9.15-5.42,1.95-6.04,2.45-1.93,1.56-3.93,20.86-4.83,25.26-3.09,15.1-7.46,29.16-14.11,43.06,7.33,5.7,13.22,2.37,21.14-.43,4.87-9.23,11.88-17.8,20.31-23.96,2.11-1.54,10.56-5.6,11.01-6.33,1.38-2.22-1.74-11.99-.5-15.41,2.18,1.18,1.74,4.84,3.01,7.08,4.67,8.27,17.3-2.47,24.89-.35ZM314.32,261.5c-4-.3-8.85,11.48-4.32,11.53.62,0,5-10.63,4.32-11.53ZM380.72,285.56c3.15-3.77-.71-8.53-4.8-9.61,2.63,2.89,1.97,5.95,1.93,9.61,1.79.4.32-1.85,1.43-1.93s-.34,2.36,1.43,1.93ZM390.19,277.06c-.43-.27-5.35-1.17-4.64,1.27,1.65,1.74,3.66.28,4.58,3.11l5.04,19.99-2.89-2.39c-1.9,3.71,2.77,6.98,2.86,7.4.5,2.23-1.17,6.71.97,7.99,3.68-5-2.8-35.45-5.92-37.36ZM356.66,293.26c.94-5.43-1.1-9.63-4.79-13.47l.96,12.51,1.9-3.84,1.93,4.8ZM360.53,297.11c3.16-1.86.65-10.38-.02-13.95-.26-1.41,0-2.99-1.91-3.38-.99,6.37,1.1,11.29,1.92,17.32ZM518.23,300.84c-3.56-6.16-2.29-14.49-8.52-19.13-2.66,6.43,2.02,12.55,2.77,18.87.97,8.2,1.51,18.88-7.59,22.04,2.06,9.5,14.09-8.14,14.34-10.73.37-3.87-3.58-1.77-4.71.62l1.04-4.78,3.75.93v-6.73s-2.87.96-2.87.96l1.79-2.04ZM364.37,283.65c-2.51-.4-1.99.44-1.96,2.42.05,3.03,1.55,6,1.01,9.12,2.92,1.14,2.19-5.68,2.01-7.29-.24-2.08-3.1-.57-1.05-4.25ZM510.65,309.62c.37-3.36-.19-17.05-2.84-18.81-2.96-1.96-12.77.69-16.38,1.52,1.31,6.73.62,10.07,8.64,8.63-.28,2.53-5.32-.85-4.82,2.39.16,1.03,4.34,11.65,4.87,12.03.33.23,5.5-1.67,7.65.98l-2.87,1.9c2.52.98,3.15.7,4.79-1.43l-7.59-5.67c1.03-4.91,4.93-1.08,8.57-1.54ZM533.27,290.38c-5.44-.44-11.35.32-16.84,0,1.81,6.25,3.38,14.66,11.54,9.14l-6.73-.49c-.6-1.15,4.18-1.21,1.93-2.87-.49-.36-2.67.63-2.89-.48,6.82-3.24,19.47.27,26.2,3.44.79.37.79,1.89,1.28,1.9.39,0,6.92-2.64,7.16-2.95,1.54-2.04-6.01-4.44-7.19-4.83-4.06-1.34-10.28-2.52-14.47-2.86ZM331.64,294.22c-1.87-7.01-4.63.83-5.58,3.57-.53,1.53-2,1.49.3,3.17l2.41-7.7,2.87.97ZM485.63,305.76c-1.94-1.84-3.54-10.31-4.76-11.13-.61-.41-5.23,1.21-6.79.56l4.8.96c.15,1.3-3.73,1.88-4.47,1.92-.98.05-2.83-3.8-7.08-.96,3.31,4.63,9.16.65,13.46,2.89-.11,2.47-7.84-1.66-4.8,1.9.34.39,8.19,3.36,9.62,3.85ZM488.23,310.87c-7.68-8.02-19.87-6.87-28.15-10.83-2.63-1.25-3.5-3.63-6.2-3.89.49,6.59,6.91,12.99,13.46,13.46l-1.91-5.29c3.7-1.64,2.39,5.48,5.29,7.22l-.48-3.84,3.84,4.8,1.93-4.8-.95,5.77,2.87-4.81.02,6.73,2.87-3.84.02,4.8,1.91-1.92.02,4.8,2.87-2.88c-2.99,5.2,5.55,8.08-.05,11.97-4.96,3.44-9.25-.23-13.95-.46s-7.32,2.79-11.03,5.31l-21.16,19.73c6.1-2.57,11.41-7.68,17.43-10.95,11.51-6.26,16.47-7.32,29.29-7.15,1.11.01,2.21.45,3.19.94,3.35,5.3-8.41,20.63-12.35,24.42-3.18,3.05-9.35,6.95-13.49,8.17-.94,4.15,8.94-.53,9.97-1.11,8.5-4.81,9.24-12.47,14.56-19.12,2.05-2.57,14.62-14.28,17.16-14.22,1.69.04,16.05,4.4,17.53,5.54,5.28,4.06,8.91,13.19,12.55,18.25,2.32,3.24,6.56,6.3,9.07,9.68-3.44-14.77-16.07-23.9-24.82-35.14,1.8-2.83,5.57-3.06,7.53-5.74,2.34-3.2,3.23-9.66,5.73-12.56,4.86-5.64,15.6-6.79,20.23-12.96-9.85,1.99-21.98,5.42-29.8,12.06-2.33,1.97-3.71,5.4-5.91,7.56-2.53,2.48-8.6,5.79-10.22,7.58-2.07,2.29-1.31,5.88-7.74,3.39l-11.1-20.69ZM390.35,341.4c-.32-.32-6.24-2.44-8.18-3.87-6.35-4.69-10.49-11.56-10.12-19.69.3-6.61,4.25-13.22,4.35-19.77-4.21,6.11-14.29,16.96-6.26,23.08l-3.84.95c2.76.29,3.8,2.69,3.86,5.3l-1.95-3.35c-2.25.52.52,6.02,1.12,7.07,3.89,6.85,9.3,12.02,17.64,12.2.76.02,5.48.2,3.39-1.94ZM589.57,319.24c-6.77-7.22-15.95-18.51-25.99-20.73-4.68-1.03-7.27,3.05-10.58,5.82,2.38,1.83,4.97-2.7,7.07-2.27,2.52,2.91,6.86,3.27,9.51,5.61,2.47,2.2,2.37,6.25,7.48,5.78l-1.45-3.84,3.43,3.3,10.53,6.31ZM364.36,326.95c-1.87-4.31.52-9.43,0-12.91-.95-6.46-15.01-14.01-21.17-14.99,10.28,7.16,11.37,20.69,21.16,27.9ZM196.91,302.89c-2.75-.46-1.6.58-2.05,2.22-1.21,4.4-.83,8.66-.82,13.16l2.61-10.37.26-5.02ZM428.85,446.28c.04-4.61,3.77-9.15,3.86-13.95l-3.85,1.93c1.64-2.6,3.95-4.88,3.85-8.19l.96,3.84c4.13-2.43.88-8.31.92-11.98.07-5.93,4.45-12.6,4.81-17.48.24-3.28-2.24-7.19-1.93-9.39.09-.64,1.79-.53,1.96-1.24,1.43-5.71-2.72-4.47-5.19-6.2-2.21-1.55-4.53-5.23-5.64-6.39-.48-.51-1.92.03-2.71-.85-1.05-1.17-2.65-6.19-2.83-8.05l-1.9,3.84-3.39-8.65c-1.61,1.79,3.48,6.47.5,7.69-1.55-3.07-2.53-13.5-6.74-11.07,3.96,6.71,4.82,14.8,5.49,22.43.09,1.06,1.14,3.27-.68,3.08-1.07-3.16-.52-6.71-1.18-9.88-.39-1.87-1.93-3.26-2.37-5.16-1.4-6.14,1.26-3.54-3.6-10.03-1.91-2.55-2.62-5.16-6.32-6.68-.98,1.15,3.05,4.21,2.93,6.24-.03.47-1.97.46-2.02,1.03-.11,1.47,1.76,6.16,1.95,8.63.08,1.06.72,3.58-.94,3.34.21-3.86-1.24-7.45-1.82-11.18-.34-2.19,1.83-4.88-1.57-7.1l-1.43,1.91c-.25-2.88-2.32-4.92-4.35-6.73l-.95,1.92c-3.45-4.38-10.9-4.96-16.13-6.79-1.14-.4-.53-3-5.52-.91l2.88-2.87-6.73-.02,2.88-2.87h-5.77s.96,2.87.96,2.87c-3.97-1.68-6.74.34-10.58.96,2.06-3.7,8.12-1.52,9.62-5.76-1.18-.53-3.59,1.19-3.84.95-2.03-1.97,2.45-1.56,1.92-2.89h-13.47c-.1,0,.1-1.92,0-1.92h-15.4v-.96h17.32c-.67-1.44-5.23-2.25-6.68-2.45-6.91-.99-5.36.87-7.49,1.45-3.95,1.07-10.43,1.21-14.7,1.98l4.8,1.91-11.54,1.93c2.06-7.68,7.78-5.61,14.43-5.77l-1.92-3.84h15.88c1.04,0,4.93,2.97,7.21,1.91l-2.89-1.43,2.89-1.43c-3.57-.76-7.56-1.47-11.19-1.79-.68-.06-8.92,1.66-6.13-1.09s14.31,2.26,18.28.94l-9.61-3.83,11.54,1.91-.95-1.44-12.52-3.35c3.93-.53,7.54,1.08,11.28,1.71,1.95.33,1.69-1.27,1.22-1.71-.37-.34-8.26-2.89-9.62-2.91l3.84-1.9-14.43-2.89c4.09,1.64,4.93-1.94,5.24-1.91,2.27.22,8.33,3.45,10.64,4.78.83.13.54-1.82.47-1.9-.53-.57-12.87-6.13-14.2-6.5-14.6-4.08-57.26,6.02-68.09,17.07-1.59,1.62,2,.25,1.45,1.92-6.51-.33-7.53,6.28-10.3,8.73-3.45,3.06-8.31,5.2-11.67,10.16-8.25,12.2-14.04,32.85-13.62,47.52l1.93-1.42c-5.02,19.58,1.8,40.82,5.77,60.13,1.67.23.91-2.19.95-3.35.19-4.96-.13-9.97,0-14.93l-1.9.97c-2.19-7.22-1.62-13.83-.99-21.17l-2.89,1.43,2.91-17.79,1.9,3.84,4.81-9.61c-1.43,6.63-5.64,10.99-4.79,18.28l1.93-1.42c-1.6,6.09-3.86,11.24-2.89,17.79,1.41.05,1.43-3.42,1.64-4.6.31-1.78.25-3.52.29-5.31l4.79-4.51c-1.76,4.66-4.55,9.2-3.84,14.42l1.91-1.92c.48,3.46-3.74,9.72,1.94,8.66-1.74,4.1-1.08,9.74,0,13.94.34,1.33-.03,3,1.91,3.37-1.79-7.84-.52-19.79,4.81-25.98-.02,3.18-3.84,9.45-3.84,12.03v17.8l1.88-12.07,1.96-3.33c-1.23,6.46-2.67,11.17-.95,17.8.35,1.33-.03,3.01,1.92,3.37v-14.44h.96v17.8c0,.29,1.97,4.55,2.4,5.34.36.66.88,3.51,2.41,1.87.31-.34-2-6.41-1.87-9,.08-1.49,1.15-6.6,2.82-7.34-.42,5.11-.82,9.57.25,14.67.43,2.02,1.78,6.26,3.6,7.45.44-3.91-2.75-8.34-2.44-12.06.1-1.21,1.25-2.34,1.46-3.86.23-1.75-2.2-4.29.99-5.25-.37,5.17.1,9.62,1.96,14.43l1.89-.96c-1.49,2.16,4.83,15.53,6.74,13.47.58-.62-2.73-7.34-2.85-9.25-.19-2.88,1.59-5.94.92-9.02l-1.91,2.88c-.05-2.04-.12-4.09.11-6.14.11-1,.38-4.52,1.8-4.44,1.31,5.6.64,17.63,3.48,22.07.47.73,1.89.94,2.35,1.69.18.29,3.42,9.67,2.83,4.64-.37-3.13-1.34-7.31-2-10.51-.63-3.03-3.77-5.02,1.04-8.27.09,5.24-.78,12.73,3.85,16.36l-.94-8.66c3.86,2.47,2.18,8.95,3.07,12.79.74,3.2,4.51,3.85,2.69,7.41,3.6.73,1.18-3.12,1.32-5.12.08-1.11.71-7.39,1.08-7.39,1.21,4.5-1.45,11.41,5.29,12.52l-1.91-6.74,1.92.48c.1-1.7-.27-5.72,1.91-6.25,1.44,4.82-1.42,12.65,2.89,15.39.09-2.4-.09-4.83,0-7.23.05-1.17-.73-3.58.95-3.35.12,5.3-.7,11.66,2.43,16.35,2.62.37,1.09-1.63.96-2.89-.97-9.7-.03-17.56,2.4-26.93,1.67-.25,1,2.25.85,3.26-1.38,9.43-2.82,10.61.98,20.45.53,1.38-.92,2.8,2.01,2.27-.95-7.75-1.19-16.39,1.66-23.84.47-1.22.55-2.83,2.18-3.1-1.75,6.26-4.14,12.59-2.87,19.24l5.75-12.5c-.68,4.53-3.09,8.43-3.74,13.09-.17,1.2-.96,5.92.85,6.15l.98-6.73,1.9,3.84,4.81-13.46c.12,5.55-3.54,9.29-3.87,14.9-.13,2.29.43,2.72,1.13.16.41-1.52.21-5.13,1.78-5.44.51,4.07-1.56,8.02-1.03,12.08.18,1.42,3.58,2.49,2.01,6.19,3.6.62,1.98-4.86,1.91-6.74l-1.93.48c.81-1.71.57-3.93,1.05-5.51,1.2-3.89,4.4-9.01,6.62-13.01,1.77-3.2,2.81-7.68,5.81-9.86-.86,4.84-14.14,25.37-10.57,28.87,2.79-.22,5.79-6.78,6.72-9.16,1.01-2.59-3.46.69-1.9-1.89,2.37-3.94,6.76-9.17,9.61-13-1.38,3.52-11.8,22.58-9.61,25.02,1.39.16,2.82-.6,3.79-1.49,1.64-1.51,1.21-3.85,2.92-4.26l1.94,2.39-4.8,5.29c3.38.49,5.24-2.28,7.68-3.84,1.07,2.92.37,3.38-1.91,5.3,3.93.93,7.09-4.87,10.11-7.22l.48,1.92,3.36-2.88c.87,4.85,4.02-3.58,6.74-4.81.39,5.34-6.91,8.2-9.15,12.5,3.16.28,8.33-8.31,10.09-8.4.77-.04,1.96,1.38,3,1.42,6.48.2,9.78-1.05,14.86-4.99,2.9-2.25,6.54-6.38,9.1-9.18,2.09,5.49,2.85-3.5,3.86-3.84,2.58-.04.33,3.36,4.31.95.31.35-.61,7.99-.69,9.37-.06.99-.97,2.99,1.16,2.17,5.63-2.16,9.1-9.18,12.96-13.03s10.75-6.03,11.59-11.98l-2.87,1.92-.49-2.88-15.41,17.31c-.75-2.25,1.78-2.43-1.47-3.37,2.74-5.22,7.49-9.36,10.14-14.91l-2.4,7.69c2.1-1.76,5.8-4.58,7.19-6.8,2.97-4.74,5.9-12.62,9.16-18.23,0,.66-.37,1.96.48,1.92,2.3-1.86,3.84-3.5,3.38-6.73l.96,2.88c3.79-2.67,6.44-7.83,6.72-12.51-2.03.61-2.06,3.03-3.26,4.47-3.39,4.04-5.02,4.38-8.27,9.97ZM453.83,302.92c-.57-.42-2.08.15-2.86.4-1.28.41-5.08,2.11-5.75,3.41l7.2-1.93-1.42,1.93c4.23,1.71,4.76-2.4,2.84-3.81ZM192.1,325.98v-16.84c0-1.42,1.97-2.8-1.92-4.33v19.73c0,.35,2.44,1.74,2.74,3.07s-.85,2.92-.61,4.4c.73,4.51,3.94,10.33,4.62,15.13,1.7.25.94-2.16.73-3.13-1.6-7.3-5.26-13.6-3.64-21.88l-1.92,3.84ZM529.9,306.75c-2.9.25-7.38-1.21-8.66,1.91l2.88.96-3.83,3.86,9.61-6.73ZM457.72,309.61c-.45-1.92-1.74-1.7-3.25-1.82-3.13-.24-10.9.47-13.63,1.76-2.59,1.21-17.12,16.15-15.84,17.38,3.37-.59,4.99-5.31,7.21-7.7,7.88-8.48,13.58-11.65,25.51-9.62ZM478.89,321.16c.28-4.24-8.59-7.3-12.34-8.34-6.94-1.94-15.01,1.56-22.31,1.62v2.88c2.33,1.36,9.43-2.9,8.67.96-6.52,1.26-13.54-1.32-15.4,6.73l16.35-5.76c.5,2.73-.64,1.58-2.11,2.17-3.3,1.32-6.91,2.04-10.2,3.36-1.46.58-2.6-.56-2.11,2.16,5.12-1.41,9.83-4.58,15.39-3.84-5.48,6.48,4.29,4.64,8.66,4.79l-.97-2.87c5.16-1.98,7.35-1.38,12.52-.02l-2.88-2.87,9.62,3.83-7.69-5.29,4.81.48ZM441.36,314.44c-1.04-1.05-5.9,4.35-6.76,5.26-3.1,3.27-6.27,8.85-9.68,11.49-4.01,3.11-11.7,4.42-16.27,7.31l9.61,2.86c-8.78,1.78-17.29-5.78-25.96.49,10.63,14.59,31.32-.08,39.42-10.61,4-5.21,5.32-11.78,9.65-16.81ZM576.09,321.17c-3.42-1.86-4.92-6.75-9.62-5.76l9.59,8.09,5.81.56-5.3-4.8-.48,1.92ZM598.23,343.31c4.39,2.71,2.55,5.49,4.41,8.62.44.73,1.84.83,2.63,2.22,1.77,3.16,2.26,12.64,2.7,13.15.35.4,2.77-.07,2.77.06v14.44c5.24.1.58-4.47.96-4.8.08-.07,1.79-.1,1.91,0,.78.57,4.38,14.99,3.85,17.32-2.58-1.64-1.79-6.44-2.6-9.46-.46-1.72.27-2.49-2.2-2.07.08,4.64-.57,9.23,1.03,13.69.26.72,1.69.4,1.92,2.13.4,3.09.16,9.29-2.94,11.12.23-2.54,1.45-4.79,1.81-7.33.14-1.01.82-3.5-.85-3.25l-15.4,47.15,7.33-9.49,3.23-8.78-2.86,1.46c3.44-4.43,3.63-9.71,4.81-14.93,2.69,1.49-.34,6.39,0,8.65,1.34-.12,1.54-1.38,1.96-2.36,11.83-27.92,3.59-71.02-15.9-93.91-2.39-2.81-8.63-4.65-11.11-8.13l-2.87-.98c1.6,2.59,5.47,4.36,7.14,6.33,2.12,2.5,3.43,8.03,4.88,9.63,1.06,1.18,2.55-.35,3.18.05,3.31,2.07,12.48,23.43,13.83,28.11.71,2.45,1.54,6.33,1.75,8.84.09,1.05.77,4.48-.94,4.31.01-8.24-4.03-15.9-7.06-23.26-.67-1.63-.45-3.72-1.21-5.53-1.86-4.48-8.41-8.75-11.48-12.58l5.3,9.62c-1.16-.72-2.5-1.8-1.9.45.82,3.02,3.38,9.06,5.74,11.1l-3.84-11.55ZM549.94,319.45c-.57-.33-2.58-.65-2.71.27,1.88.78,4.22,5.47,5.07,6,2.64,1.67,11.18,2.14,14.17,6.04l-6.25-8.66-.5,2.9c-2.7-.72-5.49-1.55-7.77-3.32-1.09-.85-1.69-3.04-2.01-3.22ZM384.68,329.73c1.28,1,5.89-.28,4.25-2.8-.79-1.21-12.35-7.31-13.02-6.71l3.37,5.76.95-2.88,5.3,3.37c-2.03-.03-2.03,2.34-.86,3.26ZM541.45,320.22c-.24,2.63,8,8.62,7.68,4.32-.04-.48-6.83-5.09-7.68-4.32ZM590.52,328.87c1.06-1.19-7.61-9.75-8.65-8.66-1.53,1.61,7.55,7.53,8.65,8.66ZM450.02,331.76c2.29-1.22,2.68-.7,2.89-3.84-1.01-.66-4.76,3.65-5.77,0l4.8-3.39c-1.53-1.51-15.01,5.05-13.47,6.25h5.77c-2.32.32-4.8,1.59-5.77,3.85,4.05-1.28,7.3-2.18,11.55-2.88-3.57,1.9-9.89,2.28-10.58,6.73l4.8-.95.47,2.87c2.7-3.15,7.06-2.29,10.51-3.93l4.42-5.68c-3.21-.08-6.48.45-9.62.96ZM376.87,325.02c-.07-.07-2.03-.36-1.9.47,2.62,4.27,5.69,11.16,11.54,8.18l-7.65-4.36c-1.49-.62-1.66-3.96-1.99-4.28ZM484.67,436.66v17.32h.95c.03-1.81-.2-4.3,1.93-4.81v14.92c0,2.28,2.76,11.95,3.97,14.32.95,1.85,2.12,4.69,4.69,4.44-1.81-4.3-5.78-9.46-6.69-14-.19-.95-.59-2.62.91-2.34.07,2.31,2.01,4.54,3.85,5.76.76-2.68-1.73-6.28-1.85-8.24-.02-.41,1.59-.25,1.82-1.09,1.73-6.31-.2-9.15-1.46-14.69-.22-.98-1.29-3.13.52-2.92,5.54,7.69-1.2,24.68,4.35,30.78,1.45,1.6,3.15.65,3.36-.5.29-1.59-4.58-7.84,0-7.2-.21,3.88,1.54,7.16,3.85,10.12,3.19.21,1.18-3.01,1.19-4.85,0-1.17.66-2.34.52-3.6-.3-2.72-3.43-5.17.2-4.55l3.85,12.5c1.33-5.08.5-8.6-.94-13.47,4.84,2.18.76,10.85,6.72,11.54-.29-11.58-1.12-23.18-2.41-34.64,3.14,3.4,2.37,8.3,2.42,12.5l3.83-5.77c.85,9.82-2.11,19.14-1.47,28.85.08,1.25-.74,2.39,1.47,2.91.32-8.83,3.1-18.46,1.94-26.94,2.67-.4,1.81.46,1.93,2.39.37,6.05-2.5,11.88-.96,17.8,1.37.21,1.5-2.65,1.65-3.63.95-6.32,1.72-14.58,1.22-20.89-.37-4.68-2.51-9.38-2.4-13.96,3.78,4.66,2.69,11.43,3.42,16.79.2,1.51,1.72,2.69,1.96,4.83.21,1.91-1.49,14.97-2.04,17.14-.09.34-3.6,3.45-2.86,5.97,6.26-.57,4.14-6.58,4.9-10.5,2.09-10.74,4.86-21.88,5.74-32.84.23-2.8-1.5-6.62-.03-10.06l1.9,12.03v10.09s-1.9-3.84-1.9-3.84l-1.93,19.24,4.81-4.32c-1.18,2.98-2.65,4.79-3.43,8.11-.24,1.01-1.4,4.9.52,4.86,2.94-6.95,8.68-13,7.7-21.16l-2.86,2.41,4.81-18.77c1.73-.22.93,2.15.83,3.24-.07.78-2.78,14.18.11,11.19.53-3.25,1.21-6.7,2.22-9.83.33-1.01.24-2.91,1.63-2.68-1.6,5.83.39,11.36.02,17.31,8.15-6.47,3.47-20.86,1.92-29.82l2.87,3.84.97-6.73v26.47c0,.46-2.34,6.87-2.68,8.88s1.19,1.74,1.71,1.22c.35-.35,3.73-8.69,3.82-9.18.58-3.11-.68-7.76.03-10.39.28-1.03,1.94-.53,1.94-.63v-17.32c1.76.36,1.8,1.89,1.96,3.33.77,6.73-2.15,26.55-4.79,32.82-1.42,3.38-5.48,7.64-7.29,11-.82,1.53-.5,2.65.96,1.93,2.99-1.48,9.41-17.15,12.59-20.1l2.35-30.9,1.55,7.05-2.51,24.7c.52-.67,3.77-3.22,3.8-3.48.07-.63-.83-1.78-.64-2.63.63-2.75,2.47-6.9,2.52-9.85,0-.48-1.78-.34-1.78-.8.04-3.59,3.38-8.31.91-13.07l1.92,6.73c1.71,2.21,3.38-4.74,3.58-5.55,1.52-6.18-.53-19.73-1.89-26.46-.82-4.09-4.11-5.49-4.58-9.36l2.87,1.92c.97-1.25-3.1-5.66.97-4.82.2,3.51.65,7.22,1.39,10.65,1.9,8.82,2.94,17.92,4.44,27.31.24,1.5,1.73,2.55,1.81,3.88s-3.68,11.64-4.56,13.69c-1.94,4.53-6.38,8.39-5.95,13.77,4.25-5.16,7.94-11.79,9.63-18.28l2.87,2.87c-1.41-4.16,1.12-8.59,1.04-12.97-.06-3-1.83-5.94-1.94-7.77-.02-.41,1.68-.31,1.85-1.05.58-2.5-.38-6.26,0-8.98l-1.92,7.69v-13.95c0-.81-3.36-4.04-3.67-5.97-.47-2.93,1.09-5.46-.74-9.83-2.45-5.84-11.23-6.83-5.69-14.51.22,3.82,1.6,12.46,6.25,9.61,1.68,2.58,1.43,15.71,1.93,16.36,1.72,2.22,1.69-2.5,2.87-1.91.36,2.4-.6,5.9.15,8.06.46,1.31,2.5,1.22,2.76,2.23,1.28,4.92-1.31,10.77-1.47,14.24s1.11,8.21.49,12.03c2.02-.81,1.31-4.51,2.24-6.42.53-1.08,3.91-2.73,4.46-5.63.81-4.21-.33-9.7-.93-13.93,3.47,2.01,1.12,6.79,2.57,10.39.44,1.09,2.04,1.03,2.21,1.83.43,1.96-1.11,6.19.97,7.03l.96-10.58-2.89,1.43,1.93-16.83-2.4,3.85-1.43-3.85-1.93,4.8c-1.05-3.61,2.72-9.27-.96-11.54-.58,2.04,1.66,7.52-1.93,6.73-.09-2.71.11-5.46,0-8.19-.05-1.17.73-3.58-.95-3.35-1.93,11.18,4.39,19.65,2.63,31.04-.13.85-.42,2.9-1.67,2.64.45-5.27.93-9.51-.13-14.8-.72-3.61-2.81-6.61-3.43-9.52-1-4.72,1.14-9.45.65-14.18l-2.87,2.88c.42-4.76-4.78-11.77-5.36-15.35-.28-1.71,2.97-2.91-2.34-6.3,2.32-1.53,3.8,3.03,5.76,3.37-.55-3.08-2.06-6.7-3.62-9.38-1.26-2.16-4.62-2.22-2.63-5.05l6.26,4.8c-2.77-4.24,0-7.16-3.41-12.46-1.72-2.68-8.17-8.7-11.02-8.23.96,1.59,4.5,4.17,3.37,6.26-4.98-5.6-11.59-14.8-19.73-14.43l4.34,3.84c.09,3.68-4.33-.52-6.97-.76-1.7-.15-3.17.92-4.43.79-.34-.03-4.74-4.55-5.1-4.68-2.1-.72-8.91-.23-6.64,2.75s11.56.52,11.09,6.7c-3.22,1.22-6.12-3.14-6.99-3.56-1.73-.83-4.58.3-6.01-2.2l1.45,3.84-3.84-.48c3.62,5.36,7.28,9.56,12.02,13.97,1.22,1.13,3.08,1.31,4.05,2.2,1.64,1.52,3.34,7.64,3.87,10.08.71,3.28,1.51,16.33,2.21,17.54.05.08,1.18-.73,1.91-.36,2.64,1.34,5.66,7.79,5.77,10.94-2.46-1.63-2.92-7.03-5.24-8.77-1.95-1.46-3.89.53-4.36.12-.31-.27-1.12-6.09-2.03-8.09-2.67-5.85-8.12-9.18-11.93-14.05l-1.93.97-3.37-8.66-1.9,5.76c-1.93-6.28,2.59-11.69-6.75-13.46l.95,4.8-2.4-2.88-1.43,1.92c.05-2.62,2.58-6-1.45-4.82-1.27.37-.51,3.99-2.4,3.86l-.48-4.8-3.87,5.76-1.43-1.91-2.89,3.84,3.84-6.26c-3.94-1.27-4.56,5.98-7.22,8.18l-.94-2.86-2.44,5.75c-1.89.31-.53-2.32-.96-2.89-1.07-1.42-14.04,18.32-16.82,20.23-2.25,1.55-5.88,1.85-6.75,2.87s-8.4,23.2-8.9,25.75c-.2,1.05-.34,2.06-.23,3.13,2.6-.8,1.52-4.31,2.66-6.47l7.9-14.7c-3.6,11.77-8.06,23.48-9.6,35.6,1.38.23,1.31-1.67,1.63-2.68,1.21-3.83,1.43-7.92,2.7-11.74l4.32-5.77c-1.15,3.58-6.05,12.29.95,6.73-1.24,4.3-3.13,8.61-3.74,13.09-.14,1.07-.94,5.21.85,5.18,2.15-3.21,3.08-6.31,3.77-10.19.52-2.96-1.04-8.24,2.01-10-1.92,9.76-.62,18.32.02,27.91l1.91-.97.02,23.1,2.87-14.43c.98,6.7-1.27,11.65-.99,18.8.08,1.9,1.47,13.42,1.98,13.91,1.43,1.37,1.73-.1,1.91-1.42.76-5.61-2.08-12.37-.97-18.31l2.89-12.02ZM206.54,361.59c-.05-.15-1.24-.88-1.72-2.55-2.16-7.57-1.55-11.72-2.18-19.07-.11-1.31-1.55-2.23-1.62-3.68-.11-2.39,1.53-6.41.69-9.35-.97-.28-1.92,4.09-1.92,4.33v15.4c0,3.02,4.23,13.95,6.26,16.84.78.09.63-1.46.48-1.92l3.84,8.66c1.36-7.62-5.12-12.79-1.92-20.2-5.56,2.82-2.39,6.9-1.92,11.55ZM575.79,332.05c-.63-.77-2.41-1.15-3.07-2.22-.72-.15-.65.98-.47,1.42,1.15,2.8,6.49,9.32,8.64,12.05-1.15-3-3.24-8.96-5.1-11.25ZM484.66,337.53c-4.22-.53-6.15,1.57-8.18,4.81-1.11-4.47-3.13.81-4.58,1.29-1.95.65-3.37-.38-4.8-.09-3.14.62-10.82,5.64-13.28,7.89-2.74,2.52-4.78,7.06-5.74,10.62l3.85-3.35-.48,4.81c3.28-3.45,5.81-9.88,9.14-13,1.65-1.54.51,1.91,1.45,1.45,1.3-.64.98-4.35,3.37-2.41-3.67,4.75-4.36,10.04-7.97,14.65-.5.64-6.21,4.02-4.53,6.04,1.59,1.91,2.72-3.33,3.84-2.88.41.46-1.02,3.67,1.44,2.88.66-.21,10.36-6.75,11.56-7.69,3.04-2.37,18.97-18.12,16.83-21.18l-1.91.98v-4.82ZM205.56,351l.96-11.54-1.95,3.33.99,8.21ZM582.83,354.85c.5-.54-2.49-12.22-5.76-12.5.77,1.05,3.35,15.12,5.76,12.5ZM459.64,343.31c-4.65-.17-6.77,3.78-7.68,7.69l7.68-7.69ZM431.73,376.99c-2.6-6.94-5.29-28.28-14.15-29.67-2.63-.41-5.92,2.43-8.93,1.77-1.95,1.78,7.86,5.14,8.98,5.93,8.06,5.65,6.73,16.5,14.11,21.97ZM589.58,355.81c1.42-2.07-3.19-7.46-3.85-6.73-1.84,2.04,2.45,3.72,2.65,4.09.52.94-.06,2.51.5,3.32s3.42,2.64,4.06,4.13c1.06-1.23-.31-4.6-.98-5.76-1.64-2.87-1.24,1.92-2.39.95ZM433.66,471.3c-1.08,8.32-11.48,14.4-17.35,20.67-1.44,1.54-2.35,3.41-3.78,4.92-1.2,1.27-4.08,1.1-2.87,3.25.1.18,3.51-.46.87,1.45-5.97,4.31-30.69,13.46-38.43,15.46l-10.62,2.37h14.92c4.02,0,21-5.4,25.49-7.23,44.44-18.15,63.4-76.79,52.67-120.96-3.72-15.29-12.5-29.84-26.66-37.33-1.71,1.89,8.93,10.84,9.65,12,2.27,3.66,1.74,7.41,7.19,10.13.75-4.77,3.83,2.3,4.3,4.36.6,2.64-1.39.42-1.72.7-1.07.93.37,3.43-4.02-.25,1.19,7.54,5.51,17.03,5.83,24.53.26,5.98-1.51,14.98-2.02,21.24-.28,3.43.67,14.88-1.88,17.25-.31.29-1.27-.6-1.97.13-3.88,3.98-6.5,13.61-6.71,19.12.81,1.19,2.42-1.61,2.67-2.14,1.87-3.82,1.92-9.19,3.44-12.45.08-.18,4.25-4.83,3.51-1.77-4.73,6.06-5.19,17.21-9.73,23.03-1.29,1.66-2.31,1.18-2.77,1.53l1.45-10.58c-4.53,2.76-10.99,7.93-12.03,13.47l8.18-7.69-1.45,5.77c3.89,1.39,1.9.54,3.85-.96ZM213.54,370.03c-1.02-2.46.99-7.87-2.18-9.39.17,2.64-.36,5.52.05,8.11.95,6,7.49,9.02,3.77,2.18-.29-.53-1.54-.63-1.65-.9ZM604,376.03c.32-3.4-.74-7.66-3.83-9.62-.32,3.4.74,7.66,3.83,9.62ZM443.03,377.19c-.18-.29-1.77-.75-2.48-1.76-1.85-2.65-3.27-6.14-5.92-8.07-.13,1.63.94,3.14,1.74,4.5.85,1.45,5.74,9.3,6.91,8-.04-.9.24-1.86-.25-2.68ZM599.19,381.8c-1.09-3.04-1.58-7.24-3.67-10.29-5.97-8.73-.04,5.79.36,7.35.35,1.37-.63,2.95-.32,4.15,1.07,4.19,4.43,8.42,3.62,13.22l-1.91-1.92-.96,13.47c3.51-1.89,1.38-7.36,1.92-10.59l2.4,6.73c2.92-6.31-.21-15.22-1.45-22.13.02.05.71-.08.96.64,1.35,3.91,3.01,8.82,2.9,12.83,1.82-.19,2.17-7.32,1.91-7.7l-1.91.98c.86-7.92-1.36-12.4-4.57-19.06-.63-1.31.61-2.65-2.17-2.11-.84,3.35,2.06,5.7,2.67,8.4.48,2.11-.1,4.27.21,6.03ZM220.96,381.8c-.81-3.21-.68-6.6-1.23-9.84-.17-1.01-.25-3.82-1.64-3.63.4,4.4-1.66,10.76,2.87,13.47ZM222.89,372.18c-1.65.05-2.03-.65-1.7,1.21.84,4.78.79,10.5,5.55,13.23-1.18-5.06-4.96-8.36-3.84-14.44ZM469.27,372.19c-8.9.67-14.5.75-12.5,11.53l2.89-8.65c4.8-.51-2.08,5.4.47,7.71.61.01,1.99-8.47,5.29-7.7-1.52,3.79-3.16,8.38-2.41,12.5l6.26-15.38ZM590.53,387.57c.2-1.71-1.33-3.28-1.5-4.76-.23-2.06,1.26-6.58-1.37-7.74-.2,3.59-3.12,3.57-1.94,7.98l4.82,4.52ZM607.86,400.1c.9-3.19,1.1-5.8.94-9.14-.05-1.07-.39-5.18-1.9-5.3-1.88,3.73.75,6.19.95,8.21.21,2.17-3.09,9.11,1.93,9.11v-3.85s-1.91.98-1.91.98ZM446.16,411.64c.89-4.05,3.16-6.23.96-10.58l-2.89,8.17,1.92,2.4ZM467.32,406.7l-3.27,14.24,1.49.34,3.27-14.24-1.49-.34ZM438.47,426.07c2.01-4.62,5.28-8.42,4.8-13.47-2.07,1.52-8.09,11.78-6.72,13.47.62-.04,1.33.1,1.92,0-1.2,2.76-2.88,5.53-2.88,8.66,2.22-1.08,6-7.76,4.79-9.62-.78-.09-1.25.85-1.91.96ZM442.31,433.76c1.49-6.78,5.6-13.04,4.81-20.2-3.87,1.65-1.79,6.36-2.38,8.65-.68,2.65-2.73,5.8-3.33,8.25-.21.88-.73,3.58.89,3.3ZM602.09,428c3.95-2.15,3.81-8.48,4.79-12.51l-4.79,12.51ZM469.26,442.43c-.22-7.54,2.98-14.53,1.92-22.13-1.37-.2-1.5,2.65-1.65,3.63-.52,3.43-.12,6.96-1.22,10.33l.94,8.17ZM572.24,440.5c1.36-7,6.57-11.44,4.81-19.24l-3.19,6.9c-.03,3.41-1.58,6.26-2.36,9.19-.25.94-.96,3.38.74,3.14ZM465.42,449.65c.58-5.08,0-11.97,0-17.32,0-.16-.94-2.81-1.92-2.4,2.36,7.84-.73,15.15,0,23.09,1.02.36,1.87-2.98,1.92-3.36ZM446.17,430.89c-1.49-1.8-2.07,1.36-2.39,1.89-3.81,6.49-7.99,13.99-10.11,21.2,4.18-1.69,4.35-6.32,6.08-9.32.35-.6,1.98-.89,2.79-2.47.75-1.45,4.02-10.82,3.62-11.3ZM583.78,453.02c.2-.19,1.09-3.85,2.08-5.16.92-1.22,2.54-1.74,3.15-2.62,2.6-3.7,4.45-9.83,4.4-14.35l-5.58,12.21-5.95,9.45c-.13.83,1.82.54,1.9.47ZM475.03,476.11c.15-5.35-2.1-9.39-2.33-14.92-.18-4.42.06-11.86.43-16.34.21-2.54,2.66-10.07,2.6-10.61-.07-.71-1.73-2.21-2.61-2.4-.39,12.84-3.22,25.83-.54,38.55.31,1.46.79,5.31,2.45,5.72ZM595.34,442.44c-1.89-1.98-10.52,11.67-9.61,12.5,1.76,1.61,4.72-2.64,5.28-3.93.46-1.07-.44-2.39-.28-2.65.4-.64,5.56-2.59,4.62-5.92ZM247.93,458.79l-2.91-14.42c-1.61-.26-1.04,2.33-.98,3.39.7,12.71,12.81,31.29,22.16,39.91l-6.89-12.82c-.73-1.25-6.4-18.54-7.52-17.01-.51.7,1.06,4.05-.96,3.84l-1.95-12.5-.94,9.61ZM469.26,454.94c.15-3.02.37-7.09-2.87-8.66l-.96,9.62,1.93-4.81,1.91,3.84ZM548.18,447.25c-2.99-.63-1.71,2.92-2.88,5.11-2.45,4.55-1.47,5.88-3.14,10.51-.61,1.7-4.25,5.84-3.59,6.5,2.02,2.04,6.77-8.39,7.19-9.64,1.44-4.22,1.74-8.15,2.42-12.49ZM422.12,462.64c4.24-2.63,6.44-7.89,7.68-12.51-3.3,3.14-6.22,8.17-7.68,12.51ZM476.01,453.99l-.02-3.85c-1.28-.29-1.42,1.56-1.43,2.39-.05,6.21.04,16.03,4.32,20.7-1.68-6.72-1.51-13.4-.96-20.22l-1.91.98ZM427.9,464.57c2.48-3.86,7.97-5.79,8.64-10.59-3.25,2.77-8,6.08-8.64,10.59ZM486.58,467.45c-1.14-2.44-.27-5.11-.63-7.54-.17-1.16-.71-4.84-2.24-4.97.13,3.99-1.03,9.85,2.87,12.51ZM573.21,466.48c1.58,1.49,10.2-9.04,9.61-11.54l-9.61,11.54ZM465.41,468.42c.04-2.36.11-4.73-.11-7.1-.1-1.07-.44-5.3-1.79-5.41.66,3.75-1.81,10.14,1.91,12.51ZM460.6,482.85c-4.53-5.05-8.6-9.96-11.06-16.37-.75,14.44,9.58,18.55,21.47,21.93,8.23,2.34,19.51,4.55,28.58,5.01,10.03.51,15.62,1.05,19.72-9.13-4.24-.34-6.56,6.17-9.61,8.18l4.33-9.62-10.1,9.62c.53-3.06,2.69-5.22,1.91-8.66-2.98,1.4-2.67,6.85-6.73,6.73,2.14-2.88,6.82-8.04,3.36-11.53-.79,2.54-.68,5.83-2.36,8.09-.56.76-1.67-.37-2.44.49-1.03,1.15-1.3,3.8-1.47,3.92-1.17.86-15.35-5.6-17.5-6.83-.66-.38-.74-1.31-1.09-1.52-1.86-1.11-4.16-.09-5.95-4.16-.95,4.64,6.49,6.36-1.43,5.28l3.84,3.36c-3.09-.2-5.21-2.95-7.98-4.09-1.97-.81-3.58,1.66-4.51-2.17l-.98,1.45ZM473.12,478.03l-3.84-11.53c-.99,1.22,1.23,14.32,3.84,11.53ZM493.32,484.77c1.51-1.33-4.09-4.44-4.74-5.43-1.36-2.05-.67-9.22-4.87-10.93-2.28,3.54,6.89,18.75,9.61,16.36ZM547.22,480.93c.24-1.66-.63-3.12-1.91-1.92-.18.17-.13,1.72-.99,2.36-2.31,1.72-4.56,1.99-6.25,5.32l2.4-5.29c-4.57-2.54-4.85,7.41-8.65,5.79l1.92-2.4c-3.32-.7-2.98,1.89-5.77,3.84.41-2.76,2.68-4.41,3.85-6.73-1.82-.34-3.2.35-4.81.95.07-.61.33-1.98-.49-1.94-4.64.06-7.61,8.38-10.09,11.55,2.87.22,5.89-1.58,7-4.15,1.34-3.09-1.75-3.49,3.58-5.47-.34,3.01-2.7,4.81-2.88,7.7,1.18-.7,2.73-1.15,3.84-1.92-.23,1.55-.38,2.1,1.39,1.89,1.17-.14,10.34-3.29,11.33-3.84.66-.37,5.26-4.65,6.53-5.74-.27,1.86-1.19,2.37-1.92,3.84,2.87,2.05,7.03-7.88,9.62-6.25l-1.92,3.37,7.69-2.89-1.91-1.43,4.81-7.22-2.91-.02c2.82-4.17-4.06-.78-5.64,1.56-3.46,5.11-2.78,4.69-7.81,9.03ZM417.3,479.97c.79-1.26,4.87-5.58,3.84-6.74-2.78,2.59-8.03,4.14-7.68,8.66,1.17-1.03,2.56-1.3,3.84-1.92-1.55,2.47-2.42,5.32-4.81,7.22,3.71,2.27,4.5-8.99,6.25-3.38,3.16-4.03,8.73-5.86,9.14-11.55-3.59,3.1-6.3,5.61-10.58,7.7ZM464.45,480.93c.97-.97-4.39-6.16-5.28-6.74-1.24-.81-2.11-1.03-2.4.5-.46,2.42,6.07,4.75,7.68,6.24ZM267.18,483.81l-4.82-8.18c-2.1-1.05-.55,1.44-.21,2.14,2.67,5.54,8.5,12.7,13.19,16.64,1.08.91,1.57,2.33,3.37,1.91-3.32-4.07-5.56-9.67-9.13-13.48-2.37-2.54-.51,1.07-2.41.97ZM397.09,482.86c-4.5,1.64-7.66,6.72-11.55,9.6,4.83-.33,8.38-6.34,11.55-9.6ZM413.45,483.83c-2.89-.28-17.38,12.49-16.36,13.45,2.19-.31,4.48-2.49,6.23-3.86,3.46-2.7,7.46-6.09,10.13-9.59ZM298.93,507.88c-4-2.17-9.21-3.86-12.99-6.74-.83-.63-2.72-2.22-.02-1.91l3.38,1.44-12.5-12.03,4.16,8.82c2.91,4.53,13.45,11.77,18.46,13.3.5.15,1.57.27,1.42-.46-.87-.62-1.26-1.65-1.92-2.41,10.18,5.52,18.79,11.55,31.28,11.55h28.87c.16,0,1.51-1.3,1.44-1.92-2.83-1.79-5.91.95-6.26.95h-17.8v-.96h13.95c.16,0,1.51-1.3,1.44-1.92-7.64.63-15.17-.45-22.67-1-1.6-.12-3.27.82-4.63.67-4.23-.49-22.04-6.2-24.65-8.84-1.17-1.19-1.04-3.23-2.44-4.3-3.08-.15,1.13,1.82-2.39,2.39,1.55,1.1,2.6,1.93,3.85,3.37ZM299.88,496.33c.39-4.02-2.65-6-5.75-7.7-.23,3.87,2.36,6.45,5.75,7.7ZM313.35,500.18c-.82-3.59-2-9.1-4.79-11.55.91,4.36.07,9.48,4.79,11.55ZM396.13,490.56c-2.07-.22-2.92,1.75-4.79,2.42-3.02,1.09-7.06.26-8.69,4.29,4.55-.33,11.02-2.64,13.47-6.72ZM322.01,502.1c.11-1.73.02-3.44-.11-5.17-.07-1-.46-5.33-1.79-5.41-1.23,3.54-2.04,8.35,1.9,10.58ZM407.68,499.22l-12.51,6.72c4.17-.04,9.67-3.63,12.51-6.72ZM354.75,500.19l-8.18,4.8-3.37,3.84c5.35.45,8.32-5.29,11.55-8.64ZM395.17,501.15l-6.12,2.05-13.13,9.48,9.77-3.91,9.47-7.62Z"/>
      <path d="M570.31,404.9c-1.9-.39-1.65-1.97-1.91-3.37-1.24-6.62-2.08-13.3-3.28-19.73-.68-3.65-2.66-6.19-3.45-9.62l2.75,2.54c2.24,9.9,4.37,20.09,5.89,30.18Z"/>
      <path d="M572.24,366.4c-4.48-4.99-7.98-11.76-9.6-18.28,4.09,5.29,7.28,12.01,9.6,18.28Z"/>
      <path d="M567.42,411.63c-1.79-.88-.76-4.68-1.36-6.84-.48-1.72-2.06-1.61-2.4-2.57-.95-2.68-1.12-6-2.47-8.89-2.42-5.18-7.46-10.56-7.22-17.31l13.03,26.9.43,8.7Z"/>
      <path d="M563.58,386.61c-4.08-4.75-7.48-12.87-7.68-19.24l7.68,19.24Z"/>
      <path d="M549.14,434.73l-3.15-13.68c.41-1.77-5.21-6.35-2.13-7.48,1.26-.46,7.37,18.53,5.28,21.16Z"/>
      <path d="M487.56,433.29c.04.61,2.36,3.35.01,3.36-2.32-6.15-1.69-13-.73-19.49.12-.84.43-2.9,1.67-2.63.73,1.56-.95,3.65-.95,4.33,0,4.73-.28,9.76,0,14.44Z"/>
      <path d="M477.92,425.1c-1.74,0-1.02-4.14-.94-5.28.22-3.03.74-7.35,1.19-10.37.13-.84.43-2.89,1.68-2.63l-1.93,18.27Z"/>
      <path d="M481.77,428.95c-3.11-1.98-1.14-9.37-.49-12.53.21-1.04.06-3.1,1.45-2.85l-.96,15.39Z"/>
      <path d="M513.23,329.15l3.19,2.6c-4.04,3.07-5.63-.09-9.61.97,1.18-2.6,3.61-4.12,6.43-3.56Z"/>
      <path d="M495.26,329.84c.12.17-1.33,2.38-.98,2.87l3.85,1.93c-5.81-1.46-8.56,2.04-6.73-5.77.17-.18,3.74.81,3.85.97Z"/>
      <path d="M533.27,292.3c4.7.45,11.44,2.19,15.45,4.72.81.51,3.08.16.9,2.03-9.16-4.31-19.6-7.58-29.84-4.84l-.46-1.91c4.52.31,9.49-.42,13.95,0Z"/>
    </g>
  </g>
</svg>