<?xml version="1.0" encoding="UTF-8"?><svg id="Layer_2" xmlns="http://www.w3.org/2000/svg" viewBox="0 0 289.48 107.99"><g id="tonkatsu"><path d="M72.24,65.48c0-.48,0-.95,0-1.43l.47-.08c-.66-.64-.04-1.44.16-2.14h-.48c.28-.44.36-.6.03-1.04l.6-.4-.29-.18.45-1.17-.32-.08.32-.47-.64-.24c.05-.56,1.13-1.47.31-1.76l.33-1.17h-.48s.48-1.27.48-1.27h-.64c-.08-.06.64-1.8.64-1.99,0-.41-.92-.64-.02-1.1l.02-1.99h-.64c.24-.63-.28-1.55.64-1.75l-.32-.71.32-.24-.64-.4.33-.19-.15-3.32.3-.15-.33-.64c.5-.44.56-1.11.02-1.42.2-.3.58-.78.6-1.14s-.36-.56-.43-.94c-.12-.66.41-1.35.42-1.58,0-.32-.74-1.22.06-1.43l-.64-.08c.17-.46-.04-.92.64-.79l-.17-.47-.31.15.17-.86-.33-.17c.2-.42.37-.51.8-.64.02-.35-.39-.4-.64-.4-.09-.08.61-2.01.6-2.27-.03-.68-.67-1.78-.12-2.33-.45.05-.17-.2-.21-.28-.02-.04-.23-.04-.26-.15-.13-.55.67-1.35.28-1.61l-.44-.1c.33-.15.19-.6.3-.76s.47-.23.48-.35c0-.07-.24-.26-.24-.47,0-.93.84-1.89-.07-2.23l.79-.72c.07-.41-.32-.48-.63-.47l.4-.63.7.16.41-1.11c.67.6,1.03.36,1.81.5-.25.69.48,1.09.48,1.16-.03.35-.25,1.52-.23,1.76.03.31.57.22-.24.65-.03.27.25.48.27.7.07.58-.56,1.39.07,1.51-.49.67.04.95,0,1.42-.05.51-.09.89-.14,1.45,0,.04.49.05.3.76-.04.15-.45.05-.32.5.02.07.31.07.31.15-.03.88-1.07,2.45-.3,3.42-.74.03-.11.98-.18,1.49l.5.1-.32.24.32.24c-.43-.07-.15.51-.63.72l.32.16c-.79.95.23,1.47-.34,2.49-.07.13-.3.15-.29.2.02.16.25.41.28.68.06.53.04.56.16,1.11.02.1-.37,1.09-.3,1.73.02.18.47.42.33.86l-.48.16h.64c-.18.27.03.86-.03,1.04-.04.12-.67.06.03.31-.15.16-.38.29-.44.51-.26.87.08,2.24.21,3.08.07.45-.26.67-.24,1.09l.48.08-.57,2.07.57.79-.5,1.6c.35.34.4.92.35,1.43-.03.3-.31.15-.35.46-.06.49.06,1.16.04,1.76,0,.08.26.05.29.18.1.42-.39,1.44-.33,2.2.02.3.67.27-.16,1.1.03.77,1.27.89.02,1.59l.32.17c-.29.44.02.83,0,1.26-.04.84-.49,2.17-.62,3.02-.11.8.29.74.29.79-.03.29-.7,1.69,0,1.68v.15c-.53-.06-.25.74-.46,1.21-.14.32-.39.33-.45.41-.17.26.22.23-.52.84-.09.08-.11.3-.2.36-.25.15-.77.02-1,.07-.03,0-.28.11-.55.18-.35.1-.69.3-1.05.41l-.22-.31-.16.47c.05-.34-.41-.39-.46-.58-.09-.35.37-.4-.38-.9-.15-.1-.48-.03-.61-.21-.17-.25-.07-.7-.19-.97-.24-.53-1.25-1.64-1.38-2.22-.06-.27.02-.57,0-.85h-.64c.25-.2.16-.68.21-.77.04-.07.34.07.27-.18l-.33-.1c.29-.67-.23-.89-.22-1.49h-.56c-.37-.58.29-.79.32-.9.19-.91-.58-.9-.64-1.11-.19-.71.32-.71.33-.78.08-.63-.27-.81-.8-.54-.08-.4.3-1.12.29-1.32-.03-.27-.41-.58-.2-1.06h-.56c-.05-.39.23-.93.25-1.19,0-.09-.18-.28-.19-.47-.03-.56-.09-1.11-.06-1.68l-.77-.02c-.13-.57.08-1.22.05-1.75-.04-.64-.28-.9-.44-1.41-.05-.16.1-.44.06-.47-.04-.04-.31.05-.43-.03-.33-.22.06-.92.27-1.16l-.48-.08.3-.93c-.11-.06-.33-.08-.38-.17-.04-.07-.08-.89-.11-1-.16-.61-.82-.46-.43-1.14l-.33-.16c.13-.42.23-.6.63-.8l-.63-.24.32-.79-.79.16c.36-.5-.18-1.07-.15-1.52.02-.26.34-.44.31-.78-.03-.29-.52-.76-.59-1.2-.05-.36.23-.43.22-.69,0-.37-.67-1.98-.77-2.27.05-.45.5-1.37-.15-1.34.67-.63-.35-1.25,0-2.06h-.48s.15-.46.15-.46l-.47-.26.48-.79-.33-.16.16-.53-.46-.27c-.07-.23.81-1.43-.31-1.34-.12-1.19-.17-2.6-.64-3.74l.32-.31-1.03-1.67c-.13.49-.83,1.47-.84,1.85-.02.31.56.81-.03,1.32h.48c-.15.24.04.51,0,.69-.03.17-.48,0-.32.42h.48c.07.26-.21.11-.26.19-.24.42,0,1.14-.38,1.48l.32.15c-.29.28-.34.87-.79.88v.15c.6-.07.09.98.15,1.33.02.11.31.09.33.21.06.37.06,1.16.04,1.57-.03.43.37.33-.5.57-.13.63.61.58.62.71.09.74-.61,1.02-.61,1.09-.03.24.56.96.29,1.35l.48.09-.32.64.32.15c-.09.38-.67.59-.73.79-.17.52.24,1.49.57,1.91l-.63.32c.19.31.17.71.63.72l-.32.16v.32s.32.08.32.08l-.28.11c-.21.32.07.87.08,1.2,0,.2-.21.33-.21.44,0,.3.71,1.43-.22,1.52,1.03,1.25-.11,2.16,0,3.49l.31-.32.3.39c-.34.43-.11,1.1-.24,1.47-.08.22-.51.31-.63.94-.17.88.85,2.4-.38,2.44-.07.26.27.07.32.26.09.36.04,1.39-.48,1.33.77.71.15.64.07,1.25-.04.28.17.49.18.74.01.41-.21,1.08-.26,1.43-.06.48.44,1,.44,1.11s-.44.42-.53.7c-.04.13-.35,1.75-.36,1.87-.02.3.88.82.13,1.56l.3.29c-.42.25-.15.74-.23.9-.1.23-1.36.69-.08,1.02l-.14.48-.49.08.32.16c-.56.44.03,1.63-.3,1.99-.22.24-.91.36-1.08.87l-.51-.15c-.36,1.2-1.48-.09-1.87-.16-.26-.04-.38.39-.69.3.26-.65-.37-2.2.63-2.07l-.16-1.19.48-.08-.48-.4.63-.96-.32-.15c.43-.36.13-.87.19-1.28.15-1,.63-1.81.45-2.83-.02-.14-.35-.09-.33-.18,1.12-1,.44-1.37.49-2.38s.35-2.11.47-3.03c0-.07-.28-.05-.32-.18-.17-.64.35-1.1.32-1.56h-.32c.11-.44.07-.84.64-.72l-.47-.23c.14-.64.95-1.73.63-2.34-.07-.13-.32-.12-.32-.21,0-.29.76-2.08.64-2.51-.03-.12-.32-.1-.31-.17.05-.55.72-1.15-.32-1.59.26-.11.25-.59.36-.68.13-.11.78.14.27-.7-.12-.19-.41-.21-.45-.38-.01-.05.05-.95.07-1.03.05-.23.35-.41.37-.57.03-.2-.26-.35-.26-.45,0-.06.52-.49.52-1.02,0-.37-.54-1.41-.57-1.69-.04-.43.83-1.37-.31-1.34.25-.35.21-.79.33-1.15.04-.13.27-.12.3-.23.15-.61-.27-.95-.27-1.08,0-.24.59-.31-.02-.47l.28-1.29c-.38-.12-.49-.53-.52-.9-.04-.4.21-.43.23-.67,0-.1-.29-.06-.32-.19-.24-.89,1.02-1.37.16-1.88.46-.39.21-1.67.33-2.05.07-.22.38-.2.44-.34s-.26-.57-.26-.66c0-.31.42-3.91.5-4.1.55-1.38,1.36-2.07,1.29-3.65-.04-.83,1.02-.85,1.29-1.19.05-.07-.19-.7.57-.86.62-.13,1.02.31,1.17-.26l.79.33.17-.33c.85.49,1.1,1.53,1.68,2.26.22.28.76.51.79.55.22.36.07,1.16-.32,1.4l.74.47c.05.44-.08.44-.43.64l.3.09c-.08.41-.08,1.03-.04,1.43.02.21.18,1.5.24,1.55.16.12.4-.07.65.38.31.56-.18,1.1-.16,1.44,0,.13.31,1.34.38,1.39.13.08.37.12.53.15.03.29-.31,0-.33.39-.04.51.24.74.26.96.03.34-.19.9-.09,1.26.02.08,1.49.44.01.96.09.27.56.62.61.83.11.47-.58,1.67.66,1.16,0,.68-.58,1.08-.46,1.8.02.1.28.09.37.44.23.93.02,2,.33,3,.07.21.24.39.24.63l.63-.32c.04.06-.12.84-.17.99-.05.13-.3.12-.3.22,0,.19.19.58.19.84l.45.02-.32,1.59.79-.16c.16.1-.44,1.88-.43,1.98.02.17.29.26.35.4.06.15.24.53.24.57.02.2-.18.39-.09.69.1.34.49.71.87.65-.29.59.18,1.08.47,1.33-.16.47-.57,1.24-.41,1.73.07.23.34.37.44.65.33.93.59,1.79.77,2.73.05.28-.03.57.03.85h.46c-.08.23-.44,1.37-.43,1.52.03.34.95.46.27,1.19l.49.08c.08.38-.19.93-.15,1.1.05.19.42.18.46.36.09.34-.13.74-.12,1.06.02.45.51.7-.05,1.21l.62.25-.14,1.01c.41.29.61-.13.79-.15,0,.26-.3.88.32.79.05-.37.27-.88-.32-.79Z"/><path d="M121.47,20.26c.11.07,1.26.93,1.32.99.16.17.12.45.27.56.33.26.71-.13.37.77,1.04-.09.58,1.16.68,1.63s1.01.9.76,1.71l.48-.16c.16.79-.37,1.24.16,2.07l.63-.32c-.09.7.56,1.36-.32,1.67l.52.24c.47.43-.21.7-.21.74-.04.31.27.79,0,1.17l.47-.16v.95s.48-.16.48-.16c.32.67-.03,1.02-.48,1.51l.48.08c-.85.82-.07,1.93.79,2.31-.28.68-.47,1.67,0,2.21l-.32.89.32-.08v.55s.48.01.48.01c-.54.88.26,1.58-.32,2.3l.32.15c-.41.58-.48,1.87.33,1.92-.1.44.08.96-.32,1.26.24.38.45.13.79.08l-.14,1.2c.52.42,0,2.08.33,2.85.07.15.47.16.53.7.04.37-.5,1.08-.42,1.85.03.3.28.22.31.31.15.5-.15,2.13.06,2.71.04.11.27.05.28.07.05.07-.28.27-.3.54-.04.53.18,1.11.24,1.52.05.32-.34.58.21.7,0,.35-.43.61-.44.65-.14.47,1.07,1.61.13,2.14l.41.32.38-.16-.47,2.38.48.08-.32.71.47-.16c-.32.69-.17,1.25-.32,1.9l.79.24c0,.26-.91.8-.55,1.2l.4.08c-.09.52.08.72-.49.96.05.36.5.77.49,1.11,0,.25-.31.45-.31.47,0,.12.36.17.44.27.03.04-.11.18-.07.25.02.04.23.03.25.14.06.23-.06.8-.3.93.37.27.73.66.48,1.08l-.64.11.12.28c-.27.04-.35.42-.54.48-.68.22-.98-.42-.85.82-.26.07-.11-.22-.19-.26-.2-.11-.72.08-.45-.69-.34.04-1.32,0-1.4-.41-.03-.16.15-.41.13-.61-.04-.3-.22-1.25-.45-1.27l.07-.57-.41-.16c-.07-.09.45-.56.44-.84,0-.25-.26-1.77-.32-2.06-.04-.17-.33-.35-.28-.43.02-.04.6-.11.48-.64l-.63-.16.32-.24c-.24-.23-.47-.65-.47-.97-.01-.47,1.31-1.68-.16-1.81l.64-.79-.33-.09.18-.46-.32-.15.27-.82c-.3-.14-.67-.54-.42-.85.03-.04.89.17.3-.7-.14-.2-.46.06-.16-.58h-.64c.21-.67.74-.86,0-1.35,1.04-.62.15-1.32.32-2.04.03-.13.26-.1.29-.19.04-.11-.26-1.09-.13-1.35h-.64s.48-.56.48-.56c-.44-.26-.99-1.9-.16-1.99v-.15c-.71,0-.22-.94-.9-.92-.21,0-.35.23-.45.22-.27,0-1.05-.38-1.14-.41-.1-.03-.49.11-.69-.01v.64s-.29-.12-.29-.12l-.1.28c-.5-.34-.87-.2-.72-.96l-1.91.16-.08.47-1.83-.79.16.47c-.35.27-2.3-.9-2.23.48-.48-.04-1.25-.19-1.11-.79-.42-.14-.42.43-.48.48-.1.07-.36-.44-.63-.32l.08.32c-1.19-.4-.81.19-.9.72-.04.23-.21.35-.21.56,0,.42.11,1,.22,1.41l-.3.09.32.24c-.44.09-.89.61-.31.73l-.17.7.47-.08c-.1.71-.75.68-.79.72-.22.23.28.81.27.87,0,.17-.46.39-.53.55s.19.28.19.39c0,.18-.45.49-.43.79,0,.08.25.07.28.13.07.12-.17.52.2.67l-.32.24.3.07-.15.72h-.63c.11.6.13.91-.32,1.36l.32.16c-.73.42-.3.84-.35,1.3-.06.49-.12.41-.12,1.07,0,.04-.37.24-.47.65l.63.23c-.39-.02-.44.31-.48.64l-.31-.16c.25.69-.6.98-.49,1.83.06.45.47.25.49.55l-.29.02.13.29-.63.17.17.54c-.81.32-.32,1.73-.4,2.4-.02.16-.31.31-.25.39.05.07.53.07.48.64l-.62.02c-.17.52-.13.66.27,1.02,0,.91-2.37.55-3.04.7l-.23-.21c.41-.72-.32-.64-.21-1.34l-.46-.09c-.02-.09.24-1.63.29-1.76.1-.25.35-.25.36-.32.02-.32-.29-.49-.26-.71.05-.34.64-.95.68-1.21s-.21-.69-.11-1.01l.32.16c.03-.29-.17-.55-.13-.84.12-.91.72-1.42.52-2.42-.06-.29-.5-.39.05-.42-.27-.52.13-.63.19-1.09l-.32-.16c.82-.06.21-1.3,1.11-1.12-.36-.37-.41-1.64.32-1.43l-.29-.23c.11-.22.08-.78.18-.96.12-.23.47.18-.03-.61.73-.54.45-1.35.54-1.93.05-.33.31-1.13.33-1.42.01-.23-.21-.46-.19-.64.01-.15.32-.3.26-.39-.03-.04-.5.13-.16-.68.19-.47.6-1.09.63-1.81.02-.48-.23-.88-.15-1.4.1-.59.88-.76,0-1.12l.89-2.23c-.51-.56-.28-.8-.41-1.5l.63.16c.04-.27-.45-.2-.47-.39,0-.07.28-.51.47-.4-.93-.7-.19-.69-.04-1.05.03-.08.04-.67.13-.94.13-.39.34-.96.55-1.27l-.63-.39c.48.09.15-.33.3-.54.11-.15.37-.05.45-.13.25-.25.29-.82-.28-.6v-.63s.64,0,.64,0c.13-.45-.16-1.13-.11-1.48.12-.82.57-2.16.7-3.08.06-.4-.23-1,.11-1.32.25-.24.99-.29-.07-.55.08-.66.33-.52.79-.8-1.23-.26.08-.82.33-1.11.12-.14.05-.51.31-.64l-.63-.71c.34,0,.57-.45.71-.72.43-.84.52-2.18.81-2.77.12-.25.49-.4.61-.64.37-.79.56-1.13,1.02-1.77.04-.05-.05-1,.05-1.23.67-.03,1.16-.34,1.69-.61s.86.02.53-.74l.24-.24c.32.14.77.02,1.03.08.21.04.37.31.56.35.34.06.73-.25,1.28.1ZM120.63,24.76c-.41-.46-.94-1.12-1.64-.65-.61.41-.27.69-.34.92-.04.12-.24.08-.27.18-.15.52.19,1.23-.83,1.51l.32.24c-.67.16-.27,1.02-.36,1.41-.05.2-.31.3-.34.41-.06.25.08.65-.1.96l-.31-.16c-.31.69.19.52.47.95l-.46.03-.02.45c-.54-.38-.3.26-.42.64-.04.12-.26.2-.3.39-.05.22.06,1.12,0,1.2s-.8.25-.28.47l.36.08-.63.87.63.16c-.49.19-.91.6-.95,1.11l.48.08-.31.66-.48-.1c.16.49-.66,1.79-.28,2.04l.44.03-.45,1.2.45.31-.29.1.07.47-.57.16v.62s.63.16.63.16c-.45-.07-.13.27-.38.49-.15.12-.44-.03-.54.22-.03.08.15,1.3.12,1.57-.02.18-.19,1.01-.24,1.23-.07.32-.5.44-.23.94l.39-.17.09.32.32-.64.87.6.54-.3-.05-.29c.68.4,1.54-.08,2.07.64.18-.77,1.44.67,1.03-.63.9-.23,2.46,1.28,2.55-.16.52.01.68.52,1.02.66.46.19,1.34-.17,1.76.29.3-.64.74-.57,1.35-.47l-.16-1.27-.63.16c.13-.19-.02-.5.07-.63.13-.19.54-.04.4-.47l-.79-.17c.2-.46-.02-1.07.03-1.51.03-.31.35-.68.3-1.09-.03-.21-.54.05-.65-.5-.1-.52.23-.84.3-1.27s-.27-.7-.29-.96c-.03-.42.41-.76.16-1.24l-.8-.1c-.07-.26.22-.11.26-.19.02-.03.22-.57.21-.6-.02-.03-.22.01-.26-.04-.04-.05.05-1.15-.53-1.09v-.15c.22.21.49-.77.49-.87,0-.05-.64-.26-.48-.78.04-.13.27-.09.3-.22.19-.76.04-1.82-.95-1.64,1.09-1.12-.21-1.76-.44-2.66-.08-.31.02-1.06-.06-1.14-.1-.1-1.01-.02-.3-.96h-.64s-.06-1.52-.06-1.52c-.06-.16-.26-.18-.36-.28Z"/><path d="M86.71,19.25l.63-.16.07.97.57.15-.49.87c-.08.68.32.54.34.66.05.3-.17.56-.17.76,0,.11.34.02.34.32,0,.49-.44.64-.45.8-.02.26.66.85.55,1.46-.1.5-.76.68-.15.71-.35.5.55,1.13-.12,1.33l.79.95-.31,1.19.48.08c-.91.41-.23,1.72-.21,2.35.02.8-.42,1.25-.43,1.33-.04.31.29,1.53.32,2.04.03.58-.13,1.16,0,1.75l-.49.08.03,1.19.28.14-.28,1.27.7.41-.02-1.28c.65-.13.67-.81,1.37-.63l-.12-.29c.45-.04.06-.41.23-.78.21-.45.65-.98.9-1.59.03-.07.46.04.1-.52l.45-.02c.11-.68.26-1.79,1.14-1.57l-.13-.38c.62-.18.44-.95.49-1.02.19-.24.93-.75,1.04-.85.13-.12.07-1.46.83-1.09-.35-1.1.43-1.22.96-1.98.07-.1.36-.78.36-.95,0-.19.28-.05.43-.09l-.48-.24c.46-.26.68-1.16.87-1.36.15-.15.44-.1.57-.26.27-.34-.03-.75.01-1.06.06-.37.57-.56.29-1.06l.52.02c.25-.25.5-.91-.05-.81v-.15c.44.02.48-.4.69-.59.18-.17.65.01.59-.83.6.08,1.64-.15,1.66.62l.63-.64c.2.1.38.67.4.89.05.59-.43.57.32.94,0,.39-.43.62-.55.88-.11.24-.31,1.05-.44,1.22-.72.67-1.27,1.08-.77,2.08l-1.1.66.3.39-.61.79.48.4c-.54.17-.37.62-1.11.32.13.56.28.78-.32,1.03l.32.4c-1.09.08-1.35.66-.79,1.59-.51-.1-.7.52-.84.6-.26.15-.59-.15-.76.44l.32.18-.02.52c-.5.01-1.13.55-1.34.98s.33,1.38-.87.94l.32.63-.96.56.64.39c-.35-.03-.43.39-.59.48-.21.12-.95.27-.99.33-.04.06.1.28.07.37-.1.34-.54.47.08.64-.14.28-.64.3-.76.42-.03.03.07.55-.35.69.87.43-1.14,1.45-.96,2.38l.63.32-.31.32c.43.17.52.44.32.87.5-.11,1.18.31.8.79.97,0,.59.87.8,1.47.05.14.46.33.64.67s.22,1,.39,1.2c.15.17.46.09.57.26.36.53.82,1.57,1.25,2.17.12.17.47.28.56.6.1.35-.09.55-.06.7.04.2.39.2.44.27.03.05-.21.33-.07.61.6,1.21,1.35,2.05,1.75,3.34.27.87,1.5,1.98,1.65,2.5.13.45-.19,1.12-.07,1.4.08.19.57.43.66.59.25.42.96,2.14.96,2.59.01,1.24.02.61.35,1.62.09.27.04,1.51.14,1.75.15.37,1.03.11.53,1.47l.29-.14.73,1.74.57-.02c.4,1.6,0,3.19-1.76,3.57l.02.72-.72-.32.08-.79c-.47.29-.8-.16-.8-.63l-.63.16c-.29-.49.63-2.02-.64-1.59-.04-.71.26-2.21-.65-2.32v-1s-.38-.18-.38-.18l-.23.32-.17-1.33.33-.17c-.28-.84-1.12-1.02-.63-1.99l-.64-.16.16-.48-.32.16c.09-.4-.3-1.19-.28-1.48.01-.22.3-.67.26-.72-.37-.47-1.02-.99-1.27-1.68-.15-.42-.07-.77-.15-1.09-.02-.08-.57-.3-.31-.91h-.63c-.04-.58.3-.36.31-.71l-.45-.33-.02-.63c-.6.18-.6-.27-.95-.63.41,0,.55-.78.45-.86s-.56-.09-.83-.51c-.18-.28-.29-.91-.47-1.05-.12-.09-.41-.06-.52-.19-.18-.21.29-1.06-.09-1.42l-.78-.09-.15-.73-.32.16c.29-.86-.68-.75-.16-1.75-1.02.17-.85-.73-.86-1.44l-.57-.16c.16-.02-.13-.67-.15-.7-.23-.28-.62-.37-.65-.4-.3-.35.4-.24.32-.47h-1.27c-.18.44.26.47.28.55.02.09.06.87.05.96-.07.39-.39.33-.45.48-.05.13-.13,1.34-.1,1.53.1.51.52.2.54.38.07.57-.6.43-.47.88l.32.16c-.5-.08-.26.46-.35.84-.08.34-.43.53-.13.96.09.13.34.08.33.19,0,.09-.29,1.11-.48.87v.15c.66,0,.04,1.23-.32,1.51l.47-.08c.08.1.01,1.26-.04,1.47-.07.25-.38.47-.38.68,0,.35.85.81.11,1.43l.29.15c-.19.44.12,1.11-.45,1.27.69.35.52.61,0,1.03l.48-.16c.12.15-.45,1.09-.42,1.35.02.17.39.3.43.64.05.41-.47.81-.31,1.24.07.21.38.2.44.34.07.16-.27,1.11-.61,1.11l.48.33c-.21.55-.38,1.15-.32,1.75.03.32.26.21.3.31.06.17-.25.66-.25.82-.02.38.7,1.21-.36,1.49-.17.16.53.08.32.55-.06.13-.32.23-.48.24l.48.47c-.43.16-.75.21-1.18,0l-.18.33h-1.32s-.74-1.76-.74-1.76l-.55-.15.3-.17-.14-.62h.48s-.24-.32-.24-.32l.4-.16-.63-.16c.21-.43.38-.78.2-1.25l.28-.1c-.54-.33-.02-.55-.04-.93-.01-.32-.35-.61-.37-.83,0-.06.29-.58.25-.95-.03-.35-.26-.65-.26-.8,0-.21.31-.46.26-.55-.02-.03-.41.04-.41-.41,0-.39.4-.38.42-.5.08-.49-.53-1.07.16-1.24v-.24s-.48-.24-.48-.24c.75-.85-.27-1.84.31-2.71l-.32-.16c-.04-.51.48-.75.48-.8.01-.37,0-.99-.38-1.01-.26-.77.56-.79.55-1.27-1.02-.18.09-1.16.11-1.35s-.23-.43-.2-.64c.03-.24.59-.37-.22-.55v-.15c.25.15.61-.86.64-1.05.04-.25-.49-.2-.28-.78.03-.09.27-.03.29-.31.02-.27.04-1.36-.33-1.2l.29-.61c-.56.06-.05-1.06-.13-1.13l-.48-.08c.34-.5.19-.87.95-.72l-.48-.72.33-1.34h-.46s-.17-.56-.17-.56l.63-.24-.62-.55c.45-.68.48-1.14.53-1.89,0-.11.19-.25.19-.34,0-.21-.5-.49.06-.95l-.63-.32.63-.57c-.62-.76.88-1.87-.63-2.06.39-.37.11-.75.17-1.02.1-.44.45-.91.42-1.48-.02-.35-.44-.7-.44-1.24,0-.62,1.01-2.02.17-2.53l.31-1.12c-.03-.19-.47.12-.56-.39-.1-.56.56-.43.4-.73l-.63-.24c-.07-.26.22-.11.26-.19.04-.07-.03-.19,0-.28.23-.51.38-.5.2-1.27l-.47.16c-.5-.63.37-1.37.31-1.43-.02-.02-.23.03-.27-.03-.05-.08.23-.26-.19-.35.04-.28.41-.94.4-1.12s-.37-.48-.35-.8c.02-.45.66-.56-.22-.95.31-.48.87-1.23,0-1.35v-.15c.61.1.23-.87.4-.97l2.3-.62.16.64Z"/><path d="M40.96,20.18c.14.1,1.04-.15,1.25-.05s.23.44.42.56c.25.16.77.02.91.12.19.15.03.4.1.53s.51.88.55.92c.27.28.82.13.97.65l.52-.16c.35.36.29,1.16.43,1.42.27.52.83.5.37,1.49.53.15.15.41.25.58.18.33,1.39.59.56,1.42h.63c-.24.67.42.75.16,1.11h.48s-.48.95-.48.95l.3.08c-.34.46.67.89.58,1.43-.05.31-.61.49.22.73l-.14.37c.78.23-.47,1.31.04,1.65.47-.11.55.48.57.92,0,.08-.29,0-.32.3-.05.52.24.86.27,1.19.02.22-.25.34-.22.54.09.51.31,1.18.28,1.77-.03.5-.67.69.15.89l-.15.46.63-.16c-.13.38-.05,1.08-.63.79v.64s.48-.16.48-.16c.06.04-.31.92-.32,1.05-.04.54.46.94-.16,1.1v.23s.33.09.33.09c-.55.86-.04,1.65-.33,2.52l.31.16c-.04.77-.76,1.16-.45,1.87.08.17.43.21.41.53-.04.52-1.43,1.91.21,1.83.07.26-.25.09-.29.23-.09.31-.19,1.35.12,1.6-.67.3-.32.42-.4.94-.07.45-.6.52.4.8-.34.5-.19.87-.95.72l.47,1.11c-.5.04-.19,1.17-.79,1.59h.48c.17.64-.45.76-.61,1.06-.27.5-.13,1.19-.83,1.56l.29.1-.11.37.3.31-1.53,3.05c-.18.53.91,1.26-.54,1-.02.22.1.44.07.66-.06.45-.45,1.39-.74,1.69-.19.19-.9.23-1.05.38-.02.03.1.26-.01.38-.33.34-1.2.23-.5,1.18-.53.11-.65.46-1.11,0,.07.34-.06.57-.42.63s-.12-.45-.46-.31c-.19.19-.53.73-.73.85-.37.23-1.31.47-1.82.67-.27.11-.64-.26-.96-.27-.29,0-.2.28-.31.31-.04,0-.75-.09-.78-.11-.07-.79-.63-.43-1.22-.59-.31-.08-1.03-.47-1.21-.54s-.51.06-.7-.08c-.24-.17.09-.79-.78-.57.44-.95-.46-.82-.48-1.75l-.47.16c-.07-.48.36-1.13-.28-1.3l.12-.28c-.25.12-.91-.66-.93-.73-.02-.06.17-.38.05-.56-.17-.26-.55-.28-.67-.59-.1-.25-.06-.65-.16-.94-.16-.42-.75-.6-.35-1.32h-.95s.28-.87.28-1.02c-.01-.44-.53-.48-.55-.64s.16-.57.11-.95c-.13-.97-.57-.87-.48-2.26.03-.41-.37-.49.17-.61-.72-.24-.21-.77-.24-1.04-.07-.59-.38-1.15-.39-1.81,0-.78.19-1.45.16-2.22l-.49-.09.48-.72c-.71-.29-.04-.74-.02-.79.02-.05-.13-.96-.16-1-.07-.1-.43-.14-.45-.27-.03-.21,1.1-1.03.32-1.29l.12-.36-.27-.09c.14-.13.1-.45.19-.54.22-.2.41.31.44-.66l-.64-.16c.11,0,.2.04.27-.08.1-.17.57-1.6.6-1.81.08-.49-.41-.5-.41-.58-.01-.49.56-.6.72-1.01.22-.58-.78-1.27.41-1.29.07-.49-.73-1.09-.61-1.35.22-.46.77.33.61-.56l-.48-.16c.49.12.12-.45.36-.61l.41-.04c.25-.57.15-.85.22-1.4s.54-.54-.19-.89c.2-.58.62-1.18.83-1.72.1-.26,0-.53.07-.7.08-.2.33-.18.37-.3.17-.62-.76-.55,0-1.32l-.32-.08c.34-.53.36-1.3.96-1.61-.34-.74.05-.44.22-.7s.18-.93.4-1.17c.15-.17.42-.06.47-.11.1-.1-.03-.72.02-.99.02-.08.43-.27.54-.59.1-.3.05-.59.13-.83.11-.36.59-.41.28-1.07l.29.12.1-.26.41.14c-.22-.5.36-.81.8-.79l-.48-.47c.85-.18,1.03-.23,1.43-1.04l-.32-.24c.33-.18.87-.3,1.15-.48.45-.29.38-.98,1.23-.47v-.8s.28.11.28.11c.16-.64.98-.06,1.36-.11.09-.01.1-.23.23-.31.67-.38.53.16.7.28ZM41.53,24.04c-.09-.1-1.49-.35-1.64-.31-.07.02-.2.44-.56.28l.15.54-.25.23-.45-.13-.23.23c.37.26.28.49,0,.81l-.64-.18-.95,1.12.02.38.29.17c-.67.04-.29.42-.33.54-.25.69-1.51,2.14-1.86,2.82-.03.07.15.3.1.49-.06.23-.39.42-.29.76l.48.08c-.19.77-.91.85-1.11,1.6.79.24-.17.89-.57,1.18.17.19.1.74.12.77.08.09.35-.08.29.19l-.63.17.15.78c.72-.42.05.51-.01.72s-.06.69-.13.77c-.19.25-.96-.17-.18.89-.65.03-.31.79-.52,1.31-.1.24-.37.38-.42.55-.12.42.4.57.42.76s-.62.44-.45,1.43l.49.24c-.48-.07-.14.27-.32.54-.13.18-.41.2-.47.37-.33,1.03.22,2.21,0,3.3-.08.41-.43.32-.48.5-.02.09.12.35.09.53-.06.37-.41,1.24-.41,1.51,0,.32.39.43.44.64.05.24-.24.7-.11,1.01h.47c-.49,1.37-.66,2.37-.25,3.75.03.09-.08.25-.07.37l.63.18-.32.87c.5.18.31,1.23.48,1.71.08.23.63.17.48.82-.09.4-.21-.39-.1.71.02.24-.08.85-.03.93.05.09.64.44.7.57.28.55-.06.85.85,1.14.05.22-.35.3-.24.7.17.6.67.45.72.49s-.17.64.31,1.17c.17.19.19.03.54.51.29.39.95,1.37,1.33,1.47.19.05.4-.13.49-.09.03.01.01.26.13.28.14.03.35-.11.56-.07.39.09.78.26,1.17.38l.09-.48c.76.38,1.15-.92,1.74-.64-.29-1.14.23-.93,1.01-1.27.18-.08-.06-.46.74-.16v-.63s.32.16.32.16l-.32-.56.32-.16-.47-.39,1.1-.57c-.18-.53-.22-.88.02-1.39s.84-1.37.8-2.08c0-.09-.29-.07-.32-.19-.15-.55.74-1.63.75-1.72,0-.11-.33-.32-.2-.8.1-.39.49-.68.54-.98.06-.4-.29-.68-.28-.76.01-.14.47-.23.59-.49.11-.25-.18-1.95-.1-2.2.04-.14.38-.12.43-.33.14-.52-.05-1.97-.07-2.53,0-.21.35-.51.08-.86l-.62-.02c-.06-.26.22-.08.28-.23.21-.51-.22-1.24.51-1.43-.64-.03,0-1.27-.02-1.41-.03-.16-.32-.29-.39-.5-.18-.56.24-1.66.42-2.22l-.31-.3c.46-.44.38-1.8-.33-1.77l.3-.09c-.25-.59.04-1.11.5-1.5-.85-.41-.29-.39-.24-.79.17-1.45-.49-2.87-.56-4.28,0-.2.16-.46.13-.54-.02-.05-.62-.19-.29-.82l-.48.16c.24-.62-.32-.88.47-1.19-.29-.43-.53-1.57-1.27-1.19-.05-.92-.39-2.57-.83-3.39-.11-.21-.42-.23-.45-.37-.09-.38.2-.89,0-1.32l-.31.16-.17-.64c-.36.27-.74-.15-1.02-.47-.05-.06.06-.27.03-.3Z"/><path d="M164.38,22.32c.36.29.2.87.84.27.1.34.56.89.88.8l.24-.32v.94s.62.03.62.03c.16.9,2.15,2.24,2.42,3.06.23.69-.15,1.58.77,1.54l-.16.62h.48c.16.4-.3.75-.29,1.01,0,.14.22.32.22.49,0,.65-.27,1.28.22,1.92l-.63.71.63.08c-.18.74-.76.51-.79.56-.05.08-.34,1.26-.5,1.62-.08.19-.87.98-.14.92v.15c-.46-.07-.18.31-.33.63h-.63s-.04.77-.04.77c-.84.35-1.62.25-2.5.28l-.64-.97.32-.15c-.54-.33-.14-1.12-.64-1.04v-.15c.62.21,1.9-1.36,1.11-1.43l.31-.23c-.98-.93,1.08-2.31.64-2.99-.07-.11-.31-.1-.3-.18.03-.35.17-1.08.08-1.45-.05-.18-.62-.46-.72-.68-.19-.43-.18-1.04-.41-1.46-.24-.45-.22.17-.33.16l-.37-.15-.17.3v-1.11s-.45-.03-.45-.03l-.03-.45-.31.16c.06-.88-1.32-.51-1.67-1.4-.26.36-.62.12-.87.21-.42.16-.83.81-1.44.71l.48.47-.79-.16.32.47-1.11.16c.09.16,0,.51.05.61.03.07.34-.07.27.18l-1.34.48c-.1.35.13.85.07,1.17-.02.13-.25.1-.28.19s.1.3-.08.51c-.13.16-.57.25-.69.53s.09.48.05.61c-.02.07-.71.9-.73,1.08-.03.2.74,1.06-.34,1.33.62.41-.43,1.54.31,1.59l-.44.69c.1.47,1.12.85.76,1.21h.48c-.57.98.66,1.11.47,1.75l.79-.32c.03.57.68.51,1.08.75.5.29,1.05,1.04,1.92.89l.03.27c.78-.62.65.04.96.39.49.56.85.15,1.31.27.07.02.98.54,1.31.69.63.29,1.1.74,1.89.7l.1.5.39-.48c.71.28,1.13,1.98,2.15,1.66.1.92.82,1.3,1.37,1.89.22.23.51.44.54.48.23.34.44,1.23.64,1.59.17.3.67.57.75.85.16.57-.49.95.34,1.24l-.32.24c.52-.06.26.72.5,1.17.11.21.37.23.41.29.02.03-.11.58.04.76l.31-.32c.3.42-.11.96-.1,1.19.01.26.32.43.38.68.05.21.37,1.78.34,1.87-.05.13-.25.04-.3.08v.15c.46-.08.18.37.32.71l-.49.17c-.19.56.33.6.33.64,0,.24-.28.46-.27.63,0,.11.23.28.25.49.15,1.14-.67,1.44-.63,2.53l.47.16c-.19.43-.21.78-.79.72l.18.53-.49.34c.87.4-.07.94-.21,1.23-.53,1.07-.7,2.91-1.19,4.04-.13.3-.46.59-.55.97l-1.71.68.15.31c-.81-.14-.66.33-1.05.79l-.68-.14-.59.93-.31.02-.09-.3-.3-.02-.4.47-.31-.46-1.04.14.16.63c-.63.28-1.43-.34-1.82-.32-.48.03-.75.46-.8.45-.53-.01-1.42-.46-1.36.5-.46.12-.57-.46-.87-.49-.09,0-1.63.15-1.73.18-.15.04-.04.42-.34.31-.37-.42-1.25-1.22-1.36-.32h-.15c.06-.44-.44-.31-.7-.5-.69-.51-1.15-1.57-2.01-.62,0-.37-.54-1.24-.79-1.48s-.69-.15-.96-.36c-.15-.11-.2-.71-.48-.28l-.15.36c-.34-.59-.73-1.18-.64-1.9l-.54.13-.35-.45.25-.64h-.46c.05-.76-.77-.98-.97-1.84l-.8.09-.24-3.04c.07-.74.54-.75.73-1.05.22-.35-.33-.48.48-.61l.07-.55c.54-.27.97-.12,1.51,0l.08-.32,1.17.65-.28,3.3c1.03.09.53.74.7,1.12.06.13,1.39,1.21,1.68,1.51.41.42.24.73,1.1.56-.18.14.56,1.31.63,1.35.4.27,1.71-.15,1.6.87h.16c0-.84,1.45.28,1.59.16l-.16-.47c.64-.15.6.2.95.47l.16-.64c.44.12.66.21.87.64,0-.32.81-.35,1.12-.34s.21.28.31.3c.39.09,1-.12.96-.61.59.24.95-.1,1.41-.14.67-.05.94.48,1.06-.49.31.12.56.15.89.03.16-.05,1.36-.87,1.52-1,.82-.67.67-1.58.8-1.7.53-.5.39.1.75-1.08.05-.17.29-.39.29-.47,0-.12-.29-.25-.34-.39-.18-.49.65-1.8.83-2.48.13-.48-.06-1.08.33-1.41l-.64-.08c.17-.38-.09-1.13.48-1.11l-.32-.24.32-.16-.3-.15c.22-.35-.05-.76.02-1.08s.63-.45-.03-.69c0-.6.49-1.08.13-1.63l-.61-.02.29-1.34-.59-.27c.12-.22-.06-.51-.02-.67s.48-.02.32-.42c-.6-.11-.68-.75-.55-1.27h-.56c-.04-.31.08-.73-.02-1.01-.08-.22-.4-.22-.43-.28s.21-.84-.1-1.25l-.88-.16.11-.28c-.05-.15-1.27-.81-1.47-.98-.33-.28-.01-.62-.68-.34-.04-.12-1.15-.92-1.23-.93-.16-.02-.33.17-.66.05-.22-.08-.62-.79-1.31-.37v-.48c-.57.19-.97.02-.97-.63-.96.36-1.59-.19-2.14-.96l-.17.31c-1,.17-.91-.69-1.02-.79-.32-.3-.52.33-.56.33-.66.04-.98-1.24-1.5-1.36-.32-.07-.46.29-.64.16-.31-.21-.22-.74-.36-1-.08-.15-.58-.71-.83-.67.03-.6-.16-1.37-.57-1.83-.26-.29-.44-.06-.45-.09-.09-.15.51-1.21-.64-.95l.32-.24-.16-.16c-.65.27-.36-1.13-.27-1.54.07-.36.66-1.68.68-1.96.02-.26-.3-.54-.22-.91.14-.65,1.04-3.02,1.34-3.62.14-.28.69-.68.84-1.04-.27-.42-.43-.33-.15-1.02l.47.16c-.03-.77.45-.53.61-.65.03-.02-.09-.23-.03-.3.11-.14.29-.09.41-.39.08-.2-.04-.53-.02-.54.1-.09.48-.08.66-.19.36-.22,1.1-1.02,1.41-1.37.23-.27-.06-.75.55-.39.24-.5.73-.42,1.19-.29v-.48c.42.16.75.07,1.17-.01.48-.1,1.33-.61,1.6-.63.1,0,.99.06,1.03.09.17.12.22.41.4.57.14.12.39.1.51.2Z"/><path d="M197.32,25.15c.27.35-.64.86-.73.98-.15.2-.06,1.12-.04,1.45.01.21.23.36.24.49.02.16-.28.45-.19.79.16.61.91.78-.23,1.11l.16.72.64-.23c-.07.27-.08.69-.2.92s-.44.24-.46.37c-.03.18.17.57.16.91-.03.84-1.13,2.51.33,2.24-.32.48-.02,1.71-.79,1.51.3.58.55,1.69-.16,1.98l.3.09c-.33.6.05.97.29,1.5l-.43.47.79.24-.31.73-.48-.1c.04.74,1.07,1.33,0,1.82.02.31.58.9.6.96.03.08-.28,1.47-.34,1.7-.22.9-.96,1.85-.11,2.59-.56.14-.15.45-.23.88l-.57.15.63,1.11c-.41-.06-.19.24-.26.32-.14.18-.43.21-.52.43-.16.42.15.85.13,1.24-.01.25-.38.6-.29.96s.35.42.44.79c.09.39-.36.8-.3,1.19l.64.08c-.19.63-.93.81-.67,1.49l-.28.02.32.24c-.42.63-.55,1.38-.56,2.13,0,.17.2.34.19.41-.01.13-.95,1.51-1.06,2.24s.49.68-.48,1.26l.33.17-.16.61c-.63-.22-.87,1.56-.99,1.65-.11.07-.35,0-.43.04-.09.05-.14,1.57-.43,2.06-.19.31-.81.76-.96,1-.21.34.12.91-.68.58.03.86-.44.5-.84.64-.08.03-.48.51-.81.67-.23.11-.45-.02-.66.11-.26.16-.59.54-1.01.82-.04.03.3.45-.5.56-.35.05-.45-.21-.71-.23-1.22-.1-1.23-.25-2.1-.48-.36-.09-.94.38-1.19-.47l-.28.12c.05-1.02-1.41-1.65-1.68-2.23-.08-.16.07-.36.03-.44-.02-.04-.68-.56-.76-.58-.22-.07-.44.08-.46.07-.04-.03-.06-.37-.17-.52-.07-.11-.32-.09-.33-.21-.02-.21.24-.56.15-.67-.1-.13-.58-.13-.46-.66l-.31.16c.22-.17-.11-.84-.2-.92-.12-.11-.4,0-.43-.04-.09-.09.44-2.31-.64-2.07.23-.57.02-1.18-.09-1.76-.22-1.1-.52-1.68-.53-2.77,0-.37-.4-1.3-.33-1.88.01-.12.26-.09.28-.17.18-.73-.78-1.14.2-1.59-.11-.53-.6-.37-.63-.4-.25-.25.65-1.51.47-1.97l-.48-.1c-.13-.6.39-1.2.45-1.54.05-.28-.16-.68-.14-1.07.02-.42.3-.77.32-.97,0-.08-.25-.05-.28-.15-.12-.29.4-.97.28-1.58-.15-.78-.05-.49-.07-1.05,0-.3-.26-.61-.22-.99.02-.18.26-.39.25-.51-.01-.16-.37-.29-.39-.47-.04-.33.18-.32,0-1.15-.08-.39.44-.31-.54-.45.43-.11.15-.24.32-.47.08-.11.48,0,.31-.4-.54.02-.15-.28-.2-.54-.08-.47-.26-2.13-.1-2.52.07-.17.44-.2.41-.52-.04-.53-.47-.22.17-.96l-.59-.87.48-.08.32-2.21-.42-.49.59-1.26c-.67-.34-.65-.96-.01-1.36l-.47-.24.47-.64-.48-.32c.94-.65.17-2.04.79-2.86l-.63-.08.3-.17c-.36-.73-.23-1.02.18-1.66l-.48-.55c.58-.25.9-.5.63-1.11l.63-.16c-.19-.16-.35-.65-.16-.79.34-.25.53.32.57.32.25,0,.52-.27.86,0l.16-.48c-.11.45.32.15.41.3.14.26,0,.64.1.79.07.1.45.09.58.21.05.04.31,1.12.32,1.21.07.72-.83,1.72-.14,2.66l-.46.47c.01.09.78.39.6.79-.04.09-.24.07-.26.11-.07.16.13.31.1.42-.01.03-.48.2-.44.5.13.1.83-.18.79.16-1.08.4-.12,1.86-.95,2.47-.02.05,1.05.45.16.79l.32.16c-.46.36-.17.67-.18.96,0,.06-.34.54-.38.94-.04.43.4.88.37,1.08-.05.38-.9,1.28-.12,1.46l-.48.48.48.63c-.54.52-.07,1.03-.15,1.41-.03.17-.42.15-.45.33-.08.53.34,1.61-.2,2.08l.64.08c-.17,1.04-.39,1.96.02,2.94l-.34.31c.45.57.02,1.29.8,1.59l-.28.1c.26.53-.12.62-.14.69-.3,1.15-.13,2.77-.05,3.96,0,.05.53.13.17.78-.09.16-.47,0-.33.43h.48c-.2.59.01,1.47-.08,2.09-.05.34-.57.25-.39.77l.47-.16.16.78-.77.19-.02.45h.64s-.47,1.49-.47,1.49l.79.42c-.35.71-.6,1.1-.32,1.91,1.33-.46.45.81.47,1.5,0,.04.46.24.33.72h.63s-.16.65-.16.65l.47.1v1.33s.8-.16.8-.16c-.07.42.24,1.33.55,1.6.26.23.87.27,1.09.46.19.16.17.65.51.8.11.04.16-.64.55-.48.07.57.17.76.78.62v-.46c.66.38.72-.33,1.03-.58.18-.14.78-.37.97-.53.58-.49,1.96-1.52,1.2-2.22h.47c-.02-.43.34-1.16.65-1.51l-.33-.16c.36-.39.04-1.13.48-1.03l-.3-.39c.44-.38.65-.73.76-1.31l-.3-.28c.9-.54.43-.49.51-.93.04-.2.37-.32.41-.52.07-.36-.48-.92.19-1.09-.44-.5-.21-1.13,0-1.67l-.48-.08.79-1.75-.32-.16c.57-.41.37-1.04.63-1.59l-.63-.16c0-.69.59-.47.64-.65v-1.18s-.49.08-.49.08c-.12-.64.43-.95.46-1.13.03-.19-.31-.32-.25-.7.1-.6.95-1.11.26-1.74,1.03-.08.03-1.56.07-2.08.03-.32.25-1.14.33-1.66s.29-1.04.24-1.58l-.49-.16c.4-.1.21-.41.48-.71h-.48c.12-.21.05-.5.15-.69.09-.16.47,0,.33-.43h-.48s.18-.54.18-.54l-.34-.17.64-.95-.48-.08c.15-.41-.02-.71.48-.87l-.32-.08c-.06-.27.21-.39.26-.63.07-.38-.56-.89.06-1.03-.41-.96-.69-1.75.17-2.54l-.33-.64c-.05-.14.25-.01.28-.15.12-.6-.29-.6-.29-.64,0-.25.31-.55.28-1.23s.11-1.66.06-2.1c-.04-.34-.31-.58-.3-.77.03-.63.55-.83.28-2.06-.03-.13-.25-.11-.27-.19-.09-.27.18-1.1.37-1.34.39-.49,1.54-.63,1.02-1.44.7.11,1.23.59,1.97.33.09.03.64.98.67,1.09.06.27-.16,1.39,0,1.6.08.11.33.11.37.17Z"/><path d="M145.55,20.31c.91.32,1.55.66,2.56.34.26-.08.35-.41.66-.43.67-.05,1.06.67,2.03.3.12-.05.12-.31.23-.32.22-.02.49.17.76.16.36-.01.63-.33,1.05-.24.5.11,1.08.68,1.43.95.08.06.28-.05.3-.04.24.21-.21.78.34.85-.38.42-.46.87-.02,1.28-.44.52-1.05.66-1.61.88-.11.05-.12.24-.2.26-.64.21-1.15-.3-1.43-.29-.05,0-.19.83-.48,0-.56.74-1-.1-1.67,0l.16.32c-.47-.22-1,.11-1.36.09-.23-.01-.52-.32-.79-.42-.8-.3-.71.15-.81.17-.3.04-1.12-.27-1.41-.24-1.31.14-.63.4-2.4.09-.08-.01-1.29-.03-1.4-.01-.15.02-.08.74-.57.65l.48.16-.32.63.32-.08c.18.7-.22,1.36-.18,2.07.02.34.35.98.31,1.11-.03.09-.39.11-.41.5-.01.3.23.56.21.78-.01.13-.25.25-.22.45.05.27.47.25-.03.74h.64s-.47,1.04-.47,1.04c.43.18.38.3.47.71h-.64c-.2.42.33.52.33.56.02.5-.72.55.16.97l-.49.93c.76.23.82,1.46,0,1.35l.48.16-.18,1.26h-.46c.16.26.01.91.06,1.05.07.2.33.19.43.34.51.78-.41.65-.16,1,.02.03.22-.05.28.08.2.39-.73,1.14-.72,1.6,0,.26.74.31.12.87l.96.08c-.32.19-.51.72-.8,1.11l.32.55c-.5-.15-.28,1.57.16,1.44l-.29.18.1.27-.44.27c1.08.33-.28,1.32.48,1.59-.77.61-.1,1.15-.16,1.74-.06.53-.61,1.81-.63,2.25-.02.62,1.13,1.79-.17,1.81l.16.79h.64c0,.59-.36.95-.5,1.5-.16.62.11.71.11.96,0,.4-.29.98-.08,1.51l.63.07c-.04.74-.71.64-.79.72-.02.02.14.27.14.41,0,.33-.24,1.4.02,1.58l.48.08c-.15.34-.18.79-.64.8.73.53.11,1.05.64,1.51-.62.21.02,1.08-.48,1.58,1.12.35-.36,1.58.48,1.91-.53.45-.27.88-.46,1.44l.3.14c-.37.4-.42,1.84-.66,2.13-.03.03-.57-.25-.46.42l.32.24c-.81.62-1.13-.56-1.98.16-.28-.7-.99-.89-.88-1.74h-.63s.04-.62.04-.62l.28-.1-.33-.17c.07-.2.15-.4.15-.62-.01-.95.29-1.52.2-2.56-.01-.16.17-.34.13-.39l-.47-.08c.13-.47.53-.78.69-1.23.24-.7-.2-1.44.11-2.11l-.48.24.49-1.98c-.6-.24-.58-.7-.17-1.12l-.32-.17c-.06-.53.41-1.19.42-1.42.03-.53-.89-1.39.06-1.75l-.64-.08.32-.71-.32-.15.49-1.42-.33-.25h.32c-.19-.3-.34-.79-.23-1.14.1-.33.33-.26.37-.4.25-.74-1.01-1.13.03-1.59l-.33-1.16h.46c.11-.65-.24-1.12.18-1.67l-.64-.32c.29-.39.37-1.34.79-1.35-.81-.69-.14-.86-.32-1.59l-.63.08c.38-.52.16-.96.36-1.54.19-.54.4-.45.42-1.32.02-.77-.17-.58-.26-.79-.08-.18.19-.49-.36-.64l.29-.1c-.22-.38.18-.6.19-.85.01-.27-.31-.49-.28-.77.03-.3.51-1.02.45-1.6l-.28-.12.13-.37-.32.08.15-.47-.31-.09c.46-.09.55-2.01.48-2.36-.03-.14-.41-.07-.33-.34.87-.67-.07-1.75.03-2.07.24-.8.07-.26,0-1.11-.05-.6.21-.89.29-1.27.02-.11-.22-.04-.27-.16-.44-1.03.42-.85.43-.96.11-.73-.72-1.01-.6-1.42.02-.08.2-.08.21-.12.22-.69-.21-.34-.41-.44-.08-.04.56-1.53-.48-1.17l-.15-.57c-.4-.15-.28.24-.35.28-.36.19-.86.02-.61-.43-.46.38-1.13-.16-1.19-.16-.13.01-.18.39-.26.44-.04.03-.25-.11-.43-.04-.95.33-1.57.14-2.65.09l-.14.28c-.84-.45-1.13.81-1.68-.39l-.56.25-.16-.32-.09.46-.62.02c.17-.67-.42-.81-.78-1.21-.19-.21-.14-.59-.49-.54l.32-.47-.47-.08.15-.48c.79.16.57-.06,1-.48.05-.04.25.09.35-.06.09-.14.02-.39.2-.49.37-.21,1.26-.04,1.63.17l.26-.46,1.88.32.17-.33.47.32c.68-1.23.82.15.96.15l.71-.63c.04.39.42.65.8.63l.08-.63,1.59.64.12-.3c.54.23.43-.1.48-.11,1.08-.34.55.21.99.4l.15-.29.72.3v-.47c.11.03.21.09.33.06.19-.06,2.04-.2,2.27-.16.39.07,1.92.96,1.38-.06.6-.39,2.41,1.23,2.39-.16l.19.26Z"/><path d="M17.94,20.63c.1.09.5-.01.42.37l.16-.32.39.34c.47.05.83-.32,1.28-.35.51-.03,1.07.34,1.44.32.54-.03.46-.78.78-.62l.48.62c.59-.6.75.01.82.02.28.05.71-.17,1.09-.17.98.02,1.84.63,2.38-.47l.48.63.24-.79.79.32-.16.47c.48-.08.67-.55,1.2-.17l.07-.29h.31c-.04.45.9.72.92,1.02.01.2-.39.48-.42.67,0,.06.25,1.01.45.92-.21.26-.56.23-.8.47-.32.32-.33,1.33-.86.4h-.32c-.18.08-.17.45-.35.49-.67.15-2.51-.61-3.15-.45-1.09.26-.73-.08-1.29-.18-1.02-.18-1.99.3-3,.31-.61,0-.97-.47-1.26.31l-1.2-.47.02.78h.46s0,.64,0,.64h-.47c.42.53-.11.83-.12,1.17-.02.6.89,1.36.49,2.14-.12.23-.38.18-.38.28,0,.19.43.79.41.94-.02.14-.2.26-.23.47-.05.43.34.66-.33,1.2.52-.05.14.27.23.56.1.31.41.72.41.96,0,.3-.42.43-.48.79-.08.47.22.9,0,1.34l.48.08c-.02.58-.25,1.18-.28,1.76-.03.51.37,1.46-.2,1.58l.29.15-.29,1.2.32-.16c.38.58-.4.94-.42,1.19-.02.18.57.99.59,1.29s-.23.46-.24.62c-.03.37.24,1.61-.24,1.51l.33.24c-.38.85-.5,1.92-.32,2.83.02.12.25.11.27.18.2.7-.23.75-.24.79-.11.54.15,1.14-.04,1.67h.64s-.16.8-.16.8l-.47-.16c.43.97.27,1.71,0,2.7l.44.03.13.37-.57.63.33.17-.33,1.58.32.08-.32.24c-.15.49.36.38.46.66.19.53-.42,2.11-.4,2.81.02.63.36.77.38.82.15.63.29,1.49-.44,1.75.81.58-.11,1.08-.12,1.27,0,.12.22.32.24.5.03.32-.23.66-.2.94.04.39.78,1.12.26,1.76l.31.14c-.48.32-.6.86-.47,1.4.03.12.25.1.28.19.14.38-.89,1.2-1.02,1.67-.09.32.12.61.1.63-.03.03-.24-.05-.34.02-.22.14-.19.41-.7.26-.09-.03-.07-.24-.16-.25-.14-.02-.91.16-1,.09-.63-.45-.69-1.98-.35-2.66h-.64s.48-.95.48-.95l-.47.16c-.28-.91.46-1.34.42-2.28,0-.16-.2-.35-.2-.5,0-.34.84-1.47.35-2.16l-.58-.23c-.06-.63.46-.91.47-.97.05-.3,0-1.11-.46-1.01l.49-.71-.47-.47c-.02-.19.42-1.22.45-1.45.03-.26.02-1.16-.31-1.1.69-.5.57-1.24-.32-.96.32-.97.73-1.52.46-2.61h-.46c.21-.88,0-1.67.64-2.48l-.32-.08.32-.71-.34-.31c.3-.65-.01-1.41.18-2.04.04-.14.28-.11.3-.22.08-.41-.47-1.43-.45-1.54.04-.19.74-.76.62-1.28l-.64-.33.47-1.35-.64.16c.27-.58-.24-1.81.79-1.75l-.11-.32h-.36c.28-.55-.25-.94.48-1.19-.39-.12-.74-1-.59-1.28.16-.32.64-.03.26-.74-.08-.15-.32-.13-.3-.2.05-.23.37-.42.34-.96-.02-.29-.28-.22-.31-.31-.05-.14.28-.68.3-.96.04-.52-.29-1.54-.27-1.75.02-.15.32-.3.26-.39-.01-.02-.22.02-.27-.04-.15-.16.36-1.82.37-2.19.02-.7-.44-1.65-.36-2.17.06-.43.65-.88-.05-1.08l.47-.8-.47-.24.11-.32.21-.08-.32-.08v-.24c1.18-.83.2-1.79-.89-1.93-.26-.03-.5.15-.76.11-.05,0,.05-.12-.61-.2-.59-.07-.68-.31-1,.35-.63-.51-1.48-.52-2.26-.59-.19-.02-.33.21-.44.21-.15,0-.78-.5-1.18-.24l-.09.46c-.67.14-.49-.36-.79-.34s-.48.24-.64.26c-.31.03-1.29-.29-1.35-.24l.16.32c-.42.02-.77-.27-1.04.16-.17-.22.03-.4-.4-.32v.47c-.81-.02-2-.49-1.91-1.43l-.63.16c-.03-.68.31-.69.64-1.19l-.32-.23c.7.09.6-.6.79-.72s.55-.04.8-.16c.54-.24.35-1.17,1.51-.39l.26-.62c.41.06.74-.11.77.45l.24-.48c.7-.03.74.67,1.19.64v-.46c.85-.23,1.11.15,1.67.46.45.24-.13-.41.31-.31.34.08.88.44,1.11.45.34.02.8-.3,1.14-.3.37,0,.96.41,1.56.24.39-.11.6-.53.64-.54.62-.15,1.7.22,2.24.29.21.03,1.28-.04,1.32-.25.03-.17-.38-.45.09-.38.3.16.41.55.62.74Z"/></g></svg>