<?xml version="1.0" encoding="UTF-8"?>
<svg id="Layer_1" data-name="Layer 1" xmlns="http://www.w3.org/2000/svg" viewBox="0 0 385.8 178.08">
  <path d="M271.7,1.9c.1-.04.01-.64.68-.42.37.16.28.8.42.93.11.09,2.03.86,1.79.05.35.12.56.89.65.93.11.06.96-.49,1.19.78l-.49.24c1.19.1,1.99.03.99,1.35.33.45.98.47,1.34.87.44.48-.14,1.08.61.97l-.46.26-.03,1.45.98.25c-.71,1.3-.32,2.36.02,3.66l.71.15c-.13.82-.59,3.08.74,2.81l-.25.73h.98s.24.5.24.5l-.49.48.46.12c-.88,1.51.17,1.77.64,2.85.05.11.36.9.41,1.05.36,1.02.34,2.28.94,3.23l-.49.23c.95.74.08,2.11.98,2.95-.66.1-.65,1.11-.49,1.66.1.35,1.56.64.49,1.64l.51.16c-.4,1.07.09,1.7.46,2.69l-.48.22c.52,1.25,1.67,2.28.74,3.56l.98.37c-.75.69-.5,1.44-.73,2.33,1.56-.08,1.53,1.04,0,1.1.98.35.73,1.72.78,1.8.08.12.58.13.66.42s-.58,1.98-.41,2.44c.04.11,1.21.72-.06,1.23v.48s.74.51.74.51c-.87.8.63,2.65-.49,2.81v.24c1.36.29.41,2.01.36,2.58-.18,2.3-.38,4.63-.55,6.88-.08,1.05.3.75.41,1.04.53,1.42-.32,1.77-.47,3.12l.74.25c-.1.51-.93.85-.98,1.04-.14.52.12,1.34,0,1.92-.12.61-.61.49-.71.73-.16.37.09,2.95-.53,4.1-.94,1.76-.44,1.23-.77,2.76-.02.08-.75.58-.7,1.46l.51.28-.06.41c-.33,1.47-1.22,1.21-1.42,1.42-.11.12.18.68.1.99-.42,1.74-1.21,3.55-2.35,4.96-.62.78-1.43.66-1.06,1.89l-1.12.24.25.73-.71.02c.17.97-.49,2.24-1.13.97-.88.71-1.06.99-.37,1.96l-1.96-.25-.24.89c-.87-.26-.69.23-.94.32-.55.21-2.61-.23-3.38-.25-.45-.01-.31.49-.51.52-.5.09-1.04-.32-1.56-.25l.24.73c-.99-.17-1.88-.54-2.9-.66-1.08-.12-3,.35-3.87-.31-.22-.17-.26-.62-.4-.7-.48-.28-.94.38-1.16-.93l-1.23-.11.19-.44c-.69-.74-1.97-1.74-2.32-2.55-.22-.52.73-1.31-.96-1.66.35-1.02-.43-.71-.57-1.14-.07-.25.18-.62.14-.93-.21-1.53-1.52-2.05-1.77-2.83s-.16-2.28-.47-3.21c-.2-.3-1.08.27-1.25-.72-.05-.28.29-.46.3-.66.01-.45.02-1.42-.02-1.83-.08-.73-1.14-1.24-.79-2.76.14-.6.67-.8.66-1.39l-.74-.13c1.09-1.69-.71-3.18.5-4.78l-.98-.37c.24-.25.54-.43.66-.78s.37-5.52.31-5.8c-.04-.19-.73-.09-.48-.99.05-.19.48-.06.51-.51.1-1.17-.25-2.73-.27-3.92-.01-.8.09-1.43-.04-2.17-.11-.65-.96-.9.29-1.16l-.48-1.08c.87-.34,1.4-2.15.29-2.39l.7-2.8-.52-.49c.75-1.43.13-3,.78-4.4l-.51-.61.5-.14c-.62-.96.18-1.31.39-1.99s-.34-1.68.09-2.41l-.74-.37c.66.09.24-.34.58-.75.23-.27.73-.39.83-.53.11-.15-.1-1.81-.18-2.16h.98s-.48-.86-.48-.86c1.73-.81.74-1.58.84-2.36.05-.42.54-.43.7-.77.25-.55-.01-1.73.66-2.27l-.49-.36.97-.27c-.43-.88.37-1.19.55-1.77.34-1.07.17-2.39,1.41-3.24-.57-.5-.77-.6-.48-1.35l.98.25-.14-1.49c1.29.06,1-1.93,1.42-2.38s.25.23.95-1.09c.49-.92.73-.97,1.36-1.72.12-.15.1-1.27.2-1.43.14-.22.46.1.81-.39.64-.91.2-1.2.3-1.88.03-.17.37-.18.39-.23.61-1.35,1.37-1.13,1.83-1.83.33-.5.25-1.17.84-1.8.68-.73,1.7-.51,1.87-1.45.72.52,2.28.97,3.11.66ZM273.33,10.97c-.15-.53-.59-3.88-.95-3.85l-1.09.76.24.71c-.95.42-1.3-.48-1.38-.49-1.58-.34-1.23,1.87-1.62,2.4-.11.16-.73.2-1.06.56-.29.31-.44,1.72-1.33,2.11l.72,1.07-2.69,1.6.73.98-.71.39.21.68c-1.16.06-.95,1.86-1.07,2.01-.22.25-.73.12-.88.41-.25.45-.28,2.27-.54,2.49-.14.12-.52-.01-.66.06-.13.07-.03,2.13-.06,2.26-.1.46-1.06.87-1.13,1.3-.06.36.34.89.16,1.4-.13.37-.66.41-.82.65-.06.08-.14,1.65-.38,1.97l.49-.25-.21,1.33c-1.44.26-.39.51-.5,1.22-.03.2-.52.2-.71.57-.34.67-.08,1.44-.22,1.99s-.61,1.05-.72,1.76c-.14.94.54,1.64-.35,1.84-.15.95,1.3.5.36,2.08-.12.2-.51.21-.56.28-.07.09.19,1.78.06,2.2l.88.35-1.2,1.51c.54,1.37.61,3.3-.27,4.64l.49.22c-.41.53-.55,1.85-.37,2.46s1.5,1.26.61,1.96c-.1.08-.83-.44-.49.71.07.24.9.02.23.96-.11.16-.46.17-.49.35-.12.71.52,1.41.48,1.93-.02.34-.38.55-.42.78-.07.36.42.76.45,1.2.03.46-.36.71-.38.96-.19,2.18.4,4.1.11,6.37-.04.32-.38.6-.38.75,0,.31.96,1.24.43,2.05,1.27.4.29.64.1,1.4-.08.31-.1,2.55-.02,2.82.09.32.84.97,1.04,1.28.07.11.51.78.53.83.59,1.36-.43,2.69.86,3.93.18.18.79.09.89.47l-.24.94c.81.09.19,1.02.26,1.1.12.12.73.09.92.32.22.27.04.93.2,1.18.2.34.7.39.85.64.64,1.06-.22,2.09,2.19,1.31l-.25.49c1.2.12,2.42.32,3.63.43.95.08,1.93.04,2.87.05.33,0,.57.17.86.27l.03-.7,1.91-.56-.22-.46c1.13.09,1.48-1.32,2.45-1.24-1.19-1.27,1-1.38,1.22-2.33.17-.72-.79-.06-.73-.6.7.16.22-.48.47-.62.31-.17.79.01,1.03-.27.38-.46.33-1.52.53-2.1.19-.55.66-1.47.92-2.05.08-.2-.64.12-.45-.68.21-.89,1.94-2.53,1.91-3.49,0-.33-.4-.52-.37-.87.04-.5.76-.46.88-1.08.13-.68.11-1.59-.74-1.6l.45-.27-.2-.45.97-.26c-.33-1.19-.97-2.3.74-2.45-.51-.76-.47-1.17-.11-1.96l-.88-.37c-.12-.66.57-1.24.65-1.42.38-.87.36-1.36.44-2.52.03-.36.32-.53.38-.73.06-.17-.36-.07-.49-.28-.37-.55-.08-2.36.24-3l-.72-.62.93-3.25c-.41-1.29-.14-1.75-.67-2.97s.37-2.46-.34-3.98c-.07-.15.08-.45.06-.46-.17-.11-1.18.16-.49-1.07.17-.29.83-.3.72-1.03l-.94-1c.64-1.67-.49-3.36-.76-4.38-.32-1.2-.2-3.1-.52-4-.02-.07-.49-.1-.56-.52-.09-.54.49-1.15.38-1.75h-.73c-.25-.77.5-1.03.49-1.1-.03-.37-.72-.68-.73-.77-.05-.59.41-1.82.4-2.38-.01-.74-.5-1.37-.56-1.82-.2-1.53.41-3.72-1.57-4.25.72-.9.16-.91.02-1.6-.27-1.31.06-1.25-1.14-2.29.66-1.44-.01-.74-.61-1.86-.39-.72-1.19-3.02-1.36-3.64Z"/>
  <path d="M146.37,2.21c.21,1.14.08,2.2,1.23,2.86l-.26,4.61.75.13-.11.75-.85.26c.2,1.17.21,2.34.97,3.29v.23c-1.2.43-.07,2,0,2.96.08,1.15-.04,1.03.18,1.95.34,1.41,0,2.58.18,3.93.03.2-.14.49-.14.71l1,.52c-.19.66-.74,1.56-.73,2.24,0,.54.38.74.42,1.02.14.95.34,3.12.24,4.02-.12,1.14-1.22,2.63.07,3.02.09.36-1.49,1.86-.3,2.2l.06,6.01,1.71-.25v-.98s.86.48.86.48l.14.73c.55-.3,1.43.16,1.57.16,3.92-.2,7.09-.81,11.17-.54,1.07.07,2.37.4,3.54.4.14,0,.15-.4.45-.56.69-.37,1.25-.33,1.93-.56.63-1.49-.06-2.46-.52-3.78l.73.24c-.44-1.02-.76-1.42,0-2.45-2.17-.21-.28-1.49-.25-1.65.03-.14.14-2.76.12-2.9-.08-.77-.82-.8-.86-.86-.04-.07.67-.9.68-1.39,0-.34-.6-1.99-.66-2.42-.03-.27-.18-2.08-.18-2.19,0-.27.67-.67.6-1.19-.06-.46-.76-.8-.46-1.37l-.72-.02c.97-1.08.61-2.73.3-4.07-.08-.35-.42-.3-.47-.48-.31-.9.52-.97.58-1.21.06-.22-.19-.96.09-1.36h-.98c0-.79,0-1.67.98-1.48-.63-.88-.2-1.72-.26-2.54-.1-1.2-.71-1.93.22-3.23-1.36-.62-.72-1.84-.7-3.06l-.74-.24c.69-.17.9-1.4,1.7-1.62.59-.16,2.42.09,2.97.51,1.48,1.11.9,1.38.99,2.67.12,1.83.87.36.24,3.49-.17.86.13.74-.24,1.98-.32,1.07.43,2.04.46,2.2.04.23-.17,1.24-.24,1.56h.74c-.59.73.49,1.83-.49,2.08.59.2.75,3.63.62,3.81-.15.21-.66.18-.62.36l.86,1.33-.62,1.5h.98c.34,1.03-.51.97-.68,1.37-.03.07-.2,1.37-.19,1.44.04.45.74,1.46.88,1.98l-.74.61.5.38c-.25.95-.48,3.49-.24,4.36.04.15.85.54.87,1.02.02.43-.67.78-.78,1.37-.1.54.27.87.31,1.27.03.34-.28.79-.18,1.25.04.18.49.15.5.3.04.7-.6,2.01-.52,3.19.07.96.36,2.3.42,3.18.02.25-.43.65-.4,1.2.02.43.49.95.49,1-.02.18-1.06.13-.75,1.7l.75.14c-1.03.87-.05,1.67-.1,2.32-.03.4-.9,1.52-.86,2.22.02.45.61.87.61,1.47,0,.46-.44,1.25-.52,1.83-.21,1.48.71,2.31-.13,3.8,1.1.41-.57,1.99.99,2.46l-1.22,2.94.98.5c.17.69-.36.47-.51.98-.27.91.64,1.95-.22,3.07l.74.12c-1.82,1.69-.39,1.36-.23,2.21.12.68-.24,1.47-.51,2.08l.73-.24c-.03.96.23,2.04-.49,2.82,1.58.71-.13,1.76-.21,2.76-.09,1.06,1.75,3.2.21,3.62l.74.37c-.39.8-.89,2.08-.85,2.97.02.42.29,2.12.85,1.93l-.5.39c-.32,1.21.73,1.29.76,1.46.16.89-.78.91-1.22,1.24-.59.45-.5,1.07-1.81.79-.11-.02-1.58-.76-1.65-.82-.3-.27-.18-.67-.34-1.02-.04-.09-.4-.09-.41-.23-.06-.48.57-.94-.1-1.29l-.87.22c-.02-.78.78-1.06.92-1.27.36-.52-.17-3.19-.11-3.73.04-.37.45-.73.44-1.26,0-.58-.73-1.33-1.26-1.22.34-.44-.07-1.14.03-1.44.15-.47.32.2.55-1.21.1-.62.51-1.26.1-1.84l-.68-.04c.48-.78,1.1-1.58,0-2.08.82-.22.46-.91.57-1.53.05-.32.34-.55.35-.87.03-1.27-.72-2.87-.67-4.22l.74-.13c.29-.79-.71-1.25-.71-1.33-.01-.37.63-1.31.62-1.49-.02-.66-.05-.68-.02-1.46.06-1.57-.15-2.98-.41-4.53l-.7-.14c.35-.4.33-.94.51-1.41.06-.17.43-.17.47-.36.19-.93-.31-2.63-.45-3.43-.04-.25.35-.55.38-1.03.04-.57-.36-1.4-.4-1.88,0-.1.48-.09.61-.57.15-.57.02-1.1.12-1.61.11-.58.6-1.48.42-2.2-.24-.99-2.49-1.38-2.77.1-.68-.29-.79-1.05-1.58-1.11-.28-.02-.48.29-.62.28-.21-.01-.4-.34-.7-.34-.57,0-.64.93-1.5.62-.17-.06-.14-.4-.48-.47-1.12-.25-2.63,0-3.46-.68l-.51.99-4.76-.75v.74s-.59-.25-.59-.25c.07.59-1.65.53-1.96.44-.23-.07-.8-1.17-1.62-.93l-.02.97h-.71c.55,1.03-.19,1.55-.24,2.11-.04.37.25.78.23,1.2-.08,1.89-.98,3.12-.66,5.61.16,1.29,1.04,3.9,1.13,5,.01.13-.83,1.34-.64,2.38.06.3.54.48.64.82.13.45-.23,1.52-.19,2.13.06.83.87.89-.21,1.73.82.96.52,1.08.47,1.98,0,.08.75.18.29,1.27-.14.33-.57.29-.57.44,0,.46.57,1.1.02,1.71l.23.25c1.25-.16.54,1.24-.24,1.71.88.27,1.43,2.27.24,2.34v.36c.17.24.59.43.63.73.2,1.26-1.5,1.87.34,2.71l-.48.74.49.23c-.31.48-.55,1.16-.52,1.74,0,.14.64.76.66,1.46,0,.17-.32.39-.32.69,0,.71.69,1.36.64,1.95-.06.73-.68,1.07-.8,1.41-.1.29.17.65,0,.99-.16.31-.6.33-.81.57-.19.22.22.96-.89.66-.17-.05-.13-.51-.28-.5-.41.03-.99.83-1.78-.05-.23-.25-.17-.69-.32-.98-.09-.18-.43-.17-.47-.36-.07-.34.26-.8-.01-1.35-.1-.2-.49-.21-.49-.32,0-.48.59-.84.64-1.21s-.07-3.09-.26-3.33c-.26-.33-.89.04-1.1-1.1l.92-.47c-.04-.85-.47-1.11-.92-1.73l.99-.5c.04-.32-.34-1.39-.53-1.69s-.72-.37-.72-.52c0-.46,1.01-1.47.97-2.45-.02-.66-.76-2.34-.84-2.94-.03-.26.81-1.45.51-2.44-.17-.57-1.9-1.66.12-1.84.3-.62-.73-.59-.73-.86,0-.12.66-.49.67-.73,0-.35-1.16-1.92-.18-2.72l-.51-.26.26-1.32-.98.36c.42-1.04.41-2.12.55-3.12s1.03-1.95-.55-2.76l.75-.53c-.67-1.14.5-2.34-.51-3.15l.5-.26c-.5-.74-.02-1.31,0-1.97.02-.4-.59-.31-.63-1.05-.03-.62.43-1.12.36-1.75h-.74s.71-1.64.71-1.64l-.48-.46c-.05-.61.75-1.59.76-1.94,0-.14-.41-.08-.49-.31-.2-.56.05-1.41-.07-1.84-.11-.38-.59-.72-.59-1.05,0-.41.83-1.02.9-1.96.06-.78-.41-1.89-.4-2.46,0-.91.35-2.96.29-3.83-.08-1.05-1.84-2.87.12-3.29-.4-.75-1.2-1.44-.73-2.33h-.74c0-.57.91-.93.98-1.17.25-.82.58-2.82-.73-2.52,1.22-1.14.17-2.25.48-3.65l-.97-.4c.71-.87.14-1.61.75-2.44l-.74-.5c-.24-.68.45-.55.49-.78.01-.07-.02-1.32-.04-1.38-.18-.52-1.26-.39-.88-2.01s.16-1.67.21-3.41c.01-.49.45-1.45.4-1.76-.02-.14-1.01-.49-.92-1.7l.25-.48.49.12c.12-.6-.1-.41-.49-.6.51-.96.82-1.37.25-2.34.71-.02,1.71-.63,2.33-.63s.92.65,1.59-.1Z"/>
  <path d="M216.23,3.27c.1.08,1.2,1.46,1.23,1.55.41,1.31-.62,1.91-.67,2.43-.05.56.42.91.45,1.26.03.37-.36.67-.37,1.13-.02.67.55,1.49.56,1.77.02.53-1.05,1.49.34,1.95-.72.93-.67,2.12-.82,3.15-.09.63-.89,1.45.34,2.01l-.72,2.32.97.39c.15.58-1.12.49-.73,1.1.02.04.34-.07.43.12.46.94-.63,1.39-.65,1.48-.12.41.4,2.35.34,3.04-.03.39-.39.94-.36.99.03.04.59-.08.64.66.12,1.57-.62,3.06-.43,4.65.04.36,1.07.79.02,1.21.84,1.29-.27,3.81.73,5.15l-.51.27c.06.59.35,1.21.39,1.79.02.38,0,.91.01,1.41.05,1.14.17,2.14-.14,3.27,1.19.02.47-1.07.62-1.48.09-.25.83-.7,1.07-1.12.31-.55.96-2.56,1.09-2.73.34-.44,1.18-.78,1.5-1.3.39-.65.31-1.56.75-2.21l.84.02c-.15-.57,1.18-1.64,1.24-1.89.14-.64-.35-1.21.5-1.42l-.49-.49c1.32-.51,1.07-.48,1.71-1.43.14-.2.46-.16.48-.18.16-.27-.34-.61-.38-.84-.14-.81.84-.5,1.25-.86.13-.11,1.49-2.56,1.69-2.95.24-.47.73-2.17,1.02-2.7.04-.08,1.24-1.19,1.29-1.29.15-.29-.49-1.06,1.03-1.17l-.49-.36c.25-.91.81-.41,1.25-.78.53-.45.13-1.31.32-1.57.21-.29.85-.16,1.14-.36.24-.17.17-.62.32-.78.21-.23.65-.28.8-.57s-.17-.68-.03-.98c.17-.35.8-.45,1-.75.15-.22-.11-.63.09-.86.31-.36.84-.27.99-.38.05-.04-.18-.78.08-1.26.28-.54,1.34-1.09,1.79-2.17.16-.39-.08-.76.01-.97.13-.31,1.71-1.04,1.77-1.25.1-.34-.67-.93.55-1.32.58-.19,1.28-.34,1.98-.72.23-.12,0-.49.06-.56,1.81-1.81,2.47.8,4.34.19.17.68-.69.97-.71,1.09-.03.17.48.74.4,1.2-.02.1-.82,1.64-.92,1.76-.72.94-1.35.38-1.97.73-.28.16-.94,1.48-1.47,1.72l.73.74-1.59.84c.42,1.1-.21,1.14-.29,1.31-.07.15-.33,1.25-.45,1.41-.18.25-.65.15-.81.31-.12.12.03.5-.21.69s-1.43.89-1.55,1.36c-.07.28.27.76-.14,1.32-.18.25-.96,0-1.36.59-.32.47-.18,1.07-.41,1.56-.19.42-1.22,1-1.25,1.08-.13.38-.08,1.16-.65,1.92-.38.5-1.39.79-1.99,1.81-.63,1.07-.4.96-.1,2.11-1.28-.24-.85.33-1.25.84-.21.27-.61.36-.66.43-.21.34.35,2.32-.93,2.15.21,1.75-.36,1.15-.96,1.74-.39.37-1.03,1.85-1.43,2.38-.61.81-.6.84-1.05,1.55-.07.11-1.33,1.29-1.34,1.38-.03.34.29.62.13,1.05-.14.38-.95,1.13-1.36,1.36,0,.85,1.34.28.79,1.06,1.35.23.87,2.2.98,2.46.02.04.38.06.44.2.26.62.55,1.41.24,2.04h.98c-.43,1.1.05,1.19.37,1.97.39.95,1.66,5.09,1.87,5.35.1.12.65.02.83.27.25.35.05,1.4.74,1.97.3.25.79.23.83.27.1.11-.23,1.97.18,2.87.17.38,1.54,1.53,1.66,1.76.13.24.46,1.8.75,2.22.2.3.88.24,1.11.62.13.51-.63.51-.71.64-.04.06.24,1.33.28,1.39.19.33,1.37.66,1.79.77l.64,3.18c1.44.22.74.67.95,1.57.04.16.33.17.39.27.28.45-.21.85.58.39l-.24.73h.98c.31.93-.41.97-.44,1.03-.27.57.78,1.09.94,1.36.43.73.87,2.38,1.33,3.27.12.24.71-.06.86.35-.7.27-.17,2.11.05,2.29.16.13.66,0,.95.16.4.22-.22.87.1,1.36.15.23,1.68.92,1.87,1.14.65.76.47,1.82.6,2.04.15.26,1.47,1.25,1.71,1.73.27.54,1.07,3.37,1.39,3.64.04.03.33-.21.41-.15.12.1,1.28,1.23,1.3,1.32.04.27-.23.64-.23.95,0,.8,1.1,1.04.41,2.14-.5.81-2.13.52-2.42,1.88-.09.05-.72-.36-.84-.47-1.35-1.29-2.21-2.65-3.32-4.24-.6-.86-.09-.23-.28-1.22-.22-1.16-.89-2.13-2.16-1.66-.18-.48-.12-1.55-.32-1.9-.15-.27-.97-1.69-1.04-1.78-.38-.44-1.16-.34-1.35-1.11l.48-.47c-.58-.82-1.09-1.74-1.57-2.61-.33-.61.19-.99-1.02-1.19l.15-.75c-1.53.42-.77-2.49-.98-2.7h-1.23c.53-.93-.84-2.27-1.33-3.2-.2-.37-.09-.83-.27-1.2-.19-.4-1.74-2-1.79-2.13-.11-.31.15-1.37-.03-1.88-.12-.33-.82-.08-.98-.57-.11-.32.18-.72.09-1.08-.02-.1-.71-1.55-.83-1.79-.15-.29-.73.1-.25-.9l-.98-.14c.45-1.46-.1-.87-.45-1.5-.23-.4-.23-1.07-.47-1.5-.49-.86-1.64-2.21-1.95-3.06-.08-.21.2-.77-.11-1.26s-.77-.32-.89-.46c-.11-.13-1.24-2.51-1.47-2.95-.09-.17.15-.84-.06-1.16l-.73.25c-.57-.8.09-2.01-.04-2.53s-1.49-1.22-.98-2.59l-.85-.26.14-.99c-1.18-.04-.72.67-1.26,1.31-.66.78-1.92,1.05-1.69,2.37-1.51-.57-1.29.71-2.21,1.39v1.79s.75.13.75.13c-.35.98-.17,1.95-.26,2.93-.08.84-.57,2.01-.41,2.92.08.48.92.82-.07,1.51l.49.24c-1.56,1.17.16,2.66.15,3.44,0,.16-.38.51-.42.98-.06.73-.04,1.88-.08,2.71-.1,2.06.36,2.29.53,3.7.07.61-.51,1.61-.38,2.13.14.55.89.61.94.68.09.13-1.02,2.32-.97,3.03.05.79,1.4,1.53.67,2.06-.35.25-1-.4-.4.83.1.21.41.18.42.31.03.46-.33,1.52-.32,1.87.04,1.5.64,1.85,1.01,2.8.04.1.01,2.11,0,2.22-.02.12-1.07,1.98-1.17,2.04-.16.1-.71-.36-.93.15l.5.26-.38,1.08c-.89-.26-.26-.56-.72-.89-.29.06-.72-.14-.96-.06-.45.16-.23.75-.65.7-.68-1.55-1.08-3.5-.74-5.15h-.98c-.42-.91.76-1.27.74-1.35-.14-.6-.88-.8-.94-.89-.04-.06.22-.53.21-.82-.08-1.81.49-1.56.5-1.76.05-.5-.38-1.7-.38-2.42,0-1.5.08-1.58-.31-3.24-.12-.5.5-.73-.31-.91.51-.92.99-1.53.49-2.59l-.73.25c-.11-1.19,1.04-1.7.73-3.02-.05-.21-.53-.08-.52-.53s.36-.76.42-1.12c.06-.38-.5-1.89-.56-2.09-.49-1.43.63-1.57.63-1.7,0-.35-.09-2.04-.16-2.25-.11-.29-.22-.39-.54-.35l.46-.26-.46-1.09.69-.4c-.44-1.33.45-2.89-.03-4.22-.14-.38-.73-.65-.65-.99.06-.23.48-.41.58-.64.33-.75-.06-2.32-.05-2.82.02-1.34.13-2.72.19-4.06l-.75-.14.04-1.32.71-.02c-.12-.82-.24-1.98-.21-2.79s.78-1.56-.52-1.38c.29-1.12.95-2.04.75-3.28l-1-.52c.74-.81.01-1.01.04-1.42.06-.78,1.07-1.91-.29-2.75l.12-.38c1.02-.18.36-1.94.38-2.8.02-.62.46-1.77.38-2.23-.05-.31-.57-.5-.62-.76-.04-.22.67-.98.41-1.69-.52-1.44-.17-.59-.06-1.71.12-1.26.18-2.82.23-4.03.01-.39-.06-2.8-.14-2.92s-.59-.13-.64-.39c-.1-.51.76-2.5.68-3.21-.06-.53-.64-.73-.68-.98-.09-.6.89-.48.68-1.11l-.74-.13c.84-1.23.4-2.19.5-3.41.03-.39.44-.83.42-1-.02-.26-.59-.48-.61-.73-.01-.17.34-.5.37-.8.12-1.12.06-2.44.78-3.37.91.18,1.92.03,2.33-.84.22.16.61.15.79.31Z"/>
  <path d="M119.83,101.15c.11.15-.07.53.21.68.06.03.96.33,1.26.45,1.15.46.81-.17,1.52-.71l1.48,1.84c1.41.49,4.09.45,5.04,1.58.33.39.38.95.71,1.27.24.23.72.01,1.04.28.8.69.26,1.58.32,1.65.04.04.49-.02.71.15,1.24.95.58.38,1.74.75,1.96.62.93,1.73,1.77,2.85.52.7,1.23.58,1.04,1.66l.64.12c.35.45.63,3.39.77,3.51.12.1.63.04.92.17.91.42.02.78.05,1.18.08.97.13.63.07,1.75,0,.14.31,2.52.36,2.7.15.54,1.04.76,1.03,1.72,0,.86-1.64,2.4.71,2.33.13,1.1-1.9,2-.74,2.32-.6,1.29-1.98,2.26-2.68,3.48-.36.63.38.67-1,1.19l.48.73-.86.55-.85-.67c-.39.64-.27,1.02-.98,1.35l.73.61c-.37-.05-.43.33-.7.46-.85.41-2,.15-1.61,1.27-.96.27-2.02,1.39-1.62,2.44l.98-.49c0,.29.04.66.23.88.7.85,2.21.76,3.07,1.08,1.52.55,4.4,4.03,5.46,5.48.14.19.05.62.23.88.39.58,1.43.67,1.08,1.74l.49-.25c.07.05.17,1.05.3,1.3.32.61.27.37.59,1.15.63,1.53,1.4,2.89,1.08,4.66,1.22-.31,1.14,1.81,0,.98l.42,3.09c-.75.37-.91,1.25-.61,2.03l.68.04c-.64.59-.25,1.42-.41,1.9s-.95.46-1.33.91c-.27.32-.04,1.02-.28,1.3-.1.11-1.19.5-1.35.86s.12,1.31-.55,1.76c-.49.33-1.35.34-1.44.43-.09.1.03.47-.1.62s-.82-.05-.68.55l-.48-.49c-.09,1.1-.68,2.28-1.72,1.23l-.26,1.22-1.21-.24-.62,1.47-.85-.98-1.01,1.93c-1.03-.19-1.97-.06-2.97.28-.5.17-.47,1.62-1.97.96-.06-.03-.99-1.26-.43,0-.73.48-1.14-.2-1.55-.19-.1,0-1.57.44-1.83.52-.08.02-.15.67-1.39.43l-.25-.75c-.19.35-.52.26-.8.36-.1.04-.85.56-.92.59-.14.04-1.98-.28-2.33-.21l.24-.98c-1.43.3-2.31-.84-2.45-2.21l-.98.24c-.12-.1.37-.39.41-.6.12-.77-2.86-1.94-3.61-2.23.07-1,.76-1.6.71-2.68-.03-.55-.66-1.98-.64-2.17.04-.39.61-.84.44-1.39h-.71s-.03-1.23-.03-1.23h.98c-.46-.62-.68-1.28,0-1.84l-.7-.17c-.6-.56.96-1.84.95-2.65h-.74c.38-.92,0-1.68.04-2.51.07-1.53.28-3.7.19-5.21-.02-.34-.49-.66-.26-1.1l-.72-.14c.7-.3.52-1.43,1.22-1.98l-.48-.47c1.11-.89.37-1.14.25-1.98-.1-.66.69-.63-.49-1.22l.69-2.98-.2-1.54-.98.12c.17-1.3,1.55-2.04,1.44-3.28l-.94-.4.97-.86c-.16,0-.42.07-.48-.15-.03-.12-.24-1.85-.2-1.94.05-.14.41-.09.41-.22,0-.1-.19-1.33-.22-1.43-.07-.23-1.88-1.16,0-1.16-.31-.59.24-.92-.49-1.1,1.05-.91.5-1.55.55-2.43.05-.94.91-.52-.75-1.74l1.18-1.96c-1.71.35-.41-1.32-.37-2.2.02-.34-.18-.74-.13-1.12l-.49.25c-.45-1.08.67-1.42.73-1.64.08-.3-.39-1.26-.4-1.68-.01-.47.7-.74-.09-1.22l.41-.18.08-.68-.98-.12c.45-.44.22-1.38.41-1.78.16-.33.58-.3.58-.44,0-.29-.49-1.07-.59-1.62-.11-.63-.15-1.57-.16-2.02-.65-.25-.35-.73-.49-1.37h.74c.15-.13-.83-.78-.88-1.09-.14-.89.62-1.2.63-1.29.15-.65-.12-2.02-.98-1.91l1.4-2.58c.41-.23,2.39-.4,2.71-.17.13.09-.13.55.42.43l.49-.5,1.48.74,1.34-1.11c.18-.08.59.07.69.2ZM122.25,107.03c-.89-.29-3.15.76-4.34.18.35.84-.11,1.8-.12,2.57,0,.88.81,2.5-.37,2.59v.24c1.05-.08.19,1.22.25,1.84s.06,1.23.1,1.63.53.46.56.52c.59,1.34-1.55,2.32.07,3.25-.98.91-.11,1.3-.01,1.98.01.09.03,1.81.02,1.9-.01.08-1.02.66-1,1.27l.43.17-.18.44.74.12c-.17.42-.56.9-.68,1.3-.11.35-.19.66-.27.91-.03.1.27.79-.03,1.09,2.23.37.04,1.11.31,1.85.06.16.36.12.39.25.08.36-.65,1.24.28,1.11v.24c-.64-.34-.33,1.72-.24,2.05.08.3.5.05.49.29-.82.15-.16,1.18-.98.61-.12.47.46.98.41,1.36-.03.25-.58.46-.66.99-.13.8.31,1.86.63,2.54.12.26.6.56.6.63,0,.11-.5.37-.58.61-.13.36.15.99-.4,1.36,1.02.21-.03,1.92.03,2.39.07.53.71.86.81,1.15.12.33-.26,1.03.14,1.48-1.32.07-1.41,1.06-.25,1.6-.77.35-1,3.07,0,3.07v.24c-.57-.37-.51,1.27-.46,1.61.08.53.73.88.69,1.56l-.97.4.02.34c.68-.08.76,1.88.66,2.36-.16.78-.85,1.35-.82,2.21.02.55.44.9.56,1.43.09.43-.31,3.02-.18,3.1,1.76-.05.04,1,.03,1.1,0,.13.19.4.19.72,0,.27-.23.54-.23.75,0,.16.45.02.52.5.14,1.01-.5.9-.5.97.03.63.86,1.37.47,2.1.71-.4,2.06.68,2.82.39.4-.15.8-.84.98-.85.12,0,1.08.96,1.85.56l.36.63c.58-.53,1.27-.65,1.97-.27.67-.26-.2-1.17.48-1.44.83-.32.61.63.98.98.76-1.34,1.65-.65,2.62-1,.37-.13.7-1.06,1.5-1.27.49-.13,1.07.08,1.12.05.09-.06.5-1.15.89-1.47.25-.2,1.28-.28,1.82-.63.35-.22,1.01-1.19,1.34-1.49.21-.19,1.11-.54,1.4-.92.36-.48-.1-1.38.09-1.61.36-.41.81.03.86,0,.07-.05.48-1.52.49-1.61,0-.1-.38-.1-.39-.15-.38-1.4.22-2.38.61-3.73l-.94-.65c.77-.98.43-1.43.49-2.44h-.74c.35-.41.28-1.95,0-2.21-.5-.47-.48.76-.73.49-.68-.75.11-1.92-1.87-2.19l.14-.99-.87.02c-.38-.3-.34-.61-.11-1.01l-.96-.02-.02-.96c-.83.32-1.67-.23-2.22-.86s-.16-.4-1.04-1.1c-.2-.16-.22-.49-.48-.57-.28-.09-.63.05-.98,0-.4-.05-.61-.69-1.29.07l-.37-.98-1.09.49-.39-.97h-.6c-.37,1.27-1.83.3-1.35-.74l-.73.25c.04-.84-.39-1.21-1.21-1.26l.2-2.07c.71-.27.87-.9,1.36-1.35.2-.18.65-.15.8-.3.32-.34-.05-1.07,1.26-.96l.08-.64.65-.08c-.03-.27,1.8-2.38,2.02-2.53,1.85-1.22,1.46-1.68,2.67-2.92.23-.23.64-.19.86-.42.36-.4,1.26-1.59,1.13-2.05l-.5-.27c1.45-1.72,2.13-2.9,1.45-5.09-.1-.32-.96-.64.02-1.65-1.74-.2-.82-.67-.89-1.42-.09-1.05-.8-1.35-.83-1.46-.13-.57,0-1.26.24-1.79l-1.19-.04c-.54-.78.1-.97.21-1.68l-.98.49c-.22-.38-.29-2.37-.37-2.47-.2-.25-.74-.24-1-.46-.41-.35-.25-.99-1.21-1.5-1.21-.64-3.75-2.11-4.69-3.24-.06-.08.12-.41-.19-.68-.55-.47-.96-.32-1.43-.51-.2-.08-.22-.38-.27-.4Z"/>
  <path d="M179.01,103.53l-.12-.49c.52.08,1.83-.09,2.23.1.27.12.27.51.53.64.42.21,1.05.11,1.52.39s1.29,1.28,1.95.84c-.03,1.25,1.65,1.37,1.94,1.76.04.06-.17.27-.12.39.03.06.4.05.43.21.06.41-.42,1.1-.27,1.64.03.09,1.07,1.07,1.19,1.32.22.47.34,1.67.67,2.04.39.44,1.07-.06.69.69.9.21,0,1.53,0,1.89,0,.3.9,1.46.91,2.46.01.71-.39,1.09-.4,1.46-.03.65.87,1.68.14,2.58h.74s-.49.86-.49.86c1.03.5.51.48.6,1.23.07.68.59.92-.11,1.59,1.92.51.68,2.26,1.23,3.49.15.33.66.24.75.81.12.75-.45,1.31-.5,1.73-.01.09,1.04.6.48,1.58l.73-.25c.51,1.1,0,1.88-.24,2.93l.87.24c.4.54-.31,1.82-.14,1.98.06.05.51-.1.67.05.19.16.39,1.64.61,1.86.18.17.75.04.9.45.27.73-1,1.56-.58,2.56l-.88.24.23.88-.47.47.97.64c-1.04,1.86.19,4.12.24,5.99.05,1.63-.03,3.24.39,4.82.09.34.5.59.55.87.08.45-.51,1.11-.45,1.64.02.16.42.15.58.46.26.51.29,1.76-.56,1.66l.47.34c-.05.62-.67,2.17-.6,2.63s.56.46.58.49c.06.17-.27.41-.16.66.03.06.36.03.41.16.04.11-.31.86-.17,1.06.13.18,1.24.37.52,1.04l-.55.12c1.11,1.24.28,3.62,1.71,4.42l-1.1,1.84-.85-.48-.37.73c-.81-.92-1.85-.79-2.94-1.21-.08-1.47-1.24-2.84-1.53-4.13-.06-.25-.27-2.93-.23-3.08.13-.48.75-.85.66-1.48-.01-.09-1.19-1.21-1.21-1.29-.12-.39.41-1.28.22-1.81l-.49.25c.29-1.22.44-2.8.38-4.06-.03-.61-.64-2.29-.65-2.43-.05-.53-.07-2.19.52-2.22l-.25-.62-.73.25c.03-.34-.08-.75,0-1.07.06-.26.73,0,.49-.65h-.73c.24-.67-.36-1.11.49-1.37-.82-1.04.56-2.99-.98-2.81l.23-1.37c-.02-1.16-3.2-.87-3.76-.11-.77-1.04-1.24-.41-2.27-.26-.53.08-1.21-.09-1.66.06-.34.11-.21.62-.92.78-.66.15-1.63.21-1.8-.57-.38.48-1.01.34-1.42.5-.23.09-.17.5-.3.48-.27-.05-1.26-1.16-.99,0l-1.45-.48-.53.99-2.17-.51c-.26.02-.16.91-1,.75l-.49-.74c-.84.91-1.36.57-2.33.24l.12.49c-1.14-.5-1.74.06-2.82.24l.48,1.2c-1.96.02-.36,2.56-.48,3.29-.02.09-.89.79-1,1.53l.5.48c-.54.65-1.41,1.57-.49,2.21-1.17.51-.99,2.72-.95,3.92.02.58.45,1.83.43,1.93-.06.35-.81.64-.91,1.06s.33,1.05.21,1.62c-.04.19-.46.18-.58.48-.25.62.24,1.8-.42,2.53l.5.47c-.81.55-.73,1.83-1.07,2.52-.12.25-1.12,1.13-1.25,1.54-.26.8.2,1.49-.78,2.32l.9,1.1c-.5.12-2.98.27-3.32.14-.99-.38-1.13-1.33-1.49-2.08-.12-.25-.58-.54-.59-.63,0-.1.88-.74.92-1.26.07-.91-1.27-2.04.78-2.66l-.74-.74.49-.26c-.08-.48.19-2.56.35-2.94.23-.53.79-.54.84-.63.09-.14-.37-1.82-.35-2.05.02-.29.65-1.19.78-1.76.16-.68.17-3.11.24-3.28.4-1.01.89-2.9,1.02-4.11.08-.72-.23-1.81-.04-2.53.16-.61.8-1.52.83-2.07,0-.1-.43-.08-.47-.27-.16-.71.01-1.69.75-1.93l-.5-1.34.75-.16v-3.28s.97.24.97.24l-.22-.62.71-1.22c.15-.72-.74-.14-.98-.49.51-.53.44-2.03.67-2.52.33-.7.64-1.05,1.09-2.08.18-.41.74-.77.83-1.15.09-.41-.49-.88-.41-1.34.04-.21.5-.22.63-.41.14-.2-.02-.51.06-.72.72-1.83,1.45-3.59,1.81-5.54l-.52-.47c.31-1.09,1.66-.54,1.12-1.62l-.87-.35c.41-.65,1.25-1.26,1.6-1.91.24-.45.5-1.03-.13-1.03l.98-.87-.49-.73c.68.1.5-1.47.73-2.04.14-.34.78-.14.98-.54l-.73-.24c.26-1.09,1.34-1.1,1.69-1.38.03-.02-.15-.39-.03-.62.41-.79.92-1.77,1.53-2.41l-.73-.49c.29-.24.4-.62.67-.87.93-.81,2.34-2.29,3.34-3.46.35-.41.62-1.43,1.16-1.79.06-.04,1.31-.58,1.38-.59.41-.07.59.6,1.05.45ZM180.71,108.45c-.94-.17-2.01.5-2.54,1.22-.35.47-.18,1.37-1.09,1.5l.21.81-.38.35c-.84-.49-.57.27-.89,1.08-.52,1.32-.66,1.74-.98,3.01-.29,1.17-1.6,2.13-1.66,2.49-.09.53.1,1.11-.05,1.63-.15.49-.67.49-.86.72-.7.83.08,1.63-.05,2.22-.05.24-.51.23-.62.4s.13.53,0,.74c-.16.24-.6.27-.77.61-.19.38.16,1.44.02,1.89s-.51.47-.52.52c-.09.23.1.76-.32,1.05l.73.61c-1.35-.06-.87,1.46-1.96,1.24l.47,1.54c-1.31,1.2-.73,3.65-1.2,5.14-.1.31-.56.28-.73.55.86.68.26,1.75,0,2.58.46.18.86-.39,1.11-.4.44-.02,1.24.95,1.71-.33l1.1.74.38-.74,1.1.74c.07-1.02.8-.42,1.69-.64.98-.24,2.09-.7,3.27-.93,1.78-.35,3.64-.41,5-.38.39,0,.71.23.94.23.08,0,.35-.73,1.26-.7.11,0,1.06,1.13,1.95.71l-.12-.5c.73-.49,1.31.69,1.85,0l-.51-4.77-.84-.87.73-.85-.73-.12c.35-2.05-1.63-2.58-.74-4.66-1.53.07-.56-.8-.53-1.34.04-.66.05-2.88-.46-2.96,1.14-1.66-.77-2.82-.94-3.48-.18-.69.76-2.2-.76-2.53.72-.92.33-1.5-.03-2.49-.12-.32-.66-.03-.22-1.18l-.48.25-.23-.88.47-.23c-1-.9-.68-2.46-2.44-2.1l-.28-1.44Z"/>
  <path d="M84.69,4.26c.28.38.52,1,.85,1.24.95.7,1.4.03,1.89,1.8.24.86.33,1.63.87,2.44.1.15.66.28.66.44l-.74.72c.45.35.28,1.2.33,1.31.05.1.9.57.91.71.02.31-.23.66-.22.97.04,1.45-.06,4.57,1.68,4.76-.59.79-.36,2.67-.04,3.59.39,1.15.3,1.2.38,2.63.02.28.33.56.31.77s-.4.43-.4.49c0,.2.64.3.69.4.05.08-.14,1.68-.45,1.82l.51.27-.51,3.03.74.12-.68.73c0,.16.45.39.41.7-.1.67-1.07.16.5,1.26-.78.72-.87,2.46-.73,3.45.06.46.48.32.51.52.02.11.22,2.05.22,2.17,0,.54-1.34,2.92.51,2.82l-.93,1.1c.51.8.5,3.15-.06,3.93,1.27.54-.27,2.33.5,3.42l-.52.26c.79.95.11,1.35.1,1.71,0,.11.41.74.42,1.47.02,1.12-.78,2.58-.74,3.2.02.34.4.6.44.97.06.67-.33,2.1-.21,2.66.03.15.78.14.26,1.22-.08.16-.45.17-.46.21-.06.15.27.42.16.65-.03.06-.4.04-.45.21-.25.95,1.08,1.63-.24,2.18v.47s.74.51.74.51c-.77,1.05.43,2.52-1.22,2.81l.45.27c.18.92-.5,1.41-.65,1.87-.27.88-.1.57-.52,1.48-.4.85.02,2.31-.96,3.16l.7.69c-1.67.74-1.77,1.6-2.23,3.2l.52.48c-1.42.58-1.51,1.61-1.73,3.06l-.95.03c-.22.74.09,1.67-.77,2.06-.77.35-1.13-.31-.98,1.1-1.32.27-3.21.63-3.8,1.98h-.49c-.16-1.02-1.2.09-1.76.17-.46.06-.85-.36-1.22-.37-.39-.01-.77.61-1.3.44.22-1.61-1.81-.78-2.21-1.09-.26-.19-.29-.92-.71-1.27s-1.91-.91-2.41-1.39c-.2-.19-.19-.86-.33-1.16l-1.18-.03c-.12-.55-.21-1.95-.41-2.4-.44-.98-1.68-2.22-2.09-2.89-.54-.89.11-2.85-1.7-2.53.24-1.25.31-1.92-.97-2.35.41-1.3-.4-2.6-.68-3.74-.36-1.5-.48-3.69-.86-5.03-.21-.74-1.03-1.54-.93-2.5l.74-.13c.1-.4-.4-.1-.49-.41-.08-.29-.5-1.84-.5-1.94-.02-.49.39-.74.43-1.17.08-1.05-.63-3.13-.18-3.92.1-.17.5-.15.48-.28-.05-.48-.62-1.41-1.22-1.37l.96-3.08-.71-.72.74-.5v-.49c-.88-.21-.46-.9,0-1.48l-.49-.24c.3-.29.78-1.09.75-1.46,0-.14-.41-.1-.45-.26-.15-.58.36-2.91.44-3.69.26-2.48.9-5.88,1.1-8.81.05-.75-.62-1.25.61-1.12l.49-1.59-.97-.61c1.08-.43,1.59-.91,1.67-2.16.04-.68-.45-.98-.46-1.39,0-.15.4-.13.5-.3.61-.97-.33-1.43-.24-1.54.05-.06.86-.26,1.1-1,.38-1.19.75-2.21,1.19-3.23.53-1.25,1.07-2.9,1.67-3.97.27-.48.86-.57.93-.68.08-.14.07-2.12.67-3.12.36-.6,1.06-.79,1.26-1.07s.13-.75.32-.98c.76-.95,1.76-1.76,2.46-2.75l-.49-.24c.44-.59.81-.76,1.47-.37.1-.32.02-.86.23-1.11.79-.93,2.63-2.37,3.7-2.83l-.24-.47c.85-.24,1.81-.09,1.72-1.23.66.26,1.36,0,1.99.14.25.06,2.1.64,2.19.71.28.21.17.8.38,1.11.12.18.41.23.5.35ZM81.16,8.51c-.12-.07-.16-.55-.45-.64l-1.08.23.25.98c-1.96-.43-1.78,1.2-2.32,1.73-.33.32-.83.14-1.06.29-.08.06-1.11,1.56-1.14,1.65-.1.27.2.67,0,.99-.33.56-2.46.41-.93,1.27l.05.33c-1.14.63-1.39,1.86-1.99,2.93-.16.28-.55.32-.73.57-.07.1-.72,2.26-.69,2.38l.71.62c-.46-.08-.51.43-.74.58-.14.09-.45-.09-.47-.07-.24.36-.28,2.08-1.25,2.32l.05.57c1.26.43.2.62-.22,1.45-.13.26-.1.67-.3.93l.48.22c-1.83,1.53-1.51,4.07-1.83,6.27-.06.43-.48.81-.51,1.09-.04.41.36.93.26,1.38-.09.4-.63.73-.8,1.13-.49,1.14-.57,2-.06,3.12-1.33.54-.12,1.13-.75,2.21l.5.25c-1.14,1.23-.05,1.86-.52,3.13-.14.39-.23.66-.38,1.12-.15.43-1.41.54.41,1.66-1.29,1.28-.02,2.51-.5,4.04h.74c.11.65-.3.96-.74,1.35l.49.24c-1.16.86-.37,1.32-.35,1.97,0,.18-.49.59-.15,1.19l.75.16c.25.69-.6.99-.7,1.4s.36,1.2-.04,1.79h.74s-.75,2.06-.75,2.06c.3.11.97,1.27,1.01,1.51.1.68-.4.98-.42,1.22-.01.19,1.27,2.88,1.34,3.49.07.56-.35.69-.33,1.06l.19.42c1.57.35.92.22,1.06,1.06.12.68.35.68.03,1.62l1.06.69c-.88,1.01.38,1.98,1.22,2.47-.55,1.39.15.9.45,1.49.2.4.24,1.19.47,1.74.15.35.89.36.56,1.29l.49-.25c-.09.34.75,1.59.97,1.8.26.25.72.18.88.41.19.28-.01.82.26,1.02.33.24,1.57.26,2.06.46-.12-1.78,1.23.24,1.35.24.04,0,.3-.38.56-.44.59-.14,1.63.28,2.27-.41.39-.42.13-1.36,1.12-1.6l-.15-.73h.99c.31-.65-.5-.8-.49-.86.03-.35.62-.63.73-.8.96-1.58,2.88-6.09,2.9-7.83,0-.47-1.11-1.61.54-1.55-1.01-1.31.06-2.05.49-3.3l-.73-.38v-.36c.81-.21,1.14-1.76,1.11-2.45-.05-1.1-1.1-2.37.36-2.95l-.98-.12.04-.96.7-.03c-.36-.68.14-1.43-.04-2.03-.1-.34-.63-.58-.65-.79,0-.1.6-1,.73-1.45.19-.67-.06-1.34,0-1.95.13-1.35,1.09-2.73-.52-3.47l.7-.72c-.17-1.15-.32-2.48.03-3.57l-.98-.12.27-.83.95-.03-.98-1.1c1.8-1.11.6-1.07.34-2.08-.1-.36.15-.62.14-.84,0-.08-.59-.17-.59-1.1,0-.75.5-1.12.51-1.39.02-.38-.79-1.17-.15-1.94l-.53-.5c.55-1.35,1.05-4.3.47-5.61-.17-.39-1.66-.85.29-1.15v-1.45c-1.71-.02-.71-1.28-.76-2.11,0-.08-.31-1.5-.34-1.57-.17-.39-.85-.4-.37-1.06.15-.2.51-.14.49-.3-.03-.35-.4-.54-.44-.77-.05-.31.22-.64.2-.92-.02-.21-.7-.02-.51-.51l.73-.39c-.47-1.09-.21-1.65-1.46-2.06l.73-.37c.14-.6-.18-.38-.51-.64l.29-2.4-1.01-.15c-.18-.48.47-.93.39-1.24-.07-.28-.48-.55-.57-.91-.13-.52-.06-1.62-.25-1.96-.23-.41-.64-.47-.73-.62-.14-.24-.03-.65-.19-.9-.34-.53-1.46-.65-1.79-.83Z"/>
  <path d="M81.79,100.02l.07-.38.46-.04c-.07,1.39,1.19.89,1.67,1.28.36.3.11,1.71,1.16,1.91l.36-.49c-.1.57.41.41.64.57.77.56,3.56,2.25,4.49,2.48.31.08.81-.22.98-.1.08.06.6,1.46.78,1.74.27.42.82.51,1.03,1.26.2.71-.18,1.08.34,2.11.7,1.4,2.08.72,1.07,2.73h.74c.11.42-.49.12-.51.38-.04.45.37.77.42,1.21.07.55-.1,1.18-.05,1.49.09.51,1.14,1.82,1.23,2.29.07.36-.18.73-.13,1.09.03.2,1.24.48.25,1.39l.99.12v.97s.45.25.45.25c.21.67-.63,2.1-.62,2.22,0,.15.33.35.35.55.04.32-.16.61-.12.75.02.06.82.82.85.91.22.78-.44,1.64-.46,2.21-.02.45.41.33.47.48.11.33-.32,1.35-.16,1.91.1.35.64.59.68.82.05.31-.46.56-.43.91.02.25.38.53.37.77-.02.38-.87.94.09,1.73-1.04.3.33,1.49-.25,2.32h.74c-.56.57-.45,1.17-.63,1.7-.17.49-1.01.96.14,1.61l-.5,1.1h.98c-.8,1.55-.47,3.14-.89,4.69-.1.36-1,2.13-.99,2.3,0,.31,1.05.83-.33,1.11,1.04,1.04.01,1.41-.25,2.45l.98.37c-.63.75-1.63.9-1.47,2.08l.74.13c.13.91-.65,1.08-.7,1.22-.26.74.95,2.87-1.27,2.58v.49s.49.11.49.11c-.22,1.11-1.88,1.75-.74,2.83l-1.23.25c-.05.08.8.98.12,1.72-.39.42-.88-.1-.84.85-.95.14-1.28.69-1.98,1.23l.73.37-.98.73.37.49c-.53.56-1.4.2-2.15.97-.59.61-.27.47-1.08,1.06-.19.14-.22.56-.48.64-.52.16-1.12-.42-1.45-.46-.09-.01-.1.36-.3.47-.78.4-.94-.18-1.41-.22-.51-.05-3.44.46-4.04.64-.24.07-.35.54-.81.54-.41,0-3.54-1.35-4.27-1.58s-1.1.48-1.3-1.32l-.61.21c-.19-.67-.77-.35-1.11-.56-.31-.19-.15-.75-.32-1.04-.43-.75-.83-1.07-1.39-1.73-.16-.19-.13-.62-.31-.75s-.62,0-.67-.05c-.11-.1.23-.69.11-.99-.08-.22-.63-.52-.82-.88-.53-1.02-1.06-3.33-2.49-3.03l.49-2.94-.73.24c-.04-.42.1-.93-.04-1.32-.18-.51-1.34-.24-.19-1.98-1.45-.5-.25-2.61-.28-3.45-.02-.44-.65-.94-.63-1.47.02-.37.51-.71.63-1.24.04-.18-.04-3.48-.09-3.66-.13-.43-.73-.82-.62-1.59h.74s0-1.24,0-1.24l-.98-.12c.31-.55.51-.94,1.23-.86-.33-.63-.32-1.4-.51-2.03-.06-.21-.38-.19-.41-.3-.14-.54-.11-1.94.67-1.85l-.03-.47-.47-.39c.36-.65,1.01-1.73,1.13-2.45.14-.86-.49-1.63-.52-2.21,0-.15.26-.38.28-.59.08-.95-.08-2.26.86-2.6-.26-.55-.48-.78-.4-1.42.1-.76,1.65-2.44.44-2.91l1.18-2.05-.74-.12c.05-1.45,1.34-1.1,1.48-1.23.08-.07-.19-.47-.17-.66.07-.95.85-2.1.91-2.67.11-.96-.73-.84.61-1.55-.48-1.32.29-1.48.64-2.34.43-1.06.81-3.71,1.42-4.61.16-.24.56-.22.71-.59.17-.42.04-1.34.2-1.55.37-.51,1.64-1.56,2.16-2.25.41-.53,1.34-2.49,1.45-2.59.12-.11.46-.08.64-.21.21-.16.25-.5.32-.55.16-.1.64.24,1.11.05.32-.13.37-.55.56-.66,1.33-.77,1.45.68,2.16.25ZM83.24,105.56c-.52-.38-1.69-.35-2.29-.11-.08.03-1.21,1.02-1.26,1.09-.21.33-.11,1.13-.44,1.65-.24.37-.79.42-.85.67-.47,1.99-.25,3.16-1.78,4.91-.23.26-.84.23-.91.33-.1.14.15.59.11.85-.26,1.54-1.21,2.52-1.59,3.92l.51.26-.51,1.21c1.16.28-.22.84-.42,1.17-.35.58-1.35,3.07-1.09,3.74l-.45.21c.55.93.42,1.68-.26,2.48.81.21.45.87.49,1.59l-.49-.25c.65,1.02-.63,1.69-.65,2.33-.01.38.41.82.38,1.24-.09,1.74-.75,3.85-.69,5.88,0,.33.42.6.35.87l-1.02,1.33c.27.42.29,1.18.88,1.12l-.73.97c.79-.16.18.78.3,1.36.03.13.37.1.4.24.08.45-.45,1.31.28,1.72l-.98.86,1,.89c-.1.85-1.17,3.28-.76,3.85.17.23.48.15.49.17.05.09-.85,1.22.25,1.59-.81.57-.68,2.31.49,2.09-.04.34.14,2.44.22,2.54.22.25.63.07.79.3.25.36.18,1.27.39,1.76.12.27.48.28.56.49.12.31.25,1.62.38,1.78h.85c-.22.76.19,1.78.85,2.2.58.37,4.02,1.55,4.67,1.46.55-.07.69-.63,1.24-.73.64-.11,1.46.28,1.7.22.3-.08.29-.61.51-.68.15-.04,2.21.31,2.33.21l-.25-.73h.74s-.15-.75-.15-.75l.88-.24-.25-.73c1.54.11,1.19-1.16,2.21-1.84l-.73-.86.98-.49-.49-.24c1.04-.42,1.8-.79,1.47-2.05-.05-.2-.51-.15-.49-.28.07-.43,1.04-1.42,1.12-1.83.08-.37-.52-.92-.14-1.49l.73.24c-.18-.41-.35-.84-.25-1.3.02-.09.88-1.11.93-1.27.1-.37.55-3.37.43-3.55-.18-.26-.65-.33-.85-.62,1.03-.93.43-.87.49-1.73.03-.39.2-2.64.28-2.76.12-.17.83-.25.92-.7.06-.32-.35-.64-.37-.95-.02-.34.66-2.3.39-2.58l-.72-.02.04-.68.94-.42c-.78-1.29.22-2.5-.99-3.54,1.43-.06,1.08-1.17,0-.25l.25-1.47h-.74s.27-1.08.27-1.08l-.51-.15c.3-.46.64-.41.84-1.11.17-.59.33-1.59-.35-1.74l.2-.56c-.99-.03.12-.32.04-1.01l-.98.24.19-.44-.44-.17.48-.76-.49-.48c.4-.99.69-2.08-.72-2.07.86-1,.05-1.26-.01-2.31l.5-.51-1.22-.74.48-.74-1.22-.37.25-.59c0-.17-.36-.15-.38-.21-.59-1.37.11-.84.34-1.21.3-.48-.51-2.17-.67-2.81-.11-.45,0-1.48-.06-1.53-.29-.29-1.41-.33-1.48-1.47l-.45.21v-1.22c-.6-.53-3.13,1.1-2.46-1.22h-1.22c-.08-.93.09-1.13-.98-1.24-.38-.51,1.35-.73.42-1.4Z"/>
  <path d="M46.16,99.21c.32.26.68.8,1.1,1,.27.12.6-.12.68-.05.22.2-.3.8.77-.07l.05.7.66.06c-.03.95.05,1.09,1.02,1.21l-.48.96c1.14.23.76,1.6.72,2.47h.99c.26,1.34-.38.85-.83,1.2-.28.22,0,.99-1.32,1.2-.87.14-1.53-.3-2.37.01l-.34-.33.14-.81c-.46-.54-1.51-.4-1.86-.59-.4-.22-.45-2.17-2.12-1.85l-2.66,2.58c-1.82-.43-1.06-.03-1.66.67-.22.25-.78.4-1.07.66-1.06.95-1.51,1.47-2.37,2.72-.6.87-.08.56-.34,1.16-.36.83-1.01.57-1.24,2.33-.3,2.22-.81,3.28-.41,5.64.07.43-.62.99.53,1.12l-.49.73c.9-.08,1.4,1.95,1.9,2.23.45.25,1.97.05,2.39.72,1.14-1.55.85.37.9.45.28.49,1.33.27,1.67.39,1.03.36,1.63,1.46,2.94.39v1.22s.75-.12.75-.12c0-1.53,1.11.22,1.22.86l1.71-.49v1.47c.85-.16,1.58.68,2.29,1.05.23.12.61-.06.63-.04.18.18.13.93.34,1.14.37.37.86.84,1.24,1.21.94.9,2.53,1.41,3.04,1.87s.18,1.71,1.29.67c.07.56.4,1.91.71,2.3.28.35.86.05,1.01.15.1.06-.29,1.45.25,2.26.3.45.99.5,1.15.75s.17,1.03.33,1.47c.21.6.21.77.39,1.35.06.2,1.56,1.91,1.69,2.49.07.3-.25.6-.26,1.03-.01.95.69.91.63,1.57-.05.52-.62.3-.64.97-.03.91.55,1.46.62,2,.04.34.11,1.8.13,2.2.03.89-.12,2.75-.86,3.18.84.87.15.83-.07,1.35-.19.46-.9,2.01-.91,2.13-.09.64.37.77-.48,1.62-.21.21-.52.16-.63.26-1.19,1.15-1.03,2.14-1.81,3.41-.07.12-1.14,1.13-1.17,1.2-.08.23.52.99-.06,1.31-.18.1-.55-.19-.69-.11-.11.07-.15.52-.4.72s-.67.15-.81.29c-.21.2-.12,1.04-.56,1.31-.22.13-.54-.12-.68-.06-.71.3-.59,1.62-.05,2.13l-.63-.22-.21.45c-1.62-.89-4,1.62-4.79,1.87-.36.11-4.28.32-4.85.27-.34-.03-1.83-.6-2.03-.41v.74c-.43-.21-.89-.08-1.33-.26-.63-.26-.98-.99-1.86-1.09-.32-.04-.49.33-.75.27-.55-.12-.64-.74-.85-.83-.36-.15-1.7.29-1.84.19v-.98c-1.03.52-1.15.45-2.2-.01l.24-.97c-.75.49-.99-.19-1.47-.35-.25-.08-.67.16-.73.1-.05-.06.1-.48-.16-.75-.25-.26-.93-.33-1.23-.56-.74-.57-1.46-1.59-2.44-1.86l.14-1.23c-1.18.02-1.47-1.64-2.58-1.71l-.13-.63c.9-.22.22-.56.26-1.22l.85-2.58.78.98c.69,0,1.73-.64,2.36-.51.17.03.61,1.03.93,1.34.42.41,1.65.91,1.87,1.2.23.32.88,1.72.81,2.14.62-.26,1.33.37,1.85.72l.48-.48c.64.18,1.05,1.56,1.16,1.66.37.31,2.39.67,2.82.86.09.04.54.82.63.85.61.26,1.79-.62,2.31-.63.46,0,.62.67,1.42.71.92.06,2.59-.55,3.55-.65.32-.03.51.32.63.31.18-.01,1.67-1.34,2.33-.91l-.22-.71c.38-.44,1.78-.78,1.95-.9.21-.15.26-.53.49-.69.12-.08.43.1.46.07.16-.19.11-1.13.39-1.45s.72-.15,1.02-.33c.88-.53.13-1.05.55-1.71.2-.3,1.23-.47,1.23-.78,0-.08-.41-.25-.37-.62.07-.65.76-.93.86-1.16.26-.59.17-1.4.44-1.96.35-.72,1.19-.63,1.45-1.16.12-.24-.34-1.41-.32-1.96.03-.9.59-.85.6-.98.04-.29-.08-2.39-.69-2.09l.98-1.1c-1.08-.99.06-2.49-1.22-2.96l.41-.97c-.87-.83-1.14-2.49-1.76-3.31-.24-.32-.83-.45-.87-.66-.09-.43.27-1.09.14-1.31-.41-.73-3.18-1.79-2.58-3.42-1.89.59-1.4-.51-1.85-1.47-.21-.44-5.95-4.29-6.68-4.61-.8-.35-1.88-.28-2.64-.61-.14-.06-.3-1.17-.73.07h-.49c-.45-1.54-1.54-1.03-2.71-1.73l-.22.48c-.96-.02-1.06-1.32-1.67-1.63-.44-.22-2.47-.08-2.64-.19-.76-.46-.15-1.4-.28-1.92-.02-.1-1.01-1.59-1.07-1.66-.22-.23-1-.04-1.35-.24l.25-2.06c-1.11-.54-.42-.95-.25-1.86h-.74c.18-.51.43-1.09.48-1.63.02-.19-.05-1.85-.08-1.94-.03-.12-1.78-1.56-.4-1.58l-.49-.48c.89.09-.12-1.26,1.22-.99-.69-1.5.12-1.29.43-1.77.2-.31.05-1.23.31-1.72.15-.27,1.28-.68.59-1.18-.21-.15-.88-.04-.84-.47.67-.03,1.07-1.07,1.49-1.34.54-.35,1.2.16,1.22-1.12l.48.25c-.21-1.55,1.56-1.47,1.84-1.95.3-.52-.54-.96,1.5-1.23l-.14-.99c.67-.26,1.52-.17,2.16-.41.24-.09.26-.41.49-.55,1.01-.6,1.83-1.48,2.95-1.93.57-.23,2.28-.72,2.38.19l.51-.76,1.57.51v-.74c.06-.06.74.48.88.6Z"/>
  <path d="M38.65,4.17l-.49,1.22,1.12-.22.11.47c.77-.61,2.04-.19,3.07-.28.96-.09,1.69-.17,2.75-.15.85.02,1.59.23,2.52-.05l-.25-.49c.63.2,1.54.02,2.08.11.96.16,1.2.8,2.9.38.2-.05.16-.46.33-.49.39-.08,4.31.42,5.17.42.51,0,1.19-.47,1.66-.52.99-.1,2.07.07,3.07-.15v.74c.06.07,1.04-.68,1.71-.38.29.13,1.27,1.35,1.26,1.71,0,.6-.4,1.77-.87,2.13s-.85,0-1.29.16c-1.1.39-.32.42-1.65.44-1.08.02-1.78.73-2.47.74-.46,0-1.72-.65-2.61-.51-.49.08-.44.62-.56.6-.28-.04-.82-.51-1.22-.49-.15,0-.13.64-.76.65-.57.12-.76-.83-.99-.89-.27-.06-.55.4-.8.45-.55.1-1.68.41-1.88.43-.84.08-1.62-.88-1.84.24l-.37.13c-.48-.15-.71-.48-1.23-.62-1.27-.36-1.49.72-2.21.62-.12-.02-.1-.47-.29-.51-.98-.2-2.67.64-3.63-.25l-.51.72-.85-.22.21.45c-.47-.13-1.1,2.47-1.1,2.62,0,.18.38.38.35.69-.04.55-.91.97.29,1.53l-.25,1.33h.74s-1,2.82-1,2.82c.8.39,1.12,1.14.04,1.38.1,1.04.31,2.55.24,3.55-.05.7-.57,2.67-.15,3.3.12.18.55.15.62.4.01.06-.04,1.14-.07,1.2-.19.37-.65.33-.67.36-.06.08.68.95.42,1.8-.11.35-.55.53-.58.77-.06.46.62,1.67.67,2.2.05.66.04,2.98-.01,3.7-.04.62-.74,2-.75,2.44,0,.15.4.13.51.31.08.12.22,2.18.19,2.34-.06.29-.44.52-.47,1.05-.02.44.46.31.51.53.2.84-.18,1.75-.17,2.46,0,.86.2.82.02,2.19-.07.55.58.94-.34,1.19l.76,2.17-.75.54c-.14.55.67.89.69.97.08.3-.46.85-.28,1.28.13.32.55.32.55.42-.04.58-.33,1.07-.96.87.45.9.53,1.5.42,2.5-.02.2-.33.44-.38.8-.06.52.14,1.47-.04,2.09l.99.13c-.04.72-.16,1.26-.99,1.1.9.97.06,2.26.24,3.03.02.1,1.17.41-.23.9v.48s.73.61.73.61c-.7.89-.1,1.94-.14,2.96-.07,2.19-.62,4.16-.49,6.37.01.21.34.45.36.74.04.6-.5,2-.41,2.47.06.32.88.15.67.95-.54.15-.71.88-.67,1.39.19,2.34.55,4.83.45,7.23l.48.23-.5.85.49.12c-.48.87-1.59,1.17-1.35,2.34l-.48.24-3.2-.97c-.54-.67-.85-3.7-.12-4.42l-.71-.02c.21-.41-.22-.72-.21-1.04.01-.6.65-.63.68-.82.12-.66-.16-2.67-.01-3.35.07-.29.22.32.28-.8s-.58-3.01-.48-4.15c.2-2.09.34-4.24.32-6.37,0-.8-.46-1.65-.39-2.46.08-.85,1.03-1.08-.22-1.35.68-.87.68-1.51.74-2.56l-.75-.26c-.06-.63-.08-.78.5-.98-.79-.68-.11-.92-.07-1.29.2-1.88.2-4.73-.2-6.57-.23-1.03.26-2.08.3-2.96.02-.46-.48-.21-.54-.72-.09-.82.73-.47.51-1.35h-.74c-.1-.61.9-1.25.91-1.33.09-.49-.54-2.99-.54-3.95,0-.52.39-2.14.34-2.95-.03-.48-.75-1.05-.48-1.94l.75-.25c-.57-.89-.03-2.22-.25-3.15-.15-.61-.52-.96-.44-2.26.04-.64.11-2.42.19-2.89.04-.23.66-.04.5-.78l-.98-.49.98-.61c0-.51-.76-.71-.76-1.09,0-.77.65-1.45.67-1.74,0-.22-.3-.45-.3-.73,0-.15.28-.34.29-.49.02-.77-1.72-1.86-.14-2.45l-.26-.61-.48.24c-.44-.73.43-1.81.44-2.37,0-.44-.61-.8-.45-1.68.12-.68,1.32-.46.58-2.28-.13-.33-.61-.2-.59-.66.03-.75.75-1.11.78-1.97.02-.71-.39-1.14-.43-1.72-.06-.88.58-1.19.05-2.33-.11-.23-1.18-1.47-1.28-1.48-.19-.03-.58.16-.9.17-.71.02-.73-.54-1.26.58h-.49s-.24-.49-.24-.49l-.98.74c-.59.19-.49-.89-.62-.99-.97.43-2.52.73-3.57.7-.15,0-.09-.37-.22-.4-.36-.08-.91.1-1.36-.3.45.97-1.72,1.07-2.27.94-.42-.09-.75-.4-1.04-.69l-.39.71-.72-.23.25.49c-1.3.25-1.57-1.88-2.58,0l-.74-.73-.86.73c0-1.24-1.21-.94-1.81-1.96-.21-.36.16-.91-.64-1.1l.59-1.37c1.09,0,2.01-.84,3.04-.91.69-.05,1.25.27,1.9.22.44-.03.32-.46.53-.51,1.32-.34,1.33.46,1.41.45.3-.01,1.58-.4,1.97-.54.16-.06.07-.45.49-.44.77.02.86.28.88,1,1.12-.24,1.76.22,2.34-.97l.97.48.25-.74c1.02.06,2.28.61,3.21.72.69.09,1.24-.12,1.85-.1.3,0,.68.36,1.07.34,1.1-.04,1.66-1.38,2.26-1.64,1.11-.47,2.35.2,3.5-.3Z"/>
  <path d="M310.79,1.96c.64.22.41-.38.6-.44.9-.31,1.89-.01,2.69.47.6.36.4,1.39,1.85.22.27,1.39,1.67.3,1.73,1.96l.73-.25c-.15,2.58-.23,4.04-2.82,5.1-.66-.85-.95-.49-1.85-.53l-.47-1.01c-.89-.23-2.29-.27-3.08-.46-.28-.07-.46-.51-.79-.59-.06-.02-1.24-.08-1.28-.03-.07.08.01.53-.27.84-.16.18-1.64,1.3-1.68,1.4-.13.34.56.6-.25.81.64.41-1,1.63-1,1.75,0,.17.22.45.16.66-.34,1.07-1.13,1.37.08,2.13-2.15.62-1.11,2.86-1.11,4.55,0,.57,0,1.11.01,1.7,0,.99-.66,1.61.22,2.6.29.33,1.34.72,1.08,1.33-.07.16-.49.07-.45.24.25.89.82,1.25.99,2.09l.47-.23c.47.48-.01,1.61.04,1.68.04.06.68.16.85.51s-.28.79-.02,1.23c.18.3,1.14.55,1,1.49l.94.25.39-.51.15,1.97c.3.61.87.08,1.34.59.29.31.1,1.39.27,1.81l1.19.29-.17.43,1.03.55-.12-.49c1.14.11,1.05,1.36.74,2.2l.98-.24c-.12,2.25,2.48,3.81,2.21,6l.49-.12c.08.5-.4.87-.39,1.35.01.83.91,1.11,1.03,1.58.13.52.11,2.37.17,2.54.24.67,1.13.85,1.18,1.07.07.37-.36,1.22-.26,1.3.06.05.54-.13.76.15.48.63-.25,1.17-.16,1.59.09.46,1.04,1.19,1.25,1.71.24.58-.49,1.08.36.97l-.73.36.97.14c.77.87-.29,2.42-.19,2.81.03.14.33.09.4.24.22.5.15.42.45.95.72,1.27-.15.73-.36,1.29s.52,2.41-.29,3.15l.46.17-.18.67.47.26-.73.49.73.37c-.24.51-.72,1.04-.92,1.54-.06.15-.68,2.72-.67,2.88.03.57.67,1.71.46,2.27-.12.32-.56.34-.76.73-.61,1.2-.45,2.15-.74,3.17-.22.79-1.79,3.17-2.21,3.81-.13.19,0,2.39-.22,2.85-.15.33-1,.26-1.31,1.4l.5.24-.98.87.74.49c-.36.84-.75,1.55-1.72.97-.12,1.07-.45,2.69-1.72,2.47.28.4-1.39,2.03-1.78,2.34-1.18.9-2.34.76-3.26,2.07-.16.24-.63-.13-.72.49l-.61-.26.2-.44-.94-.53c.24.89-1.96-.13-1.23.98l-1.96-.49v.98c-.9-.45-1.75.53-1.72-.98l-.61.49c-.8-1.43-1.09-1.14-2.57-.98l-.27-1.45c-.3-.21-1.11.25-1.18.2-.34-.23-.19-1.51-1.25-.47.06-.38-.25-.8-.23-1.12.03-.64.99-.73-.02-.95l.49-1.36c-1.83-.03-.14-.92.11-1.24.22-.28.26-.69.45-.89.14-.14,2.11-1.48,2.26-1.54.45-.2.31.17.35.38.05.27.68,2.2.78,2.29.03.03.46-.17.78.02.24.14.42.89,1.16.76l-.25.48c.61-.1,1.53.64,1.89.68.27.03.92-.28,1.93-.21.13,0,0-.66.72-.47.09.02.1.46.28.49.4.08,1.8-.12,1.99-.56.09-.2-.19-.54-.08-.68.14-.19.58-.15.8-.31.39-.29.23-1.04,1.3-.41l-.49-1.34.98-.13c-.59-1.3.32-1.07.68-1.52.09-.11.54-1.98.78-2.47.12-.23,1.05-.58.74-1.41l-.49-.12c.15-.53.98-.41,1.1-.61.18-.29,1.38-3.36,1.36-3.55l-.74-.63c1.68-.13,1.18-1.42,1.96-2.33l-.49-.12.49-.49c-1,.18.26-2.58.52-3.05.16-.28.59-.33.65-.43.11-.16-.35-1.75-.35-2.08,0-.38.01-1.62.03-1.92.05-.91,2.21-1.99-.36-2.1-.15-.75.71-1.25.7-1.33,0-.16-.2-.4-.18-.72.1-1.24.02-2.09,0-3.23,0-.44-.44-.35-.46-.48-.28-1.33.01-1.07-.62-2.39-.8-1.68-1.71-3.54-2.39-4.99l.26-.7c-1.11-.41-.44-1.18-.56-1.71-.07-.33-1.16-1.74-1.28-2.81-.09-.8.37-1.82-.13-2.74l-.98.25c.14-1.2-.6-1.38-1.08-1.99-.87-1.12-2.47-3.8-3.17-4.56-.5-.54-1.73-.48-1.89-1.54l.49-.24c-.78.02-.65-.98-1.02-1.56-.62-.97-1.55-1.59-2.11-2.19-.67-.73-.05-2.42-1.29-2.15-.09-.54.31-1.13.08-1.65s-.94-.27-1.06-.7c-.08-.3.24-.78.21-1.18-.06-.88-.74-1.47.02-2.35-1.3-.25-1.48-2.76-.73-3.68h-.74c-.05-.69.63-1.27.73-1.86s-.15-1.1-.1-1.62c.12-1.32.27-4.62.6-5.67.11-.33.61-.28.73-.55v-.36s-.49-.12-.49-.12l.49-.86-.49-.24c.7.16.21-.48.47-.62.55-.3,1.03.1,1.49-.98l-.73-.36c.62.15.41-.58.53-.68.17-.14.71-.02,1.2-.4.89-.69.31-2.07,2.19-1.86l-.25-.49.96-.03.28-1.2c1.09.49,1.88,1.08,3.14.57.28-.11.29-.48.34-.5.14-.06.8.3,1.06-.31l.37.98Z"/>
  <path d="M124.27,5.41c.13,1.01.83,1.41,1.28,2.07l-1.28,3.78c-.8.03-1.46-.37-2.25.03-.29.15-.04.57-.42.48-.67-.58-.27-1.28-.37-1.49-.12-.28-.66-.34-.8-.55s-.02-.61-.06-.66c-.05-.06-1.13.23-1.6.2-.43-.03-.73-.57-1.32-.18l-.02.96-1.46-.24c-.07.27-.09.56-.26.8-.4.58-1.01,1.95-1.25,2.75-.14.46-.51,2.95-.6,3.08-.12.16-.4.22-.6.24l.5.4c-.08.95-.12,2.46.08,3.35.03.13,1.02,2.27,1.12,2.46.15.29,3.14,2.21,3.4,2.66.05.09-.52,1.43,1.27.94-.29.87.39.92.54,1.33.11.31-.05.82-.02.85.14.14.68.11.9.33.27.26.04.77.12.88.24.33,1.4.91,1.88.8v1.71s.75-.25.75-.25c.33.56-.02,1.6.27,2.05s.74.31.9.48c.4.44.65,1.12.93,1.64.8,1.48,1.34,1.53,1.88,3.51.36,1.3.97.68,1.41.93.02.01-.17.31-.08.47.14.25.46.39.53.67.1.36-.23,1.25.04,1.87.15.33.8-.13.94.84s-.74,1.01.77,1.31c-.27.63-.01,1.7.3,2.26.5.89,1.81.98.69,2.62l.97.27c-.07.99-.37,2.11.74,2.55-1.1,1.32-.47,2.42-.48,3.8h.73c-.07,1.2-.63,1.76-.22,3.01.07.2.39.18.45.38.31.97-.22,2.74-.48,3.79-.04.18-.4.18-.44.32-.17.56.69,1.9.69,2.2,0,.36-.48.74-.56,1.15-.12.6.06,1.39-.02,1.99-.05.4-.58.74-.4,1.49.05.21.69.12.48.49-1.06,1.05-1.07,2.39-1.6,3.56-.31.67-1.24,1.77-1.42,2.23-.14.36.18,1.06-.06,1.48-.19.32-1.19.91-1.46,1.22s-.14.7-.33.87c-.42.38-.93.11-.96.15-.41.54-.46.69-1.01,1.32-.58.66-.56,1.42-1.62,1.58l.15.99c-.71.11-2.51.96-2.87,1.55-.16.26,0,.7-.11.86-.13.2-.79.15-1.03.28s-.1.53-.32.76c-.96.96-2.57.84-3.54,1.06-.65.15-.26,1.01-1.21.4.02.51.16.95-.43,1.04l.18.43c-.67.28-1.29-.74-1.37-.74-.7-.03-1.3.8-1.81.9-.72.15-2.35-.78-2.88-.85-.3-.04-.52.39-.9.4-.13,0-1.72-1.25-2.21-1.48-.37-.18-.79.04-1.03-.16-.23-.19-.28-.63-.4-.72-.07-.05-.55.46-.45-.29l-.85.48c-.48-.18-.99-1.72-1.53-1.97-.45-.2-.85.05-.99-.04-.08-.05-1.21-1.26-1.27-1.34-.38-.63.14-.71.13-.94s-.43-.53-.54-.85c-.36-1.06.38-1.25-1.3-1.52.2-.98-.37-1.49-.59-2.23-.21-.7.2-1.65-.91-1.42.45-.68-.18-1.4-.14-1.84,0-.09.33-1.43.39-1.67.01-.06.53-.81.57-.86.21-.3,1.44-.61.17-1.15.39-.79.98-.35,1.3-.46.46-.15.83-.54,1.34-.6.65-.09,1.3.35,2.02-.04.24.16.05,2.9,0,3.32-.04.47-.36.75-.38.97-.07.65.5,1.15.55,1.52.07.47-.42.86-.29,1.31.33,1.15,3.37,4.09,3.9,5.4,1.29.44,4.06,2.07,5.39,1.95.45-.04,1.4-.78,2.04-.93,1.04-.24,2.25-.22,3.24-.93.36-.26.42-1.02,1.24-.85l-.25-.48h1.6c.41-.44.12-.97.35-1.36.47-.79,2.11-1.2,2.73-1.95.44-.54-.05-.33.93-1.26,1.12-1.05,1.34-2.08,2.14-3.02.32-.38,1.28-.79,1.46-1.25.15-.39-.18-.81-.1-1.29.19-1.12,1.7-.97.22-2.27l.97-.76-.43-.96c1.52-1.13.89-1.73,1.07-3.32l-.88-.24,1.23-1.35c-1.39-.57-.15-1.3-.23-1.95-.02-.13-.46-.11-.5-.29-.03-.15-.41-2.76-.4-2.91.04-.74,1.03-1.74.64-3.39-.02-.09-1.29-.73,0-1.27l-.24-.25c-.62.32-.7-.51-.85-1.07-.29-1.12-1-2.6-1.31-3.9-.1-.43.16-.85.03-1.22-.22-.63-.5.34-.35-1.17.01-.13-.41-.1-.55-.41-.21-.49.04-.95-.08-1.35-.09-.31-.93-.7-1.05-1-.19-.48.05-.99-.23-1.4s-.96-.59-1.24-1.01c-.29-.45.07-.88-.13-1.3-.22-.46-.86-.57-1.04-.82-.31-.43-.58-2.33-1.12-2.79-.2-.17-.58-.11-.79-.31-.06-.06-.05-1.15-.39-1.6-.3-.4-.74-.29-.89-.45s-.08-.57-.3-.78c-.25-.24-1.12.18-.75-1.61-1.31.63-1.35-1.17-1.78-1.65-.21-.23-.64-.14-.85-.38-.57-.63-.49-2.35-1.78-1.89v-.98c-1.83.68-.93-.77-1.02-.95-.02-.04-.38-.09-.54-.3-.63-.84-1.05-1.05-1.54-2.15-.62-1.4-.98-2.96-1.18-4.48l-.62.02c.64-1.28.77-1.99.48-3.43l-.48.12c-.36-.26-.22-1.44-.07-1.77.22-.48,1.2-1.65,1.25-2.44.02-.32-.37-.49-.33-.82.16-1.3.96-1.19,1.29-1.53.25-.25.02-1.11,1.05-.92l-.24-1.08c.16-.45.75-.29.93-.43.04-.03-.12-.36-.04-.45.61-.77,1.71-1.47,2.63-1.49.28-.22,1.62-1.64,1.74-1.65.15-.01,1.06.57,1.98.46.49-.06.3-1.02,1.58-.02l.12-.74c1.15.66,2.44,2.06,3.78,1.73Z"/>
  <path d="M337.99.53c.05,1.84.2,1.47,1.19,2.5.18.19-.16.87.81.66-.07,1.02-.74,1.18-.74,2.2h.74c-.7,1.1.04,2.23-.49,3.43h.98s-.49.4-.49.4v.7s.49-.12.49-.12c-.57,1.03.04,2.15-.98,2.82l.98.12-.46.26c.76,1.18-.53,2.03-.54,3.05-.11.47.65.42.73.74.07.29-.42,1.23-.44,1.73-.04.93.79,1.4-.51,1.94-.07.5,1.97,1.24.48,1.72l.5.27v.68s-.49.16-.49.16v.36c.88.17-.05,1.88.97,2.21l-.5.98.5.25c-.47.35-.97,1.94-.96,2.46,0,.42.41.79.47,1.24.07.57-.24,1.07-.14,1.58.16.77,1.38,1.67.65,2.59-.25.32-.85.22-.76.59.77-.05.45.92,1.2,1.09-.04.7-.91,1.98-.96,2.48,0,.07.79.04.49,1.18-.05.19-.5.14-.5.29,0,.55.82,1.12,0,2.2,1.35.55-.29.9.02,1.35,1.59.41-.26,1.44-.28,2.34,0,.56.69.46.77.74s-.5.72-.62,1.1c-.51,1.61.65,1.3.74,1.46.5.89-.97,1.34-.85,2.21l.74.14c.21,1.06-.7,1.71-.69,2.41,0,.29.28.63.31,1.01.06.76-.68,1.54.61,1.37.15.65-.74,1.04-.75,1.12-.05.43.65,1.19.67,1.46.02.46-.98.94.09,1.22-1.4.49-.11,1.37-.98,2.21.81.13.19.97.3,1.47.04.17.48.03.47.48-.02.49-.38.74-.44,1.06-.3,1.44-.47,2.96.42,4.21l-.61.23c.15.46-.13,1.03-.11,1.34,0,.15.39.11.53.49.04.11.35,2.11.33,2.22-.05.42-.57.96-.53,1.73.04.82.85,1.06-.32,1.37.52.91.25,1.74.32,2.68.05.73.58,1.73-.34,2.57.75.31,1.03,1.65.71,2.38-.1.24-.48.14-.5.55-.05,1.33.94,1.84.54,2.73l.46.21-.49,1.61.74.12c-.72.17-.16.5-.62.86l-.85-.25v.98c-.59-.35-1.09.13-1.35.14s-.5-.3-.73-.29c-.29.01-1.21.7-1.72.65-.37-.24.14-.82.13-1.09,0-.09-.3-.6-.5-1.45-.02-.09-.82-.77-.42-1.59.75-1.55-.36-2.91-.45-4.72-.03-.48.47-1.17.38-1.54-.05-.18-.7-.27-.63-.77.33-2.47.43-2.38.19-4.91-.04-.45.28-1.08.21-1.43-.03-.15-1.35-.5.24-1.27l-.96-.4c-.1-1.09.8-.81,1.1-1.18.08-.1-.37-1.93.1-2.46l-1.47-.62.47-.23-.23-.63h1.23c-.53-.76.16-3.1-.13-3.7-.14-.28-2.08-1.19-.14-1.24.44-.67-.08-1.41-.09-1.8-.03-1.02.24-6.25.03-6.65-.15-.3-.56-.3-.61-.38-.04-.07-.02-1.49.45-1.31-1.12-1.02.38-1.45.42-1.7.06-.41-.42-1.77-.64-2.24l.7-.47c-.12-.43-.64-1.16-.67-1.53-.05-.69,1.01-1.2-.56-1.94l.77-1.46c.09-.55-.22-.82-.75-.85l.44-.27c.05-.05-.31-1.14-.08-1.44.15-.2.54-.21.6-.28.07-.09-.42-.79-.42-1.12s.39-.56.41-.93c.02-.34-.27-1.19-.16-1.49.05-.14.45-.11.45-.24,0-.39-.79-1.34-.74-2.46s.52-2.89.34-3.99c-.07-.43-.5-1.01-.5-1.16,0-.21.64-.83.39-1.35l-.48.24-.27-.83c0-.09.66-.19.44-.75l-.63-.75c1.21-.7.73-1.09.95-2.33h-.99c.23-.64-.04-1.24-.02-1.86,0-.26.91-2.2.92-2.68,0-.35-1.14-1.78-.4-2.82h-.74c.21-.42.51-.58.62-1.11.3-1.47-.79-2.4.37-3.68l-.49.12c-.5-.91.21-1.36.25-1.84.01-.11-.49-.07-.59-.66-.11-.62.3-.84.28-1.27-.03-.52-.63-1.22-.43-1.88l.73-.13-.98-.37.46-1.32-.95-.77c-.09-.37.86-1.09.95-1.52.13-.61-1.07-1.49.65-2.26l.61.98V0c1.01.68,1.61.44,2.67.53Z"/>
  <path d="M193,1.96l.04.68c1.15,0,1.02,1.06,1.92.54l.23.84-.69.42.21,1.94h.98c-.01,1.43-.97,1.27-1.19,1.5-.64.68.67,1.91.7,2.3.02.27-.03,1.3-.04,1.73,0,.08-.76.19-.46.84h.99c.33.96-.69,1.93-.73,2.59-.07,1.01.22,1.93,1.22,2.2-.15.82-.88.53-.98.62-.06.05.22.4.22.63,0,.52-.31,1.2-.11,1.71.14.36.56.5.64.98.07.42-.39.32-.49.54-.59,1.43.17,1.44.2,2.13.15,2.71-.48,5.97-.07,8.74.09.62.57,2.24.52,2.81-.02.25-.56.45-.6.73-.06.45.73,1.18.68,1.73l-.53.72c.98,1.35.48,1.24,0,2.59l.74.12c.2.99-.47.84-.5,1.02-.03.16.19,3.18.26,3.33.11.22.51.17.48.3-.1.5-.77,1.44-.72,2.23s1.32.65-.04,1.94c.49,1.21,1.09,1.95.26,3.19l.52.26c-.02.51-.67,1.31-.66,1.71,0,.25.32.51.33.76.03.87-.15,2.32-.06,3.17.07.62.9.81.89,1.21-.03,1.03-1.41,2.28.22,2.96-.98,1.18-.05,2.22-.5,3.41l.5.26c-1.13.83-.47,2.14-.51,3.21-.02.4-.55.71-.47.84.02.03.33-.03.39.06.51.83.78,2.54.1,3.38h.74c.07.05-.55.86-.62,1.11-.47,1.67.19,2.97.33,4.41.14,1.55-.36,3.57-.11,5.35.14,1.02.79,1.81.84,2.02.07.3-.32,1.44-.21,1.91.09.39,1.06,0,.48,1.95-.06.21-.34.17-.41.31-.15.33.02,1.29-.92,1.35l-.37-.49c-.61,1.86-1.23.54-1.34.53-.19-.02-1.14.31-1.37.08-.46-.44-.19-1.21-.32-1.49s-.59-.27-.66-.52c-.14-.54.31-1.23.26-1.79h-.74c-.12-.13.71-2.56.25-3.51-.07-.15-.41-.15-.46-.3-.08-.26.41-1.14.36-1.59-.07-.61-.59-1.42-.57-2.14.01-.59.57-1.09.56-1.67,0-.32-.46-.84-.26-1.36l-1.12-.24c-.02-1.38.74-1.06.93-1.26.1-.11.21-2.7.17-2.94s-.41-.52-.48-.82c-.44-1.72.49-1.38.55-1.7.03-.15.03-2.95-.01-3.1-.14-.56-.73-.22-.68-1.09-.02-.43.42-.33.58-.67.35-.72-.25-1.66.18-2.39h-.74s.47-2.18.47-2.18l-.71-.4v-.36s.46-.11.46-.11c.09-1.93-1.13-4.11-.22-5.78l-.74-.37c-.24-.68.45-.57.49-.78.13-.7-.28-1.63,0-2.41l-.74-.14c-.33-1.24.86-1.53.94-1.85.05-.21-.23-.8-.23-1.21.01-1.06-.08-1.16-.15-1.99s.7-1.16-.56-1.69c.87-.57.13-.96.12-1.47-.01-.57-.05-1.7,0-2.21.13-1.11.86-.77.1-2.39-.13-.27-.69-.13-.45-.79l.88-.99c-1.03-1.38-.74-2.81-.63-4.41l-.75-.13c.07-1.15,1.91-2.39-.24-2.7.11-1.03,1.89-.67.47-1.37.07-.69.5-1.64.41-2.31-.04-.34-.45-.61-.41-1.08.05-.56.88-1.47.68-2.74-.04-.26-.53-.26-.61-.39-.06-.1-.11-.2-.09-.32l.54-1.7-.75-.51c.04-.44.67-.61.68-.65.11-.32-.69-.88.3-1.06.03-.19-.5-.12-.68-.48-.15-.31.1-3.38-.06-4.14-.04-.19-.47-.15-.46-.27.09-1.34-.05-1.02-.18-1.99-.05-.41.92-.68.62-1.68-.07-.22-.61-.04-.48-.76.1-.56.72-.76.76-1.25.04-.41-.72-1.66-.69-2.5.02-.55.93-.79.44-1.76,1.34-.06,1.62-1.54,2.69-1.49Z"/>
</svg>