<?xml version="1.0" encoding="UTF-8"?><svg id="Layer_2" xmlns="http://www.w3.org/2000/svg" viewBox="0 0 289.48 107.99"><defs><style>.cls-1{fill:#fff;}</style></defs><g id="waffles"><path d="M9.68,46.9c.03.05.22.06.23.16.04.23-.12.49-.09.79.05.52.36.66.46.94.08.23-.01.64.07.85.07.19.37.16.43.35.02.06.14,1.09.15,1.16.02.49-.48.61.33.76.18.3.06.71.14.99.03.13.3.1.29.17-.03.27-.47.82-.29,1.26l.59-.15c-.06.49-.27,1.9,0,2.26.1.14.29.09.3.1.03.05-.4.41-.14,1.06.05.13.32.08.31.33-.02.35-.34.57-.32.88,0,.09.31.06.38.37.07.28,0,.85.08,1.25.1.49.53,1.08.28,1.71h.44s-.42.8-.42.8l.69,1.1c-.22,1.21.34,2.39.62,3.57l.59-.15c-.07.42-.27,1.18-.23,1.56s.65.65.25,1.18c.35.19.4,1.08.44,1.45.02.23.15.45.14.68l.29-.15c.12.12.16,1.58.31,1.95.06.14.27.14.33.3.08.24.05.72.16.96.04.09.5.11.24.47.19.15.8-.37.86-.47.04-.07-.14-1.01-.09-1.22.01-.05.44-.9.48-.96.27-.37.73-.14.37-.73h.45c-.27-.36.08-.24.14-.4.06-.18-.04-.43.08-.64.06-.1.9-.31.09-.44v-.21c.65-.26.27-.44.37-.67.1-.25.58-.42.71-.92s-.22-.56-.19-.76c.03-.16.41-.35.51-.61.08-.2-.08-.62-.06-.65.05-.08.54-.2.67-.36.23-.3,0-.9.18-1.06.27-.3.74-.19.97-.26.08-.03.06-.27.15-.27.07,0,1.25.28,1.3.31.28.18.85.81.69,1.17l.74-.15-.13.65-.44.1c-.33.84.56,1.69.7,2.31.09.45-.3,1.11.76.92v1.24c.91.52.28.79.29,1.19,0,.04.52.16.3.67.53.13.3-.17.59-.3.34.46-.34.85-.29,1.1.1.55.76-.35.82-.52.06-.19-.31-.38-.22-.65.06-.17.36-.18.41-.25s-.13-1.46-.06-1.79c.05-.25.34-.49.35-.79.02-.27-.3-.57-.26-.63,0-.01.22.02.3-.11.24-.4.3-1.69-.45-1.52v-.14c.45.07.15-.21.19-.26.04-.05.21-.07.3-.22.55-.88-.03-.63-.05-.8-.01-.08.06-.57.09-.72.13-.7.5-1.17.6-1.95.07-.56.24-1.55-.54-1.59.67-.53.14-1.28.74-1.92h-.44c.25-.56-.26-1.1.44-1.32-.2-.41-.35-1.23-.38-1.63,0-.09.54-.97.53-1.62,0-.5-.23.06-.44-.15.09-.27,0-.68.1-.92.09-.21.34-.12.36-.4.03-.37-.08-1.5-.46-1.62.55-.38.11-1.08.16-1.32.04-.18.42-.18.44-.32.05-.29-.37-.65-.25-1.09.07-.28.31-.39.42-.63.06-.12-.02-.28.02-.36s.6-.25.24-.77h.43c-.19-.85.63-.74.46-1.48.24-.07.2,0,.31.1,1.05.96.64.99.72,2.19.02.31.26.75.25.89-.02.18-.44.33-.39.57s.89.62.17.9l-.03,2.29c.31.09.6-.38.59.08,0,.41-.08,1.25-.6,1.26.33.44.27,1.35.02,1.85l.44.43c-.47.61.09,1.29-.09,1.77-.08.22-.33.33-.36.46-.02.11.45,1.52.44,1.9-.02.52-.53.98-.6,1.33-.09.45.33,1.47.09,1.79-.05.07-.23.04-.24.05-.03.05.32.34.31.66,0,.29-.34.73-.31,1.11l.44-.15c.33.55-.26.72-.29.84-.24,1.04-.06,1.93-.2,2.89-.06.38-.53.58.06.77.09.67-.57.5-.44,1.23h.44c-.03.65-.21,1.17-.74,1.56.68.27-.04.79-.12,1.06-.07.22,0,.48-.04.7-.07.3-.35.39-.14.71.07.1.28.1.28.17-.01.26-.19,1.21-.57,1.12l.58.36-.17.64-.41.03c.08.19.17.57.06.74-.02.04-.61.63-.65.65-.23.12-.46.04-.64.11-.27.1-.15.47-.46.42-.23-.03-.68-.47-1.07-.55-.27-.06-.61.13-.92-.05.28-.52-.14-.7-.37-1.17l-.52.44c-.25-.46-.29-.66-.15-1.18-.87.79-.5-.8-.72-1.08-.13-.17-.48-.1-.61-.32.59-.64-.09-.92-.39-1.44-.12-.2-.15-.55-.04-.89-.97-.4-.5-1.34-1.27-2.02,0,.48-.72.22-.8.53-.17.64.19.51.48.65.42.22-.61.82-.93.59l.59.37c-.47.27-.54.55-.79.91-.07.11-.31.12-.37.29-.06.19-.09,1.25.27,1.09l-.7.46c.06.79-.34.97-.77,1.53l.29.07c.07.25-.29.07-.31.23-.02.21.21.48.15.71-.04.15-.3.18-.38.29-.37.49-.35.34-.6.58s.16.62-.86.56c-.84-.05-1.59-.92-2.14-1.41-.15-.13-.49-.16-.56-.25-.08-.12,0-.38-.11-.55s-.41-.22-.58-.46c-.21-.3-1.12-2.29-1.2-2.64-.15-.69.35-1.75-.64-1.49-.18-.37-.05-.55.14-.87h-.59c.47-.6-.2-1.07-.26-1.25-.07-.24.06-.78.02-1.09-.06-.46-.47-.68-.2-1.2l-.44.29c-.02-.47-.07-.93-.11-1.4-.09-.9-.18-.51-.38-1-.14-.34.11-.63.06-.9-.02-.11-.28-.08-.28-.16,0-.25.12-1.75-.02-1.85l-.59.15.15-.96.29.07-.3-.37.3-.51c-.23.13-.57-.81-.59-.98-.06-.41.22-.55.24-.73.03-.26-.39-.89-.23-1.3l-.74-.25c-.07-.24.22-.11.25-.17.29-.61-.09-1.02-.08-1.2.03-.48.72-.66-.32-1.2.02-.21.4-.4.41-.45.06-.21-.29-.63-.27-.66.05-.05.35.12.29-.15l-.44-.09c.12-.29-.11-.56.29-.51l-.29-.22.3-.58c-.6-.29-.38-1.47-.47-2.2-.07-.57-.34-1.25-.39-1.68-.07-.51.1-1.55-.03-2.16-.03-.13-.41-.04-.3-.47.04-.13.37.03.3-.22l-.3-.08c.06-.6.72-2.05,1.49-1.62.2.11.25.41.36.61Z"/><path d="M201.85,48.82c.28.15.4.03.8.49.16.19.18.51.24.56.11.1.98.18,1.16.43.2.28-.04.58.02.75.02.06.72.59.84.89.12.29.03.63.1.77.17.36.49.12.5.14.04.07-.13.27-.07.45.04.11.27.19.3.35.09.52-.34.82-.39,1.26l.59.08c-.65.31-.66,1.84.29,1.55-.04.4-.36.52-.43.97-.08.51.21,1.4-.01,1.98l.29-.07-.3,1.18.59.15c-.39.28.04.79-.59.81l.07.3.37.21-.43.76.28.21c-.56.58.37,1.03-.44,1.7.37.11.28.27.15.59l.44.07-.29.44h.44s-.59,1.18-.59,1.18l.59.22-.59.62.3.92-.44.3.44.22c.17.38-.3.38-.3.45,0,.4.3,1.04,0,1.54h.44s-.44,1.18-.44,1.18l.56.37c-.35.47-.54.58-.42,1.26h.59s-.18,1.16-.18,1.16l-.43.1c.12.61-.16,1.86.6,1.99l-.3.44h.44s-.45,1.11-.45,1.11c.62.43.58,1.22.25,1.88-.13.26-.67.7-.78.86-.12.18.2.97-.83.57-.15-.06-.11-.42-.62-.28-.1.03-.09.29-.15.29-.89-.04-.77-1.7-.88-2.35-.09-.55-.68-.99.06-1.55l-.44-.29.31-.16v-.94s-.6-.22-.6-.22c.18-.59,1.14-.5.18-1.02l.11-1.11h-.44c-.09-.48.43-.76.43-.81-.04-.54,0-.73,0-1.2,0-.7-1.32-.78.02-1.32-.62-.81.08-1.89-.07-2.75-.08-.44-.58-.86-.35-1.44h.43s0-.3,0-.3c-.37.07-.25-.4-.33-.66-.03-.09-.26-.07-.25-.14.03-.25.43-.74.43-1.04,0-.57-.1-.28,0-1.04.1-.71-.59-2.39-.4-2.8.1-.21.88-.36.11-.73.3-.18.42-.81.26-1.08-.13-.21-.67,0-.12-.62l-.3-.07c.12-.27.5-.68.56-.93.01-.06,0-1.09-.02-1.15-.06-.18-.46-.24-.53-.6-.05-.29.59-.23.29-.51-.17-.15-.54.37-.59.29-.12-.6.31-1.62-.31-1.86l.16-.5h-1.03c.14.24-.05.55-.23.73-.42.4-1.09.28-.51.89-.72.48-1.4.43-1.33,1.48l.3-.07v.21c-.5.08-.07.66-.89.45l.15.36-.26.11.11.27-.44-.15-.15.37.28.08v.28s-1.58.76-1.58.76c.12.88-.68.16-.93.19-.35.04-.67.54-1.13.19-.13-.1-.16-.39-.34-.48-.16-.08-.37.08-.42.06-.38-.23-.22-1.49-.91-1-.01-.4.04-.82-.04-1.22-.09-.47-.59-1.11-.69-1.4-.21-.63.14-.85-.53-1.37-.18-.14-.49.17-.52-.58l-.59.81.3.16c.2.69-.81.56-.59,1.43.01.05.46.18.2.55-.2.3-.55.18-.7.47-.26.52.19,1.36.17,1.49-.05.38-.85,1.16-.87,1.24-.1.48-.4,1.7-.43,2.06-.03.32.14.68.11.85-.06.29-.7.87-.71.93-.09.34.23.82.16,1.13-.04.18-.15-.21-.18.61-.01.34-.36.7.17.67v.22s-.3.29-.3.29c.05.48.57.55-.14,1.04l.29.29-.49.7-.4,2.92.59.07c-.14.26-.46.68-.51.94-.18.91-.12.45-.37,1.02-.17.37-.12,1.34-.15,1.71,0,.11-.28.08-.3.18-.05.31.33.74.28,1-.08.38-1.06,1.54-1.22,1.87-.08.17.03.38-.07.62-.16.38-.86.31-.81.85-.32-.13-.23-.48-.27-.56-.04-.07-.27-.08-.36-.28-.48-1.05-.08-1.27.07-2.07.08-.44.06-1.21.13-1.66.05-.31.35-.98.36-1.12.02-.61-.93-.8.16-1.33l-.31-.16.31-1.1-.44-.07.59-1.18-.29-.07c.51-.41-.05-.59,0-.81.02-.09.76-.33.31-.89l-.6-.14c.35-.4.25-.84.74-1.03l-.3-.16c-.08-.27.53-1.21.59-1.62.05-.34-.09-.62-.07-.88,0-.14.26-.3.23-.58,0-.06-.96-.44.29-.67l-.44-.37c.04-.65.36-.38.58-.53.04-.02-.2-.69-.23-.8l.69-2.07-.31-.15c.34-.62.41-1.14.48-1.87.04-.4.42-.78-.03-1.08.56-.22.88-.57.44-1.1l.74-.52-.29-.22c.5.09,0-.89.74-.59-.29-.64.44-1.06.3-1.67-.03-.11-.28-.09-.3-.19-.09-.48.39-1.12.89-1.09l-.29-.15c-.06-.08,1.39-1.22,1.49-1.26.33-.13.78.17,1.17-.07l-.15-.44c.17-.23,1.41.17,1.58.34.12.11.11.34.21.46.19.24.54.22.43.68l.44-.15-.15.59c.59-.17.74.31.29.73.53.07.28.64.89.3l-.15,1.03h.59s.22,1.19.22,1.19l1.04.29c.55-.49.04-.55-.22-.88.43-.08,1.37-1.17.59-1.19v-.14s1.47-.6,1.47-.6v-.88c.5-.01,1.17.06,1.04-.59l.44.15c-.09-.66.62-.66.71-.77.11-.13-.04-.56.25-.7.44.41.71.02,1.17.14l.09-.44c.24-.06.1.2.17.24Z"/><path d="M31.15,9.8c-.16.63-.04,1.49-.42,1.97l.29.07c-.32.36-.27.57,0,.96l-.3.14.44.37-.6.39c-.05.43.41.58.42.72,0,.09-.52.68-.42,1.16.04.19.54.1.46.62-.63.15-.09.65-.14,1.01,0,.05-.45.23-.3.82h.44c-.37.69-.95,1.8,0,2.29-.07.32-.58.53-.6.62-.05.26.19.65.16.99-.03.28-.31.54-.3.74,0,.04.4.37.41.45.14.71-.39.61-.1,1.31l-.31.16c.45.54.02.66,0,1.25h.44c-.47.66-.62.94-.66,1.77-.05.88.18,1.85.19,2.73,0,.32-.24.77-.2,1.04.02.15.28.27.23.36-.02.03-.29-.11-.41.4-.2.88.21.74.26.88.19.68-.34.55-.3,1.01.56.5.14.64.07,1.2-.04.39.08.79.07,1.02,0,.08-.58.95-.56,1.32.01.2.25.36.26.44,0,.13-1.11,1.27-.71,1.69-.48.28-.92-.06-1.39,0-.29.04-.59.47-.94.25l-.1-.25c-.46.62-1.23-.41-1.12-1.03-.77.11-.49-.16-.73-.49-.27-.38-1.04-1.37-1.24-1.88-.35-.87-.78-2.67-1.35-3.39-.12-.16-.3.05-.37-.07v-1.4c-.62.31-.51.91-.44,1.47h-.59c.21,1.03-.54,1.88-1.03,2.73l.3.14c-.31.3-.32,1.12-.48,1.37-.08.13-.52.22-.63.49-.08.2.12.46.02.59-.13.16-.87.4-1.08.53-.17.11-.51.62-.59.64-.68.17-.39-.21-.52-.39-.12-.17-.84-.28-1.08-.48-.05-.04-.76-.92-.79-.98-.36-.59-.73-2.73-1.09-2.98-.24-.17-.51-.24-.65-.7s-.27-1.35.4-1.32c-.17-.42-.32-.37-.74-.44l-.11-.14c.43-1.2-.46-2.52-.74-3.73-.04-.17.1-.38.07-.53-.09-.4-.56-.7-.25-1.28l-.29.15c.22-.5-.11-.9-.12-1.25-.01-.31.21-.84.21-.89-.04-.32-.67-.72-.24-1.4-1.06.03-.14-.46-.15-.51-.02-.1-.28-.46-.35-.7-.09-.32-.07-.81-.12-1.04s-.28-.41-.28-.62c0-.05.45-.23.46-.89l-.59-.3.44-.59-.44-.22c.13-.46.58-.41.45-.96-.09-.39-.38-.31-.43-.4s.12-.35.07-.57c-.13-.55-.52-.98-.59-1.59-.13-1.12.04-1.35-.36-2.35-.15-.36-.32-1.45-.25-1.81.06-.29.36-.27.36-.35,0-.43-.37-1.4-.37-1.63,0-.16.6-1.76.7-1.83l1.16.13-.29.44c.91.29.27,1.44.44,2.11.03.11.23.1.26.14.06.12-.11.29-.04.41.31.51.39.33.52,1.25.08.59.39,1.39.44,1.92.02.21-.16.44-.13.58.04.18.41.17.44.33.05.24-.23,1.01-.15,1.28.03.11.27.09.27.16-.07,1.54.57,2.28.69,3.61.02.25-.19.39-.16.62.05.4.58,1.03.38,1.61l.29-.15c.24.66-.1.96-.15,1.55-.06.69.54,1.29.53,1.77,0,.24-.23.46-.19.71.02.14.73,2.57.81,2.72.09.19.33.17.34.28.03.23-.11.51-.09.79.12,1.73.66,2.55,1.04,4.05.09.35,0,.86.1,1.16s.75.36.72.83c.22.2.51-.54.56-.7.14-.47-.27-.2-.25-.52.08-.61.58-.77.78-1.14.22-.4.31-1.42.67-1.86l-.28-.36c.16-.01.35-.11.46-.22.38-.4.37-.85.49-1.26.25-.83.78-1.45.87-2.32.12-.19,1.87-.66,2.1-.64.65.06.94,1.51,1.11,1.96.04.1.24.12.31.32.2.55-.04.82.04,1.27s.38.04.49.38c.1.35-.15,1.05-.09,1.29.05.22.38.34.48.54.07.14-.01.53.1.8.18.46.57.92.68,1.16.1.22.24,1.11.28,1.15.09.12.31.02.38.07.18.15.14.55.37.65l.66-.3-.44-.15c.58-.74.56-.93.54-1.82-.02-.62-.01-.45.05-1.07.1-1.03-.16-.65-.43-.8-.02-.01,0-.46,0-.48.04-.15.32-.08.43-.47.28-.93-.48-2.08.43-2.5,0-.37-.45-.55-.43-.73.03-.41.44-.89.45-1.21.01-.29-.22-.42-.24-.58-.02-.19.52-1.26-.06-1.32,1.08-.71-.17-1.25.16-1.87.22-.41.46-1.15.43-1.66,0-.09-.28-.07-.31-.18-.08-.44.29-1.91.27-2.01-.02-.12-.21-.25-.25-.58-.06-.49.93-1.45-.02-1.3-.07-.68.35-.92.49-1.35.18-.52-.16-1.09-.13-1.38.01-.12.21-.25.22-.44.04-.58-1.27-.9-.14-1.26l-.31-.36c.06-.41.33-.66.42-1.07.09-.44-.16-1.01-.12-1.44.02-.26.25-.19.34-.42.19-.52.05-1.17.42-1.65l-.44-.14c.46-.78.87-1.96,2-1.79.06,0,.92.57.96.61.35.33-.16.82-.13,1,.03.15.28.28.25.45-.02.14-.43.4-.52.68-.1.3.05.53,0,.76-.09.48-.68.85.06,1.04Z"/><path d="M125.45,17.22c.05.08.23.09.27.21.07.21-.05.52.04.67.03.06.23.05.26.18.1.43-.32,1.12.46,1.36l-.21.53.33.07c.09.29-.01.68.02.93.07.58.34,1.26.41,1.86.03.22-.09,1,.13,1.22.06.06.24-.05.31.08.02.05.07,1.01.06,1.12-.01.13-.17.25-.17.27,0,.08.3.13.36.3.09.23-.11.47-.1.68.01.18.2.36.25.56s-.08.73-.06.77c.04.06.47.09.25.34-.15.17-.37.01-.25.59.01.06.15.03.16.1.05.3.07.71.03,1.02h.32s-.22.97-.22.97l.32-.11v1.83s.43-.11.43-.11c-.4.7.2,1.38.22,1.9,0,.25-.22.37-.22.53,0,.16.36.5.22.81l.25-.14c.34-.6.56-1.43,1.24-1.7l-.2-.58.97-1.08-.32-.21c.28-.33.76-.9.84-1.32.05-.25-.16-.44-.15-.62.02-.27.59-.62.17-.86.45-.2.88-.86,1.4-.76.72.13.75.62.98,1.16.04.1.2.09.21.16.06.34-.38.86.33.95-.02.41-.33,1.31.32,1.24.03.03-.26.48-.27.59-.01.12.26,1.11.32,1.24.09.17.36.18.38.29.04.2-.14.62-.09,1.03.03.22.2.47.2.72h.42c-.11.24-.14.45-.1.7.02.11.19.54.37.49.09-.02-.01-1.5.06-1.75.03-.1.16-.09.2-.16.28-.47-.13-.35-.2-.51-.05-.12.61-1.42.63-1.72-.64-.12-.42-.74.11-.97l-.32-.21.21-.33-.22-.11c.13-.16.02-.43.04-.53.03-.14.27-.15.37-.34.18-.35.36-1.4.23-1.79l.22-.07c-.04-.2-.18-.18-.32-.11-.07-.42.06-.71.32-1.02l-.21-.05c-.12-.23.42-1.18.43-1.47s-.16-.49-.1-1.06c.09-.77.1-1.35.09-2.17,0-.19.2-.13.22-.23.16-.65-.34-.69-.32-.73.33-.33.64-1.49.54-1.92-.02-.09-.3-.02-.22-.45l.33-.05c-.28-.6.11-.97.27-1.4.08-.22.14-.7.2-.84.01-.03.34-.18.3-.45,1.5-.03,1,1.59,1.01,2.53,0,.14.17.3.17.53,0,.37-.49,1.54-.53,2.04-.02.28.26.62.27.76,0,.12-.6,1.13-.07.8-.14.38-.01.9-.05,1.2-.03.2-.22.36-.24.5-.14.98.07,1.92.03,2.83-.01.28-.23.48-.25.61-.03.17.25.26.2.46l-.22.05.21.1c-.12.11-.24.56-.31.66-.1.14-.39.1-.39.47,0,.39.27.84.12,1.45-.07.31-.29.29-.29.34.01.17.29.42.2.76-.07.29-.59.68-.09.86-.17.27-.32,1.18-.34,1.51-.01.19.18.14.2.21.06.18-.4,1.13-.45,1.48-.04.3.32.49-.17.89l.22.1c-.4.37-.02.97-.43,1.3l.22.12v.36s-.41.02-.41.02l-.13.26c.73.24-.89.78-1.05.74-.52-.36-1.27-.62-1.32-1.33l-.32.11.11-.54h-.31c.1-.53-.48-.69-.61-.98-.11-.25.11-.94-.48-.64,0-.26.19-.54.17-.76-.01-.16-.43-.69-.53-.99-.22-.68-.13-1.43-.46-2.02-.49-.16-.41.74-.54.97-.04.08-.21.09-.27.19-.12.17.06.67-.42.68l.22.37c-.5.34-.67.83-.67,1.44-.35-.12-.5.57-.51.83,0,.05.17.03.19.1.09.37-.23.69-.63.6l.09.2c-.47.13-.24.51-.79.45-.07,0-.71-.13-.75-.14-.18-.08-.18-.27-.29-.35-.16-.11-.66.15-.53-.64l-.21.05c.2-.64-.22-1.16-.38-1.73h-.27c-.02-.24.18-.53.1-.78-.06-.17-.31-.17-.38-.34-.08-.2.11-.97.02-1.3-.11-.41-.39-.53-.17-1.12h-.32s.11-.49.11-.49l-.22.05c.06-.38.25-.84.21-1.23-.03-.29-.26-.41-.29-.56-.02-.11.11-.33.08-.36-.02-.02-.41-.07-.53-.23.18-.47.72-1.35-.02-1.44.03-.44.11-.82,0-1.26-.02-.09-.16-.08-.18-.13-.1-.35.02-1.38-.03-1.82-.03-.3-.27-.58-.3-.79s.12-.41.09-.61c0-.04-.54-.23,0-.66l-.22-.1c.43-.37-.1-.68-.17-1.02-.06-.31.02-.37-.11-.84-.05-.16.19-.21-.25-.41l.32-.21c-.48-1.11-.25-2.46-.49-3.67l.34-.48c.63,0,.5.15.74.51ZM132.74,33.2c.06.06.32-.09.32-.16,0-.3-.48,0-.32.16Z"/><path d="M92.02,50.9c.25.15.97-.03,1.3.04-.26-.48.26-.52.44-.17.04.08-.03.29,0,.32.05.05.51-.2.78-.13.24.06.36.41.56.5.52.25.28-.09,1.11.49.33.23.93.54,1.17.74.17.14,1.17,1.02,1.22,1.09.07.1.04.27.04.4l.74-.3v.59s.44-.15.44-.15l.16.65-.31.16c.36.31.6.73.94,1.05.15.15.41.13.5.24.09.1.98,2.21,1.03,2.44s.05.86-.26.85l.74.37c.15.55-.31.41-.44.73h.74c-.06.37-.29,1.21-.22,1.5.08.35.5.4.5.49,0,.29-.24.85-.42,1.11.47-.19.11.98.16,1.02l.58.24c-.4.4-.44.64-.58,1.18l.44.07-.29.37.3.15-.29.14.12.51c-.58.08-.32.83-.34,1.35,0,.21-.2.4-.19.52.01.15.3.28.24.37-.01.02-.23-.03-.26.07-.15.44-.15.42-.32.78-.22.48-.4.82-.45,1.36h.44s0,.15,0,.15c-.42-.06-.17.29-.3.58h-.58c.51.66-.08,1.47-.74,1.71-.11.43.64.09.59.29-.03.11-.22.53-.3.59-.19.14-.94.07-.17.44l-.29.95-.5-.13-.37.79c-.48-.32-.21.82-.31.95-.08.11-1.21.53-1.41.67-.31.22-.57.88-.75.99-.26.15-.49,0-.56.02-.08.03-.28.46-.81.12v.74c-.49-.4-.8.16-1.18.09-.93-.15-1.14-1.09-1.92-.83-.17-.62.46-.56.29-1.18-.44-.05-.26.35-.73.52-.08.03-1.7.21-1.77.15-.36-.28.03-.68-.02-.89-.01-.05-.51-.52-.59-.61l.14-.43-.26-.14.51-1.48c-.66-1.04-.41-2.34-.23-3.46l-.59-.15c.49.07.12-1.07.73-1.04l-.59-.38c.45-.69.31-1.1.37-1.76.04-.39.54-.7-.08-.9.5-.78-.15-.97-.15-1.03,0-.36.49-.49,0-1.03l.3-.15-.59-.66.44-.22c-.38-.35-.13-.73-.14-1.18l-.45-.08c.19-.77.55-2.11.44-2.87,0-.03-.43-.04-.59-.23.19-.29.32-.47.38-.83.01-.06.06-1.08.05-1.14,0-.06-.57-.16-.19-1.09.08-.21.42-.13.35-.39l-.42-.59c.66-.73.18-1.29-.04-2.06l.3-.23c-.43.09-.45-.64-.39-.94.09-.45.75-.6.6-1.14-.04-.15-.29-.29-.3-.51,0-.05.18-1.02.21-1.07.18-.42.82-.81,1.28-.7.04.01.78.29.82.31.08.04.1.27.17.32ZM95.11,54.75c-.19-.87-.84-.36-1.13-.47-.42-.16-.55-.7-1.4-.53l-.14,1.12.28.13c-.41.58-.62,1.15.15,1.48-.07.35-.57.42-.58.72-.03.75.82,1.91.29,2.89l.44-.15v.73s-.44,0-.44,0c-.12.1.82,2.29.15,2.58-.06.12.29-.03.31.29.04.68-.69,1.67.39,1.88l.11.25c-.21.29-.05.61-.08.79-.02.12-.28.07-.34.42s.13.74.05,1.06c-.03.11-.29.09-.3.19-.06.44.54,1.32.48,1.66l.26.17-.27.02.06.43-.53.21c.78.5-.02.98.34,1.82.03.06.27.08.32.17.07.12-.1.29-.04.42.04.07.41.03.12.66-.06.12-.49.14-.3.7l.44-.07c-.12.52.03.8-.6.89-.17.85.43,1.34,0,2.05l.16.3,1.25.21c.49-.42-.25-.74.64-.99.2-.06.42-.03.63-.03.13-.53-.17-.3-.3-.59,1.09-.11,1.34-1.28,2.05-1.8l-.12-.4.88-.53v-.29c-.53-.08-.07-.55.07-.96.05-.15-.06-.31-.03-.41.02-.06.54-.65.54-1l-.3-.13c.37-.51.04-.98.39-1.55.47-.78.11-.57.3-1.15.06-.17.28-.17.31-.25.09-.32-.07-1.27.47-1.26-.49-.42-.14-.77-.21-1.19-.04-.25-.32-.52-.33-.66-.01-.19.32-.4.24-.66h-.44c.17-.5-.09-.9-.14-1.4-.03-.27.22-.51,0-.85-.07-.1-.29-.1-.29-.17.07-.77.61-1.3-.69-1.55.05-.81-.26-1.44-.79-2.01l.28-.42c-.17-.38-.56-.57-.79-.84-.59-.68-1.36-1.28-1.57-2.05l-.27.12Z"/><path d="M138.9,51.34s.02-.24.09-.23c1.18.33,3.72-.38,4.07,1.16l.29-.29.02.26c.59-.22.49.61.57.77,0,.01.18-.11.3-.06.08.03.78,1.29.87,1.48.15.3.62,1.37.68,1.67.04.16-.02.31-.09.45h.74c.04.09-.16,1.34-.12,1.55.02.09.22.06.25.14.07.24-.15.85-.55.68.21,1.27-.58,1.99-1.17,3.01l.26.51c-.4.33-1.36.75-1.61,1.14-.19.29-.02.53-.06.61-.06.11-.53.57-.61.78-.12.29-.16.59,0,.88.04.09.71.73.81.44v.59s.74-.29.74-.29l-.15,1.18c.56.07.68.16.59.74l.15-.44.15.44.29-.15c0,.76.94.7.74,1.62l.29-.15c-.13.6.62.41.29,1.03l.74.16c-.32.87.6,1.66,1.13,2.35.19.25.49-.02.19.65.69.27.41.77.6,1.21.2.47.59.19.3.95l.29-.15c-.2.45.15,1.6.05,1.88-.08.22-.92.63-.8,1.35l-.87-.13v.59s-.44,0-.44,0c.16-.59-.76-.78-1.18-.59-.14-.15.03-1.14-.04-1.4-.03-.1-.45-.32-.49-.41-.12-.23-.12-.88-.06-1.15l-.29.15c.17-.57-.1-1.79-.68-2.02-.11-.04-.55.06-.65-.05-.06-.06.04-1.06-.25-1.58-.17-.3-.41-.13-.47-.19-.09-.1.11-1.05-.69-1.17l-.37.3c-.16-.68-.42-.62.15-1.18l-.42.13c-.07-.45-.64-.51-.83-.88-.1-.19.07-.53-.11-.7-.29-.28-.24-.13-.61-.57s-.78-.14-.99-.26c-.22-.14-.22-.56-.32-.65-.04-.03-.91.1-.98.16-.24.2.04.88-.62.71.14.19.01.41.05.56.01.05.52.66.53.71.05.21-.05.86.14,1.16-.55.22-.45.63-.26,1.14.05.13.29.12.28.18-.01.11-.21.32-.23.52-.07.55.07,1.28-.35,1.7l.3.14-.29.45.44.07c-.1.57-.04,1.18-.59,1.55l.59.37c-.73.31-1.27,1.15-1.03,1.92l-.59-.15.15.59c-.53-.04-.72-.42-1.11-.44l-.37.44c.06-.32-.37-.34-.43-.54-.19-.67-.18-1.21-.32-2.02,0-.03-.41-.44-.42-.47-.04-.53.46-1.44.55-1.93.13-.68-.47-1.18-.39-1.46.03-.08.29-.22.31-.69.02-.44-.18-1.07-.14-1.33.05-.31,1.01-.82.08-1.38.98-.71.35-1.48.19-2.33-.04-.19.13-.47.1-.6-.03-.12-.29-.02-.3-.31-.03-.74.24-2.12.46-2.82l-.29-.42c.15-.31.43-.51.44-.9,0-.49-.51.11-.46-.6.02-.27.25-.19.35-.4.47-1.02-.14-1.92-.12-2.69,0-.36.3-.67.36-1.04.07-.41-.2-1.93-.12-2.18.05-.17.27-.23.43-.24-.23-.3-.34-.43-.16-.8-.03-.28-.61.06-.43-.3.07-.15.33-.29.44-.45l-.29-.29c.57-.4.21-.94.29-1.31.03-.13.44-.04.15-.39.42.08.46-.15.66-.44.63.75,1.29.18,1.62.2.19.01.31.36.64.2ZM140.2,53.81c-.26-.13-.8-.45-1.04-.44-.23,0-.81.33-1.24.09l-.28.51c.3.69-.07,2.01.56,2.35l-.44.96c.79.1.2.74.21.97,0,.1.19.22.19.29,0,.12-.3.25-.37.56-.01.06.12,1.02.15,1.21.01.07.24.05.25.16.08.5-.25,1.85-.11,2.35.02.08.27.02.28.29.02.41-.54.93-.09,1.11.26.1.3-.1.12-.29-.04-.04-.25.1-.19-.15l1.03-.3c-.37-.72.52-.66.94-.9s.59-.86,1.27-.73l.02-.58h.43s-.44-.89-.44-.89l.51-.44.52.29c-.46-.95.04-.72.24-1.33.15-.44-.25-.81.5-1.11l-.44-.07.29-1.12c-.48-.12-.41-1.07-.5-1.24-.12-.24-2-1.38-2.36-1.56Z"/><path d="M160.1,16.83c.18.22,0,.57.03.69.03.13.48.11.31.74-.03.11-.42.12-.27.56.05.14.19.2.21.26.04.14-.09.3,0,.44.06.08.29.08.27.15-.03.15-.25.4-.27.54-.03.3.23.52.25.67.02.12-.15.24-.17.39-.03.26.19.51.2.77.01.4-.12,1.06-.11,1.5,0,.07.65.27,0,.56.07.3.25.66.23.96-.01.2-.23.15-.23.22,0,.26.19.82.18,1.16-.01.39-.47,1.15.31,1.14.17,0,1.05-.41,1.34-.48.41-.11,1.01.12.76-.48.37.16.45-.21.48-.2.36.02.22.21.58-.18.3-.05.49.25.7.25s.5-.26.67-.26c.15,0,.42.34.59-.09.08-.19-.19-.14-.21-.23-.03-.11.15-.51.11-.72-.02-.09-.22-.04-.23-.23-.02-.39.53-1.15-.07-1.39.07-.24.02-.45.28-.54l-.21-.87-.31-.06c-.18-.39.3-.46.28-.7-.01-.13-.16-.25-.16-.43,0-.76.02-1.37.03-2.04,0-.36-.11-1.24-.05-1.49.04-.14.54-.15.22-.72.3-.14,1.41.25,1.49.5.05.14-.01.36.04.5.1.29.33.48.36.82s-.22,1.12-.16,1.56c0,.04.25.14.22.66-.01.24-.27.08-.22.32.4.29.35.65.11,1.02l.32.16c-.38.25-.01.58-.21.91l.43.16c-.58.65-.28,1.26-.22,2.03l.34.12c-.03.19.04.45,0,.62-.03.13-.47.08-.22.75.05.15.29.14.32.25.06.22-.77.88,0,.81.14.16-.65,1.99.11,2.1-.58.21-.12.6-.31,1.07.03.14.95.2-.02.55.51.27.17.91.22,1.28.01.08.17.06.19.12.1.27-.42.96.35.92.04.22-.32.48-.32.51-.03.13.07.8.13.93.07.16.25.15.29.23.03.07-.17.72-.21.85l.32.23c.07.21-.18.39-.19.55,0,.04.09.73.11.81.11.54.58.83-.03,1.53-.15.18-.35.14-.4.2-.09.1.1.42-.29.3-.05-.01-.03-.21-.1-.2-.07,0-.16.12-.25.08-.02,0-.03-.16-.1-.2-.15-.09-.69-.36-.73-.43-.04-.06-.34-1.19-.36-1.35-.12-.73.01-1.39,0-2.05,0-.2-.34-.11-.23-.52.03-.12.39-.01.1-.74-.17-.42-.05-.25-.11-.77-.04-.32-.32-.61-.32-.76,0-.09.26-.06.32-.23.03-.1-.04-.72-.07-.88-.08-.4-.43-.48.08-.83l-.41-.32c.58-.71-.08-.93-.13-1.52-.04-.41.34-.72,0-1.23-.41.05-.79.15-1.18.27-.56.16-.62.1-1.02.18s-1.48.56-1.91.76c-.27.13-.77-.03-.82,0-.03,0-.38.39-.39.41-.12.21-.03.64.26.69-.08.18-.33.64-.29.82.05.21.23.16.28.27.03.08-.17.38-.17.51,0,.23.12.52.13.79,0,.25-.37.9.27.8-.25.53-.59,1,.1,1.34,0,.25-.29.41-.29.44-.01.08,0,1.59.03,1.67.09.35.27.15.38.22.05.03-.19.74-.19.83-.02.27.12.9.09,1.14,0,.07-.15.07-.18.12-.13.21.07.36-.47.28l.11.21-.6.21c-.28-.53-.95-.43-.82-1.17l-.32-.07.1-.86c-.47-.19.08-.78-.03-1.27-.07-.32-.31-.26-.29-.44.01-.19.15-.32.17-.49.09-.67.02-1.59-.27-2.2l.22-.06-.23-.26c.04-.36.18-.72.13-1.09-.03-.2-.19-.14-.22-.22,0-.03-.02-.58-.01-.61.02-.08.56-.12,0-.35.31-.82.08-1.33-.31-2.04.71-.32.29-.65.26-.97,0-.06.14-.15.12-.27-.04-.41-.42-1.27.05-1.46-.15-.16,0-.52-.02-.56-.01-.02-.32-.06-.29-.4.02-.21.25-.26.21-.48h-.32c-.04-.23.32-.47.33-.5.04-.34-.15-.83-.17-1.06-.03-.26.48-.83-.04-.97.36-.39.35-1.75.21-2.24-.03-.1-.25-.06-.22-.23,0-.41.27-.32.32-.39.02-.03.01-.74,0-.79-.03-.34-.44-.76,0-1.08-.62-.29.11-.29.27-.37.2-.1.41-.44.44-.44.2,0,.4.28.69.12Z"/><path d="M41.47,6.27c.21.22,0,.55.06.67.2.34,1.3,1,1.47,1.58.09.29-.08.68,0,.79.12.18.41.56.61.87.07.11.32.15.44.37.24.47-.11.81.01,1.3.09.34.79.46.51.86-.05.06-.33-.09-.27.16h.44c-.57.91.37,2.02.41,2.61.02.23-.22.45-.25.73-.05.43.26,1.1.13,1.59l.6.31-.46.59c0,.45.28,1.05.24,1.48-.11,1.24.07,2.71-.02,4-.07,1.04.34.79.4,1.16s-.93.82.28.96c.05.64-.7.5-.44,1.33l.44-.15c.13.3-.03.71.01.95.05.28.3.44.3.75,0,.34-.7,1.36.28,1.25-.3,1.34.06,2.84.59,4.06l-.3.3c-.03.48.4.83.41.88.06.19-.15.66-.12.86.02.12.42.04.3.46-.85.65-.79,1.43-2.15,1.33-.44-.03-.44-.4-.65-.7-.1-.14-.38-.17-.43-.36-.06-.2.09-.44.06-.56-.33-1.31-.31-2.49-.81-3.69l.29-.07c-.29-.62-.4-.94-.15-1.62l-.44.15c-.24-.57.26-.75.29-.83.1-.32-.37-.79-.38-1.01,0-.18.19-.39.18-.59-.02-.58-.54-.83-.53-.88.03-.16.38-.47.38-.74s-.3-.74-.26-1.08c-1-.31-2.14.22-3.07-.32l.15.44c-.69.24-1.11-.22-1.77-.39-.37-.09-.72.17-.96-.2l-.52,1.54.3.15c-.34.47-.74.98-.59,1.6.03.14.34.04.3.32-.04.3-.35.39-.42.63-.03.11-.28,1.93-.28,2.03,0,.32.64.54.25,1.15-.09.14-.33.14-.39.32-.03.1.08.36.03.52-.1.36-.32.72-.35,1.12l.41.28c-.06.3-.51.44-.57.62-.12.41,0,1.13-.02,1.44,0,.13-.3.12-.37.23-.27.41.13,1.01.05,1.16-.02.03-.5.46-.53.47-.36.11-.65-.16-.85.45-.48-.51-.59-1.36-1.11-1.71l.46-1.02c-.3-.14-.35-.13-.3-.52h.44c-.02-.28-.18-.53-.17-.82s.31-.2.32-.3c.03-.23-.25-1.18-.16-1.73.02-.11.27-.09.3-.2.14-.55-.29-1.43.29-2.04l-.59-.22.29-.37-.3-.14.59-.66-.3-.07.3-.59-.3-.15v-.3c.66-.25.25-.39.3-.73.03-.2.22-.34.23-.45,0-.1-.16-.81-.38-.73.38-.44.74-1.84.83-2.43.08-.55-.26-.82-.24-1.1,0-.08.25-.06.29-.19.09-.29.32-1.25-.14-1.07v-.14c.07,0,.2,0,.24-.05.46-.6-.21-2.26.63-2.85-.14-.44-.38-.81-.28-1.31.08-.38.43-.33.43-.43,0-.09-.11-1.25-.13-1.32-.04-.15-.35-.04-.3-.17l.73-.38c.06-.06-.18-.74-.14-.92.03-.13.3-.05.31-.32.01-.38-.21-.68-.13-1.15.1-.58.43-.33.53-.43.09-.09.3-1.46.62-1.68l-.44-.29.16-.36h.58c-.11-.24-.13-1.03-.06-1.2.13-.33.69-.5.77-.61.02-.03.2-.39.27-.55.13-.29.06-.64.13-.74.3-.46,1.54-.8,1.77-1.33.46.62,1.06-.16,1.38.18ZM40.61,9.78c-.38-.33-.19,1.03-.88.74.63.79-.07.79-.31,1.39-.2.53-.26,1.24-.46,1.76-.08.21-.34.18-.41.36-.24.61.23,1.22-.45,1.44l.3.51c-.57-.06-.13.81-.2,1.22-.04.26-.44.91-.37,1.21l.43.3c-.08.21-.51.32-.56.39s.1,1.47-.33,1.74c.92-.12.11.47.04.67-.09.26-.22,1.37-.19,1.62.31.03.64.09.92.23.13.07.1.3.19.29.16,0,.29-.2.44-.22.61-.07,1.72.18,1.93-.24.89.25,2.2.17,1.96-1.02h-.43s.45-.68.45-.68v-.28s-.44-.3-.44-.3l.45-.45c-.46-.52-.03-.63-.02-1.03,0-.13-.26-2.37-.3-2.49-.07-.21-.39-.19-.43-.34-.16-.57.43-.4.3-.93l-.44.15c-.13-.45.13-1.02.12-1.4-.03-.66-.6-3.25-.85-3.84-.04-.1-.42-.77-.45-.8Z"/><path d="M174.79,51.99c.06.08-.04.38.05.54.1.19.89.44.97.52s-.01.32.12.42c.15.11.5-.04.66.05s.06.49.15.7c.05.11.29.12.3.21.03.29-.04.81,0,1.31.01.18-.16.46-.14.5.21.32.96.06.27,1.26.84.3.17.9.22,1.34.01.12.18.24.2.34.11,1.06-.11,2.55.23,3.64.03.09.25.05.27.3.02.33-.13.55-.15.75,0,.07.24.05.32.24.25.57.02,1.51.53,1.8l-.28,2.15c.83-.25.44.91.15,1.33.5-.15.7.41.45.78-.15.22-.54-.07,0,.62-.22.14-.37-.02-.3.36h.74s-.14,2.43-.14,2.43l-.45.08.74,2.36-.44.15h.59c-.08.59.02.81-.74.74l.29.37c-.27.05-.58.46-.61.48-.18.07-.74-.44-.71.48-.66-.4-1.2.3-1.65-.49-.76-1.3.18-2.44-.56-3.73l.3-.36h-.44s.44-1.32.44-1.32c-.61-.06-.61-1.1-.43-1.55l-.3-.09c.68-.71-.1-.81-.15-.89-.04-.07.28-.29.3-.52.03-.31-.22-.51-.25-.76s.15-.67-.04-.87c-.51-.53-.88-.1-1.44-.12-.33,0-.84-.55-.79.34h-.22c-.71-.64-1.89-.54-2.8-.43l-.08-.45-1.18.15c-.05.07.2.98.13,1.23s-1.33.78-.28,1.21c-.76,1.07-.4,2.3-.53,3.47-.05.45-.39,1.12-.49,1.43-.26.82-.53,1.66-.72,2.5-.16.57-1.14.73-1.56.5s.08-1.26.11-1.61c.04-.41-.09-1.61-.02-1.84.07-.21.49-.75.54-1.06,0-.04-.44-.11-.39-.72.04-.43.37-.37.39-.4.1-.17-.21-.37-.23-.51-.02-.15.14-.33.16-.49.03-.31-.28-.66.22-.62l-.44-.3.3-.44-.44-.07c.3-.49.73-.51.56-1.18-.03-.12-.49.01-.11-.55.72-1.06.47-1.54.49-2.62,0-.3.71-1.76.79-2.43.04-.31.1-.68-.26-.74l.88-.52v-1.22s.45-.33.45-.33l-.3-.3.03-.27c.81-.52.31-1.03.46-1.5.02-.06.48-.86.57-1.02.13-.21.73-.31.31-.68l-.33-.07c.14-.48.63-.42.9-.73.15-.18.03-.51.13-.7.09-.16.31-.17.36-.26.07-.12-.08-.34,0-.45.11-.16.5-.16.69-.36.1-.11-.02-.33,0-.35.2-.16,1.04-.41,1.29-.55.14-.09.16-.39.44-.45l.6.24-.15-.59,1.46.16ZM173.92,58.17c-.2-.33.24-.86.24-.96s-.22-.24-.22-.43c0-.7.35-1.5-.76-1.56.23.59-.07.7-.39,1.08-.37.45-.35.33-.61.57-.16.15-.04.63-.07.67-.07.09-.37.12-.48.32s.1.7.05.81c-.04.09-.29.13-.43.43-.26.54-.14,1.32-.31,1.61-.62,1.1-.38,1.5-.77,2.51-.18.46-.59.99-.83,1.43.3.17.72-.06.94,0,.14.03.08.28.1.29.28.21.3-.22.33-.24.27-.13.6-.1.88-.21.16-.06.1-.51.85-.14l.22-.57c.32-.03.57.41.62.42.13.03.41-.13.59-.11.21.02.39.27.55.25.34-.05.47-.71.38-1.01h-.43c.65-.88-.15-.87-.12-1.56.01-.43.44-.84.4-1.22-.04-.32-.23-.47-.25-.69-.03-.39.13-1.02.12-1.32,0-.03-.34-.14-.29-.45l-.3.07Z"/><path d="M50.34,47.43c.02.47.3.12.62.18.39.07.68.44.99.51.23.05.5-.11.64-.05.12.05.65.95.76,1.15.07.14-.03.36-.01.37.08.08.99.47,1.02.51.15.24.11.62.16.67.14.14.93-.19.57.61l.27-.13c.32.41.15,1.11.47,1.5.14.18.36.07.42.12.06.07.03.59.12.84.07.18.31.18.32.2.03.09-.16.31-.11.48.01.05.5.47.55.61.07.2-.34.6.62.52l-.29.15c.49.44-.15.98-.16,1.55-.01.49.43.89-.14,1.03l.56,1.04c-.82.36-.32,1.08-.67,1.66-.15.25-.46.33-.48.44-.06.26.19.94.08,1.07-.23.28-.64.14-.36.74h-.59s.3.52.3.52c-.5.58-1.33.42-1.96.84-.45.3-.29.82-.92.26-.11.38-.28.33-.66.3l.15.44c-.47-.14-1.73.28-2,.25-.19-.02-.43-.58-.79-.37l-.16.27-.3-.44-.16.5c.35-.03.36,1.08.31,1.31-.04.19-.44.16-.45.4.66-.02.13.93.14,1.25,0,.1.28.02.31.3.08.71-.77,1.79.28,2.15v.14c-.42-.04-.4.56-.44.89h.44c.04.48-.2.91-.24,1.37-.03.42.11.83.07,1.18-.06.47-1,.66.32,1.36-.56.4-.84.67-.89,1.4h.44c.11.66-.3.58-.41.84s-.31,1.69-.48,1.82l-.43-.07-.22.21.07.45h-.52c-.04-.68-.74-.46-1-1.07s.19-1.11-.7-1.15c.3-.24.15-.96.18-1.01.11-.17,1.06-.47-.03-.69l.45-1.25h-.44c-.03-.72.25-1.11.59-1.7-.54-.49-.18-.59-.17-1.03,0-.06-.75-.49-.13-1.03l-.44-.07.59-.96c-.85-.29-.67-.78-.44-1.55l-.3.07c-.01-.46.47-1.01.52-1.38.05-.41-.5-.88.22-1.12l-.44-.96h.44c-.93-.77-.04-1.33.01-2s-.75-.25-.16-1.03c0-.1-.31,0-.32-.29-.03-.66.87-1.85-.13-2.22.22-.13.43-.25.51-.53s.21-1.4-.21-1.39l.3-1.02-.3-.09c.57-.48-.01-.67.02-.93.02-.17.38-.38.42-.77s-.23-1.13-.23-1.47c0-.19.31-.73.23-1.01-.04-.14-.39-.04-.29-.31.66-.43.29-.67.31-1.17.01-.39.41-.75-.16-.9v-.29c.78-.25.23-.85.34-1.31.01-.04.4-.77.43-.8.09-.08,1.09-.18,1.4-.3.38-.14.54-.48.58-.48.39-.03.65.27,1.21-.11ZM49.5,50.32c-.13-.1-.09-.52-.47-.41l-.44.45c.5.49.06.98.14,1.37.04.2.3-.23.19.77-.01.09.06.2.09.29l-.27.14c.98.83-.05,2.03.18,2.66.03.09.24.09.31.25.23.58.02.85-.2,1.37.91.37-.03.6-.08,1.18-.04.46.07,1.02.39,1.33l-.31.82h.44c-.15.3.08.66-.01.94-.08.22-.56.17-.42.82l1.02.02.08.44c.67-.15.96-.08.96-.89l.15.29c.41-.37.97-.17,1.47-.15-.19-.4-.07-.98.44-1.03l-.29-.29.41-.08-.11-.22.59-.16c-.69-.73.69-1.41.26-2.19l-.41-.09c.38-.5-.22-1.47.59-1.55v-.14c-.11.01-.25.03-.29-.11-.17-.5-.04-1.4-.3-1.96l-.44.44c-.17-.48-.19-.64.15-1.03h-.45s.15-.3.15-.3c-.58.29-.36-.08-.55-.15-.15-.05-.41.04-.48,0-.12-.07.14-.81.12-.86-.01-.04-.35-.22-.54-.56s-.16-.95-.56-1.04c-.13-.03-.34.14-.49.04-.14-.09-.15-.38-.39-.49-.14-.07-.56.13-.62.09Z"/><path d="M81.36,49.91c.24.06.07-.27.24-.3.33-.07.92.14,1.3.15.98.01,1.14-.42,2.05.45.13.12.09.3.16.38.29.34.61.28.47.85-.09.38-.49.26.21.62-.58,1.01-1.08.66-1.99.73s-1.52.13-2.52.1c-.05,0-.1.44-.77.17-.24-.09-.12-.46-.55-.34-.06.02-.06.29-.17.31-.27.03-.93-.23-1.24-.3v.59s-1.03-.29-1.03-.29c-.07.3.29.39.29.66,0,.19-.26.39-.25.67.01.32.17.45.22.69.04.18-.13.42-.1.46.02.04.96.39.13.46-.06.26.29.07.3.22.03.3-.24.46-.25.59,0,.15.23.34.23.58.02,1.12-.76,2.73-.31,4,.08.21.26.18.34.43.11.37-.03.73,0,1.09l2.28.31-.07-.44s.79.04.91.08c.31.11,1.04.57,1.4.75.12.06.45-.22.5.27,0,.06-.19,1.2-.23,1.26-.04.07-.59.12-.82.37-.13.15,0,.45-.24.5-.42.09-1.65-.32-1.54.6-.3.03-.63-.6-.68-.6-.29-.03-1.2.59-1.68.3-.03.06.1,1.14.07,1.35-.04.26-.3.23-.36.38-.14.38-.03.95,0,1.36h.59c-.21.64.19,1.54-.59,1.85.46.47.17.99.14,1.55l.44.07c-.48.28-.13.91-.59,1.03.45.26.13.57.16.87.05.44.61,1.28.68,1.63.07.29.02.71-.26.89.58.25.46.52.44,1.11.43-.23,1.08.16,1.43-.33.04-.05-.1-.35.11-.56.27-.26,1.04-.58,1.4-.6l.04-.55c.74-.08,1.11-.95,1.66-1.22.32-.16.53-.08.71-.15.21-.08.21-.53.99-.14v-.44c.21-.22.82.68.95.83.08.1.34-.03.24.35l-.29.15c.44-.09.58.18.59.59h-.59s.13.37.13.37c-.42.21-.52.69-.16,1.03-.16.41-.68.29-.94.51-.28.24-.04.68-.07.73-.03.04-.47.09-.63.17-.12.05-.1.27-.18.27-.12-.01-.26-.15-.42-.13s-.53.63-.58.69c-.2.22-.64.2-.4.64l-.94-.11-.25.19c.03.53-.57.74-1.02.52v.74c-.41.18-.85-.27-1.08-.27-.19,0-.41.22-.61.2-.35-.02-.85-.79-.96.06h-.14c.01-.42-1.31-.86-1.42-1.03-.13-.21.08-.48.02-.74-.1-.48-.73-.94-.81-1.15-.17-.42-.09-.54-.3-1.02-.28-.62-.61-.94-.3-1.67l-.29.07c.23-.34-.19-.56-.15-.87s.46-.42.15-.87c-.07-.11-.3-.1-.29-.17.08-.54.48-1.52.44-2.08-.02-.3-.34-.2-.38-.49-.02-.17.22-1.53.38-1.72l-.3-.07c.24-.31.27-.36.15-.74l-.29.15c.31-.45-.15-1.36.15-1.55l.44-.08c-.03-.32-.42-.62-.49-.77-.09-.19.18-.36-.25-.47.22-.39.48-1.01.39-1.45-.03-.15-.24-.3-.23-.32,0-.05.55-.25.57-.74,0-.05-.31-.04-.38-.45,0-.05.02-.77.03-.81.13-.44.66-.49.05-.65l.16-.51c-.51.4-.24-.34-.09-.54.19-.26.89-.52.24-.73-.15-.53.24-.5.25-.53.03-.12-.07-.3,0-.53.09-.31.44-.48.2-.81-.07-.1-.29-.1-.29-.19-.02-.81.33-1.57.29-2.42l-.44.07.44-.81-.41-.21c0-.53.33-1.02.42-1.48.18-.9.05-2.37.69-2.91l-.11-.27c.62-.32,1.17.13,1.55.13.53.01,2.31-.42,2.99-.54.31-.05.77.22.78-.33l.15.29Z"/><path d="M63.64,48.87v.44c.42-.1.83-.42,1.29-.4.2,0,.33.2.43.21.28.02.52-.17.83-.08s.34.49.42.54c.04.02.41-.14.85.12.34.21.39.89.9.5l.3,1.03c.88-.46.95.74,1.32,1.22.53.67.61.03.74,1.19.01.1.25.09.33.31.14.38.88,3.58.87,3.85-.02.37-.29.66-.27,1.21.06,1.1-.3,1.4-.48,2.5-.04.22.13.52.07.66-.07.15-.35.2-.48.34-.11.12.1.53-.48.39v.29s.29.15.29.15c-.46.06-.32.6-.88.3.08.86-.67,1.22-1.42,1.47l.09.59c-.43.07-.82.4-.95-.14l-.6.29-.28-.3c-.49.03-.53.43-.63.45-.39.07-.93-.32-1.16,0-.06.09.08.91.06.96-.03.08-.25.06-.27.17-.04.2-.09,1.32-.07,1.55.03.34.41.65.22,1h.44s-.3.23-.3.23l.3.15c-.17.31-.19.44-.59.37l.31.36c-.31,1.07-.39,1.98.28,2.96l-.3.07c.47.5.04,1.15-.15,1.69l.59.08c0,.36.02.9-.44.89v.29s.29-.15.29-.15c.37.7-.33,1.24-.4,1.57-.03.14.1.39.05.64-.13.62-.43.91-.15,1.48-.4.5-.76-.2-1.04.59-.55-.59-.84.06-1.4-.15l.15-.29c-1.14-.06-.47-.71-.58-1.23-.05-.24-1.18-.47-.04-1.07.06-.5-.41-.24-.11-.81h-.45c-.02-.41.4-.67.45-.97.04-.24-.06-1.38-.14-1.62-.08-.25-.3-.22-.3-.3,0-.07.07-1.34.08-1.41.17-.78.8-.71.06-1.53l.3-.66h-.44s.28-1.4.28-1.4l-.28-.15c.11-.37.42-1.16-.14-1.1v-.14c.82.05-.08-2.13.14-2.36l.59-.07c-.97-.34.3-1.56-.74-1.92l.73-.59-.59-.22.45-1.4-.45-.08c.13-.32.18-.77.31-1.06.06-.15.3-.11.28-.19-.08-.37-.4-.4-.41-1.17s.25-1.2.56-1.86l-.59-.22c.19-.23.65-.75.42-1.07-.17-.24-.81-.27.03-.85-.6-.96.52-2.03-.17-3.1.43-.39.15-.36.2-.79.08-.64.25-1.28.27-1.93l1.61-.31ZM65.09,51.49l-.85-.4c.05.29-.2.6-.23.81,0,.04-.05.67-.05.71.01.19.29.39.35.7.1.51-.38,1.39-.37,1.82s.42.76.39,1.22c-.02.25-.35.91-.33,1.09.03.26.27.52.3.8.06.67.06,1.55-.08,2.2l.31.16c-.7.33-.15,1.41-.3,2.04.1.43,2.2.07,2.24-.47l.42.13c-.03-.67.69-.81,1-1.06.03-.02-.09-.23.01-.35.13-.14.42-.2.44-.23.03-.05-.13-.25-.11-.36.17-.72.09-1.16.17-1.88.02-.16.28-.54.22-.77-.02-.07-.42-.06-.27-.57l.3-.16-.44-.08s.13-1.01.13-1.11c0-.05-.44-.24-.4-.89.01-.26.25-.47.24-.58,0-.06-.5-.97-.55-1.03-.5-.74-1.58-.88-2.14-1.69-.05-.07.02-.22.06-.29h-.37s-.1.26-.1.26Z"/><path d="M161.49,51.64l.12-.27.51.16-.15.44.42.02.46,1.24-1.03.22v.66c-.61.11-1.46.43-2.07.28-.19-.05-.39-.36-.65-.36-.06,0-.38.73-.89.68-.33-.03-1.09-1.24-1.56-.09l-.8-.3-.22.52.44-.07-.29,1.56.29.13-.15.58.31.18-.16.65.45.07-.02.5-.43.1c-.2.99.45,1.39.45,1.47,0,.07-.56.45-.52,1.19.03.44.54.89-.07,1.03l.59.66c-.45-.1-.68,1.73-.59,1.77.67-.35,1.06.21,1.7.02.3-.09.25-.38.62-.43.54-.08.76.32.99-.31.75.25,1.32.38,1.49,1.24.12.6-.29.55.51,1.04l-.73-.07-.22.99c-.57-.19-1.21.09-1.8.17-.22.03-.44-.08-.66-.05-.54.08-.52.67-1.51.51-.08-.01-.33-.8-.69.07l.58.24-.44,1.02.44.07c-.19.33-.31.57-.74.52-.01.33.34.54.41.66.03.05-.07.28.02.41.11.16.37.02.31.25-.41-.05-.17.16-.26.4-.14.35-.44,1.39-.48,1.76-.03.25.24.18.29.32.14.42.24.96.01,1.36h.74s-.15.59-.15.59h.59s-.15.29-.15.29h.44s0-.52,0-.52l2.07-.74c.08-.83.74-.25.74-.81h.14c.24.57.77.68.88,1.42,0,.05.01,1.02-.02,1.06-.07.08-.33.09-.49.32-.19.28-.2.86-.36,1.08-.04.05-.84.48-1,.71-.04.05.12.23.1.25-.03.04-.74.26-.84.28-.13.02-1.35.05-1.41.03-.11-.02-.09-.29-.16-.29-1.03.07-1.3.1-2.28-.4-.64-.32-1.33-.97-1.2-1.53l-.59.15c-.12-.09-.17-2.06.15-2.21h-.59c-.08-.28.19-.46.22-.67.12-.77-.03-2.54-.05-3.4,0-.09-.46-1.11-.47-1.18,0-.18.21-.64.24-.95.04-.41-.37-.94.36-1.03-.19-.52-.33-.44,0-.95-1.11.22.11-.83.14-1.04l-.29-.29.44-.59c-1-.51.68-1.29-.44-1.55l.29-.15-.26-.17c-.08-.64.29-.43.51-.6.09-.07.22-2.07.19-2.23-.02-.11-.29-.11-.3-.17v-.3s.45-.22.45-.22l-.29-.15c.62-.57-.49-.86.41-1.24-.51-.94-.22-.97-.02-1.76.12-.48-.25-.39-.24-.46.01-.11.22-.32.23-.51.06-.98-.09-1.89-.58-2.67-.25-.4.79-.86,1.19-.85.22,0,.38.28.54.25.14-.03.25-.29.4-.35.83-.32,1.27.34,1.91.17.29-.08.19-.37.61-.45.55-.11,1.05.58,1.16-.24.4.46,1.19.12,1.64.23.32.08.81.8,1.13.62Z"/><path d="M95.83,8.16v-.44c.31-.11.58.31.78.27.15-.03.32-.32.61-.28.1.01.13.31.33.43.22.12.56.08.75.22.35.25.35.92.38.96.07.08.34.09.37.24.06.28-.88,1.1-.96,1.11-.7.14-1.76-.1-2.32,0-.23.04-.39.25-.61.29-.48.07-1.34.16-1.69-.14v.44s-1.17-.14-1.17-.14c-.38.62.41.67.29,1.1-.02.07-.25.05-.27.15-.02.09-.12.83-.12.89,0,.21.33,1.35.68,1.26-.61.68-.18.7-.16,1.09.02.43-.27,1.04-.13,1.61.03.11.29.11.29.16,0,.24-.54.82-.57,1.5,0,.05.77.35-.02.73l.45.44c-.33.25-.14.86-.22.97s-.36.1-.36.21c-.01.27.29.64.58.67l.09-.45c.61-.11.9-.1,1.46.17l.39-.44c.83.33,1.32-.33,2.24.01.46.17.08.54.18.72s.44-.07.36.63c-.16,1.3-1.26.92-2.17,1.53l-2.84.33.15.44-.68.3c-.06.1.05,1.07.09,1.22.04.13.28.1.3.2.03.24-.22.57-.16.85.02.1.3.09.29.16-.01.24-.35.71-.36.9-.02.24.18.51.16.74-.03.33-.7.9.21.82.08.4-.42.6-.44.68-.01.07.12.54.11.76,0,.54-.37.59.33.7-.13.68-.76.41-.16,1.24l-.28.08c.8.12.15,1.14.21,1.26.09.18.51.3.67.54.27.41-.34.9.53,1.23.22-.11.15-.45.27-.55.3-.27,1.04-.79,1.33-1.25.28-.43.15-.82.66-1.09l-.26-.94c1.64.03,2.27,1.67,1.62,3.03l.29.13c-.04.64-.5.47-.56.54-.08.09.03.38-.05.54-.07.13-.54.11-.41.47l.29.07c-.22.31-.5.41-.89.37v.66c-.43.15-.73.53-1.18.23l-.16.59c-.29.12-.63-.25-.8-.24-.29.03-.9.22-1.34.22-.09,0-.05-.22-.13-.24-.13-.03-.49.09-.64-.07-.08-.09-.02-.35-.17-.48-.05-.05-.27.08-.29.05-.14-.22.09-.44-.6-.64l.44-.51c-.14-.05-.98-.7-1-.76-.03-.09.15-.35.1-.61s-.34-.44-.39-.66c-.3-1.27-.16-2.8-.04-4.11l-.25-.08.12-.34-.3-.09.29-.15c-.53-.47.04-.74.08-1.11.05-.41-.38-.91-.37-1.18.01-.34.41-.69.3-1.48-.03-.23-.92-.84.15-1.03,0-.54.08-.94-.06-1.46-.15-.56-.19-.94-.17-1.62.03-.82.37-.85.37-.9,0-.22-.25-.41-.26-.58,0-.23.38-.46.39-.74,0-.32-.35-.54-.38-.74-.04-.38.2-1.81.39-2.21l-.29-.14.44-1.04-.43-.08-.03-.65.45-.08-.3-.22.3-.59-.29-.07v-.22c.85-.3.02-.98.42-1.63-.75-.26.18-1.22.18-1.61,0-.87-1.68-1.7.23-2.72.28-.15.48,0,.54-.02.15-.06.22-.4.81-.4.34,0,.43.22.66.23.66.03,1.65-.26,2.39-.1l.08-.45.88.44Z"/><path d="M56.24,6.72c.07.09.02.29.03.41.25-.2.59-.3.91-.21s.27.36.36.37c.3.03.51-.24.74-.26.77-.07,1.58.31,2.34.4l.08-.45c.77.44,1.57-.06,2.29.03.04,0,.19.48.66.27l-.15.44.59.15v.21c-.2.56-.8,1.37-.29,1.85-.41.26-.65-.08-.9-.08-.34,0-1.78.23-1.83.52-.35-.46-.72-.11-1.02-.14-.11-.01-.04-.43-.46-.31-.22.83-1.84.36-2-.29l-.37.44c-.75-.64-1.12-.26-1.92-.29-.42-.02-1.83-.55-1.97-.06-.02.06-.03,1.21-.02,1.28.02.13.31.04.31.31-.01,1.18-.28,2.58.26,3.39-.11.45-.06,2.17.06,2.42.02.04.38-.04.17.47l.67.14v-.44s1.04.3,1.04.3v-.43s.5-.01.5-.01l.16.3c.58-.78,1.61-.24,2.36-.21.7.02.78-.59,1.19.5l.51-.14v.37c-.45.09-.14.27-.21.52-.12.4-.43.6-.23,1.03l-.57-.13c-.27.91-1.75.15-2.42.27-.05,0-.43.44-.81.56-.17.05-.36-.11-.45-.08-.03.01.03.25-.24.27-.71.05-.59-.41-.77-.46-.12-.03-.6.17-.79.15.16.56-.17,1.11-.15,1.77l.45.07c-.7.45-.25.66-.22,1.08.01.27-.12.54-.07.81.02.12.26.12.3.21.2.47.08.73-.16,1.15l.31.16-.31.87.31.15c.05.3-.28.48-.31.74-.05.49.58.73,0,1.24h.44s-.31.66-.31.66l.31.15c-.54.58.08.75.09,1.03,0,.15-.39.71-.36,1.18,0,.03.41.44.42.47.1.57-.19,1.67-.16,1.88.01.09.24.08.27.16.18.51-.24.55-.26.62-.13.5.26.71.29,1.01s-.19.72-.15,1.17c.03.4.3.64.3,1.03l-.15.16c-.54-.2-.41.21-.8.37-.8.34-1.14-.16-1.86-.01.31-.63-.35-.95-.41-1.43s.18-1.71.09-2.3c-.04-.3-.41-.59-.38-.9s.43-.5.42-.76c0-.09-.23-.06-.25-.11-.07-.13-.2-.33-.21-.35-.02-.18.13-.39.14-.59.01-.57-.02-1.08.17-1.67h-.45s.3-.68.3-.68l-.28-.13.41-1.32-.56-.78c-.06-.23.34-.16.35-.62.01-.32-.18-.55-.19-.84-.01-.52.36-1.53-.32-1.55v-.14c.4.11.37-.5.3-.78-.04-.17-.41-.19-.45-.33-.05-.18.36-.47.41-.77.04-.22-.02-1.53-.15-1.64l-.41-.03c.31-.46.04-1.09.14-1.53.04-.17.36,0,.3-.24h-.59s.19-.72.19-.72l.25-.17h-.29c.37-.31.15-.84.23-1.04s.46-.27.34-.56c-.01-.03-.31.02-.39-.58s.25-1.9.23-2c-.04-.22-.39-.39-.37-.85.02-.4.28-.86.39-1.25l-.29-.28c.46-.79.41-2.16-.44-2.66.67-.38.9-1.36,1.73-1.53.44-.09.78.18,1.14.13.28-.04.39-.31.59-.38.37-.13,1.25-.06,1.56.23v-.59s.68.14.71.18Z"/><path d="M108.06,7.3c.04.23.04.43.16.65.21.39,1.12,1.1,1.18,1.34.26,1.1-.21,2.58-1.22,3.14-.19-.04-.56-.68-.61-.87-.24-.95.32-1.21-.94-1.53-1.03-.26-1.24.47-2.22.5l.27.37c-.42.41-.81,1-.71,1.61,0,.04.39.16.28.59-.04.15-.45.03-.29.39.95.15.02,1.35.03,1.68.01.42.99.54-.03,1.05.46.88.41,1.96,1.05,2.79.34.44,1.09,1.01,1.41,1.55.18.3.02.52.06.58.07.1.54.19.72.44.22.3.21.75.38,1.06.09.16.91.9,1.05.97.06.03-.02.32.33.08l-.15.89h.34c.45.44-.2.62-.19.66.06.35.59.53.68.67.19.31-.3.55.19.66l-.42,1.1.43.23-.29.3.31.15c.01.23-.29.59-.3.74,0,.06.25.04.29.17.03.12.13.75.14.87,0,.03-.46.11-.28.5l.45.08-.14.86-.45.1c-.13.43.32.56.42.84.2.56-.27.48-.27.57-.07,2.69-.54,3.4-2.3,5.41-.04.04.07.28-.12.42-.2.15-.38.02-.53.08-.38.15-1.27.64-1.7.62-.46-.02-1.58-.34-1.99-.57l-.07.44c-.43-.19-.4-.27-.38-.73-1.23.15-1.29-1.13-1.8-1.73-.09-.1-.35-.01-.53-.29-.07-.11-.83-2.11-.84-2.26-.08-.71.21-1.24-.07-1.93.55.12.54-.59,1.12-.59.83-.05.94,1.09,1.54.44.21.29-.11.79-.08.89.05.18.29.34.34.55.09.42-.25,1.31.39.94l.23.21c-.21.4.06,1.28.45,1.47.32.15.87-.44,1.1.36.31-.03.73-.42.88-.47.26-.09.86.13.94-.36.06-.37-.28-.66.18-1.27.29-.38,1.47-.75.15-1l.59-.59-.07-.3-.37-.21c.72-.28.28-.75.23-1.17-.03-.22.13-.48.07-.72-.02-.11-.29-.09-.28-.16,0-.21.53-1.47.43-1.56h-.44c-.07-.27.25-.45.25-.67s-.37-.4-.01-.73l-.83-2.74-.44.15c.09-.98-.36-.73-.75-1.14-.42-.44.17-.89-.81-.91.09-1.35-.43-1.09-1.1-1.71-.49-.46-.61-1.22-1.18-1.34.26-.58-.32-1.5-.26-2.04.02-.21.22-.35.26-.46.03-.08-.26-.04-.3-.17-.27-1.08-.22-2.41-.22-3.52,0-.15-.16-.29-.16-.43,0-.05.3-.77.23-.81h-.44c.08-.5,1.11-.81.3-.89l.3-.66c-.49-.16-.48-.8.13-.68l-.06-.29c.98-.12.33-1.51,1.4-1.47l-.11-.26c.38-.01.33-.54.42-.62.05-.04.35.11.54.04.07-.03.96-.48.95-.61,1.05-.05,2.13-.04,3.19.29Z"/><path d="M74.45,6.65c.12.07.28.02.42.03v-.44s.57.17.57.17l.02.57c.86-.23.48.62,1.18.75.04.25-.39.44-.4.47-.18.41.38.15-.5.71-.12.08-.13.28-.21.28-.15,0-.36-.17-.57-.14-1.5.19-3.52.46-5.03.52-.19,0-.99-.32-1.11-.23.26.36-.09.22-.16.51-.15.62.14,1.06.17,1.63s-.1,1.51-.11,2.03c0,.45.36,1.59.34,1.8-.02.16-.46.64-.04.93.32.23.44-.27.32.77.15.19.38.15.59.15,1.11-.03,2.26-.4,3.37-.44l.1-.59,1.61.68.16,2.27-.65-.15c-.18.59-.56.14-1.01.18-.34.03-.63.37-.8.39-.21.03-.8-.56-1.3.17l-.14-.27c-.6.32-1.55-.3-2.04-.18-.57.14-.14,1.5-.14,1.86,0,.69-.49,1.59.33,1.91-.34.26-.54.56-.44,1.01.02.09.48.09.29.74-.04.13-.27.02-.29.31-.03.47.4,1.16.38,1.49-.01.28-.58.78-.52,1.75s.47.59.57.68-.26.94-.27,1.09c-.02.19.15.45.13.74-.03.38-.53,1.01-.07,1.41l.22-.29c.22.49-.36,1.13-.38,1.4-.03.3.37.65.4,1.04.02.35-.44.07-.31.51h.44c.06.24-.26.07-.3.24-.09.38.09.87.07,1.26s-.46.5.08.64v.29c-.48.15-.49.67-.74.87-.04.04-.89.33-1.04.38l.07-.3c-.29.12-.72.07-.91-.19-.03-.04-.45-.9-.46-.95-.05-.18-.06-.82-.12-1.17-.2-1.36-.12-3-.03-4.41.02-.32.28-1.34.27-1.61-.02-.37-.45-.63-.44-.89,0-.18.22-.33.25-.49.12-.68.01-1.04.04-1.65l-.29.15c-.17-.51.19-.91.26-1.29.05-.29-.26-.6.18-.85l-.29-.28c.66-.72.02-.96-.01-1.08-.04-.15.05-1.96.29-2.04-.4-.08-.36-.54-.31-.9.05-.3.33-.19.31-.28-.03-.14-.37-.41-.39-.59-.02-.27.36-1.23.33-1.75-.03-.6-.1-1.16-.13-1.82,0-.18-.22-.35-.22-.42,0-.17.54-.35.57-.88.02-.45-.26-.59-.31-.9-.03-.15-.09-1.91-.08-2.06.02-.29.41-1.03.38-1.31,0-.06-.83-.42-.15-1.05l-.3-.14c.06-.26.51-.44.53-.66.02-.2-.23-.3-.16-.45.05-.12.78-.98.91-1,.18-.03.45.15.71.11.45-.06,1-.43,1.56-.29l-.15-.44c.81-.27,1.74.03,2.44-.03.09,0,.05-.24.14-.25.32-.01,1.68.35,1.83.1l.03-.41c.27,0,.4.52.47.56Z"/><path d="M131.59,50.76c.11.1.43-.05.41.1-.23.59-.87,1.29-1.55,1.25-.25-.02-.42-.35-.71-.27-.26.06-.28.4-.44.54-.08.07-.32.01-.37.05-.04.03.16.58-.6.59l.14.28c-1.02-.16-.86,1.73-1.22,2.04-.2.17-.36-.22-.48.63h-.37s.15.57.15.57c-.66-.22-.59.31-.68.44-.26.37-.26.35-.49.79-.09.17-.49-.03-.15.54l-.57.02c-.25.2-.03.81-.05.84-.11.2-1.03.94-1.09,1.06-.06.15-.12,1.35-.21,1.66-.06.2-.5.2-.54.47-.09.67.55.84.54.89-.09.24-.43.64-.74.52v.29s.27.02.27.02l.02.2c-.81.45-.8,2.18.15,2.36-.5.14-.29.54-.38.88-.07.25-.33.7-.35.9,0,.07.23.05.25.13.06.22-.1.73-.08,1,.05.52.74.93.41,1.72.83.04.45.36.52.77.12.7.27,1.93.5,2.38s.18.62.23.7c.11.2,1.29.79,1.11,1.32l.44-.3c.29.94,1.55.87,2.28,1.34.53-.04.42-.57.56-.71.06-.06,1.19-.39,1.39-.68l1.08-1.42c-.03.62.17,1.34-.29,1.85l.3.29c-.24.77-.87,1.36-1.25,2.01-.11.18-.07.56-.22.66-.32.22-.9-.24-.9.65l-.37-.13c-.13.41-1.64.36-2.07.28-.06-.01-.76-.48-.99-.6-.54-.29-1.15-.64-1.79-1.02-.14-.08-.09-.29-.1-.3-.1-.07-.35.43-.59.29.01-.21,0-.75-.05-.91-.3-.97-.97-.3-1.13-.56-.27-.43.56-.59.44-.73-.62,0-.61-1.23-.88-1.42l-.45.09.15-.8c-.73-.31-.39-.79-.49-1.17-.2-.8-.52-1.67-.66-2.51-.03-.2.15-.5.08-.73-.21-.66-.72-.1-.25-1.32.05-.13.22-.11.24-.19.07-.29-.39-1.03.03-1.55h-.45s0-.59,0-.59h.45c-.34-.66.09-.89.13-1.46l-.42-.24.42-.24c-.35-.53.22-.8.27-1.11.04-.24-.34-.52.18-.5l-.29-.78.29-.24-.29-.07c.17-.38.06-.62.58-.53l-.3-.44c.95-.13.63-.69.9-1.22.17-.33.73-.87.88-1.11.16-.25.21-.62.44-.85l-.44-.44c.04-.19,1.21-1.16,1.4-1.4.15-.2,1.07-1.9,1.1-2.02s-.14-.29.02-.55c.27-.43.59-.16.88-.46l-.44-.29c.31-.4.75-.28,1.18-.37-.36-1.24.59-1,1.21-1.34s1.08-1.12,2.12-1.17l.14.3.82-.38c.19.44.63.61.89.89.12.13.09.42.18.49Z"/><path d="M152.31,18.39s.04.15.09.15c.34,0,.51-.42.54-.42l.44.33c.33.03.41-.29.55-.32.12-.02.22.15.31.16.32.03.59-.26,1.25-.01.22.08.2.23.23.25.1.05.24-.13.41.07.31.69-.24,1.14-.34,1.78l-.49-.09-.19.2c-.27-.1-.57,0-.66-.32-.14.15-.56.24-.78.28-.25.05-.21-.25-.3.26-.09-.24-.53-.27-.81-.43-.08.09-.02.83-.04,1,0,.1-.17.21-.18.34-.02.49.4.71.24,1.54-.07.35-.31.99-.36,1.38-.03.28.12.77,0,1.12l.32.06c-.4.34-.22.66-.28,1.04-.07.44-.28,1.11-.32,1.55-.03.34.25.38.27.45.06.23-.31.74-.21,1.15.02.08.21.07.22.14.01.11-.27,1.75-.28,2.15,0,.24.3.64-.16.96l.33.32c-.11.35-.38.88-.38,1.23,0,.22.17.37.17.6,0,.25-.23.48-.2.62.02.12.19.19.19.44,0,.61-.29,1.39-.42,1.87-.04.13-.05.85-.12.89l-.38-.1c.04.46-1.16.01-1.21-.03-.11-.11,0-.5-.35-.57l.33-.54c-.56-.24-.03-.5-.02-.54.03-.1-.03-1.69-.03-2.03,0-.57-.29-.63-.29-.67,0-.06.18-.5.23-.61.04-.09.2-.09.2-.13-.07-.81-.16-.7.21-1.44.23-.45-.02-.29-.06-.37-.05-.09.06-.2.02-.3-.05-.11-.24-.15-.26-.37s.15-.62.32-.76l-.32-.16c.41.05.15-.49.16-.77,0-.15.15-.29.16-.36,0-.05-.25.03-.22-.32.52-.44.1-1.3.12-1.72,0-.2.24-.33.27-.48s-.12-.25-.13-.38c0-.23.24-.61.25-.88,0-.3-.27-.57-.26-.63,0-.09.41-.27.3-.73-.03-.14-.41-.12-.33-.4h.32s-.1-.91-.09-1.03c.03-.46.34-1.23.31-1.82,0-.04-.4-.16-.22-.6-.8.03-1.75.18-2.43-.32l-.11.21c-.35-.56-1.25-.62-.78-1.48.4-.21.94-.03,1.28-.08.17-.03.41-.24.6-.24.18,0,.57.35.9.19l-.11-.32h.92s.1.21.1.21c.39-.71.91-.47,1.52-.17Z"/><path d="M80.6,7.16c.06.05,0,.27.07.35.09.12.32.13.38.29.12.35-.18.72-.11.98.05.2.39.35.39.47,0,.07-.23.25-.26.45-.06.52-.08,1.97.09,2.4.07.17.3.18.31.2.03.06-.15.76-.1.92.04.11.29.1.29.17.01.19-.49.84-.57,1.33-.03.17-.06,2.24-.04,2.36.03.29.33.15.32.43-.02.5-.48.56-.46,1.02.01.3.28.6.29.91.01.29-.19.59-.15.85.01.06.88.51-.14.84.58.58-.13,1.16-.14,1.55,0,.26.28.47.28.74,0,.35-.4.58-.44.88-.06.45.47.03.44.37-.37-.07-.59,1.12-.59,1.4,0,.62.56,1.12,0,1.77l.45.15c.03.61-.37.6-.44.78-.04.1-.16,1.55-.16,1.72,0,.07.97.57,0,1.04l.6.3c.05.5-.85,1.53.14,1.69-.85.68.45,1.6.45,1.7,0,.38-.56.94.21,1.53.51-.92,1.42-.59,2.14-.96.05-.03.71-.51.93-.65.15-.09.19-.42.32-.43.22-.03,1.32.63,1.48.87.62.93-.39,1.6.52,1.99-.24.22-.61.24-.88.07l-.16.73c-.19.01-.96-.15-1-.12-.06.04-.08.34-.23.44-.26.19-.62.02-.78.43l-1.37-.15v.59c-.07.04-1.21-.08-1.4-.13-.76-.22-1.24-.97-1.99-.45,0-.76-.5-1.45-.68-2.06-.08-.29-.05-.93-.1-1.22-.11-.7-.61-1.61-.87-2.09.09-.33.33-.85.28-1.19-.01-.1-.21-.08-.26-.18-.3-.53.99-2.08-.14-2.62.78-1.13-.02-2.74.06-3.69s.38-.69.11-1.77c-.12-.48.68-1.78.53-2.37-.02-.09-.22-.06-.24-.09-.06-.18.36-.36-.18-.49.34-.91.58-1.89.67-2.9.02-.17.12-.35.21-.5l-.59-.3c.05-.4.55-1.12.55-1.49s-.38-.73-.38-1.16c0-.63.47-2.02.53-2.69.04-.47-.16-1.23-.11-1.58.03-.25.32-.43.31-.75s-.3-.48-.29-.84c.01-.28.42-1.48.61-1.69.26-.3.99-.39,1.26-.16Z"/><path d="M38.84,47.84c-.16.44.35.87.38,1.1.04.31-.18.64-.02,1.12.12.35.44.38.5.5.08.18.1.91-.26.88.52.54.08.91.07,1.27-.01.56.42.86.29,1.54-.06.32-.48.44.38.52-.16.31-.48.38-.45.8,0,.05.21.93.24.98.13.24.48.27.5.3.03.04-.21.4-.22.57-.09.9.13,1.78.1,2.75,0,.27-.28.19-.29.28-.04.34.3.87-.17,1.26.73.04.21,1.2.35,1.71.05.19.35.17.44.4.14.35-.17.7-.19.93,0,.07.23.05.26.13.08.25-.32.65.18.74l-.59.89c.81.25.08,1.24.17,1.48.03.08.28.07.28.15.03.51-.79,1.98-.17,2.51.11.3-.28.15-.29.28-.05.47.37-.06.59.07-.15.78.11,1.35-.44,2,.58.09.06.84.06,1.17,0,.61.56,1.75.48,2.49-.01.12-.61,1.57-.68,1.65-.03.04-.77.52-.82.52-.38,0-1.31-.02-1.55-.24l.3-.58c-.67-.3-.39-.86-.46-1.31-.05-.32-.23-.58-.26-.9-.02-.23.29-.56-.02-.74l-.44-.08.43-.87-.28-.09.28-.14.02-1.11h-.59c0-.34-.05-.71.06-1.04s.43-.38.48-.46c.02-.03.14-.72.14-.78,0-.61-.49-.6-.54-.77-.14-.51.19-1.1.16-1.43,0-.07-.88-.58.14-1.05-.79-.33-.2-1.06-.15-1.63.02-.28-.07-1.15-.29-1.33l.45-.31c-.53-.75-.57-.9-.16-1.83h-.44s.26-.22.26-.22c-.03-.32.05-.32-.26-.44l.59-.59c-.5-.49-.45-1.33-.15-1.93l-.29-.06c.75-.6-.27-1.21-.23-1.7.03-.33.35-.45.43-.66.04-.1.26-1.03.24-1.09-.03-.11-.28-.09-.28-.16.02-.47.46-.71-.31-1.04.48-.3.35-.75.44-1.25-.93.08-.15-.47-.04-.85.06-.21.06-1.74.1-2.1.07-.74.06-1.39.28-2.06.03-.11-.01-.19-.04-.29l1.32.15Z"/><path d="M144.46,17.5c.75.93.59,1.97.67,3.1l.21-.11c.18.39-.31.55-.31.59,0,.17.19.59.2.87.02.43-.12.84-.18,1.22-.11.66.29.45.29.51,0,.06-.03.52-.04.55-.05.1-.42.27-.25.67,0,.02.15.01.17.07.07.2-.25.54-.27.65-.02.17.3.66.29.85,0,.07-.18.07-.23.14-.13.2.07,1.08.09,1.38.01.13-.1.29-.09.42,0,.08.21.02.23.22.02.24-.02.5-.23.65l.43.22c0,.09-.15.01-.21.13-.09.17-.09,1.97-.08,2.33,0,.12.15.24.16.35,0,.08-.32.76-.29,1.07.03.35.23,1.04.22,1.51,0,.07-.3.32-.23.59l.32.05c-.19.21-.19.45-.54.38v.11c.3,0,.33.3.32.54h-.32s-.11,1.34-.11,1.34l.43.22c-.15.21-.14.41-.43.27l.21.54h-.43s-.06.32-.06.32c-.37-.29-.78-.03-1.19-.2,0-.18-.36-.49-.37-.52-.04-.23.06-.43.05-.63,0-.08-.14-.17-.14-.3,0-.17.26-.63.25-.88-.01-.35-.25-.82-.22-1.19.02-.27.21-.69.23-1.08,0-.15-.15-.25-.13-.38.04-.18.35-.41.37-.6.02-.24-.64-.66-.09-1.11-.59-.07-.13-.74-.11-1.03.03-.41-.22-.96-.22-1.18,0-.24.22-.38.23-.54,0-.21-.25-1.27-.19-1.49.05-.15.23-.2.29-.45.12-.52-.31-1.96-.32-2.49,0-.19.19-.14.22-.23.13-.48-.16-2.13-.15-2.73,0-.09.05-.65.06-.69.05-.16.3-.15.3-.22,0-.11-.15-.39-.15-.59,0-.45.05-.52,0-1.04-.06-.67.16-.52.26-.78.24-.59-.16-1.32,1.06-1.4Z"/><path class="cls-1" d="M135.83,30.43c-.22-.22.44-.63.44-.22,0,.1-.35.31-.44.22Z"/></g></svg>