<?xml version="1.0" encoding="UTF-8"?><svg id="Layer_2" xmlns="http://www.w3.org/2000/svg" viewBox="0 0 289.48 107.99"><g id="zobo"><path d="M96.73,7.27c.08.05-.03.41.37.26l.08-.64c.32.08.79.5,1.03.56.33.08.7-.23,1.04-.19.64.07.62.77,1.27.42.24-.13.03-.52.76-.04,1.48.96,1.53.6,3,.6.92,0,1.51.68,1.95,1.39l.08-.32c.47-.25,1.57,1.08,1.86,1.45l.4-.32.16.97.48-.16c-.13.7.67.82.88,1.14s.18,1.16.26,1.27c0,.01.23-.12.32-.06.23.17,0,.6.63.24l.76,2.24.45.5c.15.83.76,1.35.1,2.19l.32.15-.32.32c1.27.49-.23,1.56.65,1.94l-.48.65.8.24c-.07.17-.6.65-.64.76-.14.38.14.92-.49,1.26l.48.48-1.46,1.46.03.37.45.42c-.25.15-.4.6-.57.73-.25.21-.52.13-.74.25-.28.15.36.16-.76.51-.16.05-.43.54-.69.62l.25.56c-.87.3-1.39,1.25-2.35,1.29l.16.32-.46.03-.03.46-.46-.15c-.33.69-1.26.91-1.97,1.04l.16.56c.22.13.93-.52.97.32l.48-.64c0,.11-.07.24.09.28.84.21,1.72,1.23,2.67,1.58.38.14.79-.2,1.19.06l.1.5.24-.49c.39.26.91.34,1.26.49.1.04.16.64.69.8l.22-.02.02-.3c.6.12.69,1.11.92,1.3.35.3,1.43.28,1.49.33.15.15.1.71.23.9.1.15.82.41,1.09.77.23.3.27.75.4.9.22.26.69.12.73.16.03.03-.09.57-.06.78.09.71.31,1.19.65,1.7.22.32-.25.47.53.34.23.1.38.74.33.95-.03.1-.51.18-.24.77l.89.15-.48,1.13c.16-.01.22-.25.31-.05.22.48.63.94-.15,1.25.33.5.65,1.12.32,1.7l.48.08c-.08.75-.75,2.31-.73,2.82.02.4.7.71-.23.66.2.33-.15.6-.17.89-.04.49.19.55.65.56l-.29.18c.36.47-.88.7-.98.81-.17.2.1.8.07,1.04-.04.3-.61.64-.68.76-.05.09.07.32-.05.49-.46.64-1.12.59-1.43.8-.14.1-.27.87-.37,1.09l-.8-.16.16.32-.97.17-.03.93-.75.24-.03.45c-.05-.17-.76.14-.8.17-.02.01.14.22.1.28-.33.57-1.32.51-1.89.69l.16.32c-.36-.01-.73-.02-1.05.18-.25.15-.12.39-.18.47-.41.53-.67.02-.88.07-.65.14-1.07,1.28-2.1.9l.16.32-1.75.28c-.33.14-.38,1.25-1.16.53v.48c-.49-.1-.67.08-.89-.48-.64.18-1.73,1.04-2.28,1.13-.59.09-1.09-.29-1.58-.27-.55.03-1.45.71-1.64.71-.14,0-.87-.49-1.29-.5-.67-.02-1.24.51-1.46.48-.28-.04-.6-.42-.98-.4-.41.02-1.05,1.22-1.21-.17l-.48.32-.33-.81-.31.15c.09-.45-.44-.63-.46-.67-.04-.1.23-.45-.12-.62l-.15.31c-.86.02-1.21-.6-1.71-.86-.19-.1-.75.23-.66-.5l.33-.24-.49-.08c-.1-.51.23-.8.26-1.13.06-.7-.23-.43.13-1.49.02-.06.21-.06.22-.12.21-.87-.69-2.17.03-2.58-.02-.47-.49-.61-.48-.65.07-.19.39-.52.4-.8.02-.96.11-1.4.18-2.27.01-.2-.48-.35.24-.81l-.65-.24c.24-.31.17-.7.26-.99.06-.2.85-1.21.07-.79-.18-.61-.05-.69.32-1.13h-.49s.49-.73.49-.73l-.31-.09c.45-.66.53-.86-.01-1.53l.33-.17c-.51-.93.1-.8.25-1.11.08-.16.09-1.39.03-1.6-.15-.48-.9-.53.19-1.16l-.33-.16.33-.72c-.52.07-.13-.59-.23-.98-.08-.32-.35-.29-.38-.39-.12-.37.54-.8.59-1.17.05-.33-.34-.87-.27-1.09.02-.08.22-.06.27-.21.4-1.04-.06-.54-.31-.68l.32-.8c-.06-.06-.58.31-.64-.16.43.08.31-.76.44-1.09.09-.22.92-.52.04-.93l.66-1.13c-.63-.14-.11-.51-.24-.74-.12-.21-.65-.1-.21-.93l.45-.03v-.97s-.49-.08-.49-.08c-.12-.62.51-1.08.33-1.75-.07-.25-.95-.26,0-1.33l-.3-.15c.2-.76.29-1.97.28-2.76,0-.07-.25-.05-.33-.3-.23-.67.19-1.09.18-1.47-.01-.96-.81-1.64.18-2.9-.78-.21.29-1.12-.65-1.23l.49-1.05-.33-.39.31-.07c-.24-.39-.19-.71.18-.98l-.49-.08c.09-.62.38-1.08.81-1.53-.49-.11-.49-1.29-.45-1.74.01-.17.26-1.1.25-1.3,0-.25-.3-.56-.28-.85.02-.37.71-.61,0-.8.43-.5.38-1.45.49-1.92.04-.15.5,0,.18-.56.77-.44.47-.95,1.5-.35l.33-.65c1.05,1.1,1.31.13,2.28,0,.39-.05.95.1,1.35.16v-.49c.26.12.52.23.76.38ZM94.48,10.17c-.15-.06-.56.02-.77-.05l.48.4c-.6.47-.35.78-.16,1.37h-.49c.41.75-.11.81-.13.89-.03.11-.03,1.29,0,1.34.05.08.76.26.24.65-.12.09-.42-.07-.45.12-.09.6.58,1.5,0,2.1l.31.14c.06,1.02.06,1.91,0,2.76-.06.91-.39,2.15.33,2.75l-.32.08v.32s.32-.16.32-.16c.14.2-.26,1.6-.27,1.88-.01.34.22.68.2.95s-.32.44-.35.64c-.11.66.07,1.62.12,2.26,0,.1.26.06.3.18.18.67-.41.58-.44.77-.05.3.23,1.86.19,2.44-.02.37-.35,1.06-.37,1.12-.1.52-.17,1.29,0,1.78.03.1.29.07.29.16,0,.34-.44,1.94-.44,2.42,0,.16.37.38.37.65s-.51.89-.44,1.27l.49.36-.32.95.33.16c-.12.33-.46.4-.56.71-.14.5.23.97.19,1.2-.06.37-.78,1.23.04,1.49-.27,0-.47.74-.48.98-.06.76.23,1.66.26,2.25.02.34-.39.72-.39.81,0,.13.33.25.38.48.06.29.02,1.61-.42,1.62l.32.16c-.36.4-.31.51,0,.89l-.32.08.32.57-.32.16.32.08c-.3.34-.75,2.06-.45,2.32.11.1.43-.05.45.1.05.41-.62.76-.8,1.13l.49.49c0,.08-.3.05-.33.18-.09.4.18,1.7.03,2.22l.62.34c-.29.38-.2.85-.8.73v.8c1.25-.06-.16.93.02,1.37.09.23.83.21.46.89.37-.23.62.13.86.13,1.44-.05,3.05-.12,4.3-.4.37-.08.61-.43,1.14-.05v-.49c.71.31,1.15.44,1.55-.32.32-.1.54.33.76.29.32-.05.79-.63,1.41-.3v-.48s1.29.15,1.29.15c-.3-.65.41-.48.65-.56.79-.24,1.59-.57,2.43-.57l-.16-.64c.58-.04,1.31-.18,1.38-.82h.88c-.32-.37.3-.3.16-.8.62.3.39-.04.61-.14.6-.27,1.29-.44,1.89-.68.45-.18.51-.65,1.06-.63l-.32-.24c.71-.46,1.05-1.66,1.94-1.54-.28-.41.34-.69.59-.96.22-.24-.02-.56.54-.73l-.32-.57c.77-.03.89-.41.17-.73l.63-1.65-.31-.28c.53-.69.65-1.93-.14-2.42l.13-.89h-.47c.29-.8-.13-1.12-.26-1.78-.14-.74.12-.79-.41-1.68-.1-.17-.38-.22-.42-.3-.1-.18.02-.49-.06-.59-.06-.07-.37.05-.48-.11-.14-.2-.51-1.1-.47-1.36-.58.36-.8-.33-1.21-.64-.51-.39-1.09-.81-1.69-1.03-.37-.14-.09.1-.61-.25-.27-.19-.69-.16-.69-.65l-.32.32-.17-.96c-.51-.39-1.18.05-1.5,0-.13-.02-.22-.58-.7-.63-.31-.03-.46.24-.62.29-.08.02-.04-.24-.2-.32-.31-.14-.64.22-.69-.65l-.8.48c-.08-.75-.46-.24-.86-.34-.25-.07-.39-.43-.68-.55-.35-.14-.79.06-1.11.03-.13-.01-.29-.21-.48-.23-.42-.04-1,.44-1.08-.36-.3.36-1.08.54-1.53.48-.28-.04-.45-.33-.81-.34-.29,0-.76.39-.97.28s-.25-.39-.41-.5c-.41-.29-1.19-.53-1.28-1.06l-.48.32-.13-1.02c.58-.52.4-2.05,1.32-1.9l.18.34c.27-.21.77-.62,1.06-.72.36-.13.6.31.9-.42l1.03.5v-.65c.92.37,1.78-.33,2.59-.16v-.65c1.16.49,1.68-.85,2.13-1.09.07-.04.28.12.45.04.21-.1.33-.46.61-.54.33-.09.73.05,1.04-.11.09-.05.04-.78.62-.75l-.15-.45,1.45-.34v-.81c.6.31.51-.42.69-.6.09-.09.36-.06.58-.3.35-.37.39-1.03.66-1.45-.89-.28.29-1.04.3-1.11.03-.21-.93-1.64.03-1.95v-.24c-.51-.02-.64-.62-.16-.73v-.24s-.3-.07-.3-.07l.06-.9h-.57c-.39-.8.48-.9,0-1.66-.27-.44-.41-.73-.64-1.13-.05-.09-1.38-1.29-1.47-1.33-.27-.1-.55.14-.64.08l.13-.29c-.62-.31-1.14-1.31-1.74-1.57-.23-.1-.44.27-.7.22-.31-.05-1.17-1.58-1.43-.22l-.29.08-.73-1.13-.32.48c-.51-.72-1.72-.39-2.18-.55-.31-.11-.48-.44-.73-.5-1.07-.29-1.87.08-3.35-.5Z"/><path d="M36.03,8.13c.31.21.51-.26.55-.27.39-.06,1.62.25,2.07.32l.18-.34,1.37.49c-.03-1.5.89-.11,1.39-.05.78.1,1.54-.77,2.36-.43.13.05.13.31.2.3.42-.02.61-.48.81-.49.71-.02,2.03.46,2.73.34.18-.03.15-.41.33-.44l.97.11.17.5.08-.49.73.32.15-.32c.45.61.92.03,1.14.04.13,0,.26.32.56.39.32.07.84-.3,1.04-.25.18.04.38.75,1.02.77.36,0,.28-.72.94-.31l.2.29c-.06.32-.02.94.24,1.14.15.12.66-.13.44.6-.05.15-.37,0-.51.18-.2.27-.56,1.23-.62,1.27-.19.13-.62.13-.94.35-.4.26-.42.86-1.17.54.28.37-.2,1.11-.57,1.14-.19.01-.51-.18-.55-.16-.07.05-.91,1.34-1.02,1.4-.25.14-.82-.06-.93.05v.47s-.33-.17-.33-.17l.12,1.26c-.6.22-2.32,1.47-2.37,2.04-.01.12.16.35.13.39s-.83.4-1.01.52c-.23.16-1.01.67-1.09.73-.09.07-1.38,1.69-1.43,1.8-.08.16-.21.59-.17.74l.47.34c-.43.37-.72.67-1.29.41.39,1.07-1.39,1.22-1.79,1.85-.12.19.01.41-.08.56-.18.31-1.21,1.89-1.35,2.05-.2.22-.56.18-.63.26-.09.11.02.42-.2.69-.23.29-.93.47-1.08.61-.11.1-.16.4-.3.6-.07.11-.31.13-.35.19-.03.04-.07.85.28.62v.16c-.16.15-1.02.43-1.06.47-.29.29-.51.8-.99,1.15-.21.15-.87.24-1.1.64-.06.11-.21,1.2.08,1.29h-1.29s.16.65.16.65h-.49c-.07.07.88,1.38-.49,1.13l-.07.5-.66.14c.15.97-.73.71-.87.84-.07.07-.23,1.51-.83,1.68l.32.24c-.34-.07-.45.43-.51.47-.15.08-.27-.34-.88.38-.04.05.08.25-.05.36-.17.15-.44.14-.61.29-.62.55.03.77-.12,1.08-.25.52-.83.07-1.07.39-.2.26-.16.67-.34.97-.3.51-1.23.57-.79,1.39h-.97c.34.9-.43.82-.72,1.15-.03.03-.5.67-.52.71-.09.18.35.7-.37.74l.32.48c-.45-.19-1.48.33-1.72.7-.1.16-.05.43-.15.57-.25.38-1.51,1.93-1.53,2.06-.08.5.42.55-.29,1.01-.17.11-.52.07-.65.21-.16.18-.02.96-.35,1.36-.19.23-.44.06-.46.09-.08.09-.05.4-.25.63-.31.35-.76.53-1.06.88l.48.08c.12.53-.53.15-.16.64h-.97s.12.24.12.24c-.4.12-.1.38-.12.39-.06.05-.37-.02-.55.17-.07.06-.48,1.54-.41,1.62.53-.14.88-.54,1.29-.32l-.16-.32,1.19.16.18-.32c.63.57.97-.22,1.62.17l.16-.33.82.48.08-.48c.79.64,1.83.2,2.75.48-.53-1.15.95.11,1.37,0,.41-.17.07-.61.09-.64.09-.14.96-.05,1.15.08l-.02.4c.39.17.65-.43.73-.45.2-.06.62.29.8.28.4,0,1.64-.25,2.08-.16.12.03.09.3.22.33.42.08,1.19-.25,1.67,0v-.65c.27-.07.12.23.19.27.37.18,1.52.25,1.84-.11l.16.33,1.21-.65.17.65.41-.48c.86-.14,1.94,1,2.58.32l.08.32h.32c-.09-.49,1-.46,1.25-.27.12.09.16.41.3.44.15.03.38-.26.64-.26.4,0,.63.63.81-.06l.4.32c.07-.79.78.17.96.24.22.09,1.08-.17,1.46.25l-.16-.81.8.02v.47c.54-.16,1.2-.21,1.71-.36.13-.04-.06-.49.76-.11.13.06.13.29.23.31.42.07.65-.27.78-.27.44,0,.73.71,1.31-.38l.96.31.15-.32c.53.75.94-.13,1.52.18v.63c.96-.57.81.63,1.79.32-.35.81-.07,1.52-.7,2.21-.08.08-.36.05-.5.22-.31.37-.3,1.28-.98.16-.2.31-.56.25-.84.38-.18.08.03.51-.78-.07l-.18.34c-.67-.05-1.61-.16-2.25-.15-.23,0-.41.28-.71.24-.49-.06-1.02-.59-1.83-.42-.12.03-.1.26-.34.35-1.02.37-1.94-.67-2.99-.16l-.02.46-2.34-.8c-.38.96-1.69-.02-2.48-.08-.7-.06-1.03.4-1.09.41-.05,0-.79-.08-.87-.1-.29-.1-.29-.66-.72-.06l-.16-.32-.42.63c-.89-.34-1.45-.69-2.46-.57-.53.06-1.14.14-1.16.75-.12-.42-.18-.18-.48-.32l-.08-.5-1.37.65-.08-.49-.74.14-.16-.32c-.43.1-.64.19-.56.66l-.24-.3c-.67.2-1.48-.16-2.13-.13s-1.21.58-1.92-.05l-.15.31-.41-.15v.49s-.47-.14-.47-.14l-.1.3c-.12-.26-.6-.26-.69-.37-.17-.2.25-.56-.59-.43-.58.09-.83.71-1.38.48l.16.48c-.92-.27-2.16-.85-3.15-.64-.29.06-.86.59-1.29.58-.36-.01-.64-.69-.89.55-.44-.02-.45-.77-.48-.81-.02-.02-.28.15-.42.15-.2,0-.45-.14-.53-.12-.02,0-.03.34-.33.38-.05,0-.95-.16-.99-.18-.58-.3-.04-1.44-.97-1.44-.08-.5.58-1.4-.16-1.61l.19-.38.62-.02-.31-.73c.28-.51,1.31-.53,1.57-.77.32-.29.45-1.28.5-1.34.32-.38,1.36-.27.83-1.2.65-.03,1.43-1.13,1.14-1.77l.8-.17-.16-.64c.32.13,1.28-.6,1.38-.81s-.14-.55.01-.93c.11-.27.71-.46.87-.77l-.32-.24,1.78-1.14-.32-.24c.21-.29.63-.53.82-.8.28-.41.76-1.69,1.13-1.92.07-.05.27.05.29.02.14-.16.45-1.29.55-1.39.12-.13.55-.03.84-.37.19-.22.32-.8.52-1.11.16-.26.53.01.23-.64l.96-.58-.32-.24.93-.2.19-1.02.65-.08.02-1.11c.24.02.94-.49,1.03-.66.08-.15-.11-.34.09-.56.31-.35,1.27-.61,1.44-.75.02-.02-.09-.26-.02-.41.04-.09,1.23-1.17,1.4-1.29.11-.08.36-.03.39-.07.1-.11-.02-.63.03-.87.08-.4.55-.47.32-.89.56.44.67-.4.84-.46.15-.06.36.16.43.11.04-.03.76-.79.39-.79l-.37-.08.97-.65-.48-.56c.2.01.39-.16.57-.16.35,0,.43.54.72.07-.81-1.2.5-1.46,1.14-1.94.15-.11.01-.29.06-.35.47-.67,1.63-2.21,2.32-2.79.28-.24,1.4-.72,1.62-1.15.04-.08-.16-.32-.06-.46s.48-.17.66-.32c.64-.52,1.62-1.47,1.06-2.25l1.9-1.5c-.29-1.03.21-.41.69-.85.2-.18-.06-.43,0-.53.1-.16.81-.29.91-.38.06-.06.57-1.19.7-1.46.1-.2.5-.04.14-.61.39.17.5-.29.6-.32.28-.07.59.06.87-.08.09-.05.78-1.75.84-1.83.28-.34,1.14-.4,1.56-.52l-.16-.64,1.29-.33v-.73s.97-.47.97-.47l-1.84-.21-.5.61c-.15-.14-.34-.36-.55-.4-.46-.1-1.84.11-2.44.13-.66.03-1.23-.03-1.87-.08-.36-.03-.82-.24-1.13-.21-.37.03-.57.52-.64.54-.26.08-1.07-.25-1.26-.25-.55,0-.63.42-.67.42-.52-.02-.66-.52-.81-.57-.14-.04-.58.13-.81-.05l-.17.48c-.89-.73-2.25.43-2.74-.49-.43.49-1.09-.03-1.3.65-.57-.42-.85-.49-1.58-.32-.14.03-.12.26-.19.27-1.04.24-1.08-.33-1.63-.45-.62-.13-.54.25-.64.28-.8.25-.84-.4-1-.45-.74-.2-.66.38-.94.34-.29-.05-.88-.6-1.55-.57-.46.02-.45.39-.82.47-.54.11-.69-.34-.62.42-.3-.16-.74-.05-1.02-.19-.24-.12-.23-.39-.36-.43-.04-.01-.5.14-.77.1-.43-.06-1.07-.2-1.41-.44,0,1.31-1.48.24-2.27.07-.5-.11-2.06-.05-2.39-.18-.17-.06-.22-.2-.2-.37-.37.1-.31.37-.16.64-.82.25-.76-.27-.97-.4-.29-.18-.59-.02-.86-.08-.16-.03-.19-.44-.59-.58-.22-.07-.56.11-.81-.08l-.08.49c-.62-.4-.31-1.25-1.12-.83l-.5-1.28c1.17-1.18,2.33-.06,3.58-.46l.15.31.25-.64c.51-.12,1.04.48,1.2.49.3.03,1.56-.12,1.92-.19.12-.03.09-.28.22-.31.28-.06,1.48-.03,1.35.49.36-.18,1.12-.4,1.53-.45.66-.09,1.08.39,1.62.38s1.44-.56,2.13-.37c.35.1.42.35.77.43.59.13,2.79-.17,3.57-.16.33,0,.51.27.64.28.24.02.54-.4.64-.4.09,0,.26.3.49.38.48.17.95-.46,1.37.07v-.49s1.04.34,1.04.34l.33-.33.41.32c0-.18.07-.4.26-.46.8-.28.61.37.95.3.14-.45.72-.51,1.1-.3.21.11.23.35.31.41Z"/><path d="M72.07,7.84c.2.11.59-.17.86-.14.38.04.63.71.81,0h.32c.18.69.51.58.77.8.76.66,1.67,1.36,2.51,1.67.03.01.47.46.52.52.17.2-.1.66.64.57l-.16.48.4-.02c.51.54-.33,1.04.49.97-.18.59.79,1.04.84,1.19.11.32-.03.69.08.9.08.15,1.01.46,1.08.54.02.03-.13.19-.09.27.02.04.2.03.23.11.21.65.24,2.94.74,3.28.13.08.4,0,.43.04.12.12-.14.6-.11.74.03.18.41.16.45.34.07.3-.17.83-.33,1.1l.32.16.32-.25c.54.54.1,1.47.19,1.86.02.07.22.07.24.13.24.64.43,1.51.38,2.28-.02.28-.4.48-.16.9l.48-.16c.17.42.06.6-.16.97h.49c-.42.69-.41,1.1-.29,1.86.01.09.24.07.26.16.11.5-.99,2.13.19,2.35l-.48.64c1.06.13-.17,1.32.65,1.54-.32.25-.18.82-.2.86-.05.07-.3.08-.37.18-.08.12.13.58-.08.82l.65-.16c.35.75-.38,1.48-.45,2.06-.05.4.27.84.23,1.1-.02.17-.35.3-.4.51-.07.27.12.54.09.75-.09.63-.55,2.11.05,2.44-.02.44-1.52,1.55-.32,1.87l-.64.48.64.24-.48.65.31.15c-.12.42-.18.71-.51,1.01-.04.04-.22-.1-.25-.07-.67.57.08,1.11-.07,1.48-.09.22-.36.23-.46.37-.5.75.27.64.17.93-.09.25-.54.44-.81.41l.32,1.05c-.17.39-.61.07-.64.09-.22.14-.17,1.47-.26,1.76-.19.61-.64.46-.69.52-.08.1.02.36-.04.5-.02.05-.42.5-.43.53-.15.68.31.58.28.65-.45.27-.76.48-.48,1.05h-.65s.18.55.18.55c-.45.17-.29.13-.18.57l-1.13.34-.03,1.11c-1.02-.1-.94.9-.63,1.63h-1.29s0,.81,0,.81l-.64.08.32.24c-.52.39-1.17.33-1.56.87-.09.13-.03.34-.07.41-.02.03-.36-.1-.66.02-.44.19-.39.95-1.43.48l.16.48-1.3.16.16.32c-.52-.14-1.26-.23-1.54.29l-1.21-.45-.08.48c-.33-.38-.9-.46-1.26-.65-.16-.09-.12-.59-.44-.23l-.08.73c-.13-.21-.56-.33-.66-.48-.17-.27.52-.94-.64-.67l-.16-.47-.16.49c-.4-.26-.43-.9-.8-1.15-.41-.27-.63.37-.58-.44-.49,0-.65-.24-1.12.14,0-1.23-.98-1.97-1.73-2.81-.07-.08-.03-.29-.16-.43s-.47-.19-.7-.44c-.53-.59,0-.57,0-.92,0-.11-.25-.07-.27-.12-.02-.04-.13-.63-.2-.68-.86-.63-.75-.84-1.13-1.83-.64-1.7-1.05-3.39-1.41-5.21-.03-.17.07-.32.1-.48h-.65c-.1-.11.09-1.36-.32-1.54l.33-.16c-.12-.54-.58-.36-.64-.41-.05-.04-.04-1.31.48-1.13v-.16c-.96-.17-.12-1.04-.19-1.5-.1-.7-1.19-1.44-.46-2.14-.77-.22.22-.88.16-1.13l-.65-.65.65-.65c-.53-.13-.13-.8-.24-1.3-.16-.71-.95-1.32.17-1.52,0-.36-.06-.7-.04-1.06.01-.2.35-.67.1-.89-.03-.03-.31.19-.64-.16v-.16c.51,0,.66-1.12.03-1.16l.1-.27-.29-.18.29-.03c-.23-.87.81-1.3.54-2.2l.29-.03-.32-.26c.1-.54.07-1.08.81-1.03v-.16c-.38.12-.45-.63-.42-.9.04-.42.59-.64-.06-.79.05-.36.55-.78.61-1.01.15-.53.26-1.73.43-2.23.08-.22.34-.34.38-.51.08-.4-.45-.88-.02-1.64.18-.32.42-.14.5-.22.03-.04.27-.88.28-.94.08-.67-.96-.96.82-1.3.17-.19.12-1.52.17-1.75.11-.45.44-.43.54-.64.25-.48-.02-.35.5-1.12.17-.26-.21-.76.63-.69l-.48-.32c.17-.11.95-.54.99-.59.17-.22-.05-.76.22-1.03.2-.21.45,0,.66-.14.28-.19.09-.69.27-.93.08-.11.37-.19.53-.36.39-.42.4-.96,1.2-.82-.24-.36-.45.02-.13-.62.96.28,1.13-.91,1.62-1.29.06-.05.41.15.62.04.32-.18.44-.67.6-.71.56-.16,1.24.21,1.73.16.71-.07,1.71-1.22,2.74-.64l.1-.33c.24,0,.26.41.35.46ZM73.16,11.42c-.1-.07-1,.19-1.32.11-1.15-.27-.87-.71-2.48-.21-.1.03-.32-.11-.38-.07-.1.07-.09.73-.67.89-.45.12-.45-.45-.81,0-.14.17.12.4-.31.48l.32.24c-.76.08-.92.3-1.29.75l.14.37c-.31.41-1.07.14-1.12.18-.07.05-.02.5-.04.56-.04.09-.22.05-.3.32-.17.62.17.84-.53,1.33-.15.1-.4.03-.43.05-.03.02.23.33.09.64-.12.27-1.6,1.03-.58,1.3l-.31.17.15.47c-.37.01-.85.41-1.09.69-.03.04.11.21.08.25-.06.09-.35.1-.49.4-.1.2.07.73-.24,1.01l.61.48-.97.81.48.32c-.16.39-.62.66-.76,1.01-.33.81.16,1.98-.53,2.38l.32.08c.16.52-.71,1.67-.74,1.85-.05.33.43,1.13-.23,1.06-.07.33.66-.03.48.4-.04.09-.63.97-.81.89-.03.35.67.06.81.16-.23.77-.94.99-.97,1.85l.49-.08c-.03.66,0,.85-.63,1.21.07.16.22.32.24.48.04.42-.07,1.05-.11,1.44-.04.35-.25.76-.15,1.12.05.18.35.18.41.27.4.6-.63.5-.4,1.14,1.16-.09-.14.81-.15.88-.01.1.72,1.36.31,1.86h.65s-.31.57-.31.57l-.49.08c.16.84,1.05,1.19.16,1.93l.28.03-.12.3h.65c-.48.74.12.73.17,1.04.1.59-.01.72-.5.98l.48.24c-.18-.17-.48.53-.47.57.01.14.36.18.43.27.04.05.09,1.07.15,1.27.37,1.18.94,2.71,1.46,3.83.19.39.84.54.21,1.33l.64-.32c.24.74.29.83-.32,1.29.47-.06.17.24.21.29.24.33.56.76.83,1.11.25.33.84.48.74,1.03l.48-.16c-.11.48.07.85.49,1.07l-.17.39.49-.09.64,1.39.65-.1.33.74c.53-.49,1.28.12,1.53.1.13-.01.31-.26.64-.27.36-.01,1.54.43,1.71.33-.29-.63.82-.94,1.29-.64v-.8c.39-.12,1.49-.08,1.75-.36.03-.03-.14-.25.02-.37.2-.15.57-.1.74-.41.29-.54-.12-1.11.84-1.4.12-.04.34.11.36.09.21-.15.51-1.63-.15-1.68.43-.72,1.21-1.27,1.92-1.73l-.29-.94c.54-.24,1.01-.69.96-1.3h-.49c.49-.78.23-1.58,1.46-1.46-.17-.41-.1-1.42,0-1.85.17-.65,1.22-1.84,0-2.19v-.16c.92-.43.73-.5.66-1.23,0-.07.67-.25.48-1.28l-.49-.25c.13.05.64-.59.7-.69.34-.62-.38-.78-.39-.86-.05-.35.41-.63.66-.79-.44-.08-.52-1.45-.25-1.7.2-.18.52-.09.57-.26.15-.43-.3-1.3-.65-1.59l.65-1.22-.64-.32.64-.65h-.81c-.08-.06.56-1.67.6-1.9.03-.16.07-2.1.05-2.21-.05-.35-.44-.51-.45-.65s.3-.41.3-.64c0-.12-.36-.11-.46-.35-.14-.35.47-1.17-.36-1.2v-.16c.76-.14-.01-.52,0-.56.14-.47.66-1.37-.13-1.57l.13-.29h-.48s.14-.79.13-.89c-.01-.09-.39.01-.31-.65.04-.27.5-.25.3-.8-.03-.09-.26-.07-.28-.19-.33-1.86-.32-1.79-1.21-3.28-.07-.12.14-.71-.11-.95l-.62-.03.32-.8c-1.4.02-.68-.87-1-1.5-.16-.31-.5-.34-.69-.61-.33-.46-.75-1.77-1.09-2.05-.14-.11-1.31-.57-1.57-.79-.28-.23-.3-.67-.35-.71Z"/><path d="M134.89,7.91c.54.27.65.37,1.39.62.26.09.59.41.71.43.22.03.35-.31.54-.23.49.21.16.78.24.9.17.26.76-.18.74.48l.64-.48c.16.24.28,1.17.36,1.27.05.06.3-.02.46.14.12.11,1.96,2.37,2.04,2.51.25.45.27.84.7,1.54.24.4.51.88.66,1.33l.31-.15c.2.51.21.7-.15,1.12.47-.07.18.39.3.73.03.09.3.77.33.81.31.57,1,.93.83,1.59-.05.19-.39,0-.33.26.69-.14.41.34.66.71.15.22.49.3.55.41.03.06-.06,1.03-.02,1.36.16,1.21.11,2.68.39,3.75.09.33.52.09.19.71l.32-.16c.27.2-.1,2.17-.09,2.51.03.6.46,1.94.41,2.57s-.51.61-.12,1.58c.2.51.95.71-.04,1.17.83.77.56,2.11.66,3.22.02.28.26.49.28.68.09.9-1.36,1.91-.13,2.72l-.32.16.65.49c.06.24-.59.64-.72,1.03-.24.73.39,2.03-.4,2.82.08.47.91.27.8.67-.04.14-.2.05-.27.14-.08.11-.03.32-.1.39-.11.1-.42-.03-.46.13-.08.37-.09.87.34.96l-.65.81.32.16c-.52.42-.19.79-.18,1.14,0,.09-.23.05-.27.15-.07.19.06.59-.36.81l.48.4c-.09-.01-.22-.01-.27.06-.33.46-.97,1.23-1.15,1.8-.07.22-.1,1.02.28.97-.16.31-.68.47-.82.68-.04.06-.42,1.1-.53,1.35-.19.45-.24,1.4-.74,1.44l.32.16-.33.81-.64-.16c-.14.3-.09.93-.24,1.14-.04.05-.74.43-1,.69-.16.17-.14.46-.25.56-.2.17-2.25.49-2.35.55-.21.14-.78,1.01-1.05,1.15-.25.13-1.63.03-2.14.15-.1.02-.11.59-.89-.03l-.08.65c-.12-.68-1.15-.3-1.3-.37-.26-.13-.31-.6-1.14-.58l-.07.3h-.32c-.15-.51-.6-.79-1.12-.82l-.02-.62c-.57.03-1.27-.2-1.72-.55-.35-.27-1.28-.97-1.58-1.25s-.57-.87-.98-1.12l-.24.32-.17-1.12-.58-.16c.16-.84-.13-.57-.23-.76-.29-.56,0-.8-.97-.86l.45-.73c-.07-.3-.87-.86-.91-.99-.1-.31.11-.62.06-.89-.06-.3-.54-.6-.56-1.04s.43-.89.21-1.48c-.23-.63-.65-.34-.69-.37-.41-.31.38-1.13.28-1.37-.04-.1-.28-.07-.28-.15.06-.77.91-1.7-.66-1.55.06-.27.02-.69.12-.93.07-.17.28-.17.35-.33.4-.9-.31-.7-.4-1.14s.6-.36.31-1.49c-.23-.89-.13-.77-.21-1.5-.01-.11-.28-.08-.31-.18-.08-.35.21-1.58.22-1.94.02-1.05-.21-2.41-.18-3.4,0-.32.44-1.15.39-1.78,0-.09-.24-.05-.29-.19-.17-.58.07-1.69.31-2.22l-.49-.08c.34-.35.18-.75.29-1.08.15-.46.95-.95.04-1.42l.79-.42c.11-.56-.43-.71-.3-1.17.02-.06.46-.38.47-1.01l-.29-.14c.05-.11.13-.24.13-.35-.04-.92.26-.65.47-1.32s-.29-.72-.29-.77c.02-.2.39-.4.42-.45.36-.75-.19-.76-.17-1.26.02-.61.98-1.61.89-2.48l-.65-.33c.18-.59.87-.57.96-.83.08-.24-.13-.53-.1-.77.1-.74.56-1.35.77-1.96.12-.34-.02-.7.18-1.09.33-.64,1.19-.68,1.58-1.33l-.32-.16c.43-.44.55-1.06.81-1.58.28-.57.26-.76.4-1.08.1-.23.58-.42.58-.8l.47.15c.25-.38-.5-.32-.32-.48.21-.19.7-.55.97-.49l-.32-.32,1.13-.33-.16-.32h.81s-.12-.29-.12-.29l.28-.13-.16-.38c.44-.25.96-.17,1.37-.31,1.1-.38,1.02-.91,2.29-.28ZM134.98,12.01c-.1-.06-.15-.4-.29-.44-.87.18.39,1.32-.89,1.3.38.74-.59,1.13-.75,1.78h-.92s-.19-.5-.19-.5c-.93-.17-1.83.92-.73,1.3v.16s-.81.33-.81.33c.4.43-.52.53-.76.86s-.38,1.15-.82,1.49l.28.4-.65.17.48.48c-1.26.37-.73.58-.8,1.19-.01.11-.29.08-.32.2-.04.13.15.65.1.79-.07.21-.38.17-.4.32-.05.26-.03,1.37.46,1.21l-.32.32.32.08-.8.81c.59.78.14.44-.02.68-.12.18,0,.42-.05.59-.06.22-.34.31-.26.59l.64-.08c-.15.92-.32.57-.6.76-.17.12-.44,1.69-.37,1.96.09.37.26-.3.11.94-.12,1.01-.41.91-.44,1.06-.09.41-.2,1.35-.3,1.91-.04.26-.33,2.4-.27,2.51l.41.08.16.31-.65.97c.93.29-.31,1.72,0,2.18l.32-.16c.33.54-.24.79-.29,1.08-.03.21.55.86-.03,1.34l.81-.16c.18.48-.64,1.17-.65,1.24-.19,1.01.5,1.77.56,2.61.03.46-.2.96-.17,1.38.03.52.12.85.15,1.44.02.34.19,2.26.32,2.35.87.03.27.76-.2,1.16l.48-.07c.28.46.1,1.19.2,1.61.02.08.29.06.3.18.03.39-.34.42.25.87l.38-.16c.39.65-.33.99-.32,1.05.04.21.47,1.04.79.74l.18,1.28.64-.16c-.25.65.29.95.55,1.31.12.16.08.44.1.47.04.05.41-.15.64-.09.49.12.56.65.81.81.34.23,1.21.18,1.51.4.18.13.06.45.1.5.05.06,1.31-.04,1.5,0,.13.02.11.39.55.46.1.02,1.47.05,1.55.03.12-.02.13-.26.23-.32.18-.11.55-.27.64-.36.03-.03.01-.56.25-.73.05-.04.49.09.73-.09.16-.12.23-.52.43-.71.48-.45,1.13-.57,1.5-.86.24-.19.07-.44.09-.46.22-.22.94-.11.78-.99l-.65-.16c.46.1.13-.3.31-.41l.49-.08c-.36-.89.1-1.39.81-1.86v-.32s-.34-.17-.34-.17l.82-1.45-.49-.08.3-1.19.67-.1c-.35-.78,1.19-2.22-.16-2.26l.32-.24-.33-.16c.13-.55.61-.37.64-.41.04-.04-.13-.71-.1-.97.06-.47.43-1.02.5-1.47.13-.86-.22-1.99-.22-2.81,0-.52.51-1.42-.19-1.62.75-.27-.16-1.37-.18-1.95,0-.16.43-.42.5-.81l-.32-.07c-.07-.27.22-.1.29-.18.02-.02-.05-.62-.06-.65-.11-.34-.38-.29-.4-.41-.07-.42.27-.99.31-1.41l-.79-.26.65-1.13-.65-.17.49-.89-.33-.31.32-.73-.65-.17c.16-.63.31-.78.14-1.44-.83.17-.21-.72-.2-1.2.02-.7-.41-1.14-.1-1.73l-.49-.09c-.06-.46.25-1.74.17-2.06-.03-.13-.28-.09-.32-.23-.05-.19.04-.42-.05-.65-.02-.04-.56-.39-.6-.61l.49-.08-.16-.8-.65.16c-.35-.6.11-1.01.11-1.51,0-.14-.35-1.49-.42-1.65-.14-.31-.62-.55-.63-.59-.1-.3.21-.95-.18-1.48-.13-.18-.4-.05-.49-.11-.03-.02.16-.37-.03-.68-.15-.25-.44-.29-.54-.45-.19-.31,0-.71-.65-.96l-.08.32h-.32s-.08-1.29-.08-1.29c-.21-.33-.71.12-.88,0-.05-.04-.3-.85-.55-1.07-.33-.29-.98-.34-1.36-.58Z"/><path d="M101.14,71.42s.26.05.3.27l-.2.53c.58.05.33.93.39,1.37l.26.06c.04-.37.32-.27.6-.56.48-.5,1.02-1.12,1.62-1.71.13-.13.11-.37.25-.51.06-.06,1.23-.52,1.31-.46l-.09.23s.2.02.22.12c.22.89-1.24,1.67-1.31,2.5h-.51c.37.76-.5.57-.64,1.11.25.2.4.62.64.79.21.15.5.15.66.26.13.09-.01.29,0,.31.09.1.57.05.68.13.14.1.03.33.16.42.17.11.9.31,1.26.51.09.05.1.23.11.23.08.03.32-.16.54-.1.27.08.25.48.38.61.14.14.39.02.46.07.3.2.66.73.56,1.12h.38c-.3.86-1.09,1.14-1.87.78l-.27.27c-.53-.51-1.82-1.78-2.51-1.93-.2-.04-.45.09-.56.04-.13-.06-.17-.31-.3-.42-.35-.31-.3-.31-.6-.63-1.08-1.14-.65.02-.81.5-.01.04-.47.48-.53.52-.57.36-.66-.06-1.26-.05.22-.33.02-.85-.14-1.2-.06-.13-.26-.1-.25-.16.02-.09.2-.2.21-.39.02-.55-.3-1.99-.37-2.69-.08-.76-.52-2.37-.02-2.96s1.05.07,1.27.56c.09.21-.03.39,0,.45Z"/><path d="M34.01,72.75l.14.9c.55-.16.69.74.9.99.1.13.38.15.4.27.04.22-.15.53-.15.76,0,.32.15.6.15.9,0,.38-.27.73-.01,1.1-.73-.05-.26.73-.91.39l.13.52c-.66.01-1.33.29-1.99.22-.1-.01-.2-.15-.32-.18-.52-.11-.65.11-.88-.69-.39-.05-.62.36-.92.4-.48.06-.56-.45-.96,0,.05-.79.23-1.68-.13-2.41l.27-.14c-.13-.74-.31-1.35-.25-2.19s.13-1.59.18-2.33c.02-.24-.2-.55.05-.8,1.12-.54,2.97-1.02,4.09-.3.53.34,1,1.1.94,1.74-.03.26-.41.46-.27.84h-.46ZM33.35,71.57l-.36-.36c-.81.13-1.49-.63-2.1.16.12.44.35.93.11,1.37l.33.13c.22-.57,1.14-.56,1.53-.78.16-.09.09-.57.48-.53ZM31.52,73.93c-.72-.02.04.86-.51.96v.26c.47,0,.08.92.16,1.08.01.02.37.36.39.38.17.09.41,0,.61.1.17.08.32.42.48.44.21.03.32-.43.7,0l.61-1.23c-.23-.21-.33-.71-.42-.83-.42-.57-1.17-.67-1.56-1.05l-.38.14-.08-.25Z"/><path d="M95.74,70.56s-.09.14-.06.21c.02.06.33-.06.09.55h.38c-.18.47.29,1.2.28,1.48,0,.05-.52.35-.38.79.04.12.31.1.34.25.19,1.14.1,2.25-.11,3.38-.05.31-.04.55-.04.85l-.92.5c-.6-.01-.7-.44-.99-.57-.15-.07-.33.07-.36.05-.17-.1-.51-1.2-.56-1.25-.05-.06-.31-.02-.43-.14-.05-.05-.35-1.02-.46-1.18l-.39.07-.12-.15v-.57c-.86.17.34,1.93-.92,1.95l.13.26c-.89.17-1.57-.34-1.57-1.23,0-.31.25-.56.28-.91.05-.58.02-1.29.06-1.97.03-.41-.07-1.19.13-1.46.07-.1.27-.12.3-.15.04-.06-.37-1.13.68-1.09.79.38.88,1.19,1.24,1.88.09.17.31.28.41.5.21.43.26,1.02.57,1.45l.24-.11.2.79h.32c.02.41.02.74.46.89l.03-1.64c-.35-.61-.12-1.5-.14-2.17,0-.2-.23-.73-.17-1.06,0-.05.61-.55.68-.7.05-.01.77.5.8.54Z"/><path d="M18.64,68.73c.06.08-.01.38.04.54.07.2.33.31.35.44s-.19.29-.2.5c-.02.26.18.51.18.78,0,.39-.25,2.07.11,2.13.3-.1.74-.05,1-.12.11-.03.15-.58.68,0l.19-.19c-.45-.57.73-1.15,0-1.42.52-.66-.09-1.21-.02-1.83.03-.24.39-.23.27-.58.8.07.78.38,1.05.94.05.1.25.1.25.18,0,.14-.16.33-.14.49,0,.08.24.07.27.16.03.11-.17.85-.14,1.16.02.25.27.18.28.27.02.21-.18.47-.14.75.15,1,.06,1.84.2,2.86.03.19-.11.42-.07.63.02.1.27.09.27.15.01.33-.69.76-.27,1.36l-1.09.11c-.25-.08-.23-.36-.35-.54-.06-.09-.23-.09-.24-.12-.05-.12.12-.33.09-.53-.08-.57-.11-1.07-.11-1.71,0-.35.3-.76-.07-1.12-.59.37-1.21.06-1.87.28l-.27,1.29c.95.02.05.35.02.41-.01.03,0,.54,0,.57.02.09.17.05.2.13.11.3-.21.35-.22.41-.05.28.06.61-.02.87-.12.37-1.22.8-1.61.48l-.2-.85.27-.2-.27-.08.13-.39c0-.07-.22-.04-.25-.14-.04-.16.48-1.87.53-2.33.05-.53.07-1.23.11-1.82,0-.07-.24.01-.26-.25-.04-.55.18-1.36.24-1.95.02-.25-.07-1.22.07-1.47.01-.02.36-.38.38-.39.06-.03.59.1.61.13Z"/><path d="M74.29,70.51l.03-.23h.19c.14.4.47.36.72.57.34.29.45.76.69,1.06.12.16.44.21.55.45.06.13-.05.29-.04.32.04.09.21.05.23.14.07.52.09.84.2,1.41.06.32-.33.53.32.78l-.35.38.22.85-.36.02c.02.83-.84.6-.81,1.28-.62-.25-.41.08-.79.18-.34.09-.89.14-1.23.09-.24-.03-.17-.22-.25-.24-.16-.03-.62.06-.85-.03l.26.65c-.24.18-.52-.08-.58-.08-.21.02-.24.29-.73.15-.25-.07-.72-1.16-.74-1.47-.02-.36.15-.67.24-1l-.27-.14.26-.39-.26-.06c-.04-.26.21-.32.24-.58.02-.21.02-1.09-.25-1.04.59-.5-.02-1.4.08-1.89.02-.1.85-.99.94-1.02.72-.32,1.59-.39,2.34-.17ZM74.27,72.01c-.24-.28-1.06-.6-1.24-.09-.04.13-.28,1.83-.26,1.97.04.29.15.36.24.61l-.25.12.05.88.65.64,1.35-.16.54-1.48-.39-.06.2-.52-.1-.24c-.59,0-.19-.08-.28-.54-.02-.13-.44-1.04-.51-1.13Z"/><path d="M82.23,70.69c.05.05.02.26.09.36s.62.29.68.43-.11.72-.06.81c.09.17.36.17.35.25-.03.16-.26.42-.3.59s.08.32.02.49c-.04.13-.51.29-.57.34-.34.29-.48.79-1.09.8.56.28,1.07.36,1.18,1.1l.64-.12c0,.32-.29.65.13.78l.13-.26c-.18.66.65.81.75.93.17.2-.09.91.55.76.09.45-.42.37-.26.91l-1.69-.13v-.52s-.39.13-.39.13c.03-.24-.3-.78-.46-.91-.21-.16-.42-.11-.57-.21-.26-.16-.29-.76-.92-.58l.24.56c-.02.29-.28.33-.41.52-.4.61.03.77-1.1.46-.06-.04-.33-1.17-.35-1.34-.04-.38.15-.84.14-1.04-.03-.39-.35-1.53-.34-1.81,0-.08.27-.02.28-.26.02-.38-.22-.52-.26-.78-.06-.42.19-1.07,0-1.54.26-.1.66-.6.76-.66.24-.14,1.6-.31,1.94-.27.09,0,.87.19.9.22ZM81.34,73.02c.93-.14.59-1.41-.1-1.55-.45-.09-.85.15-1.33-.15l-.13.65h.39c-.24.62.43.89,0,1.56l1.3-.13-.13-.37Z"/><path d="M111.94,70.12c.2.19.66.55.94.81s.13.44.71.39l-.25.32c.32.39.94.49.9,1.1l.52-.13v.91s.33,0,.33,0c0,.33.12.62.27.9.14.25.96,1.21,1,1.35.09.28-.14.78.09,1.14l.26-.13c0,.11.04.22.06.33.01.1.06.86.05.91,0,.1-.37-.02-.24.32l.52.13c-.32-.04-.15.15-.31.39-.08.12-.29.22-.4.4-.12.2-.19.73-.22.75-.08.06-.31-.03-.4.02-.13.07-.11.25-.18.26-.32.05-1.02-.45-1.48-.27l.26-.52h-.38s0-.44,0-.44c.44-.16-.09-.46.5-.66-.15-.56-.17-1.11-.38-1.66-.04-.11-.24-.12-.29-.26-.11-.31.02-1.07-.18-1.5-.11-.24-.33-.11-.4-.18-.04-.04-.27-.91-.5-1.14-.15-.15-.37-.11-.42-.17-.07-.08-.01-.34-.1-.48-.31-.51-1.01-.88-.97-1.7l-.39.13c-.13-.55-.63-1.1-.78-1.63-.11-.39.28,0,.37-.07.08-.29.14-.41.46-.39.05,0,.83.3.86.34.12.12.08.33.16.42Z"/><path d="M62.22,71.58c-1.23-.51-1.44.74-1.36,1.69.17.31.55.22.79.39.67.47,1.59,1.6,1.94,2.21.07.13.45.23.45.33,0,.04-.19.15-.21.26-.02.17.28.4.28.73,0,.56-.43,1.16-.32,1.68-.6-.28-.9.34-.97.35-.09.02-.29-.1-.49-.06-.27.05-.75.24-.96.22-.38-.02-.99-.94-1.55-.89-.18-.41-.1-1.47.41-1.56.13-.02,1.23.67,1.66.39.09-.07.18-.72.14-.81-.03-.06-.92-.91-.97-.95-.14-.09-.36.02-.49-.11-.4-.4-.32-.53-.99-1.03-.21-.16-.2-.47-.6-.37l.2-.53-.33-.32c.14-.27.3-.64.38-.92.04-.14-.13-.34-.1-.43,0-.01.17-.02.22-.12.1-.21.08-.41.27-.62.17-.19.44-.25.65-.39.13-.09.15-.34.36-.42.95-.37,1.86.19,1.6,1.27Z"/><path d="M45.28,70.18c.29.36.2,1.18-.21.99-.01,0,0-.18-.11-.24-.46-.22-.86,0-1.32-.13l-.28,1.21c.55.43,1.25.61,1.86.99.13.08.27.35.41.46.1.09.32.07.41.18.09.11-.21.8.45.66l-.13.91h.39s-.27.96-.27.96l.27.14c-.26.23-.12.52-.25.79-.17.37-.61.27-.29.78l-.18.19-.5-.12-.21.51c-.35-.22-.7.03-.95,0-.09,0-.09-.22-.18-.26-.52-.2-1.12-.19-1.64-.42-.77-.34-1.12-1.53-.73-2.32.72-.11.97,1.15,1.63.52l.2.52.23-.11.22.37.39-.39.19.39.27-.58-.27-.15c.19-.77-.02-1.45-.65-1.92-.26-.19-.45-.26-.82-.55s-.79-.55-1.14-.88c-.04-.04-.17-1.01-.18-1.13,0-.24.56-1.3.81-1.44l-.1-.23c.64.03.89-.46,1.58-.31.29.06.94.39,1.11.61Z"/><path d="M54.19,71.43l.23.02v.26s-.26.06-.26.06c.45.32.12.86.15,1.28s.09,1.79.5,1.77v.25s-.26.07-.26.07c.38.44.44.35.26.98.1.13.83-.07.91-.14.02-.02-.15-.25-.04-.48.1-.21.34-.25.38-.33.05-.09.05-.44.1-.59.01-.03.2-.05.28-.29s.02-.57-.2-.72l.27-.14c.02-.81-.1-1.05-.34-1.74-.19-.54.46-1.41,1.05-1.43-.04.34.4.47.44.6.03.08,0,1.43.01,1.65,0,.09.33.08.35.42,0,.06-.1,1.03-.12,1.12-.06.29-.48.28.03.42-.41.48-.36,1.36-.66,1.93-.07.14-.6.63-.73.77-.09.1,0,.32-.26.45-.47.25-1.7.16-2.16-.1-.23-.13-.12-.39-.23-.55-.09-.14-.27-.14-.36-.32-.24-.52-.41-1.29-.29-1.86l-.26.13c0-.47.15-1.2.14-1.63,0-.21-.34-.13-.25-.65.13-.71.06-.42.04-.98,0-.24.32-1.48.53-1.55.55-.01.94.81.73,1.28Z"/><path d="M50.89,70.9s-.27.09-.37.21c-.15.19-.6.76-.63.94-.11.66.08.29-.25,1.04-.31.7.06.68.07.88,0,.09-.33.24-.37.52-.04.26.19.55,0,.84l.39.07-.37.63.85.87c.62-.09,1.01.2,1.6-.26-.09.19.02.73,0,.83-.04.11-.45.05-.15.54-.98.81-1.83.34-2.94.42-.52-.64-.79-1.17-.92-2-.08-.47.13-1.38-.28-1.55.17-.42.44-1.14.52-1.57.09-.51-.29-1.19.47-1.48l-.2-.33c.56-.17.4-.67.45-.72.21-.28.81-.29.85-.32.1-.06.14-.3.25-.38.68-.45,1.28.38,1.02.81Z"/><path d="M14.03,67.99c-.96,1.3-1.19,2.13-1.54,3.65-.2.88-.47,2.34-.45,3.37,0,.32.23,1.15.34,1.48.05.16.25.16.27.18.17.36-.16.08.39.67.05.06.01.24.07.3.03.03.77.43.81.43.36.04.66-.34.97-.2-.5.6-1.06.94-1.85.81-1.06-.18-1.1-.62-1.68-1.31-.25-.3-.88-.46-.23-.67-.33-.71-.48-1.54-.4-2.33.04-.4.33-.78.34-.91.1-2,.37-3.22,1.5-4.96.19-.3-.07-.1.38-.61.37-.41,1.29-1.53,1.69-.66-.03.38-.45.56-.6.77Z"/><path d="M26.16,69.93s.37.5.38.54c.05.38.1,2.09.23,2.36.09.17.34.15.35.26,0,.1-.15.3-.13.5.12,1.19.11,2.01,0,3.13-.04.4.04.81-.03,1.21-1.29.64-2.02-.04-1.39-1.35l-.27-.25c.28-.65.27-1.85.25-2.6-.01-.45-.39-.47-.39-.53,0-.21.26-.6.24-1.04-.03-.47-.37-.61-.37-.65.01-.32.69-.79.15-1.48l.57-.27c.16,0,.29.06.42.16Z"/><path d="M37.52,70.02c-.24.43.28.41.37.55.05.07-.09.27-.04.37.08.21.28.35.32.58.05.3-.12.67-.06.84.11.32.76.48.19,1.03l.24.02-.09.35.24.27-.39.06c.53.76.41,1.73.66,2.57.03.11.25.11.25.16-.04.47-.82.79-.38,1.37-.71-.07-.97.04-1.43-.58-.66-.91-.06-1.08-.17-1.71-.06-.34-.43-.79-.45-1.17,0-.15.25-.7.23-1.02-.01-.25-.25-.16-.26-.27-.07-.65.05-1.84.08-2.53.01-.23-.1-.46-.09-.7l.79-.2Z"/><path d="M86.8,70.93c-.24.41.24.54.33,1.04.06.31-.08.42-.07.57,0,.08.23.06.26.16.14.57.25,1.51.35,2.16.02.1-.11.28-.08.4.05.2.39.16.38.28-.01.17-.2.29-.23.49-.08.56.37,1.41-.36,2.04l-.32-.26-.07.52c-.07-.42-.66-.45-.79-.65-.08-.13.08-.39-.01-.62-.06-.17-.28-.17-.28-.18-.12-.33.01-2.83-.06-3.41-.04-.3-.48-1.01-.36-1.55.02-.1.23-.07.25-.17.02-.06-.08-.22-.02-.4.32-.91.47-.27,1.07-.43Z"/></g></svg>